  0
SECTION
  2
HEADER
  9
$ACADVER
  1
AC1014
  9
$ACADMAINTVER
 70
     0
  9
$DWGCODEPAGE
  3
ANSI_1252
  9
$INSBASE
 10
0.0
 20
0.0
 30
0.0
  9
$EXTMIN
 10
0.0
 20
0.0
 30
0.0
  9
$EXTMAX
 10
255.0
 20
330.0
 30
0.0
  9
$LIMMIN
 10
0.0
 20
0.0
  9
$LIMMAX
 10
12.0
 20
9.0
  9
$ORTHOMODE
 70
     0
  9
$REGENMODE
 70
     1
  9
$FILLMODE
 70
     0
  9
$QTEXTMODE
 70
     0
  9
$MIRRTEXT
 70
     1
  9
$DRAGMODE
 70
     2
  9
$LTSCALE
 40
1.0
  9
$OSMODE
 70
    37
  9
$ATTMODE
 70
     1
  9
$TEXTSIZE
 40
0.2
  9
$TRACEWID
 40
0.05
  9
$TEXTSTYLE
  7
STANDARD
  9
$CLAYER
  8
0
  9
$CELTYPE
  6
BYLAYER
  9
$CECOLOR
 62
   256
  9
$CELTSCALE
 40
1.0
  9
$DELOBJ
 70
     1
  9
$DISPSILH
 70
     0
  9
$DIMSCALE
 40
1.0
  9
$DIMASZ
 40
0.18
  9
$DIMEXO
 40
0.0625
  9
$DIMDLI
 40
0.38
  9
$DIMRND
 40
0.0
  9
$DIMDLE
 40
0.0
  9
$DIMEXE
 40
0.18
  9
$DIMTP
 40
0.0
  9
$DIMTM
 40
0.0
  9
$DIMTXT
 40
0.18
  9
$DIMCEN
 40
0.09
  9
$DIMTSZ
 40
0.0
  9
$DIMTOL
 70
     0
  9
$DIMLIM
 70
     0
  9
$DIMTIH
 70
     0
  9
$DIMTOH
 70
     0
  9
$DIMSE1
 70
     0
  9
$DIMSE2
 70
     0
  9
$DIMTAD
 70
     1
  9
$DIMZIN
 70
     0
  9
$DIMBLK
  1

  9
$DIMASO
 70
     1
  9
$DIMSHO
 70
     1
  9
$DIMPOST
  1

  9
$DIMAPOST
  1

  9
$DIMALT
 70
     0
  9
$DIMALTD
 70
     2
  9
$DIMALTF
 40
25.4
  9
$DIMLFAC
 40
1.0
  9
$DIMTOFL
 70
     0
  9
$DIMTVP
 40
0.0
  9
$DIMTIX
 70
     0
  9
$DIMSOXD
 70
     0
  9
$DIMSAH
 70
     0
  9
$DIMBLK1
  1

  9
$DIMBLK2
  1

  9
$DIMSTYLE
  2
STANDARD
  9
$DIMCLRD
 70
     0
  9
$DIMCLRE
 70
     0
  9
$DIMCLRT
 70
     0
  9
$DIMTFAC
 40
1.0
  9
$DIMGAP
 40
0.09
  9
$DIMJUST
 70
     0
  9
$DIMSD1
 70
     0
  9
$DIMSD2
 70
     0
  9
$DIMTOLJ
 70
     1
  9
$DIMTZIN
 70
     0
  9
$DIMALTZ
 70
     0
  9
$DIMALTTZ
 70
     0
  9
$DIMFIT
 70
     5
  9
$DIMUPT
 70
     0
  9
$DIMUNIT
 70
     2
  9
$DIMDEC
 70
     2
  9
$DIMTDEC
 70
     4
  9
$DIMALTU
 70
     2
  9
$DIMALTTD
 70
     2
  9
$DIMTXSTY
  7
STANDARD
  9
$DIMAUNIT
 70
     0
  9
$LUNITS
 70
     2
  9
$LUPREC
 70
     4
  9
$SKETCHINC
 40
0.1
  9
$FILLETRAD
 40
0.5
  9
$AUNITS
 70
     0
  9
$AUPREC
 70
     0
  9
$MENU
  1
.
  9
$ELEVATION
 40
0.0
  9
$PELEVATION
 40
0.0
  9
$THICKNESS
 40
0.0
  9
$LIMCHECK
 70
     0
  9
$BLIPMODE
 70
     0
  9
$CHAMFERA
 40
0.5
  9
$CHAMFERB
 40
0.5
  9
$CHAMFERC
 40
1.0
  9
$CHAMFERD
 40
0.0
  9
$SKPOLY
 70
     0
  9
$TDCREATE
 40
2450772.666465926
  9
$TDUPDATE
 40
2459354.412476852
  9
$TDINDWG
 40
0.0011565046
  9
$TDUSRTIMER
 40
0.0011565046
  9
$USRTIMER
 70
     1
  9
$ANGBASE
 50
0.0
  9
$ANGDIR
 70
     0
  9
$PDMODE
 70
     0
  9
$PDSIZE
 40
0.0
  9
$PLINEWID
 40
0.0
  9
$COORDS
 70
     1
  9
$SPLFRAME
 70
     0
  9
$SPLINETYPE
 70
     6
  9
$SPLINESEGS
 70
     8
  9
$ATTDIA
 70
     0
  9
$ATTREQ
 70
     1
  9
$HANDLING
 70
     1
  9
$HANDSEED
  5
10E
  9
$SURFTAB1
 70
     6
  9
$SURFTAB2
 70
     6
  9
$SURFTYPE
 70
     6
  9
$SURFU
 70
     6
  9
$SURFV
 70
     6
  9
$UCSNAME
  2

  9
$UCSORG
 10
0.0
 20
0.0
 30
0.0
  9
$UCSXDIR
 10
1.0
 20
0.0
 30
0.0
  9
$UCSYDIR
 10
0.0
 20
1.0
 30
0.0
  9
$PUCSNAME
  2

  9
$PUCSORG
 10
0.0
 20
0.0
 30
0.0
  9
$PUCSXDIR
 10
1.0
 20
0.0
 30
0.0
  9
$PUCSYDIR
 10
0.0
 20
1.0
 30
0.0
  9
$USERI1
 70
     0
  9
$USERI2
 70
     0
  9
$USERI3
 70
     0
  9
$USERI4
 70
     0
  9
$USERI5
 70
     0
  9
$USERR1
 40
0.0
  9
$USERR2
 40
0.0
  9
$USERR3
 40
0.0
  9
$USERR4
 40
0.0
  9
$USERR5
 40
0.0
  9
$WORLDVIEW
 70
     1
  9
$SHADEDGE
 70
     3
  9
$SHADEDIF
 70
    70
  9
$TILEMODE
 70
     1
  9
$MAXACTVP
 70
    48
  9
$PINSBASE
 10
0.0
 20
0.0
 30
0.0
  9
$PLIMCHECK
 70
     0
  9
$PEXTMIN
 10
0.0
 20
0.0
 30
0.0
  9
$PEXTMAX
 10
0.0
 20
0.0
 30
0.0
  9
$PLIMMIN
 10
0.0
 20
0.0
  9
$PLIMMAX
 10
12.0
 20
9.0
  9
$UNITMODE
 70
     0
  9
$VISRETAIN
 70
     1
  9
$PLINEGEN
 70
     0
  9
$PSLTSCALE
 70
     1
  9
$TREEDEPTH
 70
  3020
  9
$PICKSTYLE
 70
     1
  9
$CMLSTYLE
  2
STANDARD
  9
$CMLJUST
 70
     0
  9
$CMLSCALE
 40
1.0
  9
$PROXYGRAPHICS
 70
     1
  9
$MEASUREMENT
 70
     0
  0
ENDSEC
  0
SECTION
  2
CLASSES
  0
CLASS
  1
LWPOLYLINE
  2
AcDbPolyline
  3
AutoCAD 2000
 90
       20
280
     0
281
     1
  0
CLASS
  1
IMAGE
  2
AcDbRasterImage
  3
ISM
 90
       21
280
     0
281
     1
  0
CLASS
  1
OLE2FRAME
  2
AcDbOle2Frame
  3
AutoCAD 2000
 90
       21
280
     0
281
     1
  0
CLASS
  1
HATCH
  2
AcDbHatch
  3
AutoCAD 2000
 90
       20
280
     0
281
     1
  0
CLASS
  1
DICTIONARYVAR
  2
AcDbDictionaryVar
  3
ObjectDBX Classes
 90
       20
280
     0
281
     0
  0
CLASS
  1
RASTERVARIABLES
  2
AcDbRasterVariables
  3
ISM
 90
       21
280
     0
281
     0
  0
CLASS
  1
IMAGEDEF
  2
AcDbRasterImageDef
  3
ISM
 90
       21
280
     0
281
     0
  0
CLASS
  1
IMAGEDEF_REACTOR
  2
AcDbRasterImageDefReactor
  3
ISM
 90
       21
280
     0
281
     0
  0
CLASS
  1
IDBUFFER
  2
AcDbIdBuffer
  3
ObjectDBX Classes
 90
       20
280
     0
281
     0
  0
CLASS
  1
SPATIAL_FILTER
  2
AcDbSpatialFilter
  3
ObjectDBX Classes
 90
       20
280
     0
281
     0
  0
CLASS
  1
XRECORD
  2
AcDbXrecord
  3
AutoCAD 2000
 90
       21
280
     0
281
     0
  0
CLASS
  1
SORTENTSTABLE
  2
AcDbSortentsTable
  3
"AutoCAD"
 90
        0
280
     0
281
     0
  0
CLASS
  1
LAYER_INDEX
  2
AcDbLayerIndex
  3
"Acad"
 90
        0
280
     0
281
     0
  0
CLASS
  1
SPATIAL_INDEX
  2
AcDbSpatialIndex
  3
"Acad"
 90
        0
280
     0
281
     0
  0
CLASS
  1
OBJECT_PTR
  2
CAseDLPNTableRecord
  3
"ASE-LPNTableRecord"
 90
        1
280
     0
281
     0
  0
CLASS
  1
LAYOUT
  2
AcDbLayout
  3
"AutoCAD 2000"
 90
        1
280
     0
281
     0
  0
CLASS
  1
PLOTSETTINGS
  2
AcDbPlotsettings
  3
"AutoCAD 2000"
 90
        1
280
     0
281
     0
  0
CLASS
  1
ACDBDICTIONARYWDFLT
  2
AcDbDictionaryWithDefault
  3
"AutoCAD 2000"
 90
        1
280
     0
281
     0
  0
CLASS
  1
ACDBPLACEHOLDER
  2
AcDbPlaceholder
  3
"AutoCAD 2000"
 90
        1
280
     0
281
     0
  0
CLASS
  1
VBA_PROJECT
  2
AcDbVbaProject
  3
"AutoCAD 2000"
 90
        1
280
     0
281
     0
  0
CLASS
  1
WIPEOUT
  2
AcDbWipeout
  3
"AutoCAD 2000"
 90
        1
280
     0
281
     1
  0
CLASS
  1
WIPEOUTVARIABLES
  2
AcDbWipeoutVariables
  3
"AutoCAD 2000"
 90
        1
280
     0
281
     0
  0
CLASS
  1
RTEXT
  2
RText
  3
RText|AutoCAD Express Tool|expresstools@autodesk.com
 90
        1
280
     0
281
     1
  0
CLASS
  1
ARCALIGNEDTEXT
  2
AcDbArcAlignedText
  3
RText|AutoCAD Express Tool|expresstools@autodesk.com
 90
        1
280
     0
281
     1
  0
ENDSEC
  0
SECTION
  2
TABLES
  0
TABLE
  2
VPORT
  5
8
100
AcDbSymbolTable
 70
     1
  0
VPORT
  5
25
100
AcDbSymbolTableRecord
100
AcDbViewportTableRecord
  2
*ACTIVE
 70
     0
 10
0.0
 20
0.0
 11
1.0
 21
1.0
 12
127.5
 22
165.0
 13
0.0
 23
0.0
 14
0.5
 24
0.5
 15
0.5
 25
0.5
 16
0.0
 26
0.0
 36
1.0
 17
0.0
 27
0.0
 37
0.0
 40
330.0
 41
0.772727
 42
50.0
 43
0.0
 44
0.0
 50
0.0
 51
0.0
 71
     0
 72
   100
 73
     1
 74
     1
 75
     0
 76
     0
 77
     0
 78
     0
  0
ENDTAB
  0
TABLE
  2
LTYPE
  5
5
100
AcDbSymbolTable
 70
     3
  0
LTYPE
  5
12
100
AcDbSymbolTableRecord
100
AcDbLinetypeTableRecord
  2
BYBLOCK
 70
     0
  3

 72
    65
 73
     0
 40
0.0
  0
LTYPE
  5
13
100
AcDbSymbolTableRecord
100
AcDbLinetypeTableRecord
  2
BYLAYER
 70
     0
  3

 72
    65
 73
     0
 40
0.0
  0
LTYPE
  5
14
100
AcDbSymbolTableRecord
100
AcDbLinetypeTableRecord
  2
CONTINUOUS
 70
     0
  3
Solid line
 72
    65
 73
     0
 40
0.0
  0
ENDTAB
  0
TABLE
  2
LAYER
  5
2
100
AcDbSymbolTable
 70
     1
  0
LAYER
  5
E
100
AcDbSymbolTableRecord
100
AcDbLayerTableRecord
  2
0
 70
     0
 62
     7
  6
CONTINUOUS
  0
ENDTAB
  0
TABLE
  2
STYLE
  5
3
100
AcDbSymbolTable
 70
     1
  0
STYLE
  5
F
100
AcDbSymbolTableRecord
100
AcDbTextStyleTableRecord
  2
STANDARD
 70
     0
 40
0.0
 41
1.0
 50
0.0
 71
     0
 42
0.2
  3
txt.shx
  4

  0
ENDTAB
  0
TABLE
  2
VIEW
  5
6
100
AcDbSymbolTable
 70
     0
  0
ENDTAB
  0
TABLE
  2
UCS
  5
7
100
AcDbSymbolTable
 70
     0
  0
ENDTAB
  0
TABLE
  2
APPID
  5
9
100
AcDbSymbolTable
 70
     1
  0
APPID
  5
10
100
AcDbSymbolTableRecord
100
AcDbRegAppTableRecord
  2
ACAD
 70
     0
  0
ENDTAB
  0
TABLE
  2
DIMSTYLE
  5
A
100
AcDbSymbolTable
 70
     1
  0
DIMSTYLE
105
1D
100
AcDbSymbolTableRecord
100
AcDbDimStyleTableRecord
  2
STANDARD
 70
     0
  3

  4

  5

  6

  7

 40
1.0
 41
0.18
 42
0.0625
 43
0.38
 44
0.18
 45
0.0
 46
0.0
 47
0.0
 48
0.0
 71
     0
 72
     0
 73
     1
 74
     1
 75
     0
 76
     0
 77
     0
 78
     0
140
0.18
141
0.09
142
0.0
143
25.4
144
1.0
145
0.0
146
1.0
147
0.09
170
     0
171
     2
172
     0
173
     0
174
     0
175
     0
176
     0
177
     0
178
     0
270
     2
271
     4
272
     4
273
     2
274
     2
275
     0
280
     0
281
     0
282
     0
283
     1
284
     0
285
     0
286
     0
287
     3
288
     0
340
F
  0
ENDTAB
  0
TABLE
  2
BLOCK_RECORD
  5
1
100
AcDbSymbolTable
 70
     0
  0
BLOCK_RECORD
  5
18
100
AcDbSymbolTableRecord
100
AcDbBlockTableRecord
  2
*MODEL_SPACE
  0
BLOCK_RECORD
  5
15
100
AcDbSymbolTableRecord
100
AcDbBlockTableRecord
  2
*PAPER_SPACE
  0
ENDTAB
  0
ENDSEC
  0
SECTION
  2
BLOCKS
  0
BLOCK
  5
19
100
AcDbEntity
  8
0
100
AcDbBlockBegin
  2
*MODEL_SPACE
 70
     0
 10
0.0
 20
0.0
 30
0.0
  3
*MODEL_SPACE
  1

  0
ENDBLK
  5
1A
100
AcDbEntity
  8
0
100
AcDbBlockEnd
  0
BLOCK
  5
16
100
AcDbEntity
 67
     1
  8
0
100
AcDbBlockBegin
  2
*PAPER_SPACE
 70
     0
 10
0.0
 20
0.0
 30
0.0
  3
*PAPER_SPACE
  1

  0
ENDBLK
  5
17
100
AcDbEntity
 67
     1
  8
0
100
AcDbBlockEnd
  0
ENDSEC
  0
SECTION
  2
ENTITIES
  0
ARC
  5
32
102
{ACAD_REACTORS
330
31
102
}
100
AcDbEntity
  8
0
  6
CONTINUOUS
100
AcDbCircle
 10
157.45759
 20
181.32495
 30
0.0
 40
2.0
100
AcDbArc
 50
300.0
 51
120.0
  0
ARC
  5
33
102
{ACAD_REACTORS
330
31
102
}
100
AcDbEntity
  8
0
  6
CONTINUOUS
100
AcDbCircle
 10
127.45759
 20
233.286474
 30
0.0
 40
58.0
100
AcDbArc
 50
240.0
 51
300.0
  0
ARC
  5
34
102
{ACAD_REACTORS
330
31
102
}
100
AcDbEntity
  8
0
  6
CONTINUOUS
100
AcDbCircle
 10
97.45759
 20
181.32495
 30
0.0
 40
2.0
100
AcDbArc
 50
60.0
 51
240.0
  0
ARC
  5
35
102
{ACAD_REACTORS
330
31
102
}
100
AcDbEntity
  8
0
  6
CONTINUOUS
100
AcDbCircle
 10
127.45759
 20
233.286474
 30
0.0
 40
62.0
100
AcDbArc
 50
240.0
 51
300.0
  0
CIRCLE
  5
36
102
{ACAD_REACTORS
330
31
102
}
100
AcDbEntity
  8
0
  6
CONTINUOUS
100
AcDbCircle
 10
127.45759
 20
233.286474
 30
0.0
 40
3.6
  0
LWPOLYLINE
  5
37
102
{ACAD_REACTORS
330
31
102
}
100
AcDbEntity
  8
0
  6
CONTINUOUS
100
AcDbPolyline
 90
       18
 70
     1
 10
58.315453
 20
73.286475
 42
0.198912
 10
65.38652
 20
76.215407
 10
69.528656
 20
80.357543
 42
-0.198912
 10
76.599724
 20
83.286475
 10
178.315451
 20
83.286475
 42
-0.198912
 10
185.386518
 20
80.357543
 10
189.528656
 20
76.215405
 42
0.198912
 10
196.599724
 20
73.286473
 10
207.457588
 20
73.286473
 42
0.414214
 10
217.457588
 20
83.286473
 10
217.457588
 20
133.286473
 42
0.146339
 10
214.173355
 20
144.267509
 10
147.182194
 20
246.244097
 42
0.539548
 10
107.732986
 20
246.244097
 10
40.741822
 20
144.267512
 42
0.146339
 10
37.457588
 20
133.286475
 10
37.457588
 20
83.286475
 42
0.414214
 10
47.457588
 20
73.286475
  0
LWPOLYLINE
  5
38
102
{ACAD_REACTORS
330
31
102
}
100
AcDbEntity
  8
0
  6
CONTINUOUS
100
AcDbPolyline
 90
        5
 70
     0
 10
152.45759
 20
94.486475
 10
177.45759
 20
94.486475
 10
177.45759
 20
91.286475
 10
152.45759
 20
91.286475
 10
152.45759
 20
94.486475
  0
LWPOLYLINE
  5
39
102
{ACAD_REACTORS
330
31
102
}
100
AcDbEntity
  8
0
  6
CONTINUOUS
100
AcDbPolyline
 90
        5
 70
     0
 10
102.45759
 20
91.286475
 10
77.45759
 20
91.286475
 10
77.45759
 20
94.486475
 10
102.45759
 20
94.486475
 10
102.45759
 20
91.286475
  0
LWPOLYLINE
  5
3A
102
{ACAD_REACTORS
330
31
102
}
100
AcDbEntity
  8
0
  6
CONTINUOUS
100
AcDbPolyline
 90
        5
 70
     0
 10
129.05759
 20
94.486475
 10
125.85759
 20
94.486475
 10
125.85759
 20
103.486475
 10
129.05759
 20
103.486475
 10
129.05759
 20
94.486475
  0
LINE
  5
3B
102
{ACAD_REACTORS
330
31
102
}
100
AcDbEntity
  8
0
  6
CONTINUOUS
100
AcDbLine
 10
116.85541
 20
90.771321
 30
0.0
 11
116.853962
 21
93.771321
 31
0.0
  0
LINE
  5
3C
102
{ACAD_REACTORS
330
31
102
}
100
AcDbEntity
  8
0
  6
CONTINUOUS
100
AcDbLine
 10
116.853962
 20
93.771321
 30
0.0
 11
117.979474
 21
93.771864
 31
0.0
  0
SPLINE
  5
3D
102
{ACAD_REACTORS
330
31
102
}
100
AcDbEntity
  8
0
  6
CONTINUOUS
100
AcDbSpline
210
0.0
220
0.0
230
1.0
 70
     8
 71
     2
 72
     6
 73
     3
 74
     0
 42
0.0000001
 43
0.0000001
 40
0.0
 40
0.0
 40
0.0
 40
1.0
 40
1.0
 40
1.0
 10
117.97947383772771
 20
93.771864323679594
 30
0.0
 10
118.32326623621435
 20
93.772030207505424
 30
0.0
 10
118.53101803352791
 20
93.681066165249177
 30
0.0
  0
SPLINE
  5
3E
102
{ACAD_REACTORS
330
31
102
}
100
AcDbEntity
  8
0
  6
CONTINUOUS
100
AcDbSpline
210
0.0
220
0.0
230
1.0
 70
     8
 71
     2
 72
     6
 73
     3
 74
     0
 42
0.0000001
 43
0.0000001
 40
0.0
 40
0.0
 40
0.0
 40
1.0
 40
1.0
 40
1.0
 10
118.53101803352799
 20
93.681066165249177
 30
0.0
 10
118.73877042674413
 20
93.590102421303712
 30
0.0
 10
118.85652846931403
 20
93.400868576153727
 30
0.0
  0
SPLINE
  5
3F
102
{ACAD_REACTORS
330
31
102
}
100
AcDbEntity
  8
0
  6
CONTINUOUS
100
AcDbSpline
210
0.0
220
0.0
230
1.0
 70
     8
 71
     2
 72
     6
 73
     3
 74
     0
 42
0.0000001
 43
0.0000001
 40
0.0
 40
0.0
 40
0.0
 40
1.0
 40
1.0
 40
1.0
 10
118.85652846931401
 20
93.400868576153712
 30
0.0
 10
118.97428710793025
 20
93.211634731291326
 30
0.0
 10
118.97438683572022
 20
93.004949987151321
 30
0.0
  0
SPLINE
  5
40
102
{ACAD_REACTORS
330
31
102
}
100
AcDbEntity
  8
0
  6
CONTINUOUS
100
AcDbSpline
210
0.0
220
0.0
230
1.0
 70
     8
 71
     2
 72
     6
 73
     3
 74
     0
 42
0.0000001
 43
0.0000001
 40
0.0
 40
0.0
 40
0.0
 40
1.0
 40
1.0
 40
1.0
 10
118.97438683572021
 20
93.004949987151335
 30
0.0
 10
118.9744796517799
 20
92.812589727599459
 30
0.0
 10
118.8701956736512
 20
92.642689397798208
 30
0.0
  0
SPLINE
  5
41
102
{ACAD_REACTORS
330
31
102
}
100
AcDbEntity
  8
0
  6
CONTINUOUS
100
AcDbSpline
210
0.0
220
0.0
230
1.0
 70
     8
 71
     2
 72
     6
 73
     3
 74
     0
 42
0.0000001
 43
0.0000001
 40
0.0
 40
0.0
 40
0.0
 40
1.0
 40
1.0
 40
1.0
 10
118.87019567365122
 20
92.642689397798193
 30
0.0
 10
118.76591229156885
 20
92.472789068284555
 30
0.0
 10
118.555185152459
 20
92.368322029027127
 30
0.0
  0
SPLINE
  5
42
102
{ACAD_REACTORS
330
31
102
}
100
AcDbEntity
  8
0
  6
CONTINUOUS
100
AcDbSpline
210
0.0
220
0.0
230
1.0
 70
     8
 71
     2
 72
     6
 73
     3
 74
     0
 42
0.0000001
 43
0.0000001
 40
0.0
 40
0.0
 40
0.0
 40
1.0
 40
1.0
 40
1.0
 10
118.55518515245892
 20
92.368322029027141
 30
0.0
 10
118.82739274276268
 20
92.288644233822879
 30
0.0
 10
118.9738018315479
 20
92.096354871595508
 30
0.0
  0
SPLINE
  5
43
102
{ACAD_REACTORS
330
31
102
}
100
AcDbEntity
  8
0
  6
CONTINUOUS
100
AcDbSpline
210
0.0
220
0.0
230
1.0
 70
     8
 71
     2
 72
     6
 73
     3
 74
     0
 42
0.0000001
 43
0.0000001
 40
0.0
 40
0.0
 40
0.0
 40
1.0
 40
1.0
 40
1.0
 10
118.97380183154795
 20
92.09635487159548
 30
0.0
 10
119.12021151652326
 20
91.904065211632513
 30
0.0
 10
119.12033790433705
 20
91.642127862287282
 30
0.0
  0
SPLINE
  5
44
102
{ACAD_REACTORS
330
31
102
}
100
AcDbEntity
  8
0
  6
CONTINUOUS
100
AcDbSpline
210
0.0
220
0.0
230
1.0
 70
     8
 71
     2
 72
     6
 73
     3
 74
     0
 42
0.0000001
 43
0.0000001
 40
0.0
 40
0.0
 40
0.0
 40
1.0
 40
1.0
 40
1.0
 10
119.12033790433708
 20
91.642127862287282
 30
0.0
 10
119.12043960692768
 20
91.431350365690207
 30
0.0
 10
119.03150925377952
 20
91.250202297808215
 30
0.0
  0
SPLINE
  5
45
102
{ACAD_REACTORS
330
31
102
}
100
AcDbEntity
  8
0
  6
CONTINUOUS
100
AcDbSpline
210
0.0
220
0.0
230
1.0
 70
     8
 71
     2
 72
     6
 73
     3
 74
     0
 42
0.0000001
 43
0.0000001
 40
0.0
 40
0.0
 40
0.0
 40
1.0
 40
1.0
 40
1.0
 10
119.03150925377943
 20
91.250202297808215
 30
0.0
 10
118.94257890063128
 20
91.069054229926238
 30
0.0
 10
118.81165762117317
 20
90.970764977049669
 30
0.0
  0
SPLINE
  5
46
102
{ACAD_REACTORS
330
31
102
}
100
AcDbEntity
  8
0
  6
CONTINUOUS
100
AcDbSpline
210
0.0
220
0.0
230
1.0
 70
     8
 71
     2
 72
     6
 73
     3
 74
     0
 42
0.0000001
 43
0.0000001
 40
0.0
 40
0.0
 40
0.0
 40
1.0
 40
1.0
 40
1.0
 10
118.8116576211732
 20
90.97076497704964
 30
0.0
 10
118.6807363420026
 20
90.872475128126695
 30
0.0
 10
118.4832844078004
 20
90.822243402485668
 30
0.0
  0
SPLINE
  5
47
102
{ACAD_REACTORS
330
31
102
}
100
AcDbEntity
  8
0
  6
CONTINUOUS
100
AcDbSpline
210
0.0
220
0.0
230
1.0
 70
     8
 71
     2
 72
     6
 73
     3
 74
     0
 42
0.0000001
 43
0.0000001
 40
0.0
 40
0.0
 40
0.0
 40
1.0
 40
1.0
 40
1.0
 10
118.48328440780053
 20
90.822243402485682
 30
0.0
 10
118.28583247359843
 20
90.772011676844656
 30
0.0
 10
117.99933860951076
 20
90.771873440227267
 30
0.0
  0
LINE
  5
48
102
{ACAD_REACTORS
330
31
102
}
100
AcDbEntity
  8
0
  6
CONTINUOUS
100
AcDbLine
 10
117.999339
 20
90.771873
 30
0.0
 11
116.85541
 21
90.771321
 31
0.0
  0
LINE
  5
49
102
{ACAD_REACTORS
330
31
102
}
100
AcDbEntity
  8
0
  6
CONTINUOUS
100
AcDbLine
 10
117.251569
 20
92.51094
 30
0.0
 11
117.900273
 21
92.511253
 31
0.0
  0
SPLINE
  5
4A
102
{ACAD_REACTORS
330
31
102
}
100
AcDbEntity
  8
0
  6
CONTINUOUS
100
AcDbSpline
210
0.0
220
0.0
230
1.0
 70
     8
 71
     2
 72
     6
 73
     3
 74
     0
 42
0.0000001
 43
0.0000001
 40
0.0
 40
0.0
 40
0.0
 40
1.0
 40
1.0
 40
1.0
 10
117.90027325697733
 20
92.511252693800927
 30
0.0
 10
118.16425623749316
 20
92.511380068655512
 30
0.0
 10
118.27883711631668
 20
92.546224206279859
 30
0.0
  0
SPLINE
  5
4B
102
{ACAD_REACTORS
330
31
102
}
100
AcDbEntity
  8
0
  6
CONTINUOUS
100
AcDbSpline
210
0.0
220
0.0
230
1.0
 70
     8
 71
     2
 72
     6
 73
     3
 74
     0
 42
0.0000001
 43
0.0000001
 40
0.0
 40
0.0
 40
0.0
 40
1.0
 40
1.0
 40
1.0
 10
118.27883711631667
 20
92.546224206279874
 30
0.0
 10
118.43024812849121
 20
92.591317551361357
 30
0.0
 10
118.50693695393598
 20
92.695720213598662
 30
0.0
  0
SPLINE
  5
4C
102
{ACAD_REACTORS
330
31
102
}
100
AcDbEntity
  8
0
  6
CONTINUOUS
100
AcDbSpline
210
0.0
220
0.0
230
1.0
 70
     8
 71
     2
 72
     6
 73
     3
 74
     0
 42
0.0000001
 43
0.0000001
 40
0.0
 40
0.0
 40
0.0
 40
1.0
 40
1.0
 40
1.0
 10
118.50693695393599
 20
92.695720213598662
 30
0.0
 10
118.5836263754272
 20
92.800122876123595
 30
0.0
 10
118.58355034524445
 20
92.957694590778758
 30
0.0
  0
SPLINE
  5
4D
102
{ACAD_REACTORS
330
31
102
}
100
AcDbEntity
  8
0
  6
CONTINUOUS
100
AcDbSpline
210
0.0
220
0.0
230
1.0
 70
     8
 71
     2
 72
     6
 73
     3
 74
     0
 42
0.0000001
 43
0.0000001
 40
0.0
 40
0.0
 40
0.0
 40
1.0
 40
1.0
 40
1.0
 10
118.58355034524448
 20
92.957694590778786
 30
0.0
 10
118.58347826480679
 20
93.107080502496629
 30
0.0
 10
118.5117995508536
 20
93.220620196339269
 30
0.0
  0
SPLINE
  5
4E
102
{ACAD_REACTORS
330
31
102
}
100
AcDbEntity
  8
0
  6
CONTINUOUS
100
AcDbSpline
210
0.0
220
0.0
230
1.0
 70
     8
 71
     2
 72
     6
 73
     3
 74
     0
 42
0.0000001
 43
0.0000001
 40
0.0
 40
0.0
 40
0.0
 40
1.0
 40
1.0
 40
1.0
 10
118.5117995508536
 20
93.220620196339226
 30
0.0
 10
118.44012143280298
 20
93.334160188492646
 30
0.0
 10
118.3070862890994
 20
93.376046943459713
 30
0.0
  0
SPLINE
  5
4F
102
{ACAD_REACTORS
330
31
102
}
100
AcDbEntity
  8
0
  6
CONTINUOUS
100
AcDbSpline
210
0.0
220
0.0
230
1.0
 70
     8
 71
     2
 72
     6
 73
     3
 74
     0
 42
0.0000001
 43
0.0000001
 40
0.0
 40
0.0
 40
0.0
 40
1.0
 40
1.0
 40
1.0
 10
118.30708628909943
 20
93.376046943459741
 30
0.0
 10
118.17405114553972
 20
93.417933400403626
 30
0.0
 10
117.85072221131523
 20
93.41777739043701
 30
0.0
  0
LINE
  5
50
102
{ACAD_REACTORS
330
31
102
}
100
AcDbEntity
  8
0
  6
CONTINUOUS
100
AcDbLine
 10
117.850722
 20
93.417777
 30
0.0
 11
117.251132
 21
93.417488
 31
0.0
  0
LINE
  5
51
102
{ACAD_REACTORS
330
31
102
}
100
AcDbEntity
  8
0
  6
CONTINUOUS
100
AcDbLine
 10
117.251132
 20
93.417488
 30
0.0
 11
117.251569
 21
92.51094
 31
0.0
  0
LINE
  5
52
102
{ACAD_REACTORS
330
31
102
}
100
AcDbEntity
  8
0
  6
CONTINUOUS
100
AcDbLine
 10
117.252238
 20
91.125538
 30
0.0
 11
117.999168
 21
91.125898
 31
0.0
  0
SPLINE
  5
53
102
{ACAD_REACTORS
330
31
102
}
100
AcDbEntity
  8
0
  6
CONTINUOUS
100
AcDbSpline
210
0.0
220
0.0
230
1.0
 70
     8
 71
     2
 72
     6
 73
     3
 74
     0
 42
0.0000001
 43
0.0000001
 40
0.0
 40
0.0
 40
0.0
 40
1.0
 40
1.0
 40
1.0
 10
117.99916778846764
 20
91.125898166891361
 30
0.0
 10
118.19152804801948
 20
91.125990982951095
 30
0.0
 10
118.26928373114063
 20
91.14035269087131
 30
0.0
  0
SPLINE
  5
54
102
{ACAD_REACTORS
330
31
102
}
100
AcDbEntity
  8
0
  6
CONTINUOUS
100
AcDbSpline
210
0.0
220
0.0
230
1.0
 70
     8
 71
     2
 72
     6
 73
     3
 74
     0
 42
0.0000001
 43
0.0000001
 40
0.0
 40
0.0
 40
0.0
 40
1.0
 40
1.0
 40
1.0
 10
118.26928373114058
 20
91.14035269087131
 30
0.0
 10
118.40637983441914
 20
91.1649759578398
 30
0.0
 10
118.49843896848321
 20
91.222318925180446
 30
0.0
  0
SPLINE
  5
55
102
{ACAD_REACTORS
330
31
102
}
100
AcDbEntity
  8
0
  6
CONTINUOUS
100
AcDbSpline
210
0.0
220
0.0
230
1.0
 70
     8
 71
     2
 72
     6
 73
     3
 74
     0
 42
0.0000001
 43
0.0000001
 40
0.0
 40
0.0
 40
0.0
 40
1.0
 40
1.0
 40
1.0
 10
118.49843896848321
 20
91.222318925180446
 30
0.0
 10
118.59049869859362
 20
91.279661892808676
 30
0.0
 10
118.64979123001623
 20
91.389172326411924
 30
0.0
  0
SPLINE
  5
56
102
{ACAD_REACTORS
330
31
102
}
100
AcDbEntity
  8
0
  6
CONTINUOUS
100
AcDbSpline
210
0.0
220
0.0
230
1.0
 70
     8
 71
     2
 72
     6
 73
     3
 74
     0
 42
0.0000001
 43
0.0000001
 40
0.0
 40
0.0
 40
0.0
 40
1.0
 40
1.0
 40
1.0
 10
118.64979123001623
 20
91.389172326411924
 30
0.0
 10
118.70908316539251
 20
91.498682759727558
 30
0.0
 10
118.70901404722756
 20
91.641929393748214
 30
0.0
  0
SPLINE
  5
57
102
{ACAD_REACTORS
330
31
102
}
100
AcDbEntity
  8
0
  6
CONTINUOUS
100
AcDbSpline
210
0.0
220
0.0
230
1.0
 70
     8
 71
     2
 72
     6
 73
     3
 74
     0
 42
0.0000001
 43
0.0000001
 40
0.0
 40
0.0
 40
0.0
 40
1.0
 40
1.0
 40
1.0
 10
118.70901404722756
 20
91.641929393748214
 30
0.0
 10
118.7089330799715
 20
91.809733138557647
 30
0.0
 10
118.62292583857013
 20
91.93349765323255
 30
0.0
  0
SPLINE
  5
58
102
{ACAD_REACTORS
330
31
102
}
100
AcDbEntity
  8
0
  6
CONTINUOUS
100
AcDbSpline
210
0.0
220
0.0
230
1.0
 70
     8
 71
     2
 72
     6
 73
     3
 74
     0
 42
0.0000001
 43
0.0000001
 40
0.0
 40
0.0
 40
0.0
 40
1.0
 40
1.0
 40
1.0
 10
118.62292583857013
 20
91.93349765323255
 30
0.0
 10
118.53691740478834
 20
92.057262763378631
 30
0.0
 10
118.38443766280668
 20
92.107325642921026
 30
0.0
  0
SPLINE
  5
59
102
{ACAD_REACTORS
330
31
102
}
100
AcDbEntity
  8
0
  6
CONTINUOUS
100
AcDbSpline
210
0.0
220
0.0
230
1.0
 70
     8
 71
     2
 72
     6
 73
     3
 74
     0
 42
0.0000001
 43
0.0000001
 40
0.0
 40
0.0
 40
0.0
 40
1.0
 40
1.0
 40
1.0
 10
118.38443766280668
 20
92.10732564292104
 30
0.0
 10
118.23195792082501
 20
92.157388522463435
 30
0.0
 10
117.94546405673734
 20
92.157250285846033
 30
0.0
  0
LINE
  5
5A
102
{ACAD_REACTORS
330
31
102
}
100
AcDbEntity
  8
0
  6
CONTINUOUS
100
AcDbLine
 10
117.945464
 20
92.15725
 30
0.0
 11
117.25174
 21
92.156916
 31
0.0
  0
LINE
  5
5B
102
{ACAD_REACTORS
330
31
102
}
100
AcDbEntity
  8
0
  6
CONTINUOUS
100
AcDbLine
 10
117.25174
 20
92.156916
 30
0.0
 11
117.252238
 21
91.125538
 31
0.0
  0
SPLINE
  5
5C
102
{ACAD_REACTORS
330
31
102
}
100
AcDbEntity
  8
0
  6
CONTINUOUS
100
AcDbSpline
210
0.0
220
0.0
230
1.0
 70
     8
 71
     2
 72
     6
 73
     3
 74
     0
 42
0.0000001
 43
0.0000001
 40
0.0
 40
0.0
 40
0.0
 40
1.0
 40
1.0
 40
1.0
 10
121.03808973071452
 20
91.041416362397328
 30
0.0
 10
120.83353544134357
 20
90.867374599572955
 30
0.0
 10
120.64427997576908
 20
90.795659947926907
 30
0.0
  0
SPLINE
  5
5D
102
{ACAD_REACTORS
330
31
102
}
100
AcDbEntity
  8
0
  6
CONTINUOUS
100
AcDbSpline
210
0.0
220
0.0
230
1.0
 70
     8
 71
     2
 72
     6
 73
     3
 74
     0
 42
0.0000001
 43
0.0000001
 40
0.0
 40
0.0
 40
0.0
 40
1.0
 40
1.0
 40
1.0
 10
120.64427997576918
 20
90.795659947926922
 30
0.0
 10
120.45502331810202
 20
90.723945295705676
 30
0.0
 10
120.2381077359005
 20
90.723840631417517
 30
0.0
  0
SPLINE
  5
5E
102
{ACAD_REACTORS
330
31
102
}
100
AcDbEntity
  8
0
  6
CONTINUOUS
100
AcDbSpline
210
0.0
220
0.0
230
1.0
 70
     8
 71
     2
 72
     6
 73
     3
 74
     0
 42
0.0000001
 43
0.0000001
 40
0.0
 40
0.0
 40
0.0
 40
1.0
 40
1.0
 40
1.0
 10
120.23810773590054
 20
90.723840631417517
 30
0.0
 10
119.87998995875614
 20
90.723667835430092
 30
0.0
 10
119.68754587220133
 20
90.898540857749879
 30
0.0
  0
SPLINE
  5
5F
102
{ACAD_REACTORS
330
31
102
}
100
AcDbEntity
  8
0
  6
CONTINUOUS
100
AcDbSpline
210
0.0
220
0.0
230
1.0
 70
     8
 71
     2
 72
     6
 73
     3
 74
     0
 42
0.0000001
 43
0.0000001
 40
0.0
 40
0.0
 40
0.0
 40
1.0
 40
1.0
 40
1.0
 10
119.68754587220127
 20
90.898540857749893
 30
0.0
 10
119.49510059355379
 20
91.073413879494481
 30
0.0
 10
119.49496926881034
 20
91.345582960970802
 30
0.0
  0
SPLINE
  5
60
102
{ACAD_REACTORS
330
31
102
}
100
AcDbEntity
  8
0
  6
CONTINUOUS
100
AcDbSpline
210
0.0
220
0.0
230
1.0
 70
     8
 71
     2
 72
     6
 73
     3
 74
     0
 42
0.0000001
 43
0.0000001
 40
0.0
 40
0.0
 40
0.0
 40
1.0
 40
1.0
 40
1.0
 10
119.49496926881029
 20
91.345582960970802
 30
0.0
 10
119.49489225115538
 20
91.505201200866097
 30
0.0
 10
119.56747469632371
 20
91.637227743726854
 30
0.0
  0
SPLINE
  5
61
102
{ACAD_REACTORS
330
31
102
}
100
AcDbEntity
  8
0
  6
CONTINUOUS
100
AcDbSpline
210
0.0
220
0.0
230
1.0
 70
     8
 71
     2
 72
     6
 73
     3
 74
     0
 42
0.0000001
 43
0.0000001
 40
0.0
 40
0.0
 40
0.0
 40
1.0
 40
1.0
 40
1.0
 10
119.56747469632371
 20
91.637227743726868
 30
0.0
 10
119.64005833358483
 20
91.769254287162809
 30
0.0
 10
119.75768653226011
 20
91.849120480686935
 30
0.0
  0
SPLINE
  5
62
102
{ACAD_REACTORS
330
31
102
}
100
AcDbEntity
  8
0
  6
CONTINUOUS
100
AcDbSpline
210
0.0
220
0.0
230
1.0
 70
     8
 71
     2
 72
     6
 73
     3
 74
     0
 42
0.0000001
 43
0.0000001
 40
0.0
 40
0.0
 40
0.0
 40
1.0
 40
1.0
 40
1.0
 10
119.75768653226015
 20
91.849120480686906
 30
0.0
 10
119.87531592331584
 20
91.928986078739854
 30
0.0
 10
120.0226352637643
 20
91.969984696132258
 30
0.0
  0
SPLINE
  5
63
102
{ACAD_REACTORS
330
31
102
}
100
AcDbEntity
  8
0
  6
CONTINUOUS
100
AcDbSpline
210
0.0
220
0.0
230
1.0
 70
     8
 71
     2
 72
     6
 73
     3
 74
     0
 42
0.0000001
 43
0.0000001
 40
0.0
 40
0.0
 40
0.0
 40
1.0
 40
1.0
 40
1.0
 10
120.02263526376423
 20
91.969984696132258
 30
0.0
 10
120.13107923111697
 20
91.998686593499002
 30
0.0
 10
120.35002999239877
 20
92.025395285960911
 30
0.0
  0
SPLINE
  5
64
102
{ACAD_REACTORS
330
31
102
}
100
AcDbEntity
  8
0
  6
CONTINUOUS
100
AcDbSpline
210
0.0
220
0.0
230
1.0
 70
     8
 71
     2
 72
     6
 73
     3
 74
     0
 42
0.0000001
 43
0.0000001
 40
0.0
 40
0.0
 40
0.0
 40
1.0
 40
1.0
 40
1.0
 10
120.3500299923988
 20
92.025395285960911
 30
0.0
 10
120.79611642383016
 20
92.07881662019831
 30
0.0
 10
121.00685837387262
 20
92.152588165039305
 30
0.0
  0
SPLINE
  5
65
102
{ACAD_REACTORS
330
31
102
}
100
AcDbEntity
  8
0
  6
CONTINUOUS
100
AcDbSpline
210
0.0
220
0.0
230
1.0
 70
     8
 71
     2
 72
     6
 73
     3
 74
     0
 42
0.0000001
 43
0.0000001
 40
0.0
 40
0.0
 40
0.0
 40
1.0
 40
1.0
 40
1.0
 10
121.00685837387265
 20
92.152588165039305
 30
0.0
 10
121.00886866310906
 20
92.228305520145881
 30
0.0
 10
121.00885878924986
 20
92.248768984408059
 30
0.0
  0
SPLINE
  5
66
102
{ACAD_REACTORS
330
31
102
}
100
AcDbEntity
  8
0
  6
CONTINUOUS
100
AcDbSpline
210
0.0
220
0.0
230
1.0
 70
     8
 71
     2
 72
     6
 73
     3
 74
     0
 42
0.0000001
 43
0.0000001
 40
0.0
 40
0.0
 40
0.0
 40
1.0
 40
1.0
 40
1.0
 10
121.00885878924987
 20
92.248768984408059
 30
0.0
 10
121.00875017464148
 20
92.473871561639669
 30
0.0
 10
120.90434040488918
 20
92.565908283448067
 30
0.0
  0
SPLINE
  5
67
102
{ACAD_REACTORS
330
31
102
}
100
AcDbEntity
  8
0
  6
CONTINUOUS
100
AcDbSpline
210
0.0
220
0.0
230
1.0
 70
     8
 71
     2
 72
     6
 73
     3
 74
     0
 42
0.0000001
 43
0.0000001
 40
0.0
 40
0.0
 40
0.0
 40
1.0
 40
1.0
 40
1.0
 10
120.90434040488915
 20
92.565908283448067
 30
0.0
 10
120.76307917040495
 20
92.690669549299372
 30
0.0
 10
120.48477081123147
 20
92.690535262283205
 30
0.0
  0
SPLINE
  5
68
102
{ACAD_REACTORS
330
31
102
}
100
AcDbEntity
  8
0
  6
CONTINUOUS
100
AcDbSpline
210
0.0
220
0.0
230
1.0
 70
     8
 71
     2
 72
     6
 73
     3
 74
     0
 42
0.0000001
 43
0.0000001
 40
0.0
 40
0.0
 40
0.0
 40
1.0
 40
1.0
 40
1.0
 10
120.48477081123144
 20
92.690535262283191
 30
0.0
 10
120.22488028514948
 20
92.690409862085417
 30
0.0
 10
120.10111823922699
 20
92.599286158572127
 30
0.0
  0
SPLINE
  5
69
102
{ACAD_REACTORS
330
31
102
}
100
AcDbEntity
  8
0
  6
CONTINUOUS
100
AcDbSpline
210
0.0
220
0.0
230
1.0
 70
     8
 71
     2
 72
     6
 73
     3
 74
     0
 42
0.0000001
 43
0.0000001
 40
0.0
 40
0.0
 40
0.0
 40
1.0
 40
1.0
 40
1.0
 10
120.10111823922702
 20
92.599286158572141
 30
0.0
 10
119.97735500121175
 20
92.508162454483653
 30
0.0
 10
119.91812181633324
 20
92.276892263041191
 30
0.0
  0
LINE
  5
6A
102
{ACAD_REACTORS
330
31
102
}
100
AcDbEntity
  8
0
  6
CONTINUOUS
100
AcDbLine
 10
119.918122
 20
92.276892
 30
0.0
 11
119.557935
 21
92.325832
 31
0.0
  0
SPLINE
  5
6B
102
{ACAD_REACTORS
330
31
102
}
100
AcDbEntity
  8
0
  6
CONTINUOUS
100
AcDbSpline
210
0.0
220
0.0
230
1.0
 70
     8
 71
     2
 72
     6
 73
     3
 74
     0
 42
0.0000001
 43
0.0000001
 40
0.0
 40
0.0
 40
0.0
 40
1.0
 40
1.0
 40
1.0
 10
119.55793471026732
 20
92.325831807520984
 30
0.0
 10
119.60693616315859
 20
92.557096764010652
 30
0.0
 10
119.71941897614153
 20
92.699374889822082
 30
0.0
  0
SPLINE
  5
6C
102
{ACAD_REACTORS
330
31
102
}
100
AcDbEntity
  8
0
  6
CONTINUOUS
100
AcDbSpline
210
0.0
220
0.0
230
1.0
 70
     8
 71
     2
 72
     6
 73
     3
 74
     0
 42
0.0000001
 43
0.0000001
 40
0.0
 40
0.0
 40
0.0
 40
1.0
 40
1.0
 40
1.0
 10
119.71941897614145
 20
92.699374889822096
 30
0.0
 10
119.83190059703155
 20
92.841653015058327
 30
0.0
 10
120.04468788934479
 20
92.918494888340732
 30
0.0
  0
SPLINE
  5
6D
102
{ACAD_REACTORS
330
31
102
}
100
AcDbEntity
  8
0
  6
CONTINUOUS
100
AcDbSpline
210
0.0
220
0.0
230
1.0
 70
     8
 71
     2
 72
     6
 73
     3
 74
     0
 42
0.0000001
 43
0.0000001
 40
0.0
 40
0.0
 40
0.0
 40
1.0
 40
1.0
 40
1.0
 10
120.04468788934486
 20
92.918494888340746
 30
0.0
 10
120.25747518137035
 20
92.995337357669527
 30
0.0
 10
120.53782917171441
 20
92.995472631726514
 30
0.0
  0
SPLINE
  5
6E
102
{ACAD_REACTORS
330
31
102
}
100
AcDbEntity
  8
0
  6
CONTINUOUS
100
AcDbSpline
210
0.0
220
0.0
230
1.0
 70
     8
 71
     2
 72
     6
 73
     3
 74
     0
 42
0.0000001
 43
0.0000001
 40
0.0
 40
0.0
 40
0.0
 40
1.0
 40
1.0
 40
1.0
 10
120.53782917171428
 20
92.9954726317265
 30
0.0
 10
120.81613753088781
 20
92.995606918742695
 30
0.0
 10
120.9901121504917
 20
92.930206212912111
 30
0.0
  0
SPLINE
  5
6F
102
{ACAD_REACTORS
330
31
102
}
100
AcDbEntity
  8
0
  6
CONTINUOUS
100
AcDbSpline
210
0.0
220
0.0
230
1.0
 70
     8
 71
     2
 72
     6
 73
     3
 74
     0
 42
0.0000001
 43
0.0000001
 40
0.0
 40
0.0
 40
0.0
 40
1.0
 40
1.0
 40
1.0
 10
120.99011215049177
 20
92.930206212912111
 30
0.0
 10
121.16408676980808
 20
92.864806103127904
 30
0.0
 10
121.2459897081157
 20
92.765595830515423
 30
0.0
  0
SPLINE
  5
70
102
{ACAD_REACTORS
330
31
102
}
100
AcDbEntity
  8
0
  6
CONTINUOUS
100
AcDbSpline
210
0.0
220
0.0
230
1.0
 70
     8
 71
     2
 72
     6
 73
     3
 74
     0
 42
0.0000001
 43
0.0000001
 40
0.0
 40
0.0
 40
0.0
 40
1.0
 40
1.0
 40
1.0
 10
121.2459897081157
 20
92.765595830515423
 30
0.0
 10
121.32789264642344
 20
92.666385557902956
 30
0.0
 10
121.36070773384608
 20
92.514969217372993
 30
0.0
  0
SPLINE
  5
71
102
{ACAD_REACTORS
330
31
102
}
100
AcDbEntity
  8
0
  6
CONTINUOUS
100
AcDbSpline
210
0.0
220
0.0
230
1.0
 70
     8
 71
     2
 72
     6
 73
     3
 74
     0
 42
0.0000001
 43
0.0000001
 40
0.0
 40
0.0
 40
0.0
 40
1.0
 40
1.0
 40
1.0
 10
121.360707733846
 20
92.514969217372993
 30
0.0
 10
121.37917098763907
 20
92.420844201632406
 30
0.0
 10
121.37928947610661
 20
92.175278160138646
 30
0.0
  0
LINE
  5
72
102
{ACAD_REACTORS
330
31
102
}
100
AcDbEntity
  8
0
  6
CONTINUOUS
100
AcDbLine
 10
121.379289
 20
92.175278
 30
0.0
 11
121.379526
 21
91.684145
 31
0.0
  0
SPLINE
  5
73
102
{ACAD_REACTORS
330
31
102
}
100
AcDbEntity
  8
0
  6
CONTINUOUS
100
AcDbSpline
210
0.0
220
0.0
230
1.0
 70
     8
 71
     2
 72
     6
 73
     3
 74
     0
 42
0.0000001
 43
0.0000001
 40
0.0
 40
0.0
 40
0.0
 40
1.0
 40
1.0
 40
1.0
 10
121.37952645332946
 20
91.684145481104721
 30
0.0
 10
121.37977429173976
 20
91.170503110591696
 30
0.0
 10
121.40337305722217
 20
91.03442992484915
 30
0.0
  0
SPLINE
  5
74
102
{ACAD_REACTORS
330
31
102
}
100
AcDbEntity
  8
0
  6
CONTINUOUS
100
AcDbSpline
210
0.0
220
0.0
230
1.0
 70
     8
 71
     2
 72
     6
 73
     3
 74
     0
 42
0.0000001
 43
0.0000001
 40
0.0
 40
0.0
 40
0.0
 40
1.0
 40
1.0
 40
1.0
 10
121.40337305722213
 20
91.03442992484915
 30
0.0
 10
121.42697182270459
 20
90.898356739106603
 30
0.0
 10
121.49660974017846
 20
90.773560914172819
 30
0.0
  0
LINE
  5
75
102
{ACAD_REACTORS
330
31
102
}
100
AcDbEntity
  8
0
  6
CONTINUOUS
100
AcDbLine
 10
121.49661
 20
90.773561
 30
0.0
 11
121.111889
 21
90.773375
 31
0.0
  0
SPLINE
  5
76
102
{ACAD_REACTORS
330
31
102
}
100
AcDbEntity
  8
0
  6
CONTINUOUS
100
AcDbSpline
210
0.0
220
0.0
230
1.0
 70
     8
 71
     2
 72
     6
 73
     3
 74
     0
 42
0.0000001
 43
0.0000001
 40
0.0
 40
0.0
 40
0.0
 40
1.0
 40
1.0
 40
1.0
 10
121.11188922107485
 20
90.773375282053379
 30
0.0
 10
121.05453598801776
 20
90.887945299976877
 30
0.0
 10
121.03808973071463
 20
91.041416362397371
 30
0.0
  0
SPLINE
  5
77
102
{ACAD_REACTORS
330
31
102
}
100
AcDbEntity
  8
0
  6
CONTINUOUS
100
AcDbSpline
210
0.0
220
0.0
230
1.0
 70
     8
 71
     2
 72
     6
 73
     3
 74
     0
 42
0.0000001
 43
0.0000001
 40
0.0
 40
0.0
 40
0.0
 40
1.0
 40
1.0
 40
1.0
 10
121.0069975978184
 20
91.864048073734708
 30
0.0
 10
120.80649132965199
 20
91.782095662885993
 30
0.0
 10
120.4054274479284
 20
91.724603597165128
 30
0.0
  0
SPLINE
  5
78
102
{ACAD_REACTORS
330
31
102
}
100
AcDbEntity
  8
0
  6
CONTINUOUS
100
AcDbSpline
210
0.0
220
0.0
230
1.0
 70
     8
 71
     2
 72
     6
 73
     3
 74
     0
 42
0.0000001
 43
0.0000001
 40
0.0
 40
0.0
 40
0.0
 40
1.0
 40
1.0
 40
1.0
 10
120.40542744792842
 20
91.724603597165114
 30
0.0
 10
120.17829474019547
 20
91.691751379669228
 30
0.0
 10
120.08418088366577
 20
91.650778434540868
 30
0.0
  0
SPLINE
  5
79
102
{ACAD_REACTORS
330
31
102
}
100
AcDbEntity
  8
0
  6
CONTINUOUS
100
AcDbSpline
210
0.0
220
0.0
230
1.0
 70
     8
 71
     2
 72
     6
 73
     3
 74
     0
 42
0.0000001
 43
0.0000001
 40
0.0
 40
0.0
 40
0.0
 40
1.0
 40
1.0
 40
1.0
 10
120.08418088366574
 20
91.650778434540882
 30
0.0
 10
119.99006702713592
 20
91.609805489412523
 30
0.0
 10
119.93894518955108
 20
91.530994797850099
 30
0.0
  0
SPLINE
  5
7A
102
{ACAD_REACTORS
330
31
102
}
100
AcDbEntity
  8
0
  6
CONTINUOUS
100
AcDbSpline
210
0.0
220
0.0
230
1.0
 70
     8
 71
     2
 72
     6
 73
     3
 74
     0
 42
0.0000001
 43
0.0000001
 40
0.0
 40
0.0
 40
0.0
 40
1.0
 40
1.0
 40
1.0
 10
119.93894518955108
 20
91.530994797850099
 30
0.0
 10
119.88782335167849
 20
91.452184702334051
 30
0.0
 10
119.88786975985221
 20
91.356004274534939
 30
0.0
  0
SPLINE
  5
7B
102
{ACAD_REACTORS
330
31
102
}
100
AcDbEntity
  8
0
  6
CONTINUOUS
100
AcDbSpline
210
0.0
220
0.0
230
1.0
 70
     8
 71
     2
 72
     6
 73
     3
 74
     0
 42
0.0000001
 43
0.0000001
 40
0.0
 40
0.0
 40
0.0
 40
1.0
 40
1.0
 40
1.0
 10
119.88786975985229
 20
91.356004274534968
 30
0.0
 10
119.88794085296152
 20
91.208664590034061
 30
0.0
 10
119.99951687021817
 20
91.110492344920047
 30
0.0
  0
SPLINE
  5
7C
102
{ACAD_REACTORS
330
31
102
}
100
AcDbEntity
  8
0
  6
CONTINUOUS
100
AcDbSpline
210
0.0
220
0.0
230
1.0
 70
     8
 71
     2
 72
     6
 73
     3
 74
     0
 42
0.0000001
 43
0.0000001
 40
0.0
 40
0.0
 40
0.0
 40
1.0
 40
1.0
 40
1.0
 10
119.99951687021812
 20
91.110492344920033
 30
0.0
 10
120.1110916956695
 20
91.012319503184443
 30
0.0
 10
120.32596164670051
 20
91.012423180431796
 30
0.0
  0
SPLINE
  5
7D
102
{ACAD_REACTORS
330
31
102
}
100
AcDbEntity
  8
0
  6
CONTINUOUS
100
AcDbSpline
210
0.0
220
0.0
230
1.0
 70
     8
 71
     2
 72
     6
 73
     3
 74
     0
 42
0.0000001
 43
0.0000001
 40
0.0
 40
0.0
 40
0.0
 40
1.0
 40
1.0
 40
1.0
 10
120.32596164670051
 20
91.012423180431796
 30
0.0
 10
120.53878596656088
 20
91.012525870638342
 30
0.0
 10
120.70449915345009
 20
91.105716043757795
 30
0.0
  0
SPLINE
  5
7E
102
{ACAD_REACTORS
330
31
102
}
100
AcDbEntity
  8
0
  6
CONTINUOUS
100
AcDbSpline
210
0.0
220
0.0
230
1.0
 70
     8
 71
     2
 72
     6
 73
     3
 74
     0
 42
0.0000001
 43
0.0000001
 40
0.0
 40
0.0
 40
0.0
 40
1.0
 40
1.0
 40
1.0
 10
120.70449915345009
 20
91.105716043757781
 30
0.0
 10
120.87020995586622
 20
91.198906811773213
 30
0.0
 10
120.94789573768318
 20
91.360608800815925
 30
0.0
  0
SPLINE
  5
7F
102
{ACAD_REACTORS
330
31
102
}
100
AcDbEntity
  8
0
  6
CONTINUOUS
100
AcDbSpline
210
0.0
220
0.0
230
1.0
 70
     8
 71
     2
 72
     6
 73
     3
 74
     0
 42
0.0000001
 43
0.0000001
 40
0.0
 40
0.0
 40
0.0
 40
1.0
 40
1.0
 40
1.0
 10
120.94789573768317
 20
91.360608800815911
 30
0.0
 10
121.00718026766499
 20
91.485466832328171
 30
0.0
 10
121.00706276666968
 20
91.728986348581813
 30
0.0
  0
LINE
  5
80
102
{ACAD_REACTORS
330
31
102
}
100
AcDbEntity
  8
0
  6
CONTINUOUS
100
AcDbLine
 10
121.007063
 20
91.728986
 30
0.0
 11
121.006998
 21
91.864048
 31
0.0
  0
LINE
  5
81
102
{ACAD_REACTORS
330
31
102
}
100
AcDbEntity
  8
0
  6
CONTINUOUS
100
AcDbLine
 10
121.803255
 20
91.422413
 30
0.0
 11
122.167484
 21
91.479887
 31
0.0
  0
SPLINE
  5
82
102
{ACAD_REACTORS
330
31
102
}
100
AcDbEntity
  8
0
  6
CONTINUOUS
100
AcDbSpline
210
0.0
220
0.0
230
1.0
 70
     8
 71
     2
 72
     6
 73
     3
 74
     0
 42
0.0000001
 43
0.0000001
 40
0.0
 40
0.0
 40
0.0
 40
1.0
 40
1.0
 40
1.0
 10
122.16748406494627
 20
91.479887413262162
 30
0.0
 10
122.1982849135312
 20
91.260939222539761
 30
0.0
 10
122.33851819073617
 20
91.144362967506964
 30
0.0
  0
SPLINE
  5
83
102
{ACAD_REACTORS
330
31
102
}
100
AcDbEntity
  8
0
  6
CONTINUOUS
100
AcDbSpline
210
0.0
220
0.0
230
1.0
 70
     8
 71
     2
 72
     6
 73
     3
 74
     0
 42
0.0000001
 43
0.0000001
 40
0.0
 40
0.0
 40
0.0
 40
1.0
 40
1.0
 40
1.0
 10
122.33851819073608
 20
91.144362967506964
 30
0.0
 10
122.47875266003378
 20
91.027786713049366
 30
0.0
 10
122.73045708515509
 20
91.027908163358347
 30
0.0
  0
SPLINE
  5
84
102
{ACAD_REACTORS
330
31
102
}
100
AcDbEntity
  8
0
  6
CONTINUOUS
100
AcDbSpline
210
0.0
220
0.0
230
1.0
 70
     8
 71
     2
 72
     6
 73
     3
 74
     0
 42
0.0000001
 43
0.0000001
 40
0.0
 40
0.0
 40
0.0
 40
1.0
 40
1.0
 40
1.0
 10
122.73045708515511
 20
91.027908163358347
 30
0.0
 10
122.98420952563262
 20
91.028030601858518
 30
0.0
 10
123.10694283142428
 20
91.131432367245807
 30
0.0
  0
SPLINE
  5
85
102
{ACAD_REACTORS
330
31
102
}
100
AcDbEntity
  8
0
  6
CONTINUOUS
100
AcDbSpline
210
0.0
220
0.0
230
1.0
 70
     8
 71
     2
 72
     6
 73
     3
 74
     0
 42
0.0000001
 43
0.0000001
 40
0.0
 40
0.0
 40
0.0
 40
1.0
 40
1.0
 40
1.0
 10
123.10694283142425
 20
91.131432367245822
 30
0.0
 10
123.22967613750342
 20
91.23483353658672
 30
0.0
 10
123.22960899399533
 20
91.373987716173488
 30
0.0
  0
SPLINE
  5
86
102
{ACAD_REACTORS
330
31
102
}
100
AcDbEntity
  8
0
  6
CONTINUOUS
100
AcDbSpline
210
0.0
220
0.0
230
1.0
 70
     8
 71
     2
 72
     6
 73
     3
 74
     0
 42
0.0000001
 43
0.0000001
 40
0.0
 40
0.0
 40
0.0
 40
1.0
 40
1.0
 40
1.0
 10
123.22960899399533
 20
91.37398771617346
 30
0.0
 10
123.22954876236122
 20
91.498817113148888
 30
0.0
 10
123.12105521979765
 20
91.570388693486322
 30
0.0
  0
SPLINE
  5
87
102
{ACAD_REACTORS
330
31
102
}
100
AcDbEntity
  8
0
  6
CONTINUOUS
100
AcDbSpline
210
0.0
220
0.0
230
1.0
 70
     8
 71
     2
 72
     6
 73
     3
 74
     0
 42
0.0000001
 43
0.0000001
 40
0.0
 40
0.0
 40
0.0
 40
1.0
 40
1.0
 40
1.0
 10
123.12105521979774
 20
91.570388693486336
 30
0.0
 10
123.04531455865359
 20
91.619465188656704
 30
0.0
 10
122.74446057002044
 20
91.69503640823109
 30
0.0
  0
SPLINE
  5
88
102
{ACAD_REACTORS
330
31
102
}
100
AcDbEntity
  8
0
  6
CONTINUOUS
100
AcDbSpline
210
0.0
220
0.0
230
1.0
 70
     8
 71
     2
 72
     6
 73
     3
 74
     0
 42
0.0000001
 43
0.0000001
 40
0.0
 40
0.0
 40
0.0
 40
1.0
 40
1.0
 40
1.0
 10
122.74446057002044
 20
91.69503640823109
 30
0.0
 10
122.33922602440296
 20
91.797160011127161
 30
0.0
 10
122.18264197918378
 20
91.871777430755174
 30
0.0
  0
SPLINE
  5
89
102
{ACAD_REACTORS
330
31
102
}
100
AcDbEntity
  8
0
  6
CONTINUOUS
100
AcDbSpline
210
0.0
220
0.0
230
1.0
 70
     8
 71
     2
 72
     6
 73
     3
 74
     0
 42
0.0000001
 43
0.0000001
 40
0.0
 40
0.0
 40
0.0
 40
1.0
 40
1.0
 40
1.0
 10
122.18264197918381
 20
91.871777430755174
 30
0.0
 10
122.02605793396458
 20
91.946394850383186
 30
0.0
 10
121.94516201269363
 20
92.078347934195818
 30
0.0
  0
SPLINE
  5
8A
102
{ACAD_REACTORS
330
31
102
}
100
AcDbEntity
  8
0
  6
CONTINUOUS
100
AcDbSpline
210
0.0
220
0.0
230
1.0
 70
     8
 71
     2
 72
     6
 73
     3
 74
     0
 42
0.0000001
 43
0.0000001
 40
0.0
 40
0.0
 40
0.0
 40
1.0
 40
1.0
 40
1.0
 10
121.94516201269357
 20
92.078347934195818
 30
0.0
 10
121.86426609171019
 20
92.210300421962074
 30
0.0
 10
121.86418907405522
 20
92.369918661857383
 30
0.0
  0
SPLINE
  5
8B
102
{ACAD_REACTORS
330
31
102
}
100
AcDbEntity
  8
0
  6
CONTINUOUS
100
AcDbSpline
210
0.0
220
0.0
230
1.0
 70
     8
 71
     2
 72
     6
 73
     3
 74
     0
 42
0.0000001
 43
0.0000001
 40
0.0
 40
0.0
 40
0.0
 40
1.0
 40
1.0
 40
1.0
 10
121.86418907405533
 20
92.369918661857369
 30
0.0
 10
121.86411896827445
 20
92.515212119141324
 30
0.0
 10
121.93056608534675
 20
92.639050194815141
 30
0.0
  0
SPLINE
  5
8C
102
{ACAD_REACTORS
330
31
102
}
100
AcDbEntity
  8
0
  6
CONTINUOUS
100
AcDbSpline
210
0.0
220
0.0
230
1.0
 70
     8
 71
     2
 72
     6
 73
     3
 74
     0
 42
0.0000001
 43
0.0000001
 40
0.0
 40
0.0
 40
0.0
 40
1.0
 40
1.0
 40
1.0
 10
121.9305660853467
 20
92.639050194815141
 30
0.0
 10
121.99701439436797
 20
92.762888569087337
 30
0.0
 10
122.11157196701015
 20
92.84479921066881
 30
0.0
  0
SPLINE
  5
8D
102
{ACAD_REACTORS
330
31
102
}
100
AcDbEntity
  8
0
  6
CONTINUOUS
100
AcDbSpline
210
0.0
220
0.0
230
1.0
 70
     8
 71
     2
 72
     6
 73
     3
 74
     0
 42
0.0000001
 43
0.0000001
 40
0.0
 40
0.0
 40
0.0
 40
1.0
 40
1.0
 40
1.0
 10
122.11157196701008
 20
92.844799210668796
 30
0.0
 10
122.1974900531968
 20
92.908278494009039
 30
0.0
 10
122.34583192004315
 20
92.952347542368827
 30
0.0
  0
SPLINE
  5
8E
102
{ACAD_REACTORS
330
31
102
}
100
AcDbEntity
  8
0
  6
CONTINUOUS
100
AcDbSpline
210
0.0
220
0.0
230
1.0
 70
     8
 71
     2
 72
     6
 73
     3
 74
     0
 42
0.0000001
 43
0.0000001
 40
0.0
 40
0.0
 40
0.0
 40
1.0
 40
1.0
 40
1.0
 10
122.3458319200432
 20
92.952347542368841
 30
0.0
 10
122.49417259479677
 20
92.996416590153444
 30
0.0
 10
122.6640231628696
 20
92.99649854502556
 30
0.0
  0
SPLINE
  5
8F
102
{ACAD_REACTORS
330
31
102
}
100
AcDbEntity
  8
0
  6
CONTINUOUS
100
AcDbSpline
210
0.0
220
0.0
230
1.0
 70
     8
 71
     2
 72
     6
 73
     3
 74
     0
 42
0.0000001
 43
0.0000001
 40
0.0
 40
0.0
 40
0.0
 40
1.0
 40
1.0
 40
1.0
 10
122.6640231628696
 20
92.996498545025545
 30
0.0
 10
122.91982123451757
 20
92.996621970566508
 30
0.0
 10
123.11324045239959
 20
92.923045140160596
 30
0.0
  0
SPLINE
  5
90
102
{ACAD_REACTORS
330
31
102
}
100
AcDbEntity
  8
0
  6
CONTINUOUS
100
AcDbSpline
210
0.0
220
0.0
230
1.0
 70
     8
 71
     2
 72
     6
 73
     3
 74
     0
 42
0.0000001
 43
0.0000001
 40
0.0
 40
0.0
 40
0.0
 40
1.0
 40
1.0
 40
1.0
 10
123.11324045239957
 20
92.923045140160582
 30
0.0
 10
123.30665966999385
 20
92.849468905801047
 30
0.0
 10
123.39880717670849
 20
92.723660530135646
 30
0.0
  0
SPLINE
  5
91
102
{ACAD_REACTORS
330
31
102
}
100
AcDbEntity
  8
0
  6
CONTINUOUS
100
AcDbSpline
210
0.0
220
0.0
230
1.0
 70
     8
 71
     2
 72
     6
 73
     3
 74
     0
 42
0.0000001
 43
0.0000001
 40
0.0
 40
0.0
 40
0.0
 40
1.0
 40
1.0
 40
1.0
 10
123.39880717670849
 20
92.723660530135646
 30
0.0
 10
123.49095468342301
 20
92.597852154470232
 30
0.0
 10
123.52584522893352
 20
92.387091443893979
 30
0.0
  0
LINE
  5
92
102
{ACAD_REACTORS
330
31
102
}
100
AcDbEntity
  8
0
  6
CONTINUOUS
100
AcDbLine
 10
123.525845
 20
92.387091
 30
0.0
 11
123.165706
 21
92.337805
 31
0.0
  0
SPLINE
  5
93
102
{ACAD_REACTORS
330
31
102
}
100
AcDbEntity
  8
0
  6
CONTINUOUS
100
AcDbSpline
210
0.0
220
0.0
230
1.0
 70
     8
 71
     2
 72
     6
 73
     3
 74
     0
 42
0.0000001
 43
0.0000001
 40
0.0
 40
0.0
 40
0.0
 40
1.0
 40
1.0
 40
1.0
 10
123.16570551822579
 20
92.337804631380891
 30
0.0
 10
123.14106744046845
 20
92.505595931052738
 30
0.0
 10
123.02335531212046
 20
92.599673058058443
 30
0.0
  0
SPLINE
  5
94
102
{ACAD_REACTORS
330
31
102
}
100
AcDbEntity
  8
0
  6
CONTINUOUS
100
AcDbSpline
210
0.0
220
0.0
230
1.0
 70
     8
 71
     2
 72
     6
 73
     3
 74
     0
 42
0.0000001
 43
0.0000001
 40
0.0
 40
0.0
 40
0.0
 40
1.0
 40
1.0
 40
1.0
 10
123.0233553121205
 20
92.599673058058443
 30
0.0
 10
122.90564318377245
 20
92.693750185064161
 30
0.0
 10
122.69077204064878
 20
92.693646507241624
 30
0.0
  0
SPLINE
  5
95
102
{ACAD_REACTORS
330
31
102
}
100
AcDbEntity
  8
0
  6
CONTINUOUS
100
AcDbSpline
210
0.0
220
0.0
230
1.0
 70
     8
 71
     2
 72
     6
 73
     3
 74
     0
 42
0.0000001
 43
0.0000001
 40
0.0
 40
0.0
 40
0.0
 40
1.0
 40
1.0
 40
1.0
 10
122.69077204064874
 20
92.693646507241624
 30
0.0
 10
122.43702079226395
 20
92.693524069316652
 30
0.0
 10
122.32860348479127
 20
92.609569864767849
 30
0.0
  0
SPLINE
  5
96
102
{ACAD_REACTORS
330
31
102
}
100
AcDbEntity
  8
0
  6
CONTINUOUS
100
AcDbSpline
210
0.0
220
0.0
230
1.0
 70
     8
 71
     2
 72
     6
 73
     3
 74
     0
 42
0.0000001
 43
0.0000001
 40
0.0
 40
0.0
 40
0.0
 40
1.0
 40
1.0
 40
1.0
 10
122.32860348479126
 20
92.609569864767849
 30
0.0
 10
122.2201849852258
 20
92.525615659643847
 30
0.0
 10
122.22023929245809
 20
92.41306452003964
 30
0.0
  0
SPLINE
  5
97
102
{ACAD_REACTORS
330
31
102
}
100
AcDbEntity
  8
0
  6
CONTINUOUS
100
AcDbSpline
210
0.0
220
0.0
230
1.0
 70
     8
 71
     2
 72
     6
 73
     3
 74
     0
 42
0.0000001
 43
0.0000001
 40
0.0
 40
0.0
 40
0.0
 40
1.0
 40
1.0
 40
1.0
 10
122.22023929245809
 20
92.41306452003964
 30
0.0
 10
122.2202738516843
 20
92.341440905006138
 30
0.0
 10
122.26532207394366
 20
92.284164093557578
 30
0.0
  0
SPLINE
  5
98
102
{ACAD_REACTORS
330
31
102
}
100
AcDbEntity
  8
0
  6
CONTINUOUS
100
AcDbSpline
210
0.0
220
0.0
230
1.0
 70
     8
 71
     2
 72
     6
 73
     3
 74
     0
 42
0.0000001
 43
0.0000001
 40
0.0
 40
0.0
 40
0.0
 40
1.0
 40
1.0
 40
1.0
 10
122.26532207394368
 20
92.284164093557578
 30
0.0
 10
122.31037128381914
 20
92.224840458845719
 30
0.0
 10
122.4065704722959
 20
92.186005569665625
 30
0.0
  0
SPLINE
  5
99
102
{ACAD_REACTORS
330
31
102
}
100
AcDbEntity
  8
0
  6
CONTINUOUS
100
AcDbSpline
210
0.0
220
0.0
230
1.0
 70
     8
 71
     2
 72
     6
 73
     3
 74
     0
 42
0.0000001
 43
0.0000001
 40
0.0
 40
0.0
 40
0.0
 40
1.0
 40
1.0
 40
1.0
 10
122.40657047229598
 20
92.18600556966561
 30
0.0
 10
122.46183146138827
 20
92.165568466685087
 30
0.0
 10
122.73199045824867
 20
92.092028962137221
 30
0.0
  0
SPLINE
  5
9A
102
{ACAD_REACTORS
330
31
102
}
100
AcDbEntity
  8
0
  6
CONTINUOUS
100
AcDbSpline
210
0.0
220
0.0
230
1.0
 70
     8
 71
     2
 72
     6
 73
     3
 74
     0
 42
0.0000001
 43
0.0000001
 40
0.0
 40
0.0
 40
0.0
 40
1.0
 40
1.0
 40
1.0
 10
122.7319904582486
 20
92.092028962137221
 30
0.0
 10
123.12289942073163
 20
91.987851623241028
 30
0.0
 10
123.27743388517904
 20
91.921418721486361
 30
0.0
  0
SPLINE
  5
9B
102
{ACAD_REACTORS
330
31
102
}
100
AcDbEntity
  8
0
  6
CONTINUOUS
100
AcDbSpline
210
0.0
220
0.0
230
1.0
 70
     8
 71
     2
 72
     6
 73
     3
 74
     0
 42
0.0000001
 43
0.0000001
 40
0.0
 40
0.0
 40
0.0
 40
1.0
 40
1.0
 40
1.0
 10
123.27743388517905
 20
91.921418721486376
 30
0.0
 10
123.43196834962652
 20
91.854985819731695
 30
0.0
 10
123.52002389542758
 20
91.728152653824196
 30
0.0
  0
SPLINE
  5
9C
102
{ACAD_REACTORS
330
31
102
}
100
AcDbEntity
  8
0
  6
CONTINUOUS
100
AcDbSpline
210
0.0
220
0.0
230
1.0
 70
     8
 71
     2
 72
     6
 73
     3
 74
     0
 42
0.0000001
 43
0.0000001
 40
0.0
 40
0.0
 40
0.0
 40
1.0
 40
1.0
 40
1.0
 10
123.5200238954275
 20
91.728152653824182
 30
0.0
 10
123.60807944122857
 20
91.601319487916683
 30
0.0
 10
123.60817028263151
 20
91.413051682798695
 30
0.0
  0
SPLINE
  5
9D
102
{ACAD_REACTORS
330
31
102
}
100
AcDbEntity
  8
0
  6
CONTINUOUS
100
AcDbSpline
210
0.0
220
0.0
230
1.0
 70
     8
 71
     2
 72
     6
 73
     3
 74
     0
 42
0.0000001
 43
0.0000001
 40
0.0
 40
0.0
 40
0.0
 40
1.0
 40
1.0
 40
1.0
 10
123.60817028263151
 20
91.413051682798709
 30
0.0
 10
123.60825914880243
 20
91.228877524207348
 30
0.0
 10
123.5009026720783
 20
91.066137806839777
 30
0.0
  0
SPLINE
  5
9E
102
{ACAD_REACTORS
330
31
102
}
100
AcDbEntity
  8
0
  6
CONTINUOUS
100
AcDbSpline
210
0.0
220
0.0
230
1.0
 70
     8
 71
     2
 72
     6
 73
     3
 74
     0
 42
0.0000001
 43
0.0000001
 40
0.0
 40
0.0
 40
0.0
 40
1.0
 40
1.0
 40
1.0
 10
123.50090267207838
 20
91.066137806839777
 30
0.0
 10
123.39354619506662
 20
90.903398685518582
 30
0.0
 10
123.19099775152284
 20
90.814283194346586
 30
0.0
  0
SPLINE
  5
9F
102
{ACAD_REACTORS
330
31
102
}
100
AcDbEntity
  8
0
  6
CONTINUOUS
100
AcDbSpline
210
0.0
220
0.0
230
1.0
 70
     8
 71
     2
 72
     6
 73
     3
 74
     0
 42
0.0000001
 43
0.0000001
 40
0.0
 40
0.0
 40
0.0
 40
1.0
 40
1.0
 40
1.0
 10
123.19099775152287
 20
90.814283194346572
 30
0.0
 10
122.98844811588643
 20
90.725167702599379
 30
0.0
 10
122.7326500442384
 20
90.725044277058402
 30
0.0
  0
SPLINE
  5
A0
102
{ACAD_REACTORS
330
31
102
}
100
AcDbEntity
  8
0
  6
CONTINUOUS
100
AcDbSpline
210
0.0
220
0.0
230
1.0
 70
     8
 71
     2
 72
     6
 73
     3
 74
     0
 42
0.0000001
 43
0.0000001
 40
0.0
 40
0.0
 40
0.0
 40
1.0
 40
1.0
 40
1.0
 10
122.73265004423841
 20
90.725044277058402
 30
0.0
 10
122.30904822778091
 20
90.724839884261328
 30
0.0
 10
122.08693007480501
 20
90.90072140432278
 30
0.0
  0
SPLINE
  5
A1
102
{ACAD_REACTORS
330
31
102
}
100
AcDbEntity
  8
0
  6
CONTINUOUS
100
AcDbSpline
210
0.0
220
0.0
230
1.0
 70
     8
 71
     2
 72
     6
 73
     3
 74
     0
 42
0.0000001
 43
0.0000001
 40
0.0
 40
0.0
 40
0.0
 40
1.0
 40
1.0
 40
1.0
 10
122.08693007480494
 20
90.90072140432278
 30
0.0
 10
121.86481311363414
 20
91.076603521005808
 30
0.0
 10
121.80325465731309
 20
91.422413120602926
 30
0.0
  0
LINE
  5
A2
102
{ACAD_REACTORS
330
31
102
}
100
AcDbEntity
  8
0
  6
CONTINUOUS
100
AcDbLine
 10
125.533789
 20
91.475372
 30
0.0
 11
125.914438
 21
91.428489
 31
0.0
  0
SPLINE
  5
A3
102
{ACAD_REACTORS
330
31
102
}
100
AcDbEntity
  8
0
  6
CONTINUOUS
100
AcDbSpline
210
0.0
220
0.0
230
1.0
 70
     8
 71
     2
 72
     6
 73
     3
 74
     0
 42
0.0000001
 43
0.0000001
 40
0.0
 40
0.0
 40
0.0
 40
1.0
 40
1.0
 40
1.0
 10
125.91443847002378
 20
91.428489269935625
 30
0.0
 10
125.82455826681817
 20
91.094885157679187
 30
0.0
 10
125.58112761702304
 20
90.910592902046105
 30
0.0
  0
SPLINE
  5
A4
102
{ACAD_REACTORS
330
31
102
}
100
AcDbEntity
  8
0
  6
CONTINUOUS
100
AcDbSpline
210
0.0
220
0.0
230
1.0
 70
     8
 71
     2
 72
     6
 73
     3
 74
     0
 42
0.0000001
 43
0.0000001
 40
0.0
 40
0.0
 40
0.0
 40
1.0
 40
1.0
 40
1.0
 10
125.58112761702307
 20
90.910592902046076
 30
0.0
 10
125.33769696694031
 20
90.726301242459371
 30
0.0
 10
124.95911572553376
 20
90.72611857261272
 30
0.0
  0
SPLINE
  5
A5
102
{ACAD_REACTORS
330
31
102
}
100
AcDbEntity
  8
0
  6
CONTINUOUS
100
AcDbSpline
210
0.0
220
0.0
230
1.0
 70
     8
 71
     2
 72
     6
 73
     3
 74
     0
 42
0.0000001
 43
0.0000001
 40
0.0
 40
0.0
 40
0.0
 40
1.0
 40
1.0
 40
1.0
 10
124.95911572553376
 20
90.72611857261272
 30
0.0
 10
124.48230842515761
 20
90.725888507551588
 30
0.0
 10
124.20283555798824
 20
91.019409684385153
 30
0.0
  0
SPLINE
  5
A6
102
{ACAD_REACTORS
330
31
102
}
100
AcDbEntity
  8
0
  6
CONTINUOUS
100
AcDbSpline
210
0.0
220
0.0
230
1.0
 70
     8
 71
     2
 72
     6
 73
     3
 74
     0
 42
0.0000001
 43
0.0000001
 40
0.0
 40
0.0
 40
0.0
 40
1.0
 40
1.0
 40
1.0
 10
124.20283555798824
 20
91.019409684385153
 30
0.0
 10
123.92336269081875
 20
91.312930861218703
 30
0.0
 10
123.92310695291843
 20
91.842944837606396
 30
0.0
  0
SPLINE
  5
A7
102
{ACAD_REACTORS
330
31
102
}
100
AcDbEntity
  8
0
  6
CONTINUOUS
100
AcDbSpline
210
0.0
220
0.0
230
1.0
 70
     8
 71
     2
 72
     6
 73
     3
 74
     0
 42
0.0000001
 43
0.0000001
 40
0.0
 40
0.0
 40
0.0
 40
1.0
 40
1.0
 40
1.0
 10
123.92310695291835
 20
91.842944837606396
 30
0.0
 10
123.92284232863098
 20
92.391375753016106
 30
0.0
 10
124.20509581418204
 20
92.694377186053046
 30
0.0
  0
SPLINE
  5
A8
102
{ACAD_REACTORS
330
31
102
}
100
AcDbEntity
  8
0
  6
CONTINUOUS
100
AcDbSpline
210
0.0
220
0.0
230
1.0
 70
     8
 71
     2
 72
     6
 73
     3
 74
     0
 42
0.0000001
 43
0.0000001
 40
0.0
 40
0.0
 40
0.0
 40
1.0
 40
1.0
 40
1.0
 10
124.20509581418217
 20
92.694377186053032
 30
0.0
 10
124.48735168406249
 20
92.997378322217159
 30
0.0
 10
124.93755624247932
 20
92.997595551146262
 30
0.0
  0
SPLINE
  5
A9
102
{ACAD_REACTORS
330
31
102
}
100
AcDbEntity
  8
0
  6
CONTINUOUS
100
AcDbSpline
210
0.0
220
0.0
230
1.0
 70
     8
 71
     2
 72
     6
 73
     3
 74
     0
 42
0.0000001
 43
0.0000001
 40
0.0
 40
0.0
 40
0.0
 40
1.0
 40
1.0
 40
1.0
 10
124.93755624247927
 20
92.997595551146276
 30
0.0
 10
125.37343661433113
 20
92.997805868488967
 30
0.0
 10
125.64984132393215
 20
92.701213273647227
 30
0.0
  0
SPLINE
  5
AA
102
{ACAD_REACTORS
330
31
102
}
100
AcDbEntity
  8
0
  6
CONTINUOUS
100
AcDbSpline
210
0.0
220
0.0
230
1.0
 70
     8
 71
     2
 72
     6
 73
     3
 74
     0
 42
0.0000001
 43
0.0000001
 40
0.0
 40
0.0
 40
0.0
 40
1.0
 40
1.0
 40
1.0
 10
125.64984132393216
 20
92.701213273647213
 30
0.0
 10
125.92624603353319
 20
92.404620678805458
 30
0.0
 10
125.92650572074713
 20
91.866421793550018
 30
0.0
  0
SPLINE
  5
AB
102
{ACAD_REACTORS
330
31
102
}
100
AcDbEntity
  8
0
  6
CONTINUOUS
100
AcDbSpline
210
0.0
220
0.0
230
1.0
 70
     8
 71
     2
 72
     6
 73
     3
 74
     0
 42
0.0000001
 43
0.0000001
 40
0.0
 40
0.0
 40
0.0
 40
1.0
 40
1.0
 40
1.0
 10
125.92650572074714
 20
91.866421793550018
 30
0.0
 10
125.9265215194396
 20
91.833679177847088
 30
0.0
 10
125.92450748507869
 20
91.768194151493162
 30
0.0
  0
LINE
  5
AC
102
{ACAD_REACTORS
330
31
102
}
100
AcDbEntity
  8
0
  6
CONTINUOUS
100
AcDbLine
 10
125.924507
 20
91.768194
 30
0.0
 11
124.30377
 21
91.767412
 31
0.0
  0
SPLINE
  5
AD
102
{ACAD_REACTORS
330
31
102
}
100
AcDbEntity
  8
0
  6
CONTINUOUS
100
AcDbSpline
210
0.0
220
0.0
230
1.0
 70
     8
 71
     2
 72
     6
 73
     3
 74
     0
 42
0.0000001
 43
0.0000001
 40
0.0
 40
0.0
 40
0.0
 40
1.0
 40
1.0
 40
1.0
 10
124.30377035952239
 20
91.767412127003269
 30
0.0
 10
124.32440781157715
 20
91.409304820339713
 30
0.0
 10
124.50662757168288
 20
91.219078666847309
 30
0.0
  0
SPLINE
  5
AE
102
{ACAD_REACTORS
330
31
102
}
100
AcDbEntity
  8
0
  6
CONTINUOUS
100
AcDbSpline
210
0.0
220
0.0
230
1.0
 70
     8
 71
     2
 72
     6
 73
     3
 74
     0
 42
0.0000001
 43
0.0000001
 40
0.0
 40
0.0
 40
0.0
 40
1.0
 40
1.0
 40
1.0
 10
124.50662757168277
 20
91.219078666847309
 30
0.0
 10
124.68884733150094
 20
91.028853109401282
 30
0.0
 10
124.96101641297724
 20
91.028984434144661
 30
0.0
  0
SPLINE
  5
AF
102
{ACAD_REACTORS
330
31
102
}
100
AcDbEntity
  8
0
  6
CONTINUOUS
100
AcDbSpline
210
0.0
220
0.0
230
1.0
 70
     8
 71
     2
 72
     6
 73
     3
 74
     0
 42
0.0000001
 43
0.0000001
 40
0.0
 40
0.0
 40
0.0
 40
1.0
 40
1.0
 40
1.0
 10
124.96101641297736
 20
91.028984434144661
 30
0.0
 10
125.1636078086139
 20
91.029082186846409
 30
0.0
 10
125.30680309753131
 20
91.135563464941498
 30
0.0
  0
SPLINE
  5
B0
102
{ACAD_REACTORS
330
31
102
}
100
AcDbEntity
  8
0
  6
CONTINUOUS
100
AcDbSpline
210
0.0
220
0.0
230
1.0
 70
     8
 71
     2
 72
     6
 73
     3
 74
     0
 42
0.0000001
 43
0.0000001
 40
0.0
 40
0.0
 40
0.0
 40
1.0
 40
1.0
 40
1.0
 10
125.3068030975312
 20
91.135563464941498
 30
0.0
 10
125.44999957882891
 20
91.242044147565409
 30
0.0
 10
125.53378888716787
 20
91.475372415316031
 30
0.0
  0
LINE
  5
B1
102
{ACAD_REACTORS
330
31
102
}
100
AcDbEntity
  8
0
  6
CONTINUOUS
100
AcDbLine
 10
124.324089
 20
92.070287
 30
0.0
 11
125.537594
 21
92.070872
 31
0.0
  0
SPLINE
  5
B2
102
{ACAD_REACTORS
330
31
102
}
100
AcDbEntity
  8
0
  6
CONTINUOUS
100
AcDbSpline
210
0.0
220
0.0
230
1.0
 70
     8
 71
     2
 72
     6
 73
     3
 74
     0
 42
0.0000001
 43
0.0000001
 40
0.0
 40
0.0
 40
0.0
 40
1.0
 40
1.0
 40
1.0
 10
125.53759400689185
 20
92.070872405673654
 30
0.0
 10
125.51290458388749
 20
92.345076163298884
 30
0.0
 10
125.39824135905363
 20
92.482128523228639
 30
0.0
  0
SPLINE
  5
B3
102
{ACAD_REACTORS
330
31
102
}
100
AcDbEntity
  8
0
  6
CONTINUOUS
100
AcDbSpline
210
0.0
220
0.0
230
1.0
 70
     8
 71
     2
 72
     6
 73
     3
 74
     0
 42
0.0000001
 43
0.0000001
 40
0.0
 40
0.0
 40
0.0
 40
1.0
 40
1.0
 40
1.0
 10
125.39824135905351
 20
92.482128523228639
 30
0.0
 10
125.22215001516972
 20
92.694867926519336
 30
0.0
 10
124.94179483273288
 20
92.694732651887136
 30
0.0
  0
SPLINE
  5
B4
102
{ACAD_REACTORS
330
31
102
}
100
AcDbEntity
  8
0
  6
CONTINUOUS
100
AcDbSpline
210
0.0
220
0.0
230
1.0
 70
     8
 71
     2
 72
     6
 73
     3
 74
     0
 42
0.0000001
 43
0.0000001
 40
0.0
 40
0.0
 40
0.0
 40
1.0
 40
1.0
 40
1.0
 10
124.941794832733
 20
92.694732651887136
 30
0.0
 10
124.68804358434832
 20
92.694610213962164
 30
0.0
 10
124.51520533201145
 20
92.524676805927271
 30
0.0
  0
SPLINE
  5
B5
102
{ACAD_REACTORS
330
31
102
}
100
AcDbEntity
  8
0
  6
CONTINUOUS
100
AcDbSpline
210
0.0
220
0.0
230
1.0
 70
     8
 71
     2
 72
     6
 73
     3
 74
     0
 42
0.0000001
 43
0.0000001
 40
0.0
 40
0.0
 40
0.0
 40
1.0
 40
1.0
 40
1.0
 10
124.51520533201139
 20
92.524676805927243
 30
0.0
 10
124.34236827176724
 20
92.354743398467548
 30
0.0
 10
124.32408888005747
 20
92.070286875353617
 30
0.0
  0
LINE
  5
B6
102
{ACAD_REACTORS
330
31
102
}
100
AcDbEntity
  8
0
  6
CONTINUOUS
100
AcDbLine
 10
127.45317
 20
91.740282
 30
0.0
 11
127.827643
 21
91.773205
 31
0.0
  0
SPLINE
  5
B7
102
{ACAD_REACTORS
330
31
102
}
100
AcDbEntity
  8
0
  6
CONTINUOUS
100
AcDbSpline
210
0.0
220
0.0
230
1.0
 70
     8
 71
     2
 72
     6
 73
     3
 74
     0
 42
0.0000001
 43
0.0000001
 40
0.0
 40
0.0
 40
0.0
 40
1.0
 40
1.0
 40
1.0
 10
127.82764344958551
 20
91.773204892089936
 30
0.0
 10
127.85435480572184
 20
91.548116045059899
 30
0.0
 10
127.95162766136676
 20
91.403892305055294
 30
0.0
  0
SPLINE
  5
B8
102
{ACAD_REACTORS
330
31
102
}
100
AcDbEntity
  8
0
  6
CONTINUOUS
100
AcDbSpline
210
0.0
220
0.0
230
1.0
 70
     8
 71
     2
 72
     6
 73
     3
 74
     0
 42
0.0000001
 43
0.0000001
 40
0.0
 40
0.0
 40
0.0
 40
1.0
 40
1.0
 40
1.0
 10
127.95162766136681
 20
91.40389230505528
 30
0.0
 10
128.0489005167241
 20
91.259669161097037
 30
0.0
 10
128.25358168771683
 20
91.170750162944515
 30
0.0
  0
SPLINE
  5
B9
102
{ACAD_REACTORS
330
31
102
}
100
AcDbEntity
  8
0
  6
CONTINUOUS
100
AcDbSpline
210
0.0
220
0.0
230
1.0
 70
     8
 71
     2
 72
     6
 73
     3
 74
     0
 42
0.0000001
 43
0.0000001
 40
0.0
 40
0.0
 40
0.0
 40
1.0
 40
1.0
 40
1.0
 10
128.2535816877168
 20
91.170750162944557
 30
0.0
 10
128.45826285870959
 20
91.081831164792035
 30
0.0
 10
128.71406093035762
 20
91.081954590333012
 30
0.0
  0
SPLINE
  5
BA
102
{ACAD_REACTORS
330
31
102
}
100
AcDbEntity
  8
0
  6
CONTINUOUS
100
AcDbSpline
210
0.0
220
0.0
230
1.0
 70
     8
 71
     2
 72
     6
 73
     3
 74
     0
 42
0.0000001
 43
0.0000001
 40
0.0
 40
0.0
 40
0.0
 40
1.0
 40
1.0
 40
1.0
 10
128.71406093035759
 20
91.081954590332984
 30
0.0
 10
128.94120943678294
 20
91.082064192125941
 30
0.0
 10
129.11511987486389
 20
91.149678984231301
 30
0.0
  0
SPLINE
  5
BB
102
{ACAD_REACTORS
330
31
102
}
100
AcDbEntity
  8
0
  6
CONTINUOUS
100
AcDbSpline
210
0.0
220
0.0
230
1.0
 70
     8
 71
     2
 72
     6
 73
     3
 74
     0
 42
0.0000001
 43
0.0000001
 40
0.0
 40
0.0
 40
0.0
 40
1.0
 40
1.0
 40
1.0
 10
129.11511987486386
 20
91.149678984231286
 30
0.0
 10
129.28903150503771
 20
91.217293776911845
 30
0.0
 10
129.37389941747438
 20
91.335001461706867
 30
0.0
  0
SPLINE
  5
BC
102
{ACAD_REACTORS
330
31
102
}
100
AcDbEntity
  8
0
  6
CONTINUOUS
100
AcDbSpline
210
0.0
220
0.0
230
1.0
 70
     8
 71
     2
 72
     6
 73
     3
 74
     0
 42
0.0000001
 43
0.0000001
 40
0.0
 40
0.0
 40
0.0
 40
1.0
 40
1.0
 40
1.0
 10
129.37389941747438
 20
91.335001461706867
 30
0.0
 10
129.45876732962353
 20
91.452709742548251
 30
0.0
 10
129.45870018611544
 20
91.591863922135019
 30
0.0
  0
SPLINE
  5
BD
102
{ACAD_REACTORS
330
31
102
}
100
AcDbEntity
  8
0
  6
CONTINUOUS
100
AcDbSpline
210
0.0
220
0.0
230
1.0
 70
     8
 71
     2
 72
     6
 73
     3
 74
     0
 42
0.0000001
 43
0.0000001
 40
0.0
 40
0.0
 40
0.0
 40
1.0
 40
1.0
 40
1.0
 10
129.45870018611544
 20
91.591863922135033
 30
0.0
 10
129.45863205527888
 20
91.733064328938738
 30
0.0
 10
129.37672496274945
 20
91.838413580650027
 30
0.0
  0
SPLINE
  5
BE
102
{ACAD_REACTORS
330
31
102
}
100
AcDbEntity
  8
0
  6
CONTINUOUS
100
AcDbSpline
210
0.0
220
0.0
230
1.0
 70
     8
 71
     2
 72
     6
 73
     3
 74
     0
 42
0.0000001
 43
0.0000001
 40
0.0
 40
0.0
 40
0.0
 40
1.0
 40
1.0
 40
1.0
 10
129.37672496274945
 20
91.838413580650027
 30
0.0
 10
129.29481787022002
 20
91.943762832361315
 30
0.0
 10
129.10651729387115
 20
92.015295904877888
 30
0.0
  0
SPLINE
  5
BF
102
{ACAD_REACTORS
330
31
102
}
100
AcDbEntity
  8
0
  6
CONTINUOUS
100
AcDbSpline
210
0.0
220
0.0
230
1.0
 70
     8
 71
     2
 72
     6
 73
     3
 74
     0
 42
0.0000001
 43
0.0000001
 40
0.0
 40
0.0
 40
0.0
 40
1.0
 40
1.0
 40
1.0
 10
129.10651729387115
 20
92.015295904877888
 30
0.0
 10
128.98575704500439
 20
92.062304449880898
 30
0.0
 10
128.57234026374829
 20
92.161354465189959
 30
0.0
  0
SPLINE
  5
C0
102
{ACAD_REACTORS
330
31
102
}
100
AcDbEntity
  8
0
  6
CONTINUOUS
100
AcDbSpline
210
0.0
220
0.0
230
1.0
 70
     8
 71
     2
 72
     6
 73
     3
 74
     0
 42
0.0000001
 43
0.0000001
 40
0.0
 40
0.0
 40
0.0
 40
1.0
 40
1.0
 40
1.0
 10
128.57234026374834
 20
92.161354465189945
 30
0.0
 10
128.15892229025565
 20
92.260404777947002
 30
0.0
 10
127.99312291028093
 20
92.348319423168675
 30
0.0
  0
SPLINE
  5
C1
102
{ACAD_REACTORS
330
31
102
}
100
AcDbEntity
  8
0
  6
CONTINUOUS
100
AcDbSpline
210
0.0
220
0.0
230
1.0
 70
     8
 71
     2
 72
     6
 73
     3
 74
     0
 42
0.0000001
 43
0.0000001
 40
0.0
 40
0.0
 40
0.0
 40
1.0
 40
1.0
 40
1.0
 10
127.9931229102809
 20
92.348319423168704
 30
0.0
 10
127.7781974600687
 20
92.460766586927193
 30
0.0
 10
127.67272883436837
 20
92.627496069097305
 30
0.0
  0
SPLINE
  5
C2
102
{ACAD_REACTORS
330
31
102
}
100
AcDbEntity
  8
0
  6
CONTINUOUS
100
AcDbSpline
210
0.0
220
0.0
230
1.0
 70
     8
 71
     2
 72
     6
 73
     3
 74
     0
 42
0.0000001
 43
0.0000001
 40
0.0
 40
0.0
 40
0.0
 40
1.0
 40
1.0
 40
1.0
 10
127.67272883436843
 20
92.627496069097276
 30
0.0
 10
127.56725901657543
 20
92.794225550692204
 30
0.0
 10
127.56715928864165
 20
93.000910592855405
 30
0.0
  0
SPLINE
  5
C3
102
{ACAD_REACTORS
330
31
102
}
100
AcDbEntity
  8
0
  6
CONTINUOUS
100
AcDbSpline
210
0.0
220
0.0
230
1.0
 70
     8
 71
     2
 72
     6
 73
     3
 74
     0
 42
0.0000001
 43
0.0000001
 40
0.0
 40
0.0
 40
0.0
 40
1.0
 40
1.0
 40
1.0
 10
127.56715928864165
 20
93.000910592855405
 30
0.0
 10
127.56704968670491
 20
93.228059397303952
 30
0.0
 10
127.69587684977981
 20
93.42559743147666
 30
0.0
  0
SPLINE
  5
C4
102
{ACAD_REACTORS
330
31
102
}
100
AcDbEntity
  8
0
  6
CONTINUOUS
100
AcDbSpline
210
0.0
220
0.0
230
1.0
 70
     8
 71
     2
 72
     6
 73
     3
 74
     0
 42
0.0000001
 43
0.0000001
 40
0.0
 40
0.0
 40
0.0
 40
1.0
 40
1.0
 40
1.0
 10
127.69587684977981
 20
93.42559743147666
 30
0.0
 10
127.82470401271101
 20
93.623135763672551
 30
0.0
 10
128.07226661309588
 20
93.725574646797838
 30
0.0
  0
SPLINE
  5
C5
102
{ACAD_REACTORS
330
31
102
}
100
AcDbEntity
  8
0
  6
CONTINUOUS
100
AcDbSpline
210
0.0
220
0.0
230
1.0
 70
     8
 71
     2
 72
     6
 73
     3
 74
     0
 42
0.0000001
 43
0.0000001
 40
0.0
 40
0.0
 40
0.0
 40
1.0
 40
1.0
 40
1.0
 10
128.07226661309582
 20
93.725574646797838
 30
0.0
 10
128.31983040571723
 20
93.828013232475143
 30
0.0
 10
128.62269587567957
 20
93.828159368582561
 30
0.0
  0
SPLINE
  5
C6
102
{ACAD_REACTORS
330
31
102
}
100
AcDbEntity
  8
0
  6
CONTINUOUS
100
AcDbSpline
210
0.0
220
0.0
230
1.0
 70
     8
 71
     2
 72
     6
 73
     3
 74
     0
 42
0.0000001
 43
0.0000001
 40
0.0
 40
0.0
 40
0.0
 40
1.0
 40
1.0
 40
1.0
 10
128.62269587567963
 20
93.828159368582533
 30
0.0
 10
128.95625534994244
 20
93.828320314903564
 30
0.0
 10
129.21108244477264
 20
93.721007973385468
 30
0.0
  0
SPLINE
  5
C7
102
{ACAD_REACTORS
330
31
102
}
100
AcDbEntity
  8
0
  6
CONTINUOUS
100
AcDbSpline
210
0.0
220
0.0
230
1.0
 70
     8
 71
     2
 72
     6
 73
     3
 74
     0
 42
0.0000001
 43
0.0000001
 40
0.0
 40
0.0
 40
0.0
 40
1.0
 40
1.0
 40
1.0
 10
129.21108244477259
 20
93.721007973385483
 30
0.0
 10
129.46590953945903
 20
93.613695929890568
 30
0.0
 10
129.60311761104467
 20
93.405030816402515
 30
0.0
  0
SPLINE
  5
C8
102
{ACAD_REACTORS
330
31
102
}
100
AcDbEntity
  8
0
  6
CONTINUOUS
100
AcDbSpline
210
0.0
220
0.0
230
1.0
 70
     8
 71
     2
 72
     6
 73
     3
 74
     0
 42
0.0000001
 43
0.0000001
 40
0.0
 40
0.0
 40
0.0
 40
1.0
 40
1.0
 40
1.0
 10
129.60311761104475
 20
93.405030816402515
 30
0.0
 10
129.74032568263027
 20
93.196365702914463
 30
0.0
 10
129.7506859819963
 20
92.932387063857092
 30
0.0
  0
LINE
  5
C9
102
{ACAD_REACTORS
330
31
102
}
100
AcDbEntity
  8
0
  6
CONTINUOUS
100
AcDbLine
 10
129.750686
 20
92.932387
 30
0.0
 11
129.370072
 21
92.903554
 31
0.0
  0
SPLINE
  5
CA
102
{ACAD_REACTORS
330
31
102
}
100
AcDbEntity
  8
0
  6
CONTINUOUS
100
AcDbSpline
210
0.0
220
0.0
230
1.0
 70
     8
 71
     2
 72
     6
 73
     3
 74
     0
 42
0.0000001
 43
0.0000001
 40
0.0
 40
0.0
 40
0.0
 40
1.0
 40
1.0
 40
1.0
 10
129.37007174107444
 20
92.903553841171743
 30
0.0
 10
129.339240487485
 20
93.187986667828838
 30
0.0
 10
129.16215652839983
 20
93.333194415849093
 30
0.0
  0
SPLINE
  5
CB
102
{ACAD_REACTORS
330
31
102
}
100
AcDbEntity
  8
0
  6
CONTINUOUS
100
AcDbSpline
210
0.0
220
0.0
230
1.0
 70
     8
 71
     2
 72
     6
 73
     3
 74
     0
 42
0.0000001
 43
0.0000001
 40
0.0
 40
0.0
 40
0.0
 40
1.0
 40
1.0
 40
1.0
 10
129.16215652839978
 20
93.333194415849093
 30
0.0
 10
128.98507376126369
 20
93.478402462467756
 30
0.0
 10
128.63923573160648
 20
93.478235591601106
 30
0.0
  0
SPLINE
  5
CC
102
{ACAD_REACTORS
330
31
102
}
100
AcDbEntity
  8
0
  6
CONTINUOUS
100
AcDbSpline
210
0.0
220
0.0
230
1.0
 70
     8
 71
     2
 72
     6
 73
     3
 74
     0
 42
0.0000001
 43
0.0000001
 40
0.0
 40
0.0
 40
0.0
 40
1.0
 40
1.0
 40
1.0
 10
128.6392357316065
 20
93.47823559160112
 30
0.0
 10
128.2790711311988
 20
93.478061807997676
 30
0.0
 10
128.11440071280907
 20
93.345990533596876
 30
0.0
  0
SPLINE
  5
CD
102
{ACAD_REACTORS
330
31
102
}
100
AcDbEntity
  8
0
  6
CONTINUOUS
100
AcDbSpline
210
0.0
220
0.0
230
1.0
 70
     8
 71
     2
 72
     6
 73
     3
 74
     0
 42
0.0000001
 43
0.0000001
 40
0.0
 40
0.0
 40
0.0
 40
1.0
 40
1.0
 40
1.0
 10
128.11440071280907
 20
93.345990533596876
 30
0.0
 10
127.94973148651206
 20
93.213919259771274
 30
0.0
 10
127.94982134029897
 20
93.027698277916599
 30
0.0
  0
SPLINE
  5
CE
102
{ACAD_REACTORS
330
31
102
}
100
AcDbEntity
  8
0
  6
CONTINUOUS
100
AcDbSpline
210
0.0
220
0.0
230
1.0
 70
     8
 71
     2
 72
     6
 73
     3
 74
     0
 42
0.0000001
 43
0.0000001
 40
0.0
 40
0.0
 40
0.0
 40
1.0
 40
1.0
 40
1.0
 10
127.949821340299
 20
93.027698277916599
 30
0.0
 10
127.94989934528232
 20
92.866033810804353
 30
0.0
 10
128.06659359497465
 20
92.761724458147171
 30
0.0
  0
SPLINE
  5
CF
102
{ACAD_REACTORS
330
31
102
}
100
AcDbEntity
  8
0
  6
CONTINUOUS
100
AcDbSpline
210
0.0
220
0.0
230
1.0
 70
     8
 71
     2
 72
     6
 73
     3
 74
     0
 42
0.0000001
 43
0.0000001
 40
0.0
 40
0.0
 40
0.0
 40
1.0
 40
1.0
 40
1.0
 10
128.06659359497459
 20
92.761724458147171
 30
0.0
 10
128.18124102125986
 20
92.657414415897165
 30
0.0
 10
128.66526324115827
 20
92.548166137972686
 30
0.0
  0
SPLINE
  5
D0
102
{ACAD_REACTORS
330
31
102
}
100
AcDbEntity
  8
0
  6
CONTINUOUS
100
AcDbSpline
210
0.0
220
0.0
230
1.0
 70
     8
 71
     2
 72
     6
 73
     3
 74
     0
 42
0.0000001
 43
0.0000001
 40
0.0
 40
0.0
 40
0.0
 40
1.0
 40
1.0
 40
1.0
 10
128.66526324115821
 20
92.548166137972686
 30
0.0
 10
129.14928665300553
 20
92.438918158646601
 30
0.0
 10
129.32940844936516
 20
92.357149703283739
 30
0.0
  0
SPLINE
  5
D1
102
{ACAD_REACTORS
330
31
102
}
100
AcDbEntity
  8
0
  6
CONTINUOUS
100
AcDbSpline
210
0.0
220
0.0
230
1.0
 70
     8
 71
     2
 72
     6
 73
     3
 74
     0
 42
0.0000001
 43
0.0000001
 40
0.0
 40
0.0
 40
0.0
 40
1.0
 40
1.0
 40
1.0
 10
129.32940844936525
 20
92.357149703283739
 30
0.0
 10
129.59140286359502
 20
92.236539147980778
 30
0.0
 10
129.71632340868854
 20
92.051401810254646
 30
0.0
  0
SPLINE
  5
D2
102
{ACAD_REACTORS
330
31
102
}
100
AcDbEntity
  8
0
  6
CONTINUOUS
100
AcDbSpline
210
0.0
220
0.0
230
1.0
 70
     8
 71
     2
 72
     6
 73
     3
 74
     0
 42
0.0000001
 43
0.0000001
 40
0.0
 40
0.0
 40
0.0
 40
1.0
 40
1.0
 40
1.0
 10
129.71632340868854
 20
92.051401810254646
 30
0.0
 10
129.84124156988412
 20
91.866263875331754
 30
0.0
 10
129.84135808355109
 20
91.624790586295049
 30
0.0
  0
SPLINE
  5
D3
102
{ACAD_REACTORS
330
31
102
}
100
AcDbEntity
  8
0
  6
CONTINUOUS
100
AcDbSpline
210
0.0
220
0.0
230
1.0
 70
     8
 71
     2
 72
     6
 73
     3
 74
     0
 42
0.0000001
 43
0.0000001
 40
0.0
 40
0.0
 40
0.0
 40
1.0
 40
1.0
 40
1.0
 10
129.84135808355106
 20
91.624790586295035
 30
0.0
 10
129.84147360988956
 20
91.385363524475267
 30
0.0
 10
129.70446844967714
 20
91.173497056400805
 30
0.0
  0
SPLINE
  5
D4
102
{ACAD_REACTORS
330
31
102
}
100
AcDbEntity
  8
0
  6
CONTINUOUS
100
AcDbSpline
210
0.0
220
0.0
230
1.0
 70
     8
 71
     2
 72
     6
 73
     3
 74
     0
 42
0.0000001
 43
0.0000001
 40
0.0
 40
0.0
 40
0.0
 40
1.0
 40
1.0
 40
1.0
 10
129.70446844967711
 20
91.173497056400834
 30
0.0
 10
129.56746090556669
 20
90.961629991129598
 30
0.0
 10
129.31069798626697
 20
90.843838768950476
 30
0.0
  0
SPLINE
  5
D5
102
{ACAD_REACTORS
330
31
102
}
100
AcDbEntity
  8
0
  6
CONTINUOUS
100
AcDbSpline
210
0.0
220
0.0
230
1.0
 70
     8
 71
     2
 72
     6
 73
     3
 74
     0
 42
0.0000001
 43
0.0000001
 40
0.0
 40
0.0
 40
0.0
 40
1.0
 40
1.0
 40
1.0
 10
129.31069798626703
 20
90.843838768950491
 30
0.0
 10
129.05393268278186
 20
90.726047545620972
 30
0.0
 10
128.73265057182061
 20
90.72589252327036
 30
0.0
  0
SPLINE
  5
D6
102
{ACAD_REACTORS
330
31
102
}
100
AcDbEntity
  8
0
  6
CONTINUOUS
100
AcDbSpline
210
0.0
220
0.0
230
1.0
 70
     8
 71
     2
 72
     6
 73
     3
 74
     0
 42
0.0000001
 43
0.0000001
 40
0.0
 40
0.0
 40
0.0
 40
1.0
 40
1.0
 40
1.0
 10
128.73265057182059
 20
90.725892523270346
 30
0.0
 10
128.32541976519147
 20
90.725696029675674
 30
0.0
 10
128.05012377521766
 20
90.844253939120492
 30
0.0
  0
SPLINE
  5
D7
102
{ACAD_REACTORS
330
31
102
}
100
AcDbEntity
  8
0
  6
CONTINUOUS
100
AcDbSpline
210
0.0
220
0.0
230
1.0
 70
     8
 71
     2
 72
     6
 73
     3
 74
     0
 42
0.0000001
 43
0.0000001
 40
0.0
 40
0.0
 40
0.0
 40
1.0
 40
1.0
 40
1.0
 10
128.05012377521768
 20
90.844253939120478
 30
0.0
 10
127.77482778553144
 20
90.962811252518918
 30
0.0
 10
127.61816474800054
 20
91.201139366476127
 30
0.0
  0
SPLINE
  5
D8
102
{ACAD_REACTORS
330
31
102
}
100
AcDbEntity
  8
0
  6
CONTINUOUS
100
AcDbSpline
210
0.0
220
0.0
230
1.0
 70
     8
 71
     2
 72
     6
 73
     3
 74
     0
 42
0.0000001
 43
0.0000001
 40
0.0
 40
0.0
 40
0.0
 40
1.0
 40
1.0
 40
1.0
 10
127.61816474800054
 20
91.201139366476127
 30
0.0
 10
127.46150171046963
 20
91.439467480433308
 30
0.0
 10
127.45317046101775
 20
91.7402821772435
 30
0.0
  0
LWPOLYLINE
  5
D9
102
{ACAD_REACTORS
330
31
102
}
100
AcDbEntity
  8
0
  6
CONTINUOUS
100
AcDbPolyline
 90
        5
 70
     0
 10
130.337591
 20
93.777827
 10
130.337796
 20
93.354226
 10
130.706143
 20
93.354403
 10
130.705938
 20
93.778005
 10
130.337591
 20
93.777827
  0
LWPOLYLINE
  5
DA
102
{ACAD_REACTORS
330
31
102
}
100
AcDbEntity
  8
0
  6
CONTINUOUS
100
AcDbPolyline
 90
        5
 70
     0
 10
130.33799
 20
92.951088
 10
130.339039
 20
90.777827
 10
130.707386
 20
90.778005
 10
130.706337
 20
92.951265
 10
130.33799
 20
92.951088
  0
LINE
  5
DB
102
{ACAD_REACTORS
330
31
102
}
100
AcDbEntity
  8
0
  6
CONTINUOUS
100
AcDbLine
 10
132.678054
 20
90.778956
 30
0.0
 11
132.677921
 21
91.053171
 31
0.0
  0
SPLINE
  5
DC
102
{ACAD_REACTORS
330
31
102
}
100
AcDbEntity
  8
0
  6
CONTINUOUS
100
AcDbSpline
210
0.0
220
0.0
230
1.0
 70
     8
 71
     2
 72
     6
 73
     3
 74
     0
 42
0.0000001
 43
0.0000001
 40
0.0
 40
0.0
 40
0.0
 40
1.0
 40
1.0
 40
1.0
 10
132.67792124825419
 20
91.053171399395239
 30
0.0
 10
132.47139221577001
 20
90.729743333283395
 30
0.0
 10
132.07030068683801
 20
90.729549801961525
 30
0.0
  0
SPLINE
  5
DD
102
{ACAD_REACTORS
330
31
102
}
100
AcDbEntity
  8
0
  6
CONTINUOUS
100
AcDbSpline
210
0.0
220
0.0
230
1.0
 70
     8
 71
     2
 72
     6
 73
     3
 74
     0
 42
0.0000001
 43
0.0000001
 40
0.0
 40
0.0
 40
0.0
 40
1.0
 40
1.0
 40
1.0
 10
132.07030068683801
 20
90.729549801961525
 30
0.0
 10
131.81041016075611
 20
90.729424401763737
 30
0.0
 10
131.59240264480437
 20
90.872565877975845
 30
0.0
  0
SPLINE
  5
DE
102
{ACAD_REACTORS
330
31
102
}
100
AcDbEntity
  8
0
  6
CONTINUOUS
100
AcDbSpline
210
0.0
220
0.0
230
1.0
 70
     8
 71
     2
 72
     6
 73
     3
 74
     0
 42
0.0000001
 43
0.0000001
 40
0.0
 40
0.0
 40
0.0
 40
1.0
 40
1.0
 40
1.0
 10
131.59240264480442
 20
90.872565877975831
 30
0.0
 10
131.37439274437966
 20
91.015707949083918
 30
0.0
 10
131.25455648650117
 20
91.272471073723153
 30
0.0
  0
SPLINE
  5
DF
102
{ACAD_REACTORS
330
31
102
}
100
AcDbEntity
  8
0
  6
CONTINUOUS
100
AcDbSpline
210
0.0
220
0.0
230
1.0
 70
     8
 71
     2
 72
     6
 73
     3
 74
     0
 42
0.0000001
 43
0.0000001
 40
0.0
 40
0.0
 40
0.0
 40
1.0
 40
1.0
 40
1.0
 10
131.25455648650117
 20
91.272471073723153
 30
0.0
 10
131.13471784414955
 20
91.529234793258382
 30
0.0
 10
131.1345568972533
 20
91.862795459613949
 30
0.0
  0
SPLINE
  5
E0
102
{ACAD_REACTORS
330
31
102
}
100
AcDbEntity
  8
0
  6
CONTINUOUS
100
AcDbSpline
210
0.0
220
0.0
230
1.0
 70
     8
 71
     2
 72
     6
 73
     3
 74
     0
 42
0.0000001
 43
0.0000001
 40
0.0
 40
0.0
 40
0.0
 40
1.0
 40
1.0
 40
1.0
 10
131.1345568972533
 20
91.862795459613949
 30
0.0
 10
131.13439989995825
 20
92.188170621055377
 30
0.0
 10
131.24272863015992
 20
92.453229642794895
 30
0.0
  0
SPLINE
  5
E1
102
{ACAD_REACTORS
330
31
102
}
100
AcDbEntity
  8
0
  6
CONTINUOUS
100
AcDbSpline
210
0.0
220
0.0
230
1.0
 70
     8
 71
     2
 72
     6
 73
     3
 74
     0
 42
0.0000001
 43
0.0000001
 40
0.0
 40
0.0
 40
0.0
 40
1.0
 40
1.0
 40
1.0
 10
131.24272863016
 20
92.453229642794923
 30
0.0
 10
131.35106212873262
 20
92.718288666835235
 30
0.0
 10
131.56790958009765
 20
92.859593737927099
 30
0.0
  0
SPLINE
  5
E2
102
{ACAD_REACTORS
330
31
102
}
100
AcDbEntity
  8
0
  6
CONTINUOUS
100
AcDbSpline
210
0.0
220
0.0
230
1.0
 70
     8
 71
     2
 72
     6
 73
     3
 74
     0
 42
0.0000001
 43
0.0000001
 40
0.0
 40
0.0
 40
0.0
 40
1.0
 40
1.0
 40
1.0
 10
131.56790958009759
 20
92.859593737927085
 30
0.0
 10
131.7847570313188
 20
93.000899107042116
 30
0.0
 10
132.05283485045402
 20
93.00102845770391
 30
0.0
  0
SPLINE
  5
E3
102
{ACAD_REACTORS
330
31
102
}
100
AcDbEntity
  8
0
  6
CONTINUOUS
100
AcDbSpline
210
0.0
220
0.0
230
1.0
 70
     8
 71
     2
 72
     6
 73
     3
 74
     0
 42
0.0000001
 43
0.0000001
 40
0.0
 40
0.0
 40
0.0
 40
1.0
 40
1.0
 40
1.0
 10
132.05283485045396
 20
93.00102845770391
 30
0.0
 10
132.24928696839333
 20
93.001123248132842
 30
0.0
 10
132.40280651660169
 20
92.918318545006287
 30
0.0
  0
SPLINE
  5
E4
102
{ACAD_REACTORS
330
31
102
}
100
AcDbEntity
  8
0
  6
CONTINUOUS
100
AcDbSpline
210
0.0
220
0.0
230
1.0
 70
     8
 71
     2
 72
     6
 73
     3
 74
     0
 42
0.0000001
 43
0.0000001
 40
0.0
 40
0.0
 40
0.0
 40
1.0
 40
1.0
 40
1.0
 10
132.40280651660171
 20
92.918318545006287
 30
0.0
 10
132.55632606466625
 20
92.835514139902926
 30
0.0
 10
132.65256828951513
 20
92.702545645036622
 30
0.0
  0
LINE
  5
E5
102
{ACAD_REACTORS
330
31
102
}
100
AcDbEntity
  8
0
  6
CONTINUOUS
100
AcDbLine
 10
132.652568
 20
92.702546
 30
0.0
 11
132.652049
 21
93.778944
 31
0.0
  0
LINE
  5
E6
102
{ACAD_REACTORS
330
31
102
}
100
AcDbEntity
  8
0
  6
CONTINUOUS
100
AcDbLine
 10
132.652049
 20
93.778944
 30
0.0
 11
133.018353
 21
93.77912
 31
0.0
  0
LINE
  5
E7
102
{ACAD_REACTORS
330
31
102
}
100
AcDbEntity
  8
0
  6
CONTINUOUS
100
AcDbLine
 10
133.018353
 20
93.77912
 30
0.0
 11
133.0198
 21
90.779121
 31
0.0
  0
LINE
  5
E8
102
{ACAD_REACTORS
330
31
102
}
100
AcDbEntity
  8
0
  6
CONTINUOUS
100
AcDbLine
 10
133.0198
 20
90.779121
 30
0.0
 11
132.678054
 21
90.778956
 31
0.0
  0
SPLINE
  5
E9
102
{ACAD_REACTORS
330
31
102
}
100
AcDbEntity
  8
0
  6
CONTINUOUS
100
AcDbSpline
210
0.0
220
0.0
230
1.0
 70
     8
 71
     2
 72
     6
 73
     3
 74
     0
 42
0.0000001
 43
0.0000001
 40
0.0
 40
0.0
 40
0.0
 40
1.0
 40
1.0
 40
1.0
 10
131.51313694656707
 20
91.862978128885402
 30
0.0
 10
131.51333837709134
 20
91.445515590125126
 30
0.0
 10
131.68942914288775
 20
91.238915465682027
 30
0.0
  0
SPLINE
  5
EA
102
{ACAD_REACTORS
330
31
102
}
100
AcDbEntity
  8
0
  6
CONTINUOUS
100
AcDbSpline
210
0.0
220
0.0
230
1.0
 70
     8
 71
     2
 72
     6
 73
     3
 74
     0
 42
0.0000001
 43
0.0000001
 40
0.0
 40
0.0
 40
0.0
 40
1.0
 40
1.0
 40
1.0
 10
131.68942914288783
 20
91.238915465682027
 30
0.0
 10
131.86551752421127
 20
91.032315936134921
 30
0.0
 10
132.10494458603102
 20
91.032431462473482
 30
0.0
  0
SPLINE
  5
EB
102
{ACAD_REACTORS
330
31
102
}
100
AcDbEntity
  8
0
  6
CONTINUOUS
100
AcDbSpline
210
0.0
220
0.0
230
1.0
 70
     8
 71
     2
 72
     6
 73
     3
 74
     0
 42
0.0000001
 43
0.0000001
 40
0.0
 40
0.0
 40
0.0
 40
1.0
 40
1.0
 40
1.0
 10
132.10494458603091
 20
91.032431462473482
 30
0.0
 10
132.34641727902118
 20
91.03254797585285
 30
0.0
 10
132.51514855489137
 20
91.230105562246777
 30
0.0
  0
SPLINE
  5
EC
102
{ACAD_REACTORS
330
31
102
}
100
AcDbEntity
  8
0
  6
CONTINUOUS
100
AcDbSpline
210
0.0
220
0.0
230
1.0
 70
     8
 71
     2
 72
     6
 73
     3
 74
     0
 42
0.0000001
 43
0.0000001
 40
0.0
 40
0.0
 40
0.0
 40
1.0
 40
1.0
 40
1.0
 10
132.5151485548914
 20
91.230105562246806
 30
0.0
 10
132.68387983076158
 20
91.427663148640718
 30
0.0
 10
132.683684324783
 20
91.832847132006606
 30
0.0
  0
SPLINE
  5
ED
102
{ACAD_REACTORS
330
31
102
}
100
AcDbEntity
  8
0
  6
CONTINUOUS
100
AcDbSpline
210
0.0
220
0.0
230
1.0
 70
     8
 71
     2
 72
     6
 73
     3
 74
     0
 42
0.0000001
 43
0.0000001
 40
0.0
 40
0.0
 40
0.0
 40
1.0
 40
1.0
 40
1.0
 10
132.683684324783
 20
91.832847132006577
 30
0.0
 10
132.68346907079822
 20
92.27895863994317
 30
0.0
 10
132.51147096420002
 20
92.487606966835187
 30
0.0
  0
SPLINE
  5
EE
102
{ACAD_REACTORS
330
31
102
}
100
AcDbEntity
  8
0
  6
CONTINUOUS
100
AcDbSpline
210
0.0
220
0.0
230
1.0
 70
     8
 71
     2
 72
     6
 73
     3
 74
     0
 42
0.0000001
 43
0.0000001
 40
0.0
 40
0.0
 40
0.0
 40
1.0
 40
1.0
 40
1.0
 10
132.51147096420007
 20
92.487606966835202
 30
0.0
 10
132.33947524178737
 20
92.696255294877631
 30
0.0
 10
132.08776962457321
 20
92.696133843993451
 30
0.0
  0
SPLINE
  5
EF
102
{ACAD_REACTORS
330
31
102
}
100
AcDbEntity
  8
0
  6
CONTINUOUS
100
AcDbSpline
210
0.0
220
0.0
230
1.0
 70
     8
 71
     2
 72
     6
 73
     3
 74
     0
 42
0.0000001
 43
0.0000001
 40
0.0
 40
0.0
 40
0.0
 40
1.0
 40
1.0
 40
1.0
 10
132.08776962457318
 20
92.696133843993437
 30
0.0
 10
131.84220566924171
 20
92.696015356532484
 30
0.0
 10
131.67756713684906
 20
92.49539010537157
 30
0.0
  0
SPLINE
  5
F0
102
{ACAD_REACTORS
330
31
102
}
100
AcDbEntity
  8
0
  6
CONTINUOUS
100
AcDbSpline
210
0.0
220
0.0
230
1.0
 70
     8
 71
     2
 72
     6
 73
     3
 74
     0
 42
0.0000001
 43
0.0000001
 40
0.0
 40
0.0
 40
0.0
 40
1.0
 40
1.0
 40
1.0
 10
131.67756713684912
 20
92.49539010537157
 30
0.0
 10
131.51292860431266
 20
92.294765152233836
 30
0.0
 10
131.51313694656716
 20
91.862978128885402
 30
0.0
  0
LINE
  5
F1
102
{ACAD_REACTORS
330
31
102
}
100
AcDbEntity
  8
0
  6
CONTINUOUS
100
AcDbLine
 10
135.086311
 20
91.479982
 30
0.0
 11
135.466961
 21
91.433098
 31
0.0
  0
SPLINE
  5
F2
102
{ACAD_REACTORS
330
31
102
}
100
AcDbEntity
  8
0
  6
CONTINUOUS
100
AcDbSpline
210
0.0
220
0.0
230
1.0
 70
     8
 71
     2
 72
     6
 73
     3
 74
     0
 42
0.0000001
 43
0.0000001
 40
0.0
 40
0.0
 40
0.0
 40
1.0
 40
1.0
 40
1.0
 10
135.46696144784008
 20
91.433098473236441
 30
0.0
 10
135.37708124463435
 20
91.099494360980017
 30
0.0
 10
135.13365178693201
 20
90.915202105922134
 30
0.0
  0
SPLINE
  5
F3
102
{ACAD_REACTORS
330
31
102
}
100
AcDbEntity
  8
0
  6
CONTINUOUS
100
AcDbSpline
210
0.0
220
0.0
230
1.0
 70
     8
 71
     2
 72
     6
 73
     3
 74
     0
 42
0.0000001
 43
0.0000001
 40
0.0
 40
0.0
 40
0.0
 40
1.0
 40
1.0
 40
1.0
 10
135.13365178693206
 20
90.915202105922134
 30
0.0
 10
134.89021994475652
 20
90.73091044576023
 30
0.0
 10
134.51163989544281
 20
90.730727776488777
 30
0.0
  0
SPLINE
  5
F4
102
{ACAD_REACTORS
330
31
102
}
100
AcDbEntity
  8
0
  6
CONTINUOUS
100
AcDbSpline
210
0.0
220
0.0
230
1.0
 70
     8
 71
     2
 72
     6
 73
     3
 74
     0
 42
0.0000001
 43
0.0000001
 40
0.0
 40
0.0
 40
0.0
 40
1.0
 40
1.0
 40
1.0
 10
134.51163989544281
 20
90.730727776488777
 30
0.0
 10
134.03483140297388
 20
90.730497710852461
 30
0.0
 10
133.75535853580445
 20
91.024018887685997
 30
0.0
  0
SPLINE
  5
F5
102
{ACAD_REACTORS
330
31
102
}
100
AcDbEntity
  8
0
  6
CONTINUOUS
100
AcDbSpline
210
0.0
220
0.0
230
1.0
 70
     8
 71
     2
 72
     6
 73
     3
 74
     0
 42
0.0000001
 43
0.0000001
 40
0.0
 40
0.0
 40
0.0
 40
1.0
 40
1.0
 40
1.0
 10
133.75535853580431
 20
91.024018887685997
 30
0.0
 10
133.47588566863493
 20
91.317540064519562
 30
0.0
 10
133.4756299307345
 20
91.847554040907255
 30
0.0
  0
SPLINE
  5
F6
102
{ACAD_REACTORS
330
31
102
}
100
AcDbEntity
  8
0
  6
CONTINUOUS
100
AcDbSpline
210
0.0
220
0.0
230
1.0
 70
     8
 71
     2
 72
     6
 73
     3
 74
     0
 42
0.0000001
 43
0.0000001
 40
0.0
 40
0.0
 40
0.0
 40
1.0
 40
1.0
 40
1.0
 10
133.47562993073458
 20
91.847554040907255
 30
0.0
 10
133.4753653064472
 20
92.395984956316994
 30
0.0
 10
133.75761879199828
 20
92.698986389353905
 30
0.0
  0
SPLINE
  5
F7
102
{ACAD_REACTORS
330
31
102
}
100
AcDbEntity
  8
0
  6
CONTINUOUS
100
AcDbSpline
210
0.0
220
0.0
230
1.0
 70
     8
 71
     2
 72
     6
 73
     3
 74
     0
 42
0.0000001
 43
0.0000001
 40
0.0
 40
0.0
 40
0.0
 40
1.0
 40
1.0
 40
1.0
 10
133.75761879199828
 20
92.698986389353891
 30
0.0
 10
134.03987227769315
 20
93.001987524367635
 30
0.0
 10
134.49007802820276
 20
93.002204753871936
 30
0.0
  0
SPLINE
  5
F8
102
{ACAD_REACTORS
330
31
102
}
100
AcDbEntity
  8
0
  6
CONTINUOUS
100
AcDbSpline
210
0.0
220
0.0
230
1.0
 70
     8
 71
     2
 72
     6
 73
     3
 74
     0
 42
0.0000001
 43
0.0000001
 40
0.0
 40
0.0
 40
0.0
 40
1.0
 40
1.0
 40
1.0
 10
134.49007802820279
 20
93.002204753871936
 30
0.0
 10
134.92595959214742
 20
93.002415071789812
 30
0.0
 10
135.20236310965566
 20
92.705822476372887
 30
0.0
  0
SPLINE
  5
F9
102
{ACAD_REACTORS
330
31
102
}
100
AcDbEntity
  8
0
  6
CONTINUOUS
100
AcDbSpline
210
0.0
220
0.0
230
1.0
 70
     8
 71
     2
 72
     6
 73
     3
 74
     0
 42
0.0000001
 43
0.0000001
 40
0.0
 40
0.0
 40
0.0
 40
1.0
 40
1.0
 40
1.0
 10
135.20236310965566
 20
92.705822476372873
 30
0.0
 10
135.47876901134941
 20
92.409229882106331
 30
0.0
 10
135.47902869856341
 20
91.871030996850891
 30
0.0
  0
SPLINE
  5
FA
102
{ACAD_REACTORS
330
31
102
}
100
AcDbEntity
  8
0
  6
CONTINUOUS
100
AcDbSpline
210
0.0
220
0.0
230
1.0
 70
     8
 71
     2
 72
     6
 73
     3
 74
     0
 42
0.0000001
 43
0.0000001
 40
0.0
 40
0.0
 40
0.0
 40
1.0
 40
1.0
 40
1.0
 10
135.47902869856344
 20
91.871030996850919
 30
0.0
 10
135.47904449725584
 20
91.838288381147962
 30
0.0
 10
135.47702807870942
 20
91.772803353643653
 30
0.0
  0
LINE
  5
FB
102
{ACAD_REACTORS
330
31
102
}
100
AcDbEntity
  8
0
  6
CONTINUOUS
100
AcDbLine
 10
135.477028
 20
91.772803
 30
0.0
 11
133.856292
 21
91.772021
 31
0.0
  0
SPLINE
  5
FC
102
{ACAD_REACTORS
330
31
102
}
100
AcDbEntity
  8
0
  6
CONTINUOUS
100
AcDbSpline
210
0.0
220
0.0
230
1.0
 70
     8
 71
     2
 72
     6
 73
     3
 74
     0
 42
0.0000001
 43
0.0000001
 40
0.0
 40
0.0
 40
0.0
 40
1.0
 40
1.0
 40
1.0
 10
133.85629214524576
 20
91.772021329728915
 30
0.0
 10
133.87693078939336
 20
91.413914023640544
 30
0.0
 10
134.05915054949909
 20
91.22368787014814
 30
0.0
  0
SPLINE
  5
FD
102
{ACAD_REACTORS
330
31
102
}
100
AcDbEntity
  8
0
  6
CONTINUOUS
100
AcDbSpline
210
0.0
220
0.0
230
1.0
 70
     8
 71
     2
 72
     6
 73
     3
 74
     0
 42
0.0000001
 43
0.0000001
 40
0.0
 40
0.0
 40
0.0
 40
1.0
 40
1.0
 40
1.0
 10
134.05915054949909
 20
91.223687870148154
 30
0.0
 10
134.24137030931715
 20
91.033462312702127
 30
0.0
 10
134.51353939079351
 20
91.03359363744552
 30
0.0
  0
SPLINE
  5
FE
102
{ACAD_REACTORS
330
31
102
}
100
AcDbEntity
  8
0
  6
CONTINUOUS
100
AcDbSpline
210
0.0
220
0.0
230
1.0
 70
     8
 71
     2
 72
     6
 73
     3
 74
     0
 42
0.0000001
 43
0.0000001
 40
0.0
 40
0.0
 40
0.0
 40
1.0
 40
1.0
 40
1.0
 10
134.51353939079357
 20
91.03359363744552
 30
0.0
 10
134.71613078643017
 20
91.033691390147254
 30
0.0
 10
134.85932607534747
 20
91.140172668242357
 30
0.0
  0
SPLINE
  5
FF
102
{ACAD_REACTORS
330
31
102
}
100
AcDbEntity
  8
0
  6
CONTINUOUS
100
AcDbSpline
210
0.0
220
0.0
230
1.0
 70
     8
 71
     2
 72
     6
 73
     3
 74
     0
 42
0.0000001
 43
0.0000001
 40
0.0
 40
0.0
 40
0.0
 40
1.0
 40
1.0
 40
1.0
 10
134.85932607534747
 20
91.140172668242343
 30
0.0
 10
135.00252136455251
 20
91.246653350291069
 30
0.0
 10
135.08631067289141
 20
91.479981618041677
 30
0.0
  0
LINE
  5
100
102
{ACAD_REACTORS
330
31
102
}
100
AcDbEntity
  8
0
  6
CONTINUOUS
100
AcDbLine
 10
133.876612
 20
92.074896
 30
0.0
 11
135.090117
 21
92.075482
 31
0.0
  0
SPLINE
  5
101
102
{ACAD_REACTORS
330
31
102
}
100
AcDbEntity
  8
0
  6
CONTINUOUS
100
AcDbSpline
210
0.0
220
0.0
230
1.0
 70
     8
 71
     2
 72
     6
 73
     3
 74
     0
 42
0.0000001
 43
0.0000001
 40
0.0
 40
0.0
 40
0.0
 40
1.0
 40
1.0
 40
1.0
 10
135.09011698470803
 20
92.075481608974513
 30
0.0
 10
135.06542756170361
 20
92.349685366599743
 30
0.0
 10
134.95076314477703
 20
92.486737725954299
 30
0.0
  0
SPLINE
  5
102
102
{ACAD_REACTORS
330
31
102
}
100
AcDbEntity
  8
0
  6
CONTINUOUS
100
AcDbSpline
210
0.0
220
0.0
230
1.0
 70
     8
 71
     2
 72
     6
 73
     3
 74
     0
 42
0.0000001
 43
0.0000001
 40
0.0
 40
0.0
 40
0.0
 40
1.0
 40
1.0
 40
1.0
 10
134.95076314477703
 20
92.486737725954299
 30
0.0
 10
134.77467180089329
 20
92.699477129244983
 30
0.0
 10
134.49431781054918
 20
92.699341855187996
 30
0.0
  0
SPLINE
  5
103
102
{ACAD_REACTORS
330
31
102
}
100
AcDbEntity
  8
0
  6
CONTINUOUS
100
AcDbSpline
210
0.0
220
0.0
230
1.0
 70
     8
 71
     2
 72
     6
 73
     3
 74
     0
 42
0.0000001
 43
0.0000001
 40
0.0
 40
0.0
 40
0.0
 40
1.0
 40
1.0
 40
1.0
 10
134.49431781054918
 20
92.699341855187996
 30
0.0
 10
134.24056656216445
 20
92.699219417263024
 30
0.0
 10
134.06772830982763
 20
92.52928600922813
 30
0.0
  0
SPLINE
  5
104
102
{ACAD_REACTORS
330
31
102
}
100
AcDbEntity
  8
0
  6
CONTINUOUS
100
AcDbSpline
210
0.0
220
0.0
230
1.0
 70
     8
 71
     2
 72
     6
 73
     3
 74
     0
 42
0.0000001
 43
0.0000001
 40
0.0
 40
0.0
 40
0.0
 40
1.0
 40
1.0
 40
1.0
 10
134.0677283098276
 20
92.529286009228144
 30
0.0
 10
133.89489005749073
 20
92.359352601193237
 30
0.0
 10
133.87661185787363
 20
92.074896078654504
 30
0.0
  0
LINE
  5
105
102
{ACAD_REACTORS
330
31
102
}
100
AcDbEntity
  8
0
  6
CONTINUOUS
100
AcDbLine
 10
138.379282
 20
90.781707
 30
0.0
 11
138.010933
 21
90.781529
 31
0.0
  0
LINE
  5
106
102
{ACAD_REACTORS
330
31
102
}
100
AcDbEntity
  8
0
  6
CONTINUOUS
100
AcDbLine
 10
138.010933
 20
90.781529
 30
0.0
 11
138.0098
 21
93.128732
 31
0.0
  0
SPLINE
  5
107
102
{ACAD_REACTORS
330
31
102
}
100
AcDbEntity
  8
0
  6
CONTINUOUS
100
AcDbSpline
210
0.0
220
0.0
230
1.0
 70
     8
 71
     2
 72
     6
 73
     3
 74
     0
 42
0.0000001
 43
0.0000001
 40
0.0
 40
0.0
 40
0.0
 40
1.0
 40
1.0
 40
1.0
 10
138.00980040685471
 20
93.128732486843333
 30
0.0
 10
137.87684553212245
 20
93.00179208479409
 30
0.0
 10
137.6610139844687
 20
92.874812289833983
 30
0.0
  0
SPLINE
  5
108
102
{ACAD_REACTORS
330
31
102
}
100
AcDbEntity
  8
0
  6
CONTINUOUS
100
AcDbSpline
210
0.0
220
0.0
230
1.0
 70
     8
 71
     2
 72
     6
 73
     3
 74
     0
 42
0.0000001
 43
0.0000001
 40
0.0
 40
0.0
 40
0.0
 40
1.0
 40
1.0
 40
1.0
 10
137.6610139844687
 20
92.874812289833997
 30
0.0
 10
137.44518243695876
 20
92.747832196850709
 30
0.0
 10
137.27331565510389
 20
92.684311442266406
 30
0.0
  0
LINE
  5
109
102
{ACAD_REACTORS
330
31
102
}
100
AcDbEntity
  8
0
  6
CONTINUOUS
100
AcDbLine
 10
137.273316
 20
92.684311
 30
0.0
 11
137.273144
 21
93.040382
 31
0.0
  0
SPLINE
  5
10A
102
{ACAD_REACTORS
330
31
102
}
100
AcDbEntity
  8
0
  6
CONTINUOUS
100
AcDbSpline
210
0.0
220
0.0
230
1.0
 70
     8
 71
     2
 72
     6
 73
     3
 74
     0
 42
0.0000001
 43
0.0000001
 40
0.0
 40
0.0
 40
0.0
 40
1.0
 40
1.0
 40
1.0
 10
137.27314384687631
 20
93.040382098124269
 30
0.0
 10
137.582078488755
 20
93.185824653788444
 30
0.0
 10
137.81321852958772
 20
93.392621271826187
 30
0.0
  0
SPLINE
  5
10B
102
{ACAD_REACTORS
330
31
102
}
100
AcDbEntity
  8
0
  6
CONTINUOUS
100
AcDbSpline
210
0.0
220
0.0
230
1.0
 70
     8
 71
     2
 72
     6
 73
     3
 74
     0
 42
0.0000001
 43
0.0000001
 40
0.0
 40
0.0
 40
0.0
 40
1.0
 40
1.0
 40
1.0
 10
137.8132185295878
 20
93.392621271826187
 30
0.0
 10
138.04436095474983
 20
93.599417592991159
 30
0.0
 10
138.14044757916088
 20
93.793870487933617
 30
0.0
  0
LINE
  5
10C
102
{ACAD_REACTORS
330
31
102
}
100
AcDbEntity
  8
0
  6
CONTINUOUS
100
AcDbLine
 10
138.140448
 20
93.79387
 30
0.0
 11
138.377829
 21
93.793985
 31
0.0
  0
LINE
  5
10D
102
{ACAD_REACTORS
330
31
102
}
100
AcDbEntity
  8
0
  6
CONTINUOUS
100
AcDbLine
 10
138.377829
 20
93.793985
 30
0.0
 11
138.379282
 21
90.781707
 31
0.0
  0
ENDSEC
  0
SECTION
  2
OBJECTS
  0
DICTIONARY
  5
C
100
AcDbDictionary
  3
ACAD_GROUP
350
D
  3
ACAD_MLINESTYLE
350
1B
  0
DICTIONARY
  5
D
102
{ACAD_REACTORS
330
C
102
}
100
AcDbDictionary
  3
VISIOGROUP_0
350
31
  0
DICTIONARY
  5
1B
102
{ACAD_REACTORS
330
C
102
}
100
AcDbDictionary
  3
STANDARD
350
1C
  0
MLINESTYLE
  5
1C
102
{ACAD_REACTORS
330
1B
102
}
100
AcDbMlineStyle
  2
STANDARD
 70
     0
  3

 62
   256
 51
90.0
 52
90.0
 71
     2
 49
0.5
 62
   256
  6
BYLAYER
 49
-0.5
 62
   256
  6
BYLAYER
  0
DICTIONARY
  5
29
102
{ACAD_REACTORS
330
C
102
}
100
AcDbDictionary
  3
MODEL
350
2A
  3
LAYOUT1
350
2B
  0
DICTIONARY
  5
2C
102
{ACAD_REACTORS
330
C
102
}
100
AcDbDictionary
  0
GROUP
  5
31
102
{ACAD_REACTORS
330
D
102
}
100
AcDbGroup
300
Group created by Visio.
 70
     0
 71
     1
340
32
340
33
340
34
340
35
340
36
340
37
340
38
340
39
340
3A
340
3B
340
3C
340
3D
340
3E
340
3F
340
40
340
41
340
42
340
43
340
44
340
45
340
46
340
47
340
48
340
49
340
4A
340
4B
340
4C
340
4D
340
4E
340
4F
340
50
340
51
340
52
340
53
340
54
340
55
340
56
340
57
340
58
340
59
340
5A
340
5B
340
5C
340
5D
340
5E
340
5F
340
60
340
61
340
62
340
63
340
64
340
65
340
66
340
67
340
68
340
69
340
6A
340
6B
340
6C
340
6D
340
6E
340
6F
340
70
340
71
340
72
340
73
340
74
340
75
340
76
340
77
340
78
340
79
340
7A
340
7B
340
7C
340
7D
340
7E
340
7F
340
80
340
81
340
82
340
83
340
84
340
85
340
86
340
87
340
88
340
89
340
8A
340
8B
340
8C
340
8D
340
8E
340
8F
340
90
340
91
340
92
340
93
340
94
340
95
340
96
340
97
340
98
340
99
340
9A
340
9B
340
9C
340
9D
340
9E
340
9F
340
A0
340
A1
340
A2
340
A3
340
A4
340
A5
340
A6
340
A7
340
A8
340
A9
340
AA
340
AB
340
AC
340
AD
340
AE
340
AF
340
B0
340
B1
340
B2
340
B3
340
B4
340
B5
340
B6
340
B7
340
B8
340
B9
340
BA
340
BB
340
BC
340
BD
340
BE
340
BF
340
C0
340
C1
340
C2
340
C3
340
C4
340
C5
340
C6
340
C7
340
C8
340
C9
340
CA
340
CB
340
CC
340
CD
340
CE
340
CF
340
D0
340
D1
340
D2
340
D3
340
D4
340
D5
340
D6
340
D7
340
D8
340
D9
340
DA
340
DB
340
DC
340
DD
340
DE
340
DF
340
E0
340
E1
340
E2
340
E3
340
E4
340
E5
340
E6
340
E7
340
E8
340
E9
340
EA
340
EB
340
EC
340
ED
340
EE
340
EF
340
F0
340
F1
340
F2
340
F3
340
F4
340
F5
340
F6
340
F7
340
F8
340
F9
340
FA
340
FB
340
FC
340
FD
340
FE
340
FF
340
100
340
101
340
102
340
103
340
104
340
105
340
106
340
107
340
108
340
109
340
10A
340
10B
340
10C
340
10D
  0
ENDSEC
  0
EOF
