  0
SECTION
  2
HEADER
  9
$ACADVER
  1
AC1014
  9
$ACADMAINTVER
 70
     0
  9
$DWGCODEPAGE
  3
ANSI_1252
  9
$INSBASE
 10
0.0
 20
0.0
 30
0.0
  9
$EXTMIN
 10
0.0
 20
0.0
 30
0.0
  9
$EXTMAX
 10
255.0
 20
330.0
 30
0.0
  9
$LIMMIN
 10
0.0
 20
0.0
  9
$LIMMAX
 10
12.0
 20
9.0
  9
$ORTHOMODE
 70
     0
  9
$REGENMODE
 70
     1
  9
$FILLMODE
 70
     0
  9
$QTEXTMODE
 70
     0
  9
$MIRRTEXT
 70
     1
  9
$DRAGMODE
 70
     2
  9
$LTSCALE
 40
1.0
  9
$OSMODE
 70
    37
  9
$ATTMODE
 70
     1
  9
$TEXTSIZE
 40
0.2
  9
$TRACEWID
 40
0.05
  9
$TEXTSTYLE
  7
STANDARD
  9
$CLAYER
  8
0
  9
$CELTYPE
  6
BYLAYER
  9
$CECOLOR
 62
   256
  9
$CELTSCALE
 40
1.0
  9
$DELOBJ
 70
     1
  9
$DISPSILH
 70
     0
  9
$DIMSCALE
 40
1.0
  9
$DIMASZ
 40
0.18
  9
$DIMEXO
 40
0.0625
  9
$DIMDLI
 40
0.38
  9
$DIMRND
 40
0.0
  9
$DIMDLE
 40
0.0
  9
$DIMEXE
 40
0.18
  9
$DIMTP
 40
0.0
  9
$DIMTM
 40
0.0
  9
$DIMTXT
 40
0.18
  9
$DIMCEN
 40
0.09
  9
$DIMTSZ
 40
0.0
  9
$DIMTOL
 70
     0
  9
$DIMLIM
 70
     0
  9
$DIMTIH
 70
     0
  9
$DIMTOH
 70
     0
  9
$DIMSE1
 70
     0
  9
$DIMSE2
 70
     0
  9
$DIMTAD
 70
     1
  9
$DIMZIN
 70
     0
  9
$DIMBLK
  1

  9
$DIMASO
 70
     1
  9
$DIMSHO
 70
     1
  9
$DIMPOST
  1

  9
$DIMAPOST
  1

  9
$DIMALT
 70
     0
  9
$DIMALTD
 70
     2
  9
$DIMALTF
 40
25.4
  9
$DIMLFAC
 40
1.0
  9
$DIMTOFL
 70
     0
  9
$DIMTVP
 40
0.0
  9
$DIMTIX
 70
     0
  9
$DIMSOXD
 70
     0
  9
$DIMSAH
 70
     0
  9
$DIMBLK1
  1

  9
$DIMBLK2
  1

  9
$DIMSTYLE
  2
STANDARD
  9
$DIMCLRD
 70
     0
  9
$DIMCLRE
 70
     0
  9
$DIMCLRT
 70
     0
  9
$DIMTFAC
 40
1.0
  9
$DIMGAP
 40
0.09
  9
$DIMJUST
 70
     0
  9
$DIMSD1
 70
     0
  9
$DIMSD2
 70
     0
  9
$DIMTOLJ
 70
     1
  9
$DIMTZIN
 70
     0
  9
$DIMALTZ
 70
     0
  9
$DIMALTTZ
 70
     0
  9
$DIMFIT
 70
     5
  9
$DIMUPT
 70
     0
  9
$DIMUNIT
 70
     2
  9
$DIMDEC
 70
     2
  9
$DIMTDEC
 70
     4
  9
$DIMALTU
 70
     2
  9
$DIMALTTD
 70
     2
  9
$DIMTXSTY
  7
STANDARD
  9
$DIMAUNIT
 70
     0
  9
$LUNITS
 70
     2
  9
$LUPREC
 70
     4
  9
$SKETCHINC
 40
0.1
  9
$FILLETRAD
 40
0.5
  9
$AUNITS
 70
     0
  9
$AUPREC
 70
     0
  9
$MENU
  1
.
  9
$ELEVATION
 40
0.0
  9
$PELEVATION
 40
0.0
  9
$THICKNESS
 40
0.0
  9
$LIMCHECK
 70
     0
  9
$BLIPMODE
 70
     0
  9
$CHAMFERA
 40
0.5
  9
$CHAMFERB
 40
0.5
  9
$CHAMFERC
 40
1.0
  9
$CHAMFERD
 40
0.0
  9
$SKPOLY
 70
     0
  9
$TDCREATE
 40
2450772.666465926
  9
$TDUPDATE
 40
2459354.413668970
  9
$TDINDWG
 40
0.0011565046
  9
$TDUSRTIMER
 40
0.0011565046
  9
$USRTIMER
 70
     1
  9
$ANGBASE
 50
0.0
  9
$ANGDIR
 70
     0
  9
$PDMODE
 70
     0
  9
$PDSIZE
 40
0.0
  9
$PLINEWID
 40
0.0
  9
$COORDS
 70
     1
  9
$SPLFRAME
 70
     0
  9
$SPLINETYPE
 70
     6
  9
$SPLINESEGS
 70
     8
  9
$ATTDIA
 70
     0
  9
$ATTREQ
 70
     1
  9
$HANDLING
 70
     1
  9
$HANDSEED
  5
132
  9
$SURFTAB1
 70
     6
  9
$SURFTAB2
 70
     6
  9
$SURFTYPE
 70
     6
  9
$SURFU
 70
     6
  9
$SURFV
 70
     6
  9
$UCSNAME
  2

  9
$UCSORG
 10
0.0
 20
0.0
 30
0.0
  9
$UCSXDIR
 10
1.0
 20
0.0
 30
0.0
  9
$UCSYDIR
 10
0.0
 20
1.0
 30
0.0
  9
$PUCSNAME
  2

  9
$PUCSORG
 10
0.0
 20
0.0
 30
0.0
  9
$PUCSXDIR
 10
1.0
 20
0.0
 30
0.0
  9
$PUCSYDIR
 10
0.0
 20
1.0
 30
0.0
  9
$USERI1
 70
     0
  9
$USERI2
 70
     0
  9
$USERI3
 70
     0
  9
$USERI4
 70
     0
  9
$USERI5
 70
     0
  9
$USERR1
 40
0.0
  9
$USERR2
 40
0.0
  9
$USERR3
 40
0.0
  9
$USERR4
 40
0.0
  9
$USERR5
 40
0.0
  9
$WORLDVIEW
 70
     1
  9
$SHADEDGE
 70
     3
  9
$SHADEDIF
 70
    70
  9
$TILEMODE
 70
     1
  9
$MAXACTVP
 70
    48
  9
$PINSBASE
 10
0.0
 20
0.0
 30
0.0
  9
$PLIMCHECK
 70
     0
  9
$PEXTMIN
 10
0.0
 20
0.0
 30
0.0
  9
$PEXTMAX
 10
0.0
 20
0.0
 30
0.0
  9
$PLIMMIN
 10
0.0
 20
0.0
  9
$PLIMMAX
 10
12.0
 20
9.0
  9
$UNITMODE
 70
     0
  9
$VISRETAIN
 70
     1
  9
$PLINEGEN
 70
     0
  9
$PSLTSCALE
 70
     1
  9
$TREEDEPTH
 70
  3020
  9
$PICKSTYLE
 70
     1
  9
$CMLSTYLE
  2
STANDARD
  9
$CMLJUST
 70
     0
  9
$CMLSCALE
 40
1.0
  9
$PROXYGRAPHICS
 70
     1
  9
$MEASUREMENT
 70
     0
  0
ENDSEC
  0
SECTION
  2
CLASSES
  0
CLASS
  1
LWPOLYLINE
  2
AcDbPolyline
  3
AutoCAD 2000
 90
       20
280
     0
281
     1
  0
CLASS
  1
IMAGE
  2
AcDbRasterImage
  3
ISM
 90
       21
280
     0
281
     1
  0
CLASS
  1
OLE2FRAME
  2
AcDbOle2Frame
  3
AutoCAD 2000
 90
       21
280
     0
281
     1
  0
CLASS
  1
HATCH
  2
AcDbHatch
  3
AutoCAD 2000
 90
       20
280
     0
281
     1
  0
CLASS
  1
DICTIONARYVAR
  2
AcDbDictionaryVar
  3
ObjectDBX Classes
 90
       20
280
     0
281
     0
  0
CLASS
  1
RASTERVARIABLES
  2
AcDbRasterVariables
  3
ISM
 90
       21
280
     0
281
     0
  0
CLASS
  1
IMAGEDEF
  2
AcDbRasterImageDef
  3
ISM
 90
       21
280
     0
281
     0
  0
CLASS
  1
IMAGEDEF_REACTOR
  2
AcDbRasterImageDefReactor
  3
ISM
 90
       21
280
     0
281
     0
  0
CLASS
  1
IDBUFFER
  2
AcDbIdBuffer
  3
ObjectDBX Classes
 90
       20
280
     0
281
     0
  0
CLASS
  1
SPATIAL_FILTER
  2
AcDbSpatialFilter
  3
ObjectDBX Classes
 90
       20
280
     0
281
     0
  0
CLASS
  1
XRECORD
  2
AcDbXrecord
  3
AutoCAD 2000
 90
       21
280
     0
281
     0
  0
CLASS
  1
SORTENTSTABLE
  2
AcDbSortentsTable
  3
"AutoCAD"
 90
        0
280
     0
281
     0
  0
CLASS
  1
LAYER_INDEX
  2
AcDbLayerIndex
  3
"Acad"
 90
        0
280
     0
281
     0
  0
CLASS
  1
SPATIAL_INDEX
  2
AcDbSpatialIndex
  3
"Acad"
 90
        0
280
     0
281
     0
  0
CLASS
  1
OBJECT_PTR
  2
CAseDLPNTableRecord
  3
"ASE-LPNTableRecord"
 90
        1
280
     0
281
     0
  0
CLASS
  1
LAYOUT
  2
AcDbLayout
  3
"AutoCAD 2000"
 90
        1
280
     0
281
     0
  0
CLASS
  1
PLOTSETTINGS
  2
AcDbPlotsettings
  3
"AutoCAD 2000"
 90
        1
280
     0
281
     0
  0
CLASS
  1
ACDBDICTIONARYWDFLT
  2
AcDbDictionaryWithDefault
  3
"AutoCAD 2000"
 90
        1
280
     0
281
     0
  0
CLASS
  1
ACDBPLACEHOLDER
  2
AcDbPlaceholder
  3
"AutoCAD 2000"
 90
        1
280
     0
281
     0
  0
CLASS
  1
VBA_PROJECT
  2
AcDbVbaProject
  3
"AutoCAD 2000"
 90
        1
280
     0
281
     0
  0
CLASS
  1
WIPEOUT
  2
AcDbWipeout
  3
"AutoCAD 2000"
 90
        1
280
     0
281
     1
  0
CLASS
  1
WIPEOUTVARIABLES
  2
AcDbWipeoutVariables
  3
"AutoCAD 2000"
 90
        1
280
     0
281
     0
  0
CLASS
  1
RTEXT
  2
RText
  3
RText|AutoCAD Express Tool|expresstools@autodesk.com
 90
        1
280
     0
281
     1
  0
CLASS
  1
ARCALIGNEDTEXT
  2
AcDbArcAlignedText
  3
RText|AutoCAD Express Tool|expresstools@autodesk.com
 90
        1
280
     0
281
     1
  0
ENDSEC
  0
SECTION
  2
TABLES
  0
TABLE
  2
VPORT
  5
8
100
AcDbSymbolTable
 70
     1
  0
VPORT
  5
25
100
AcDbSymbolTableRecord
100
AcDbViewportTableRecord
  2
*ACTIVE
 70
     0
 10
0.0
 20
0.0
 11
1.0
 21
1.0
 12
127.5
 22
165.0
 13
0.0
 23
0.0
 14
0.5
 24
0.5
 15
0.5
 25
0.5
 16
0.0
 26
0.0
 36
1.0
 17
0.0
 27
0.0
 37
0.0
 40
330.0
 41
0.772727
 42
50.0
 43
0.0
 44
0.0
 50
0.0
 51
0.0
 71
     0
 72
   100
 73
     1
 74
     1
 75
     0
 76
     0
 77
     0
 78
     0
  0
ENDTAB
  0
TABLE
  2
LTYPE
  5
5
100
AcDbSymbolTable
 70
     3
  0
LTYPE
  5
12
100
AcDbSymbolTableRecord
100
AcDbLinetypeTableRecord
  2
BYBLOCK
 70
     0
  3

 72
    65
 73
     0
 40
0.0
  0
LTYPE
  5
13
100
AcDbSymbolTableRecord
100
AcDbLinetypeTableRecord
  2
BYLAYER
 70
     0
  3

 72
    65
 73
     0
 40
0.0
  0
LTYPE
  5
14
100
AcDbSymbolTableRecord
100
AcDbLinetypeTableRecord
  2
CONTINUOUS
 70
     0
  3
Solid line
 72
    65
 73
     0
 40
0.0
  0
ENDTAB
  0
TABLE
  2
LAYER
  5
2
100
AcDbSymbolTable
 70
     1
  0
LAYER
  5
E
100
AcDbSymbolTableRecord
100
AcDbLayerTableRecord
  2
0
 70
     0
 62
     7
  6
CONTINUOUS
  0
ENDTAB
  0
TABLE
  2
STYLE
  5
3
100
AcDbSymbolTable
 70
     1
  0
STYLE
  5
F
100
AcDbSymbolTableRecord
100
AcDbTextStyleTableRecord
  2
STANDARD
 70
     0
 40
0.0
 41
1.0
 50
0.0
 71
     0
 42
0.2
  3
txt.shx
  4

  0
ENDTAB
  0
TABLE
  2
VIEW
  5
6
100
AcDbSymbolTable
 70
     0
  0
ENDTAB
  0
TABLE
  2
UCS
  5
7
100
AcDbSymbolTable
 70
     0
  0
ENDTAB
  0
TABLE
  2
APPID
  5
9
100
AcDbSymbolTable
 70
     1
  0
APPID
  5
10
100
AcDbSymbolTableRecord
100
AcDbRegAppTableRecord
  2
ACAD
 70
     0
  0
ENDTAB
  0
TABLE
  2
DIMSTYLE
  5
A
100
AcDbSymbolTable
 70
     1
  0
DIMSTYLE
105
1D
100
AcDbSymbolTableRecord
100
AcDbDimStyleTableRecord
  2
STANDARD
 70
     0
  3

  4

  5

  6

  7

 40
1.0
 41
0.18
 42
0.0625
 43
0.38
 44
0.18
 45
0.0
 46
0.0
 47
0.0
 48
0.0
 71
     0
 72
     0
 73
     1
 74
     1
 75
     0
 76
     0
 77
     0
 78
     0
140
0.18
141
0.09
142
0.0
143
25.4
144
1.0
145
0.0
146
1.0
147
0.09
170
     0
171
     2
172
     0
173
     0
174
     0
175
     0
176
     0
177
     0
178
     0
270
     2
271
     4
272
     4
273
     2
274
     2
275
     0
280
     0
281
     0
282
     0
283
     1
284
     0
285
     0
286
     0
287
     3
288
     0
340
F
  0
ENDTAB
  0
TABLE
  2
BLOCK_RECORD
  5
1
100
AcDbSymbolTable
 70
     0
  0
BLOCK_RECORD
  5
18
100
AcDbSymbolTableRecord
100
AcDbBlockTableRecord
  2
*MODEL_SPACE
  0
BLOCK_RECORD
  5
15
100
AcDbSymbolTableRecord
100
AcDbBlockTableRecord
  2
*PAPER_SPACE
  0
ENDTAB
  0
ENDSEC
  0
SECTION
  2
BLOCKS
  0
BLOCK
  5
19
100
AcDbEntity
  8
0
100
AcDbBlockBegin
  2
*MODEL_SPACE
 70
     0
 10
0.0
 20
0.0
 30
0.0
  3
*MODEL_SPACE
  1

  0
ENDBLK
  5
1A
100
AcDbEntity
  8
0
100
AcDbBlockEnd
  0
BLOCK
  5
16
100
AcDbEntity
 67
     1
  8
0
100
AcDbBlockBegin
  2
*PAPER_SPACE
 70
     0
 10
0.0
 20
0.0
 30
0.0
  3
*PAPER_SPACE
  1

  0
ENDBLK
  5
17
100
AcDbEntity
 67
     1
  8
0
100
AcDbBlockEnd
  0
ENDSEC
  0
SECTION
  2
ENTITIES
  0
CIRCLE
  5
32
102
{ACAD_REACTORS
330
31
102
}
100
AcDbEntity
  8
0
  6
CONTINUOUS
100
AcDbCircle
 10
127.570765
 20
233.274002
 30
0.0
 40
3.6
  0
ARC
  5
33
102
{ACAD_REACTORS
330
31
102
}
100
AcDbEntity
  8
0
  6
CONTINUOUS
100
AcDbCircle
 10
178.428626
 20
73.274003
 30
0.0
 40
10.0
100
AcDbArc
 50
45.0
 51
90.0
  0
LINE
  5
34
102
{ACAD_REACTORS
330
31
102
}
100
AcDbEntity
  8
0
  6
CONTINUOUS
100
AcDbLine
 10
189.641831
 20
76.202933
 30
0.0
 11
185.499694
 21
80.345071
 31
0.0
  0
ARC
  5
35
102
{ACAD_REACTORS
330
31
102
}
100
AcDbEntity
  8
0
  6
CONTINUOUS
100
AcDbCircle
 10
196.712899
 20
83.274001
 30
0.0
 40
10.0
100
AcDbArc
 50
225.0
 51
269.999999
  0
LINE
  5
36
102
{ACAD_REACTORS
330
31
102
}
100
AcDbEntity
  8
0
  6
CONTINUOUS
100
AcDbLine
 10
207.570764
 20
73.274001
 30
0.0
 11
196.712899
 21
73.274001
 31
0.0
  0
ARC
  5
37
102
{ACAD_REACTORS
330
31
102
}
100
AcDbEntity
  8
0
  6
CONTINUOUS
100
AcDbCircle
 10
207.570764
 20
83.274001
 30
0.0
 40
10.0
100
AcDbArc
 50
269.999999
 51
0.0
  0
LINE
  5
38
102
{ACAD_REACTORS
330
31
102
}
100
AcDbEntity
  8
0
  6
CONTINUOUS
100
AcDbLine
 10
217.570764
 20
133.274001
 30
0.0
 11
217.570764
 21
83.274001
 31
0.0
  0
ARC
  5
39
102
{ACAD_REACTORS
330
31
102
}
100
AcDbEntity
  8
0
  6
CONTINUOUS
100
AcDbCircle
 10
197.570764
 20
133.274001
 30
0.0
 40
20.0
100
AcDbArc
 50
0.0
 51
33.301987
  0
LINE
  5
3A
102
{ACAD_REACTORS
330
31
102
}
100
AcDbEntity
  8
0
  6
CONTINUOUS
100
AcDbLine
 10
147.29537
 20
246.231624
 30
0.0
 11
214.28653
 21
144.255037
 31
0.0
  0
ARC
  5
3B
102
{ACAD_REACTORS
330
31
102
}
100
AcDbEntity
  8
0
  6
CONTINUOUS
100
AcDbCircle
 10
127.570765
 20
233.274002
 30
0.0
 40
23.6
100
AcDbArc
 50
33.301987
 51
146.698011
  0
LINE
  5
3C
102
{ACAD_REACTORS
330
31
102
}
100
AcDbEntity
  8
0
  6
CONTINUOUS
100
AcDbLine
 10
40.854998
 20
144.255039
 30
0.0
 11
107.846161
 21
246.231625
 31
0.0
  0
ARC
  5
3D
102
{ACAD_REACTORS
330
31
102
}
100
AcDbEntity
  8
0
  6
CONTINUOUS
100
AcDbCircle
 10
57.570764
 20
133.274003
 30
0.0
 40
20.0
100
AcDbArc
 50
146.698011
 51
180.0
  0
LINE
  5
3E
102
{ACAD_REACTORS
330
31
102
}
100
AcDbEntity
  8
0
  6
CONTINUOUS
100
AcDbLine
 10
37.570764
 20
83.274003
 30
0.0
 11
37.570764
 21
133.274003
 31
0.0
  0
ARC
  5
3F
102
{ACAD_REACTORS
330
31
102
}
100
AcDbEntity
  8
0
  6
CONTINUOUS
100
AcDbCircle
 10
47.570764
 20
83.274003
 30
0.0
 40
10.0
100
AcDbArc
 50
180.0
 51
270.0
  0
LINE
  5
40
102
{ACAD_REACTORS
330
31
102
}
100
AcDbEntity
  8
0
  6
CONTINUOUS
100
AcDbLine
 10
58.428628
 20
73.274003
 30
0.0
 11
47.570764
 21
73.274003
 31
0.0
  0
ARC
  5
41
102
{ACAD_REACTORS
330
31
102
}
100
AcDbEntity
  8
0
  6
CONTINUOUS
100
AcDbCircle
 10
58.428628
 20
83.274003
 30
0.0
 40
10.0
100
AcDbArc
 50
270.0
 51
315.0
  0
LINE
  5
42
102
{ACAD_REACTORS
330
31
102
}
100
AcDbEntity
  8
0
  6
CONTINUOUS
100
AcDbLine
 10
69.641831
 20
80.345071
 30
0.0
 11
65.499696
 21
76.202935
 31
0.0
  0
ARC
  5
43
102
{ACAD_REACTORS
330
31
102
}
100
AcDbEntity
  8
0
  6
CONTINUOUS
100
AcDbCircle
 10
76.712899
 20
73.274003
 30
0.0
 40
10.0
100
AcDbArc
 50
90.0
 51
135.0
  0
LINE
  5
44
102
{ACAD_REACTORS
330
31
102
}
100
AcDbEntity
  8
0
  6
CONTINUOUS
100
AcDbLine
 10
178.428626
 20
83.274003
 30
0.0
 11
76.712899
 21
83.274003
 31
0.0
  0
LINE
  5
45
102
{ACAD_REACTORS
330
31
102
}
100
AcDbEntity
  8
0
  6
CONTINUOUS
100
AcDbLine
 10
77.570765
 20
94.474003
 30
0.0
 11
77.570765
 21
91.274003
 31
0.0
  0
LINE
  5
46
102
{ACAD_REACTORS
330
31
102
}
100
AcDbEntity
  8
0
  6
CONTINUOUS
100
AcDbLine
 10
102.570765
 20
91.274003
 30
0.0
 11
102.570765
 21
94.474003
 31
0.0
  0
LINE
  5
47
102
{ACAD_REACTORS
330
31
102
}
100
AcDbEntity
  8
0
  6
CONTINUOUS
100
AcDbLine
 10
77.570765
 20
91.274003
 30
0.0
 11
102.570765
 21
91.274003
 31
0.0
  0
LINE
  5
48
102
{ACAD_REACTORS
330
31
102
}
100
AcDbEntity
  8
0
  6
CONTINUOUS
100
AcDbLine
 10
177.570765
 20
91.274003
 30
0.0
 11
177.570765
 21
94.474003
 31
0.0
  0
LINE
  5
49
102
{ACAD_REACTORS
330
31
102
}
100
AcDbEntity
  8
0
  6
CONTINUOUS
100
AcDbLine
 10
152.570765
 20
91.274003
 30
0.0
 11
177.570765
 21
91.274003
 31
0.0
  0
LINE
  5
4A
102
{ACAD_REACTORS
330
31
102
}
100
AcDbEntity
  8
0
  6
CONTINUOUS
100
AcDbLine
 10
152.570765
 20
94.474003
 30
0.0
 11
152.570765
 21
91.274003
 31
0.0
  0
LINE
  5
4B
102
{ACAD_REACTORS
330
31
102
}
100
AcDbEntity
  8
0
  6
CONTINUOUS
100
AcDbLine
 10
177.570765
 20
94.474003
 30
0.0
 11
152.570765
 21
94.474003
 31
0.0
  0
LINE
  5
4C
102
{ACAD_REACTORS
330
31
102
}
100
AcDbEntity
  8
0
  6
CONTINUOUS
100
AcDbLine
 10
102.570765
 20
94.474003
 30
0.0
 11
77.570765
 21
94.474003
 31
0.0
  0
LINE
  5
4D
102
{ACAD_REACTORS
330
31
102
}
100
AcDbEntity
  8
0
  6
CONTINUOUS
100
AcDbLine
 10
125.970765
 20
103.474003
 30
0.0
 11
125.970765
 21
94.474003
 31
0.0
  0
LINE
  5
4E
102
{ACAD_REACTORS
330
31
102
}
100
AcDbEntity
  8
0
  6
CONTINUOUS
100
AcDbLine
 10
129.170765
 20
103.474003
 30
0.0
 11
125.970765
 21
103.474003
 31
0.0
  0
LINE
  5
4F
102
{ACAD_REACTORS
330
31
102
}
100
AcDbEntity
  8
0
  6
CONTINUOUS
100
AcDbLine
 10
129.170765
 20
94.474003
 30
0.0
 11
129.170765
 21
103.474003
 31
0.0
  0
LINE
  5
50
102
{ACAD_REACTORS
330
31
102
}
100
AcDbEntity
  8
0
  6
CONTINUOUS
100
AcDbLine
 10
125.970765
 20
94.474003
 30
0.0
 11
129.170765
 21
94.474003
 31
0.0
  0
LINE
  5
51
102
{ACAD_REACTORS
330
31
102
}
100
AcDbEntity
  8
0
  6
CONTINUOUS
100
AcDbLine
 10
114.301893
 20
91.274081
 30
0.0
 11
114.301726
 21
94.274081
 31
0.0
  0
LINE
  5
52
102
{ACAD_REACTORS
330
31
102
}
100
AcDbEntity
  8
0
  6
CONTINUOUS
100
AcDbLine
 10
114.301726
 20
94.274081
 30
0.0
 11
115.427237
 21
94.274143
 31
0.0
  0
SPLINE
  5
53
102
{ACAD_REACTORS
330
31
102
}
100
AcDbEntity
  8
0
  6
CONTINUOUS
100
AcDbSpline
210
0.0
220
0.0
230
1.0
 70
     8
 71
     2
 72
     6
 73
     3
 74
     0
 42
0.0000001
 43
0.0000001
 40
0.0
 40
0.0
 40
0.0
 40
1.0
 40
1.0
 40
1.0
 10
115.42723700024121
 20
94.274143250448049
 30
0.0
 10
115.7710306303089
 20
94.274162380621433
 30
0.0
 10
115.97874357912727
 20
94.18310966422159
 30
0.0
  0
SPLINE
  5
54
102
{ACAD_REACTORS
330
31
102
}
100
AcDbEntity
  8
0
  6
CONTINUOUS
100
AcDbSpline
210
0.0
220
0.0
230
1.0
 70
     8
 71
     2
 72
     6
 73
     3
 74
     0
 42
0.0000001
 43
0.0000001
 40
0.0
 40
0.0
 40
0.0
 40
1.0
 40
1.0
 40
1.0
 10
115.97874357912727
 20
94.183109664221604
 30
0.0
 10
116.18645652792915
 20
94.092057245844984
 30
0.0
 10
116.30413378204602
 20
93.902773150888009
 30
0.0
  0
SPLINE
  5
55
102
{ACAD_REACTORS
330
31
102
}
100
AcDbEntity
  8
0
  6
CONTINUOUS
100
AcDbSpline
210
0.0
220
0.0
230
1.0
 70
     8
 71
     2
 72
     6
 73
     3
 74
     0
 42
0.0000001
 43
0.0000001
 40
0.0
 40
0.0
 40
0.0
 40
1.0
 40
1.0
 40
1.0
 10
116.30413378204607
 20
93.902773150888009
 30
0.0
 10
116.42181103616294
 20
93.713489055931035
 30
0.0
 10
116.42182253700283
 20
93.506804288051086
 30
0.0
  0
SPLINE
  5
56
102
{ACAD_REACTORS
330
31
102
}
100
AcDbEntity
  8
0
  6
CONTINUOUS
100
AcDbSpline
210
0.0
220
0.0
230
1.0
 70
     8
 71
     2
 72
     6
 73
     3
 74
     0
 42
0.0000001
 43
0.0000001
 40
0.0
 40
0.0
 40
0.0
 40
1.0
 40
1.0
 40
1.0
 10
116.42182253700283
 20
93.506804288051072
 30
0.0
 10
116.42183324076593
 20
93.314444006404599
 30
0.0
 10
116.31747734330425
 20
93.144588207527079
 30
0.0
  0
SPLINE
  5
57
102
{ACAD_REACTORS
330
31
102
}
100
AcDbEntity
  8
0
  6
CONTINUOUS
100
AcDbSpline
210
0.0
220
0.0
230
1.0
 70
     8
 71
     2
 72
     6
 73
     3
 74
     0
 42
0.0000001
 43
0.0000001
 40
0.0
 40
0.0
 40
0.0
 40
1.0
 40
1.0
 40
1.0
 10
116.31747734330422
 20
93.144588207527107
 30
0.0
 10
116.21312144584248
 20
92.974732408649572
 30
0.0
 10
116.00234973237745
 20
92.870355331416903
 30
0.0
  0
SPLINE
  5
58
102
{ACAD_REACTORS
330
31
102
}
100
AcDbEntity
  8
0
  6
CONTINUOUS
100
AcDbSpline
210
0.0
220
0.0
230
1.0
 70
     8
 71
     2
 72
     6
 73
     3
 74
     0
 42
0.0000001
 43
0.0000001
 40
0.0
 40
0.0
 40
0.0
 40
1.0
 40
1.0
 40
1.0
 10
116.00234973237751
 20
92.870355331416903
 30
0.0
 10
116.27452328604265
 20
92.790561346975934
 30
0.0
 10
116.42085027946437
 20
92.598209505027654
 30
0.0
  0
SPLINE
  5
59
102
{ACAD_REACTORS
330
31
102
}
100
AcDbEntity
  8
0
  6
CONTINUOUS
100
AcDbSpline
210
0.0
220
0.0
230
1.0
 70
     8
 71
     2
 72
     6
 73
     3
 74
     0
 42
0.0000001
 43
0.0000001
 40
0.0
 40
0.0
 40
0.0
 40
1.0
 40
1.0
 40
1.0
 10
116.42085027946439
 20
92.598209505027654
 30
0.0
 10
116.56717846499561
 20
92.405857365122458
 30
0.0
 10
116.56719304033129
 20
92.143919985690943
 30
0.0
  0
SPLINE
  5
5A
102
{ACAD_REACTORS
330
31
102
}
100
AcDbEntity
  8
0
  6
CONTINUOUS
100
AcDbSpline
210
0.0
220
0.0
230
1.0
 70
     8
 71
     2
 72
     6
 73
     3
 74
     0
 42
0.0000001
 43
0.0000001
 40
0.0
 40
0.0
 40
0.0
 40
1.0
 40
1.0
 40
1.0
 10
116.56719304033128
 20
92.143919985690928
 30
0.0
 10
116.56720476890966
 20
91.933142464883829
 30
0.0
 10
116.4781965016462
 20
91.752032374924852
 30
0.0
  0
SPLINE
  5
5B
102
{ACAD_REACTORS
330
31
102
}
100
AcDbEntity
  8
0
  6
CONTINUOUS
100
AcDbSpline
210
0.0
220
0.0
230
1.0
 70
     8
 71
     2
 72
     6
 73
     3
 74
     0
 42
0.0000001
 43
0.0000001
 40
0.0
 40
0.0
 40
0.0
 40
1.0
 40
1.0
 40
1.0
 10
116.47819650164612
 20
91.752032374924866
 30
0.0
 10
116.38918823436612
 20
91.570922582989112
 30
0.0
 10
116.25822560645597
 20
91.472688629056123
 30
0.0
  0
SPLINE
  5
5C
102
{ACAD_REACTORS
330
31
102
}
100
AcDbEntity
  8
0
  6
CONTINUOUS
100
AcDbSpline
210
0.0
220
0.0
230
1.0
 70
     8
 71
     2
 72
     6
 73
     3
 74
     0
 42
0.0000001
 43
0.0000001
 40
0.0
 40
0.0
 40
0.0
 40
1.0
 40
1.0
 40
1.0
 10
116.25822560645594
 20
91.472688629056137
 30
0.0
 10
116.12726297852919
 20
91.374454973146385
 30
0.0
 10
115.92978842794673
 20
91.324307537772754
 30
0.0
  0
SPLINE
  5
5D
102
{ACAD_REACTORS
330
31
102
}
100
AcDbEntity
  8
0
  6
CONTINUOUS
100
AcDbSpline
210
0.0
220
0.0
230
1.0
 70
     8
 71
     2
 72
     6
 73
     3
 74
     0
 42
0.0000001
 43
0.0000001
 40
0.0
 40
0.0
 40
0.0
 40
1.0
 40
1.0
 40
1.0
 10
115.92978842794685
 20
91.324307537772711
 30
0.0
 10
115.73231626155018
 20
91.274160102531766
 30
0.0
 10
115.44582176850923
 20
91.274144160731666
 30
0.0
  0
LINE
  5
5E
102
{ACAD_REACTORS
330
31
102
}
100
AcDbEntity
  8
0
  6
CONTINUOUS
100
AcDbLine
 10
115.445822
 20
91.274144
 30
0.0
 11
114.301893
 21
91.274081
 31
0.0
  0
LINE
  5
5F
102
{ACAD_REACTORS
330
31
102
}
100
AcDbEntity
  8
0
  6
CONTINUOUS
100
AcDbLine
 10
114.698794
 20
93.013529
 30
0.0
 11
115.347499
 21
93.013566
 31
0.0
  0
SPLINE
  5
60
102
{ACAD_REACTORS
330
31
102
}
100
AcDbEntity
  8
0
  6
CONTINUOUS
100
AcDbSpline
210
0.0
220
0.0
230
1.0
 70
     8
 71
     2
 72
     6
 73
     3
 74
     0
 42
0.0000001
 43
0.0000001
 40
0.0
 40
0.0
 40
0.0
 40
1.0
 40
1.0
 40
1.0
 10
115.34749890897828
 20
93.013565543585472
 30
0.0
 10
115.6114819198153
 20
93.013580232748751
 30
0.0
 10
115.726078258066
 20
93.048375456411065
 30
0.0
  0
SPLINE
  5
61
102
{ACAD_REACTORS
330
31
102
}
100
AcDbEntity
  8
0
  6
CONTINUOUS
100
AcDbSpline
210
0.0
220
0.0
230
1.0
 70
     8
 71
     2
 72
     6
 73
     3
 74
     0
 42
0.0000001
 43
0.0000001
 40
0.0
 40
0.0
 40
0.0
 40
1.0
 40
1.0
 40
1.0
 10
115.72607825806594
 20
93.048375456411065
 30
0.0
 10
115.87750731322345
 20
93.09340416492077
 30
0.0
 10
115.95424129380135
 20
93.197774081734025
 30
0.0
  0
SPLINE
  5
62
102
{ACAD_REACTORS
330
31
102
}
100
AcDbEntity
  8
0
  6
CONTINUOUS
100
AcDbSpline
210
0.0
220
0.0
230
1.0
 70
     8
 71
     2
 72
     6
 73
     3
 74
     0
 42
0.0000001
 43
0.0000001
 40
0.0
 40
0.0
 40
0.0
 40
1.0
 40
1.0
 40
1.0
 10
115.95424129380135
 20
93.197774081734025
 30
0.0
 10
116.03097527437924
 20
93.30214399854728
 30
0.0
 10
116.03096650640234
 20
93.45971573130123
 30
0.0
  0
SPLINE
  5
63
102
{ACAD_REACTORS
330
31
102
}
100
AcDbEntity
  8
0
  6
CONTINUOUS
100
AcDbSpline
210
0.0
220
0.0
230
1.0
 70
     8
 71
     2
 72
     6
 73
     3
 74
     0
 42
0.0000001
 43
0.0000001
 40
0.0
 40
0.0
 40
0.0
 40
1.0
 40
1.0
 40
1.0
 10
116.03096650640231
 20
93.459715731301245
 30
0.0
 10
116.03095819391916
 20
93.609101660177629
 30
0.0
 10
115.95932854891578
 20
93.722671941002091
 30
0.0
  0
SPLINE
  5
64
102
{ACAD_REACTORS
330
31
102
}
100
AcDbEntity
  8
0
  6
CONTINUOUS
100
AcDbSpline
210
0.0
220
0.0
230
1.0
 70
     8
 71
     2
 72
     6
 73
     3
 74
     0
 42
0.0000001
 43
0.0000001
 40
0.0
 40
0.0
 40
0.0
 40
1.0
 40
1.0
 40
1.0
 10
115.95932854891572
 20
93.722671941002062
 30
0.0
 10
115.88769890389568
 20
93.836242519849733
 30
0.0
 10
115.75468046030215
 20
93.878186059275535
 30
0.0
  0
SPLINE
  5
65
102
{ACAD_REACTORS
330
31
102
}
100
AcDbEntity
  8
0
  6
CONTINUOUS
100
AcDbSpline
210
0.0
220
0.0
230
1.0
 70
     8
 71
     2
 72
     6
 73
     3
 74
     0
 42
0.0000001
 43
0.0000001
 40
0.0
 40
0.0
 40
0.0
 40
1.0
 40
1.0
 40
1.0
 10
115.75468046030232
 20
93.878186059275549
 30
0.0
 10
115.62166320881829
 20
93.920129300744478
 30
0.0
 10
115.29833542954896
 20
93.920111309380076
 30
0.0
  0
LINE
  5
66
102
{ACAD_REACTORS
330
31
102
}
100
AcDbEntity
  8
0
  6
CONTINUOUS
100
AcDbLine
 10
115.298335
 20
93.920111
 30
0.0
 11
114.698744
 21
93.920078
 31
0.0
  0
LINE
  5
67
102
{ACAD_REACTORS
330
31
102
}
100
AcDbEntity
  8
0
  6
CONTINUOUS
100
AcDbLine
 10
114.698744
 20
93.920078
 30
0.0
 11
114.698794
 21
93.013529
 31
0.0
  0
LINE
  5
68
102
{ACAD_REACTORS
330
31
102
}
100
AcDbEntity
  8
0
  6
CONTINUOUS
100
AcDbLine
 10
114.698871
 20
91.628127
 30
0.0
 11
115.445802
 21
91.628169
 31
0.0
  0
SPLINE
  5
69
102
{ACAD_REACTORS
330
31
102
}
100
AcDbEntity
  8
0
  6
CONTINUOUS
100
AcDbSpline
210
0.0
220
0.0
230
1.0
 70
     8
 71
     2
 72
     6
 73
     3
 74
     0
 42
0.0000001
 43
0.0000001
 40
0.0
 40
0.0
 40
0.0
 40
1.0
 40
1.0
 40
1.0
 10
115.4458020690471
 20
91.628168630036058
 30
0.0
 10
115.63816175464713
 20
91.6281793337659
 30
0.0
 10
115.71592356119318
 20
91.642508445072195
 30
0.0
  0
SPLINE
  5
6A
102
{ACAD_REACTORS
330
31
102
}
100
AcDbEntity
  8
0
  6
CONTINUOUS
100
AcDbSpline
210
0.0
220
0.0
230
1.0
 70
     8
 71
     2
 72
     6
 73
     3
 74
     0
 42
0.0000001
 43
0.0000001
 40
0.0
 40
0.0
 40
0.0
 40
1.0
 40
1.0
 40
1.0
 10
115.71592356119325
 20
91.64250844507221
 30
0.0
 10
115.85303075892634
 20
91.667072591952262
 30
0.0
 10
115.94511436241922
 20
91.724376555065561
 30
0.0
  0
SPLINE
  5
6B
102
{ACAD_REACTORS
330
31
102
}
100
AcDbEntity
  8
0
  6
CONTINUOUS
100
AcDbSpline
210
0.0
220
0.0
230
1.0
 70
     8
 71
     2
 72
     6
 73
     3
 74
     0
 42
0.0000001
 43
0.0000001
 40
0.0
 40
0.0
 40
0.0
 40
1.0
 40
1.0
 40
1.0
 10
115.94511436241922
 20
91.724376555065561
 30
0.0
 10
116.037199158005
 20
91.781680518245196
 30
0.0
 10
116.09653783440947
 20
91.891165333777025
 30
0.0
  0
SPLINE
  5
6C
102
{ACAD_REACTORS
330
31
102
}
100
AcDbEntity
  8
0
  6
CONTINUOUS
100
AcDbSpline
210
0.0
220
0.0
230
1.0
 70
     8
 71
     2
 72
     6
 73
     3
 74
     0
 42
0.0000001
 43
0.0000001
 40
0.0
 40
0.0
 40
0.0
 40
1.0
 40
1.0
 40
1.0
 10
116.09653783440946
 20
91.891165333777025
 30
0.0
 10
116.1558765107974
 20
92.000650447332092
 30
0.0
 10
116.15586853993041
 20
92.143897097806132
 30
0.0
  0
SPLINE
  5
6D
102
{ACAD_REACTORS
330
31
102
}
100
AcDbEntity
  8
0
  6
CONTINUOUS
100
AcDbSpline
210
0.0
220
0.0
230
1.0
 70
     8
 71
     2
 72
     6
 73
     3
 74
     0
 42
0.0000001
 43
0.0000001
 40
0.0
 40
0.0
 40
0.0
 40
1.0
 40
1.0
 40
1.0
 10
116.15586853993038
 20
92.143897097806118
 30
0.0
 10
116.15585920259876
 20
92.311700861889605
 30
0.0
 10
116.0699048000469
 20
92.435502078960184
 30
0.0
  0
SPLINE
  5
6E
102
{ACAD_REACTORS
330
31
102
}
100
AcDbEntity
  8
0
  6
CONTINUOUS
100
AcDbSpline
210
0.0
220
0.0
230
1.0
 70
     8
 71
     2
 72
     6
 73
     3
 74
     0
 42
0.0000001
 43
0.0000001
 40
0.0
 40
0.0
 40
0.0
 40
1.0
 40
1.0
 40
1.0
 10
116.069904800047
 20
92.435502078960184
 30
0.0
 10
115.98394920536916
 20
92.559303892010902
 30
0.0
 10
115.83149084748149
 20
92.609431855594977
 30
0.0
  0
SPLINE
  5
6F
102
{ACAD_REACTORS
330
31
102
}
100
AcDbEntity
  8
0
  6
CONTINUOUS
100
AcDbSpline
210
0.0
220
0.0
230
1.0
 70
     8
 71
     2
 72
     6
 73
     3
 74
     0
 42
0.0000001
 43
0.0000001
 40
0.0
 40
0.0
 40
0.0
 40
1.0
 40
1.0
 40
1.0
 10
115.8314908474814
 20
92.609431855594977
 30
0.0
 10
115.67903248959379
 20
92.659559819179051
 30
0.0
 10
115.39253918864569
 20
92.659543877445287
 30
0.0
  0
LINE
  5
70
102
{ACAD_REACTORS
330
31
102
}
100
AcDbEntity
  8
0
  6
CONTINUOUS
100
AcDbLine
 10
115.392539
 20
92.659544
 30
0.0
 11
114.698814
 21
92.659505
 31
0.0
  0
LINE
  5
71
102
{ACAD_REACTORS
330
31
102
}
100
AcDbEntity
  8
0
  6
CONTINUOUS
100
AcDbLine
 10
114.698814
 20
92.659505
 30
0.0
 11
114.698871
 21
91.628127
 31
0.0
  0
SPLINE
  5
72
102
{ACAD_REACTORS
330
31
102
}
100
AcDbEntity
  8
0
  6
CONTINUOUS
100
AcDbSpline
210
0.0
220
0.0
230
1.0
 70
     8
 71
     2
 72
     6
 73
     3
 74
     0
 42
0.0000001
 43
0.0000001
 40
0.0
 40
0.0
 40
0.0
 40
1.0
 40
1.0
 40
1.0
 10
118.48468886400494
 20
91.542389617159316
 30
0.0
 10
118.28005910843856
 20
91.368435485668201
 30
0.0
 10
118.09077304747316
 20
91.296801627509439
 30
0.0
  0
SPLINE
  5
73
102
{ACAD_REACTORS
330
31
102
}
100
AcDbEntity
  8
0
  6
CONTINUOUS
100
AcDbSpline
210
0.0
220
0.0
230
1.0
 70
     8
 71
     2
 72
     6
 73
     3
 74
     0
 42
0.0000001
 43
0.0000001
 40
0.0
 40
0.0
 40
0.0
 40
1.0
 40
1.0
 40
1.0
 10
118.09077304747305
 20
91.296801627509439
 30
0.0
 10
117.90148698650771
 20
91.225167769350662
 30
0.0
 10
117.68456899520535
 20
91.225155699089839
 30
0.0
  0
SPLINE
  5
74
102
{ACAD_REACTORS
330
31
102
}
100
AcDbEntity
  8
0
  6
CONTINUOUS
100
AcDbSpline
210
0.0
220
0.0
230
1.0
 70
     8
 71
     2
 72
     6
 73
     3
 74
     0
 42
0.0000001
 43
0.0000001
 40
0.0
 40
0.0
 40
0.0
 40
1.0
 40
1.0
 40
1.0
 10
117.6845689952055
 20
91.225155699089839
 30
0.0
 10
117.32645236902039
 20
91.225135771922623
 30
0.0
 10
117.13408175546579
 20
91.400090926315045
 30
0.0
  0
SPLINE
  5
75
102
{ACAD_REACTORS
330
31
102
}
100
AcDbEntity
  8
0
  6
CONTINUOUS
100
AcDbSpline
210
0.0
220
0.0
230
1.0
 70
     8
 71
     2
 72
     6
 73
     3
 74
     0
 42
0.0000001
 43
0.0000001
 40
0.0
 40
0.0
 40
0.0
 40
1.0
 40
1.0
 40
1.0
 10
117.13408175546579
 20
91.400090926315073
 30
0.0
 10
116.94171233400402
 20
91.575046080773831
 30
0.0
 10
116.94169718933028
 20
91.847215193511659
 30
0.0
  0
SPLINE
  5
76
102
{ACAD_REACTORS
330
31
102
}
100
AcDbEntity
  8
0
  6
CONTINUOUS
100
AcDbSpline
210
0.0
220
0.0
230
1.0
 70
     8
 71
     2
 72
     6
 73
     3
 74
     0
 42
0.0000001
 43
0.0000001
 40
0.0
 40
0.0
 40
0.0
 40
1.0
 40
1.0
 40
1.0
 10
116.9416971893302
 20
91.847215193511659
 30
0.0
 10
116.94168830749229
 20
92.006833153717579
 30
0.0
 10
117.01432829592667
 20
92.138828999573008
 30
0.0
  0
SPLINE
  5
77
102
{ACAD_REACTORS
330
31
102
}
100
AcDbEntity
  8
0
  6
CONTINUOUS
100
AcDbSpline
210
0.0
220
0.0
230
1.0
 70
     8
 71
     2
 72
     6
 73
     3
 74
     0
 42
0.0000001
 43
0.0000001
 40
0.0
 40
0.0
 40
0.0
 40
1.0
 40
1.0
 40
1.0
 10
117.0143282959267
 20
92.138828999572993
 30
0.0
 10
117.08696709226814
 20
92.270824845362114
 30
0.0
 10
117.20462937250278
 20
92.350640521964991
 30
0.0
  0
SPLINE
  5
78
102
{ACAD_REACTORS
330
31
102
}
100
AcDbEntity
  8
0
  6
CONTINUOUS
100
AcDbSpline
210
0.0
220
0.0
230
1.0
 70
     8
 71
     2
 72
     6
 73
     3
 74
     0
 42
0.0000001
 43
0.0000001
 40
0.0
 40
0.0
 40
0.0
 40
1.0
 40
1.0
 40
1.0
 10
117.20462937250272
 20
92.350640521965005
 30
0.0
 10
117.3222916527539
 20
92.430455900544672
 30
0.0
 10
117.46962967282235
 20
92.471391926494761
 30
0.0
  0
SPLINE
  5
79
102
{ACAD_REACTORS
330
31
102
}
100
AcDbEntity
  8
0
  6
CONTINUOUS
100
AcDbSpline
210
0.0
220
0.0
230
1.0
 70
     8
 71
     2
 72
     6
 73
     3
 74
     0
 42
0.0000001
 43
0.0000001
 40
0.0
 40
0.0
 40
0.0
 40
1.0
 40
1.0
 40
1.0
 10
117.46962967282245
 20
92.471391926494761
 30
0.0
 10
117.57808707430358
 20
92.500047232115335
 30
0.0
 10
117.79704802460945
 20
92.526662459175839
 30
0.0
  0
SPLINE
  5
7A
102
{ACAD_REACTORS
330
31
102
}
100
AcDbEntity
  8
0
  6
CONTINUOUS
100
AcDbSpline
210
0.0
220
0.0
230
1.0
 70
     8
 71
     2
 72
     6
 73
     3
 74
     0
 42
0.0000001
 43
0.0000001
 40
0.0
 40
0.0
 40
0.0
 40
1.0
 40
1.0
 40
1.0
 10
117.79704802460942
 20
92.526662459175839
 30
0.0
 10
118.24315721921489
 20
92.579893368873513
 30
0.0
 10
118.45393064071102
 20
92.653574948164049
 30
0.0
  0
SPLINE
  5
7B
102
{ACAD_REACTORS
330
31
102
}
100
AcDbEntity
  8
0
  6
CONTINUOUS
100
AcDbSpline
210
0.0
220
0.0
230
1.0
 70
     8
 71
     2
 72
     6
 73
     3
 74
     0
 42
0.0000001
 43
0.0000001
 40
0.0
 40
0.0
 40
0.0
 40
1.0
 40
1.0
 40
1.0
 10
118.45393064071101
 20
92.653574948164078
 30
0.0
 10
118.45597205892784
 20
92.729291438179303
 30
0.0
 10
118.45597092025145
 20
92.749754904791928
 30
0.0
  0
SPLINE
  5
7C
102
{ACAD_REACTORS
330
31
102
}
100
AcDbEntity
  8
0
  6
CONTINUOUS
100
AcDbSpline
210
0.0
220
0.0
230
1.0
 70
     8
 71
     2
 72
     6
 73
     3
 74
     0
 42
0.0000001
 43
0.0000001
 40
0.0
 40
0.0
 40
0.0
 40
1.0
 40
1.0
 40
1.0
 10
118.45597092025143
 20
92.749754904791899
 30
0.0
 10
118.45595839456307
 20
92.974857507878923
 30
0.0
 10
118.35158792178235
 20
93.066938790409694
 30
0.0
  0
SPLINE
  5
7D
102
{ACAD_REACTORS
330
31
102
}
100
AcDbEntity
  8
0
  6
CONTINUOUS
100
AcDbSpline
210
0.0
220
0.0
230
1.0
 70
     8
 71
     2
 72
     6
 73
     3
 74
     0
 42
0.0000001
 43
0.0000001
 40
0.0
 40
0.0
 40
0.0
 40
1.0
 40
1.0
 40
1.0
 10
118.35158792178244
 20
93.066938790409694
 30
0.0
 10
118.21038114875525
 20
93.191760344750364
 30
0.0
 10
117.93207275761507
 20
93.191744858460595
 30
0.0
  0
SPLINE
  5
7E
102
{ACAD_REACTORS
330
31
102
}
100
AcDbEntity
  8
0
  6
CONTINUOUS
100
AcDbSpline
210
0.0
220
0.0
230
1.0
 70
     8
 71
     2
 72
     6
 73
     3
 74
     0
 42
0.0000001
 43
0.0000001
 40
0.0
 40
0.0
 40
0.0
 40
1.0
 40
1.0
 40
1.0
 10
117.932072757615
 20
93.191744858460595
 30
0.0
 10
117.67218100958894
 20
93.191730396952977
 30
0.0
 10
117.54838007722066
 20
93.100659531701638
 30
0.0
  0
SPLINE
  5
7F
102
{ACAD_REACTORS
330
31
102
}
100
AcDbEntity
  8
0
  6
CONTINUOUS
100
AcDbSpline
210
0.0
220
0.0
230
1.0
 70
     8
 71
     2
 72
     6
 73
     3
 74
     0
 42
0.0000001
 43
0.0000001
 40
0.0
 40
0.0
 40
0.0
 40
1.0
 40
1.0
 40
1.0
 10
117.54838007722064
 20
93.100659531701652
 30
0.0
 10
117.42457914485236
 20
93.009588666450313
 30
0.0
 10
117.36524724370803
 20
92.778343780783032
 30
0.0
  0
LINE
  5
80
102
{ACAD_REACTORS
330
31
102
}
100
AcDbEntity
  8
0
  6
CONTINUOUS
100
AcDbLine
 10
117.365247
 20
92.778344
 30
0.0
 11
117.00508
 21
92.827437
 31
0.0
  0
SPLINE
  5
81
102
{ACAD_REACTORS
330
31
102
}
100
AcDbEntity
  8
0
  6
CONTINUOUS
100
AcDbSpline
210
0.0
220
0.0
230
1.0
 70
     8
 71
     2
 72
     6
 73
     3
 74
     0
 42
0.0000001
 43
0.0000001
 40
0.0
 40
0.0
 40
0.0
 40
1.0
 40
1.0
 40
1.0
 10
117.00507986905208
 20
92.827437072804543
 30
0.0
 10
117.05418122899962
 20
93.058681091176766
 30
0.0
 10
117.16672357350879
 20
93.200911188734111
 30
0.0
  0
SPLINE
  5
82
102
{ACAD_REACTORS
330
31
102
}
100
AcDbEntity
  8
0
  6
CONTINUOUS
100
AcDbSpline
210
0.0
220
0.0
230
1.0
 70
     8
 71
     2
 72
     6
 73
     3
 74
     0
 42
0.0000001
 43
0.0000001
 40
0.0
 40
0.0
 40
0.0
 40
1.0
 40
1.0
 40
1.0
 10
117.16672357350883
 20
93.200911188734125
 30
0.0
 10
117.27926711011089
 20
93.343141286357806
 30
0.0
 10
117.49208718431386
 20
93.419892320720464
 30
0.0
  0
SPLINE
  5
83
102
{ACAD_REACTORS
330
31
102
}
100
AcDbEntity
  8
0
  6
CONTINUOUS
100
AcDbSpline
210
0.0
220
0.0
230
1.0
 70
     8
 71
     2
 72
     6
 73
     3
 74
     0
 42
0.0000001
 43
0.0000001
 40
0.0
 40
0.0
 40
0.0
 40
1.0
 40
1.0
 40
1.0
 10
117.49208718431379
 20
93.41989232072045
 30
0.0
 10
117.70490725848356
 20
93.496643951129556
 30
0.0
 10
117.9852612810293
 20
93.496659551247149
 30
0.0
  0
SPLINE
  5
84
102
{ACAD_REACTORS
330
31
102
}
100
AcDbEntity
  8
0
  6
CONTINUOUS
100
AcDbSpline
210
0.0
220
0.0
230
1.0
 70
     8
 71
     2
 72
     6
 73
     3
 74
     0
 42
0.0000001
 43
0.0000001
 40
0.0
 40
0.0
 40
0.0
 40
1.0
 40
1.0
 40
1.0
 10
117.9852612810293
 20
93.496659551247149
 30
0.0
 10
118.26356967216947
 20
93.496675037536917
 30
0.0
 10
118.43751635850577
 20
93.431200073603492
 30
0.0
  0
SPLINE
  5
85
102
{ACAD_REACTORS
330
31
102
}
100
AcDbEntity
  8
0
  6
CONTINUOUS
100
AcDbSpline
210
0.0
220
0.0
230
1.0
 70
     8
 71
     2
 72
     6
 73
     3
 74
     0
 42
0.0000001
 43
0.0000001
 40
0.0
 40
0.0
 40
0.0
 40
1.0
 40
1.0
 40
1.0
 10
118.43751635850573
 20
93.431200073603506
 30
0.0
 10
118.611461852716
 20
93.365725705650206
 30
0.0
 10
118.6933236260419
 20
93.266480480463727
 30
0.0
  0
SPLINE
  5
86
102
{ACAD_REACTORS
330
31
102
}
100
AcDbEntity
  8
0
  6
CONTINUOUS
100
AcDbSpline
210
0.0
220
0.0
230
1.0
 70
     8
 71
     2
 72
     6
 73
     3
 74
     0
 42
0.0000001
 43
0.0000001
 40
0.0
 40
0.0
 40
0.0
 40
1.0
 40
1.0
 40
1.0
 10
118.69332362604194
 20
93.266480480463713
 30
0.0
 10
118.77518420727489
 20
93.167235255210898
 30
0.0
 10
118.80793584912925
 20
93.015804920857505
 30
0.0
  0
SPLINE
  5
87
102
{ACAD_REACTORS
330
31
102
}
100
AcDbEntity
  8
0
  6
CONTINUOUS
100
AcDbSpline
210
0.0
220
0.0
230
1.0
 70
     8
 71
     2
 72
     6
 73
     3
 74
     0
 42
0.0000001
 43
0.0000001
 40
0.0
 40
0.0
 40
0.0
 40
1.0
 40
1.0
 40
1.0
 10
118.80793584912919
 20
93.015804920857519
 30
0.0
 10
118.82635773026391
 20
92.921672032268404
 30
0.0
 10
118.82637139462861
 20
92.676105962568769
 30
0.0
  0
LINE
  5
88
102
{ACAD_REACTORS
330
31
102
}
100
AcDbEntity
  8
0
  6
CONTINUOUS
100
AcDbLine
 10
118.826371
 20
92.676106
 30
0.0
 11
118.826399
 21
92.184974
 31
0.0
  0
SPLINE
  5
89
102
{ACAD_REACTORS
330
31
102
}
100
AcDbEntity
  8
0
  6
CONTINUOUS
100
AcDbSpline
210
0.0
220
0.0
230
1.0
 70
     8
 71
     2
 72
     6
 73
     3
 74
     0
 42
0.0000001
 43
0.0000001
 40
0.0
 40
0.0
 40
0.0
 40
1.0
 40
1.0
 40
1.0
 10
118.82639872337462
 20
92.18497352514629
 30
0.0
 10
118.82642730469117
 20
91.671330797612782
 30
0.0
 10
118.84996798284176
 20
91.535247550728258
 30
0.0
  0
SPLINE
  5
8A
102
{ACAD_REACTORS
330
31
102
}
100
AcDbEntity
  8
0
  6
CONTINUOUS
100
AcDbSpline
210
0.0
220
0.0
230
1.0
 70
     8
 71
     2
 72
     6
 73
     3
 74
     0
 42
0.0000001
 43
0.0000001
 40
0.0
 40
0.0
 40
0.0
 40
1.0
 40
1.0
 40
1.0
 10
118.8499679828418
 20
91.535247550728258
 30
0.0
 10
118.87350985308541
 20
91.399164303910084
 30
0.0
 10
118.9430933008756
 20
91.274338764135962
 30
0.0
  0
LINE
  5
8B
102
{ACAD_REACTORS
330
31
102
}
100
AcDbEntity
  8
0
  6
CONTINUOUS
100
AcDbLine
 10
118.943093
 20
91.274339
 30
0.0
 11
118.558373
 21
91.274317
 31
0.0
  0
SPLINE
  5
8C
102
{ACAD_REACTORS
330
31
102
}
100
AcDbEntity
  8
0
  6
CONTINUOUS
100
AcDbSpline
210
0.0
220
0.0
230
1.0
 70
     8
 71
     2
 72
     6
 73
     3
 74
     0
 42
0.0000001
 43
0.0000001
 40
0.0
 40
0.0
 40
0.0
 40
1.0
 40
1.0
 40
1.0
 10
118.5583727375827
 20
91.274317356609956
 30
0.0
 10
118.50106722384241
 20
91.388911846243772
 30
0.0
 10
118.48468886400489
 20
91.542389617159344
 30
0.0
  0
SPLINE
  5
8D
102
{ACAD_REACTORS
330
31
102
}
100
AcDbEntity
  8
0
  6
CONTINUOUS
100
AcDbSpline
210
0.0
220
0.0
230
1.0
 70
     8
 71
     2
 72
     6
 73
     3
 74
     0
 42
0.0000001
 43
0.0000001
 40
0.0
 40
0.0
 40
0.0
 40
1.0
 40
1.0
 40
1.0
 10
118.45394669635562
 20
92.365034525694341
 30
0.0
 10
118.25340546364305
 20
92.283168009887618
 30
0.0
 10
117.85231707699825
 20
92.225846852403748
 30
0.0
  0
SPLINE
  5
8E
102
{ACAD_REACTORS
330
31
102
}
100
AcDbEntity
  8
0
  6
CONTINUOUS
100
AcDbSpline
210
0.0
220
0.0
230
1.0
 70
     8
 71
     2
 72
     6
 73
     3
 74
     0
 42
0.0000001
 43
0.0000001
 40
0.0
 40
0.0
 40
0.0
 40
1.0
 40
1.0
 40
1.0
 10
117.85231707699826
 20
92.225846852403762
 30
0.0
 10
117.62517036639117
 20
92.193092189453779
 30
0.0
 10
117.53103902844551
 20
92.152159124154991
 30
0.0
  0
SPLINE
  5
8F
102
{ACAD_REACTORS
330
31
102
}
100
AcDbEntity
  8
0
  6
CONTINUOUS
100
AcDbSpline
210
0.0
220
0.0
230
1.0
 70
     8
 71
     2
 72
     6
 73
     3
 74
     0
 42
0.0000001
 43
0.0000001
 40
0.0
 40
0.0
 40
0.0
 40
1.0
 40
1.0
 40
1.0
 10
117.53103902844551
 20
92.152159124154977
 30
0.0
 10
117.43690769048324
 20
92.111226356879399
 30
0.0
 10
117.38575221585559
 20
92.032437494733685
 30
0.0
  0
SPLINE
  5
90
102
{ACAD_REACTORS
330
31
102
}
100
AcDbEntity
  8
0
  6
CONTINUOUS
100
AcDbSpline
210
0.0
220
0.0
230
1.0
 70
     8
 71
     2
 72
     6
 73
     3
 74
     0
 42
0.0000001
 43
0.0000001
 40
0.0
 40
0.0
 40
0.0
 40
1.0
 40
1.0
 40
1.0
 10
117.38575221585559
 20
92.032437494733671
 30
0.0
 10
117.33459674121134
 20
91.953648930611195
 30
0.0
 10
117.3346020930929
 20
91.857468789787958
 30
0.0
  0
SPLINE
  5
91
102
{ACAD_REACTORS
330
31
102
}
100
AcDbEntity
  8
0
  6
CONTINUOUS
100
AcDbSpline
210
0.0
220
0.0
230
1.0
 70
     8
 71
     2
 72
     6
 73
     3
 74
     0
 42
0.0000001
 43
0.0000001
 40
0.0
 40
0.0
 40
0.0
 40
1.0
 40
1.0
 40
1.0
 10
117.3346020930928
 20
91.857468789787958
 30
0.0
 10
117.33461029171494
 20
91.71012908836353
 30
0.0
 10
117.44614439230989
 20
91.611908926026814
 30
0.0
  0
SPLINE
  5
92
102
{ACAD_REACTORS
330
31
102
}
100
AcDbEntity
  8
0
  6
CONTINUOUS
100
AcDbSpline
210
0.0
220
0.0
230
1.0
 70
     8
 71
     2
 72
     6
 73
     3
 74
     0
 42
0.0000001
 43
0.0000001
 40
0.0
 40
0.0
 40
0.0
 40
1.0
 40
1.0
 40
1.0
 10
117.44614439230996
 20
91.611908926026814
 30
0.0
 10
117.55767730081196
 20
91.513688763623776
 30
0.0
 10
117.77254846861591
 20
91.513700719990425
 30
0.0
  0
SPLINE
  5
93
102
{ACAD_REACTORS
330
31
102
}
100
AcDbEntity
  8
0
  6
CONTINUOUS
100
AcDbSpline
210
0.0
220
0.0
230
1.0
 70
     8
 71
     2
 72
     6
 73
     3
 74
     0
 42
0.0000001
 43
0.0000001
 40
0.0
 40
0.0
 40
0.0
 40
1.0
 40
1.0
 40
1.0
 10
117.77254846861589
 20
91.513700719990425
 30
0.0
 10
117.98537162082849
 20
91.513712562396577
 30
0.0
 10
118.15112338034012
 20
91.606832287456001
 30
0.0
  0
SPLINE
  5
94
102
{ACAD_REACTORS
330
31
102
}
100
AcDbEntity
  8
0
  6
CONTINUOUS
100
AcDbSpline
210
0.0
220
0.0
230
1.0
 70
     8
 71
     2
 72
     6
 73
     3
 74
     0
 42
0.0000001
 43
0.0000001
 40
0.0
 40
0.0
 40
0.0
 40
1.0
 40
1.0
 40
1.0
 10
118.15112338034012
 20
91.606832287456001
 30
0.0
 10
118.31687633194454
 20
91.699952012581747
 30
0.0
 10
118.39462993986851
 20
91.861620825312471
 30
0.0
  0
SPLINE
  5
95
102
{ACAD_REACTORS
330
31
102
}
100
AcDbEntity
  8
0
  6
CONTINUOUS
100
AcDbSpline
210
0.0
220
0.0
230
1.0
 70
     8
 71
     2
 72
     6
 73
     3
 74
     0
 42
0.0000001
 43
0.0000001
 40
0.0
 40
0.0
 40
0.0
 40
1.0
 40
1.0
 40
1.0
 10
118.39462993986859
 20
91.861620825312485
 30
0.0
 10
118.45396776224925
 20
91.986453538826993
 30
0.0
 10
118.4539542117621
 20
92.229973083051419
 30
0.0
  0
LINE
  5
96
102
{ACAD_REACTORS
330
31
102
}
100
AcDbEntity
  8
0
  6
CONTINUOUS
100
AcDbLine
 10
118.453954
 20
92.229973
 30
0.0
 11
118.453947
 21
92.365035
 31
0.0
  0
LINE
  5
97
102
{ACAD_REACTORS
330
31
102
}
100
AcDbEntity
  8
0
  6
CONTINUOUS
100
AcDbLine
 10
119.250015
 20
91.92306
 30
0.0
 11
119.614268
 21
91.980379
 31
0.0
  0
SPLINE
  5
98
102
{ACAD_REACTORS
330
31
102
}
100
AcDbEntity
  8
0
  6
CONTINUOUS
100
AcDbSpline
210
0.0
220
0.0
230
1.0
 70
     8
 71
     2
 72
     6
 73
     3
 74
     0
 42
0.0000001
 43
0.0000001
 40
0.0
 40
0.0
 40
0.0
 40
1.0
 40
1.0
 40
1.0
 10
119.61426788005366
 20
91.980378824552488
 30
0.0
 10
119.64497645612107
 20
91.761417505971863
 30
0.0
 10
119.78515995796835
 20
91.644781400571588
 30
0.0
  0
SPLINE
  5
99
102
{ACAD_REACTORS
330
31
102
}
100
AcDbEntity
  8
0
  6
CONTINUOUS
100
AcDbSpline
210
0.0
220
0.0
230
1.0
 70
     8
 71
     2
 72
     6
 73
     3
 74
     0
 42
0.0000001
 43
0.0000001
 40
0.0
 40
0.0
 40
0.0
 40
1.0
 40
1.0
 40
1.0
 10
119.78515995796832
 20
91.644781400571588
 30
0.0
 10
119.92534345983231
 20
91.528144997148104
 30
0.0
 10
120.17704910595748
 20
91.52815900314539
 30
0.0
  0
SPLINE
  5
9A
102
{ACAD_REACTORS
330
31
102
}
100
AcDbEntity
  8
0
  6
CONTINUOUS
100
AcDbSpline
210
0.0
220
0.0
230
1.0
 70
     8
 71
     2
 72
     6
 73
     3
 74
     0
 42
0.0000001
 43
0.0000001
 40
0.0
 40
0.0
 40
0.0
 40
1.0
 40
1.0
 40
1.0
 10
120.17704910595756
 20
91.52815900314539
 30
0.0
 10
120.4308003834883
 20
91.528173122970514
 30
0.0
 10
120.55357781692152
 20
91.631522488112665
 30
0.0
  0
SPLINE
  5
9B
102
{ACAD_REACTORS
330
31
102
}
100
AcDbEntity
  8
0
  6
CONTINUOUS
100
AcDbSpline
210
0.0
220
0.0
230
1.0
 70
     8
 71
     2
 72
     6
 73
     3
 74
     0
 42
0.0000001
 43
0.0000001
 40
0.0
 40
0.0
 40
0.0
 40
1.0
 40
1.0
 40
1.0
 10
120.55357781692155
 20
91.631522488112651
 30
0.0
 10
120.67635525035476
 20
91.734871853254802
 30
0.0
 10
120.67634750720973
 20
91.874026048824888
 30
0.0
  0
SPLINE
  5
9C
102
{ACAD_REACTORS
330
31
102
}
100
AcDbEntity
  8
0
  6
CONTINUOUS
100
AcDbSpline
210
0.0
220
0.0
230
1.0
 70
     8
 71
     2
 72
     6
 73
     3
 74
     0
 42
0.0000001
 43
0.0000001
 40
0.0
 40
0.0
 40
0.0
 40
1.0
 40
1.0
 40
1.0
 10
120.67634750720964
 20
91.874026048824902
 30
0.0
 10
120.67634056115804
 20
91.998855460138302
 30
0.0
 10
120.56787877216624
 20
92.070472750311239
 30
0.0
  0
SPLINE
  5
9D
102
{ACAD_REACTORS
330
31
102
}
100
AcDbEntity
  8
0
  6
CONTINUOUS
100
AcDbSpline
210
0.0
220
0.0
230
1.0
 70
     8
 71
     2
 72
     6
 73
     3
 74
     0
 42
0.0000001
 43
0.0000001
 40
0.0
 40
0.0
 40
0.0
 40
1.0
 40
1.0
 40
1.0
 10
120.56787877216627
 20
92.070472750311239
 30
0.0
 10
120.49216025914572
 20
92.119581870305026
 30
0.0
 10
120.19133617261301
 20
92.195281507565838
 30
0.0
  0
SPLINE
  5
9E
102
{ACAD_REACTORS
330
31
102
}
100
AcDbEntity
  8
0
  6
CONTINUOUS
100
AcDbSpline
210
0.0
220
0.0
230
1.0
 70
     8
 71
     2
 72
     6
 73
     3
 74
     0
 42
0.0000001
 43
0.0000001
 40
0.0
 40
0.0
 40
0.0
 40
1.0
 40
1.0
 40
1.0
 10
120.19133617261292
 20
92.195281507565852
 30
0.0
 10
119.78614764131908
 20
92.297578082632242
 30
0.0
 10
119.62959427000311
 20
92.372262335990982
 30
0.0
  0
SPLINE
  5
9F
102
{ACAD_REACTORS
330
31
102
}
100
AcDbEntity
  8
0
  6
CONTINUOUS
100
AcDbSpline
210
0.0
220
0.0
230
1.0
 70
     8
 71
     2
 72
     6
 73
     3
 74
     0
 42
0.0000001
 43
0.0000001
 40
0.0
 40
0.0
 40
0.0
 40
1.0
 40
1.0
 40
1.0
 10
119.62959427000318
 20
92.372262335990968
 30
0.0
 10
119.47304209078011
 20
92.446946589416044
 30
0.0
 10
119.39220250332467
 20
92.578934193023329
 30
0.0
  0
SPLINE
  5
A0
102
{ACAD_REACTORS
330
31
102
}
100
AcDbEntity
  8
0
  6
CONTINUOUS
100
AcDbSpline
210
0.0
220
0.0
230
1.0
 70
     8
 71
     2
 72
     6
 73
     3
 74
     0
 42
0.0000001
 43
0.0000001
 40
0.0
 40
0.0
 40
0.0
 40
1.0
 40
1.0
 40
1.0
 10
119.39220250332463
 20
92.578934193023343
 30
0.0
 10
119.31136291590238
 20
92.710921200584181
 30
0.0
 10
119.31135403404787
 20
92.87053945881334
 30
0.0
  0
SPLINE
  5
A1
102
{ACAD_REACTORS
330
31
102
}
100
AcDbEntity
  8
0
  6
CONTINUOUS
100
AcDbSpline
210
0.0
220
0.0
230
1.0
 70
     8
 71
     2
 72
     6
 73
     3
 74
     0
 42
0.0000001
 43
0.0000001
 40
0.0
 40
0.0
 40
0.0
 40
1.0
 40
1.0
 40
1.0
 10
119.31135403404788
 20
92.870539458813312
 30
0.0
 10
119.31134594928675
 20
93.01583293278577
 30
0.0
 10
119.37784711481252
 20
93.139642633147474
 30
0.0
  0
SPLINE
  5
A2
102
{ACAD_REACTORS
330
31
102
}
100
AcDbEntity
  8
0
  6
CONTINUOUS
100
AcDbSpline
210
0.0
220
0.0
230
1.0
 70
     8
 71
     2
 72
     6
 73
     3
 74
     0
 42
0.0000001
 43
0.0000001
 40
0.0
 40
0.0
 40
0.0
 40
1.0
 40
1.0
 40
1.0
 10
119.37784711481251
 20
93.139642633147474
 30
0.0
 10
119.44434708822874
 20
93.26345263146608
 30
0.0
 10
119.55894080749411
 20
93.345314364779199
 30
0.0
  0
SPLINE
  5
A3
102
{ACAD_REACTORS
330
31
102
}
100
AcDbEntity
  8
0
  6
CONTINUOUS
100
AcDbSpline
210
0.0
220
0.0
230
1.0
 70
     8
 71
     2
 72
     6
 73
     3
 74
     0
 42
0.0000001
 43
0.0000001
 40
0.0
 40
0.0
 40
0.0
 40
1.0
 40
1.0
 40
1.0
 10
119.55894080749421
 20
93.345314364779185
 30
0.0
 10
119.64488479098516
 20
93.408756966655474
 30
0.0
 10
119.79324545594831
 20
93.452762688720668
 30
0.0
  0
SPLINE
  5
A4
102
{ACAD_REACTORS
330
31
102
}
100
AcDbEntity
  8
0
  6
CONTINUOUS
100
AcDbSpline
210
0.0
220
0.0
230
1.0
 70
     8
 71
     2
 72
     6
 73
     3
 74
     0
 42
0.0000001
 43
0.0000001
 40
0.0
 40
0.0
 40
0.0
 40
1.0
 40
1.0
 40
1.0
 10
119.79324545594825
 20
93.452762688720668
 30
0.0
 10
119.94160612091135
 20
93.496768410785862
 30
0.0
 10
120.1114555164004
 20
93.496777861945219
 30
0.0
  0
SPLINE
  5
A5
102
{ACAD_REACTORS
330
31
102
}
100
AcDbEntity
  8
0
  6
CONTINUOUS
100
AcDbSpline
210
0.0
220
0.0
230
1.0
 70
     8
 71
     2
 72
     6
 73
     3
 74
     0
 42
0.0000001
 43
0.0000001
 40
0.0
 40
0.0
 40
0.0
 40
1.0
 40
1.0
 40
1.0
 10
120.11145551640035
 20
93.496777861945205
 30
0.0
 10
120.36725361742944
 20
93.496792095664503
 30
0.0
 10
120.56064141015284
 20
93.423132707639155
 30
0.0
  0
SPLINE
  5
A6
102
{ACAD_REACTORS
330
31
102
}
100
AcDbEntity
  8
0
  6
CONTINUOUS
100
AcDbSpline
210
0.0
220
0.0
230
1.0
 70
     8
 71
     2
 72
     6
 73
     3
 74
     0
 42
0.0000001
 43
0.0000001
 40
0.0
 40
0.0
 40
0.0
 40
1.0
 40
1.0
 40
1.0
 10
120.56064141015287
 20
93.423132707639169
 30
0.0
 10
120.75402801075012
 20
93.349473915593933
 30
0.0
 10
120.84612299769134
 20
93.223626216707416
 30
0.0
  0
SPLINE
  5
A7
102
{ACAD_REACTORS
330
31
102
}
100
AcDbEntity
  8
0
  6
CONTINUOUS
100
AcDbSpline
210
0.0
220
0.0
230
1.0
 70
     8
 71
     2
 72
     6
 73
     3
 74
     0
 42
0.0000001
 43
0.0000001
 40
0.0
 40
0.0
 40
0.0
 40
1.0
 40
1.0
 40
1.0
 10
120.84612299769132
 20
93.223626216707416
 30
0.0
 10
120.93821798463254
 20
93.097778517820899
 30
0.0
 10
120.97301736803392
 20
92.887002932750264
 30
0.0
  0
LINE
  5
A8
102
{ACAD_REACTORS
330
31
102
}
100
AcDbEntity
  8
0
  6
CONTINUOUS
100
AcDbLine
 10
120.973017
 20
92.887003
 30
0.0
 11
120.612857
 21
92.83787
 31
0.0
  0
SPLINE
  5
A9
102
{ACAD_REACTORS
330
31
102
}
100
AcDbEntity
  8
0
  6
CONTINUOUS
100
AcDbSpline
210
0.0
220
0.0
230
1.0
 70
     8
 71
     2
 72
     6
 73
     3
 74
     0
 42
0.0000001
 43
0.0000001
 40
0.0
 40
0.0
 40
0.0
 40
1.0
 40
1.0
 40
1.0
 10
120.61285665121339
 20
92.837869856562904
 30
0.0
 10
120.58829020030548
 20
93.005671658135284
 30
0.0
 10
120.47061824112306
 20
93.099799024018225
 30
0.0
  0
SPLINE
  5
AA
102
{ACAD_REACTORS
330
31
102
}
100
AcDbEntity
  8
0
  6
CONTINUOUS
100
AcDbSpline
210
0.0
220
0.0
230
1.0
 70
     8
 71
     2
 72
     6
 73
     3
 74
     0
 42
0.0000001
 43
0.0000001
 40
0.0
 40
0.0
 40
0.0
 40
1.0
 40
1.0
 40
1.0
 10
120.47061824112305
 20
93.099799024018225
 30
0.0
 10
120.35294508984774
 20
93.193926389834843
 30
0.0
 10
120.13807511413674
 20
93.19391443353453
 30
0.0
  0
SPLINE
  5
AB
102
{ACAD_REACTORS
330
31
102
}
100
AcDbEntity
  8
0
  6
CONTINUOUS
100
AcDbSpline
210
0.0
220
0.0
230
1.0
 70
     8
 71
     2
 72
     6
 73
     3
 74
     0
 42
0.0000001
 43
0.0000001
 40
0.0
 40
0.0
 40
0.0
 40
1.0
 40
1.0
 40
1.0
 10
120.13807511413674
 20
93.19391443353453
 30
0.0
 10
119.884323836606
 20
93.193900313709406
 30
0.0
 10
119.77586950962066
 20
93.109992396537251
 30
0.0
  0
SPLINE
  5
AC
102
{ACAD_REACTORS
330
31
102
}
100
AcDbEntity
  8
0
  6
CONTINUOUS
100
AcDbSpline
210
0.0
220
0.0
230
1.0
 70
     8
 71
     2
 72
     6
 73
     3
 74
     0
 42
0.0000001
 43
0.0000001
 40
0.0
 40
0.0
 40
0.0
 40
1.0
 40
1.0
 40
1.0
 10
119.77586950962063
 20
93.109992396537251
 30
0.0
 10
119.66741637472813
 20
93.026084479431432
 30
0.0
 10
119.66742263756396
 20
92.913533326899525
 30
0.0
  0
SPLINE
  5
AD
102
{ACAD_REACTORS
330
31
102
}
100
AcDbEntity
  8
0
  6
CONTINUOUS
100
AcDbSpline
210
0.0
220
0.0
230
1.0
 70
     8
 71
     2
 72
     6
 73
     3
 74
     0
 42
0.0000001
 43
0.0000001
 40
0.0
 40
0.0
 40
0.0
 40
1.0
 40
1.0
 40
1.0
 10
119.66742263756403
 20
92.913533326899554
 30
0.0
 10
119.66742662301415
 20
92.841909703639317
 30
0.0
 10
119.71245039157635
 20
92.78461366779996
 30
0.0
  0
SPLINE
  5
AE
102
{ACAD_REACTORS
330
31
102
}
100
AcDbEntity
  8
0
  6
CONTINUOUS
100
AcDbSpline
210
0.0
220
0.0
230
1.0
 70
     8
 71
     2
 72
     6
 73
     3
 74
     0
 42
0.0000001
 43
0.0000001
 40
0.0
 40
0.0
 40
0.0
 40
1.0
 40
1.0
 40
1.0
 10
119.71245039157634
 20
92.784613667799931
 30
0.0
 10
119.75747308193985
 20
92.725270808395805
 30
0.0
 10
119.85365568431109
 20
92.686394858474202
 30
0.0
  0
SPLINE
  5
AF
102
{ACAD_REACTORS
330
31
102
}
100
AcDbEntity
  8
0
  6
CONTINUOUS
100
AcDbSpline
210
0.0
220
0.0
230
1.0
 70
     8
 71
     2
 72
     6
 73
     3
 74
     0
 42
0.0000001
 43
0.0000001
 40
0.0
 40
0.0
 40
0.0
 40
1.0
 40
1.0
 40
1.0
 10
119.85365568431112
 20
92.686394858474216
 30
0.0
 10
119.9089103286253
 20
92.665934168383842
 30
0.0
 10
120.17903671717576
 20
92.592279348451086
 30
0.0
  0
SPLINE
  5
B0
102
{ACAD_REACTORS
330
31
102
}
100
AcDbEntity
  8
0
  6
CONTINUOUS
100
AcDbSpline
210
0.0
220
0.0
230
1.0
 70
     8
 71
     2
 72
     6
 73
     3
 74
     0
 42
0.0000001
 43
0.0000001
 40
0.0
 40
0.0
 40
0.0
 40
1.0
 40
1.0
 40
1.0
 10
120.17903671717573
 20
92.592279348451072
 30
0.0
 10
120.56990236622977
 20
92.487935450915671
 30
0.0
 10
120.72440845857017
 20
92.4214365895171
 30
0.0
  0
SPLINE
  5
B1
102
{ACAD_REACTORS
330
31
102
}
100
AcDbEntity
  8
0
  6
CONTINUOUS
100
AcDbSpline
210
0.0
220
0.0
230
1.0
 70
     8
 71
     2
 72
     6
 73
     3
 74
     0
 42
0.0000001
 43
0.0000001
 40
0.0
 40
0.0
 40
0.0
 40
1.0
 40
1.0
 40
1.0
 10
120.72440845857014
 20
92.4214365895171
 30
0.0
 10
120.87891335883418
 20
92.354937430028968
 30
0.0
 10
120.9669147556925
 20
92.228066687651364
 30
0.0
  0
SPLINE
  5
B2
102
{ACAD_REACTORS
330
31
102
}
100
AcDbEntity
  8
0
  6
CONTINUOUS
100
AcDbSpline
210
0.0
220
0.0
230
1.0
 70
     8
 71
     2
 72
     6
 73
     3
 74
     0
 42
0.0000001
 43
0.0000001
 40
0.0
 40
0.0
 40
0.0
 40
1.0
 40
1.0
 40
1.0
 10
120.96691475569256
 20
92.228066687651364
 30
0.0
 10
121.05491734466042
 20
92.101195647316871
 30
0.0
 10
121.05492782068492
 20
91.912928118597563
 30
0.0
  0
SPLINE
  5
B3
102
{ACAD_REACTORS
330
31
102
}
100
AcDbEntity
  8
0
  6
CONTINUOUS
100
AcDbSpline
210
0.0
220
0.0
230
1.0
 70
     8
 71
     2
 72
     6
 73
     3
 74
     0
 42
0.0000001
 43
0.0000001
 40
0.0
 40
0.0
 40
0.0
 40
1.0
 40
1.0
 40
1.0
 10
121.05492782068485
 20
91.912928118597549
 30
0.0
 10
121.05493806895426
 20
91.728753640828629
 30
0.0
 10
120.9475109416518
 20
91.566060063205029
 30
0.0
  0
SPLINE
  5
B4
102
{ACAD_REACTORS
330
31
102
}
100
AcDbEntity
  8
0
  6
CONTINUOUS
100
AcDbSpline
210
0.0
220
0.0
230
1.0
 70
     8
 71
     2
 72
     6
 73
     3
 74
     0
 42
0.0000001
 43
0.0000001
 40
0.0
 40
0.0
 40
0.0
 40
1.0
 40
1.0
 40
1.0
 10
120.94751094165187
 20
91.566060063205029
 30
0.0
 10
120.84008500642571
 20
91.403366783671004
 30
0.0
 10
120.6374973487614
 20
91.314337761841784
 30
0.0
  0
SPLINE
  5
B5
102
{ACAD_REACTORS
330
31
102
}
100
AcDbEntity
  8
0
  6
CONTINUOUS
100
AcDbSpline
210
0.0
220
0.0
230
1.0
 70
     8
 71
     2
 72
     6
 73
     3
 74
     0
 42
0.0000001
 43
0.0000001
 40
0.0
 40
0.0
 40
0.0
 40
1.0
 40
1.0
 40
1.0
 10
120.63749734876146
 20
91.31433776184177
 30
0.0
 10
120.43491088319004
 20
91.225308740078873
 30
0.0
 10
120.17911278216084
 20
91.225294506359589
 30
0.0
  0
SPLINE
  5
B6
102
{ACAD_REACTORS
330
31
102
}
100
AcDbEntity
  8
0
  6
CONTINUOUS
100
AcDbSpline
210
0.0
220
0.0
230
1.0
 70
     8
 71
     2
 72
     6
 73
     3
 74
     0
 42
0.0000001
 43
0.0000001
 40
0.0
 40
0.0
 40
0.0
 40
1.0
 40
1.0
 40
1.0
 10
120.1791127821607
 20
91.225294506359603
 30
0.0
 10
119.75551091704813
 20
91.225270935308785
 30
0.0
 10
119.5334690544563
 20
91.40124725436975
 30
0.0
  0
SPLINE
  5
B7
102
{ACAD_REACTORS
330
31
102
}
100
AcDbEntity
  8
0
  6
CONTINUOUS
100
AcDbSpline
210
0.0
220
0.0
230
1.0
 70
     8
 71
     2
 72
     6
 73
     3
 74
     0
 42
0.0000001
 43
0.0000001
 40
0.0
 40
0.0
 40
0.0
 40
1.0
 40
1.0
 40
1.0
 10
119.53346905445633
 20
91.401247254369764
 30
0.0
 10
119.31142599973847
 20
91.577224169410826
 30
0.0
 10
119.25001516382289
 20
91.923059716765593
 30
0.0
  0
LINE
  5
B8
102
{ACAD_REACTORS
330
31
102
}
100
AcDbEntity
  8
0
  6
CONTINUOUS
100
AcDbLine
 10
122.980572
 20
91.974427
 30
0.0
 11
123.361201
 21
91.927381
 31
0.0
  0
SPLINE
  5
B9
102
{ACAD_REACTORS
330
31
102
}
100
AcDbEntity
  8
0
  6
CONTINUOUS
100
AcDbSpline
210
0.0
220
0.0
230
1.0
 70
     8
 71
     2
 72
     6
 73
     3
 74
     0
 42
0.0000001
 43
0.0000001
 40
0.0
 40
0.0
 40
0.0
 40
1.0
 40
1.0
 40
1.0
 10
123.36120119566509
 20
91.92738123398351
 30
0.0
 10
123.27117978808296
 20
91.593815519099365
 30
0.0
 10
123.02766930005161
 20
91.409627192753945
 30
0.0
  0
SPLINE
  5
BA
102
{ACAD_REACTORS
330
31
102
}
100
AcDbEntity
  8
0
  6
CONTINUOUS
100
AcDbSpline
210
0.0
220
0.0
230
1.0
 70
     8
 71
     2
 72
     6
 73
     3
 74
     0
 42
0.0000001
 43
0.0000001
 40
0.0
 40
0.0
 40
0.0
 40
1.0
 40
1.0
 40
1.0
 10
123.02766930005166
 20
91.409627192753931
 30
0.0
 10
122.78416000408006
 20
91.225439462521251
 30
0.0
 10
122.40557871918944
 20
91.225418396611403
 30
0.0
  0
SPLINE
  5
BB
102
{ACAD_REACTORS
330
31
102
}
100
AcDbEntity
  8
0
  6
CONTINUOUS
100
AcDbSpline
210
0.0
220
0.0
230
1.0
 70
     8
 71
     2
 72
     6
 73
     3
 74
     0
 42
0.0000001
 43
0.0000001
 40
0.0
 40
0.0
 40
0.0
 40
1.0
 40
1.0
 40
1.0
 10
122.40557871918935
 20
91.225418396611417
 30
0.0
 10
121.92877136404678
 20
91.225391864975649
 30
0.0
 10
121.64942381690668
 20
91.519032312871587
 30
0.0
  0
SPLINE
  5
BC
102
{ACAD_REACTORS
330
31
102
}
100
AcDbEntity
  8
0
  6
CONTINUOUS
100
AcDbSpline
210
0.0
220
0.0
230
1.0
 70
     8
 71
     2
 72
     6
 73
     3
 74
     0
 42
0.0000001
 43
0.0000001
 40
0.0
 40
0.0
 40
0.0
 40
1.0
 40
1.0
 40
1.0
 10
121.64942381690668
 20
91.519032312871587
 30
0.0
 10
121.37007507765708
 20
91.812673058724428
 30
0.0
 10
121.37004558538621
 20
92.342686797966607
 30
0.0
  0
SPLINE
  5
BD
102
{ACAD_REACTORS
330
31
102
}
100
AcDbEntity
  8
0
  6
CONTINUOUS
100
AcDbSpline
210
0.0
220
0.0
230
1.0
 70
     8
 71
     2
 72
     6
 73
     3
 74
     0
 42
0.0000001
 43
0.0000001
 40
0.0
 40
0.0
 40
0.0
 40
1.0
 40
1.0
 40
1.0
 10
121.37004558538618
 20
92.342686797966621
 30
0.0
 10
121.37001506830005
 20
92.891117776369413
 30
0.0
 10
121.65240025369903
 20
93.193998697173924
 30
0.0
  0
SPLINE
  5
BE
102
{ACAD_REACTORS
330
31
102
}
100
AcDbEntity
  8
0
  6
CONTINUOUS
100
AcDbSpline
210
0.0
220
0.0
230
1.0
 70
     8
 71
     2
 72
     6
 73
     3
 74
     0
 42
0.0000001
 43
0.0000001
 40
0.0
 40
0.0
 40
0.0
 40
1.0
 40
1.0
 40
1.0
 10
121.65240025369908
 20
93.193998697173939
 30
0.0
 10
121.93478424702184
 20
93.496879319888876
 30
0.0
 10
122.38498885714941
 20
93.496904371232176
 30
0.0
  0
SPLINE
  5
BF
102
{ACAD_REACTORS
330
31
102
}
100
AcDbEntity
  8
0
  6
CONTINUOUS
100
AcDbSpline
210
0.0
220
0.0
230
1.0
 70
     8
 71
     2
 72
     6
 73
     3
 74
     0
 42
0.0000001
 43
0.0000001
 40
0.0
 40
0.0
 40
0.0
 40
1.0
 40
1.0
 40
1.0
 10
122.38498885714932
 20
93.496904371232176
 30
0.0
 10
122.82086808697375
 20
93.496928625448973
 30
0.0
 10
123.09714735783029
 20
93.200218069586867
 30
0.0
  0
SPLINE
  5
C0
102
{ACAD_REACTORS
330
31
102
}
100
AcDbEntity
  8
0
  6
CONTINUOUS
100
AcDbSpline
210
0.0
220
0.0
230
1.0
 70
     8
 71
     2
 72
     6
 73
     3
 74
     0
 42
0.0000001
 43
0.0000001
 40
0.0
 40
0.0
 40
0.0
 40
1.0
 40
1.0
 40
1.0
 10
123.09714735783029
 20
93.200218069586853
 30
0.0
 10
123.37342543659395
 20
92.903507513658411
 30
0.0
 10
123.37345538434192
 20
92.365308268561904
 30
0.0
  0
SPLINE
  5
C1
102
{ACAD_REACTORS
330
31
102
}
100
AcDbEntity
  8
0
  6
CONTINUOUS
100
AcDbSpline
210
0.0
220
0.0
230
1.0
 70
     8
 71
     2
 72
     6
 73
     3
 74
     0
 42
0.0000001
 43
0.0000001
 40
0.0
 40
0.0
 40
0.0
 40
1.0
 40
1.0
 40
1.0
 10
123.37345538434192
 20
92.365308268561918
 30
0.0
 10
123.37345720625058
 20
92.332566245144605
 30
0.0
 10
123.37141402658608
 20
92.267081786392552
 30
0.0
  0
LINE
  5
C2
102
{ACAD_REACTORS
330
31
102
}
100
AcDbEntity
  8
0
  6
CONTINUOUS
100
AcDbLine
 10
123.371414
 20
92.267082
 30
0.0
 11
121.750678
 21
92.266992
 31
0.0
  0
SPLINE
  5
C3
102
{ACAD_REACTORS
330
31
102
}
100
AcDbEntity
  8
0
  6
CONTINUOUS
100
AcDbSpline
210
0.0
220
0.0
230
1.0
 70
     8
 71
     2
 72
     6
 73
     3
 74
     0
 42
0.0000001
 43
0.0000001
 40
0.0
 40
0.0
 40
0.0
 40
1.0
 40
1.0
 40
1.0
 10
121.75067790696389
 20
92.266991601583243
 30
0.0
 10
121.77116130077709
 20
91.908875518028026
 30
0.0
 10
121.95329984295634
 20
91.71857189624842
 30
0.0
  0
SPLINE
  5
C4
102
{ACAD_REACTORS
330
31
102
}
100
AcDbEntity
  8
0
  6
CONTINUOUS
100
AcDbSpline
210
0.0
220
0.0
230
1.0
 70
     8
 71
     2
 72
     6
 73
     3
 74
     0
 42
0.0000001
 43
0.0000001
 40
0.0
 40
0.0
 40
0.0
 40
1.0
 40
1.0
 40
1.0
 10
121.95329984295633
 20
91.718571896248392
 30
0.0
 10
122.13543957724501
 20
91.528267976511913
 30
0.0
 10
122.40760868998287
 20
91.52828312118551
 30
0.0
  0
SPLINE
  5
C5
102
{ACAD_REACTORS
330
31
102
}
100
AcDbEntity
  8
0
  6
CONTINUOUS
100
AcDbSpline
210
0.0
220
0.0
230
1.0
 70
     8
 71
     2
 72
     6
 73
     3
 74
     0
 42
0.0000001
 43
0.0000001
 40
0.0
 40
0.0
 40
0.0
 40
1.0
 40
1.0
 40
1.0
 10
122.40760868998282
 20
91.528283121185538
 30
0.0
 10
122.61020130098203
 20
91.528294394319872
 30
0.0
 10
122.75344203021982
 20
91.634714537339519
 30
0.0
  0
SPLINE
  5
C6
102
{ACAD_REACTORS
330
31
102
}
100
AcDbEntity
  8
0
  6
CONTINUOUS
100
AcDbSpline
210
0.0
220
0.0
230
1.0
 70
     8
 71
     2
 72
     6
 73
     3
 74
     0
 42
0.0000001
 43
0.0000001
 40
0.0
 40
0.0
 40
0.0
 40
1.0
 40
1.0
 40
1.0
 10
122.7534420302199
 20
91.634714537339519
 30
0.0
 10
122.89668275947417
 20
91.741134382335943
 30
0.0
 10
122.98057166036693
 20
91.974426861919838
 30
0.0
  0
LINE
  5
C7
102
{ACAD_REACTORS
330
31
102
}
100
AcDbEntity
  8
0
  6
CONTINUOUS
100
AcDbLine
 10
121.771125
 20
92.569858
 30
0.0
 11
122.984631
 21
92.569925
 31
0.0
  0
SPLINE
  5
C8
102
{ACAD_REACTORS
330
31
102
}
100
AcDbEntity
  8
0
  6
CONTINUOUS
100
AcDbSpline
210
0.0
220
0.0
230
1.0
 70
     8
 71
     2
 72
     6
 73
     3
 74
     0
 42
0.0000001
 43
0.0000001
 40
0.0
 40
0.0
 40
0.0
 40
1.0
 40
1.0
 40
1.0
 10
122.98463097916613
 20
92.569925173741879
 30
0.0
 10
122.96005979909819
 20
92.844139445556578
 30
0.0
 10
122.84545389577727
 20
92.981240738904916
 30
0.0
  0
SPLINE
  5
C9
102
{ACAD_REACTORS
330
31
102
}
100
AcDbEntity
  8
0
  6
CONTINUOUS
100
AcDbSpline
210
0.0
220
0.0
230
1.0
 70
     8
 71
     2
 72
     6
 73
     3
 74
     0
 42
0.0000001
 43
0.0000001
 40
0.0
 40
0.0
 40
0.0
 40
1.0
 40
1.0
 40
1.0
 10
122.84545389577727
 20
92.981240738904916
 30
0.0
 10
122.66945337941331
 20
93.194055290434918
 30
0.0
 10
122.38909816477474
 20
93.194039690250975
 30
0.0
  0
SPLINE
  5
CA
102
{ACAD_REACTORS
330
31
102
}
100
AcDbEntity
  8
0
  6
CONTINUOUS
100
AcDbSpline
210
0.0
220
0.0
230
1.0
 70
     8
 71
     2
 72
     6
 73
     3
 74
     0
 42
0.0000001
 43
0.0000001
 40
0.0
 40
0.0
 40
0.0
 40
1.0
 40
1.0
 40
1.0
 10
122.38909816477475
 20
93.194039690251003
 30
0.0
 10
122.13534688724401
 20
93.194025570425879
 30
0.0
 10
121.96243730374648
 20
93.024165956922985
 30
0.0
  0
SPLINE
  5
CB
102
{ACAD_REACTORS
330
31
102
}
100
AcDbEntity
  8
0
  6
CONTINUOUS
100
AcDbSpline
210
0.0
220
0.0
230
1.0
 70
     8
 71
     2
 72
     6
 73
     3
 74
     0
 42
0.0000001
 43
0.0000001
 40
0.0
 40
0.0
 40
0.0
 40
1.0
 40
1.0
 40
1.0
 10
121.96243730374658
 20
93.024165956922971
 30
0.0
 10
121.7895265281561
 20
92.854306343353755
 30
0.0
 10
121.7711245208551
 20
92.56985764896271
 30
0.0
  0
LWPOLYLINE
  5
CC
102
{ACAD_REACTORS
330
31
102
}
100
AcDbEntity
  8
0
  6
CONTINUOUS
100
AcDbPolyline
 90
        5
 70
     0
 10
124.844797
 20
92.545472
 10
124.844817
 20
92.175076
 10
125.976469
 20
92.175139
 10
125.976448
 20
92.545535
 10
124.844797
 20
92.545472
  0
LINE
  5
CD
102
{ACAD_REACTORS
330
31
102
}
100
AcDbEntity
  8
0
  6
CONTINUOUS
100
AcDbLine
 10
127.460092
 20
92.23866
 30
0.0
 11
127.834579
 21
92.271423
 31
0.0
  0
SPLINE
  5
CE
102
{ACAD_REACTORS
330
31
102
}
100
AcDbEntity
  8
0
  6
CONTINUOUS
100
AcDbSpline
210
0.0
220
0.0
230
1.0
 70
     8
 71
     2
 72
     6
 73
     3
 74
     0
 42
0.0000001
 43
0.0000001
 40
0.0
 40
0.0
 40
0.0
 40
1.0
 40
1.0
 40
1.0
 10
127.83457859830398
 20
92.271422889227836
 30
0.0
 10
127.86119386899068
 20
92.046322064456518
 30
0.0
 10
127.9584051513539
 20
91.902057411045263
 30
0.0
  0
SPLINE
  5
CF
102
{ACAD_REACTORS
330
31
102
}
100
AcDbEntity
  8
0
  6
CONTINUOUS
100
AcDbSpline
210
0.0
220
0.0
230
1.0
 70
     8
 71
     2
 72
     6
 73
     3
 74
     0
 42
0.0000001
 43
0.0000001
 40
0.0
 40
0.0
 40
0.0
 40
1.0
 40
1.0
 40
1.0
 10
127.95840515135379
 20
91.902057411045291
 30
0.0
 10
128.05561643373372
 20
91.757792459610826
 30
0.0
 10
128.26026082156622
 20
91.668786097944434
 30
0.0
  0
SPLINE
  5
D0
102
{ACAD_REACTORS
330
31
102
}
100
AcDbEntity
  8
0
  6
CONTINUOUS
100
AcDbSpline
210
0.0
220
0.0
230
1.0
 70
     8
 71
     2
 72
     6
 73
     3
 74
     0
 42
0.0000001
 43
0.0000001
 40
0.0
 40
0.0
 40
0.0
 40
1.0
 40
1.0
 40
1.0
 10
128.26026082156631
 20
91.66878609794442
 30
0.0
 10
128.46490520938227
 20
91.579780034301251
 30
0.0
 10
128.72070211831857
 20
91.579794267954213
 30
0.0
  0
SPLINE
  5
D1
102
{ACAD_REACTORS
330
31
102
}
100
AcDbEntity
  8
0
  6
CONTINUOUS
100
AcDbSpline
210
0.0
220
0.0
230
1.0
 70
     8
 71
     2
 72
     6
 73
     3
 74
     0
 42
0.0000001
 43
0.0000001
 40
0.0
 40
0.0
 40
0.0
 40
1.0
 40
1.0
 40
1.0
 10
128.72070211831854
 20
91.579794267954199
 30
0.0
 10
128.94785065083428
 20
91.579806907486841
 30
0.0
 10
129.12178993562529
 20
91.647347158744381
 30
0.0
  0
SPLINE
  5
D2
102
{ACAD_REACTORS
330
31
102
}
100
AcDbEntity
  8
0
  6
CONTINUOUS
100
AcDbSpline
210
0.0
220
0.0
230
1.0
 70
     8
 71
     2
 72
     6
 73
     3
 74
     0
 42
0.0000001
 43
0.0000001
 40
0.0
 40
0.0
 40
0.0
 40
1.0
 40
1.0
 40
1.0
 10
129.12178993562534
 20
91.647347158744395
 30
0.0
 10
129.29572922041618
 20
91.714887410001936
 30
0.0
 10
129.38064737063914
 20
91.832559452789894
 30
0.0
  0
SPLINE
  5
D3
102
{ACAD_REACTORS
330
31
102
}
100
AcDbEntity
  8
0
  6
CONTINUOUS
100
AcDbSpline
210
0.0
220
0.0
230
1.0
 70
     8
 71
     2
 72
     6
 73
     3
 74
     0
 42
0.0000001
 43
0.0000001
 40
0.0
 40
0.0
 40
0.0
 40
1.0
 40
1.0
 40
1.0
 10
129.38064737063902
 20
91.83255945278988
 30
0.0
 10
129.46556552087853
 20
91.950231197554615
 30
0.0
 10
129.46555777773361
 20
92.089385393124701
 30
0.0
  0
SPLINE
  5
D4
102
{ACAD_REACTORS
330
31
102
}
100
AcDbEntity
  8
0
  6
CONTINUOUS
100
AcDbSpline
210
0.0
220
0.0
230
1.0
 70
     8
 71
     2
 72
     6
 73
     3
 74
     0
 42
0.0000001
 43
0.0000001
 40
0.0
 40
0.0
 40
0.0
 40
1.0
 40
1.0
 40
1.0
 10
129.46555777773366
 20
92.089385393124715
 30
0.0
 10
129.46554992072768
 20
92.230585816146785
 30
0.0
 10
129.38369018997142
 20
92.335970319868295
 30
0.0
  0
SPLINE
  5
D5
102
{ACAD_REACTORS
330
31
102
}
100
AcDbEntity
  8
0
  6
CONTINUOUS
100
AcDbSpline
210
0.0
220
0.0
230
1.0
 70
     8
 71
     2
 72
     6
 73
     3
 74
     0
 42
0.0000001
 43
0.0000001
 40
0.0
 40
0.0
 40
0.0
 40
1.0
 40
1.0
 40
1.0
 10
129.3836901899713
 20
92.335970319868281
 30
0.0
 10
129.3018280750459
 20
92.441354525433908
 30
0.0
 10
129.11355685891633
 20
92.512967374663077
 30
0.0
  0
SPLINE
  5
D6
102
{ACAD_REACTORS
330
31
102
}
100
AcDbEntity
  8
0
  6
CONTINUOUS
100
AcDbSpline
210
0.0
220
0.0
230
1.0
 70
     8
 71
     2
 72
     6
 73
     3
 74
     0
 42
0.0000001
 43
0.0000001
 40
0.0
 40
0.0
 40
0.0
 40
1.0
 40
1.0
 40
1.0
 10
129.11355685891635
 20
92.512967374663077
 30
0.0
 10
128.99281668744192
 20
92.560027761997588
 30
0.0
 10
128.57944341714824
 20
92.659254242418797
 30
0.0
  0
SPLINE
  5
D7
102
{ACAD_REACTORS
330
31
102
}
100
AcDbEntity
  8
0
  6
CONTINUOUS
100
AcDbSpline
210
0.0
220
0.0
230
1.0
 70
     8
 71
     2
 72
     6
 73
     3
 74
     0
 42
0.0000001
 43
0.0000001
 40
0.0
 40
0.0
 40
0.0
 40
1.0
 40
1.0
 40
1.0
 10
128.5794434171483
 20
92.659254242418797
 30
0.0
 10
128.16606776265235
 20
92.758481020730557
 30
0.0
 10
128.00030473356998
 20
92.846466432195768
 30
0.0
  0
SPLINE
  5
D8
102
{ACAD_REACTORS
330
31
102
}
100
AcDbEntity
  8
0
  6
CONTINUOUS
100
AcDbSpline
210
0.0
220
0.0
230
1.0
 70
     8
 71
     2
 72
     6
 73
     3
 74
     0
 42
0.0000001
 43
0.0000001
 40
0.0
 40
0.0
 40
0.0
 40
1.0
 40
1.0
 40
1.0
 10
128.00030473356989
 20
92.846466432195768
 30
0.0
 10
127.78542611085376
 20
92.959005330271452
 30
0.0
 10
127.68003105029791
 20
93.125779818482386
 30
0.0
  0
SPLINE
  5
D9
102
{ACAD_REACTORS
330
31
102
}
100
AcDbEntity
  8
0
  6
CONTINUOUS
100
AcDbSpline
210
0.0
220
0.0
230
1.0
 70
     8
 71
     2
 72
     6
 73
     3
 74
     0
 42
0.0000001
 43
0.0000001
 40
0.0
 40
0.0
 40
0.0
 40
1.0
 40
1.0
 40
1.0
 10
127.68003105029803
 20
93.125779818482371
 30
0.0
 10
127.57463122137059
 20
93.292554306427974
 30
0.0
 10
127.57461972051405
 20
93.499239372331147
 30
0.0
  0
SPLINE
  5
DA
102
{ACAD_REACTORS
330
31
102
}
100
AcDbEntity
  8
0
  6
CONTINUOUS
100
AcDbSpline
210
0.0
220
0.0
230
1.0
 70
     8
 71
     2
 72
     6
 73
     3
 74
     0
 42
0.0000001
 43
0.0000001
 40
0.0
 40
0.0
 40
0.0
 40
1.0
 40
1.0
 40
1.0
 10
127.57461972051397
 20
93.499239372331175
 30
0.0
 10
127.57460708096465
 20
93.726388202870183
 30
0.0
 10
127.70351855481283
 20
93.92387122695331
 30
0.0
  0
SPLINE
  5
DB
102
{ACAD_REACTORS
330
31
102
}
100
AcDbEntity
  8
0
  6
CONTINUOUS
100
AcDbSpline
210
0.0
220
0.0
230
1.0
 70
     8
 71
     2
 72
     6
 73
     3
 74
     0
 42
0.0000001
 43
0.0000001
 40
0.0
 40
0.0
 40
0.0
 40
1.0
 40
1.0
 40
1.0
 10
127.70351855481289
 20
93.923871226953281
 30
0.0
 10
127.83243002864447
 20
94.121354549059632
 30
0.0
 10
128.08003633427512
 20
94.223687746494193
 30
0.0
  0
SPLINE
  5
DC
102
{ACAD_REACTORS
330
31
102
}
100
AcDbEntity
  8
0
  6
CONTINUOUS
100
AcDbSpline
210
0.0
220
0.0
230
1.0
 70
     8
 71
     2
 72
     6
 73
     3
 74
     0
 42
0.0000001
 43
0.0000001
 40
0.0
 40
0.0
 40
0.0
 40
1.0
 40
1.0
 40
1.0
 10
128.08003633427512
 20
94.223687746494193
 30
0.0
 10
128.32764263992232
 20
94.326020645905515
 30
0.0
 10
128.63051052885777
 20
94.326037498792601
 30
0.0
  0
SPLINE
  5
DD
102
{ACAD_REACTORS
330
31
102
}
100
AcDbEntity
  8
0
  6
CONTINUOUS
100
AcDbSpline
210
0.0
220
0.0
230
1.0
 70
     8
 71
     2
 72
     6
 73
     3
 74
     0
 42
0.0000001
 43
0.0000001
 40
0.0
 40
0.0
 40
0.0
 40
1.0
 40
1.0
 40
1.0
 10
128.63051052885777
 20
94.326037498792601
 30
0.0
 10
128.9640676572476
 20
94.3260560593625
 30
0.0
 10
129.21885011283365
 20
94.218634950355465
 30
0.0
  0
SPLINE
  5
DE
102
{ACAD_REACTORS
330
31
102
}
100
AcDbEntity
  8
0
  6
CONTINUOUS
100
AcDbSpline
210
0.0
220
0.0
230
1.0
 70
     8
 71
     2
 72
     6
 73
     3
 74
     0
 42
0.0000001
 43
0.0000001
 40
0.0
 40
0.0
 40
0.0
 40
1.0
 40
1.0
 40
1.0
 10
129.21885011283356
 20
94.218634950355451
 30
0.0
 10
129.47363256840313
 20
94.111214139371626
 30
0.0
 10
129.61074917100646
 20
93.902490475134542
 30
0.0
  0
SPLINE
  5
DF
102
{ACAD_REACTORS
330
31
102
}
100
AcDbEntity
  8
0
  6
CONTINUOUS
100
AcDbSpline
210
0.0
220
0.0
230
1.0
 70
     8
 71
     2
 72
     6
 73
     3
 74
     0
 42
0.0000001
 43
0.0000001
 40
0.0
 40
0.0
 40
0.0
 40
1.0
 40
1.0
 40
1.0
 10
129.61074917100655
 20
93.902490475134584
 30
0.0
 10
129.74787054198151
 20
93.693766811162831
 30
0.0
 10
129.75811815657732
 20
93.429783773683823
 30
0.0
  0
LINE
  5
E0
102
{ACAD_REACTORS
330
31
102
}
100
AcDbEntity
  8
0
  6
CONTINUOUS
100
AcDbLine
 10
129.758118
 20
93.429784
 30
0.0
 11
129.377489
 21
93.401113
 31
0.0
  0
SPLINE
  5
E1
102
{ACAD_REACTORS
330
31
102
}
100
AcDbEntity
  8
0
  6
CONTINUOUS
100
AcDbSpline
210
0.0
220
0.0
230
1.0
 70
     8
 71
     2
 72
     6
 73
     3
 74
     0
 42
0.0000001
 43
0.0000001
 40
0.0
 40
0.0
 40
0.0
 40
1.0
 40
1.0
 40
1.0
 10
129.37748925818912
 20
93.401113025233727
 30
0.0
 10
129.34677942245693
 20
93.685558986828141
 30
0.0
 10
129.16975984811828
 20
93.830842313087913
 30
0.0
  0
SPLINE
  5
E2
102
{ACAD_REACTORS
330
31
102
}
100
AcDbEntity
  8
0
  6
CONTINUOUS
100
AcDbSpline
210
0.0
220
0.0
230
1.0
 70
     8
 71
     2
 72
     6
 73
     3
 74
     0
 42
0.0000001
 43
0.0000001
 40
0.0
 40
0.0
 40
0.0
 40
1.0
 40
1.0
 40
1.0
 10
129.1697598481183
 20
93.830842313087913
 30
0.0
 10
128.99273788957726
 20
93.976125937238265
 30
0.0
 10
128.64689982019689
 20
93.976106693303379
 30
0.0
  0
SPLINE
  5
E3
102
{ACAD_REACTORS
330
31
102
}
100
AcDbEntity
  8
0
  6
CONTINUOUS
100
AcDbSpline
210
0.0
220
0.0
230
1.0
 70
     8
 71
     2
 72
     6
 73
     3
 74
     0
 42
0.0000001
 43
0.0000001
 40
0.0
 40
0.0
 40
0.0
 40
1.0
 40
1.0
 40
1.0
 10
128.64689982019695
 20
93.976106693303393
 30
0.0
 10
128.28673517842054
 20
93.976086652175695
 30
0.0
 10
128.12200959022948
 20
93.844085682276841
 30
0.0
  0
SPLINE
  5
E4
102
{ACAD_REACTORS
330
31
102
}
100
AcDbEntity
  8
0
  6
CONTINUOUS
100
AcDbSpline
210
0.0
220
0.0
230
1.0
 70
     8
 71
     2
 72
     6
 73
     3
 74
     0
 42
0.0000001
 43
0.0000001
 40
0.0
 40
0.0
 40
0.0
 40
1.0
 40
1.0
 40
1.0
 10
128.1220095902294
 20
93.844085682276813
 30
0.0
 10
127.95728400203828
 20
93.712084712377958
 30
0.0
 10
127.95729436418523
 20
93.525863709133844
 30
0.0
  0
SPLINE
  5
E5
102
{ACAD_REACTORS
330
31
102
}
100
AcDbEntity
  8
0
  6
CONTINUOUS
100
AcDbSpline
210
0.0
220
0.0
230
1.0
 70
     8
 71
     2
 72
     6
 73
     3
 74
     0
 42
0.0000001
 43
0.0000001
 40
0.0
 40
0.0
 40
0.0
 40
1.0
 40
1.0
 40
1.0
 10
127.95729436418532
 20
93.525863709133858
 30
0.0
 10
127.95730335990078
 20
93.364199223452744
 30
0.0
 10
128.07395307271855
 20
93.259840067349586
 30
0.0
  0
SPLINE
  5
E6
102
{ACAD_REACTORS
330
31
102
}
100
AcDbEntity
  8
0
  6
CONTINUOUS
100
AcDbSpline
210
0.0
220
0.0
230
1.0
 70
     8
 71
     2
 72
     6
 73
     3
 74
     0
 42
0.0000001
 43
0.0000001
 40
0.0
 40
0.0
 40
0.0
 40
1.0
 40
1.0
 40
1.0
 10
128.07395307271855
 20
93.259840067349572
 30
0.0
 10
128.18855476992849
 20
93.155481095309128
 30
0.0
 10
128.67252911912766
 20
93.046026214054706
 30
0.0
  0
SPLINE
  5
E7
102
{ACAD_REACTORS
330
31
102
}
100
AcDbEntity
  8
0
  6
CONTINUOUS
100
AcDbSpline
210
0.0
220
0.0
230
1.0
 70
     8
 71
     2
 72
     6
 73
     3
 74
     0
 42
0.0000001
 43
0.0000001
 40
0.0
 40
0.0
 40
0.0
 40
1.0
 40
1.0
 40
1.0
 10
128.67252911912769
 20
93.046026214054706
 30
0.0
 10
129.15650585249605
 20
92.936571630956166
 30
0.0
 10
129.33659272817252
 20
92.85472629495348
 30
0.0
  0
SPLINE
  5
E8
102
{ACAD_REACTORS
330
31
102
}
100
AcDbEntity
  8
0
  6
CONTINUOUS
100
AcDbSpline
210
0.0
220
0.0
230
1.0
 70
     8
 71
     2
 72
     6
 73
     3
 74
     0
 42
0.0000001
 43
0.0000001
 40
0.0
 40
0.0
 40
0.0
 40
1.0
 40
1.0
 40
1.0
 10
129.33659272817246
 20
92.85472629495348
 30
0.0
 10
129.59853563384073
 20
92.73400391381314
 30
0.0
 10
129.72337713849336
 20
92.548813268469303
 30
0.0
  0
SPLINE
  5
E9
102
{ACAD_REACTORS
330
31
102
}
100
AcDbEntity
  8
0
  6
CONTINUOUS
100
AcDbSpline
210
0.0
220
0.0
230
1.0
 70
     8
 71
     2
 72
     6
 73
     3
 74
     0
 42
0.0000001
 43
0.0000001
 40
0.0
 40
0.0
 40
0.0
 40
1.0
 40
1.0
 40
1.0
 10
129.72337713849333
 20
92.548813268469303
 30
0.0
 10
129.84821864316257
 20
92.363622325102256
 30
0.0
 10
129.84823207980526
 20
92.122148710306561
 30
0.0
  0
SPLINE
  5
EA
102
{ACAD_REACTORS
330
31
102
}
100
AcDbEntity
  8
0
  6
CONTINUOUS
100
AcDbSpline
210
0.0
220
0.0
230
1.0
 70
     8
 71
     2
 72
     6
 73
     3
 74
     0
 42
0.0000001
 43
0.0000001
 40
0.0
 40
0.0
 40
0.0
 40
1.0
 40
1.0
 40
1.0
 10
129.84823207980537
 20
92.122148710306533
 30
0.0
 10
129.84824540255391
 20
91.882721919009271
 30
0.0
 10
129.71114743182193
 20
91.670913357069566
 30
0.0
  0
SPLINE
  5
EB
102
{ACAD_REACTORS
330
31
102
}
100
AcDbEntity
  8
0
  6
CONTINUOUS
100
AcDbSpline
210
0.0
220
0.0
230
1.0
 70
     8
 71
     2
 72
     6
 73
     3
 74
     0
 42
0.0000001
 43
0.0000001
 40
0.0
 40
0.0
 40
0.0
 40
1.0
 40
1.0
 40
1.0
 10
129.71114743182181
 20
91.67091335706958
 30
0.0
 10
129.57405184525913
 20
91.459105093285757
 30
0.0
 10
129.31723628395582
 20
91.341423485377945
 30
0.0
  0
SPLINE
  5
EC
102
{ACAD_REACTORS
330
31
102
}
100
AcDbEntity
  8
0
  6
CONTINUOUS
100
AcDbSpline
210
0.0
220
0.0
230
1.0
 70
     8
 71
     2
 72
     6
 73
     3
 74
     0
 42
0.0000001
 43
0.0000001
 40
0.0
 40
0.0
 40
0.0
 40
1.0
 40
1.0
 40
1.0
 10
129.31723628395591
 20
91.341423485377931
 30
0.0
 10
129.0604231068385
 20
91.223741877602791
 30
0.0
 10
128.73913976688178
 20
91.223723999999891
 30
0.0
  0
SPLINE
  5
ED
102
{ACAD_REACTORS
330
31
102
}
100
AcDbEntity
  8
0
  6
CONTINUOUS
100
AcDbSpline
210
0.0
220
0.0
230
1.0
 70
     8
 71
     2
 72
     6
 73
     3
 74
     0
 42
0.0000001
 43
0.0000001
 40
0.0
 40
0.0
 40
0.0
 40
1.0
 40
1.0
 40
1.0
 10
128.73913976688181
 20
91.223723999999905
 30
0.0
 10
128.33190891347783
 20
91.223701339903414
 30
0.0
 10
128.05666474916308
 20
91.342376753445535
 30
0.0
  0
SPLINE
  5
EE
102
{ACAD_REACTORS
330
31
102
}
100
AcDbEntity
  8
0
  6
CONTINUOUS
100
AcDbSpline
210
0.0
220
0.0
230
1.0
 70
     8
 71
     2
 72
     6
 73
     3
 74
     0
 42
0.0000001
 43
0.0000001
 40
0.0
 40
0.0
 40
0.0
 40
1.0
 40
1.0
 40
1.0
 10
128.05666474916296
 20
91.342376753445535
 30
0.0
 10
127.78141820069561
 20
91.461051570808564
 30
0.0
 10
127.62485691189607
 20
91.699446537366725
 30
0.0
  0
SPLINE
  5
EF
102
{ACAD_REACTORS
330
31
102
}
100
AcDbEntity
  8
0
  6
CONTINUOUS
100
AcDbSpline
210
0.0
220
0.0
230
1.0
 70
     8
 71
     2
 72
     6
 73
     3
 74
     0
 42
0.0000001
 43
0.0000001
 40
0.0
 40
0.0
 40
0.0
 40
1.0
 40
1.0
 40
1.0
 10
127.62485691189619
 20
91.699446537366725
 30
0.0
 10
127.46829562308005
 20
91.93784180194811
 30
0.0
 10
127.46009159024248
 20
92.238659729599419
 30
0.0
  0
LWPOLYLINE
  5
F0
102
{ACAD_REACTORS
330
31
102
}
100
AcDbEntity
  8
0
  6
CONTINUOUS
100
AcDbPolyline
 90
        5
 70
     0
 10
130.345382
 20
94.274973
 10
130.345405
 20
93.851372
 10
130.713755
 20
93.851392
 10
130.713731
 20
94.274994
 10
130.345382
 20
94.274973
  0
LWPOLYLINE
  5
F1
102
{ACAD_REACTORS
330
31
102
}
100
AcDbEntity
  8
0
  6
CONTINUOUS
100
AcDbPolyline
 90
        5
 70
     0
 10
130.345428
 20
93.448234
 10
130.345549
 20
91.274973
 10
130.713898
 20
91.274994
 10
130.713777
 20
93.448254
 10
130.345428
 20
93.448234
  0
LINE
  5
F2
102
{ACAD_REACTORS
330
31
102
}
100
AcDbEntity
  8
0
  6
CONTINUOUS
100
AcDbLine
 10
132.684569
 20
91.275103
 30
0.0
 11
132.684553
 21
91.549319
 31
0.0
  0
SPLINE
  5
F3
102
{ACAD_REACTORS
330
31
102
}
100
AcDbEntity
  8
0
  6
CONTINUOUS
100
AcDbSpline
210
0.0
220
0.0
230
1.0
 70
     8
 71
     2
 72
     6
 73
     3
 74
     0
 42
0.0000001
 43
0.0000001
 40
0.0
 40
0.0
 40
0.0
 40
1.0
 40
1.0
 40
1.0
 10
132.68455336475461
 20
91.549319037823395
 30
0.0
 10
132.47788629026581
 20
91.225978863628058
 30
0.0
 10
132.07679471526421
 20
91.225956545147739
 30
0.0
  0
SPLINE
  5
F4
102
{ACAD_REACTORS
330
31
102
}
100
AcDbEntity
  8
0
  6
CONTINUOUS
100
AcDbSpline
210
0.0
220
0.0
230
1.0
 70
     8
 71
     2
 72
     6
 73
     3
 74
     0
 42
0.0000001
 43
0.0000001
 40
0.0
 40
0.0
 40
0.0
 40
1.0
 40
1.0
 40
1.0
 10
132.0767947152643
 20
91.225956545147724
 30
0.0
 10
131.81690415933119
 20
91.225942083706428
 30
0.0
 10
131.5989529972733
 20
91.369176606873069
 30
0.0
  0
SPLINE
  5
F5
102
{ACAD_REACTORS
330
31
102
}
100
AcDbEntity
  8
0
  6
CONTINUOUS
100
AcDbSpline
210
0.0
220
0.0
230
1.0
 70
     8
 71
     2
 72
     6
 73
     3
 74
     0
 42
0.0000001
 43
0.0000001
 40
0.0
 40
0.0
 40
0.0
 40
1.0
 40
1.0
 40
1.0
 10
131.5989529972733
 20
91.369176606873083
 30
0.0
 10
131.3810066035704
 20
91.512411428328264
 30
0.0
 10
131.26127757616732
 20
91.769225981634591
 30
0.0
  0
SPLINE
  5
F6
102
{ACAD_REACTORS
330
31
102
}
100
AcDbEntity
  8
0
  6
CONTINUOUS
100
AcDbSpline
210
0.0
220
0.0
230
1.0
 70
     8
 71
     2
 72
     6
 73
     3
 74
     0
 42
0.0000001
 43
0.0000001
 40
0.0
 40
0.0
 40
0.0
 40
1.0
 40
1.0
 40
1.0
 10
131.2612775761672
 20
91.769225981634591
 30
0.0
 10
131.14155093293331
 20
92.0260408330968
 30
0.0
 10
131.14153237216422
 20
92.359601537765343
 30
0.0
  0
SPLINE
  5
F7
102
{ACAD_REACTORS
330
31
102
}
100
AcDbEntity
  8
0
  6
CONTINUOUS
100
AcDbSpline
210
0.0
220
0.0
230
1.0
 70
     8
 71
     2
 72
     6
 73
     3
 74
     0
 42
0.0000001
 43
0.0000001
 40
0.0
 40
0.0
 40
0.0
 40
1.0
 40
1.0
 40
1.0
 10
131.14153237216425
 20
92.359601537765343
 30
0.0
 10
131.14151426687232
 20
92.684976736579543
 30
0.0
 10
131.24995851639636
 20
92.949989492319418
 30
0.0
  0
SPLINE
  5
F8
102
{ACAD_REACTORS
330
31
102
}
100
AcDbEntity
  8
0
  6
CONTINUOUS
100
AcDbSpline
210
0.0
220
0.0
230
1.0
 70
     8
 71
     2
 72
     6
 73
     3
 74
     0
 42
0.0000001
 43
0.0000001
 40
0.0
 40
0.0
 40
0.0
 40
1.0
 40
1.0
 40
1.0
 10
131.24995851639636
 20
92.949989492319418
 30
0.0
 10
131.35840038173467
 20
93.215002247926648
 30
0.0
 10
131.57531051603104
 20
93.356214741209527
 30
0.0
  0
SPLINE
  5
F9
102
{ACAD_REACTORS
330
31
102
}
100
AcDbEntity
  8
0
  6
CONTINUOUS
100
AcDbSpline
210
0.0
220
0.0
230
1.0
 70
     8
 71
     2
 72
     6
 73
     3
 74
     0
 42
0.0000001
 43
0.0000001
 40
0.0
 40
0.0
 40
0.0
 40
1.0
 40
1.0
 40
1.0
 10
131.57531051603112
 20
93.356214741209527
 30
0.0
 10
131.79222065031095
 20
93.497427532515644
 30
0.0
 10
132.06029611605194
 20
93.497442449400921
 30
0.0
  0
SPLINE
  5
FA
102
{ACAD_REACTORS
330
31
102
}
100
AcDbEntity
  8
0
  6
CONTINUOUS
100
AcDbSpline
210
0.0
220
0.0
230
1.0
 70
     8
 71
     2
 72
     6
 73
     3
 74
     0
 42
0.0000001
 43
0.0000001
 40
0.0
 40
0.0
 40
0.0
 40
1.0
 40
1.0
 40
1.0
 10
132.06029611605194
 20
93.497442449400893
 30
0.0
 10
132.25674825655594
 20
93.497453380852733
 30
0.0
 10
132.41023244416445
 20
93.414583152808348
 30
0.0
  0
SPLINE
  5
FB
102
{ACAD_REACTORS
330
31
102
}
100
AcDbEntity
  8
0
  6
CONTINUOUS
100
AcDbSpline
210
0.0
220
0.0
230
1.0
 70
     8
 71
     2
 72
     6
 73
     3
 74
     0
 42
0.0000001
 43
0.0000001
 40
0.0
 40
0.0
 40
0.0
 40
1.0
 40
1.0
 40
1.0
 10
132.41023244416442
 20
93.414583152808362
 30
0.0
 10
132.5637142475706
 20
93.331713222654543
 30
0.0
 10
132.65990447213164
 20
93.198703657517569
 30
0.0
  0
LINE
  5
FC
102
{ACAD_REACTORS
330
31
102
}
100
AcDbEntity
  8
0
  6
CONTINUOUS
100
AcDbLine
 10
132.659904
 20
93.198704
 30
0.0
 11
132.659845
 21
94.275102
 31
0.0
  0
LINE
  5
FD
102
{ACAD_REACTORS
330
31
102
}
100
AcDbEntity
  8
0
  6
CONTINUOUS
100
AcDbLine
 10
132.659845
 20
94.275102
 30
0.0
 11
133.026146
 21
94.275122
 31
0.0
  0
LINE
  5
FE
102
{ACAD_REACTORS
330
31
102
}
100
AcDbEntity
  8
0
  6
CONTINUOUS
100
AcDbLine
 10
133.026146
 20
94.275122
 30
0.0
 11
133.026313
 21
91.275122
 31
0.0
  0
LINE
  5
FF
102
{ACAD_REACTORS
330
31
102
}
100
AcDbEntity
  8
0
  6
CONTINUOUS
100
AcDbLine
 10
133.026313
 20
91.275122
 30
0.0
 11
132.684569
 21
91.275103
 31
0.0
  0
SPLINE
  5
100
102
{ACAD_REACTORS
330
31
102
}
100
AcDbEntity
  8
0
  6
CONTINUOUS
100
AcDbSpline
210
0.0
220
0.0
230
1.0
 70
     8
 71
     2
 72
     6
 73
     3
 74
     0
 42
0.0000001
 43
0.0000001
 40
0.0
 40
0.0
 40
0.0
 40
1.0
 40
1.0
 40
1.0
 10
131.52011484914777
 20
92.359622603741528
 30
0.0
 10
131.5201380785827
 20
91.942160017031242
 30
0.0
 10
131.69613586912811
 20
91.735485041794163
 30
0.0
  0
SPLINE
  5
101
102
{ACAD_REACTORS
330
31
102
}
100
AcDbEntity
  8
0
  6
CONTINUOUS
100
AcDbSpline
210
0.0
220
0.0
230
1.0
 70
     8
 71
     2
 72
     6
 73
     3
 74
     0
 42
0.0000001
 43
0.0000001
 40
0.0
 40
0.0
 40
0.0
 40
1.0
 40
1.0
 40
1.0
 10
131.69613586912803
 20
91.735485041794163
 30
0.0
 10
131.87213842806167
 20
91.528809768799178
 30
0.0
 10
132.11156551738216
 20
91.528823091564149
 30
0.0
  0
SPLINE
  5
102
102
{ACAD_REACTORS
330
31
102
}
100
AcDbEntity
  8
0
  6
CONTINUOUS
100
AcDbSpline
210
0.0
220
0.0
230
1.0
 70
     8
 71
     2
 72
     6
 73
     3
 74
     0
 42
0.0000001
 43
0.0000001
 40
0.0
 40
0.0
 40
0.0
 40
1.0
 40
1.0
 40
1.0
 10
132.1115655173823
 20
91.528823091564149
 30
0.0
 10
132.3530382381083
 20
91.528836528156944
 30
0.0
 10
132.52185382946237
 20
91.726322070702025
 30
0.0
  0
SPLINE
  5
103
102
{ACAD_REACTORS
330
31
102
}
100
AcDbEntity
  8
0
  6
CONTINUOUS
100
AcDbSpline
210
0.0
220
0.0
230
1.0
 70
     8
 71
     2
 72
     6
 73
     3
 74
     0
 42
0.0000001
 43
0.0000001
 40
0.0
 40
0.0
 40
0.0
 40
1.0
 40
1.0
 40
1.0
 10
132.52185382946234
 20
91.726322070702011
 30
0.0
 10
132.69066942081636
 20
91.923807613247078
 30
0.0
 10
132.69064687459715
 20
92.328991941175858
 30
0.0
  0
SPLINE
  5
104
102
{ACAD_REACTORS
330
31
102
}
100
AcDbEntity
  8
0
  6
CONTINUOUS
100
AcDbSpline
210
0.0
220
0.0
230
1.0
 70
     8
 71
     2
 72
     6
 73
     3
 74
     0
 42
0.0000001
 43
0.0000001
 40
0.0
 40
0.0
 40
0.0
 40
1.0
 40
1.0
 40
1.0
 10
132.69064687459712
 20
92.328991941175858
 30
0.0
 10
132.69062205100875
 20
92.775103500353069
 30
0.0
 10
132.51871540939675
 20
92.983825228721017
 30
0.0
  0
SPLINE
  5
105
102
{ACAD_REACTORS
330
31
102
}
100
AcDbEntity
  8
0
  6
CONTINUOUS
100
AcDbSpline
210
0.0
220
0.0
230
1.0
 70
     8
 71
     2
 72
     6
 73
     3
 74
     0
 42
0.0000001
 43
0.0000001
 40
0.0
 40
0.0
 40
0.0
 40
1.0
 40
1.0
 40
1.0
 10
132.51871540939678
 20
92.983825228721017
 30
0.0
 10
132.34680638359904
 20
93.192546956956306
 30
0.0
 10
132.09510073747381
 20
93.192532950959006
 30
0.0
  0
SPLINE
  5
106
102
{ACAD_REACTORS
330
31
102
}
100
AcDbEntity
  8
0
  6
CONTINUOUS
100
AcDbSpline
210
0.0
220
0.0
230
1.0
 70
     8
 71
     2
 72
     6
 73
     3
 74
     0
 42
0.0000001
 43
0.0000001
 40
0.0
 40
0.0
 40
0.0
 40
1.0
 40
1.0
 40
1.0
 10
132.09510073747379
 20
93.192532950959006
 30
0.0
 10
131.84953436975098
 20
93.192519286577863
 30
0.0
 10
131.68481259620182
 20
92.991964332619958
 30
0.0
  0
SPLINE
  5
107
102
{ACAD_REACTORS
330
31
102
}
100
AcDbEntity
  8
0
  6
CONTINUOUS
100
AcDbSpline
210
0.0
220
0.0
230
1.0
 70
     8
 71
     2
 72
     6
 73
     3
 74
     0
 42
0.0000001
 43
0.0000001
 40
0.0
 40
0.0
 40
0.0
 40
1.0
 40
1.0
 40
1.0
 10
131.68481259620185
 20
92.991964332619958
 30
0.0
 10
131.52009082263615
 20
92.791409676685262
 30
0.0
 10
131.5201148491478
 20
92.359622603741528
 30
0.0
  0
LINE
  5
108
102
{ACAD_REACTORS
330
31
102
}
100
AcDbEntity
  8
0
  6
CONTINUOUS
100
AcDbLine
 10
135.093125
 20
91.975101
 30
0.0
 11
135.473753
 21
91.928055
 31
0.0
  0
SPLINE
  5
109
102
{ACAD_REACTORS
330
31
102
}
100
AcDbEntity
  8
0
  6
CONTINUOUS
100
AcDbSpline
210
0.0
220
0.0
230
1.0
 70
     8
 71
     2
 72
     6
 73
     3
 74
     0
 42
0.0000001
 43
0.0000001
 40
0.0
 40
0.0
 40
0.0
 40
1.0
 40
1.0
 40
1.0
 10
135.47375310447958
 20
91.92805522907193
 30
0.0
 10
135.38373050480456
 20
91.594489514121477
 30
0.0
 10
135.14022001677321
 20
91.410301187776028
 30
0.0
  0
SPLINE
  5
10A
102
{ACAD_REACTORS
330
31
102
}
100
AcDbEntity
  8
0
  6
CONTINUOUS
100
AcDbSpline
210
0.0
220
0.0
230
1.0
 70
     8
 71
     2
 72
     6
 73
     3
 74
     0
 42
0.0000001
 43
0.0000001
 40
0.0
 40
0.0
 40
0.0
 40
1.0
 40
1.0
 40
1.0
 10
135.14022001677316
 20
91.410301187776028
 30
0.0
 10
134.89670952870867
 20
91.226113457477041
 30
0.0
 10
134.51812943591094
 20
91.226092391633529
 30
0.0
  0
SPLINE
  5
10B
102
{ACAD_REACTORS
330
31
102
}
100
AcDbEntity
  8
0
  6
CONTINUOUS
100
AcDbSpline
210
0.0
220
0.0
230
1.0
 70
     8
 71
     2
 72
     6
 73
     3
 74
     0
 42
0.0000001
 43
0.0000001
 40
0.0
 40
0.0
 40
0.0
 40
1.0
 40
1.0
 40
1.0
 10
134.51812943591102
 20
91.226092391633529
 30
0.0
 10
134.04132088867556
 20
91.22606585993141
 30
0.0
 10
133.76197334153545
 20
91.519706307827363
 30
0.0
  0
SPLINE
  5
10C
102
{ACAD_REACTORS
330
31
102
}
100
AcDbEntity
  8
0
  6
CONTINUOUS
100
AcDbSpline
210
0.0
220
0.0
230
1.0
 70
     8
 71
     2
 72
     6
 73
     3
 74
     0
 42
0.0000001
 43
0.0000001
 40
0.0
 40
0.0
 40
0.0
 40
1.0
 40
1.0
 40
1.0
 10
133.76197334153537
 20
91.519706307827363
 30
0.0
 10
133.48262579437866
 20
91.813347053746526
 30
0.0
 10
133.48259630210785
 20
92.343360792988705
 30
0.0
  0
SPLINE
  5
10D
102
{ACAD_REACTORS
330
31
102
}
100
AcDbEntity
  8
0
  6
CONTINUOUS
100
AcDbSpline
210
0.0
220
0.0
230
1.0
 70
     8
 71
     2
 72
     6
 73
     3
 74
     0
 42
0.0000001
 43
0.0000001
 40
0.0
 40
0.0
 40
0.0
 40
1.0
 40
1.0
 40
1.0
 10
133.48259630210782
 20
92.343360792988719
 30
0.0
 10
133.48256578502162
 20
92.891791771391524
 30
0.0
 10
133.76495097042061
 20
93.194672692196022
 30
0.0
  0
SPLINE
  5
10E
102
{ACAD_REACTORS
330
31
102
}
100
AcDbEntity
  8
0
  6
CONTINUOUS
100
AcDbSpline
210
0.0
220
0.0
230
1.0
 70
     8
 71
     2
 72
     6
 73
     3
 74
     0
 42
0.0000001
 43
0.0000001
 40
0.0
 40
0.0
 40
0.0
 40
1.0
 40
1.0
 40
1.0
 10
133.76495097042064
 20
93.194672692196036
 30
0.0
 10
134.04733615583623
 20
93.49755331497731
 30
0.0
 10
134.49754195805676
 20
93.497578366386932
 30
0.0
  0
SPLINE
  5
10F
102
{ACAD_REACTORS
330
31
102
}
100
AcDbEntity
  8
0
  6
CONTINUOUS
100
AcDbSpline
210
0.0
220
0.0
230
1.0
 70
     8
 71
     2
 72
     6
 73
     3
 74
     0
 42
0.0000001
 43
0.0000001
 40
0.0
 40
0.0
 40
0.0
 40
1.0
 40
1.0
 40
1.0
 10
134.49754195805673
 20
93.497578366386918
 30
0.0
 10
134.93341880369542
 20
93.497602620471071
 30
0.0
 10
135.2097004587377
 20
93.200892064741623
 30
0.0
  0
SPLINE
  5
110
102
{ACAD_REACTORS
330
31
102
}
100
AcDbEntity
  8
0
  6
CONTINUOUS
100
AcDbSpline
210
0.0
220
0.0
230
1.0
 70
     8
 71
     2
 72
     6
 73
     3
 74
     0
 42
0.0000001
 43
0.0000001
 40
0.0
 40
0.0
 40
0.0
 40
1.0
 40
1.0
 40
1.0
 10
135.20970045873776
 20
93.200892064741637
 30
0.0
 10
135.48597734540851
 20
92.904181508746859
 30
0.0
 10
135.48600729315649
 20
92.365982263650366
 30
0.0
  0
SPLINE
  5
111
102
{ACAD_REACTORS
330
31
102
}
100
AcDbEntity
  8
0
  6
CONTINUOUS
100
AcDbSpline
210
0.0
220
0.0
230
1.0
 70
     8
 71
     2
 72
     6
 73
     3
 74
     0
 42
0.0000001
 43
0.0000001
 40
0.0
 40
0.0
 40
0.0
 40
1.0
 40
1.0
 40
1.0
 10
135.48600729315649
 20
92.365982263650352
 30
0.0
 10
135.48600911506514
 20
92.333240240233025
 30
0.0
 10
135.48396712749354
 20
92.267755781547308
 30
0.0
  0
LINE
  5
112
102
{ACAD_REACTORS
330
31
102
}
100
AcDbEntity
  8
0
  6
CONTINUOUS
100
AcDbLine
 10
135.483967
 20
92.267756
 30
0.0
 11
133.863231
 21
92.267666
 31
0.0
  0
SPLINE
  5
113
102
{ACAD_REACTORS
330
31
102
}
100
AcDbEntity
  8
0
  6
CONTINUOUS
100
AcDbSpline
210
0.0
220
0.0
230
1.0
 70
     8
 71
     2
 72
     6
 73
     3
 74
     0
 42
0.0000001
 43
0.0000001
 40
0.0
 40
0.0
 40
0.0
 40
1.0
 40
1.0
 40
1.0
 10
133.86323100787126
 20
92.267665596737999
 30
0.0
 10
133.88371201749874
 20
91.909549513050109
 30
0.0
 10
134.06585055967798
 20
91.719245891270532
 30
0.0
  0
SPLINE
  5
114
102
{ACAD_REACTORS
330
31
102
}
100
AcDbEntity
  8
0
  6
CONTINUOUS
100
AcDbSpline
210
0.0
220
0.0
230
1.0
 70
     8
 71
     2
 72
     6
 73
     3
 74
     0
 42
0.0000001
 43
0.0000001
 40
0.0
 40
0.0
 40
0.0
 40
1.0
 40
1.0
 40
1.0
 10
134.0658505596779
 20
91.719245891270518
 30
0.0
 10
134.24798910187369
 20
91.528941971467702
 30
0.0
 10
134.52015821461154
 20
91.528957116141299
 30
0.0
  0
SPLINE
  5
115
102
{ACAD_REACTORS
330
31
102
}
100
AcDbEntity
  8
0
  6
CONTINUOUS
100
AcDbSpline
210
0.0
220
0.0
230
1.0
 70
     8
 71
     2
 72
     6
 73
     3
 74
     0
 42
0.0000001
 43
0.0000001
 40
0.0
 40
0.0
 40
0.0
 40
1.0
 40
1.0
 40
1.0
 10
134.52015821461163
 20
91.528957116141314
 30
0.0
 10
134.72275201770373
 20
91.528968389341983
 30
0.0
 10
134.86599274694146
 20
91.635388532361631
 30
0.0
  0
SPLINE
  5
116
102
{ACAD_REACTORS
330
31
102
}
100
AcDbEntity
  8
0
  6
CONTINUOUS
100
AcDbSpline
210
0.0
220
0.0
230
1.0
 70
     8
 71
     2
 72
     6
 73
     3
 74
     0
 42
0.0000001
 43
0.0000001
 40
0.0
 40
0.0
 40
0.0
 40
1.0
 40
1.0
 40
1.0
 10
134.86599274694146
 20
91.635388532361617
 30
0.0
 10
135.00923347619579
 20
91.741808377358041
 30
0.0
 10
135.0931247612744
 20
91.975100857074608
 30
0.0
  0
LINE
  5
117
102
{ACAD_REACTORS
330
31
102
}
100
AcDbEntity
  8
0
  6
CONTINUOUS
100
AcDbLine
 10
133.883675
 20
92.570532
 30
0.0
 11
135.097183
 21
92.570599
 31
0.0
  0
SPLINE
  5
118
102
{ACAD_REACTORS
330
31
102
}
100
AcDbEntity
  8
0
  6
CONTINUOUS
100
AcDbSpline
210
0.0
220
0.0
230
1.0
 70
     8
 71
     2
 72
     6
 73
     3
 74
     0
 42
0.0000001
 43
0.0000001
 40
0.0
 40
0.0
 40
0.0
 40
1.0
 40
1.0
 40
1.0
 10
135.09718288798072
 20
92.570599168830327
 30
0.0
 10
135.07261051581983
 20
92.844813440578704
 30
0.0
 10
134.95800461249891
 20
92.981914733927027
 30
0.0
  0
SPLINE
  5
119
102
{ACAD_REACTORS
330
31
102
}
100
AcDbEntity
  8
0
  6
CONTINUOUS
100
AcDbSpline
210
0.0
220
0.0
230
1.0
 70
     8
 71
     2
 72
     6
 73
     3
 74
     0
 42
0.0000001
 43
0.0000001
 40
0.0
 40
0.0
 40
0.0
 40
1.0
 40
1.0
 40
1.0
 10
134.95800461249894
 20
92.981914733927027
 30
0.0
 10
134.78200648032072
 20
93.194729285589702
 30
0.0
 10
134.5016500735893
 20
93.194713685339423
 30
0.0
  0
SPLINE
  5
11A
102
{ACAD_REACTORS
330
31
102
}
100
AcDbEntity
  8
0
  6
CONTINUOUS
100
AcDbSpline
210
0.0
220
0.0
230
1.0
 70
     8
 71
     2
 72
     6
 73
     3
 74
     0
 42
0.0000001
 43
0.0000001
 40
0.0
 40
0.0
 40
0.0
 40
1.0
 40
1.0
 40
1.0
 10
134.5016500735893
 20
93.194713685339423
 30
0.0
 10
134.24789641187277
 20
93.19469956538164
 30
0.0
 10
134.07498563628235
 20
93.024839951812424
 30
0.0
  0
SPLINE
  5
11B
102
{ACAD_REACTORS
330
31
102
}
100
AcDbEntity
  8
0
  6
CONTINUOUS
100
AcDbSpline
210
0.0
220
0.0
230
1.0
 70
     8
 71
     2
 72
     6
 73
     3
 74
     0
 42
0.0000001
 43
0.0000001
 40
0.0
 40
0.0
 40
0.0
 40
1.0
 40
1.0
 40
1.0
 10
134.07498563628232
 20
93.02483995181241
 30
0.0
 10
133.90207962906348
 20
92.854980338508511
 30
0.0
 10
133.88367523757668
 20
92.570531643984822
 30
0.0
  0
LINE
  5
11C
102
{ACAD_REACTORS
330
31
102
}
100
AcDbEntity
  8
0
  6
CONTINUOUS
100
AcDbLine
 10
138.934206
 20
91.629476
 30
0.0
 11
138.934225
 21
91.275451
 31
0.0
  0
LINE
  5
11D
102
{ACAD_REACTORS
330
31
102
}
100
AcDbEntity
  8
0
  6
CONTINUOUS
100
AcDbLine
 10
138.934225
 20
91.275451
 30
0.0
 11
136.951279
 21
91.275341
 31
0.0
  0
SPLINE
  5
11E
102
{ACAD_REACTORS
330
31
102
}
100
AcDbEntity
  8
0
  6
CONTINUOUS
100
AcDbSpline
210
0.0
220
0.0
230
1.0
 70
     8
 71
     2
 72
     6
 73
     3
 74
     0
 42
0.0000001
 43
0.0000001
 40
0.0
 40
0.0
 40
0.0
 40
1.0
 40
1.0
 40
1.0
 10
136.95127889807259
 20
91.275340817933994
 30
0.0
 10
136.94718023373275
 20
91.408355507446061
 30
0.0
 10
136.99423722898382
 20
91.531141310143624
 30
0.0
  0
SPLINE
  5
11F
102
{ACAD_REACTORS
330
31
102
}
100
AcDbEntity
  8
0
  6
CONTINUOUS
100
AcDbSpline
210
0.0
220
0.0
230
1.0
 70
     8
 71
     2
 72
     6
 73
     3
 74
     0
 42
0.0000001
 43
0.0000001
 40
0.0
 40
0.0
 40
0.0
 40
1.0
 40
1.0
 40
1.0
 10
136.99423722898385
 20
91.531141310143624
 30
0.0
 10
137.06994292811643
 20
91.733737538318152
 30
0.0
 10
137.23671532918124
 20
91.930199853442076
 30
0.0
  0
SPLINE
  5
120
102
{ACAD_REACTORS
330
31
102
}
100
AcDbEntity
  8
0
  6
CONTINUOUS
100
AcDbSpline
210
0.0
220
0.0
230
1.0
 70
     8
 71
     2
 72
     6
 73
     3
 74
     0
 42
0.0000001
 43
0.0000001
 40
0.0
 40
0.0
 40
0.0
 40
1.0
 40
1.0
 40
1.0
 10
137.23671532918124
 20
91.93019985344209
 30
0.0
 10
137.40348296187452
 20
92.126662168300669
 30
0.0
 10
137.7186102916626
 20
92.384524032635881
 30
0.0
  0
SPLINE
  5
121
102
{ACAD_REACTORS
330
31
102
}
100
AcDbEntity
  8
0
  6
CONTINUOUS
100
AcDbSpline
210
0.0
220
0.0
230
1.0
 70
     8
 71
     2
 72
     6
 73
     3
 74
     0
 42
0.0000001
 43
0.0000001
 40
0.0
 40
0.0
 40
0.0
 40
1.0
 40
1.0
 40
1.0
 10
137.7186102916626
 20
92.384524032635881
 30
0.0
 10
138.20767507722215
 20
92.785642822571916
 30
0.0
 10
138.37955706603722
 20
93.019963312203217
 30
0.0
  0
SPLINE
  5
122
102
{ACAD_REACTORS
330
31
102
}
100
AcDbEntity
  8
0
  6
CONTINUOUS
100
AcDbSpline
210
0.0
220
0.0
230
1.0
 70
     8
 71
     2
 72
     6
 73
     3
 74
     0
 42
0.0000001
 43
0.0000001
 40
0.0
 40
0.0
 40
0.0
 40
1.0
 40
1.0
 40
1.0
 10
138.37955706603734
 20
93.019963312203203
 30
0.0
 10
138.55144382322399
 20
93.254283802099849
 30
0.0
 10
138.55143220850655
 20
93.463015095454978
 30
0.0
  0
SPLINE
  5
123
102
{ACAD_REACTORS
330
31
102
}
100
AcDbEntity
  8
0
  6
CONTINUOUS
100
AcDbSpline
210
0.0
220
0.0
230
1.0
 70
     8
 71
     2
 72
     6
 73
     3
 74
     0
 42
0.0000001
 43
0.0000001
 40
0.0
 40
0.0
 40
0.0
 40
1.0
 40
1.0
 40
1.0
 10
138.55143220850638
 20
93.463015095454978
 30
0.0
 10
138.55142002445072
 20
93.681978122116419
 30
0.0
 10
138.39486124783664
 20
93.832379049619462
 30
0.0
  0
SPLINE
  5
124
102
{ACAD_REACTORS
330
31
102
}
100
AcDbEntity
  8
0
  6
CONTINUOUS
100
AcDbSpline
210
0.0
220
0.0
230
1.0
 70
     8
 71
     2
 72
     6
 73
     3
 74
     0
 42
0.0000001
 43
0.0000001
 40
0.0
 40
0.0
 40
0.0
 40
1.0
 40
1.0
 40
1.0
 10
138.3948612478367
 20
93.832379049619462
 30
0.0
 10
138.23830247125576
 20
93.982779381076057
 30
0.0
 10
137.98659920931632
 20
93.982765375211429
 30
0.0
  0
SPLINE
  5
125
102
{ACAD_REACTORS
330
31
102
}
100
AcDbEntity
  8
0
  6
CONTINUOUS
100
AcDbSpline
210
0.0
220
0.0
230
1.0
 70
     8
 71
     2
 72
     6
 73
     3
 74
     0
 42
0.0000001
 43
0.0000001
 40
0.0
 40
0.0
 40
0.0
 40
1.0
 40
1.0
 40
1.0
 10
137.98659920931641
 20
93.982765375211429
 30
0.0
 10
137.72056699079513
 20
93.982750572021331
 30
0.0
 10
137.56095940254329
 20
93.82312373006053
 30
0.0
  0
SPLINE
  5
126
102
{ACAD_REACTORS
330
31
102
}
100
AcDbEntity
  8
0
  6
CONTINUOUS
100
AcDbSpline
210
0.0
220
0.0
230
1.0
 70
     8
 71
     2
 72
     6
 73
     3
 74
     0
 42
0.0000001
 43
0.0000001
 40
0.0
 40
0.0
 40
0.0
 40
1.0
 40
1.0
 40
1.0
 10
137.56095940254318
 20
93.82312373006053
 30
0.0
 10
137.40135181429122
 20
93.663496888099758
 30
0.0
 10
137.39932189691422
 20
93.38109563020457
 30
0.0
  0
LINE
  5
127
102
{ACAD_REACTORS
330
31
102
}
100
AcDbEntity
  8
0
  6
CONTINUOUS
100
AcDbLine
 10
137.399322
 20
93.381096
 30
0.0
 11
137.020735
 21
93.419956
 31
0.0
  0
SPLINE
  5
128
102
{ACAD_REACTORS
330
31
102
}
100
AcDbEntity
  8
0
  6
CONTINUOUS
100
AcDbSpline
210
0.0
220
0.0
230
1.0
 70
     8
 71
     2
 72
     6
 73
     3
 74
     0
 42
0.0000001
 43
0.0000001
 40
0.0
 40
0.0
 40
0.0
 40
1.0
 40
1.0
 40
1.0
 10
137.0207348722202
 20
93.419955865915412
 30
0.0
 10
137.05959260300534
 20
93.84355959652963
 30
0.0
 10
137.31333390984167
 20
94.06560668037325
 30
0.0
  0
SPLINE
  5
129
102
{ACAD_REACTORS
330
31
102
}
100
AcDbEntity
  8
0
  6
CONTINUOUS
100
AcDbSpline
210
0.0
220
0.0
230
1.0
 70
     8
 71
     2
 72
     6
 73
     3
 74
     0
 42
0.0000001
 43
0.0000001
 40
0.0
 40
0.0
 40
0.0
 40
1.0
 40
1.0
 40
1.0
 10
137.31333390984167
 20
94.065606680373236
 30
0.0
 10
137.56707521669443
 20
94.28765346619366
 30
0.0
 10
137.99476953671098
 20
94.287677264966462
 30
0.0
  0
SPLINE
  5
12A
102
{ACAD_REACTORS
330
31
102
}
100
AcDbEntity
  8
0
  6
CONTINUOUS
100
AcDbSpline
210
0.0
220
0.0
230
1.0
 70
     8
 71
     2
 72
     6
 73
     3
 74
     0
 42
0.0000001
 43
0.0000001
 40
0.0
 40
0.0
 40
0.0
 40
1.0
 40
1.0
 40
1.0
 10
137.99476953671092
 20
94.287677264966476
 30
0.0
 10
138.42655511953865
 20
94.287701291394939
 30
0.0
 10
138.67827170424312
 20
94.048288207939081
 30
0.0
  0
SPLINE
  5
12B
102
{ACAD_REACTORS
330
31
102
}
100
AcDbEntity
  8
0
  6
CONTINUOUS
100
AcDbSpline
210
0.0
220
0.0
230
1.0
 70
     8
 71
     2
 72
     6
 73
     3
 74
     0
 42
0.0000001
 43
0.0000001
 40
0.0
 40
0.0
 40
0.0
 40
1.0
 40
1.0
 40
1.0
 10
138.67827170424317
 20
94.048288207939081
 30
0.0
 10
138.92999305731928
 20
93.808875124748539
 30
0.0
 10
138.93001275678131
 20
93.454850655444176
 30
0.0
  0
SPLINE
  5
12C
102
{ACAD_REACTORS
330
31
102
}
100
AcDbEntity
  8
0
  6
CONTINUOUS
100
AcDbSpline
210
0.0
220
0.0
230
1.0
 70
     8
 71
     2
 72
     6
 73
     3
 74
     0
 42
0.0000001
 43
0.0000001
 40
0.0
 40
0.0
 40
0.0
 40
1.0
 40
1.0
 40
1.0
 10
138.93001275678128
 20
93.454850655444176
 30
0.0
 10
138.93002277731208
 20
93.27476893060242
 30
0.0
 10
138.85636111541496
 20
93.100822086745865
 30
0.0
  0
SPLINE
  5
12D
102
{ACAD_REACTORS
330
31
102
}
100
AcDbEntity
  8
0
  6
CONTINUOUS
100
AcDbSpline
210
0.0
220
0.0
230
1.0
 70
     8
 71
     2
 72
     6
 73
     3
 74
     0
 42
0.0000001
 43
0.0000001
 40
0.0
 40
0.0
 40
0.0
 40
1.0
 40
1.0
 40
1.0
 10
138.8563611154149
 20
93.100822086745865
 30
0.0
 10
138.78269945351778
 20
92.926875242889309
 30
0.0
 10
138.61184033027493
 20
92.734505453302233
 30
0.0
  0
SPLINE
  5
12E
102
{ACAD_REACTORS
330
31
102
}
100
AcDbEntity
  8
0
  6
CONTINUOUS
100
AcDbSpline
210
0.0
220
0.0
230
1.0
 70
     8
 71
     2
 72
     6
 73
     3
 74
     0
 42
0.0000001
 43
0.0000001
 40
0.0
 40
0.0
 40
0.0
 40
1.0
 40
1.0
 40
1.0
 10
138.61184033027507
 20
92.734505453302233
 30
0.0
 10
138.44097643866064
 20
92.542135663449812
 30
0.0
 10
138.04399480110021
 20
92.206506640504642
 30
0.0
  0
SPLINE
  5
12F
102
{ACAD_REACTORS
330
31
102
}
100
AcDbEntity
  8
0
  6
CONTINUOUS
100
AcDbSpline
210
0.0
220
0.0
230
1.0
 70
     8
 71
     2
 72
     6
 73
     3
 74
     0
 42
0.0000001
 43
0.0000001
 40
0.0
 40
0.0
 40
0.0
 40
1.0
 40
1.0
 40
1.0
 10
138.04399480110015
 20
92.206506640504657
 30
0.0
 10
137.71249879040579
 20
91.928179802622424
 30
0.0
 10
137.61837188982366
 20
91.828925082683639
 30
0.0
  0
SPLINE
  5
130
102
{ACAD_REACTORS
330
31
102
}
100
AcDbEntity
  8
0
  6
CONTINUOUS
100
AcDbSpline
210
0.0
220
0.0
230
1.0
 70
     8
 71
     2
 72
     6
 73
     3
 74
     0
 42
0.0000001
 43
0.0000001
 40
0.0
 40
0.0
 40
0.0
 40
1.0
 40
1.0
 40
1.0
 10
137.61837188982366
 20
91.828925082683639
 30
0.0
 10
137.52424022088655
 20
91.729670064456286
 30
0.0
 10
137.46285778485475
 20
91.629393754809612
 30
0.0
  0
LINE
  5
131
102
{ACAD_REACTORS
330
31
102
}
100
AcDbEntity
  8
0
  6
CONTINUOUS
100
AcDbLine
 10
137.462858
 20
91.629394
 30
0.0
 11
138.934206
 21
91.629476
 31
0.0
  0
ENDSEC
  0
SECTION
  2
OBJECTS
  0
DICTIONARY
  5
C
100
AcDbDictionary
  3
ACAD_GROUP
350
D
  3
ACAD_MLINESTYLE
350
1B
  0
DICTIONARY
  5
D
102
{ACAD_REACTORS
330
C
102
}
100
AcDbDictionary
  3
VISIOGROUP_0
350
31
  0
DICTIONARY
  5
1B
102
{ACAD_REACTORS
330
C
102
}
100
AcDbDictionary
  3
STANDARD
350
1C
  0
MLINESTYLE
  5
1C
102
{ACAD_REACTORS
330
1B
102
}
100
AcDbMlineStyle
  2
STANDARD
 70
     0
  3

 62
   256
 51
90.0
 52
90.0
 71
     2
 49
0.5
 62
   256
  6
BYLAYER
 49
-0.5
 62
   256
  6
BYLAYER
  0
DICTIONARY
  5
29
102
{ACAD_REACTORS
330
C
102
}
100
AcDbDictionary
  3
MODEL
350
2A
  3
LAYOUT1
350
2B
  0
DICTIONARY
  5
2C
102
{ACAD_REACTORS
330
C
102
}
100
AcDbDictionary
  0
GROUP
  5
31
102
{ACAD_REACTORS
330
D
102
}
100
AcDbGroup
300
Group created by Visio.
 70
     0
 71
     1
340
32
340
33
340
34
340
35
340
36
340
37
340
38
340
39
340
3A
340
3B
340
3C
340
3D
340
3E
340
3F
340
40
340
41
340
42
340
43
340
44
340
45
340
46
340
47
340
48
340
49
340
4A
340
4B
340
4C
340
4D
340
4E
340
4F
340
50
340
51
340
52
340
53
340
54
340
55
340
56
340
57
340
58
340
59
340
5A
340
5B
340
5C
340
5D
340
5E
340
5F
340
60
340
61
340
62
340
63
340
64
340
65
340
66
340
67
340
68
340
69
340
6A
340
6B
340
6C
340
6D
340
6E
340
6F
340
70
340
71
340
72
340
73
340
74
340
75
340
76
340
77
340
78
340
79
340
7A
340
7B
340
7C
340
7D
340
7E
340
7F
340
80
340
81
340
82
340
83
340
84
340
85
340
86
340
87
340
88
340
89
340
8A
340
8B
340
8C
340
8D
340
8E
340
8F
340
90
340
91
340
92
340
93
340
94
340
95
340
96
340
97
340
98
340
99
340
9A
340
9B
340
9C
340
9D
340
9E
340
9F
340
A0
340
A1
340
A2
340
A3
340
A4
340
A5
340
A6
340
A7
340
A8
340
A9
340
AA
340
AB
340
AC
340
AD
340
AE
340
AF
340
B0
340
B1
340
B2
340
B3
340
B4
340
B5
340
B6
340
B7
340
B8
340
B9
340
BA
340
BB
340
BC
340
BD
340
BE
340
BF
340
C0
340
C1
340
C2
340
C3
340
C4
340
C5
340
C6
340
C7
340
C8
340
C9
340
CA
340
CB
340
CC
340
CD
340
CE
340
CF
340
D0
340
D1
340
D2
340
D3
340
D4
340
D5
340
D6
340
D7
340
D8
340
D9
340
DA
340
DB
340
DC
340
DD
340
DE
340
DF
340
E0
340
E1
340
E2
340
E3
340
E4
340
E5
340
E6
340
E7
340
E8
340
E9
340
EA
340
EB
340
EC
340
ED
340
EE
340
EF
340
F0
340
F1
340
F2
340
F3
340
F4
340
F5
340
F6
340
F7
340
F8
340
F9
340
FA
340
FB
340
FC
340
FD
340
FE
340
FF
340
100
340
101
340
102
340
103
340
104
340
105
340
106
340
107
340
108
340
109
340
10A
340
10B
340
10C
340
10D
340
10E
340
10F
340
110
340
111
340
112
340
113
340
114
340
115
340
116
340
117
340
118
340
119
340
11A
340
11B
340
11C
340
11D
340
11E
340
11F
340
120
340
121
340
122
340
123
340
124
340
125
340
126
340
127
340
128
340
129
340
12A
340
12B
340
12C
340
12D
340
12E
340
12F
340
130
340
131
  0
ENDSEC
  0
EOF
