  0
SECTION
  2
HEADER
  9
$ACADVER
  1
AC1014
  9
$ACADMAINTVER
 70
     0
  9
$DWGCODEPAGE
  3
ANSI_1252
  9
$INSBASE
 10
0.0
 20
0.0
 30
0.0
  9
$EXTMIN
 10
0.0
 20
0.0
 30
0.0
  9
$EXTMAX
 10
255.0
 20
330.0
 30
0.0
  9
$LIMMIN
 10
0.0
 20
0.0
  9
$LIMMAX
 10
12.0
 20
9.0
  9
$ORTHOMODE
 70
     0
  9
$REGENMODE
 70
     1
  9
$FILLMODE
 70
     0
  9
$QTEXTMODE
 70
     0
  9
$MIRRTEXT
 70
     1
  9
$DRAGMODE
 70
     2
  9
$LTSCALE
 40
1.0
  9
$OSMODE
 70
    37
  9
$ATTMODE
 70
     1
  9
$TEXTSIZE
 40
0.2
  9
$TRACEWID
 40
0.05
  9
$TEXTSTYLE
  7
STANDARD
  9
$CLAYER
  8
0
  9
$CELTYPE
  6
BYLAYER
  9
$CECOLOR
 62
   256
  9
$CELTSCALE
 40
1.0
  9
$DELOBJ
 70
     1
  9
$DISPSILH
 70
     0
  9
$DIMSCALE
 40
1.0
  9
$DIMASZ
 40
0.18
  9
$DIMEXO
 40
0.0625
  9
$DIMDLI
 40
0.38
  9
$DIMRND
 40
0.0
  9
$DIMDLE
 40
0.0
  9
$DIMEXE
 40
0.18
  9
$DIMTP
 40
0.0
  9
$DIMTM
 40
0.0
  9
$DIMTXT
 40
0.18
  9
$DIMCEN
 40
0.09
  9
$DIMTSZ
 40
0.0
  9
$DIMTOL
 70
     0
  9
$DIMLIM
 70
     0
  9
$DIMTIH
 70
     0
  9
$DIMTOH
 70
     0
  9
$DIMSE1
 70
     0
  9
$DIMSE2
 70
     0
  9
$DIMTAD
 70
     1
  9
$DIMZIN
 70
     0
  9
$DIMBLK
  1

  9
$DIMASO
 70
     1
  9
$DIMSHO
 70
     1
  9
$DIMPOST
  1

  9
$DIMAPOST
  1

  9
$DIMALT
 70
     0
  9
$DIMALTD
 70
     2
  9
$DIMALTF
 40
25.4
  9
$DIMLFAC
 40
1.0
  9
$DIMTOFL
 70
     0
  9
$DIMTVP
 40
0.0
  9
$DIMTIX
 70
     0
  9
$DIMSOXD
 70
     0
  9
$DIMSAH
 70
     0
  9
$DIMBLK1
  1

  9
$DIMBLK2
  1

  9
$DIMSTYLE
  2
STANDARD
  9
$DIMCLRD
 70
     0
  9
$DIMCLRE
 70
     0
  9
$DIMCLRT
 70
     0
  9
$DIMTFAC
 40
1.0
  9
$DIMGAP
 40
0.09
  9
$DIMJUST
 70
     0
  9
$DIMSD1
 70
     0
  9
$DIMSD2
 70
     0
  9
$DIMTOLJ
 70
     1
  9
$DIMTZIN
 70
     0
  9
$DIMALTZ
 70
     0
  9
$DIMALTTZ
 70
     0
  9
$DIMFIT
 70
     5
  9
$DIMUPT
 70
     0
  9
$DIMUNIT
 70
     2
  9
$DIMDEC
 70
     2
  9
$DIMTDEC
 70
     4
  9
$DIMALTU
 70
     2
  9
$DIMALTTD
 70
     2
  9
$DIMTXSTY
  7
STANDARD
  9
$DIMAUNIT
 70
     0
  9
$LUNITS
 70
     2
  9
$LUPREC
 70
     4
  9
$SKETCHINC
 40
0.1
  9
$FILLETRAD
 40
0.5
  9
$AUNITS
 70
     0
  9
$AUPREC
 70
     0
  9
$MENU
  1
.
  9
$ELEVATION
 40
0.0
  9
$PELEVATION
 40
0.0
  9
$THICKNESS
 40
0.0
  9
$LIMCHECK
 70
     0
  9
$BLIPMODE
 70
     0
  9
$CHAMFERA
 40
0.5
  9
$CHAMFERB
 40
0.5
  9
$CHAMFERC
 40
1.0
  9
$CHAMFERD
 40
0.0
  9
$SKPOLY
 70
     0
  9
$TDCREATE
 40
2450772.666465926
  9
$TDUPDATE
 40
2459354.405891204
  9
$TDINDWG
 40
0.0011565046
  9
$TDUSRTIMER
 40
0.0011565046
  9
$USRTIMER
 70
     1
  9
$ANGBASE
 50
0.0
  9
$ANGDIR
 70
     0
  9
$PDMODE
 70
     0
  9
$PDSIZE
 40
0.0
  9
$PLINEWID
 40
0.0
  9
$COORDS
 70
     1
  9
$SPLFRAME
 70
     0
  9
$SPLINETYPE
 70
     6
  9
$SPLINESEGS
 70
     8
  9
$ATTDIA
 70
     0
  9
$ATTREQ
 70
     1
  9
$HANDLING
 70
     1
  9
$HANDSEED
  5
1E6
  9
$SURFTAB1
 70
     6
  9
$SURFTAB2
 70
     6
  9
$SURFTYPE
 70
     6
  9
$SURFU
 70
     6
  9
$SURFV
 70
     6
  9
$UCSNAME
  2

  9
$UCSORG
 10
0.0
 20
0.0
 30
0.0
  9
$UCSXDIR
 10
1.0
 20
0.0
 30
0.0
  9
$UCSYDIR
 10
0.0
 20
1.0
 30
0.0
  9
$PUCSNAME
  2

  9
$PUCSORG
 10
0.0
 20
0.0
 30
0.0
  9
$PUCSXDIR
 10
1.0
 20
0.0
 30
0.0
  9
$PUCSYDIR
 10
0.0
 20
1.0
 30
0.0
  9
$USERI1
 70
     0
  9
$USERI2
 70
     0
  9
$USERI3
 70
     0
  9
$USERI4
 70
     0
  9
$USERI5
 70
     0
  9
$USERR1
 40
0.0
  9
$USERR2
 40
0.0
  9
$USERR3
 40
0.0
  9
$USERR4
 40
0.0
  9
$USERR5
 40
0.0
  9
$WORLDVIEW
 70
     1
  9
$SHADEDGE
 70
     3
  9
$SHADEDIF
 70
    70
  9
$TILEMODE
 70
     1
  9
$MAXACTVP
 70
    48
  9
$PINSBASE
 10
0.0
 20
0.0
 30
0.0
  9
$PLIMCHECK
 70
     0
  9
$PEXTMIN
 10
0.0
 20
0.0
 30
0.0
  9
$PEXTMAX
 10
0.0
 20
0.0
 30
0.0
  9
$PLIMMIN
 10
0.0
 20
0.0
  9
$PLIMMAX
 10
12.0
 20
9.0
  9
$UNITMODE
 70
     0
  9
$VISRETAIN
 70
     1
  9
$PLINEGEN
 70
     0
  9
$PSLTSCALE
 70
     1
  9
$TREEDEPTH
 70
  3020
  9
$PICKSTYLE
 70
     1
  9
$CMLSTYLE
  2
STANDARD
  9
$CMLJUST
 70
     0
  9
$CMLSCALE
 40
1.0
  9
$PROXYGRAPHICS
 70
     1
  9
$MEASUREMENT
 70
     0
  0
ENDSEC
  0
SECTION
  2
CLASSES
  0
CLASS
  1
LWPOLYLINE
  2
AcDbPolyline
  3
AutoCAD 2000
 90
       20
280
     0
281
     1
  0
CLASS
  1
IMAGE
  2
AcDbRasterImage
  3
ISM
 90
       21
280
     0
281
     1
  0
CLASS
  1
OLE2FRAME
  2
AcDbOle2Frame
  3
AutoCAD 2000
 90
       21
280
     0
281
     1
  0
CLASS
  1
HATCH
  2
AcDbHatch
  3
AutoCAD 2000
 90
       20
280
     0
281
     1
  0
CLASS
  1
DICTIONARYVAR
  2
AcDbDictionaryVar
  3
ObjectDBX Classes
 90
       20
280
     0
281
     0
  0
CLASS
  1
RASTERVARIABLES
  2
AcDbRasterVariables
  3
ISM
 90
       21
280
     0
281
     0
  0
CLASS
  1
IMAGEDEF
  2
AcDbRasterImageDef
  3
ISM
 90
       21
280
     0
281
     0
  0
CLASS
  1
IMAGEDEF_REACTOR
  2
AcDbRasterImageDefReactor
  3
ISM
 90
       21
280
     0
281
     0
  0
CLASS
  1
IDBUFFER
  2
AcDbIdBuffer
  3
ObjectDBX Classes
 90
       20
280
     0
281
     0
  0
CLASS
  1
SPATIAL_FILTER
  2
AcDbSpatialFilter
  3
ObjectDBX Classes
 90
       20
280
     0
281
     0
  0
CLASS
  1
XRECORD
  2
AcDbXrecord
  3
AutoCAD 2000
 90
       21
280
     0
281
     0
  0
CLASS
  1
SORTENTSTABLE
  2
AcDbSortentsTable
  3
"AutoCAD"
 90
        0
280
     0
281
     0
  0
CLASS
  1
LAYER_INDEX
  2
AcDbLayerIndex
  3
"Acad"
 90
        0
280
     0
281
     0
  0
CLASS
  1
SPATIAL_INDEX
  2
AcDbSpatialIndex
  3
"Acad"
 90
        0
280
     0
281
     0
  0
CLASS
  1
OBJECT_PTR
  2
CAseDLPNTableRecord
  3
"ASE-LPNTableRecord"
 90
        1
280
     0
281
     0
  0
CLASS
  1
LAYOUT
  2
AcDbLayout
  3
"AutoCAD 2000"
 90
        1
280
     0
281
     0
  0
CLASS
  1
PLOTSETTINGS
  2
AcDbPlotsettings
  3
"AutoCAD 2000"
 90
        1
280
     0
281
     0
  0
CLASS
  1
ACDBDICTIONARYWDFLT
  2
AcDbDictionaryWithDefault
  3
"AutoCAD 2000"
 90
        1
280
     0
281
     0
  0
CLASS
  1
ACDBPLACEHOLDER
  2
AcDbPlaceholder
  3
"AutoCAD 2000"
 90
        1
280
     0
281
     0
  0
CLASS
  1
VBA_PROJECT
  2
AcDbVbaProject
  3
"AutoCAD 2000"
 90
        1
280
     0
281
     0
  0
CLASS
  1
WIPEOUT
  2
AcDbWipeout
  3
"AutoCAD 2000"
 90
        1
280
     0
281
     1
  0
CLASS
  1
WIPEOUTVARIABLES
  2
AcDbWipeoutVariables
  3
"AutoCAD 2000"
 90
        1
280
     0
281
     0
  0
CLASS
  1
RTEXT
  2
RText
  3
RText|AutoCAD Express Tool|expresstools@autodesk.com
 90
        1
280
     0
281
     1
  0
CLASS
  1
ARCALIGNEDTEXT
  2
AcDbArcAlignedText
  3
RText|AutoCAD Express Tool|expresstools@autodesk.com
 90
        1
280
     0
281
     1
  0
ENDSEC
  0
SECTION
  2
TABLES
  0
TABLE
  2
VPORT
  5
8
100
AcDbSymbolTable
 70
     1
  0
VPORT
  5
25
100
AcDbSymbolTableRecord
100
AcDbViewportTableRecord
  2
*ACTIVE
 70
     0
 10
0.0
 20
0.0
 11
1.0
 21
1.0
 12
127.5
 22
165.0
 13
0.0
 23
0.0
 14
0.5
 24
0.5
 15
0.5
 25
0.5
 16
0.0
 26
0.0
 36
1.0
 17
0.0
 27
0.0
 37
0.0
 40
330.0
 41
0.772727
 42
50.0
 43
0.0
 44
0.0
 50
0.0
 51
0.0
 71
     0
 72
   100
 73
     1
 74
     1
 75
     0
 76
     0
 77
     0
 78
     0
  0
ENDTAB
  0
TABLE
  2
LTYPE
  5
5
100
AcDbSymbolTable
 70
     3
  0
LTYPE
  5
12
100
AcDbSymbolTableRecord
100
AcDbLinetypeTableRecord
  2
BYBLOCK
 70
     0
  3

 72
    65
 73
     0
 40
0.0
  0
LTYPE
  5
13
100
AcDbSymbolTableRecord
100
AcDbLinetypeTableRecord
  2
BYLAYER
 70
     0
  3

 72
    65
 73
     0
 40
0.0
  0
LTYPE
  5
14
100
AcDbSymbolTableRecord
100
AcDbLinetypeTableRecord
  2
CONTINUOUS
 70
     0
  3
Solid line
 72
    65
 73
     0
 40
0.0
  0
ENDTAB
  0
TABLE
  2
LAYER
  5
2
100
AcDbSymbolTable
 70
     1
  0
LAYER
  5
E
100
AcDbSymbolTableRecord
100
AcDbLayerTableRecord
  2
0
 70
     0
 62
     7
  6
CONTINUOUS
  0
ENDTAB
  0
TABLE
  2
STYLE
  5
3
100
AcDbSymbolTable
 70
     1
  0
STYLE
  5
F
100
AcDbSymbolTableRecord
100
AcDbTextStyleTableRecord
  2
STANDARD
 70
     0
 40
0.0
 41
1.0
 50
0.0
 71
     0
 42
0.2
  3
txt.shx
  4

  0
ENDTAB
  0
TABLE
  2
VIEW
  5
6
100
AcDbSymbolTable
 70
     0
  0
ENDTAB
  0
TABLE
  2
UCS
  5
7
100
AcDbSymbolTable
 70
     0
  0
ENDTAB
  0
TABLE
  2
APPID
  5
9
100
AcDbSymbolTable
 70
     1
  0
APPID
  5
10
100
AcDbSymbolTableRecord
100
AcDbRegAppTableRecord
  2
ACAD
 70
     0
  0
ENDTAB
  0
TABLE
  2
DIMSTYLE
  5
A
100
AcDbSymbolTable
 70
     1
  0
DIMSTYLE
105
1D
100
AcDbSymbolTableRecord
100
AcDbDimStyleTableRecord
  2
STANDARD
 70
     0
  3

  4

  5

  6

  7

 40
1.0
 41
0.18
 42
0.0625
 43
0.38
 44
0.18
 45
0.0
 46
0.0
 47
0.0
 48
0.0
 71
     0
 72
     0
 73
     1
 74
     1
 75
     0
 76
     0
 77
     0
 78
     0
140
0.18
141
0.09
142
0.0
143
25.4
144
1.0
145
0.0
146
1.0
147
0.09
170
     0
171
     2
172
     0
173
     0
174
     0
175
     0
176
     0
177
     0
178
     0
270
     2
271
     4
272
     4
273
     2
274
     2
275
     0
280
     0
281
     0
282
     0
283
     1
284
     0
285
     0
286
     0
287
     3
288
     0
340
F
  0
ENDTAB
  0
TABLE
  2
BLOCK_RECORD
  5
1
100
AcDbSymbolTable
 70
     0
  0
BLOCK_RECORD
  5
18
100
AcDbSymbolTableRecord
100
AcDbBlockTableRecord
  2
*MODEL_SPACE
  0
BLOCK_RECORD
  5
15
100
AcDbSymbolTableRecord
100
AcDbBlockTableRecord
  2
*PAPER_SPACE
  0
ENDTAB
  0
ENDSEC
  0
SECTION
  2
BLOCKS
  0
BLOCK
  5
19
100
AcDbEntity
  8
0
100
AcDbBlockBegin
  2
*MODEL_SPACE
 70
     0
 10
0.0
 20
0.0
 30
0.0
  3
*MODEL_SPACE
  1

  0
ENDBLK
  5
1A
100
AcDbEntity
  8
0
100
AcDbBlockEnd
  0
BLOCK
  5
16
100
AcDbEntity
 67
     1
  8
0
100
AcDbBlockBegin
  2
*PAPER_SPACE
 70
     0
 10
0.0
 20
0.0
 30
0.0
  3
*PAPER_SPACE
  1

  0
ENDBLK
  5
17
100
AcDbEntity
 67
     1
  8
0
100
AcDbBlockEnd
  0
ENDSEC
  0
SECTION
  2
ENTITIES
  0
LINE
  5
32
102
{ACAD_REACTORS
330
31
102
}
100
AcDbEntity
  8
0
  6
CONTINUOUS
100
AcDbLine
 10
62.381998
 20
236.850003
 30
0.0
 11
62.381998
 21
240.050003
 31
0.0
  0
LINE
  5
33
102
{ACAD_REACTORS
330
31
102
}
100
AcDbEntity
  8
0
  6
CONTINUOUS
100
AcDbLine
 10
62.381998
 20
240.050003
 30
0.0
 11
82.381998
 21
240.050003
 31
0.0
  0
LINE
  5
34
102
{ACAD_REACTORS
330
31
102
}
100
AcDbEntity
  8
0
  6
CONTINUOUS
100
AcDbLine
 10
82.381998
 20
240.050003
 30
0.0
 11
82.381998
 21
236.850003
 31
0.0
  0
LINE
  5
35
102
{ACAD_REACTORS
330
31
102
}
100
AcDbEntity
  8
0
  6
CONTINUOUS
100
AcDbLine
 10
82.381998
 20
236.850003
 30
0.0
 11
172.581998
 21
236.850003
 31
0.0
  0
LINE
  5
36
102
{ACAD_REACTORS
330
31
102
}
100
AcDbEntity
  8
0
  6
CONTINUOUS
100
AcDbLine
 10
172.581998
 20
236.850003
 30
0.0
 11
172.581998
 21
240.050003
 31
0.0
  0
LINE
  5
37
102
{ACAD_REACTORS
330
31
102
}
100
AcDbEntity
  8
0
  6
CONTINUOUS
100
AcDbLine
 10
172.581998
 20
240.050003
 30
0.0
 11
192.581998
 21
240.050003
 31
0.0
  0
LINE
  5
38
102
{ACAD_REACTORS
330
31
102
}
100
AcDbEntity
  8
0
  6
CONTINUOUS
100
AcDbLine
 10
192.581998
 20
240.050003
 30
0.0
 11
192.581998
 21
236.850003
 31
0.0
  0
LINE
  5
39
102
{ACAD_REACTORS
330
31
102
}
100
AcDbEntity
  8
0
  6
CONTINUOUS
100
AcDbLine
 10
192.581998
 20
236.850004
 30
0.0
 11
204.381998
 21
236.850004
 31
0.0
  0
LINE
  5
3A
102
{ACAD_REACTORS
330
31
102
}
100
AcDbEntity
  8
0
  6
CONTINUOUS
100
AcDbLine
 10
204.381998
 20
236.850004
 30
0.0
 11
204.381998
 21
221.850004
 31
0.0
  0
LINE
  5
3B
102
{ACAD_REACTORS
330
31
102
}
100
AcDbEntity
  8
0
  6
CONTINUOUS
100
AcDbLine
 10
204.381998
 20
221.850004
 30
0.0
 11
207.581996
 21
221.850004
 31
0.0
  0
LINE
  5
3C
102
{ACAD_REACTORS
330
31
102
}
100
AcDbEntity
  8
0
  6
CONTINUOUS
100
AcDbLine
 10
207.581996
 20
221.850004
 30
0.0
 11
207.581996
 21
201.850004
 31
0.0
  0
LINE
  5
3D
102
{ACAD_REACTORS
330
31
102
}
100
AcDbEntity
  8
0
  6
CONTINUOUS
100
AcDbLine
 10
207.581996
 20
201.850004
 30
0.0
 11
204.381998
 21
201.850004
 31
0.0
  0
LINE
  5
3E
102
{ACAD_REACTORS
330
31
102
}
100
AcDbEntity
  8
0
  6
CONTINUOUS
100
AcDbLine
 10
204.381998
 20
201.850004
 30
0.0
 11
204.381998
 21
195.850004
 31
0.0
  0
LINE
  5
3F
102
{ACAD_REACTORS
330
31
102
}
100
AcDbEntity
  8
0
  6
CONTINUOUS
100
AcDbLine
 10
204.381998
 20
135.050003
 30
0.0
 11
207.581998
 21
135.050003
 31
0.0
  0
LINE
  5
40
102
{ACAD_REACTORS
330
31
102
}
100
AcDbEntity
  8
0
  6
CONTINUOUS
100
AcDbLine
 10
207.581998
 20
135.050003
 30
0.0
 11
207.581998
 21
115.050003
 31
0.0
  0
LINE
  5
41
102
{ACAD_REACTORS
330
31
102
}
100
AcDbEntity
  8
0
  6
CONTINUOUS
100
AcDbLine
 10
207.581998
 20
115.050003
 30
0.0
 11
204.381998
 21
115.050003
 31
0.0
  0
LINE
  5
42
102
{ACAD_REACTORS
330
31
102
}
100
AcDbEntity
  8
0
  6
CONTINUOUS
100
AcDbLine
 10
204.381998
 20
115.050003
 30
0.0
 11
204.381998
 21
100.050003
 31
0.0
  0
LINE
  5
43
102
{ACAD_REACTORS
330
31
102
}
100
AcDbEntity
  8
0
  6
CONTINUOUS
100
AcDbLine
 10
204.381998
 20
100.050003
 30
0.0
 11
192.581998
 21
100.050003
 31
0.0
  0
LINE
  5
44
102
{ACAD_REACTORS
330
31
102
}
100
AcDbEntity
  8
0
  6
CONTINUOUS
100
AcDbLine
 10
192.581998
 20
100.050003
 30
0.0
 11
192.581998
 21
96.850003
 31
0.0
  0
LINE
  5
45
102
{ACAD_REACTORS
330
31
102
}
100
AcDbEntity
  8
0
  6
CONTINUOUS
100
AcDbLine
 10
192.581998
 20
96.850003
 30
0.0
 11
172.581998
 21
96.850003
 31
0.0
  0
LINE
  5
46
102
{ACAD_REACTORS
330
31
102
}
100
AcDbEntity
  8
0
  6
CONTINUOUS
100
AcDbLine
 10
172.581998
 20
96.850003
 30
0.0
 11
172.581998
 21
100.050003
 31
0.0
  0
LINE
  5
47
102
{ACAD_REACTORS
330
31
102
}
100
AcDbEntity
  8
0
  6
CONTINUOUS
100
AcDbLine
 10
172.581998
 20
100.050003
 30
0.0
 11
82.381998
 21
100.050003
 31
0.0
  0
LINE
  5
48
102
{ACAD_REACTORS
330
31
102
}
100
AcDbEntity
  8
0
  6
CONTINUOUS
100
AcDbLine
 10
82.381998
 20
100.050003
 30
0.0
 11
82.381998
 21
96.850003
 31
0.0
  0
LINE
  5
49
102
{ACAD_REACTORS
330
31
102
}
100
AcDbEntity
  8
0
  6
CONTINUOUS
100
AcDbLine
 10
82.381998
 20
96.850003
 30
0.0
 11
62.381998
 21
96.850003
 31
0.0
  0
LINE
  5
4A
102
{ACAD_REACTORS
330
31
102
}
100
AcDbEntity
  8
0
  6
CONTINUOUS
100
AcDbLine
 10
62.381998
 20
96.850003
 30
0.0
 11
62.381998
 21
100.050003
 31
0.0
  0
LINE
  5
4B
102
{ACAD_REACTORS
330
31
102
}
100
AcDbEntity
  8
0
  6
CONTINUOUS
100
AcDbLine
 10
62.381998
 20
100.050003
 30
0.0
 11
50.581998
 21
100.050003
 31
0.0
  0
LINE
  5
4C
102
{ACAD_REACTORS
330
31
102
}
100
AcDbEntity
  8
0
  6
CONTINUOUS
100
AcDbLine
 10
50.581998
 20
100.050003
 30
0.0
 11
50.581998
 21
115.050003
 31
0.0
  0
LINE
  5
4D
102
{ACAD_REACTORS
330
31
102
}
100
AcDbEntity
  8
0
  6
CONTINUOUS
100
AcDbLine
 10
50.581998
 20
115.050003
 30
0.0
 11
47.381998
 21
115.050003
 31
0.0
  0
LINE
  5
4E
102
{ACAD_REACTORS
330
31
102
}
100
AcDbEntity
  8
0
  6
CONTINUOUS
100
AcDbLine
 10
47.381998
 20
115.050003
 30
0.0
 11
47.381998
 21
135.050003
 31
0.0
  0
LINE
  5
4F
102
{ACAD_REACTORS
330
31
102
}
100
AcDbEntity
  8
0
  6
CONTINUOUS
100
AcDbLine
 10
47.381998
 20
135.050003
 30
0.0
 11
50.581998
 21
135.050003
 31
0.0
  0
LINE
  5
50
102
{ACAD_REACTORS
330
31
102
}
100
AcDbEntity
  8
0
  6
CONTINUOUS
100
AcDbLine
 10
50.581998
 20
135.050003
 30
0.0
 11
50.581998
 21
201.850003
 31
0.0
  0
LINE
  5
51
102
{ACAD_REACTORS
330
31
102
}
100
AcDbEntity
  8
0
  6
CONTINUOUS
100
AcDbLine
 10
50.581998
 20
201.850003
 30
0.0
 11
47.381998
 21
201.850003
 31
0.0
  0
LINE
  5
52
102
{ACAD_REACTORS
330
31
102
}
100
AcDbEntity
  8
0
  6
CONTINUOUS
100
AcDbLine
 10
47.381998
 20
201.850003
 30
0.0
 11
47.381998
 21
221.850003
 31
0.0
  0
LINE
  5
53
102
{ACAD_REACTORS
330
31
102
}
100
AcDbEntity
  8
0
  6
CONTINUOUS
100
AcDbLine
 10
47.381998
 20
221.850003
 30
0.0
 11
50.581998
 21
221.850003
 31
0.0
  0
LINE
  5
54
102
{ACAD_REACTORS
330
31
102
}
100
AcDbEntity
  8
0
  6
CONTINUOUS
100
AcDbLine
 10
50.581998
 20
221.850003
 30
0.0
 11
50.581998
 21
236.850003
 31
0.0
  0
LINE
  5
55
102
{ACAD_REACTORS
330
31
102
}
100
AcDbEntity
  8
0
  6
CONTINUOUS
100
AcDbLine
 10
50.581998
 20
236.850003
 30
0.0
 11
62.381998
 21
236.850003
 31
0.0
  0
CIRCLE
  5
56
102
{ACAD_REACTORS
330
31
102
}
100
AcDbEntity
  8
0
  6
CONTINUOUS
100
AcDbCircle
 10
111.581998
 20
168.450003
 30
0.0
 40
59.0
  0
CIRCLE
  5
57
102
{ACAD_REACTORS
330
31
102
}
100
AcDbEntity
  8
0
  6
CONTINUOUS
100
AcDbCircle
 10
58.581998
 20
115.450003
 30
0.0
 40
2.5
  0
CIRCLE
  5
58
102
{ACAD_REACTORS
330
31
102
}
100
AcDbEntity
  8
0
  6
CONTINUOUS
100
AcDbCircle
 10
58.581998
 20
221.450003
 30
0.0
 40
2.5
  0
CIRCLE
  5
59
102
{ACAD_REACTORS
330
31
102
}
100
AcDbEntity
  8
0
  6
CONTINUOUS
100
AcDbCircle
 10
164.581998
 20
221.450003
 30
0.0
 40
2.5
  0
CIRCLE
  5
5A
102
{ACAD_REACTORS
330
31
102
}
100
AcDbEntity
  8
0
  6
CONTINUOUS
100
AcDbCircle
 10
164.581998
 20
115.450003
 30
0.0
 40
2.5
  0
LINE
  5
5B
102
{ACAD_REACTORS
330
31
102
}
100
AcDbEntity
  8
0
  6
CONTINUOUS
100
AcDbLine
 10
204.381998
 20
195.850004
 30
0.0
 11
194.981998
 21
195.850004
 31
0.0
  0
LINE
  5
5C
102
{ACAD_REACTORS
330
31
102
}
100
AcDbEntity
  8
0
  6
CONTINUOUS
100
AcDbLine
 10
194.981998
 20
195.850004
 30
0.0
 11
194.981998
 21
179.450004
 31
0.0
  0
LINE
  5
5D
102
{ACAD_REACTORS
330
31
102
}
100
AcDbEntity
  8
0
  6
CONTINUOUS
100
AcDbLine
 10
194.981998
 20
179.450004
 30
0.0
 11
204.381998
 21
179.450004
 31
0.0
  0
LINE
  5
5E
102
{ACAD_REACTORS
330
31
102
}
100
AcDbEntity
  8
0
  6
CONTINUOUS
100
AcDbLine
 10
204.381998
 20
179.450004
 30
0.0
 11
204.381998
 21
135.050003
 31
0.0
  0
LWPOLYLINE
  5
5F
102
{ACAD_REACTORS
330
31
102
}
100
AcDbEntity
  8
0
  6
CONTINUOUS
100
AcDbPolyline
 90
       13
 70
     0
 10
184.58933
 20
126.217836
 10
187.589005
 20
126.262
 10
187.583161
 20
126.658956
 10
186.169262
 20
126.638139
 10
186.146306
 20
128.197316
 10
187.560205
 20
128.218133
 10
187.55436
 20
128.615089
 10
184.554685
 20
128.570925
 10
184.56053
 20
128.173968
 10
185.79232
 20
128.192104
 10
185.815276
 20
126.632927
 10
184.583485
 20
126.614792
 10
184.58933
 20
126.217836
  0
SPLINE
  5
60
102
{ACAD_REACTORS
330
31
102
}
100
AcDbEntity
  8
0
  6
CONTINUOUS
100
AcDbSpline
210
0.0
220
0.0
230
1.0
 70
     8
 71
     2
 72
     6
 73
     3
 74
     0
 42
0.0000001
 43
0.0000001
 40
0.0
 40
0.0
 40
0.0
 40
1.0
 40
1.0
 40
1.0
 10
186.46082860289667
 20
129.0758477485796
 30
0.0
 10
185.85721043073599
 20
129.06696067110647
 30
0.0
 10
185.56171466945054
 20
129.39825279235029
 30
0.0
  0
SPLINE
  5
61
102
{ACAD_REACTORS
330
31
102
}
100
AcDbEntity
  8
0
  6
CONTINUOUS
100
AcDbSpline
210
0.0
220
0.0
230
1.0
 70
     8
 71
     2
 72
     6
 73
     3
 74
     0
 42
0.0000001
 43
0.0000001
 40
0.0
 40
0.0
 40
0.0
 40
1.0
 40
1.0
 40
1.0
 10
185.56171466945054
 20
129.39825279235032
 30
0.0
 10
185.31614014494588
 20
129.6750227950439
 30
0.0
 10
185.31020537673388
 20
130.07811750770415
 30
0.0
  0
SPLINE
  5
62
102
{ACAD_REACTORS
330
31
102
}
100
AcDbEntity
  8
0
  6
CONTINUOUS
100
AcDbSpline
210
0.0
220
0.0
230
1.0
 70
     8
 71
     2
 72
     6
 73
     3
 74
     0
 42
0.0000001
 43
0.0000001
 40
0.0
 40
0.0
 40
0.0
 40
1.0
 40
1.0
 40
1.0
 10
185.31020537673385
 20
130.07811750770412
 30
0.0
 10
185.30360785936523
 20
130.52622672999576
 30
0.0
 10
185.59304470503918
 20
130.81496660984811
 30
0.0
  0
SPLINE
  5
63
102
{ACAD_REACTORS
330
31
102
}
100
AcDbEntity
  8
0
  6
CONTINUOUS
100
AcDbSpline
210
0.0
220
0.0
230
1.0
 70
     8
 71
     2
 72
     6
 73
     3
 74
     0
 42
0.0000001
 43
0.0000001
 40
0.0
 40
0.0
 40
0.0
 40
1.0
 40
1.0
 40
1.0
 10
185.59304470503915
 20
130.81496660984811
 30
0.0
 10
185.88248169970853
 20
131.10370649189412
 30
0.0
 10
186.40016107608849
 20
131.11132829146266
 30
0.0
  0
SPLINE
  5
64
102
{ACAD_REACTORS
330
31
102
}
100
AcDbEntity
  8
0
  6
CONTINUOUS
100
AcDbSpline
210
0.0
220
0.0
230
1.0
 70
     8
 71
     2
 72
     6
 73
     3
 74
     0
 42
0.0000001
 43
0.0000001
 40
0.0
 40
0.0
 40
0.0
 40
1.0
 40
1.0
 40
1.0
 10
186.40016107608849
 20
131.11132829146263
 30
0.0
 10
186.81962443044114
 20
131.11750405537961
 30
0.0
 10
187.06190132660888
 20
130.99520344586674
 30
0.0
  0
SPLINE
  5
65
102
{ACAD_REACTORS
330
31
102
}
100
AcDbEntity
  8
0
  6
CONTINUOUS
100
AcDbSpline
210
0.0
220
0.0
230
1.0
 70
     8
 71
     2
 72
     6
 73
     3
 74
     0
 42
0.0000001
 43
0.0000001
 40
0.0
 40
0.0
 40
0.0
 40
1.0
 40
1.0
 40
1.0
 10
187.06190132660885
 20
130.99520344586674
 30
0.0
 10
187.30417818767799
 20
130.87290522028127
 30
0.0
 10
187.4407184539314
 20
130.63443953943798
 30
0.0
  0
SPLINE
  5
66
102
{ACAD_REACTORS
330
31
102
}
100
AcDbEntity
  8
0
  6
CONTINUOUS
100
AcDbSpline
210
0.0
220
0.0
230
1.0
 70
     8
 71
     2
 72
     6
 73
     3
 74
     0
 42
0.0000001
 43
0.0000001
 40
0.0
 40
0.0
 40
0.0
 40
1.0
 40
1.0
 40
1.0
 10
187.44071845393142
 20
130.63443953943798
 30
0.0
 10
187.57725903572504
 20
130.39597267101828
 30
0.0
 10
187.58144649074958
 20
130.11155701743283
 30
0.0
  0
SPLINE
  5
67
102
{ACAD_REACTORS
330
31
102
}
100
AcDbEntity
  8
0
  6
CONTINUOUS
100
AcDbSpline
210
0.0
220
0.0
230
1.0
 70
     8
 71
     2
 72
     6
 73
     3
 74
     0
 42
0.0000001
 43
0.0000001
 40
0.0
 40
0.0
 40
0.0
 40
1.0
 40
1.0
 40
1.0
 10
187.58144649074961
 20
130.11155701743283
 30
0.0
 10
187.58816453668189
 20
129.6552613883585
 30
0.0
 10
187.29970533788338
 20
129.36960706652101
 30
0.0
  0
SPLINE
  5
68
102
{ACAD_REACTORS
330
31
102
}
100
AcDbEntity
  8
0
  6
CONTINUOUS
100
AcDbSpline
210
0.0
220
0.0
230
1.0
 70
     8
 71
     2
 72
     6
 73
     3
 74
     0
 42
0.0000001
 43
0.0000001
 40
0.0
 40
0.0
 40
0.0
 40
1.0
 40
1.0
 40
1.0
 10
187.29970533788338
 20
129.36960706652098
 30
0.0
 10
187.01124645462511
 20
129.08395155710713
 30
0.0
 10
186.46082860289667
 20
129.07584774857963
 30
0.0
  0
SPLINE
  5
69
102
{ACAD_REACTORS
330
31
102
}
100
AcDbEntity
  8
0
  6
CONTINUOUS
100
AcDbSpline
210
0.0
220
0.0
230
1.0
 70
     8
 71
     2
 72
     6
 73
     3
 74
     0
 42
0.0000001
 43
0.0000001
 40
0.0
 40
0.0
 40
0.0
 40
1.0
 40
1.0
 40
1.0
 10
186.4552553501785
 20
129.45438800874666
 30
0.0
 10
186.87267240082639
 20
129.46053364491004
 30
0.0
 10
187.07767689087376
 20
129.64569961961462
 30
0.0
  0
SPLINE
  5
6A
102
{ACAD_REACTORS
330
31
102
}
100
AcDbEntity
  8
0
  6
CONTINUOUS
100
AcDbSpline
210
0.0
220
0.0
230
1.0
 70
     8
 71
     2
 72
     6
 73
     3
 74
     0
 42
0.0000001
 43
0.0000001
 40
0.0
 40
0.0
 40
0.0
 40
1.0
 40
1.0
 40
1.0
 10
187.07767689087376
 20
129.64569961961465
 30
0.0
 10
187.2826813809211
 20
129.83086559431922
 30
0.0
 10
187.27861440181235
 20
130.10709841701316
 30
0.0
  0
SPLINE
  5
6B
102
{ACAD_REACTORS
330
31
102
}
100
AcDbEntity
  8
0
  6
CONTINUOUS
100
AcDbSpline
210
0.0
220
0.0
230
1.0
 70
     8
 71
     2
 72
     6
 73
     3
 74
     0
 42
0.0000001
 43
0.0000001
 40
0.0
 40
0.0
 40
0.0
 40
1.0
 40
1.0
 40
1.0
 10
187.27861440181235
 20
130.10709841701311
 30
0.0
 10
187.27457757239381
 20
130.38128344604766
 30
0.0
 10
187.06318771665926
 20
130.56031884188468
 30
0.0
  0
SPLINE
  5
6C
102
{ACAD_REACTORS
330
31
102
}
100
AcDbEntity
  8
0
  6
CONTINUOUS
100
AcDbSpline
210
0.0
220
0.0
230
1.0
 70
     8
 71
     2
 72
     6
 73
     3
 74
     0
 42
0.0000001
 43
0.0000001
 40
0.0
 40
0.0
 40
0.0
 40
1.0
 40
1.0
 40
1.0
 10
187.06318771665926
 20
130.56031884188468
 30
0.0
 10
186.85179786092471
 20
130.73935423772167
 30
0.0
 10
186.42414988773496
 20
130.73305797156496
 30
0.0
  0
SPLINE
  5
6D
102
{ACAD_REACTORS
330
31
102
}
100
AcDbEntity
  8
0
  6
CONTINUOUS
100
AcDbSpline
210
0.0
220
0.0
230
1.0
 70
     8
 71
     2
 72
     6
 73
     3
 74
     0
 42
0.0000001
 43
0.0000001
 40
0.0
 40
0.0
 40
0.0
 40
1.0
 40
1.0
 40
1.0
 10
186.42414988773493
 20
130.73305797156496
 30
0.0
 10
186.02105577105652
 20
130.72712321212745
 30
0.0
 10
185.81606633830501
 20
130.54093453255689
 30
0.0
  0
SPLINE
  5
6E
102
{ACAD_REACTORS
330
31
102
}
100
AcDbEntity
  8
0
  6
CONTINUOUS
100
AcDbSpline
210
0.0
220
0.0
230
1.0
 70
     8
 71
     2
 72
     6
 73
     3
 74
     0
 42
0.0000001
 43
0.0000001
 40
0.0
 40
0.0
 40
0.0
 40
1.0
 40
1.0
 40
1.0
 10
185.81606633830501
 20
130.54093453255689
 30
0.0
 10
185.61107690555346
 20
130.35474585298633
 30
0.0
 10
185.61508362038037
 20
130.08260623368375
 30
0.0
  0
SPLINE
  5
6F
102
{ACAD_REACTORS
330
31
102
}
100
AcDbEntity
  8
0
  6
CONTINUOUS
100
AcDbSpline
210
0.0
220
0.0
230
1.0
 70
     8
 71
     2
 72
     6
 73
     3
 74
     0
 42
0.0000001
 43
0.0000001
 40
0.0
 40
0.0
 40
0.0
 40
1.0
 40
1.0
 40
1.0
 10
185.61508362038037
 20
130.08260623368378
 30
0.0
 10
185.61915059948913
 20
129.80637341098986
 30
0.0
 10
185.82849444950989
 20
129.62730789178656
 30
0.0
  0
SPLINE
  5
70
102
{ACAD_REACTORS
330
31
102
}
100
AcDbEntity
  8
0
  6
CONTINUOUS
100
AcDbSpline
210
0.0
220
0.0
230
1.0
 70
     8
 71
     2
 72
     6
 73
     3
 74
     0
 42
0.0000001
 43
0.0000001
 40
0.0
 40
0.0
 40
0.0
 40
1.0
 40
1.0
 40
1.0
 10
185.82849444950989
 20
129.62730789178656
 30
0.0
 10
186.03783800153968
 20
129.44824236819593
 30
0.0
 10
186.4552553501785
 20
129.45438800874666
 30
0.0
  0
LINE
  5
71
102
{ACAD_REACTORS
330
31
102
}
100
AcDbEntity
  8
0
  6
CONTINUOUS
100
AcDbLine
 10
187.490042
 20
132.983647
 30
0.0
 11
187.170841
 21
132.978947
 31
0.0
  0
SPLINE
  5
72
102
{ACAD_REACTORS
330
31
102
}
100
AcDbEntity
  8
0
  6
CONTINUOUS
100
AcDbSpline
210
0.0
220
0.0
230
1.0
 70
     8
 71
     2
 72
     6
 73
     3
 74
     0
 42
0.0000001
 43
0.0000001
 40
0.0
 40
0.0
 40
0.0
 40
1.0
 40
1.0
 40
1.0
 10
187.1708407002582
 20
132.97894693019319
 30
0.0
 10
187.54288563363917
 20
132.73064458102175
 30
0.0
 10
187.54930239326083
 20
132.29481258497674
 30
0.0
  0
SPLINE
  5
73
102
{ACAD_REACTORS
330
31
102
}
100
AcDbEntity
  8
0
  6
CONTINUOUS
100
AcDbSpline
210
0.0
220
0.0
230
1.0
 70
     8
 71
     2
 72
     6
 73
     3
 74
     0
 42
0.0000001
 43
0.0000001
 40
0.0
 40
0.0
 40
0.0
 40
1.0
 40
1.0
 40
1.0
 10
187.54930239326083
 20
132.29481258497674
 30
0.0
 10
187.55213421783128
 20
132.1024725523497
 30
0.0
 10
187.48092758453774
 20
131.93462634450063
 30
0.0
  0
SPLINE
  5
74
102
{ACAD_REACTORS
330
31
102
}
100
AcDbEntity
  8
0
  6
CONTINUOUS
100
AcDbSpline
210
0.0
220
0.0
230
1.0
 70
     8
 71
     2
 72
     6
 73
     3
 74
     0
 42
0.0000001
 43
0.0000001
 40
0.0
 40
0.0
 40
0.0
 40
1.0
 40
1.0
 40
1.0
 10
187.48092758453774
 20
131.9346263445006
 30
0.0
 10
187.4097209512442
 20
131.76678013665151
 30
0.0
 10
187.29939498075515
 20
131.68431361048829
 30
0.0
  0
SPLINE
  5
75
102
{ACAD_REACTORS
330
31
102
}
100
AcDbEntity
  8
0
  6
CONTINUOUS
100
AcDbSpline
210
0.0
220
0.0
230
1.0
 70
     8
 71
     2
 72
     6
 73
     3
 74
     0
 42
0.0000001
 43
0.0000001
 40
0.0
 40
0.0
 40
0.0
 40
1.0
 40
1.0
 40
1.0
 10
187.29939498075515
 20
131.68431361048826
 30
0.0
 10
187.18906897516749
 20
131.60184946825245
 30
0.0
 10
187.02790401711593
 20
131.56673106270077
 30
0.0
  0
SPLINE
  5
76
102
{ACAD_REACTORS
330
31
102
}
100
AcDbEntity
  8
0
  6
CONTINUOUS
100
AcDbSpline
210
0.0
220
0.0
230
1.0
 70
     8
 71
     2
 72
     6
 73
     3
 74
     0
 42
0.0000001
 43
0.0000001
 40
0.0
 40
0.0
 40
0.0
 40
1.0
 40
1.0
 40
1.0
 10
187.02790401711593
 20
131.56673106270077
 30
0.0
 10
186.9197887714399
 20
131.54262535868196
 30
0.0
 10
186.68448023489532
 20
131.53916090832112
 30
0.0
  0
LINE
  5
77
102
{ACAD_REACTORS
330
31
102
}
100
AcDbEntity
  8
0
  6
CONTINUOUS
100
AcDbLine
 10
186.68448
 20
131.539161
 30
0.0
 11
185.338105
 21
131.519338
 31
0.0
  0
LINE
  5
78
102
{ACAD_REACTORS
330
31
102
}
100
AcDbEntity
  8
0
  6
CONTINUOUS
100
AcDbLine
 10
185.338105
 20
131.519338
 30
0.0
 11
185.332682
 21
131.887648
 31
0.0
  0
LINE
  5
79
102
{ACAD_REACTORS
330
31
102
}
100
AcDbEntity
  8
0
  6
CONTINUOUS
100
AcDbLine
 10
185.332682
 20
131.887648
 30
0.0
 11
186.537872
 21
131.905392
 31
0.0
  0
SPLINE
  5
7A
102
{ACAD_REACTORS
330
31
102
}
100
AcDbEntity
  8
0
  6
CONTINUOUS
100
AcDbSpline
210
0.0
220
0.0
230
1.0
 70
     8
 71
     2
 72
     6
 73
     3
 74
     0
 42
0.0000001
 43
0.0000001
 40
0.0
 40
0.0
 40
0.0
 40
1.0
 40
1.0
 40
1.0
 10
186.53787248585641
 20
131.9053918737207
 30
0.0
 10
186.82638134283323
 20
131.90963959302718
 30
0.0
 10
186.92631198722145
 20
131.93362360284254
 30
0.0
  0
SPLINE
  5
7B
102
{ACAD_REACTORS
330
31
102
}
100
AcDbEntity
  8
0
  6
CONTINUOUS
100
AcDbSpline
210
0.0
220
0.0
230
1.0
 70
     8
 71
     2
 72
     6
 73
     3
 74
     0
 42
0.0000001
 43
0.0000001
 40
0.0
 40
0.0
 40
0.0
 40
1.0
 40
1.0
 40
1.0
 10
186.92631198722145
 20
131.93362360284254
 30
0.0
 10
187.07107727746688
 20
131.9705476012231
 30
0.0
 10
187.15228986747056
 20
132.08430575171502
 30
0.0
  0
SPLINE
  5
7C
102
{ACAD_REACTORS
330
31
102
}
100
AcDbEntity
  8
0
  6
CONTINUOUS
100
AcDbSpline
210
0.0
220
0.0
230
1.0
 70
     8
 71
     2
 72
     6
 73
     3
 74
     0
 42
0.0000001
 43
0.0000001
 40
0.0
 40
0.0
 40
0.0
 40
1.0
 40
1.0
 40
1.0
 10
187.15228986747056
 20
132.08430575171499
 30
0.0
 10
187.23350272036654
 20
132.19806629052164
 30
0.0
 10
187.23106256098015
 20
132.36380407699608
 30
0.0
  0
SPLINE
  5
7D
102
{ACAD_REACTORS
330
31
102
}
100
AcDbEntity
  8
0
  6
CONTINUOUS
100
AcDbSpline
210
0.0
220
0.0
230
1.0
 70
     8
 71
     2
 72
     6
 73
     3
 74
     0
 42
0.0000001
 43
0.0000001
 40
0.0
 40
0.0
 40
0.0
 40
1.0
 40
1.0
 40
1.0
 10
187.23106256098015
 20
132.36380407699605
 30
0.0
 10
187.22862236649519
 20
132.52954424739789
 30
0.0
 10
187.14156766539702
 20
132.67357056854897
 30
0.0
  0
SPLINE
  5
7E
102
{ACAD_REACTORS
330
31
102
}
100
AcDbEntity
  8
0
  6
CONTINUOUS
100
AcDbSpline
210
0.0
220
0.0
230
1.0
 70
     8
 71
     2
 72
     6
 73
     3
 74
     0
 42
0.0000001
 43
0.0000001
 40
0.0
 40
0.0
 40
0.0
 40
1.0
 40
1.0
 40
1.0
 10
187.14156766539702
 20
132.67357056854897
 30
0.0
 10
187.05451292920026
 20
132.81759927362748
 30
0.0
 10
186.90732350066685
 20
132.87580632866027
 30
0.0
  0
SPLINE
  5
7F
102
{ACAD_REACTORS
330
31
102
}
100
AcDbEntity
  8
0
  6
CONTINUOUS
100
AcDbSpline
210
0.0
220
0.0
230
1.0
 70
     8
 71
     2
 72
     6
 73
     3
 74
     0
 42
0.0000001
 43
0.0000001
 40
0.0
 40
0.0
 40
0.0
 40
1.0
 40
1.0
 40
1.0
 10
186.90732350066688
 20
132.87580632866027
 30
0.0
 10
186.76013435257511
 20
132.93401458004413
 30
0.0
 10
186.48185612014922
 20
132.92991748634367
 30
0.0
  0
LINE
  5
80
102
{ACAD_REACTORS
330
31
102
}
100
AcDbEntity
  8
0
  6
CONTINUOUS
100
AcDbLine
 10
186.481856
 20
132.929917
 30
0.0
 11
185.317589
 21
132.912776
 31
0.0
  0
LINE
  5
81
102
{ACAD_REACTORS
330
31
102
}
100
AcDbEntity
  8
0
  6
CONTINUOUS
100
AcDbLine
 10
185.317589
 20
132.912776
 30
0.0
 11
185.312167
 21
133.281084
 31
0.0
  0
LINE
  5
82
102
{ACAD_REACTORS
330
31
102
}
100
AcDbEntity
  8
0
  6
CONTINUOUS
100
AcDbLine
 10
185.312167
 20
133.281084
 30
0.0
 11
187.485192
 21
133.313078
 31
0.0
  0
LINE
  5
83
102
{ACAD_REACTORS
330
31
102
}
100
AcDbEntity
  8
0
  6
CONTINUOUS
100
AcDbLine
 10
187.485192
 20
133.313078
 30
0.0
 11
187.490042
 21
132.983647
 31
0.0
  0
LINE
  5
84
102
{ACAD_REACTORS
330
31
102
}
100
AcDbEntity
  8
0
  6
CONTINUOUS
100
AcDbLine
 10
186.830232
 20
133.733224
 30
0.0
 11
186.767577
 21
134.096597
 31
0.0
  0
SPLINE
  5
85
102
{ACAD_REACTORS
330
31
102
}
100
AcDbEntity
  8
0
  6
CONTINUOUS
100
AcDbSpline
210
0.0
220
0.0
230
1.0
 70
     8
 71
     2
 72
     6
 73
     3
 74
     0
 42
0.0000001
 43
0.0000001
 40
0.0
 40
0.0
 40
0.0
 40
1.0
 40
1.0
 40
1.0
 10
186.76757682084653
 20
134.09659672948962
 30
0.0
 10
186.98606422534954
 20
134.13051324098751
 30
0.0
 10
187.10063188661894
 20
134.27239222556372
 30
0.0
  0
SPLINE
  5
86
102
{ACAD_REACTORS
330
31
102
}
100
AcDbEntity
  8
0
  6
CONTINUOUS
100
AcDbSpline
210
0.0
220
0.0
230
1.0
 70
     8
 71
     2
 72
     6
 73
     3
 74
     0
 42
0.0000001
 43
0.0000001
 40
0.0
 40
0.0
 40
0.0
 40
1.0
 40
1.0
 40
1.0
 10
187.10063188661894
 20
134.27239222556372
 30
0.0
 10
187.21519984587925
 20
134.41427121452725
 30
0.0
 10
187.21149438226436
 20
134.66594958472797
 30
0.0
  0
SPLINE
  5
87
102
{ACAD_REACTORS
330
31
102
}
100
AcDbEntity
  8
0
  6
CONTINUOUS
100
AcDbSpline
210
0.0
220
0.0
230
1.0
 70
     8
 71
     2
 72
     6
 73
     3
 74
     0
 42
0.0000001
 43
0.0000001
 40
0.0
 40
0.0
 40
0.0
 40
1.0
 40
1.0
 40
1.0
 10
187.21149438226436
 20
134.66594958472794
 30
0.0
 10
187.20775880405785
 20
134.91967336466058
 30
0.0
 10
187.10261992738432
 20
135.04092189474474
 30
0.0
  0
SPLINE
  5
88
102
{ACAD_REACTORS
330
31
102
}
100
AcDbEntity
  8
0
  6
CONTINUOUS
100
AcDbSpline
210
0.0
220
0.0
230
1.0
 70
     8
 71
     2
 72
     6
 73
     3
 74
     0
 42
0.0000001
 43
0.0000001
 40
0.0
 40
0.0
 40
0.0
 40
1.0
 40
1.0
 40
1.0
 10
187.10261992738432
 20
135.04092189474477
 30
0.0
 10
186.9974810507108
 20
135.16217042482893
 30
0.0
 10
186.85834193449787
 20
135.1601218779787
 30
0.0
  0
SPLINE
  5
89
102
{ACAD_REACTORS
330
31
102
}
100
AcDbEntity
  8
0
  6
CONTINUOUS
100
AcDbSpline
210
0.0
220
0.0
230
1.0
 70
     8
 71
     2
 72
     6
 73
     3
 74
     0
 42
0.0000001
 43
0.0000001
 40
0.0
 40
0.0
 40
0.0
 40
1.0
 40
1.0
 40
1.0
 10
186.85834193449787
 20
135.16012187797867
 30
0.0
 10
186.73352605024536
 20
135.15828421224165
 30
0.0
 10
186.66350715645723
 20
135.04878257289013
 30
0.0
  0
SPLINE
  5
8A
102
{ACAD_REACTORS
330
31
102
}
100
AcDbEntity
  8
0
  6
CONTINUOUS
100
AcDbSpline
210
0.0
220
0.0
230
1.0
 70
     8
 71
     2
 72
     6
 73
     3
 74
     0
 42
0.0000001
 43
0.0000001
 40
0.0
 40
0.0
 40
0.0
 40
1.0
 40
1.0
 40
1.0
 10
186.66350715645723
 20
135.04878257289013
 30
0.0
 10
186.61551378896749
 20
134.97235197981644
 30
0.0
 10
186.54423439278196
 20
134.67045124868176
 30
0.0
  0
SPLINE
  5
8B
102
{ACAD_REACTORS
330
31
102
}
100
AcDbEntity
  8
0
  6
CONTINUOUS
100
AcDbSpline
210
0.0
220
0.0
230
1.0
 70
     8
 71
     2
 72
     6
 73
     3
 74
     0
 42
0.0000001
 43
0.0000001
 40
0.0
 40
0.0
 40
0.0
 40
1.0
 40
1.0
 40
1.0
 10
186.54423439278196
 20
134.67045124868173
 30
0.0
 10
186.44789094413971
 20
134.26380483951812
 30
0.0
 10
186.37551069993253
 20
134.10617300257314
 30
0.0
  0
SPLINE
  5
8C
102
{ACAD_REACTORS
330
31
102
}
100
AcDbEntity
  8
0
  6
CONTINUOUS
100
AcDbSpline
210
0.0
220
0.0
230
1.0
 70
     8
 71
     2
 72
     6
 73
     3
 74
     0
 42
0.0000001
 43
0.0000001
 40
0.0
 40
0.0
 40
0.0
 40
1.0
 40
1.0
 40
1.0
 10
186.37551069993253
 20
134.10617300257314
 30
0.0
 10
186.30313043817608
 20
133.94854235759183
 30
0.0
 10
186.17234288549562
 20
133.86577695975666
 30
0.0
  0
SPLINE
  5
8D
102
{ACAD_REACTORS
330
31
102
}
100
AcDbEntity
  8
0
  6
CONTINUOUS
100
AcDbSpline
210
0.0
220
0.0
230
1.0
 70
     8
 71
     2
 72
     6
 73
     3
 74
     0
 42
0.0000001
 43
0.0000001
 40
0.0
 40
0.0
 40
0.0
 40
1.0
 40
1.0
 40
1.0
 10
186.17234288549562
 20
133.86577695975672
 30
0.0
 10
186.04155506992282
 20
133.78300917360679
 30
0.0
 10
185.88195440661707
 20
133.78065937115721
 30
0.0
  0
SPLINE
  5
8E
102
{ACAD_REACTORS
330
31
102
}
100
AcDbEntity
  8
0
  6
CONTINUOUS
100
AcDbSpline
210
0.0
220
0.0
230
1.0
 70
     8
 71
     2
 72
     6
 73
     3
 74
     0
 42
0.0000001
 43
0.0000001
 40
0.0
 40
0.0
 40
0.0
 40
1.0
 40
1.0
 40
1.0
 10
185.88195440661707
 20
133.78065937115718
 30
0.0
 10
185.73667697527176
 20
133.77852044982083
 30
0.0
 10
185.61190470312224
 20
133.84319868890628
 30
0.0
  0
SPLINE
  5
8F
102
{ACAD_REACTORS
330
31
102
}
100
AcDbEntity
  8
0
  6
CONTINUOUS
100
AcDbSpline
210
0.0
220
0.0
230
1.0
 70
     8
 71
     2
 72
     6
 73
     3
 74
     0
 42
0.0000001
 43
0.0000001
 40
0.0
 40
0.0
 40
0.0
 40
1.0
 40
1.0
 40
1.0
 10
185.61190470312224
 20
133.84319868890628
 30
0.0
 10
185.48713302695455
 20
133.90787693676637
 30
0.0
 10
185.40359921124514
 20
134.02125656931403
 30
0.0
  0
SPLINE
  5
90
102
{ACAD_REACTORS
330
31
102
}
100
AcDbEntity
  8
0
  6
CONTINUOUS
100
AcDbSpline
210
0.0
220
0.0
230
1.0
 70
     8
 71
     2
 72
     6
 73
     3
 74
     0
 42
0.0000001
 43
0.0000001
 40
0.0
 40
0.0
 40
0.0
 40
1.0
 40
1.0
 40
1.0
 10
185.40359921124514
 20
134.021256569314
 30
0.0
 10
185.33890312857821
 20
134.10626206871859
 30
0.0
 10
185.29272646367508
 20
134.25396140178739
 30
0.0
  0
SPLINE
  5
91
102
{ACAD_REACTORS
330
31
102
}
100
AcDbEntity
  8
0
  6
CONTINUOUS
100
AcDbSpline
210
0.0
220
0.0
230
1.0
 70
     8
 71
     2
 72
     6
 73
     3
 74
     0
 42
0.0000001
 43
0.0000001
 40
0.0
 40
0.0
 40
0.0
 40
1.0
 40
1.0
 40
1.0
 10
185.29272646367508
 20
134.25396140178742
 30
0.0
 10
185.24654981632128
 20
134.4016595428925
 30
0.0
 10
185.24404937510374
 20
134.57149172472197
 30
0.0
  0
SPLINE
  5
92
102
{ACAD_REACTORS
330
31
102
}
100
AcDbEntity
  8
0
  6
CONTINUOUS
100
AcDbSpline
210
0.0
220
0.0
230
1.0
 70
     8
 71
     2
 72
     6
 73
     3
 74
     0
 42
0.0000001
 43
0.0000001
 40
0.0
 40
0.0
 40
0.0
 40
1.0
 40
1.0
 40
1.0
 10
185.24404937510374
 20
134.57149172472197
 30
0.0
 10
185.24028368230563
 20
134.82726091438659
 30
0.0
 10
185.31109866796436
 20
135.02170817642457
 30
0.0
  0
SPLINE
  5
93
102
{ACAD_REACTORS
330
31
102
}
100
AcDbEntity
  8
0
  6
CONTINUOUS
100
AcDbSpline
210
0.0
220
0.0
230
1.0
 70
     8
 71
     2
 72
     6
 73
     3
 74
     0
 42
0.0000001
 43
0.0000001
 40
0.0
 40
0.0
 40
0.0
 40
1.0
 40
1.0
 40
1.0
 10
185.31109866796436
 20
135.02170817642457
 30
0.0
 10
185.38191380261861
 20
135.21615544065622
 30
0.0
 10
185.50639704172463
 20
135.31008498099857
 30
0.0
  0
SPLINE
  5
94
102
{ACAD_REACTORS
330
31
102
}
100
AcDbEntity
  8
0
  6
CONTINUOUS
100
AcDbSpline
210
0.0
220
0.0
230
1.0
 70
     8
 71
     2
 72
     6
 73
     3
 74
     0
 42
0.0000001
 43
0.0000001
 40
0.0
 40
0.0
 40
0.0
 40
1.0
 40
1.0
 40
1.0
 10
185.50639704172465
 20
135.31008498099854
 30
0.0
 10
185.63088026328137
 20
135.4040157133046
 30
0.0
 10
185.84112310020566
 20
135.4419037383777
 30
0.0
  0
LINE
  5
95
102
{ACAD_REACTORS
330
31
102
}
100
AcDbEntity
  8
0
  6
CONTINUOUS
100
AcDbLine
 10
185.841123
 20
135.441904
 30
0.0
 11
185.895533
 21
135.082501
 31
0.0
  0
SPLINE
  5
96
102
{ACAD_REACTORS
330
31
102
}
100
AcDbEntity
  8
0
  6
CONTINUOUS
100
AcDbSpline
210
0.0
220
0.0
230
1.0
 70
     8
 71
     2
 72
     6
 73
     3
 74
     0
 42
0.0000001
 43
0.0000001
 40
0.0
 40
0.0
 40
0.0
 40
1.0
 40
1.0
 40
1.0
 10
185.89553324486636
 20
135.08250114344267
 30
0.0
 10
185.72810916267713
 20
135.05547757383653
 30
0.0
 10
185.63571798640163
 20
134.93643663144709
 30
0.0
  0
SPLINE
  5
97
102
{ACAD_REACTORS
330
31
102
}
100
AcDbEntity
  8
0
  6
CONTINUOUS
100
AcDbSpline
210
0.0
220
0.0
230
1.0
 70
     8
 71
     2
 72
     6
 73
     3
 74
     0
 42
0.0000001
 43
0.0000001
 40
0.0
 40
0.0
 40
0.0
 40
1.0
 40
1.0
 40
1.0
 10
185.63571798640166
 20
134.93643663144707
 30
0.0
 10
185.54332679257689
 20
134.81739688102135
 30
0.0
 10
185.54648998295099
 20
134.6025501895605
 30
0.0
  0
SPLINE
  5
98
102
{ACAD_REACTORS
330
31
102
}
100
AcDbEntity
  8
0
  6
CONTINUOUS
100
AcDbSpline
210
0.0
220
0.0
230
1.0
 70
     8
 71
     2
 72
     6
 73
     3
 74
     0
 42
0.0000001
 43
0.0000001
 40
0.0
 40
0.0
 40
0.0
 40
1.0
 40
1.0
 40
1.0
 10
185.54648998295099
 20
134.60255018956053
 30
0.0
 10
185.5502255611575
 20
134.34882640962786
 30
0.0
 10
185.63571502125657
 20
134.24161432160605
 30
0.0
  0
SPLINE
  5
99
102
{ACAD_REACTORS
330
31
102
}
100
AcDbEntity
  8
0
  6
CONTINUOUS
100
AcDbSpline
210
0.0
220
0.0
230
1.0
 70
     8
 71
     2
 72
     6
 73
     3
 74
     0
 42
0.0000001
 43
0.0000001
 40
0.0
 40
0.0
 40
0.0
 40
1.0
 40
1.0
 40
1.0
 10
185.63571502125654
 20
134.24161432160605
 30
0.0
 10
185.72120418336468
 20
134.13440222919695
 30
0.0
 10
185.8337431393615
 20
134.13605914157438
 30
0.0
  0
SPLINE
  5
9A
102
{ACAD_REACTORS
330
31
102
}
100
AcDbEntity
  8
0
  6
CONTINUOUS
100
AcDbSpline
210
0.0
220
0.0
230
1.0
 70
     8
 71
     2
 72
     6
 73
     3
 74
     0
 42
0.0000001
 43
0.0000001
 40
0.0
 40
0.0
 40
0.0
 40
1.0
 40
1.0
 40
1.0
 10
185.8337431393615
 20
134.13605914157438
 30
0.0
 10
185.9053587031818
 20
134.13711353836578
 30
0.0
 10
185.96198886431762
 20
134.18297276441371
 30
0.0
  0
SPLINE
  5
9B
102
{ACAD_REACTORS
330
31
102
}
100
AcDbEntity
  8
0
  6
CONTINUOUS
100
AcDbSpline
210
0.0
220
0.0
230
1.0
 70
     8
 71
     2
 72
     6
 73
     3
 74
     0
 42
0.0000001
 43
0.0000001
 40
0.0
 40
0.0
 40
0.0
 40
1.0
 40
1.0
 40
1.0
 10
185.96198886431765
 20
134.18297276441368
 30
0.0
 10
186.02066443518544
 20
134.22886210505322
 30
0.0
 10
186.05812561137199
 20
134.32560450919917
 30
0.0
  0
SPLINE
  5
9C
102
{ACAD_REACTORS
330
31
102
}
100
AcDbEntity
  8
0
  6
CONTINUOUS
100
AcDbSpline
210
0.0
220
0.0
230
1.0
 70
     8
 71
     2
 72
     6
 73
     3
 74
     0
 42
0.0000001
 43
0.0000001
 40
0.0
 40
0.0
 40
0.0
 40
1.0
 40
1.0
 40
1.0
 10
186.05812561137199
 20
134.3256045091992
 30
0.0
 10
186.07777406414382
 20
134.38115209533191
 30
0.0
 10
186.14745934898286
 20
134.65232963748377
 30
0.0
  0
SPLINE
  5
9D
102
{ACAD_REACTORS
330
31
102
}
100
AcDbEntity
  8
0
  6
CONTINUOUS
100
AcDbSpline
210
0.0
220
0.0
230
1.0
 70
     8
 71
     2
 72
     6
 73
     3
 74
     0
 42
0.0000001
 43
0.0000001
 40
0.0
 40
0.0
 40
0.0
 40
1.0
 40
1.0
 40
1.0
 10
186.14745934898289
 20
134.6523296374838
 30
0.0
 10
186.24605967567751
 20
135.0446835340351
 30
0.0
 10
186.31028543318848
 20
135.20014826704471
 30
0.0
  0
SPLINE
  5
9E
102
{ACAD_REACTORS
330
31
102
}
100
AcDbEntity
  8
0
  6
CONTINUOUS
100
AcDbSpline
210
0.0
220
0.0
230
1.0
 70
     8
 71
     2
 72
     6
 73
     3
 74
     0
 42
0.0000001
 43
0.0000001
 40
0.0
 40
0.0
 40
0.0
 40
1.0
 40
1.0
 40
1.0
 10
186.31028543318848
 20
135.20014826704471
 30
0.0
 10
186.37451120824875
 20
135.35561180809057
 30
0.0
 10
186.50007797738584
 20
135.44546559503945
 30
0.0
  0
SPLINE
  5
9F
102
{ACAD_REACTORS
330
31
102
}
100
AcDbEntity
  8
0
  6
CONTINUOUS
100
AcDbSpline
210
0.0
220
0.0
230
1.0
 70
     8
 71
     2
 72
     6
 73
     3
 74
     0
 42
0.0000001
 43
0.0000001
 40
0.0
 40
0.0
 40
0.0
 40
1.0
 40
1.0
 40
1.0
 10
186.50007797738584
 20
135.44546559503945
 30
0.0
 10
186.62564476407226
 20
135.53531819002461
 30
0.0
 10
186.81389159330791
 20
135.53808975031328
 30
0.0
  0
SPLINE
  5
A0
102
{ACAD_REACTORS
330
31
102
}
100
AcDbEntity
  8
0
  6
CONTINUOUS
100
AcDbSpline
210
0.0
220
0.0
230
1.0
 70
     8
 71
     2
 72
     6
 73
     3
 74
     0
 42
0.0000001
 43
0.0000001
 40
0.0
 40
0.0
 40
0.0
 40
1.0
 40
1.0
 40
1.0
 10
186.81389159330791
 20
135.53808975031328
 30
0.0
 10
186.99804641111598
 20
135.54080106386942
 30
0.0
 10
187.16229797617041
 20
135.4357727100253
 30
0.0
  0
SPLINE
  5
A1
102
{ACAD_REACTORS
330
31
102
}
100
AcDbEntity
  8
0
  6
CONTINUOUS
100
AcDbSpline
210
0.0
220
0.0
230
1.0
 70
     8
 71
     2
 72
     6
 73
     3
 74
     0
 42
0.0000001
 43
0.0000001
 40
0.0
 40
0.0
 40
0.0
 40
1.0
 40
1.0
 40
1.0
 10
187.16229797617044
 20
135.4357727100253
 30
0.0
 10
187.32654955877416
 20
135.33074316421749
 30
0.0
 10
187.41854009374373
 20
135.12948416634458
 30
0.0
  0
SPLINE
  5
A2
102
{ACAD_REACTORS
330
31
102
}
100
AcDbEntity
  8
0
  6
CONTINUOUS
100
AcDbSpline
210
0.0
220
0.0
230
1.0
 70
     8
 71
     2
 72
     6
 73
     3
 74
     0
 42
0.0000001
 43
0.0000001
 40
0.0
 40
0.0
 40
0.0
 40
1.0
 40
1.0
 40
1.0
 10
187.4185400937437
 20
135.12948416634458
 30
0.0
 10
187.51053062871324
 20
134.92822516847167
 30
0.0
 10
187.51429635660998
 20
134.67245359487961
 30
0.0
  0
SPLINE
  5
A3
102
{ACAD_REACTORS
330
31
102
}
100
AcDbEntity
  8
0
  6
CONTINUOUS
100
AcDbSpline
210
0.0
220
0.0
230
1.0
 70
     8
 71
     2
 72
     6
 73
     3
 74
     0
 42
0.0000001
 43
0.0000001
 40
0.0
 40
0.0
 40
0.0
 40
1.0
 40
1.0
 40
1.0
 10
187.51429635660998
 20
134.67245359487958
 30
0.0
 10
187.52053235848473
 20
134.2488988250812
 30
0.0
 10
187.34783080360648
 20
134.02429881235093
 30
0.0
  0
SPLINE
  5
A4
102
{ACAD_REACTORS
330
31
102
}
100
AcDbEntity
  8
0
  6
CONTINUOUS
100
AcDbSpline
210
0.0
220
0.0
230
1.0
 70
     8
 71
     2
 72
     6
 73
     3
 74
     0
 42
0.0000001
 43
0.0000001
 40
0.0
 40
0.0
 40
0.0
 40
1.0
 40
1.0
 40
1.0
 10
187.34783080360648
 20
134.02429881235093
 30
0.0
 10
187.17512954671918
 20
133.79969880400802
 30
0.0
 10
186.83023181352763
 20
133.73322381733038
 30
0.0
  0
LWPOLYLINE
  5
A5
102
{ACAD_REACTORS
330
31
102
}
100
AcDbEntity
  8
0
  6
CONTINUOUS
100
AcDbPolyline
 90
        5
 70
     0
 10
184.446143
 20
135.943249
 10
184.869698
 20
135.949485
 10
184.864276
 20
136.317794
 10
184.44072
 20
136.311558
 10
184.446143
 20
135.943249
  0
LWPOLYLINE
  5
A6
102
{ACAD_REACTORS
330
31
102
}
100
AcDbEntity
  8
0
  6
CONTINUOUS
100
AcDbPolyline
 90
        5
 70
     0
 10
185.272792
 20
135.955419
 10
187.445818
 20
135.987413
 10
187.440395
 20
136.355723
 10
185.26737
 20
136.323729
 10
185.272792
 20
135.955419
  0
LINE
  5
A7
102
{ACAD_REACTORS
330
31
102
}
100
AcDbEntity
  8
0
  6
CONTINUOUS
100
AcDbLine
 10
187.43214
 20
136.916371
 30
0.0
 11
185.259115
 21
136.884378
 31
0.0
  0
LINE
  5
A8
102
{ACAD_REACTORS
330
31
102
}
100
AcDbEntity
  8
0
  6
CONTINUOUS
100
AcDbLine
 10
185.259115
 20
136.884378
 30
0.0
 11
185.254235
 21
137.215856
 31
0.0
  0
LINE
  5
A9
102
{ACAD_REACTORS
330
31
102
}
100
AcDbEntity
  8
0
  6
CONTINUOUS
100
AcDbLine
 10
185.254235
 20
137.215856
 30
0.0
 11
185.563206
 21
137.220405
 31
0.0
  0
SPLINE
  5
AA
102
{ACAD_REACTORS
330
31
102
}
100
AcDbEntity
  8
0
  6
CONTINUOUS
100
AcDbSpline
210
0.0
220
0.0
230
1.0
 70
     8
 71
     2
 72
     6
 73
     3
 74
     0
 42
0.0000001
 43
0.0000001
 40
0.0
 40
0.0
 40
0.0
 40
1.0
 40
1.0
 40
1.0
 10
185.5632055841275
 20
137.22040454376568
 30
0.0
 10
185.20160246317624
 20
137.45453369498816
 30
0.0
 10
185.19494466397651
 20
137.90673731263485
 30
0.0
  0
SPLINE
  5
AB
102
{ACAD_REACTORS
330
31
102
}
100
AcDbEntity
  8
0
  6
CONTINUOUS
100
AcDbSpline
210
0.0
220
0.0
230
1.0
 70
     8
 71
     2
 72
     6
 73
     3
 74
     0
 42
0.0000001
 43
0.0000001
 40
0.0
 40
0.0
 40
0.0
 40
1.0
 40
1.0
 40
1.0
 10
185.19494466397651
 20
137.90673731263485
 30
0.0
 10
185.19205261022282
 20
138.10316816472579
 30
0.0
 10
185.26022006909562
 20
138.2689225814425
 30
0.0
  0
SPLINE
  5
AC
102
{ACAD_REACTORS
330
31
102
}
100
AcDbEntity
  8
0
  6
CONTINUOUS
100
AcDbSpline
210
0.0
220
0.0
230
1.0
 70
     8
 71
     2
 72
     6
 73
     3
 74
     0
 42
0.0000001
 43
0.0000001
 40
0.0
 40
0.0
 40
0.0
 40
1.0
 40
1.0
 40
1.0
 10
185.26022006909562
 20
138.26892258144247
 30
0.0
 10
185.32838752796843
 20
138.43467699815915
 30
0.0
 10
185.44176771262474
 20
138.51821380255254
 30
0.0
  0
SPLINE
  5
AD
102
{ACAD_REACTORS
330
31
102
}
100
AcDbEntity
  8
0
  6
CONTINUOUS
100
AcDbSpline
210
0.0
220
0.0
230
1.0
 70
     8
 71
     2
 72
     6
 73
     3
 74
     0
 42
0.0000001
 43
0.0000001
 40
0.0
 40
0.0
 40
0.0
 40
1.0
 40
1.0
 40
1.0
 10
185.44176771262474
 20
138.51821380255257
 30
0.0
 10
185.55514796747823
 20
138.60174583909108
 30
0.0
 10
185.71222031812027
 20
138.63680398913556
 30
0.0
  0
SPLINE
  5
AE
102
{ACAD_REACTORS
330
31
102
}
100
AcDbEntity
  8
0
  6
CONTINUOUS
100
AcDbSpline
210
0.0
220
0.0
230
1.0
 70
     8
 71
     2
 72
     6
 73
     3
 74
     0
 42
0.0000001
 43
0.0000001
 40
0.0
 40
0.0
 40
0.0
 40
1.0
 40
1.0
 40
1.0
 10
185.71222031812027
 20
138.63680398913556
 30
0.0
 10
185.81422710036321
 20
138.65877152062154
 30
0.0
 10
186.06999748199155
 20
138.66253723096906
 30
0.0
  0
LINE
  5
AF
102
{ACAD_REACTORS
330
31
102
}
100
AcDbEntity
  8
0
  6
CONTINUOUS
100
AcDbLine
 10
186.069997
 20
138.662537
 30
0.0
 11
187.406142
 21
138.682209
 31
0.0
  0
LINE
  5
B0
102
{ACAD_REACTORS
330
31
102
}
100
AcDbEntity
  8
0
  6
CONTINUOUS
100
AcDbLine
 10
187.406142
 20
138.682209
 30
0.0
 11
187.411565
 21
138.313902
 31
0.0
  0
LINE
  5
B1
102
{ACAD_REACTORS
330
31
102
}
100
AcDbEntity
  8
0
  6
CONTINUOUS
100
AcDbLine
 10
187.411565
 20
138.313902
 30
0.0
 11
186.089743
 21
138.294441
 31
0.0
  0
SPLINE
  5
B2
102
{ACAD_REACTORS
330
31
102
}
100
AcDbEntity
  8
0
  6
CONTINUOUS
100
AcDbSpline
210
0.0
220
0.0
230
1.0
 70
     8
 71
     2
 72
     6
 73
     3
 74
     0
 42
0.0000001
 43
0.0000001
 40
0.0
 40
0.0
 40
0.0
 40
1.0
 40
1.0
 40
1.0
 10
186.08974330596556
 20
138.29444086039359
 30
0.0
 10
185.86466539397188
 20
138.29112703563877
 30
0.0
 10
185.75378212804483
 20
138.24651250915392
 30
0.0
  0
SPLINE
  5
B3
102
{ACAD_REACTORS
330
31
102
}
100
AcDbEntity
  8
0
  6
CONTINUOUS
100
AcDbSpline
210
0.0
220
0.0
230
1.0
 70
     8
 71
     2
 72
     6
 73
     3
 74
     0
 42
0.0000001
 43
0.0000001
 40
0.0
 40
0.0
 40
0.0
 40
1.0
 40
1.0
 40
1.0
 10
185.7537821280448
 20
138.24651250915392
 30
0.0
 10
185.64289879192054
 20
138.20190275052391
 30
0.0
 10
185.57801026770369
 20
138.09145371910941
 30
0.0
  0
SPLINE
  5
B4
102
{ACAD_REACTORS
330
31
102
}
100
AcDbEntity
  8
0
  6
CONTINUOUS
100
AcDbSpline
210
0.0
220
0.0
230
1.0
 70
     8
 71
     2
 72
     6
 73
     3
 74
     0
 42
0.0000001
 43
0.0000001
 40
0.0
 40
0.0
 40
0.0
 40
1.0
 40
1.0
 40
1.0
 10
185.57801026770369
 20
138.09145371910941
 30
0.0
 10
185.51312174348686
 20
137.98100468769493
 30
0.0
 10
185.51529076625283
 20
137.83368274059043
 30
0.0
  0
SPLINE
  5
B5
102
{ACAD_REACTORS
330
31
102
}
100
AcDbEntity
  8
0
  6
CONTINUOUS
100
AcDbSpline
210
0.0
220
0.0
230
1.0
 70
     8
 71
     2
 72
     6
 73
     3
 74
     0
 42
0.0000001
 43
0.0000001
 40
0.0
 40
0.0
 40
0.0
 40
1.0
 40
1.0
 40
1.0
 10
185.51529076625286
 20
137.83368274059043
 30
0.0
 10
185.51875524293757
 20
137.59837241610029
 30
0.0
 10
185.67064046466547
 20
137.42971789382477
 30
0.0
  0
SPLINE
  5
B6
102
{ACAD_REACTORS
330
31
102
}
100
AcDbEntity
  8
0
  6
CONTINUOUS
100
AcDbSpline
210
0.0
220
0.0
230
1.0
 70
     8
 71
     2
 72
     6
 73
     3
 74
     0
 42
0.0000001
 43
0.0000001
 40
0.0
 40
0.0
 40
0.0
 40
1.0
 40
1.0
 40
1.0
 10
185.67064046466547
 20
137.42971789382477
 30
0.0
 10
185.8225260019336
 20
137.26106218397291
 30
0.0
 10
186.23994335057242
 20
137.26720782452361
 30
0.0
  0
LINE
  5
B7
102
{ACAD_REACTORS
330
31
102
}
100
AcDbEntity
  8
0
  6
CONTINUOUS
100
AcDbLine
 10
186.239943
 20
137.267208
 30
0.0
 11
187.426718
 21
137.284681
 31
0.0
  0
LINE
  5
B8
102
{ACAD_REACTORS
330
31
102
}
100
AcDbEntity
  8
0
  6
CONTINUOUS
100
AcDbLine
 10
187.426718
 20
137.284681
 30
0.0
 11
187.43214
 21
136.916371
 31
0.0
  0
LINE
  5
B9
102
{ACAD_REACTORS
330
31
102
}
100
AcDbEntity
  8
0
  6
CONTINUOUS
100
AcDbLine
 10
187.578884
 20
139.182081
 30
0.0
 11
187.626812
 21
139.54094
 31
0.0
  0
SPLINE
  5
BA
102
{ACAD_REACTORS
330
31
102
}
100
AcDbEntity
  8
0
  6
CONTINUOUS
100
AcDbSpline
210
0.0
220
0.0
230
1.0
 70
     8
 71
     2
 72
     6
 73
     3
 74
     0
 42
0.0000001
 43
0.0000001
 40
0.0
 40
0.0
 40
0.0
 40
1.0
 40
1.0
 40
1.0
 10
187.6268120185016
 20
139.54093957614623
 30
0.0
 10
187.79221989402842
 20
139.56588880023057
 30
0.0
 10
187.86642177409951
 20
139.66931208196598
 30
0.0
  0
SPLINE
  5
BB
102
{ACAD_REACTORS
330
31
102
}
100
AcDbEntity
  8
0
  6
CONTINUOUS
100
AcDbSpline
210
0.0
220
0.0
230
1.0
 70
     8
 71
     2
 72
     6
 73
     3
 74
     0
 42
0.0000001
 43
0.0000001
 40
0.0
 40
0.0
 40
0.0
 40
1.0
 40
1.0
 40
1.0
 10
187.86642177409948
 20
139.66931208196598
 30
0.0
 10
187.96671139284518
 20
139.80791087886732
 30
0.0
 10
187.96321680156885
 20
140.04526661308944
 30
0.0
  0
SPLINE
  5
BC
102
{ACAD_REACTORS
330
31
102
}
100
AcDbEntity
  8
0
  6
CONTINUOUS
100
AcDbSpline
210
0.0
220
0.0
230
1.0
 70
     8
 71
     2
 72
     6
 73
     3
 74
     0
 42
0.0000001
 43
0.0000001
 40
0.0
 40
0.0
 40
0.0
 40
1.0
 40
1.0
 40
1.0
 10
187.96321680156888
 20
140.04526661308944
 30
0.0
 10
187.95945107367211
 20
140.3010381866815
 30
0.0
 10
187.85509454601487
 20
140.43866744461923
 30
0.0
  0
SPLINE
  5
BD
102
{ACAD_REACTORS
330
31
102
}
100
AcDbEntity
  8
0
  6
CONTINUOUS
100
AcDbSpline
210
0.0
220
0.0
230
1.0
 70
     8
 71
     2
 72
     6
 73
     3
 74
     0
 42
0.0000001
 43
0.0000001
 40
0.0
 40
0.0
 40
0.0
 40
1.0
 40
1.0
 40
1.0
 10
187.85509454601487
 20
140.4386674446192
 30
0.0
 10
187.75073765016947
 20
140.57630146602446
 30
0.0
 10
187.56586009936464
 20
140.6226990618421
 30
0.0
  0
SPLINE
  5
BE
102
{ACAD_REACTORS
330
31
102
}
100
AcDbEntity
  8
0
  6
CONTINUOUS
100
AcDbSpline
210
0.0
220
0.0
230
1.0
 70
     8
 71
     2
 72
     6
 73
     3
 74
     0
 42
0.0000001
 43
0.0000001
 40
0.0
 40
0.0
 40
0.0
 40
1.0
 40
1.0
 40
1.0
 10
187.56586009936464
 20
140.6226990618421
 30
0.0
 10
187.4528991006998
 20
140.6496874170345
 30
0.0
 10
187.0928047944943
 20
140.64233989120467
 30
0.0
  0
SPLINE
  5
BF
102
{ACAD_REACTORS
330
31
102
}
100
AcDbEntity
  8
0
  6
CONTINUOUS
100
AcDbSpline
210
0.0
220
0.0
230
1.0
 70
     8
 71
     2
 72
     6
 73
     3
 74
     0
 42
0.0000001
 43
0.0000001
 40
0.0
 40
0.0
 40
0.0
 40
1.0
 40
1.0
 40
1.0
 10
187.0928047944943
 20
140.6423398912047
 30
0.0
 10
187.38077619761074
 20
140.40507842177783
 30
0.0
 10
187.38607829615921
 20
140.04495519294443
 30
0.0
  0
SPLINE
  5
C0
102
{ACAD_REACTORS
330
31
102
}
100
AcDbEntity
  8
0
  6
CONTINUOUS
100
AcDbSpline
210
0.0
220
0.0
230
1.0
 70
     8
 71
     2
 72
     6
 73
     3
 74
     0
 42
0.0000001
 43
0.0000001
 40
0.0
 40
0.0
 40
0.0
 40
1.0
 40
1.0
 40
1.0
 10
187.38607829615918
 20
140.04495519294443
 30
0.0
 10
187.39267581352777
 20
139.59684597065279
 30
0.0
 10
187.07299726223917
 20
139.34654635755635
 30
0.0
  0
SPLINE
  5
C1
102
{ACAD_REACTORS
330
31
102
}
100
AcDbEntity
  8
0
  6
CONTINUOUS
100
AcDbSpline
210
0.0
220
0.0
230
1.0
 70
     8
 71
     2
 72
     6
 73
     3
 74
     0
 42
0.0000001
 43
0.0000001
 40
0.0
 40
0.0
 40
0.0
 40
1.0
 40
1.0
 40
1.0
 10
187.07299726223917
 20
139.34654635755635
 30
0.0
 10
186.75331841295963
 20
139.09624674007256
 30
0.0
 10
186.3011165832585
 20
139.08958896719662
 30
0.0
  0
SPLINE
  5
C2
102
{ACAD_REACTORS
330
31
102
}
100
AcDbEntity
  8
0
  6
CONTINUOUS
100
AcDbSpline
210
0.0
220
0.0
230
1.0
 70
     8
 71
     2
 72
     6
 73
     3
 74
     0
 42
0.0000001
 43
0.0000001
 40
0.0
 40
0.0
 40
0.0
 40
1.0
 40
1.0
 40
1.0
 10
186.30111658325848
 20
139.08958896719665
 30
0.0
 10
185.99009987548411
 20
139.08500986453723
 30
0.0
 10
185.72551064557064
 20
139.19367915519726
 30
0.0
  0
SPLINE
  5
C3
102
{ACAD_REACTORS
330
31
102
}
100
AcDbEntity
  8
0
  6
CONTINUOUS
100
AcDbSpline
210
0.0
220
0.0
230
1.0
 70
     8
 71
     2
 72
     6
 73
     3
 74
     0
 42
0.0000001
 43
0.0000001
 40
0.0
 40
0.0
 40
0.0
 40
1.0
 40
1.0
 40
1.0
 10
185.72551064557064
 20
139.19367915519723
 30
0.0
 10
185.46092204673761
 20
139.30234607070446
 30
0.0
 10
185.31454219003689
 20
139.51406125494191
 30
0.0
  0
SPLINE
  5
C4
102
{ACAD_REACTORS
330
31
102
}
100
AcDbEntity
  8
0
  6
CONTINUOUS
100
AcDbSpline
210
0.0
220
0.0
230
1.0
 70
     8
 71
     2
 72
     6
 73
     3
 74
     0
 42
0.0000001
 43
0.0000001
 40
0.0
 40
0.0
 40
0.0
 40
1.0
 40
1.0
 40
1.0
 10
185.31454219003692
 20
139.51406125494194
 30
0.0
 10
185.16816278032258
 20
139.72577644576037
 30
0.0
 10
185.16391504346691
 20
140.01428649470091
 30
0.0
  0
SPLINE
  5
C5
102
{ACAD_REACTORS
330
31
102
}
100
AcDbEntity
  8
0
  6
CONTINUOUS
100
AcDbSpline
210
0.0
220
0.0
230
1.0
 70
     8
 71
     2
 72
     6
 73
     3
 74
     0
 42
0.0000001
 43
0.0000001
 40
0.0
 40
0.0
 40
0.0
 40
1.0
 40
1.0
 40
1.0
 10
185.16391504346691
 20
140.01428649470091
 30
0.0
 10
185.15825146452318
 20
140.3989617921001
 30
0.0
 10
185.46559293717115
 20
140.65317624134934
 30
0.0
  0
LINE
  5
C6
102
{ACAD_REACTORS
330
31
102
}
100
AcDbEntity
  8
0
  6
CONTINUOUS
100
AcDbLine
 10
185.465593
 20
140.653176
 30
0.0
 11
185.203684
 21
140.64932
 31
0.0
  0
LINE
  5
C7
102
{ACAD_REACTORS
330
31
102
}
100
AcDbEntity
  8
0
  6
CONTINUOUS
100
AcDbLine
 10
185.203684
 20
140.64932
 30
0.0
 11
185.198683
 21
140.988982
 31
0.0
  0
LINE
  5
C8
102
{ACAD_REACTORS
330
31
102
}
100
AcDbEntity
  8
0
  6
CONTINUOUS
100
AcDbLine
 10
185.198683
 20
140.988982
 30
0.0
 11
187.077061
 21
141.016638
 31
0.0
  0
SPLINE
  5
C9
102
{ACAD_REACTORS
330
31
102
}
100
AcDbEntity
  8
0
  6
CONTINUOUS
100
AcDbSpline
210
0.0
220
0.0
230
1.0
 70
     8
 71
     2
 72
     6
 73
     3
 74
     0
 42
0.0000001
 43
0.0000001
 40
0.0
 40
0.0
 40
0.0
 40
1.0
 40
1.0
 40
1.0
 10
187.07706086596684
 20
141.01663750995075
 30
0.0
 10
187.58450931980491
 20
141.02410867952591
 30
0.0
 10
187.79780864914051
 20
140.92389535493521
 30
0.0
  0
SPLINE
  5
CA
102
{ACAD_REACTORS
330
31
102
}
100
AcDbEntity
  8
0
  6
CONTINUOUS
100
AcDbSpline
210
0.0
220
0.0
230
1.0
 70
     8
 71
     2
 72
     6
 73
     3
 74
     0
 42
0.0000001
 43
0.0000001
 40
0.0
 40
0.0
 40
0.0
 40
1.0
 40
1.0
 40
1.0
 10
187.79780864914051
 20
140.92389535493521
 30
0.0
 10
188.01110797847605
 20
140.82368203034451
 30
0.0
 10
188.1371760372665
 20
140.60143376083107
 30
0.0
  0
SPLINE
  5
CB
102
{ACAD_REACTORS
330
31
102
}
100
AcDbEntity
  8
0
  6
CONTINUOUS
100
AcDbSpline
210
0.0
220
0.0
230
1.0
 70
     8
 71
     2
 72
     6
 73
     3
 74
     0
 42
0.0000001
 43
0.0000001
 40
0.0
 40
0.0
 40
0.0
 40
1.0
 40
1.0
 40
1.0
 10
188.1371760372665
 20
140.60143376083107
 30
0.0
 10
188.26324469203877
 20
140.37918550009229
 30
0.0
 10
188.26806478162828
 20
140.0518007466074
 30
0.0
  0
SPLINE
  5
CC
102
{ACAD_REACTORS
330
31
102
}
100
AcDbEntity
  8
0
  6
CONTINUOUS
100
AcDbSpline
210
0.0
220
0.0
230
1.0
 70
     8
 71
     2
 72
     6
 73
     3
 74
     0
 42
0.0000001
 43
0.0000001
 40
0.0
 40
0.0
 40
0.0
 40
1.0
 40
1.0
 40
1.0
 10
188.26806478162831
 20
140.0518007466074
 30
0.0
 10
188.27378865995246
 20
139.66302986188941
 30
0.0
 10
188.10236646769732
 20
139.42105297268941
 30
0.0
  0
SPLINE
  5
CD
102
{ACAD_REACTORS
330
31
102
}
100
AcDbEntity
  8
0
  6
CONTINUOUS
100
AcDbSpline
210
0.0
220
0.0
230
1.0
 70
     8
 71
     2
 72
     6
 73
     3
 74
     0
 42
0.0000001
 43
0.0000001
 40
0.0
 40
0.0
 40
0.0
 40
1.0
 40
1.0
 40
1.0
 10
188.10236646769735
 20
139.42105297268941
 30
0.0
 10
187.93094427544222
 20
139.17907608348941
 30
0.0
 10
187.57888394491857
 20
139.18208087641395
 30
0.0
  0
SPLINE
  5
CE
102
{ACAD_REACTORS
330
31
102
}
100
AcDbEntity
  8
0
  6
CONTINUOUS
100
AcDbSpline
210
0.0
220
0.0
230
1.0
 70
     8
 71
     2
 72
     6
 73
     3
 74
     0
 42
0.0000001
 43
0.0000001
 40
0.0
 40
0.0
 40
0.0
 40
1.0
 40
1.0
 40
1.0
 10
186.2689428898826
 20
139.46773639653983
 30
0.0
 10
186.69659116106328
 20
139.47403266708389
 30
0.0
 10
186.8905224834588
 20
139.64675572386537
 30
0.0
  0
SPLINE
  5
CF
102
{ACAD_REACTORS
330
31
102
}
100
AcDbEntity
  8
0
  6
CONTINUOUS
100
AcDbSpline
210
0.0
220
0.0
230
1.0
 70
     8
 71
     2
 72
     6
 73
     3
 74
     0
 42
0.0000001
 43
0.0000001
 40
0.0
 40
0.0
 40
0.0
 40
1.0
 40
1.0
 40
1.0
 10
186.8905224834588
 20
139.64675572386537
 30
0.0
 10
187.08445347276478
 20
139.81948116018697
 30
0.0
 10
187.08068777996664
 20
140.07525034985159
 30
0.0
  0
SPLINE
  5
D0
102
{ACAD_REACTORS
330
31
102
}
100
AcDbEntity
  8
0
  6
CONTINUOUS
100
AcDbSpline
210
0.0
220
0.0
230
1.0
 70
     8
 71
     2
 72
     6
 73
     3
 74
     0
 42
0.0000001
 43
0.0000001
 40
0.0
 40
0.0
 40
0.0
 40
1.0
 40
1.0
 40
1.0
 10
187.08068777996664
 20
140.07525034985159
 30
0.0
 10
187.07695216666153
 20
140.32897651371167
 30
0.0
 10
186.8790131831858
 20
140.49797591246411
 30
0.0
  0
SPLINE
  5
D1
102
{ACAD_REACTORS
330
31
102
}
100
AcDbEntity
  8
0
  6
CONTINUOUS
100
AcDbSpline
210
0.0
220
0.0
230
1.0
 70
     8
 71
     2
 72
     6
 73
     3
 74
     0
 42
0.0000001
 43
0.0000001
 40
0.0
 40
0.0
 40
0.0
 40
1.0
 40
1.0
 40
1.0
 10
186.8790131831858
 20
140.49797591246411
 30
0.0
 10
186.68107419971005
 20
140.66697531121656
 30
0.0
 10
186.26365685107126
 20
140.66082967066583
 30
0.0
  0
SPLINE
  5
D2
102
{ACAD_REACTORS
330
31
102
}
100
AcDbEntity
  8
0
  6
CONTINUOUS
100
AcDbSpline
210
0.0
220
0.0
230
1.0
 70
     8
 71
     2
 72
     6
 73
     3
 74
     0
 42
0.0000001
 43
0.0000001
 40
0.0
 40
0.0
 40
0.0
 40
1.0
 40
1.0
 40
1.0
 10
186.26365685107123
 20
140.66082967066581
 30
0.0
 10
185.86465504381141
 20
140.65495516234819
 30
0.0
 10
185.66469054446188
 20
140.47498040870394
 30
0.0
  0
SPLINE
  5
D3
102
{ACAD_REACTORS
330
31
102
}
100
AcDbEntity
  8
0
  6
CONTINUOUS
100
AcDbSpline
210
0.0
220
0.0
230
1.0
 70
     8
 71
     2
 72
     6
 73
     3
 74
     0
 42
0.0000001
 43
0.0000001
 40
0.0
 40
0.0
 40
0.0
 40
1.0
 40
1.0
 40
1.0
 10
185.66469054446188
 20
140.47498040870397
 30
0.0
 10
185.46472634310328
 20
140.29500565944704
 30
0.0
 10
185.46840165702795
 20
140.04537508290571
 30
0.0
  0
SPLINE
  5
D4
102
{ACAD_REACTORS
330
31
102
}
100
AcDbEntity
  8
0
  6
CONTINUOUS
100
AcDbSpline
210
0.0
220
0.0
230
1.0
 70
     8
 71
     2
 72
     6
 73
     3
 74
     0
 42
0.0000001
 43
0.0000001
 40
0.0
 40
0.0
 40
0.0
 40
1.0
 40
1.0
 40
1.0
 10
185.46840165702793
 20
140.04537508290571
 30
0.0
 10
185.47201674176935
 20
139.79983532582833
 30
0.0
 10
185.67404806976225
 20
139.63089379426833
 30
0.0
  0
SPLINE
  5
D5
102
{ACAD_REACTORS
330
31
102
}
100
AcDbEntity
  8
0
  6
CONTINUOUS
100
AcDbSpline
210
0.0
220
0.0
230
1.0
 70
     8
 71
     2
 72
     6
 73
     3
 74
     0
 42
0.0000001
 43
0.0000001
 40
0.0
 40
0.0
 40
0.0
 40
1.0
 40
1.0
 40
1.0
 10
185.67404806976228
 20
139.6308937942683
 30
0.0
 10
185.87607999373702
 20
139.46195227148297
 30
0.0
 10
186.26894288988262
 20
139.46773639653981
 30
0.0
  0
LINE
  5
D6
102
{ACAD_REACTORS
330
31
102
}
100
AcDbEntity
  8
0
  6
CONTINUOUS
100
AcDbLine
 10
187.346433
 20
142.737704
 30
0.0
 11
185.173408
 21
142.70571
 31
0.0
  0
LINE
  5
D7
102
{ACAD_REACTORS
330
31
102
}
100
AcDbEntity
  8
0
  6
CONTINUOUS
100
AcDbLine
 10
185.173408
 20
142.70571
 30
0.0
 11
185.168527
 21
143.037191
 31
0.0
  0
LINE
  5
D8
102
{ACAD_REACTORS
330
31
102
}
100
AcDbEntity
  8
0
  6
CONTINUOUS
100
AcDbLine
 10
185.168527
 20
143.037191
 30
0.0
 11
185.49796
 21
143.042041
 31
0.0
  0
SPLINE
  5
D9
102
{ACAD_REACTORS
330
31
102
}
100
AcDbEntity
  8
0
  6
CONTINUOUS
100
AcDbSpline
210
0.0
220
0.0
230
1.0
 70
     8
 71
     2
 72
     6
 73
     3
 74
     0
 42
0.0000001
 43
0.0000001
 40
0.0
 40
0.0
 40
0.0
 40
1.0
 40
1.0
 40
1.0
 10
185.49795984485624
 20
143.04204083389831
 30
0.0
 10
185.26487551308674
 20
143.16549971220005
 30
0.0
 10
185.18963206792392
 20
143.27183734142179
 30
0.0
  0
SPLINE
  5
DA
102
{ACAD_REACTORS
330
31
102
}
100
AcDbEntity
  8
0
  6
CONTINUOUS
100
AcDbSpline
210
0.0
220
0.0
230
1.0
 70
     8
 71
     2
 72
     6
 73
     3
 74
     0
 42
0.0000001
 43
0.0000001
 40
0.0
 40
0.0
 40
0.0
 40
1.0
 40
1.0
 40
1.0
 10
185.18963206792392
 20
143.27183734142176
 30
0.0
 10
185.11438862276114
 20
143.3781749706435
 30
0.0
 10
185.11249070151698
 20
143.5070834623055
 30
0.0
  0
SPLINE
  5
DB
102
{ACAD_REACTORS
330
31
102
}
100
AcDbEntity
  8
0
  6
CONTINUOUS
100
AcDbSpline
210
0.0
220
0.0
230
1.0
 70
     8
 71
     2
 72
     6
 73
     3
 74
     0
 42
0.0000001
 43
0.0000001
 40
0.0
 40
0.0
 40
0.0
 40
1.0
 40
1.0
 40
1.0
 10
185.11249070151698
 20
143.5070834623055
 30
0.0
 10
185.10974925581999
 20
143.69328488180921
 30
0.0
 10
185.22559470237874
 20
143.8873722012998
 30
0.0
  0
LINE
  5
DC
102
{ACAD_REACTORS
330
31
102
}
100
AcDbEntity
  8
0
  6
CONTINUOUS
100
AcDbLine
 10
185.225595
 20
143.887372
 30
0.0
 11
185.569172
 21
143.76554
 31
0.0
  0
SPLINE
  5
DD
102
{ACAD_REACTORS
330
31
102
}
100
AcDbEntity
  8
0
  6
CONTINUOUS
100
AcDbSpline
210
0.0
220
0.0
230
1.0
 70
     8
 71
     2
 72
     6
 73
     3
 74
     0
 42
0.0000001
 43
0.0000001
 40
0.0
 40
0.0
 40
0.0
 40
1.0
 40
1.0
 40
1.0
 10
185.56917168644031
 20
143.76554010762189
 30
0.0
 10
185.49135980390056
 20
143.62931810380545
 30
0.0
 10
185.4933480689196
 20
143.49427338294757
 30
0.0
  0
SPLINE
  5
DE
102
{ACAD_REACTORS
330
31
102
}
100
AcDbEntity
  8
0
  6
CONTINUOUS
100
AcDbSpline
210
0.0
220
0.0
230
1.0
 70
     8
 71
     2
 72
     6
 73
     3
 74
     0
 42
0.0000001
 43
0.0000001
 40
0.0
 40
0.0
 40
0.0
 40
1.0
 40
1.0
 40
1.0
 10
185.4933480689196
 20
143.49427338294757
 30
0.0
 10
185.49512549669871
 20
143.37354891414083
 30
0.0
 10
185.56918027365205
 20
143.27844836068917
 30
0.0
  0
SPLINE
  5
DF
102
{ACAD_REACTORS
330
31
102
}
100
AcDbEntity
  8
0
  6
CONTINUOUS
100
AcDbSpline
210
0.0
220
0.0
230
1.0
 70
     8
 71
     2
 72
     6
 73
     3
 74
     0
 42
0.0000001
 43
0.0000001
 40
0.0
 40
0.0
 40
0.0
 40
1.0
 40
1.0
 40
1.0
 10
185.56918027365205
 20
143.27844836068914
 30
0.0
 10
185.6432350506054
 20
143.18334780723748
 30
0.0
 10
185.7727454487096
 20
143.14432322150333
 30
0.0
  0
SPLINE
  5
E0
102
{ACAD_REACTORS
330
31
102
}
100
AcDbEntity
  8
0
  6
CONTINUOUS
100
AcDbSpline
210
0.0
220
0.0
230
1.0
 70
     8
 71
     2
 72
     6
 73
     3
 74
     0
 42
0.0000001
 43
0.0000001
 40
0.0
 40
0.0
 40
0.0
 40
1.0
 40
1.0
 40
1.0
 10
185.77274544870957
 20
143.14432322150333
 30
0.0
 10
185.9700812464003
 20
143.08583154550075
 30
0.0
 10
186.20334377723108
 20
143.08926587249533
 30
0.0
  0
LINE
  5
E1
102
{ACAD_REACTORS
330
31
102
}
100
AcDbEntity
  8
0
  6
CONTINUOUS
100
AcDbLine
 10
186.203344
 20
143.089266
 30
0.0
 11
187.34101
 21
143.106016
 31
0.0
  0
LINE
  5
E2
102
{ACAD_REACTORS
330
31
102
}
100
AcDbEntity
  8
0
  6
CONTINUOUS
100
AcDbLine
 10
187.34101
 20
143.106016
 30
0.0
 11
187.346433
 21
142.737704
 31
0.0
  0
LINE
  5
E3
102
{ACAD_REACTORS
330
31
102
}
100
AcDbEntity
  8
0
  6
CONTINUOUS
100
AcDbLine
 10
186.604138
 20
145.614537
 30
0.0
 11
186.645596
 21
145.995814
 31
0.0
  0
SPLINE
  5
E4
102
{ACAD_REACTORS
330
31
102
}
100
AcDbEntity
  8
0
  6
CONTINUOUS
100
AcDbSpline
210
0.0
220
0.0
230
1.0
 70
     8
 71
     2
 72
     6
 73
     3
 74
     0
 42
0.0000001
 43
0.0000001
 40
0.0
 40
0.0
 40
0.0
 40
1.0
 40
1.0
 40
1.0
 10
186.64559634996778
 20
145.99581448053692
 30
0.0
 10
186.98044640685288
 20
145.91069594728651
 30
0.0
 10
187.16818586172118
 20
145.66991529303732
 30
0.0
  0
SPLINE
  5
E5
102
{ACAD_REACTORS
330
31
102
}
100
AcDbEntity
  8
0
  6
CONTINUOUS
100
AcDbSpline
210
0.0
220
0.0
230
1.0
 70
     8
 71
     2
 72
     6
 73
     3
 74
     0
 42
0.0000001
 43
0.0000001
 40
0.0
 40
0.0
 40
0.0
 40
1.0
 40
1.0
 40
1.0
 10
187.16818586172118
 20
145.66991529303732
 30
0.0
 10
187.35592564967902
 20
145.42913225924804
 30
0.0
 10
187.36149888484789
 20
145.0505931910447
 30
0.0
  0
SPLINE
  5
E6
102
{ACAD_REACTORS
330
31
102
}
100
AcDbEntity
  8
0
  6
CONTINUOUS
100
AcDbSpline
210
0.0
220
0.0
230
1.0
 70
     8
 71
     2
 72
     6
 73
     3
 74
     0
 42
0.0000001
 43
0.0000001
 40
0.0
 40
0.0
 40
0.0
 40
1.0
 40
1.0
 40
1.0
 10
187.36149888484789
 20
145.0505931910447
 30
0.0
 10
187.36851818199219
 20
144.57383631286851
 30
0.0
 10
187.07900586574516
 20
144.2902123390798
 30
0.0
  0
SPLINE
  5
E7
102
{ACAD_REACTORS
330
31
102
}
100
AcDbEntity
  8
0
  6
CONTINUOUS
100
AcDbSpline
210
0.0
220
0.0
230
1.0
 70
     8
 71
     2
 72
     6
 73
     3
 74
     0
 42
0.0000001
 43
0.0000001
 40
0.0
 40
0.0
 40
0.0
 40
1.0
 40
1.0
 40
1.0
 10
187.07900586574516
 20
144.2902123390798
 30
0.0
 10
186.78949354949813
 20
144.00658836529112
 30
0.0
 10
186.25953754285342
 20
143.99878581675034
 30
0.0
  0
SPLINE
  5
E8
102
{ACAD_REACTORS
330
31
102
}
100
AcDbEntity
  8
0
  6
CONTINUOUS
100
AcDbSpline
210
0.0
220
0.0
230
1.0
 70
     8
 71
     2
 72
     6
 73
     3
 74
     0
 42
0.0000001
 43
0.0000001
 40
0.0
 40
0.0
 40
0.0
 40
1.0
 40
1.0
 40
1.0
 10
186.25953754285342
 20
143.99878581675034
 30
0.0
 10
185.71116569683878
 20
143.99071213158913
 30
0.0
 10
185.40417628501791
 20
144.26862258305923
 30
0.0
  0
SPLINE
  5
E9
102
{ACAD_REACTORS
330
31
102
}
100
AcDbEntity
  8
0
  6
CONTINUOUS
100
AcDbSpline
210
0.0
220
0.0
230
1.0
 70
     8
 71
     2
 72
     6
 73
     3
 74
     0
 42
0.0000001
 43
0.0000001
 40
0.0
 40
0.0
 40
0.0
 40
1.0
 40
1.0
 40
1.0
 10
185.40417628501791
 20
144.2686225830592
 30
0.0
 10
185.09718672420158
 20
144.54653303233567
 30
0.0
 10
185.09055905714277
 20
144.99669004828669
 30
0.0
  0
SPLINE
  5
EA
102
{ACAD_REACTORS
330
31
102
}
100
AcDbEntity
  8
0
  6
CONTINUOUS
100
AcDbSpline
210
0.0
220
0.0
230
1.0
 70
     8
 71
     2
 72
     6
 73
     3
 74
     0
 42
0.0000001
 43
0.0000001
 40
0.0
 40
0.0
 40
0.0
 40
1.0
 40
1.0
 40
1.0
 10
185.09055905714277
 20
144.99669004828672
 30
0.0
 10
185.08414226242252
 20
145.43252442825917
 30
0.0
 10
185.37676894322175
 20
145.71312309076555
 30
0.0
  0
SPLINE
  5
EB
102
{ACAD_REACTORS
330
31
102
}
100
AcDbEntity
  8
0
  6
CONTINUOUS
100
AcDbSpline
210
0.0
220
0.0
230
1.0
 70
     8
 71
     2
 72
     6
 73
     3
 74
     0
 42
0.0000001
 43
0.0000001
 40
0.0
 40
0.0
 40
0.0
 40
1.0
 40
1.0
 40
1.0
 10
185.37676894322175
 20
145.71312309076555
 30
0.0
 10
185.66939547502551
 20
145.99372175107828
 30
0.0
 10
186.20753669648923
 20
146.00164481063348
 30
0.0
  0
SPLINE
  5
EC
102
{ACAD_REACTORS
330
31
102
}
100
AcDbEntity
  8
0
  6
CONTINUOUS
100
AcDbSpline
210
0.0
220
0.0
230
1.0
 70
     8
 71
     2
 72
     6
 73
     3
 74
     0
 42
0.0000001
 43
0.0000001
 40
0.0
 40
0.0
 40
0.0
 40
1.0
 40
1.0
 40
1.0
 10
186.20753669648923
 20
146.00164481063345
 30
0.0
 10
186.24027517183771
 20
146.00212681959241
 30
0.0
 10
186.30578253511726
 20
146.00104543216571
 30
0.0
  0
LINE
  5
ED
102
{ACAD_REACTORS
330
31
102
}
100
AcDbEntity
  8
0
  6
CONTINUOUS
100
AcDbLine
 10
186.305783
 20
146.001045
 30
0.0
 11
186.329642
 21
144.380485
 31
0.0
  0
SPLINE
  5
EE
102
{ACAD_REACTORS
330
31
102
}
100
AcDbEntity
  8
0
  6
CONTINUOUS
100
AcDbSpline
210
0.0
220
0.0
230
1.0
 70
     8
 71
     2
 72
     6
 73
     3
 74
     0
 42
0.0000001
 43
0.0000001
 40
0.0
 40
0.0
 40
0.0
 40
1.0
 40
1.0
 40
1.0
 10
186.32964206633179
 20
144.38048494259687
 30
0.0
 10
186.6874194930954
 20
144.4062205727451
 30
0.0
 10
186.87503114662974
 20
144.59113047251242
 30
0.0
  0
SPLINE
  5
EF
102
{ACAD_REACTORS
330
31
102
}
100
AcDbEntity
  8
0
  6
CONTINUOUS
100
AcDbSpline
210
0.0
220
0.0
230
1.0
 70
     8
 71
     2
 72
     6
 73
     3
 74
     0
 42
0.0000001
 43
0.0000001
 40
0.0
 40
0.0
 40
0.0
 40
1.0
 40
1.0
 40
1.0
 10
186.87503114662974
 20
144.59113047251242
 30
0.0
 10
187.06264339614594
 20
144.77604038105437
 30
0.0
 10
187.05863668131903
 20
145.04818000035695
 30
0.0
  0
SPLINE
  5
F0
102
{ACAD_REACTORS
330
31
102
}
100
AcDbEntity
  8
0
  6
CONTINUOUS
100
AcDbSpline
210
0.0
220
0.0
230
1.0
 70
     8
 71
     2
 72
     6
 73
     3
 74
     0
 42
0.0000001
 43
0.0000001
 40
0.0
 40
0.0
 40
0.0
 40
1.0
 40
1.0
 40
1.0
 10
187.058636681319
 20
145.04818000035692
 30
0.0
 10
187.05565424869184
 20
145.2507494655712
 30
0.0
 10
186.94714481424467
 20
145.3924140553205
 30
0.0
  0
SPLINE
  5
F1
102
{ACAD_REACTORS
330
31
102
}
100
AcDbEntity
  8
0
  6
CONTINUOUS
100
AcDbSpline
210
0.0
220
0.0
230
1.0
 70
     8
 71
     2
 72
     6
 73
     3
 74
     0
 42
0.0000001
 43
0.0000001
 40
0.0
 40
0.0
 40
0.0
 40
1.0
 40
1.0
 40
1.0
 10
186.94714481424467
 20
145.3924140553205
 30
0.0
 10
186.8386356777884
 20
145.53407864945711
 30
0.0
 10
186.6041376944284
 20
145.61453710814214
 30
0.0
  0
LINE
  5
F2
102
{ACAD_REACTORS
330
31
102
}
100
AcDbEntity
  8
0
  6
CONTINUOUS
100
AcDbLine
 10
186.026508
 20
144.39649
 30
0.0
 11
186.008644
 21
145.609861
 31
0.0
  0
SPLINE
  5
F3
102
{ACAD_REACTORS
330
31
102
}
100
AcDbEntity
  8
0
  6
CONTINUOUS
100
AcDbSpline
210
0.0
220
0.0
230
1.0
 70
     8
 71
     2
 72
     6
 73
     3
 74
     0
 42
0.0000001
 43
0.0000001
 40
0.0
 40
0.0
 40
0.0
 40
1.0
 40
1.0
 40
1.0
 10
186.00864391192161
 20
145.60986135237266
 30
0.0
 10
185.73481976730048
 20
145.58127244561359
 30
0.0
 10
185.59941367060839
 20
145.46467055037363
 30
0.0
  0
SPLINE
  5
F4
102
{ACAD_REACTORS
330
31
102
}
100
AcDbEntity
  8
0
  6
CONTINUOUS
100
AcDbSpline
210
0.0
220
0.0
230
1.0
 70
     8
 71
     2
 72
     6
 73
     3
 74
     0
 42
0.0000001
 43
0.0000001
 40
0.0
 40
0.0
 40
0.0
 40
1.0
 40
1.0
 40
1.0
 10
185.59941367060839
 20
145.46467055037365
 30
0.0
 10
185.38920382250163
 20
145.28556549644924
 30
0.0
 10
185.39333103079363
 20
145.0052418542914
 30
0.0
  0
SPLINE
  5
F5
102
{ACAD_REACTORS
330
31
102
}
100
AcDbEntity
  8
0
  6
CONTINUOUS
100
AcDbSpline
210
0.0
220
0.0
230
1.0
 70
     8
 71
     2
 72
     6
 73
     3
 74
     0
 42
0.0000001
 43
0.0000001
 40
0.0
 40
0.0
 40
0.0
 40
1.0
 40
1.0
 40
1.0
 10
185.39333103079363
 20
145.0052418542914
 30
0.0
 10
185.39706660900015
 20
144.75151807435876
 30
0.0
 10
185.56944382550202
 20
144.58111701841057
 30
0.0
  0
SPLINE
  5
F6
102
{ACAD_REACTORS
330
31
102
}
100
AcDbEntity
  8
0
  6
CONTINUOUS
100
AcDbSpline
210
0.0
220
0.0
230
1.0
 70
     8
 71
     2
 72
     6
 73
     3
 74
     0
 42
0.0000001
 43
0.0000001
 40
0.0
 40
0.0
 40
0.0
 40
1.0
 40
1.0
 40
1.0
 10
185.56944382550202
 20
144.58111701841057
 30
0.0
 10
185.74182104200386
 20
144.41071596246238
 30
0.0
 10
186.026508393093
 20
144.39648997081918
 30
0.0
  0
SPLINE
  5
F7
102
{ACAD_REACTORS
330
31
102
}
100
AcDbEntity
  8
0
  6
CONTINUOUS
100
AcDbSpline
210
0.0
220
0.0
230
1.0
 70
     8
 71
     2
 72
     6
 73
     3
 74
     0
 42
0.0000001
 43
0.0000001
 40
0.0
 40
0.0
 40
0.0
 40
1.0
 40
1.0
 40
1.0
 10
187.00258943697264
 20
147.88190099036609
 30
0.0
 10
187.17952584435903
 20
147.67984918291012
 30
0.0
 10
187.25392809596093
 20
147.49162927774501
 30
0.0
  0
SPLINE
  5
F8
102
{ACAD_REACTORS
330
31
102
}
100
AcDbEntity
  8
0
  6
CONTINUOUS
100
AcDbSpline
210
0.0
220
0.0
230
1.0
 70
     8
 71
     2
 72
     6
 73
     3
 74
     0
 42
0.0000001
 43
0.0000001
 40
0.0
 40
0.0
 40
0.0
 40
1.0
 40
1.0
 40
1.0
 10
187.25392809596093
 20
147.49162927774498
 30
0.0
 10
187.32833057535657
 20
147.30341414482206
 30
0.0
 10
187.3315238452237
 20
147.08652442755664
 30
0.0
  0
SPLINE
  5
F9
102
{ACAD_REACTORS
330
31
102
}
100
AcDbEntity
  8
0
  6
CONTINUOUS
100
AcDbSpline
210
0.0
220
0.0
230
1.0
 70
     8
 71
     2
 72
     6
 73
     3
 74
     0
 42
0.0000001
 43
0.0000001
 40
0.0
 40
0.0
 40
0.0
 40
1.0
 40
1.0
 40
1.0
 10
187.3315238452237
 20
147.0865244275567
 30
0.0
 10
187.33679586427911
 20
146.72844422452783
 30
0.0
 10
187.16468079072649
 20
146.53352844665488
 30
0.0
  0
SPLINE
  5
FA
102
{ACAD_REACTORS
330
31
102
}
100
AcDbEntity
  8
0
  6
CONTINUOUS
100
AcDbSpline
210
0.0
220
0.0
230
1.0
 70
     8
 71
     2
 72
     6
 73
     3
 74
     0
 42
0.0000001
 43
0.0000001
 40
0.0
 40
0.0
 40
0.0
 40
1.0
 40
1.0
 40
1.0
 10
187.16468079072649
 20
146.53352844665486
 30
0.0
 10
186.99256541918294
 20
146.33861266439459
 30
0.0
 10
186.72042579988036
 20
146.33460594956756
 30
0.0
  0
SPLINE
  5
FB
102
{ACAD_REACTORS
330
31
102
}
100
AcDbEntity
  8
0
  6
CONTINUOUS
100
AcDbSpline
210
0.0
220
0.0
230
1.0
 70
     8
 71
     2
 72
     6
 73
     3
 74
     0
 42
0.0000001
 43
0.0000001
 40
0.0
 40
0.0
 40
0.0
 40
1.0
 40
1.0
 40
1.0
 10
186.72042579988036
 20
146.33460594956756
 30
0.0
 10
186.56082513657461
 20
146.33225614711802
 30
0.0
 10
186.42777818225471
 20
146.40295130951063
 30
0.0
  0
SPLINE
  5
FC
102
{ACAD_REACTORS
330
31
102
}
100
AcDbEntity
  8
0
  6
CONTINUOUS
100
AcDbSpline
210
0.0
220
0.0
230
1.0
 70
     8
 71
     2
 72
     6
 73
     3
 74
     0
 42
0.0000001
 43
0.0000001
 40
0.0
 40
0.0
 40
0.0
 40
1.0
 40
1.0
 40
1.0
 10
186.42777818225471
 20
146.40295130951063
 30
0.0
 10
186.29473122793482
 20
146.47364647190327
 30
0.0
 10
186.21319878938576
 20
146.59012792708091
 30
0.0
  0
SPLINE
  5
FD
102
{ACAD_REACTORS
330
31
102
}
100
AcDbEntity
  8
0
  6
CONTINUOUS
100
AcDbSpline
210
0.0
220
0.0
230
1.0
 70
     8
 71
     2
 72
     6
 73
     3
 74
     0
 42
0.0000001
 43
0.0000001
 40
0.0
 40
0.0
 40
0.0
 40
1.0
 40
1.0
 40
1.0
 10
186.21319878938576
 20
146.59012792708091
 30
0.0
 10
186.13166605284579
 20
146.70660937787125
 30
0.0
 10
186.08857363790324
 20
146.85332880938972
 30
0.0
  0
SPLINE
  5
FE
102
{ACAD_REACTORS
330
31
102
}
100
AcDbEntity
  8
0
  6
CONTINUOUS
100
AcDbSpline
210
0.0
220
0.0
230
1.0
 70
     8
 71
     2
 72
     6
 73
     3
 74
     0
 42
0.0000001
 43
0.0000001
 40
0.0
 40
0.0
 40
0.0
 40
1.0
 40
1.0
 40
1.0
 10
186.08857363790324
 20
146.85332880938972
 30
0.0
 10
186.05833083703973
 20
146.96135191018334
 30
0.0
 10
186.02850722216769
 20
147.17990017056272
 30
0.0
  0
SPLINE
  5
FF
102
{ACAD_REACTORS
330
31
102
}
100
AcDbEntity
  8
0
  6
CONTINUOUS
100
AcDbSpline
210
0.0
220
0.0
230
1.0
 70
     8
 71
     2
 72
     6
 73
     3
 74
     0
 42
0.0000001
 43
0.0000001
 40
0.0
 40
0.0
 40
0.0
 40
1.0
 40
1.0
 40
1.0
 10
186.02850722216769
 20
147.17990017056272
 30
0.0
 10
185.96873946385989
 20
147.6251830981042
 30
0.0
 10
185.8919746702426
 20
147.83485206162871
 30
0.0
  0
SPLINE
  5
100
102
{ACAD_REACTORS
330
31
102
}
100
AcDbEntity
  8
0
  6
CONTINUOUS
100
AcDbSpline
210
0.0
220
0.0
230
1.0
 70
     8
 71
     2
 72
     6
 73
     3
 74
     0
 42
0.0000001
 43
0.0000001
 40
0.0
 40
0.0
 40
0.0
 40
1.0
 40
1.0
 40
1.0
 10
185.89197467024263
 20
147.83485206162874
 30
0.0
 10
185.81623668241215
 20
147.83578282344942
 30
0.0
 10
185.79577483732842
 20
147.83548156346276
 30
0.0
  0
SPLINE
  5
101
102
{ACAD_REACTORS
330
31
102
}
100
AcDbEntity
  8
0
  6
CONTINUOUS
100
AcDbSpline
210
0.0
220
0.0
230
1.0
 70
     8
 71
     2
 72
     6
 73
     3
 74
     0
 42
0.0000001
 43
0.0000001
 40
0.0
 40
0.0
 40
0.0
 40
1.0
 40
1.0
 40
1.0
 10
185.79577483732839
 20
147.83548156346274
 30
0.0
 10
185.57069692533474
 20
147.83216773870791
 30
0.0
 10
185.48015592218104
 20
147.72645804276107
 30
0.0
  0
SPLINE
  5
102
102
{ACAD_REACTORS
330
31
102
}
100
AcDbEntity
  8
0
  6
CONTINUOUS
100
AcDbSpline
210
0.0
220
0.0
230
1.0
 70
     8
 71
     2
 72
     6
 73
     3
 74
     0
 42
0.0000001
 43
0.0000001
 40
0.0
 40
0.0
 40
0.0
 40
1.0
 40
1.0
 40
1.0
 10
185.48015592218104
 20
147.72645804276107
 30
0.0
 10
185.35741871691963
 20
147.58343465911543
 30
0.0
 10
185.36151577552141
 20
147.30515881061697
 30
0.0
  0
SPLINE
  5
103
102
{ACAD_REACTORS
330
31
102
}
100
AcDbEntity
  8
0
  6
CONTINUOUS
100
AcDbSpline
210
0.0
220
0.0
230
1.0
 70
     8
 71
     2
 72
     6
 73
     3
 74
     0
 42
0.0000001
 43
0.0000001
 40
0.0
 40
0.0
 40
0.0
 40
1.0
 40
1.0
 40
1.0
 10
185.36151577552141
 20
147.30515881061697
 30
0.0
 10
185.36534173260139
 20
147.04529641756102
 30
0.0
 10
185.45821844032412
 20
146.92284442486394
 30
0.0
  0
SPLINE
  5
104
102
{ACAD_REACTORS
330
31
102
}
100
AcDbEntity
  8
0
  6
CONTINUOUS
100
AcDbSpline
210
0.0
220
0.0
230
1.0
 70
     8
 71
     2
 72
     6
 73
     3
 74
     0
 42
0.0000001
 43
0.0000001
 40
0.0
 40
0.0
 40
0.0
 40
1.0
 40
1.0
 40
1.0
 10
185.45821844032412
 20
146.92284442486394
 30
0.0
 10
185.55109544603778
 20
146.8003924365542
 30
0.0
 10
185.78318564529775
 20
146.74445591868141
 30
0.0
  0
LINE
  5
105
102
{ACAD_REACTORS
330
31
102
}
100
AcDbEntity
  8
0
  6
CONTINUOUS
100
AcDbLine
 10
185.783186
 20
146.744456
 30
0.0
 11
185.73938
 21
146.383607
 31
0.0
  0
SPLINE
  5
106
102
{ACAD_REACTORS
330
31
102
}
100
AcDbEntity
  8
0
  6
CONTINUOUS
100
AcDbSpline
210
0.0
220
0.0
230
1.0
 70
     8
 71
     2
 72
     6
 73
     3
 74
     0
 42
0.0000001
 43
0.0000001
 40
0.0
 40
0.0
 40
0.0
 40
1.0
 40
1.0
 40
1.0
 10
185.73937976793113
 20
146.38360728809482
 30
0.0
 10
185.50744021182646
 20
146.42931198945297
 30
0.0
 10
185.3635751527288
 20
146.53975870350479
 30
0.0
  0
SPLINE
  5
107
102
{ACAD_REACTORS
330
31
102
}
100
AcDbEntity
  8
0
  6
CONTINUOUS
100
AcDbSpline
210
0.0
220
0.0
230
1.0
 70
     8
 71
     2
 72
     6
 73
     3
 74
     0
 42
0.0000001
 43
0.0000001
 40
0.0
 40
0.0
 40
0.0
 40
1.0
 40
1.0
 40
1.0
 10
185.3635751527288
 20
146.53975870350479
 30
0.0
 10
185.21970986583739
 20
146.65020064531444
 30
0.0
 10
185.1398457298651
 20
146.8618745991827
 30
0.0
  0
SPLINE
  5
108
102
{ACAD_REACTORS
330
31
102
}
100
AcDbEntity
  8
0
  6
CONTINUOUS
100
AcDbSpline
210
0.0
220
0.0
230
1.0
 70
     8
 71
     2
 72
     6
 73
     3
 74
     0
 42
0.0000001
 43
0.0000001
 40
0.0
 40
0.0
 40
0.0
 40
1.0
 40
1.0
 40
1.0
 10
185.1398457298651
 20
146.86187459918267
 30
0.0
 10
185.05998151509453
 20
147.07354378300244
 30
0.0
 10
185.05585427170394
 20
147.35386980908771
 30
0.0
  0
SPLINE
  5
109
102
{ACAD_REACTORS
330
31
102
}
100
AcDbEntity
  8
0
  6
CONTINUOUS
100
AcDbSpline
210
0.0
220
0.0
230
1.0
 70
     8
 71
     2
 72
     6
 73
     3
 74
     0
 42
0.0000001
 43
0.0000001
 40
0.0
 40
0.0
 40
0.0
 40
1.0
 40
1.0
 40
1.0
 10
185.05585427170391
 20
147.35386980908771
 30
0.0
 10
185.05175721310212
 20
147.63214565758616
 30
0.0
 10
185.11467373874137
 20
147.80703625707594
 30
0.0
  0
SPLINE
  5
10A
102
{ACAD_REACTORS
330
31
102
}
100
AcDbEntity
  8
0
  6
CONTINUOUS
100
AcDbSpline
210
0.0
220
0.0
230
1.0
 70
     8
 71
     2
 72
     6
 73
     3
 74
     0
 42
0.0000001
 43
0.0000001
 40
0.0
 40
0.0
 40
0.0
 40
1.0
 40
1.0
 40
1.0
 10
185.1146737387414
 20
147.80703625707594
 30
0.0
 10
185.17759048357331
 20
147.98192209090453
 30
0.0
 10
185.27562420561853
 20
148.0652281802594
 30
0.0
  0
SPLINE
  5
10B
102
{ACAD_REACTORS
330
31
102
}
100
AcDbEntity
  8
0
  6
CONTINUOUS
100
AcDbSpline
210
0.0
220
0.0
230
1.0
 70
     8
 71
     2
 72
     6
 73
     3
 74
     0
 42
0.0000001
 43
0.0000001
 40
0.0
 40
0.0
 40
0.0
 40
1.0
 40
1.0
 40
1.0
 10
185.27562420561853
 20
148.06522818025934
 30
0.0
 10
185.37365785746655
 20
148.14853903746908
 30
0.0
 10
185.52459222606575
 20
148.18350443348731
 30
0.0
  0
SPLINE
  5
10C
102
{ACAD_REACTORS
330
31
102
}
100
AcDbEntity
  8
0
  6
CONTINUOUS
100
AcDbSpline
210
0.0
220
0.0
230
1.0
 70
     8
 71
     2
 72
     6
 73
     3
 74
     0
 42
0.0000001
 43
0.0000001
 40
0.0
 40
0.0
 40
0.0
 40
1.0
 40
1.0
 40
1.0
 10
185.52459222606575
 20
148.18350443348737
 30
0.0
 10
185.61844446896461
 20
148.20330843692903
 30
0.0
 10
185.86398422604199
 20
148.20692352167057
 30
0.0
  0
LINE
  5
10D
102
{ACAD_REACTORS
330
31
102
}
100
AcDbEntity
  8
0
  6
CONTINUOUS
100
AcDbLine
 10
185.863984
 20
148.206924
 30
0.0
 11
186.355063
 21
148.214154
 31
0.0
  0
SPLINE
  5
10E
102
{ACAD_REACTORS
330
31
102
}
100
AcDbEntity
  8
0
  6
CONTINUOUS
100
AcDbSpline
210
0.0
220
0.0
230
1.0
 70
     8
 71
     2
 72
     6
 73
     3
 74
     0
 42
0.0000001
 43
0.0000001
 40
0.0
 40
0.0
 40
0.0
 40
1.0
 40
1.0
 40
1.0
 10
186.35506314421494
 20
148.21415368237891
 30
0.0
 10
186.86864991318541
 20
148.22171522644021
 30
0.0
 10
187.00437359772815
 20
148.24724795194086
 30
0.0
  0
SPLINE
  5
10F
102
{ACAD_REACTORS
330
31
102
}
100
AcDbEntity
  8
0
  6
CONTINUOUS
100
AcDbSpline
210
0.0
220
0.0
230
1.0
 70
     8
 71
     2
 72
     6
 73
     3
 74
     0
 42
0.0000001
 43
0.0000001
 40
0.0
 40
0.0
 40
0.0
 40
1.0
 40
1.0
 40
1.0
 10
187.00437359772815
 20
148.24724795194089
 30
0.0
 10
187.14009698427998
 20
148.2727806730542
 30
0.0
 10
187.26388855123417
 20
148.34419087680698
 30
0.0
  0
LINE
  5
110
102
{ACAD_REACTORS
330
31
102
}
100
AcDbEntity
  8
0
  6
CONTINUOUS
100
AcDbLine
 10
187.263889
 20
148.344191
 30
0.0
 11
187.269552
 21
147.959511
 31
0.0
  0
SPLINE
  5
111
102
{ACAD_REACTORS
330
31
102
}
100
AcDbEntity
  8
0
  6
CONTINUOUS
100
AcDbSpline
210
0.0
220
0.0
230
1.0
 70
     8
 71
     2
 72
     6
 73
     3
 74
     0
 42
0.0000001
 43
0.0000001
 40
0.0
 40
0.0
 40
0.0
 40
1.0
 40
1.0
 40
1.0
 10
187.26955220037507
 20
147.95951081155292
 30
0.0
 10
187.15581043002771
 20
147.90053322750762
 30
0.0
 10
187.00258943697264
 20
147.88190099036609
 30
0.0
  0
SPLINE
  5
112
102
{ACAD_REACTORS
330
31
102
}
100
AcDbEntity
  8
0
  6
CONTINUOUS
100
AcDbSpline
210
0.0
220
0.0
230
1.0
 70
     8
 71
     2
 72
     6
 73
     3
 74
     0
 42
0.0000001
 43
0.0000001
 40
0.0
 40
0.0
 40
0.0
 40
1.0
 40
1.0
 40
1.0
 10
186.18048382521033
 20
147.83909978532253
 30
0.0
 10
186.26528259450944
 20
147.6397831405524
 30
0.0
 10
186.32847986043132
 20
147.23957854965332
 30
0.0
  0
SPLINE
  5
113
102
{ACAD_REACTORS
330
31
102
}
100
AcDbEntity
  8
0
  6
CONTINUOUS
100
AcDbSpline
210
0.0
220
0.0
230
1.0
 70
     8
 71
     2
 72
     6
 73
     3
 74
     0
 42
0.0000001
 43
0.0000001
 40
0.0
 40
0.0
 40
0.0
 40
1.0
 40
1.0
 40
1.0
 10
186.32847986043132
 20
147.23957854965334
 30
0.0
 10
186.36456231899945
 20
147.01293425697739
 30
0.0
 10
186.40687147377099
 20
146.91941454990928
 30
0.0
  0
SPLINE
  5
114
102
{ACAD_REACTORS
330
31
102
}
100
AcDbEntity
  8
0
  6
CONTINUOUS
100
AcDbSpline
210
0.0
220
0.0
230
1.0
 70
     8
 71
     2
 72
     6
 73
     3
 74
     0
 42
0.0000001
 43
0.0000001
 40
0.0
 40
0.0
 40
0.0
 40
1.0
 40
1.0
 40
1.0
 10
186.40687147377099
 20
146.91941454990928
 30
0.0
 10
186.44918040074882
 20
146.82589007059903
 30
0.0
 10
186.52871065593149
 20
146.77590036108347
 30
0.0
  0
SPLINE
  5
115
102
{ACAD_REACTORS
330
31
102
}
100
AcDbEntity
  8
0
  6
CONTINUOUS
100
AcDbSpline
210
0.0
220
0.0
230
1.0
 70
     8
 71
     2
 72
     6
 73
     3
 74
     0
 42
0.0000001
 43
0.0000001
 40
0.0
 40
0.0
 40
0.0
 40
1.0
 40
1.0
 40
1.0
 10
186.52871065593146
 20
146.77590036108347
 30
0.0
 10
186.60824127930226
 20
146.72590588810039
 30
0.0
 10
186.70441099762482
 20
146.72732179599831
 30
0.0
  0
SPLINE
  5
116
102
{ACAD_REACTORS
330
31
102
}
100
AcDbEntity
  8
0
  6
CONTINUOUS
100
AcDbSpline
210
0.0
220
0.0
230
1.0
 70
     8
 71
     2
 72
     6
 73
     3
 74
     0
 42
0.0000001
 43
0.0000001
 40
0.0
 40
0.0
 40
0.0
 40
1.0
 40
1.0
 40
1.0
 10
186.70441099762485
 20
146.72732179599831
 30
0.0
 10
186.85173443468398
 20
146.72949084070098
 30
0.0
 10
186.9483086147917
 20
146.84245223351058
 30
0.0
  0
SPLINE
  5
117
102
{ACAD_REACTORS
330
31
102
}
100
AcDbEntity
  8
0
  6
CONTINUOUS
100
AcDbSpline
210
0.0
220
0.0
230
1.0
 70
     8
 71
     2
 72
     6
 73
     3
 74
     0
 42
0.0000001
 43
0.0000001
 40
0.0
 40
0.0
 40
0.0
 40
1.0
 40
1.0
 40
1.0
 10
186.9483086147917
 20
146.84245223351056
 30
0.0
 10
187.04488249690851
 20
146.95541362193282
 30
0.0
 10
187.04171934163298
 20
147.17025792946626
 30
0.0
  0
SPLINE
  5
118
102
{ACAD_REACTORS
330
31
102
}
100
AcDbEntity
  8
0
  6
CONTINUOUS
100
AcDbSpline
210
0.0
220
0.0
230
1.0
 70
     8
 71
     2
 72
     6
 73
     3
 74
     0
 42
0.0000001
 43
0.0000001
 40
0.0
 40
0.0
 40
0.0
 40
1.0
 40
1.0
 40
1.0
 10
187.04171934163301
 20
147.17025792946626
 30
0.0
 10
187.03858623075195
 20
147.3830615951226
 30
0.0
 10
186.94304562450603
 20
147.54743104706321
 30
0.0
  0
SPLINE
  5
119
102
{ACAD_REACTORS
330
31
102
}
100
AcDbEntity
  8
0
  6
CONTINUOUS
100
AcDbSpline
210
0.0
220
0.0
230
1.0
 70
     8
 71
     2
 72
     6
 73
     3
 74
     0
 42
0.0000001
 43
0.0000001
 40
0.0
 40
0.0
 40
0.0
 40
1.0
 40
1.0
 40
1.0
 10
186.94304562450603
 20
147.54743104706321
 30
0.0
 10
186.84750508845732
 20
147.71179573114901
 30
0.0
 10
186.684713345782
 20
147.78716997788942
 30
0.0
  0
SPLINE
  5
11A
102
{ACAD_REACTORS
330
31
102
}
100
AcDbEntity
  8
0
  6
CONTINUOUS
100
AcDbSpline
210
0.0
220
0.0
230
1.0
 70
     8
 71
     2
 72
     6
 73
     3
 74
     0
 42
0.0000001
 43
0.0000001
 40
0.0
 40
0.0
 40
0.0
 40
1.0
 40
1.0
 40
1.0
 10
186.68471334578197
 20
147.78716997788939
 30
0.0
 10
186.55902408537736
 20
147.84467303804081
 30
0.0
 10
186.31553033401377
 20
147.84108807666556
 30
0.0
  0
LINE
  5
11B
102
{ACAD_REACTORS
330
31
102
}
100
AcDbEntity
  8
0
  6
CONTINUOUS
100
AcDbLine
 10
186.31553
 20
147.841088
 30
0.0
 11
186.180484
 21
147.8391
 31
0.0
  0
LINE
  5
11C
102
{ACAD_REACTORS
330
31
102
}
100
AcDbEntity
  8
0
  6
CONTINUOUS
100
AcDbLine
 10
187.257261
 20
148.794348
 30
0.0
 11
185.084236
 21
148.762354
 31
0.0
  0
LINE
  5
11D
102
{ACAD_REACTORS
330
31
102
}
100
AcDbEntity
  8
0
  6
CONTINUOUS
100
AcDbLine
 10
185.084236
 20
148.762354
 30
0.0
 11
185.079355
 21
149.09383
 31
0.0
  0
LINE
  5
11E
102
{ACAD_REACTORS
330
31
102
}
100
AcDbEntity
  8
0
  6
CONTINUOUS
100
AcDbLine
 10
185.079355
 20
149.09383
 30
0.0
 11
185.408788
 21
149.09868
 31
0.0
  0
SPLINE
  5
11F
102
{ACAD_REACTORS
330
31
102
}
100
AcDbEntity
  8
0
  6
CONTINUOUS
100
AcDbSpline
210
0.0
220
0.0
230
1.0
 70
     8
 71
     2
 72
     6
 73
     3
 74
     0
 42
0.0000001
 43
0.0000001
 40
0.0
 40
0.0
 40
0.0
 40
1.0
 40
1.0
 40
1.0
 10
185.40878787156299
 20
149.09868022871584
 30
0.0
 10
185.17570353979349
 20
149.2221391070176
 30
0.0
 10
185.10046005953211
 20
149.32847912016675
 30
0.0
  0
SPLINE
  5
120
102
{ACAD_REACTORS
330
31
102
}
100
AcDbEntity
  8
0
  6
CONTINUOUS
100
AcDbSpline
210
0.0
220
0.0
230
1.0
 70
     8
 71
     2
 72
     6
 73
     3
 74
     0
 42
0.0000001
 43
0.0000001
 40
0.0
 40
0.0
 40
0.0
 40
1.0
 40
1.0
 40
1.0
 10
185.10046005953211
 20
149.32847912016675
 30
0.0
 10
185.02521657927073
 20
149.4348191333159
 30
0.0
 10
185.02331865802654
 20
149.5637276249779
 30
0.0
  0
SPLINE
  5
121
102
{ACAD_REACTORS
330
31
102
}
100
AcDbEntity
  8
0
  6
CONTINUOUS
100
AcDbSpline
210
0.0
220
0.0
230
1.0
 70
     8
 71
     2
 72
     6
 73
     3
 74
     0
 42
0.0000001
 43
0.0000001
 40
0.0
 40
0.0
 40
0.0
 40
1.0
 40
1.0
 40
1.0
 10
185.02331865802654
 20
149.5637276249779
 30
0.0
 10
185.02057724742815
 20
149.74992666055419
 30
0.0
 10
185.1364226939869
 20
149.94401398004476
 30
0.0
  0
LINE
  5
122
102
{ACAD_REACTORS
330
31
102
}
100
AcDbEntity
  8
0
  6
CONTINUOUS
100
AcDbLine
 10
185.136423
 20
149.944014
 30
0.0
 11
185.48
 21
149.822182
 31
0.0
  0
SPLINE
  5
123
102
{ACAD_REACTORS
330
31
102
}
100
AcDbEntity
  8
0
  6
CONTINUOUS
100
AcDbSpline
210
0.0
220
0.0
230
1.0
 70
     8
 71
     2
 72
     6
 73
     3
 74
     0
 42
0.0000001
 43
0.0000001
 40
0.0
 40
0.0
 40
0.0
 40
1.0
 40
1.0
 40
1.0
 10
185.47999967804847
 20
149.82218188636685
 30
0.0
 10
185.40218776041013
 20
149.68596226647782
 30
0.0
 10
185.40417609562635
 20
149.55091277776512
 30
0.0
  0
SPLINE
  5
124
102
{ACAD_REACTORS
330
31
102
}
100
AcDbEntity
  8
0
  6
CONTINUOUS
100
AcDbSpline
210
0.0
220
0.0
230
1.0
 70
     8
 71
     2
 72
     6
 73
     3
 74
     0
 42
0.0000001
 43
0.0000001
 40
0.0
 40
0.0
 40
0.0
 40
1.0
 40
1.0
 40
1.0
 10
185.40417609562638
 20
149.55091277776509
 30
0.0
 10
185.40595348830686
 20
149.43019069288579
 30
0.0
 10
185.48000823016162
 20
149.33509252336154
 30
0.0
  0
SPLINE
  5
125
102
{ACAD_REACTORS
330
31
102
}
100
AcDbEntity
  8
0
  6
CONTINUOUS
100
AcDbSpline
210
0.0
220
0.0
230
1.0
 70
     8
 71
     2
 72
     6
 73
     3
 74
     0
 42
0.0000001
 43
0.0000001
 40
0.0
 40
0.0
 40
0.0
 40
1.0
 40
1.0
 40
1.0
 10
185.48000823016162
 20
149.33509252336154
 30
0.0
 10
185.55406304221356
 20
149.23998958598244
 30
0.0
 10
185.68357344031776
 20
149.20096500024829
 30
0.0
  0
SPLINE
  5
126
102
{ACAD_REACTORS
330
31
102
}
100
AcDbEntity
  8
0
  6
CONTINUOUS
100
AcDbSpline
210
0.0
220
0.0
230
1.0
 70
     8
 71
     2
 72
     6
 73
     3
 74
     0
 42
0.0000001
 43
0.0000001
 40
0.0
 40
0.0
 40
0.0
 40
1.0
 40
1.0
 40
1.0
 10
185.68357344031776
 20
149.20096500024829
 30
0.0
 10
185.88090927310705
 20
149.14247094031828
 30
0.0
 10
186.11417180393784
 20
149.14590526731286
 30
0.0
  0
LINE
  5
127
102
{ACAD_REACTORS
330
31
102
}
100
AcDbEntity
  8
0
  6
CONTINUOUS
100
AcDbLine
 10
186.114172
 20
149.145905
 30
0.0
 11
187.251838
 21
149.162655
 31
0.0
  0
LINE
  5
128
102
{ACAD_REACTORS
330
31
102
}
100
AcDbEntity
  8
0
  6
CONTINUOUS
100
AcDbLine
 10
187.251838
 20
149.162655
 30
0.0
 11
187.257261
 21
148.794348
 31
0.0
  0
LWPOLYLINE
  5
129
102
{ACAD_REACTORS
330
31
102
}
100
AcDbEntity
  8
0
  6
CONTINUOUS
100
AcDbPolyline
 90
        9
 70
     0
 10
189.593291
 20
128.44147
 10
192.238979
 20
128.480423
 10
192.233135
 20
128.877378
 10
189.587446
 20
128.838425
 10
189.572835
 20
129.830815
 10
189.218849
 20
129.825603
 10
189.253855
 20
127.447962
 10
189.607841
 20
127.453173
 10
189.593291
 20
128.44147
  0
LINE
  5
12A
102
{ACAD_REACTORS
330
31
102
}
100
AcDbEntity
  8
0
  6
CONTINUOUS
100
AcDbLine
 10
192.213222
 20
130.229892
 30
0.0
 11
189.213547
 21
130.185728
 31
0.0
  0
LINE
  5
12B
102
{ACAD_REACTORS
330
31
102
}
100
AcDbEntity
  8
0
  6
CONTINUOUS
100
AcDbLine
 10
189.213547
 20
130.185728
 30
0.0
 11
189.208124
 21
130.554036
 31
0.0
  0
LINE
  5
12C
102
{ACAD_REACTORS
330
31
102
}
100
AcDbEntity
  8
0
  6
CONTINUOUS
100
AcDbLine
 10
189.208124
 20
130.554036
 30
0.0
 11
190.284406
 21
130.569882
 31
0.0
  0
SPLINE
  5
12D
102
{ACAD_REACTORS
330
31
102
}
100
AcDbEntity
  8
0
  6
CONTINUOUS
100
AcDbSpline
210
0.0
220
0.0
230
1.0
 70
     8
 71
     2
 72
     6
 73
     3
 74
     0
 42
0.0000001
 43
0.0000001
 40
0.0
 40
0.0
 40
0.0
 40
1.0
 40
1.0
 40
1.0
 10
190.28440596919535
 20
130.56988228704631
 30
0.0
 10
189.98187064517921
 20
130.82330092545783
 30
0.0
 10
189.97608650257322
 20
131.21616501356715
 30
0.0
  0
SPLINE
  5
12E
102
{ACAD_REACTORS
330
31
102
}
100
AcDbEntity
  8
0
  6
CONTINUOUS
100
AcDbSpline
210
0.0
220
0.0
230
1.0
 70
     8
 71
     2
 72
     6
 73
     3
 74
     0
 42
0.0000001
 43
0.0000001
 40
0.0
 40
0.0
 40
0.0
 40
1.0
 40
1.0
 40
1.0
 10
189.97608650257322
 20
131.21616501356712
 30
0.0
 10
189.97253168211364
 20
131.45761156725317
 30
0.0
 10
190.06505686691486
 20
131.63702860937806
 30
0.0
  0
SPLINE
  5
12F
102
{ACAD_REACTORS
330
31
102
}
100
AcDbEntity
  8
0
  6
CONTINUOUS
100
AcDbSpline
210
0.0
220
0.0
230
1.0
 70
     8
 71
     2
 72
     6
 73
     3
 74
     0
 42
0.0000001
 43
0.0000001
 40
0.0
 40
0.0
 40
0.0
 40
1.0
 40
1.0
 40
1.0
 10
190.06505686691486
 20
131.63702860937804
 30
0.0
 10
190.15758264769792
 20
131.81644566027757
 30
0.0
 10
190.32423791348083
 20
131.8956474326572
 30
0.0
  0
SPLINE
  5
130
102
{ACAD_REACTORS
330
31
102
}
100
AcDbEntity
  8
0
  6
CONTINUOUS
100
AcDbSpline
210
0.0
220
0.0
230
1.0
 70
     8
 71
     2
 72
     6
 73
     3
 74
     0
 42
0.0000001
 43
0.0000001
 40
0.0
 40
0.0
 40
0.0
 40
1.0
 40
1.0
 40
1.0
 10
190.32423791348083
 20
131.8956474326572
 30
0.0
 10
190.49089377524561
 20
131.97484921381147
 30
0.0
 10
190.81009569783896
 20
131.9795488274853
 30
0.0
  0
LINE
  5
131
102
{ACAD_REACTORS
330
31
102
}
100
AcDbEntity
  8
0
  6
CONTINUOUS
100
AcDbLine
 10
190.810096
 20
131.979549
 30
0.0
 11
192.187163
 21
131.999823
 31
0.0
  0
LINE
  5
132
102
{ACAD_REACTORS
330
31
102
}
100
AcDbEntity
  8
0
  6
CONTINUOUS
100
AcDbLine
 10
192.187163
 20
131.999823
 30
0.0
 11
192.192586
 21
131.631514
 31
0.0
  0
LINE
  5
133
102
{ACAD_REACTORS
330
31
102
}
100
AcDbEntity
  8
0
  6
CONTINUOUS
100
AcDbLine
 10
192.192586
 20
131.631514
 30
0.0
 11
190.815518
 21
131.611239
 31
0.0
  0
SPLINE
  5
134
102
{ACAD_REACTORS
330
31
102
}
100
AcDbEntity
  8
0
  6
CONTINUOUS
100
AcDbSpline
210
0.0
220
0.0
230
1.0
 70
     8
 71
     2
 72
     6
 73
     3
 74
     0
 42
0.0000001
 43
0.0000001
 40
0.0
 40
0.0
 40
0.0
 40
1.0
 40
1.0
 40
1.0
 10
190.81551832495111
 20
131.61123919186923
 30
0.0
 10
190.53928609823905
 20
131.60717222153502
 30
0.0
 10
190.41520928362198
 20
131.4856177257868
 30
0.0
  0
SPLINE
  5
135
102
{ACAD_REACTORS
330
31
102
}
100
AcDbEntity
  8
0
  6
CONTINUOUS
100
AcDbSpline
210
0.0
220
0.0
230
1.0
 70
     8
 71
     2
 72
     6
 73
     3
 74
     0
 42
0.0000001
 43
0.0000001
 40
0.0
 40
0.0
 40
0.0
 40
1.0
 40
1.0
 40
1.0
 10
190.41520928362198
 20
131.48561772578677
 30
0.0
 10
190.29113243390631
 20
131.36406561396592
 30
0.0
 10
190.29435588856225
 20
131.14512571911371
 30
0.0
  0
SPLINE
  5
136
102
{ACAD_REACTORS
330
31
102
}
100
AcDbEntity
  8
0
  6
CONTINUOUS
100
AcDbSpline
210
0.0
220
0.0
230
1.0
 70
     8
 71
     2
 72
     6
 73
     3
 74
     0
 42
0.0000001
 43
0.0000001
 40
0.0
 40
0.0
 40
0.0
 40
1.0
 40
1.0
 40
1.0
 10
190.29435588856225
 20
131.14512571911374
 30
0.0
 10
190.29676593335699
 20
130.9814333423713
 30
0.0
 10
190.3838058926996
 20
130.83842853850982
 30
0.0
  0
SPLINE
  5
137
102
{ACAD_REACTORS
330
31
102
}
100
AcDbEntity
  8
0
  6
CONTINUOUS
100
AcDbSpline
210
0.0
220
0.0
230
1.0
 70
     8
 71
     2
 72
     6
 73
     3
 74
     0
 42
0.0000001
 43
0.0000001
 40
0.0
 40
0.0
 40
0.0
 40
1.0
 40
1.0
 40
1.0
 10
190.38380589269957
 20
130.83842853850982
 30
0.0
 10
190.4708452560603
 20
130.6954237258737
 30
0.0
 10
190.61702673903261
 20
130.63617890429177
 30
0.0
  0
SPLINE
  5
138
102
{ACAD_REACTORS
330
31
102
}
100
AcDbEntity
  8
0
  6
CONTINUOUS
100
AcDbSpline
210
0.0
220
0.0
230
1.0
 70
     8
 71
     2
 72
     6
 73
     3
 74
     0
 42
0.0000001
 43
0.0000001
 40
0.0
 40
0.0
 40
0.0
 40
1.0
 40
1.0
 40
1.0
 10
190.61702673903261
 20
130.63617890429174
 30
0.0
 10
190.76320825710349
 20
130.57693169878237
 30
0.0
 10
191.01897863873182
 20
130.58069740912993
 30
0.0
  0
LINE
  5
139
102
{ACAD_REACTORS
330
31
102
}
100
AcDbEntity
  8
0
  6
CONTINUOUS
100
AcDbLine
 10
191.018979
 20
130.580697
 30
0.0
 11
192.207799
 21
130.5982
 31
0.0
  0
LINE
  5
13A
102
{ACAD_REACTORS
330
31
102
}
100
AcDbEntity
  8
0
  6
CONTINUOUS
100
AcDbLine
 10
192.207799
 20
130.5982
 30
0.0
 11
192.213222
 21
130.229892
 31
0.0
  0
LWPOLYLINE
  5
13B
102
{ACAD_REACTORS
330
31
102
}
100
AcDbEntity
  8
0
  6
CONTINUOUS
100
AcDbPolyline
 90
        5
 70
     0
 10
189.179203
 20
132.518354
 10
189.602759
 20
132.52459
 10
189.597336
 20
132.892899
 10
189.173781
 20
132.886663
 10
189.179203
 20
132.518354
  0
LWPOLYLINE
  5
13C
102
{ACAD_REACTORS
330
31
102
}
100
AcDbEntity
  8
0
  6
CONTINUOUS
100
AcDbPolyline
 90
        5
 70
     0
 10
190.005854
 20
132.530525
 10
192.178878
 20
132.562518
 10
192.173456
 20
132.930827
 10
190.000431
 20
132.898833
 10
190.005854
 20
132.530525
  0
LINE
  5
13D
102
{ACAD_REACTORS
330
31
102
}
100
AcDbEntity
  8
0
  6
CONTINUOUS
100
AcDbLine
 10
191.518737
 20
133.334602
 30
0.0
 11
191.456082
 21
133.697977
 31
0.0
  0
SPLINE
  5
13E
102
{ACAD_REACTORS
330
31
102
}
100
AcDbEntity
  8
0
  6
CONTINUOUS
100
AcDbSpline
210
0.0
220
0.0
230
1.0
 70
     8
 71
     2
 72
     6
 73
     3
 74
     0
 42
0.0000001
 43
0.0000001
 40
0.0
 40
0.0
 40
0.0
 40
1.0
 40
1.0
 40
1.0
 10
191.45608187637575
 20
133.69797652926968
 30
0.0
 10
191.67456929842805
 20
133.73189184880388
 30
0.0
 10
191.78913695969746
 20
133.87377083338009
 30
0.0
  0
SPLINE
  5
13F
102
{ACAD_REACTORS
330
31
102
}
100
AcDbEntity
  8
0
  6
CONTINUOUS
100
AcDbSpline
210
0.0
220
0.0
230
1.0
 70
     8
 71
     2
 72
     6
 73
     3
 74
     0
 42
0.0000001
 43
0.0000001
 40
0.0
 40
0.0
 40
0.0
 40
1.0
 40
1.0
 40
1.0
 10
191.78913695969746
 20
133.87377083338006
 30
0.0
 10
191.90370460341754
 20
134.01565100991999
 30
0.0
 10
191.89999915735194
 20
134.26732818815697
 30
0.0
  0
SPLINE
  5
140
102
{ACAD_REACTORS
330
31
102
}
100
AcDbEntity
  8
0
  6
CONTINUOUS
100
AcDbSpline
210
0.0
220
0.0
230
1.0
 70
     8
 71
     2
 72
     6
 73
     3
 74
     0
 42
0.0000001
 43
0.0000001
 40
0.0
 40
0.0
 40
0.0
 40
1.0
 40
1.0
 40
1.0
 10
191.89999915735194
 20
134.26732818815697
 30
0.0
 10
191.89626356159613
 20
134.52105316005336
 30
0.0
 10
191.79112468492264
 20
134.64230169013751
 30
0.0
  0
SPLINE
  5
141
102
{ACAD_REACTORS
330
31
102
}
100
AcDbEntity
  8
0
  6
CONTINUOUS
100
AcDbSpline
210
0.0
220
0.0
230
1.0
 70
     8
 71
     2
 72
     6
 73
     3
 74
     0
 42
0.0000001
 43
0.0000001
 40
0.0
 40
0.0
 40
0.0
 40
1.0
 40
1.0
 40
1.0
 10
191.79112468492264
 20
134.64230169013749
 30
0.0
 10
191.68598640423096
 20
134.76355022899628
 30
0.0
 10
191.54684728801803
 20
134.76150168214605
 30
0.0
  0
SPLINE
  5
142
102
{ACAD_REACTORS
330
31
102
}
100
AcDbEntity
  8
0
  6
CONTINUOUS
100
AcDbSpline
210
0.0
220
0.0
230
1.0
 70
     8
 71
     2
 72
     6
 73
     3
 74
     0
 42
0.0000001
 43
0.0000001
 40
0.0
 40
0.0
 40
0.0
 40
1.0
 40
1.0
 40
1.0
 10
191.54684728801803
 20
134.76150168214608
 30
0.0
 10
191.42203140376552
 20
134.75966401640903
 30
0.0
 10
191.35201191399554
 20
134.65016236828288
 30
0.0
  0
SPLINE
  5
143
102
{ACAD_REACTORS
330
31
102
}
100
AcDbEntity
  8
0
  6
CONTINUOUS
100
AcDbSpline
210
0.0
220
0.0
230
1.0
 70
     8
 71
     2
 72
     6
 73
     3
 74
     0
 42
0.0000001
 43
0.0000001
 40
0.0
 40
0.0
 40
0.0
 40
1.0
 40
1.0
 40
1.0
 10
191.35201191399554
 20
134.65016236828288
 30
0.0
 10
191.30401886204601
 20
134.57373058763281
 30
0.0
 10
191.23273915032027
 20
134.2718310440745
 30
0.0
  0
SPLINE
  5
144
102
{ACAD_REACTORS
330
31
102
}
100
AcDbEntity
  8
0
  6
CONTINUOUS
100
AcDbSpline
210
0.0
220
0.0
230
1.0
 70
     8
 71
     2
 72
     6
 73
     3
 74
     0
 42
0.0000001
 43
0.0000001
 40
0.0
 40
0.0
 40
0.0
 40
1.0
 40
1.0
 40
1.0
 10
191.23273915032024
 20
134.2718310440745
 30
0.0
 10
191.13639601721823
 20
133.86518344733452
 30
0.0
 10
191.06401575546175
 20
133.70755280235321
 30
0.0
  0
SPLINE
  5
145
102
{ACAD_REACTORS
330
31
102
}
100
AcDbEntity
  8
0
  6
CONTINUOUS
100
AcDbSpline
210
0.0
220
0.0
230
1.0
 70
     8
 71
     2
 72
     6
 73
     3
 74
     0
 42
0.0000001
 43
0.0000001
 40
0.0
 40
0.0
 40
0.0
 40
1.0
 40
1.0
 40
1.0
 10
191.06401575546175
 20
133.70755280235323
 30
0.0
 10
190.9916354937053
 20
133.54992215737192
 30
0.0
 10
190.8608476605832
 20
133.46715556318571
 30
0.0
  0
SPLINE
  5
146
102
{ACAD_REACTORS
330
31
102
}
100
AcDbEntity
  8
0
  6
CONTINUOUS
100
AcDbSpline
210
0.0
220
0.0
230
1.0
 70
     8
 71
     2
 72
     6
 73
     3
 74
     0
 42
0.0000001
 43
0.0000001
 40
0.0
 40
0.0
 40
0.0
 40
1.0
 40
1.0
 40
1.0
 10
190.8608476605832
 20
133.46715556318571
 30
0.0
 10
190.73006042344298
 20
133.38438897777414
 30
0.0
 10
190.57045946214632
 20
133.38203917093722
 30
0.0
  0
SPLINE
  5
147
102
{ACAD_REACTORS
330
31
102
}
100
AcDbEntity
  8
0
  6
CONTINUOUS
100
AcDbSpline
210
0.0
220
0.0
230
1.0
 70
     8
 71
     2
 72
     6
 73
     3
 74
     0
 42
0.0000001
 43
0.0000001
 40
0.0
 40
0.0
 40
0.0
 40
1.0
 40
1.0
 40
1.0
 10
190.57045946214632
 20
133.38203917093725
 30
0.0
 10
190.42518173281007
 20
133.37990024521355
 30
0.0
 10
190.30041007419169
 20
133.44457730110994
 30
0.0
  0
SPLINE
  5
148
102
{ACAD_REACTORS
330
31
102
}
100
AcDbEntity
  8
0
  6
CONTINUOUS
100
AcDbSpline
210
0.0
220
0.0
230
1.0
 70
     8
 71
     2
 72
     6
 73
     3
 74
     0
 42
0.0000001
 43
0.0000001
 40
0.0
 40
0.0
 40
0.0
 40
1.0
 40
1.0
 40
1.0
 10
190.30041007419166
 20
133.44457730110994
 30
0.0
 10
190.17563839802398
 20
133.50925554897006
 30
0.0
 10
190.09210458231456
 20
133.62263518151772
 30
0.0
  0
SPLINE
  5
149
102
{ACAD_REACTORS
330
31
102
}
100
AcDbEntity
  8
0
  6
CONTINUOUS
100
AcDbSpline
210
0.0
220
0.0
230
1.0
 70
     8
 71
     2
 72
     6
 73
     3
 74
     0
 42
0.0000001
 43
0.0000001
 40
0.0
 40
0.0
 40
0.0
 40
1.0
 40
1.0
 40
1.0
 10
190.09210458231459
 20
133.62263518151772
 30
0.0
 10
190.02740835065219
 20
133.70764067872864
 30
0.0
 10
189.98123123876269
 20
133.85534000521645
 30
0.0
  0
SPLINE
  5
14A
102
{ACAD_REACTORS
330
31
102
}
100
AcDbEntity
  8
0
  6
CONTINUOUS
100
AcDbSpline
210
0.0
220
0.0
230
1.0
 70
     8
 71
     2
 72
     6
 73
     3
 74
     0
 42
0.0000001
 43
0.0000001
 40
0.0
 40
0.0
 40
0.0
 40
1.0
 40
1.0
 40
1.0
 10
189.98123123876272
 20
133.85534000521648
 30
0.0
 10
189.93505474040435
 20
134.0030381485152
 30
0.0
 10
189.93255429918685
 20
134.17287033034469
 30
0.0
  0
SPLINE
  5
14B
102
{ACAD_REACTORS
330
31
102
}
100
AcDbEntity
  8
0
  6
CONTINUOUS
100
AcDbSpline
210
0.0
220
0.0
230
1.0
 70
     8
 71
     2
 72
     6
 73
     3
 74
     0
 42
0.0000001
 43
0.0000001
 40
0.0
 40
0.0
 40
0.0
 40
1.0
 40
1.0
 40
1.0
 10
189.93255429918682
 20
134.17287033034467
 30
0.0
 10
189.92878858883938
 20
134.428640711973
 30
0.0
 10
189.99960387248908
 20
134.6230879783983
 30
0.0
  0
SPLINE
  5
14C
102
{ACAD_REACTORS
330
31
102
}
100
AcDbEntity
  8
0
  6
CONTINUOUS
100
AcDbSpline
210
0.0
220
0.0
230
1.0
 70
     8
 71
     2
 72
     6
 73
     3
 74
     0
 42
0.0000001
 43
0.0000001
 40
0.0
 40
0.0
 40
0.0
 40
1.0
 40
1.0
 40
1.0
 10
189.99960387248908
 20
134.62308797839833
 30
0.0
 10
190.0704185601569
 20
134.817535236049
 30
0.0
 10
190.19490209725387
 20
134.91146478077866
 30
0.0
  0
SPLINE
  5
14D
102
{ACAD_REACTORS
330
31
102
}
100
AcDbEntity
  8
0
  6
CONTINUOUS
100
AcDbSpline
210
0.0
220
0.0
230
1.0
 70
     8
 71
     2
 72
     6
 73
     3
 74
     0
 42
0.0000001
 43
0.0000001
 40
0.0
 40
0.0
 40
0.0
 40
1.0
 40
1.0
 40
1.0
 10
190.19490209725387
 20
134.91146478077866
 30
0.0
 10
190.31938563435082
 20
135.00539432550829
 30
0.0
 10
190.52962817328418
 20
135.04328234619408
 30
0.0
  0
LINE
  5
14E
102
{ACAD_REACTORS
330
31
102
}
100
AcDbEntity
  8
0
  6
CONTINUOUS
100
AcDbLine
 10
190.529628
 20
135.043282
 30
0.0
 11
190.584038
 21
134.683881
 31
0.0
  0
SPLINE
  5
14F
102
{ACAD_REACTORS
330
31
102
}
100
AcDbEntity
  8
0
  6
CONTINUOUS
100
AcDbSpline
210
0.0
220
0.0
230
1.0
 70
     8
 71
     2
 72
     6
 73
     3
 74
     0
 42
0.0000001
 43
0.0000001
 40
0.0
 40
0.0
 40
0.0
 40
1.0
 40
1.0
 40
1.0
 10
190.58403800240467
 20
134.68388093883542
 30
0.0
 10
190.41661453374661
 20
134.65685618604019
 30
0.0
 10
190.32422274393997
 20
134.53781642683984
 30
0.0
  0
SPLINE
  5
150
102
{ACAD_REACTORS
330
31
102
}
100
AcDbEntity
  8
0
  6
CONTINUOUS
100
AcDbSpline
210
0.0
220
0.0
230
1.0
 70
     8
 71
     2
 72
     6
 73
     3
 74
     0
 42
0.0000001
 43
0.0000001
 40
0.0
 40
0.0
 40
0.0
 40
1.0
 40
1.0
 40
1.0
 10
190.32422274393997
 20
134.53781642683984
 30
0.0
 10
190.2318315501152
 20
134.41877667641413
 30
0.0
 10
190.2349947580386
 20
134.20392879298956
 30
0.0
  0
SPLINE
  5
151
102
{ACAD_REACTORS
330
31
102
}
100
AcDbEntity
  8
0
  6
CONTINUOUS
100
AcDbSpline
210
0.0
220
0.0
230
1.0
 70
     8
 71
     2
 72
     6
 73
     3
 74
     0
 42
0.0000001
 43
0.0000001
 40
0.0
 40
0.0
 40
0.0
 40
1.0
 40
1.0
 40
1.0
 10
190.2349947580386
 20
134.20392879298956
 30
0.0
 10
190.23873033624511
 20
133.95020501305692
 30
0.0
 10
190.32421977879486
 20
133.84299411699882
 30
0.0
  0
SPLINE
  5
152
102
{ACAD_REACTORS
330
31
102
}
100
AcDbEntity
  8
0
  6
CONTINUOUS
100
AcDbSpline
210
0.0
220
0.0
230
1.0
 70
     8
 71
     2
 72
     6
 73
     3
 74
     0
 42
0.0000001
 43
0.0000001
 40
0.0
 40
0.0
 40
0.0
 40
1.0
 40
1.0
 40
1.0
 10
190.32421977879483
 20
133.8429941169988
 30
0.0
 10
190.4097092388939
 20
133.73578202897701
 30
0.0
 10
190.52224849288166
 20
133.73743894574176
 30
0.0
  0
SPLINE
  5
153
102
{ACAD_REACTORS
330
31
102
}
100
AcDbEntity
  8
0
  6
CONTINUOUS
100
AcDbSpline
210
0.0
220
0.0
230
1.0
 70
     8
 71
     2
 72
     6
 73
     3
 74
     0
 42
0.0000001
 43
0.0000001
 40
0.0
 40
0.0
 40
0.0
 40
1.0
 40
1.0
 40
1.0
 10
190.52224849288169
 20
133.73743894574176
 30
0.0
 10
190.59386405670196
 20
133.73849334253316
 30
0.0
 10
190.65049362185593
 20
133.78435255980645
 30
0.0
  0
SPLINE
  5
154
102
{ACAD_REACTORS
330
31
102
}
100
AcDbEntity
  8
0
  6
CONTINUOUS
100
AcDbSpline
210
0.0
220
0.0
230
1.0
 70
     8
 71
     2
 72
     6
 73
     3
 74
     0
 42
0.0000001
 43
0.0000001
 40
0.0
 40
0.0
 40
0.0
 40
1.0
 40
1.0
 40
1.0
 10
190.65049362185593
 20
133.78435255980645
 30
0.0
 10
190.70916978870559
 20
133.83024190922063
 30
0.0
 10
190.74663096489215
 20
133.92698431336657
 30
0.0
  0
SPLINE
  5
155
102
{ACAD_REACTORS
330
31
102
}
100
AcDbEntity
  8
0
  6
CONTINUOUS
100
AcDbSpline
210
0.0
220
0.0
230
1.0
 70
     8
 71
     2
 72
     6
 73
     3
 74
     0
 42
0.0000001
 43
0.0000001
 40
0.0
 40
0.0
 40
0.0
 40
1.0
 40
1.0
 40
1.0
 10
190.74663096489215
 20
133.92698431336657
 30
0.0
 10
190.76627883923143
 20
133.98253069876094
 30
0.0
 10
190.83596440451211
 20
134.25370943726386
 30
0.0
  0
SPLINE
  5
156
102
{ACAD_REACTORS
330
31
102
}
100
AcDbEntity
  8
0
  6
CONTINUOUS
100
AcDbSpline
210
0.0
220
0.0
230
1.0
 70
     8
 71
     2
 72
     6
 73
     3
 74
     0
 42
0.0000001
 43
0.0000001
 40
0.0
 40
0.0
 40
0.0
 40
1.0
 40
1.0
 40
1.0
 10
190.83596440451211
 20
134.25370943726386
 30
0.0
 10
190.93456504674697
 20
134.64606214623876
 30
0.0
 10
190.99879080425791
 20
134.80152687924837
 30
0.0
  0
SPLINE
  5
157
102
{ACAD_REACTORS
330
31
102
}
100
AcDbEntity
  8
0
  6
CONTINUOUS
100
AcDbSpline
210
0.0
220
0.0
230
1.0
 70
     8
 71
     2
 72
     6
 73
     3
 74
     0
 42
0.0000001
 43
0.0000001
 40
0.0
 40
0.0
 40
0.0
 40
1.0
 40
1.0
 40
1.0
 10
190.99879080425791
 20
134.80152687924837
 30
0.0
 10
191.06301656176888
 20
134.95699161225795
 30
0.0
 10
191.18858305046436
 20
135.04684420285579
 30
0.0
  0
SPLINE
  5
158
102
{ACAD_REACTORS
330
31
102
}
100
AcDbEntity
  8
0
  6
CONTINUOUS
100
AcDbSpline
210
0.0
220
0.0
230
1.0
 70
     8
 71
     2
 72
     6
 73
     3
 74
     0
 42
0.0000001
 43
0.0000001
 40
0.0
 40
0.0
 40
0.0
 40
1.0
 40
1.0
 40
1.0
 10
191.18858305046436
 20
135.04684420285582
 30
0.0
 10
191.31414953915984
 20
135.13669679345364
 30
0.0
 10
191.50239696437737
 20
135.13946836251696
 30
0.0
  0
SPLINE
  5
159
102
{ACAD_REACTORS
330
31
102
}
100
AcDbEntity
  8
0
  6
CONTINUOUS
100
AcDbSpline
210
0.0
220
0.0
230
1.0
 70
     8
 71
     2
 72
     6
 73
     3
 74
     0
 42
0.0000001
 43
0.0000001
 40
0.0
 40
0.0
 40
0.0
 40
1.0
 40
1.0
 40
1.0
 10
191.5023969643774
 20
135.13946836251694
 30
0.0
 10
191.68655118620356
 20
135.14217966729845
 30
0.0
 10
191.85080304924895
 20
135.03715131784165
 30
0.0
  0
SPLINE
  5
15A
102
{ACAD_REACTORS
330
31
102
}
100
AcDbEntity
  8
0
  6
CONTINUOUS
100
AcDbSpline
210
0.0
220
0.0
230
1.0
 70
     8
 71
     2
 72
     6
 73
     3
 74
     0
 42
0.0000001
 43
0.0000001
 40
0.0
 40
0.0
 40
0.0
 40
1.0
 40
1.0
 40
1.0
 10
191.85080304924895
 20
135.03715131784165
 30
0.0
 10
192.01505431631247
 20
134.93212295961021
 30
0.0
 10
192.10704485128201
 20
134.7308639617373
 30
0.0
  0
SPLINE
  5
15B
102
{ACAD_REACTORS
330
31
102
}
100
AcDbEntity
  8
0
  6
CONTINUOUS
100
AcDbSpline
210
0.0
220
0.0
230
1.0
 70
     8
 71
     2
 72
     6
 73
     3
 74
     0
 42
0.0000001
 43
0.0000001
 40
0.0
 40
0.0
 40
0.0
 40
1.0
 40
1.0
 40
1.0
 10
192.10704485128201
 20
134.7308639617373
 30
0.0
 10
192.19903540380085
 20
134.52960377190067
 30
0.0
 10
192.20280111414829
 20
134.27383339027233
 30
0.0
  0
SPLINE
  5
15C
102
{ACAD_REACTORS
330
31
102
}
100
AcDbEntity
  8
0
  6
CONTINUOUS
100
AcDbSpline
210
0.0
220
0.0
230
1.0
 70
     8
 71
     2
 72
     6
 73
     3
 74
     0
 42
0.0000001
 43
0.0000001
 40
0.0
 40
0.0
 40
0.0
 40
1.0
 40
1.0
 40
1.0
 10
192.20280111414829
 20
134.27383339027236
 30
0.0
 10
192.20903713357231
 20
133.85027742851025
 30
0.0
 10
192.03633617467591
 20
133.62567742455462
 30
0.0
  0
SPLINE
  5
15D
102
{ACAD_REACTORS
330
31
102
}
100
AcDbEntity
  8
0
  6
CONTINUOUS
100
AcDbSpline
210
0.0
220
0.0
230
1.0
 70
     8
 71
     2
 72
     6
 73
     3
 74
     0
 42
0.0000001
 43
0.0000001
 40
0.0
 40
0.0
 40
0.0
 40
1.0
 40
1.0
 40
1.0
 10
192.03633617467591
 20
133.6256774245546
 30
0.0
 10
191.86363460224837
 20
133.40107860378805
 30
0.0
 10
191.51873658861521
 20
133.33460242075938
 30
0.0
  0
LINE
  5
15E
102
{ACAD_REACTORS
330
31
102
}
100
AcDbEntity
  8
0
  6
CONTINUOUS
100
AcDbLine
 10
191.470746
 20
136.59414
 30
0.0
 11
191.408092
 21
136.957513
 31
0.0
  0
SPLINE
  5
15F
102
{ACAD_REACTORS
330
31
102
}
100
AcDbEntity
  8
0
  6
CONTINUOUS
100
AcDbSpline
210
0.0
220
0.0
230
1.0
 70
     8
 71
     2
 72
     6
 73
     3
 74
     0
 42
0.0000001
 43
0.0000001
 40
0.0
 40
0.0
 40
0.0
 40
1.0
 40
1.0
 40
1.0
 10
191.40809167732627
 20
136.95751334777728
 30
0.0
 10
191.62657908182928
 20
136.99142985927517
 30
0.0
 10
191.74114674309865
 20
137.13330884385138
 30
0.0
  0
SPLINE
  5
160
102
{ACAD_REACTORS
330
31
102
}
100
AcDbEntity
  8
0
  6
CONTINUOUS
100
AcDbSpline
210
0.0
220
0.0
230
1.0
 70
     8
 71
     2
 72
     6
 73
     3
 74
     0
 42
0.0000001
 43
0.0000001
 40
0.0
 40
0.0
 40
0.0
 40
1.0
 40
1.0
 40
1.0
 10
191.74114674309868
 20
137.13330884385138
 30
0.0
 10
191.85571440436806
 20
137.27518782842759
 30
0.0
 10
191.85200894075317
 20
137.52686619862828
 30
0.0
  0
SPLINE
  5
161
102
{ACAD_REACTORS
330
31
102
}
100
AcDbEntity
  8
0
  6
CONTINUOUS
100
AcDbSpline
210
0.0
220
0.0
230
1.0
 70
     8
 71
     2
 72
     6
 73
     3
 74
     0
 42
0.0000001
 43
0.0000001
 40
0.0
 40
0.0
 40
0.0
 40
1.0
 40
1.0
 40
1.0
 10
191.85200894075317
 20
137.52686619862828
 30
0.0
 10
191.84827336254665
 20
137.78058997856093
 30
0.0
 10
191.74313448587313
 20
137.90183850864508
 30
0.0
  0
SPLINE
  5
162
102
{ACAD_REACTORS
330
31
102
}
100
AcDbEntity
  8
0
  6
CONTINUOUS
100
AcDbSpline
210
0.0
220
0.0
230
1.0
 70
     8
 71
     2
 72
     6
 73
     3
 74
     0
 42
0.0000001
 43
0.0000001
 40
0.0
 40
0.0
 40
0.0
 40
1.0
 40
1.0
 40
1.0
 10
191.74313448587313
 20
137.90183850864508
 30
0.0
 10
191.63799620518148
 20
138.02308704750391
 30
0.0
 10
191.49885708896855
 20
138.02103850065367
 30
0.0
  0
SPLINE
  5
163
102
{ACAD_REACTORS
330
31
102
}
100
AcDbEntity
  8
0
  6
CONTINUOUS
100
AcDbSpline
210
0.0
220
0.0
230
1.0
 70
     8
 71
     2
 72
     6
 73
     3
 74
     0
 42
0.0000001
 43
0.0000001
 40
0.0
 40
0.0
 40
0.0
 40
1.0
 40
1.0
 40
1.0
 10
191.49885708896855
 20
138.02103850065367
 30
0.0
 10
191.37404120471604
 20
138.01920083491663
 30
0.0
 10
191.30402167984747
 20
137.90970157071791
 30
0.0
  0
SPLINE
  5
164
102
{ACAD_REACTORS
330
31
102
}
100
AcDbEntity
  8
0
  6
CONTINUOUS
100
AcDbSpline
210
0.0
220
0.0
230
1.0
 70
     8
 71
     2
 72
     6
 73
     3
 74
     0
 42
0.0000001
 43
0.0000001
 40
0.0
 40
0.0
 40
0.0
 40
1.0
 40
1.0
 40
1.0
 10
191.30402167984744
 20
137.90970157071791
 30
0.0
 10
191.25602862789793
 20
137.83326979006785
 30
0.0
 10
191.18474895127076
 20
137.5313678625821
 30
0.0
  0
SPLINE
  5
165
102
{ACAD_REACTORS
330
31
102
}
100
AcDbEntity
  8
0
  6
CONTINUOUS
100
AcDbSpline
210
0.0
220
0.0
230
1.0
 70
     8
 71
     2
 72
     6
 73
     3
 74
     0
 42
0.0000001
 43
0.0000001
 40
0.0
 40
0.0
 40
0.0
 40
1.0
 40
1.0
 40
1.0
 10
191.18474895127076
 20
137.5313678625821
 30
0.0
 10
191.08840580061946
 20
137.1247214578058
 30
0.0
 10
191.01602555641227
 20
136.9670896208608
 30
0.0
  0
SPLINE
  5
166
102
{ACAD_REACTORS
330
31
102
}
100
AcDbEntity
  8
0
  6
CONTINUOUS
100
AcDbSpline
210
0.0
220
0.0
230
1.0
 70
     8
 71
     2
 72
     6
 73
     3
 74
     0
 42
0.0000001
 43
0.0000001
 40
0.0
 40
0.0
 40
0.0
 40
1.0
 40
1.0
 40
1.0
 10
191.01602555641227
 20
136.9670896208608
 30
0.0
 10
190.94364529465582
 20
136.80945897587952
 30
0.0
 10
190.81285744398443
 20
136.72669357365703
 30
0.0
  0
SPLINE
  5
167
102
{ACAD_REACTORS
330
31
102
}
100
AcDbEntity
  8
0
  6
CONTINUOUS
100
AcDbSpline
210
0.0
220
0.0
230
1.0
 70
     8
 71
     2
 72
     6
 73
     3
 74
     0
 42
0.0000001
 43
0.0000001
 40
0.0
 40
0.0
 40
0.0
 40
1.0
 40
1.0
 40
1.0
 10
190.81285744398443
 20
136.72669357365703
 30
0.0
 10
190.6820702243935
 20
136.64392579628174
 30
0.0
 10
190.52246926309684
 20
136.64157598944485
 30
0.0
  0
SPLINE
  5
168
102
{ACAD_REACTORS
330
31
102
}
100
AcDbEntity
  8
0
  6
CONTINUOUS
100
AcDbSpline
210
0.0
220
0.0
230
1.0
 70
     8
 71
     2
 72
     6
 73
     3
 74
     0
 42
0.0000001
 43
0.0000001
 40
0.0
 40
0.0
 40
0.0
 40
1.0
 40
1.0
 40
1.0
 10
190.52246926309684
 20
136.64157598944485
 30
0.0
 10
190.37719153376057
 20
136.63943706372115
 30
0.0
 10
190.25241985759288
 20
136.70411531158123
 30
0.0
  0
SPLINE
  5
169
102
{ACAD_REACTORS
330
31
102
}
100
AcDbEntity
  8
0
  6
CONTINUOUS
100
AcDbSpline
210
0.0
220
0.0
230
1.0
 70
     8
 71
     2
 72
     6
 73
     3
 74
     0
 42
0.0000001
 43
0.0000001
 40
0.0
 40
0.0
 40
0.0
 40
1.0
 40
1.0
 40
1.0
 10
190.25241985759288
 20
136.70411531158126
 30
0.0
 10
190.12764818142523
 20
136.76879355944138
 30
0.0
 10
190.04411436571581
 20
136.88217319198904
 30
0.0
  0
SPLINE
  5
16A
102
{ACAD_REACTORS
330
31
102
}
100
AcDbEntity
  8
0
  6
CONTINUOUS
100
AcDbSpline
210
0.0
220
0.0
230
1.0
 70
     8
 71
     2
 72
     6
 73
     3
 74
     0
 42
0.0000001
 43
0.0000001
 40
0.0
 40
0.0
 40
0.0
 40
1.0
 40
1.0
 40
1.0
 10
190.04411436571579
 20
136.88217319198901
 30
0.0
 10
189.97941813405342
 20
136.96717868919993
 30
0.0
 10
189.93324102216391
 20
137.11487801568774
 30
0.0
  0
SPLINE
  5
16B
102
{ACAD_REACTORS
330
31
102
}
100
AcDbEntity
  8
0
  6
CONTINUOUS
100
AcDbSpline
210
0.0
220
0.0
230
1.0
 70
     8
 71
     2
 72
     6
 73
     3
 74
     0
 42
0.0000001
 43
0.0000001
 40
0.0
 40
0.0
 40
0.0
 40
1.0
 40
1.0
 40
1.0
 10
189.93324102216388
 20
137.11487801568776
 30
0.0
 10
189.88706452380555
 20
137.26257615898652
 30
0.0
 10
189.88456408258804
 20
137.43240834081598
 30
0.0
  0
SPLINE
  5
16C
102
{ACAD_REACTORS
330
31
102
}
100
AcDbEntity
  8
0
  6
CONTINUOUS
100
AcDbSpline
210
0.0
220
0.0
230
1.0
 70
     8
 71
     2
 72
     6
 73
     3
 74
     0
 42
0.0000001
 43
0.0000001
 40
0.0
 40
0.0
 40
0.0
 40
1.0
 40
1.0
 40
1.0
 10
189.88456408258804
 20
137.43240834081595
 30
0.0
 10
189.88079838978987
 20
137.68817753048057
 30
0.0
 10
189.95161367343957
 20
137.8826247969059
 30
0.0
  0
SPLINE
  5
16D
102
{ACAD_REACTORS
330
31
102
}
100
AcDbEntity
  8
0
  6
CONTINUOUS
100
AcDbSpline
210
0.0
220
0.0
230
1.0
 70
     8
 71
     2
 72
     6
 73
     3
 74
     0
 42
0.0000001
 43
0.0000001
 40
0.0
 40
0.0
 40
0.0
 40
1.0
 40
1.0
 40
1.0
 10
189.95161367343957
 20
137.8826247969059
 30
0.0
 10
190.02242836110742
 20
138.07707205455657
 30
0.0
 10
190.14691189820437
 20
138.17100159928623
 30
0.0
  0
SPLINE
  5
16E
102
{ACAD_REACTORS
330
31
102
}
100
AcDbEntity
  8
0
  6
CONTINUOUS
100
AcDbSpline
210
0.0
220
0.0
230
1.0
 70
     8
 71
     2
 72
     6
 73
     3
 74
     0
 42
0.0000001
 43
0.0000001
 40
0.0
 40
0.0
 40
0.0
 40
1.0
 40
1.0
 40
1.0
 10
190.14691189820437
 20
138.17100159928623
 30
0.0
 10
190.27139543530134
 20
138.26493114401592
 30
0.0
 10
190.4816379566854
 20
138.30282035666539
 30
0.0
  0
LINE
  5
16F
102
{ACAD_REACTORS
330
31
102
}
100
AcDbEntity
  8
0
  6
CONTINUOUS
100
AcDbLine
 10
190.481638
 20
138.30282
 30
0.0
 11
190.536048
 21
137.943418
 31
0.0
  0
SPLINE
  5
170
102
{ACAD_REACTORS
330
31
102
}
100
AcDbEntity
  8
0
  6
CONTINUOUS
100
AcDbSpline
210
0.0
220
0.0
230
1.0
 70
     8
 71
     2
 72
     6
 73
     3
 74
     0
 42
0.0000001
 43
0.0000001
 40
0.0
 40
0.0
 40
0.0
 40
1.0
 40
1.0
 40
1.0
 10
190.53604780335519
 20
137.94341775734301
 30
0.0
 10
190.3686243346971
 20
137.91639300454779
 30
0.0
 10
190.27623254489046
 20
137.79735324534744
 30
0.0
  0
SPLINE
  5
171
102
{ACAD_REACTORS
330
31
102
}
100
AcDbEntity
  8
0
  6
CONTINUOUS
100
AcDbSpline
210
0.0
220
0.0
230
1.0
 70
     8
 71
     2
 72
     6
 73
     3
 74
     0
 42
0.0000001
 43
0.0000001
 40
0.0
 40
0.0
 40
0.0
 40
1.0
 40
1.0
 40
1.0
 10
190.27623254489046
 20
137.79735324534741
 30
0.0
 10
190.18384135106569
 20
137.6783134949217
 30
0.0
 10
190.18700454143979
 20
137.46346680346085
 30
0.0
  0
SPLINE
  5
172
102
{ACAD_REACTORS
330
31
102
}
100
AcDbEntity
  8
0
  6
CONTINUOUS
100
AcDbSpline
210
0.0
220
0.0
230
1.0
 70
     8
 71
     2
 72
     6
 73
     3
 74
     0
 42
0.0000001
 43
0.0000001
 40
0.0
 40
0.0
 40
0.0
 40
1.0
 40
1.0
 40
1.0
 10
190.18700454143979
 20
137.46346680346085
 30
0.0
 10
190.19074011964631
 20
137.2097430235282
 30
0.0
 10
190.27622957974538
 20
137.10253093550642
 30
0.0
  0
SPLINE
  5
173
102
{ACAD_REACTORS
330
31
102
}
100
AcDbEntity
  8
0
  6
CONTINUOUS
100
AcDbSpline
210
0.0
220
0.0
230
1.0
 70
     8
 71
     2
 72
     6
 73
     3
 74
     0
 42
0.0000001
 43
0.0000001
 40
0.0
 40
0.0
 40
0.0
 40
1.0
 40
1.0
 40
1.0
 10
190.27622957974538
 20
137.10253093550639
 30
0.0
 10
190.36171903984442
 20
136.99531884748461
 30
0.0
 10
190.47425829383218
 20
136.99697576424936
 30
0.0
  0
SPLINE
  5
174
102
{ACAD_REACTORS
330
31
102
}
100
AcDbEntity
  8
0
  6
CONTINUOUS
100
AcDbSpline
210
0.0
220
0.0
230
1.0
 70
     8
 71
     2
 72
     6
 73
     3
 74
     0
 42
0.0000001
 43
0.0000001
 40
0.0
 40
0.0
 40
0.0
 40
1.0
 40
1.0
 40
1.0
 10
190.47425829383218
 20
136.99697576424933
 30
0.0
 10
190.54587385765245
 20
136.99803016104073
 30
0.0
 10
190.60250342280645
 20
137.04388937831402
 30
0.0
  0
SPLINE
  5
175
102
{ACAD_REACTORS
330
31
102
}
100
AcDbEntity
  8
0
  6
CONTINUOUS
100
AcDbSpline
210
0.0
220
0.0
230
1.0
 70
     8
 71
     2
 72
     6
 73
     3
 74
     0
 42
0.0000001
 43
0.0000001
 40
0.0
 40
0.0
 40
0.0
 40
1.0
 40
1.0
 40
1.0
 10
190.60250342280645
 20
137.04388937831402
 30
0.0
 10
190.66117958965611
 20
137.08977872772823
 30
0.0
 10
190.69864076584267
 20
137.18652113187414
 30
0.0
  0
SPLINE
  5
176
102
{ACAD_REACTORS
330
31
102
}
100
AcDbEntity
  8
0
  6
CONTINUOUS
100
AcDbSpline
210
0.0
220
0.0
230
1.0
 70
     8
 71
     2
 72
     6
 73
     3
 74
     0
 42
0.0000001
 43
0.0000001
 40
0.0
 40
0.0
 40
0.0
 40
1.0
 40
1.0
 40
1.0
 10
190.69864076584267
 20
137.18652113187417
 30
0.0
 10
190.71828862263266
 20
137.24206870923223
 30
0.0
 10
190.78797420546263
 20
137.51324625577146
 30
0.0
  0
SPLINE
  5
177
102
{ACAD_REACTORS
330
31
102
}
100
AcDbEntity
  8
0
  6
CONTINUOUS
100
AcDbSpline
210
0.0
220
0.0
230
1.0
 70
     8
 71
     2
 72
     6
 73
     3
 74
     0
 42
0.0000001
 43
0.0000001
 40
0.0
 40
0.0
 40
0.0
 40
1.0
 40
1.0
 40
1.0
 10
190.7879742054626
 20
137.51324625577143
 30
0.0
 10
190.88657481259887
 20
137.9056013486738
 30
0.0
 10
190.95080060520843
 20
138.06106369775597
 30
0.0
  0
SPLINE
  5
178
102
{ACAD_REACTORS
330
31
102
}
100
AcDbEntity
  8
0
  6
CONTINUOUS
100
AcDbSpline
210
0.0
220
0.0
230
1.0
 70
     8
 71
     2
 72
     6
 73
     3
 74
     0
 42
0.0000001
 43
0.0000001
 40
0.0
 40
0.0
 40
0.0
 40
1.0
 40
1.0
 40
1.0
 10
190.95080060520843
 20
138.06106369775597
 30
0.0
 10
191.0150263276208
 20
138.21653081469299
 30
0.0
 10
191.14059283386558
 20
138.30638221332708
 30
0.0
  0
SPLINE
  5
179
102
{ACAD_REACTORS
330
31
102
}
100
AcDbEntity
  8
0
  6
CONTINUOUS
100
AcDbSpline
210
0.0
220
0.0
230
1.0
 70
     8
 71
     2
 72
     6
 73
     3
 74
     0
 42
0.0000001
 43
0.0000001
 40
0.0
 40
0.0
 40
0.0
 40
1.0
 40
1.0
 40
1.0
 10
191.14059283386558
 20
138.30638221332708
 30
0.0
 10
191.26615934011036
 20
138.39623361196124
 30
0.0
 10
191.45440676532789
 20
138.39900518102453
 30
0.0
  0
SPLINE
  5
17A
102
{ACAD_REACTORS
330
31
102
}
100
AcDbEntity
  8
0
  6
CONTINUOUS
100
AcDbSpline
210
0.0
220
0.0
230
1.0
 70
     8
 71
     2
 72
     6
 73
     3
 74
     0
 42
0.0000001
 43
0.0000001
 40
0.0
 40
0.0
 40
0.0
 40
1.0
 40
1.0
 40
1.0
 10
191.45440676532789
 20
138.39900518102453
 30
0.0
 10
191.63856098715408
 20
138.40171648580605
 30
0.0
 10
191.80281283265015
 20
138.29668932831294
 30
0.0
  0
SPLINE
  5
17B
102
{ACAD_REACTORS
330
31
102
}
100
AcDbEntity
  8
0
  6
CONTINUOUS
100
AcDbSpline
210
0.0
220
0.0
230
1.0
 70
     8
 71
     2
 72
     6
 73
     3
 74
     0
 42
0.0000001
 43
0.0000001
 40
0.0
 40
0.0
 40
0.0
 40
1.0
 40
1.0
 40
1.0
 10
191.80281283265015
 20
138.29668932831294
 30
0.0
 10
191.96706408216437
 20
138.19166216204525
 30
0.0
 10
192.0590546522325
 20
137.9904007802449
 30
0.0
  0
SPLINE
  5
17C
102
{ACAD_REACTORS
330
31
102
}
100
AcDbEntity
  8
0
  6
CONTINUOUS
100
AcDbSpline
210
0.0
220
0.0
230
1.0
 70
     8
 71
     2
 72
     6
 73
     3
 74
     0
 42
0.0000001
 43
0.0000001
 40
0.0
 40
0.0
 40
0.0
 40
1.0
 40
1.0
 40
1.0
 10
192.0590546522325
 20
137.9904007802449
 30
0.0
 10
192.15104522230064
 20
137.78913939844455
 30
0.0
 10
192.15481091509878
 20
137.53337020877996
 30
0.0
  0
SPLINE
  5
17D
102
{ACAD_REACTORS
330
31
102
}
100
AcDbEntity
  8
0
  6
CONTINUOUS
100
AcDbSpline
210
0.0
220
0.0
230
1.0
 70
     8
 71
     2
 72
     6
 73
     3
 74
     0
 42
0.0000001
 43
0.0000001
 40
0.0
 40
0.0
 40
0.0
 40
1.0
 40
1.0
 40
1.0
 10
192.15481091509878
 20
137.53337020877996
 30
0.0
 10
192.16104691697353
 20
137.10981543898154
 30
0.0
 10
191.98834595807713
 20
136.88521543502594
 30
0.0
  0
SPLINE
  5
17E
102
{ACAD_REACTORS
330
31
102
}
100
AcDbEntity
  8
0
  6
CONTINUOUS
100
AcDbSpline
210
0.0
220
0.0
230
1.0
 70
     8
 71
     2
 72
     6
 73
     3
 74
     0
 42
0.0000001
 43
0.0000001
 40
0.0
 40
0.0
 40
0.0
 40
1.0
 40
1.0
 40
1.0
 10
191.98834595807713
 20
136.88521543502594
 30
0.0
 10
191.81564440319889
 20
136.66061542229568
 30
0.0
 10
191.47074637201644
 20
136.59414043123073
 30
0.0
  0
LWPOLYLINE
  5
17F
102
{ACAD_REACTORS
330
31
102
}
100
AcDbEntity
  8
0
  6
CONTINUOUS
100
AcDbPolyline
 90
        5
 70
     0
 10
189.086657
 20
138.804165
 10
189.510213
 20
138.810401
 10
189.50479
 20
139.178713
 10
189.081235
 20
139.172477
 10
189.086657
 20
138.804165
  0
LWPOLYLINE
  5
180
102
{ACAD_REACTORS
330
31
102
}
100
AcDbEntity
  8
0
  6
CONTINUOUS
100
AcDbPolyline
 90
        5
 70
     0
 10
189.913307
 20
138.816336
 10
192.086332
 20
138.84833
 10
192.08091
 20
139.216642
 10
189.907885
 20
139.184648
 10
189.913307
 20
138.816336
  0
LINE
  5
181
102
{ACAD_REACTORS
330
31
102
}
100
AcDbEntity
  8
0
  6
CONTINUOUS
100
AcDbLine
 10
192.051899
 20
141.187096
 30
0.0
 11
191.777713
 21
141.183059
 31
0.0
  0
SPLINE
  5
182
102
{ACAD_REACTORS
330
31
102
}
100
AcDbEntity
  8
0
  6
CONTINUOUS
100
AcDbSpline
210
0.0
220
0.0
230
1.0
 70
     8
 71
     2
 72
     6
 73
     3
 74
     0
 42
0.0000001
 43
0.0000001
 40
0.0
 40
0.0
 40
0.0
 40
1.0
 40
1.0
 40
1.0
 10
191.77771308571394
 20
141.18305905742449
 30
0.0
 10
192.10404912066207
 20
140.98115624045062
 30
0.0
 10
192.10995375673318
 20
140.58010812948606
 30
0.0
  0
SPLINE
  5
183
102
{ACAD_REACTORS
330
31
102
}
100
AcDbEntity
  8
0
  6
CONTINUOUS
100
AcDbSpline
210
0.0
220
0.0
230
1.0
 70
     8
 71
     2
 72
     6
 73
     3
 74
     0
 42
0.0000001
 43
0.0000001
 40
0.0
 40
0.0
 40
0.0
 40
1.0
 40
1.0
 40
1.0
 10
192.10995375673318
 20
140.58010812948604
 30
0.0
 10
192.11377971381316
 20
140.32024573643008
 30
0.0
 10
191.97375701863132
 20
140.10021736893361
 30
0.0
  0
SPLINE
  5
184
102
{ACAD_REACTORS
330
31
102
}
100
AcDbEntity
  8
0
  6
CONTINUOUS
100
AcDbSpline
210
0.0
220
0.0
230
1.0
 70
     8
 71
     2
 72
     6
 73
     3
 74
     0
 42
0.0000001
 43
0.0000001
 40
0.0
 40
0.0
 40
0.0
 40
1.0
 40
1.0
 40
1.0
 10
191.97375701863132
 20
140.10021736893367
 30
0.0
 10
191.83373365727041
 20
139.88019376051744
 30
0.0
 10
191.57870294125939
 20
139.75671122893334
 30
0.0
  0
SPLINE
  5
185
102
{ACAD_REACTORS
330
31
102
}
100
AcDbEntity
  8
0
  6
CONTINUOUS
100
AcDbSpline
210
0.0
220
0.0
230
1.0
 70
     8
 71
     2
 72
     6
 73
     3
 74
     0
 42
0.0000001
 43
0.0000001
 40
0.0
 40
0.0
 40
0.0
 40
1.0
 40
1.0
 40
1.0
 10
191.57870294125939
 20
139.75671122893334
 30
0.0
 10
191.32367159416791
 20
139.63323107250204
 30
0.0
 10
190.99014703559598
 20
139.62832058648965
 30
0.0
  0
SPLINE
  5
186
102
{ACAD_REACTORS
330
31
102
}
100
AcDbEntity
  8
0
  6
CONTINUOUS
100
AcDbSpline
210
0.0
220
0.0
230
1.0
 70
     8
 71
     2
 72
     6
 73
     3
 74
     0
 42
0.0000001
 43
0.0000001
 40
0.0
 40
0.0
 40
0.0
 40
1.0
 40
1.0
 40
1.0
 10
190.99014703559598
 20
139.62832058648965
 30
0.0
 10
190.66480709586119
 20
139.62353060271701
 30
0.0
 10
190.39823272049759
 20
139.72807657539406
 30
0.0
  0
SPLINE
  5
187
102
{ACAD_REACTORS
330
31
102
}
100
AcDbEntity
  8
0
  6
CONTINUOUS
100
AcDbSpline
210
0.0
220
0.0
230
1.0
 70
     8
 71
     2
 72
     6
 73
     3
 74
     0
 42
0.0000001
 43
0.0000001
 40
0.0
 40
0.0
 40
0.0
 40
1.0
 40
1.0
 40
1.0
 10
190.39823272049759
 20
139.72807657539406
 30
0.0
 10
190.13165778425073
 20
139.83262015536903
 30
0.0
 10
189.98727932225967
 20
140.04743597027277
 30
0.0
  0
SPLINE
  5
188
102
{ACAD_REACTORS
330
31
102
}
100
AcDbEntity
  8
0
  6
CONTINUOUS
100
AcDbSpline
210
0.0
220
0.0
230
1.0
 70
     8
 71
     2
 72
     6
 73
     3
 74
     0
 42
0.0000001
 43
0.0000001
 40
0.0
 40
0.0
 40
0.0
 40
1.0
 40
1.0
 40
1.0
 10
189.98727932225967
 20
140.04743597027274
 30
0.0
 10
189.8429008602686
 20
140.26225178517649
 30
0.0
 10
189.83895440972353
 20
140.5302982010877
 30
0.0
  0
SPLINE
  5
189
102
{ACAD_REACTORS
330
31
102
}
100
AcDbEntity
  8
0
  6
CONTINUOUS
100
AcDbSpline
210
0.0
220
0.0
230
1.0
 70
     8
 71
     2
 72
     6
 73
     3
 74
     0
 42
0.0000001
 43
0.0000001
 40
0.0
 40
0.0
 40
0.0
 40
1.0
 40
1.0
 40
1.0
 10
189.83895440972353
 20
140.5302982010877
 30
0.0
 10
189.83606235596983
 20
140.72672905317864
 30
0.0
 10
189.91667240845084
 20
140.88141208580174
 30
0.0
  0
SPLINE
  5
18A
102
{ACAD_REACTORS
330
31
102
}
100
AcDbEntity
  8
0
  6
CONTINUOUS
100
AcDbSpline
210
0.0
220
0.0
230
1.0
 70
     8
 71
     2
 72
     6
 73
     3
 74
     0
 42
0.0000001
 43
0.0000001
 40
0.0
 40
0.0
 40
0.0
 40
1.0
 40
1.0
 40
1.0
 10
189.91667240845084
 20
140.88141208580174
 30
0.0
 10
189.99728249603044
 20
141.0360927344974
 30
0.0
 10
190.12886705173628
 20
141.1342233027151
 30
0.0
  0
LINE
  5
18B
102
{ACAD_REACTORS
330
31
102
}
100
AcDbEntity
  8
0
  6
CONTINUOUS
100
AcDbLine
 10
190.128867
 20
141.134223
 30
0.0
 11
189.052586
 21
141.118377
 31
0.0
  0
LINE
  5
18C
102
{ACAD_REACTORS
330
31
102
}
100
AcDbEntity
  8
0
  6
CONTINUOUS
100
AcDbLine
 10
189.052586
 20
141.118377
 30
0.0
 11
189.047193
 21
141.484639
 31
0.0
  0
LINE
  5
18D
102
{ACAD_REACTORS
330
31
102
}
100
AcDbEntity
  8
0
  6
CONTINUOUS
100
AcDbLine
 10
189.047193
 20
141.484639
 30
0.0
 11
192.046868
 21
141.528803
 31
0.0
  0
LINE
  5
18E
102
{ACAD_REACTORS
330
31
102
}
100
AcDbEntity
  8
0
  6
CONTINUOUS
100
AcDbLine
 10
192.046868
 20
141.528803
 30
0.0
 11
192.051899
 21
141.187096
 31
0.0
  0
SPLINE
  5
18F
102
{ACAD_REACTORS
330
31
102
}
100
AcDbEntity
  8
0
  6
CONTINUOUS
100
AcDbSpline
210
0.0
220
0.0
230
1.0
 70
     8
 71
     2
 72
     6
 73
     3
 74
     0
 42
0.0000001
 43
0.0000001
 40
0.0
 40
0.0
 40
0.0
 40
1.0
 40
1.0
 40
1.0
 10
190.98457376532855
 20
140.00686203862034
 30
0.0
 10
191.40199111396737
 20
140.01300767917107
 30
0.0
 10
191.60606301512985
 20
140.19201759514178
 30
0.0
  0
SPLINE
  5
190
102
{ACAD_REACTORS
330
31
102
}
100
AcDbEntity
  8
0
  6
CONTINUOUS
100
AcDbSpline
210
0.0
220
0.0
230
1.0
 70
     8
 71
     2
 72
     6
 73
     3
 74
     0
 42
0.0000001
 43
0.0000001
 40
0.0
 40
0.0
 40
0.0
 40
1.0
 40
1.0
 40
1.0
 10
191.60606301512985
 20
140.19201759514181
 30
0.0
 10
191.81013425011332
 20
140.37103227019276
 30
0.0
 10
191.80660954424536
 20
140.61043341414683
 30
0.0
  0
SPLINE
  5
191
102
{ACAD_REACTORS
330
31
102
}
100
AcDbEntity
  8
0
  6
CONTINUOUS
100
AcDbSpline
210
0.0
220
0.0
230
1.0
 70
     8
 71
     2
 72
     6
 73
     3
 74
     0
 42
0.0000001
 43
0.0000001
 40
0.0
 40
0.0
 40
0.0
 40
1.0
 40
1.0
 40
1.0
 10
191.80660954424536
 20
140.61043341414683
 30
0.0
 10
191.80305472378575
 20
140.85187996783287
 30
0.0
 10
191.60311460849272
 20
141.01778112423375
 30
0.0
  0
SPLINE
  5
192
102
{ACAD_REACTORS
330
31
102
}
100
AcDbEntity
  8
0
  6
CONTINUOUS
100
AcDbSpline
210
0.0
220
0.0
230
1.0
 70
     8
 71
     2
 72
     6
 73
     3
 74
     0
 42
0.0000001
 43
0.0000001
 40
0.0
 40
0.0
 40
0.0
 40
1.0
 40
1.0
 40
1.0
 10
191.60311460849272
 20
141.01778112423378
 30
0.0
 10
191.40317508918153
 20
141.18368228940929
 30
0.0
 10
190.99803437080749
 20
141.17771739783089
 30
0.0
  0
SPLINE
  5
193
102
{ACAD_REACTORS
330
31
102
}
100
AcDbEntity
  8
0
  6
CONTINUOUS
100
AcDbSpline
210
0.0
220
0.0
230
1.0
 70
     8
 71
     2
 72
     6
 73
     3
 74
     0
 42
0.0000001
 43
0.0000001
 40
0.0
 40
0.0
 40
0.0
 40
1.0
 40
1.0
 40
1.0
 10
190.99803437080749
 20
141.17771739783086
 30
0.0
 10
190.55197115422968
 20
141.17115000382839
 30
0.0
 10
190.3457930181701
 20
140.99620078395532
 30
0.0
  0
SPLINE
  5
194
102
{ACAD_REACTORS
330
31
102
}
100
AcDbEntity
  8
0
  6
CONTINUOUS
100
AcDbSpline
210
0.0
220
0.0
230
1.0
 70
     8
 71
     2
 72
     6
 73
     3
 74
     0
 42
0.0000001
 43
0.0000001
 40
0.0
 40
0.0
 40
0.0
 40
1.0
 40
1.0
 40
1.0
 10
190.3457930181701
 20
140.99620078395532
 30
0.0
 10
190.13961491720912
 20
140.82124918015484
 30
0.0
 10
190.14332038082401
 20
140.56957080995414
 30
0.0
  0
SPLINE
  5
195
102
{ACAD_REACTORS
330
31
102
}
100
AcDbEntity
  8
0
  6
CONTINUOUS
100
AcDbSpline
210
0.0
220
0.0
230
1.0
 70
     8
 71
     2
 72
     6
 73
     3
 74
     0
 42
0.0000001
 43
0.0000001
 40
0.0
 40
0.0
 40
0.0
 40
1.0
 40
1.0
 40
1.0
 10
190.14332038082401
 20
140.56957080995414
 30
0.0
 10
190.14693546556543
 20
140.32403105287676
 30
0.0
 10
190.34988462313831
 20
140.16226828930394
 30
0.0
  0
SPLINE
  5
196
102
{ACAD_REACTORS
330
31
102
}
100
AcDbEntity
  8
0
  6
CONTINUOUS
100
AcDbSpline
210
0.0
220
0.0
230
1.0
 70
     8
 71
     2
 72
     6
 73
     3
 74
     0
 42
0.0000001
 43
0.0000001
 40
0.0
 40
0.0
 40
0.0
 40
1.0
 40
1.0
 40
1.0
 10
190.34988462313828
 20
140.16226828930394
 30
0.0
 10
190.55283378071115
 20
140.00050552573111
 30
0.0
 10
190.98457376532855
 20
140.00686203862037
 30
0.0
  0
LINE
  5
197
102
{ACAD_REACTORS
330
31
102
}
100
AcDbEntity
  8
0
  6
CONTINUOUS
100
AcDbLine
 10
191.316653
 20
143.585125
 30
0.0
 11
191.358112
 21
143.966404
 31
0.0
  0
SPLINE
  5
198
102
{ACAD_REACTORS
330
31
102
}
100
AcDbEntity
  8
0
  6
CONTINUOUS
100
AcDbSpline
210
0.0
220
0.0
230
1.0
 70
     8
 71
     2
 72
     6
 73
     3
 74
     0
 42
0.0000001
 43
0.0000001
 40
0.0
 40
0.0
 40
0.0
 40
1.0
 40
1.0
 40
1.0
 10
191.35811154476826
 20
143.96640435816093
 30
0.0
 10
191.69296163675196
 20
143.88128344098311
 30
0.0
 10
191.8807014247098
 20
143.6405004071938
 30
0.0
  0
SPLINE
  5
199
102
{ACAD_REACTORS
330
31
102
}
100
AcDbEntity
  8
0
  6
CONTINUOUS
100
AcDbSpline
210
0.0
220
0.0
230
1.0
 70
     8
 71
     2
 72
     6
 73
     3
 74
     0
 42
0.0000001
 43
0.0000001
 40
0.0
 40
0.0
 40
0.0
 40
1.0
 40
1.0
 40
1.0
 10
191.8807014247098
 20
143.6405004071938
 30
0.0
 10
192.0684405815872
 20
143.39971974855729
 30
0.0
 10
192.07401385185463
 20
143.02117829642654
 30
0.0
  0
SPLINE
  5
19A
102
{ACAD_REACTORS
330
31
102
}
100
AcDbEntity
  8
0
  6
CONTINUOUS
100
AcDbSpline
210
0.0
220
0.0
230
1.0
 70
     8
 71
     2
 72
     6
 73
     3
 74
     0
 42
0.0000001
 43
0.0000001
 40
0.0
 40
0.0
 40
0.0
 40
1.0
 40
1.0
 40
1.0
 10
192.07401385185463
 20
143.02117829642651
 30
0.0
 10
192.08103314899893
 20
142.54442141825029
 30
0.0
 10
191.79152113074284
 20
142.26079744884896
 30
0.0
  0
SPLINE
  5
19B
102
{ACAD_REACTORS
330
31
102
}
100
AcDbEntity
  8
0
  6
CONTINUOUS
100
AcDbSpline
210
0.0
220
0.0
230
1.0
 70
     8
 71
     2
 72
     6
 73
     3
 74
     0
 42
0.0000001
 43
0.0000001
 40
0.0
 40
0.0
 40
0.0
 40
1.0
 40
1.0
 40
1.0
 10
191.79152113074284
 20
142.26079744884899
 30
0.0
 10
191.50200911248675
 20
141.97717347944763
 30
0.0
 10
190.97205250986016
 20
141.96937092213219
 30
0.0
  0
SPLINE
  5
19C
102
{ACAD_REACTORS
330
31
102
}
100
AcDbEntity
  8
0
  6
CONTINUOUS
100
AcDbSpline
210
0.0
220
0.0
230
1.0
 70
     8
 71
     2
 72
     6
 73
     3
 74
     0
 42
0.0000001
 43
0.0000001
 40
0.0
 40
0.0
 40
0.0
 40
1.0
 40
1.0
 40
1.0
 10
190.97205250986016
 20
141.96937092213216
 30
0.0
 10
190.42368125982739
 20
141.96129724574561
 30
0.0
 10
190.11669121692609
 20
142.23921007236851
 30
0.0
  0
SPLINE
  5
19D
102
{ACAD_REACTORS
330
31
102
}
100
AcDbEntity
  8
0
  6
CONTINUOUS
100
AcDbSpline
210
0.0
220
0.0
230
1.0
 70
     8
 71
     2
 72
     6
 73
     3
 74
     0
 42
0.0000001
 43
0.0000001
 40
0.0
 40
0.0
 40
0.0
 40
1.0
 40
1.0
 40
1.0
 10
190.11669121692609
 20
142.23921007236851
 30
0.0
 10
189.8097017700066
 20
142.51712290776604
 30
0.0
 10
189.80307413804638
 20
142.96727753978962
 30
0.0
  0
SPLINE
  5
19E
102
{ACAD_REACTORS
330
31
102
}
100
AcDbEntity
  8
0
  6
CONTINUOUS
100
AcDbSpline
210
0.0
220
0.0
230
1.0
 70
     8
 71
     2
 72
     6
 73
     3
 74
     0
 42
0.0000001
 43
0.0000001
 40
0.0
 40
0.0
 40
0.0
 40
1.0
 40
1.0
 40
1.0
 10
189.80307413804638
 20
142.96727753978962
 30
0.0
 10
189.7966573784247
 20
143.40310953583463
 30
0.0
 10
190.08928387512989
 20
143.68371058007477
 30
0.0
  0
SPLINE
  5
19F
102
{ACAD_REACTORS
330
31
102
}
100
AcDbEntity
  8
0
  6
CONTINUOUS
100
AcDbSpline
210
0.0
220
0.0
230
1.0
 70
     8
 71
     2
 72
     6
 73
     3
 74
     0
 42
0.0000001
 43
0.0000001
 40
0.0
 40
0.0
 40
0.0
 40
1.0
 40
1.0
 40
1.0
 10
190.08928387512989
 20
143.6837105800748
 30
0.0
 10
190.38191096781694
 20
143.96431163308961
 30
0.0
 10
190.92005159329878
 20
143.97223468387014
 30
0.0
  0
SPLINE
  5
1A0
102
{ACAD_REACTORS
330
31
102
}
100
AcDbEntity
  8
0
  6
CONTINUOUS
100
AcDbSpline
210
0.0
220
0.0
230
1.0
 70
     8
 71
     2
 72
     6
 73
     3
 74
     0
 42
0.0000001
 43
0.0000001
 40
0.0
 40
0.0
 40
0.0
 40
1.0
 40
1.0
 40
1.0
 10
190.92005159329878
 20
143.97223468387011
 30
0.0
 10
190.95279066462913
 20
143.97271670160373
 30
0.0
 10
191.01829772991775
 20
143.97163530978969
 30
0.0
  0
LINE
  5
1A1
102
{ACAD_REACTORS
330
31
102
}
100
AcDbEntity
  8
0
  6
CONTINUOUS
100
AcDbLine
 10
191.018298
 20
143.971635
 30
0.0
 11
191.042157
 21
142.351075
 31
0.0
  0
SPLINE
  5
1A2
102
{ACAD_REACTORS
330
31
102
}
100
AcDbEntity
  8
0
  6
CONTINUOUS
100
AcDbSpline
210
0.0
220
0.0
230
1.0
 70
     8
 71
     2
 72
     6
 73
     3
 74
     0
 42
0.0000001
 43
0.0000001
 40
0.0
 40
0.0
 40
0.0
 40
1.0
 40
1.0
 40
1.0
 10
191.0421572611323
 20
142.35107482022087
 30
0.0
 10
191.39993446010214
 20
142.37680567812691
 30
0.0
 10
191.58754670961835
 20
142.5617155866689
 30
0.0
  0
SPLINE
  5
1A3
102
{ACAD_REACTORS
330
31
102
}
100
AcDbEntity
  8
0
  6
CONTINUOUS
100
AcDbSpline
210
0.0
220
0.0
230
1.0
 70
     8
 71
     2
 72
     6
 73
     3
 74
     0
 42
0.0000001
 43
0.0000001
 40
0.0
 40
0.0
 40
0.0
 40
1.0
 40
1.0
 40
1.0
 10
191.58754670961835
 20
142.56171558666892
 30
0.0
 10
191.77515836315268
 20
142.74662548643624
 30
0.0
 10
191.77115164832577
 20
143.01876510573882
 30
0.0
  0
SPLINE
  5
1A4
102
{ACAD_REACTORS
330
31
102
}
100
AcDbEntity
  8
0
  6
CONTINUOUS
100
AcDbSpline
210
0.0
220
0.0
230
1.0
 70
     8
 71
     2
 72
     6
 73
     3
 74
     0
 42
0.0000001
 43
0.0000001
 40
0.0
 40
0.0
 40
0.0
 40
1.0
 40
1.0
 40
1.0
 10
191.77115164832577
 20
143.01876510573882
 30
0.0
 10
191.76816918060001
 20
143.22133695488048
 30
0.0
 10
191.65966034213469
 20
143.36300155340444
 30
0.0
  0
SPLINE
  5
1A5
102
{ACAD_REACTORS
330
31
102
}
100
AcDbEntity
  8
0
  6
CONTINUOUS
100
AcDbSpline
210
0.0
220
0.0
230
1.0
 70
     8
 71
     2
 72
     6
 73
     3
 74
     0
 42
0.0000001
 43
0.0000001
 40
0.0
 40
0.0
 40
0.0
 40
1.0
 40
1.0
 40
1.0
 10
191.65966034213469
 20
143.36300155340442
 30
0.0
 10
191.55115090768749
 20
143.50466614315371
 30
0.0
 10
191.31665322231842
 20
143.58512460622603
 30
0.0
  0
LINE
  5
1A6
102
{ACAD_REACTORS
330
31
102
}
100
AcDbEntity
  8
0
  6
CONTINUOUS
100
AcDbLine
 10
190.739024
 20
142.367075
 30
0.0
 11
190.721159
 21
143.580451
 31
0.0
  0
SPLINE
  5
1A7
102
{ACAD_REACTORS
330
31
102
}
100
AcDbEntity
  8
0
  6
CONTINUOUS
100
AcDbSpline
210
0.0
220
0.0
230
1.0
 70
     8
 71
     2
 72
     6
 73
     3
 74
     0
 42
0.0000001
 43
0.0000001
 40
0.0
 40
0.0
 40
0.0
 40
1.0
 40
1.0
 40
1.0
 10
190.72115940471303
 20
143.58045123438401
 30
0.0
 10
190.44733469920865
 20
143.55185993492287
 30
0.0
 10
190.311929233597
 20
143.43525566453013
 30
0.0
  0
SPLINE
  5
1A8
102
{ACAD_REACTORS
330
31
102
}
100
AcDbEntity
  8
0
  6
CONTINUOUS
100
AcDbSpline
210
0.0
220
0.0
230
1.0
 70
     8
 71
     2
 72
     6
 73
     3
 74
     0
 42
0.0000001
 43
0.0000001
 40
0.0
 40
0.0
 40
0.0
 40
1.0
 40
1.0
 40
1.0
 10
190.311929233597
 20
143.4352556645301
 30
0.0
 10
190.10171875440977
 20
143.25615298575849
 30
0.0
 10
190.10584596270178
 20
142.97582934360065
 30
0.0
  0
SPLINE
  5
1A9
102
{ACAD_REACTORS
330
31
102
}
100
AcDbEntity
  8
0
  6
CONTINUOUS
100
AcDbSpline
210
0.0
220
0.0
230
1.0
 70
     8
 71
     2
 72
     6
 73
     3
 74
     0
 42
0.0000001
 43
0.0000001
 40
0.0
 40
0.0
 40
0.0
 40
1.0
 40
1.0
 40
1.0
 10
190.10584596270181
 20
142.97582934360065
 30
0.0
 10
190.10958157600692
 20
142.72210317974057
 30
0.0
 10
190.28195875741017
 20
142.55170450771982
 30
0.0
  0
SPLINE
  5
1AA
102
{ACAD_REACTORS
330
31
102
}
100
AcDbEntity
  8
0
  6
CONTINUOUS
100
AcDbSpline
210
0.0
220
0.0
230
1.0
 70
     8
 71
     2
 72
     6
 73
     3
 74
     0
 42
0.0000001
 43
0.0000001
 40
0.0
 40
0.0
 40
0.0
 40
1.0
 40
1.0
 40
1.0
 10
190.28195875741017
 20
142.55170450771982
 30
0.0
 10
190.45433593881344
 20
142.38130583569904
 30
0.0
 10
190.73902395608161
 20
142.36707508497562
 30
0.0
  0
LWPOLYLINE
  5
1AB
102
{ACAD_REACTORS
330
31
102
}
100
AcDbEntity
  8
0
  6
CONTINUOUS
100
AcDbPolyline
 90
        5
 70
     0
 10
188.987182
 20
145.560597
 10
189.410738
 20
145.566833
 10
189.405315
 20
145.93514
 10
188.98176
 20
145.928904
 10
188.987182
 20
145.560597
  0
LWPOLYLINE
  5
1AC
102
{ACAD_REACTORS
330
31
102
}
100
AcDbEntity
  8
0
  6
CONTINUOUS
100
AcDbPolyline
 90
        5
 70
     0
 10
189.813832
 20
145.572768
 10
191.986857
 20
145.604761
 10
191.981435
 20
145.973069
 10
189.80841
 20
145.941075
 10
189.813832
 20
145.572768
  0
LINE
  5
1AD
102
{ACAD_REACTORS
330
31
102
}
100
AcDbEntity
  8
0
  6
CONTINUOUS
100
AcDbLine
 10
191.97318
 20
146.533718
 30
0.0
 11
189.800155
 21
146.501725
 31
0.0
  0
LINE
  5
1AE
102
{ACAD_REACTORS
330
31
102
}
100
AcDbEntity
  8
0
  6
CONTINUOUS
100
AcDbLine
 10
189.800155
 20
146.501725
 30
0.0
 11
189.795275
 21
146.833203
 31
0.0
  0
LINE
  5
1AF
102
{ACAD_REACTORS
330
31
102
}
100
AcDbEntity
  8
0
  6
CONTINUOUS
100
AcDbLine
 10
189.795275
 20
146.833203
 30
0.0
 11
190.104245
 21
146.837752
 31
0.0
  0
SPLINE
  5
1B0
102
{ACAD_REACTORS
330
31
102
}
100
AcDbEntity
  8
0
  6
CONTINUOUS
100
AcDbSpline
210
0.0
220
0.0
230
1.0
 70
     8
 71
     2
 72
     6
 73
     3
 74
     0
 42
0.0000001
 43
0.0000001
 40
0.0
 40
0.0
 40
0.0
 40
1.0
 40
1.0
 40
1.0
 10
190.10424513569168
 20
146.837751720867
 30
0.0
 10
189.7426426107223
 20
147.07188088086414
 30
0.0
 10
189.73598479397327
 20
147.52408569047458
 30
0.0
  0
SPLINE
  5
1B1
102
{ACAD_REACTORS
330
31
102
}
100
AcDbEntity
  8
0
  6
CONTINUOUS
100
AcDbSpline
210
0.0
220
0.0
230
1.0
 70
     8
 71
     2
 72
     6
 73
     3
 74
     0
 42
0.0000001
 43
0.0000001
 40
0.0
 40
0.0
 40
0.0
 40
1.0
 40
1.0
 40
1.0
 10
189.73598479397327
 20
147.52408569047455
 30
0.0
 10
189.73309274021958
 20
147.72051654256549
 30
0.0
 10
189.80125990110145
 20
147.88627095489485
 30
0.0
  0
SPLINE
  5
1B2
102
{ACAD_REACTORS
330
31
102
}
100
AcDbEntity
  8
0
  6
CONTINUOUS
100
AcDbSpline
210
0.0
220
0.0
230
1.0
 70
     8
 71
     2
 72
     6
 73
     3
 74
     0
 42
0.0000001
 43
0.0000001
 40
0.0
 40
0.0
 40
0.0
 40
1.0
 40
1.0
 40
1.0
 10
189.80125990110147
 20
147.88627095489488
 30
0.0
 10
189.86942706198334
 20
148.05202536722425
 30
0.0
 10
189.98280791281871
 20
148.13555741253742
 30
0.0
  0
SPLINE
  5
1B3
102
{ACAD_REACTORS
330
31
102
}
100
AcDbEntity
  8
0
  6
CONTINUOUS
100
AcDbSpline
210
0.0
220
0.0
230
1.0
 70
     8
 71
     2
 72
     6
 73
     3
 74
     0
 42
0.0000001
 43
0.0000001
 40
0.0
 40
0.0
 40
0.0
 40
1.0
 40
1.0
 40
1.0
 10
189.98280791281869
 20
148.13555741253742
 30
0.0
 10
190.09618750149312
 20
148.21909420815615
 30
0.0
 10
190.25326048321563
 20
148.25414998304785
 30
0.0
  0
SPLINE
  5
1B4
102
{ACAD_REACTORS
330
31
102
}
100
AcDbEntity
  8
0
  6
CONTINUOUS
100
AcDbSpline
210
0.0
220
0.0
230
1.0
 70
     8
 71
     2
 72
     6
 73
     3
 74
     0
 42
0.0000001
 43
0.0000001
 40
0.0
 40
0.0
 40
0.0
 40
1.0
 40
1.0
 40
1.0
 10
190.25326048321563
 20
148.25414998304785
 30
0.0
 10
190.35526723035997
 20
148.27611989846122
 30
0.0
 10
190.61103761198831
 20
148.27988560880874
 30
0.0
  0
LINE
  5
1B5
102
{ACAD_REACTORS
330
31
102
}
100
AcDbEntity
  8
0
  6
CONTINUOUS
100
AcDbLine
 10
190.611038
 20
148.279886
 30
0.0
 11
191.947182
 21
148.299558
 31
0.0
  0
LINE
  5
1B6
102
{ACAD_REACTORS
330
31
102
}
100
AcDbEntity
  8
0
  6
CONTINUOUS
100
AcDbLine
 10
191.947182
 20
148.299558
 30
0.0
 11
191.952605
 21
147.931246
 31
0.0
  0
LINE
  5
1B7
102
{ACAD_REACTORS
330
31
102
}
100
AcDbEntity
  8
0
  6
CONTINUOUS
100
AcDbLine
 10
191.952605
 20
147.931246
 30
0.0
 11
190.630784
 21
147.911784
 31
0.0
  0
SPLINE
  5
1B8
102
{ACAD_REACTORS
330
31
102
}
100
AcDbEntity
  8
0
  6
CONTINUOUS
100
AcDbSpline
210
0.0
220
0.0
230
1.0
 70
     8
 71
     2
 72
     6
 73
     3
 74
     0
 42
0.0000001
 43
0.0000001
 40
0.0
 40
0.0
 40
0.0
 40
1.0
 40
1.0
 40
1.0
 10
190.63078350615947
 20
147.91178447037845
 30
0.0
 10
190.40570499818395
 20
147.90847063684896
 30
0.0
 10
190.29482225804156
 20
147.86386088699362
 30
0.0
  0
SPLINE
  5
1B9
102
{ACAD_REACTORS
330
31
102
}
100
AcDbEntity
  8
0
  6
CONTINUOUS
100
AcDbSpline
210
0.0
220
0.0
230
1.0
 70
     8
 71
     2
 72
     6
 73
     3
 74
     0
 42
0.0000001
 43
0.0000001
 40
0.0
 40
0.0
 40
0.0
 40
1.0
 40
1.0
 40
1.0
 10
190.29482225804156
 20
147.86386088699362
 30
0.0
 10
190.1839389219173
 20
147.81925112836362
 30
0.0
 10
190.11905039770045
 20
147.70880209694911
 30
0.0
  0
SPLINE
  5
1BA
102
{ACAD_REACTORS
330
31
102
}
100
AcDbEntity
  8
0
  6
CONTINUOUS
100
AcDbSpline
210
0.0
220
0.0
230
1.0
 70
     8
 71
     2
 72
     6
 73
     3
 74
     0
 42
0.0000001
 43
0.0000001
 40
0.0
 40
0.0
 40
0.0
 40
1.0
 40
1.0
 40
1.0
 10
190.11905039770045
 20
147.70880209694914
 30
0.0
 10
190.05416127750175
 20
147.59835305676
 30
0.0
 10
190.05633037046493
 20
147.45102634180068
 30
0.0
  0
SPLINE
  5
1BB
102
{ACAD_REACTORS
330
31
102
}
100
AcDbEntity
  8
0
  6
CONTINUOUS
100
AcDbSpline
210
0.0
220
0.0
230
1.0
 70
     8
 71
     2
 72
     6
 73
     3
 74
     0
 42
0.0000001
 43
0.0000001
 40
0.0
 40
0.0
 40
0.0
 40
1.0
 40
1.0
 40
1.0
 10
190.05633037046491
 20
147.45102634180063
 30
0.0
 10
190.05979481205102
 20
147.21571840123789
 30
0.0
 10
190.2116805946622
 20
147.04706627166451
 30
0.0
  0
SPLINE
  5
1BC
102
{ACAD_REACTORS
330
31
102
}
100
AcDbEntity
  8
0
  6
CONTINUOUS
100
AcDbSpline
210
0.0
220
0.0
230
1.0
 70
     8
 71
     2
 72
     6
 73
     3
 74
     0
 42
0.0000001
 43
0.0000001
 40
0.0
 40
0.0
 40
0.0
 40
1.0
 40
1.0
 40
1.0
 10
190.2116805946622
 20
147.04706627166451
 30
0.0
 10
190.36356585148872
 20
146.87840936546161
 30
0.0
 10
190.78098320012754
 20
146.88455500601231
 30
0.0
  0
LINE
  5
1BD
102
{ACAD_REACTORS
330
31
102
}
100
AcDbEntity
  8
0
  6
CONTINUOUS
100
AcDbLine
 10
190.780983
 20
146.884555
 30
0.0
 11
191.967758
 21
146.902028
 31
0.0
  0
LINE
  5
1BE
102
{ACAD_REACTORS
330
31
102
}
100
AcDbEntity
  8
0
  6
CONTINUOUS
100
AcDbLine
 10
191.967758
 20
146.902028
 30
0.0
 11
191.97318
 21
146.533718
 31
0.0
  0
LWPOLYLINE
  5
1BF
102
{ACAD_REACTORS
330
31
102
}
100
AcDbEntity
  8
0
  6
CONTINUOUS
100
AcDbPolyline
 90
        9
 70
     0
 10
180.79275
 20
98.504787
 10
183.79275
 20
97.352673
 10
183.79275
 20
97.774228
 10
182.884155
 20
98.103696
 10
182.884155
 20
99.35813
 10
183.79275
 20
99.708062
 10
183.79275
 20
100.160312
 10
180.79275
 20
98.932482
 10
180.79275
 20
98.504787
  0
LINE
  5
1C0
102
{ACAD_REACTORS
330
31
102
}
100
AcDbEntity
  8
0
  6
CONTINUOUS
100
AcDbLine
 10
182.560826
 20
98.218294
 30
0.0
 11
182.560826
 21
99.235347
 31
0.0
  0
LINE
  5
1C1
102
{ACAD_REACTORS
330
31
102
}
100
AcDbEntity
  8
0
  6
CONTINUOUS
100
AcDbLine
 10
182.560826
 20
99.235347
 30
0.0
 11
181.729994
 21
98.92225
 31
0.0
  0
SPLINE
  5
1C2
102
{ACAD_REACTORS
330
31
102
}
100
AcDbEntity
  8
0
  6
CONTINUOUS
100
AcDbSpline
210
0.0
220
0.0
230
1.0
 70
     8
 71
     2
 72
     6
 73
     3
 74
     0
 42
0.0000001
 43
0.0000001
 40
0.0
 40
0.0
 40
0.0
 40
1.0
 40
1.0
 40
1.0
 10
181.72999435037258
 20
98.922250074653533
 30
0.0
 10
181.35141306489592
 20
98.7790028279111
 30
0.0
 10
181.10789322227129
 20
98.709425730018211
 30
0.0
  0
SPLINE
  5
1C3
102
{ACAD_REACTORS
330
31
102
}
100
AcDbEntity
  8
0
  6
CONTINUOUS
100
AcDbSpline
210
0.0
220
0.0
230
1.0
 70
     8
 71
     2
 72
     6
 73
     3
 74
     0
 42
0.0000001
 43
0.0000001
 40
0.0
 40
0.0
 40
0.0
 40
1.0
 40
1.0
 40
1.0
 10
181.10789322227129
 20
98.709425730018211
 30
0.0
 10
181.3964336451877
 20
98.652127188949322
 30
0.0
 10
181.68088131517064
 20
98.547761244087098
 30
0.0
  0
LINE
  5
1C4
102
{ACAD_REACTORS
330
31
102
}
100
AcDbEntity
  8
0
  6
CONTINUOUS
100
AcDbLine
 10
181.680881
 20
98.547761
 30
0.0
 11
182.560826
 21
98.218294
 31
0.0
  0
LINE
  5
1C5
102
{ACAD_REACTORS
330
31
102
}
100
AcDbEntity
  8
0
  6
CONTINUOUS
100
AcDbLine
 10
73.777005
 20
97.61274
 30
0.0
 11
70.777005
 21
97.61274
 31
0.0
  0
LINE
  5
1C6
102
{ACAD_REACTORS
330
31
102
}
100
AcDbEntity
  8
0
  6
CONTINUOUS
100
AcDbLine
 10
70.777005
 20
97.61274
 30
0.0
 11
70.777005
 21
98.738251
 31
0.0
  0
SPLINE
  5
1C7
102
{ACAD_REACTORS
330
31
102
}
100
AcDbEntity
  8
0
  6
CONTINUOUS
100
AcDbSpline
210
0.0
220
0.0
230
1.0
 70
     8
 71
     2
 72
     6
 73
     3
 74
     0
 42
0.0000001
 43
0.0000001
 40
0.0
 40
0.0
 40
0.0
 40
1.0
 40
1.0
 40
1.0
 10
70.777004628586241
 20
98.738251120050876
 30
0.0
 10
70.777004628586241
 20
99.082043558557956
 30
0.0
 10
70.868068902897306
 20
99.289751440485446
 30
0.0
  0
SPLINE
  5
1C8
102
{ACAD_REACTORS
330
31
102
}
100
AcDbEntity
  8
0
  6
CONTINUOUS
100
AcDbSpline
210
0.0
220
0.0
230
1.0
 70
     8
 71
     2
 72
     6
 73
     3
 74
     0
 42
0.0000001
 43
0.0000001
 40
0.0
 40
0.0
 40
0.0
 40
1.0
 40
1.0
 40
1.0
 10
70.868068902897278
 20
99.289751440485432
 30
0.0
 10
70.95913287918512
 20
99.497459322412936
 30
0.0
 10
71.148423521923462
 20
99.615126639803393
 30
0.0
  0
SPLINE
  5
1C9
102
{ACAD_REACTORS
330
31
102
}
100
AcDbEntity
  8
0
  6
CONTINUOUS
100
AcDbSpline
210
0.0
220
0.0
230
1.0
 70
     8
 71
     2
 72
     6
 73
     3
 74
     0
 42
0.0000001
 43
0.0000001
 40
0.0
 40
0.0
 40
0.0
 40
1.0
 40
1.0
 40
1.0
 10
71.148423521923434
 20
99.615126639803393
 30
0.0
 10
71.337714164661776
 20
99.732793957193849
 30
0.0
 10
71.544398932861696
 20
99.732793957193863
 30
0.0
  0
SPLINE
  5
1CA
102
{ACAD_REACTORS
330
31
102
}
100
AcDbEntity
  8
0
  6
CONTINUOUS
100
AcDbSpline
210
0.0
220
0.0
230
1.0
 70
     8
 71
     2
 72
     6
 73
     3
 74
     0
 42
0.0000001
 43
0.0000001
 40
0.0
 40
0.0
 40
0.0
 40
1.0
 40
1.0
 40
1.0
 10
71.544398932861725
 20
99.732793957193849
 30
0.0
 10
71.736759214806
 20
99.732793957193863
 30
0.0
 10
71.906609206604401
 20
99.628428608377959
 30
0.0
  0
SPLINE
  5
1CB
102
{ACAD_REACTORS
330
31
102
}
100
AcDbEntity
  8
0
  6
CONTINUOUS
100
AcDbSpline
210
0.0
220
0.0
230
1.0
 70
     8
 71
     2
 72
     6
 73
     3
 74
     0
 42
0.0000001
 43
0.0000001
 40
0.0
 40
0.0
 40
0.0
 40
1.0
 40
1.0
 40
1.0
 10
71.906609206604401
 20
99.628428608377959
 30
0.0
 10
72.076459198402802
 20
99.524062663515608
 30
0.0
 10
72.18082454721872
 20
99.313285142382199
 30
0.0
  0
SPLINE
  5
1CC
102
{ACAD_REACTORS
330
31
102
}
100
AcDbEntity
  8
0
  6
CONTINUOUS
100
AcDbSpline
210
0.0
220
0.0
230
1.0
 70
     8
 71
     2
 72
     6
 73
     3
 74
     0
 42
0.0000001
 43
0.0000001
 40
0.0
 40
0.0
 40
0.0
 40
1.0
 40
1.0
 40
1.0
 10
72.180824547218663
 20
99.313285142382185
 30
0.0
 10
72.260633974480015
 20
99.585454255541379
 30
0.0
 10
72.452993660377842
 20
99.73177114148956
 30
0.0
  0
SPLINE
  5
1CD
102
{ACAD_REACTORS
330
31
102
}
100
AcDbEntity
  8
0
  6
CONTINUOUS
100
AcDbSpline
210
0.0
220
0.0
230
1.0
 70
     8
 71
     2
 72
     6
 73
     3
 74
     0
 42
0.0000001
 43
0.0000001
 40
0.0
 40
0.0
 40
0.0
 40
1.0
 40
1.0
 40
1.0
 10
72.452993660377899
 20
99.73177114148956
 30
0.0
 10
72.645353942322174
 20
99.878087431391307
 30
0.0
 10
72.90729132215921
 20
99.878087431391322
 30
0.0
  0
SPLINE
  5
1CE
102
{ACAD_REACTORS
330
31
102
}
100
AcDbEntity
  8
0
  6
CONTINUOUS
100
AcDbSpline
210
0.0
220
0.0
230
1.0
 70
     8
 71
     2
 72
     6
 73
     3
 74
     0
 42
0.0000001
 43
0.0000001
 40
0.0
 40
0.0
 40
0.0
 40
1.0
 40
1.0
 40
1.0
 10
72.907291322159182
 20
99.878087431391322
 30
0.0
 10
73.118068843292605
 20
99.878087431391336
 30
0.0
 10
73.299173980163943
 20
99.7890690865122
 30
0.0
  0
SPLINE
  5
1CF
102
{ACAD_REACTORS
330
31
102
}
100
AcDbEntity
  8
0
  6
CONTINUOUS
100
AcDbSpline
210
0.0
220
0.0
230
1.0
 70
     8
 71
     2
 72
     6
 73
     3
 74
     0
 42
0.0000001
 43
0.0000001
 40
0.0
 40
0.0
 40
0.0
 40
1.0
 40
1.0
 40
1.0
 10
73.299173980163971
 20
99.789069086512185
 30
0.0
 10
73.480279117035309
 20
99.700051933725945
 30
0.0
 10
73.578505187439362
 20
99.569083243807441
 30
0.0
  0
SPLINE
  5
1D0
102
{ACAD_REACTORS
330
31
102
}
100
AcDbEntity
  8
0
  6
CONTINUOUS
100
AcDbSpline
210
0.0
220
0.0
230
1.0
 70
     8
 71
     2
 72
     6
 73
     3
 74
     0
 42
0.0000001
 43
0.0000001
 40
0.0
 40
0.0
 40
0.0
 40
1.0
 40
1.0
 40
1.0
 10
73.57850518743939
 20
99.569083243807441
 30
0.0
 10
73.676731853889891
 20
99.438114553888923
 30
0.0
 10
73.72686830084271
 20
99.240638405283576
 30
0.0
  0
SPLINE
  5
1D1
102
{ACAD_REACTORS
330
31
102
}
100
AcDbEntity
  8
0
  6
CONTINUOUS
100
AcDbSpline
210
0.0
220
0.0
230
1.0
 70
     8
 71
     2
 72
     6
 73
     3
 74
     0
 42
0.0000001
 43
0.0000001
 40
0.0
 40
0.0
 40
0.0
 40
1.0
 40
1.0
 40
1.0
 10
73.726868300842654
 20
99.24063840528359
 30
0.0
 10
73.777004747795473
 20
99.043162256678244
 30
0.0
 10
73.777004747795473
 20
98.756668359240194
 30
0.0
  0
LINE
  5
1D2
102
{ACAD_REACTORS
330
31
102
}
100
AcDbEntity
  8
0
  6
CONTINUOUS
100
AcDbLine
 10
73.777005
 20
98.756668
 30
0.0
 11
73.777005
 21
97.61274
 31
0.0
  0
LINE
  5
1D3
102
{ACAD_REACTORS
330
31
102
}
100
AcDbEntity
  8
0
  6
CONTINUOUS
100
AcDbLine
 10
72.037578
 20
98.009738
 30
0.0
 11
72.037578
 21
98.658442
 31
0.0
  0
SPLINE
  5
1D4
102
{ACAD_REACTORS
330
31
102
}
100
AcDbEntity
  8
0
  6
CONTINUOUS
100
AcDbSpline
210
0.0
220
0.0
230
1.0
 70
     8
 71
     2
 72
     6
 73
     3
 74
     0
 42
0.0000001
 43
0.0000001
 40
0.0
 40
0.0
 40
0.0
 40
1.0
 40
1.0
 40
1.0
 10
72.037577896522862
 20
98.658441692789594
 30
0.0
 10
72.037577896522862
 20
98.922425896128217
 30
0.0
 10
72.002789049553257
 20
99.037022978266279
 30
0.0
  0
SPLINE
  5
1D5
102
{ACAD_REACTORS
330
31
102
}
100
AcDbEntity
  8
0
  6
CONTINUOUS
100
AcDbSpline
210
0.0
220
0.0
230
1.0
 70
     8
 71
     2
 72
     6
 73
     3
 74
     0
 42
0.0000001
 43
0.0000001
 40
0.0
 40
0.0
 40
0.0
 40
1.0
 40
1.0
 40
1.0
 10
72.002789049553286
 20
99.037022978266265
 30
0.0
 10
71.957768767284762
 20
99.188455730875518
 30
0.0
 10
71.85340312044562
 20
99.26519492288449
 30
0.0
  0
SPLINE
  5
1D6
102
{ACAD_REACTORS
330
31
102
}
100
AcDbEntity
  8
0
  6
CONTINUOUS
100
AcDbSpline
210
0.0
220
0.0
230
1.0
 70
     8
 71
     2
 72
     6
 73
     3
 74
     0
 42
0.0000001
 43
0.0000001
 40
0.0
 40
0.0
 40
0.0
 40
1.0
 40
1.0
 40
1.0
 10
71.853403120445677
 20
99.265194922884504
 30
0.0
 10
71.749037473606535
 20
99.341934114893462
 30
0.0
 10
71.591465740608641
 20
99.341934114893462
 30
0.0
  0
SPLINE
  5
1D7
102
{ACAD_REACTORS
330
31
102
}
100
AcDbEntity
  8
0
  6
CONTINUOUS
100
AcDbSpline
210
0.0
220
0.0
230
1.0
 70
     8
 71
     2
 72
     6
 73
     3
 74
     0
 42
0.0000001
 43
0.0000001
 40
0.0
 40
0.0
 40
0.0
 40
1.0
 40
1.0
 40
1.0
 10
71.591465740608641
 20
99.341934114893448
 30
0.0
 10
71.442079811500975
 20
99.341934114893434
 30
0.0
 10
71.328505545067259
 20
99.270310789545519
 30
0.0
  0
SPLINE
  5
1D8
102
{ACAD_REACTORS
330
31
102
}
100
AcDbEntity
  8
0
  6
CONTINUOUS
100
AcDbSpline
210
0.0
220
0.0
230
1.0
 70
     8
 71
     2
 72
     6
 73
     3
 74
     0
 42
0.0000001
 43
0.0000001
 40
0.0
 40
0.0
 40
0.0
 40
1.0
 40
1.0
 40
1.0
 10
71.32850554506723
 20
99.270310789545519
 30
0.0
 10
71.214930980610291
 20
99.198687464197619
 30
0.0
 10
71.172980039524475
 20
99.065672546823961
 30
0.0
  0
SPLINE
  5
1D9
102
{ACAD_REACTORS
330
31
102
}
100
AcDbEntity
  8
0
  6
CONTINUOUS
100
AcDbSpline
210
0.0
220
0.0
230
1.0
 70
     8
 71
     2
 72
     6
 73
     3
 74
     0
 42
0.0000001
 43
0.0000001
 40
0.0
 40
0.0
 40
0.0
 40
1.0
 40
1.0
 40
1.0
 10
71.172980039524447
 20
99.065672546823961
 30
0.0
 10
71.131029396461855
 20
98.932657629450304
 30
0.0
 10
71.131029396461855
 20
98.609328657587511
 30
0.0
  0
LINE
  5
1DA
102
{ACAD_REACTORS
330
31
102
}
100
AcDbEntity
  8
0
  6
CONTINUOUS
100
AcDbLine
 10
71.131029
 20
98.609329
 30
0.0
 11
71.131029
 21
98.009738
 31
0.0
  0
LINE
  5
1DB
102
{ACAD_REACTORS
330
31
102
}
100
AcDbEntity
  8
0
  6
CONTINUOUS
100
AcDbLine
 10
71.131029
 20
98.009738
 30
0.0
 11
72.037578
 21
98.009738
 31
0.0
  0
LINE
  5
1DC
102
{ACAD_REACTORS
330
31
102
}
100
AcDbEntity
  8
0
  6
CONTINUOUS
100
AcDbLine
 10
73.42298
 20
98.009738
 30
0.0
 11
73.42298
 21
98.756668
 31
0.0
  0
SPLINE
  5
1DD
102
{ACAD_REACTORS
330
31
102
}
100
AcDbEntity
  8
0
  6
CONTINUOUS
100
AcDbSpline
210
0.0
220
0.0
230
1.0
 70
     8
 71
     2
 72
     6
 73
     3
 74
     0
 42
0.0000001
 43
0.0000001
 40
0.0
 40
0.0
 40
0.0
 40
1.0
 40
1.0
 40
1.0
 10
73.422979979919802
 20
98.756668359240166
 30
0.0
 10
73.422979979919802
 20
98.949028641184441
 30
0.0
 10
73.408655195640932
 20
99.026791244944206
 30
0.0
  0
SPLINE
  5
1DE
102
{ACAD_REACTORS
330
31
102
}
100
AcDbEntity
  8
0
  6
CONTINUOUS
100
AcDbSpline
210
0.0
220
0.0
230
1.0
 70
     8
 71
     2
 72
     6
 73
     3
 74
     0
 42
0.0000001
 43
0.0000001
 40
0.0
 40
0.0
 40
0.0
 40
1.0
 40
1.0
 40
1.0
 10
73.408655195640989
 20
99.026791244944206
 30
0.0
 10
73.384098678039976
 20
99.163898617228142
 30
0.0
 10
73.326800136970945
 20
99.255986601313225
 30
0.0
  0
SPLINE
  5
1DF
102
{ACAD_REACTORS
330
31
102
}
100
AcDbEntity
  8
0
  6
CONTINUOUS
100
AcDbSpline
210
0.0
220
0.0
230
1.0
 70
     8
 71
     2
 72
     6
 73
     3
 74
     0
 42
0.0000001
 43
0.0000001
 40
0.0
 40
0.0
 40
0.0
 40
1.0
 40
1.0
 40
1.0
 10
73.326800136970888
 20
99.255986601313211
 30
0.0
 10
73.269501595901858
 20
99.348073393305398
 30
0.0
 10
73.16001978437842
 20
99.407418757876016
 30
0.0
  0
SPLINE
  5
1E0
102
{ACAD_REACTORS
330
31
102
}
100
AcDbEntity
  8
0
  6
CONTINUOUS
100
AcDbSpline
210
0.0
220
0.0
230
1.0
 70
     8
 71
     2
 72
     6
 73
     3
 74
     0
 42
0.0000001
 43
0.0000001
 40
0.0
 40
0.0
 40
0.0
 40
1.0
 40
1.0
 40
1.0
 10
73.160019784378477
 20
99.40741875787603
 30
0.0
 10
73.050537972855039
 20
99.466764122446634
 30
0.0
 10
72.907291322159239
 20
99.466764122446634
 30
0.0
  0
SPLINE
  5
1E1
102
{ACAD_REACTORS
330
31
102
}
100
AcDbEntity
  8
0
  6
CONTINUOUS
100
AcDbSpline
210
0.0
220
0.0
230
1.0
 70
     8
 71
     2
 72
     6
 73
     3
 74
     0
 42
0.0000001
 43
0.0000001
 40
0.0
 40
0.0
 40
0.0
 40
1.0
 40
1.0
 40
1.0
 10
72.90729132215921
 20
99.466764122446619
 30
0.0
 10
72.739487557815949
 20
99.466764122446605
 30
0.0
 10
72.615681558060089
 20
99.380815416773373
 30
0.0
  0
SPLINE
  5
1E2
102
{ACAD_REACTORS
330
31
102
}
100
AcDbEntity
  8
0
  6
CONTINUOUS
100
AcDbSpline
210
0.0
220
0.0
230
1.0
 70
     8
 71
     2
 72
     6
 73
     3
 74
     0
 42
0.0000001
 43
0.0000001
 40
0.0
 40
0.0
 40
0.0
 40
1.0
 40
1.0
 40
1.0
 10
72.615681558060118
 20
99.380815416773387
 30
0.0
 10
72.49187496225781
 20
99.294867903193065
 30
0.0
 10
72.441738515304991
 20
99.142411738833019
 30
0.0
  0
SPLINE
  5
1E3
102
{ACAD_REACTORS
330
31
102
}
100
AcDbEntity
  8
0
  6
CONTINUOUS
100
AcDbSpline
210
0.0
220
0.0
230
1.0
 70
     8
 71
     2
 72
     6
 73
     3
 74
     0
 42
0.0000001
 43
0.0000001
 40
0.0
 40
0.0
 40
0.0
 40
1.0
 40
1.0
 40
1.0
 10
72.441738515304962
 20
99.142411738833005
 30
0.0
 10
72.391602068352142
 20
98.989956170519406
 30
0.0
 10
72.391602068352142
 20
98.703462273081357
 30
0.0
  0
LINE
  5
1E4
102
{ACAD_REACTORS
330
31
102
}
100
AcDbEntity
  8
0
  6
CONTINUOUS
100
AcDbLine
 10
72.391602
 20
98.703462
 30
0.0
 11
72.391602
 21
98.009738
 31
0.0
  0
LINE
  5
1E5
102
{ACAD_REACTORS
330
31
102
}
100
AcDbEntity
  8
0
  6
CONTINUOUS
100
AcDbLine
 10
72.391602
 20
98.009738
 30
0.0
 11
73.42298
 21
98.009738
 31
0.0
  0
ENDSEC
  0
SECTION
  2
OBJECTS
  0
DICTIONARY
  5
C
100
AcDbDictionary
  3
ACAD_GROUP
350
D
  3
ACAD_MLINESTYLE
350
1B
  0
DICTIONARY
  5
D
102
{ACAD_REACTORS
330
C
102
}
100
AcDbDictionary
  3
VISIOGROUP_0
350
31
  0
DICTIONARY
  5
1B
102
{ACAD_REACTORS
330
C
102
}
100
AcDbDictionary
  3
STANDARD
350
1C
  0
MLINESTYLE
  5
1C
102
{ACAD_REACTORS
330
1B
102
}
100
AcDbMlineStyle
  2
STANDARD
 70
     0
  3

 62
   256
 51
90.0
 52
90.0
 71
     2
 49
0.5
 62
   256
  6
BYLAYER
 49
-0.5
 62
   256
  6
BYLAYER
  0
DICTIONARY
  5
29
102
{ACAD_REACTORS
330
C
102
}
100
AcDbDictionary
  3
MODEL
350
2A
  3
LAYOUT1
350
2B
  0
DICTIONARY
  5
2C
102
{ACAD_REACTORS
330
C
102
}
100
AcDbDictionary
  0
GROUP
  5
31
102
{ACAD_REACTORS
330
D
102
}
100
AcDbGroup
300
Group created by Visio.
 70
     0
 71
     1
340
32
340
33
340
34
340
35
340
36
340
37
340
38
340
39
340
3A
340
3B
340
3C
340
3D
340
3E
340
3F
340
40
340
41
340
42
340
43
340
44
340
45
340
46
340
47
340
48
340
49
340
4A
340
4B
340
4C
340
4D
340
4E
340
4F
340
50
340
51
340
52
340
53
340
54
340
55
340
56
340
57
340
58
340
59
340
5A
340
5B
340
5C
340
5D
340
5E
340
5F
340
60
340
61
340
62
340
63
340
64
340
65
340
66
340
67
340
68
340
69
340
6A
340
6B
340
6C
340
6D
340
6E
340
6F
340
70
340
71
340
72
340
73
340
74
340
75
340
76
340
77
340
78
340
79
340
7A
340
7B
340
7C
340
7D
340
7E
340
7F
340
80
340
81
340
82
340
83
340
84
340
85
340
86
340
87
340
88
340
89
340
8A
340
8B
340
8C
340
8D
340
8E
340
8F
340
90
340
91
340
92
340
93
340
94
340
95
340
96
340
97
340
98
340
99
340
9A
340
9B
340
9C
340
9D
340
9E
340
9F
340
A0
340
A1
340
A2
340
A3
340
A4
340
A5
340
A6
340
A7
340
A8
340
A9
340
AA
340
AB
340
AC
340
AD
340
AE
340
AF
340
B0
340
B1
340
B2
340
B3
340
B4
340
B5
340
B6
340
B7
340
B8
340
B9
340
BA
340
BB
340
BC
340
BD
340
BE
340
BF
340
C0
340
C1
340
C2
340
C3
340
C4
340
C5
340
C6
340
C7
340
C8
340
C9
340
CA
340
CB
340
CC
340
CD
340
CE
340
CF
340
D0
340
D1
340
D2
340
D3
340
D4
340
D5
340
D6
340
D7
340
D8
340
D9
340
DA
340
DB
340
DC
340
DD
340
DE
340
DF
340
E0
340
E1
340
E2
340
E3
340
E4
340
E5
340
E6
340
E7
340
E8
340
E9
340
EA
340
EB
340
EC
340
ED
340
EE
340
EF
340
F0
340
F1
340
F2
340
F3
340
F4
340
F5
340
F6
340
F7
340
F8
340
F9
340
FA
340
FB
340
FC
340
FD
340
FE
340
FF
340
100
340
101
340
102
340
103
340
104
340
105
340
106
340
107
340
108
340
109
340
10A
340
10B
340
10C
340
10D
340
10E
340
10F
340
110
340
111
340
112
340
113
340
114
340
115
340
116
340
117
340
118
340
119
340
11A
340
11B
340
11C
340
11D
340
11E
340
11F
340
120
340
121
340
122
340
123
340
124
340
125
340
126
340
127
340
128
340
129
340
12A
340
12B
340
12C
340
12D
340
12E
340
12F
340
130
340
131
340
132
340
133
340
134
340
135
340
136
340
137
340
138
340
139
340
13A
340
13B
340
13C
340
13D
340
13E
340
13F
340
140
340
141
340
142
340
143
340
144
340
145
340
146
340
147
340
148
340
149
340
14A
340
14B
340
14C
340
14D
340
14E
340
14F
340
150
340
151
340
152
340
153
340
154
340
155
340
156
340
157
340
158
340
159
340
15A
340
15B
340
15C
340
15D
340
15E
340
15F
340
160
340
161
340
162
340
163
340
164
340
165
340
166
340
167
340
168
340
169
340
16A
340
16B
340
16C
340
16D
340
16E
340
16F
340
170
340
171
340
172
340
173
340
174
340
175
340
176
340
177
340
178
340
179
340
17A
340
17B
340
17C
340
17D
340
17E
340
17F
340
180
340
181
340
182
340
183
340
184
340
185
340
186
340
187
340
188
340
189
340
18A
340
18B
340
18C
340
18D
340
18E
340
18F
340
190
340
191
340
192
340
193
340
194
340
195
340
196
340
197
340
198
340
199
340
19A
340
19B
340
19C
340
19D
340
19E
340
19F
340
1A0
340
1A1
340
1A2
340
1A3
340
1A4
340
1A5
340
1A6
340
1A7
340
1A8
340
1A9
340
1AA
340
1AB
340
1AC
340
1AD
340
1AE
340
1AF
340
1B0
340
1B1
340
1B2
340
1B3
340
1B4
340
1B5
340
1B6
340
1B7
340
1B8
340
1B9
340
1BA
340
1BB
340
1BC
340
1BD
340
1BE
340
1BF
340
1C0
340
1C1
340
1C2
340
1C3
340
1C4
340
1C5
340
1C6
340
1C7
340
1C8
340
1C9
340
1CA
340
1CB
340
1CC
340
1CD
340
1CE
340
1CF
340
1D0
340
1D1
340
1D2
340
1D3
340
1D4
340
1D5
340
1D6
340
1D7
340
1D8
340
1D9
340
1DA
340
1DB
340
1DC
340
1DD
340
1DE
340
1DF
340
1E0
340
1E1
340
1E2
340
1E3
340
1E4
340
1E5
  0
ENDSEC
  0
EOF
