  0
SECTION
  2
HEADER
  9
$ACADVER
  1
AC1014
  9
$ACADMAINTVER
 70
     0
  9
$DWGCODEPAGE
  3
ANSI_1252
  9
$INSBASE
 10
0.0
 20
0.0
 30
0.0
  9
$EXTMIN
 10
0.0
 20
0.0
 30
0.0
  9
$EXTMAX
 10
170.0
 20
220.0
 30
0.0
  9
$LIMMIN
 10
0.0
 20
0.0
  9
$LIMMAX
 10
12.0
 20
9.0
  9
$ORTHOMODE
 70
     0
  9
$REGENMODE
 70
     1
  9
$FILLMODE
 70
     0
  9
$QTEXTMODE
 70
     0
  9
$MIRRTEXT
 70
     1
  9
$DRAGMODE
 70
     2
  9
$LTSCALE
 40
1.0
  9
$OSMODE
 70
    37
  9
$ATTMODE
 70
     1
  9
$TEXTSIZE
 40
0.2
  9
$TRACEWID
 40
0.05
  9
$TEXTSTYLE
  7
STANDARD
  9
$CLAYER
  8
0
  9
$CELTYPE
  6
BYLAYER
  9
$CECOLOR
 62
   256
  9
$CELTSCALE
 40
1.0
  9
$DELOBJ
 70
     1
  9
$DISPSILH
 70
     0
  9
$DIMSCALE
 40
1.0
  9
$DIMASZ
 40
0.18
  9
$DIMEXO
 40
0.0625
  9
$DIMDLI
 40
0.38
  9
$DIMRND
 40
0.0
  9
$DIMDLE
 40
0.0
  9
$DIMEXE
 40
0.18
  9
$DIMTP
 40
0.0
  9
$DIMTM
 40
0.0
  9
$DIMTXT
 40
0.18
  9
$DIMCEN
 40
0.09
  9
$DIMTSZ
 40
0.0
  9
$DIMTOL
 70
     0
  9
$DIMLIM
 70
     0
  9
$DIMTIH
 70
     0
  9
$DIMTOH
 70
     0
  9
$DIMSE1
 70
     0
  9
$DIMSE2
 70
     0
  9
$DIMTAD
 70
     1
  9
$DIMZIN
 70
     0
  9
$DIMBLK
  1

  9
$DIMASO
 70
     1
  9
$DIMSHO
 70
     1
  9
$DIMPOST
  1

  9
$DIMAPOST
  1

  9
$DIMALT
 70
     0
  9
$DIMALTD
 70
     2
  9
$DIMALTF
 40
25.4
  9
$DIMLFAC
 40
1.0
  9
$DIMTOFL
 70
     0
  9
$DIMTVP
 40
0.0
  9
$DIMTIX
 70
     0
  9
$DIMSOXD
 70
     0
  9
$DIMSAH
 70
     0
  9
$DIMBLK1
  1

  9
$DIMBLK2
  1

  9
$DIMSTYLE
  2
STANDARD
  9
$DIMCLRD
 70
     0
  9
$DIMCLRE
 70
     0
  9
$DIMCLRT
 70
     0
  9
$DIMTFAC
 40
1.0
  9
$DIMGAP
 40
0.09
  9
$DIMJUST
 70
     0
  9
$DIMSD1
 70
     0
  9
$DIMSD2
 70
     0
  9
$DIMTOLJ
 70
     1
  9
$DIMTZIN
 70
     0
  9
$DIMALTZ
 70
     0
  9
$DIMALTTZ
 70
     0
  9
$DIMFIT
 70
     5
  9
$DIMUPT
 70
     0
  9
$DIMUNIT
 70
     2
  9
$DIMDEC
 70
     2
  9
$DIMTDEC
 70
     4
  9
$DIMALTU
 70
     2
  9
$DIMALTTD
 70
     2
  9
$DIMTXSTY
  7
STANDARD
  9
$DIMAUNIT
 70
     0
  9
$LUNITS
 70
     2
  9
$LUPREC
 70
     4
  9
$SKETCHINC
 40
0.1
  9
$FILLETRAD
 40
0.5
  9
$AUNITS
 70
     0
  9
$AUPREC
 70
     0
  9
$MENU
  1
.
  9
$ELEVATION
 40
0.0
  9
$PELEVATION
 40
0.0
  9
$THICKNESS
 40
0.0
  9
$LIMCHECK
 70
     0
  9
$BLIPMODE
 70
     0
  9
$CHAMFERA
 40
0.5
  9
$CHAMFERB
 40
0.5
  9
$CHAMFERC
 40
1.0
  9
$CHAMFERD
 40
0.0
  9
$SKPOLY
 70
     0
  9
$TDCREATE
 40
2450772.666465926
  9
$TDUPDATE
 40
2459354.403148148
  9
$TDINDWG
 40
0.0011565046
  9
$TDUSRTIMER
 40
0.0011565046
  9
$USRTIMER
 70
     1
  9
$ANGBASE
 50
0.0
  9
$ANGDIR
 70
     0
  9
$PDMODE
 70
     0
  9
$PDSIZE
 40
0.0
  9
$PLINEWID
 40
0.0
  9
$COORDS
 70
     1
  9
$SPLFRAME
 70
     0
  9
$SPLINETYPE
 70
     6
  9
$SPLINESEGS
 70
     8
  9
$ATTDIA
 70
     0
  9
$ATTREQ
 70
     1
  9
$HANDLING
 70
     1
  9
$HANDSEED
  5
22B
  9
$SURFTAB1
 70
     6
  9
$SURFTAB2
 70
     6
  9
$SURFTYPE
 70
     6
  9
$SURFU
 70
     6
  9
$SURFV
 70
     6
  9
$UCSNAME
  2

  9
$UCSORG
 10
0.0
 20
0.0
 30
0.0
  9
$UCSXDIR
 10
1.0
 20
0.0
 30
0.0
  9
$UCSYDIR
 10
0.0
 20
1.0
 30
0.0
  9
$PUCSNAME
  2

  9
$PUCSORG
 10
0.0
 20
0.0
 30
0.0
  9
$PUCSXDIR
 10
1.0
 20
0.0
 30
0.0
  9
$PUCSYDIR
 10
0.0
 20
1.0
 30
0.0
  9
$USERI1
 70
     0
  9
$USERI2
 70
     0
  9
$USERI3
 70
     0
  9
$USERI4
 70
     0
  9
$USERI5
 70
     0
  9
$USERR1
 40
0.0
  9
$USERR2
 40
0.0
  9
$USERR3
 40
0.0
  9
$USERR4
 40
0.0
  9
$USERR5
 40
0.0
  9
$WORLDVIEW
 70
     1
  9
$SHADEDGE
 70
     3
  9
$SHADEDIF
 70
    70
  9
$TILEMODE
 70
     1
  9
$MAXACTVP
 70
    48
  9
$PINSBASE
 10
0.0
 20
0.0
 30
0.0
  9
$PLIMCHECK
 70
     0
  9
$PEXTMIN
 10
0.0
 20
0.0
 30
0.0
  9
$PEXTMAX
 10
0.0
 20
0.0
 30
0.0
  9
$PLIMMIN
 10
0.0
 20
0.0
  9
$PLIMMAX
 10
12.0
 20
9.0
  9
$UNITMODE
 70
     0
  9
$VISRETAIN
 70
     1
  9
$PLINEGEN
 70
     0
  9
$PSLTSCALE
 70
     1
  9
$TREEDEPTH
 70
  3020
  9
$PICKSTYLE
 70
     1
  9
$CMLSTYLE
  2
STANDARD
  9
$CMLJUST
 70
     0
  9
$CMLSCALE
 40
1.0
  9
$PROXYGRAPHICS
 70
     1
  9
$MEASUREMENT
 70
     0
  0
ENDSEC
  0
SECTION
  2
CLASSES
  0
CLASS
  1
LWPOLYLINE
  2
AcDbPolyline
  3
AutoCAD 2000
 90
       20
280
     0
281
     1
  0
CLASS
  1
IMAGE
  2
AcDbRasterImage
  3
ISM
 90
       21
280
     0
281
     1
  0
CLASS
  1
OLE2FRAME
  2
AcDbOle2Frame
  3
AutoCAD 2000
 90
       21
280
     0
281
     1
  0
CLASS
  1
HATCH
  2
AcDbHatch
  3
AutoCAD 2000
 90
       20
280
     0
281
     1
  0
CLASS
  1
DICTIONARYVAR
  2
AcDbDictionaryVar
  3
ObjectDBX Classes
 90
       20
280
     0
281
     0
  0
CLASS
  1
RASTERVARIABLES
  2
AcDbRasterVariables
  3
ISM
 90
       21
280
     0
281
     0
  0
CLASS
  1
IMAGEDEF
  2
AcDbRasterImageDef
  3
ISM
 90
       21
280
     0
281
     0
  0
CLASS
  1
IMAGEDEF_REACTOR
  2
AcDbRasterImageDefReactor
  3
ISM
 90
       21
280
     0
281
     0
  0
CLASS
  1
IDBUFFER
  2
AcDbIdBuffer
  3
ObjectDBX Classes
 90
       20
280
     0
281
     0
  0
CLASS
  1
SPATIAL_FILTER
  2
AcDbSpatialFilter
  3
ObjectDBX Classes
 90
       20
280
     0
281
     0
  0
CLASS
  1
XRECORD
  2
AcDbXrecord
  3
AutoCAD 2000
 90
       21
280
     0
281
     0
  0
CLASS
  1
SORTENTSTABLE
  2
AcDbSortentsTable
  3
"AutoCAD"
 90
        0
280
     0
281
     0
  0
CLASS
  1
LAYER_INDEX
  2
AcDbLayerIndex
  3
"Acad"
 90
        0
280
     0
281
     0
  0
CLASS
  1
SPATIAL_INDEX
  2
AcDbSpatialIndex
  3
"Acad"
 90
        0
280
     0
281
     0
  0
CLASS
  1
OBJECT_PTR
  2
CAseDLPNTableRecord
  3
"ASE-LPNTableRecord"
 90
        1
280
     0
281
     0
  0
CLASS
  1
LAYOUT
  2
AcDbLayout
  3
"AutoCAD 2000"
 90
        1
280
     0
281
     0
  0
CLASS
  1
PLOTSETTINGS
  2
AcDbPlotsettings
  3
"AutoCAD 2000"
 90
        1
280
     0
281
     0
  0
CLASS
  1
ACDBDICTIONARYWDFLT
  2
AcDbDictionaryWithDefault
  3
"AutoCAD 2000"
 90
        1
280
     0
281
     0
  0
CLASS
  1
ACDBPLACEHOLDER
  2
AcDbPlaceholder
  3
"AutoCAD 2000"
 90
        1
280
     0
281
     0
  0
CLASS
  1
VBA_PROJECT
  2
AcDbVbaProject
  3
"AutoCAD 2000"
 90
        1
280
     0
281
     0
  0
CLASS
  1
WIPEOUT
  2
AcDbWipeout
  3
"AutoCAD 2000"
 90
        1
280
     0
281
     1
  0
CLASS
  1
WIPEOUTVARIABLES
  2
AcDbWipeoutVariables
  3
"AutoCAD 2000"
 90
        1
280
     0
281
     0
  0
CLASS
  1
RTEXT
  2
RText
  3
RText|AutoCAD Express Tool|expresstools@autodesk.com
 90
        1
280
     0
281
     1
  0
CLASS
  1
ARCALIGNEDTEXT
  2
AcDbArcAlignedText
  3
RText|AutoCAD Express Tool|expresstools@autodesk.com
 90
        1
280
     0
281
     1
  0
ENDSEC
  0
SECTION
  2
TABLES
  0
TABLE
  2
VPORT
  5
8
100
AcDbSymbolTable
 70
     1
  0
VPORT
  5
25
100
AcDbSymbolTableRecord
100
AcDbViewportTableRecord
  2
*ACTIVE
 70
     0
 10
0.0
 20
0.0
 11
1.0
 21
1.0
 12
85.0
 22
110.0
 13
0.0
 23
0.0
 14
0.5
 24
0.5
 15
0.5
 25
0.5
 16
0.0
 26
0.0
 36
1.0
 17
0.0
 27
0.0
 37
0.0
 40
220.0
 41
0.772727
 42
50.0
 43
0.0
 44
0.0
 50
0.0
 51
0.0
 71
     0
 72
   100
 73
     1
 74
     1
 75
     0
 76
     0
 77
     0
 78
     0
  0
ENDTAB
  0
TABLE
  2
LTYPE
  5
5
100
AcDbSymbolTable
 70
     3
  0
LTYPE
  5
12
100
AcDbSymbolTableRecord
100
AcDbLinetypeTableRecord
  2
BYBLOCK
 70
     0
  3

 72
    65
 73
     0
 40
0.0
  0
LTYPE
  5
13
100
AcDbSymbolTableRecord
100
AcDbLinetypeTableRecord
  2
BYLAYER
 70
     0
  3

 72
    65
 73
     0
 40
0.0
  0
LTYPE
  5
14
100
AcDbSymbolTableRecord
100
AcDbLinetypeTableRecord
  2
CONTINUOUS
 70
     0
  3
Solid line
 72
    65
 73
     0
 40
0.0
  0
ENDTAB
  0
TABLE
  2
LAYER
  5
2
100
AcDbSymbolTable
 70
     1
  0
LAYER
  5
E
100
AcDbSymbolTableRecord
100
AcDbLayerTableRecord
  2
0
 70
     0
 62
     7
  6
CONTINUOUS
  0
ENDTAB
  0
TABLE
  2
STYLE
  5
3
100
AcDbSymbolTable
 70
     1
  0
STYLE
  5
F
100
AcDbSymbolTableRecord
100
AcDbTextStyleTableRecord
  2
STANDARD
 70
     0
 40
0.0
 41
1.0
 50
0.0
 71
     0
 42
0.2
  3
txt.shx
  4

  0
ENDTAB
  0
TABLE
  2
VIEW
  5
6
100
AcDbSymbolTable
 70
     0
  0
ENDTAB
  0
TABLE
  2
UCS
  5
7
100
AcDbSymbolTable
 70
     0
  0
ENDTAB
  0
TABLE
  2
APPID
  5
9
100
AcDbSymbolTable
 70
     1
  0
APPID
  5
10
100
AcDbSymbolTableRecord
100
AcDbRegAppTableRecord
  2
ACAD
 70
     0
  0
ENDTAB
  0
TABLE
  2
DIMSTYLE
  5
A
100
AcDbSymbolTable
 70
     1
  0
DIMSTYLE
105
1D
100
AcDbSymbolTableRecord
100
AcDbDimStyleTableRecord
  2
STANDARD
 70
     0
  3

  4

  5

  6

  7

 40
1.0
 41
0.18
 42
0.0625
 43
0.38
 44
0.18
 45
0.0
 46
0.0
 47
0.0
 48
0.0
 71
     0
 72
     0
 73
     1
 74
     1
 75
     0
 76
     0
 77
     0
 78
     0
140
0.18
141
0.09
142
0.0
143
25.4
144
1.0
145
0.0
146
1.0
147
0.09
170
     0
171
     2
172
     0
173
     0
174
     0
175
     0
176
     0
177
     0
178
     0
270
     2
271
     4
272
     4
273
     2
274
     2
275
     0
280
     0
281
     0
282
     0
283
     1
284
     0
285
     0
286
     0
287
     3
288
     0
340
F
  0
ENDTAB
  0
TABLE
  2
BLOCK_RECORD
  5
1
100
AcDbSymbolTable
 70
     0
  0
BLOCK_RECORD
  5
18
100
AcDbSymbolTableRecord
100
AcDbBlockTableRecord
  2
*MODEL_SPACE
  0
BLOCK_RECORD
  5
15
100
AcDbSymbolTableRecord
100
AcDbBlockTableRecord
  2
*PAPER_SPACE
  0
ENDTAB
  0
ENDSEC
  0
SECTION
  2
BLOCKS
  0
BLOCK
  5
19
100
AcDbEntity
  8
0
100
AcDbBlockBegin
  2
*MODEL_SPACE
 70
     0
 10
0.0
 20
0.0
 30
0.0
  3
*MODEL_SPACE
  1

  0
ENDBLK
  5
1A
100
AcDbEntity
  8
0
100
AcDbBlockEnd
  0
BLOCK
  5
16
100
AcDbEntity
 67
     1
  8
0
100
AcDbBlockBegin
  2
*PAPER_SPACE
 70
     0
 10
0.0
 20
0.0
 30
0.0
  3
*PAPER_SPACE
  1

  0
ENDBLK
  5
17
100
AcDbEntity
 67
     1
  8
0
100
AcDbBlockEnd
  0
ENDSEC
  0
SECTION
  2
ENTITIES
  0
LINE
  5
32
102
{ACAD_REACTORS
330
31
102
}
100
AcDbEntity
  8
0
  6
CONTINUOUS
100
AcDbLine
 10
34.884007
 20
151.068497
 30
0.0
 11
34.884007
 21
178.428497
 31
0.0
  0
LINE
  5
33
102
{ACAD_REACTORS
330
31
102
}
100
AcDbEntity
  8
0
  6
CONTINUOUS
100
AcDbLine
 10
34.884007
 20
178.428497
 30
0.0
 11
54.884007
 21
178.428497
 31
0.0
  0
LINE
  5
34
102
{ACAD_REACTORS
330
31
102
}
100
AcDbEntity
  8
0
  6
CONTINUOUS
100
AcDbLine
 10
54.884007
 20
178.428497
 30
0.0
 11
54.884007
 21
181.628497
 31
0.0
  0
LINE
  5
35
102
{ACAD_REACTORS
330
31
102
}
100
AcDbEntity
  8
0
  6
CONTINUOUS
100
AcDbLine
 10
54.884007
 20
181.628497
 30
0.0
 11
74.884007
 21
181.628497
 31
0.0
  0
LINE
  5
36
102
{ACAD_REACTORS
330
31
102
}
100
AcDbEntity
  8
0
  6
CONTINUOUS
100
AcDbLine
 10
74.884007
 20
181.628497
 30
0.0
 11
74.884007
 21
178.428497
 31
0.0
  0
LINE
  5
37
102
{ACAD_REACTORS
330
31
102
}
100
AcDbEntity
  8
0
  6
CONTINUOUS
100
AcDbLine
 10
74.884007
 20
178.428497
 30
0.0
 11
95.167347
 21
178.428497
 31
0.0
  0
LINE
  5
38
102
{ACAD_REACTORS
330
31
102
}
100
AcDbEntity
  8
0
  6
CONTINUOUS
100
AcDbLine
 10
95.167347
 20
178.428497
 30
0.0
 11
95.167347
 21
181.628497
 31
0.0
  0
LINE
  5
39
102
{ACAD_REACTORS
330
31
102
}
100
AcDbEntity
  8
0
  6
CONTINUOUS
100
AcDbLine
 10
95.167347
 20
181.628497
 30
0.0
 11
115.167347
 21
181.628497
 31
0.0
  0
LINE
  5
3A
102
{ACAD_REACTORS
330
31
102
}
100
AcDbEntity
  8
0
  6
CONTINUOUS
100
AcDbLine
 10
115.167347
 20
181.628497
 30
0.0
 11
115.167347
 21
178.428497
 31
0.0
  0
LINE
  5
3B
102
{ACAD_REACTORS
330
31
102
}
100
AcDbEntity
  8
0
  6
CONTINUOUS
100
AcDbLine
 10
115.167347
 20
178.428497
 30
0.0
 11
135.167347
 21
178.428497
 31
0.0
  0
LINE
  5
3C
102
{ACAD_REACTORS
330
31
102
}
100
AcDbEntity
  8
0
  6
CONTINUOUS
100
AcDbLine
 10
135.167347
 20
178.428497
 30
0.0
 11
135.167347
 21
41.628497
 31
0.0
  0
LINE
  5
3D
102
{ACAD_REACTORS
330
31
102
}
100
AcDbEntity
  8
0
  6
CONTINUOUS
100
AcDbLine
 10
135.167347
 20
41.628497
 30
0.0
 11
115.167347
 21
41.628497
 31
0.0
  0
LINE
  5
3E
102
{ACAD_REACTORS
330
31
102
}
100
AcDbEntity
  8
0
  6
CONTINUOUS
100
AcDbLine
 10
115.167347
 20
41.628497
 30
0.0
 11
115.167347
 21
38.428497
 31
0.0
  0
LINE
  5
3F
102
{ACAD_REACTORS
330
31
102
}
100
AcDbEntity
  8
0
  6
CONTINUOUS
100
AcDbLine
 10
115.167347
 20
38.428497
 30
0.0
 11
95.167347
 21
38.428497
 31
0.0
  0
LINE
  5
40
102
{ACAD_REACTORS
330
31
102
}
100
AcDbEntity
  8
0
  6
CONTINUOUS
100
AcDbLine
 10
95.167347
 20
38.428497
 30
0.0
 11
95.167347
 21
41.628497
 31
0.0
  0
LINE
  5
41
102
{ACAD_REACTORS
330
31
102
}
100
AcDbEntity
  8
0
  6
CONTINUOUS
100
AcDbLine
 10
95.167347
 20
41.628497
 30
0.0
 11
74.884007
 21
41.628497
 31
0.0
  0
LINE
  5
42
102
{ACAD_REACTORS
330
31
102
}
100
AcDbEntity
  8
0
  6
CONTINUOUS
100
AcDbLine
 10
74.884007
 20
41.628497
 30
0.0
 11
74.884007
 21
38.428497
 31
0.0
  0
LINE
  5
43
102
{ACAD_REACTORS
330
31
102
}
100
AcDbEntity
  8
0
  6
CONTINUOUS
100
AcDbLine
 10
74.884007
 20
38.428497
 30
0.0
 11
54.884007
 21
38.428497
 31
0.0
  0
LINE
  5
44
102
{ACAD_REACTORS
330
31
102
}
100
AcDbEntity
  8
0
  6
CONTINUOUS
100
AcDbLine
 10
54.884007
 20
38.428497
 30
0.0
 11
54.884007
 21
41.628497
 31
0.0
  0
LINE
  5
45
102
{ACAD_REACTORS
330
31
102
}
100
AcDbEntity
  8
0
  6
CONTINUOUS
100
AcDbLine
 10
54.884007
 20
41.628497
 30
0.0
 11
34.884007
 21
41.628497
 31
0.0
  0
LINE
  5
46
102
{ACAD_REACTORS
330
31
102
}
100
AcDbEntity
  8
0
  6
CONTINUOUS
100
AcDbLine
 10
34.884007
 20
41.628497
 30
0.0
 11
34.884007
 21
68.988497
 31
0.0
  0
LINE
  5
47
102
{ACAD_REACTORS
330
31
102
}
100
AcDbEntity
  8
0
  6
CONTINUOUS
100
AcDbLine
 10
34.884007
 20
68.988497
 30
0.0
 11
42.609488
 21
68.988497
 31
0.0
  0
LINE
  5
48
102
{ACAD_REACTORS
330
31
102
}
100
AcDbEntity
  8
0
  6
CONTINUOUS
100
AcDbLine
 10
42.609489
 20
68.988497
 30
0.0
 11
42.609489
 21
96.348497
 31
0.0
  0
LINE
  5
49
102
{ACAD_REACTORS
330
31
102
}
100
AcDbEntity
  8
0
  6
CONTINUOUS
100
AcDbLine
 10
42.609491
 20
96.348497
 30
0.0
 11
34.884007
 21
96.348497
 31
0.0
  0
LINE
  5
4A
102
{ACAD_REACTORS
330
31
102
}
100
AcDbEntity
  8
0
  6
CONTINUOUS
100
AcDbLine
 10
34.884007
 20
96.348497
 30
0.0
 11
34.884007
 21
123.708497
 31
0.0
  0
LINE
  5
4B
102
{ACAD_REACTORS
330
31
102
}
100
AcDbEntity
  8
0
  6
CONTINUOUS
100
AcDbLine
 10
34.884007
 20
123.708497
 30
0.0
 11
42.609491
 21
123.708497
 31
0.0
  0
LINE
  5
4C
102
{ACAD_REACTORS
330
31
102
}
100
AcDbEntity
  8
0
  6
CONTINUOUS
100
AcDbLine
 10
42.609491
 20
123.708497
 30
0.0
 11
42.609491
 21
151.068497
 31
0.0
  0
LINE
  5
4D
102
{ACAD_REACTORS
330
31
102
}
100
AcDbEntity
  8
0
  6
CONTINUOUS
100
AcDbLine
 10
42.609491
 20
151.068497
 30
0.0
 11
34.884007
 21
151.068497
 31
0.0
  0
LWPOLYLINE
  5
4E
102
{ACAD_REACTORS
330
31
102
}
100
AcDbEntity
  8
0
  6
CONTINUOUS
100
AcDbPolyline
 90
       13
 70
     0
 10
60.423584
 20
95.519903
 10
63.423583
 20
95.518013
 10
63.423833
 20
95.915011
 10
62.009782
 20
95.915902
 10
62.010764
 20
97.475247
 10
63.424816
 20
97.474356
 10
63.425066
 20
97.871354
 10
60.425066
 20
97.873244
 10
60.424816
 20
97.476246
 10
61.65674
 20
97.47547
 10
61.655757
 20
95.916125
 10
60.423834
 20
95.916901
 10
60.423584
 20
95.519903
  0
SPLINE
  5
4F
102
{ACAD_REACTORS
330
31
102
}
100
AcDbEntity
  8
0
  6
CONTINUOUS
100
AcDbSpline
210
0.0
220
0.0
230
1.0
 70
     8
 71
     2
 72
     6
 73
     3
 74
     0
 42
0.0000001
 43
0.0000001
 40
0.0
 40
0.0
 40
0.0
 40
1.0
 40
1.0
 40
1.0
 10
62.338736292519229
 20
98.348847339655194
 30
0.0
 10
61.735052821424347
 20
98.349227649181898
 30
0.0
 10
61.44467735724561
 20
98.685018175688327
 30
0.0
  0
SPLINE
  5
50
102
{ACAD_REACTORS
330
31
102
}
100
AcDbEntity
  8
0
  6
CONTINUOUS
100
AcDbSpline
210
0.0
220
0.0
230
1.0
 70
     8
 71
     2
 72
     6
 73
     3
 74
     0
 42
0.0000001
 43
0.0000001
 40
0.0
 40
0.0
 40
0.0
 40
1.0
 40
1.0
 40
1.0
 10
61.444677357245723
 20
98.685018175688327
 30
0.0
 10
61.203380705880022
 20
98.965524266770643
 30
0.0
 10
61.203634674884142
 20
99.368661393804004
 30
0.0
  0
SPLINE
  5
51
102
{ACAD_REACTORS
330
31
102
}
100
AcDbEntity
  8
0
  6
CONTINUOUS
100
AcDbSpline
210
0.0
220
0.0
230
1.0
 70
     8
 71
     2
 72
     6
 73
     3
 74
     0
 42
0.0000001
 43
0.0000001
 40
0.0
 40
0.0
 40
0.0
 40
1.0
 40
1.0
 40
1.0
 10
61.203634674884086
 20
99.36866139380399
 30
0.0
 10
61.203917006774361
 20
99.816820284287928
 30
0.0
 10
61.497752732887591
 20
100.10108289959211
 30
0.0
  0
SPLINE
  5
52
102
{ACAD_REACTORS
330
31
102
}
100
AcDbEntity
  8
0
  6
CONTINUOUS
100
AcDbSpline
210
0.0
220
0.0
230
1.0
 70
     8
 71
     2
 72
     6
 73
     3
 74
     0
 42
0.0000001
 43
0.0000001
 40
0.0
 40
0.0
 40
0.0
 40
1.0
 40
1.0
 40
1.0
 10
61.497752732887591
 20
100.10108289959211
 30
0.0
 10
61.791587862203357
 20
100.38534432317911
 30
0.0
 10
62.309323240726997
 20
100.3850181593761
 30
0.0
  0
SPLINE
  5
53
102
{ACAD_REACTORS
330
31
102
}
100
AcDbEntity
  8
0
  6
CONTINUOUS
100
AcDbSpline
210
0.0
220
0.0
230
1.0
 70
     8
 71
     2
 72
     6
 73
     3
 74
     0
 42
0.0000001
 43
0.0000001
 40
0.0
 40
0.0
 40
0.0
 40
1.0
 40
1.0
 40
1.0
 10
62.309323240727053
 20
100.3850181593761
 30
0.0
 10
62.728831972292028
 20
100.38475387656104
 30
0.0
 10
62.969203141813182
 20
100.25875079098972
 30
0.0
  0
SPLINE
  5
54
102
{ACAD_REACTORS
330
31
102
}
100
AcDbEntity
  8
0
  6
CONTINUOUS
100
AcDbSpline
210
0.0
220
0.0
230
1.0
 70
     8
 71
     2
 72
     6
 73
     3
 74
     0
 42
0.0000001
 43
0.0000001
 40
0.0
 40
0.0
 40
0.0
 40
1.0
 40
1.0
 40
1.0
 10
62.969203141813125
 20
100.25875079098972
 30
0.0
 10
63.209573714537044
 20
100.13274651370125
 30
0.0
 10
63.342437125759318
 20
99.892211666983229
 30
0.0
  0
SPLINE
  5
55
102
{ACAD_REACTORS
330
31
102
}
100
AcDbEntity
  8
0
  6
CONTINUOUS
100
AcDbSpline
210
0.0
220
0.0
230
1.0
 70
     8
 71
     2
 72
     6
 73
     3
 74
     0
 42
0.0000001
 43
0.0000001
 40
0.0
 40
0.0
 40
0.0
 40
1.0
 40
1.0
 40
1.0
 10
63.342437125759318
 20
99.892211666983229
 30
0.0
 10
63.475300537732721
 20
99.651678012357863
 30
0.0
 10
63.47512134094751
 20
99.367230398820283
 30
0.0
  0
SPLINE
  5
56
102
{ACAD_REACTORS
330
31
102
}
100
AcDbEntity
  8
0
  6
CONTINUOUS
100
AcDbSpline
210
0.0
220
0.0
230
1.0
 70
     8
 71
     2
 72
     6
 73
     3
 74
     0
 42
0.0000001
 43
0.0000001
 40
0.0
 40
0.0
 40
0.0
 40
1.0
 40
1.0
 40
1.0
 10
63.47512134094751
 20
99.367230398820283
 30
0.0
 10
63.474833853466009
 20
98.910887792232643
 30
0.0
 10
63.182024068763042
 20
98.629694170419242
 30
0.0
  0
SPLINE
  5
57
102
{ACAD_REACTORS
330
31
102
}
100
AcDbEntity
  8
0
  6
CONTINUOUS
100
AcDbSpline
210
0.0
220
0.0
230
1.0
 70
     8
 71
     2
 72
     6
 73
     3
 74
     0
 42
0.0000001
 43
0.0000001
 40
0.0
 40
0.0
 40
0.0
 40
1.0
 40
1.0
 40
1.0
 10
63.182024068763099
 20
98.629694170419242
 30
0.0
 10
62.889213688013797
 20
98.348500548981349
 30
0.0
 10
62.338736292519343
 20
98.348847339655194
 30
0.0
  0
SPLINE
  5
58
102
{ACAD_REACTORS
330
31
102
}
100
AcDbEntity
  8
0
  6
CONTINUOUS
100
AcDbSpline
210
0.0
220
0.0
230
1.0
 70
     8
 71
     2
 72
     6
 73
     3
 74
     0
 42
0.0000001
 43
0.0000001
 40
0.0
 40
0.0
 40
0.0
 40
1.0
 40
1.0
 40
1.0
 10
62.338974791745954
 20
98.72742855000682
 30
0.0
 10
62.756437296261879
 20
98.727165556277313
 30
0.0
 10
62.964259874222762
 20
98.90916262057759
 30
0.0
  0
SPLINE
  5
59
102
{ACAD_REACTORS
330
31
102
}
100
AcDbEntity
  8
0
  6
CONTINUOUS
100
AcDbSpline
210
0.0
220
0.0
230
1.0
 70
     8
 71
     2
 72
     6
 73
     3
 74
     0
 42
0.0000001
 43
0.0000001
 40
0.0
 40
0.0
 40
0.0
 40
1.0
 40
1.0
 40
1.0
 10
62.964259874222762
 20
98.90916262057759
 30
0.0
 10
63.172082452183645
 20
99.091159684877866
 30
0.0
 10
63.172256491875601
 20
99.367421198126422
 30
0.0
  0
SPLINE
  5
5A
102
{ACAD_REACTORS
330
31
102
}
100
AcDbEntity
  8
0
  6
CONTINUOUS
100
AcDbSpline
210
0.0
220
0.0
230
1.0
 70
     8
 71
     2
 72
     6
 73
     3
 74
     0
 42
0.0000001
 43
0.0000001
 40
0.0
 40
0.0
 40
0.0
 40
1.0
 40
1.0
 40
1.0
 10
63.172256491875544
 20
99.367421198126408
 30
0.0
 10
63.17242924285739
 20
99.641637080372192
 30
0.0
 10
62.963812728600999
 20
99.823897685764123
 30
0.0
  0
SPLINE
  5
5B
102
{ACAD_REACTORS
330
31
102
}
100
AcDbEntity
  8
0
  6
CONTINUOUS
100
AcDbSpline
210
0.0
220
0.0
230
1.0
 70
     8
 71
     2
 72
     6
 73
     3
 74
     0
 42
0.0000001
 43
0.0000001
 40
0.0
 40
0.0
 40
0.0
 40
1.0
 40
1.0
 40
1.0
 10
62.963812728600942
 20
99.823897685764123
 30
0.0
 10
62.75519680963987
 20
100.00615709868788
 30
0.0
 10
62.327501977785801
 20
100.00642653859614
 30
0.0
  0
SPLINE
  5
5C
102
{ACAD_REACTORS
330
31
102
}
100
AcDbEntity
  8
0
  6
CONTINUOUS
100
AcDbSpline
210
0.0
220
0.0
230
1.0
 70
     8
 71
     2
 72
     6
 73
     3
 74
     0
 42
0.0000001
 43
0.0000001
 40
0.0
 40
0.0
 40
0.0
 40
1.0
 40
1.0
 40
1.0
 10
62.327501977785914
 20
100.00642653859614
 30
0.0
 10
61.924364254706234
 20
100.00668050797579
 30
0.0
 10
61.716541031639395
 20
99.823659436081485
 30
0.0
  0
SPLINE
  5
5D
102
{ACAD_REACTORS
330
31
102
}
100
AcDbEntity
  8
0
  6
CONTINUOUS
100
AcDbSpline
210
0.0
220
0.0
230
1.0
 70
     8
 71
     2
 72
     6
 73
     3
 74
     0
 42
0.0000001
 43
0.0000001
 40
0.0
 40
0.0
 40
0.0
 40
1.0
 40
1.0
 40
1.0
 10
61.716541031639395
 20
99.823659436081499
 30
0.0
 10
61.508717808572555
 20
99.640638364187197
 30
0.0
 10
61.508546347051606
 20
99.368469305036811
 30
0.0
  0
SPLINE
  5
5E
102
{ACAD_REACTORS
330
31
102
}
100
AcDbEntity
  8
0
  6
CONTINUOUS
100
AcDbSpline
210
0.0
220
0.0
230
1.0
 70
     8
 71
     2
 72
     6
 73
     3
 74
     0
 42
0.0000001
 43
0.0000001
 40
0.0
 40
0.0
 40
0.0
 40
1.0
 40
1.0
 40
1.0
 10
61.508546347051606
 20
99.368469305036797
 30
0.0
 10
61.508372307359636
 20
99.09220779178824
 30
0.0
 10
61.714941999271673
 20
98.909949667950031
 30
0.0
  0
SPLINE
  5
5F
102
{ACAD_REACTORS
330
31
102
}
100
AcDbEntity
  8
0
  6
CONTINUOUS
100
AcDbSpline
210
0.0
220
0.0
230
1.0
 70
     8
 71
     2
 72
     6
 73
     3
 74
     0
 42
0.0000001
 43
0.0000001
 40
0.0
 40
0.0
 40
0.0
 40
1.0
 40
1.0
 40
1.0
 10
61.714941999271616
 20
98.909949667950031
 30
0.0
 10
61.921512287229973
 20
98.727691543736327
 30
0.0
 10
62.338974791745898
 20
98.727428550006806
 30
0.0
  0
LINE
  5
60
102
{ACAD_REACTORS
330
31
102
}
100
AcDbEntity
  8
0
  6
CONTINUOUS
100
AcDbLine
 10
63.427818
 20
102.240386
 30
0.0
 11
63.108582
 21
102.240587
 31
0.0
  0
SPLINE
  5
61
102
{ACAD_REACTORS
330
31
102
}
100
AcDbEntity
  8
0
  6
CONTINUOUS
100
AcDbSpline
210
0.0
220
0.0
230
1.0
 70
     8
 71
     2
 72
     6
 73
     3
 74
     0
 42
0.0000001
 43
0.0000001
 40
0.0
 40
0.0
 40
0.0
 40
1.0
 40
1.0
 40
1.0
 10
63.108582473734373
 20
102.24058695802367
 30
0.0
 10
63.476771498123412
 20
101.98660367740631
 30
0.0
 10
63.476496901497512
 20
101.55072334130956
 30
0.0
  0
SPLINE
  5
62
102
{ACAD_REACTORS
330
31
102
}
100
AcDbEntity
  8
0
  6
CONTINUOUS
100
AcDbSpline
210
0.0
220
0.0
230
1.0
 70
     8
 71
     2
 72
     6
 73
     3
 74
     0
 42
0.0000001
 43
0.0000001
 40
0.0
 40
0.0
 40
0.0
 40
1.0
 40
1.0
 40
1.0
 10
63.476496901497569
 20
101.55072334130958
 30
0.0
 10
63.476375718443649
 20
101.35836369358329
 30
0.0
 10
63.402601111338356
 20
101.19162918849946
 30
0.0
  0
SPLINE
  5
63
102
{ACAD_REACTORS
330
31
102
}
100
AcDbEntity
  8
0
  6
CONTINUOUS
100
AcDbSpline
210
0.0
220
0.0
230
1.0
 70
     8
 71
     2
 72
     6
 73
     3
 74
     0
 42
0.0000001
 43
0.0000001
 40
0.0
 40
0.0
 40
0.0
 40
1.0
 40
1.0
 40
1.0
 10
63.402601111338413
 20
101.19162918849946
 30
0.0
 10
63.328825908186673
 20
101.02489468379116
 30
0.0
 10
63.217246969268444
 20
100.94413390956564
 30
0.0
  0
SPLINE
  5
64
102
{ACAD_REACTORS
330
31
102
}
100
AcDbEntity
  8
0
  6
CONTINUOUS
100
AcDbSpline
210
0.0
220
0.0
230
1.0
 70
     8
 71
     2
 72
     6
 73
     3
 74
     0
 42
0.0000001
 43
0.0000001
 40
0.0
 40
0.0
 40
0.0
 40
1.0
 40
1.0
 40
1.0
 10
63.217246969268388
 20
100.94413390956564
 30
0.0
 10
63.105668624894577
 20
100.86337075077931
 30
0.0
 10
62.943983544172795
 20
100.83073057945263
 30
0.0
  0
SPLINE
  5
65
102
{ACAD_REACTORS
330
31
102
}
100
AcDbEntity
  8
0
  6
CONTINUOUS
100
AcDbSpline
210
0.0
220
0.0
230
1.0
 70
     8
 71
     2
 72
     6
 73
     3
 74
     0
 42
0.0000001
 43
0.0000001
 40
0.0
 40
0.0
 40
0.0
 40
1.0
 40
1.0
 40
1.0
 10
62.943983544172795
 20
100.83073057945262
 30
0.0
 10
62.835510985605936
 20
100.80828981265755
 30
0.0
 10
62.600176397524535
 20
100.80843806913649
 30
0.0
  0
LINE
  5
66
102
{ACAD_REACTORS
330
31
102
}
100
AcDbEntity
  8
0
  6
CONTINUOUS
100
AcDbLine
 10
62.600176
 20
100.808438
 30
0.0
 11
61.253656
 21
100.809286
 31
0.0
  0
LINE
  5
67
102
{ACAD_REACTORS
330
31
102
}
100
AcDbEntity
  8
0
  6
CONTINUOUS
100
AcDbLine
 10
61.253656
 20
100.809286
 30
0.0
 11
61.253888
 21
101.177635
 31
0.0
  0
LINE
  5
68
102
{ACAD_REACTORS
330
31
102
}
100
AcDbEntity
  8
0
  6
CONTINUOUS
100
AcDbLine
 10
61.253888
 20
101.177635
 30
0.0
 11
62.459208
 21
101.176875
 31
0.0
  0
SPLINE
  5
69
102
{ACAD_REACTORS
330
31
102
}
100
AcDbEntity
  8
0
  6
CONTINUOUS
100
AcDbSpline
210
0.0
220
0.0
230
1.0
 70
     8
 71
     2
 72
     6
 73
     3
 74
     0
 42
0.0000001
 43
0.0000001
 40
0.0
 40
0.0
 40
0.0
 40
1.0
 40
1.0
 40
1.0
 10
62.459208054975534
 20
101.17687530976573
 30
0.0
 10
62.74774812261137
 20
101.17669353480947
 30
0.0
 10
62.848035177686484
 20
101.1991406504149
 30
0.0
  0
SPLINE
  5
6A
102
{ACAD_REACTORS
330
31
102
}
100
AcDbEntity
  8
0
  6
CONTINUOUS
100
AcDbSpline
210
0.0
220
0.0
230
1.0
 70
     8
 71
     2
 72
     6
 73
     3
 74
     0
 42
0.0000001
 43
0.0000001
 40
0.0
 40
0.0
 40
0.0
 40
1.0
 40
1.0
 40
1.0
 10
62.84803517768654
 20
101.19914065041489
 30
0.0
 10
62.993350539384039
 20
101.2338379582724
 30
0.0
 10
63.076299898696504
 20
101.34633717475964
 30
0.0
  0
SPLINE
  5
6B
102
{ACAD_REACTORS
330
31
102
}
100
AcDbEntity
  8
0
  6
CONTINUOUS
100
AcDbSpline
210
0.0
220
0.0
230
1.0
 70
     8
 71
     2
 72
     6
 73
     3
 74
     0
 42
0.0000001
 43
0.0000001
 40
0.0
 40
0.0
 40
0.0
 40
1.0
 40
1.0
 40
1.0
 10
63.076299898696504
 20
101.34633717475965
 30
0.0
 10
63.159249257257841
 20
101.45883519915425
 30
0.0
 10
63.15935368182403
 20
101.62459329919605
 30
0.0
  0
SPLINE
  5
6C
102
{ACAD_REACTORS
330
31
102
}
100
AcDbEntity
  8
0
  6
CONTINUOUS
100
AcDbSpline
210
0.0
220
0.0
230
1.0
 70
     8
 71
     2
 72
     6
 73
     3
 74
     0
 42
0.0000001
 43
0.0000001
 40
0.0
 40
0.0
 40
0.0
 40
1.0
 40
1.0
 40
1.0
 10
63.159353681823973
 20
101.62459329919605
 30
0.0
 10
63.159458105639146
 20
101.79035020714517
 30
0.0
 10
63.074624956824209
 20
101.9356971535039
 30
0.0
  0
SPLINE
  5
6D
102
{ACAD_REACTORS
330
31
102
}
100
AcDbEntity
  8
0
  6
CONTINUOUS
100
AcDbSpline
210
0.0
220
0.0
230
1.0
 70
     8
 71
     2
 72
     6
 73
     3
 74
     0
 42
0.0000001
 43
0.0000001
 40
0.0
 40
0.0
 40
0.0
 40
1.0
 40
1.0
 40
1.0
 10
63.074624956824323
 20
101.9356971535039
 30
0.0
 10
62.989791807258257
 20
102.08104290776996
 30
0.0
 10
62.84351298156048
 20
102.14150384905108
 30
0.0
  0
SPLINE
  5
6E
102
{ACAD_REACTORS
330
31
102
}
100
AcDbEntity
  8
0
  6
CONTINUOUS
100
AcDbSpline
210
0.0
220
0.0
230
1.0
 70
     8
 71
     2
 72
     6
 73
     3
 74
     0
 42
0.0000001
 43
0.0000001
 40
0.0
 40
0.0
 40
0.0
 40
1.0
 40
1.0
 40
1.0
 10
62.843512981560366
 20
102.14150384905108
 30
0.0
 10
62.697234751908923
 20
102.20196478995669
 30
0.0
 10
62.418926415565011
 20
102.20214011910969
 30
0.0
  0
LINE
  5
6F
102
{ACAD_REACTORS
330
31
102
}
100
AcDbEntity
  8
0
  6
CONTINUOUS
100
AcDbLine
 10
62.418926
 20
102.20214
 30
0.0
 11
61.254534
 21
102.202874
 31
0.0
  0
LINE
  5
70
102
{ACAD_REACTORS
330
31
102
}
100
AcDbEntity
  8
0
  6
CONTINUOUS
100
AcDbLine
 10
61.254534
 20
102.202874
 30
0.0
 11
61.254766
 21
102.571223
 31
0.0
  0
LINE
  5
71
102
{ACAD_REACTORS
330
31
102
}
100
AcDbEntity
  8
0
  6
CONTINUOUS
100
AcDbLine
 10
61.254766
 20
102.571223
 30
0.0
 11
63.428026
 21
102.569854
 31
0.0
  0
LINE
  5
72
102
{ACAD_REACTORS
330
31
102
}
100
AcDbEntity
  8
0
  6
CONTINUOUS
100
AcDbLine
 10
63.428026
 20
102.569854
 30
0.0
 11
63.427818
 21
102.240386
 31
0.0
  0
LINE
  5
73
102
{ACAD_REACTORS
330
31
102
}
100
AcDbEntity
  8
0
  6
CONTINUOUS
100
AcDbLine
 10
62.779593
 20
103.000003
 30
0.0
 11
62.722524
 21
103.364296
 31
0.0
  0
SPLINE
  5
74
102
{ACAD_REACTORS
330
31
102
}
100
AcDbEntity
  8
0
  6
CONTINUOUS
100
AcDbSpline
210
0.0
220
0.0
230
1.0
 70
     8
 71
     2
 72
     6
 73
     3
 74
     0
 42
0.0000001
 43
0.0000001
 40
0.0
 40
0.0
 40
0.0
 40
1.0
 40
1.0
 40
1.0
 10
62.722523521555445
 20
103.36429569063557
 30
0.0
 10
62.941505842514971
 20
103.39485294184288
 30
0.0
 10
63.058238034690476
 20
103.53495763409998
 30
0.0
  0
SPLINE
  5
75
102
{ACAD_REACTORS
330
31
102
}
100
AcDbEntity
  8
0
  6
CONTINUOUS
100
AcDbSpline
210
0.0
220
0.0
230
1.0
 70
     8
 71
     2
 72
     6
 73
     3
 74
     0
 42
0.0000001
 43
0.0000001
 40
0.0
 40
0.0
 40
0.0
 40
1.0
 40
1.0
 40
1.0
 10
63.058238034690419
 20
103.53495763409997
 30
0.0
 10
63.174970226865923
 20
103.67506232635705
 30
0.0
 10
63.17512879527834
 20
103.92676553873855
 30
0.0
  0
SPLINE
  5
76
102
{ACAD_REACTORS
330
31
102
}
100
AcDbEntity
  8
0
  6
CONTINUOUS
100
AcDbSpline
210
0.0
220
0.0
230
1.0
 70
     8
 71
     2
 72
     6
 73
     3
 74
     0
 42
0.0000001
 43
0.0000001
 40
0.0
 40
0.0
 40
0.0
 40
1.0
 40
1.0
 40
1.0
 10
63.17512879527834
 20
103.92676553873856
 30
0.0
 10
63.1752886554047
 20
104.18051915049348
 30
0.0
 10
63.072023492439428
 20
104.30336502988438
 30
0.0
  0
SPLINE
  5
77
102
{ACAD_REACTORS
330
31
102
}
100
AcDbEntity
  8
0
  6
CONTINUOUS
100
AcDbSpline
210
0.0
220
0.0
230
1.0
 70
     8
 71
     2
 72
     6
 73
     3
 74
     0
 42
0.0000001
 43
0.0000001
 40
0.0
 40
0.0
 40
0.0
 40
1.0
 40
1.0
 40
1.0
 10
63.072023492439428
 20
104.30336502988438
 30
0.0
 10
62.968758928524323
 20
104.42621567727041
 30
0.0
 10
62.829604760352311
 20
104.42630334184692
 30
0.0
  0
SPLINE
  5
78
102
{ACAD_REACTORS
330
31
102
}
100
AcDbEntity
  8
0
  6
CONTINUOUS
100
AcDbSpline
210
0.0
220
0.0
230
1.0
 70
     8
 71
     2
 72
     6
 73
     3
 74
     0
 42
0.0000001
 43
0.0000001
 40
0.0
 40
0.0
 40
0.0
 40
1.0
 40
1.0
 40
1.0
 10
62.829604760352311
 20
104.42630334184692
 30
0.0
 10
62.704775373616656
 20
104.42638198207356
 30
0.0
 10
62.633083139268535
 20
104.31796812952619
 30
0.0
  0
SPLINE
  5
79
102
{ACAD_REACTORS
330
31
102
}
100
AcDbEntity
  8
0
  6
CONTINUOUS
100
AcDbSpline
210
0.0
220
0.0
230
1.0
 70
     8
 71
     2
 72
     6
 73
     3
 74
     0
 42
0.0000001
 43
0.0000001
 40
0.0
 40
0.0
 40
0.0
 40
1.0
 40
1.0
 40
1.0
 10
62.633083139268535
 20
104.31796812952619
 30
0.0
 10
62.583922413516405
 20
104.24228211250652
 30
0.0
 10
62.508016541265249
 20
103.94150999831132
 30
0.0
  0
SPLINE
  5
7A
102
{ACAD_REACTORS
330
31
102
}
100
AcDbEntity
  8
0
  6
CONTINUOUS
100
AcDbSpline
210
0.0
220
0.0
230
1.0
 70
     8
 71
     2
 72
     6
 73
     3
 74
     0
 42
0.0000001
 43
0.0000001
 40
0.0
 40
0.0
 40
0.0
 40
1.0
 40
1.0
 40
1.0
 10
62.508016541265249
 20
103.94150999831132
 30
0.0
 10
62.405442182494369
 20
103.53639169943429
 30
0.0
 10
62.330650610395594
 20
103.37989076246544
 30
0.0
  0
SPLINE
  5
7B
102
{ACAD_REACTORS
330
31
102
}
100
AcDbEntity
  8
0
  6
CONTINUOUS
100
AcDbSpline
210
0.0
220
0.0
230
1.0
 70
     8
 71
     2
 72
     6
 73
     3
 74
     0
 42
0.0000001
 43
0.0000001
 40
0.0
 40
0.0
 40
0.0
 40
1.0
 40
1.0
 40
1.0
 10
62.330650610395594
 20
103.37989076246544
 30
0.0
 10
62.255859038296705
 20
103.22338982549657
 30
0.0
 10
62.123816039246719
 20
103.14263955906776
 30
0.0
  0
SPLINE
  5
7C
102
{ACAD_REACTORS
330
31
102
}
100
AcDbEntity
  8
0
  6
CONTINUOUS
100
AcDbSpline
210
0.0
220
0.0
230
1.0
 70
     8
 71
     2
 72
     6
 73
     3
 74
     0
 42
0.0000001
 43
0.0000001
 40
0.0
 40
0.0
 40
0.0
 40
1.0
 40
1.0
 40
1.0
 10
62.123816039246719
 20
103.14263955906776
 30
0.0
 10
61.991773637744984
 20
103.06189167644877
 30
0.0
 10
61.83215541094313
 20
103.06199223300729
 30
0.0
  0
SPLINE
  5
7D
102
{ACAD_REACTORS
330
31
102
}
100
AcDbEntity
  8
0
  6
CONTINUOUS
100
AcDbSpline
210
0.0
220
0.0
230
1.0
 70
     8
 71
     2
 72
     6
 73
     3
 74
     0
 42
0.0000001
 43
0.0000001
 40
0.0
 40
0.0
 40
0.0
 40
1.0
 40
1.0
 40
1.0
 10
61.83215541094313
 20
103.06199223300729
 30
0.0
 10
61.686861965577521
 20
103.06208376521595
 30
0.0
 10
61.563097888486197
 20
103.12866861015493
 30
0.0
  0
SPLINE
  5
7E
102
{ACAD_REACTORS
330
31
102
}
100
AcDbEntity
  8
0
  6
CONTINUOUS
100
AcDbSpline
210
0.0
220
0.0
230
1.0
 70
     8
 71
     2
 72
     6
 73
     3
 74
     0
 42
0.0000001
 43
0.0000001
 40
0.0
 40
0.0
 40
0.0
 40
1.0
 40
1.0
 40
1.0
 10
61.563097888486141
 20
103.12866861015493
 30
0.0
 10
61.439333811394818
 20
103.1952534550939
 30
0.0
 10
61.357550367720478
 20
103.30990327413673
 30
0.0
  0
SPLINE
  5
7F
102
{ACAD_REACTORS
330
31
102
}
100
AcDbEntity
  8
0
  6
CONTINUOUS
100
AcDbSpline
210
0.0
220
0.0
230
1.0
 70
     8
 71
     2
 72
     6
 73
     3
 74
     0
 42
0.0000001
 43
0.0000001
 40
0.0
 40
0.0
 40
0.0
 40
1.0
 40
1.0
 40
1.0
 10
61.357550367720535
 20
103.30990327413673
 30
0.0
 10
61.294166706176327
 20
103.39589073531786
 30
0.0
 10
61.250262714367693
 20
103.5442815368726
 30
0.0
  0
SPLINE
  5
80
102
{ACAD_REACTORS
330
31
102
}
100
AcDbEntity
  8
0
  6
CONTINUOUS
100
AcDbSpline
210
0.0
220
0.0
230
1.0
 70
     8
 71
     2
 72
     6
 73
     3
 74
     0
 42
0.0000001
 43
0.0000001
 40
0.0
 40
0.0
 40
0.0
 40
1.0
 40
1.0
 40
1.0
 10
61.250262714367693
 20
103.54428153687259
 30
0.0
 10
61.20635872255906
 20
103.69267233842733
 30
0.0
 10
61.206465724545353
 20
103.86252170047464
 30
0.0
  0
SPLINE
  5
81
102
{ACAD_REACTORS
330
31
102
}
100
AcDbEntity
  8
0
  6
CONTINUOUS
100
AcDbSpline
210
0.0
220
0.0
230
1.0
 70
     8
 71
     2
 72
     6
 73
     3
 74
     0
 42
0.0000001
 43
0.0000001
 40
0.0
 40
0.0
 40
0.0
 40
1.0
 40
1.0
 40
1.0
 10
61.20646572454541
 20
103.86252170047466
 30
0.0
 10
61.206626873381765
 20
104.11832094323232
 30
0.0
 10
61.280418834270222
 20
104.31165580353246
 30
0.0
  0
SPLINE
  5
82
102
{ACAD_REACTORS
330
31
102
}
100
AcDbEntity
  8
0
  6
CONTINUOUS
100
AcDbSpline
210
0.0
220
0.0
230
1.0
 70
     8
 71
     2
 72
     6
 73
     3
 74
     0
 42
0.0000001
 43
0.0000001
 40
0.0
 40
0.0
 40
0.0
 40
1.0
 40
1.0
 40
1.0
 10
61.280418834270222
 20
104.31165580353245
 30
0.0
 10
61.354210202116292
 20
104.50499543257874
 30
0.0
 10
61.480121013379971
 20
104.59700292134019
 30
0.0
  0
SPLINE
  5
83
102
{ACAD_REACTORS
330
31
102
}
100
AcDbEntity
  8
0
  6
CONTINUOUS
100
AcDbSpline
210
0.0
220
0.0
230
1.0
 70
     8
 71
     2
 72
     6
 73
     3
 74
     0
 42
0.0000001
 43
0.0000001
 40
0.0
 40
0.0
 40
0.0
 40
1.0
 40
1.0
 40
1.0
 10
61.480121013379971
 20
104.59700292134022
 30
0.0
 10
61.606031824643651
 20
104.68901041010167
 30
0.0
 10
61.81683121953165
 20
104.72366527212488
 30
0.0
  0
LINE
  5
84
102
{ACAD_REACTORS
330
31
102
}
100
AcDbEntity
  8
0
  6
CONTINUOUS
100
AcDbLine
 10
61.816831
 20
104.723665
 30
0.0
 11
61.865717
 21
104.363472
 31
0.0
  0
SPLINE
  5
85
102
{ACAD_REACTORS
330
31
102
}
100
AcDbEntity
  8
0
  6
CONTINUOUS
100
AcDbSpline
210
0.0
220
0.0
230
1.0
 70
     8
 71
     2
 72
     6
 73
     3
 74
     0
 42
0.0000001
 43
0.0000001
 40
0.0
 40
0.0
 40
0.0
 40
1.0
 40
1.0
 40
1.0
 10
61.865717349408612
 20
104.36347214514046
 30
0.0
 10
61.697898743881694
 20
104.33902074926679
 30
0.0
 10
61.603690423157502
 20
104.22141335408926
 30
0.0
  0
SPLINE
  5
86
102
{ACAD_REACTORS
330
31
102
}
100
AcDbEntity
  8
0
  6
CONTINUOUS
100
AcDbSpline
210
0.0
220
0.0
230
1.0
 70
     8
 71
     2
 72
     6
 73
     3
 74
     0
 42
0.0000001
 43
0.0000001
 40
0.0
 40
0.0
 40
0.0
 40
1.0
 40
1.0
 40
1.0
 10
61.603690423157502
 20
104.22141335408926
 30
0.0
 10
61.509482698479417
 20
104.10380595853624
 30
0.0
 10
61.509347332856066
 20
103.88893364094567
 30
0.0
  0
SPLINE
  5
87
102
{ACAD_REACTORS
330
31
102
}
100
AcDbEntity
  8
0
  6
CONTINUOUS
100
AcDbSpline
210
0.0
220
0.0
230
1.0
 70
     8
 71
     2
 72
     6
 73
     3
 74
     0
 42
0.0000001
 43
0.0000001
 40
0.0
 40
0.0
 40
0.0
 40
1.0
 40
1.0
 40
1.0
 10
61.509347332856123
 20
103.88893364094567
 30
0.0
 10
61.50918747423168
 20
103.63518241337609
 30
0.0
 10
61.593021013338216
 20
103.52667177453397
 30
0.0
  0
SPLINE
  5
88
102
{ACAD_REACTORS
330
31
102
}
100
AcDbEntity
  8
0
  6
CONTINUOUS
100
AcDbSpline
210
0.0
220
0.0
230
1.0
 70
     8
 71
     2
 72
     6
 73
     3
 74
     0
 42
0.0000001
 43
0.0000001
 40
0.0
 40
0.0
 40
0.0
 40
1.0
 40
1.0
 40
1.0
 10
61.593021013338159
 20
103.52667177453397
 30
0.0
 10
61.676854552444695
 20
103.41816113569185
 30
0.0
 10
61.789405980839604
 20
103.41809023035403
 30
0.0
  0
SPLINE
  5
89
102
{ACAD_REACTORS
330
31
102
}
100
AcDbEntity
  8
0
  6
CONTINUOUS
100
AcDbSpline
210
0.0
220
0.0
230
1.0
 70
     8
 71
     2
 72
     6
 73
     3
 74
     0
 42
0.0000001
 43
0.0000001
 40
0.0
 40
0.0
 40
0.0
 40
1.0
 40
1.0
 40
1.0
 10
61.789405980839604
 20
103.41809023035403
 30
0.0
 10
61.861029291974603
 20
103.41804510898022
 30
0.0
 10
61.918356183808612
 20
103.46302958331421
 30
0.0
  0
SPLINE
  5
8A
102
{ACAD_REACTORS
330
31
102
}
100
AcDbEntity
  8
0
  6
CONTINUOUS
100
AcDbSpline
210
0.0
220
0.0
230
1.0
 70
     8
 71
     2
 72
     6
 73
     3
 74
     0
 42
0.0000001
 43
0.0000001
 40
0.0
 40
0.0
 40
0.0
 40
1.0
 40
1.0
 40
1.0
 10
61.918356183808612
 20
103.46302958331421
 30
0.0
 10
61.977729897986876
 20
103.50801157609449
 30
0.0
 10
62.016671783302684
 20
103.60416630940833
 30
0.0
  0
SPLINE
  5
8B
102
{ACAD_REACTORS
330
31
102
}
100
AcDbEntity
  8
0
  6
CONTINUOUS
100
AcDbSpline
210
0.0
220
0.0
230
1.0
 70
     8
 71
     2
 72
     6
 73
     3
 74
     0
 42
0.0000001
 43
0.0000001
 40
0.0
 40
0.0
 40
0.0
 40
1.0
 40
1.0
 40
1.0
 10
62.016671783302627
 20
103.60416630940833
 30
0.0
 10
62.03717005457554
 20
103.65940691254418
 30
0.0
 10
62.111010361616877
 20
103.92948392985694
 30
0.0
  0
SPLINE
  5
8C
102
{ACAD_REACTORS
330
31
102
}
100
AcDbEntity
  8
0
  6
CONTINUOUS
100
AcDbSpline
210
0.0
220
0.0
230
1.0
 70
     8
 71
     2
 72
     6
 73
     3
 74
     0
 42
0.0000001
 43
0.0000001
 40
0.0
 40
0.0
 40
0.0
 40
1.0
 40
1.0
 40
1.0
 10
62.111010361616934
 20
103.92948392985694
 30
0.0
 10
62.215622519508941
 20
104.32027675388298
 30
0.0
 10
62.282227298654959
 20
104.47473721656678
 30
0.0
  0
SPLINE
  5
8D
102
{ACAD_REACTORS
330
31
102
}
100
AcDbEntity
  8
0
  6
CONTINUOUS
100
AcDbSpline
210
0.0
220
0.0
230
1.0
 70
     8
 71
     2
 72
     6
 73
     3
 74
     0
 42
0.0000001
 43
0.0000001
 40
0.0
 40
0.0
 40
0.0
 40
1.0
 40
1.0
 40
1.0
 10
62.282227298654959
 20
104.47473721656678
 30
0.0
 10
62.348832077801092
 20
104.62919767925058
 30
0.0
 10
62.47576312564405
 20
104.71711087746617
 30
0.0
  0
SPLINE
  5
8E
102
{ACAD_REACTORS
330
31
102
}
100
AcDbEntity
  8
0
  6
CONTINUOUS
100
AcDbSpline
210
0.0
220
0.0
230
1.0
 70
     8
 71
     2
 72
     6
 73
     3
 74
     0
 42
0.0000001
 43
0.0000001
 40
0.0
 40
0.0
 40
0.0
 40
1.0
 40
1.0
 40
1.0
 10
62.47576312564405
 20
104.71711087746617
 30
0.0
 10
62.602694174989153
 20
104.80502645986709
 30
0.0
 10
62.790961964663609
 20
104.80490785460886
 30
0.0
  0
SPLINE
  5
8F
102
{ACAD_REACTORS
330
31
102
}
100
AcDbEntity
  8
0
  6
CONTINUOUS
100
AcDbSpline
210
0.0
220
0.0
230
1.0
 70
     8
 71
     2
 72
     6
 73
     3
 74
     0
 42
0.0000001
 43
0.0000001
 40
0.0
 40
0.0
 40
0.0
 40
1.0
 40
1.0
 40
1.0
 10
62.790961964663609
 20
104.80490785460886
 30
0.0
 10
62.975136108147069
 20
104.80479182827271
 30
0.0
 10
63.137756290734103
 20
104.69725317910284
 30
0.0
  0
SPLINE
  5
90
102
{ACAD_REACTORS
330
31
102
}
100
AcDbEntity
  8
0
  6
CONTINUOUS
100
AcDbSpline
210
0.0
220
0.0
230
1.0
 70
     8
 71
     2
 72
     6
 73
     3
 74
     0
 42
0.0000001
 43
0.0000001
 40
0.0
 40
0.0
 40
0.0
 40
1.0
 40
1.0
 40
1.0
 10
63.137756290734103
 20
104.69725317910284
 30
0.0
 10
63.30037587877672
 20
104.58971691449378
 30
0.0
 10
63.389265981087817
 20
104.38706945593599
 30
0.0
  0
SPLINE
  5
91
102
{ACAD_REACTORS
330
31
102
}
100
AcDbEntity
  8
0
  6
CONTINUOUS
100
AcDbSpline
210
0.0
220
0.0
230
1.0
 70
     8
 71
     2
 72
     6
 73
     3
 74
     0
 42
0.0000001
 43
0.0000001
 40
0.0
 40
0.0
 40
0.0
 40
1.0
 40
1.0
 40
1.0
 10
63.38926598108776
 20
104.38706945593599
 30
0.0
 10
63.478156081896827
 20
104.18441961319287
 30
0.0
 10
63.477994934562275
 20
103.92862275462052
 30
0.0
  0
SPLINE
  5
92
102
{ACAD_REACTORS
330
31
102
}
100
AcDbEntity
  8
0
  6
CONTINUOUS
100
AcDbSpline
210
0.0
220
0.0
230
1.0
 70
     8
 71
     2
 72
     6
 73
     3
 74
     0
 42
0.0000001
 43
0.0000001
 40
0.0
 40
0.0
 40
0.0
 40
1.0
 40
1.0
 40
1.0
 10
63.477994934562332
 20
103.92862275462052
 30
0.0
 10
63.477728072449679
 20
103.5050197808183
 30
0.0
 10
63.301599557100246
 20
103.28309862433652
 30
0.0
  0
SPLINE
  5
93
102
{ACAD_REACTORS
330
31
102
}
100
AcDbEntity
  8
0
  6
CONTINUOUS
100
AcDbSpline
210
0.0
220
0.0
230
1.0
 70
     8
 71
     2
 72
     6
 73
     3
 74
     0
 42
0.0000001
 43
0.0000001
 40
0.0
 40
0.0
 40
0.0
 40
1.0
 40
1.0
 40
1.0
 10
63.301599557100303
 20
103.28309862433652
 30
0.0
 10
63.125470445704423
 20
103.06117746823023
 30
0.0
 10
62.77959257600196
 20
103.00000256864996
 30
0.0
  0
LWPOLYLINE
  5
94
102
{ACAD_REACTORS
330
31
102
}
100
AcDbEntity
  8
0
  6
CONTINUOUS
100
AcDbPolyline
 90
        5
 70
     0
 10
60.429711
 20
105.246368
 10
60.853313
 20
105.246102
 10
60.853545
 20
105.614449
 10
60.429943
 20
105.614715
 10
60.429711
 20
105.246368
  0
LWPOLYLINE
  5
95
102
{ACAD_REACTORS
330
31
102
}
100
AcDbEntity
  8
0
  6
CONTINUOUS
100
AcDbPolyline
 90
        5
 70
     0
 10
61.256451
 20
105.245848
 10
63.429711
 20
105.244478
 10
63.429943
 20
105.612826
 10
61.256683
 20
105.614195
 10
61.256451
 20
105.245848
  0
LINE
  5
96
102
{ACAD_REACTORS
330
31
102
}
100
AcDbEntity
  8
0
  6
CONTINUOUS
100
AcDbLine
 10
63.430296
 20
106.173536
 30
0.0
 11
61.257036
 21
106.174905
 31
0.0
  0
LINE
  5
97
102
{ACAD_REACTORS
330
31
102
}
100
AcDbEntity
  8
0
  6
CONTINUOUS
100
AcDbLine
 10
61.257036
 20
106.174905
 30
0.0
 11
61.257245
 21
106.506419
 31
0.0
  0
LINE
  5
98
102
{ACAD_REACTORS
330
31
102
}
100
AcDbEntity
  8
0
  6
CONTINUOUS
100
AcDbLine
 10
61.257245
 20
106.506419
 30
0.0
 11
61.566249
 21
106.506224
 31
0.0
  0
SPLINE
  5
99
102
{ACAD_REACTORS
330
31
102
}
100
AcDbEntity
  8
0
  6
CONTINUOUS
100
AcDbSpline
210
0.0
220
0.0
230
1.0
 70
     8
 71
     2
 72
     6
 73
     3
 74
     0
 42
0.0000001
 43
0.0000001
 40
0.0
 40
0.0
 40
0.0
 40
1.0
 40
1.0
 40
1.0
 10
61.566248502469705
 20
106.50622409640522
 30
0.0
 10
61.208282483421087
 20
106.74587674564164
 30
0.0
 10
61.208567393482497
 20
107.19812809022375
 30
0.0
  0
SPLINE
  5
9A
102
{ACAD_REACTORS
330
31
102
}
100
AcDbEntity
  8
0
  6
CONTINUOUS
100
AcDbSpline
210
0.0
220
0.0
230
1.0
 70
     8
 71
     2
 72
     6
 73
     3
 74
     0
 42
0.0000001
 43
0.0000001
 40
0.0
 40
0.0
 40
0.0
 40
1.0
 40
1.0
 40
1.0
 10
61.208567393482554
 20
107.19812809022375
 30
0.0
 10
61.208691156209511
 20
107.39458257623353
 30
0.0
 10
61.279395132529203
 20
107.55927099975759
 30
0.0
  0
SPLINE
  5
9B
102
{ACAD_REACTORS
330
31
102
}
100
AcDbEntity
  8
0
  6
CONTINUOUS
100
AcDbSpline
210
0.0
220
0.0
230
1.0
 70
     8
 71
     2
 72
     6
 73
     3
 74
     0
 42
0.0000001
 43
0.0000001
 40
0.0
 40
0.0
 40
0.0
 40
1.0
 40
1.0
 40
1.0
 10
61.279395132529089
 20
107.55927099975759
 30
0.0
 10
61.350099108848667
 20
107.72395942328164
 30
0.0
 10
61.464748630243889
 20
107.80574346319003
 30
0.0
  0
SPLINE
  5
9C
102
{ACAD_REACTORS
330
31
102
}
100
AcDbEntity
  8
0
  6
CONTINUOUS
100
AcDbSpline
210
0.0
220
0.0
230
1.0
 70
     8
 71
     2
 72
     6
 73
     3
 74
     0
 42
0.0000001
 43
0.0000001
 40
0.0
 40
0.0
 40
0.0
 40
1.0
 40
1.0
 40
1.0
 10
61.464748630243946
 20
107.80574346319001
 30
0.0
 10
61.57939725756961
 20
107.88752750366164
 30
0.0
 10
61.736989882691148
 20
107.92016786897412
 30
0.0
  0
SPLINE
  5
9D
102
{ACAD_REACTORS
330
31
102
}
100
AcDbEntity
  8
0
  6
CONTINUOUS
100
AcDbSpline
210
0.0
220
0.0
230
1.0
 70
     8
 71
     2
 72
     6
 73
     3
 74
     0
 42
0.0000001
 43
0.0000001
 40
0.0
 40
0.0
 40
0.0
 40
1.0
 40
1.0
 40
1.0
 10
61.736989882691205
 20
107.92016786897413
 30
0.0
 10
61.839321876856502
 20
107.94056925658391
 30
0.0
 10
62.095119927521523
 20
107.94040810849847
 30
0.0
  0
LINE
  5
9E
102
{ACAD_REACTORS
330
31
102
}
100
AcDbEntity
  8
0
  6
CONTINUOUS
100
AcDbLine
 10
62.09512
 20
107.940408
 30
0.0
 11
63.431409
 21
107.939566
 31
0.0
  0
LINE
  5
9F
102
{ACAD_REACTORS
330
31
102
}
100
AcDbEntity
  8
0
  6
CONTINUOUS
100
AcDbLine
 10
63.431409
 20
107.939566
 30
0.0
 11
63.431177
 21
107.571217
 31
0.0
  0
LINE
  5
A0
102
{ACAD_REACTORS
330
31
102
}
100
AcDbEntity
  8
0
  6
CONTINUOUS
100
AcDbLine
 10
63.431177
 20
107.571217
 30
0.0
 11
62.109213
 21
107.57205
 31
0.0
  0
SPLINE
  5
A1
102
{ACAD_REACTORS
330
31
102
}
100
AcDbEntity
  8
0
  6
CONTINUOUS
100
AcDbSpline
210
0.0
220
0.0
230
1.0
 70
     8
 71
     2
 72
     6
 73
     3
 74
     0
 42
0.0000001
 43
0.0000001
 40
0.0
 40
0.0
 40
0.0
 40
1.0
 40
1.0
 40
1.0
 10
62.109212655534407
 20
107.57204960508876
 30
0.0
 10
61.884109798744703
 20
107.57219141576444
 30
0.0
 10
61.772555304518846
 20
107.52928673564107
 30
0.0
  0
SPLINE
  5
A2
102
{ACAD_REACTORS
330
31
102
}
100
AcDbEntity
  8
0
  6
CONTINUOUS
100
AcDbSpline
210
0.0
220
0.0
230
1.0
 70
     8
 71
     2
 72
     6
 73
     3
 74
     0
 42
0.0000001
 43
0.0000001
 40
0.0
 40
0.0
 40
0.0
 40
1.0
 40
1.0
 40
1.0
 10
61.772555304518846
 20
107.52928673564107
 30
0.0
 10
61.661000215748686
 20
107.48638444007852
 30
0.0
 10
61.594423798737694
 20
107.37694454875266
 30
0.0
  0
SPLINE
  5
A3
102
{ACAD_REACTORS
330
31
102
}
100
AcDbEntity
  8
0
  6
CONTINUOUS
100
AcDbSpline
210
0.0
220
0.0
230
1.0
 70
     8
 71
     2
 72
     6
 73
     3
 74
     0
 42
0.0000001
 43
0.0000001
 40
0.0
 40
0.0
 40
0.0
 40
1.0
 40
1.0
 40
1.0
 10
61.594423798737751
 20
107.37694454875266
 30
0.0
 10
61.527846785680538
 20
107.26750465780228
 30
0.0
 10
61.527753964010742
 20
107.12016438934128
 30
0.0
  0
SPLINE
  5
A4
102
{ACAD_REACTORS
330
31
102
}
100
AcDbEntity
  8
0
  6
CONTINUOUS
100
AcDbSpline
210
0.0
220
0.0
230
1.0
 70
     8
 71
     2
 72
     6
 73
     3
 74
     0
 42
0.0000001
 43
0.0000001
 40
0.0
 40
0.0
 40
0.0
 40
1.0
 40
1.0
 40
1.0
 10
61.527753964010799
 20
107.12016438934128
 30
0.0
 10
61.527605706780946
 20
106.88482860916716
 30
0.0
 10
61.676884557451672
 20
106.71386470504852
 30
0.0
  0
SPLINE
  5
A5
102
{ACAD_REACTORS
330
31
102
}
100
AcDbEntity
  8
0
  6
CONTINUOUS
100
AcDbSpline
210
0.0
220
0.0
230
1.0
 70
     8
 71
     2
 72
     6
 73
     3
 74
     0
 42
0.0000001
 43
0.0000001
 40
0.0
 40
0.0
 40
0.0
 40
1.0
 40
1.0
 40
1.0
 10
61.676884557451615
 20
106.71386470504852
 30
0.0
 10
61.826162809072059
 20
106.54289603293476
 30
0.0
 10
62.243625313587984
 20
106.54263303920526
 30
0.0
  0
LINE
  5
A6
102
{ACAD_REACTORS
330
31
102
}
100
AcDbEntity
  8
0
  6
CONTINUOUS
100
AcDbLine
 10
62.243625
 20
106.542633
 30
0.0
 11
63.430528
 21
106.541885
 31
0.0
  0
LINE
  5
A7
102
{ACAD_REACTORS
330
31
102
}
100
AcDbEntity
  8
0
  6
CONTINUOUS
100
AcDbLine
 10
63.430528
 20
106.541885
 30
0.0
 11
63.430296
 21
106.173536
 31
0.0
  0
LINE
  5
A8
102
{ACAD_REACTORS
330
31
102
}
100
AcDbEntity
  8
0
  6
CONTINUOUS
100
AcDbLine
 10
63.611804
 20
108.436725
 30
0.0
 11
63.665235
 21
108.794808
 31
0.0
  0
SPLINE
  5
A9
102
{ACAD_REACTORS
330
31
102
}
100
AcDbEntity
  8
0
  6
CONTINUOUS
100
AcDbSpline
210
0.0
220
0.0
230
1.0
 70
     8
 71
     2
 72
     6
 73
     3
 74
     0
 42
0.0000001
 43
0.0000001
 40
0.0
 40
0.0
 40
0.0
 40
1.0
 40
1.0
 40
1.0
 10
63.665235354596859
 20
108.79480777564493
 30
0.0
 10
63.831006444364505
 20
108.81721482960138
 30
0.0
 10
63.906787265178707
 20
108.91948682678404
 30
0.0
  0
SPLINE
  5
AA
102
{ACAD_REACTORS
330
31
102
}
100
AcDbEntity
  8
0
  6
CONTINUOUS
100
AcDbSpline
210
0.0
220
0.0
230
1.0
 70
     8
 71
     2
 72
     6
 73
     3
 74
     0
 42
0.0000001
 43
0.0000001
 40
0.0
 40
0.0
 40
0.0
 40
1.0
 40
1.0
 40
1.0
 10
63.90678726517865
 20
108.91948682678404
 30
0.0
 10
64.0091927398488
 20
109.05652732851621
 30
0.0
 10
64.009342287290792
 20
109.2939111238784
 30
0.0
  0
SPLINE
  5
AB
102
{ACAD_REACTORS
330
31
102
}
100
AcDbEntity
  8
0
  6
CONTINUOUS
100
AcDbSpline
210
0.0
220
0.0
230
1.0
 70
     8
 71
     2
 72
     6
 73
     3
 74
     0
 42
0.0000001
 43
0.0000001
 40
0.0
 40
0.0
 40
0.0
 40
1.0
 40
1.0
 40
1.0
 10
64.009342287290906
 20
109.2939111238784
 30
0.0
 10
64.009503434625458
 20
109.54970798245074
 30
0.0
 10
63.907271997394218
 20
109.68892541768916
 30
0.0
  0
SPLINE
  5
AC
102
{ACAD_REACTORS
330
31
102
}
100
AcDbEntity
  8
0
  6
CONTINUOUS
100
AcDbSpline
210
0.0
220
0.0
230
1.0
 70
     8
 71
     2
 72
     6
 73
     3
 74
     0
 42
0.0000001
 43
0.0000001
 40
0.0
 40
0.0
 40
0.0
 40
1.0
 40
1.0
 40
1.0
 10
63.907271997394218
 20
109.68892541768916
 30
0.0
 10
63.805040561664896
 20
109.82814523711286
 30
0.0
 10
63.620896763192263
 20
109.87737548137328
 30
0.0
  0
SPLINE
  5
AD
102
{ACAD_REACTORS
330
31
102
}
100
AcDbEntity
  8
0
  6
CONTINUOUS
100
AcDbSpline
210
0.0
220
0.0
230
1.0
 70
     8
 71
     2
 72
     6
 73
     3
 74
     0
 42
0.0000001
 43
0.0000001
 40
0.0
 40
0.0
 40
0.0
 40
1.0
 40
1.0
 40
1.0
 10
63.620896763192206
 20
109.87737548137328
 30
0.0
 10
63.508363978792374
 20
109.90609475711553
 30
0.0
 10
63.14819871526521
 20
109.90427602281834
 30
0.0
  0
SPLINE
  5
AE
102
{ACAD_REACTORS
330
31
102
}
100
AcDbEntity
  8
0
  6
CONTINUOUS
100
AcDbSpline
210
0.0
220
0.0
230
1.0
 70
     8
 71
     2
 72
     6
 73
     3
 74
     0
 42
0.0000001
 43
0.0000001
 40
0.0
 40
0.0
 40
0.0
 40
1.0
 40
1.0
 40
1.0
 10
63.14819871526521
 20
109.90427602281834
 30
0.0
 10
63.432494203940621
 20
109.66262176866546
 30
0.0
 10
63.432267306859615
 20
109.30245719780197
 30
0.0
  0
SPLINE
  5
AF
102
{ACAD_REACTORS
330
31
102
}
100
AcDbEntity
  8
0
  6
CONTINUOUS
100
AcDbSpline
210
0.0
220
0.0
230
1.0
 70
     8
 71
     2
 72
     6
 73
     3
 74
     0
 42
0.0000001
 43
0.0000001
 40
0.0
 40
0.0
 40
0.0
 40
1.0
 40
1.0
 40
1.0
 10
63.432267306859615
 20
109.30245719780197
 30
0.0
 10
63.431984977222271
 20
108.85430188359601
 30
0.0
 10
63.108501367238262
 20
108.60893925551092
 30
0.0
  0
SPLINE
  5
B0
102
{ACAD_REACTORS
330
31
102
}
100
AcDbEntity
  8
0
  6
CONTINUOUS
100
AcDbSpline
210
0.0
220
0.0
230
1.0
 70
     8
 71
     2
 72
     6
 73
     3
 74
     0
 42
0.0000001
 43
0.0000001
 40
0.0
 40
0.0
 40
0.0
 40
1.0
 40
1.0
 40
1.0
 10
63.108501367238262
 20
108.60893925551092
 30
0.0
 10
62.785017757254138
 20
108.36357662742583
 30
0.0
 10
62.332767008718349
 20
108.3638615371117
 30
0.0
  0
SPLINE
  5
B1
102
{ACAD_REACTORS
330
31
102
}
100
AcDbEntity
  8
0
  6
CONTINUOUS
100
AcDbSpline
210
0.0
220
0.0
230
1.0
 70
     8
 71
     2
 72
     6
 73
     3
 74
     0
 42
0.0000001
 43
0.0000001
 40
0.0
 40
0.0
 40
0.0
 40
1.0
 40
1.0
 40
1.0
 10
62.332767008718292
 20
108.3638615371117
 30
0.0
 10
62.021716655403566
 20
108.36405749313555
 30
0.0
 10
61.758827416630425
 20
108.47677338951034
 30
0.0
  0
SPLINE
  5
B2
102
{ACAD_REACTORS
330
31
102
}
100
AcDbEntity
  8
0
  6
CONTINUOUS
100
AcDbSpline
210
0.0
220
0.0
230
1.0
 70
     8
 71
     2
 72
     6
 73
     3
 74
     0
 42
0.0000001
 43
0.0000001
 40
0.0
 40
0.0
 40
0.0
 40
1.0
 40
1.0
 40
1.0
 10
61.758827416630538
 20
108.47677338951034
 30
0.0
 10
61.495937581811063
 20
108.58948928626064
 30
0.0
 10
61.35282567930733
 20
108.80342664691213
 30
0.0
  0
SPLINE
  5
B3
102
{ACAD_REACTORS
330
31
102
}
100
AcDbEntity
  8
0
  6
CONTINUOUS
100
AcDbSpline
210
0.0
220
0.0
230
1.0
 70
     8
 71
     2
 72
     6
 73
     3
 74
     0
 42
0.0000001
 43
0.0000001
 40
0.0
 40
0.0
 40
0.0
 40
1.0
 40
1.0
 40
1.0
 10
61.352825679307273
 20
108.80342664691213
 30
0.0
 10
61.209713180757092
 20
109.01736400793909
 30
0.0
 10
61.209894956464325
 20
109.3059052676675
 30
0.0
  0
SPLINE
  5
B4
102
{ACAD_REACTORS
330
31
102
}
100
AcDbEntity
  8
0
  6
CONTINUOUS
100
AcDbSpline
210
0.0
220
0.0
230
1.0
 70
     8
 71
     2
 72
     6
 73
     3
 74
     0
 42
0.0000001
 43
0.0000001
 40
0.0
 40
0.0
 40
0.0
 40
1.0
 40
1.0
 40
1.0
 10
61.209894956464325
 20
109.3059052676675
 30
0.0
 10
61.210137322572052
 20
109.69062456312005
 30
0.0
 10
61.521345553137337
 20
109.94008857228479
 30
0.0
  0
LINE
  5
B5
102
{ACAD_REACTORS
330
31
102
}
100
AcDbEntity
  8
0
  6
CONTINUOUS
100
AcDbLine
 10
61.521346
 20
109.940089
 30
0.0
 11
61.259408
 21
109.940254
 31
0.0
  0
LINE
  5
B6
102
{ACAD_REACTORS
330
31
102
}
100
AcDbEntity
  8
0
  6
CONTINUOUS
100
AcDbLine
 10
61.259408
 20
109.940254
 30
0.0
 11
61.259622
 21
110.279952
 31
0.0
  0
LINE
  5
B7
102
{ACAD_REACTORS
330
31
102
}
100
AcDbEntity
  8
0
  6
CONTINUOUS
100
AcDbLine
 10
61.259622
 20
110.279952
 30
0.0
 11
63.138203
 21
110.278769
 31
0.0
  0
SPLINE
  5
B8
102
{ACAD_REACTORS
330
31
102
}
100
AcDbEntity
  8
0
  6
CONTINUOUS
100
AcDbSpline
210
0.0
220
0.0
230
1.0
 70
     8
 71
     2
 72
     6
 73
     3
 74
     0
 42
0.0000001
 43
0.0000001
 40
0.0
 40
0.0
 40
0.0
 40
1.0
 40
1.0
 40
1.0
 10
63.13820290352686
 20
110.27876884068974
 30
0.0
 10
63.645706550758689
 20
110.27844912268995
 30
0.0
 10
63.857441741677519
 20
110.17497317978017
 30
0.0
  0
SPLINE
  5
B9
102
{ACAD_REACTORS
330
31
102
}
100
AcDbEntity
  8
0
  6
CONTINUOUS
100
AcDbSpline
210
0.0
220
0.0
230
1.0
 70
     8
 71
     2
 72
     6
 73
     3
 74
     0
 42
0.0000001
 43
0.0000001
 40
0.0
 40
0.0
 40
0.0
 40
1.0
 40
1.0
 40
1.0
 10
63.857441741677519
 20
110.17497317978015
 30
0.0
 10
64.069177530144714
 20
110.0714996206802
 30
0.0
 10
64.191819523510674
 20
109.84734222825081
 30
0.0
  0
SPLINE
  5
BA
102
{ACAD_REACTORS
330
31
102
}
100
AcDbEntity
  8
0
  6
CONTINUOUS
100
AcDbSpline
210
0.0
220
0.0
230
1.0
 70
     8
 71
     2
 72
     6
 73
     3
 74
     0
 42
0.0000001
 43
0.0000001
 40
0.0
 40
0.0
 40
0.0
 40
1.0
 40
1.0
 40
1.0
 10
64.191819523510731
 20
109.84734222825081
 30
0.0
 10
64.31446151687669
 20
109.62318483582141
 30
0.0
 10
64.314255248168479
 20
109.29576466611398
 30
0.0
  0
SPLINE
  5
BB
102
{ACAD_REACTORS
330
31
102
}
100
AcDbEntity
  8
0
  6
CONTINUOUS
100
AcDbSpline
210
0.0
220
0.0
230
1.0
 70
     8
 71
     2
 72
     6
 73
     3
 74
     0
 42
0.0000001
 43
0.0000001
 40
0.0
 40
0.0
 40
0.0
 40
1.0
 40
1.0
 40
1.0
 10
64.314255248168422
 20
109.29576466611398
 30
0.0
 10
64.314010303138559
 20
108.90695172447059
 30
0.0
 10
64.138893643247059
 20
108.66763252336905
 30
0.0
  0
SPLINE
  5
BC
102
{ACAD_REACTORS
330
31
102
}
100
AcDbEntity
  8
0
  6
CONTINUOUS
100
AcDbSpline
210
0.0
220
0.0
230
1.0
 70
     8
 71
     2
 72
     6
 73
     3
 74
     0
 42
0.0000001
 43
0.0000001
 40
0.0
 40
0.0
 40
0.0
 40
1.0
 40
1.0
 40
1.0
 10
64.138893643247116
 20
108.66763252336905
 30
0.0
 10
63.963776986359562
 20
108.42831809063813
 30
0.0
 10
63.61180367212728
 20
108.43672473882235
 30
0.0
  0
SPLINE
  5
BD
102
{ACAD_REACTORS
330
31
102
}
100
AcDbEntity
  8
0
  6
CONTINUOUS
100
AcDbSpline
210
0.0
220
0.0
230
1.0
 70
     8
 71
     2
 72
     6
 73
     3
 74
     0
 42
0.0000001
 43
0.0000001
 40
0.0
 40
0.0
 40
0.0
 40
1.0
 40
1.0
 40
1.0
 10
62.306402767416785
 20
108.74245831460934
 30
0.0
 10
62.73409700322452
 20
108.74218887507655
 30
0.0
 10
62.930656703081581
 20
108.91191447552343
 30
0.0
  0
SPLINE
  5
BE
102
{ACAD_REACTORS
330
31
102
}
100
AcDbEntity
  8
0
  6
CONTINUOUS
100
AcDbSpline
210
0.0
220
0.0
230
1.0
 70
     8
 71
     2
 72
     6
 73
     3
 74
     0
 42
0.0000001
 43
0.0000001
 40
0.0
 40
0.0
 40
0.0
 40
1.0
 40
1.0
 40
1.0
 10
62.930656703081468
 20
108.91191447552345
 30
0.0
 10
63.127216998984863
 20
109.08164007559481
 30
0.0
 10
63.127378147821332
 20
109.33743931835247
 30
0.0
  0
SPLINE
  5
BF
102
{ACAD_REACTORS
330
31
102
}
100
AcDbEntity
  8
0
  6
CONTINUOUS
100
AcDbSpline
210
0.0
220
0.0
230
1.0
 70
     8
 71
     2
 72
     6
 73
     3
 74
     0
 42
0.0000001
 43
0.0000001
 40
0.0
 40
0.0
 40
0.0
 40
1.0
 40
1.0
 40
1.0
 10
63.127378147821389
 20
109.33743931835247
 30
0.0
 10
63.127538006445718
 20
109.59119054592206
 30
0.0
 10
62.932216416274684
 20
109.76321104040287
 30
0.0
  0
SPLINE
  5
C0
102
{ACAD_REACTORS
330
31
102
}
100
AcDbEntity
  8
0
  6
CONTINUOUS
100
AcDbSpline
210
0.0
220
0.0
230
1.0
 70
     8
 71
     2
 72
     6
 73
     3
 74
     0
 42
0.0000001
 43
0.0000001
 40
0.0
 40
0.0
 40
0.0
 40
1.0
 40
1.0
 40
1.0
 10
62.932216416274741
 20
109.76321104040288
 30
0.0
 10
62.736894824601677
 20
109.93522915069836
 30
0.0
 10
62.319432320085639
 20
109.93549214442788
 30
0.0
  0
SPLINE
  5
C1
102
{ACAD_REACTORS
330
31
102
}
100
AcDbEntity
  8
0
  6
CONTINUOUS
100
AcDbSpline
210
0.0
220
0.0
230
1.0
 70
     8
 71
     2
 72
     6
 73
     3
 74
     0
 42
0.0000001
 43
0.0000001
 40
0.0
 40
0.0
 40
0.0
 40
1.0
 40
1.0
 40
1.0
 10
62.319432320085525
 20
109.93549214442787
 30
0.0
 10
61.920387647150392
 20
109.93574353526091
 30
0.0
 10
61.717684158112547
 20
109.75885970975123
 30
0.0
  0
SPLINE
  5
C2
102
{ACAD_REACTORS
330
31
102
}
100
AcDbEntity
  8
0
  6
CONTINUOUS
100
AcDbSpline
210
0.0
220
0.0
230
1.0
 70
     8
 71
     2
 72
     6
 73
     3
 74
     0
 42
0.0000001
 43
0.0000001
 40
0.0
 40
0.0
 40
0.0
 40
1.0
 40
1.0
 40
1.0
 10
61.717684158112604
 20
109.75885970975123
 30
0.0
 10
61.51498066907476
 20
109.58197588424154
 30
0.0
 10
61.514823387870535
 20
109.33231591867748
 30
0.0
  0
SPLINE
  5
C3
102
{ACAD_REACTORS
330
31
102
}
100
AcDbEntity
  8
0
  6
CONTINUOUS
100
AcDbSpline
210
0.0
220
0.0
230
1.0
 70
     8
 71
     2
 72
     6
 73
     3
 74
     0
 42
0.0000001
 43
0.0000001
 40
0.0
 40
0.0
 40
0.0
 40
1.0
 40
1.0
 40
1.0
 10
61.514823387870535
 20
109.33231591867748
 30
0.0
 10
61.514668685588333
 20
109.08674959930424
 30
0.0
 10
61.71408272985758
 20
108.91472652665233
 30
0.0
  0
SPLINE
  5
C4
102
{ACAD_REACTORS
330
31
102
}
100
AcDbEntity
  8
0
  6
CONTINUOUS
100
AcDbSpline
210
0.0
220
0.0
230
1.0
 70
     8
 71
     2
 72
     6
 73
     3
 74
     0
 42
0.0000001
 43
0.0000001
 40
0.0
 40
0.0
 40
0.0
 40
1.0
 40
1.0
 40
1.0
 10
61.71408272985758
 20
108.91472652665233
 30
0.0
 10
61.913496775628857
 20
108.74270583818574
 30
0.0
 10
62.306402767416728
 20
108.74245831460935
 30
0.0
  0
LWPOLYLINE
  5
C5
102
{ACAD_REACTORS
330
31
102
}
100
AcDbEntity
  8
0
  6
CONTINUOUS
100
AcDbPolyline
 90
        5
 70
     0
 10
62.163071
 20
111.857145
 10
62.533467
 20
111.856911
 10
62.53418
 20
112.988562
 10
62.163784
 20
112.988796
 10
62.163071
 20
111.857145
  0
LINE
  5
C6
102
{ACAD_REACTORS
330
31
102
}
100
AcDbEntity
  8
0
  6
CONTINUOUS
100
AcDbLine
 10
63.435579
 20
114.559619
 30
0.0
 11
60.43558
 21
114.561509
 31
0.0
  0
LINE
  5
C7
102
{ACAD_REACTORS
330
31
102
}
100
AcDbEntity
  8
0
  6
CONTINUOUS
100
AcDbLine
 10
60.43558
 20
114.561509
 30
0.0
 11
60.435812
 21
114.929859
 31
0.0
  0
LINE
  5
C8
102
{ACAD_REACTORS
330
31
102
}
100
AcDbEntity
  8
0
  6
CONTINUOUS
100
AcDbLine
 10
60.435812
 20
114.929859
 30
0.0
 11
61.51221
 21
114.929181
 31
0.0
  0
SPLINE
  5
C9
102
{ACAD_REACTORS
330
31
102
}
100
AcDbEntity
  8
0
  6
CONTINUOUS
100
AcDbSpline
210
0.0
220
0.0
230
1.0
 70
     8
 71
     2
 72
     6
 73
     3
 74
     0
 42
0.0000001
 43
0.0000001
 40
0.0
 40
0.0
 40
0.0
 40
1.0
 40
1.0
 40
1.0
 10
61.512210030395806
 20
114.92918051497175
 30
0.0
 10
61.213600370991642
 20
115.18721360967946
 30
0.0
 10
61.213847893441596
 20
115.58011781332837
 30
0.0
  0
SPLINE
  5
CA
102
{ACAD_REACTORS
330
31
102
}
100
AcDbEntity
  8
0
  6
CONTINUOUS
100
AcDbSpline
210
0.0
220
0.0
230
1.0
 70
     8
 71
     2
 72
     6
 73
     3
 74
     0
 42
0.0000001
 43
0.0000001
 40
0.0
 40
0.0
 40
0.0
 40
1.0
 40
1.0
 40
1.0
 10
61.213847893441596
 20
115.58011781332837
 30
0.0
 10
61.21400001830358
 20
115.82159287069608
 30
0.0
 10
61.309268886970756
 20
115.9995671939556
 30
0.0
  0
SPLINE
  5
CB
102
{ACAD_REACTORS
330
31
102
}
100
AcDbEntity
  8
0
  6
CONTINUOUS
100
AcDbSpline
210
0.0
220
0.0
230
1.0
 70
     8
 71
     2
 72
     6
 73
     3
 74
     0
 42
0.0000001
 43
0.0000001
 40
0.0
 40
0.0
 40
0.0
 40
1.0
 40
1.0
 40
1.0
 10
61.309268886970756
 20
115.9995671939556
 30
0.0
 10
61.404538055162959
 20
116.1775439012127
 30
0.0
 10
61.572389533310059
 20
116.25417557695394
 30
0.0
  0
SPLINE
  5
CC
102
{ACAD_REACTORS
330
31
102
}
100
AcDbEntity
  8
0
  6
CONTINUOUS
100
AcDbSpline
210
0.0
220
0.0
230
1.0
 70
     8
 71
     2
 72
     6
 73
     3
 74
     0
 42
0.0000001
 43
0.0000001
 40
0.0
 40
0.0
 40
0.0
 40
1.0
 40
1.0
 40
1.0
 10
61.572389533310115
 20
116.25417557695393
 30
0.0
 10
61.740241609005693
 20
116.33080963650501
 30
0.0
 10
62.059478062609401
 20
116.33060852338798
 30
0.0
  0
LINE
  5
CD
102
{ACAD_REACTORS
330
31
102
}
100
AcDbEntity
  8
0
  6
CONTINUOUS
100
AcDbLine
 10
62.059478
 20
116.330609
 30
0.0
 11
63.436694
 21
116.329741
 31
0.0
  0
LINE
  5
CE
102
{ACAD_REACTORS
330
31
102
}
100
AcDbEntity
  8
0
  6
CONTINUOUS
100
AcDbLine
 10
63.436694
 20
116.329741
 30
0.0
 11
63.436462
 21
115.961391
 31
0.0
  0
LINE
  5
CF
102
{ACAD_REACTORS
330
31
102
}
100
AcDbEntity
  8
0
  6
CONTINUOUS
100
AcDbLine
 10
63.436462
 20
115.961391
 30
0.0
 11
62.059246
 21
115.962259
 31
0.0
  0
SPLINE
  5
D0
102
{ACAD_REACTORS
330
31
102
}
100
AcDbEntity
  8
0
  6
CONTINUOUS
100
AcDbSpline
210
0.0
220
0.0
230
1.0
 70
     8
 71
     2
 72
     6
 73
     3
 74
     0
 42
0.0000001
 43
0.0000001
 40
0.0
 40
0.0
 40
0.0
 40
1.0
 40
1.0
 40
1.0
 10
62.05924600918604
 20
115.96225904432814
 30
0.0
 10
61.782983899891178
 20
115.96243308439558
 30
0.0
 10
61.657055685033811
 20
115.84280004035561
 30
0.0
  0
SPLINE
  5
D1
102
{ACAD_REACTORS
330
31
102
}
100
AcDbEntity
  8
0
  6
CONTINUOUS
100
AcDbSpline
210
0.0
220
0.0
230
1.0
 70
     8
 71
     2
 72
     6
 73
     3
 74
     0
 42
0.0000001
 43
0.0000001
 40
0.0
 40
0.0
 40
0.0
 40
1.0
 40
1.0
 40
1.0
 10
61.657055685033811
 20
115.84280004035561
 30
0.0
 10
61.531127468674413
 20
115.7231646121303
 30
0.0
 10
61.530989527132874
 20
115.50420341671953
 30
0.0
  0
SPLINE
  5
D2
102
{ACAD_REACTORS
330
31
102
}
100
AcDbEntity
  8
0
  6
CONTINUOUS
100
AcDbSpline
210
0.0
220
0.0
230
1.0
 70
     8
 71
     2
 72
     6
 73
     3
 74
     0
 42
0.0000001
 43
0.0000001
 40
0.0
 40
0.0
 40
0.0
 40
1.0
 40
1.0
 40
1.0
 10
61.53098952713276
 20
115.50420341671953
 30
0.0
 10
61.530886391276567
 20
115.34049094768051
 30
0.0
 10
61.615720781244022
 20
115.19616800854031
 30
0.0
  0
SPLINE
  5
D3
102
{ACAD_REACTORS
330
31
102
}
100
AcDbEntity
  8
0
  6
CONTINUOUS
100
AcDbSpline
210
0.0
220
0.0
230
1.0
 70
     8
 71
     2
 72
     6
 73
     3
 74
     0
 42
0.0000001
 43
0.0000001
 40
0.0
 40
0.0
 40
0.0
 40
1.0
 40
1.0
 40
1.0
 10
61.615720781244079
 20
115.19616800854031
 30
0.0
 10
61.700554575165086
 20
115.05184506977564
 30
0.0
 10
61.845809344209044
 20
114.99036076563101
 30
0.0
  0
SPLINE
  5
D4
102
{ACAD_REACTORS
330
31
102
}
100
AcDbEntity
  8
0
  6
CONTINUOUS
100
AcDbSpline
210
0.0
220
0.0
230
1.0
 70
     8
 71
     2
 72
     6
 73
     3
 74
     0
 42
0.0000001
 43
0.0000001
 40
0.0
 40
0.0
 40
0.0
 40
1.0
 40
1.0
 40
1.0
 10
61.845809344209044
 20
114.990360765631
 30
0.0
 10
61.991064114755147
 20
114.92887884567169
 30
0.0
 10
62.246862165420168
 20
114.92871769758624
 30
0.0
  0
LINE
  5
D5
102
{ACAD_REACTORS
330
31
102
}
100
AcDbEntity
  8
0
  6
CONTINUOUS
100
AcDbLine
 10
62.246862
 20
114.928718
 30
0.0
 11
63.435811
 21
114.927969
 31
0.0
  0
LINE
  5
D6
102
{ACAD_REACTORS
330
31
102
}
100
AcDbEntity
  8
0
  6
CONTINUOUS
100
AcDbLine
 10
63.435811
 20
114.927969
 30
0.0
 11
63.435579
 21
114.559619
 31
0.0
  0
SPLINE
  5
D7
102
{ACAD_REACTORS
330
31
102
}
100
AcDbEntity
  8
0
  6
CONTINUOUS
100
AcDbSpline
210
0.0
220
0.0
230
1.0
 70
     8
 71
     2
 72
     6
 73
     3
 74
     0
 42
0.0000001
 43
0.0000001
 40
0.0
 40
0.0
 40
0.0
 40
1.0
 40
1.0
 40
1.0
 10
62.350331217904852
 20
116.75402604896307
 30
0.0
 10
61.746647746809856
 20
116.75440635848976
 30
0.0
 10
61.456272282631119
 20
117.09019688499619
 30
0.0
  0
SPLINE
  5
D8
102
{ACAD_REACTORS
330
31
102
}
100
AcDbEntity
  8
0
  6
CONTINUOUS
100
AcDbSpline
210
0.0
220
0.0
230
1.0
 70
     8
 71
     2
 72
     6
 73
     3
 74
     0
 42
0.0000001
 43
0.0000001
 40
0.0
 40
0.0
 40
0.0
 40
1.0
 40
1.0
 40
1.0
 10
61.456272282631119
 20
117.09019688499619
 30
0.0
 10
61.214975631265531
 20
117.3707029760785
 30
0.0
 10
61.215229600269652
 20
117.77384010311184
 30
0.0
  0
SPLINE
  5
D9
102
{ACAD_REACTORS
330
31
102
}
100
AcDbEntity
  8
0
  6
CONTINUOUS
100
AcDbSpline
210
0.0
220
0.0
230
1.0
 70
     8
 71
     2
 72
     6
 73
     3
 74
     0
 42
0.0000001
 43
0.0000001
 40
0.0
 40
0.0
 40
0.0
 40
1.0
 40
1.0
 40
1.0
 10
61.215229600269595
 20
117.77384010311185
 30
0.0
 10
61.215511932910886
 20
118.22200018568846
 30
0.0
 10
61.509347657521971
 20
118.50626041680732
 30
0.0
  0
SPLINE
  5
DA
102
{ACAD_REACTORS
330
31
102
}
100
AcDbEntity
  8
0
  6
CONTINUOUS
100
AcDbSpline
210
0.0
220
0.0
230
1.0
 70
     8
 71
     2
 72
     6
 73
     3
 74
     0
 42
0.0000001
 43
0.0000001
 40
0.0
 40
0.0
 40
0.0
 40
1.0
 40
1.0
 40
1.0
 10
61.509347657522028
 20
118.50626041680731
 30
0.0
 10
61.80318278758881
 20
118.79052303248697
 30
0.0
 10
62.320918166112449
 20
118.79019686868394
 30
0.0
  0
SPLINE
  5
DB
102
{ACAD_REACTORS
330
31
102
}
100
AcDbEntity
  8
0
  6
CONTINUOUS
100
AcDbSpline
210
0.0
220
0.0
230
1.0
 70
     8
 71
     2
 72
     6
 73
     3
 74
     0
 42
0.0000001
 43
0.0000001
 40
0.0
 40
0.0
 40
0.0
 40
1.0
 40
1.0
 40
1.0
 10
62.320918166112449
 20
118.79019686868394
 30
0.0
 10
62.740426897677423
 20
118.78993258586888
 30
0.0
 10
62.980798067198691
 20
118.66392950029757
 30
0.0
  0
SPLINE
  5
DC
102
{ACAD_REACTORS
330
31
102
}
100
AcDbEntity
  8
0
  6
CONTINUOUS
100
AcDbSpline
210
0.0
220
0.0
230
1.0
 70
     8
 71
     2
 72
     6
 73
     3
 74
     0
 42
0.0000001
 43
0.0000001
 40
0.0
 40
0.0
 40
0.0
 40
1.0
 40
1.0
 40
1.0
 10
62.980798067198691
 20
118.66392950029756
 30
0.0
 10
63.221168640673511
 20
118.53792641510175
 30
0.0
 10
63.354032051144884
 20
118.29739037629108
 30
0.0
  0
SPLINE
  5
DD
102
{ACAD_REACTORS
330
31
102
}
100
AcDbEntity
  8
0
  6
CONTINUOUS
100
AcDbSpline
210
0.0
220
0.0
230
1.0
 70
     8
 71
     2
 72
     6
 73
     3
 74
     0
 42
0.0000001
 43
0.0000001
 40
0.0
 40
0.0
 40
0.0
 40
1.0
 40
1.0
 40
1.0
 10
63.354032051144827
 20
118.29739037629108
 30
0.0
 10
63.486895463118117
 20
118.05685672166571
 30
0.0
 10
63.486716266332905
 20
117.77240910812814
 30
0.0
  0
SPLINE
  5
DE
102
{ACAD_REACTORS
330
31
102
}
100
AcDbEntity
  8
0
  6
CONTINUOUS
100
AcDbSpline
210
0.0
220
0.0
230
1.0
 70
     8
 71
     2
 72
     6
 73
     3
 74
     0
 42
0.0000001
 43
0.0000001
 40
0.0
 40
0.0
 40
0.0
 40
1.0
 40
1.0
 40
1.0
 10
63.486716266333019
 20
117.77240910812816
 30
0.0
 10
63.486428778851632
 20
117.31606650154052
 30
0.0
 10
63.193618993397649
 20
117.03487168763445
 30
0.0
  0
SPLINE
  5
DF
102
{ACAD_REACTORS
330
31
102
}
100
AcDbEntity
  8
0
  6
CONTINUOUS
100
AcDbSpline
210
0.0
220
0.0
230
1.0
 70
     8
 71
     2
 72
     6
 73
     3
 74
     0
 42
0.0000001
 43
0.0000001
 40
0.0
 40
0.0
 40
0.0
 40
1.0
 40
1.0
 40
1.0
 10
63.193618993397649
 20
117.03487168763445
 30
0.0
 10
62.900808613399249
 20
116.75367925828921
 30
0.0
 10
62.350331217904909
 20
116.75402604896307
 30
0.0
  0
SPLINE
  5
E0
102
{ACAD_REACTORS
330
31
102
}
100
AcDbEntity
  8
0
  6
CONTINUOUS
100
AcDbSpline
210
0.0
220
0.0
230
1.0
 70
     8
 71
     2
 72
     6
 73
     3
 74
     0
 42
0.0000001
 43
0.0000001
 40
0.0
 40
0.0
 40
0.0
 40
1.0
 40
1.0
 40
1.0
 10
62.350569716380448
 20
117.13260606722203
 30
0.0
 10
62.768032220896373
 20
117.13234307349252
 30
0.0
 10
62.975854800359173
 20
117.31434252197811
 30
0.0
  0
SPLINE
  5
E1
102
{ACAD_REACTORS
330
31
102
}
100
AcDbEntity
  8
0
  6
CONTINUOUS
100
AcDbSpline
210
0.0
220
0.0
230
1.0
 70
     8
 71
     2
 72
     6
 73
     3
 74
     0
 42
0.0000001
 43
0.0000001
 40
0.0
 40
0.0
 40
0.0
 40
1.0
 40
1.0
 40
1.0
 10
62.975854800359116
 20
117.31434252197811
 30
0.0
 10
63.183677378319885
 20
117.49633958627838
 30
0.0
 10
63.183851417260939
 20
117.77259990743427
 30
0.0
  0
SPLINE
  5
E2
102
{ACAD_REACTORS
330
31
102
}
100
AcDbEntity
  8
0
  6
CONTINUOUS
100
AcDbSpline
210
0.0
220
0.0
230
1.0
 70
     8
 71
     2
 72
     6
 73
     3
 74
     0
 42
0.0000001
 43
0.0000001
 40
0.0
 40
0.0
 40
0.0
 40
1.0
 40
1.0
 40
1.0
 10
63.183851417260939
 20
117.77259990743427
 30
0.0
 10
63.184024168993801
 20
118.04681698177272
 30
0.0
 10
62.975407653986508
 20
118.229076395072
 30
0.0
  0
SPLINE
  5
E3
102
{ACAD_REACTORS
330
31
102
}
100
AcDbEntity
  8
0
  6
CONTINUOUS
100
AcDbSpline
210
0.0
220
0.0
230
1.0
 70
     8
 71
     2
 72
     6
 73
     3
 74
     0
 42
0.0000001
 43
0.0000001
 40
0.0
 40
0.0
 40
0.0
 40
1.0
 40
1.0
 40
1.0
 10
62.975407653986565
 20
118.22907639507198
 30
0.0
 10
62.766791735025492
 20
118.41133580799574
 30
0.0
 10
62.33909690317131
 20
118.41160524790399
 30
0.0
  0
SPLINE
  5
E4
102
{ACAD_REACTORS
330
31
102
}
100
AcDbEntity
  8
0
  6
CONTINUOUS
100
AcDbSpline
210
0.0
220
0.0
230
1.0
 70
     8
 71
     2
 72
     6
 73
     3
 74
     0
 42
0.0000001
 43
0.0000001
 40
0.0
 40
0.0
 40
0.0
 40
1.0
 40
1.0
 40
1.0
 10
62.339096903171253
 20
118.41160524790399
 30
0.0
 10
61.935959180091572
 20
118.41185921728365
 30
0.0
 10
61.728135957775748
 20
118.228839337482
 30
0.0
  0
SPLINE
  5
E5
102
{ACAD_REACTORS
330
31
102
}
100
AcDbEntity
  8
0
  6
CONTINUOUS
100
AcDbSpline
210
0.0
220
0.0
230
1.0
 70
     8
 71
     2
 72
     6
 73
     3
 74
     0
 42
0.0000001
 43
0.0000001
 40
0.0
 40
0.0
 40
0.0
 40
1.0
 40
1.0
 40
1.0
 10
61.728135957775805
 20
118.22883933748201
 30
0.0
 10
61.520312733957951
 20
118.04581707349504
 30
0.0
 10
61.520141272437115
 20
117.77364801434467
 30
0.0
  0
SPLINE
  5
E6
102
{ACAD_REACTORS
330
31
102
}
100
AcDbEntity
  8
0
  6
CONTINUOUS
100
AcDbSpline
210
0.0
220
0.0
230
1.0
 70
     8
 71
     2
 72
     6
 73
     3
 74
     0
 42
0.0000001
 43
0.0000001
 40
0.0
 40
0.0
 40
0.0
 40
1.0
 40
1.0
 40
1.0
 10
61.520141272437115
 20
117.77364801434469
 30
0.0
 10
61.519967233496175
 20
117.49738769318878
 30
0.0
 10
61.726536925408084
 20
117.31512956935057
 30
0.0
  0
SPLINE
  5
E7
102
{ACAD_REACTORS
330
31
102
}
100
AcDbEntity
  8
0
  6
CONTINUOUS
100
AcDbSpline
210
0.0
220
0.0
230
1.0
 70
     8
 71
     2
 72
     6
 73
     3
 74
     0
 42
0.0000001
 43
0.0000001
 40
0.0
 40
0.0
 40
0.0
 40
1.0
 40
1.0
 40
1.0
 10
61.726536925408141
 20
117.31512956935056
 30
0.0
 10
61.933107211864467
 20
117.13286906095153
 30
0.0
 10
62.350569716380505
 20
117.13260606722203
 30
0.0
  0
SPLINE
  5
E8
102
{ACAD_REACTORS
330
31
102
}
100
AcDbEntity
  8
0
  6
CONTINUOUS
100
AcDbSpline
210
0.0
220
0.0
230
1.0
 70
     8
 71
     2
 72
     6
 73
     3
 74
     0
 42
0.0000001
 43
0.0000001
 40
0.0
 40
0.0
 40
0.0
 40
1.0
 40
1.0
 40
1.0
 10
62.351799599373521
 20
119.08485806782068
 30
0.0
 10
61.748116128278639
 20
119.08523837734738
 30
0.0
 10
61.457740664099902
 20
119.4210289038538
 30
0.0
  0
SPLINE
  5
E9
102
{ACAD_REACTORS
330
31
102
}
100
AcDbEntity
  8
0
  6
CONTINUOUS
100
AcDbSpline
210
0.0
220
0.0
230
1.0
 70
     8
 71
     2
 72
     6
 73
     3
 74
     0
 42
0.0000001
 43
0.0000001
 40
0.0
 40
0.0
 40
0.0
 40
1.0
 40
1.0
 40
1.0
 10
61.457740664099845
 20
119.42102890385378
 30
0.0
 10
61.216444012734144
 20
119.70153499493608
 30
0.0
 10
61.216697981738378
 20
120.10467212196944
 30
0.0
  0
SPLINE
  5
EA
102
{ACAD_REACTORS
330
31
102
}
100
AcDbEntity
  8
0
  6
CONTINUOUS
100
AcDbSpline
210
0.0
220
0.0
230
1.0
 70
     8
 71
     2
 72
     6
 73
     3
 74
     0
 42
0.0000001
 43
0.0000001
 40
0.0
 40
0.0
 40
0.0
 40
1.0
 40
1.0
 40
1.0
 10
61.216697981738434
 20
120.10467212196946
 30
0.0
 10
61.216980314379612
 20
120.55283220454606
 30
0.0
 10
61.510816038990811
 20
120.83709243566491
 30
0.0
  0
SPLINE
  5
EB
102
{ACAD_REACTORS
330
31
102
}
100
AcDbEntity
  8
0
  6
CONTINUOUS
100
AcDbSpline
210
0.0
220
0.0
230
1.0
 70
     8
 71
     2
 72
     6
 73
     3
 74
     0
 42
0.0000001
 43
0.0000001
 40
0.0
 40
0.0
 40
0.0
 40
1.0
 40
1.0
 40
1.0
 10
61.510816038990754
 20
120.83709243566493
 30
0.0
 10
61.804651169057536
 20
121.12135505134461
 30
0.0
 10
62.322386547581175
 20
121.12102888754157
 30
0.0
  0
SPLINE
  5
EC
102
{ACAD_REACTORS
330
31
102
}
100
AcDbEntity
  8
0
  6
CONTINUOUS
100
AcDbSpline
210
0.0
220
0.0
230
1.0
 70
     8
 71
     2
 72
     6
 73
     3
 74
     0
 42
0.0000001
 43
0.0000001
 40
0.0
 40
0.0
 40
0.0
 40
1.0
 40
1.0
 40
1.0
 10
62.322386547581175
 20
121.12102888754156
 30
0.0
 10
62.741895279146149
 20
121.1207646047265
 30
0.0
 10
62.982266448667417
 20
120.99476151915519
 30
0.0
  0
SPLINE
  5
ED
102
{ACAD_REACTORS
330
31
102
}
100
AcDbEntity
  8
0
  6
CONTINUOUS
100
AcDbSpline
210
0.0
220
0.0
230
1.0
 70
     8
 71
     2
 72
     6
 73
     3
 74
     0
 42
0.0000001
 43
0.0000001
 40
0.0
 40
0.0
 40
0.0
 40
1.0
 40
1.0
 40
1.0
 10
62.982266448667417
 20
120.99476151915518
 30
0.0
 10
63.222637022142237
 20
120.86875843395937
 30
0.0
 10
63.35550043261361
 20
120.6282223951487
 30
0.0
  0
SPLINE
  5
EE
102
{ACAD_REACTORS
330
31
102
}
100
AcDbEntity
  8
0
  6
CONTINUOUS
100
AcDbSpline
210
0.0
220
0.0
230
1.0
 70
     8
 71
     2
 72
     6
 73
     3
 74
     0
 42
0.0000001
 43
0.0000001
 40
0.0
 40
0.0
 40
0.0
 40
1.0
 40
1.0
 40
1.0
 10
63.355500432613667
 20
120.62822239514871
 30
0.0
 10
63.488363844586956
 20
120.38768874052333
 30
0.0
 10
63.488184647801745
 20
120.10324112698576
 30
0.0
  0
SPLINE
  5
EF
102
{ACAD_REACTORS
330
31
102
}
100
AcDbEntity
  8
0
  6
CONTINUOUS
100
AcDbSpline
210
0.0
220
0.0
230
1.0
 70
     8
 71
     2
 72
     6
 73
     3
 74
     0
 42
0.0000001
 43
0.0000001
 40
0.0
 40
0.0
 40
0.0
 40
1.0
 40
1.0
 40
1.0
 10
63.488184647801688
 20
120.10324112698575
 30
0.0
 10
63.487897160320188
 20
119.64689852039811
 30
0.0
 10
63.195087374866205
 20
119.36570370649206
 30
0.0
  0
SPLINE
  5
F0
102
{ACAD_REACTORS
330
31
102
}
100
AcDbEntity
  8
0
  6
CONTINUOUS
100
AcDbSpline
210
0.0
220
0.0
230
1.0
 70
     8
 71
     2
 72
     6
 73
     3
 74
     0
 42
0.0000001
 43
0.0000001
 40
0.0
 40
0.0
 40
0.0
 40
1.0
 40
1.0
 40
1.0
 10
63.195087374866262
 20
119.36570370649208
 30
0.0
 10
62.902276994867862
 20
119.08451127714685
 30
0.0
 10
62.351799599373521
 20
119.08485806782069
 30
0.0
  0
SPLINE
  5
F1
102
{ACAD_REACTORS
330
31
102
}
100
AcDbEntity
  8
0
  6
CONTINUOUS
100
AcDbSpline
210
0.0
220
0.0
230
1.0
 70
     8
 71
     2
 72
     6
 73
     3
 74
     0
 42
0.0000001
 43
0.0000001
 40
0.0
 40
0.0
 40
0.0
 40
1.0
 40
1.0
 40
1.0
 10
62.352038097849004
 20
119.46343808607962
 30
0.0
 10
62.769500602364928
 20
119.46317509235013
 30
0.0
 10
62.977323181827842
 20
119.6451745408357
 30
0.0
  0
SPLINE
  5
F2
102
{ACAD_REACTORS
330
31
102
}
100
AcDbEntity
  8
0
  6
CONTINUOUS
100
AcDbSpline
210
0.0
220
0.0
230
1.0
 70
     8
 71
     2
 72
     6
 73
     3
 74
     0
 42
0.0000001
 43
0.0000001
 40
0.0
 40
0.0
 40
0.0
 40
1.0
 40
1.0
 40
1.0
 10
62.977323181827956
 20
119.6451745408357
 30
0.0
 10
63.185145759788838
 20
119.82717160513599
 30
0.0
 10
63.185319798729779
 20
120.10343192629188
 30
0.0
  0
SPLINE
  5
F3
102
{ACAD_REACTORS
330
31
102
}
100
AcDbEntity
  8
0
  6
CONTINUOUS
100
AcDbSpline
210
0.0
220
0.0
230
1.0
 70
     8
 71
     2
 72
     6
 73
     3
 74
     0
 42
0.0000001
 43
0.0000001
 40
0.0
 40
0.0
 40
0.0
 40
1.0
 40
1.0
 40
1.0
 10
63.185319798729722
 20
120.10343192629189
 30
0.0
 10
63.185492550462584
 20
120.37764900063034
 30
0.0
 10
62.976876035455177
 20
120.55990841392959
 30
0.0
  0
SPLINE
  5
F4
102
{ACAD_REACTORS
330
31
102
}
100
AcDbEntity
  8
0
  6
CONTINUOUS
100
AcDbSpline
210
0.0
220
0.0
230
1.0
 70
     8
 71
     2
 72
     6
 73
     3
 74
     0
 42
0.0000001
 43
0.0000001
 40
0.0
 40
0.0
 40
0.0
 40
1.0
 40
1.0
 40
1.0
 10
62.976876035455234
 20
120.55990841392959
 30
0.0
 10
62.768260116494162
 20
120.74216782685336
 30
0.0
 10
62.340565284640093
 20
120.74243726676163
 30
0.0
  0
SPLINE
  5
F5
102
{ACAD_REACTORS
330
31
102
}
100
AcDbEntity
  8
0
  6
CONTINUOUS
100
AcDbSpline
210
0.0
220
0.0
230
1.0
 70
     8
 71
     2
 72
     6
 73
     3
 74
     0
 42
0.0000001
 43
0.0000001
 40
0.0
 40
0.0
 40
0.0
 40
1.0
 40
1.0
 40
1.0
 10
62.340565284640093
 20
120.74243726676161
 30
0.0
 10
61.937427561560526
 20
120.74269123614127
 30
0.0
 10
61.729604339244588
 20
120.55967135633962
 30
0.0
  0
SPLINE
  5
F6
102
{ACAD_REACTORS
330
31
102
}
100
AcDbEntity
  8
0
  6
CONTINUOUS
100
AcDbSpline
210
0.0
220
0.0
230
1.0
 70
     8
 71
     2
 72
     6
 73
     3
 74
     0
 42
0.0000001
 43
0.0000001
 40
0.0
 40
0.0
 40
0.0
 40
1.0
 40
1.0
 40
1.0
 10
61.729604339244531
 20
120.55967135633963
 30
0.0
 10
61.521781115426563
 20
120.37664909235265
 30
0.0
 10
61.521609653905841
 20
120.10448003320228
 30
0.0
  0
SPLINE
  5
F7
102
{ACAD_REACTORS
330
31
102
}
100
AcDbEntity
  8
0
  6
CONTINUOUS
100
AcDbSpline
210
0.0
220
0.0
230
1.0
 70
     8
 71
     2
 72
     6
 73
     3
 74
     0
 42
0.0000001
 43
0.0000001
 40
0.0
 40
0.0
 40
0.0
 40
1.0
 40
1.0
 40
1.0
 10
61.521609653905841
 20
120.10448003320228
 30
0.0
 10
61.521435614964787
 20
119.82821971204638
 30
0.0
 10
61.72800530687681
 20
119.64596158820818
 30
0.0
  0
SPLINE
  5
F8
102
{ACAD_REACTORS
330
31
102
}
100
AcDbEntity
  8
0
  6
CONTINUOUS
100
AcDbSpline
210
0.0
220
0.0
230
1.0
 70
     8
 71
     2
 72
     6
 73
     3
 74
     0
 42
0.0000001
 43
0.0000001
 40
0.0
 40
0.0
 40
0.0
 40
1.0
 40
1.0
 40
1.0
 10
61.72800530687681
 20
119.64596158820819
 30
0.0
 10
61.934575593333136
 20
119.46370107980916
 30
0.0
 10
62.352038097849061
 20
119.46343808607965
 30
0.0
  0
LINE
  5
F9
102
{ACAD_REACTORS
330
31
102
}
100
AcDbEntity
  8
0
  6
CONTINUOUS
100
AcDbLine
 10
63.440873
 20
122.962072
 30
0.0
 11
63.166657
 21
122.962245
 31
0.0
  0
SPLINE
  5
FA
102
{ACAD_REACTORS
330
31
102
}
100
AcDbEntity
  8
0
  6
CONTINUOUS
100
AcDbSpline
210
0.0
220
0.0
230
1.0
 70
     8
 71
     2
 72
     6
 73
     3
 74
     0
 42
0.0000001
 43
0.0000001
 40
0.0
 40
0.0
 40
0.0
 40
1.0
 40
1.0
 40
1.0
 10
63.166657327972132
 20
122.96224513866406
 30
0.0
 10
63.489855431848525
 20
122.75535642254253
 30
0.0
 10
63.489602751554401
 20
122.35426492651195
 30
0.0
  0
SPLINE
  5
FB
102
{ACAD_REACTORS
330
31
102
}
100
AcDbEntity
  8
0
  6
CONTINUOUS
100
AcDbSpline
210
0.0
220
0.0
230
1.0
 70
     8
 71
     2
 72
     6
 73
     3
 74
     0
 42
0.0000001
 43
0.0000001
 40
0.0
 40
0.0
 40
0.0
 40
1.0
 40
1.0
 40
1.0
 10
63.489602751554401
 20
122.35426492651196
 30
0.0
 10
63.489439025297827
 20
122.09437442174877
 30
0.0
 10
63.346055105841231
 20
121.87652628458699
 30
0.0
  0
SPLINE
  5
FC
102
{ACAD_REACTORS
330
31
102
}
100
AcDbEntity
  8
0
  6
CONTINUOUS
100
AcDbSpline
210
0.0
220
0.0
230
1.0
 70
     8
 71
     2
 72
     6
 73
     3
 74
     0
 42
0.0000001
 43
0.0000001
 40
0.0
 40
0.0
 40
0.0
 40
1.0
 40
1.0
 40
1.0
 10
63.346055105841231
 20
121.87652628458697
 30
0.0
 10
63.20267058883627
 20
121.65867576361538
 30
0.0
 10
62.94577430459384
 20
121.53912284287337
 30
0.0
  0
SPLINE
  5
FD
102
{ACAD_REACTORS
330
31
102
}
100
AcDbEntity
  8
0
  6
CONTINUOUS
100
AcDbSpline
210
0.0
220
0.0
230
1.0
 70
     8
 71
     2
 72
     6
 73
     3
 74
     0
 42
0.0000001
 43
0.0000001
 40
0.0
 40
0.0
 40
0.0
 40
1.0
 40
1.0
 40
1.0
 10
62.945774304593783
 20
121.53912284287337
 30
0.0
 10
62.68887742580705
 20
121.41957230669219
 30
0.0
 10
62.355316786813319
 20
121.41978244378357
 30
0.0
  0
SPLINE
  5
FE
102
{ACAD_REACTORS
330
31
102
}
100
AcDbEntity
  8
0
  6
CONTINUOUS
100
AcDbSpline
210
0.0
220
0.0
230
1.0
 70
     8
 71
     2
 72
     6
 73
     3
 74
     0
 42
0.0000001
 43
0.0000001
 40
0.0
 40
0.0
 40
0.0
 40
1.0
 40
1.0
 40
1.0
 10
62.355316786813319
 20
121.41978244378357
 30
0.0
 10
62.029941652062348
 20
121.41998742415727
 30
0.0
 10
61.765003608819939
 20
121.52861334761211
 30
0.0
  0
SPLINE
  5
FF
102
{ACAD_REACTORS
330
31
102
}
100
AcDbEntity
  8
0
  6
CONTINUOUS
100
AcDbSpline
210
0.0
220
0.0
230
1.0
 70
     8
 71
     2
 72
     6
 73
     3
 74
     0
 42
0.0000001
 43
0.0000001
 40
0.0
 40
0.0
 40
0.0
 40
1.0
 40
1.0
 40
1.0
 10
61.765003608819995
 20
121.52861334761211
 30
0.0
 10
61.500064968029335
 20
121.63723688725712
 30
0.0
 10
61.359001227141732
 20
121.85424378951249
 30
0.0
  0
SPLINE
  5
100
102
{ACAD_REACTORS
330
31
102
}
100
AcDbEntity
  8
0
  6
CONTINUOUS
100
AcDbSpline
210
0.0
220
0.0
230
1.0
 70
     8
 71
     2
 72
     6
 73
     3
 74
     0
 42
0.0000001
 43
0.0000001
 40
0.0
 40
0.0
 40
0.0
 40
1.0
 40
1.0
 40
1.0
 10
61.359001227141732
 20
121.85424378951249
 30
0.0
 10
61.217937186728989
 20
122.07124830777032
 30
0.0
 10
61.218106070829833
 20
122.33932610491516
 30
0.0
  0
SPLINE
  5
101
102
{ACAD_REACTORS
330
31
102
}
100
AcDbEntity
  8
0
  6
CONTINUOUS
100
AcDbSpline
210
0.0
220
0.0
230
1.0
 70
     8
 71
     2
 72
     6
 73
     3
 74
     0
 42
0.0000001
 43
0.0000001
 40
0.0
 40
0.0
 40
0.0
 40
1.0
 40
1.0
 40
1.0
 10
61.218106070829833
 20
122.33932610491514
 30
0.0
 10
61.218229832054647
 20
122.53577820673961
 30
0.0
 10
61.301205273354242
 20
122.68920554029887
 30
0.0
  0
SPLINE
  5
102
102
{ACAD_REACTORS
330
31
102
}
100
AcDbEntity
  8
0
  6
CONTINUOUS
100
AcDbSpline
210
0.0
220
0.0
230
1.0
 70
     8
 71
     2
 72
     6
 73
     3
 74
     0
 42
0.0000001
 43
0.0000001
 40
0.0
 40
0.0
 40
0.0
 40
1.0
 40
1.0
 40
1.0
 10
61.301205273354242
 20
122.68920554029889
 30
0.0
 10
61.384180416630727
 20
122.84263287404589
 30
0.0
 10
61.517255898009523
 20
122.9387271128257
 30
0.0
  0
LINE
  5
103
102
{ACAD_REACTORS
330
31
102
}
100
AcDbEntity
  8
0
  6
CONTINUOUS
100
AcDbLine
 10
61.517256
 20
122.938727
 30
0.0
 11
60.440858
 21
122.939405
 31
0.0
  0
LINE
  5
104
102
{ACAD_REACTORS
330
31
102
}
100
AcDbEntity
  8
0
  6
CONTINUOUS
100
AcDbLine
 10
60.440858
 20
122.939405
 30
0.0
 11
60.441089
 21
123.305709
 31
0.0
  0
LINE
  5
105
102
{ACAD_REACTORS
330
31
102
}
100
AcDbEntity
  8
0
  6
CONTINUOUS
100
AcDbLine
 10
60.441089
 20
123.305709
 30
0.0
 11
63.441088
 21
123.303819
 31
0.0
  0
LINE
  5
106
102
{ACAD_REACTORS
330
31
102
}
100
AcDbEntity
  8
0
  6
CONTINUOUS
100
AcDbLine
 10
63.441088
 20
123.303819
 30
0.0
 11
63.440873
 21
122.962072
 31
0.0
  0
SPLINE
  5
107
102
{ACAD_REACTORS
330
31
102
}
100
AcDbEntity
  8
0
  6
CONTINUOUS
100
AcDbSpline
210
0.0
220
0.0
230
1.0
 70
     8
 71
     2
 72
     6
 73
     3
 74
     0
 42
0.0000001
 43
0.0000001
 40
0.0
 40
0.0
 40
0.0
 40
1.0
 40
1.0
 40
1.0
 10
62.355555285288972
 20
121.79836246204253
 30
0.0
 10
62.773017789804896
 20
121.79809946831303
 30
0.0
 10
62.979813686134264
 20
121.97396028396004
 30
0.0
  0
SPLINE
  5
108
102
{ACAD_REACTORS
330
31
102
}
100
AcDbEntity
  8
0
  6
CONTINUOUS
100
AcDbSpline
210
0.0
220
0.0
230
1.0
 70
     8
 71
     2
 72
     6
 73
     3
 74
     0
 42
0.0000001
 43
0.0000001
 40
0.0
 40
0.0
 40
0.0
 40
1.0
 40
1.0
 40
1.0
 10
62.979813686134207
 20
121.97396028396004
 30
0.0
 10
63.18660898491521
 20
122.14981871579725
 30
0.0
 10
63.186759819565168
 20
122.38924575797687
 30
0.0
  0
SPLINE
  5
109
102
{ACAD_REACTORS
330
31
102
}
100
AcDbEntity
  8
0
  6
CONTINUOUS
100
AcDbSpline
210
0.0
220
0.0
230
1.0
 70
     8
 71
     2
 72
     6
 73
     3
 74
     0
 42
0.0000001
 43
0.0000001
 40
0.0
 40
0.0
 40
0.0
 40
1.0
 40
1.0
 40
1.0
 10
63.186759819565225
 20
122.38924575797687
 30
0.0
 10
63.186911942925406
 20
122.63071843115927
 30
0.0
 10
62.989542191138128
 20
122.79966938403618
 30
0.0
  0
SPLINE
  5
10A
102
{ACAD_REACTORS
330
31
102
}
100
AcDbEntity
  8
0
  6
CONTINUOUS
100
AcDbSpline
210
0.0
220
0.0
230
1.0
 70
     8
 71
     2
 72
     6
 73
     3
 74
     0
 42
0.0000001
 43
0.0000001
 40
0.0
 40
0.0
 40
0.0
 40
1.0
 40
1.0
 40
1.0
 10
62.989542191138071
 20
122.79966938403619
 30
0.0
 10
62.792173035397127
 20
122.96862033653758
 30
0.0
 10
62.386988489222063
 20
122.96887559537831
 30
0.0
  0
SPLINE
  5
10B
102
{ACAD_REACTORS
330
31
102
}
100
AcDbEntity
  8
0
  6
CONTINUOUS
100
AcDbSpline
210
0.0
220
0.0
230
1.0
 70
     8
 71
     2
 72
     6
 73
     3
 74
     0
 42
0.0000001
 43
0.0000001
 40
0.0
 40
0.0
 40
0.0
 40
1.0
 40
1.0
 40
1.0
 10
62.386988489222119
 20
122.96887559537829
 30
0.0
 10
61.940877017879927
 20
122.96915663743202
 30
0.0
 10
61.732037474925562
 20
122.7973931412467
 30
0.0
  0
SPLINE
  5
10C
102
{ACAD_REACTORS
330
31
102
}
100
AcDbEntity
  8
0
  6
CONTINUOUS
100
AcDbSpline
210
0.0
220
0.0
230
1.0
 70
     8
 71
     2
 72
     6
 73
     3
 74
     0
 42
0.0000001
 43
0.0000001
 40
0.0
 40
0.0
 40
0.0
 40
1.0
 40
1.0
 40
1.0
 10
61.732037474925562
 20
122.7973931412467
 30
0.0
 10
61.523197930469166
 20
122.62562726087607
 30
0.0
 10
61.523039360554947
 20
122.37392166430924
 30
0.0
  0
SPLINE
  5
10D
102
{ACAD_REACTORS
330
31
102
}
100
AcDbEntity
  8
0
  6
CONTINUOUS
100
AcDbSpline
210
0.0
220
0.0
230
1.0
 70
     8
 71
     2
 72
     6
 73
     3
 74
     0
 42
0.0000001
 43
0.0000001
 40
0.0
 40
0.0
 40
0.0
 40
1.0
 40
1.0
 40
1.0
 10
61.523039360554947
 20
122.37392166430925
 30
0.0
 10
61.522884658272744
 20
122.12835534493603
 30
0.0
 10
61.723326627578842
 20
121.96349610443387
 30
0.0
  0
SPLINE
  5
10E
102
{ACAD_REACTORS
330
31
102
}
100
AcDbEntity
  8
0
  6
CONTINUOUS
100
AcDbSpline
210
0.0
220
0.0
230
1.0
 70
     8
 71
     2
 72
     6
 73
     3
 74
     0
 42
0.0000001
 43
0.0000001
 40
0.0
 40
0.0
 40
0.0
 40
1.0
 40
1.0
 40
1.0
 10
61.723326627578842
 20
121.96349610443386
 30
0.0
 10
61.923768595383024
 20
121.79863447974641
 30
0.0
 10
62.355555285288972
 20
121.79836246204253
 30
0.0
  0
LINE
  5
10F
102
{ACAD_REACTORS
330
31
102
}
100
AcDbEntity
  8
0
  6
CONTINUOUS
100
AcDbLine
 10
63.113225
 20
125.851772
 30
0.0
 11
63.438633
 21
125.904777
 31
0.0
  0
SPLINE
  5
110
102
{ACAD_REACTORS
330
31
102
}
100
AcDbEntity
  8
0
  6
CONTINUOUS
100
AcDbSpline
210
0.0
220
0.0
230
1.0
 70
     8
 71
     2
 72
     6
 73
     3
 74
     0
 42
0.0000001
 43
0.0000001
 40
0.0
 40
0.0
 40
0.0
 40
1.0
 40
1.0
 40
1.0
 10
63.438633412491242
 20
125.90477715289218
 30
0.0
 10
63.471278047496355
 20
125.7492313489885
 30
0.0
 10
63.471200697857228
 20
125.62645057348719
 30
0.0
  0
SPLINE
  5
111
102
{ACAD_REACTORS
330
31
102
}
100
AcDbEntity
  8
0
  6
CONTINUOUS
100
AcDbSpline
210
0.0
220
0.0
230
1.0
 70
     8
 71
     2
 72
     6
 73
     3
 74
     0
 42
0.0000001
 43
0.0000001
 40
0.0
 40
0.0
 40
0.0
 40
1.0
 40
1.0
 40
1.0
 10
63.471200697857228
 20
125.62645057348719
 30
0.0
 10
63.471074356208248
 20
125.42590244128658
 30
0.0
 10
63.40756693494103
 20
125.31544018482859
 30
0.0
  0
SPLINE
  5
112
102
{ACAD_REACTORS
330
31
102
}
100
AcDbEntity
  8
0
  6
CONTINUOUS
100
AcDbSpline
210
0.0
220
0.0
230
1.0
 70
     8
 71
     2
 72
     6
 73
     3
 74
     0
 42
0.0000001
 43
0.0000001
 40
0.0
 40
0.0
 40
0.0
 40
1.0
 40
1.0
 40
1.0
 10
63.407566934940974
 20
125.3154401848286
 30
0.0
 10
63.344058914623361
 20
125.20497316037545
 30
0.0
 10
63.240688637432186
 20
125.16002007671692
 30
0.0
  0
SPLINE
  5
113
102
{ACAD_REACTORS
330
31
102
}
100
AcDbEntity
  8
0
  6
CONTINUOUS
100
AcDbSpline
210
0.0
220
0.0
230
1.0
 70
     8
 71
     2
 72
     6
 73
     3
 74
     0
 42
0.0000001
 43
0.0000001
 40
0.0
 40
0.0
 40
0.0
 40
1.0
 40
1.0
 40
1.0
 10
63.240688637432299
 20
125.16002007671693
 30
0.0
 10
63.137317761190729
 20
125.1150622250633
 30
0.0
 10
62.805803349246162
 20
125.11527107306914
 30
0.0
  0
LINE
  5
114
102
{ACAD_REACTORS
330
31
102
}
100
AcDbEntity
  8
0
  6
CONTINUOUS
100
AcDbLine
 10
62.805803
 20
125.115271
 30
0.0
 11
61.555463
 21
125.116059
 31
0.0
  0
LINE
  5
115
102
{ACAD_REACTORS
330
31
102
}
100
AcDbEntity
  8
0
  6
CONTINUOUS
100
AcDbLine
 10
61.555463
 20
125.116059
 30
0.0
 11
61.555292
 21
124.845935
 31
0.0
  0
LINE
  5
116
102
{ACAD_REACTORS
330
31
102
}
100
AcDbEntity
  8
0
  6
CONTINUOUS
100
AcDbLine
 10
61.555292
 20
124.845935
 30
0.0
 11
61.268799
 21
124.846116
 31
0.0
  0
LINE
  5
117
102
{ACAD_REACTORS
330
31
102
}
100
AcDbEntity
  8
0
  6
CONTINUOUS
100
AcDbLine
 10
61.268799
 20
124.846116
 30
0.0
 11
61.268969
 21
125.116239
 31
0.0
  0
LINE
  5
118
102
{ACAD_REACTORS
330
31
102
}
100
AcDbEntity
  8
0
  6
CONTINUOUS
100
AcDbLine
 10
61.268969
 20
125.116239
 30
0.0
 11
60.730769
 21
125.116578
 31
0.0
  0
LINE
  5
119
102
{ACAD_REACTORS
330
31
102
}
100
AcDbEntity
  8
0
  6
CONTINUOUS
100
AcDbLine
 10
60.730769
 20
125.116578
 30
0.0
 11
60.509991
 21
125.483019
 31
0.0
  0
LINE
  5
11A
102
{ACAD_REACTORS
330
31
102
}
100
AcDbEntity
  8
0
  6
CONTINUOUS
100
AcDbLine
 10
60.509991
 20
125.483019
 30
0.0
 11
61.2692
 21
125.482541
 31
0.0
  0
LINE
  5
11B
102
{ACAD_REACTORS
330
31
102
}
100
AcDbEntity
  8
0
  6
CONTINUOUS
100
AcDbLine
 10
61.2692
 20
125.482541
 30
0.0
 11
61.269433
 21
125.852933
 31
0.0
  0
LINE
  5
11C
102
{ACAD_REACTORS
330
31
102
}
100
AcDbEntity
  8
0
  6
CONTINUOUS
100
AcDbLine
 10
61.269433
 20
125.852933
 30
0.0
 11
61.555927
 21
125.852753
 31
0.0
  0
LINE
  5
11D
102
{ACAD_REACTORS
330
31
102
}
100
AcDbEntity
  8
0
  6
CONTINUOUS
100
AcDbLine
 10
61.555927
 20
125.852753
 30
0.0
 11
61.555693
 21
125.48236
 31
0.0
  0
LINE
  5
11E
102
{ACAD_REACTORS
330
31
102
}
100
AcDbEntity
  8
0
  6
CONTINUOUS
100
AcDbLine
 10
61.555693
 20
125.48236
 30
0.0
 11
62.826498
 21
125.48156
 31
0.0
  0
SPLINE
  5
11F
102
{ACAD_REACTORS
330
31
102
}
100
AcDbEntity
  8
0
  6
CONTINUOUS
100
AcDbSpline
210
0.0
220
0.0
230
1.0
 70
     8
 71
     2
 72
     6
 73
     3
 74
     0
 42
0.0000001
 43
0.0000001
 40
0.0
 40
0.0
 40
0.0
 40
1.0
 40
1.0
 40
1.0
 10
62.826498171087223
 20
125.48155964495889
 30
0.0
 10
62.984069574793693
 20
125.48146037786141
 30
0.0
 10
63.02910239340315
 20
125.50087266280845
 30
0.0
  0
SPLINE
  5
120
102
{ACAD_REACTORS
330
31
102
}
100
AcDbEntity
  8
0
  6
CONTINUOUS
100
AcDbSpline
210
0.0
220
0.0
230
1.0
 70
     8
 71
     2
 72
     6
 73
     3
 74
     0
 42
0.0000001
 43
0.0000001
 40
0.0
 40
0.0
 40
0.0
 40
1.0
 40
1.0
 40
1.0
 10
63.029102393403093
 20
125.50087266280845
 30
0.0
 10
63.074134615966216
 20
125.52028494813099
 30
0.0
 10
63.100765669569739
 20
125.56426594437336
 30
0.0
  0
SPLINE
  5
121
102
{ACAD_REACTORS
330
31
102
}
100
AcDbEntity
  8
0
  6
CONTINUOUS
100
AcDbSpline
210
0.0
220
0.0
230
1.0
 70
     8
 71
     2
 72
     6
 73
     3
 74
     0
 42
0.0000001
 43
0.0000001
 40
0.0
 40
0.0
 40
0.0
 40
1.0
 40
1.0
 40
1.0
 10
63.100765669569739
 20
125.56426594437336
 30
0.0
 10
63.127396127126929
 20
125.60824694099126
 30
0.0
 10
63.127447693553052
 20
125.69010079132543
 30
0.0
  0
SPLINE
  5
122
102
{ACAD_REACTORS
330
31
102
}
100
AcDbEntity
  8
0
  6
CONTINUOUS
100
AcDbSpline
210
0.0
220
0.0
230
1.0
 70
     8
 71
     2
 72
     6
 73
     3
 74
     0
 42
0.0000001
 43
0.0000001
 40
0.0
 40
0.0
 40
0.0
 40
1.0
 40
1.0
 40
1.0
 10
63.127447693552995
 20
125.69010079132543
 30
0.0
 10
63.127486369874532
 20
125.75149356326141
 30
0.0
 10
63.113224756258774
 20
125.85177188534094
 30
0.0
  0
SPLINE
  5
123
102
{ACAD_REACTORS
330
31
102
}
100
AcDbEntity
  8
0
  6
CONTINUOUS
100
AcDbSpline
210
0.0
220
0.0
230
1.0
 70
     8
 71
     2
 72
     6
 73
     3
 74
     0
 42
0.0000001
 43
0.0000001
 40
0.0
 40
0.0
 40
0.0
 40
1.0
 40
1.0
 40
1.0
 10
62.356203455069476
 20
126.07530849339075
 30
0.0
 10
61.75251998397448
 20
126.07568880291745
 30
0.0
 10
61.462144519795856
 20
126.41147932942387
 30
0.0
  0
SPLINE
  5
124
102
{ACAD_REACTORS
330
31
102
}
100
AcDbEntity
  8
0
  6
CONTINUOUS
100
AcDbSpline
210
0.0
220
0.0
230
1.0
 70
     8
 71
     2
 72
     6
 73
     3
 74
     0
 42
0.0000001
 43
0.0000001
 40
0.0
 40
0.0
 40
0.0
 40
1.0
 40
1.0
 40
1.0
 10
61.46214451979597
 20
126.41147932942387
 30
0.0
 10
61.220847869932285
 20
126.69198780469149
 30
0.0
 10
61.22110183893642
 20
127.09512493172484
 30
0.0
  0
SPLINE
  5
125
102
{ACAD_REACTORS
330
31
102
}
100
AcDbEntity
  8
0
  6
CONTINUOUS
100
AcDbSpline
210
0.0
220
0.0
230
1.0
 70
     8
 71
     2
 72
     6
 73
     3
 74
     0
 42
0.0000001
 43
0.0000001
 40
0.0
 40
0.0
 40
0.0
 40
1.0
 40
1.0
 40
1.0
 10
61.221101838936363
 20
127.09512493172484
 30
0.0
 10
61.221384171577654
 20
127.54328501430145
 30
0.0
 10
61.515219894686822
 20
127.827542861235
 30
0.0
  0
SPLINE
  5
126
102
{ACAD_REACTORS
330
31
102
}
100
AcDbEntity
  8
0
  6
CONTINUOUS
100
AcDbSpline
210
0.0
220
0.0
230
1.0
 70
     8
 71
     2
 72
     6
 73
     3
 74
     0
 42
0.0000001
 43
0.0000001
 40
0.0
 40
0.0
 40
0.0
 40
1.0
 40
1.0
 40
1.0
 10
61.515219894686822
 20
127.827542861235
 30
0.0
 10
61.809055024753604
 20
128.11180547691464
 30
0.0
 10
62.326790403277244
 20
128.11147931311163
 30
0.0
  0
SPLINE
  5
127
102
{ACAD_REACTORS
330
31
102
}
100
AcDbEntity
  8
0
  6
CONTINUOUS
100
AcDbSpline
210
0.0
220
0.0
230
1.0
 70
     8
 71
     2
 72
     6
 73
     3
 74
     0
 42
0.0000001
 43
0.0000001
 40
0.0
 40
0.0
 40
0.0
 40
1.0
 40
1.0
 40
1.0
 10
62.326790403277244
 20
128.11147931311166
 30
0.0
 10
62.746299134842218
 20
128.11121503029659
 30
0.0
 10
62.986670304363486
 20
127.98521194472528
 30
0.0
  0
SPLINE
  5
128
102
{ACAD_REACTORS
330
31
102
}
100
AcDbEntity
  8
0
  6
CONTINUOUS
100
AcDbSpline
210
0.0
220
0.0
230
1.0
 70
     8
 71
     2
 72
     6
 73
     3
 74
     0
 42
0.0000001
 43
0.0000001
 40
0.0
 40
0.0
 40
0.0
 40
1.0
 40
1.0
 40
1.0
 10
62.986670304363486
 20
127.98521194472526
 30
0.0
 10
63.227040877838192
 20
127.85920885952946
 30
0.0
 10
63.359904286807648
 20
127.61867043653344
 30
0.0
  0
SPLINE
  5
129
102
{ACAD_REACTORS
330
31
102
}
100
AcDbEntity
  8
0
  6
CONTINUOUS
100
AcDbSpline
210
0.0
220
0.0
230
1.0
 70
     8
 71
     2
 72
     6
 73
     3
 74
     0
 42
0.0000001
 43
0.0000001
 40
0.0
 40
0.0
 40
0.0
 40
1.0
 40
1.0
 40
1.0
 10
63.359904286807648
 20
127.61867043653344
 30
0.0
 10
63.492767698780938
 20
127.37813678190808
 30
0.0
 10
63.492588504999674
 20
127.09369393674116
 30
0.0
  0
SPLINE
  5
12A
102
{ACAD_REACTORS
330
31
102
}
100
AcDbEntity
  8
0
  6
CONTINUOUS
100
AcDbSpline
210
0.0
220
0.0
230
1.0
 70
     8
 71
     2
 72
     6
 73
     3
 74
     0
 42
0.0000001
 43
0.0000001
 40
0.0
 40
0.0
 40
0.0
 40
1.0
 40
1.0
 40
1.0
 10
63.492588504999617
 20
127.09369393674116
 30
0.0
 10
63.492301017518116
 20
126.63735133015352
 30
0.0
 10
63.199491230562217
 20
126.35615413206214
 30
0.0
  0
SPLINE
  5
12B
102
{ACAD_REACTORS
330
31
102
}
100
AcDbEntity
  8
0
  6
CONTINUOUS
100
AcDbSpline
210
0.0
220
0.0
230
1.0
 70
     8
 71
     2
 72
     6
 73
     3
 74
     0
 42
0.0000001
 43
0.0000001
 40
0.0
 40
0.0
 40
0.0
 40
1.0
 40
1.0
 40
1.0
 10
63.199491230562217
 20
126.35615413206214
 30
0.0
 10
62.906680850563816
 20
126.07496170271689
 30
0.0
 10
62.356203455069476
 20
126.07530849339075
 30
0.0
  0
SPLINE
  5
12C
102
{ACAD_REACTORS
330
31
102
}
100
AcDbEntity
  8
0
  6
CONTINUOUS
100
AcDbSpline
210
0.0
220
0.0
230
1.0
 70
     8
 71
     2
 72
     6
 73
     3
 74
     0
 42
0.0000001
 43
0.0000001
 40
0.0
 40
0.0
 40
0.0
 40
1.0
 40
1.0
 40
1.0
 10
62.356441953545186
 20
126.45388851164971
 30
0.0
 10
62.773904458061111
 20
126.4536255179202
 30
0.0
 10
62.981727036021994
 20
126.63562258222048
 30
0.0
  0
SPLINE
  5
12D
102
{ACAD_REACTORS
330
31
102
}
100
AcDbEntity
  8
0
  6
CONTINUOUS
100
AcDbSpline
210
0.0
220
0.0
230
1.0
 70
     8
 71
     2
 72
     6
 73
     3
 74
     0
 42
0.0000001
 43
0.0000001
 40
0.0
 40
0.0
 40
0.0
 40
1.0
 40
1.0
 40
1.0
 10
62.981727036021937
 20
126.63562258222048
 30
0.0
 10
63.189549616986767
 20
126.8176244148914
 30
0.0
 10
63.189723655927708
 20
127.09388473604729
 30
0.0
  0
SPLINE
  5
12E
102
{ACAD_REACTORS
330
31
102
}
100
AcDbEntity
  8
0
  6
CONTINUOUS
100
AcDbSpline
210
0.0
220
0.0
230
1.0
 70
     8
 71
     2
 72
     6
 73
     3
 74
     0
 42
0.0000001
 43
0.0000001
 40
0.0
 40
0.0
 40
0.0
 40
1.0
 40
1.0
 40
1.0
 10
63.189723655927764
 20
127.09388473604727
 30
0.0
 10
63.189896406158709
 20
127.36809942620042
 30
0.0
 10
62.981279891151303
 20
127.55035883949965
 30
0.0
  0
SPLINE
  5
12F
102
{ACAD_REACTORS
330
31
102
}
100
AcDbEntity
  8
0
  6
CONTINUOUS
100
AcDbSpline
210
0.0
220
0.0
230
1.0
 70
     8
 71
     2
 72
     6
 73
     3
 74
     0
 42
0.0000001
 43
0.0000001
 40
0.0
 40
0.0
 40
0.0
 40
1.0
 40
1.0
 40
1.0
 10
62.981279891151189
 20
127.55035883949967
 30
0.0
 10
62.772663972190117
 20
127.73261825242345
 30
0.0
 10
62.344969140336048
 20
127.7328876923317
 30
0.0
  0
SPLINE
  5
130
102
{ACAD_REACTORS
330
31
102
}
100
AcDbEntity
  8
0
  6
CONTINUOUS
100
AcDbSpline
210
0.0
220
0.0
230
1.0
 70
     8
 71
     2
 72
     6
 73
     3
 74
     0
 42
0.0000001
 43
0.0000001
 40
0.0
 40
0.0
 40
0.0
 40
1.0
 40
1.0
 40
1.0
 10
62.344969140336104
 20
127.7328876923317
 30
0.0
 10
61.941831417256424
 20
127.73314166171136
 30
0.0
 10
61.734008196442517
 20
127.55012416609503
 30
0.0
  0
SPLINE
  5
131
102
{ACAD_REACTORS
330
31
102
}
100
AcDbEntity
  8
0
  6
CONTINUOUS
100
AcDbSpline
210
0.0
220
0.0
230
1.0
 70
     8
 71
     2
 72
     6
 73
     3
 74
     0
 42
0.0000001
 43
0.0000001
 40
0.0
 40
0.0
 40
0.0
 40
1.0
 40
1.0
 40
1.0
 10
61.734008196442517
 20
127.55012416609502
 30
0.0
 10
61.526184972624662
 20
127.36710190210803
 30
0.0
 10
61.526013511103827
 20
127.09493284295768
 30
0.0
  0
SPLINE
  5
132
102
{ACAD_REACTORS
330
31
102
}
100
AcDbEntity
  8
0
  6
CONTINUOUS
100
AcDbSpline
210
0.0
220
0.0
230
1.0
 70
     8
 71
     2
 72
     6
 73
     3
 74
     0
 42
0.0000001
 43
0.0000001
 40
0.0
 40
0.0
 40
0.0
 40
1.0
 40
1.0
 40
1.0
 10
61.52601351110377
 20
127.09493284295769
 30
0.0
 10
61.525839472162815
 20
126.81867252180177
 30
0.0
 10
61.732409161070791
 20
126.63640962959293
 30
0.0
  0
SPLINE
  5
133
102
{ACAD_REACTORS
330
31
102
}
100
AcDbEntity
  8
0
  6
CONTINUOUS
100
AcDbSpline
210
0.0
220
0.0
230
1.0
 70
     8
 71
     2
 72
     6
 73
     3
 74
     0
 42
0.0000001
 43
0.0000001
 40
0.0
 40
0.0
 40
0.0
 40
1.0
 40
1.0
 40
1.0
 10
61.732409161070848
 20
126.63640962959293
 30
0.0
 10
61.938979449029205
 20
126.45415150537923
 30
0.0
 10
62.356441953545129
 20
126.45388851164971
 30
0.0
  0
LINE
  5
134
102
{ACAD_REACTORS
330
31
102
}
100
AcDbEntity
  8
0
  6
CONTINUOUS
100
AcDbLine
 10
64.277266
 20
128.542041
 30
0.0
 11
61.271128
 21
128.543935
 31
0.0
  0
LINE
  5
135
102
{ACAD_REACTORS
330
31
102
}
100
AcDbEntity
  8
0
  6
CONTINUOUS
100
AcDbLine
 10
61.271128
 20
128.543935
 30
0.0
 11
61.27134
 21
128.879542
 31
0.0
  0
LINE
  5
136
102
{ACAD_REACTORS
330
31
102
}
100
AcDbEntity
  8
0
  6
CONTINUOUS
100
AcDbLine
 10
61.27134
 20
128.879542
 30
0.0
 11
61.55374
 21
128.879364
 31
0.0
  0
SPLINE
  5
137
102
{ACAD_REACTORS
330
31
102
}
100
AcDbEntity
  8
0
  6
CONTINUOUS
100
AcDbSpline
210
0.0
220
0.0
230
1.0
 70
     8
 71
     2
 72
     6
 73
     3
 74
     0
 42
0.0000001
 43
0.0000001
 40
0.0
 40
0.0
 40
0.0
 40
1.0
 40
1.0
 40
1.0
 10
61.553740420597876
 20
128.8793643532731
 30
0.0
 10
61.388058281863721
 20
128.99815352221341
 30
0.0
 10
61.30527364174776
 20
129.14759401795783
 30
0.0
  0
SPLINE
  5
138
102
{ACAD_REACTORS
330
31
102
}
100
AcDbEntity
  8
0
  6
CONTINUOUS
100
AcDbSpline
210
0.0
220
0.0
230
1.0
 70
     8
 71
     2
 72
     6
 73
     3
 74
     0
 42
0.0000001
 43
0.0000001
 40
0.0
 40
0.0
 40
0.0
 40
1.0
 40
1.0
 40
1.0
 10
61.30527364174776
 20
129.14759401795783
 30
0.0
 10
61.22248929965491
 20
129.29703451351452
 30
0.0
 10
61.222623373564318
 20
129.50985643173169
 30
0.0
  0
SPLINE
  5
139
102
{ACAD_REACTORS
330
31
102
}
100
AcDbEntity
  8
0
  6
CONTINUOUS
100
AcDbSpline
210
0.0
220
0.0
230
1.0
 70
     8
 71
     2
 72
     6
 73
     3
 74
     0
 42
0.0000001
 43
0.0000001
 40
0.0
 40
0.0
 40
0.0
 40
1.0
 40
1.0
 40
1.0
 10
61.222623373564318
 20
129.50985643173169
 30
0.0
 10
61.222798704219315
 20
129.788167152261
 30
0.0
 10
61.366179698421945
 20
130.00089882754278
 30
0.0
  0
SPLINE
  5
13A
102
{ACAD_REACTORS
330
31
102
}
100
AcDbEntity
  8
0
  6
CONTINUOUS
100
AcDbSpline
210
0.0
220
0.0
230
1.0
 70
     8
 71
     2
 72
     6
 73
     3
 74
     0
 42
0.0000001
 43
0.0000001
 40
0.0
 40
0.0
 40
0.0
 40
1.0
 40
1.0
 40
1.0
 10
61.366179698421888
 20
130.00089882754278
 30
0.0
 10
61.509560394601522
 20
130.21363050301235
 30
0.0
 10
61.770543235627429
 20
130.32192749013177
 30
0.0
  0
SPLINE
  5
13B
102
{ACAD_REACTORS
330
31
102
}
100
AcDbEntity
  8
0
  6
CONTINUOUS
100
AcDbSpline
210
0.0
220
0.0
230
1.0
 70
     8
 71
     2
 72
     6
 73
     3
 74
     0
 42
0.0000001
 43
0.0000001
 40
0.0
 40
0.0
 40
0.0
 40
1.0
 40
1.0
 40
1.0
 10
61.770543235627542
 20
130.32192749013177
 30
0.0
 10
62.031524881556834
 20
130.4302197096315
 30
0.0
 10
62.342575830917895
 20
130.43002375323221
 30
0.0
  0
SPLINE
  5
13C
102
{ACAD_REACTORS
330
31
102
}
100
AcDbEntity
  8
0
  6
CONTINUOUS
100
AcDbSpline
210
0.0
220
0.0
230
1.0
 70
     8
 71
     2
 72
     6
 73
     3
 74
     0
 42
0.0000001
 43
0.0000001
 40
0.0
 40
0.0
 40
0.0
 40
1.0
 40
1.0
 40
1.0
 10
62.342575830917838
 20
130.43002375323221
 30
0.0
 10
62.676136469911569
 20
130.42981361614079
 30
0.0
 10
62.943114248343988
 20
130.30993543270972
 30
0.0
  0
SPLINE
  5
13D
102
{ACAD_REACTORS
330
31
102
}
100
AcDbEntity
  8
0
  6
CONTINUOUS
100
AcDbSpline
210
0.0
220
0.0
230
1.0
 70
     8
 71
     2
 72
     6
 73
     3
 74
     0
 42
0.0000001
 43
0.0000001
 40
0.0
 40
0.0
 40
0.0
 40
1.0
 40
1.0
 40
1.0
 10
62.943114248343988
 20
130.30993543270972
 30
0.0
 10
63.210092023772461
 20
130.19005248090804
 30
0.0
 10
63.352171487750127
 20
129.96178681122649
 30
0.0
  0
SPLINE
  5
13E
102
{ACAD_REACTORS
330
31
102
}
100
AcDbEntity
  8
0
  6
CONTINUOUS
100
AcDbSpline
210
0.0
220
0.0
230
1.0
 70
     8
 71
     2
 72
     6
 73
     3
 74
     0
 42
0.0000001
 43
0.0000001
 40
0.0
 40
0.0
 40
0.0
 40
1.0
 40
1.0
 40
1.0
 10
63.352171487750184
 20
129.96178681122646
 30
0.0
 10
63.494251553782306
 20
129.73353067791069
 30
0.0
 10
63.494092982365942
 20
129.48182269715858
 30
0.0
  0
SPLINE
  5
13F
102
{ACAD_REACTORS
330
31
102
}
100
AcDbEntity
  8
0
  6
CONTINUOUS
100
AcDbSpline
210
0.0
220
0.0
230
1.0
 70
     8
 71
     2
 72
     6
 73
     3
 74
     0
 42
0.0000001
 43
0.0000001
 40
0.0
 40
0.0
 40
0.0
 40
1.0
 40
1.0
 40
1.0
 10
63.494092982365885
 20
129.48182269715858
 30
0.0
 10
63.49397695640522
 20
129.29764914972128
 30
0.0
 10
63.416122190761882
 20
129.15138068576763
 30
0.0
  0
SPLINE
  5
140
102
{ACAD_REACTORS
330
31
102
}
100
AcDbEntity
  8
0
  6
CONTINUOUS
100
AcDbSpline
210
0.0
220
0.0
230
1.0
 70
     8
 71
     2
 72
     6
 73
     3
 74
     0
 42
0.0000001
 43
0.0000001
 40
0.0
 40
0.0
 40
0.0
 40
1.0
 40
1.0
 40
1.0
 10
63.416122190761939
 20
129.15138068576766
 30
0.0
 10
63.338267425118602
 20
129.00511222181399
 30
0.0
 10
63.219518013886045
 20
128.9110545896871
 30
0.0
  0
LINE
  5
141
102
{ACAD_REACTORS
330
31
102
}
100
AcDbEntity
  8
0
  6
CONTINUOUS
100
AcDbLine
 10
63.219518
 20
128.911055
 30
0.0
 11
64.277498
 21
128.910388
 31
0.0
  0
LINE
  5
142
102
{ACAD_REACTORS
330
31
102
}
100
AcDbEntity
  8
0
  6
CONTINUOUS
100
AcDbLine
 10
64.277498
 20
128.910388
 30
0.0
 11
64.277266
 21
128.542041
 31
0.0
  0
SPLINE
  5
143
102
{ACAD_REACTORS
330
31
102
}
100
AcDbEntity
  8
0
  6
CONTINUOUS
100
AcDbSpline
210
0.0
220
0.0
230
1.0
 70
     8
 71
     2
 72
     6
 73
     3
 74
     0
 42
0.0000001
 43
0.0000001
 40
0.0
 40
0.0
 40
0.0
 40
1.0
 40
1.0
 40
1.0
 10
62.370246306334991
 20
128.87679956933715
 30
0.0
 10
62.789755633946299
 20
128.87653528614658
 30
0.0
 10
62.990407787901574
 20
129.04625830842235
 30
0.0
  0
SPLINE
  5
144
102
{ACAD_REACTORS
330
31
102
}
100
AcDbEntity
  8
0
  6
CONTINUOUS
100
AcDbSpline
210
0.0
220
0.0
230
1.0
 70
     8
 71
     2
 72
     6
 73
     3
 74
     0
 42
0.0000001
 43
0.0000001
 40
0.0
 40
0.0
 40
0.0
 40
1.0
 40
1.0
 40
1.0
 10
62.990407787901574
 20
129.04625830842235
 30
0.0
 10
63.191060537903184
 20
129.21598133032259
 30
0.0
 10
63.191212662765281
 20
129.45745638769031
 30
0.0
  0
SPLINE
  5
145
102
{ACAD_REACTORS
330
31
102
}
100
AcDbEntity
  8
0
  6
CONTINUOUS
100
AcDbSpline
210
0.0
220
0.0
230
1.0
 70
     8
 71
     2
 72
     6
 73
     3
 74
     0
 42
0.0000001
 43
0.0000001
 40
0.0
 40
0.0
 40
0.0
 40
1.0
 40
1.0
 40
1.0
 10
63.191212662765281
 20
129.45745638769031
 30
0.0
 10
63.19136736504737
 20
129.70302270706355
 30
0.0
 10
62.98376974960064
 20
129.87811938293731
 30
0.0
  0
SPLINE
  5
146
102
{ACAD_REACTORS
330
31
102
}
100
AcDbEntity
  8
0
  6
CONTINUOUS
100
AcDbSpline
210
0.0
220
0.0
230
1.0
 70
     8
 71
     2
 72
     6
 73
     3
 74
     0
 42
0.0000001
 43
0.0000001
 40
0.0
 40
0.0
 40
0.0
 40
1.0
 40
1.0
 40
1.0
 10
62.98376974960064
 20
129.87811938293731
 30
0.0
 10
62.776172134153683
 20
130.05321605881107
 30
0.0
 10
62.340291798056967
 20
130.05349065543706
 30
0.0
  0
SPLINE
  5
147
102
{ACAD_REACTORS
330
31
102
}
100
AcDbEntity
  8
0
  6
CONTINUOUS
100
AcDbSpline
210
0.0
220
0.0
230
1.0
 70
     8
 71
     2
 72
     6
 73
     3
 74
     0
 42
0.0000001
 43
0.0000001
 40
0.0
 40
0.0
 40
0.0
 40
1.0
 40
1.0
 40
1.0
 10
62.34029179805691
 20
130.05349065543703
 30
0.0
 10
61.924876116636369
 20
130.05375235970547
 30
0.0
 10
61.718084042634473
 20
129.8830127737458
 30
0.0
  0
SPLINE
  5
148
102
{ACAD_REACTORS
330
31
102
}
100
AcDbEntity
  8
0
  6
CONTINUOUS
100
AcDbSpline
210
0.0
220
0.0
230
1.0
 70
     8
 71
     2
 72
     6
 73
     3
 74
     0
 42
0.0000001
 43
0.0000001
 40
0.0
 40
0.0
 40
0.0
 40
1.0
 40
1.0
 40
1.0
 10
61.718084042634473
 20
129.88301277374583
 30
0.0
 10
61.511291366578348
 20
129.71226365142039
 30
0.0
 10
61.511141822140303
 20
129.47488462442885
 30
0.0
  0
SPLINE
  5
149
102
{ACAD_REACTORS
330
31
102
}
100
AcDbEntity
  8
0
  6
CONTINUOUS
100
AcDbSpline
210
0.0
220
0.0
230
1.0
 70
     8
 71
     2
 72
     6
 73
     3
 74
     0
 42
0.0000001
 43
0.0000001
 40
0.0
 40
0.0
 40
0.0
 40
1.0
 40
1.0
 40
1.0
 10
61.51114182214036
 20
129.47488462442885
 30
0.0
 10
61.510993566412424
 20
129.23955122844006
 30
0.0
 10
61.730865867112414
 20
129.05830515592305
 30
0.0
  0
SPLINE
  5
14A
102
{ACAD_REACTORS
330
31
102
}
100
AcDbEntity
  8
0
  6
CONTINUOUS
100
AcDbSpline
210
0.0
220
0.0
230
1.0
 70
     8
 71
     2
 72
     6
 73
     3
 74
     0
 42
0.0000001
 43
0.0000001
 40
0.0
 40
0.0
 40
0.0
 40
1.0
 40
1.0
 40
1.0
 10
61.730865867112414
 20
129.05830515592305
 30
0.0
 10
61.950738170816237
 20
128.87706385177671
 30
0.0
 10
62.370246306334991
 20
128.87679956933715
 30
0.0
  0
LINE
  5
14B
102
{ACAD_REACTORS
330
31
102
}
100
AcDbEntity
  8
0
  6
CONTINUOUS
100
AcDbLine
 10
67.779502
 20
100.68853
 30
0.0
 11
68.104911
 21
100.741531
 31
0.0
  0
SPLINE
  5
14C
102
{ACAD_REACTORS
330
31
102
}
100
AcDbEntity
  8
0
  6
CONTINUOUS
100
AcDbSpline
210
0.0
220
0.0
230
1.0
 70
     8
 71
     2
 72
     6
 73
     3
 74
     0
 42
0.0000001
 43
0.0000001
 40
0.0
 40
0.0
 40
0.0
 40
1.0
 40
1.0
 40
1.0
 10
68.104910982731724
 20
100.74153056699099
 30
0.0
 10
68.137555021690503
 20
100.58598476346279
 30
0.0
 10
68.137477670549458
 20
100.46320160377618
 30
0.0
  0
SPLINE
  5
14D
102
{ACAD_REACTORS
330
31
102
}
100
AcDbEntity
  8
0
  6
CONTINUOUS
100
AcDbSpline
210
0.0
220
0.0
230
1.0
 70
     8
 71
     2
 72
     6
 73
     3
 74
     0
 42
0.0000001
 43
0.0000001
 40
0.0
 40
0.0
 40
0.0
 40
1.0
 40
1.0
 40
1.0
 10
68.137477670549401
 20
100.4632016037762
 30
0.0
 10
68.137351330402339
 20
100.26265585576091
 30
0.0
 10
68.07384331158687
 20
100.15219121549308
 30
0.0
  0
SPLINE
  5
14E
102
{ACAD_REACTORS
330
31
102
}
100
AcDbEntity
  8
0
  6
CONTINUOUS
100
AcDbSpline
210
0.0
220
0.0
230
1.0
 70
     8
 71
     2
 72
     6
 73
     3
 74
     0
 42
0.0000001
 43
0.0000001
 40
0.0
 40
0.0
 40
0.0
 40
1.0
 40
1.0
 40
1.0
 10
68.073843311586927
 20
100.1521912154931
 30
0.0
 10
68.010336484864013
 20
100.04172657447427
 30
0.0
 10
67.906965610124473
 20
99.996771107005941
 30
0.0
  0
SPLINE
  5
14F
102
{ACAD_REACTORS
330
31
102
}
100
AcDbEntity
  8
0
  6
CONTINUOUS
100
AcDbSpline
210
0.0
220
0.0
230
1.0
 70
     8
 71
     2
 72
     6
 73
     3
 74
     0
 42
0.0000001
 43
0.0000001
 40
0.0
 40
0.0
 40
0.0
 40
1.0
 40
1.0
 40
1.0
 10
67.90696561012453
 20
99.996771107005912
 30
0.0
 10
67.803594735384877
 20
99.951815639537585
 30
0.0
 10
67.472079727393975
 20
99.952024487918919
 30
0.0
  0
LINE
  5
150
102
{ACAD_REACTORS
330
31
102
}
100
AcDbEntity
  8
0
  6
CONTINUOUS
100
AcDbLine
 10
67.47208
 20
99.952024
 30
0.0
 11
66.22174
 21
99.952812
 31
0.0
  0
LINE
  5
151
102
{ACAD_REACTORS
330
31
102
}
100
AcDbEntity
  8
0
  6
CONTINUOUS
100
AcDbLine
 10
66.22174
 20
99.952812
 30
0.0
 11
66.221569
 21
99.68269
 31
0.0
  0
LINE
  5
152
102
{ACAD_REACTORS
330
31
102
}
100
AcDbEntity
  8
0
  6
CONTINUOUS
100
AcDbLine
 10
66.221569
 20
99.68269
 30
0.0
 11
65.935076
 21
99.68287
 31
0.0
  0
LINE
  5
153
102
{ACAD_REACTORS
330
31
102
}
100
AcDbEntity
  8
0
  6
CONTINUOUS
100
AcDbLine
 10
65.935076
 20
99.68287
 30
0.0
 11
65.935246
 21
99.952993
 31
0.0
  0
LINE
  5
154
102
{ACAD_REACTORS
330
31
102
}
100
AcDbEntity
  8
0
  6
CONTINUOUS
100
AcDbLine
 10
65.935246
 20
99.952993
 30
0.0
 11
65.397046
 21
99.953332
 31
0.0
  0
LINE
  5
155
102
{ACAD_REACTORS
330
31
102
}
100
AcDbEntity
  8
0
  6
CONTINUOUS
100
AcDbLine
 10
65.397046
 20
99.953332
 30
0.0
 11
65.176267
 21
100.319774
 31
0.0
  0
LINE
  5
156
102
{ACAD_REACTORS
330
31
102
}
100
AcDbEntity
  8
0
  6
CONTINUOUS
100
AcDbLine
 10
65.176267
 20
100.319774
 30
0.0
 11
65.935477
 21
100.319295
 31
0.0
  0
LINE
  5
157
102
{ACAD_REACTORS
330
31
102
}
100
AcDbEntity
  8
0
  6
CONTINUOUS
100
AcDbLine
 10
65.935477
 20
100.319295
 30
0.0
 11
65.93571
 21
100.689692
 31
0.0
  0
LINE
  5
158
102
{ACAD_REACTORS
330
31
102
}
100
AcDbEntity
  8
0
  6
CONTINUOUS
100
AcDbLine
 10
65.93571
 20
100.689692
 30
0.0
 11
66.222204
 21
100.689511
 31
0.0
  0
LINE
  5
159
102
{ACAD_REACTORS
330
31
102
}
100
AcDbEntity
  8
0
  6
CONTINUOUS
100
AcDbLine
 10
66.222204
 20
100.689511
 30
0.0
 11
66.22197
 21
100.319115
 31
0.0
  0
LINE
  5
15A
102
{ACAD_REACTORS
330
31
102
}
100
AcDbEntity
  8
0
  6
CONTINUOUS
100
AcDbLine
 10
66.22197
 20
100.319115
 30
0.0
 11
67.492775
 21
100.318314
 31
0.0
  0
SPLINE
  5
15B
102
{ACAD_REACTORS
330
31
102
}
100
AcDbEntity
  8
0
  6
CONTINUOUS
100
AcDbSpline
210
0.0
220
0.0
230
1.0
 70
     8
 71
     2
 72
     6
 73
     3
 74
     0
 42
0.0000001
 43
0.0000001
 40
0.0
 40
0.0
 40
0.0
 40
1.0
 40
1.0
 40
1.0
 10
67.492775146032329
 20
100.31831425152586
 30
0.0
 10
67.650345953692465
 20
100.31821498480389
 30
0.0
 10
67.695378772301922
 20
100.33762726975093
 30
0.0
  0
SPLINE
  5
15C
102
{ACAD_REACTORS
330
31
102
}
100
AcDbEntity
  8
0
  6
CONTINUOUS
100
AcDbSpline
210
0.0
220
0.0
230
1.0
 70
     8
 71
     2
 72
     6
 73
     3
 74
     0
 42
0.0000001
 43
0.0000001
 40
0.0
 40
0.0
 40
0.0
 40
1.0
 40
1.0
 40
1.0
 10
67.695378772301922
 20
100.33762726975091
 30
0.0
 10
67.740411590911378
 20
100.35703955469793
 30
0.0
 10
67.767042048468568
 20
100.40102055131584
 30
0.0
  0
SPLINE
  5
15D
102
{ACAD_REACTORS
330
31
102
}
100
AcDbEntity
  8
0
  6
CONTINUOUS
100
AcDbSpline
210
0.0
220
0.0
230
1.0
 70
     8
 71
     2
 72
     6
 73
     3
 74
     0
 42
0.0000001
 43
0.0000001
 40
0.0
 40
0.0
 40
0.0
 40
1.0
 40
1.0
 40
1.0
 10
67.767042048468568
 20
100.40102055131584
 30
0.0
 10
67.793673698118539
 20
100.44500154718273
 30
0.0
 10
67.793725265295564
 20
100.52685658960959
 30
0.0
  0
SPLINE
  5
15E
102
{ACAD_REACTORS
330
31
102
}
100
AcDbEntity
  8
0
  6
CONTINUOUS
100
AcDbSpline
210
0.0
220
0.0
230
1.0
 70
     8
 71
     2
 72
     6
 73
     3
 74
     0
 42
0.0000001
 43
0.0000001
 40
0.0
 40
0.0
 40
0.0
 40
1.0
 40
1.0
 40
1.0
 10
67.793725265295564
 20
100.52685658960959
 30
0.0
 10
67.793763940866086
 20
100.58824816945291
 30
0.0
 10
67.779501733457039
 20
100.68853006818591
 30
0.0
  0
LINE
  5
15F
102
{ACAD_REACTORS
330
31
102
}
100
AcDbEntity
  8
0
  6
CONTINUOUS
100
AcDbLine
 10
68.109197
 20
101.048486
 30
0.0
 11
65.109197
 21
101.050376
 31
0.0
  0
LINE
  5
160
102
{ACAD_REACTORS
330
31
102
}
100
AcDbEntity
  8
0
  6
CONTINUOUS
100
AcDbLine
 10
65.109197
 20
101.050376
 30
0.0
 11
65.109429
 21
101.418725
 31
0.0
  0
LINE
  5
161
102
{ACAD_REACTORS
330
31
102
}
100
AcDbEntity
  8
0
  6
CONTINUOUS
100
AcDbLine
 10
65.109429
 20
101.418725
 30
0.0
 11
66.185828
 21
101.418047
 31
0.0
  0
SPLINE
  5
162
102
{ACAD_REACTORS
330
31
102
}
100
AcDbEntity
  8
0
  6
CONTINUOUS
100
AcDbSpline
210
0.0
220
0.0
230
1.0
 70
     8
 71
     2
 72
     6
 73
     3
 74
     0
 42
0.0000001
 43
0.0000001
 40
0.0
 40
0.0
 40
0.0
 40
1.0
 40
1.0
 40
1.0
 10
66.185827622472402
 20
101.41804720063872
 30
0.0
 10
65.887218260340333
 20
101.67607910306602
 30
0.0
 10
65.887465783541302
 20
102.06898449880758
 30
0.0
  0
SPLINE
  5
163
102
{ACAD_REACTORS
330
31
102
}
100
AcDbEntity
  8
0
  6
CONTINUOUS
100
AcDbSpline
210
0.0
220
0.0
230
1.0
 70
     8
 71
     2
 72
     6
 73
     3
 74
     0
 42
0.0000001
 43
0.0000001
 40
0.0
 40
0.0
 40
0.0
 40
1.0
 40
1.0
 40
1.0
 10
65.887465783541359
 20
102.06898449880757
 30
0.0
 10
65.887617907652441
 20
102.31045836408263
 30
0.0
 10
65.982886479047295
 20
102.48843387962256
 30
0.0
  0
SPLINE
  5
164
102
{ACAD_REACTORS
330
31
102
}
100
AcDbEntity
  8
0
  6
CONTINUOUS
100
AcDbSpline
210
0.0
220
0.0
230
1.0
 70
     8
 71
     2
 72
     6
 73
     3
 74
     0
 42
0.0000001
 43
0.0000001
 40
0.0
 40
0.0
 40
0.0
 40
1.0
 40
1.0
 40
1.0
 10
65.982886479047238
 20
102.48843387962256
 30
0.0
 10
66.078155646488426
 20
102.66640939478698
 30
0.0
 10
66.24600712613767
 20
102.74304345471356
 30
0.0
  0
SPLINE
  5
165
102
{ACAD_REACTORS
330
31
102
}
100
AcDbEntity
  8
0
  6
CONTINUOUS
100
AcDbSpline
210
0.0
220
0.0
230
1.0
 70
     8
 71
     2
 72
     6
 73
     3
 74
     0
 42
0.0000001
 43
0.0000001
 40
0.0
 40
0.0
 40
0.0
 40
1.0
 40
1.0
 40
1.0
 10
66.246007126137727
 20
102.74304345471354
 30
0.0
 10
66.413859201082175
 20
102.81967632217196
 30
0.0
 10
66.733095654685883
 20
102.81947520905493
 30
0.0
  0
LINE
  5
166
102
{ACAD_REACTORS
330
31
102
}
100
AcDbEntity
  8
0
  6
CONTINUOUS
100
AcDbLine
 10
66.733096
 20
102.819475
 30
0.0
 11
68.110312
 21
102.818608
 31
0.0
  0
LINE
  5
167
102
{ACAD_REACTORS
330
31
102
}
100
AcDbEntity
  8
0
  6
CONTINUOUS
100
AcDbLine
 10
68.110312
 20
102.818608
 30
0.0
 11
68.11008
 21
102.450259
 31
0.0
  0
LINE
  5
168
102
{ACAD_REACTORS
330
31
102
}
100
AcDbEntity
  8
0
  6
CONTINUOUS
100
AcDbLine
 10
68.11008
 20
102.450259
 30
0.0
 11
66.732864
 21
102.451127
 31
0.0
  0
SPLINE
  5
169
102
{ACAD_REACTORS
330
31
102
}
100
AcDbEntity
  8
0
  6
CONTINUOUS
100
AcDbSpline
210
0.0
220
0.0
230
1.0
 70
     8
 71
     2
 72
     6
 73
     3
 74
     0
 42
0.0000001
 43
0.0000001
 40
0.0
 40
0.0
 40
0.0
 40
1.0
 40
1.0
 40
1.0
 10
66.732863602013651
 20
102.45112692208775
 30
0.0
 10
66.456600896672342
 20
102.45130096253071
 30
0.0
 10
66.330673277110293
 20
102.33166672602255
 30
0.0
  0
SPLINE
  5
16A
102
{ACAD_REACTORS
330
31
102
}
100
AcDbEntity
  8
0
  6
CONTINUOUS
100
AcDbSpline
210
0.0
220
0.0
230
1.0
 70
     8
 71
     2
 72
     6
 73
     3
 74
     0
 42
0.0000001
 43
0.0000001
 40
0.0
 40
0.0
 40
0.0
 40
1.0
 40
1.0
 40
1.0
 10
66.33067327711035
 20
102.33166672602256
 30
0.0
 10
66.204745061501967
 20
102.21203248988991
 30
0.0
 10
66.204607118458398
 20
101.99306891029383
 30
0.0
  0
SPLINE
  5
16B
102
{ACAD_REACTORS
330
31
102
}
100
AcDbEntity
  8
0
  6
CONTINUOUS
100
AcDbSpline
210
0.0
220
0.0
230
1.0
 70
     8
 71
     2
 72
     6
 73
     3
 74
     0
 42
0.0000001
 43
0.0000001
 40
0.0
 40
0.0
 40
0.0
 40
1.0
 40
1.0
 40
1.0
 10
66.204607118458284
 20
101.99306891029383
 30
0.0
 10
66.204503984104235
 20
101.82935882544011
 30
0.0
 10
66.289338373320561
 20
101.68503469420727
 30
0.0
  0
SPLINE
  5
16C
102
{ACAD_REACTORS
330
31
102
}
100
AcDbEntity
  8
0
  6
CONTINUOUS
100
AcDbSpline
210
0.0
220
0.0
230
1.0
 70
     8
 71
     2
 72
     6
 73
     3
 74
     0
 42
0.0000001
 43
0.0000001
 40
0.0
 40
0.0
 40
0.0
 40
1.0
 40
1.0
 40
1.0
 10
66.289338373320675
 20
101.68503469420727
 30
0.0
 10
66.374172167241682
 20
101.54071175544257
 30
0.0
 10
66.519426937036769
 20
101.4792286433906
 30
0.0
  0
SPLINE
  5
16D
102
{ACAD_REACTORS
330
31
102
}
100
AcDbEntity
  8
0
  6
CONTINUOUS
100
AcDbSpline
210
0.0
220
0.0
230
1.0
 70
     8
 71
     2
 72
     6
 73
     3
 74
     0
 42
0.0000001
 43
0.0000001
 40
0.0
 40
0.0
 40
0.0
 40
1.0
 40
1.0
 40
1.0
 10
66.519426937036656
 20
101.47922864339061
 30
0.0
 10
66.66468170683163
 20
101.41774553133865
 30
0.0
 10
66.920479757496651
 20
101.41758438325321
 30
0.0
  0
LINE
  5
16E
102
{ACAD_REACTORS
330
31
102
}
100
AcDbEntity
  8
0
  6
CONTINUOUS
100
AcDbLine
 10
66.92048
 20
101.417584
 30
0.0
 11
68.109429
 21
101.416835
 31
0.0
  0
LINE
  5
16F
102
{ACAD_REACTORS
330
31
102
}
100
AcDbEntity
  8
0
  6
CONTINUOUS
100
AcDbLine
 10
68.109429
 20
101.416835
 30
0.0
 11
68.109197
 21
101.048486
 31
0.0
  0
LWPOLYLINE
  5
170
102
{ACAD_REACTORS
330
31
102
}
100
AcDbEntity
  8
0
  6
CONTINUOUS
100
AcDbPolyline
 90
        5
 70
     0
 10
65.110667
 20
103.383253
 10
65.534268
 20
103.382987
 10
65.5345
 20
103.751336
 10
65.110899
 20
103.751603
 10
65.110667
 20
103.383253
  0
LWPOLYLINE
  5
171
102
{ACAD_REACTORS
330
31
102
}
100
AcDbEntity
  8
0
  6
CONTINUOUS
100
AcDbPolyline
 90
        5
 70
     0
 10
65.937406
 20
103.382733
 10
68.110666
 20
103.381364
 10
68.110899
 20
103.749713
 10
65.937639
 20
103.751082
 10
65.937406
 20
103.382733
  0
LINE
  5
172
102
{ACAD_REACTORS
330
31
102
}
100
AcDbEntity
  8
0
  6
CONTINUOUS
100
AcDbLine
 10
67.462456
 20
104.163492
 30
0.0
 11
67.405386
 21
104.527784
 31
0.0
  0
SPLINE
  5
173
102
{ACAD_REACTORS
330
31
102
}
100
AcDbEntity
  8
0
  6
CONTINUOUS
100
AcDbSpline
210
0.0
220
0.0
230
1.0
 70
     8
 71
     2
 72
     6
 73
     3
 74
     0
 42
0.0000001
 43
0.0000001
 40
0.0
 40
0.0
 40
0.0
 40
1.0
 40
1.0
 40
1.0
 10
67.405385856192424
 20
104.52778366892922
 30
0.0
 10
67.6243687739493
 20
104.55834211185369
 30
0.0
 10
67.741100964622888
 20
104.69844441992545
 30
0.0
  0
SPLINE
  5
174
102
{ACAD_REACTORS
330
31
102
}
100
AcDbEntity
  8
0
  6
CONTINUOUS
100
AcDbSpline
210
0.0
220
0.0
230
1.0
 70
     8
 71
     2
 72
     6
 73
     3
 74
     0
 42
0.0000001
 43
0.0000001
 40
0.0
 40
0.0
 40
0.0
 40
1.0
 40
1.0
 40
1.0
 10
67.741100964623001
 20
104.69844441992545
 30
0.0
 10
67.857833156798506
 20
104.83854911218255
 30
0.0
 10
67.857991726712839
 20
105.09025470874938
 30
0.0
  0
SPLINE
  5
175
102
{ACAD_REACTORS
330
31
102
}
100
AcDbEntity
  8
0
  6
CONTINUOUS
100
AcDbSpline
210
0.0
220
0.0
230
1.0
 70
     8
 71
     2
 72
     6
 73
     3
 74
     0
 42
0.0000001
 43
0.0000001
 40
0.0
 40
0.0
 40
0.0
 40
1.0
 40
1.0
 40
1.0
 10
67.857991726712839
 20
105.09025470874938
 30
0.0
 10
67.858151585337282
 20
105.34400593631896
 30
0.0
 10
67.754886423873813
 20
105.46685419989518
 30
0.0
  0
SPLINE
  5
176
102
{ACAD_REACTORS
330
31
102
}
100
AcDbEntity
  8
0
  6
CONTINUOUS
100
AcDbSpline
210
0.0
220
0.0
230
1.0
 70
     8
 71
     2
 72
     6
 73
     3
 74
     0
 42
0.0000001
 43
0.0000001
 40
0.0
 40
0.0
 40
0.0
 40
1.0
 40
1.0
 40
1.0
 10
67.754886423873813
 20
105.46685419989518
 30
0.0
 10
67.651621262410572
 20
105.5897024634714
 30
0.0
 10
67.512467094238559
 20
105.58979012804791
 30
0.0
  0
SPLINE
  5
177
102
{ACAD_REACTORS
330
31
102
}
100
AcDbEntity
  8
0
  6
CONTINUOUS
100
AcDbSpline
210
0.0
220
0.0
230
1.0
 70
     8
 71
     2
 72
     6
 73
     3
 74
     0
 42
0.0000001
 43
0.0000001
 40
0.0
 40
0.0
 40
0.0
 40
1.0
 40
1.0
 40
1.0
 10
67.512467094238445
 20
105.58979012804791
 30
0.0
 10
67.387637111456456
 20
105.58986876865005
 30
0.0
 10
67.315945473154557
 20
105.48145491572718
 30
0.0
  0
SPLINE
  5
178
102
{ACAD_REACTORS
330
31
102
}
100
AcDbEntity
  8
0
  6
CONTINUOUS
100
AcDbSpline
210
0.0
220
0.0
230
1.0
 70
     8
 71
     2
 72
     6
 73
     3
 74
     0
 42
0.0000001
 43
0.0000001
 40
0.0
 40
0.0
 40
0.0
 40
1.0
 40
1.0
 40
1.0
 10
67.315945473154613
 20
105.48145491572718
 30
0.0
 10
67.266784748904627
 20
105.40577128289281
 30
0.0
 10
67.190879472699805
 20
105.10499916832212
 30
0.0
  0
SPLINE
  5
179
102
{ACAD_REACTORS
330
31
102
}
100
AcDbEntity
  8
0
  6
CONTINUOUS
100
AcDbSpline
210
0.0
220
0.0
230
1.0
 70
     8
 71
     2
 72
     6
 73
     3
 74
     0
 42
0.0000001
 43
0.0000001
 40
0.0
 40
0.0
 40
0.0
 40
1.0
 40
1.0
 40
1.0
 10
67.190879472699805
 20
105.10499916832212
 30
0.0
 10
67.088304517882477
 20
104.69988086982059
 30
0.0
 10
67.013512944281672
 20
104.54337754866641
 30
0.0
  0
SPLINE
  5
17A
102
{ACAD_REACTORS
330
31
102
}
100
AcDbEntity
  8
0
  6
CONTINUOUS
100
AcDbSpline
210
0.0
220
0.0
230
1.0
 70
     8
 71
     2
 72
     6
 73
     3
 74
     0
 42
0.0000001
 43
0.0000001
 40
0.0
 40
0.0
 40
0.0
 40
1.0
 40
1.0
 40
1.0
 10
67.013512944281672
 20
104.5433775486664
 30
0.0
 10
66.938721372182897
 20
104.38687661169755
 30
0.0
 10
66.806678374634828
 20
104.30612872945404
 30
0.0
  0
SPLINE
  5
17B
102
{ACAD_REACTORS
330
31
102
}
100
AcDbEntity
  8
0
  6
CONTINUOUS
100
AcDbSpline
210
0.0
220
0.0
230
1.0
 70
     8
 71
     2
 72
     6
 73
     3
 74
     0
 42
0.0000001
 43
0.0000001
 40
0.0
 40
0.0
 40
0.0
 40
1.0
 40
1.0
 40
1.0
 10
66.806678374634828
 20
104.30612872945406
 30
0.0
 10
66.674635375584728
 20
104.22537846302525
 30
0.0
 10
66.515017744829208
 20
104.22547901920827
 30
0.0
  0
SPLINE
  5
17C
102
{ACAD_REACTORS
330
31
102
}
100
AcDbEntity
  8
0
  6
CONTINUOUS
100
AcDbSpline
210
0.0
220
0.0
230
1.0
 70
     8
 71
     2
 72
     6
 73
     3
 74
     0
 42
0.0000001
 43
0.0000001
 40
0.0
 40
0.0
 40
0.0
 40
1.0
 40
1.0
 40
1.0
 10
66.515017744829208
 20
104.22547901920827
 30
0.0
 10
66.369724299463599
 20
104.22557055141694
 30
0.0
 10
66.245960223874306
 20
104.29215778054123
 30
0.0
  0
SPLINE
  5
17D
102
{ACAD_REACTORS
330
31
102
}
100
AcDbEntity
  8
0
  6
CONTINUOUS
100
AcDbSpline
210
0.0
220
0.0
230
1.0
 70
     8
 71
     2
 72
     6
 73
     3
 74
     0
 42
0.0000001
 43
0.0000001
 40
0.0
 40
0.0
 40
0.0
 40
1.0
 40
1.0
 40
1.0
 10
66.245960223874306
 20
104.29215778054123
 30
0.0
 10
66.122196146783097
 20
104.35874262548022
 30
0.0
 10
66.040412703108757
 20
104.47339244452303
 30
0.0
  0
SPLINE
  5
17E
102
{ACAD_REACTORS
330
31
102
}
100
AcDbEntity
  8
0
  6
CONTINUOUS
100
AcDbSpline
210
0.0
220
0.0
230
1.0
 70
     8
 71
     2
 72
     6
 73
     3
 74
     0
 42
0.0000001
 43
0.0000001
 40
0.0
 40
0.0
 40
0.0
 40
1.0
 40
1.0
 40
1.0
 10
66.040412703108757
 20
104.47339244452303
 30
0.0
 10
65.977029041564549
 20
104.55937990570418
 30
0.0
 10
65.933124751732691
 20
104.70777070744664
 30
0.0
  0
SPLINE
  5
17F
102
{ACAD_REACTORS
330
31
102
}
100
AcDbEntity
  8
0
  6
CONTINUOUS
100
AcDbSpline
210
0.0
220
0.0
230
1.0
 70
     8
 71
     2
 72
     6
 73
     3
 74
     0
 42
0.0000001
 43
0.0000001
 40
0.0
 40
0.0
 40
0.0
 40
1.0
 40
1.0
 40
1.0
 10
65.933124751732635
 20
104.70777070744664
 30
0.0
 10
65.889221057947111
 20
104.85616150881364
 30
0.0
 10
65.889328059933405
 20
105.02601087086094
 30
0.0
  0
SPLINE
  5
180
102
{ACAD_REACTORS
330
31
102
}
100
AcDbEntity
  8
0
  6
CONTINUOUS
100
AcDbSpline
210
0.0
220
0.0
230
1.0
 70
     8
 71
     2
 72
     6
 73
     3
 74
     0
 42
0.0000001
 43
0.0000001
 40
0.0
 40
0.0
 40
0.0
 40
1.0
 40
1.0
 40
1.0
 10
65.889328059933518
 20
105.02601087086094
 30
0.0
 10
65.889489208769987
 20
105.28181011361862
 30
0.0
 10
65.96328116965833
 20
105.47514497391876
 30
0.0
  0
SPLINE
  5
181
102
{ACAD_REACTORS
330
31
102
}
100
AcDbEntity
  8
0
  6
CONTINUOUS
100
AcDbSpline
210
0.0
220
0.0
230
1.0
 70
     8
 71
     2
 72
     6
 73
     3
 74
     0
 42
0.0000001
 43
0.0000001
 40
0.0
 40
0.0
 40
0.0
 40
1.0
 40
1.0
 40
1.0
 10
65.96328116965833
 20
105.47514497391876
 30
0.0
 10
66.03707253600237
 20
105.66848221877972
 30
0.0
 10
66.162983347266049
 20
105.76048970754118
 30
0.0
  0
SPLINE
  5
182
102
{ACAD_REACTORS
330
31
102
}
100
AcDbEntity
  8
0
  6
CONTINUOUS
100
AcDbSpline
210
0.0
220
0.0
230
1.0
 70
     8
 71
     2
 72
     6
 73
     3
 74
     0
 42
0.0000001
 43
0.0000001
 40
0.0
 40
0.0
 40
0.0
 40
1.0
 40
1.0
 40
1.0
 10
66.162983347266049
 20
105.76048970754118
 30
0.0
 10
66.288894160031873
 20
105.85249958048796
 30
0.0
 10
66.499693554919759
 20
105.88715444251116
 30
0.0
  0
LINE
  5
183
102
{ACAD_REACTORS
330
31
102
}
100
AcDbEntity
  8
0
  6
CONTINUOUS
100
AcDbLine
 10
66.499694
 20
105.887154
 30
0.0
 11
66.54858
 21
105.526959
 31
0.0
  0
SPLINE
  5
184
102
{ACAD_REACTORS
330
31
102
}
100
AcDbEntity
  8
0
  6
CONTINUOUS
100
AcDbSpline
210
0.0
220
0.0
230
1.0
 70
     8
 71
     2
 72
     6
 73
     3
 74
     0
 42
0.0000001
 43
0.0000001
 40
0.0
 40
0.0
 40
0.0
 40
1.0
 40
1.0
 40
1.0
 10
66.54857968329469
 20
105.52695893134145
 30
0.0
 10
66.380761079269917
 20
105.50250991965311
 30
0.0
 10
66.28655275704358
 20
105.38490014029027
 30
0.0
  0
SPLINE
  5
185
102
{ACAD_REACTORS
330
31
102
}
100
AcDbEntity
  8
0
  6
CONTINUOUS
100
AcDbSpline
210
0.0
220
0.0
230
1.0
 70
     8
 71
     2
 72
     6
 73
     3
 74
     0
 42
0.0000001
 43
0.0000001
 40
0.0
 40
0.0
 40
0.0
 40
1.0
 40
1.0
 40
1.0
 10
66.28655275704358
 20
105.38490014029027
 30
0.0
 10
66.192345032365608
 20
105.26729274473723
 30
0.0
 10
66.192209668244175
 20
105.05242281133198
 30
0.0
  0
SPLINE
  5
186
102
{ACAD_REACTORS
330
31
102
}
100
AcDbEntity
  8
0
  6
CONTINUOUS
100
AcDbSpline
210
0.0
220
0.0
230
1.0
 70
     8
 71
     2
 72
     6
 73
     3
 74
     0
 42
0.0000001
 43
0.0000001
 40
0.0
 40
0.0
 40
0.0
 40
1.0
 40
1.0
 40
1.0
 10
66.192209668244175
 20
105.05242281133195
 30
0.0
 10
66.192049809619732
 20
104.79867158376237
 30
0.0
 10
66.275883347975366
 20
104.6901597528276
 30
0.0
  0
SPLINE
  5
187
102
{ACAD_REACTORS
330
31
102
}
100
AcDbEntity
  8
0
  6
CONTINUOUS
100
AcDbSpline
210
0.0
220
0.0
230
1.0
 70
     8
 71
     2
 72
     6
 73
     3
 74
     0
 42
0.0000001
 43
0.0000001
 40
0.0
 40
0.0
 40
0.0
 40
1.0
 40
1.0
 40
1.0
 10
66.275883347975423
 20
104.69015975282761
 30
0.0
 10
66.359716886330943
 20
104.58164792189284
 30
0.0
 10
66.472268314725738
 20
104.581577016555
 30
0.0
  0
SPLINE
  5
188
102
{ACAD_REACTORS
330
31
102
}
100
AcDbEntity
  8
0
  6
CONTINUOUS
100
AcDbSpline
210
0.0
220
0.0
230
1.0
 70
     8
 71
     2
 72
     6
 73
     3
 74
     0
 42
0.0000001
 43
0.0000001
 40
0.0
 40
0.0
 40
0.0
 40
1.0
 40
1.0
 40
1.0
 10
66.472268314725625
 20
104.581577016555
 30
0.0
 10
66.543891625860738
 20
104.58153189518119
 30
0.0
 10
66.601219113740967
 20
104.62651636913969
 30
0.0
  0
SPLINE
  5
189
102
{ACAD_REACTORS
330
31
102
}
100
AcDbEntity
  8
0
  6
CONTINUOUS
100
AcDbSpline
210
0.0
220
0.0
230
1.0
 70
     8
 71
     2
 72
     6
 73
     3
 74
     0
 42
0.0000001
 43
0.0000001
 40
0.0
 40
0.0
 40
0.0
 40
1.0
 40
1.0
 40
1.0
 10
66.601219113740967
 20
104.62651636913969
 30
0.0
 10
66.660592232624026
 20
104.67149955438813
 30
0.0
 10
66.699534118690735
 20
104.76765547979463
 30
0.0
  0
SPLINE
  5
18A
102
{ACAD_REACTORS
330
31
102
}
100
AcDbEntity
  8
0
  6
CONTINUOUS
100
AcDbSpline
210
0.0
220
0.0
230
1.0
 70
     8
 71
     2
 72
     6
 73
     3
 74
     0
 42
0.0000001
 43
0.0000001
 40
0.0
 40
0.0
 40
0.0
 40
1.0
 40
1.0
 40
1.0
 10
66.699534118690735
 20
104.76765547979464
 30
0.0
 10
66.720032388461732
 20
104.82289369874518
 30
0.0
 10
66.793872695502955
 20
105.09297071605795
 30
0.0
  0
SPLINE
  5
18B
102
{ACAD_REACTORS
330
31
102
}
100
AcDbEntity
  8
0
  6
CONTINUOUS
100
AcDbSpline
210
0.0
220
0.0
230
1.0
 70
     8
 71
     2
 72
     6
 73
     3
 74
     0
 42
0.0000001
 43
0.0000001
 40
0.0
 40
0.0
 40
0.0
 40
1.0
 40
1.0
 40
1.0
 10
66.793872695502955
 20
105.09297071605793
 30
0.0
 10
66.898484258850658
 20
105.48376592464477
 30
0.0
 10
66.965089634043125
 20
105.63822638695308
 30
0.0
  0
SPLINE
  5
18C
102
{ACAD_REACTORS
330
31
102
}
100
AcDbEntity
  8
0
  6
CONTINUOUS
100
AcDbSpline
210
0.0
220
0.0
230
1.0
 70
     8
 71
     2
 72
     6
 73
     3
 74
     0
 42
0.0000001
 43
0.0000001
 40
0.0
 40
0.0
 40
0.0
 40
1.0
 40
1.0
 40
1.0
 10
66.965089634043125
 20
105.63822638695309
 30
0.0
 10
67.031693815640779
 20
105.79268446582707
 30
0.0
 10
67.158624864985882
 20
105.88060004822799
 30
0.0
  0
SPLINE
  5
18D
102
{ACAD_REACTORS
330
31
102
}
100
AcDbEntity
  8
0
  6
CONTINUOUS
100
AcDbSpline
210
0.0
220
0.0
230
1.0
 70
     8
 71
     2
 72
     6
 73
     3
 74
     0
 42
0.0000001
 43
0.0000001
 40
0.0
 40
0.0
 40
0.0
 40
1.0
 40
1.0
 40
1.0
 10
67.158624864985939
 20
105.88060004822798
 30
0.0
 10
67.285557106423596
 20
105.9685156298779
 30
0.0
 10
67.473824300051717
 20
105.96839702499516
 30
0.0
  0
SPLINE
  5
18E
102
{ACAD_REACTORS
330
31
102
}
100
AcDbEntity
  8
0
  6
CONTINUOUS
100
AcDbSpline
210
0.0
220
0.0
230
1.0
 70
     8
 71
     2
 72
     6
 73
     3
 74
     0
 42
0.0000001
 43
0.0000001
 40
0.0
 40
0.0
 40
0.0
 40
1.0
 40
1.0
 40
1.0
 10
67.473824300051717
 20
105.96839702499516
 30
0.0
 10
67.657999039581625
 20
105.96828099828352
 30
0.0
 10
67.820618626122211
 20
105.86074234948913
 30
0.0
  0
SPLINE
  5
18F
102
{ACAD_REACTORS
330
31
102
}
100
AcDbEntity
  8
0
  6
CONTINUOUS
100
AcDbSpline
210
0.0
220
0.0
230
1.0
 70
     8
 71
     2
 72
     6
 73
     3
 74
     0
 42
0.0000001
 43
0.0000001
 40
0.0
 40
0.0
 40
0.0
 40
1.0
 40
1.0
 40
1.0
 10
67.820618626122155
 20
105.86074234948913
 30
0.0
 10
67.983238212662854
 20
105.75320370069477
 30
0.0
 10
68.072128911020172
 20
105.55055624176147
 30
0.0
  0
SPLINE
  5
190
102
{ACAD_REACTORS
330
31
102
}
100
AcDbEntity
  8
0
  6
CONTINUOUS
100
AcDbSpline
210
0.0
220
0.0
230
1.0
 70
     8
 71
     2
 72
     6
 73
     3
 74
     0
 42
0.0000001
 43
0.0000001
 40
0.0
 40
0.0
 40
0.0
 40
1.0
 40
1.0
 40
1.0
 10
68.072128911020172
 20
105.55055624176147
 30
0.0
 10
68.161018417284936
 20
105.34790878357917
 30
0.0
 10
68.160857268448467
 20
105.09210954082151
 30
0.0
  0
SPLINE
  5
191
102
{ACAD_REACTORS
330
31
102
}
100
AcDbEntity
  8
0
  6
CONTINUOUS
100
AcDbSpline
210
0.0
220
0.0
230
1.0
 70
     8
 71
     2
 72
     6
 73
     3
 74
     0
 42
0.0000001
 43
0.0000001
 40
0.0
 40
0.0
 40
0.0
 40
1.0
 40
1.0
 40
1.0
 10
68.160857268448581
 20
105.09210954082151
 30
0.0
 10
68.160590407837958
 20
104.66850895120461
 30
0.0
 10
67.984461892488412
 20
104.44658779472282
 30
0.0
  0
SPLINE
  5
192
102
{ACAD_REACTORS
330
31
102
}
100
AcDbEntity
  8
0
  6
CONTINUOUS
100
AcDbSpline
210
0.0
220
0.0
230
1.0
 70
     8
 71
     2
 72
     6
 73
     3
 74
     0
 42
0.0000001
 43
0.0000001
 40
0.0
 40
0.0
 40
0.0
 40
1.0
 40
1.0
 40
1.0
 10
67.984461892488412
 20
104.44658779472282
 30
0.0
 10
67.80833218354428
 20
104.22466425480671
 30
0.0
 10
67.462455507436516
 20
104.16349173866077
 30
0.0
  0
LINE
  5
193
102
{ACAD_REACTORS
330
31
102
}
100
AcDbEntity
  8
0
  6
CONTINUOUS
100
AcDbLine
 10
67.464509
 20
107.423381
 30
0.0
 11
67.40744
 21
107.787673
 31
0.0
  0
SPLINE
  5
194
102
{ACAD_REACTORS
330
31
102
}
100
AcDbEntity
  8
0
  6
CONTINUOUS
100
AcDbSpline
210
0.0
220
0.0
230
1.0
 70
     8
 71
     2
 72
     6
 73
     3
 74
     0
 42
0.0000001
 43
0.0000001
 40
0.0
 40
0.0
 40
0.0
 40
1.0
 40
1.0
 40
1.0
 10
67.407439526810606
 20
107.78767310154012
 30
0.0
 10
67.626422444567481
 20
107.8182315444646
 30
0.0
 10
67.743154636742986
 20
107.95833623672168
 30
0.0
  0
SPLINE
  5
195
102
{ACAD_REACTORS
330
31
102
}
100
AcDbEntity
  8
0
  6
CONTINUOUS
100
AcDbSpline
210
0.0
220
0.0
230
1.0
 70
     8
 71
     2
 72
     6
 73
     3
 74
     0
 42
0.0000001
 43
0.0000001
 40
0.0
 40
0.0
 40
0.0
 40
1.0
 40
1.0
 40
1.0
 10
67.743154636742929
 20
107.95833623672169
 30
0.0
 10
67.859886827416517
 20
108.09843854479347
 30
0.0
 10
67.860045398832767
 20
108.35014652554563
 30
0.0
  0
SPLINE
  5
196
102
{ACAD_REACTORS
330
31
102
}
100
AcDbEntity
  8
0
  6
CONTINUOUS
100
AcDbSpline
210
0.0
220
0.0
230
1.0
 70
     8
 71
     2
 72
     6
 73
     3
 74
     0
 42
0.0000001
 43
0.0000001
 40
0.0
 40
0.0
 40
0.0
 40
1.0
 40
1.0
 40
1.0
 10
67.860045398832824
 20
108.35014652554564
 30
0.0
 10
67.860205255955236
 20
108.6038953689299
 30
0.0
 10
67.756940095993912
 20
108.72674601669144
 30
0.0
  0
SPLINE
  5
197
102
{ACAD_REACTORS
330
31
102
}
100
AcDbEntity
  8
0
  6
CONTINUOUS
100
AcDbSpline
210
0.0
220
0.0
230
1.0
 70
     8
 71
     2
 72
     6
 73
     3
 74
     0
 42
0.0000001
 43
0.0000001
 40
0.0
 40
0.0
 40
0.0
 40
1.0
 40
1.0
 40
1.0
 10
67.756940095993912
 20
108.72674601669142
 30
0.0
 10
67.653674933028526
 20
108.84959189608232
 30
0.0
 10
67.514520764856513
 20
108.84967956065881
 30
0.0
  0
SPLINE
  5
198
102
{ACAD_REACTORS
330
31
102
}
100
AcDbEntity
  8
0
  6
CONTINUOUS
100
AcDbSpline
210
0.0
220
0.0
230
1.0
 70
     8
 71
     2
 72
     6
 73
     3
 74
     0
 42
0.0000001
 43
0.0000001
 40
0.0
 40
0.0
 40
0.0
 40
1.0
 40
1.0
 40
1.0
 10
67.514520764856513
 20
108.84967956065881
 30
0.0
 10
67.389690782074524
 20
108.84975820126097
 30
0.0
 10
67.317999145274769
 20
108.74134673252343
 30
0.0
  0
SPLINE
  5
199
102
{ACAD_REACTORS
330
31
102
}
100
AcDbEntity
  8
0
  6
CONTINUOUS
100
AcDbSpline
210
0.0
220
0.0
230
1.0
 70
     8
 71
     2
 72
     6
 73
     3
 74
     0
 42
0.0000001
 43
0.0000001
 40
0.0
 40
0.0
 40
0.0
 40
1.0
 40
1.0
 40
1.0
 10
67.317999145274825
 20
108.74134673252343
 30
0.0
 10
67.268838419522808
 20
108.66566071550373
 30
0.0
 10
67.192933144819904
 20
108.36489098511836
 30
0.0
  0
SPLINE
  5
19A
102
{ACAD_REACTORS
330
31
102
}
100
AcDbEntity
  8
0
  6
CONTINUOUS
100
AcDbSpline
210
0.0
220
0.0
230
1.0
 70
     8
 71
     2
 72
     6
 73
     3
 74
     0
 42
0.0000001
 43
0.0000001
 40
0.0
 40
0.0
 40
0.0
 40
1.0
 40
1.0
 40
1.0
 10
67.192933144819904
 20
108.36489098511836
 30
0.0
 10
67.090358188500659
 20
107.95977030243151
 30
0.0
 10
67.015566616401884
 20
107.80326936546265
 30
0.0
  0
SPLINE
  5
19B
102
{ACAD_REACTORS
330
31
102
}
100
AcDbEntity
  8
0
  6
CONTINUOUS
100
AcDbSpline
210
0.0
220
0.0
230
1.0
 70
     8
 71
     2
 72
     6
 73
     3
 74
     0
 42
0.0000001
 43
0.0000001
 40
0.0
 40
0.0
 40
0.0
 40
1.0
 40
1.0
 40
1.0
 10
67.015566616401827
 20
107.80326936546264
 30
0.0
 10
66.940775044302939
 20
107.6467684284938
 30
0.0
 10
66.808732045252953
 20
107.56601816206498
 30
0.0
  0
SPLINE
  5
19C
102
{ACAD_REACTORS
330
31
102
}
100
AcDbEntity
  8
0
  6
CONTINUOUS
100
AcDbSpline
210
0.0
220
0.0
230
1.0
 70
     8
 71
     2
 72
     6
 73
     3
 74
     0
 42
0.0000001
 43
0.0000001
 40
0.0
 40
0.0
 40
0.0
 40
1.0
 40
1.0
 40
1.0
 10
66.808732045252953
 20
107.56601816206499
 30
0.0
 10
66.676689047704883
 20
107.48527027982149
 30
0.0
 10
66.517071416949364
 20
107.48537083600452
 30
0.0
  0
SPLINE
  5
19D
102
{ACAD_REACTORS
330
31
102
}
100
AcDbEntity
  8
0
  6
CONTINUOUS
100
AcDbSpline
210
0.0
220
0.0
230
1.0
 70
     8
 71
     2
 72
     6
 73
     3
 74
     0
 42
0.0000001
 43
0.0000001
 40
0.0
 40
0.0
 40
0.0
 40
1.0
 40
1.0
 40
1.0
 10
66.517071416949364
 20
107.48537083600452
 30
0.0
 10
66.371777971583754
 20
107.48546236821316
 30
0.0
 10
66.248013894492431
 20
107.55204721315215
 30
0.0
  0
SPLINE
  5
19E
102
{ACAD_REACTORS
330
31
102
}
100
AcDbEntity
  8
0
  6
CONTINUOUS
100
AcDbSpline
210
0.0
220
0.0
230
1.0
 70
     8
 71
     2
 72
     6
 73
     3
 74
     0
 42
0.0000001
 43
0.0000001
 40
0.0
 40
0.0
 40
0.0
 40
1.0
 40
1.0
 40
1.0
 10
66.248013894492431
 20
107.55204721315215
 30
0.0
 10
66.124249817401108
 20
107.61863205809114
 30
0.0
 10
66.042466373726882
 20
107.73328187713396
 30
0.0
  0
SPLINE
  5
19F
102
{ACAD_REACTORS
330
31
102
}
100
AcDbEntity
  8
0
  6
CONTINUOUS
100
AcDbSpline
210
0.0
220
0.0
230
1.0
 70
     8
 71
     2
 72
     6
 73
     3
 74
     0
 42
0.0000001
 43
0.0000001
 40
0.0
 40
0.0
 40
0.0
 40
1.0
 40
1.0
 40
1.0
 10
66.042466373726825
 20
107.73328187713395
 30
0.0
 10
65.979082712182503
 20
107.81926933831507
 30
0.0
 10
65.935178422350646
 20
107.96766014005756
 30
0.0
  0
SPLINE
  5
1A0
102
{ACAD_REACTORS
330
31
102
}
100
AcDbEntity
  8
0
  6
CONTINUOUS
100
AcDbSpline
210
0.0
220
0.0
230
1.0
 70
     8
 71
     2
 72
     6
 73
     3
 74
     0
 42
0.0000001
 43
0.0000001
 40
0.0
 40
0.0
 40
0.0
 40
1.0
 40
1.0
 40
1.0
 10
65.935178422350717
 20
107.96766014005756
 30
0.0
 10
65.891274728565307
 20
108.11605094142455
 30
0.0
 10
65.891381730551601
 20
108.28590030347186
 30
0.0
  0
SPLINE
  5
1A1
102
{ACAD_REACTORS
330
31
102
}
100
AcDbEntity
  8
0
  6
CONTINUOUS
100
AcDbSpline
210
0.0
220
0.0
230
1.0
 70
     8
 71
     2
 72
     6
 73
     3
 74
     0
 42
0.0000001
 43
0.0000001
 40
0.0
 40
0.0
 40
0.0
 40
1.0
 40
1.0
 40
1.0
 10
65.891381730551586
 20
108.28590030347188
 30
0.0
 10
65.891542879387941
 20
108.54169954622954
 30
0.0
 10
65.965334841778315
 20
108.735036790715
 30
0.0
  0
SPLINE
  5
1A2
102
{ACAD_REACTORS
330
31
102
}
100
AcDbEntity
  8
0
  6
CONTINUOUS
100
AcDbSpline
210
0.0
220
0.0
230
1.0
 70
     8
 71
     2
 72
     6
 73
     3
 74
     0
 42
0.0000001
 43
0.0000001
 40
0.0
 40
0.0
 40
0.0
 40
1.0
 40
1.0
 40
1.0
 10
65.965334841778315
 20
108.735036790715
 30
0.0
 10
66.039126206620438
 20
108.92837165139065
 30
0.0
 10
66.165037019386148
 20
109.02038152433742
 30
0.0
  0
SPLINE
  5
1A3
102
{ACAD_REACTORS
330
31
102
}
100
AcDbEntity
  8
0
  6
CONTINUOUS
100
AcDbSpline
210
0.0
220
0.0
230
1.0
 70
     8
 71
     2
 72
     6
 73
     3
 74
     0
 42
0.0000001
 43
0.0000001
 40
0.0
 40
0.0
 40
0.0
 40
1.0
 40
1.0
 40
1.0
 10
66.165037019386205
 20
109.02038152433742
 30
0.0
 10
66.290947830649884
 20
109.11238901309889
 30
0.0
 10
66.501747225537883
 20
109.14704387512209
 30
0.0
  0
LINE
  5
1A4
102
{ACAD_REACTORS
330
31
102
}
100
AcDbEntity
  8
0
  6
CONTINUOUS
100
AcDbLine
 10
66.501747
 20
109.147044
 30
0.0
 11
66.550633
 21
108.786851
 31
0.0
  0
SPLINE
  5
1A5
102
{ACAD_REACTORS
330
31
102
}
100
AcDbEntity
  8
0
  6
CONTINUOUS
100
AcDbSpline
210
0.0
220
0.0
230
1.0
 70
     8
 71
     2
 72
     6
 73
     3
 74
     0
 42
0.0000001
 43
0.0000001
 40
0.0
 40
0.0
 40
0.0
 40
1.0
 40
1.0
 40
1.0
 10
66.550633355414902
 20
108.78685074813768
 30
0.0
 10
66.382814749888098
 20
108.76239935226401
 30
0.0
 10
66.288606429163679
 20
108.6447919570865
 30
0.0
  0
SPLINE
  5
1A6
102
{ACAD_REACTORS
330
31
102
}
100
AcDbEntity
  8
0
  6
CONTINUOUS
100
AcDbSpline
210
0.0
220
0.0
230
1.0
 70
     8
 71
     2
 72
     6
 73
     3
 74
     0
 42
0.0000001
 43
0.0000001
 40
0.0
 40
0.0
 40
0.0
 40
1.0
 40
1.0
 40
1.0
 10
66.288606429163565
 20
108.6447919570865
 30
0.0
 10
66.194398702983563
 20
108.52718217734814
 30
0.0
 10
66.194263340364273
 20
108.31231462812822
 30
0.0
  0
SPLINE
  5
1A7
102
{ACAD_REACTORS
330
31
102
}
100
AcDbEntity
  8
0
  6
CONTINUOUS
100
AcDbSpline
210
0.0
220
0.0
230
1.0
 70
     8
 71
     2
 72
     6
 73
     3
 74
     0
 42
0.0000001
 43
0.0000001
 40
0.0
 40
0.0
 40
0.0
 40
1.0
 40
1.0
 40
1.0
 10
66.194263340364273
 20
108.31231462812822
 30
0.0
 10
66.1941034802378
 20
108.05856101637332
 30
0.0
 10
66.277937020095351
 20
107.95005156962385
 30
0.0
  0
SPLINE
  5
1A8
102
{ACAD_REACTORS
330
31
102
}
100
AcDbEntity
  8
0
  6
CONTINUOUS
100
AcDbSpline
210
0.0
220
0.0
230
1.0
 70
     8
 71
     2
 72
     6
 73
     3
 74
     0
 42
0.0000001
 43
0.0000001
 40
0.0
 40
0.0
 40
0.0
 40
1.0
 40
1.0
 40
1.0
 10
66.277937020095351
 20
107.95005156962385
 30
0.0
 10
66.361770558450871
 20
107.84153973868908
 30
0.0
 10
66.474321986845666
 20
107.84146883335124
 30
0.0
  0
SPLINE
  5
1A9
102
{ACAD_REACTORS
330
31
102
}
100
AcDbEntity
  8
0
  6
CONTINUOUS
100
AcDbSpline
210
0.0
220
0.0
230
1.0
 70
     8
 71
     2
 72
     6
 73
     3
 74
     0
 42
0.0000001
 43
0.0000001
 40
0.0
 40
0.0
 40
0.0
 40
1.0
 40
1.0
 40
1.0
 10
66.47432198684578
 20
107.84146883335124
 30
0.0
 10
66.545945297980893
 20
107.84142371197744
 30
0.0
 10
66.603272785861122
 20
107.88640818593593
 30
0.0
  0
SPLINE
  5
1AA
102
{ACAD_REACTORS
330
31
102
}
100
AcDbEntity
  8
0
  6
CONTINUOUS
100
AcDbSpline
210
0.0
220
0.0
230
1.0
 70
     8
 71
     2
 72
     6
 73
     3
 74
     0
 42
0.0000001
 43
0.0000001
 40
0.0
 40
0.0
 40
0.0
 40
1.0
 40
1.0
 40
1.0
 10
66.603272785861066
 20
107.88640818593593
 30
0.0
 10
66.662645903242094
 20
107.93138898699907
 30
0.0
 10
66.701587790810947
 20
108.02754729659087
 30
0.0
  0
SPLINE
  5
1AB
102
{ACAD_REACTORS
330
31
102
}
100
AcDbEntity
  8
0
  6
CONTINUOUS
100
AcDbSpline
210
0.0
220
0.0
230
1.0
 70
     8
 71
     2
 72
     6
 73
     3
 74
     0
 42
0.0000001
 43
0.0000001
 40
0.0
 40
0.0
 40
0.0
 40
1.0
 40
1.0
 40
1.0
 10
66.701587790810891
 20
108.02754729659087
 30
0.0
 10
66.722086060581773
 20
108.0827855155414
 30
0.0
 10
66.79592636762311
 20
108.35286253285418
 30
0.0
  0
SPLINE
  5
1AC
102
{ACAD_REACTORS
330
31
102
}
100
AcDbEntity
  8
0
  6
CONTINUOUS
100
AcDbSpline
210
0.0
220
0.0
230
1.0
 70
     8
 71
     2
 72
     6
 73
     3
 74
     0
 42
0.0000001
 43
0.0000001
 40
0.0
 40
0.0
 40
0.0
 40
1.0
 40
1.0
 40
1.0
 10
66.795926367623167
 20
108.35286253285418
 30
0.0
 10
66.90053792946884
 20
108.74365535725569
 30
0.0
 10
66.967143304661192
 20
108.898115819564
 30
0.0
  0
SPLINE
  5
1AD
102
{ACAD_REACTORS
330
31
102
}
100
AcDbEntity
  8
0
  6
CONTINUOUS
100
AcDbSpline
210
0.0
220
0.0
230
1.0
 70
     8
 71
     2
 72
     6
 73
     3
 74
     0
 42
0.0000001
 43
0.0000001
 40
0.0
 40
0.0
 40
0.0
 40
1.0
 40
1.0
 40
1.0
 10
66.967143304661249
 20
108.898115819564
 30
0.0
 10
67.033747487761048
 20
109.05257628262329
 30
0.0
 10
67.160678537106037
 20
109.14049186502422
 30
0.0
  0
SPLINE
  5
1AE
102
{ACAD_REACTORS
330
31
102
}
100
AcDbEntity
  8
0
  6
CONTINUOUS
100
AcDbSpline
210
0.0
220
0.0
230
1.0
 70
     8
 71
     2
 72
     6
 73
     3
 74
     0
 42
0.0000001
 43
0.0000001
 40
0.0
 40
0.0
 40
0.0
 40
1.0
 40
1.0
 40
1.0
 10
67.160678537105923
 20
109.1404918650242
 30
0.0
 10
67.28761077704155
 20
109.2284050624888
 30
0.0
 10
67.475877970669785
 20
109.22828645760606
 30
0.0
  0
SPLINE
  5
1AF
102
{ACAD_REACTORS
330
31
102
}
100
AcDbEntity
  8
0
  6
CONTINUOUS
100
AcDbSpline
210
0.0
220
0.0
230
1.0
 70
     8
 71
     2
 72
     6
 73
     3
 74
     0
 42
0.0000001
 43
0.0000001
 40
0.0
 40
0.0
 40
0.0
 40
1.0
 40
1.0
 40
1.0
 10
67.475877970669785
 20
109.22828645760607
 30
0.0
 10
67.660052710199693
 20
109.22817043089444
 30
0.0
 10
67.822672298242196
 20
109.12063416628537
 30
0.0
  0
SPLINE
  5
1B0
102
{ACAD_REACTORS
330
31
102
}
100
AcDbEntity
  8
0
  6
CONTINUOUS
100
AcDbSpline
210
0.0
220
0.0
230
1.0
 70
     8
 71
     2
 72
     6
 73
     3
 74
     0
 42
0.0000001
 43
0.0000001
 40
0.0
 40
0.0
 40
0.0
 40
1.0
 40
1.0
 40
1.0
 10
67.822672298242253
 20
109.12063416628537
 30
0.0
 10
67.985291884782953
 20
109.01309551749101
 30
0.0
 10
68.074182581638354
 20
108.81044567437239
 30
0.0
  0
SPLINE
  5
1B1
102
{ACAD_REACTORS
330
31
102
}
100
AcDbEntity
  8
0
  6
CONTINUOUS
100
AcDbSpline
210
0.0
220
0.0
230
1.0
 70
     8
 71
     2
 72
     6
 73
     3
 74
     0
 42
0.0000001
 43
0.0000001
 40
0.0
 40
0.0
 40
0.0
 40
1.0
 40
1.0
 40
1.0
 10
68.074182581638297
 20
108.81044567437237
 30
0.0
 10
68.16307208790306
 20
108.60779821619008
 30
0.0
 10
68.162910940568622
 20
108.35200135761774
 30
0.0
  0
SPLINE
  5
1B2
102
{ACAD_REACTORS
330
31
102
}
100
AcDbEntity
  8
0
  6
CONTINUOUS
100
AcDbSpline
210
0.0
220
0.0
230
1.0
 70
     8
 71
     2
 72
     6
 73
     3
 74
     0
 42
0.0000001
 43
0.0000001
 40
0.0
 40
0.0
 40
0.0
 40
1.0
 40
1.0
 40
1.0
 10
68.162910940568736
 20
108.35200135761775
 30
0.0
 10
68.162644078455969
 20
107.92839838381553
 30
0.0
 10
67.986515563106536
 20
107.70647722733374
 30
0.0
  0
SPLINE
  5
1B3
102
{ACAD_REACTORS
330
31
102
}
100
AcDbEntity
  8
0
  6
CONTINUOUS
100
AcDbSpline
210
0.0
220
0.0
230
1.0
 70
     8
 71
     2
 72
     6
 73
     3
 74
     0
 42
0.0000001
 43
0.0000001
 40
0.0
 40
0.0
 40
0.0
 40
1.0
 40
1.0
 40
1.0
 10
67.986515563106536
 20
107.70647722733374
 30
0.0
 10
67.810385855664322
 20
107.48455607160295
 30
0.0
 10
67.464509178054641
 20
107.42338117127169
 30
0.0
  0
LWPOLYLINE
  5
1B4
102
{ACAD_REACTORS
330
31
102
}
100
AcDbEntity
  8
0
  6
CONTINUOUS
100
AcDbPolyline
 90
        5
 70
     0
 10
65.114627
 20
109.669747
 10
65.538229
 20
109.66948
 10
65.538461
 20
110.03783
 10
65.114859
 20
110.038096
 10
65.114627
 20
109.669747
  0
LWPOLYLINE
  5
1B5
102
{ACAD_REACTORS
330
31
102
}
100
AcDbEntity
  8
0
  6
CONTINUOUS
100
AcDbPolyline
 90
        5
 70
     0
 10
65.941367
 20
109.669226
 10
68.114627
 20
109.667857
 10
68.114859
 20
110.036207
 10
65.941599
 20
110.037576
 10
65.941367
 20
109.669226
  0
LINE
  5
1B6
102
{ACAD_REACTORS
330
31
102
}
100
AcDbEntity
  8
0
  6
CONTINUOUS
100
AcDbLine
 10
68.1161
 20
112.006874
 30
0.0
 11
67.841885
 21
112.007047
 31
0.0
  0
SPLINE
  5
1B7
102
{ACAD_REACTORS
330
31
102
}
100
AcDbEntity
  8
0
  6
CONTINUOUS
100
AcDbSpline
210
0.0
220
0.0
230
1.0
 70
     8
 71
     2
 72
     6
 73
     3
 74
     0
 42
0.0000001
 43
0.0000001
 40
0.0
 40
0.0
 40
0.0
 40
1.0
 40
1.0
 40
1.0
 10
67.841884516146706
 20
112.00704670035381
 30
0.0
 10
68.165083216069434
 20
111.80015798385679
 30
0.0
 10
68.164830535775309
 20
111.39906648782619
 30
0.0
  0
SPLINE
  5
1B8
102
{ACAD_REACTORS
330
31
102
}
100
AcDbEntity
  8
0
  6
CONTINUOUS
100
AcDbSpline
210
0.0
220
0.0
230
1.0
 70
     8
 71
     2
 72
     6
 73
     3
 74
     0
 42
0.0000001
 43
0.0000001
 40
0.0
 40
0.0
 40
0.0
 40
1.0
 40
1.0
 40
1.0
 10
68.164830535775366
 20
111.39906648782618
 30
0.0
 10
68.164666809518792
 20
111.139175983063
 30
0.0
 10
68.021282888560165
 20
110.92132546171591
 30
0.0
  0
SPLINE
  5
1B9
102
{ACAD_REACTORS
330
31
102
}
100
AcDbEntity
  8
0
  6
CONTINUOUS
100
AcDbSpline
210
0.0
220
0.0
230
1.0
 70
     8
 71
     2
 72
     6
 73
     3
 74
     0
 42
0.0000001
 43
0.0000001
 40
0.0
 40
0.0
 40
0.0
 40
1.0
 40
1.0
 40
1.0
 10
68.021282888560222
 20
110.9213254617159
 30
0.0
 10
67.877898967601595
 20
110.70347494036879
 30
0.0
 10
67.621001492768528
 20
110.58392440456309
 30
0.0
  0
SPLINE
  5
1BA
102
{ACAD_REACTORS
330
31
102
}
100
AcDbEntity
  8
0
  6
CONTINUOUS
100
AcDbSpline
210
0.0
220
0.0
230
1.0
 70
     8
 71
     2
 72
     6
 73
     3
 74
     0
 42
0.0000001
 43
0.0000001
 40
0.0
 40
0.0
 40
0.0
 40
1.0
 40
1.0
 40
1.0
 10
67.621001492768471
 20
110.58392440456309
 30
0.0
 10
67.364105210028072
 20
110.4643738680064
 30
0.0
 10
67.030544571034341
 20
110.46458400509781
 30
0.0
  0
SPLINE
  5
1BB
102
{ACAD_REACTORS
330
31
102
}
100
AcDbEntity
  8
0
  6
CONTINUOUS
100
AcDbSpline
210
0.0
220
0.0
230
1.0
 70
     8
 71
     2
 72
     6
 73
     3
 74
     0
 42
0.0000001
 43
0.0000001
 40
0.0
 40
0.0
 40
0.0
 40
1.0
 40
1.0
 40
1.0
 10
67.030544571034341
 20
110.46458400509782
 30
0.0
 10
66.705170032329704
 20
110.46478898509601
 30
0.0
 10
66.440231391539044
 20
110.57341252474103
 30
0.0
  0
SPLINE
  5
1BC
102
{ACAD_REACTORS
330
31
102
}
100
AcDbEntity
  8
0
  6
CONTINUOUS
100
AcDbSpline
210
0.0
220
0.0
230
1.0
 70
     8
 71
     2
 72
     6
 73
     3
 74
     0
 42
0.0000001
 43
0.0000001
 40
0.0
 40
0.0
 40
0.0
 40
1.0
 40
1.0
 40
1.0
 10
66.440231391539044
 20
110.57341252474104
 30
0.0
 10
66.175292752250414
 20
110.68203844857138
 30
0.0
 10
66.03422900986078
 20
110.89904296664145
 30
0.0
  0
SPLINE
  5
1BD
102
{ACAD_REACTORS
330
31
102
}
100
AcDbEntity
  8
0
  6
CONTINUOUS
100
AcDbSpline
210
0.0
220
0.0
230
1.0
 70
     8
 71
     2
 72
     6
 73
     3
 74
     0
 42
0.0000001
 43
0.0000001
 40
0.0
 40
0.0
 40
0.0
 40
1.0
 40
1.0
 40
1.0
 10
66.03422900986078
 20
110.89904296664143
 30
0.0
 10
65.893165268973178
 20
111.11604986889681
 30
0.0
 10
65.893334153073909
 20
111.38412766604166
 30
0.0
  0
SPLINE
  5
1BE
102
{ACAD_REACTORS
330
31
102
}
100
AcDbEntity
  8
0
  6
CONTINUOUS
100
AcDbSpline
210
0.0
220
0.0
230
1.0
 70
     8
 71
     2
 72
     6
 73
     3
 74
     0
 42
0.0000001
 43
0.0000001
 40
0.0
 40
0.0
 40
0.0
 40
1.0
 40
1.0
 40
1.0
 10
65.893334153073852
 20
111.38412766604166
 30
0.0
 10
65.893457914298779
 20
111.58057976786611
 30
0.0
 10
65.97643305757515
 20
111.73400710161313
 30
0.0
  0
SPLINE
  5
1BF
102
{ACAD_REACTORS
330
31
102
}
100
AcDbEntity
  8
0
  6
CONTINUOUS
100
AcDbSpline
210
0.0
220
0.0
230
1.0
 70
     8
 71
     2
 72
     6
 73
     3
 74
     0
 42
0.0000001
 43
0.0000001
 40
0.0
 40
0.0
 40
0.0
 40
1.0
 40
1.0
 40
1.0
 10
65.976433057575207
 20
111.73400710161313
 30
0.0
 10
66.059408199349775
 20
111.88743205117483
 30
0.0
 10
66.192483682230488
 20
111.98352867413995
 30
0.0
  0
LINE
  5
1C0
102
{ACAD_REACTORS
330
31
102
}
100
AcDbEntity
  8
0
  6
CONTINUOUS
100
AcDbLine
 10
66.192484
 20
111.983529
 30
0.0
 11
65.116086
 21
111.984207
 31
0.0
  0
LINE
  5
1C1
102
{ACAD_REACTORS
330
31
102
}
100
AcDbEntity
  8
0
  6
CONTINUOUS
100
AcDbLine
 10
65.116086
 20
111.984207
 30
0.0
 11
65.116317
 21
112.350508
 31
0.0
  0
LINE
  5
1C2
102
{ACAD_REACTORS
330
31
102
}
100
AcDbEntity
  8
0
  6
CONTINUOUS
100
AcDbLine
 10
65.116317
 20
112.350508
 30
0.0
 11
68.116316
 21
112.348618
 31
0.0
  0
LINE
  5
1C3
102
{ACAD_REACTORS
330
31
102
}
100
AcDbEntity
  8
0
  6
CONTINUOUS
100
AcDbLine
 10
68.116316
 20
112.348618
 30
0.0
 11
68.1161
 21
112.006874
 31
0.0
  0
SPLINE
  5
1C4
102
{ACAD_REACTORS
330
31
102
}
100
AcDbEntity
  8
0
  6
CONTINUOUS
100
AcDbSpline
210
0.0
220
0.0
230
1.0
 70
     8
 71
     2
 72
     6
 73
     3
 74
     0
 42
0.0000001
 43
0.0000001
 40
0.0
 40
0.0
 40
0.0
 40
1.0
 40
1.0
 40
1.0
 10
67.030783069509937
 20
110.84316402335678
 30
0.0
 10
67.448245574025862
 20
110.84290102962727
 30
0.0
 10
67.655041468853199
 20
111.01875946108898
 30
0.0
  0
SPLINE
  5
1C5
102
{ACAD_REACTORS
330
31
102
}
100
AcDbEntity
  8
0
  6
CONTINUOUS
100
AcDbSpline
210
0.0
220
0.0
230
1.0
 70
     8
 71
     2
 72
     6
 73
     3
 74
     0
 42
0.0000001
 43
0.0000001
 40
0.0
 40
0.0
 40
0.0
 40
1.0
 40
1.0
 40
1.0
 10
67.655041468853199
 20
111.01875946108898
 30
0.0
 10
67.861837363680536
 20
111.19461789255068
 30
0.0
 10
67.861988199832524
 20
111.43404731891563
 30
0.0
  0
SPLINE
  5
1C6
102
{ACAD_REACTORS
330
31
102
}
100
AcDbEntity
  8
0
  6
CONTINUOUS
100
AcDbSpline
210
0.0
220
0.0
230
1.0
 70
     8
 71
     2
 72
     6
 73
     3
 74
     0
 42
0.0000001
 43
0.0000001
 40
0.0
 40
0.0
 40
0.0
 40
1.0
 40
1.0
 40
1.0
 10
67.861988199832467
 20
111.43404731891563
 30
0.0
 10
67.862140321690617
 20
111.67551760791271
 30
0.0
 10
67.664770571405256
 20
111.84447094497493
 30
0.0
  0
SPLINE
  5
1C7
102
{ACAD_REACTORS
330
31
102
}
100
AcDbEntity
  8
0
  6
CONTINUOUS
100
AcDbSpline
210
0.0
220
0.0
230
1.0
 70
     8
 71
     2
 72
     6
 73
     3
 74
     0
 42
0.0000001
 43
0.0000001
 40
0.0
 40
0.0
 40
0.0
 40
1.0
 40
1.0
 40
1.0
 10
67.664770571405313
 20
111.84447094497492
 30
0.0
 10
67.467400818116118
 20
112.01341951366651
 30
0.0
 10
67.062216867987388
 20
112.01367477213169
 30
0.0
  0
SPLINE
  5
1C8
102
{ACAD_REACTORS
330
31
102
}
100
AcDbEntity
  8
0
  6
CONTINUOUS
100
AcDbSpline
210
0.0
220
0.0
230
1.0
 70
     8
 71
     2
 72
     6
 73
     3
 74
     0
 42
0.0000001
 43
0.0000001
 40
0.0
 40
0.0
 40
0.0
 40
1.0
 40
1.0
 40
1.0
 10
67.062216867987445
 20
112.01367477213171
 30
0.0
 10
66.616104800598919
 20
112.01395581456096
 30
0.0
 10
66.407265257644553
 20
111.84219231837562
 30
0.0
  0
SPLINE
  5
1C9
102
{ACAD_REACTORS
330
31
102
}
100
AcDbEntity
  8
0
  6
CONTINUOUS
100
AcDbSpline
210
0.0
220
0.0
230
1.0
 70
     8
 71
     2
 72
     6
 73
     3
 74
     0
 42
0.0000001
 43
0.0000001
 40
0.0
 40
0.0
 40
0.0
 40
1.0
 40
1.0
 40
1.0
 10
66.407265257644497
 20
111.84219231837562
 30
0.0
 10
66.198425714690245
 20
111.67042882219032
 30
0.0
 10
66.198267143273881
 20
111.41872084143816
 30
0.0
  0
SPLINE
  5
1CA
102
{ACAD_REACTORS
330
31
102
}
100
AcDbEntity
  8
0
  6
CONTINUOUS
100
AcDbSpline
210
0.0
220
0.0
230
1.0
 70
     8
 71
     2
 72
     6
 73
     3
 74
     0
 42
0.0000001
 43
0.0000001
 40
0.0
 40
0.0
 40
0.0
 40
1.0
 40
1.0
 40
1.0
 10
66.198267143273824
 20
111.41872084143817
 30
0.0
 10
66.198112442493667
 20
111.17315690625027
 30
0.0
 10
66.398554410297834
 20
111.00829528156282
 30
0.0
  0
SPLINE
  5
1CB
102
{ACAD_REACTORS
330
31
102
}
100
AcDbEntity
  8
0
  6
CONTINUOUS
100
AcDbSpline
210
0.0
220
0.0
230
1.0
 70
     8
 71
     2
 72
     6
 73
     3
 74
     0
 42
0.0000001
 43
0.0000001
 40
0.0
 40
0.0
 40
0.0
 40
1.0
 40
1.0
 40
1.0
 10
66.398554410297947
 20
111.00829528156281
 30
0.0
 10
66.598996379604046
 20
110.84343604106066
 30
0.0
 10
67.030783069509994
 20
110.84316402335678
 30
0.0
  0
LINE
  5
1CC
102
{ACAD_REACTORS
330
31
102
}
100
AcDbEntity
  8
0
  6
CONTINUOUS
100
AcDbLine
 10
67.417754
 20
114.415909
 30
0.0
 11
67.46506
 21
114.796505
 31
0.0
  0
SPLINE
  5
1CD
102
{ACAD_REACTORS
330
31
102
}
100
AcDbEntity
  8
0
  6
CONTINUOUS
100
AcDbSpline
210
0.0
220
0.0
230
1.0
 70
     8
 71
     2
 72
     6
 73
     3
 74
     0
 42
0.0000001
 43
0.0000001
 40
0.0
 40
0.0
 40
0.0
 40
1.0
 40
1.0
 40
1.0
 10
67.465060463455416
 20
114.79650545602836
 30
0.0
 10
67.798564378178867
 20
114.70625417622107
 30
0.0
 10
67.982585705638712
 20
114.46261984532428
 30
0.0
  0
SPLINE
  5
1CE
102
{ACAD_REACTORS
330
31
102
}
100
AcDbEntity
  8
0
  6
CONTINUOUS
100
AcDbSpline
210
0.0
220
0.0
230
1.0
 70
     8
 71
     2
 72
     6
 73
     3
 74
     0
 42
0.0000001
 43
0.0000001
 40
0.0
 40
0.0
 40
0.0
 40
1.0
 40
1.0
 40
1.0
 10
67.982585705638655
 20
114.46261984532427
 30
0.0
 10
68.166607033098387
 20
114.21898551442749
 30
0.0
 10
68.166368533120874
 20
113.84040311198321
 30
0.0
  0
SPLINE
  5
1CF
102
{ACAD_REACTORS
330
31
102
}
100
AcDbEntity
  8
0
  6
CONTINUOUS
100
AcDbSpline
210
0.0
220
0.0
230
1.0
 70
     8
 71
     2
 72
     6
 73
     3
 74
     0
 42
0.0000001
 43
0.0000001
 40
0.0
 40
0.0
 40
0.0
 40
1.0
 40
1.0
 40
1.0
 10
68.166368533120874
 20
113.84040311198322
 30
0.0
 10
68.166068154032871
 20
113.36359704281203
 30
0.0
 10
67.872235649694801
 20
113.08444850501475
 30
0.0
  0
SPLINE
  5
1D0
102
{ACAD_REACTORS
330
31
102
}
100
AcDbEntity
  8
0
  6
CONTINUOUS
100
AcDbSpline
210
0.0
220
0.0
230
1.0
 70
     8
 71
     2
 72
     6
 73
     3
 74
     0
 42
0.0000001
 43
0.0000001
 40
0.0
 40
0.0
 40
0.0
 40
1.0
 40
1.0
 40
1.0
 10
67.872235649694858
 20
113.08444850501473
 30
0.0
 10
67.578404338951486
 20
112.80530235065177
 30
0.0
 10
67.048390406040767
 20
112.80563624971911
 30
0.0
  0
SPLINE
  5
1D1
102
{ACAD_REACTORS
330
31
102
}
100
AcDbEntity
  8
0
  6
CONTINUOUS
100
AcDbSpline
210
0.0
220
0.0
230
1.0
 70
     8
 71
     2
 72
     6
 73
     3
 74
     0
 42
0.0000001
 43
0.0000001
 40
0.0
 40
0.0
 40
0.0
 40
1.0
 40
1.0
 40
1.0
 10
67.048390406040767
 20
112.80563624971913
 30
0.0
 10
66.49995983364181
 20
112.80598175093193
 30
0.0
 10
66.197272295096582
 20
113.08857214896307
 30
0.0
  0
SPLINE
  5
1D2
102
{ACAD_REACTORS
330
31
102
}
100
AcDbEntity
  8
0
  6
CONTINUOUS
100
AcDbSpline
210
0.0
220
0.0
230
1.0
 70
     8
 71
     2
 72
     6
 73
     3
 74
     0
 42
0.0000001
 43
0.0000001
 40
0.0
 40
0.0
 40
0.0
 40
1.0
 40
1.0
 40
1.0
 10
66.197272295096468
 20
113.08857214896305
 30
0.0
 10
65.894585354099604
 20
113.37116493080399
 30
0.0
 10
65.894868975450891
 20
113.82137064438334
 30
0.0
  0
SPLINE
  5
1D3
102
{ACAD_REACTORS
330
31
102
}
100
AcDbEntity
  8
0
  6
CONTINUOUS
100
AcDbSpline
210
0.0
220
0.0
230
1.0
 70
     8
 71
     2
 72
     6
 73
     3
 74
     0
 42
0.0000001
 43
0.0000001
 40
0.0
 40
0.0
 40
0.0
 40
1.0
 40
1.0
 40
1.0
 10
65.894868975450947
 20
113.82137064438335
 30
0.0
 10
65.895143571325946
 20
114.25724978838745
 30
0.0
 10
66.192043183647286
 20
114.53332556205469
 30
0.0
  0
SPLINE
  5
1D4
102
{ACAD_REACTORS
330
31
102
}
100
AcDbEntity
  8
0
  6
CONTINUOUS
100
AcDbSpline
210
0.0
220
0.0
230
1.0
 70
     8
 71
     2
 72
     6
 73
     3
 74
     0
 42
0.0000001
 43
0.0000001
 40
0.0
 40
0.0
 40
0.0
 40
1.0
 40
1.0
 40
1.0
 10
66.192043183647229
 20
114.53332556205469
 30
0.0
 10
66.488943390512986
 20
114.8093989511611
 30
0.0
 10
67.027142231620132
 20
114.80905989575157
 30
0.0
  0
SPLINE
  5
1D5
102
{ACAD_REACTORS
330
31
102
}
100
AcDbEntity
  8
0
  6
CONTINUOUS
100
AcDbSpline
210
0.0
220
0.0
230
1.0
 70
     8
 71
     2
 72
     6
 73
     3
 74
     0
 42
0.0000001
 43
0.0000001
 40
0.0
 40
0.0
 40
0.0
 40
1.0
 40
1.0
 40
1.0
 10
67.027142231620189
 20
114.80905989575157
 30
0.0
 10
67.059884248591004
 20
114.80903926888074
 30
0.0
 10
67.125366993822297
 20
114.80695238413632
 30
0.0
  0
LINE
  5
1D6
102
{ACAD_REACTORS
330
31
102
}
100
AcDbEntity
  8
0
  6
CONTINUOUS
100
AcDbLine
 10
67.125367
 20
114.806952
 30
0.0
 11
67.124346
 21
113.186217
 31
0.0
  0
SPLINE
  5
1D7
102
{ACAD_REACTORS
330
31
102
}
100
AcDbEntity
  8
0
  6
CONTINUOUS
100
AcDbSpline
210
0.0
220
0.0
230
1.0
 70
     8
 71
     2
 72
     6
 73
     3
 74
     0
 42
0.0000001
 43
0.0000001
 40
0.0
 40
0.0
 40
0.0
 40
1.0
 40
1.0
 40
1.0
 10
67.124345959961488
 20
113.18621658362126
 30
0.0
 10
67.48247659933611
 20
113.2064544385848
 30
0.0
 10
67.672905353310171
 20
113.38846246067551
 30
0.0
  0
SPLINE
  5
1D8
102
{ACAD_REACTORS
330
31
102
}
100
AcDbEntity
  8
0
  6
CONTINUOUS
100
AcDbSpline
210
0.0
220
0.0
230
1.0
 70
     8
 71
     2
 72
     6
 73
     3
 74
     0
 42
0.0000001
 43
0.0000001
 40
0.0
 40
0.0
 40
0.0
 40
1.0
 40
1.0
 40
1.0
 10
67.672905353310171
 20
113.3884624606755
 30
0.0
 10
67.863334107284231
 20
113.57047048276621
 30
0.0
 10
67.863505568805181
 20
113.84263954191658
 30
0.0
  0
SPLINE
  5
1D9
102
{ACAD_REACTORS
330
31
102
}
100
AcDbEntity
  8
0
  6
CONTINUOUS
100
AcDbSpline
210
0.0
220
0.0
230
1.0
 70
     8
 71
     2
 72
     6
 73
     3
 74
     0
 42
0.0000001
 43
0.0000001
 40
0.0
 40
0.0
 40
0.0
 40
1.0
 40
1.0
 40
1.0
 10
67.863505568805238
 20
113.8426395419166
 30
0.0
 10
67.863633197662296
 20
114.04523092093466
 30
0.0
 10
67.757311289208644
 20
114.1885445809105
 30
0.0
  0
SPLINE
  5
1DA
102
{ACAD_REACTORS
330
31
102
}
100
AcDbEntity
  8
0
  6
CONTINUOUS
100
AcDbSpline
210
0.0
220
0.0
230
1.0
 70
     8
 71
     2
 72
     6
 73
     3
 74
     0
 42
0.0000001
 43
0.0000001
 40
0.0
 40
0.0
 40
0.0
 40
1.0
 40
1.0
 40
1.0
 10
67.757311289208644
 20
114.18854458091049
 30
0.0
 10
67.650989380755107
 20
114.33185824088633
 30
0.0
 10
67.417754473909042
 20
114.41590945761179
 30
0.0
  0
LINE
  5
1DB
102
{ACAD_REACTORS
330
31
102
}
100
AcDbEntity
  8
0
  6
CONTINUOUS
100
AcDbLine
 10
66.821495
 20
113.206871
 30
0.0
 11
66.822259
 21
114.420376
 31
0.0
  0
SPLINE
  5
1DC
102
{ACAD_REACTORS
330
31
102
}
100
AcDbEntity
  8
0
  6
CONTINUOUS
100
AcDbSpline
210
0.0
220
0.0
230
1.0
 70
     8
 71
     2
 72
     6
 73
     3
 74
     0
 42
0.0000001
 43
0.0000001
 40
0.0
 40
0.0
 40
0.0
 40
1.0
 40
1.0
 40
1.0
 10
66.822259084476912
 20
114.42037587242632
 30
0.0
 10
66.548027731702575
 20
114.39599151463383
 30
0.0
 10
66.410848191827029
 20
114.28147963825903
 30
0.0
  0
SPLINE
  5
1DD
102
{ACAD_REACTORS
330
31
102
}
100
AcDbEntity
  8
0
  6
CONTINUOUS
100
AcDbSpline
210
0.0
220
0.0
230
1.0
 70
     8
 71
     2
 72
     6
 73
     3
 74
     0
 42
0.0000001
 43
0.0000001
 40
0.0
 40
0.0
 40
0.0
 40
1.0
 40
1.0
 40
1.0
 10
66.410848191826972
 20
114.28147963825901
 30
0.0
 10
66.197913021308068
 20
114.10562745861479
 30
0.0
 10
66.197736401942961
 20
113.82527110708274
 30
0.0
  0
SPLINE
  5
1DE
102
{ACAD_REACTORS
330
31
102
}
100
AcDbEntity
  8
0
  6
CONTINUOUS
100
AcDbSpline
210
0.0
220
0.0
230
1.0
 70
     8
 71
     2
 72
     6
 73
     3
 74
     0
 42
0.0000001
 43
0.0000001
 40
0.0
 40
0.0
 40
0.0
 40
1.0
 40
1.0
 40
1.0
 10
66.197736401943075
 20
113.82527110708276
 30
0.0
 10
66.197576543318746
 20
113.57151987951316
 30
0.0
 10
66.367317566361066
 20
113.39849506859994
 30
0.0
  0
SPLINE
  5
1DF
102
{ACAD_REACTORS
330
31
102
}
100
AcDbEntity
  8
0
  6
CONTINUOUS
100
AcDbSpline
210
0.0
220
0.0
230
1.0
 70
     8
 71
     2
 72
     6
 73
     3
 74
     0
 42
0.0000001
 43
0.0000001
 40
0.0
 40
0.0
 40
0.0
 40
1.0
 40
1.0
 40
1.0
 10
66.36731756636101
 20
113.39849506859994
 30
0.0
 10
66.537058587901299
 20
113.22546787350139
 30
0.0
 10
66.821494598542415
 20
113.20687084513544
 30
0.0
  0
LINE
  5
1E0
102
{ACAD_REACTORS
330
31
102
}
100
AcDbEntity
  8
0
  6
CONTINUOUS
100
AcDbLine
 10
68.119771
 20
117.832931
 30
0.0
 11
67.845555
 21
117.833104
 31
0.0
  0
SPLINE
  5
1E1
102
{ACAD_REACTORS
330
31
102
}
100
AcDbEntity
  8
0
  6
CONTINUOUS
100
AcDbSpline
210
0.0
220
0.0
230
1.0
 70
     8
 71
     2
 72
     6
 73
     3
 74
     0
 42
0.0000001
 43
0.0000001
 40
0.0
 40
0.0
 40
0.0
 40
1.0
 40
1.0
 40
1.0
 10
67.84555482546341
 20
117.83310393199645
 30
0.0
 10
68.168753525386137
 20
117.62621521549941
 30
0.0
 10
68.168500845092012
 20
117.22512371946884
 30
0.0
  0
SPLINE
  5
1E2
102
{ACAD_REACTORS
330
31
102
}
100
AcDbEntity
  8
0
  6
CONTINUOUS
100
AcDbSpline
210
0.0
220
0.0
230
1.0
 70
     8
 71
     2
 72
     6
 73
     3
 74
     0
 42
0.0000001
 43
0.0000001
 40
0.0
 40
0.0
 40
0.0
 40
1.0
 40
1.0
 40
1.0
 10
68.168500845092069
 20
117.22512371946884
 30
0.0
 10
68.168337118835495
 20
116.96523321470565
 30
0.0
 10
68.024953196374838
 20
116.74738030917324
 30
0.0
  0
SPLINE
  5
1E3
102
{ACAD_REACTORS
330
31
102
}
100
AcDbEntity
  8
0
  6
CONTINUOUS
100
AcDbSpline
210
0.0
220
0.0
230
1.0
 70
     8
 71
     2
 72
     6
 73
     3
 74
     0
 42
0.0000001
 43
0.0000001
 40
0.0
 40
0.0
 40
0.0
 40
1.0
 40
1.0
 40
1.0
 10
68.024953196374895
 20
116.74738030917322
 30
0.0
 10
67.881569276918299
 20
116.52953217201144
 30
0.0
 10
67.624671800583201
 20
116.40997925202042
 30
0.0
  0
SPLINE
  5
1E4
102
{ACAD_REACTORS
330
31
102
}
100
AcDbEntity
  8
0
  6
CONTINUOUS
100
AcDbSpline
210
0.0
220
0.0
230
1.0
 70
     8
 71
     2
 72
     6
 73
     3
 74
     0
 42
0.0000001
 43
0.0000001
 40
0.0
 40
0.0
 40
0.0
 40
1.0
 40
1.0
 40
1.0
 10
67.624671800583087
 20
116.40997925202042
 30
0.0
 10
67.367775517842688
 20
116.29042871546373
 30
0.0
 10
67.03421487884907
 20
116.29063885255513
 30
0.0
  0
SPLINE
  5
1E5
102
{ACAD_REACTORS
330
31
102
}
100
AcDbEntity
  8
0
  6
CONTINUOUS
100
AcDbSpline
210
0.0
220
0.0
230
1.0
 70
     8
 71
     2
 72
     6
 73
     3
 74
     0
 42
0.0000001
 43
0.0000001
 40
0.0
 40
0.0
 40
0.0
 40
1.0
 40
1.0
 40
1.0
 10
67.03421487884907
 20
116.29063885255515
 30
0.0
 10
66.70884034014432
 20
116.29084383255335
 30
0.0
 10
66.44390170085569
 20
116.39946975638368
 30
0.0
  0
SPLINE
  5
1E6
102
{ACAD_REACTORS
330
31
102
}
100
AcDbEntity
  8
0
  6
CONTINUOUS
100
AcDbSpline
210
0.0
220
0.0
230
1.0
 70
     8
 71
     2
 72
     6
 73
     3
 74
     0
 42
0.0000001
 43
0.0000001
 40
0.0
 40
0.0
 40
0.0
 40
1.0
 40
1.0
 40
1.0
 10
66.443901700855747
 20
116.39946975638368
 30
0.0
 10
66.178963060065087
 20
116.50809329602869
 30
0.0
 10
66.037899319177484
 20
116.72510019828408
 30
0.0
  0
SPLINE
  5
1E7
102
{ACAD_REACTORS
330
31
102
}
100
AcDbEntity
  8
0
  6
CONTINUOUS
100
AcDbSpline
210
0.0
220
0.0
230
1.0
 70
     8
 71
     2
 72
     6
 73
     3
 74
     0
 42
0.0000001
 43
0.0000001
 40
0.0
 40
0.0
 40
0.0
 40
1.0
 40
1.0
 40
1.0
 10
66.037899319177484
 20
116.72510019828407
 30
0.0
 10
65.896835578289881
 20
116.94210710053945
 30
0.0
 10
65.897004460888581
 20
117.21018251349898
 30
0.0
  0
SPLINE
  5
1E8
102
{ACAD_REACTORS
330
31
102
}
100
AcDbEntity
  8
0
  6
CONTINUOUS
100
AcDbSpline
210
0.0
220
0.0
230
1.0
 70
     8
 71
     2
 72
     6
 73
     3
 74
     0
 42
0.0000001
 43
0.0000001
 40
0.0
 40
0.0
 40
0.0
 40
1.0
 40
1.0
 40
1.0
 10
65.897004460888581
 20
117.21018251349899
 30
0.0
 10
65.897128222113508
 20
117.40663461532345
 30
0.0
 10
65.980103365389994
 20
117.56006194907046
 30
0.0
  0
SPLINE
  5
1E9
102
{ACAD_REACTORS
330
31
102
}
100
AcDbEntity
  8
0
  6
CONTINUOUS
100
AcDbSpline
210
0.0
220
0.0
230
1.0
 70
     8
 71
     2
 72
     6
 73
     3
 74
     0
 42
0.0000001
 43
0.0000001
 40
0.0
 40
0.0
 40
0.0
 40
1.0
 40
1.0
 40
1.0
 10
65.980103365389994
 20
117.56006194907046
 30
0.0
 10
66.063078507164448
 20
117.71348689863215
 30
0.0
 10
66.196153991547305
 20
117.8095859057826
 30
0.0
  0
LINE
  5
1EA
102
{ACAD_REACTORS
330
31
102
}
100
AcDbEntity
  8
0
  6
CONTINUOUS
100
AcDbLine
 10
66.196154
 20
117.809586
 30
0.0
 11
65.119756
 21
117.810264
 31
0.0
  0
LINE
  5
1EB
102
{ACAD_REACTORS
330
31
102
}
100
AcDbEntity
  8
0
  6
CONTINUOUS
100
AcDbLine
 10
65.119756
 20
117.810264
 30
0.0
 11
65.119987
 21
118.176565
 31
0.0
  0
LINE
  5
1EC
102
{ACAD_REACTORS
330
31
102
}
100
AcDbEntity
  8
0
  6
CONTINUOUS
100
AcDbLine
 10
65.119987
 20
118.176565
 30
0.0
 11
68.119986
 21
118.174676
 31
0.0
  0
LINE
  5
1ED
102
{ACAD_REACTORS
330
31
102
}
100
AcDbEntity
  8
0
  6
CONTINUOUS
100
AcDbLine
 10
68.119986
 20
118.174676
 30
0.0
 11
68.119771
 21
117.832931
 31
0.0
  0
SPLINE
  5
1EE
102
{ACAD_REACTORS
330
31
102
}
100
AcDbEntity
  8
0
  6
CONTINUOUS
100
AcDbSpline
210
0.0
220
0.0
230
1.0
 70
     8
 71
     2
 72
     6
 73
     3
 74
     0
 42
0.0000001
 43
0.0000001
 40
0.0
 40
0.0
 40
0.0
 40
1.0
 40
1.0
 40
1.0
 10
67.03445337882664
 20
116.66922125499941
 30
0.0
 10
67.451915883342565
 20
116.66895826126991
 30
0.0
 10
67.658711776667872
 20
116.84481430854629
 30
0.0
  0
SPLINE
  5
1EF
102
{ACAD_REACTORS
330
31
102
}
100
AcDbEntity
  8
0
  6
CONTINUOUS
100
AcDbSpline
210
0.0
220
0.0
230
1.0
 70
     8
 71
     2
 72
     6
 73
     3
 74
     0
 42
0.0000001
 43
0.0000001
 40
0.0
 40
0.0
 40
0.0
 40
1.0
 40
1.0
 40
1.0
 10
67.658711776667928
 20
116.8448143085463
 30
0.0
 10
67.865507672997296
 20
117.02067512419333
 30
0.0
 10
67.865658507647368
 20
117.26010216637296
 30
0.0
  0
SPLINE
  5
1F0
102
{ACAD_REACTORS
330
31
102
}
100
AcDbEntity
  8
0
  6
CONTINUOUS
100
AcDbSpline
210
0.0
220
0.0
230
1.0
 70
     8
 71
     2
 72
     6
 73
     3
 74
     0
 42
0.0000001
 43
0.0000001
 40
0.0
 40
0.0
 40
0.0
 40
1.0
 40
1.0
 40
1.0
 10
67.865658507647368
 20
117.26010216637296
 30
0.0
 10
67.865810631007434
 20
117.50157483955536
 30
0.0
 10
67.668440879220157
 20
117.67052579243226
 30
0.0
  0
SPLINE
  5
1F1
102
{ACAD_REACTORS
330
31
102
}
100
AcDbEntity
  8
0
  6
CONTINUOUS
100
AcDbSpline
210
0.0
220
0.0
230
1.0
 70
     8
 71
     2
 72
     6
 73
     3
 74
     0
 42
0.0000001
 43
0.0000001
 40
0.0
 40
0.0
 40
0.0
 40
1.0
 40
1.0
 40
1.0
 10
67.668440879220043
 20
117.67052579243226
 30
0.0
 10
67.471071127432765
 20
117.83947674530916
 30
0.0
 10
67.065887177304035
 20
117.83973200377436
 30
0.0
  0
SPLINE
  5
1F2
102
{ACAD_REACTORS
330
31
102
}
100
AcDbEntity
  8
0
  6
CONTINUOUS
100
AcDbSpline
210
0.0
220
0.0
230
1.0
 70
     8
 71
     2
 72
     6
 73
     3
 74
     0
 42
0.0000001
 43
0.0000001
 40
0.0
 40
0.0
 40
0.0
 40
1.0
 40
1.0
 40
1.0
 10
67.065887177304091
 20
117.83973200377436
 30
0.0
 10
66.619775109915565
 20
117.84001304620359
 30
0.0
 10
66.410935566961314
 20
117.66824955001827
 30
0.0
  0
SPLINE
  5
1F3
102
{ACAD_REACTORS
330
31
102
}
100
AcDbEntity
  8
0
  6
CONTINUOUS
100
AcDbSpline
210
0.0
220
0.0
230
1.0
 70
     8
 71
     2
 72
     6
 73
     3
 74
     0
 42
0.0000001
 43
0.0000001
 40
0.0
 40
0.0
 40
0.0
 40
1.0
 40
1.0
 40
1.0
 10
66.410935566961257
 20
117.66824955001826
 30
0.0
 10
66.202096022504861
 20
117.49648366964763
 30
0.0
 10
66.201937452590528
 20
117.24477807308079
 30
0.0
  0
SPLINE
  5
1F4
102
{ACAD_REACTORS
330
31
102
}
100
AcDbEntity
  8
0
  6
CONTINUOUS
100
AcDbSpline
210
0.0
220
0.0
230
1.0
 70
     8
 71
     2
 72
     6
 73
     3
 74
     0
 42
0.0000001
 43
0.0000001
 40
0.0
 40
0.0
 40
0.0
 40
1.0
 40
1.0
 40
1.0
 10
66.201937452590528
 20
117.24477807308081
 30
0.0
 10
66.201782750308325
 20
116.9992117537076
 30
0.0
 10
66.402224719614537
 20
116.83435251320545
 30
0.0
  0
SPLINE
  5
1F5
102
{ACAD_REACTORS
330
31
102
}
100
AcDbEntity
  8
0
  6
CONTINUOUS
100
AcDbSpline
210
0.0
220
0.0
230
1.0
 70
     8
 71
     2
 72
     6
 73
     3
 74
     0
 42
0.0000001
 43
0.0000001
 40
0.0
 40
0.0
 40
0.0
 40
1.0
 40
1.0
 40
1.0
 10
66.402224719614651
 20
116.83435251320543
 30
0.0
 10
66.602666688920749
 20
116.66949327270329
 30
0.0
 10
67.034453378826697
 20
116.66922125499941
 30
0.0
  0
SPLINE
  5
1F6
102
{ACAD_REACTORS
330
31
102
}
100
AcDbEntity
  8
0
  6
CONTINUOUS
100
AcDbSpline
210
0.0
220
0.0
230
1.0
 70
     8
 71
     2
 72
     6
 73
     3
 74
     0
 42
0.0000001
 43
0.0000001
 40
0.0
 40
0.0
 40
0.0
 40
1.0
 40
1.0
 40
1.0
 10
67.03363385830022
 20
118.61737851468298
 30
0.0
 10
66.429950983251558
 20
118.61775882383417
 30
0.0
 10
66.139575519072935
 20
118.95354935034059
 30
0.0
  0
SPLINE
  5
1F7
102
{ACAD_REACTORS
330
31
102
}
100
AcDbEntity
  8
0
  6
CONTINUOUS
100
AcDbSpline
210
0.0
220
0.0
230
1.0
 70
     8
 71
     2
 72
     6
 73
     3
 74
     0
 42
0.0000001
 43
0.0000001
 40
0.0
 40
0.0
 40
0.0
 40
1.0
 40
1.0
 40
1.0
 10
66.139575519072991
 20
118.95354935034061
 30
0.0
 10
65.898278869209307
 20
119.23405782560823
 30
0.0
 10
65.898532838213441
 20
119.63719495264159
 30
0.0
  0
SPLINE
  5
1F8
102
{ACAD_REACTORS
330
31
102
}
100
AcDbEntity
  8
0
  6
CONTINUOUS
100
AcDbSpline
210
0.0
220
0.0
230
1.0
 70
     8
 71
     2
 72
     6
 73
     3
 74
     0
 42
0.0000001
 43
0.0000001
 40
0.0
 40
0.0
 40
0.0
 40
1.0
 40
1.0
 40
1.0
 10
65.898532838213441
 20
119.63719495264158
 30
0.0
 10
65.898815170854732
 20
120.08535503521817
 30
0.0
 10
66.192650896967848
 20
120.36961765052234
 30
0.0
  0
SPLINE
  5
1F9
102
{ACAD_REACTORS
330
31
102
}
100
AcDbEntity
  8
0
  6
CONTINUOUS
100
AcDbSpline
210
0.0
220
0.0
230
1.0
 70
     8
 71
     2
 72
     6
 73
     3
 74
     0
 42
0.0000001
 43
0.0000001
 40
0.0
 40
0.0
 40
0.0
 40
1.0
 40
1.0
 40
1.0
 10
66.192650896967734
 20
120.36961765052233
 30
0.0
 10
66.486486024030569
 20
120.65387549783139
 30
0.0
 10
67.004221402554208
 20
120.65354933402833
 30
0.0
  0
SPLINE
  5
1FA
102
{ACAD_REACTORS
330
31
102
}
100
AcDbEntity
  8
0
  6
CONTINUOUS
100
AcDbSpline
210
0.0
220
0.0
230
1.0
 70
     8
 71
     2
 72
     6
 73
     3
 74
     0
 42
0.0000001
 43
0.0000001
 40
0.0
 40
0.0
 40
0.0
 40
1.0
 40
1.0
 40
1.0
 10
67.004221402554265
 20
120.65354933402834
 30
0.0
 10
67.423730730165573
 20
120.65328505083779
 30
0.0
 10
67.664101303640507
 20
120.52728196564199
 30
0.0
  0
SPLINE
  5
1FB
102
{ACAD_REACTORS
330
31
102
}
100
AcDbEntity
  8
0
  6
CONTINUOUS
100
AcDbSpline
210
0.0
220
0.0
230
1.0
 70
     8
 71
     2
 72
     6
 73
     3
 74
     0
 42
0.0000001
 43
0.0000001
 40
0.0
 40
0.0
 40
0.0
 40
1.0
 40
1.0
 40
1.0
 10
67.664101303640564
 20
120.527281965642
 30
0.0
 10
67.904471877115384
 20
120.40127888044618
 30
0.0
 10
68.037335289088674
 20
120.16074522582083
 30
0.0
  0
SPLINE
  5
1FC
102
{ACAD_REACTORS
330
31
102
}
100
AcDbEntity
  8
0
  6
CONTINUOUS
100
AcDbSpline
210
0.0
220
0.0
230
1.0
 70
     8
 71
     2
 72
     6
 73
     3
 74
     0
 42
0.0000001
 43
0.0000001
 40
0.0
 40
0.0
 40
0.0
 40
1.0
 40
1.0
 40
1.0
 10
68.037335289088674
 20
120.16074522582082
 30
0.0
 10
68.170198701061963
 20
119.92021157119545
 30
0.0
 10
68.170019504276752
 20
119.63576395765787
 30
0.0
  0
SPLINE
  5
1FD
102
{ACAD_REACTORS
330
31
102
}
100
AcDbEntity
  8
0
  6
CONTINUOUS
100
AcDbSpline
210
0.0
220
0.0
230
1.0
 70
     8
 71
     2
 72
     6
 73
     3
 74
     0
 42
0.0000001
 43
0.0000001
 40
0.0
 40
0.0
 40
0.0
 40
1.0
 40
1.0
 40
1.0
 10
68.170019504276638
 20
119.63576395765787
 30
0.0
 10
68.169732016795251
 20
119.17942135107025
 30
0.0
 10
67.876922231341268
 20
118.89822653716418
 30
0.0
  0
SPLINE
  5
1FE
102
{ACAD_REACTORS
330
31
102
}
100
AcDbEntity
  8
0
  6
CONTINUOUS
100
AcDbSpline
210
0.0
220
0.0
230
1.0
 70
     8
 71
     2
 72
     6
 73
     3
 74
     0
 42
0.0000001
 43
0.0000001
 40
0.0
 40
0.0
 40
0.0
 40
1.0
 40
1.0
 40
1.0
 10
67.876922231341325
 20
118.89822653716418
 30
0.0
 10
67.584111253794561
 20
118.61703172400911
 30
0.0
 10
67.03363385830022
 20
118.61737851468298
 30
0.0
  0
SPLINE
  5
1FF
102
{ACAD_REACTORS
330
31
102
}
100
AcDbEntity
  8
0
  6
CONTINUOUS
100
AcDbSpline
210
0.0
220
0.0
230
1.0
 70
     8
 71
     2
 72
     6
 73
     3
 74
     0
 42
0.0000001
 43
0.0000001
 40
0.0
 40
0.0
 40
0.0
 40
1.0
 40
1.0
 40
1.0
 10
67.03387235827779
 20
118.99596091712725
 30
0.0
 10
67.451334862793829
 20
118.99569792339774
 30
0.0
 10
67.659157440754598
 20
119.17769498769802
 30
0.0
  0
SPLINE
  5
200
102
{ACAD_REACTORS
330
31
102
}
100
AcDbEntity
  8
0
  6
CONTINUOUS
100
AcDbSpline
210
0.0
220
0.0
230
1.0
 70
     8
 71
     2
 72
     6
 73
     3
 74
     0
 42
0.0000001
 43
0.0000001
 40
0.0
 40
0.0
 40
0.0
 40
1.0
 40
1.0
 40
1.0
 10
67.659157440754541
 20
119.17769498769802
 30
0.0
 10
67.866981210808092
 20
119.35969205124729
 30
0.0
 10
67.867155251251177
 20
119.6359547565885
 30
0.0
  0
SPLINE
  5
201
102
{ACAD_REACTORS
330
31
102
}
100
AcDbEntity
  8
0
  6
CONTINUOUS
100
AcDbSpline
210
0.0
220
0.0
230
1.0
 70
     8
 71
     2
 72
     6
 73
     3
 74
     0
 42
0.0000001
 43
0.0000001
 40
0.0
 40
0.0
 40
0.0
 40
1.0
 40
1.0
 40
1.0
 10
67.867155251251233
 20
119.6359547565885
 30
0.0
 10
67.867328001482065
 20
119.91016944674165
 30
0.0
 10
67.658710890428324
 20
120.0924288604164
 30
0.0
  0
SPLINE
  5
202
102
{ACAD_REACTORS
330
31
102
}
100
AcDbEntity
  8
0
  6
CONTINUOUS
100
AcDbSpline
210
0.0
220
0.0
230
1.0
 70
     8
 71
     2
 72
     6
 73
     3
 74
     0
 42
0.0000001
 43
0.0000001
 40
0.0
 40
0.0
 40
0.0
 40
1.0
 40
1.0
 40
1.0
 10
67.658710890428267
 20
120.0924288604164
 30
0.0
 10
67.450094971467195
 20
120.27468827334017
 30
0.0
 10
67.02240073565946
 20
120.27495771287293
 30
0.0
  0
SPLINE
  5
203
102
{ACAD_REACTORS
330
31
102
}
100
AcDbEntity
  8
0
  6
CONTINUOUS
100
AcDbSpline
210
0.0
220
0.0
230
1.0
 70
     8
 71
     2
 72
     6
 73
     3
 74
     0
 42
0.0000001
 43
0.0000001
 40
0.0
 40
0.0
 40
0.0
 40
1.0
 40
1.0
 40
1.0
 10
67.02240073565946
 20
120.27495771287293
 30
0.0
 10
66.619262416533445
 20
120.27521168262808
 30
0.0
 10
66.411439195719652
 20
120.09219418701174
 30
0.0
  0
SPLINE
  5
204
102
{ACAD_REACTORS
330
31
102
}
100
AcDbEntity
  8
0
  6
CONTINUOUS
100
AcDbSpline
210
0.0
220
0.0
230
1.0
 70
     8
 71
     2
 72
     6
 73
     3
 74
     0
 42
0.0000001
 43
0.0000001
 40
0.0
 40
0.0
 40
0.0
 40
1.0
 40
1.0
 40
1.0
 10
66.411439195719595
 20
120.09219418701174
 30
0.0
 10
66.203615971901627
 20
119.90917192302477
 30
0.0
 10
66.203444510380791
 20
119.63700286387439
 30
0.0
  0
SPLINE
  5
205
102
{ACAD_REACTORS
330
31
102
}
100
AcDbEntity
  8
0
  6
CONTINUOUS
100
AcDbSpline
210
0.0
220
0.0
230
1.0
 70
     8
 71
     2
 72
     6
 73
     3
 74
     0
 42
0.0000001
 43
0.0000001
 40
0.0
 40
0.0
 40
0.0
 40
1.0
 40
1.0
 40
1.0
 10
66.203444510380791
 20
119.63700286387439
 30
0.0
 10
66.203270469937834
 20
119.36074015853318
 30
0.0
 10
66.409840161849843
 20
119.17848203469498
 30
0.0
  0
SPLINE
  5
206
102
{ACAD_REACTORS
330
31
102
}
100
AcDbEntity
  8
0
  6
CONTINUOUS
100
AcDbSpline
210
0.0
220
0.0
230
1.0
 70
     8
 71
     2
 72
     6
 73
     3
 74
     0
 42
0.0000001
 43
0.0000001
 40
0.0
 40
0.0
 40
0.0
 40
1.0
 40
1.0
 40
1.0
 10
66.4098401618499
 20
119.17848203469498
 30
0.0
 10
66.616409853761809
 20
118.99622391085676
 30
0.0
 10
67.033872358277733
 20
118.99596091712725
 30
0.0
  0
LINE
  5
207
102
{ACAD_REACTORS
330
31
102
}
100
AcDbEntity
  8
0
  6
CONTINUOUS
100
AcDbLine
 10
68.122072
 20
121.485727
 30
0.0
 11
65.948393
 21
120.822023
 31
0.0
  0
LINE
  5
208
102
{ACAD_REACTORS
330
31
102
}
100
AcDbEntity
  8
0
  6
CONTINUOUS
100
AcDbLine
 10
65.948393
 20
120.822023
 30
0.0
 11
65.948633
 21
121.202649
 31
0.0
  0
LINE
  5
209
102
{ACAD_REACTORS
330
31
102
}
100
AcDbEntity
  8
0
  6
CONTINUOUS
100
AcDbLine
 10
65.948633
 20
121.202649
 30
0.0
 11
67.203284
 21
121.547699
 31
0.0
  0
LINE
  5
20A
102
{ACAD_REACTORS
330
31
102
}
100
AcDbEntity
  8
0
  6
CONTINUOUS
100
AcDbLine
 10
67.203284
 20
121.547699
 30
0.0
 11
67.66994
 21
121.676327
 31
0.0
  0
SPLINE
  5
20B
102
{ACAD_REACTORS
330
31
102
}
100
AcDbEntity
  8
0
  6
CONTINUOUS
100
AcDbSpline
210
0.0
220
0.0
230
1.0
 70
     8
 71
     2
 72
     6
 73
     3
 74
     0
 42
0.0000001
 43
0.0000001
 40
0.0
 40
0.0
 40
0.0
 40
1.0
 40
1.0
 40
1.0
 10
67.669940452791877
 20
121.67632732033725
 30
0.0
 10
67.63515795965867
 20
121.68453175992916
 30
0.0
 10
67.221853657485497
 20
121.7891575035934
 30
0.0
  0
LINE
  5
20C
102
{ACAD_REACTORS
330
31
102
}
100
AcDbEntity
  8
0
  6
CONTINUOUS
100
AcDbLine
 10
67.221854
 20
121.789158
 30
0.0
 11
65.949221
 21
122.1358
 31
0.0
  0
LINE
  5
20D
102
{ACAD_REACTORS
330
31
102
}
100
AcDbEntity
  8
0
  6
CONTINUOUS
100
AcDbLine
 10
65.949221
 20
122.1358
 30
0.0
 11
65.949459
 21
122.51438
 31
0.0
  0
LINE
  5
20E
102
{ACAD_REACTORS
330
31
102
}
100
AcDbEntity
  8
0
  6
CONTINUOUS
100
AcDbLine
 10
65.949459
 20
122.51438
 30
0.0
 11
67.210236
 21
122.838965
 31
0.0
  0
LINE
  5
20F
102
{ACAD_REACTORS
330
31
102
}
100
AcDbEntity
  8
0
  6
CONTINUOUS
100
AcDbLine
 10
67.210236
 20
122.838965
 30
0.0
 11
67.62572
 21
122.94716
 31
0.0
  0
LINE
  5
210
102
{ACAD_REACTORS
330
31
102
}
100
AcDbEntity
  8
0
  6
CONTINUOUS
100
AcDbLine
 10
67.62572
 20
122.94716
 30
0.0
 11
67.206291
 21
123.072255
 31
0.0
  0
LINE
  5
211
102
{ACAD_REACTORS
330
31
102
}
100
AcDbEntity
  8
0
  6
CONTINUOUS
100
AcDbLine
 10
67.206291
 20
123.072255
 30
0.0
 11
65.950046
 21
123.445485
 31
0.0
  0
LINE
  5
212
102
{ACAD_REACTORS
330
31
102
}
100
AcDbEntity
  8
0
  6
CONTINUOUS
100
AcDbLine
 10
65.950046
 20
123.445485
 30
0.0
 11
65.950271
 21
123.803604
 31
0.0
  0
LINE
  5
213
102
{ACAD_REACTORS
330
31
102
}
100
AcDbEntity
  8
0
  6
CONTINUOUS
100
AcDbLine
 10
65.950271
 20
123.803604
 30
0.0
 11
68.123103
 21
123.122838
 31
0.0
  0
LINE
  5
214
102
{ACAD_REACTORS
330
31
102
}
100
AcDbEntity
  8
0
  6
CONTINUOUS
100
AcDbLine
 10
68.123103
 20
123.122838
 30
0.0
 11
68.122862
 21
122.740162
 31
0.0
  0
LINE
  5
215
102
{ACAD_REACTORS
330
31
102
}
100
AcDbEntity
  8
0
  6
CONTINUOUS
100
AcDbLine
 10
68.122862
 20
122.740162
 30
0.0
 11
66.821144
 21
122.395141
 31
0.0
  0
LINE
  5
216
102
{ACAD_REACTORS
330
31
102
}
100
AcDbEntity
  8
0
  6
CONTINUOUS
100
AcDbLine
 10
66.821144
 20
122.395141
 30
0.0
 11
66.450696
 21
122.311475
 31
0.0
  0
LINE
  5
217
102
{ACAD_REACTORS
330
31
102
}
100
AcDbEntity
  8
0
  6
CONTINUOUS
100
AcDbLine
 10
66.450696
 20
122.311475
 30
0.0
 11
68.122314
 21
121.870449
 31
0.0
  0
LINE
  5
218
102
{ACAD_REACTORS
330
31
102
}
100
AcDbEntity
  8
0
  6
CONTINUOUS
100
AcDbLine
 10
68.122314
 20
121.870449
 30
0.0
 11
68.122072
 21
121.485727
 31
0.0
  0
LINE
  5
219
102
{ACAD_REACTORS
330
31
102
}
100
AcDbEntity
  8
0
  6
CONTINUOUS
100
AcDbLine
 10
68.123726
 20
124.11124
 30
0.0
 11
65.950466
 21
124.112609
 31
0.0
  0
LINE
  5
21A
102
{ACAD_REACTORS
330
31
102
}
100
AcDbEntity
  8
0
  6
CONTINUOUS
100
AcDbLine
 10
65.950466
 20
124.112609
 30
0.0
 11
65.950675
 21
124.44412
 31
0.0
  0
LINE
  5
21B
102
{ACAD_REACTORS
330
31
102
}
100
AcDbEntity
  8
0
  6
CONTINUOUS
100
AcDbLine
 10
65.950675
 20
124.44412
 30
0.0
 11
66.259678
 21
124.443926
 31
0.0
  0
SPLINE
  5
21C
102
{ACAD_REACTORS
330
31
102
}
100
AcDbEntity
  8
0
  6
CONTINUOUS
100
AcDbSpline
210
0.0
220
0.0
230
1.0
 70
     8
 71
     2
 72
     6
 73
     3
 74
     0
 42
0.0000001
 43
0.0000001
 40
0.0
 40
0.0
 40
0.0
 40
1.0
 40
1.0
 40
1.0
 10
66.259678284330164
 20
124.4439256363852
 30
0.0
 10
65.901712564806814
 20
124.68358066961916
 30
0.0
 10
65.90199747486821
 20
125.13583201420131
 30
0.0
  0
SPLINE
  5
21D
102
{ACAD_REACTORS
330
31
102
}
100
AcDbEntity
  8
0
  6
CONTINUOUS
100
AcDbSpline
210
0.0
220
0.0
230
1.0
 70
     8
 71
     2
 72
     6
 73
     3
 74
     0
 42
0.0000001
 43
0.0000001
 40
0.0
 40
0.0
 40
0.0
 40
1.0
 40
1.0
 40
1.0
 10
65.90199747486821
 20
125.13583201420131
 30
0.0
 10
65.902121236093137
 20
125.33228411602575
 30
0.0
 10
65.972824914389719
 20
125.49697253973757
 30
0.0
  0
SPLINE
  5
21E
102
{ACAD_REACTORS
330
31
102
}
100
AcDbEntity
  8
0
  6
CONTINUOUS
100
AcDbSpline
210
0.0
220
0.0
230
1.0
 70
     8
 71
     2
 72
     6
 73
     3
 74
     0
 42
0.0000001
 43
0.0000001
 40
0.0
 40
0.0
 40
0.0
 40
1.0
 40
1.0
 40
1.0
 10
65.972824914389719
 20
125.49697253973757
 30
0.0
 10
66.043528592686187
 20
125.66166096344938
 30
0.0
 10
66.158178413606436
 20
125.74344738735535
 30
0.0
  0
SPLINE
  5
21F
102
{ACAD_REACTORS
330
31
102
}
100
AcDbEntity
  8
0
  6
CONTINUOUS
100
AcDbSpline
210
0.0
220
0.0
230
1.0
 70
     8
 71
     2
 72
     6
 73
     3
 74
     0
 42
0.0000001
 43
0.0000001
 40
0.0
 40
0.0
 40
0.0
 40
1.0
 40
1.0
 40
1.0
 10
66.158178413606379
 20
125.74344738735535
 30
0.0
 10
66.272827039430126
 20
125.82522904364164
 30
0.0
 10
66.430419667555725
 20
125.85787417732475
 30
0.0
  0
SPLINE
  5
220
102
{ACAD_REACTORS
330
31
102
}
100
AcDbEntity
  8
0
  6
CONTINUOUS
100
AcDbSpline
210
0.0
220
0.0
230
1.0
 70
     8
 71
     2
 72
     6
 73
     3
 74
     0
 42
0.0000001
 43
0.0000001
 40
0.0
 40
0.0
 40
0.0
 40
1.0
 40
1.0
 40
1.0
 10
66.430419667555782
 20
125.85787417732475
 30
0.0
 10
66.532751062670684
 20
125.87827079693939
 30
0.0
 10
66.788549113335705
 20
125.87810964885395
 30
0.0
  0
LINE
  5
221
102
{ACAD_REACTORS
330
31
102
}
100
AcDbEntity
  8
0
  6
CONTINUOUS
100
AcDbLine
 10
66.788549
 20
125.87811
 30
0.0
 11
68.124838
 21
125.877268
 31
0.0
  0
LINE
  5
222
102
{ACAD_REACTORS
330
31
102
}
100
AcDbEntity
  8
0
  6
CONTINUOUS
100
AcDbLine
 10
68.124838
 20
125.877268
 30
0.0
 11
68.124606
 21
125.508921
 31
0.0
  0
LINE
  5
223
102
{ACAD_REACTORS
330
31
102
}
100
AcDbEntity
  8
0
  6
CONTINUOUS
100
AcDbLine
 10
68.124606
 20
125.508921
 30
0.0
 11
66.802642
 21
125.509754
 31
0.0
  0
SPLINE
  5
224
102
{ACAD_REACTORS
330
31
102
}
100
AcDbEntity
  8
0
  6
CONTINUOUS
100
AcDbSpline
210
0.0
220
0.0
230
1.0
 70
     8
 71
     2
 72
     6
 73
     3
 74
     0
 42
0.0000001
 43
0.0000001
 40
0.0
 40
0.0
 40
0.0
 40
1.0
 40
1.0
 40
1.0
 10
66.802642438897124
 20
125.50975352925406
 30
0.0
 10
66.57753958210742
 20
125.50989533992973
 30
0.0
 10
66.465985086379533
 20
125.46698827562103
 30
0.0
  0
SPLINE
  5
225
102
{ACAD_REACTORS
330
31
102
}
100
AcDbEntity
  8
0
  6
CONTINUOUS
100
AcDbSpline
210
0.0
220
0.0
230
1.0
 70
     8
 71
     2
 72
     6
 73
     3
 74
     0
 42
0.0000001
 43
0.0000001
 40
0.0
 40
0.0
 40
0.0
 40
1.0
 40
1.0
 40
1.0
 10
66.465985086379533
 20
125.46698827562105
 30
0.0
 10
66.354429997609373
 20
125.42408598005851
 30
0.0
 10
66.28785358059838
 20
125.31464608873263
 30
0.0
  0
SPLINE
  5
226
102
{ACAD_REACTORS
330
31
102
}
100
AcDbEntity
  8
0
  6
CONTINUOUS
100
AcDbSpline
210
0.0
220
0.0
230
1.0
 70
     8
 71
     2
 72
     6
 73
     3
 74
     0
 42
0.0000001
 43
0.0000001
 40
0.0
 40
0.0
 40
0.0
 40
1.0
 40
1.0
 40
1.0
 10
66.28785358059838
 20
125.31464608873263
 30
0.0
 10
66.221276567541054
 20
125.20520619778226
 30
0.0
 10
66.221183747373288
 20
125.05786831350657
 30
0.0
  0
SPLINE
  5
227
102
{ACAD_REACTORS
330
31
102
}
100
AcDbEntity
  8
0
  6
CONTINUOUS
100
AcDbSpline
210
0.0
220
0.0
230
1.0
 70
     8
 71
     2
 72
     6
 73
     3
 74
     0
 42
0.0000001
 43
0.0000001
 40
0.0
 40
0.0
 40
0.0
 40
1.0
 40
1.0
 40
1.0
 10
66.221183747373232
 20
125.05786831350657
 30
0.0
 10
66.221035491645409
 20
124.82253491751779
 30
0.0
 10
66.370314339312188
 20
124.65156624502852
 30
0.0
  0
SPLINE
  5
228
102
{ACAD_REACTORS
330
31
102
}
100
AcDbEntity
  8
0
  6
CONTINUOUS
100
AcDbSpline
210
0.0
220
0.0
230
1.0
 70
     8
 71
     2
 72
     6
 73
     3
 74
     0
 42
0.0000001
 43
0.0000001
 40
0.0
 40
0.0
 40
0.0
 40
1.0
 40
1.0
 40
1.0
 10
66.370314339312131
 20
124.65156624502852
 30
0.0
 10
66.519593186978909
 20
124.48059757253924
 30
0.0
 10
66.937054499402166
 20
124.48033457956073
 30
0.0
  0
LINE
  5
229
102
{ACAD_REACTORS
330
31
102
}
100
AcDbEntity
  8
0
  6
CONTINUOUS
100
AcDbLine
 10
66.937054
 20
124.480335
 30
0.0
 11
68.123958
 21
124.479587
 31
0.0
  0
LINE
  5
22A
102
{ACAD_REACTORS
330
31
102
}
100
AcDbEntity
  8
0
  6
CONTINUOUS
100
AcDbLine
 10
68.123958
 20
124.479587
 30
0.0
 11
68.123726
 21
124.11124
 31
0.0
  0
ENDSEC
  0
SECTION
  2
OBJECTS
  0
DICTIONARY
  5
C
100
AcDbDictionary
  3
ACAD_GROUP
350
D
  3
ACAD_MLINESTYLE
350
1B
  0
DICTIONARY
  5
D
102
{ACAD_REACTORS
330
C
102
}
100
AcDbDictionary
  3
VISIOGROUP_0
350
31
  0
DICTIONARY
  5
1B
102
{ACAD_REACTORS
330
C
102
}
100
AcDbDictionary
  3
STANDARD
350
1C
  0
MLINESTYLE
  5
1C
102
{ACAD_REACTORS
330
1B
102
}
100
AcDbMlineStyle
  2
STANDARD
 70
     0
  3

 62
   256
 51
90.0
 52
90.0
 71
     2
 49
0.5
 62
   256
  6
BYLAYER
 49
-0.5
 62
   256
  6
BYLAYER
  0
DICTIONARY
  5
29
102
{ACAD_REACTORS
330
C
102
}
100
AcDbDictionary
  3
MODEL
350
2A
  3
LAYOUT1
350
2B
  0
DICTIONARY
  5
2C
102
{ACAD_REACTORS
330
C
102
}
100
AcDbDictionary
  0
GROUP
  5
31
102
{ACAD_REACTORS
330
D
102
}
100
AcDbGroup
300
Group created by Visio.
 70
     0
 71
     1
340
32
340
33
340
34
340
35
340
36
340
37
340
38
340
39
340
3A
340
3B
340
3C
340
3D
340
3E
340
3F
340
40
340
41
340
42
340
43
340
44
340
45
340
46
340
47
340
48
340
49
340
4A
340
4B
340
4C
340
4D
340
4E
340
4F
340
50
340
51
340
52
340
53
340
54
340
55
340
56
340
57
340
58
340
59
340
5A
340
5B
340
5C
340
5D
340
5E
340
5F
340
60
340
61
340
62
340
63
340
64
340
65
340
66
340
67
340
68
340
69
340
6A
340
6B
340
6C
340
6D
340
6E
340
6F
340
70
340
71
340
72
340
73
340
74
340
75
340
76
340
77
340
78
340
79
340
7A
340
7B
340
7C
340
7D
340
7E
340
7F
340
80
340
81
340
82
340
83
340
84
340
85
340
86
340
87
340
88
340
89
340
8A
340
8B
340
8C
340
8D
340
8E
340
8F
340
90
340
91
340
92
340
93
340
94
340
95
340
96
340
97
340
98
340
99
340
9A
340
9B
340
9C
340
9D
340
9E
340
9F
340
A0
340
A1
340
A2
340
A3
340
A4
340
A5
340
A6
340
A7
340
A8
340
A9
340
AA
340
AB
340
AC
340
AD
340
AE
340
AF
340
B0
340
B1
340
B2
340
B3
340
B4
340
B5
340
B6
340
B7
340
B8
340
B9
340
BA
340
BB
340
BC
340
BD
340
BE
340
BF
340
C0
340
C1
340
C2
340
C3
340
C4
340
C5
340
C6
340
C7
340
C8
340
C9
340
CA
340
CB
340
CC
340
CD
340
CE
340
CF
340
D0
340
D1
340
D2
340
D3
340
D4
340
D5
340
D6
340
D7
340
D8
340
D9
340
DA
340
DB
340
DC
340
DD
340
DE
340
DF
340
E0
340
E1
340
E2
340
E3
340
E4
340
E5
340
E6
340
E7
340
E8
340
E9
340
EA
340
EB
340
EC
340
ED
340
EE
340
EF
340
F0
340
F1
340
F2
340
F3
340
F4
340
F5
340
F6
340
F7
340
F8
340
F9
340
FA
340
FB
340
FC
340
FD
340
FE
340
FF
340
100
340
101
340
102
340
103
340
104
340
105
340
106
340
107
340
108
340
109
340
10A
340
10B
340
10C
340
10D
340
10E
340
10F
340
110
340
111
340
112
340
113
340
114
340
115
340
116
340
117
340
118
340
119
340
11A
340
11B
340
11C
340
11D
340
11E
340
11F
340
120
340
121
340
122
340
123
340
124
340
125
340
126
340
127
340
128
340
129
340
12A
340
12B
340
12C
340
12D
340
12E
340
12F
340
130
340
131
340
132
340
133
340
134
340
135
340
136
340
137
340
138
340
139
340
13A
340
13B
340
13C
340
13D
340
13E
340
13F
340
140
340
141
340
142
340
143
340
144
340
145
340
146
340
147
340
148
340
149
340
14A
340
14B
340
14C
340
14D
340
14E
340
14F
340
150
340
151
340
152
340
153
340
154
340
155
340
156
340
157
340
158
340
159
340
15A
340
15B
340
15C
340
15D
340
15E
340
15F
340
160
340
161
340
162
340
163
340
164
340
165
340
166
340
167
340
168
340
169
340
16A
340
16B
340
16C
340
16D
340
16E
340
16F
340
170
340
171
340
172
340
173
340
174
340
175
340
176
340
177
340
178
340
179
340
17A
340
17B
340
17C
340
17D
340
17E
340
17F
340
180
340
181
340
182
340
183
340
184
340
185
340
186
340
187
340
188
340
189
340
18A
340
18B
340
18C
340
18D
340
18E
340
18F
340
190
340
191
340
192
340
193
340
194
340
195
340
196
340
197
340
198
340
199
340
19A
340
19B
340
19C
340
19D
340
19E
340
19F
340
1A0
340
1A1
340
1A2
340
1A3
340
1A4
340
1A5
340
1A6
340
1A7
340
1A8
340
1A9
340
1AA
340
1AB
340
1AC
340
1AD
340
1AE
340
1AF
340
1B0
340
1B1
340
1B2
340
1B3
340
1B4
340
1B5
340
1B6
340
1B7
340
1B8
340
1B9
340
1BA
340
1BB
340
1BC
340
1BD
340
1BE
340
1BF
340
1C0
340
1C1
340
1C2
340
1C3
340
1C4
340
1C5
340
1C6
340
1C7
340
1C8
340
1C9
340
1CA
340
1CB
340
1CC
340
1CD
340
1CE
340
1CF
340
1D0
340
1D1
340
1D2
340
1D3
340
1D4
340
1D5
340
1D6
340
1D7
340
1D8
340
1D9
340
1DA
340
1DB
340
1DC
340
1DD
340
1DE
340
1DF
340
1E0
340
1E1
340
1E2
340
1E3
340
1E4
340
1E5
340
1E6
340
1E7
340
1E8
340
1E9
340
1EA
340
1EB
340
1EC
340
1ED
340
1EE
340
1EF
340
1F0
340
1F1
340
1F2
340
1F3
340
1F4
340
1F5
340
1F6
340
1F7
340
1F8
340
1F9
340
1FA
340
1FB
340
1FC
340
1FD
340
1FE
340
1FF
340
200
340
201
340
202
340
203
340
204
340
205
340
206
340
207
340
208
340
209
340
20A
340
20B
340
20C
340
20D
340
20E
340
20F
340
210
340
211
340
212
340
213
340
214
340
215
340
216
340
217
340
218
340
219
340
21A
340
21B
340
21C
340
21D
340
21E
340
21F
340
220
340
221
340
222
340
223
340
224
340
225
340
226
340
227
340
228
340
229
340
22A
  0
ENDSEC
  0
EOF
