  0
SECTION
  2
HEADER
  9
$ACADVER
  1
AC1014
  9
$ACADMAINTVER
 70
     0
  9
$DWGCODEPAGE
  3
ANSI_1252
  9
$INSBASE
 10
0.0
 20
0.0
 30
0.0
  9
$EXTMIN
 10
0.0
 20
0.0
 30
0.0
  9
$EXTMAX
 10
170.0
 20
220.0
 30
0.0
  9
$LIMMIN
 10
0.0
 20
0.0
  9
$LIMMAX
 10
12.0
 20
9.0
  9
$ORTHOMODE
 70
     0
  9
$REGENMODE
 70
     1
  9
$FILLMODE
 70
     0
  9
$QTEXTMODE
 70
     0
  9
$MIRRTEXT
 70
     1
  9
$DRAGMODE
 70
     2
  9
$LTSCALE
 40
1.0
  9
$OSMODE
 70
    37
  9
$ATTMODE
 70
     1
  9
$TEXTSIZE
 40
0.2
  9
$TRACEWID
 40
0.05
  9
$TEXTSTYLE
  7
STANDARD
  9
$CLAYER
  8
0
  9
$CELTYPE
  6
BYLAYER
  9
$CECOLOR
 62
   256
  9
$CELTSCALE
 40
1.0
  9
$DELOBJ
 70
     1
  9
$DISPSILH
 70
     0
  9
$DIMSCALE
 40
1.0
  9
$DIMASZ
 40
0.18
  9
$DIMEXO
 40
0.0625
  9
$DIMDLI
 40
0.38
  9
$DIMRND
 40
0.0
  9
$DIMDLE
 40
0.0
  9
$DIMEXE
 40
0.18
  9
$DIMTP
 40
0.0
  9
$DIMTM
 40
0.0
  9
$DIMTXT
 40
0.18
  9
$DIMCEN
 40
0.09
  9
$DIMTSZ
 40
0.0
  9
$DIMTOL
 70
     0
  9
$DIMLIM
 70
     0
  9
$DIMTIH
 70
     0
  9
$DIMTOH
 70
     0
  9
$DIMSE1
 70
     0
  9
$DIMSE2
 70
     0
  9
$DIMTAD
 70
     1
  9
$DIMZIN
 70
     0
  9
$DIMBLK
  1

  9
$DIMASO
 70
     1
  9
$DIMSHO
 70
     1
  9
$DIMPOST
  1

  9
$DIMAPOST
  1

  9
$DIMALT
 70
     0
  9
$DIMALTD
 70
     2
  9
$DIMALTF
 40
25.4
  9
$DIMLFAC
 40
1.0
  9
$DIMTOFL
 70
     0
  9
$DIMTVP
 40
0.0
  9
$DIMTIX
 70
     0
  9
$DIMSOXD
 70
     0
  9
$DIMSAH
 70
     0
  9
$DIMBLK1
  1

  9
$DIMBLK2
  1

  9
$DIMSTYLE
  2
STANDARD
  9
$DIMCLRD
 70
     0
  9
$DIMCLRE
 70
     0
  9
$DIMCLRT
 70
     0
  9
$DIMTFAC
 40
1.0
  9
$DIMGAP
 40
0.09
  9
$DIMJUST
 70
     0
  9
$DIMSD1
 70
     0
  9
$DIMSD2
 70
     0
  9
$DIMTOLJ
 70
     1
  9
$DIMTZIN
 70
     0
  9
$DIMALTZ
 70
     0
  9
$DIMALTTZ
 70
     0
  9
$DIMFIT
 70
     5
  9
$DIMUPT
 70
     0
  9
$DIMUNIT
 70
     2
  9
$DIMDEC
 70
     2
  9
$DIMTDEC
 70
     4
  9
$DIMALTU
 70
     2
  9
$DIMALTTD
 70
     2
  9
$DIMTXSTY
  7
STANDARD
  9
$DIMAUNIT
 70
     0
  9
$LUNITS
 70
     2
  9
$LUPREC
 70
     4
  9
$SKETCHINC
 40
0.1
  9
$FILLETRAD
 40
0.5
  9
$AUNITS
 70
     0
  9
$AUPREC
 70
     0
  9
$MENU
  1
.
  9
$ELEVATION
 40
0.0
  9
$PELEVATION
 40
0.0
  9
$THICKNESS
 40
0.0
  9
$LIMCHECK
 70
     0
  9
$BLIPMODE
 70
     0
  9
$CHAMFERA
 40
0.5
  9
$CHAMFERB
 40
0.5
  9
$CHAMFERC
 40
1.0
  9
$CHAMFERD
 40
0.0
  9
$SKPOLY
 70
     0
  9
$TDCREATE
 40
2450772.666465926
  9
$TDUPDATE
 40
2459354.401701377
  9
$TDINDWG
 40
0.0011565046
  9
$TDUSRTIMER
 40
0.0011565046
  9
$USRTIMER
 70
     1
  9
$ANGBASE
 50
0.0
  9
$ANGDIR
 70
     0
  9
$PDMODE
 70
     0
  9
$PDSIZE
 40
0.0
  9
$PLINEWID
 40
0.0
  9
$COORDS
 70
     1
  9
$SPLFRAME
 70
     0
  9
$SPLINETYPE
 70
     6
  9
$SPLINESEGS
 70
     8
  9
$ATTDIA
 70
     0
  9
$ATTREQ
 70
     1
  9
$HANDLING
 70
     1
  9
$HANDSEED
  5
20A
  9
$SURFTAB1
 70
     6
  9
$SURFTAB2
 70
     6
  9
$SURFTYPE
 70
     6
  9
$SURFU
 70
     6
  9
$SURFV
 70
     6
  9
$UCSNAME
  2

  9
$UCSORG
 10
0.0
 20
0.0
 30
0.0
  9
$UCSXDIR
 10
1.0
 20
0.0
 30
0.0
  9
$UCSYDIR
 10
0.0
 20
1.0
 30
0.0
  9
$PUCSNAME
  2

  9
$PUCSORG
 10
0.0
 20
0.0
 30
0.0
  9
$PUCSXDIR
 10
1.0
 20
0.0
 30
0.0
  9
$PUCSYDIR
 10
0.0
 20
1.0
 30
0.0
  9
$USERI1
 70
     0
  9
$USERI2
 70
     0
  9
$USERI3
 70
     0
  9
$USERI4
 70
     0
  9
$USERI5
 70
     0
  9
$USERR1
 40
0.0
  9
$USERR2
 40
0.0
  9
$USERR3
 40
0.0
  9
$USERR4
 40
0.0
  9
$USERR5
 40
0.0
  9
$WORLDVIEW
 70
     1
  9
$SHADEDGE
 70
     3
  9
$SHADEDIF
 70
    70
  9
$TILEMODE
 70
     1
  9
$MAXACTVP
 70
    48
  9
$PINSBASE
 10
0.0
 20
0.0
 30
0.0
  9
$PLIMCHECK
 70
     0
  9
$PEXTMIN
 10
0.0
 20
0.0
 30
0.0
  9
$PEXTMAX
 10
0.0
 20
0.0
 30
0.0
  9
$PLIMMIN
 10
0.0
 20
0.0
  9
$PLIMMAX
 10
12.0
 20
9.0
  9
$UNITMODE
 70
     0
  9
$VISRETAIN
 70
     1
  9
$PLINEGEN
 70
     0
  9
$PSLTSCALE
 70
     1
  9
$TREEDEPTH
 70
  3020
  9
$PICKSTYLE
 70
     1
  9
$CMLSTYLE
  2
STANDARD
  9
$CMLJUST
 70
     0
  9
$CMLSCALE
 40
1.0
  9
$PROXYGRAPHICS
 70
     1
  9
$MEASUREMENT
 70
     0
  0
ENDSEC
  0
SECTION
  2
CLASSES
  0
CLASS
  1
LWPOLYLINE
  2
AcDbPolyline
  3
AutoCAD 2000
 90
       20
280
     0
281
     1
  0
CLASS
  1
IMAGE
  2
AcDbRasterImage
  3
ISM
 90
       21
280
     0
281
     1
  0
CLASS
  1
OLE2FRAME
  2
AcDbOle2Frame
  3
AutoCAD 2000
 90
       21
280
     0
281
     1
  0
CLASS
  1
HATCH
  2
AcDbHatch
  3
AutoCAD 2000
 90
       20
280
     0
281
     1
  0
CLASS
  1
DICTIONARYVAR
  2
AcDbDictionaryVar
  3
ObjectDBX Classes
 90
       20
280
     0
281
     0
  0
CLASS
  1
RASTERVARIABLES
  2
AcDbRasterVariables
  3
ISM
 90
       21
280
     0
281
     0
  0
CLASS
  1
IMAGEDEF
  2
AcDbRasterImageDef
  3
ISM
 90
       21
280
     0
281
     0
  0
CLASS
  1
IMAGEDEF_REACTOR
  2
AcDbRasterImageDefReactor
  3
ISM
 90
       21
280
     0
281
     0
  0
CLASS
  1
IDBUFFER
  2
AcDbIdBuffer
  3
ObjectDBX Classes
 90
       20
280
     0
281
     0
  0
CLASS
  1
SPATIAL_FILTER
  2
AcDbSpatialFilter
  3
ObjectDBX Classes
 90
       20
280
     0
281
     0
  0
CLASS
  1
XRECORD
  2
AcDbXrecord
  3
AutoCAD 2000
 90
       21
280
     0
281
     0
  0
CLASS
  1
SORTENTSTABLE
  2
AcDbSortentsTable
  3
"AutoCAD"
 90
        0
280
     0
281
     0
  0
CLASS
  1
LAYER_INDEX
  2
AcDbLayerIndex
  3
"Acad"
 90
        0
280
     0
281
     0
  0
CLASS
  1
SPATIAL_INDEX
  2
AcDbSpatialIndex
  3
"Acad"
 90
        0
280
     0
281
     0
  0
CLASS
  1
OBJECT_PTR
  2
CAseDLPNTableRecord
  3
"ASE-LPNTableRecord"
 90
        1
280
     0
281
     0
  0
CLASS
  1
LAYOUT
  2
AcDbLayout
  3
"AutoCAD 2000"
 90
        1
280
     0
281
     0
  0
CLASS
  1
PLOTSETTINGS
  2
AcDbPlotsettings
  3
"AutoCAD 2000"
 90
        1
280
     0
281
     0
  0
CLASS
  1
ACDBDICTIONARYWDFLT
  2
AcDbDictionaryWithDefault
  3
"AutoCAD 2000"
 90
        1
280
     0
281
     0
  0
CLASS
  1
ACDBPLACEHOLDER
  2
AcDbPlaceholder
  3
"AutoCAD 2000"
 90
        1
280
     0
281
     0
  0
CLASS
  1
VBA_PROJECT
  2
AcDbVbaProject
  3
"AutoCAD 2000"
 90
        1
280
     0
281
     0
  0
CLASS
  1
WIPEOUT
  2
AcDbWipeout
  3
"AutoCAD 2000"
 90
        1
280
     0
281
     1
  0
CLASS
  1
WIPEOUTVARIABLES
  2
AcDbWipeoutVariables
  3
"AutoCAD 2000"
 90
        1
280
     0
281
     0
  0
CLASS
  1
RTEXT
  2
RText
  3
RText|AutoCAD Express Tool|expresstools@autodesk.com
 90
        1
280
     0
281
     1
  0
CLASS
  1
ARCALIGNEDTEXT
  2
AcDbArcAlignedText
  3
RText|AutoCAD Express Tool|expresstools@autodesk.com
 90
        1
280
     0
281
     1
  0
ENDSEC
  0
SECTION
  2
TABLES
  0
TABLE
  2
VPORT
  5
8
100
AcDbSymbolTable
 70
     1
  0
VPORT
  5
25
100
AcDbSymbolTableRecord
100
AcDbViewportTableRecord
  2
*ACTIVE
 70
     0
 10
0.0
 20
0.0
 11
1.0
 21
1.0
 12
85.0
 22
110.0
 13
0.0
 23
0.0
 14
0.5
 24
0.5
 15
0.5
 25
0.5
 16
0.0
 26
0.0
 36
1.0
 17
0.0
 27
0.0
 37
0.0
 40
220.0
 41
0.772727
 42
50.0
 43
0.0
 44
0.0
 50
0.0
 51
0.0
 71
     0
 72
   100
 73
     1
 74
     1
 75
     0
 76
     0
 77
     0
 78
     0
  0
ENDTAB
  0
TABLE
  2
LTYPE
  5
5
100
AcDbSymbolTable
 70
     3
  0
LTYPE
  5
12
100
AcDbSymbolTableRecord
100
AcDbLinetypeTableRecord
  2
BYBLOCK
 70
     0
  3

 72
    65
 73
     0
 40
0.0
  0
LTYPE
  5
13
100
AcDbSymbolTableRecord
100
AcDbLinetypeTableRecord
  2
BYLAYER
 70
     0
  3

 72
    65
 73
     0
 40
0.0
  0
LTYPE
  5
14
100
AcDbSymbolTableRecord
100
AcDbLinetypeTableRecord
  2
CONTINUOUS
 70
     0
  3
Solid line
 72
    65
 73
     0
 40
0.0
  0
ENDTAB
  0
TABLE
  2
LAYER
  5
2
100
AcDbSymbolTable
 70
     1
  0
LAYER
  5
E
100
AcDbSymbolTableRecord
100
AcDbLayerTableRecord
  2
0
 70
     0
 62
     7
  6
CONTINUOUS
  0
ENDTAB
  0
TABLE
  2
STYLE
  5
3
100
AcDbSymbolTable
 70
     1
  0
STYLE
  5
F
100
AcDbSymbolTableRecord
100
AcDbTextStyleTableRecord
  2
STANDARD
 70
     0
 40
0.0
 41
1.0
 50
0.0
 71
     0
 42
0.2
  3
txt.shx
  4

  0
ENDTAB
  0
TABLE
  2
VIEW
  5
6
100
AcDbSymbolTable
 70
     0
  0
ENDTAB
  0
TABLE
  2
UCS
  5
7
100
AcDbSymbolTable
 70
     0
  0
ENDTAB
  0
TABLE
  2
APPID
  5
9
100
AcDbSymbolTable
 70
     1
  0
APPID
  5
10
100
AcDbSymbolTableRecord
100
AcDbRegAppTableRecord
  2
ACAD
 70
     0
  0
ENDTAB
  0
TABLE
  2
DIMSTYLE
  5
A
100
AcDbSymbolTable
 70
     1
  0
DIMSTYLE
105
1D
100
AcDbSymbolTableRecord
100
AcDbDimStyleTableRecord
  2
STANDARD
 70
     0
  3

  4

  5

  6

  7

 40
1.0
 41
0.18
 42
0.0625
 43
0.38
 44
0.18
 45
0.0
 46
0.0
 47
0.0
 48
0.0
 71
     0
 72
     0
 73
     1
 74
     1
 75
     0
 76
     0
 77
     0
 78
     0
140
0.18
141
0.09
142
0.0
143
25.4
144
1.0
145
0.0
146
1.0
147
0.09
170
     0
171
     2
172
     0
173
     0
174
     0
175
     0
176
     0
177
     0
178
     0
270
     2
271
     4
272
     4
273
     2
274
     2
275
     0
280
     0
281
     0
282
     0
283
     1
284
     0
285
     0
286
     0
287
     3
288
     0
340
F
  0
ENDTAB
  0
TABLE
  2
BLOCK_RECORD
  5
1
100
AcDbSymbolTable
 70
     0
  0
BLOCK_RECORD
  5
18
100
AcDbSymbolTableRecord
100
AcDbBlockTableRecord
  2
*MODEL_SPACE
  0
BLOCK_RECORD
  5
15
100
AcDbSymbolTableRecord
100
AcDbBlockTableRecord
  2
*PAPER_SPACE
  0
ENDTAB
  0
ENDSEC
  0
SECTION
  2
BLOCKS
  0
BLOCK
  5
19
100
AcDbEntity
  8
0
100
AcDbBlockBegin
  2
*MODEL_SPACE
 70
     0
 10
0.0
 20
0.0
 30
0.0
  3
*MODEL_SPACE
  1

  0
ENDBLK
  5
1A
100
AcDbEntity
  8
0
100
AcDbBlockEnd
  0
BLOCK
  5
16
100
AcDbEntity
 67
     1
  8
0
100
AcDbBlockBegin
  2
*PAPER_SPACE
 70
     0
 10
0.0
 20
0.0
 30
0.0
  3
*PAPER_SPACE
  1

  0
ENDBLK
  5
17
100
AcDbEntity
 67
     1
  8
0
100
AcDbBlockEnd
  0
ENDSEC
  0
SECTION
  2
ENTITIES
  0
LWPOLYLINE
  5
32
102
{ACAD_REACTORS
330
31
102
}
100
AcDbEntity
  8
0
  6
CONTINUOUS
100
AcDbPolyline
 90
        5
 70
     0
 10
79.918601
 20
76.628497
 10
79.918601
 20
56.628497
 10
83.118601
 20
56.628497
 10
83.118601
 20
76.628497
 10
79.918601
 20
76.628497
  0
LWPOLYLINE
  5
33
102
{ACAD_REACTORS
330
31
102
}
100
AcDbEntity
  8
0
  6
CONTINUOUS
100
AcDbPolyline
 90
        5
 70
     0
 10
83.118601
 20
163.428497
 10
79.918601
 20
163.428497
 10
79.918601
 20
143.428497
 10
83.118601
 20
143.428497
 10
83.118601
 20
163.428497
  0
LWPOLYLINE
  5
34
102
{ACAD_REACTORS
330
31
102
}
100
AcDbEntity
  8
0
  6
CONTINUOUS
100
AcDbPolyline
 90
       29
 70
     0
 10
111.378601
 20
38.428497
 10
92.738601
 20
38.428497
 10
92.738601
 20
41.628497
 10
74.098601
 20
41.628497
 10
74.098601
 20
38.428497
 10
55.458601
 20
38.428497
 10
55.458601
 20
41.628497
 10
36.818601
 20
41.628497
 10
36.818601
 20
178.428497
 10
55.458601
 20
178.428497
 10
55.458601
 20
181.628497
 10
74.098601
 20
181.628497
 10
74.098601
 20
178.428497
 10
92.738601
 20
178.428497
 10
92.738601
 20
181.628497
 10
111.378601
 20
181.628497
 10
111.378601
 20
178.428497
 10
133.218601
 20
178.428497
 10
133.218601
 20
163.428497
 10
130.018601
 20
163.428497
 10
130.018601
 20
118.278497
 10
133.218601
 20
118.278497
 10
133.218601
 20
101.778497
 10
130.018601
 20
101.778497
 10
130.018601
 20
56.628497
 10
133.218601
 20
56.628497
 10
133.218601
 20
41.628497
 10
111.378601
 20
41.628497
 10
111.378601
 20
38.428497
  0
LWPOLYLINE
  5
35
102
{ACAD_REACTORS
330
31
102
}
100
AcDbEntity
  8
0
  6
CONTINUOUS
100
AcDbPolyline
 90
       13
 70
     0
 10
94.403808
 20
133.379424
 10
91.403808
 20
133.379424
 10
91.403808
 20
132.982426
 10
92.81786
 20
132.982426
 10
92.81786
 20
131.42308
 10
91.403808
 20
131.42308
 10
91.403808
 20
131.02608
 10
94.403808
 20
131.02608
 10
94.403808
 20
131.42308
 10
93.171885
 20
131.42308
 10
93.171885
 20
132.982426
 10
94.403808
 20
132.982426
 10
94.403808
 20
133.379424
  0
SPLINE
  5
36
102
{ACAD_REACTORS
330
31
102
}
100
AcDbEntity
  8
0
  6
CONTINUOUS
100
AcDbSpline
210
0.0
220
0.0
230
1.0
 70
     8
 71
     2
 72
     6
 73
     3
 74
     0
 42
0.0000001
 43
0.0000001
 40
0.0
 40
0.0
 40
0.0
 40
1.0
 40
1.0
 40
1.0
 10
92.490438454847947
 20
130.54927630456996
 30
0.0
 10
93.094122045736924
 20
130.54927630456996
 30
0.0
 10
93.384708696108476
 20
130.21366877588343
 30
0.0
  0
SPLINE
  5
37
102
{ACAD_REACTORS
330
31
102
}
100
AcDbEntity
  8
0
  6
CONTINUOUS
100
AcDbSpline
210
0.0
220
0.0
230
1.0
 70
     8
 71
     2
 72
     6
 73
     3
 74
     0
 42
0.0000001
 43
0.0000001
 40
0.0
 40
0.0
 40
0.0
 40
1.0
 40
1.0
 40
1.0
 10
93.384708696108575
 20
130.21366877588343
 30
0.0
 10
93.626182162266488
 20
129.93331236871791
 30
0.0
 10
93.626182162266488
 20
129.53017516168666
 30
0.0
  0
SPLINE
  5
38
102
{ACAD_REACTORS
330
31
102
}
100
AcDbEntity
  8
0
  6
CONTINUOUS
100
AcDbSpline
210
0.0
220
0.0
230
1.0
 70
     8
 71
     2
 72
     6
 73
     3
 74
     0
 42
0.0000001
 43
0.0000001
 40
0.0
 40
0.0
 40
0.0
 40
1.0
 40
1.0
 40
1.0
 10
93.626182162266446
 20
129.53017516168666
 30
0.0
 10
93.626182162266446
 20
129.08201499017787
 30
0.0
 10
93.332525872688961
 20
128.79756732019496
 30
0.0
  0
SPLINE
  5
39
102
{ACAD_REACTORS
330
31
102
}
100
AcDbEntity
  8
0
  6
CONTINUOUS
100
AcDbSpline
210
0.0
220
0.0
230
1.0
 70
     8
 71
     2
 72
     6
 73
     3
 74
     0
 42
0.0000001
 43
0.0000001
 40
0.0
 40
0.0
 40
0.0
 40
1.0
 40
1.0
 40
1.0
 10
93.332525872688947
 20
128.79756732019496
 30
0.0
 10
93.038869732123075
 20
128.51311965021205
 30
0.0
 10
92.521134250860868
 20
128.51311965021205
 30
0.0
  0
SPLINE
  5
3A
102
{ACAD_REACTORS
330
31
102
}
100
AcDbEntity
  8
0
  6
CONTINUOUS
100
AcDbSpline
210
0.0
220
0.0
230
1.0
 70
     8
 71
     2
 72
     6
 73
     3
 74
     0
 42
0.0000001
 43
0.0000001
 40
0.0
 40
0.0
 40
0.0
 40
1.0
 40
1.0
 40
1.0
 10
92.521134250860825
 20
128.51311965021205
 30
0.0
 10
92.101625436049119
 20
128.51311965021205
 30
0.0
 10
91.861175232630387
 20
128.63897604974818
 30
0.0
  0
SPLINE
  5
3B
102
{ACAD_REACTORS
330
31
102
}
100
AcDbEntity
  8
0
  6
CONTINUOUS
100
AcDbSpline
210
0.0
220
0.0
230
1.0
 70
     8
 71
     2
 72
     6
 73
     3
 74
     0
 42
0.0000001
 43
0.0000001
 40
0.0
 40
0.0
 40
0.0
 40
1.0
 40
1.0
 40
1.0
 10
91.861175232630444
 20
128.63897604974818
 30
0.0
 10
91.620725029211712
 20
128.76482768091273
 30
0.0
 10
91.487710111838055
 20
129.00527758630824
 30
0.0
  0
SPLINE
  5
3C
102
{ACAD_REACTORS
330
31
102
}
100
AcDbEntity
  8
0
  6
CONTINUOUS
100
AcDbSpline
210
0.0
220
0.0
230
1.0
 70
     8
 71
     2
 72
     6
 73
     3
 74
     0
 42
0.0000001
 43
0.0000001
 40
0.0
 40
0.0
 40
0.0
 40
1.0
 40
1.0
 40
1.0
 10
91.487710111838055
 20
129.00527758630824
 30
0.0
 10
91.354694896441174
 20
129.24572749170375
 30
0.0
 10
91.354694896441174
 20
129.53017516168666
 30
0.0
  0
SPLINE
  5
3D
102
{ACAD_REACTORS
330
31
102
}
100
AcDbEntity
  8
0
  6
CONTINUOUS
100
AcDbSpline
210
0.0
220
0.0
230
1.0
 70
     8
 71
     2
 72
     6
 73
     3
 74
     0
 42
0.0000001
 43
0.0000001
 40
0.0
 40
0.0
 40
0.0
 40
1.0
 40
1.0
 40
1.0
 10
91.35469489644116
 20
129.53017516168666
 30
0.0
 10
91.35469489644116
 20
129.98651785883021
 30
0.0
 10
91.647328072291074
 20
130.26789469751429
 30
0.0
  0
SPLINE
  5
3E
102
{ACAD_REACTORS
330
31
102
}
100
AcDbEntity
  8
0
  6
CONTINUOUS
100
AcDbSpline
210
0.0
220
0.0
230
1.0
 70
     8
 71
     2
 72
     6
 73
     3
 74
     0
 42
0.0000001
 43
0.0000001
 40
0.0
 40
0.0
 40
0.0
 40
1.0
 40
1.0
 40
1.0
 10
91.647328072291089
 20
130.26789469751429
 30
0.0
 10
91.939960950117779
 20
130.54927630456996
 30
0.0
 10
92.490438454848004
 20
130.54927630456996
 30
0.0
  0
SPLINE
  5
3F
102
{ACAD_REACTORS
330
31
102
}
100
AcDbEntity
  8
0
  6
CONTINUOUS
100
AcDbSpline
210
0.0
220
0.0
230
1.0
 70
     8
 71
     2
 72
     6
 73
     3
 74
     0
 42
0.0000001
 43
0.0000001
 40
0.0
 40
0.0
 40
0.0
 40
1.0
 40
1.0
 40
1.0
 10
92.490438454848046
 20
130.17069144281459
 30
0.0
 10
92.072976165514703
 20
130.17069144281459
 30
0.0
 10
91.865267985563989
 20
129.9885634902389
 30
0.0
  0
SPLINE
  5
40
102
{ACAD_REACTORS
330
31
102
}
100
AcDbEntity
  8
0
  6
CONTINUOUS
100
AcDbSpline
210
0.0
220
0.0
230
1.0
 70
     8
 71
     2
 72
     6
 73
     3
 74
     0
 42
0.0000001
 43
0.0000001
 40
0.0
 40
0.0
 40
0.0
 40
1.0
 40
1.0
 40
1.0
 10
91.865267985563989
 20
129.9885634902389
 30
0.0
 10
91.657559805613275
 20
129.80643553766322
 30
0.0
 10
91.657559805613275
 20
129.53017516168666
 30
0.0
  0
SPLINE
  5
41
102
{ACAD_REACTORS
330
31
102
}
100
AcDbEntity
  8
0
  6
CONTINUOUS
100
AcDbSpline
210
0.0
220
0.0
230
1.0
 70
     8
 71
     2
 72
     6
 73
     3
 74
     0
 42
0.0000001
 43
0.0000001
 40
0.0
 40
0.0
 40
0.0
 40
1.0
 40
1.0
 40
1.0
 10
91.657559805613289
 20
129.53017516168663
 30
0.0
 10
91.657559805613289
 20
129.25596041711876
 30
0.0
 10
91.866291099291573
 20
129.07383246454307
 30
0.0
  0
SPLINE
  5
42
102
{ACAD_REACTORS
330
31
102
}
100
AcDbEntity
  8
0
  6
CONTINUOUS
100
AcDbSpline
210
0.0
220
0.0
230
1.0
 70
     8
 71
     2
 72
     6
 73
     3
 74
     0
 42
0.0000001
 43
0.0000001
 40
0.0
 40
0.0
 40
0.0
 40
1.0
 40
1.0
 40
1.0
 10
91.866291099291516
 20
129.0738324645431
 30
0.0
 10
92.0750223929698
 20
128.89170451196742
 30
0.0
 10
92.50271671364851
 20
128.89170451196742
 30
0.0
  0
SPLINE
  5
43
102
{ACAD_REACTORS
330
31
102
}
100
AcDbEntity
  8
0
  6
CONTINUOUS
100
AcDbSpline
210
0.0
220
0.0
230
1.0
 70
     8
 71
     2
 72
     6
 73
     3
 74
     0
 42
0.0000001
 43
0.0000001
 40
0.0
 40
0.0
 40
0.0
 40
1.0
 40
1.0
 40
1.0
 10
92.50271671364851
 20
128.89170451196739
 30
0.0
 10
92.905854516726208
 20
128.89170451196739
 30
0.0
 10
93.113562696676922
 20
129.07485289606163
 30
0.0
  0
SPLINE
  5
44
102
{ACAD_REACTORS
330
31
102
}
100
AcDbEntity
  8
0
  6
CONTINUOUS
100
AcDbSpline
210
0.0
220
0.0
230
1.0
 70
     8
 71
     2
 72
     6
 73
     3
 74
     0
 42
0.0000001
 43
0.0000001
 40
0.0
 40
0.0
 40
0.0
 40
1.0
 40
1.0
 40
1.0
 10
93.113562696676979
 20
129.07485289606166
 30
0.0
 10
93.321270727616081
 20
129.25800604852748
 30
0.0
 10
93.321270727616081
 20
129.53017516168666
 30
0.0
  0
SPLINE
  5
45
102
{ACAD_REACTORS
330
31
102
}
100
AcDbEntity
  8
0
  6
CONTINUOUS
100
AcDbSpline
210
0.0
220
0.0
230
1.0
 70
     8
 71
     2
 72
     6
 73
     3
 74
     0
 42
0.0000001
 43
0.0000001
 40
0.0
 40
0.0
 40
0.0
 40
1.0
 40
1.0
 40
1.0
 10
93.321270727615953
 20
129.53017516168666
 30
0.0
 10
93.321270727615953
 20
129.80643553766322
 30
0.0
 10
93.114585810404421
 20
129.9885634902389
 30
0.0
  0
SPLINE
  5
46
102
{ACAD_REACTORS
330
31
102
}
100
AcDbEntity
  8
0
  6
CONTINUOUS
100
AcDbSpline
210
0.0
220
0.0
230
1.0
 70
     8
 71
     2
 72
     6
 73
     3
 74
     0
 42
0.0000001
 43
0.0000001
 40
0.0
 40
0.0
 40
0.0
 40
1.0
 40
1.0
 40
1.0
 10
93.114585810404492
 20
129.9885634902389
 30
0.0
 10
92.907901042204571
 20
130.17069144281459
 30
0.0
 10
92.490438454848004
 20
130.17069144281459
 30
0.0
  0
LINE
  5
47
102
{ACAD_REACTORS
330
31
102
}
100
AcDbEntity
  8
0
  6
CONTINUOUS
100
AcDbLine
 10
91.403808
 20
126.65705
 30
0.0
 11
91.723044
 21
126.65705
 31
0.0
  0
SPLINE
  5
48
102
{ACAD_REACTORS
330
31
102
}
100
AcDbEntity
  8
0
  6
CONTINUOUS
100
AcDbSpline
210
0.0
220
0.0
230
1.0
 70
     8
 71
     2
 72
     6
 73
     3
 74
     0
 42
0.0000001
 43
0.0000001
 40
0.0
 40
0.0
 40
0.0
 40
1.0
 40
1.0
 40
1.0
 10
91.723044150572491
 20
126.6570500853927
 30
0.0
 10
91.354694896441174
 20
126.91080374750207
 30
0.0
 10
91.354694896441174
 20
127.34668059381555
 30
0.0
  0
SPLINE
  5
49
102
{ACAD_REACTORS
330
31
102
}
100
AcDbEntity
  8
0
  6
CONTINUOUS
100
AcDbSpline
210
0.0
220
0.0
230
1.0
 70
     8
 71
     2
 72
     6
 73
     3
 74
     0
 42
0.0000001
 43
0.0000001
 40
0.0
 40
0.0
 40
0.0
 40
1.0
 40
1.0
 40
1.0
 10
91.354694896441174
 20
127.34668059381555
 30
0.0
 10
91.354694896441174
 20
127.53904147180627
 30
0.0
 10
91.428364747267437
 20
127.70582480463098
 30
0.0
  0
SPLINE
  5
4A
102
{ACAD_REACTORS
330
31
102
}
100
AcDbEntity
  8
0
  6
CONTINUOUS
100
AcDbSpline
210
0.0
220
0.0
230
1.0
 70
     8
 71
     2
 72
     6
 73
     3
 74
     0
 42
0.0000001
 43
0.0000001
 40
0.0
 40
0.0
 40
0.0
 40
1.0
 40
1.0
 40
1.0
 10
91.428364747267381
 20
127.70582480463098
 30
0.0
 10
91.502034598093644
 20
127.8726033690841
 30
0.0
 10
91.613562637072221
 20
127.9534368041427
 30
0.0
  0
SPLINE
  5
4B
102
{ACAD_REACTORS
330
31
102
}
100
AcDbEntity
  8
0
  6
CONTINUOUS
100
AcDbSpline
210
0.0
220
0.0
230
1.0
 70
     8
 71
     2
 72
     6
 73
     3
 74
     0
 42
0.0000001
 43
0.0000001
 40
0.0
 40
0.0
 40
0.0
 40
1.0
 40
1.0
 40
1.0
 10
91.613562637072206
 20
127.9534368041427
 30
0.0
 10
91.725090676050783
 20
128.03426547082972
 30
0.0
 10
91.88675516198218
 20
128.06700987848353
 30
0.0
  0
SPLINE
  5
4C
102
{ACAD_REACTORS
330
31
102
}
100
AcDbEntity
  8
0
  6
CONTINUOUS
100
AcDbSpline
210
0.0
220
0.0
230
1.0
 70
     8
 71
     2
 72
     6
 73
     3
 74
     0
 42
0.0000001
 43
0.0000001
 40
0.0
 40
0.0
 40
0.0
 40
1.0
 40
1.0
 40
1.0
 10
91.886755161982293
 20
128.06700987848353
 30
0.0
 10
91.995213561754937
 20
128.0895213607223
 30
0.0
 10
92.230547600489373
 20
128.0895213607223
 30
0.0
  0
LINE
  5
4D
102
{ACAD_REACTORS
330
31
102
}
100
AcDbEntity
  8
0
  6
CONTINUOUS
100
AcDbLine
 10
92.230548
 20
128.089521
 30
0.0
 11
93.577069
 21
128.089521
 31
0.0
  0
LINE
  5
4E
102
{ACAD_REACTORS
330
31
102
}
100
AcDbEntity
  8
0
  6
CONTINUOUS
100
AcDbLine
 10
93.577069
 20
128.089521
 30
0.0
 11
93.577069
 21
127.721169
 31
0.0
  0
LINE
  5
4F
102
{ACAD_REACTORS
330
31
102
}
100
AcDbEntity
  8
0
  6
CONTINUOUS
100
AcDbLine
 10
93.577069
 20
127.721169
 30
0.0
 11
92.371748
 21
127.721169
 31
0.0
  0
SPLINE
  5
50
102
{ACAD_REACTORS
330
31
102
}
100
AcDbEntity
  8
0
  6
CONTINUOUS
100
AcDbSpline
210
0.0
220
0.0
230
1.0
 70
     8
 71
     2
 72
     6
 73
     3
 74
     0
 42
0.0000001
 43
0.0000001
 40
0.0
 40
0.0
 40
0.0
 40
1.0
 40
1.0
 40
1.0
 10
92.371748023730049
 20
127.72116942438197
 30
0.0
 10
92.083207898836861
 20
127.72116942438197
 30
0.0
 10
91.982935004931221
 20
127.69866271051478
 30
0.0
  0
SPLINE
  5
51
102
{ACAD_REACTORS
330
31
102
}
100
AcDbEntity
  8
0
  6
CONTINUOUS
100
AcDbSpline
210
0.0
220
0.0
230
1.0
 70
     8
 71
     2
 72
     6
 73
     3
 74
     0
 42
0.0000001
 43
0.0000001
 40
0.0
 40
0.0
 40
0.0
 40
1.0
 40
1.0
 40
1.0
 10
91.982935004931093
 20
127.69866271051477
 30
0.0
 10
91.837641828756929
 20
127.66387267145227
 30
0.0
 10
91.754763358336092
 20
127.55132002863
 30
0.0
  0
SPLINE
  5
52
102
{ACAD_REACTORS
330
31
102
}
100
AcDbEntity
  8
0
  6
CONTINUOUS
100
AcDbSpline
210
0.0
220
0.0
230
1.0
 70
     8
 71
     2
 72
     6
 73
     3
 74
     0
 42
0.0000001
 43
0.0000001
 40
0.0
 40
0.0
 40
0.0
 40
1.0
 40
1.0
 40
1.0
 10
91.754763358336163
 20
127.55132002863
 30
0.0
 10
91.671884589892102
 20
127.43876738580774
 30
0.0
 10
91.671884589892102
 20
127.27301402124475
 30
0.0
  0
SPLINE
  5
53
102
{ACAD_REACTORS
330
31
102
}
100
AcDbEntity
  8
0
  6
CONTINUOUS
100
AcDbSpline
210
0.0
220
0.0
230
1.0
 70
     8
 71
     2
 72
     6
 73
     3
 74
     0
 42
0.0000001
 43
0.0000001
 40
0.0
 40
0.0
 40
0.0
 40
1.0
 40
1.0
 40
1.0
 10
91.671884589892102
 20
127.27301402124476
 30
0.0
 10
91.671884589892102
 20
127.10725588831019
 30
0.0
 10
91.756809585791302
 20
126.9619636062057
 30
0.0
  0
SPLINE
  5
54
102
{ACAD_REACTORS
330
31
102
}
100
AcDbEntity
  8
0
  6
CONTINUOUS
100
AcDbSpline
210
0.0
220
0.0
230
1.0
 70
     8
 71
     2
 72
     6
 73
     3
 74
     0
 42
0.0000001
 43
0.0000001
 40
0.0
 40
0.0
 40
0.0
 40
1.0
 40
1.0
 40
1.0
 10
91.756809585791345
 20
126.96196360620569
 30
0.0
 10
91.841734581690545
 20
126.81666655572961
 30
0.0
 10
91.988051169615503
 20
126.7562989715011
 30
0.0
  0
SPLINE
  5
55
102
{ACAD_REACTORS
330
31
102
}
100
AcDbEntity
  8
0
  6
CONTINUOUS
100
AcDbSpline
210
0.0
220
0.0
230
1.0
 70
     8
 71
     2
 72
     6
 73
     3
 74
     0
 42
0.0000001
 43
0.0000001
 40
0.0
 40
0.0
 40
0.0
 40
1.0
 40
1.0
 40
1.0
 10
91.988051169615431
 20
126.7562989715011
 30
0.0
 10
92.134367459517165
 20
126.69593138727258
 30
0.0
 10
92.41267585108821
 20
126.69593138727258
 30
0.0
  0
LINE
  5
56
102
{ACAD_REACTORS
330
31
102
}
100
AcDbEntity
  8
0
  6
CONTINUOUS
100
AcDbLine
 10
92.412676
 20
126.695931
 30
0.0
 11
93.577069
 21
126.695931
 31
0.0
  0
LINE
  5
57
102
{ACAD_REACTORS
330
31
102
}
100
AcDbEntity
  8
0
  6
CONTINUOUS
100
AcDbLine
 10
93.577069
 20
126.695931
 30
0.0
 11
93.577069
 21
126.327584
 31
0.0
  0
LINE
  5
58
102
{ACAD_REACTORS
330
31
102
}
100
AcDbEntity
  8
0
  6
CONTINUOUS
100
AcDbLine
 10
93.577069
 20
126.327584
 30
0.0
 11
91.403808
 21
126.327584
 31
0.0
  0
LINE
  5
59
102
{ACAD_REACTORS
330
31
102
}
100
AcDbEntity
  8
0
  6
CONTINUOUS
100
AcDbLine
 10
91.403808
 20
126.327584
 30
0.0
 11
91.403808
 21
126.65705
 31
0.0
  0
LINE
  5
5A
102
{ACAD_REACTORS
330
31
102
}
100
AcDbEntity
  8
0
  6
CONTINUOUS
100
AcDbLine
 10
92.052512
 20
125.897839
 30
0.0
 11
92.109811
 21
125.533584
 31
0.0
  0
SPLINE
  5
5B
102
{ACAD_REACTORS
330
31
102
}
100
AcDbEntity
  8
0
  6
CONTINUOUS
100
AcDbSpline
210
0.0
220
0.0
230
1.0
 70
     8
 71
     2
 72
     6
 73
     3
 74
     0
 42
0.0000001
 43
0.0000001
 40
0.0
 40
0.0
 40
0.0
 40
1.0
 40
1.0
 40
1.0
 10
92.10981094191618
 20
125.53358359369348
 30
0.0
 10
91.890847914915753
 20
125.50288958581994
 30
0.0
 10
91.774204009276104
 20
125.36271376642297
 30
0.0
  0
SPLINE
  5
5C
102
{ACAD_REACTORS
330
31
102
}
100
AcDbEntity
  8
0
  6
CONTINUOUS
100
AcDbSpline
210
0.0
220
0.0
230
1.0
 70
     8
 71
     2
 72
     6
 73
     3
 74
     0
 42
0.0000001
 43
0.0000001
 40
0.0
 40
0.0
 40
0.0
 40
1.0
 40
1.0
 40
1.0
 10
91.774204009276033
 20
125.36271376642297
 30
0.0
 10
91.657559805613161
 20
125.22253317865442
 30
0.0
 10
91.657559805613161
 20
124.97082991632531
 30
0.0
  0
SPLINE
  5
5D
102
{ACAD_REACTORS
330
31
102
}
100
AcDbEntity
  8
0
  6
CONTINUOUS
100
AcDbSpline
210
0.0
220
0.0
230
1.0
 70
     8
 71
     2
 72
     6
 73
     3
 74
     0
 42
0.0000001
 43
0.0000001
 40
0.0
 40
0.0
 40
0.0
 40
1.0
 40
1.0
 40
1.0
 10
91.657559805613204
 20
124.97082991632533
 30
0.0
 10
91.657559805613204
 20
124.71707625421595
 30
0.0
 10
91.760902338724776
 20
124.59429545435023
 30
0.0
  0
SPLINE
  5
5E
102
{ACAD_REACTORS
330
31
102
}
100
AcDbEntity
  8
0
  6
CONTINUOUS
100
AcDbSpline
210
0.0
220
0.0
230
1.0
 70
     8
 71
     2
 72
     6
 73
     3
 74
     0
 42
0.0000001
 43
0.0000001
 40
0.0
 40
0.0
 40
0.0
 40
1.0
 40
1.0
 40
1.0
 10
91.760902338724804
 20
124.59429545435023
 30
0.0
 10
91.864244871836377
 20
124.47150988611293
 30
0.0
 10
92.003399067621899
 20
124.47150988611293
 30
0.0
  0
SPLINE
  5
5F
102
{ACAD_REACTORS
330
31
102
}
100
AcDbEntity
  8
0
  6
CONTINUOUS
100
AcDbSpline
210
0.0
220
0.0
230
1.0
 70
     8
 71
     2
 72
     6
 73
     3
 74
     0
 42
0.0000001
 43
0.0000001
 40
0.0
 40
0.0
 40
0.0
 40
1.0
 40
1.0
 40
1.0
 10
92.003399067621956
 20
124.47150988611291
 30
0.0
 10
92.128228479128609
 20
124.47150988611291
 30
0.0
 10
92.199851804476509
 20
124.57997126611779
 30
0.0
  0
SPLINE
  5
60
102
{ACAD_REACTORS
330
31
102
}
100
AcDbEntity
  8
0
  6
CONTINUOUS
100
AcDbSpline
210
0.0
220
0.0
230
1.0
 70
     8
 71
     2
 72
     6
 73
     3
 74
     0
 42
0.0000001
 43
0.0000001
 40
0.0
 40
0.0
 40
0.0
 40
1.0
 40
1.0
 40
1.0
 10
92.199851804476509
 20
124.57997126611779
 30
0.0
 10
92.248965137701759
 20
124.65568823846887
 30
0.0
 10
92.324681215983162
 20
124.95650572809289
 30
0.0
  0
SPLINE
  5
61
102
{ACAD_REACTORS
330
31
102
}
100
AcDbEntity
  8
0
  6
CONTINUOUS
100
AcDbSpline
210
0.0
220
0.0
230
1.0
 70
     8
 71
     2
 72
     6
 73
     3
 74
     0
 42
0.0000001
 43
0.0000001
 40
0.0
 40
0.0
 40
0.0
 40
1.0
 40
1.0
 40
1.0
 10
92.324681215983105
 20
124.95650572809289
 30
0.0
 10
92.427000635367108
 20
125.36168856653283
 30
0.0
 10
92.501693599920941
 20
125.5182389739425
 30
0.0
  0
SPLINE
  5
62
102
{ACAD_REACTORS
330
31
102
}
100
AcDbEntity
  8
0
  6
CONTINUOUS
100
AcDbSpline
210
0.0
220
0.0
230
1.0
 70
     8
 71
     2
 72
     6
 73
     3
 74
     0
 42
0.0000001
 43
0.0000001
 40
0.0
 40
0.0
 40
0.0
 40
1.0
 40
1.0
 40
1.0
 10
92.501693599920927
 20
125.5182389739425
 30
0.0
 10
92.57638656447476
 20
125.67478461298059
 30
0.0
 10
92.708378368120847
 20
125.75561804803918
 30
0.0
  0
SPLINE
  5
63
102
{ACAD_REACTORS
330
31
102
}
100
AcDbEntity
  8
0
  6
CONTINUOUS
100
AcDbSpline
210
0.0
220
0.0
230
1.0
 70
     8
 71
     2
 72
     6
 73
     3
 74
     0
 42
0.0000001
 43
0.0000001
 40
0.0
 40
0.0
 40
0.0
 40
1.0
 40
1.0
 40
1.0
 10
92.708378368120847
 20
125.75561804803918
 30
0.0
 10
92.840370469790159
 20
125.83645148309778
 30
0.0
 10
92.999988430243192
 20
125.83645148309778
 30
0.0
  0
SPLINE
  5
64
102
{ACAD_REACTORS
330
31
102
}
100
AcDbEntity
  8
0
  6
CONTINUOUS
100
AcDbSpline
210
0.0
220
0.0
230
1.0
 70
     8
 71
     2
 72
     6
 73
     3
 74
     0
 42
0.0000001
 43
0.0000001
 40
0.0
 40
0.0
 40
0.0
 40
1.0
 40
1.0
 40
1.0
 10
92.999988430243206
 20
125.83645148309778
 30
0.0
 10
93.145281755428982
 20
125.83645148309778
 30
0.0
 10
93.269088053208066
 20
125.7699422362716
 30
0.0
  0
SPLINE
  5
65
102
{ACAD_REACTORS
330
31
102
}
100
AcDbEntity
  8
0
  6
CONTINUOUS
100
AcDbSpline
210
0.0
220
0.0
230
1.0
 70
     8
 71
     2
 72
     6
 73
     3
 74
     0
 42
0.0000001
 43
0.0000001
 40
0.0
 40
0.0
 40
0.0
 40
1.0
 40
1.0
 40
1.0
 10
93.269088053208066
 20
125.7699422362716
 30
0.0
 10
93.392894201975537
 20
125.70343298944543
 30
0.0
 10
93.474749707680417
 20
125.58883948358606
 30
0.0
  0
SPLINE
  5
66
102
{ACAD_REACTORS
330
31
102
}
100
AcDbEntity
  8
0
  6
CONTINUOUS
100
AcDbSpline
210
0.0
220
0.0
230
1.0
 70
     8
 71
     2
 72
     6
 73
     3
 74
     0
 42
0.0000001
 43
0.0000001
 40
0.0
 40
0.0
 40
0.0
 40
1.0
 40
1.0
 40
1.0
 10
93.474749707680402
 20
125.58883948358606
 30
0.0
 10
93.538187527161298
 20
125.50288958581994
 30
0.0
 10
93.582184844713865
 20
125.35452647241662
 30
0.0
  0
SPLINE
  5
67
102
{ACAD_REACTORS
330
31
102
}
100
AcDbEntity
  8
0
  6
CONTINUOUS
100
AcDbSpline
210
0.0
220
0.0
230
1.0
 70
     8
 71
     2
 72
     6
 73
     3
 74
     0
 42
0.0000001
 43
0.0000001
 40
0.0
 40
0.0
 40
0.0
 40
1.0
 40
1.0
 40
1.0
 10
93.582184844713822
 20
125.35452647241662
 30
0.0
 10
93.626182162266389
 20
125.2061633590133
 30
0.0
 10
93.626182162266389
 20
125.03631396326135
 30
0.0
  0
SPLINE
  5
68
102
{ACAD_REACTORS
330
31
102
}
100
AcDbEntity
  8
0
  6
CONTINUOUS
100
AcDbSpline
210
0.0
220
0.0
230
1.0
 70
     8
 71
     2
 72
     6
 73
     3
 74
     0
 42
0.0000001
 43
0.0000001
 40
0.0
 40
0.0
 40
0.0
 40
1.0
 40
1.0
 40
1.0
 10
93.626182162266446
 20
125.03631396326135
 30
0.0
 10
93.626182162266446
 20
124.78051466974328
 30
0.0
 10
93.552512311440182
 20
124.58713336023401
 30
0.0
  0
SPLINE
  5
69
102
{ACAD_REACTORS
330
31
102
}
100
AcDbEntity
  8
0
  6
CONTINUOUS
100
AcDbSpline
210
0.0
220
0.0
230
1.0
 70
     8
 71
     2
 72
     6
 73
     3
 74
     0
 42
0.0000001
 43
0.0000001
 40
0.0
 40
0.0
 40
0.0
 40
1.0
 40
1.0
 40
1.0
 10
93.552512311440182
 20
124.58713336023399
 30
0.0
 10
93.478842460613919
 20
124.39374728235313
 30
0.0
 10
93.352989786368084
 20
124.30166049036094
 30
0.0
  0
SPLINE
  5
6A
102
{ACAD_REACTORS
330
31
102
}
100
AcDbEntity
  8
0
  6
CONTINUOUS
100
AcDbSpline
210
0.0
220
0.0
230
1.0
 70
     8
 71
     2
 72
     6
 73
     3
 74
     0
 42
0.0000001
 43
0.0000001
 40
0.0
 40
0.0
 40
0.0
 40
1.0
 40
1.0
 40
1.0
 10
93.352989786368084
 20
124.30166049036096
 30
0.0
 10
93.22713711212225
 20
124.20957369836877
 30
0.0
 10
93.016359441977215
 20
124.17478365930627
 30
0.0
  0
LINE
  5
6B
102
{ACAD_REACTORS
330
31
102
}
100
AcDbEntity
  8
0
  6
CONTINUOUS
100
AcDbLine
 10
93.016359
 20
124.174784
 30
0.0
 11
92.967246
 21
124.534948
 31
0.0
  0
SPLINE
  5
6C
102
{ACAD_REACTORS
330
31
102
}
100
AcDbEntity
  8
0
  6
CONTINUOUS
100
AcDbSpline
210
0.0
220
0.0
230
1.0
 70
     8
 71
     2
 72
     6
 73
     3
 74
     0
 42
0.0000001
 43
0.0000001
 40
0.0
 40
0.0
 40
0.0
 40
1.0
 40
1.0
 40
1.0
 10
92.967246108752022
 20
124.53494830164026
 30
0.0
 10
93.135049724083672
 20
124.55950541528772
 30
0.0
 10
93.229183488589058
 20
124.6771745208175
 30
0.0
  0
SPLINE
  5
6D
102
{ACAD_REACTORS
330
31
102
}
100
AcDbEntity
  8
0
  6
CONTINUOUS
100
AcDbSpline
210
0.0
220
0.0
230
1.0
 70
     8
 71
     2
 72
     6
 73
     3
 74
     0
 42
0.0000001
 43
0.0000001
 40
0.0
 40
0.0
 40
0.0
 40
1.0
 40
1.0
 40
1.0
 10
93.229183488589044
 20
124.6771745208175
 30
0.0
 10
93.32331725309443
 20
124.79483885797571
 30
0.0
 10
93.32331725309443
 20
125.0097112182052
 30
0.0
  0
SPLINE
  5
6E
102
{ACAD_REACTORS
330
31
102
}
100
AcDbEntity
  8
0
  6
CONTINUOUS
100
AcDbSpline
210
0.0
220
0.0
230
1.0
 70
     8
 71
     2
 72
     6
 73
     3
 74
     0
 42
0.0000001
 43
0.0000001
 40
0.0
 40
0.0
 40
0.0
 40
1.0
 40
1.0
 40
1.0
 10
93.323317253094444
 20
125.00971121820518
 30
0.0
 10
93.323317253094444
 20
125.26346011194298
 30
0.0
 10
93.239415370922814
 20
125.37192149194786
 30
0.0
  0
SPLINE
  5
6F
102
{ACAD_REACTORS
330
31
102
}
100
AcDbEntity
  8
0
  6
CONTINUOUS
100
AcDbSpline
210
0.0
220
0.0
230
1.0
 70
     8
 71
     2
 72
     6
 73
     3
 74
     0
 42
0.0000001
 43
0.0000001
 40
0.0
 40
0.0
 40
0.0
 40
1.0
 40
1.0
 40
1.0
 10
93.239415370922814
 20
125.37192149194787
 30
0.0
 10
93.155513637762795
 20
125.48037810358117
 30
0.0
 10
93.042962485056648
 20
125.48037810358117
 30
0.0
  0
SPLINE
  5
70
102
{ACAD_REACTORS
330
31
102
}
100
AcDbEntity
  8
0
  6
CONTINUOUS
100
AcDbSpline
210
0.0
220
0.0
230
1.0
 70
     8
 71
     2
 72
     6
 73
     3
 74
     0
 42
0.0000001
 43
0.0000001
 40
0.0
 40
0.0
 40
0.0
 40
1.0
 40
1.0
 40
1.0
 10
93.042962485056577
 20
125.48037810358117
 30
0.0
 10
92.971339159708677
 20
125.48037810358117
 30
0.0
 10
92.914040022593198
 20
125.43535990747522
 30
0.0
  0
SPLINE
  5
71
102
{ACAD_REACTORS
330
31
102
}
100
AcDbEntity
  8
0
  6
CONTINUOUS
100
AcDbSpline
210
0.0
220
0.0
230
1.0
 70
     8
 71
     2
 72
     6
 73
     3
 74
     0
 42
0.0000001
 43
0.0000001
 40
0.0
 40
0.0
 40
0.0
 40
1.0
 40
1.0
 40
1.0
 10
92.914040022593269
 20
125.43535990747522
 30
0.0
 10
92.8546952540691
 20
125.39033694299768
 30
0.0
 10
92.815813952189217
 20
125.29415888818811
 30
0.0
  0
SPLINE
  5
72
102
{ACAD_REACTORS
330
31
102
}
100
AcDbEntity
  8
0
  6
CONTINUOUS
100
AcDbSpline
210
0.0
220
0.0
230
1.0
 70
     8
 71
     2
 72
     6
 73
     3
 74
     0
 42
0.0000001
 43
0.0000001
 40
0.0
 40
0.0
 40
0.0
 40
1.0
 40
1.0
 40
1.0
 10
92.815813952189103
 20
125.29415888818809
 30
0.0
 10
92.795349889498368
 20
125.2389077666671
 30
0.0
 10
92.721680038672105
 20
124.96878428491661
 30
0.0
  0
SPLINE
  5
73
102
{ACAD_REACTORS
330
31
102
}
100
AcDbEntity
  8
0
  6
CONTINUOUS
100
AcDbSpline
210
0.0
220
0.0
230
1.0
 70
     8
 71
     2
 72
     6
 73
     3
 74
     0
 42
0.0000001
 43
0.0000001
 40
0.0
 40
0.0
 40
0.0
 40
1.0
 40
1.0
 40
1.0
 10
92.721680038672218
 20
124.96878428491662
 30
0.0
 10
92.617314391833077
 20
124.5779256347091
 30
0.0
 10
92.550806933146248
 20
124.42342085870813
 30
0.0
  0
SPLINE
  5
74
102
{ACAD_REACTORS
330
31
102
}
100
AcDbEntity
  8
0
  6
CONTINUOUS
100
AcDbSpline
210
0.0
220
0.0
230
1.0
 70
     8
 71
     2
 72
     6
 73
     3
 74
     0
 42
0.0000001
 43
0.0000001
 40
0.0
 40
0.0
 40
0.0
 40
1.0
 40
1.0
 40
1.0
 10
92.55080693314612
 20
124.42342085870813
 30
0.0
 10
92.484299474459291
 20
124.26892085107873
 30
0.0
 10
92.357423537474276
 20
124.18092532190393
 30
0.0
  0
SPLINE
  5
75
102
{ACAD_REACTORS
330
31
102
}
100
AcDbEntity
  8
0
  6
CONTINUOUS
100
AcDbSpline
210
0.0
220
0.0
230
1.0
 70
     8
 71
     2
 72
     6
 73
     3
 74
     0
 42
0.0000001
 43
0.0000001
 40
0.0
 40
0.0
 40
0.0
 40
1.0
 40
1.0
 40
1.0
 10
92.35742353747429
 20
124.18092532190393
 30
0.0
 10
92.230547600489274
 20
124.09292979272912
 30
0.0
 10
92.042280369501725
 20
124.09292979272912
 30
0.0
  0
SPLINE
  5
76
102
{ACAD_REACTORS
330
31
102
}
100
AcDbEntity
  8
0
  6
CONTINUOUS
100
AcDbSpline
210
0.0
220
0.0
230
1.0
 70
     8
 71
     2
 72
     6
 73
     3
 74
     0
 42
0.0000001
 43
0.0000001
 40
0.0
 40
0.0
 40
0.0
 40
1.0
 40
1.0
 40
1.0
 10
92.042280369501711
 20
124.09292979272912
 30
0.0
 10
91.85810559342444
 20
124.09292979272912
 30
0.0
 10
91.695417993765474
 20
124.20036597284387
 30
0.0
  0
SPLINE
  5
77
102
{ACAD_REACTORS
330
31
102
}
100
AcDbEntity
  8
0
  6
CONTINUOUS
100
AcDbSpline
210
0.0
220
0.0
230
1.0
 70
     8
 71
     2
 72
     6
 73
     3
 74
     0
 42
0.0000001
 43
0.0000001
 40
0.0
 40
0.0
 40
0.0
 40
1.0
 40
1.0
 40
1.0
 10
91.695417993765545
 20
124.20036597284387
 30
0.0
 10
91.532730394106579
 20
124.30780215295862
 30
0.0
 10
91.443712645273877
 20
124.51039118799279
 30
0.0
  0
SPLINE
  5
78
102
{ACAD_REACTORS
330
31
102
}
100
AcDbEntity
  8
0
  6
CONTINUOUS
100
AcDbSpline
210
0.0
220
0.0
230
1.0
 70
     8
 71
     2
 72
     6
 73
     3
 74
     0
 42
0.0000001
 43
0.0000001
 40
0.0
 40
0.0
 40
0.0
 40
1.0
 40
1.0
 40
1.0
 10
91.443712645273877
 20
124.51039118799279
 30
0.0
 10
91.354694896441174
 20
124.71298499139856
 30
0.0
 10
91.354694896441174
 20
124.96878428491662
 30
0.0
  0
SPLINE
  5
79
102
{ACAD_REACTORS
330
31
102
}
100
AcDbEntity
  8
0
  6
CONTINUOUS
100
AcDbSpline
210
0.0
220
0.0
230
1.0
 70
     8
 71
     2
 72
     6
 73
     3
 74
     0
 42
0.0000001
 43
0.0000001
 40
0.0
 40
0.0
 40
0.0
 40
1.0
 40
1.0
 40
1.0
 10
91.354694896441174
 20
124.96878428491662
 30
0.0
 10
91.354694896441174
 20
125.39238257440637
 30
0.0
 10
91.53068416665144
 20
125.61441702875207
 30
0.0
  0
SPLINE
  5
7A
102
{ACAD_REACTORS
330
31
102
}
100
AcDbEntity
  8
0
  6
CONTINUOUS
100
AcDbSpline
210
0.0
220
0.0
230
1.0
 70
     8
 71
     2
 72
     6
 73
     3
 74
     0
 42
0.0000001
 43
0.0000001
 40
0.0
 40
0.0
 40
0.0
 40
1.0
 40
1.0
 40
1.0
 10
91.530684166651497
 20
125.61441702875207
 30
0.0
 10
91.706673138838539
 20
125.83645148309778
 30
0.0
 10
92.052512102823982
 20
125.89783949884485
 30
0.0
  0
LWPOLYLINE
  5
7B
102
{ACAD_REACTORS
330
31
102
}
100
AcDbEntity
  8
0
  6
CONTINUOUS
100
AcDbPolyline
 90
        5
 70
     0
 10
94.403808
 20
123.652957
 10
93.980207
 20
123.652957
 10
93.980207
 20
123.28461
 10
94.403808
 20
123.28461
 10
94.403808
 20
123.652957
  0
LWPOLYLINE
  5
7C
102
{ACAD_REACTORS
330
31
102
}
100
AcDbEntity
  8
0
  6
CONTINUOUS
100
AcDbPolyline
 90
        5
 70
     0
 10
93.577069
 20
123.652957
 10
91.403808
 20
123.652957
 10
91.403808
 20
123.28461
 10
93.577069
 20
123.28461
 10
93.577069
 20
123.652957
  0
LINE
  5
7D
102
{ACAD_REACTORS
330
31
102
}
100
AcDbEntity
  8
0
  6
CONTINUOUS
100
AcDbLine
 10
91.403808
 20
122.723897
 30
0.0
 11
93.577069
 21
122.723897
 31
0.0
  0
LINE
  5
7E
102
{ACAD_REACTORS
330
31
102
}
100
AcDbEntity
  8
0
  6
CONTINUOUS
100
AcDbLine
 10
93.577069
 20
122.723897
 30
0.0
 11
93.577069
 21
122.392385
 31
0.0
  0
LINE
  5
7F
102
{ACAD_REACTORS
330
31
102
}
100
AcDbEntity
  8
0
  6
CONTINUOUS
100
AcDbLine
 10
93.577069
 20
122.392385
 30
0.0
 11
93.268065
 21
122.392385
 31
0.0
  0
SPLINE
  5
80
102
{ACAD_REACTORS
330
31
102
}
100
AcDbEntity
  8
0
  6
CONTINUOUS
100
AcDbSpline
210
0.0
220
0.0
230
1.0
 70
     8
 71
     2
 72
     6
 73
     3
 74
     0
 42
0.0000001
 43
0.0000001
 40
0.0
 40
0.0
 40
0.0
 40
1.0
 40
1.0
 40
1.0
 10
93.268064790468813
 20
122.39238543542932
 30
0.0
 10
93.626182013254763
 20
122.15296072992395
 30
0.0
 10
93.626182013254763
 20
121.70070929559778
 30
0.0
  0
SPLINE
  5
81
102
{ACAD_REACTORS
330
31
102
}
100
AcDbEntity
  8
0
  6
CONTINUOUS
100
AcDbSpline
210
0.0
220
0.0
230
1.0
 70
     8
 71
     2
 72
     6
 73
     3
 74
     0
 42
0.0000001
 43
0.0000001
 40
0.0
 40
0.0
 40
0.0
 40
1.0
 40
1.0
 40
1.0
 10
93.626182013254777
 20
121.70070929559778
 30
0.0
 10
93.626182013254777
 20
121.50425238641809
 30
0.0
 10
93.555581801634446
 20
121.33951945337365
 30
0.0
  0
SPLINE
  5
82
102
{ACAD_REACTORS
330
31
102
}
100
AcDbEntity
  8
0
  6
CONTINUOUS
100
AcDbSpline
210
0.0
220
0.0
230
1.0
 70
     8
 71
     2
 72
     6
 73
     3
 74
     0
 42
0.0000001
 43
0.0000001
 40
0.0
 40
0.0
 40
0.0
 40
1.0
 40
1.0
 40
1.0
 10
93.55558180163456
 20
121.33951945337365
 30
0.0
 10
93.484981590014229
 20
121.17478652032922
 30
0.0
 10
93.37038391182972
 20
121.09293265375207
 30
0.0
  0
SPLINE
  5
83
102
{ACAD_REACTORS
330
31
102
}
100
AcDbEntity
  8
0
  6
CONTINUOUS
100
AcDbSpline
210
0.0
220
0.0
230
1.0
 70
     8
 71
     2
 72
     6
 73
     3
 74
     0
 42
0.0000001
 43
0.0000001
 40
0.0
 40
0.0
 40
0.0
 40
1.0
 40
1.0
 40
1.0
 10
93.37038391182972
 20
121.09293265375207
 30
0.0
 10
93.255786382656822
 20
121.01107401880334
 30
0.0
 10
93.09821479867054
 20
120.97833437952112
 30
0.0
  0
SPLINE
  5
84
102
{ACAD_REACTORS
330
31
102
}
100
AcDbEntity
  8
0
  6
CONTINUOUS
100
AcDbSpline
210
0.0
220
0.0
230
1.0
 70
     8
 71
     2
 72
     6
 73
     3
 74
     0
 42
0.0000001
 43
0.0000001
 40
0.0
 40
0.0
 40
0.0
 40
1.0
 40
1.0
 40
1.0
 10
93.098214798670483
 20
120.97833437952112
 30
0.0
 10
92.995895677309704
 20
120.95786852869104
 30
0.0
 10
92.740097575884533
 20
120.95786852869104
 30
0.0
  0
LINE
  5
85
102
{ACAD_REACTORS
330
31
102
}
100
AcDbEntity
  8
0
  6
CONTINUOUS
100
AcDbLine
 10
92.740098
 20
120.957869
 30
0.0
 11
91.403808
 21
120.957869
 31
0.0
  0
LINE
  5
86
102
{ACAD_REACTORS
330
31
102
}
100
AcDbEntity
  8
0
  6
CONTINUOUS
100
AcDbLine
 10
91.403808
 20
120.957869
 30
0.0
 11
91.403808
 21
121.32622
 31
0.0
  0
LINE
  5
87
102
{ACAD_REACTORS
330
31
102
}
100
AcDbEntity
  8
0
  6
CONTINUOUS
100
AcDbLine
 10
91.403808
 20
121.32622
 30
0.0
 11
92.725773
 21
121.32622
 31
0.0
  0
SPLINE
  5
88
102
{ACAD_REACTORS
330
31
102
}
100
AcDbEntity
  8
0
  6
CONTINUOUS
100
AcDbSpline
210
0.0
220
0.0
230
1.0
 70
     8
 71
     2
 72
     6
 73
     3
 74
     0
 42
0.0000001
 43
0.0000001
 40
0.0
 40
0.0
 40
0.0
 40
1.0
 40
1.0
 40
1.0
 10
92.725772791605664
 20
121.32622046503137
 30
0.0
 10
92.950875097017956
 20
121.32622046503137
 30
0.0
 10
93.062403135996533
 20
121.36919302972863
 30
0.0
  0
SPLINE
  5
89
102
{ACAD_REACTORS
330
31
102
}
100
AcDbEntity
  8
0
  6
CONTINUOUS
100
AcDbSpline
210
0.0
220
0.0
230
1.0
 70
     8
 71
     2
 72
     6
 73
     3
 74
     0
 42
0.0000001
 43
0.0000001
 40
0.0
 40
0.0
 40
0.0
 40
1.0
 40
1.0
 40
1.0
 10
93.062403135996533
 20
121.36919302972863
 30
0.0
 10
93.173931025963498
 20
121.4121655944259
 30
0.0
 10
93.240438484650326
 20
121.52164740594934
 30
0.0
  0
SPLINE
  5
8A
102
{ACAD_REACTORS
330
31
102
}
100
AcDbEntity
  8
0
  6
CONTINUOUS
100
AcDbSpline
210
0.0
220
0.0
230
1.0
 70
     8
 71
     2
 72
     6
 73
     3
 74
     0
 42
0.0000001
 43
0.0000001
 40
0.0
 40
0.0
 40
0.0
 40
1.0
 40
1.0
 40
1.0
 10
93.240438484650312
 20
121.52164740594934
 30
0.0
 10
93.306946092348753
 20
121.63112921747278
 30
0.0
 10
93.306946092348753
 20
121.77847189935754
 30
0.0
  0
SPLINE
  5
8B
102
{ACAD_REACTORS
330
31
102
}
100
AcDbEntity
  8
0
  6
CONTINUOUS
100
AcDbSpline
210
0.0
220
0.0
230
1.0
 70
     8
 71
     2
 72
     6
 73
     3
 74
     0
 42
0.0000001
 43
0.0000001
 40
0.0
 40
0.0
 40
0.0
 40
1.0
 40
1.0
 40
1.0
 10
93.306946092348767
 20
121.77847189935754
 30
0.0
 10
93.306946092348767
 20
122.01380534204553
 30
0.0
 10
93.157560014229489
 20
122.18467516931604
 30
0.0
  0
SPLINE
  5
8C
102
{ACAD_REACTORS
330
31
102
}
100
AcDbEntity
  8
0
  6
CONTINUOUS
100
AcDbSpline
210
0.0
220
0.0
230
1.0
 70
     8
 71
     2
 72
     6
 73
     3
 74
     0
 42
0.0000001
 43
0.0000001
 40
0.0
 40
0.0
 40
0.0
 40
1.0
 40
1.0
 40
1.0
 10
93.157560014229432
 20
122.18467516931604
 30
0.0
 10
93.008173936110154
 20
122.35554976495813
 30
0.0
 10
92.590711348753587
 20
122.35554976495813
 30
0.0
  0
LINE
  5
8D
102
{ACAD_REACTORS
330
31
102
}
100
AcDbEntity
  8
0
  6
CONTINUOUS
100
AcDbLine
 10
92.590711
 20
122.35555
 30
0.0
 11
91.403808
 21
122.35555
 31
0.0
  0
LINE
  5
8E
102
{ACAD_REACTORS
330
31
102
}
100
AcDbEntity
  8
0
  6
CONTINUOUS
100
AcDbLine
 10
91.403808
 20
122.35555
 30
0.0
 11
91.403808
 21
122.723897
 31
0.0
  0
LINE
  5
8F
102
{ACAD_REACTORS
330
31
102
}
100
AcDbEntity
  8
0
  6
CONTINUOUS
100
AcDbLine
 10
91.223726
 20
120.460599
 30
0.0
 11
91.17052
 21
120.10248
 31
0.0
  0
SPLINE
  5
90
102
{ACAD_REACTORS
330
31
102
}
100
AcDbEntity
  8
0
  6
CONTINUOUS
100
AcDbSpline
210
0.0
220
0.0
230
1.0
 70
     8
 71
     2
 72
     6
 73
     3
 74
     0
 42
0.0000001
 43
0.0000001
 40
0.0
 40
0.0
 40
0.0
 40
1.0
 40
1.0
 40
1.0
 10
91.170520418387071
 20
120.10247988733362
 30
0.0
 10
91.004763179522172
 20
120.07996840509485
 30
0.0
 10
90.929046803217545
 20
119.97764868768762
 30
0.0
  0
SPLINE
  5
91
102
{ACAD_REACTORS
330
31
102
}
100
AcDbEntity
  8
0
  6
CONTINUOUS
100
AcDbSpline
210
0.0
220
0.0
230
1.0
 70
     8
 71
     2
 72
     6
 73
     3
 74
     0
 42
0.0000001
 43
0.0000001
 40
0.0
 40
0.0
 40
0.0
 40
1.0
 40
1.0
 40
1.0
 10
90.929046803217602
 20
119.97764868768762
 30
0.0
 10
90.826727681856823
 20
119.84054369958947
 30
0.0
 10
90.826727681856823
 20
119.60315985712121
 30
0.0
  0
SPLINE
  5
92
102
{ACAD_REACTORS
330
31
102
}
100
AcDbEntity
  8
0
  6
CONTINUOUS
100
AcDbSpline
210
0.0
220
0.0
230
1.0
 70
     8
 71
     2
 72
     6
 73
     3
 74
     0
 42
0.0000001
 43
0.0000001
 40
0.0
 40
0.0
 40
0.0
 40
1.0
 40
1.0
 40
1.0
 10
90.826727681856823
 20
119.60315985712121
 30
0.0
 10
90.826727681856823
 20
119.34736533197473
 30
0.0
 10
90.929046803217602
 20
119.20820994409631
 30
0.0
  0
SPLINE
  5
93
102
{ACAD_REACTORS
330
31
102
}
100
AcDbEntity
  8
0
  6
CONTINUOUS
100
AcDbSpline
210
0.0
220
0.0
230
1.0
 70
     8
 71
     2
 72
     6
 73
     3
 74
     0
 42
0.0000001
 43
0.0000001
 40
0.0
 40
0.0
 40
0.0
 40
1.0
 40
1.0
 40
1.0
 10
90.929046803217602
 20
119.20820994409631
 30
0.0
 10
91.031366222601605
 20
119.06905455621789
 30
0.0
 10
91.215540700655652
 20
119.01994032892297
 30
0.0
  0
SPLINE
  5
94
102
{ACAD_REACTORS
330
31
102
}
100
AcDbEntity
  8
0
  6
CONTINUOUS
100
AcDbSpline
210
0.0
220
0.0
230
1.0
 70
     8
 71
     2
 72
     6
 73
     3
 74
     0
 42
0.0000001
 43
0.0000001
 40
0.0
 40
0.0
 40
0.0
 40
1.0
 40
1.0
 40
1.0
 10
91.215540700655708
 20
119.01994032892297
 30
0.0
 10
91.328092151385079
 20
118.99129195245813
 30
0.0
 10
91.688255601626167
 20
118.99333758386682
 30
0.0
  0
SPLINE
  5
95
102
{ACAD_REACTORS
330
31
102
}
100
AcDbEntity
  8
0
  6
CONTINUOUS
100
AcDbSpline
210
0.0
220
0.0
230
1.0
 70
     8
 71
     2
 72
     6
 73
     3
 74
     0
 42
0.0000001
 43
0.0000001
 40
0.0
 40
0.0
 40
0.0
 40
1.0
 40
1.0
 40
1.0
 10
91.688255601626054
 20
118.99333758386682
 30
0.0
 10
91.403808229666367
 20
119.23481268915246
 30
0.0
 10
91.403808229666367
 20
119.59497733148645
 30
0.0
  0
SPLINE
  5
96
102
{ACAD_REACTORS
330
31
102
}
100
AcDbEntity
  8
0
  6
CONTINUOUS
100
AcDbSpline
210
0.0
220
0.0
230
1.0
 70
     8
 71
     2
 72
     6
 73
     3
 74
     0
 42
0.0000001
 43
0.0000001
 40
0.0
 40
0.0
 40
0.0
 40
1.0
 40
1.0
 40
1.0
 10
91.403808229666424
 20
119.59497733148643
 30
0.0
 10
91.403808229666424
 20
120.04313273462364
 30
0.0
 10
91.727136903505993
 20
120.28869910272667
 30
0.0
  0
SPLINE
  5
97
102
{ACAD_REACTORS
330
31
102
}
100
AcDbEntity
  8
0
  6
CONTINUOUS
100
AcDbSpline
210
0.0
220
0.0
230
1.0
 70
     8
 71
     2
 72
     6
 73
     3
 74
     0
 42
0.0000001
 43
0.0000001
 40
0.0
 40
0.0
 40
0.0
 40
1.0
 40
1.0
 40
1.0
 10
91.727136903505979
 20
120.28869910272668
 30
0.0
 10
92.050465875368772
 20
120.53426547082971
 30
0.0
 10
92.502716713648496
 20
120.53426547082971
 30
0.0
  0
SPLINE
  5
98
102
{ACAD_REACTORS
330
31
102
}
100
AcDbEntity
  8
0
  6
CONTINUOUS
100
AcDbSpline
210
0.0
220
0.0
230
1.0
 70
     8
 71
     2
 72
     6
 73
     3
 74
     0
 42
0.0000001
 43
0.0000001
 40
0.0
 40
0.0
 40
0.0
 40
1.0
 40
1.0
 40
1.0
 10
92.502716713648454
 20
120.53426547082971
 30
0.0
 10
92.813767128687516
 20
120.53426547082971
 30
0.0
 10
93.076727920275346
 20
120.42171759637903
 30
0.0
  0
SPLINE
  5
99
102
{ACAD_REACTORS
330
31
102
}
100
AcDbEntity
  8
0
  6
CONTINUOUS
100
AcDbSpline
210
0.0
220
0.0
230
1.0
 70
     8
 71
     2
 72
     6
 73
     3
 74
     0
 42
0.0000001
 43
0.0000001
 40
0.0
 40
0.0
 40
0.0
 40
1.0
 40
1.0
 40
1.0
 10
93.076727920275388
 20
120.42171759637903
 30
0.0
 10
93.339688264828382
 20
120.30916495355676
 30
0.0
 10
93.482935213547407
 20
120.0953177932174
 30
0.0
  0
SPLINE
  5
9A
102
{ACAD_REACTORS
330
31
102
}
100
AcDbEntity
  8
0
  6
CONTINUOUS
100
AcDbSpline
210
0.0
220
0.0
230
1.0
 70
     8
 71
     2
 72
     6
 73
     3
 74
     0
 42
0.0000001
 43
0.0000001
 40
0.0
 40
0.0
 40
0.0
 40
1.0
 40
1.0
 40
1.0
 10
93.482935213547421
 20
120.0953177932174
 30
0.0
 10
93.626182162266446
 20
119.88147063287805
 30
0.0
 10
93.626182162266446
 20
119.59292693170617
 30
0.0
  0
SPLINE
  5
9B
102
{ACAD_REACTORS
330
31
102
}
100
AcDbEntity
  8
0
  6
CONTINUOUS
100
AcDbSpline
210
0.0
220
0.0
230
1.0
 70
     8
 71
     2
 72
     6
 73
     3
 74
     0
 42
0.0000001
 43
0.0000001
 40
0.0
 40
0.0
 40
0.0
 40
1.0
 40
1.0
 40
1.0
 10
93.626182162266446
 20
119.59292693170617
 30
0.0
 10
93.626182162266446
 20
119.20820994409631
 30
0.0
 10
93.315131449204159
 20
118.9585523131759
 30
0.0
  0
LINE
  5
9C
102
{ACAD_REACTORS
330
31
102
}
100
AcDbEntity
  8
0
  6
CONTINUOUS
100
AcDbLine
 10
93.315131
 20
118.958552
 30
0.0
 11
93.577069
 21
118.958552
 31
0.0
  0
LINE
  5
9D
102
{ACAD_REACTORS
330
31
102
}
100
AcDbEntity
  8
0
  6
CONTINUOUS
100
AcDbLine
 10
93.577069
 20
118.958552
 30
0.0
 11
93.577069
 21
118.618854
 31
0.0
  0
LINE
  5
9E
102
{ACAD_REACTORS
330
31
102
}
100
AcDbEntity
  8
0
  6
CONTINUOUS
100
AcDbLine
 10
93.577069
 20
118.618854
 30
0.0
 11
91.698488
 21
118.618854
 31
0.0
  0
SPLINE
  5
9F
102
{ACAD_REACTORS
330
31
102
}
100
AcDbEntity
  8
0
  6
CONTINUOUS
100
AcDbSpline
210
0.0
220
0.0
230
1.0
 70
     8
 71
     2
 72
     6
 73
     3
 74
     0
 42
0.0000001
 43
0.0000001
 40
0.0
 40
0.0
 40
0.0
 40
1.0
 40
1.0
 40
1.0
 10
91.698487632971478
 20
118.61885352167199
 30
0.0
 10
91.190984183054638
 20
118.61885352167199
 30
0.0
 10
90.979183250170422
 20
118.72219367059778
 30
0.0
  0
SPLINE
  5
A0
102
{ACAD_REACTORS
330
31
102
}
100
AcDbEntity
  8
0
  6
CONTINUOUS
100
AcDbSpline
210
0.0
220
0.0
230
1.0
 70
     8
 71
     2
 72
     6
 73
     3
 74
     0
 42
0.0000001
 43
0.0000001
 40
0.0
 40
0.0
 40
0.0
 40
1.0
 40
1.0
 40
1.0
 10
90.979183250170351
 20
118.72219367059778
 30
0.0
 10
90.767382615309359
 20
118.82553381952356
 30
0.0
 10
90.644599431257845
 20
119.04961390527795
 30
0.0
  0
SPLINE
  5
A1
102
{ACAD_REACTORS
330
31
102
}
100
AcDbEntity
  8
0
  6
CONTINUOUS
100
AcDbSpline
210
0.0
220
0.0
230
1.0
 70
     8
 71
     2
 72
     6
 73
     3
 74
     0
 42
0.0000001
 43
0.0000001
 40
0.0
 40
0.0
 40
0.0
 40
1.0
 40
1.0
 40
1.0
 10
90.644599431257973
 20
119.04961390527795
 30
0.0
 10
90.521816545229683
 20
119.27369399103235
 30
0.0
 10
90.521816545229683
 20
119.60111422571252
 30
0.0
  0
SPLINE
  5
A2
102
{ACAD_REACTORS
330
31
102
}
100
AcDbEntity
  8
0
  6
CONTINUOUS
100
AcDbSpline
210
0.0
220
0.0
230
1.0
 70
     8
 71
     2
 72
     6
 73
     3
 74
     0
 42
0.0000001
 43
0.0000001
 40
0.0
 40
0.0
 40
0.0
 40
1.0
 40
1.0
 40
1.0
 10
90.521816545229569
 20
119.60111422571254
 30
0.0
 10
90.521816545229569
 20
119.98992724451136
 30
0.0
 10
90.696782403689042
 20
120.22935671838832
 30
0.0
  0
SPLINE
  5
A3
102
{ACAD_REACTORS
330
31
102
}
100
AcDbEntity
  8
0
  6
CONTINUOUS
100
AcDbSpline
210
0.0
220
0.0
230
1.0
 70
     8
 71
     2
 72
     6
 73
     3
 74
     0
 42
0.0000001
 43
0.0000001
 40
0.0
 40
0.0
 40
0.0
 40
1.0
 40
1.0
 40
1.0
 10
90.696782403689156
 20
120.2293567183883
 30
0.0
 10
90.871748262148628
 20
120.46878142389367
 30
0.0
 10
91.223726206522713
 20
120.46059889825891
 30
0.0
  0
SPLINE
  5
A4
102
{ACAD_REACTORS
330
31
102
}
100
AcDbEntity
  8
0
  6
CONTINUOUS
100
AcDbSpline
210
0.0
220
0.0
230
1.0
 70
     8
 71
     2
 72
     6
 73
     3
 74
     0
 42
0.0000001
 43
0.0000001
 40
0.0
 40
0.0
 40
0.0
 40
1.0
 40
1.0
 40
1.0
 10
92.529320054751054
 20
120.15568537744592
 30
0.0
 10
92.101625436049119
 20
120.15568537744592
 30
0.0
 10
91.905172401171342
 20
119.98583598169397
 30
0.0
  0
SPLINE
  5
A5
102
{ACAD_REACTORS
330
31
102
}
100
AcDbEntity
  8
0
  6
CONTINUOUS
100
AcDbSpline
210
0.0
220
0.0
230
1.0
 70
     8
 71
     2
 72
     6
 73
     3
 74
     0
 42
0.0000001
 43
0.0000001
 40
0.0
 40
0.0
 40
0.0
 40
1.0
 40
1.0
 40
1.0
 10
91.905172401171399
 20
119.98583598169397
 30
0.0
 10
91.708719664316845
 20
119.81598658594201
 30
0.0
 10
91.708719664316845
 20
119.56018729242395
 30
0.0
  0
SPLINE
  5
A6
102
{ACAD_REACTORS
330
31
102
}
100
AcDbEntity
  8
0
  6
CONTINUOUS
100
AcDbSpline
210
0.0
220
0.0
230
1.0
 70
     8
 71
     2
 72
     6
 73
     3
 74
     0
 42
0.0000001
 43
0.0000001
 40
0.0
 40
0.0
 40
0.0
 40
1.0
 40
1.0
 40
1.0
 10
91.708719664316845
 20
119.56018729242395
 30
0.0
 10
91.708719664316845
 20
119.30643363031457
 30
0.0
 10
91.904149287443829
 20
119.13453860315393
 30
0.0
  0
SPLINE
  5
A7
102
{ACAD_REACTORS
330
31
102
}
100
AcDbEntity
  8
0
  6
CONTINUOUS
100
AcDbSpline
210
0.0
220
0.0
230
1.0
 70
     8
 71
     2
 72
     6
 73
     3
 74
     0
 42
0.0000001
 43
0.0000001
 40
0.0
 40
0.0
 40
0.0
 40
1.0
 40
1.0
 40
1.0
 10
91.904149287443829
 20
119.13453860315393
 30
0.0
 10
92.099578910570813
 20
118.96264357599328
 30
0.0
 10
92.51704149792738
 20
118.96264357599328
 30
0.0
  0
SPLINE
  5
A8
102
{ACAD_REACTORS
330
31
102
}
100
AcDbEntity
  8
0
  6
CONTINUOUS
100
AcDbSpline
210
0.0
220
0.0
230
1.0
 70
     8
 71
     2
 72
     6
 73
     3
 74
     0
 42
0.0000001
 43
0.0000001
 40
0.0
 40
0.0
 40
0.0
 40
1.0
 40
1.0
 40
1.0
 10
92.517041497927437
 20
118.96264357599328
 30
0.0
 10
92.916086548071632
 20
118.96264357599328
 30
0.0
 10
93.118678712349663
 20
119.13965506586145
 30
0.0
  0
SPLINE
  5
A9
102
{ACAD_REACTORS
330
31
102
}
100
AcDbEntity
  8
0
  6
CONTINUOUS
100
AcDbSpline
210
0.0
220
0.0
230
1.0
 70
     8
 71
     2
 72
     6
 73
     3
 74
     0
 42
0.0000001
 43
0.0000001
 40
0.0
 40
0.0
 40
0.0
 40
1.0
 40
1.0
 40
1.0
 10
93.118678712349592
 20
119.13965506586143
 30
0.0
 10
93.32127072761601
 20
119.3166665557296
 30
0.0
 10
93.32127072761601
 20
119.56632895502159
 30
0.0
  0
SPLINE
  5
AA
102
{ACAD_REACTORS
330
31
102
}
100
AcDbEntity
  8
0
  6
CONTINUOUS
100
AcDbSpline
210
0.0
220
0.0
230
1.0
 70
     8
 71
     2
 72
     6
 73
     3
 74
     0
 42
0.0000001
 43
0.0000001
 40
0.0
 40
0.0
 40
0.0
 40
1.0
 40
1.0
 40
1.0
 10
93.321270727616081
 20
119.5663289550216
 30
0.0
 10
93.321270727616081
 20
119.81189055475305
 30
0.0
 10
93.121748351555595
 20
119.98379035028528
 30
0.0
  0
SPLINE
  5
AB
102
{ACAD_REACTORS
330
31
102
}
100
AcDbEntity
  8
0
  6
CONTINUOUS
100
AcDbSpline
210
0.0
220
0.0
230
1.0
 70
     8
 71
     2
 72
     6
 73
     3
 74
     0
 42
0.0000001
 43
0.0000001
 40
0.0
 40
0.0
 40
0.0
 40
1.0
 40
1.0
 40
1.0
 10
93.121748351555539
 20
119.98379035028528
 30
0.0
 10
92.922225528460217
 20
120.15568537744592
 30
0.0
 10
92.529320054751111
 20
120.15568537744592
 30
0.0
  0
LINE
  5
AC
102
{ACAD_REACTORS
330
31
102
}
100
AcDbEntity
  8
0
  6
CONTINUOUS
100
AcDbLine
 10
91.403808
 20
116.55814
 30
0.0
 11
91.403808
 21
116.899889
 31
0.0
  0
LINE
  5
AD
102
{ACAD_REACTORS
330
31
102
}
100
AcDbEntity
  8
0
  6
CONTINUOUS
100
AcDbLine
 10
91.403808
 20
116.899889
 30
0.0
 11
94.403808
 21
116.899889
 31
0.0
  0
LINE
  5
AE
102
{ACAD_REACTORS
330
31
102
}
100
AcDbEntity
  8
0
  6
CONTINUOUS
100
AcDbLine
 10
94.403808
 20
116.899889
 30
0.0
 11
94.403808
 21
116.531537
 31
0.0
  0
LINE
  5
AF
102
{ACAD_REACTORS
330
31
102
}
100
AcDbEntity
  8
0
  6
CONTINUOUS
100
AcDbLine
 10
94.403808
 20
116.531537
 30
0.0
 11
93.333549
 21
116.531537
 31
0.0
  0
SPLINE
  5
B0
102
{ACAD_REACTORS
330
31
102
}
100
AcDbEntity
  8
0
  6
CONTINUOUS
100
AcDbSpline
210
0.0
220
0.0
230
1.0
 70
     8
 71
     2
 72
     6
 73
     3
 74
     0
 42
0.0000001
 43
0.0000001
 40
0.0
 40
0.0
 40
0.0
 40
1.0
 40
1.0
 40
1.0
 10
93.333548986416588
 20
116.53153700861047
 30
0.0
 10
93.626182013254891
 20
116.29824919733117
 30
0.0
 10
93.626182013254891
 20
115.9360389235885
 30
0.0
  0
SPLINE
  5
B1
102
{ACAD_REACTORS
330
31
102
}
100
AcDbEntity
  8
0
  6
CONTINUOUS
100
AcDbSpline
210
0.0
220
0.0
230
1.0
 70
     8
 71
     2
 72
     6
 73
     3
 74
     0
 42
0.0000001
 43
0.0000001
 40
0.0
 40
0.0
 40
0.0
 40
1.0
 40
1.0
 40
1.0
 10
93.626182013254876
 20
115.9360389235885
 30
0.0
 10
93.626182013254876
 20
115.73549551996301
 30
0.0
 10
93.545349770289178
 20
115.55643363031457
 30
0.0
  0
SPLINE
  5
B2
102
{ACAD_REACTORS
330
31
102
}
100
AcDbEntity
  8
0
  6
CONTINUOUS
100
AcDbSpline
210
0.0
220
0.0
230
1.0
 70
     8
 71
     2
 72
     6
 73
     3
 74
     0
 42
0.0000001
 43
0.0000001
 40
0.0
 40
0.0
 40
0.0
 40
1.0
 40
1.0
 40
1.0
 10
93.545349770289135
 20
115.55643363031457
 30
0.0
 10
93.464517527323437
 20
115.37737650903772
 30
0.0
 10
93.318201088410092
 20
115.26175780328821
 30
0.0
  0
SPLINE
  5
B3
102
{ACAD_REACTORS
330
31
102
}
100
AcDbEntity
  8
0
  6
CONTINUOUS
100
AcDbSpline
210
0.0
220
0.0
230
1.0
 70
     8
 71
     2
 72
     6
 73
     3
 74
     0
 42
0.0000001
 43
0.0000001
 40
0.0
 40
0.0
 40
0.0
 40
1.0
 40
1.0
 40
1.0
 10
93.318201088410021
 20
115.26175780328821
 30
0.0
 10
93.171884649496675
 20
115.14613432916711
 30
0.0
 10
92.965199881296755
 20
115.08065028223108
 30
0.0
  0
SPLINE
  5
B4
102
{ACAD_REACTORS
330
31
102
}
100
AcDbEntity
  8
0
  6
CONTINUOUS
100
AcDbSpline
210
0.0
220
0.0
230
1.0
 70
     8
 71
     2
 72
     6
 73
     3
 74
     0
 42
0.0000001
 43
0.0000001
 40
0.0
 40
0.0
 40
0.0
 40
1.0
 40
1.0
 40
1.0
 10
92.965199881296826
 20
115.08065028223109
 30
0.0
 10
92.758514815073681
 20
115.01516623529506
 30
0.0
 10
92.523180478316021
 20
115.01516623529506
 30
0.0
  0
SPLINE
  5
B5
102
{ACAD_REACTORS
330
31
102
}
100
AcDbEntity
  8
0
  6
CONTINUOUS
100
AcDbSpline
210
0.0
220
0.0
230
1.0
 70
     8
 71
     2
 72
     6
 73
     3
 74
     0
 42
0.0000001
 43
0.0000001
 40
0.0
 40
0.0
 40
0.0
 40
1.0
 40
1.0
 40
1.0
 10
92.523180478316021
 20
115.01516623529506
 30
0.0
 10
91.964517765742016
 20
115.01516623529506
 30
0.0
 10
91.659606331091595
 20
115.29142661127162
 30
0.0
  0
SPLINE
  5
B6
102
{ACAD_REACTORS
330
31
102
}
100
AcDbEntity
  8
0
  6
CONTINUOUS
100
AcDbSpline
210
0.0
220
0.0
230
1.0
 70
     8
 71
     2
 72
     6
 73
     3
 74
     0
 42
0.0000001
 43
0.0000001
 40
0.0
 40
0.0
 40
0.0
 40
1.0
 40
1.0
 40
1.0
 10
91.659606331091638
 20
115.2914266112716
 30
0.0
 10
91.354694896441217
 20
115.56769175561975
 30
0.0
 10
91.354694896441217
 20
115.95445914300988
 30
0.0
  0
SPLINE
  5
B7
102
{ACAD_REACTORS
330
31
102
}
100
AcDbEntity
  8
0
  6
CONTINUOUS
100
AcDbSpline
210
0.0
220
0.0
230
1.0
 70
     8
 71
     2
 72
     6
 73
     3
 74
     0
 42
0.0000001
 43
0.0000001
 40
0.0
 40
0.0
 40
0.0
 40
1.0
 40
1.0
 40
1.0
 10
91.354694896441231
 20
115.95445914300988
 30
0.0
 10
91.354694896441231
 20
116.33918089899133
 30
0.0
 10
91.675977342825661
 20
116.55813975366662
 30
0.0
  0
LINE
  5
B8
102
{ACAD_REACTORS
330
31
102
}
100
AcDbEntity
  8
0
  6
CONTINUOUS
100
AcDbLine
 10
91.675977
 20
116.55814
 30
0.0
 11
91.403808
 21
116.55814
 31
0.0
  0
SPLINE
  5
B9
102
{ACAD_REACTORS
330
31
102
}
100
AcDbEntity
  8
0
  6
CONTINUOUS
100
AcDbSpline
210
0.0
220
0.0
230
1.0
 70
     8
 71
     2
 72
     6
 73
     3
 74
     0
 42
0.0000001
 43
0.0000001
 40
0.0
 40
0.0
 40
0.0
 40
1.0
 40
1.0
 40
1.0
 10
92.506809466582069
 20
116.56223578485559
 30
0.0
 10
92.115949922304878
 20
116.56223578485559
 30
0.0
 10
91.942007475596199
 20
116.45582480463098
 30
0.0
  0
SPLINE
  5
BA
102
{ACAD_REACTORS
330
31
102
}
100
AcDbEntity
  8
0
  6
CONTINUOUS
100
AcDbSpline
210
0.0
220
0.0
230
1.0
 70
     8
 71
     2
 72
     6
 73
     3
 74
     0
 42
0.0000001
 43
0.0000001
 40
0.0
 40
0.0
 40
0.0
 40
1.0
 40
1.0
 40
1.0
 10
91.942007475596199
 20
116.45582480463098
 30
0.0
 10
91.657559805613289
 20
116.28187937769006
 30
0.0
 10
91.657559805613289
 20
115.98515315088342
 30
0.0
  0
SPLINE
  5
BB
102
{ACAD_REACTORS
330
31
102
}
100
AcDbEntity
  8
0
  6
CONTINUOUS
100
AcDbSpline
210
0.0
220
0.0
230
1.0
 70
     8
 71
     2
 72
     6
 73
     3
 74
     0
 42
0.0000001
 43
0.0000001
 40
0.0
 40
0.0
 40
0.0
 40
1.0
 40
1.0
 40
1.0
 10
91.657559805613289
 20
115.98515315088342
 30
0.0
 10
91.657559805613289
 20
115.74367804559778
 30
0.0
 10
91.867314511042366
 20
115.56769175561975
 30
0.0
  0
SPLINE
  5
BC
102
{ACAD_REACTORS
330
31
102
}
100
AcDbEntity
  8
0
  6
CONTINUOUS
100
AcDbSpline
210
0.0
220
0.0
230
1.0
 70
     8
 71
     2
 72
     6
 73
     3
 74
     0
 42
0.0000001
 43
0.0000001
 40
0.0
 40
0.0
 40
0.0
 40
1.0
 40
1.0
 40
1.0
 10
91.867314511042309
 20
115.56769175561975
 30
0.0
 10
92.077068620424939
 20
115.39170069727014
 30
0.0
 10
92.492484980326367
 20
115.39170069727014
 30
0.0
  0
SPLINE
  5
BD
102
{ACAD_REACTORS
330
31
102
}
100
AcDbEntity
  8
0
  6
CONTINUOUS
100
AcDbSpline
210
0.0
220
0.0
230
1.0
 70
     8
 71
     2
 72
     6
 73
     3
 74
     0
 42
0.0000001
 43
0.0000001
 40
0.0
 40
0.0
 40
0.0
 40
1.0
 40
1.0
 40
1.0
 10
92.49248498032631
 20
115.39170069727014
 30
0.0
 10
92.918133073549882
 20
115.39170069727014
 30
0.0
 10
93.120724939804688
 20
115.56052966150354
 30
0.0
  0
SPLINE
  5
BE
102
{ACAD_REACTORS
330
31
102
}
100
AcDbEntity
  8
0
  6
CONTINUOUS
100
AcDbSpline
210
0.0
220
0.0
230
1.0
 70
     8
 71
     2
 72
     6
 73
     3
 74
     0
 42
0.0000001
 43
0.0000001
 40
0.0
 40
0.0
 40
0.0
 40
1.0
 40
1.0
 40
1.0
 10
93.120724939804674
 20
115.56052966150354
 30
0.0
 10
93.323317104082705
 20
115.72935385736535
 30
0.0
 10
93.323317104082705
 20
115.96878333124231
 30
0.0
  0
SPLINE
  5
BF
102
{ACAD_REACTORS
330
31
102
}
100
AcDbEntity
  8
0
  6
CONTINUOUS
100
AcDbSpline
210
0.0
220
0.0
230
1.0
 70
     8
 71
     2
 72
     6
 73
     3
 74
     0
 42
0.0000001
 43
0.0000001
 40
0.0
 40
0.0
 40
0.0
 40
1.0
 40
1.0
 40
1.0
 10
93.323317104082776
 20
115.96878333124231
 30
0.0
 10
93.323317104082776
 20
116.21025366815637
 30
0.0
 10
93.113562696676922
 20
116.38624472650598
 30
0.0
  0
SPLINE
  5
C0
102
{ACAD_REACTORS
330
31
102
}
100
AcDbEntity
  8
0
  6
CONTINUOUS
100
AcDbSpline
210
0.0
220
0.0
230
1.0
 70
     8
 71
     2
 72
     6
 73
     3
 74
     0
 42
0.0000001
 43
0.0000001
 40
0.0
 40
0.0
 40
0.0
 40
1.0
 40
1.0
 40
1.0
 10
93.113562696676865
 20
116.38624472650598
 30
0.0
 10
92.903808289271012
 20
116.56223578485559
 30
0.0
 10
92.506809466581956
 20
116.56223578485559
 30
0.0
  0
SPLINE
  5
C1
102
{ACAD_REACTORS
330
31
102
}
100
AcDbEntity
  8
0
  6
CONTINUOUS
100
AcDbSpline
210
0.0
220
0.0
230
1.0
 70
     8
 71
     2
 72
     6
 73
     3
 74
     0
 42
0.0000001
 43
0.0000001
 40
0.0
 40
0.0
 40
0.0
 40
1.0
 40
1.0
 40
1.0
 10
92.490438454847947
 20
114.70411582025598
 30
0.0
 10
93.094122045736924
 20
114.70411582025598
 30
0.0
 10
93.384708696108476
 20
114.36850829156946
 30
0.0
  0
SPLINE
  5
C2
102
{ACAD_REACTORS
330
31
102
}
100
AcDbEntity
  8
0
  6
CONTINUOUS
100
AcDbSpline
210
0.0
220
0.0
230
1.0
 70
     8
 71
     2
 72
     6
 73
     3
 74
     0
 42
0.0000001
 43
0.0000001
 40
0.0
 40
0.0
 40
0.0
 40
1.0
 40
1.0
 40
1.0
 10
93.384708696108575
 20
114.36850829156946
 30
0.0
 10
93.626182162266488
 20
114.08815665277551
 30
0.0
 10
93.626182162266488
 20
113.68501944574426
 30
0.0
  0
SPLINE
  5
C3
102
{ACAD_REACTORS
330
31
102
}
100
AcDbEntity
  8
0
  6
CONTINUOUS
100
AcDbSpline
210
0.0
220
0.0
230
1.0
 70
     8
 71
     2
 72
     6
 73
     3
 74
     0
 42
0.0000001
 43
0.0000001
 40
0.0
 40
0.0
 40
0.0
 40
1.0
 40
1.0
 40
1.0
 10
93.626182162266446
 20
113.68501944574426
 30
0.0
 10
93.626182162266446
 20
113.23685927423547
 30
0.0
 10
93.332525872688961
 20
112.95241160425256
 30
0.0
  0
SPLINE
  5
C4
102
{ACAD_REACTORS
330
31
102
}
100
AcDbEntity
  8
0
  6
CONTINUOUS
100
AcDbSpline
210
0.0
220
0.0
230
1.0
 70
     8
 71
     2
 72
     6
 73
     3
 74
     0
 42
0.0000001
 43
0.0000001
 40
0.0
 40
0.0
 40
0.0
 40
1.0
 40
1.0
 40
1.0
 10
93.332525872688947
 20
112.95241160425256
 30
0.0
 10
93.038869732123075
 20
112.66796393426965
 30
0.0
 10
92.521134250860868
 20
112.66796393426965
 30
0.0
  0
SPLINE
  5
C5
102
{ACAD_REACTORS
330
31
102
}
100
AcDbEntity
  8
0
  6
CONTINUOUS
100
AcDbSpline
210
0.0
220
0.0
230
1.0
 70
     8
 71
     2
 72
     6
 73
     3
 74
     0
 42
0.0000001
 43
0.0000001
 40
0.0
 40
0.0
 40
0.0
 40
1.0
 40
1.0
 40
1.0
 10
92.521134250860825
 20
112.66796393426965
 30
0.0
 10
92.101625436049119
 20
112.66796393426965
 30
0.0
 10
91.861175232630387
 20
112.79382033380578
 30
0.0
  0
SPLINE
  5
C6
102
{ACAD_REACTORS
330
31
102
}
100
AcDbEntity
  8
0
  6
CONTINUOUS
100
AcDbSpline
210
0.0
220
0.0
230
1.0
 70
     8
 71
     2
 72
     6
 73
     3
 74
     0
 42
0.0000001
 43
0.0000001
 40
0.0
 40
0.0
 40
0.0
 40
1.0
 40
1.0
 40
1.0
 10
91.861175232630444
 20
112.79382033380578
 30
0.0
 10
91.620725029211712
 20
112.91966719659875
 30
0.0
 10
91.487710111838055
 20
113.16011710199426
 30
0.0
  0
SPLINE
  5
C7
102
{ACAD_REACTORS
330
31
102
}
100
AcDbEntity
  8
0
  6
CONTINUOUS
100
AcDbSpline
210
0.0
220
0.0
230
1.0
 70
     8
 71
     2
 72
     6
 73
     3
 74
     0
 42
0.0000001
 43
0.0000001
 40
0.0
 40
0.0
 40
0.0
 40
1.0
 40
1.0
 40
1.0
 10
91.487710111838055
 20
113.16011710199426
 30
0.0
 10
91.354694896441174
 20
113.40056700738977
 30
0.0
 10
91.354694896441174
 20
113.68501944574426
 30
0.0
  0
SPLINE
  5
C8
102
{ACAD_REACTORS
330
31
102
}
100
AcDbEntity
  8
0
  6
CONTINUOUS
100
AcDbSpline
210
0.0
220
0.0
230
1.0
 70
     8
 71
     2
 72
     6
 73
     3
 74
     0
 42
0.0000001
 43
0.0000001
 40
0.0
 40
0.0
 40
0.0
 40
1.0
 40
1.0
 40
1.0
 10
91.35469489644116
 20
113.68501944574426
 30
0.0
 10
91.35469489644116
 20
114.14136214288781
 30
0.0
 10
91.647328072291074
 20
114.4227389815719
 30
0.0
  0
SPLINE
  5
C9
102
{ACAD_REACTORS
330
31
102
}
100
AcDbEntity
  8
0
  6
CONTINUOUS
100
AcDbSpline
210
0.0
220
0.0
230
1.0
 70
     8
 71
     2
 72
     6
 73
     3
 74
     0
 42
0.0000001
 43
0.0000001
 40
0.0
 40
0.0
 40
0.0
 40
1.0
 40
1.0
 40
1.0
 10
91.647328072291089
 20
114.4227389815719
 30
0.0
 10
91.939960950117779
 20
114.70411582025598
 30
0.0
 10
92.490438454848004
 20
114.70411582025598
 30
0.0
  0
SPLINE
  5
CA
102
{ACAD_REACTORS
330
31
102
}
100
AcDbEntity
  8
0
  6
CONTINUOUS
100
AcDbSpline
210
0.0
220
0.0
230
1.0
 70
     8
 71
     2
 72
     6
 73
     3
 74
     0
 42
0.0000001
 43
0.0000001
 40
0.0
 40
0.0
 40
0.0
 40
1.0
 40
1.0
 40
1.0
 10
92.490438454848046
 20
114.32553572687219
 30
0.0
 10
92.072976165514703
 20
114.32553572687219
 30
0.0
 10
91.865267985563989
 20
114.14340777429651
 30
0.0
  0
SPLINE
  5
CB
102
{ACAD_REACTORS
330
31
102
}
100
AcDbEntity
  8
0
  6
CONTINUOUS
100
AcDbSpline
210
0.0
220
0.0
230
1.0
 70
     8
 71
     2
 72
     6
 73
     3
 74
     0
 42
0.0000001
 43
0.0000001
 40
0.0
 40
0.0
 40
0.0
 40
1.0
 40
1.0
 40
1.0
 10
91.865267985563989
 20
114.14340777429651
 30
0.0
 10
91.657559805613275
 20
113.96127982172082
 30
0.0
 10
91.657559805613275
 20
113.68501944574426
 30
0.0
  0
SPLINE
  5
CC
102
{ACAD_REACTORS
330
31
102
}
100
AcDbEntity
  8
0
  6
CONTINUOUS
100
AcDbSpline
210
0.0
220
0.0
230
1.0
 70
     8
 71
     2
 72
     6
 73
     3
 74
     0
 42
0.0000001
 43
0.0000001
 40
0.0
 40
0.0
 40
0.0
 40
1.0
 40
1.0
 40
1.0
 10
91.657559805613289
 20
113.68501944574426
 30
0.0
 10
91.657559805613289
 20
113.41079993280481
 30
0.0
 10
91.866291099291573
 20
113.22867674860071
 30
0.0
  0
SPLINE
  5
CD
102
{ACAD_REACTORS
330
31
102
}
100
AcDbEntity
  8
0
  6
CONTINUOUS
100
AcDbSpline
210
0.0
220
0.0
230
1.0
 70
     8
 71
     2
 72
     6
 73
     3
 74
     0
 42
0.0000001
 43
0.0000001
 40
0.0
 40
0.0
 40
0.0
 40
1.0
 40
1.0
 40
1.0
 10
91.866291099291516
 20
113.22867674860071
 30
0.0
 10
92.0750223929698
 20
113.04654402765344
 30
0.0
 10
92.50271671364851
 20
113.04654402765344
 30
0.0
  0
SPLINE
  5
CE
102
{ACAD_REACTORS
330
31
102
}
100
AcDbEntity
  8
0
  6
CONTINUOUS
100
AcDbSpline
210
0.0
220
0.0
230
1.0
 70
     8
 71
     2
 72
     6
 73
     3
 74
     0
 42
0.0000001
 43
0.0000001
 40
0.0
 40
0.0
 40
0.0
 40
1.0
 40
1.0
 40
1.0
 10
92.50271671364851
 20
113.04654402765344
 30
0.0
 10
92.905854516726208
 20
113.04654402765344
 30
0.0
 10
93.113562696676922
 20
113.22969718011926
 30
0.0
  0
SPLINE
  5
CF
102
{ACAD_REACTORS
330
31
102
}
100
AcDbEntity
  8
0
  6
CONTINUOUS
100
AcDbSpline
210
0.0
220
0.0
230
1.0
 70
     8
 71
     2
 72
     6
 73
     3
 74
     0
 42
0.0000001
 43
0.0000001
 40
0.0
 40
0.0
 40
0.0
 40
1.0
 40
1.0
 40
1.0
 10
93.113562696676979
 20
113.22969718011926
 30
0.0
 10
93.321270727616081
 20
113.41285033258508
 30
0.0
 10
93.321270727616081
 20
113.68501944574426
 30
0.0
  0
SPLINE
  5
D0
102
{ACAD_REACTORS
330
31
102
}
100
AcDbEntity
  8
0
  6
CONTINUOUS
100
AcDbSpline
210
0.0
220
0.0
230
1.0
 70
     8
 71
     2
 72
     6
 73
     3
 74
     0
 42
0.0000001
 43
0.0000001
 40
0.0
 40
0.0
 40
0.0
 40
1.0
 40
1.0
 40
1.0
 10
93.321270727615953
 20
113.68501944574426
 30
0.0
 10
93.321270727615953
 20
113.96127982172082
 30
0.0
 10
93.114585810404421
 20
114.14340777429651
 30
0.0
  0
SPLINE
  5
D1
102
{ACAD_REACTORS
330
31
102
}
100
AcDbEntity
  8
0
  6
CONTINUOUS
100
AcDbSpline
210
0.0
220
0.0
230
1.0
 70
     8
 71
     2
 72
     6
 73
     3
 74
     0
 42
0.0000001
 43
0.0000001
 40
0.0
 40
0.0
 40
0.0
 40
1.0
 40
1.0
 40
1.0
 10
93.114585810404492
 20
114.14340777429651
 30
0.0
 10
92.907901042204571
 20
114.32553572687219
 30
0.0
 10
92.490438454848004
 20
114.32553572687219
 30
0.0
  0
LINE
  5
D2
102
{ACAD_REACTORS
330
31
102
}
100
AcDbEntity
  8
0
  6
CONTINUOUS
100
AcDbLine
 10
91.733276
 20
111.43195
 30
0.0
 11
91.407901
 21
111.378739
 31
0.0
  0
SPLINE
  5
D3
102
{ACAD_REACTORS
330
31
102
}
100
AcDbEntity
  8
0
  6
CONTINUOUS
100
AcDbSpline
210
0.0
220
0.0
230
1.0
 70
     8
 71
     2
 72
     6
 73
     3
 74
     0
 42
0.0000001
 43
0.0000001
 40
0.0
 40
0.0
 40
0.0
 40
1.0
 40
1.0
 40
1.0
 10
91.407900982599912
 20
111.37873930963586
 30
0.0
 10
91.375158959131895
 20
111.53426451715539
 30
0.0
 10
91.375158959131895
 20
111.6570500853927
 30
0.0
  0
SPLINE
  5
D4
102
{ACAD_REACTORS
330
31
102
}
100
AcDbEntity
  8
0
  6
CONTINUOUS
100
AcDbSpline
210
0.0
220
0.0
230
1.0
 70
     8
 71
     2
 72
     6
 73
     3
 74
     0
 42
0.0000001
 43
0.0000001
 40
0.0
 40
0.0
 40
0.0
 40
1.0
 40
1.0
 40
1.0
 10
91.375158959131852
 20
111.6570500853927
 30
0.0
 10
91.375158959131852
 20
111.85759825738977
 30
0.0
 10
91.438596778612748
 20
111.96810050043176
 30
0.0
  0
SPLINE
  5
D5
102
{ACAD_REACTORS
330
31
102
}
100
AcDbEntity
  8
0
  6
CONTINUOUS
100
AcDbSpline
210
0.0
220
0.0
230
1.0
 70
     8
 71
     2
 72
     6
 73
     3
 74
     0
 42
0.0000001
 43
0.0000001
 40
0.0
 40
0.0
 40
0.0
 40
1.0
 40
1.0
 40
1.0
 10
91.438596778612776
 20
111.96810050043176
 30
0.0
 10
91.502034598093672
 20
112.07860274347375
 30
0.0
 10
91.605377131205245
 20
112.12362570795129
 30
0.0
  0
SPLINE
  5
D6
102
{ACAD_REACTORS
330
31
102
}
100
AcDbEntity
  8
0
  6
CONTINUOUS
100
AcDbSpline
210
0.0
220
0.0
230
1.0
 70
     8
 71
     2
 72
     6
 73
     3
 74
     0
 42
0.0000001
 43
0.0000001
 40
0.0
 40
0.0
 40
0.0
 40
1.0
 40
1.0
 40
1.0
 10
91.605377131205273
 20
112.12362570795131
 30
0.0
 10
91.708719664316845
 20
112.16864867242884
 30
0.0
 10
92.040233844023419
 20
112.16864867242884
 30
0.0
  0
LINE
  5
D7
102
{ACAD_REACTORS
330
31
102
}
100
AcDbEntity
  8
0
  6
CONTINUOUS
100
AcDbLine
 10
92.040234
 20
112.168649
 30
0.0
 11
93.290575
 21
112.168649
 31
0.0
  0
LINE
  5
D8
102
{ACAD_REACTORS
330
31
102
}
100
AcDbEntity
  8
0
  6
CONTINUOUS
100
AcDbLine
 10
93.290575
 20
112.168649
 30
0.0
 11
93.290575
 21
112.438767
 31
0.0
  0
LINE
  5
D9
102
{ACAD_REACTORS
330
31
102
}
100
AcDbEntity
  8
0
  6
CONTINUOUS
100
AcDbLine
 10
93.290575
 20
112.438767
 30
0.0
 11
93.577069
 21
112.438767
 31
0.0
  0
LINE
  5
DA
102
{ACAD_REACTORS
330
31
102
}
100
AcDbEntity
  8
0
  6
CONTINUOUS
100
AcDbLine
 10
93.577069
 20
112.438767
 30
0.0
 11
93.577069
 21
112.168649
 31
0.0
  0
LINE
  5
DB
102
{ACAD_REACTORS
330
31
102
}
100
AcDbEntity
  8
0
  6
CONTINUOUS
100
AcDbLine
 10
93.577069
 20
112.168649
 30
0.0
 11
94.115268
 21
112.168649
 31
0.0
  0
LINE
  5
DC
102
{ACAD_REACTORS
330
31
102
}
100
AcDbEntity
  8
0
  6
CONTINUOUS
100
AcDbLine
 10
94.115268
 20
112.168649
 30
0.0
 11
94.336278
 21
111.802342
 31
0.0
  0
LINE
  5
DD
102
{ACAD_REACTORS
330
31
102
}
100
AcDbEntity
  8
0
  6
CONTINUOUS
100
AcDbLine
 10
94.336278
 20
111.802342
 30
0.0
 11
93.577069
 21
111.802342
 31
0.0
  0
LINE
  5
DE
102
{ACAD_REACTORS
330
31
102
}
100
AcDbEntity
  8
0
  6
CONTINUOUS
100
AcDbLine
 10
93.577069
 20
111.802342
 30
0.0
 11
93.577069
 21
111.43195
 31
0.0
  0
LINE
  5
DF
102
{ACAD_REACTORS
330
31
102
}
100
AcDbEntity
  8
0
  6
CONTINUOUS
100
AcDbLine
 10
93.577069
 20
111.43195
 30
0.0
 11
93.290575
 21
111.43195
 31
0.0
  0
LINE
  5
E0
102
{ACAD_REACTORS
330
31
102
}
100
AcDbEntity
  8
0
  6
CONTINUOUS
100
AcDbLine
 10
93.290575
 20
111.43195
 30
0.0
 11
93.290575
 21
111.802342
 31
0.0
  0
LINE
  5
E1
102
{ACAD_REACTORS
330
31
102
}
100
AcDbEntity
  8
0
  6
CONTINUOUS
100
AcDbLine
 10
93.290575
 20
111.802342
 30
0.0
 11
92.01977
 21
111.802342
 31
0.0
  0
SPLINE
  5
E2
102
{ACAD_REACTORS
330
31
102
}
100
AcDbEntity
  8
0
  6
CONTINUOUS
100
AcDbSpline
210
0.0
220
0.0
230
1.0
 70
     8
 71
     2
 72
     6
 73
     3
 74
     0
 42
0.0000001
 43
0.0000001
 40
0.0
 40
0.0
 40
0.0
 40
1.0
 40
1.0
 40
1.0
 10
92.019770079355908
 20
111.80234236749719
 30
0.0
 10
91.862198346358014
 20
111.80234236749719
 30
0.0
 10
91.817178064089489
 20
111.78290648492883
 30
0.0
  0
SPLINE
  5
E3
102
{ACAD_REACTORS
330
31
102
}
100
AcDbEntity
  8
0
  6
CONTINUOUS
100
AcDbSpline
210
0.0
220
0.0
230
1.0
 70
     8
 71
     2
 72
     6
 73
     3
 74
     0
 42
0.0000001
 43
0.0000001
 40
0.0
 40
0.0
 40
0.0
 40
1.0
 40
1.0
 40
1.0
 10
91.817178064089489
 20
111.78290648492882
 30
0.0
 10
91.772157483797741
 20
111.76346106561729
 30
0.0
 10
91.745554440718365
 20
111.71946806940147
 30
0.0
  0
SPLINE
  5
E4
102
{ACAD_REACTORS
330
31
102
}
100
AcDbEntity
  8
0
  6
CONTINUOUS
100
AcDbSpline
210
0.0
220
0.0
230
1.0
 70
     8
 71
     2
 72
     6
 73
     3
 74
     0
 42
0.0000001
 43
0.0000001
 40
0.0
 40
0.0
 40
0.0
 40
1.0
 40
1.0
 40
1.0
 10
91.745554440718422
 20
111.71946806940149
 30
0.0
 10
91.718951397639046
 20
111.6754655364425
 30
0.0
 10
91.718951397639046
 20
111.59361166986535
 30
0.0
  0
SPLINE
  5
E5
102
{ACAD_REACTORS
330
31
102
}
100
AcDbEntity
  8
0
  6
CONTINUOUS
100
AcDbSpline
210
0.0
220
0.0
230
1.0
 70
     8
 71
     2
 72
     6
 73
     3
 74
     0
 42
0.0000001
 43
0.0000001
 40
0.0
 40
0.0
 40
0.0
 40
1.0
 40
1.0
 40
1.0
 10
91.718951397638989
 20
111.59361166986535
 30
0.0
 10
91.718951397638989
 20
111.53222365411828
 30
0.0
 10
91.733276181917859
 20
111.43194956811975
 30
0.0
  0
LINE
  5
E6
102
{ACAD_REACTORS
330
31
102
}
100
AcDbEntity
  8
0
  6
CONTINUOUS
100
AcDbLine
 10
91.733276
 20
110.267556
 30
0.0
 11
91.407901
 21
110.214351
 31
0.0
  0
SPLINE
  5
E7
102
{ACAD_REACTORS
330
31
102
}
100
AcDbEntity
  8
0
  6
CONTINUOUS
100
AcDbSpline
210
0.0
220
0.0
230
1.0
 70
     8
 71
     2
 72
     6
 73
     3
 74
     0
 42
0.0000001
 43
0.0000001
 40
0.0
 40
0.0
 40
0.0
 40
1.0
 40
1.0
 40
1.0
 10
91.407900982599912
 20
110.21435065301965
 30
0.0
 10
91.375158959131895
 20
110.36987586053918
 30
0.0
 10
91.375158959131895
 20
110.4926566604049
 30
0.0
  0
SPLINE
  5
E8
102
{ACAD_REACTORS
330
31
102
}
100
AcDbEntity
  8
0
  6
CONTINUOUS
100
AcDbSpline
210
0.0
220
0.0
230
1.0
 70
     8
 71
     2
 72
     6
 73
     3
 74
     0
 42
0.0000001
 43
0.0000001
 40
0.0
 40
0.0
 40
0.0
 40
1.0
 40
1.0
 40
1.0
 10
91.375158959131852
 20
110.4926566604049
 30
0.0
 10
91.375158959131852
 20
110.69320006403039
 30
0.0
 10
91.438596778612748
 20
110.80370707544397
 30
0.0
  0
SPLINE
  5
E9
102
{ACAD_REACTORS
330
31
102
}
100
AcDbEntity
  8
0
  6
CONTINUOUS
100
AcDbSpline
210
0.0
220
0.0
230
1.0
 70
     8
 71
     2
 72
     6
 73
     3
 74
     0
 42
0.0000001
 43
0.0000001
 40
0.0
 40
0.0
 40
0.0
 40
1.0
 40
1.0
 40
1.0
 10
91.438596778612776
 20
110.80370707544397
 30
0.0
 10
91.502034598093672
 20
110.91421408685754
 30
0.0
 10
91.605377131205245
 20
110.9592322829635
 30
0.0
  0
SPLINE
  5
EA
102
{ACAD_REACTORS
330
31
102
}
100
AcDbEntity
  8
0
  6
CONTINUOUS
100
AcDbSpline
210
0.0
220
0.0
230
1.0
 70
     8
 71
     2
 72
     6
 73
     3
 74
     0
 42
0.0000001
 43
0.0000001
 40
0.0
 40
0.0
 40
0.0
 40
1.0
 40
1.0
 40
1.0
 10
91.605377131205273
 20
110.9592322829635
 30
0.0
 10
91.708719664316845
 20
111.00425047906946
 30
0.0
 10
92.040233844023419
 20
111.00425047906946
 30
0.0
  0
LINE
  5
EB
102
{ACAD_REACTORS
330
31
102
}
100
AcDbEntity
  8
0
  6
CONTINUOUS
100
AcDbLine
 10
92.040234
 20
111.00425
 30
0.0
 11
93.290575
 21
111.00425
 31
0.0
  0
LINE
  5
EC
102
{ACAD_REACTORS
330
31
102
}
100
AcDbEntity
  8
0
  6
CONTINUOUS
100
AcDbLine
 10
93.290575
 20
111.00425
 30
0.0
 11
93.290575
 21
111.274379
 31
0.0
  0
LINE
  5
ED
102
{ACAD_REACTORS
330
31
102
}
100
AcDbEntity
  8
0
  6
CONTINUOUS
100
AcDbLine
 10
93.290575
 20
111.274379
 30
0.0
 11
93.577069
 21
111.274379
 31
0.0
  0
LINE
  5
EE
102
{ACAD_REACTORS
330
31
102
}
100
AcDbEntity
  8
0
  6
CONTINUOUS
100
AcDbLine
 10
93.577069
 20
111.274379
 30
0.0
 11
93.577069
 21
111.00425
 31
0.0
  0
LINE
  5
EF
102
{ACAD_REACTORS
330
31
102
}
100
AcDbEntity
  8
0
  6
CONTINUOUS
100
AcDbLine
 10
93.577069
 20
111.00425
 30
0.0
 11
94.115268
 21
111.00425
 31
0.0
  0
LINE
  5
F0
102
{ACAD_REACTORS
330
31
102
}
100
AcDbEntity
  8
0
  6
CONTINUOUS
100
AcDbLine
 10
94.115268
 20
111.00425
 30
0.0
 11
94.336278
 21
110.637954
 31
0.0
  0
LINE
  5
F1
102
{ACAD_REACTORS
330
31
102
}
100
AcDbEntity
  8
0
  6
CONTINUOUS
100
AcDbLine
 10
94.336278
 20
110.637954
 30
0.0
 11
93.577069
 21
110.637954
 31
0.0
  0
LINE
  5
F2
102
{ACAD_REACTORS
330
31
102
}
100
AcDbEntity
  8
0
  6
CONTINUOUS
100
AcDbLine
 10
93.577069
 20
110.637954
 30
0.0
 11
93.577069
 21
110.267556
 31
0.0
  0
LINE
  5
F3
102
{ACAD_REACTORS
330
31
102
}
100
AcDbEntity
  8
0
  6
CONTINUOUS
100
AcDbLine
 10
93.577069
 20
110.267556
 30
0.0
 11
93.290575
 21
110.267556
 31
0.0
  0
LINE
  5
F4
102
{ACAD_REACTORS
330
31
102
}
100
AcDbEntity
  8
0
  6
CONTINUOUS
100
AcDbLine
 10
93.290575
 20
110.267556
 30
0.0
 11
93.290575
 21
110.637954
 31
0.0
  0
LINE
  5
F5
102
{ACAD_REACTORS
330
31
102
}
100
AcDbEntity
  8
0
  6
CONTINUOUS
100
AcDbLine
 10
93.290575
 20
110.637954
 30
0.0
 11
92.01977
 21
110.637954
 31
0.0
  0
SPLINE
  5
F6
102
{ACAD_REACTORS
330
31
102
}
100
AcDbEntity
  8
0
  6
CONTINUOUS
100
AcDbSpline
210
0.0
220
0.0
230
1.0
 70
     8
 71
     2
 72
     6
 73
     3
 74
     0
 42
0.0000001
 43
0.0000001
 40
0.0
 40
0.0
 40
0.0
 40
1.0
 40
1.0
 40
1.0
 10
92.019770079355908
 20
110.63795371088098
 30
0.0
 10
91.862198346358014
 20
110.63795371088098
 30
0.0
 10
91.817178064089489
 20
110.61850829156946
 30
0.0
  0
SPLINE
  5
F7
102
{ACAD_REACTORS
330
31
102
}
100
AcDbEntity
  8
0
  6
CONTINUOUS
100
AcDbSpline
210
0.0
220
0.0
230
1.0
 70
     8
 71
     2
 72
     6
 73
     3
 74
     0
 42
0.0000001
 43
0.0000001
 40
0.0
 40
0.0
 40
0.0
 40
1.0
 40
1.0
 40
1.0
 10
91.817178064089489
 20
110.61850829156946
 30
0.0
 10
91.772157483797741
 20
110.5990724090011
 30
0.0
 10
91.745554440718365
 20
110.55506987604211
 30
0.0
  0
SPLINE
  5
F8
102
{ACAD_REACTORS
330
31
102
}
100
AcDbEntity
  8
0
  6
CONTINUOUS
100
AcDbSpline
210
0.0
220
0.0
230
1.0
 70
     8
 71
     2
 72
     6
 73
     3
 74
     0
 42
0.0000001
 43
0.0000001
 40
0.0
 40
0.0
 40
0.0
 40
1.0
 40
1.0
 40
1.0
 10
91.745554440718422
 20
110.55506987604211
 30
0.0
 10
91.718951397639046
 20
110.51107687982629
 30
0.0
 10
91.718951397639046
 20
110.42921824487756
 30
0.0
  0
SPLINE
  5
F9
102
{ACAD_REACTORS
330
31
102
}
100
AcDbEntity
  8
0
  6
CONTINUOUS
100
AcDbSpline
210
0.0
220
0.0
230
1.0
 70
     8
 71
     2
 72
     6
 73
     3
 74
     0
 42
0.0000001
 43
0.0000001
 40
0.0
 40
0.0
 40
0.0
 40
1.0
 40
1.0
 40
1.0
 10
91.718951397638989
 20
110.42921824487756
 30
0.0
 10
91.718951397638989
 20
110.36782546075891
 30
0.0
 10
91.733276181917859
 20
110.26755614313196
 30
0.0
  0
SPLINE
  5
FA
102
{ACAD_REACTORS
330
31
102
}
100
AcDbEntity
  8
0
  6
CONTINUOUS
100
AcDbSpline
210
0.0
220
0.0
230
1.0
 70
     8
 71
     2
 72
     6
 73
     3
 74
     0
 42
0.0000001
 43
0.0000001
 40
0.0
 40
0.0
 40
0.0
 40
1.0
 40
1.0
 40
1.0
 10
92.490438454847947
 20
110.0445012572677
 30
0.0
 10
93.094122045736924
 20
110.0445012572677
 30
0.0
 10
93.384708696108476
 20
109.70889372858117
 30
0.0
  0
SPLINE
  5
FB
102
{ACAD_REACTORS
330
31
102
}
100
AcDbEntity
  8
0
  6
CONTINUOUS
100
AcDbSpline
210
0.0
220
0.0
230
1.0
 70
     8
 71
     2
 72
     6
 73
     3
 74
     0
 42
0.0000001
 43
0.0000001
 40
0.0
 40
0.0
 40
0.0
 40
1.0
 40
1.0
 40
1.0
 10
93.384708696108575
 20
109.70889372858117
 30
0.0
 10
93.626182162266488
 20
109.42854208978723
 30
0.0
 10
93.626182162266488
 20
109.02540488275598
 30
0.0
  0
SPLINE
  5
FC
102
{ACAD_REACTORS
330
31
102
}
100
AcDbEntity
  8
0
  6
CONTINUOUS
100
AcDbSpline
210
0.0
220
0.0
230
1.0
 70
     8
 71
     2
 72
     6
 73
     3
 74
     0
 42
0.0000001
 43
0.0000001
 40
0.0
 40
0.0
 40
0.0
 40
1.0
 40
1.0
 40
1.0
 10
93.626182162266446
 20
109.02540488275598
 30
0.0
 10
93.626182162266446
 20
108.57724471124719
 30
0.0
 10
93.332525872688961
 20
108.29279704126428
 30
0.0
  0
SPLINE
  5
FD
102
{ACAD_REACTORS
330
31
102
}
100
AcDbEntity
  8
0
  6
CONTINUOUS
100
AcDbSpline
210
0.0
220
0.0
230
1.0
 70
     8
 71
     2
 72
     6
 73
     3
 74
     0
 42
0.0000001
 43
0.0000001
 40
0.0
 40
0.0
 40
0.0
 40
1.0
 40
1.0
 40
1.0
 10
93.332525872688947
 20
108.29279704126428
 30
0.0
 10
93.038869732123075
 20
108.00834937128137
 30
0.0
 10
92.521134250860868
 20
108.00834937128137
 30
0.0
  0
SPLINE
  5
FE
102
{ACAD_REACTORS
330
31
102
}
100
AcDbEntity
  8
0
  6
CONTINUOUS
100
AcDbSpline
210
0.0
220
0.0
230
1.0
 70
     8
 71
     2
 72
     6
 73
     3
 74
     0
 42
0.0000001
 43
0.0000001
 40
0.0
 40
0.0
 40
0.0
 40
1.0
 40
1.0
 40
1.0
 10
92.521134250860825
 20
108.00834937128137
 30
0.0
 10
92.101625436049119
 20
108.00834937128137
 30
0.0
 10
91.861175232630387
 20
108.13420100244592
 30
0.0
  0
SPLINE
  5
FF
102
{ACAD_REACTORS
330
31
102
}
100
AcDbEntity
  8
0
  6
CONTINUOUS
100
AcDbSpline
210
0.0
220
0.0
230
1.0
 70
     8
 71
     2
 72
     6
 73
     3
 74
     0
 42
0.0000001
 43
0.0000001
 40
0.0
 40
0.0
 40
0.0
 40
1.0
 40
1.0
 40
1.0
 10
91.861175232630444
 20
108.13420100244592
 30
0.0
 10
91.620725029211712
 20
108.26005263361047
 30
0.0
 10
91.487710111838055
 20
108.50050253900598
 30
0.0
  0
SPLINE
  5
100
102
{ACAD_REACTORS
330
31
102
}
100
AcDbEntity
  8
0
  6
CONTINUOUS
100
AcDbSpline
210
0.0
220
0.0
230
1.0
 70
     8
 71
     2
 72
     6
 73
     3
 74
     0
 42
0.0000001
 43
0.0000001
 40
0.0
 40
0.0
 40
0.0
 40
1.0
 40
1.0
 40
1.0
 10
91.487710111838055
 20
108.50050253900598
 30
0.0
 10
91.354694896441174
 20
108.74095244440149
 30
0.0
 10
91.354694896441174
 20
109.02540488275598
 30
0.0
  0
SPLINE
  5
101
102
{ACAD_REACTORS
330
31
102
}
100
AcDbEntity
  8
0
  6
CONTINUOUS
100
AcDbSpline
210
0.0
220
0.0
230
1.0
 70
     8
 71
     2
 72
     6
 73
     3
 74
     0
 42
0.0000001
 43
0.0000001
 40
0.0
 40
0.0
 40
0.0
 40
1.0
 40
1.0
 40
1.0
 10
91.35469489644116
 20
109.02540488275598
 30
0.0
 10
91.35469489644116
 20
109.48174757989953
 30
0.0
 10
91.647328072291074
 20
109.76312441858362
 30
0.0
  0
SPLINE
  5
102
102
{ACAD_REACTORS
330
31
102
}
100
AcDbEntity
  8
0
  6
CONTINUOUS
100
AcDbSpline
210
0.0
220
0.0
230
1.0
 70
     8
 71
     2
 72
     6
 73
     3
 74
     0
 42
0.0000001
 43
0.0000001
 40
0.0
 40
0.0
 40
0.0
 40
1.0
 40
1.0
 40
1.0
 10
91.647328072291089
 20
109.76312441858362
 30
0.0
 10
91.939960950117779
 20
110.0445012572677
 30
0.0
 10
92.490438454848004
 20
110.0445012572677
 30
0.0
  0
SPLINE
  5
103
102
{ACAD_REACTORS
330
31
102
}
100
AcDbEntity
  8
0
  6
CONTINUOUS
100
AcDbSpline
210
0.0
220
0.0
230
1.0
 70
     8
 71
     2
 72
     6
 73
     3
 74
     0
 42
0.0000001
 43
0.0000001
 40
0.0
 40
0.0
 40
0.0
 40
1.0
 40
1.0
 40
1.0
 10
92.490438454848046
 20
109.66592116388391
 30
0.0
 10
92.072976165514703
 20
109.66592116388391
 30
0.0
 10
91.865267985563989
 20
109.48378844293664
 30
0.0
  0
SPLINE
  5
104
102
{ACAD_REACTORS
330
31
102
}
100
AcDbEntity
  8
0
  6
CONTINUOUS
100
AcDbSpline
210
0.0
220
0.0
230
1.0
 70
     8
 71
     2
 72
     6
 73
     3
 74
     0
 42
0.0000001
 43
0.0000001
 40
0.0
 40
0.0
 40
0.0
 40
1.0
 40
1.0
 40
1.0
 10
91.865267985563989
 20
109.48378844293664
 30
0.0
 10
91.657559805613275
 20
109.30166525873254
 30
0.0
 10
91.657559805613275
 20
109.02540488275598
 30
0.0
  0
SPLINE
  5
105
102
{ACAD_REACTORS
330
31
102
}
100
AcDbEntity
  8
0
  6
CONTINUOUS
100
AcDbSpline
210
0.0
220
0.0
230
1.0
 70
     8
 71
     2
 72
     6
 73
     3
 74
     0
 42
0.0000001
 43
0.0000001
 40
0.0
 40
0.0
 40
0.0
 40
1.0
 40
1.0
 40
1.0
 10
91.657559805613289
 20
109.02540488275598
 30
0.0
 10
91.657559805613289
 20
108.75118536981653
 30
0.0
 10
91.866291099291573
 20
108.56905741724084
 30
0.0
  0
SPLINE
  5
106
102
{ACAD_REACTORS
330
31
102
}
100
AcDbEntity
  8
0
  6
CONTINUOUS
100
AcDbSpline
210
0.0
220
0.0
230
1.0
 70
     8
 71
     2
 72
     6
 73
     3
 74
     0
 42
0.0000001
 43
0.0000001
 40
0.0
 40
0.0
 40
0.0
 40
1.0
 40
1.0
 40
1.0
 10
91.866291099291516
 20
108.56905741724084
 30
0.0
 10
92.0750223929698
 20
108.38692946466516
 30
0.0
 10
92.50271671364851
 20
108.38692946466516
 30
0.0
  0
SPLINE
  5
107
102
{ACAD_REACTORS
330
31
102
}
100
AcDbEntity
  8
0
  6
CONTINUOUS
100
AcDbSpline
210
0.0
220
0.0
230
1.0
 70
     8
 71
     2
 72
     6
 73
     3
 74
     0
 42
0.0000001
 43
0.0000001
 40
0.0
 40
0.0
 40
0.0
 40
1.0
 40
1.0
 40
1.0
 10
92.50271671364851
 20
108.38692946466516
 30
0.0
 10
92.905854516726208
 20
108.38692946466516
 30
0.0
 10
93.113562696676922
 20
108.57008261713098
 30
0.0
  0
SPLINE
  5
108
102
{ACAD_REACTORS
330
31
102
}
100
AcDbEntity
  8
0
  6
CONTINUOUS
100
AcDbSpline
210
0.0
220
0.0
230
1.0
 70
     8
 71
     2
 72
     6
 73
     3
 74
     0
 42
0.0000001
 43
0.0000001
 40
0.0
 40
0.0
 40
0.0
 40
1.0
 40
1.0
 40
1.0
 10
93.113562696676979
 20
108.57008261713098
 30
0.0
 10
93.321270727616081
 20
108.7532357695968
 30
0.0
 10
93.321270727616081
 20
109.02540488275598
 30
0.0
  0
SPLINE
  5
109
102
{ACAD_REACTORS
330
31
102
}
100
AcDbEntity
  8
0
  6
CONTINUOUS
100
AcDbSpline
210
0.0
220
0.0
230
1.0
 70
     8
 71
     2
 72
     6
 73
     3
 74
     0
 42
0.0000001
 43
0.0000001
 40
0.0
 40
0.0
 40
0.0
 40
1.0
 40
1.0
 40
1.0
 10
93.321270727615953
 20
109.02540488275598
 30
0.0
 10
93.321270727615953
 20
109.30166525873254
 30
0.0
 10
93.114585810404421
 20
109.48378844293664
 30
0.0
  0
SPLINE
  5
10A
102
{ACAD_REACTORS
330
31
102
}
100
AcDbEntity
  8
0
  6
CONTINUOUS
100
AcDbSpline
210
0.0
220
0.0
230
1.0
 70
     8
 71
     2
 72
     6
 73
     3
 74
     0
 42
0.0000001
 43
0.0000001
 40
0.0
 40
0.0
 40
0.0
 40
1.0
 40
1.0
 40
1.0
 10
93.114585810404492
 20
109.48378844293664
 30
0.0
 10
92.907901042204571
 20
109.66592116388391
 30
0.0
 10
92.490438454848004
 20
109.66592116388391
 30
0.0
  0
LINE
  5
10B
102
{ACAD_REACTORS
330
31
102
}
100
AcDbEntity
  8
0
  6
CONTINUOUS
100
AcDbLine
 10
91.403808
 20
107.576559
 30
0.0
 11
93.577069
 21
107.576559
 31
0.0
  0
LINE
  5
10C
102
{ACAD_REACTORS
330
31
102
}
100
AcDbEntity
  8
0
  6
CONTINUOUS
100
AcDbLine
 10
93.577069
 20
107.576559
 30
0.0
 11
93.577069
 21
107.247088
 31
0.0
  0
LINE
  5
10D
102
{ACAD_REACTORS
330
31
102
}
100
AcDbEntity
  8
0
  6
CONTINUOUS
100
AcDbLine
 10
93.577069
 20
107.247088
 30
0.0
 11
93.272158
 21
107.247088
 31
0.0
  0
SPLINE
  5
10E
102
{ACAD_REACTORS
330
31
102
}
100
AcDbEntity
  8
0
  6
CONTINUOUS
100
AcDbSpline
210
0.0
220
0.0
230
1.0
 70
     8
 71
     2
 72
     6
 73
     3
 74
     0
 42
0.0000001
 43
0.0000001
 40
0.0
 40
0.0
 40
0.0
 40
1.0
 40
1.0
 40
1.0
 10
93.272157543402329
 20
107.24708838495324
 30
0.0
 10
93.431775503855363
 20
107.14476866754602
 30
0.0
 10
93.52897875855507
 20
106.97491927179406
 30
0.0
  0
SPLINE
  5
10F
102
{ACAD_REACTORS
330
31
102
}
100
AcDbEntity
  8
0
  6
CONTINUOUS
100
AcDbSpline
210
0.0
220
0.0
230
1.0
 70
     8
 71
     2
 72
     6
 73
     3
 74
     0
 42
0.0000001
 43
0.0000001
 40
0.0
 40
0.0
 40
0.0
 40
1.0
 40
1.0
 40
1.0
 10
93.528978758555169
 20
106.97491927179406
 30
0.0
 10
93.626182013254876
 20
106.80506987604211
 30
0.0
 10
93.626182013254876
 20
106.58815665277551
 30
0.0
  0
SPLINE
  5
110
102
{ACAD_REACTORS
330
31
102
}
100
AcDbEntity
  8
0
  6
CONTINUOUS
100
AcDbSpline
210
0.0
220
0.0
230
1.0
 70
     8
 71
     2
 72
     6
 73
     3
 74
     0
 42
0.0000001
 43
0.0000001
 40
0.0
 40
0.0
 40
0.0
 40
1.0
 40
1.0
 40
1.0
 10
93.626182013254834
 20
106.58815665277551
 30
0.0
 10
93.626182013254834
 20
106.34668154748987
 30
0.0
 10
93.525909268360806
 20
106.19218153986047
 30
0.0
  0
SPLINE
  5
111
102
{ACAD_REACTORS
330
31
102
}
100
AcDbEntity
  8
0
  6
CONTINUOUS
100
AcDbSpline
210
0.0
220
0.0
230
1.0
 70
     8
 71
     2
 72
     6
 73
     3
 74
     0
 42
0.0000001
 43
0.0000001
 40
0.0
 40
0.0
 40
0.0
 40
1.0
 40
1.0
 40
1.0
 10
93.525909268360792
 20
106.19218153986047
 30
0.0
 10
93.425636374455152
 20
106.03767676385949
 30
0.0
 10
93.245554500322996
 20
105.97423834833215
 30
0.0
  0
SPLINE
  5
112
102
{ACAD_REACTORS
330
31
102
}
100
AcDbEntity
  8
0
  6
CONTINUOUS
100
AcDbSpline
210
0.0
220
0.0
230
1.0
 70
     8
 71
     2
 72
     6
 73
     3
 74
     0
 42
0.0000001
 43
0.0000001
 40
0.0
 40
0.0
 40
0.0
 40
1.0
 40
1.0
 40
1.0
 10
93.245554500322996
 20
105.97423834833215
 30
0.0
 10
93.626182013254819
 20
105.71639342340539
 30
0.0
 10
93.626182013254819
 20
105.3030232909591
 30
0.0
  0
SPLINE
  5
113
102
{ACAD_REACTORS
330
31
102
}
100
AcDbEntity
  8
0
  6
CONTINUOUS
100
AcDbSpline
210
0.0
220
0.0
230
1.0
 70
     8
 71
     2
 72
     6
 73
     3
 74
     0
 42
0.0000001
 43
0.0000001
 40
0.0
 40
0.0
 40
0.0
 40
1.0
 40
1.0
 40
1.0
 10
93.626182013254834
 20
105.3030232909591
 30
0.0
 10
93.626182013254834
 20
104.97969908746789
 30
0.0
 10
93.447123401861859
 20
104.80575366052697
 30
0.0
  0
SPLINE
  5
114
102
{ACAD_REACTORS
330
31
102
}
100
AcDbEntity
  8
0
  6
CONTINUOUS
100
AcDbSpline
210
0.0
220
0.0
230
1.0
 70
     8
 71
     2
 72
     6
 73
     3
 74
     0
 42
0.0000001
 43
0.0000001
 40
0.0
 40
0.0
 40
0.0
 40
1.0
 40
1.0
 40
1.0
 10
93.447123401861802
 20
104.80575366052697
 30
0.0
 10
93.268064790468827
 20
104.63180823358606
 30
0.0
 10
92.895622783404008
 20
104.63180823358606
 30
0.0
  0
LINE
  5
115
102
{ACAD_REACTORS
330
31
102
}
100
AcDbEntity
  8
0
  6
CONTINUOUS
100
AcDbLine
 10
92.895623
 20
104.631808
 30
0.0
 11
91.403808
 21
104.631808
 31
0.0
  0
LINE
  5
116
102
{ACAD_REACTORS
330
31
102
}
100
AcDbEntity
  8
0
  6
CONTINUOUS
100
AcDbLine
 10
91.403808
 20
104.631808
 30
0.0
 11
91.403808
 21
104.998115
 31
0.0
  0
LINE
  5
117
102
{ACAD_REACTORS
330
31
102
}
100
AcDbEntity
  8
0
  6
CONTINUOUS
100
AcDbLine
 10
91.403808
 20
104.998115
 30
0.0
 11
92.77284
 21
104.998115
 31
0.0
  0
SPLINE
  5
118
102
{ACAD_REACTORS
330
31
102
}
100
AcDbEntity
  8
0
  6
CONTINUOUS
100
AcDbSpline
210
0.0
220
0.0
230
1.0
 70
     8
 71
     2
 72
     6
 73
     3
 74
     0
 42
0.0000001
 43
0.0000001
 40
0.0
 40
0.0
 40
0.0
 40
1.0
 40
1.0
 40
1.0
 10
92.772839599352551
 20
104.9981145385177
 30
0.0
 10
92.993849151831341
 20
104.9981145385177
 30
0.0
 10
93.091052406531048
 20
105.03392500909875
 30
0.0
  0
SPLINE
  5
119
102
{ACAD_REACTORS
330
31
102
}
100
AcDbEntity
  8
0
  6
CONTINUOUS
100
AcDbSpline
210
0.0
220
0.0
230
1.0
 70
     8
 71
     2
 72
     6
 73
     3
 74
     0
 42
0.0000001
 43
0.0000001
 40
0.0
 40
0.0
 40
0.0
 40
1.0
 40
1.0
 40
1.0
 10
93.091052406531048
 20
105.03392500909875
 30
0.0
 10
93.188255810242367
 20
105.06973547967981
 30
0.0
 10
93.247600876789761
 20
105.16387267145227
 30
0.0
  0
SPLINE
  5
11A
102
{ACAD_REACTORS
330
31
102
}
100
AcDbEntity
  8
0
  6
CONTINUOUS
100
AcDbSpline
210
0.0
220
0.0
230
1.0
 70
     8
 71
     2
 72
     6
 73
     3
 74
     0
 42
0.0000001
 43
0.0000001
 40
0.0
 40
0.0
 40
0.0
 40
1.0
 40
1.0
 40
1.0
 10
93.24760087678969
 20
105.16387267145227
 30
0.0
 10
93.306946092348696
 20
105.25800509485315
 30
0.0
 10
93.306946092348696
 20
105.38488192590783
 30
0.0
  0
SPLINE
  5
11B
102
{ACAD_REACTORS
330
31
102
}
100
AcDbEntity
  8
0
  6
CONTINUOUS
100
AcDbSpline
210
0.0
220
0.0
230
1.0
 70
     8
 71
     2
 72
     6
 73
     3
 74
     0
 42
0.0000001
 43
0.0000001
 40
0.0
 40
0.0
 40
0.0
 40
1.0
 40
1.0
 40
1.0
 10
93.30694609234871
 20
105.38488192590783
 30
0.0
 10
93.30694609234871
 20
105.61407370599817
 30
0.0
 10
93.154490375023499
 20
105.76550765070031
 30
0.0
  0
SPLINE
  5
11C
102
{ACAD_REACTORS
330
31
102
}
100
AcDbEntity
  8
0
  6
CONTINUOUS
100
AcDbSpline
210
0.0
220
0.0
230
1.0
 70
     8
 71
     2
 72
     6
 73
     3
 74
     0
 42
0.0000001
 43
0.0000001
 40
0.0
 40
0.0
 40
0.0
 40
1.0
 40
1.0
 40
1.0
 10
93.154490375023542
 20
105.76550765070031
 30
0.0
 10
93.002034657698331
 20
105.91694159540246
 30
0.0
 10
92.666427427035032
 20
105.91694159540246
 30
0.0
  0
LINE
  5
11D
102
{ACAD_REACTORS
330
31
102
}
100
AcDbEntity
  8
0
  6
CONTINUOUS
100
AcDbLine
 10
92.666427
 20
105.916942
 30
0.0
 11
91.403808
 21
105.916942
 31
0.0
  0
LINE
  5
11E
102
{ACAD_REACTORS
330
31
102
}
100
AcDbEntity
  8
0
  6
CONTINUOUS
100
AcDbLine
 10
91.403808
 20
105.916942
 30
0.0
 11
91.403808
 21
106.285289
 31
0.0
  0
LINE
  5
11F
102
{ACAD_REACTORS
330
31
102
}
100
AcDbEntity
  8
0
  6
CONTINUOUS
100
AcDbLine
 10
91.403808
 20
106.285289
 30
0.0
 11
92.815814
 21
106.285289
 31
0.0
  0
SPLINE
  5
120
102
{ACAD_REACTORS
330
31
102
}
100
AcDbEntity
  8
0
  6
CONTINUOUS
100
AcDbSpline
210
0.0
220
0.0
230
1.0
 70
     8
 71
     2
 72
     6
 73
     3
 74
     0
 42
0.0000001
 43
0.0000001
 40
0.0
 40
0.0
 40
0.0
 40
1.0
 40
1.0
 40
1.0
 10
92.815813654165979
 20
106.28528876337121
 30
0.0
 10
93.061379724245782
 20
106.28528876337121
 30
0.0
 10
93.184162908297296
 20
106.37532992395471
 30
0.0
  0
SPLINE
  5
121
102
{ACAD_REACTORS
330
31
102
}
100
AcDbEntity
  8
0
  6
CONTINUOUS
100
AcDbSpline
210
0.0
220
0.0
230
1.0
 70
     8
 71
     2
 72
     6
 73
     3
 74
     0
 42
0.0000001
 43
0.0000001
 40
0.0
 40
0.0
 40
0.0
 40
1.0
 40
1.0
 40
1.0
 10
93.184162908297253
 20
106.37532992395471
 30
0.0
 10
93.306946092348767
 20
106.46537108453821
 30
0.0
 10
93.306946092348767
 20
106.67001051935266
 30
0.0
  0
SPLINE
  5
122
102
{ACAD_REACTORS
330
31
102
}
100
AcDbEntity
  8
0
  6
CONTINUOUS
100
AcDbSpline
210
0.0
220
0.0
230
1.0
 70
     8
 71
     2
 72
     6
 73
     3
 74
     0
 42
0.0000001
 43
0.0000001
 40
0.0
 40
0.0
 40
0.0
 40
1.0
 40
1.0
 40
1.0
 10
93.306946092348767
 20
106.67001051935266
 30
0.0
 10
93.306946092348767
 20
106.82553572687219
 30
0.0
 10
93.225090735655499
 20
106.95752425226281
 30
0.0
  0
SPLINE
  5
123
102
{ACAD_REACTORS
330
31
102
}
100
AcDbEntity
  8
0
  6
CONTINUOUS
100
AcDbSpline
210
0.0
220
0.0
230
1.0
 70
     8
 71
     2
 72
     6
 73
     3
 74
     0
 42
0.0000001
 43
0.0000001
 40
0.0
 40
0.0
 40
0.0
 40
1.0
 40
1.0
 40
1.0
 10
93.225090735655499
 20
106.95752425226281
 30
0.0
 10
93.143235229950619
 20
107.0895223143966
 30
0.0
 10
92.985663645964337
 20
107.14886469873498
 30
0.0
  0
SPLINE
  5
124
102
{ACAD_REACTORS
330
31
102
}
100
AcDbEntity
  8
0
  6
CONTINUOUS
100
AcDbSpline
210
0.0
220
0.0
230
1.0
 70
     8
 71
     2
 72
     6
 73
     3
 74
     0
 42
0.0000001
 43
0.0000001
 40
0.0
 40
0.0
 40
0.0
 40
1.0
 40
1.0
 40
1.0
 10
92.985663645964394
 20
107.14886469873498
 30
0.0
 10
92.828091912966499
 20
107.20820708307336
 30
0.0
 10
92.531366282206307
 20
107.20820708307336
 30
0.0
  0
LINE
  5
125
102
{ACAD_REACTORS
330
31
102
}
100
AcDbEntity
  8
0
  6
CONTINUOUS
100
AcDbLine
 10
92.531366
 20
107.208207
 30
0.0
 11
91.403808
 21
107.208207
 31
0.0
  0
LINE
  5
126
102
{ACAD_REACTORS
330
31
102
}
100
AcDbEntity
  8
0
  6
CONTINUOUS
100
AcDbLine
 10
91.403808
 20
107.208207
 30
0.0
 11
91.403808
 21
107.576559
 31
0.0
  0
LWPOLYLINE
  5
127
102
{ACAD_REACTORS
330
31
102
}
100
AcDbEntity
  8
0
  6
CONTINUOUS
100
AcDbPolyline
 90
        9
 70
     0
 10
89.367655
 20
132.39409
 10
86.72168
 20
132.39409
 10
86.72168
 20
131.997092
 10
89.367655
 20
131.997092
 10
89.367655
 20
131.004594
 10
89.72168
 20
131.004594
 10
89.72168
 20
133.382495
 10
89.367655
 20
133.382495
 10
89.367655
 20
132.39409
  0
LINE
  5
128
102
{ACAD_REACTORS
330
31
102
}
100
AcDbEntity
  8
0
  6
CONTINUOUS
100
AcDbLine
 10
86.72168
 20
130.644434
 30
0.0
 11
89.72168
 21
130.644434
 31
0.0
  0
LINE
  5
129
102
{ACAD_REACTORS
330
31
102
}
100
AcDbEntity
  8
0
  6
CONTINUOUS
100
AcDbLine
 10
89.72168
 20
130.644434
 30
0.0
 11
89.72168
 21
130.276082
 31
0.0
  0
LINE
  5
12A
102
{ACAD_REACTORS
330
31
102
}
100
AcDbEntity
  8
0
  6
CONTINUOUS
100
AcDbLine
 10
89.72168
 20
130.276082
 30
0.0
 11
88.645282
 21
130.276082
 31
0.0
  0
SPLINE
  5
12B
102
{ACAD_REACTORS
330
31
102
}
100
AcDbEntity
  8
0
  6
CONTINUOUS
100
AcDbSpline
210
0.0
220
0.0
230
1.0
 70
     8
 71
     2
 72
     6
 73
     3
 74
     0
 42
0.0000001
 43
0.0000001
 40
0.0
 40
0.0
 40
0.0
 40
1.0
 40
1.0
 40
1.0
 10
88.64528172562666
 20
130.27608199152064
 30
0.0
 10
88.944053583841992
 20
130.01823706659388
 30
0.0
 10
88.944053583841992
 20
129.62533278497767
 30
0.0
  0
SPLINE
  5
12C
102
{ACAD_REACTORS
330
31
102
}
100
AcDbEntity
  8
0
  6
CONTINUOUS
100
AcDbSpline
210
0.0
220
0.0
230
1.0
 70
     8
 71
     2
 72
     6
 73
     3
 74
     0
 42
0.0000001
 43
0.0000001
 40
0.0
 40
0.0
 40
0.0
 40
1.0
 40
1.0
 40
1.0
 10
88.944053583841978
 20
129.62533278497767
 30
0.0
 10
88.944053583841978
 20
129.38385767969203
 30
0.0
 10
88.848897152643858
 20
129.20582098993373
 30
0.0
  0
SPLINE
  5
12D
102
{ACAD_REACTORS
330
31
102
}
100
AcDbEntity
  8
0
  6
CONTINUOUS
100
AcDbSpline
210
0.0
220
0.0
230
1.0
 70
     8
 71
     2
 72
     6
 73
     3
 74
     0
 42
0.0000001
 43
0.0000001
 40
0.0
 40
0.0
 40
0.0
 40
1.0
 40
1.0
 40
1.0
 10
88.848897152643929
 20
129.20582098993373
 30
0.0
 10
88.753740125399361
 20
129.02778906854701
 30
0.0
 10
88.585936957102547
 20
128.9510468963058
 30
0.0
  0
SPLINE
  5
12E
102
{ACAD_REACTORS
330
31
102
}
100
AcDbEntity
  8
0
  6
CONTINUOUS
100
AcDbSpline
210
0.0
220
0.0
230
1.0
 70
     8
 71
     2
 72
     6
 73
     3
 74
     0
 42
0.0000001
 43
0.0000001
 40
0.0
 40
0.0
 40
0.0
 40
1.0
 40
1.0
 40
1.0
 10
88.585936957102476
 20
128.9510468963058
 30
0.0
 10
88.418133192759214
 20
128.87430949243617
 30
0.0
 10
88.098896675806699
 20
128.87430949243617
 30
0.0
  0
LINE
  5
12F
102
{ACAD_REACTORS
330
31
102
}
100
AcDbEntity
  8
0
  6
CONTINUOUS
100
AcDbLine
 10
88.098897
 20
128.874309
 30
0.0
 11
86.72168
 21
128.874309
 31
0.0
  0
LINE
  5
130
102
{ACAD_REACTORS
330
31
102
}
100
AcDbEntity
  8
0
  6
CONTINUOUS
100
AcDbLine
 10
86.72168
 20
128.874309
 30
0.0
 11
86.72168
 21
129.242657
 31
0.0
  0
LINE
  5
131
102
{ACAD_REACTORS
330
31
102
}
100
AcDbEntity
  8
0
  6
CONTINUOUS
100
AcDbLine
 10
86.72168
 20
129.242657
 30
0.0
 11
88.098897
 21
129.242657
 31
0.0
  0
SPLINE
  5
132
102
{ACAD_REACTORS
330
31
102
}
100
AcDbEntity
  8
0
  6
CONTINUOUS
100
AcDbSpline
210
0.0
220
0.0
230
1.0
 70
     8
 71
     2
 72
     6
 73
     3
 74
     0
 42
0.0000001
 43
0.0000001
 40
0.0
 40
0.0
 40
0.0
 40
1.0
 40
1.0
 40
1.0
 10
88.09889667580677
 20
129.24265666040492
 30
0.0
 10
88.375158839922676
 20
129.24265666040492
 30
0.0
 10
88.501011663180122
 20
129.3623713973434
 30
0.0
  0
SPLINE
  5
133
102
{ACAD_REACTORS
330
31
102
}
100
AcDbEntity
  8
0
  6
CONTINUOUS
100
AcDbSpline
210
0.0
220
0.0
230
1.0
 70
     8
 71
     2
 72
     6
 73
     3
 74
     0
 42
0.0000001
 43
0.0000001
 40
0.0
 40
0.0
 40
0.0
 40
1.0
 40
1.0
 40
1.0
 10
88.501011663180122
 20
129.3623713973434
 30
0.0
 10
88.626864486437569
 20
129.48208613428187
 30
0.0
 10
88.626864486437569
 20
129.70104975732875
 30
0.0
  0
SPLINE
  5
134
102
{ACAD_REACTORS
330
31
102
}
100
AcDbEntity
  8
0
  6
CONTINUOUS
100
AcDbSpline
210
0.0
220
0.0
230
1.0
 70
     8
 71
     2
 72
     6
 73
     3
 74
     0
 42
0.0000001
 43
0.0000001
 40
0.0
 40
0.0
 40
0.0
 40
1.0
 40
1.0
 40
1.0
 10
88.626864486437512
 20
129.70104975732875
 30
0.0
 10
88.626864486437512
 20
129.86475749048304
 30
0.0
 10
88.541939192515088
 20
130.00902934106898
 30
0.0
  0
SPLINE
  5
135
102
{ACAD_REACTORS
330
31
102
}
100
AcDbEntity
  8
0
  6
CONTINUOUS
100
AcDbSpline
210
0.0
220
0.0
230
1.0
 70
     8
 71
     2
 72
     6
 73
     3
 74
     0
 42
0.0000001
 43
0.0000001
 40
0.0
 40
0.0
 40
0.0
 40
1.0
 40
1.0
 40
1.0
 10
88.541939192515088
 20
130.00902934106898
 30
0.0
 10
88.457014494639111
 20
130.15330119165492
 30
0.0
 10
88.311721020441723
 20
130.21468920740199
 30
0.0
  0
SPLINE
  5
136
102
{ACAD_REACTORS
330
31
102
}
100
AcDbEntity
  8
0
  6
CONTINUOUS
100
AcDbSpline
210
0.0
220
0.0
230
1.0
 70
     8
 71
     2
 72
     6
 73
     3
 74
     0
 42
0.0000001
 43
0.0000001
 40
0.0
 40
0.0
 40
0.0
 40
1.0
 40
1.0
 40
1.0
 10
88.311721020441723
 20
130.21468920740199
 30
0.0
 10
88.166427546244336
 20
130.27608199152064
 30
0.0
 10
87.910629444819165
 20
130.27608199152064
 30
0.0
  0
LINE
  5
137
102
{ACAD_REACTORS
330
31
102
}
100
AcDbEntity
  8
0
  6
CONTINUOUS
100
AcDbLine
 10
87.910629
 20
130.276082
 30
0.0
 11
86.72168
 21
130.276082
 31
0.0
  0
LINE
  5
138
102
{ACAD_REACTORS
330
31
102
}
100
AcDbEntity
  8
0
  6
CONTINUOUS
100
AcDbLine
 10
86.72168
 20
130.276082
 30
0.0
 11
86.72168
 21
130.644434
 31
0.0
  0
LWPOLYLINE
  5
139
102
{ACAD_REACTORS
330
31
102
}
100
AcDbEntity
  8
0
  6
CONTINUOUS
100
AcDbPolyline
 90
        5
 70
     0
 10
89.72168
 20
128.311551
 10
89.298079
 20
128.311551
 10
89.298079
 20
127.943204
 10
89.72168
 20
127.943204
 10
89.72168
 20
128.311551
  0
LWPOLYLINE
  5
13A
102
{ACAD_REACTORS
330
31
102
}
100
AcDbEntity
  8
0
  6
CONTINUOUS
100
AcDbPolyline
 90
        5
 70
     0
 10
88.894941
 20
128.311551
 10
86.72168
 20
128.311551
 10
86.72168
 20
127.943204
 10
88.894941
 20
127.943204
 10
88.894941
 20
128.311551
  0
LINE
  5
13B
102
{ACAD_REACTORS
330
31
102
}
100
AcDbEntity
  8
0
  6
CONTINUOUS
100
AcDbLine
 10
87.370384
 20
127.529834
 30
0.0
 11
87.427683
 21
127.165578
 31
0.0
  0
SPLINE
  5
13C
102
{ACAD_REACTORS
330
31
102
}
100
AcDbEntity
  8
0
  6
CONTINUOUS
100
AcDbSpline
210
0.0
220
0.0
230
1.0
 70
     8
 71
     2
 72
     6
 73
     3
 74
     0
 42
0.0000001
 43
0.0000001
 40
0.0
 40
0.0
 40
0.0
 40
1.0
 40
1.0
 40
1.0
 10
87.427682810526562
 20
127.16557784113
 30
0.0
 10
87.208719783526135
 20
127.13487906488488
 30
0.0
 10
87.092075877886487
 20
126.99470324548791
 30
0.0
  0
SPLINE
  5
13D
102
{ACAD_REACTORS
330
31
102
}
100
AcDbEntity
  8
0
  6
CONTINUOUS
100
AcDbSpline
210
0.0
220
0.0
230
1.0
 70
     8
 71
     2
 72
     6
 73
     3
 74
     0
 42
0.0000001
 43
0.0000001
 40
0.0
 40
0.0
 40
0.0
 40
1.0
 40
1.0
 40
1.0
 10
87.09207587788643
 20
126.99470324548793
 30
0.0
 10
86.975431972246781
 20
126.85452742609095
 30
0.0
 10
86.975431972246781
 20
126.60282416376185
 30
0.0
  0
SPLINE
  5
13E
102
{ACAD_REACTORS
330
31
102
}
100
AcDbEntity
  8
0
  6
CONTINUOUS
100
AcDbSpline
210
0.0
220
0.0
230
1.0
 70
     8
 71
     2
 72
     6
 73
     3
 74
     0
 42
0.0000001
 43
0.0000001
 40
0.0
 40
0.0
 40
0.0
 40
1.0
 40
1.0
 40
1.0
 10
86.975431972246838
 20
126.60282416376184
 30
0.0
 10
86.975431972246838
 20
126.34907050165246
 30
0.0
 10
87.07877450535841
 20
126.22628493341516
 30
0.0
  0
SPLINE
  5
13F
102
{ACAD_REACTORS
330
31
102
}
100
AcDbEntity
  8
0
  6
CONTINUOUS
100
AcDbSpline
210
0.0
220
0.0
230
1.0
 70
     8
 71
     2
 72
     6
 73
     3
 74
     0
 42
0.0000001
 43
0.0000001
 40
0.0
 40
0.0
 40
0.0
 40
1.0
 40
1.0
 40
1.0
 10
87.07877450535841
 20
126.22628493341516
 30
0.0
 10
87.182116442423535
 20
126.10350413354944
 30
0.0
 10
87.321270638209057
 20
126.10350413354944
 30
0.0
  0
SPLINE
  5
140
102
{ACAD_REACTORS
330
31
102
}
100
AcDbEntity
  8
0
  6
CONTINUOUS
100
AcDbSpline
210
0.0
220
0.0
230
1.0
 70
     8
 71
     2
 72
     6
 73
     3
 74
     0
 42
0.0000001
 43
0.0000001
 40
0.0
 40
0.0
 40
0.0
 40
1.0
 40
1.0
 40
1.0
 10
87.321270638209
 20
126.10350413354945
 30
0.0
 10
87.446100049715653
 20
126.10350413354945
 30
0.0
 10
87.517723971110001
 20
126.21196074518275
 30
0.0
  0
SPLINE
  5
141
102
{ACAD_REACTORS
330
31
102
}
100
AcDbEntity
  8
0
  6
CONTINUOUS
100
AcDbSpline
210
0.0
220
0.0
230
1.0
 70
     8
 71
     2
 72
     6
 73
     3
 74
     0
 42
0.0000001
 43
0.0000001
 40
0.0
 40
0.0
 40
0.0
 40
1.0
 40
1.0
 40
1.0
 10
87.517723971110101
 20
126.21196074518274
 30
0.0
 10
87.566837006312127
 20
126.28767771753381
 30
0.0
 10
87.642553382616754
 20
126.58849520715783
 30
0.0
  0
SPLINE
  5
142
102
{ACAD_REACTORS
330
31
102
}
100
AcDbEntity
  8
0
  6
CONTINUOUS
100
AcDbSpline
210
0.0
220
0.0
230
1.0
 70
     8
 71
     2
 72
     6
 73
     3
 74
     0
 42
0.0000001
 43
0.0000001
 40
0.0
 40
0.0
 40
0.0
 40
1.0
 40
1.0
 40
1.0
 10
87.642553382616711
 20
126.58849520715783
 30
0.0
 10
87.74487250397749
 20
126.99368281396936
 30
0.0
 10
87.819565468531323
 20
127.15022845300744
 30
0.0
  0
SPLINE
  5
143
102
{ACAD_REACTORS
330
31
102
}
100
AcDbEntity
  8
0
  6
CONTINUOUS
100
AcDbSpline
210
0.0
220
0.0
230
1.0
 70
     8
 71
     2
 72
     6
 73
     3
 74
     0
 42
0.0000001
 43
0.0000001
 40
0.0
 40
0.0
 40
0.0
 40
1.0
 40
1.0
 40
1.0
 10
87.819565468531366
 20
127.15022845300746
 30
0.0
 10
87.894258433085199
 20
127.30677886041713
 30
0.0
 10
88.02625053475451
 20
127.38761229547572
 30
0.0
  0
SPLINE
  5
144
102
{ACAD_REACTORS
330
31
102
}
100
AcDbEntity
  8
0
  6
CONTINUOUS
100
AcDbSpline
210
0.0
220
0.0
230
1.0
 70
     8
 71
     2
 72
     6
 73
     3
 74
     0
 42
0.0000001
 43
0.0000001
 40
0.0
 40
0.0
 40
0.0
 40
1.0
 40
1.0
 40
1.0
 10
88.026250534754467
 20
127.38761229547571
 30
0.0
 10
88.158242040377331
 20
127.46844096216272
 30
0.0
 10
88.317860298853589
 20
127.46844096216272
 30
0.0
  0
SPLINE
  5
145
102
{ACAD_REACTORS
330
31
102
}
100
AcDbEntity
  8
0
  6
CONTINUOUS
100
AcDbSpline
210
0.0
220
0.0
230
1.0
 70
     8
 71
     2
 72
     6
 73
     3
 74
     0
 42
0.0000001
 43
0.0000001
 40
0.0
 40
0.0
 40
0.0
 40
1.0
 40
1.0
 40
1.0
 10
88.317860298853589
 20
127.46844096216272
 30
0.0
 10
88.463153773050976
 20
127.46844096216272
 30
0.0
 10
88.586959772806836
 20
127.40193648370813
 30
0.0
  0
SPLINE
  5
146
102
{ACAD_REACTORS
330
31
102
}
100
AcDbEntity
  8
0
  6
CONTINUOUS
100
AcDbSpline
210
0.0
220
0.0
230
1.0
 70
     8
 71
     2
 72
     6
 73
     3
 74
     0
 42
0.0000001
 43
0.0000001
 40
0.0
 40
0.0
 40
0.0
 40
1.0
 40
1.0
 40
1.0
 10
88.586959772806836
 20
127.40193648370813
 30
0.0
 10
88.710765772562695
 20
127.33542723688196
 30
0.0
 10
88.792621427279187
 20
127.220828962651
 30
0.0
  0
SPLINE
  5
147
102
{ACAD_REACTORS
330
31
102
}
100
AcDbEntity
  8
0
  6
CONTINUOUS
100
AcDbSpline
210
0.0
220
0.0
230
1.0
 70
     8
 71
     2
 72
     6
 73
     3
 74
     0
 42
0.0000001
 43
0.0000001
 40
0.0
 40
0.0
 40
0.0
 40
1.0
 40
1.0
 40
1.0
 10
88.792621427279187
 20
127.220828962651
 30
0.0
 10
88.856059246760083
 20
127.13487906488488
 30
0.0
 10
88.900057011347485
 20
126.98651595148156
 30
0.0
  0
SPLINE
  5
148
102
{ACAD_REACTORS
330
31
102
}
100
AcDbEntity
  8
0
  6
CONTINUOUS
100
AcDbSpline
210
0.0
220
0.0
230
1.0
 70
     8
 71
     2
 72
     6
 73
     3
 74
     0
 42
0.0000001
 43
0.0000001
 40
0.0
 40
0.0
 40
0.0
 40
1.0
 40
1.0
 40
1.0
 10
88.900057011347428
 20
126.98651595148156
 30
0.0
 10
88.944054179888383
 20
126.83815760644983
 30
0.0
 10
88.944054179888383
 20
126.66830344232629
 30
0.0
  0
SPLINE
  5
149
102
{ACAD_REACTORS
330
31
102
}
100
AcDbEntity
  8
0
  6
CONTINUOUS
100
AcDbSpline
210
0.0
220
0.0
230
1.0
 70
     8
 71
     2
 72
     6
 73
     3
 74
     0
 42
0.0000001
 43
0.0000001
 40
0.0
 40
0.0
 40
0.0
 40
1.0
 40
1.0
 40
1.0
 10
88.944054179888496
 20
126.66830344232629
 30
0.0
 10
88.944054179888496
 20
126.41250891717981
 30
0.0
 10
88.870384031039009
 20
126.21912283929895
 30
0.0
  0
SPLINE
  5
14A
102
{ACAD_REACTORS
330
31
102
}
100
AcDbEntity
  8
0
  6
CONTINUOUS
100
AcDbSpline
210
0.0
220
0.0
230
1.0
 70
     8
 71
     2
 72
     6
 73
     3
 74
     0
 42
0.0000001
 43
0.0000001
 40
0.0
 40
0.0
 40
0.0
 40
1.0
 40
1.0
 40
1.0
 10
88.870384031038952
 20
126.21912283929895
 30
0.0
 10
88.796714478235913
 20
126.02574152978967
 30
0.0
 10
88.670861654978467
 20
125.93365473779748
 30
0.0
  0
SPLINE
  5
14B
102
{ACAD_REACTORS
330
31
102
}
100
AcDbEntity
  8
0
  6
CONTINUOUS
100
AcDbSpline
210
0.0
220
0.0
230
1.0
 70
     8
 71
     2
 72
     6
 73
     3
 74
     0
 42
0.0000001
 43
0.0000001
 40
0.0
 40
0.0
 40
0.0
 40
1.0
 40
1.0
 40
1.0
 10
88.670861654978467
 20
125.93365473779748
 30
0.0
 10
88.54500883172102
 20
125.84156794580529
 30
0.0
 10
88.334231310587597
 20
125.80677790674279
 30
0.0
  0
LINE
  5
14C
102
{ACAD_REACTORS
330
31
102
}
100
AcDbEntity
  8
0
  6
CONTINUOUS
100
AcDbLine
 10
88.334231
 20
125.806778
 30
0.0
 11
88.285118
 21
126.166943
 31
0.0
  0
SPLINE
  5
14D
102
{ACAD_REACTORS
330
31
102
}
100
AcDbEntity
  8
0
  6
CONTINUOUS
100
AcDbSpline
210
0.0
220
0.0
230
1.0
 70
     8
 71
     2
 72
     6
 73
     3
 74
     0
 42
0.0000001
 43
0.0000001
 40
0.0
 40
0.0
 40
0.0
 40
1.0
 40
1.0
 40
1.0
 10
88.285118275385614
 20
126.16694254907678
 30
0.0
 10
88.452921443682428
 20
126.19149966272424
 30
0.0
 10
88.54705565522265
 20
126.30916399988244
 30
0.0
  0
SPLINE
  5
14E
102
{ACAD_REACTORS
330
31
102
}
100
AcDbEntity
  8
0
  6
CONTINUOUS
100
AcDbSpline
210
0.0
220
0.0
230
1.0
 70
     8
 71
     2
 72
     6
 73
     3
 74
     0
 42
0.0000001
 43
0.0000001
 40
0.0
 40
0.0
 40
0.0
 40
1.0
 40
1.0
 40
1.0
 10
88.54705565522265
 20
126.30916399988244
 30
0.0
 10
88.641189270716424
 20
126.42683310541223
 30
0.0
 10
88.641189270716424
 20
126.64170546564172
 30
0.0
  0
SPLINE
  5
14F
102
{ACAD_REACTORS
330
31
102
}
100
AcDbEntity
  8
0
  6
CONTINUOUS
100
AcDbSpline
210
0.0
220
0.0
230
1.0
 70
     8
 71
     2
 72
     6
 73
     3
 74
     0
 42
0.0000001
 43
0.0000001
 40
0.0
 40
0.0
 40
0.0
 40
1.0
 40
1.0
 40
1.0
 10
88.641189270716325
 20
126.64170546564172
 30
0.0
 10
88.641189270716325
 20
126.89545435937951
 30
0.0
 10
88.557287388544694
 20
127.00391097101281
 30
0.0
  0
SPLINE
  5
150
102
{ACAD_REACTORS
330
31
102
}
100
AcDbEntity
  8
0
  6
CONTINUOUS
100
AcDbSpline
210
0.0
220
0.0
230
1.0
 70
     8
 71
     2
 72
     6
 73
     3
 74
     0
 42
0.0000001
 43
0.0000001
 40
0.0
 40
0.0
 40
0.0
 40
1.0
 40
1.0
 40
1.0
 10
88.557287388544751
 20
127.00391097101281
 30
0.0
 10
88.47338550637312
 20
127.1123723510177
 30
0.0
 10
88.36083405564375
 20
127.1123723510177
 30
0.0
  0
SPLINE
  5
151
102
{ACAD_REACTORS
330
31
102
}
100
AcDbEntity
  8
0
  6
CONTINUOUS
100
AcDbSpline
210
0.0
220
0.0
230
1.0
 70
     8
 71
     2
 72
     6
 73
     3
 74
     0
 42
0.0000001
 43
0.0000001
 40
0.0
 40
0.0
 40
0.0
 40
1.0
 40
1.0
 40
1.0
 10
88.360834055643807
 20
127.1123723510177
 30
0.0
 10
88.289210730295906
 20
127.1123723510177
 30
0.0
 10
88.231912189226875
 20
127.06734938654016
 30
0.0
  0
SPLINE
  5
152
102
{ACAD_REACTORS
330
31
102
}
100
AcDbEntity
  8
0
  6
CONTINUOUS
100
AcDbSpline
210
0.0
220
0.0
230
1.0
 70
     8
 71
     2
 72
     6
 73
     3
 74
     0
 42
0.0000001
 43
0.0000001
 40
0.0
 40
0.0
 40
0.0
 40
1.0
 40
1.0
 40
1.0
 10
88.231912189226762
 20
127.06734938654016
 30
0.0
 10
88.172566824656144
 20
127.0223311904342
 30
0.0
 10
88.133685522776261
 20
126.92614836725305
 30
0.0
  0
SPLINE
  5
153
102
{ACAD_REACTORS
330
31
102
}
100
AcDbEntity
  8
0
  6
CONTINUOUS
100
AcDbSpline
210
0.0
220
0.0
230
1.0
 70
     8
 71
     2
 72
     6
 73
     3
 74
     0
 42
0.0000001
 43
0.0000001
 40
0.0
 40
0.0
 40
0.0
 40
1.0
 40
1.0
 40
1.0
 10
88.133685522776318
 20
126.92614836725303
 30
0.0
 10
88.113222056132031
 20
126.87089724573204
 30
0.0
 10
88.039551907282544
 20
126.60077376398155
 30
0.0
  0
SPLINE
  5
154
102
{ACAD_REACTORS
330
31
102
}
100
AcDbEntity
  8
0
  6
CONTINUOUS
100
AcDbSpline
210
0.0
220
0.0
230
1.0
 70
     8
 71
     2
 72
     6
 73
     3
 74
     0
 42
0.0000001
 43
0.0000001
 40
0.0
 40
0.0
 40
0.0
 40
1.0
 40
1.0
 40
1.0
 10
88.039551907282544
 20
126.60077376398156
 30
0.0
 10
87.935185962420178
 20
126.20991511377404
 30
0.0
 10
87.868678503733349
 20
126.05541510614465
 30
0.0
  0
SPLINE
  5
155
102
{ACAD_REACTORS
330
31
102
}
100
AcDbEntity
  8
0
  6
CONTINUOUS
100
AcDbSpline
210
0.0
220
0.0
230
1.0
 70
     8
 71
     2
 72
     6
 73
     3
 74
     0
 42
0.0000001
 43
0.0000001
 40
0.0
 40
0.0
 40
0.0
 40
1.0
 40
1.0
 40
1.0
 10
87.868678503733349
 20
126.05541510614465
 30
0.0
 10
87.802171045046521
 20
125.90091033014367
 30
0.0
 10
87.675295406084729
 20
125.81291480096887
 30
0.0
  0
SPLINE
  5
156
102
{ACAD_REACTORS
330
31
102
}
100
AcDbEntity
  8
0
  6
CONTINUOUS
100
AcDbSpline
210
0.0
220
0.0
230
1.0
 70
     8
 71
     2
 72
     6
 73
     3
 74
     0
 42
0.0000001
 43
0.0000001
 40
0.0
 40
0.0
 40
0.0
 40
1.0
 40
1.0
 40
1.0
 10
87.675295406084729
 20
125.81291480096887
 30
0.0
 10
87.548419767122937
 20
125.72492404016565
 30
0.0
 10
87.36015194008894
 20
125.72492404016565
 30
0.0
  0
SPLINE
  5
157
102
{ACAD_REACTORS
330
31
102
}
100
AcDbEntity
  8
0
  6
CONTINUOUS
100
AcDbSpline
210
0.0
220
0.0
230
1.0
 70
     8
 71
     2
 72
     6
 73
     3
 74
     0
 42
0.0000001
 43
0.0000001
 40
0.0
 40
0.0
 40
0.0
 40
1.0
 40
1.0
 40
1.0
 10
87.36015194008894
 20
125.72492404016566
 30
0.0
 10
87.175977760058117
 20
125.72492404016566
 30
0.0
 10
87.013289862375927
 20
125.83236022028041
 30
0.0
  0
SPLINE
  5
158
102
{ACAD_REACTORS
330
31
102
}
100
AcDbEntity
  8
0
  6
CONTINUOUS
100
AcDbSpline
210
0.0
220
0.0
230
1.0
 70
     8
 71
     2
 72
     6
 73
     3
 74
     0
 42
0.0000001
 43
0.0000001
 40
0.0
 40
0.0
 40
0.0
 40
1.0
 40
1.0
 40
1.0
 10
87.013289862375927
 20
125.83236022028039
 30
0.0
 10
86.850602560740185
 20
125.93979163202356
 30
0.0
 10
86.761584811907483
 20
126.14238543542932
 30
0.0
  0
SPLINE
  5
159
102
{ACAD_REACTORS
330
31
102
}
100
AcDbEntity
  8
0
  6
CONTINUOUS
100
AcDbSpline
210
0.0
220
0.0
230
1.0
 70
     8
 71
     2
 72
     6
 73
     3
 74
     0
 42
0.0000001
 43
0.0000001
 40
0.0
 40
0.0
 40
0.0
 40
1.0
 40
1.0
 40
1.0
 10
86.761584811907468
 20
126.14238543542932
 30
0.0
 10
86.672567063074766
 20
126.34497923883508
 30
0.0
 10
86.672567063074766
 20
126.60077376398156
 30
0.0
  0
SPLINE
  5
15A
102
{ACAD_REACTORS
330
31
102
}
100
AcDbEntity
  8
0
  6
CONTINUOUS
100
AcDbSpline
210
0.0
220
0.0
230
1.0
 70
     8
 71
     2
 72
     6
 73
     3
 74
     0
 42
0.0000001
 43
0.0000001
 40
0.0
 40
0.0
 40
0.0
 40
1.0
 40
1.0
 40
1.0
 10
86.672567063074837
 20
126.60077376398156
 30
0.0
 10
86.672567063074837
 20
127.02437682184289
 30
0.0
 10
86.848555737238655
 20
127.2464112761886
 30
0.0
  0
SPLINE
  5
15B
102
{ACAD_REACTORS
330
31
102
}
100
AcDbEntity
  8
0
  6
CONTINUOUS
100
AcDbSpline
210
0.0
220
0.0
230
1.0
 70
     8
 71
     2
 72
     6
 73
     3
 74
     0
 42
0.0000001
 43
0.0000001
 40
0.0
 40
0.0
 40
0.0
 40
1.0
 40
1.0
 40
1.0
 10
86.848555737238541
 20
127.2464112761886
 30
0.0
 10
87.024545007448808
 20
127.46844096216272
 30
0.0
 10
87.370384269457475
 20
127.52983374628137
 30
0.0
  0
LINE
  5
15C
102
{ACAD_REACTORS
330
31
102
}
100
AcDbEntity
  8
0
  6
CONTINUOUS
100
AcDbLine
 10
87.370384
 20
124.269941
 30
0.0
 11
87.427683
 21
123.905685
 31
0.0
  0
SPLINE
  5
15D
102
{ACAD_REACTORS
330
31
102
}
100
AcDbEntity
  8
0
  6
CONTINUOUS
100
AcDbSpline
210
0.0
220
0.0
230
1.0
 70
     8
 71
     2
 72
     6
 73
     3
 74
     0
 42
0.0000001
 43
0.0000001
 40
0.0
 40
0.0
 40
0.0
 40
1.0
 40
1.0
 40
1.0
 10
87.427682810526562
 20
123.90568537744592
 30
0.0
 10
87.208719783526135
 20
123.87499136957238
 30
0.0
 10
87.092075877886487
 20
123.73481078180383
 30
0.0
  0
SPLINE
  5
15E
102
{ACAD_REACTORS
330
31
102
}
100
AcDbEntity
  8
0
  6
CONTINUOUS
100
AcDbSpline
210
0.0
220
0.0
230
1.0
 70
     8
 71
     2
 72
     6
 73
     3
 74
     0
 42
0.0000001
 43
0.0000001
 40
0.0
 40
0.0
 40
0.0
 40
1.0
 40
1.0
 40
1.0
 10
87.09207587788643
 20
123.73481078180383
 30
0.0
 10
86.975431972246781
 20
123.59463496240686
 30
0.0
 10
86.975431972246781
 20
123.34293170007776
 30
0.0
  0
SPLINE
  5
15F
102
{ACAD_REACTORS
330
31
102
}
100
AcDbEntity
  8
0
  6
CONTINUOUS
100
AcDbSpline
210
0.0
220
0.0
230
1.0
 70
     8
 71
     2
 72
     6
 73
     3
 74
     0
 42
0.0000001
 43
0.0000001
 40
0.0
 40
0.0
 40
0.0
 40
1.0
 40
1.0
 40
1.0
 10
86.975431972246838
 20
123.34293170007776
 30
0.0
 10
86.975431972246838
 20
123.08917803796838
 30
0.0
 10
87.07877450535841
 20
122.96639723810266
 30
0.0
  0
SPLINE
  5
160
102
{ACAD_REACTORS
330
31
102
}
100
AcDbEntity
  8
0
  6
CONTINUOUS
100
AcDbSpline
210
0.0
220
0.0
230
1.0
 70
     8
 71
     2
 72
     6
 73
     3
 74
     0
 42
0.0000001
 43
0.0000001
 40
0.0
 40
0.0
 40
0.0
 40
1.0
 40
1.0
 40
1.0
 10
87.07877450535841
 20
122.96639723810266
 30
0.0
 10
87.182116442423535
 20
122.84361166986535
 30
0.0
 10
87.321270638209057
 20
122.84361166986535
 30
0.0
  0
SPLINE
  5
161
102
{ACAD_REACTORS
330
31
102
}
100
AcDbEntity
  8
0
  6
CONTINUOUS
100
AcDbSpline
210
0.0
220
0.0
230
1.0
 70
     8
 71
     2
 72
     6
 73
     3
 74
     0
 42
0.0000001
 43
0.0000001
 40
0.0
 40
0.0
 40
0.0
 40
1.0
 40
1.0
 40
1.0
 10
87.321270638209
 20
122.84361166986535
 30
0.0
 10
87.446100049715653
 20
122.84361166986535
 30
0.0
 10
87.517723971110001
 20
122.95207304987024
 30
0.0
  0
SPLINE
  5
162
102
{ACAD_REACTORS
330
31
102
}
100
AcDbEntity
  8
0
  6
CONTINUOUS
100
AcDbSpline
210
0.0
220
0.0
230
1.0
 70
     8
 71
     2
 72
     6
 73
     3
 74
     0
 42
0.0000001
 43
0.0000001
 40
0.0
 40
0.0
 40
0.0
 40
1.0
 40
1.0
 40
1.0
 10
87.517723971110101
 20
122.95207304987024
 30
0.0
 10
87.566837006312127
 20
123.02778525384973
 30
0.0
 10
87.642553382616754
 20
123.32860751184533
 30
0.0
  0
SPLINE
  5
163
102
{ACAD_REACTORS
330
31
102
}
100
AcDbEntity
  8
0
  6
CONTINUOUS
100
AcDbSpline
210
0.0
220
0.0
230
1.0
 70
     8
 71
     2
 72
     6
 73
     3
 74
     0
 42
0.0000001
 43
0.0000001
 40
0.0
 40
0.0
 40
0.0
 40
1.0
 40
1.0
 40
1.0
 10
87.642553382616711
 20
123.32860751184533
 30
0.0
 10
87.74487250397749
 20
123.73379035028528
 30
0.0
 10
87.819565468531323
 20
123.89034075769494
 30
0.0
  0
SPLINE
  5
164
102
{ACAD_REACTORS
330
31
102
}
100
AcDbEntity
  8
0
  6
CONTINUOUS
100
AcDbSpline
210
0.0
220
0.0
230
1.0
 70
     8
 71
     2
 72
     6
 73
     3
 74
     0
 42
0.0000001
 43
0.0000001
 40
0.0
 40
0.0
 40
0.0
 40
1.0
 40
1.0
 40
1.0
 10
87.819565468531366
 20
123.89034075769494
 30
0.0
 10
87.894258433085199
 20
124.04688639673303
 30
0.0
 10
88.02625053475451
 20
124.12771983179162
 30
0.0
  0
SPLINE
  5
165
102
{ACAD_REACTORS
330
31
102
}
100
AcDbEntity
  8
0
  6
CONTINUOUS
100
AcDbSpline
210
0.0
220
0.0
230
1.0
 70
     8
 71
     2
 72
     6
 73
     3
 74
     0
 42
0.0000001
 43
0.0000001
 40
0.0
 40
0.0
 40
0.0
 40
1.0
 40
1.0
 40
1.0
 10
88.026250534754467
 20
124.12771983179162
 30
0.0
 10
88.158242040377331
 20
124.20855326685022
 30
0.0
 10
88.317860298853589
 20
124.20855326685022
 30
0.0
  0
SPLINE
  5
166
102
{ACAD_REACTORS
330
31
102
}
100
AcDbEntity
  8
0
  6
CONTINUOUS
100
AcDbSpline
210
0.0
220
0.0
230
1.0
 70
     8
 71
     2
 72
     6
 73
     3
 74
     0
 42
0.0000001
 43
0.0000001
 40
0.0
 40
0.0
 40
0.0
 40
1.0
 40
1.0
 40
1.0
 10
88.317860298853589
 20
124.20855326685022
 30
0.0
 10
88.463153773050976
 20
124.20855326685022
 30
0.0
 10
88.586959772806836
 20
124.14204402002404
 30
0.0
  0
SPLINE
  5
167
102
{ACAD_REACTORS
330
31
102
}
100
AcDbEntity
  8
0
  6
CONTINUOUS
100
AcDbSpline
210
0.0
220
0.0
230
1.0
 70
     8
 71
     2
 72
     6
 73
     3
 74
     0
 42
0.0000001
 43
0.0000001
 40
0.0
 40
0.0
 40
0.0
 40
1.0
 40
1.0
 40
1.0
 10
88.586959772806836
 20
124.14204402002404
 30
0.0
 10
88.710765772562695
 20
124.07553477319787
 30
0.0
 10
88.792621427279187
 20
123.96093649896692
 30
0.0
  0
SPLINE
  5
168
102
{ACAD_REACTORS
330
31
102
}
100
AcDbEntity
  8
0
  6
CONTINUOUS
100
AcDbSpline
210
0.0
220
0.0
230
1.0
 70
     8
 71
     2
 72
     6
 73
     3
 74
     0
 42
0.0000001
 43
0.0000001
 40
0.0
 40
0.0
 40
0.0
 40
1.0
 40
1.0
 40
1.0
 10
88.792621427279187
 20
123.96093649896692
 30
0.0
 10
88.856059246760083
 20
123.87499136957238
 30
0.0
 10
88.900057011347485
 20
123.72662825616906
 30
0.0
  0
SPLINE
  5
169
102
{ACAD_REACTORS
330
31
102
}
100
AcDbEntity
  8
0
  6
CONTINUOUS
100
AcDbSpline
210
0.0
220
0.0
230
1.0
 70
     8
 71
     2
 72
     6
 73
     3
 74
     0
 42
0.0000001
 43
0.0000001
 40
0.0
 40
0.0
 40
0.0
 40
1.0
 40
1.0
 40
1.0
 10
88.900057011347428
 20
123.72662825616906
 30
0.0
 10
88.944054179888383
 20
123.57826514276574
 30
0.0
 10
88.944054179888383
 20
123.40841574701379
 30
0.0
  0
SPLINE
  5
16A
102
{ACAD_REACTORS
330
31
102
}
100
AcDbEntity
  8
0
  6
CONTINUOUS
100
AcDbSpline
210
0.0
220
0.0
230
1.0
 70
     8
 71
     2
 72
     6
 73
     3
 74
     0
 42
0.0000001
 43
0.0000001
 40
0.0
 40
0.0
 40
0.0
 40
1.0
 40
1.0
 40
1.0
 10
88.944054179888496
 20
123.40841574701379
 30
0.0
 10
88.944054179888496
 20
123.15261645349572
 30
0.0
 10
88.870384031039009
 20
122.95923514398645
 30
0.0
  0
SPLINE
  5
16B
102
{ACAD_REACTORS
330
31
102
}
100
AcDbEntity
  8
0
  6
CONTINUOUS
100
AcDbSpline
210
0.0
220
0.0
230
1.0
 70
     8
 71
     2
 72
     6
 73
     3
 74
     0
 42
0.0000001
 43
0.0000001
 40
0.0
 40
0.0
 40
0.0
 40
1.0
 40
1.0
 40
1.0
 10
88.870384031038952
 20
122.95923514398645
 30
0.0
 10
88.796714478235913
 20
122.76584906610559
 30
0.0
 10
88.670861654978467
 20
122.6737622741134
 30
0.0
  0
SPLINE
  5
16C
102
{ACAD_REACTORS
330
31
102
}
100
AcDbEntity
  8
0
  6
CONTINUOUS
100
AcDbSpline
210
0.0
220
0.0
230
1.0
 70
     8
 71
     2
 72
     6
 73
     3
 74
     0
 42
0.0000001
 43
0.0000001
 40
0.0
 40
0.0
 40
0.0
 40
1.0
 40
1.0
 40
1.0
 10
88.670861654978467
 20
122.6737622741134
 30
0.0
 10
88.54500883172102
 20
122.58167548212121
 30
0.0
 10
88.334231310587597
 20
122.54688544305871
 30
0.0
  0
LINE
  5
16D
102
{ACAD_REACTORS
330
31
102
}
100
AcDbEntity
  8
0
  6
CONTINUOUS
100
AcDbLine
 10
88.334231
 20
122.546885
 30
0.0
 11
88.285118
 21
122.90705
 31
0.0
  0
SPLINE
  5
16E
102
{ACAD_REACTORS
330
31
102
}
100
AcDbEntity
  8
0
  6
CONTINUOUS
100
AcDbSpline
210
0.0
220
0.0
230
1.0
 70
     8
 71
     2
 72
     6
 73
     3
 74
     0
 42
0.0000001
 43
0.0000001
 40
0.0
 40
0.0
 40
0.0
 40
1.0
 40
1.0
 40
1.0
 10
88.285118275385614
 20
122.9070500853927
 30
0.0
 10
88.452921443682428
 20
122.93160719904016
 30
0.0
 10
88.54705565522265
 20
123.04927630456994
 30
0.0
  0
SPLINE
  5
16F
102
{ACAD_REACTORS
330
31
102
}
100
AcDbEntity
  8
0
  6
CONTINUOUS
100
AcDbSpline
210
0.0
220
0.0
230
1.0
 70
     8
 71
     2
 72
     6
 73
     3
 74
     0
 42
0.0000001
 43
0.0000001
 40
0.0
 40
0.0
 40
0.0
 40
1.0
 40
1.0
 40
1.0
 10
88.54705565522265
 20
123.04927630456994
 30
0.0
 10
88.641189270716424
 20
123.16694064172815
 30
0.0
 10
88.641189270716424
 20
123.38181300195764
 30
0.0
  0
SPLINE
  5
170
102
{ACAD_REACTORS
330
31
102
}
100
AcDbEntity
  8
0
  6
CONTINUOUS
100
AcDbSpline
210
0.0
220
0.0
230
1.0
 70
     8
 71
     2
 72
     6
 73
     3
 74
     0
 42
0.0000001
 43
0.0000001
 40
0.0
 40
0.0
 40
0.0
 40
1.0
 40
1.0
 40
1.0
 10
88.641189270716325
 20
123.38181300195764
 30
0.0
 10
88.641189270716325
 20
123.63556189569543
 30
0.0
 10
88.557287388544694
 20
123.74402327570031
 30
0.0
  0
SPLINE
  5
171
102
{ACAD_REACTORS
330
31
102
}
100
AcDbEntity
  8
0
  6
CONTINUOUS
100
AcDbSpline
210
0.0
220
0.0
230
1.0
 70
     8
 71
     2
 72
     6
 73
     3
 74
     0
 42
0.0000001
 43
0.0000001
 40
0.0
 40
0.0
 40
0.0
 40
1.0
 40
1.0
 40
1.0
 10
88.557287388544751
 20
123.74402327570031
 30
0.0
 10
88.47338550637312
 20
123.85247988733362
 30
0.0
 10
88.36083405564375
 20
123.85247988733362
 30
0.0
  0
SPLINE
  5
172
102
{ACAD_REACTORS
330
31
102
}
100
AcDbEntity
  8
0
  6
CONTINUOUS
100
AcDbSpline
210
0.0
220
0.0
230
1.0
 70
     8
 71
     2
 72
     6
 73
     3
 74
     0
 42
0.0000001
 43
0.0000001
 40
0.0
 40
0.0
 40
0.0
 40
1.0
 40
1.0
 40
1.0
 10
88.360834055643807
 20
123.85247988733362
 30
0.0
 10
88.289210730295906
 20
123.85247988733362
 30
0.0
 10
88.231912189226875
 20
123.80746169122766
 30
0.0
  0
SPLINE
  5
173
102
{ACAD_REACTORS
330
31
102
}
100
AcDbEntity
  8
0
  6
CONTINUOUS
100
AcDbSpline
210
0.0
220
0.0
230
1.0
 70
     8
 71
     2
 72
     6
 73
     3
 74
     0
 42
0.0000001
 43
0.0000001
 40
0.0
 40
0.0
 40
0.0
 40
1.0
 40
1.0
 40
1.0
 10
88.231912189226762
 20
123.80746169122764
 30
0.0
 10
88.172566824656144
 20
123.7624387267501
 30
0.0
 10
88.133685522776261
 20
123.66626067194053
 30
0.0
  0
SPLINE
  5
174
102
{ACAD_REACTORS
330
31
102
}
100
AcDbEntity
  8
0
  6
CONTINUOUS
100
AcDbSpline
210
0.0
220
0.0
230
1.0
 70
     8
 71
     2
 72
     6
 73
     3
 74
     0
 42
0.0000001
 43
0.0000001
 40
0.0
 40
0.0
 40
0.0
 40
1.0
 40
1.0
 40
1.0
 10
88.133685522776318
 20
123.66626067194055
 30
0.0
 10
88.113222056132031
 20
123.61100478204797
 30
0.0
 10
88.039551907282544
 20
123.34088606866906
 30
0.0
  0
SPLINE
  5
175
102
{ACAD_REACTORS
330
31
102
}
100
AcDbEntity
  8
0
  6
CONTINUOUS
100
AcDbSpline
210
0.0
220
0.0
230
1.0
 70
     8
 71
     2
 72
     6
 73
     3
 74
     0
 42
0.0000001
 43
0.0000001
 40
0.0
 40
0.0
 40
0.0
 40
1.0
 40
1.0
 40
1.0
 10
88.039551907282544
 20
123.34088606866906
 30
0.0
 10
87.935185962420178
 20
122.95002265008996
 30
0.0
 10
87.868678503733349
 20
122.79552264246057
 30
0.0
  0
SPLINE
  5
176
102
{ACAD_REACTORS
330
31
102
}
100
AcDbEntity
  8
0
  6
CONTINUOUS
100
AcDbSpline
210
0.0
220
0.0
230
1.0
 70
     8
 71
     2
 72
     6
 73
     3
 74
     0
 42
0.0000001
 43
0.0000001
 40
0.0
 40
0.0
 40
0.0
 40
1.0
 40
1.0
 40
1.0
 10
87.868678503733349
 20
122.79552264246058
 30
0.0
 10
87.802171045046521
 20
122.64102263483119
 30
0.0
 10
87.675295406084729
 20
122.55302710565638
 30
0.0
  0
SPLINE
  5
177
102
{ACAD_REACTORS
330
31
102
}
100
AcDbEntity
  8
0
  6
CONTINUOUS
100
AcDbSpline
210
0.0
220
0.0
230
1.0
 70
     8
 71
     2
 72
     6
 73
     3
 74
     0
 42
0.0000001
 43
0.0000001
 40
0.0
 40
0.0
 40
0.0
 40
1.0
 40
1.0
 40
1.0
 10
87.675295406084729
 20
122.55302710565637
 30
0.0
 10
87.548419767122937
 20
122.46503157648156
 30
0.0
 10
87.36015194008894
 20
122.46503157648156
 30
0.0
  0
SPLINE
  5
178
102
{ACAD_REACTORS
330
31
102
}
100
AcDbEntity
  8
0
  6
CONTINUOUS
100
AcDbSpline
210
0.0
220
0.0
230
1.0
 70
     8
 71
     2
 72
     6
 73
     3
 74
     0
 42
0.0000001
 43
0.0000001
 40
0.0
 40
0.0
 40
0.0
 40
1.0
 40
1.0
 40
1.0
 10
87.36015194008894
 20
122.46503157648156
 30
0.0
 10
87.175977760058117
 20
122.46503157648156
 30
0.0
 10
87.013289862375927
 20
122.57246775659631
 30
0.0
  0
SPLINE
  5
179
102
{ACAD_REACTORS
330
31
102
}
100
AcDbEntity
  8
0
  6
CONTINUOUS
100
AcDbSpline
210
0.0
220
0.0
230
1.0
 70
     8
 71
     2
 72
     6
 73
     3
 74
     0
 42
0.0000001
 43
0.0000001
 40
0.0
 40
0.0
 40
0.0
 40
1.0
 40
1.0
 40
1.0
 10
87.013289862375927
 20
122.5724677565963
 30
0.0
 10
86.850602560740185
 20
122.67990393671104
 30
0.0
 10
86.761584811907483
 20
122.88249297174522
 30
0.0
  0
SPLINE
  5
17A
102
{ACAD_REACTORS
330
31
102
}
100
AcDbEntity
  8
0
  6
CONTINUOUS
100
AcDbSpline
210
0.0
220
0.0
230
1.0
 70
     8
 71
     2
 72
     6
 73
     3
 74
     0
 42
0.0000001
 43
0.0000001
 40
0.0
 40
0.0
 40
0.0
 40
1.0
 40
1.0
 40
1.0
 10
86.761584811907468
 20
122.88249297174525
 30
0.0
 10
86.672567063074766
 20
123.08508677515101
 30
0.0
 10
86.672567063074766
 20
123.34088606866908
 30
0.0
  0
SPLINE
  5
17B
102
{ACAD_REACTORS
330
31
102
}
100
AcDbEntity
  8
0
  6
CONTINUOUS
100
AcDbSpline
210
0.0
220
0.0
230
1.0
 70
     8
 71
     2
 72
     6
 73
     3
 74
     0
 42
0.0000001
 43
0.0000001
 40
0.0
 40
0.0
 40
0.0
 40
1.0
 40
1.0
 40
1.0
 10
86.672567063074837
 20
123.34088606866906
 30
0.0
 10
86.672567063074837
 20
123.76448435815881
 30
0.0
 10
86.848555737238655
 20
123.98651881250451
 30
0.0
  0
SPLINE
  5
17C
102
{ACAD_REACTORS
330
31
102
}
100
AcDbEntity
  8
0
  6
CONTINUOUS
100
AcDbSpline
210
0.0
220
0.0
230
1.0
 70
     8
 71
     2
 72
     6
 73
     3
 74
     0
 42
0.0000001
 43
0.0000001
 40
0.0
 40
0.0
 40
0.0
 40
1.0
 40
1.0
 40
1.0
 10
86.848555737238541
 20
123.98651881250451
 30
0.0
 10
87.024545007448808
 20
124.20855326685022
 30
0.0
 10
87.370384269457475
 20
124.26994128259729
 30
0.0
  0
LWPOLYLINE
  5
17D
102
{ACAD_REACTORS
330
31
102
}
100
AcDbEntity
  8
0
  6
CONTINUOUS
100
AcDbPolyline
 90
        5
 70
     0
 10
89.72168
 20
122.025059
 10
89.298079
 20
122.025059
 10
89.298079
 20
121.656707
 10
89.72168
 20
121.656707
 10
89.72168
 20
122.025059
  0
LWPOLYLINE
  5
17E
102
{ACAD_REACTORS
330
31
102
}
100
AcDbEntity
  8
0
  6
CONTINUOUS
100
AcDbPolyline
 90
        5
 70
     0
 10
88.894941
 20
122.025059
 10
86.72168
 20
122.025059
 10
86.72168
 20
121.656707
 10
88.894941
 20
121.656707
 10
88.894941
 20
122.025059
  0
LINE
  5
17F
102
{ACAD_REACTORS
330
31
102
}
100
AcDbEntity
  8
0
  6
CONTINUOUS
100
AcDbLine
 10
86.72168
 20
119.686044
 30
0.0
 11
86.995895
 21
119.686044
 31
0.0
  0
SPLINE
  5
180
102
{ACAD_REACTORS
330
31
102
}
100
AcDbEntity
  8
0
  6
CONTINUOUS
100
AcDbSpline
210
0.0
220
0.0
230
1.0
 70
     8
 71
     2
 72
     6
 73
     3
 74
     0
 42
0.0000001
 43
0.0000001
 40
0.0
 40
0.0
 40
0.0
 40
1.0
 40
1.0
 40
1.0
 10
86.995895438891125
 20
119.68604369196008
 30
0.0
 10
86.67256706307478
 20
119.89272398981164
 30
0.0
 10
86.67256706307478
 20
120.29382033380578
 30
0.0
  0
SPLINE
  5
181
102
{ACAD_REACTORS
330
31
102
}
100
AcDbEntity
  8
0
  6
CONTINUOUS
100
AcDbSpline
210
0.0
220
0.0
230
1.0
 70
     8
 71
     2
 72
     6
 73
     3
 74
     0
 42
0.0000001
 43
0.0000001
 40
0.0
 40
0.0
 40
0.0
 40
1.0
 40
1.0
 40
1.0
 10
86.672567063074837
 20
120.29382033380578
 30
0.0
 10
86.672567063074837
 20
120.55370612176965
 30
0.0
 10
86.815813713770638
 20
120.77164931329797
 30
0.0
  0
SPLINE
  5
182
102
{ACAD_REACTORS
330
31
102
}
100
AcDbEntity
  8
0
  6
CONTINUOUS
100
AcDbSpline
210
0.0
220
0.0
230
1.0
 70
     8
 71
     2
 72
     6
 73
     3
 74
     0
 42
0.0000001
 43
0.0000001
 40
0.0
 40
0.0
 40
0.0
 40
1.0
 40
1.0
 40
1.0
 10
86.81581371377051
 20
120.77164931329797
 30
0.0
 10
86.959060960512758
 20
120.98958773645471
 30
0.0
 10
87.215881877642275
 20
121.10930247339319
 30
0.0
  0
SPLINE
  5
183
102
{ACAD_REACTORS
330
31
102
}
100
AcDbEntity
  8
0
  6
CONTINUOUS
100
AcDbSpline
210
0.0
220
0.0
230
1.0
 70
     8
 71
     2
 72
     6
 73
     3
 74
     0
 42
0.0000001
 43
0.0000001
 40
0.0
 40
0.0
 40
0.0
 40
1.0
 40
1.0
 40
1.0
 10
87.215881877642389
 20
121.10930247339319
 30
0.0
 10
87.472703390818353
 20
121.22901721033166
 30
0.0
 10
87.806264096003289
 20
121.22901721033166
 30
0.0
  0
SPLINE
  5
184
102
{ACAD_REACTORS
330
31
102
}
100
AcDbEntity
  8
0
  6
CONTINUOUS
100
AcDbSpline
210
0.0
220
0.0
230
1.0
 70
     8
 71
     2
 72
     6
 73
     3
 74
     0
 42
0.0000001
 43
0.0000001
 40
0.0
 40
0.0
 40
0.0
 40
1.0
 40
1.0
 40
1.0
 10
87.806264096003304
 20
121.22901721033166
 30
0.0
 10
88.131639295321236
 20
121.22901721033166
 30
0.0
 10
88.396645718317757
 20
121.12056059869836
 30
0.0
  0
SPLINE
  5
185
102
{ACAD_REACTORS
330
31
102
}
100
AcDbEntity
  8
0
  6
CONTINUOUS
100
AcDbSpline
210
0.0
220
0.0
230
1.0
 70
     8
 71
     2
 72
     6
 73
     3
 74
     0
 42
0.0000001
 43
0.0000001
 40
0.0
 40
0.0
 40
0.0
 40
1.0
 40
1.0
 40
1.0
 10
88.3966457183177
 20
121.12056059869836
 30
0.0
 10
88.661652737360669
 20
121.01209921869348
 30
0.0
 10
88.80285316060133
 20
120.79518122705529
 30
0.0
  0
SPLINE
  5
186
102
{ACAD_REACTORS
330
31
102
}
100
AcDbEntity
  8
0
  6
CONTINUOUS
100
AcDbSpline
210
0.0
220
0.0
230
1.0
 70
     8
 71
     2
 72
     6
 73
     3
 74
     0
 42
0.0000001
 43
0.0000001
 40
0.0
 40
0.0
 40
0.0
 40
1.0
 40
1.0
 40
1.0
 10
88.802853160601273
 20
120.79518122705529
 30
0.0
 10
88.944053583841935
 20
120.57826323541711
 30
0.0
 10
88.944053583841935
 20
120.3101901534469
 30
0.0
  0
SPLINE
  5
187
102
{ACAD_REACTORS
330
31
102
}
100
AcDbEntity
  8
0
  6
CONTINUOUS
100
AcDbSpline
210
0.0
220
0.0
230
1.0
 70
     8
 71
     2
 72
     6
 73
     3
 74
     0
 42
0.0000001
 43
0.0000001
 40
0.0
 40
0.0
 40
0.0
 40
1.0
 40
1.0
 40
1.0
 10
88.944053583842049
 20
120.3101901534469
 30
0.0
 10
88.944053583842049
 20
120.11373801263879
 30
0.0
 10
88.861175113421211
 20
119.96025843652795
 30
0.0
  0
SPLINE
  5
188
102
{ACAD_REACTORS
330
31
102
}
100
AcDbEntity
  8
0
  6
CONTINUOUS
100
AcDbSpline
210
0.0
220
0.0
230
1.0
 70
     8
 71
     2
 72
     6
 73
     3
 74
     0
 42
0.0000001
 43
0.0000001
 40
0.0
 40
0.0
 40
0.0
 40
1.0
 40
1.0
 40
1.0
 10
88.86117511342114
 20
119.96025843652797
 30
0.0
 10
88.778296643000303
 20
119.80677886041713
 30
0.0
 10
88.645281725626646
 20
119.71060080560756
 30
0.0
  0
LINE
  5
189
102
{ACAD_REACTORS
330
31
102
}
100
AcDbEntity
  8
0
  6
CONTINUOUS
100
AcDbLine
 10
88.645282
 20
119.710601
 30
0.0
 11
89.72168
 21
119.710601
 31
0.0
  0
LINE
  5
18A
102
{ACAD_REACTORS
330
31
102
}
100
AcDbEntity
  8
0
  6
CONTINUOUS
100
AcDbLine
 10
89.72168
 20
119.710601
 30
0.0
 11
89.72168
 21
119.344295
 31
0.0
  0
LINE
  5
18B
102
{ACAD_REACTORS
330
31
102
}
100
AcDbEntity
  8
0
  6
CONTINUOUS
100
AcDbLine
 10
89.72168
 20
119.344295
 30
0.0
 11
86.72168
 21
119.344295
 31
0.0
  0
LINE
  5
18C
102
{ACAD_REACTORS
330
31
102
}
100
AcDbEntity
  8
0
  6
CONTINUOUS
100
AcDbLine
 10
86.72168
 20
119.344295
 30
0.0
 11
86.72168
 21
119.686044
 31
0.0
  0
SPLINE
  5
18D
102
{ACAD_REACTORS
330
31
102
}
100
AcDbEntity
  8
0
  6
CONTINUOUS
100
AcDbSpline
210
0.0
220
0.0
230
1.0
 70
     8
 71
     2
 72
     6
 73
     3
 74
     0
 42
0.0000001
 43
0.0000001
 40
0.0
 40
0.0
 40
0.0
 40
1.0
 40
1.0
 40
1.0
 10
87.806264096003304
 20
120.85043234857629
 30
0.0
 10
87.388801508646736
 20
120.85043234857629
 30
0.0
 10
87.182116442423592
 20
120.67444605859826
 30
0.0
  0
SPLINE
  5
18E
102
{ACAD_REACTORS
330
31
102
}
100
AcDbEntity
  8
0
  6
CONTINUOUS
100
AcDbSpline
210
0.0
220
0.0
230
1.0
 70
     8
 71
     2
 72
     6
 73
     3
 74
     0
 42
0.0000001
 43
0.0000001
 40
0.0
 40
0.0
 40
0.0
 40
1.0
 40
1.0
 40
1.0
 10
87.182116442423592
 20
120.67444605859826
 30
0.0
 10
86.975431972246895
 20
120.49845500024865
 30
0.0
 10
86.975431972246895
 20
120.25903029474328
 30
0.0
  0
SPLINE
  5
18F
102
{ACAD_REACTORS
330
31
102
}
100
AcDbEntity
  8
0
  6
CONTINUOUS
100
AcDbSpline
210
0.0
220
0.0
230
1.0
 70
     8
 71
     2
 72
     6
 73
     3
 74
     0
 42
0.0000001
 43
0.0000001
 40
0.0
 40
0.0
 40
0.0
 40
1.0
 40
1.0
 40
1.0
 10
86.975431972246824
 20
120.25903029474328
 30
0.0
 10
86.975431972246824
 20
120.01755518945764
 30
0.0
 10
87.172908120852171
 20
119.84873099359582
 30
0.0
  0
SPLINE
  5
190
102
{ACAD_REACTORS
330
31
102
}
100
AcDbEntity
  8
0
  6
CONTINUOUS
100
AcDbSpline
210
0.0
220
0.0
230
1.0
 70
     8
 71
     2
 72
     6
 73
     3
 74
     0
 42
0.0000001
 43
0.0000001
 40
0.0
 40
0.0
 40
0.0
 40
1.0
 40
1.0
 40
1.0
 10
87.172908120852242
 20
119.84873099359582
 30
0.0
 10
87.370383673411141
 20
119.67990202936242
 30
0.0
 10
87.775568299990425
 20
119.67990202936242
 30
0.0
  0
SPLINE
  5
191
102
{ACAD_REACTORS
330
31
102
}
100
AcDbEntity
  8
0
  6
CONTINUOUS
100
AcDbSpline
210
0.0
220
0.0
230
1.0
 70
     8
 71
     2
 72
     6
 73
     3
 74
     0
 42
0.0000001
 43
0.0000001
 40
0.0
 40
0.0
 40
0.0
 40
1.0
 40
1.0
 40
1.0
 10
87.775568299990368
 20
119.67990202936242
 30
0.0
 10
88.221679859858227
 20
119.67990202936242
 30
0.0
 10
88.430411153536511
 20
119.85180182489465
 30
0.0
  0
SPLINE
  5
192
102
{ACAD_REACTORS
330
31
102
}
100
AcDbEntity
  8
0
  6
CONTINUOUS
100
AcDbSpline
210
0.0
220
0.0
230
1.0
 70
     8
 71
     2
 72
     6
 73
     3
 74
     0
 42
0.0000001
 43
0.0000001
 40
0.0
 40
0.0
 40
0.0
 40
1.0
 40
1.0
 40
1.0
 10
88.430411153536511
 20
119.85180182489465
 30
0.0
 10
88.639142447214795
 20
120.02369685205529
 30
0.0
 10
88.639142447214795
 20
120.2754001143844
 30
0.0
  0
SPLINE
  5
193
102
{ACAD_REACTORS
330
31
102
}
100
AcDbEntity
  8
0
  6
CONTINUOUS
100
AcDbSpline
210
0.0
220
0.0
230
1.0
 70
     8
 71
     2
 72
     6
 73
     3
 74
     0
 42
0.0000001
 43
0.0000001
 40
0.0
 40
0.0
 40
0.0
 40
1.0
 40
1.0
 40
1.0
 10
88.639142447214738
 20
120.2754001143844
 30
0.0
 10
88.639142447214738
 20
120.52096648248742
 30
0.0
 10
88.438596659403458
 20
120.68569941553186
 30
0.0
  0
SPLINE
  5
194
102
{ACAD_REACTORS
330
31
102
}
100
AcDbEntity
  8
0
  6
CONTINUOUS
100
AcDbSpline
210
0.0
220
0.0
230
1.0
 70
     8
 71
     2
 72
     6
 73
     3
 74
     0
 42
0.0000001
 43
0.0000001
 40
0.0
 40
0.0
 40
0.0
 40
1.0
 40
1.0
 40
1.0
 10
88.438596659403572
 20
120.68569941553186
 30
0.0
 10
88.238050871592293
 20
120.85043234857629
 30
0.0
 10
87.806264096003304
 20
120.85043234857629
 30
0.0
  0
LINE
  5
195
102
{ACAD_REACTORS
330
31
102
}
100
AcDbEntity
  8
0
  6
CONTINUOUS
100
AcDbLine
 10
87.421544
 20
117.277449
 30
0.0
 11
87.374477
 21
116.896818
 31
0.0
  0
SPLINE
  5
196
102
{ACAD_REACTORS
330
31
102
}
100
AcDbEntity
  8
0
  6
CONTINUOUS
100
AcDbSpline
210
0.0
220
0.0
230
1.0
 70
     8
 71
     2
 72
     6
 73
     3
 74
     0
 42
0.0000001
 43
0.0000001
 40
0.0
 40
0.0
 40
0.0
 40
1.0
 40
1.0
 40
1.0
 10
87.37447672436781
 20
116.89681811365197
 30
0.0
 10
87.040916019182873
 20
116.98685927423547
 30
0.0
 10
86.856741243105603
 20
117.23038001092981
 30
0.0
  0
SPLINE
  5
197
102
{ACAD_REACTORS
330
31
102
}
100
AcDbEntity
  8
0
  6
CONTINUOUS
100
AcDbSpline
210
0.0
220
0.0
230
1.0
 70
     8
 71
     2
 72
     6
 73
     3
 74
     0
 42
0.0000001
 43
0.0000001
 40
0.0
 40
0.0
 40
0.0
 40
1.0
 40
1.0
 40
1.0
 10
86.85674124310566
 20
117.23038001092981
 30
0.0
 10
86.672567063074837
 20
117.47390074762414
 30
0.0
 10
86.672567063074837
 20
117.85248084100793
 30
0.0
  0
SPLINE
  5
198
102
{ACAD_REACTORS
330
31
102
}
100
AcDbEntity
  8
0
  6
CONTINUOUS
100
AcDbSpline
210
0.0
220
0.0
230
1.0
 70
     8
 71
     2
 72
     6
 73
     3
 74
     0
 42
0.0000001
 43
0.0000001
 40
0.0
 40
0.0
 40
0.0
 40
1.0
 40
1.0
 40
1.0
 10
86.67256706307478
 20
117.85248084100793
 30
0.0
 10
86.67256706307478
 20
118.32928938898156
 30
0.0
 10
86.96622305462904
 20
118.60862059625696
 30
0.0
  0
SPLINE
  5
199
102
{ACAD_REACTORS
330
31
102
}
100
AcDbEntity
  8
0
  6
CONTINUOUS
100
AcDbSpline
210
0.0
220
0.0
230
1.0
 70
     8
 71
     2
 72
     6
 73
     3
 74
     0
 42
0.0000001
 43
0.0000001
 40
0.0
 40
0.0
 40
0.0
 40
1.0
 40
1.0
 40
1.0
 10
86.96622305462904
 20
118.60862059625696
 30
0.0
 10
87.2598790461833
 20
118.88795180353235
 30
0.0
 10
87.789893084269238
 20
118.88795180353235
 30
0.0
  0
SPLINE
  5
19A
102
{ACAD_REACTORS
330
31
102
}
100
AcDbEntity
  8
0
  6
CONTINUOUS
100
AcDbSpline
210
0.0
220
0.0
230
1.0
 70
     8
 71
     2
 72
     6
 73
     3
 74
     0
 42
0.0000001
 43
0.0000001
 40
0.0
 40
0.0
 40
0.0
 40
1.0
 40
1.0
 40
1.0
 10
87.789893084269238
 20
118.88795180353235
 30
0.0
 10
88.338323765497876
 20
118.88795180353235
 30
0.0
 10
88.641189270716382
 20
118.60554976495813
 30
0.0
  0
SPLINE
  5
19B
102
{ACAD_REACTORS
330
31
102
}
100
AcDbEntity
  8
0
  6
CONTINUOUS
100
AcDbSpline
210
0.0
220
0.0
230
1.0
 70
     8
 71
     2
 72
     6
 73
     3
 74
     0
 42
0.0000001
 43
0.0000001
 40
0.0
 40
0.0
 40
0.0
 40
1.0
 40
1.0
 40
1.0
 10
88.641189270716382
 20
118.60554976495813
 30
0.0
 10
88.94405417988844
 20
118.32314772638391
 30
0.0
 10
88.94405417988844
 20
117.87294669183801
 30
0.0
  0
SPLINE
  5
19C
102
{ACAD_REACTORS
330
31
102
}
100
AcDbEntity
  8
0
  6
CONTINUOUS
100
AcDbSpline
210
0.0
220
0.0
230
1.0
 70
     8
 71
     2
 72
     6
 73
     3
 74
     0
 42
0.0000001
 43
0.0000001
 40
0.0
 40
0.0
 40
0.0
 40
1.0
 40
1.0
 40
1.0
 10
88.94405417988844
 20
117.87294669183801
 30
0.0
 10
88.94405417988844
 20
117.43706507715295
 30
0.0
 10
88.647328549128247
 20
117.16080470117639
 30
0.0
  0
SPLINE
  5
19D
102
{ACAD_REACTORS
330
31
102
}
100
AcDbEntity
  8
0
  6
CONTINUOUS
100
AcDbSpline
210
0.0
220
0.0
230
1.0
 70
     8
 71
     2
 72
     6
 73
     3
 74
     0
 42
0.0000001
 43
0.0000001
 40
0.0
 40
0.0
 40
0.0
 40
1.0
 40
1.0
 40
1.0
 10
88.647328549128289
 20
117.16080470117639
 30
0.0
 10
88.350602322321649
 20
116.88453955682824
 30
0.0
 10
87.812403374415155
 20
116.88453955682824
 30
0.0
  0
SPLINE
  5
19E
102
{ACAD_REACTORS
330
31
102
}
100
AcDbEntity
  8
0
  6
CONTINUOUS
100
AcDbSpline
210
0.0
220
0.0
230
1.0
 70
     8
 71
     2
 72
     6
 73
     3
 74
     0
 42
0.0000001
 43
0.0000001
 40
0.0
 40
0.0
 40
0.0
 40
1.0
 40
1.0
 40
1.0
 10
87.812403374415055
 20
116.88453955682824
 30
0.0
 10
87.77966075490059
 20
116.88453955682824
 30
0.0
 10
87.714176707964555
 20
116.88658995660852
 30
0.0
  0
LINE
  5
19F
102
{ACAD_REACTORS
330
31
102
}
100
AcDbEntity
  8
0
  6
CONTINUOUS
100
AcDbLine
 10
87.714177
 20
116.88659
 30
0.0
 11
87.714177
 21
118.507321
 31
0.0
  0
SPLINE
  5
1A0
102
{ACAD_REACTORS
330
31
102
}
100
AcDbEntity
  8
0
  6
CONTINUOUS
100
AcDbSpline
210
0.0
220
0.0
230
1.0
 70
     8
 71
     2
 72
     6
 73
     3
 74
     0
 42
0.0000001
 43
0.0000001
 40
0.0
 40
0.0
 40
0.0
 40
1.0
 40
1.0
 40
1.0
 10
87.71417670796454
 20
118.50732131036828
 30
0.0
 10
87.356059485178591
 20
118.48686022790979
 30
0.0
 10
87.165745430689455
 20
118.3047322753341
 30
0.0
  0
SPLINE
  5
1A1
102
{ACAD_REACTORS
330
31
102
}
100
AcDbEntity
  8
0
  6
CONTINUOUS
100
AcDbSpline
210
0.0
220
0.0
230
1.0
 70
     8
 71
     2
 72
     6
 73
     3
 74
     0
 42
0.0000001
 43
0.0000001
 40
0.0
 40
0.0
 40
0.0
 40
1.0
 40
1.0
 40
1.0
 10
87.165745430689583
 20
118.3047322753341
 30
0.0
 10
86.975431972246895
 20
118.12260432275842
 30
0.0
 10
86.975431972246895
 20
117.85043520959924
 30
0.0
  0
SPLINE
  5
1A2
102
{ACAD_REACTORS
330
31
102
}
100
AcDbEntity
  8
0
  6
CONTINUOUS
100
AcDbSpline
210
0.0
220
0.0
230
1.0
 70
     8
 71
     2
 72
     6
 73
     3
 74
     0
 42
0.0000001
 43
0.0000001
 40
0.0
 40
0.0
 40
0.0
 40
1.0
 40
1.0
 40
1.0
 10
86.975431972246781
 20
117.85043520959924
 30
0.0
 10
86.975431972246781
 20
117.64784140619348
 30
0.0
 10
87.081843548517838
 20
117.50459475549768
 30
0.0
  0
SPLINE
  5
1A3
102
{ACAD_REACTORS
330
31
102
}
100
AcDbEntity
  8
0
  6
CONTINUOUS
100
AcDbSpline
210
0.0
220
0.0
230
1.0
 70
     8
 71
     2
 72
     6
 73
     3
 74
     0
 42
0.0000001
 43
0.0000001
 40
0.0
 40
0.0
 40
0.0
 40
1.0
 40
1.0
 40
1.0
 10
87.081843548517952
 20
117.50459475549768
 30
0.0
 10
87.188255720835457
 20
117.36134810480188
 30
0.0
 10
87.421543532114754
 20
117.27744860681604
 30
0.0
  0
LINE
  5
1A4
102
{ACAD_REACTORS
330
31
102
}
100
AcDbEntity
  8
0
  6
CONTINUOUS
100
AcDbLine
 10
88.017042
 20
118.48686
 30
0.0
 11
88.017042
 21
117.273353
 31
0.0
  0
SPLINE
  5
1A5
102
{ACAD_REACTORS
330
31
102
}
100
AcDbEntity
  8
0
  6
CONTINUOUS
100
AcDbSpline
210
0.0
220
0.0
230
1.0
 70
     8
 71
     2
 72
     6
 73
     3
 74
     0
 42
0.0000001
 43
0.0000001
 40
0.0
 40
0.0
 40
0.0
 40
1.0
 40
1.0
 40
1.0
 10
88.01704161713667
 20
117.27335257562709
 30
0.0
 10
88.291257553797436
 20
117.29790968927455
 30
0.0
 10
88.428364926081372
 20
117.4125079635055
 30
0.0
  0
SPLINE
  5
1A6
102
{ACAD_REACTORS
330
31
102
}
100
AcDbEntity
  8
0
  6
CONTINUOUS
100
AcDbSpline
210
0.0
220
0.0
230
1.0
 70
     8
 71
     2
 72
     6
 73
     3
 74
     0
 42
0.0000001
 43
0.0000001
 40
0.0
 40
0.0
 40
0.0
 40
1.0
 40
1.0
 40
1.0
 10
88.428364926081429
 20
117.41250796350549
 30
0.0
 10
88.641189270716438
 20
117.5884990218551
 30
0.0
 10
88.641189270716438
 20
117.86885066064904
 30
0.0
  0
SPLINE
  5
1A7
102
{ACAD_REACTORS
330
31
102
}
100
AcDbEntity
  8
0
  6
CONTINUOUS
100
AcDbSpline
210
0.0
220
0.0
230
1.0
 70
     8
 71
     2
 72
     6
 73
     3
 74
     0
 42
0.0000001
 43
0.0000001
 40
0.0
 40
0.0
 40
0.0
 40
1.0
 40
1.0
 40
1.0
 10
88.641189270716438
 20
117.86885066064904
 30
0.0
 10
88.641189270716438
 20
118.12260432275842
 30
0.0
 10
88.471339278918038
 20
118.2955245498092
 30
0.0
  0
SPLINE
  5
1A8
102
{ACAD_REACTORS
330
31
102
}
100
AcDbEntity
  8
0
  6
CONTINUOUS
100
AcDbSpline
210
0.0
220
0.0
230
1.0
 70
     8
 71
     2
 72
     6
 73
     3
 74
     0
 42
0.0000001
 43
0.0000001
 40
0.0
 40
0.0
 40
0.0
 40
1.0
 40
1.0
 40
1.0
 10
88.471339278917981
 20
118.2955245498092
 30
0.0
 10
88.30148928711958
 20
118.4684400084884
 30
0.0
 10
88.01704161713667
 20
118.48686022790979
 30
0.0
  0
LWPOLYLINE
  5
1A9
102
{ACAD_REACTORS
330
31
102
}
100
AcDbEntity
  8
0
  6
CONTINUOUS
100
AcDbPolyline
 90
        5
 70
     0
 10
89.72168
 20
115.267899
 10
89.298079
 20
115.267899
 10
89.298079
 20
114.899548
 10
89.72168
 20
114.899548
 10
89.72168
 20
115.267899
  0
LWPOLYLINE
  5
1AA
102
{ACAD_REACTORS
330
31
102
}
100
AcDbEntity
  8
0
  6
CONTINUOUS
100
AcDbPolyline
 90
        5
 70
     0
 10
88.894941
 20
115.267899
 10
86.72168
 20
115.267899
 10
86.72168
 20
114.899548
 10
88.894941
 20
114.899548
 10
88.894941
 20
115.267899
  0
LINE
  5
1AB
102
{ACAD_REACTORS
330
31
102
}
100
AcDbEntity
  8
0
  6
CONTINUOUS
100
AcDbLine
 10
86.72168
 20
114.338839
 30
0.0
 11
88.894941
 21
114.338839
 31
0.0
  0
LINE
  5
1AC
102
{ACAD_REACTORS
330
31
102
}
100
AcDbEntity
  8
0
  6
CONTINUOUS
100
AcDbLine
 10
88.894941
 20
114.338839
 30
0.0
 11
88.894941
 21
114.007323
 31
0.0
  0
LINE
  5
1AD
102
{ACAD_REACTORS
330
31
102
}
100
AcDbEntity
  8
0
  6
CONTINUOUS
100
AcDbLine
 10
88.894941
 20
114.007323
 30
0.0
 11
88.585937
 21
114.007323
 31
0.0
  0
SPLINE
  5
1AE
102
{ACAD_REACTORS
330
31
102
}
100
AcDbEntity
  8
0
  6
CONTINUOUS
100
AcDbSpline
210
0.0
220
0.0
230
1.0
 70
     8
 71
     2
 72
     6
 73
     3
 74
     0
 42
0.0000001
 43
0.0000001
 40
0.0
 40
0.0
 40
0.0
 40
1.0
 40
1.0
 40
1.0
 10
88.58593695710249
 20
114.00732321771692
 30
0.0
 10
88.944053583841992
 20
113.76789851221154
 30
0.0
 10
88.944053583841992
 20
113.31564230951379
 30
0.0
  0
SPLINE
  5
1AF
102
{ACAD_REACTORS
330
31
102
}
100
AcDbEntity
  8
0
  6
CONTINUOUS
100
AcDbSpline
210
0.0
220
0.0
230
1.0
 70
     8
 71
     2
 72
     6
 73
     3
 74
     0
 42
0.0000001
 43
0.0000001
 40
0.0
 40
0.0
 40
0.0
 40
1.0
 40
1.0
 40
1.0
 10
88.944053583841992
 20
113.31564230951379
 30
0.0
 10
88.944053583841992
 20
113.11919493707727
 30
0.0
 10
88.873453670244885
 20
112.95445723566125
 30
0.0
  0
SPLINE
  5
1B0
102
{ACAD_REACTORS
330
31
102
}
100
AcDbEntity
  8
0
  6
CONTINUOUS
100
AcDbSpline
210
0.0
220
0.0
230
1.0
 70
     8
 71
     2
 72
     6
 73
     3
 74
     0
 42
0.0000001
 43
0.0000001
 40
0.0
 40
0.0
 40
0.0
 40
1.0
 40
1.0
 40
1.0
 10
88.873453670244885
 20
112.95445723566125
 30
0.0
 10
88.802853756647778
 20
112.78972430261682
 30
0.0
 10
88.688255482416821
 20
112.70787043603967
 30
0.0
  0
SPLINE
  5
1B1
102
{ACAD_REACTORS
330
31
102
}
100
AcDbEntity
  8
0
  6
CONTINUOUS
100
AcDbSpline
210
0.0
220
0.0
230
1.0
 70
     8
 71
     2
 72
     6
 73
     3
 74
     0
 42
0.0000001
 43
0.0000001
 40
0.0
 40
0.0
 40
0.0
 40
1.0
 40
1.0
 40
1.0
 10
88.688255482416807
 20
112.70787043603967
 30
0.0
 10
88.573658400278745
 20
112.62601180109094
 30
0.0
 10
88.416086369257627
 20
112.59327216180871
 30
0.0
  0
SPLINE
  5
1B2
102
{ACAD_REACTORS
330
31
102
}
100
AcDbEntity
  8
0
  6
CONTINUOUS
100
AcDbSpline
210
0.0
220
0.0
230
1.0
 70
     8
 71
     2
 72
     6
 73
     3
 74
     0
 42
0.0000001
 43
0.0000001
 40
0.0
 40
0.0
 40
0.0
 40
1.0
 40
1.0
 40
1.0
 10
88.416086369257584
 20
112.59327216180871
 30
0.0
 10
88.313767247896806
 20
112.57280631097863
 30
0.0
 10
88.057969146471635
 20
112.57280631097863
 30
0.0
  0
LINE
  5
1B3
102
{ACAD_REACTORS
330
31
102
}
100
AcDbEntity
  8
0
  6
CONTINUOUS
100
AcDbLine
 10
88.057969
 20
112.572806
 30
0.0
 11
86.72168
 21
112.572806
 31
0.0
  0
LINE
  5
1B4
102
{ACAD_REACTORS
330
31
102
}
100
AcDbEntity
  8
0
  6
CONTINUOUS
100
AcDbLine
 10
86.72168
 20
112.572806
 30
0.0
 11
86.72168
 21
112.941158
 31
0.0
  0
LINE
  5
1B5
102
{ACAD_REACTORS
330
31
102
}
100
AcDbEntity
  8
0
  6
CONTINUOUS
100
AcDbLine
 10
86.72168
 20
112.941158
 30
0.0
 11
88.043644
 21
112.941158
 31
0.0
  0
SPLINE
  5
1B6
102
{ACAD_REACTORS
330
31
102
}
100
AcDbEntity
  8
0
  6
CONTINUOUS
100
AcDbSpline
210
0.0
220
0.0
230
1.0
 70
     8
 71
     2
 72
     6
 73
     3
 74
     0
 42
0.0000001
 43
0.0000001
 40
0.0
 40
0.0
 40
0.0
 40
1.0
 40
1.0
 40
1.0
 10
88.043644362192765
 20
112.94115824731897
 30
0.0
 10
88.268747263651505
 20
112.94115824731897
 30
0.0
 10
88.380274706583634
 20
112.98413081201623
 30
0.0
  0
SPLINE
  5
1B7
102
{ACAD_REACTORS
330
31
102
}
100
AcDbEntity
  8
0
  6
CONTINUOUS
100
AcDbSpline
210
0.0
220
0.0
230
1.0
 70
     8
 71
     2
 72
     6
 73
     3
 74
     0
 42
0.0000001
 43
0.0000001
 40
0.0
 40
0.0
 40
0.0
 40
1.0
 40
1.0
 40
1.0
 10
88.380274706583748
 20
112.98413081201623
 30
0.0
 10
88.491802745562325
 20
113.02710814508508
 30
0.0
 10
88.558310204249153
 20
113.13658995660852
 30
0.0
  0
SPLINE
  5
1B8
102
{ACAD_REACTORS
330
31
102
}
100
AcDbEntity
  8
0
  6
CONTINUOUS
100
AcDbSpline
210
0.0
220
0.0
230
1.0
 70
     8
 71
     2
 72
     6
 73
     3
 74
     0
 42
0.0000001
 43
0.0000001
 40
0.0
 40
0.0
 40
0.0
 40
1.0
 40
1.0
 40
1.0
 10
88.558310204249096
 20
113.13658995660852
 30
0.0
 10
88.624818258982373
 20
113.24607176813196
 30
0.0
 10
88.624818258982373
 20
113.39340968164514
 30
0.0
  0
SPLINE
  5
1B9
102
{ACAD_REACTORS
330
31
102
}
100
AcDbEntity
  8
0
  6
CONTINUOUS
100
AcDbSpline
210
0.0
220
0.0
230
1.0
 70
     8
 71
     2
 72
     6
 73
     3
 74
     0
 42
0.0000001
 43
0.0000001
 40
0.0
 40
0.0
 40
0.0
 40
1.0
 40
1.0
 40
1.0
 10
88.624818258982373
 20
113.39340968164514
 30
0.0
 10
88.624818258982373
 20
113.62874312433313
 30
0.0
 10
88.475431733828259
 20
113.79961295160363
 30
0.0
  0
SPLINE
  5
1BA
102
{ACAD_REACTORS
330
31
102
}
100
AcDbEntity
  8
0
  6
CONTINUOUS
100
AcDbSpline
210
0.0
220
0.0
230
1.0
 70
     8
 71
     2
 72
     6
 73
     3
 74
     0
 42
0.0000001
 43
0.0000001
 40
0.0
 40
0.0
 40
0.0
 40
1.0
 40
1.0
 40
1.0
 10
88.475431733828259
 20
113.79961295160363
 30
0.0
 10
88.326045804720593
 20
113.97048754724572
 30
0.0
 10
87.908583217364026
 20
113.97048754724572
 30
0.0
  0
LINE
  5
1BB
102
{ACAD_REACTORS
330
31
102
}
100
AcDbEntity
  8
0
  6
CONTINUOUS
100
AcDbLine
 10
87.908583
 20
113.970488
 30
0.0
 11
86.72168
 21
113.970488
 31
0.0
  0
LINE
  5
1BC
102
{ACAD_REACTORS
330
31
102
}
100
AcDbEntity
  8
0
  6
CONTINUOUS
100
AcDbLine
 10
86.72168
 20
113.970488
 30
0.0
 11
86.72168
 21
114.338839
 31
0.0
  0
LINE
  5
1BD
102
{ACAD_REACTORS
330
31
102
}
100
AcDbEntity
  8
0
  6
CONTINUOUS
100
AcDbLine
 10
87.370384
 20
112.155345
 30
0.0
 11
87.427683
 21
111.791089
 31
0.0
  0
SPLINE
  5
1BE
102
{ACAD_REACTORS
330
31
102
}
100
AcDbEntity
  8
0
  6
CONTINUOUS
100
AcDbSpline
210
0.0
220
0.0
230
1.0
 70
     8
 71
     2
 72
     6
 73
     3
 74
     0
 42
0.0000001
 43
0.0000001
 40
0.0
 40
0.0
 40
0.0
 40
1.0
 40
1.0
 40
1.0
 10
87.427682810526562
 20
111.7910890105636
 30
0.0
 10
87.208719783526135
 20
111.76039023431848
 30
0.0
 10
87.092075877886487
 20
111.62021441492151
 30
0.0
  0
SPLINE
  5
1BF
102
{ACAD_REACTORS
330
31
102
}
100
AcDbEntity
  8
0
  6
CONTINUOUS
100
AcDbSpline
210
0.0
220
0.0
230
1.0
 70
     8
 71
     2
 72
     6
 73
     3
 74
     0
 42
0.0000001
 43
0.0000001
 40
0.0
 40
0.0
 40
0.0
 40
1.0
 40
1.0
 40
1.0
 10
87.09207587788643
 20
111.62021441492151
 30
0.0
 10
86.975431972246781
 20
111.48003859552453
 30
0.0
 10
86.975431972246781
 20
111.22833533319543
 30
0.0
  0
SPLINE
  5
1C0
102
{ACAD_REACTORS
330
31
102
}
100
AcDbEntity
  8
0
  6
CONTINUOUS
100
AcDbSpline
210
0.0
220
0.0
230
1.0
 70
     8
 71
     2
 72
     6
 73
     3
 74
     0
 42
0.0000001
 43
0.0000001
 40
0.0
 40
0.0
 40
0.0
 40
1.0
 40
1.0
 40
1.0
 10
86.975431972246838
 20
111.22833533319543
 30
0.0
 10
86.975431972246838
 20
110.97458167108606
 30
0.0
 10
87.07877450535841
 20
110.85179610284875
 30
0.0
  0
SPLINE
  5
1C1
102
{ACAD_REACTORS
330
31
102
}
100
AcDbEntity
  8
0
  6
CONTINUOUS
100
AcDbSpline
210
0.0
220
0.0
230
1.0
 70
     8
 71
     2
 72
     6
 73
     3
 74
     0
 42
0.0000001
 43
0.0000001
 40
0.0
 40
0.0
 40
0.0
 40
1.0
 40
1.0
 40
1.0
 10
87.07877450535841
 20
110.85179610284875
 30
0.0
 10
87.182116442423535
 20
110.72901530298303
 30
0.0
 10
87.321270638209057
 20
110.72901530298303
 30
0.0
  0
SPLINE
  5
1C2
102
{ACAD_REACTORS
330
31
102
}
100
AcDbEntity
  8
0
  6
CONTINUOUS
100
AcDbSpline
210
0.0
220
0.0
230
1.0
 70
     8
 71
     2
 72
     6
 73
     3
 74
     0
 42
0.0000001
 43
0.0000001
 40
0.0
 40
0.0
 40
0.0
 40
1.0
 40
1.0
 40
1.0
 10
87.321270638209
 20
110.72901530298303
 30
0.0
 10
87.446100049715653
 20
110.72901530298303
 30
0.0
 10
87.517723971110001
 20
110.83747191461633
 30
0.0
  0
SPLINE
  5
1C3
102
{ACAD_REACTORS
330
31
102
}
100
AcDbEntity
  8
0
  6
CONTINUOUS
100
AcDbSpline
210
0.0
220
0.0
230
1.0
 70
     8
 71
     2
 72
     6
 73
     3
 74
     0
 42
0.0000001
 43
0.0000001
 40
0.0
 40
0.0
 40
0.0
 40
1.0
 40
1.0
 40
1.0
 10
87.517723971110101
 20
110.83747191461633
 30
0.0
 10
87.566837006312127
 20
110.9131888869674
 30
0.0
 10
87.642553382616754
 20
111.21401114496301
 30
0.0
  0
SPLINE
  5
1C4
102
{ACAD_REACTORS
330
31
102
}
100
AcDbEntity
  8
0
  6
CONTINUOUS
100
AcDbSpline
210
0.0
220
0.0
230
1.0
 70
     8
 71
     2
 72
     6
 73
     3
 74
     0
 42
0.0000001
 43
0.0000001
 40
0.0
 40
0.0
 40
0.0
 40
1.0
 40
1.0
 40
1.0
 10
87.642553382616711
 20
111.21401114496301
 30
0.0
 10
87.74487250397749
 20
111.61918921503137
 30
0.0
 10
87.819565468531323
 20
111.77573962244104
 30
0.0
  0
SPLINE
  5
1C5
102
{ACAD_REACTORS
330
31
102
}
100
AcDbEntity
  8
0
  6
CONTINUOUS
100
AcDbSpline
210
0.0
220
0.0
230
1.0
 70
     8
 71
     2
 72
     6
 73
     3
 74
     0
 42
0.0000001
 43
0.0000001
 40
0.0
 40
0.0
 40
0.0
 40
1.0
 40
1.0
 40
1.0
 10
87.819565468531366
 20
111.77573962244104
 30
0.0
 10
87.894258433085199
 20
111.93229002985071
 30
0.0
 10
88.02625053475451
 20
112.0131234649093
 30
0.0
  0
SPLINE
  5
1C6
102
{ACAD_REACTORS
330
31
102
}
100
AcDbEntity
  8
0
  6
CONTINUOUS
100
AcDbSpline
210
0.0
220
0.0
230
1.0
 70
     8
 71
     2
 72
     6
 73
     3
 74
     0
 42
0.0000001
 43
0.0000001
 40
0.0
 40
0.0
 40
0.0
 40
1.0
 40
1.0
 40
1.0
 10
88.026250534754467
 20
112.0131234649093
 30
0.0
 10
88.158242040377331
 20
112.09395689996789
 30
0.0
 10
88.317860298853589
 20
112.09395689996789
 30
0.0
  0
SPLINE
  5
1C7
102
{ACAD_REACTORS
330
31
102
}
100
AcDbEntity
  8
0
  6
CONTINUOUS
100
AcDbSpline
210
0.0
220
0.0
230
1.0
 70
     8
 71
     2
 72
     6
 73
     3
 74
     0
 42
0.0000001
 43
0.0000001
 40
0.0
 40
0.0
 40
0.0
 40
1.0
 40
1.0
 40
1.0
 10
88.317860298853589
 20
112.09395689996789
 30
0.0
 10
88.463153773050976
 20
112.09395689996789
 30
0.0
 10
88.586959772806836
 20
112.02744765314172
 30
0.0
  0
SPLINE
  5
1C8
102
{ACAD_REACTORS
330
31
102
}
100
AcDbEntity
  8
0
  6
CONTINUOUS
100
AcDbSpline
210
0.0
220
0.0
230
1.0
 70
     8
 71
     2
 72
     6
 73
     3
 74
     0
 42
0.0000001
 43
0.0000001
 40
0.0
 40
0.0
 40
0.0
 40
1.0
 40
1.0
 40
1.0
 10
88.586959772806836
 20
112.02744765314172
 30
0.0
 10
88.710765772562695
 20
111.96093840631555
 30
0.0
 10
88.792621427279187
 20
111.84634013208459
 30
0.0
  0
SPLINE
  5
1C9
102
{ACAD_REACTORS
330
31
102
}
100
AcDbEntity
  8
0
  6
CONTINUOUS
100
AcDbSpline
210
0.0
220
0.0
230
1.0
 70
     8
 71
     2
 72
     6
 73
     3
 74
     0
 42
0.0000001
 43
0.0000001
 40
0.0
 40
0.0
 40
0.0
 40
1.0
 40
1.0
 40
1.0
 10
88.792621427279187
 20
111.84634013208461
 30
0.0
 10
88.856059246760083
 20
111.76039023431849
 30
0.0
 10
88.900057011347485
 20
111.61202712091517
 30
0.0
  0
SPLINE
  5
1CA
102
{ACAD_REACTORS
330
31
102
}
100
AcDbEntity
  8
0
  6
CONTINUOUS
100
AcDbSpline
210
0.0
220
0.0
230
1.0
 70
     8
 71
     2
 72
     6
 73
     3
 74
     0
 42
0.0000001
 43
0.0000001
 40
0.0
 40
0.0
 40
0.0
 40
1.0
 40
1.0
 40
1.0
 10
88.900057011347428
 20
111.61202712091516
 30
0.0
 10
88.944054179888383
 20
111.46366400751184
 30
0.0
 10
88.944054179888383
 20
111.29381461175988
 30
0.0
  0
SPLINE
  5
1CB
102
{ACAD_REACTORS
330
31
102
}
100
AcDbEntity
  8
0
  6
CONTINUOUS
100
AcDbSpline
210
0.0
220
0.0
230
1.0
 70
     8
 71
     2
 72
     6
 73
     3
 74
     0
 42
0.0000001
 43
0.0000001
 40
0.0
 40
0.0
 40
0.0
 40
1.0
 40
1.0
 40
1.0
 10
88.944054179888496
 20
111.29381461175988
 30
0.0
 10
88.944054179888496
 20
111.0380200866134
 30
0.0
 10
88.870384031039009
 20
110.84463400873254
 30
0.0
  0
SPLINE
  5
1CC
102
{ACAD_REACTORS
330
31
102
}
100
AcDbEntity
  8
0
  6
CONTINUOUS
100
AcDbSpline
210
0.0
220
0.0
230
1.0
 70
     8
 71
     2
 72
     6
 73
     3
 74
     0
 42
0.0000001
 43
0.0000001
 40
0.0
 40
0.0
 40
0.0
 40
1.0
 40
1.0
 40
1.0
 10
88.870384031038952
 20
110.84463400873254
 30
0.0
 10
88.796714478235913
 20
110.65125269922326
 30
0.0
 10
88.670861654978467
 20
110.55916590723108
 30
0.0
  0
SPLINE
  5
1CD
102
{ACAD_REACTORS
330
31
102
}
100
AcDbEntity
  8
0
  6
CONTINUOUS
100
AcDbSpline
210
0.0
220
0.0
230
1.0
 70
     8
 71
     2
 72
     6
 73
     3
 74
     0
 42
0.0000001
 43
0.0000001
 40
0.0
 40
0.0
 40
0.0
 40
1.0
 40
1.0
 40
1.0
 10
88.670861654978467
 20
110.55916590723108
 30
0.0
 10
88.54500883172102
 20
110.46707434686731
 30
0.0
 10
88.334231310587597
 20
110.43228907617639
 30
0.0
  0
LINE
  5
1CE
102
{ACAD_REACTORS
330
31
102
}
100
AcDbEntity
  8
0
  6
CONTINUOUS
100
AcDbLine
 10
88.334231
 20
110.432289
 30
0.0
 11
88.285118
 21
110.792454
 31
0.0
  0
SPLINE
  5
1CF
102
{ACAD_REACTORS
330
31
102
}
100
AcDbEntity
  8
0
  6
CONTINUOUS
100
AcDbSpline
210
0.0
220
0.0
230
1.0
 70
     8
 71
     2
 72
     6
 73
     3
 74
     0
 42
0.0000001
 43
0.0000001
 40
0.0
 40
0.0
 40
0.0
 40
1.0
 40
1.0
 40
1.0
 10
88.285118275385614
 20
110.79245371851037
 30
0.0
 10
88.452921443682428
 20
110.81700606378625
 30
0.0
 10
88.54705565522265
 20
110.93467993768762
 30
0.0
  0
SPLINE
  5
1D0
102
{ACAD_REACTORS
330
31
102
}
100
AcDbEntity
  8
0
  6
CONTINUOUS
100
AcDbSpline
210
0.0
220
0.0
230
1.0
 70
     8
 71
     2
 72
     6
 73
     3
 74
     0
 42
0.0000001
 43
0.0000001
 40
0.0
 40
0.0
 40
0.0
 40
1.0
 40
1.0
 40
1.0
 10
88.54705565522265
 20
110.93467993768762
 30
0.0
 10
88.641189270716424
 20
111.05234427484582
 30
0.0
 10
88.641189270716424
 20
111.26721663507531
 30
0.0
  0
SPLINE
  5
1D1
102
{ACAD_REACTORS
330
31
102
}
100
AcDbEntity
  8
0
  6
CONTINUOUS
100
AcDbSpline
210
0.0
220
0.0
230
1.0
 70
     8
 71
     2
 72
     6
 73
     3
 74
     0
 42
0.0000001
 43
0.0000001
 40
0.0
 40
0.0
 40
0.0
 40
1.0
 40
1.0
 40
1.0
 10
88.641189270716325
 20
111.26721663507531
 30
0.0
 10
88.641189270716325
 20
111.52096552881311
 30
0.0
 10
88.557287388544694
 20
111.62942214044641
 30
0.0
  0
SPLINE
  5
1D2
102
{ACAD_REACTORS
330
31
102
}
100
AcDbEntity
  8
0
  6
CONTINUOUS
100
AcDbSpline
210
0.0
220
0.0
230
1.0
 70
     8
 71
     2
 72
     6
 73
     3
 74
     0
 42
0.0000001
 43
0.0000001
 40
0.0
 40
0.0
 40
0.0
 40
1.0
 40
1.0
 40
1.0
 10
88.557287388544751
 20
111.62942214044641
 30
0.0
 10
88.47338550637312
 20
111.73788352045129
 30
0.0
 10
88.36083405564375
 20
111.73788352045129
 30
0.0
  0
SPLINE
  5
1D3
102
{ACAD_REACTORS
330
31
102
}
100
AcDbEntity
  8
0
  6
CONTINUOUS
100
AcDbSpline
210
0.0
220
0.0
230
1.0
 70
     8
 71
     2
 72
     6
 73
     3
 74
     0
 42
0.0000001
 43
0.0000001
 40
0.0
 40
0.0
 40
0.0
 40
1.0
 40
1.0
 40
1.0
 10
88.360834055643807
 20
111.73788352045129
 30
0.0
 10
88.289210730295906
 20
111.73788352045129
 30
0.0
 10
88.231912189226875
 20
111.69286055597375
 30
0.0
  0
SPLINE
  5
1D4
102
{ACAD_REACTORS
330
31
102
}
100
AcDbEntity
  8
0
  6
CONTINUOUS
100
AcDbSpline
210
0.0
220
0.0
230
1.0
 70
     8
 71
     2
 72
     6
 73
     3
 74
     0
 42
0.0000001
 43
0.0000001
 40
0.0
 40
0.0
 40
0.0
 40
1.0
 40
1.0
 40
1.0
 10
88.231912189226762
 20
111.69286055597375
 30
0.0
 10
88.172566824656144
 20
111.64784235986779
 30
0.0
 10
88.133685522776261
 20
111.55165953668664
 30
0.0
  0
SPLINE
  5
1D5
102
{ACAD_REACTORS
330
31
102
}
100
AcDbEntity
  8
0
  6
CONTINUOUS
100
AcDbSpline
210
0.0
220
0.0
230
1.0
 70
     8
 71
     2
 72
     6
 73
     3
 74
     0
 42
0.0000001
 43
0.0000001
 40
0.0
 40
0.0
 40
0.0
 40
1.0
 40
1.0
 40
1.0
 10
88.133685522776318
 20
111.55165953668664
 30
0.0
 10
88.113222056132031
 20
111.49640841516565
 30
0.0
 10
88.039551907282544
 20
111.22628493341516
 30
0.0
  0
SPLINE
  5
1D6
102
{ACAD_REACTORS
330
31
102
}
100
AcDbEntity
  8
0
  6
CONTINUOUS
100
AcDbSpline
210
0.0
220
0.0
230
1.0
 70
     8
 71
     2
 72
     6
 73
     3
 74
     0
 42
0.0000001
 43
0.0000001
 40
0.0
 40
0.0
 40
0.0
 40
1.0
 40
1.0
 40
1.0
 10
88.039551907282544
 20
111.22628493341516
 30
0.0
 10
87.935185962420178
 20
110.83542628320764
 30
0.0
 10
87.868678503733349
 20
110.68092627557824
 30
0.0
  0
SPLINE
  5
1D7
102
{ACAD_REACTORS
330
31
102
}
100
AcDbEntity
  8
0
  6
CONTINUOUS
100
AcDbSpline
210
0.0
220
0.0
230
1.0
 70
     8
 71
     2
 72
     6
 73
     3
 74
     0
 42
0.0000001
 43
0.0000001
 40
0.0
 40
0.0
 40
0.0
 40
1.0
 40
1.0
 40
1.0
 10
87.868678503733349
 20
110.68092627557824
 30
0.0
 10
87.802171045046521
 20
110.52642149957727
 30
0.0
 10
87.675295406084729
 20
110.43842597040246
 30
0.0
  0
SPLINE
  5
1D8
102
{ACAD_REACTORS
330
31
102
}
100
AcDbEntity
  8
0
  6
CONTINUOUS
100
AcDbSpline
210
0.0
220
0.0
230
1.0
 70
     8
 71
     2
 72
     6
 73
     3
 74
     0
 42
0.0000001
 43
0.0000001
 40
0.0
 40
0.0
 40
0.0
 40
1.0
 40
1.0
 40
1.0
 10
87.675295406084729
 20
110.43842597040246
 30
0.0
 10
87.548419767122937
 20
110.35043044122766
 30
0.0
 10
87.36015194008894
 20
110.35043044122766
 30
0.0
  0
SPLINE
  5
1D9
102
{ACAD_REACTORS
330
31
102
}
100
AcDbEntity
  8
0
  6
CONTINUOUS
100
AcDbSpline
210
0.0
220
0.0
230
1.0
 70
     8
 71
     2
 72
     6
 73
     3
 74
     0
 42
0.0000001
 43
0.0000001
 40
0.0
 40
0.0
 40
0.0
 40
1.0
 40
1.0
 40
1.0
 10
87.36015194008894
 20
110.35043044122766
 30
0.0
 10
87.175977760058117
 20
110.35043044122766
 30
0.0
 10
87.013289862375927
 20
110.45787138971399
 30
0.0
  0
SPLINE
  5
1DA
102
{ACAD_REACTORS
330
31
102
}
100
AcDbEntity
  8
0
  6
CONTINUOUS
100
AcDbSpline
210
0.0
220
0.0
230
1.0
 70
     8
 71
     2
 72
     6
 73
     3
 74
     0
 42
0.0000001
 43
0.0000001
 40
0.0
 40
0.0
 40
0.0
 40
1.0
 40
1.0
 40
1.0
 10
87.013289862375927
 20
110.45787138971399
 30
0.0
 10
86.850602560740185
 20
110.56530280145715
 30
0.0
 10
86.761584811907483
 20
110.76789660486291
 30
0.0
  0
SPLINE
  5
1DB
102
{ACAD_REACTORS
330
31
102
}
100
AcDbEntity
  8
0
  6
CONTINUOUS
100
AcDbSpline
210
0.0
220
0.0
230
1.0
 70
     8
 71
     2
 72
     6
 73
     3
 74
     0
 42
0.0000001
 43
0.0000001
 40
0.0
 40
0.0
 40
0.0
 40
1.0
 40
1.0
 40
1.0
 10
86.761584811907468
 20
110.76789660486291
 30
0.0
 10
86.672567063074766
 20
110.97049040826867
 30
0.0
 10
86.672567063074766
 20
111.22628493341516
 30
0.0
  0
SPLINE
  5
1DC
102
{ACAD_REACTORS
330
31
102
}
100
AcDbEntity
  8
0
  6
CONTINUOUS
100
AcDbSpline
210
0.0
220
0.0
230
1.0
 70
     8
 71
     2
 72
     6
 73
     3
 74
     0
 42
0.0000001
 43
0.0000001
 40
0.0
 40
0.0
 40
0.0
 40
1.0
 40
1.0
 40
1.0
 10
86.672567063074837
 20
111.22628493341516
 30
0.0
 10
86.672567063074837
 20
111.64988799127649
 30
0.0
 10
86.848555737238655
 20
111.87192244562219
 30
0.0
  0
SPLINE
  5
1DD
102
{ACAD_REACTORS
330
31
102
}
100
AcDbEntity
  8
0
  6
CONTINUOUS
100
AcDbSpline
210
0.0
220
0.0
230
1.0
 70
     8
 71
     2
 72
     6
 73
     3
 74
     0
 42
0.0000001
 43
0.0000001
 40
0.0
 40
0.0
 40
0.0
 40
1.0
 40
1.0
 40
1.0
 10
86.848555737238541
 20
111.87192244562219
 30
0.0
 10
87.024545007448808
 20
112.09395689996789
 30
0.0
 10
87.370384269457475
 20
112.15534491571496
 30
0.0
  0
LWPOLYLINE
  5
1DE
102
{ACAD_REACTORS
330
31
102
}
100
AcDbEntity
  8
0
  6
CONTINUOUS
100
AcDbPolyline
 90
        5
 70
     0
 10
89.72168
 20
109.910462
 10
89.298079
 20
109.910462
 10
89.298079
 20
109.542115
 10
89.72168
 20
109.542115
 10
89.72168
 20
109.910462
  0
LWPOLYLINE
  5
1DF
102
{ACAD_REACTORS
330
31
102
}
100
AcDbEntity
  8
0
  6
CONTINUOUS
100
AcDbPolyline
 90
        5
 70
     0
 10
88.894941
 20
109.910462
 10
86.72168
 20
109.910462
 10
86.72168
 20
109.542115
 10
88.894941
 20
109.542115
 10
88.894941
 20
109.910462
  0
LINE
  5
1E0
102
{ACAD_REACTORS
330
31
102
}
100
AcDbEntity
  8
0
  6
CONTINUOUS
100
AcDbLine
 10
86.72168
 20
107.571443
 30
0.0
 11
86.995895
 21
107.571443
 31
0.0
  0
SPLINE
  5
1E1
102
{ACAD_REACTORS
330
31
102
}
100
AcDbEntity
  8
0
  6
CONTINUOUS
100
AcDbSpline
210
0.0
220
0.0
230
1.0
 70
     8
 71
     2
 72
     6
 73
     3
 74
     0
 42
0.0000001
 43
0.0000001
 40
0.0
 40
0.0
 40
0.0
 40
1.0
 40
1.0
 40
1.0
 10
86.995895438891125
 20
107.57144255670617
 30
0.0
 10
86.67256706307478
 20
107.7781323913009
 30
0.0
 10
86.67256706307478
 20
108.17921919855188
 30
0.0
  0
SPLINE
  5
1E2
102
{ACAD_REACTORS
330
31
102
}
100
AcDbEntity
  8
0
  6
CONTINUOUS
100
AcDbSpline
210
0.0
220
0.0
230
1.0
 70
     8
 71
     2
 72
     6
 73
     3
 74
     0
 42
0.0000001
 43
0.0000001
 40
0.0
 40
0.0
 40
0.0
 40
1.0
 40
1.0
 40
1.0
 10
86.672567063074837
 20
108.17921919855188
 30
0.0
 10
86.672567063074837
 20
108.43911452325891
 30
0.0
 10
86.815813713770638
 20
108.65704817804406
 30
0.0
  0
SPLINE
  5
1E3
102
{ACAD_REACTORS
330
31
102
}
100
AcDbEntity
  8
0
  6
CONTINUOUS
100
AcDbSpline
210
0.0
220
0.0
230
1.0
 70
     8
 71
     2
 72
     6
 73
     3
 74
     0
 42
0.0000001
 43
0.0000001
 40
0.0
 40
0.0
 40
0.0
 40
1.0
 40
1.0
 40
1.0
 10
86.81581371377051
 20
108.65704817804406
 30
0.0
 10
86.959060960512758
 20
108.87499136957238
 30
0.0
 10
87.215881877642275
 20
108.99470610651086
 30
0.0
  0
SPLINE
  5
1E4
102
{ACAD_REACTORS
330
31
102
}
100
AcDbEntity
  8
0
  6
CONTINUOUS
100
AcDbSpline
210
0.0
220
0.0
230
1.0
 70
     8
 71
     2
 72
     6
 73
     3
 74
     0
 42
0.0000001
 43
0.0000001
 40
0.0
 40
0.0
 40
0.0
 40
1.0
 40
1.0
 40
1.0
 10
87.215881877642389
 20
108.99470610651086
 30
0.0
 10
87.472703390818353
 20
109.11442084344934
 30
0.0
 10
87.806264096003289
 20
109.11442084344934
 30
0.0
  0
SPLINE
  5
1E5
102
{ACAD_REACTORS
330
31
102
}
100
AcDbEntity
  8
0
  6
CONTINUOUS
100
AcDbSpline
210
0.0
220
0.0
230
1.0
 70
     8
 71
     2
 72
     6
 73
     3
 74
     0
 42
0.0000001
 43
0.0000001
 40
0.0
 40
0.0
 40
0.0
 40
1.0
 40
1.0
 40
1.0
 10
87.806264096003304
 20
109.11442084344934
 30
0.0
 10
88.131639295321236
 20
109.11442084344934
 30
0.0
 10
88.396645718317757
 20
109.00595946344446
 30
0.0
  0
SPLINE
  5
1E6
102
{ACAD_REACTORS
330
31
102
}
100
AcDbEntity
  8
0
  6
CONTINUOUS
100
AcDbSpline
210
0.0
220
0.0
230
1.0
 70
     8
 71
     2
 72
     6
 73
     3
 74
     0
 42
0.0000001
 43
0.0000001
 40
0.0
 40
0.0
 40
0.0
 40
1.0
 40
1.0
 40
1.0
 10
88.3966457183177
 20
109.00595946344446
 30
0.0
 10
88.661652737360669
 20
108.89750285181115
 30
0.0
 10
88.80285316060133
 20
108.68058486017297
 30
0.0
  0
SPLINE
  5
1E7
102
{ACAD_REACTORS
330
31
102
}
100
AcDbEntity
  8
0
  6
CONTINUOUS
100
AcDbSpline
210
0.0
220
0.0
230
1.0
 70
     8
 71
     2
 72
     6
 73
     3
 74
     0
 42
0.0000001
 43
0.0000001
 40
0.0
 40
0.0
 40
0.0
 40
1.0
 40
1.0
 40
1.0
 10
88.802853160601273
 20
108.68058486017297
 30
0.0
 10
88.944053583841935
 20
108.46367163690637
 30
0.0
 10
88.944053583841935
 20
108.19559378656457
 30
0.0
  0
SPLINE
  5
1E8
102
{ACAD_REACTORS
330
31
102
}
100
AcDbEntity
  8
0
  6
CONTINUOUS
100
AcDbSpline
210
0.0
220
0.0
230
1.0
 70
     8
 71
     2
 72
     6
 73
     3
 74
     0
 42
0.0000001
 43
0.0000001
 40
0.0
 40
0.0
 40
0.0
 40
1.0
 40
1.0
 40
1.0
 10
88.944053583842049
 20
108.19559378656457
 30
0.0
 10
88.944053583842049
 20
107.99913687738488
 30
0.0
 10
88.861175113421211
 20
107.84566206964563
 30
0.0
  0
SPLINE
  5
1E9
102
{ACAD_REACTORS
330
31
102
}
100
AcDbEntity
  8
0
  6
CONTINUOUS
100
AcDbSpline
210
0.0
220
0.0
230
1.0
 70
     8
 71
     2
 72
     6
 73
     3
 74
     0
 42
0.0000001
 43
0.0000001
 40
0.0
 40
0.0
 40
0.0
 40
1.0
 40
1.0
 40
1.0
 10
88.86117511342114
 20
107.84566206964563
 30
0.0
 10
88.778296643000303
 20
107.69217772516321
 30
0.0
 10
88.645281725626646
 20
107.59599967035363
 30
0.0
  0
LINE
  5
1EA
102
{ACAD_REACTORS
330
31
102
}
100
AcDbEntity
  8
0
  6
CONTINUOUS
100
AcDbLine
 10
88.645282
 20
107.596
 30
0.0
 11
89.72168
 21
107.596
 31
0.0
  0
LINE
  5
1EB
102
{ACAD_REACTORS
330
31
102
}
100
AcDbEntity
  8
0
  6
CONTINUOUS
100
AcDbLine
 10
89.72168
 20
107.596
 30
0.0
 11
89.72168
 21
107.229698
 31
0.0
  0
LINE
  5
1EC
102
{ACAD_REACTORS
330
31
102
}
100
AcDbEntity
  8
0
  6
CONTINUOUS
100
AcDbLine
 10
89.72168
 20
107.229698
 30
0.0
 11
86.72168
 21
107.229698
 31
0.0
  0
LINE
  5
1ED
102
{ACAD_REACTORS
330
31
102
}
100
AcDbEntity
  8
0
  6
CONTINUOUS
100
AcDbLine
 10
86.72168
 20
107.229698
 30
0.0
 11
86.72168
 21
107.571443
 31
0.0
  0
SPLINE
  5
1EE
102
{ACAD_REACTORS
330
31
102
}
100
AcDbEntity
  8
0
  6
CONTINUOUS
100
AcDbSpline
210
0.0
220
0.0
230
1.0
 70
     8
 71
     2
 72
     6
 73
     3
 74
     0
 42
0.0000001
 43
0.0000001
 40
0.0
 40
0.0
 40
0.0
 40
1.0
 40
1.0
 40
1.0
 10
87.806264096003304
 20
108.73584075006555
 30
0.0
 10
87.388801508646736
 20
108.73584075006555
 30
0.0
 10
87.182116442423592
 20
108.55984969171594
 30
0.0
  0
SPLINE
  5
1EF
102
{ACAD_REACTORS
330
31
102
}
100
AcDbEntity
  8
0
  6
CONTINUOUS
100
AcDbSpline
210
0.0
220
0.0
230
1.0
 70
     8
 71
     2
 72
     6
 73
     3
 74
     0
 42
0.0000001
 43
0.0000001
 40
0.0
 40
0.0
 40
0.0
 40
1.0
 40
1.0
 40
1.0
 10
87.182116442423592
 20
108.55984969171594
 30
0.0
 10
86.975431972246895
 20
108.38385863336633
 30
0.0
 10
86.975431972246895
 20
108.14442915948938
 30
0.0
  0
SPLINE
  5
1F0
102
{ACAD_REACTORS
330
31
102
}
100
AcDbEntity
  8
0
  6
CONTINUOUS
100
AcDbSpline
210
0.0
220
0.0
230
1.0
 70
     8
 71
     2
 72
     6
 73
     3
 74
     0
 42
0.0000001
 43
0.0000001
 40
0.0
 40
0.0
 40
0.0
 40
1.0
 40
1.0
 40
1.0
 10
86.975431972246824
 20
108.14442915948938
 30
0.0
 10
86.975431972246824
 20
107.90295882257531
 30
0.0
 10
87.172908120852171
 20
107.73412985834192
 30
0.0
  0
SPLINE
  5
1F1
102
{ACAD_REACTORS
330
31
102
}
100
AcDbEntity
  8
0
  6
CONTINUOUS
100
AcDbSpline
210
0.0
220
0.0
230
1.0
 70
     8
 71
     2
 72
     6
 73
     3
 74
     0
 42
0.0000001
 43
0.0000001
 40
0.0
 40
0.0
 40
0.0
 40
1.0
 40
1.0
 40
1.0
 10
87.172908120852242
 20
107.73412985834192
 30
0.0
 10
87.370383673411141
 20
107.5653056624801
 30
0.0
 10
87.775568299990425
 20
107.5653056624801
 30
0.0
  0
SPLINE
  5
1F2
102
{ACAD_REACTORS
330
31
102
}
100
AcDbEntity
  8
0
  6
CONTINUOUS
100
AcDbSpline
210
0.0
220
0.0
230
1.0
 70
     8
 71
     2
 72
     6
 73
     3
 74
     0
 42
0.0000001
 43
0.0000001
 40
0.0
 40
0.0
 40
0.0
 40
1.0
 40
1.0
 40
1.0
 10
87.775568299990368
 20
107.5653056624801
 30
0.0
 10
88.221679859858227
 20
107.5653056624801
 30
0.0
 10
88.430411153536511
 20
107.73720068964074
 30
0.0
  0
SPLINE
  5
1F3
102
{ACAD_REACTORS
330
31
102
}
100
AcDbEntity
  8
0
  6
CONTINUOUS
100
AcDbSpline
210
0.0
220
0.0
230
1.0
 70
     8
 71
     2
 72
     6
 73
     3
 74
     0
 42
0.0000001
 43
0.0000001
 40
0.0
 40
0.0
 40
0.0
 40
1.0
 40
1.0
 40
1.0
 10
88.430411153536511
 20
107.73720068964074
 30
0.0
 10
88.639142447214795
 20
107.90910048517297
 30
0.0
 10
88.639142447214795
 20
108.16080374750207
 30
0.0
  0
SPLINE
  5
1F4
102
{ACAD_REACTORS
330
31
102
}
100
AcDbEntity
  8
0
  6
CONTINUOUS
100
AcDbSpline
210
0.0
220
0.0
230
1.0
 70
     8
 71
     2
 72
     6
 73
     3
 74
     0
 42
0.0000001
 43
0.0000001
 40
0.0
 40
0.0
 40
0.0
 40
1.0
 40
1.0
 40
1.0
 10
88.639142447214738
 20
108.16080374750207
 30
0.0
 10
88.639142447214738
 20
108.4063701156051
 30
0.0
 10
88.438596659403458
 20
108.57110304864953
 30
0.0
  0
SPLINE
  5
1F5
102
{ACAD_REACTORS
330
31
102
}
100
AcDbEntity
  8
0
  6
CONTINUOUS
100
AcDbSpline
210
0.0
220
0.0
230
1.0
 70
     8
 71
     2
 72
     6
 73
     3
 74
     0
 42
0.0000001
 43
0.0000001
 40
0.0
 40
0.0
 40
0.0
 40
1.0
 40
1.0
 40
1.0
 10
88.438596659403572
 20
108.57110304864953
 30
0.0
 10
88.238050871592293
 20
108.73584075006555
 30
0.0
 10
87.806264096003304
 20
108.73584075006555
 30
0.0
  0
LINE
  5
1F6
102
{ACAD_REACTORS
330
31
102
}
100
AcDbEntity
  8
0
  6
CONTINUOUS
100
AcDbLine
 10
87.421544
 20
105.162847
 30
0.0
 11
87.374477
 21
104.782222
 31
0.0
  0
SPLINE
  5
1F7
102
{ACAD_REACTORS
330
31
102
}
100
AcDbEntity
  8
0
  6
CONTINUOUS
100
AcDbSpline
210
0.0
220
0.0
230
1.0
 70
     8
 71
     2
 72
     6
 73
     3
 74
     0
 42
0.0000001
 43
0.0000001
 40
0.0
 40
0.0
 40
0.0
 40
1.0
 40
1.0
 40
1.0
 10
87.37447672436781
 20
104.78222174676965
 30
0.0
 10
87.040916019182873
 20
104.87225813898156
 30
0.0
 10
86.856741243105603
 20
105.1157788756759
 30
0.0
  0
SPLINE
  5
1F8
102
{ACAD_REACTORS
330
31
102
}
100
AcDbEntity
  8
0
  6
CONTINUOUS
100
AcDbSpline
210
0.0
220
0.0
230
1.0
 70
     8
 71
     2
 72
     6
 73
     3
 74
     0
 42
0.0000001
 43
0.0000001
 40
0.0
 40
0.0
 40
0.0
 40
1.0
 40
1.0
 40
1.0
 10
86.85674124310566
 20
105.1157788756759
 30
0.0
 10
86.672567063074837
 20
105.35929961237024
 30
0.0
 10
86.672567063074837
 20
105.73787970575403
 30
0.0
  0
SPLINE
  5
1F9
102
{ACAD_REACTORS
330
31
102
}
100
AcDbEntity
  8
0
  6
CONTINUOUS
100
AcDbSpline
210
0.0
220
0.0
230
1.0
 70
     8
 71
     2
 72
     6
 73
     3
 74
     0
 42
0.0000001
 43
0.0000001
 40
0.0
 40
0.0
 40
0.0
 40
1.0
 40
1.0
 40
1.0
 10
86.67256706307478
 20
105.73787970575403
 30
0.0
 10
86.67256706307478
 20
106.21468825372766
 30
0.0
 10
86.96622305462904
 20
106.49401946100305
 30
0.0
  0
SPLINE
  5
1FA
102
{ACAD_REACTORS
330
31
102
}
100
AcDbEntity
  8
0
  6
CONTINUOUS
100
AcDbSpline
210
0.0
220
0.0
230
1.0
 70
     8
 71
     2
 72
     6
 73
     3
 74
     0
 42
0.0000001
 43
0.0000001
 40
0.0
 40
0.0
 40
0.0
 40
1.0
 40
1.0
 40
1.0
 10
86.96622305462904
 20
106.49401946100305
 30
0.0
 10
87.2598790461833
 20
106.77335066827844
 30
0.0
 10
87.789893084269238
 20
106.77335066827844
 30
0.0
  0
SPLINE
  5
1FB
102
{ACAD_REACTORS
330
31
102
}
100
AcDbEntity
  8
0
  6
CONTINUOUS
100
AcDbSpline
210
0.0
220
0.0
230
1.0
 70
     8
 71
     2
 72
     6
 73
     3
 74
     0
 42
0.0000001
 43
0.0000001
 40
0.0
 40
0.0
 40
0.0
 40
1.0
 40
1.0
 40
1.0
 10
87.789893084269238
 20
106.77335066827844
 30
0.0
 10
88.338323765497876
 20
106.77335066827844
 30
0.0
 10
88.641189270716382
 20
106.49094862970422
 30
0.0
  0
SPLINE
  5
1FC
102
{ACAD_REACTORS
330
31
102
}
100
AcDbEntity
  8
0
  6
CONTINUOUS
100
AcDbSpline
210
0.0
220
0.0
230
1.0
 70
     8
 71
     2
 72
     6
 73
     3
 74
     0
 42
0.0000001
 43
0.0000001
 40
0.0
 40
0.0
 40
0.0
 40
1.0
 40
1.0
 40
1.0
 10
88.641189270716382
 20
106.49094862970422
 30
0.0
 10
88.94405417988844
 20
106.20855135950158
 30
0.0
 10
88.94405417988844
 20
105.7583455565841
 30
0.0
  0
SPLINE
  5
1FD
102
{ACAD_REACTORS
330
31
102
}
100
AcDbEntity
  8
0
  6
CONTINUOUS
100
AcDbSpline
210
0.0
220
0.0
230
1.0
 70
     8
 71
     2
 72
     6
 73
     3
 74
     0
 42
0.0000001
 43
0.0000001
 40
0.0
 40
0.0
 40
0.0
 40
1.0
 40
1.0
 40
1.0
 10
88.94405417988844
 20
105.7583455565841
 30
0.0
 10
88.94405417988844
 20
105.32246871027063
 30
0.0
 10
88.647328549128247
 20
105.04620356592248
 30
0.0
  0
SPLINE
  5
1FE
102
{ACAD_REACTORS
330
31
102
}
100
AcDbEntity
  8
0
  6
CONTINUOUS
100
AcDbSpline
210
0.0
220
0.0
230
1.0
 70
     8
 71
     2
 72
     6
 73
     3
 74
     0
 42
0.0000001
 43
0.0000001
 40
0.0
 40
0.0
 40
0.0
 40
1.0
 40
1.0
 40
1.0
 10
88.647328549128289
 20
105.04620356592248
 30
0.0
 10
88.350602322321649
 20
104.76994318994592
 30
0.0
 10
87.812403374415155
 20
104.76994318994592
 30
0.0
  0
SPLINE
  5
1FF
102
{ACAD_REACTORS
330
31
102
}
100
AcDbEntity
  8
0
  6
CONTINUOUS
100
AcDbSpline
210
0.0
220
0.0
230
1.0
 70
     8
 71
     2
 72
     6
 73
     3
 74
     0
 42
0.0000001
 43
0.0000001
 40
0.0
 40
0.0
 40
0.0
 40
1.0
 40
1.0
 40
1.0
 10
87.812403374415055
 20
104.76994318994592
 30
0.0
 10
87.77966075490059
 20
104.76994318994592
 30
0.0
 10
87.714176707964555
 20
104.77198882135461
 30
0.0
  0
LINE
  5
200
102
{ACAD_REACTORS
330
31
102
}
100
AcDbEntity
  8
0
  6
CONTINUOUS
100
AcDbLine
 10
87.714177
 20
104.771989
 30
0.0
 11
87.714177
 21
106.392725
 31
0.0
  0
SPLINE
  5
201
102
{ACAD_REACTORS
330
31
102
}
100
AcDbEntity
  8
0
  6
CONTINUOUS
100
AcDbSpline
210
0.0
220
0.0
230
1.0
 70
     8
 71
     2
 72
     6
 73
     3
 74
     0
 42
0.0000001
 43
0.0000001
 40
0.0
 40
0.0
 40
0.0
 40
1.0
 40
1.0
 40
1.0
 10
87.71417670796454
 20
106.39272494348596
 30
0.0
 10
87.356059485178591
 20
106.37226386102746
 30
0.0
 10
87.165745430689455
 20
106.1901311400802
 30
0.0
  0
SPLINE
  5
202
102
{ACAD_REACTORS
330
31
102
}
100
AcDbEntity
  8
0
  6
CONTINUOUS
100
AcDbSpline
210
0.0
220
0.0
230
1.0
 70
     8
 71
     2
 72
     6
 73
     3
 74
     0
 42
0.0000001
 43
0.0000001
 40
0.0
 40
0.0
 40
0.0
 40
1.0
 40
1.0
 40
1.0
 10
87.165745430689583
 20
106.1901311400802
 30
0.0
 10
86.975431972246895
 20
106.0080079558761
 30
0.0
 10
86.975431972246895
 20
105.73583884271692
 30
0.0
  0
SPLINE
  5
203
102
{ACAD_REACTORS
330
31
102
}
100
AcDbEntity
  8
0
  6
CONTINUOUS
100
AcDbSpline
210
0.0
220
0.0
230
1.0
 70
     8
 71
     2
 72
     6
 73
     3
 74
     0
 42
0.0000001
 43
0.0000001
 40
0.0
 40
0.0
 40
0.0
 40
1.0
 40
1.0
 40
1.0
 10
86.975431972246781
 20
105.73583884271692
 30
0.0
 10
86.975431972246781
 20
105.53324503931115
 30
0.0
 10
87.081843548517838
 20
105.38999838861535
 30
0.0
  0
SPLINE
  5
204
102
{ACAD_REACTORS
330
31
102
}
100
AcDbEntity
  8
0
  6
CONTINUOUS
100
AcDbSpline
210
0.0
220
0.0
230
1.0
 70
     8
 71
     2
 72
     6
 73
     3
 74
     0
 42
0.0000001
 43
0.0000001
 40
0.0
 40
0.0
 40
0.0
 40
1.0
 40
1.0
 40
1.0
 10
87.081843548517952
 20
105.38999838861535
 30
0.0
 10
87.188255720835457
 20
105.24674696954797
 30
0.0
 10
87.421543532114754
 20
105.16284747156213
 30
0.0
  0
LINE
  5
205
102
{ACAD_REACTORS
330
31
102
}
100
AcDbEntity
  8
0
  6
CONTINUOUS
100
AcDbLine
 10
88.017042
 20
106.372264
 30
0.0
 11
88.017042
 21
105.158756
 31
0.0
  0
SPLINE
  5
206
102
{ACAD_REACTORS
330
31
102
}
100
AcDbEntity
  8
0
  6
CONTINUOUS
100
AcDbSpline
210
0.0
220
0.0
230
1.0
 70
     8
 71
     2
 72
     6
 73
     3
 74
     0
 42
0.0000001
 43
0.0000001
 40
0.0
 40
0.0
 40
0.0
 40
1.0
 40
1.0
 40
1.0
 10
88.01704161713667
 20
105.15875620874475
 30
0.0
 10
88.291257553797436
 20
105.18331332239221
 30
0.0
 10
88.428364926081372
 20
105.29791159662317
 30
0.0
  0
SPLINE
  5
207
102
{ACAD_REACTORS
330
31
102
}
100
AcDbEntity
  8
0
  6
CONTINUOUS
100
AcDbSpline
210
0.0
220
0.0
230
1.0
 70
     8
 71
     2
 72
     6
 73
     3
 74
     0
 42
0.0000001
 43
0.0000001
 40
0.0
 40
0.0
 40
0.0
 40
1.0
 40
1.0
 40
1.0
 10
88.428364926081429
 20
105.29791159662317
 30
0.0
 10
88.641189270716438
 20
105.47389788660119
 30
0.0
 10
88.641189270716438
 20
105.75425429376672
 30
0.0
  0
SPLINE
  5
208
102
{ACAD_REACTORS
330
31
102
}
100
AcDbEntity
  8
0
  6
CONTINUOUS
100
AcDbSpline
210
0.0
220
0.0
230
1.0
 70
     8
 71
     2
 72
     6
 73
     3
 74
     0
 42
0.0000001
 43
0.0000001
 40
0.0
 40
0.0
 40
0.0
 40
1.0
 40
1.0
 40
1.0
 10
88.641189270716438
 20
105.75425429376672
 30
0.0
 10
88.641189270716438
 20
106.0080079558761
 30
0.0
 10
88.471339278918038
 20
106.18092818292688
 30
0.0
  0
SPLINE
  5
209
102
{ACAD_REACTORS
330
31
102
}
100
AcDbEntity
  8
0
  6
CONTINUOUS
100
AcDbSpline
210
0.0
220
0.0
230
1.0
 70
     8
 71
     2
 72
     6
 73
     3
 74
     0
 42
0.0000001
 43
0.0000001
 40
0.0
 40
0.0
 40
0.0
 40
1.0
 40
1.0
 40
1.0
 10
88.471339278917981
 20
106.18092818292688
 30
0.0
 10
88.30148928711958
 20
106.35384364160608
 30
0.0
 10
88.01704161713667
 20
106.37226386102746
 30
0.0
  0
ENDSEC
  0
SECTION
  2
OBJECTS
  0
DICTIONARY
  5
C
100
AcDbDictionary
  3
ACAD_GROUP
350
D
  3
ACAD_MLINESTYLE
350
1B
  0
DICTIONARY
  5
D
102
{ACAD_REACTORS
330
C
102
}
100
AcDbDictionary
  3
VISIOGROUP_0
350
31
  0
DICTIONARY
  5
1B
102
{ACAD_REACTORS
330
C
102
}
100
AcDbDictionary
  3
STANDARD
350
1C
  0
MLINESTYLE
  5
1C
102
{ACAD_REACTORS
330
1B
102
}
100
AcDbMlineStyle
  2
STANDARD
 70
     0
  3

 62
   256
 51
90.0
 52
90.0
 71
     2
 49
0.5
 62
   256
  6
BYLAYER
 49
-0.5
 62
   256
  6
BYLAYER
  0
DICTIONARY
  5
29
102
{ACAD_REACTORS
330
C
102
}
100
AcDbDictionary
  3
MODEL
350
2A
  3
LAYOUT1
350
2B
  0
DICTIONARY
  5
2C
102
{ACAD_REACTORS
330
C
102
}
100
AcDbDictionary
  0
GROUP
  5
31
102
{ACAD_REACTORS
330
D
102
}
100
AcDbGroup
300
Group created by Visio.
 70
     0
 71
     1
340
32
340
33
340
34
340
35
340
36
340
37
340
38
340
39
340
3A
340
3B
340
3C
340
3D
340
3E
340
3F
340
40
340
41
340
42
340
43
340
44
340
45
340
46
340
47
340
48
340
49
340
4A
340
4B
340
4C
340
4D
340
4E
340
4F
340
50
340
51
340
52
340
53
340
54
340
55
340
56
340
57
340
58
340
59
340
5A
340
5B
340
5C
340
5D
340
5E
340
5F
340
60
340
61
340
62
340
63
340
64
340
65
340
66
340
67
340
68
340
69
340
6A
340
6B
340
6C
340
6D
340
6E
340
6F
340
70
340
71
340
72
340
73
340
74
340
75
340
76
340
77
340
78
340
79
340
7A
340
7B
340
7C
340
7D
340
7E
340
7F
340
80
340
81
340
82
340
83
340
84
340
85
340
86
340
87
340
88
340
89
340
8A
340
8B
340
8C
340
8D
340
8E
340
8F
340
90
340
91
340
92
340
93
340
94
340
95
340
96
340
97
340
98
340
99
340
9A
340
9B
340
9C
340
9D
340
9E
340
9F
340
A0
340
A1
340
A2
340
A3
340
A4
340
A5
340
A6
340
A7
340
A8
340
A9
340
AA
340
AB
340
AC
340
AD
340
AE
340
AF
340
B0
340
B1
340
B2
340
B3
340
B4
340
B5
340
B6
340
B7
340
B8
340
B9
340
BA
340
BB
340
BC
340
BD
340
BE
340
BF
340
C0
340
C1
340
C2
340
C3
340
C4
340
C5
340
C6
340
C7
340
C8
340
C9
340
CA
340
CB
340
CC
340
CD
340
CE
340
CF
340
D0
340
D1
340
D2
340
D3
340
D4
340
D5
340
D6
340
D7
340
D8
340
D9
340
DA
340
DB
340
DC
340
DD
340
DE
340
DF
340
E0
340
E1
340
E2
340
E3
340
E4
340
E5
340
E6
340
E7
340
E8
340
E9
340
EA
340
EB
340
EC
340
ED
340
EE
340
EF
340
F0
340
F1
340
F2
340
F3
340
F4
340
F5
340
F6
340
F7
340
F8
340
F9
340
FA
340
FB
340
FC
340
FD
340
FE
340
FF
340
100
340
101
340
102
340
103
340
104
340
105
340
106
340
107
340
108
340
109
340
10A
340
10B
340
10C
340
10D
340
10E
340
10F
340
110
340
111
340
112
340
113
340
114
340
115
340
116
340
117
340
118
340
119
340
11A
340
11B
340
11C
340
11D
340
11E
340
11F
340
120
340
121
340
122
340
123
340
124
340
125
340
126
340
127
340
128
340
129
340
12A
340
12B
340
12C
340
12D
340
12E
340
12F
340
130
340
131
340
132
340
133
340
134
340
135
340
136
340
137
340
138
340
139
340
13A
340
13B
340
13C
340
13D
340
13E
340
13F
340
140
340
141
340
142
340
143
340
144
340
145
340
146
340
147
340
148
340
149
340
14A
340
14B
340
14C
340
14D
340
14E
340
14F
340
150
340
151
340
152
340
153
340
154
340
155
340
156
340
157
340
158
340
159
340
15A
340
15B
340
15C
340
15D
340
15E
340
15F
340
160
340
161
340
162
340
163
340
164
340
165
340
166
340
167
340
168
340
169
340
16A
340
16B
340
16C
340
16D
340
16E
340
16F
340
170
340
171
340
172
340
173
340
174
340
175
340
176
340
177
340
178
340
179
340
17A
340
17B
340
17C
340
17D
340
17E
340
17F
340
180
340
181
340
182
340
183
340
184
340
185
340
186
340
187
340
188
340
189
340
18A
340
18B
340
18C
340
18D
340
18E
340
18F
340
190
340
191
340
192
340
193
340
194
340
195
340
196
340
197
340
198
340
199
340
19A
340
19B
340
19C
340
19D
340
19E
340
19F
340
1A0
340
1A1
340
1A2
340
1A3
340
1A4
340
1A5
340
1A6
340
1A7
340
1A8
340
1A9
340
1AA
340
1AB
340
1AC
340
1AD
340
1AE
340
1AF
340
1B0
340
1B1
340
1B2
340
1B3
340
1B4
340
1B5
340
1B6
340
1B7
340
1B8
340
1B9
340
1BA
340
1BB
340
1BC
340
1BD
340
1BE
340
1BF
340
1C0
340
1C1
340
1C2
340
1C3
340
1C4
340
1C5
340
1C6
340
1C7
340
1C8
340
1C9
340
1CA
340
1CB
340
1CC
340
1CD
340
1CE
340
1CF
340
1D0
340
1D1
340
1D2
340
1D3
340
1D4
340
1D5
340
1D6
340
1D7
340
1D8
340
1D9
340
1DA
340
1DB
340
1DC
340
1DD
340
1DE
340
1DF
340
1E0
340
1E1
340
1E2
340
1E3
340
1E4
340
1E5
340
1E6
340
1E7
340
1E8
340
1E9
340
1EA
340
1EB
340
1EC
340
1ED
340
1EE
340
1EF
340
1F0
340
1F1
340
1F2
340
1F3
340
1F4
340
1F5
340
1F6
340
1F7
340
1F8
340
1F9
340
1FA
340
1FB
340
1FC
340
1FD
340
1FE
340
1FF
340
200
340
201
340
202
340
203
340
204
340
205
340
206
340
207
340
208
340
209
  0
ENDSEC
  0
EOF
