0
SECTION
2
HEADER
9
$INSUNITS
70
4
9
$ACADVER
1
AC1014
9
$HANDSEED
5
FFFF
0
ENDSEC
0
SECTION
2
TABLES
0
TABLE
2
VPORT
5
8
100
AcDbSymbolTable
0
ENDTAB
0
TABLE
2
LTYPE
5
5
100
AcDbSymbolTable
0
LTYPE
5
14
100
AcDbSymbolTableRecord
100
AcDbLinetypeTableRecord
2
BYBLOCK
70
0
0
LTYPE
5
15
100
AcDbSymbolTableRecord
100
AcDbLinetypeTableRecord
2
BYLAYER
70
0
0
ENDTAB
0
TABLE
2
LAYER
5
2
100
AcDbSymbolTable
70
2
0
LAYER
5
50
100
AcDbSymbolTableRecord
100
AcDbLayerTableRecord
2
0
70
0
6
CONTINUOUS
0
ENDTAB
0
TABLE
2
STYLE
5
3
100
AcDbSymbolTable
70
1
0
STYLE
5
11
100
AcDbSymbolTableRecord
100
AcDbTextStyleTableRecord
2
STANDARD
70
0
0
ENDTAB
0
TABLE
2
VIEW
5
6
100
AcDbSymbolTable
70
0
0
ENDTAB
0
TABLE
2
UCS
5
7
100
AcDbSymbolTable
70
0
0
ENDTAB
0
TABLE
2
APPID
5
9
100
AcDbSymbolTable
70
2
0
APPID
5
12
100
AcDbSymbolTableRecord
100
AcDbRegAppTableRecord
2
ACAD
70
0
0
ENDTAB
0
TABLE
2
DIMSTYLE
5
A
100
AcDbSymbolTable
70
1
0
ENDTAB
0
TABLE
2
BLOCK_RECORD
5
1
100
AcDbSymbolTable
70
1
0
BLOCK_RECORD
5
1F
100
AcDbSymbolTableRecord
100
AcDbBlockTableRecord
2
*MODEL_SPACE
0
BLOCK_RECORD
5
1B
100
AcDbSymbolTableRecord
100
AcDbBlockTableRecord
2
*PAPER_SPACE
0
ENDTAB
0
ENDSEC
0
SECTION
2
BLOCKS
0
BLOCK
5
20
100
AcDbEntity
100
AcDbBlockBegin
2
*MODEL_SPACE
0
ENDBLK
5
21
100
AcDbEntity
100
AcDbBlockEnd
0
BLOCK
5
1C
100
AcDbEntity
100
AcDbBlockBegin
2
*PAPER_SPACE
0
ENDBLK
5
1D
100
AcDbEntity
100
AcDbBlockEnd
0
ENDSEC
0
SECTION
2
ENTITIES
0
LINE
5
100
100
AcDbEntity
8
0
100
AcDbLine
10
574.23886466678698
20
112.63999999999999
30
0
11
574.23886466678698
21
140
31
1.7516230804060213e-45
0
LINE
5
101
100
AcDbEntity
8
0
100
AcDbLine
10
574.23886466678698
20
140
30
1.7516230804060213e-45
11
554.23886466678971
21
140
31
1.9096626617664589e-75
0
LINE
5
102
100
AcDbEntity
8
0
100
AcDbLine
10
554.2388646667896
20
140
30
3.5527136788005009e-14
11
554.2388646667896
21
143.19999999999999
31
3.5527136788005009e-14
0
LINE
5
103
100
AcDbEntity
8
0
100
AcDbLine
10
554.2388646667896
20
143.19999999999999
30
3.5527136788005009e-14
11
534.2388646667888
21
143.19999999999999
31
3.6637359812630166e-14
0
LINE
5
104
100
AcDbEntity
8
0
100
AcDbLine
10
534.2388646667888
20
143.19999999999999
30
1.7763568394002505e-14
11
534.2388646667888
21
140
31
1.7763568394002505e-14
0
LINE
5
105
100
AcDbEntity
8
0
100
AcDbLine
10
534.2388646667888
20
140
30
1.7763568394002505e-14
11
513.95552532360148
21
140
31
1.7763568394002505e-14
0
LINE
5
106
100
AcDbEntity
8
0
100
AcDbLine
10
513.95552532360148
20
140
30
1.7763568394002505e-14
11
513.95552532360148
21
143.19999999999999
31
5.3290705182007514e-14
0
LINE
5
107
100
AcDbEntity
8
0
100
AcDbLine
10
513.95552532360148
20
143.19999999999999
30
5.3290705182007514e-14
11
493.95552532360176
21
143.19999999999999
31
5.440092820663267e-14
0
LINE
5
108
100
AcDbEntity
8
0
100
AcDbLine
10
493.95552532360176
20
143.19999999999999
30
5.440092820663267e-14
11
493.95552532360176
21
140
31
1.7763568394002508e-14
0
LINE
5
109
100
AcDbEntity
8
0
100
AcDbLine
10
493.95552532360176
20
140
30
1.7763568394002508e-14
11
473.95552532360142
21
140
31
1.8873791418627661e-14
0
LINE
5
110
100
AcDbEntity
8
0
100
AcDbLine
10
473.95552532360142
20
140
30
1.8873791418627661e-14
11
473.95552532360136
21
3.2000000000000028
31
1.7763568394002492e-14
0
LINE
5
111
100
AcDbEntity
8
0
100
AcDbLine
10
473.95552532360136
20
3.2000000000000028
30
1.7763568394002492e-14
11
493.95552532360171
21
3.2000000000000006
31
7.0629962919597587e-46
0
LINE
5
112
100
AcDbEntity
8
0
100
AcDbLine
10
493.95552532360171
20
3.2000000000000006
30
7.0629962919597587e-46
11
493.95552532360176
21
0
31
1.7763568394002505e-14
0
LINE
5
113
100
AcDbEntity
8
0
100
AcDbLine
10
493.95552532360176
20
0
30
1.7763568394002505e-14
11
513.95552532360148
21
-1.4241265094401186e-29
31
1.6653345369377348e-14
0
LINE
5
114
100
AcDbEntity
8
0
100
AcDbLine
10
513.95552532360148
20
-1.4241265094401186e-29
30
1.6653345369377348e-14
11
513.95552532360148
21
3.2000000000000006
31
5.3290705182007514e-14
0
LINE
5
115
100
AcDbEntity
8
0
100
AcDbLine
10
513.95552532360148
20
3.2000000000000006
30
5.3290705182007514e-14
11
534.2388646667888
21
3.2000000000000006
31
5.3290705182007514e-14
0
LINE
5
116
100
AcDbEntity
8
0
100
AcDbLine
10
534.2388646667888
20
3.2000000000000006
30
1.7763568394002505e-14
11
534.2388646667888
21
0
31
1.7763568394002505e-14
0
LINE
5
117
100
AcDbEntity
8
0
100
AcDbLine
10
534.2388646667888
20
-1.4241265094401186e-29
30
1.7763568394002505e-14
11
554.2388646667896
21
-1.4241265094401169e-29
31
1.6653345369377348e-14
0
LINE
5
118
100
AcDbEntity
8
0
100
AcDbLine
10
554.2388646667896
20
-1.4241265094401169e-29
30
3.5527136788005009e-14
11
554.2388646667896
21
3.2000000000000006
31
3.5527136788005009e-14
0
LINE
5
119
100
AcDbEntity
8
0
100
AcDbLine
10
554.2388646667896
20
3.2000000000000006
30
3.5527136788005009e-14
11
574.23886466678687
21
3.2000000000000166
31
3.5527136788005009e-14
0
LINE
5
120
100
AcDbEntity
8
0
100
AcDbLine
10
574.23886466678687
20
3.2000000000000166
30
3.5527136788005009e-14
11
574.23886466678698
21
30.560000000000009
31
0
0
LINE
5
121
100
AcDbEntity
8
0
100
AcDbLine
10
574.23886466678698
20
30.560000000000009
30
0
11
566.51338402481827
21
30.560000000000077
31
2.7755575615628914e-16
0
LINE
5
122
100
AcDbEntity
8
0
100
AcDbLine
10
566.51338402481827
20
30.560000000000077
30
2.7755575615628914e-16
11
566.51338112692872
21
57.920000000000009
31
1.7763568394002498e-14
0
LINE
5
123
100
AcDbEntity
8
0
100
AcDbLine
10
566.51338112692872
20
57.920000000000009
30
1.7763568394002498e-14
11
574.23886466678698
21
57.920000000000009
31
-2.7755575615628914e-16
0
LINE
5
124
100
AcDbEntity
8
0
100
AcDbLine
10
574.23886466678698
20
57.920000000000009
30
-2.7755575615628914e-16
11
574.23886466678709
21
85.280000000000001
31
-3.5527136788005009e-14
0
LINE
5
125
100
AcDbEntity
8
0
100
AcDbLine
10
574.23886466678709
20
85.280000000000001
30
-3.5527136788005009e-14
11
566.51338112692861
21
85.280000000000129
31
2.7755575615628914e-16
0
LINE
5
126
100
AcDbEntity
8
0
100
AcDbLine
10
566.51338112692861
20
85.280000000000129
30
2.7755575615628914e-16
11
566.51338112692861
21
112.64000000000001
31
0
0
LINE
5
127
100
AcDbEntity
8
0
100
AcDbLine
10
566.51338112692861
20
112.64000000000001
30
0
11
574.23886466678698
21
112.63999999999999
31
0
0
LWPOLYLINE
5
128
100
AcDbEntity
8
0
100
AcDbPolyline
90
4
70
1
43
0.0
10
537.76362801616233
20
103.63799835850999
10
537.80029018554603
20
45.442386317546024
10
551.93082698769922
20
45.451288296845753
10
551.8941648183154
20
103.64690033780965
0
LWPOLYLINE
5
129
100
AcDbEntity
8
0
100
AcDbPolyline
90
12
70
1
43
0.0
10
548.69928821025019
20
57.091406085559441
10
545.69928868635611
20
57.089516140822411
10
545.69903858498401
20
57.486513990662161
10
547.11308995633658
20
57.48740481711927
10
547.11210759729533
20
59.046750229883685
10
545.69805622594276
20
59.045859403426576
10
545.69780612457077
20
59.442857253266332
10
548.69780564846485
20
59.444747198003363
10
548.69805574983695
20
59.04774934816362
10
547.46613229491891
20
59.046973258957102
10
547.46711465396015
20
57.487627846192673
10
548.69903810887809
20
57.488403935399205
0
SPLINE
5
130
100
AcDbEntity
8
0
100
AcDbSpline
70
0
71
2
72
6
73
3
74
0
42
0.000000001
43
0.0000000001
44
0.0000000001
40
0
40
0
40
0
40
1
40
1
40
1
10
546.78413575353329
20
59.920350263620691
30
0
10
547.38781922462817
20
59.920730573147402
30
0
10
547.67819468880691
20
60.256521099653817
30
0
0
SPLINE
5
131
100
AcDbEntity
8
0
100
AcDbSpline
70
0
71
2
72
6
73
3
74
0
42
0.000000001
43
0.0000000001
44
0.0000000001
40
0
40
0
40
0
40
1
40
1
40
1
10
547.67819468880691
20
60.256521099653817
30
0
10
547.91949134017261
20
60.537027190736126
30
0
10
547.91923737116849
20
60.940164317769487
30
0
0
SPLINE
5
132
100
AcDbEntity
8
0
100
AcDbSpline
70
0
71
2
72
6
73
3
74
0
42
0.000000001
43
0.0000000001
44
0.0000000001
40
0
40
0
40
0
40
1
40
1
40
1
10
547.91923737116849
20
60.940164317769487
30
0
10
547.91895503927822
20
61.388323208253425
30
0
10
547.62511931316499
20
61.672585823557604
30
0
0
SPLINE
5
133
100
AcDbEntity
8
0
100
AcDbSpline
70
0
71
2
72
6
73
3
74
0
42
0.000000001
43
0.0000000001
44
0.0000000001
40
0
40
0
40
0
40
1
40
1
40
1
10
547.62511931316499
20
61.672585823557604
30
0
10
547.33128418384922
20
61.956847247144616
30
0
10
546.81354880532558
20
61.956521083341585
30
0
0
SPLINE
5
134
100
AcDbEntity
8
0
100
AcDbSpline
70
0
71
2
72
6
73
3
74
0
42
0.000000001
43
0.0000000001
44
0.0000000001
40
0
40
0
40
0
40
1
40
1
40
1
10
546.81354880532558
20
61.956521083341585
30
0
10
546.39404007376061
20
61.956256800526518
30
0
10
546.15366890423945
20
61.830253714955212
30
0
0
SPLINE
5
135
100
AcDbEntity
8
0
100
AcDbSpline
70
0
71
2
72
6
73
3
74
0
42
0.000000001
43
0.0000000001
44
0.0000000001
40
0
40
0
40
0
40
1
40
1
40
1
10
546.15366890423945
20
61.830253714955212
30
0
10
545.91329833151553
20
61.704249437666746
30
0
10
545.78043492029326
20
61.463714590948719
30
0
0
SPLINE
5
136
100
AcDbEntity
8
0
100
AcDbSpline
70
0
71
2
72
6
73
3
74
0
42
0.000000001
43
0.0000000001
44
0.0000000001
40
0
40
0
40
0
40
1
40
1
40
1
10
545.78043492029326
20
61.463714590948719
30
0
10
545.64757150831986
20
61.223180936323359
30
0
10
545.64775070510507
20
60.938733322785779
30
0
0
SPLINE
5
137
100
AcDbEntity
8
0
100
AcDbSpline
70
0
71
2
72
6
73
3
74
0
42
0.000000001
43
0.0000000001
44
0.0000000001
40
0
40
0
40
0
40
1
40
1
40
1
10
545.64775070510507
20
60.938733322785779
30
0
10
545.64803819258657
20
60.482390716198147
30
0
10
545.94084797728954
20
60.201197094384746
30
0
0
SPLINE
5
138
100
AcDbEntity
8
0
100
AcDbSpline
70
0
71
2
72
6
73
3
74
0
42
0.000000001
43
0.0000000001
44
0.0000000001
40
0
40
0
40
0
40
1
40
1
40
1
10
545.94084797728954
20
60.201197094384746
30
0
10
546.23365835803884
20
59.920003472946838
30
0
10
546.78413575353329
20
59.920350263620691
30
0
0
SPLINE
5
139
100
AcDbEntity
8
0
100
AcDbSpline
70
0
71
2
72
6
73
3
74
0
42
0.000000001
43
0.0000000001
44
0.0000000001
40
0
40
0
40
0
40
1
40
1
40
1
10
546.78389725430668
20
60.298931473972317
30
0
10
546.36643474979076
20
60.29866848024281
30
0
10
546.15861217182987
20
60.480665544543086
30
0
0
SPLINE
5
140
100
AcDbEntity
8
0
100
AcDbSpline
70
0
71
2
72
6
73
3
74
0
42
0.000000001
43
0.0000000001
44
0.0000000001
40
0
40
0
40
0
40
1
40
1
40
1
10
546.15861217182987
20
60.480665544543086
30
0
10
545.95078959386899
20
60.662662608843362
30
0
10
545.95061555417703
20
60.938924122091919
30
0
0
SPLINE
5
141
100
AcDbEntity
8
0
100
AcDbSpline
70
0
71
2
72
6
73
3
74
0
42
0.000000001
43
0.0000000001
44
0.0000000001
40
0
40
0
40
0
40
1
40
1
40
1
10
545.95061555417703
20
60.938924122091919
30
0
10
545.95044280319519
20
61.213140004337703
30
0
10
546.15905931745158
20
61.395400609729627
30
0
0
SPLINE
5
142
100
AcDbEntity
8
0
100
AcDbSpline
70
0
71
2
72
6
73
3
74
0
42
0.000000001
43
0.0000000001
44
0.0000000001
40
0
40
0
40
0
40
1
40
1
40
1
10
546.15905931745158
20
61.395400609729627
30
0
10
546.36767523641265
20
61.57766002265339
30
0
10
546.79537006826672
20
61.577929462561656
30
0
0
SPLINE
5
143
100
AcDbEntity
8
0
100
AcDbSpline
70
0
71
2
72
6
73
3
74
0
42
0.000000001
43
0.0000000001
44
0.0000000001
40
0
40
0
40
0
40
1
40
1
40
1
10
546.79537006826672
20
61.577929462561656
30
0
10
547.1985077913464
20
61.578183431941298
30
0
10
547.40633101441324
20
61.395162360046989
30
0
0
SPLINE
5
144
100
AcDbEntity
8
0
100
AcDbSpline
70
0
71
2
72
6
73
3
74
0
42
0.000000001
43
0.0000000001
44
0.0000000001
40
0
40
0
40
0
40
1
40
1
40
1
10
547.40633101441324
20
61.395162360046989
30
0
10
547.61415423748008
20
61.212141288152679
30
0
10
547.61432569900103
20
60.939972229002294
30
0
0
SPLINE
5
145
100
AcDbEntity
8
0
100
AcDbSpline
70
0
71
2
72
6
73
3
74
0
42
0.000000001
43
0.0000000001
44
0.0000000001
40
0
40
0
40
0
40
1
40
1
40
1
10
547.61432569900103
20
60.939972229002294
30
0
10
547.61449973869298
20
60.663710715753751
30
0
10
547.40793004678096
20
60.481452591915534
30
0
0
SPLINE
5
146
100
AcDbEntity
8
0
100
AcDbSpline
70
0
71
2
72
6
73
3
74
0
42
0.000000001
43
0.0000000001
44
0.0000000001
40
0
40
0
40
0
40
1
40
1
40
1
10
547.40793004678096
20
60.481452591915534
30
0
10
547.2013597588226
20
60.299194467701831
30
0
10
546.78389725430668
20
60.298931473972317
30
0
0
LINE
5
147
100
AcDbEntity
8
0
100
AcDbLine
10
545.69505371476089
20
63.811888769247631
30
0
11
546.01428957231826
21
63.812089881989166
31
0
0
SPLINE
5
148
100
AcDbEntity
8
0
100
AcDbSpline
70
0
71
2
72
6
73
3
74
0
42
0.000000001
43
0.0000000001
44
0.0000000001
40
0
40
0
40
0
40
1
40
1
40
1
10
546.01428957231815
20
63.812089881989166
30
0
10
545.64610054792911
20
63.558106601371804
30
0
10
545.64637514455501
20
63.12222626527506
30
0
0
SPLINE
5
149
100
AcDbEntity
8
0
100
AcDbSpline
70
0
71
2
72
6
73
3
74
0
42
0.000000001
43
0.0000000001
44
0.0000000001
40
0
40
0
40
0
40
1
40
1
40
1
10
545.64637514455501
20
63.12222626527506
30
0
10
545.64649632760893
20
62.929866617548775
30
0
10
545.72027093471422
20
62.763132112464959
30
0
0
SPLINE
5
150
100
AcDbEntity
8
0
100
AcDbSpline
70
0
71
2
72
6
73
3
74
0
42
0.000000001
43
0.0000000001
44
0.0000000001
40
0
40
0
40
0
40
1
40
1
40
1
10
545.72027093471422
20
62.763132112464959
30
0
10
545.79404613786596
20
62.596397607756643
30
0
10
545.90562507678419
20
62.515636833531133
30
0
0
SPLINE
5
151
100
AcDbEntity
8
0
100
AcDbSpline
70
0
71
2
72
6
73
3
74
0
42
0.000000001
43
0.0000000001
44
0.0000000001
40
0
40
0
40
0
40
1
40
1
40
1
10
545.90562507678419
20
62.515636833531133
30
0
10
546.017203421158
20
62.434873674744807
30
0
10
546.17888850187978
20
62.402233503418131
30
0
0
SPLINE
5
152
100
AcDbEntity
8
0
100
AcDbSpline
70
0
71
2
72
6
73
3
74
0
42
0.000000001
43
0.0000000001
44
0.0000000001
40
0
40
0
40
0
40
1
40
1
40
1
10
546.17888850187978
20
62.402233503418131
30
0
10
546.28736106044664
20
62.379792736623052
30
0
10
546.52269564852804
20
62.379940993101982
30
0
0
LINE
5
153
100
AcDbEntity
8
0
100
AcDbLine
10
546.52269564852804
20
62.379940993101982
30
0
11
547.86921616284371
21
62.380789276356381
31
0
0
LINE
5
154
100
AcDbEntity
8
0
100
AcDbLine
10
547.86921616284371
20
62.380789276356381
30
0
11
547.86898411017148
21
62.749137563323572
31
0
0
LINE
5
155
100
AcDbEntity
8
0
100
AcDbLine
10
547.86898411017148
20
62.749137563323572
30
0
11
546.66366399107687
21
62.748378233731216
31
0
0
SPLINE
5
156
100
AcDbEntity
8
0
100
AcDbSpline
70
0
71
2
72
6
73
3
74
0
42
0.000000001
43
0.0000000001
44
0.0000000001
40
0
40
0
40
0
40
1
40
1
40
1
10
546.66366399107699
20
62.748378233731223
30
0
10
546.37512392344115
20
62.748196458774956
30
0
10
546.27483686836604
20
62.770643574380394
30
0
0
SPLINE
5
157
100
AcDbEntity
8
0
100
AcDbSpline
70
0
71
2
72
6
73
3
74
0
42
0.000000001
43
0.0000000001
44
0.0000000001
40
0
40
0
40
0
40
1
40
1
40
1
10
546.27483686836604
20
62.770643574380394
30
0
10
546.12952150666854
20
62.8053408822379
30
0
10
546.04657214735607
20
62.917840098725151
30
0
0
SPLINE
5
158
100
AcDbEntity
8
0
100
AcDbSpline
70
0
71
2
72
6
73
3
74
0
42
0.000000001
43
0.0000000001
44
0.0000000001
40
0
40
0
40
0
40
1
40
1
40
1
10
546.04657214735607
20
62.917840098725151
30
0
10
545.96362278879474
20
63.030338123119748
30
0
10
545.96351836422855
20
63.19609622316154
30
0
0
SPLINE
5
159
100
AcDbEntity
8
0
100
AcDbSpline
70
0
71
2
72
6
73
3
74
0
42
0.000000001
43
0.0000000001
44
0.0000000001
40
0
40
0
40
0
40
1
40
1
40
1
10
545.96351836422855
20
63.19609622316154
30
0
10
545.96341394041337
20
63.361853131110671
30
0
10
546.04824708922831
20
63.507200077469399
30
0
0
SPLINE
5
160
100
AcDbEntity
8
0
100
AcDbSpline
70
0
71
2
72
6
73
3
74
0
42
0.000000001
43
0.0000000001
44
0.0000000001
40
0
40
0
40
0
40
1
40
1
40
1
10
546.04824708922831
20
63.507200077469399
30
0
10
546.13308023879438
20
63.652545831735459
30
0
10
546.27935906449216
20
63.713006773016573
30
0
0
SPLINE
5
161
100
AcDbEntity
8
0
100
AcDbSpline
70
0
71
2
72
6
73
3
74
0
42
0.000000001
43
0.0000000001
44
0.0000000001
40
0
40
0
40
0
40
1
40
1
40
1
10
546.27935906449216
20
63.713006773016573
30
0
10
546.4256372941436
20
63.773467713922187
30
0
10
546.70394563048751
20
63.773643043075189
30
0
0
LINE
5
162
100
AcDbEntity
8
0
100
AcDbLine
10
546.70394563048751
20
63.773643043075189
30
0
11
547.86833822836866
21
63.774376589079004
31
0
0
LINE
5
163
100
AcDbEntity
8
0
100
AcDbLine
10
547.86833822836866
20
63.774376589079004
30
0
11
547.8681061749453
21
64.142726068138856
31
0
0
LINE
5
164
100
AcDbEntity
8
0
100
AcDbLine
10
547.8681061749453
20
64.142726068138856
30
0
11
545.69484615584054
21
64.141356954143134
31
0
0
LINE
5
165
100
AcDbEntity
8
0
100
AcDbLine
10
545.69484615584054
20
64.141356954143134
30
0
11
545.69505371476089
21
63.811888769247631
31
0
0
LINE
5
166
100
AcDbEntity
8
0
100
AcDbLine
10
546.34327947005067
20
64.571505492615458
30
0
11
546.40034852449719
21
64.935798614601069
31
0
0
SPLINE
5
167
100
AcDbEntity
8
0
100
AcDbSpline
70
0
71
2
72
6
73
3
74
0
42
0.000000001
43
0.0000000001
44
0.0000000001
40
0
40
0
40
0
40
1
40
1
40
1
10
546.40034852449719
20
64.935798614601069
30
0
10
546.18136620353766
20
64.966355865808382
30
0
10
546.06463401136216
20
65.106460558065478
30
0
0
SPLINE
5
168
100
AcDbEntity
8
0
100
AcDbSpline
70
0
71
2
72
6
73
3
74
0
42
0.000000001
43
0.0000000001
44
0.0000000001
40
0
40
0
40
0
40
1
40
1
40
1
10
546.06463401136216
20
65.106460558065478
30
0
10
545.94790181918665
20
65.246565250322561
30
0
10
545.94774325077424
20
65.498268462704061
30
0
0
SPLINE
5
169
100
AcDbEntity
8
0
100
AcDbSpline
70
0
71
2
72
6
73
3
74
0
42
0.000000001
43
0.0000000001
44
0.0000000001
40
0
40
0
40
0
40
1
40
1
40
1
10
545.94774325077424
20
65.498268462704061
30
0
10
545.94758339064788
20
65.752022074458978
30
0
10
546.05084855361315
20
65.874867953849872
30
0
0
SPLINE
5
170
100
AcDbEntity
8
0
100
AcDbSpline
70
0
71
2
72
6
73
3
74
0
42
0.000000001
43
0.0000000001
44
0.0000000001
40
0
40
0
40
0
40
1
40
1
40
1
10
546.05084855361315
20
65.874867953849872
30
0
10
546.15411311752825
20
65.997718601235903
30
0
10
546.29326728570027
20
65.997806265812414
30
0
0
SPLINE
5
171
100
AcDbEntity
8
0
100
AcDbSpline
70
0
71
2
72
6
73
3
74
0
42
0.000000001
43
0.0000000001
44
0.0000000001
40
0
40
0
40
0
40
1
40
1
40
1
10
546.29326728570027
20
65.997806265812414
30
0
10
546.41809667243592
20
65.997884906039062
30
0
10
546.48978890678404
20
65.88947105349169
30
0
0
SPLINE
5
172
100
AcDbEntity
8
0
100
AcDbSpline
70
0
71
2
72
6
73
3
74
0
42
0.000000001
43
0.0000000001
44
0.0000000001
40
0
40
0
40
0
40
1
40
1
40
1
10
546.48978890678404
20
65.88947105349169
30
0
10
546.53894963253617
20
65.813785036472012
30
0
10
546.61485550478733
20
65.513012922276815
30
0
0
SPLINE
5
173
100
AcDbEntity
8
0
100
AcDbSpline
70
0
71
2
72
6
73
3
74
0
42
0.000000001
43
0.0000000001
44
0.0000000001
40
0
40
0
40
0
40
1
40
1
40
1
10
546.61485550478733
20
65.513012922276815
30
0
10
546.71742986355821
20
65.107894623399787
30
0
10
546.79222143565698
20
64.951393686430933
30
0
0
SPLINE
5
174
100
AcDbEntity
8
0
100
AcDbSpline
70
0
71
2
72
6
73
3
74
0
42
0.000000001
43
0.0000000001
44
0.0000000001
40
0
40
0
40
0
40
1
40
1
40
1
10
546.79222143565698
20
64.951393686430933
30
0
10
546.86701300775587
20
64.794892749462065
30
0
10
546.99905600680586
20
64.714142483033257
30
0
0
SPLINE
5
175
100
AcDbEntity
8
0
100
AcDbSpline
70
0
71
2
72
6
73
3
74
0
42
0.000000001
43
0.0000000001
44
0.0000000001
40
0
40
0
40
0
40
1
40
1
40
1
10
546.99905600680586
20
64.714142483033257
30
0
10
547.13109840830759
20
64.633394600414263
30
0
10
547.29071663510945
20
64.633495156972785
30
0
0
SPLINE
5
176
100
AcDbEntity
8
0
100
AcDbSpline
70
0
71
2
72
6
73
3
74
0
42
0.000000001
43
0.0000000001
44
0.0000000001
40
0
40
0
40
0
40
1
40
1
40
1
10
547.29071663510945
20
64.633495156972785
30
0
10
547.43601008047506
20
64.633586689181442
30
0
10
547.55977415756638
20
64.700171534120429
30
0
0
SPLINE
5
177
100
AcDbEntity
8
0
100
AcDbSpline
70
0
71
2
72
6
73
3
74
0
42
0.000000001
43
0.0000000001
44
0.0000000001
40
0
40
0
40
0
40
1
40
1
40
1
10
547.55977415756638
20
64.700171534120429
30
0
10
547.6835382346577
20
64.766756379059402
30
0
10
547.76532167833204
20
64.881406198102226
30
0
0
SPLINE
5
178
100
AcDbEntity
8
0
100
AcDbSpline
70
0
71
2
72
6
73
3
74
0
42
0.000000001
43
0.0000000001
44
0.0000000001
40
0
40
0
40
0
40
1
40
1
40
1
10
547.76532167833204
20
64.881406198102226
30
0
10
547.82870533987625
20
64.96739365928336
30
0
10
547.87260933168488
20
65.1157844608381
30
0
0
SPLINE
5
179
100
AcDbEntity
8
0
100
AcDbSpline
70
0
71
2
72
6
73
3
74
0
42
0.000000001
43
0.0000000001
44
0.0000000001
40
0
40
0
40
0
40
1
40
1
40
1
10
547.87260933168488
20
65.1157844608381
30
0
10
547.91651332349352
20
65.26417526239284
30
0
10
547.91640632150722
20
65.434024624440156
30
0
0
SPLINE
5
180
100
AcDbEntity
8
0
100
AcDbSpline
70
0
71
2
72
6
73
3
74
0
42
0.000000001
43
0.0000000001
44
0.0000000001
40
0
40
0
40
0
40
1
40
1
40
1
10
547.91640632150722
20
65.434024624440156
30
0
10
547.91624517267087
20
65.689823867197816
30
0
10
547.84245321178241
20
65.883158727497957
30
0
0
SPLINE
5
181
100
AcDbEntity
8
0
100
AcDbSpline
70
0
71
2
72
6
73
3
74
0
42
0.000000001
43
0.0000000001
44
0.0000000001
40
0
40
0
40
0
40
1
40
1
40
1
10
547.84245321178241
20
65.883158727497957
30
0
10
547.76866184393634
20
66.076498356544249
30
0
10
547.64275103267266
20
66.168505845305702
30
0
0
SPLINE
5
182
100
AcDbEntity
8
0
100
AcDbSpline
70
0
71
2
72
6
73
3
74
0
42
0.000000001
43
0.0000000001
44
0.0000000001
40
0
40
0
40
0
40
1
40
1
40
1
10
547.64275103267266
20
66.168505845305702
30
0
10
547.51684022140898
20
66.260513334067156
30
0
10
547.30604082652098
20
66.295168196090358
30
0
0
LINE
5
183
100
AcDbEntity
8
0
100
AcDbLine
10
547.30604082652098
20
66.295168196090358
30
0
11
547.25715469664397
21
65.93497506910596
31
0
0
SPLINE
5
184
100
AcDbEntity
8
0
100
AcDbSpline
70
0
71
2
72
6
73
3
74
0
42
0.000000001
43
0.0000000001
44
0.0000000001
40
0
40
0
40
0
40
1
40
1
40
1
10
547.25715469664397
20
65.93497506910596
30
0
10
547.42497330217088
20
65.910523673232291
30
0
10
547.51918162289508
20
65.792916278054761
30
0
0
SPLINE
5
185
100
AcDbEntity
8
0
100
AcDbSpline
70
0
71
2
72
6
73
3
74
0
42
0.000000001
43
0.0000000001
44
0.0000000001
40
0
40
0
40
0
40
1
40
1
40
1
10
547.51918162289508
20
65.792916278054761
30
0
10
547.61338934757316
20
65.675308882501739
30
0
10
547.61352471319651
20
65.460436564911163
30
0
0
SPLINE
5
186
100
AcDbEntity
8
0
100
AcDbSpline
70
0
71
2
72
6
73
3
74
0
42
0.000000001
43
0.0000000001
44
0.0000000001
40
0
40
0
40
0
40
1
40
1
40
1
10
547.61352471319651
20
65.460436564911163
30
0
10
547.61368457182095
20
65.206685337341582
30
0
10
547.52985103271442
20
65.098174698499463
30
0
0
SPLINE
5
187
100
AcDbEntity
8
0
100
AcDbSpline
70
0
71
2
72
6
73
3
74
0
42
0.000000001
43
0.0000000001
44
0.0000000001
40
0
40
0
40
0
40
1
40
1
40
1
10
547.52985103271442
20
65.098174698499463
30
0
10
547.44601749360788
20
64.989664059657343
30
0
10
547.33346606521297
20
64.989593154319522
30
0
0
SPLINE
5
188
100
AcDbEntity
8
0
100
AcDbSpline
70
0
71
2
72
6
73
3
74
0
42
0.000000001
43
0.0000000001
44
0.0000000001
40
0
40
0
40
0
40
1
40
1
40
1
10
547.33346606521297
20
64.989593154319522
30
0
10
547.26184275407797
20
64.98954803294572
30
0
10
547.20451586224397
20
65.034532507279707
30
0
0
SPLINE
5
189
100
AcDbEntity
8
0
100
AcDbSpline
70
0
71
2
72
6
73
3
74
0
42
0.000000001
43
0.0000000001
44
0.0000000001
40
0
40
0
40
0
40
1
40
1
40
1
10
547.20451586224397
20
65.034532507279707
30
0
10
547.1451421480657
20
65.079514500059986
30
0
10
547.10620026274989
20
65.175669233373824
30
0
0
SPLINE
5
190
100
AcDbEntity
8
0
100
AcDbSpline
70
0
71
2
72
6
73
3
74
0
42
0.000000001
43
0.0000000001
44
0.0000000001
40
0
40
0
40
0
40
1
40
1
40
1
10
547.10620026274989
20
65.175669233373824
30
0
10
547.08570199147698
20
65.230909836509682
30
0
10
547.01186168443564
20
65.50098685382244
30
0
0
SPLINE
5
191
100
AcDbEntity
8
0
100
AcDbSpline
70
0
71
2
72
6
73
3
74
0
42
0.000000001
43
0.0000000001
44
0.0000000001
40
0
40
0
40
0
40
1
40
1
40
1
10
547.01186168443564
20
65.50098685382244
30
0
10
546.90724952654364
20
65.891779677848476
30
0
10
546.84064474739762
20
66.046240140532277
30
0
0
SPLINE
5
192
100
AcDbEntity
8
0
100
AcDbSpline
70
0
71
2
72
6
73
3
74
0
42
0.000000001
43
0.0000000001
44
0.0000000001
40
0
40
0
40
0
40
1
40
1
40
1
10
546.84064474739762
20
66.046240140532277
30
0
10
546.77403996825149
20
66.200700603216077
30
0
10
546.64710892040853
20
66.288613801431666
30
0
0
SPLINE
5
193
100
AcDbEntity
8
0
100
AcDbSpline
70
0
71
2
72
6
73
3
74
0
42
0.000000001
43
0.0000000001
44
0.0000000001
40
0
40
0
40
0
40
1
40
1
40
1
10
546.64710892040853
20
66.288613801431666
30
0
10
546.52017787106342
20
66.37652938383259
30
0
10
546.33191008138897
20
66.376410778574353
30
0
0
SPLINE
5
194
100
AcDbEntity
8
0
100
AcDbSpline
70
0
71
2
72
6
73
3
74
0
42
0.000000001
43
0.0000000001
44
0.0000000001
40
0
40
0
40
0
40
1
40
1
40
1
10
546.33191008138897
20
66.376410778574353
30
0
10
546.14773593790551
20
66.376294752238209
30
0
10
545.98511575531847
20
66.268756103068341
30
0
0
SPLINE
5
195
100
AcDbEntity
8
0
100
AcDbSpline
70
0
71
2
72
6
73
3
74
0
42
0.000000001
43
0.0000000001
44
0.0000000001
40
0
40
0
40
0
40
1
40
1
40
1
10
545.98511575531847
20
66.268756103068341
30
0
10
545.82249616727586
20
66.161219838459274
30
0
10
545.73360606496476
20
65.958572379901483
30
0
0
SPLINE
5
196
100
AcDbEntity
8
0
100
AcDbSpline
70
0
71
2
72
6
73
3
74
0
42
0.000000001
43
0.0000000001
44
0.0000000001
40
0
40
0
40
0
40
1
40
1
40
1
10
545.73360606496476
20
65.958572379901483
30
0
10
545.64471596415569
20
65.755922537158369
30
0
10
545.64487711149025
20
65.500125678586016
30
0
0
SPLINE
5
197
100
AcDbEntity
8
0
100
AcDbSpline
70
0
71
2
72
6
73
3
74
0
42
0.000000001
43
0.0000000001
44
0.0000000001
40
0
40
0
40
0
40
1
40
1
40
1
10
545.64487711149025
20
65.500125678586016
30
0
10
545.6451439736029
20
65.076522704783798
30
0
10
545.82127248895233
20
64.854601548302014
30
0
0
SPLINE
5
198
100
AcDbEntity
8
0
100
AcDbSpline
70
0
71
2
72
6
73
3
74
0
42
0.000000001
43
0.0000000001
44
0.0000000001
40
0
40
0
40
0
40
1
40
1
40
1
10
545.82127248895233
20
64.854601548302014
30
0
10
545.99740160034821
20
64.632680392195724
30
0
10
546.34327947005067
20
64.571505492615458
30
0
0
LWPOLYLINE
5
199
100
AcDbEntity
8
0
100
AcDbPolyline
90
4
70
1
43
0.0
10
548.69316071537116
20
66.817871288023241
10
548.26955923168487
20
66.817604426849329
10
548.26932717976354
20
67.185951521723851
10
548.69292866344995
20
67.186218382897763
0
LWPOLYLINE
5
200
100
AcDbEntity
8
0
100
AcDbPolyline
90
4
70
1
43
0.0
10
547.86642121058196
20
66.817350457281918
10
545.6931611914772
20
66.815981343286211
10
545.69292913955587
20
67.184328438160733
10
547.86618915866075
20
67.185697552156455
0
LINE
5
201
100
AcDbEntity
8
0
100
AcDbLine
10
545.69257590232769
20
67.745038757039509
30
0
11
547.86583592143256
21
67.746407871035231
31
0
0
LINE
5
202
100
AcDbEntity
8
0
100
AcDbLine
10
547.86583592143256
20
67.746407871035231
30
0
11
547.86562707380222
21
68.077921686933507
31
0
0
LINE
5
203
100
AcDbEntity
8
0
100
AcDbLine
10
547.86562707380222
20
68.077921686933507
30
0
11
547.55662354358299
21
68.077727020370716
31
0
0
SPLINE
5
204
100
AcDbEntity
8
0
100
AcDbSpline
70
0
71
2
72
6
73
3
74
0
42
0.000000001
43
0.0000000001
44
0.0000000001
40
0
40
0
40
0
40
1
40
1
40
1
10
547.55662354358287
20
68.077727020370716
30
0
10
547.91458956263148
20
68.317379669607135
30
0
10
547.91430465257008
20
68.769631014189244
30
0
0
SPLINE
5
205
100
AcDbEntity
8
0
100
AcDbSpline
70
0
71
2
72
6
73
3
74
0
42
0.000000001
43
0.0000000001
44
0.0000000001
40
0
40
0
40
0
40
1
40
1
40
1
10
547.91430465257008
20
68.769631014189244
30
0
10
547.91418088984312
20
68.966085500199029
30
0
10
547.84347691352343
20
69.130773923723083
30
0
0
SPLINE
5
206
100
AcDbEntity
8
0
100
AcDbSpline
70
0
71
2
72
6
73
3
74
0
42
0.000000001
43
0.0000000001
44
0.0000000001
40
0
40
0
40
0
40
1
40
1
40
1
10
547.84347691352343
20
69.130773923723083
30
0
10
547.77277293720385
20
69.295462347247138
30
0
10
547.65812341580863
20
69.377246387155523
30
0
0
SPLINE
5
207
100
AcDbEntity
8
0
100
AcDbSpline
70
0
71
2
72
6
73
3
74
0
42
0.000000001
43
0.0000000001
44
0.0000000001
40
0
40
0
40
0
40
1
40
1
40
1
10
547.65812341580863
20
69.377246387155523
30
0
10
547.54347478848297
20
69.459030427627155
30
0
10
547.38588216336143
20
69.49167079293963
30
0
0
SPLINE
5
208
100
AcDbEntity
8
0
100
AcDbSpline
70
0
71
2
72
6
73
3
74
0
42
0.000000001
43
0.0000000001
44
0.0000000001
40
0
40
0
40
0
40
1
40
1
40
1
10
547.38588216336143
20
69.49167079293963
30
0
10
547.28355016919613
20
69.51207218054941
30
0
10
547.02775211853111
20
69.511911032463971
30
0
0
LINE
5
209
100
AcDbEntity
8
0
100
AcDbLine
10
547.02775211853111
20
69.511911032463971
30
0
11
545.69146333550725
21
69.511069195012823
31
0
0
LINE
5
210
100
AcDbEntity
8
0
100
AcDbLine
10
545.69146333550725
20
69.511069195012823
30
0
11
545.69169538893061
21
69.142719715952978
31
0
0
LINE
5
211
100
AcDbEntity
8
0
100
AcDbLine
10
545.69169538893061
20
69.142719715952978
30
0
11
547.01365939051811
21
69.143552529054261
31
0
0
SPLINE
5
212
100
AcDbEntity
8
0
100
AcDbSpline
70
0
71
2
72
6
73
3
74
0
42
0.000000001
43
0.0000000001
44
0.0000000001
40
0
40
0
40
0
40
1
40
1
40
1
10
547.01365939051811
20
69.143552529054261
30
0
10
547.23876224730782
20
69.143694339729933
30
0
10
547.35031674153367
20
69.100789659606562
30
0
0
SPLINE
5
213
100
AcDbEntity
8
0
100
AcDbSpline
70
0
71
2
72
6
73
3
74
0
42
0.000000001
43
0.0000000001
44
0.0000000001
40
0
40
0
40
0
40
1
40
1
40
1
10
547.35031674153367
20
69.100789659606562
30
0
10
547.46187183030383
20
69.057887364044021
30
0
10
547.52844824731483
20
68.948447472718158
30
0
0
SPLINE
5
214
100
AcDbEntity
8
0
100
AcDbSpline
70
0
71
2
72
6
73
3
74
0
42
0.000000001
43
0.0000000001
44
0.0000000001
40
0
40
0
40
0
40
1
40
1
40
1
10
547.52844824731483
20
68.948447472718158
30
0
10
547.59502526037204
20
68.839007581767774
30
0
10
547.59511808204184
20
68.69166731330678
30
0
0
SPLINE
5
215
100
AcDbEntity
8
0
100
AcDbSpline
70
0
71
2
72
6
73
3
74
0
42
0.000000001
43
0.0000000001
44
0.0000000001
40
0
40
0
40
0
40
1
40
1
40
1
10
547.59511808204184
20
68.69166731330678
30
0
10
547.59526633927169
20
68.456331533132655
30
0
10
547.44598748860096
20
68.285367629014019
30
0
0
SPLINE
5
216
100
AcDbEntity
8
0
100
AcDbSpline
70
0
71
2
72
6
73
3
74
0
42
0.000000001
43
0.0000000001
44
0.0000000001
40
0
40
0
40
0
40
1
40
1
40
1
10
547.44598748860096
20
68.285367629014019
30
0
10
547.29670923698052
20
68.11439895690026
30
0
10
546.87924673246459
20
68.114135963170753
30
0
0
LINE
5
217
100
AcDbEntity
8
0
100
AcDbLine
10
546.87924673246459
20
68.114135963170753
30
0
11
545.69234384890456
21
68.113388236099368
31
0
0
LINE
5
218
100
AcDbEntity
8
0
100
AcDbLine
10
545.69234384890456
20
68.113388236099368
30
0
11
545.69257590232769
21
67.745038757039509
31
0
0
LINE
5
219
100
AcDbEntity
8
0
100
AcDbLine
10
545.51106837392535
20
70.008227662787846
30
0
11
545.45763669145572
21
70.366310699610423
31
0
0
SPLINE
5
220
100
AcDbEntity
8
0
100
AcDbSpline
70
0
71
2
72
6
73
3
74
0
42
0.000000001
43
0.0000000001
44
0.0000000001
40
0
40
0
40
0
40
1
40
1
40
1
10
545.45763669145572
20
70.366310699610423
30
0
10
545.29186560168807
20
70.38871775356688
30
0
10
545.21608478087387
20
70.490989750749534
30
0
0
SPLINE
5
221
100
AcDbEntity
8
0
100
AcDbSpline
70
0
71
2
72
6
73
3
74
0
42
0.000000001
43
0.0000000001
44
0.0000000001
40
0
40
0
40
0
40
1
40
1
40
1
10
545.21608478087387
20
70.490989750749534
30
0
10
545.11367930620372
20
70.628030252481707
30
0
10
545.11352975876173
20
70.865414047843899
30
0
0
SPLINE
5
222
100
AcDbEntity
8
0
100
AcDbSpline
70
0
71
2
72
6
73
3
74
0
42
0.000000001
43
0.0000000001
44
0.0000000001
40
0
40
0
40
0
40
1
40
1
40
1
10
545.11352975876173
20
70.865414047843899
30
0
10
545.11336861142718
20
71.121210906416238
30
0
10
545.21560004865842
20
71.260428341654659
30
0
0
SPLINE
5
223
100
AcDbEntity
8
0
100
AcDbSpline
70
0
71
2
72
6
73
3
74
0
42
0.000000001
43
0.0000000001
44
0.0000000001
40
0
40
0
40
0
40
1
40
1
40
1
10
545.21560004865842
20
71.260428341654659
30
0
10
545.31783148438774
20
71.39964816107836
30
0
10
545.50197528286037
20
71.448878405338775
30
0
0
SPLINE
5
224
100
AcDbEntity
8
0
100
AcDbSpline
70
0
71
2
72
6
73
3
74
0
42
0.000000001
43
0.0000000001
44
0.0000000001
40
0
40
0
40
0
40
1
40
1
40
1
10
545.50197528286037
20
71.448878405338775
30
0
10
545.6145080672602
20
71.477597681081022
30
0
10
545.97467333078737
20
71.475778946783834
30
0
0
SPLINE
5
225
100
AcDbEntity
8
0
100
AcDbSpline
70
0
71
2
72
6
73
3
74
0
42
0.000000001
43
0.0000000001
44
0.0000000001
40
0
40
0
40
0
40
1
40
1
40
1
10
545.97467333078737
20
71.475778946783834
30
0
10
545.69037784211196
20
71.234124692630957
30
0
10
545.69060473919296
20
70.873960121767468
30
0
0
SPLINE
5
226
100
AcDbEntity
8
0
100
AcDbSpline
70
0
71
2
72
6
73
3
74
0
42
0.000000001
43
0.0000000001
44
0.0000000001
40
0
40
0
40
0
40
1
40
1
40
1
10
545.69060473919296
20
70.873960121767468
30
0
10
545.69088706883031
20
70.425804807561505
30
0
10
546.01437067881432
20
70.180442179476415
30
0
0
SPLINE
5
227
100
AcDbEntity
8
0
100
AcDbSpline
70
0
71
2
72
6
73
3
74
0
42
0.000000001
43
0.0000000001
44
0.0000000001
40
0
40
0
40
0
40
1
40
1
40
1
10
546.01437067881432
20
70.180442179476415
30
0
10
546.33785428879844
20
69.935079551391325
30
0
10
546.79010503733423
20
69.935364461077199
30
0
0
SPLINE
5
228
100
AcDbEntity
8
0
100
AcDbSpline
70
0
71
2
72
6
73
3
74
0
42
0.000000001
43
0.0000000001
44
0.0000000001
40
0
40
0
40
0
40
1
40
1
40
1
10
546.79010503733423
20
69.935364461077199
30
0
10
547.10115539064896
20
69.935560417101044
30
0
10
547.3640446294221
20
70.048276313475839
30
0
0
SPLINE
5
229
100
AcDbEntity
8
0
100
AcDbSpline
70
0
71
2
72
6
73
3
74
0
42
0.000000001
43
0.0000000001
44
0.0000000001
40
0
40
0
40
0
40
1
40
1
40
1
10
547.3640446294221
20
70.048276313475839
30
0
10
547.62693446424157
20
70.160992210226141
30
0
10
547.77004636674531
20
70.374929570877626
30
0
0
SPLINE
5
230
100
AcDbEntity
8
0
100
AcDbSpline
70
0
71
2
72
6
73
3
74
0
42
0.000000001
43
0.0000000001
44
0.0000000001
40
0
40
0
40
0
40
1
40
1
40
1
10
547.77004636674531
20
70.374929570877626
30
0
10
547.91315886529549
20
70.58886693190459
30
0
10
547.91297708958825
20
70.877408191632995
30
0
0
SPLINE
5
231
100
AcDbEntity
8
0
100
AcDbSpline
70
0
71
2
72
6
73
3
74
0
42
0.000000001
43
0.0000000001
44
0.0000000001
40
0
40
0
40
0
40
1
40
1
40
1
10
547.91297708958825
20
70.877408191632995
30
0
10
547.91273472348053
20
71.26212748708555
30
0
10
547.60152649291524
20
71.51159149625029
30
0
0
LINE
5
232
100
AcDbEntity
8
0
100
AcDbLine
10
547.60152649291524
20
71.51159149625029
30
0
11
547.86346382077386
21
71.511756511967889
31
0
0
LINE
5
233
100
AcDbEntity
8
0
100
AcDbLine
10
547.86346382077386
20
71.511756511967889
30
0
11
547.86324981680116
21
71.851455236062506
31
0
0
LINE
5
234
100
AcDbEntity
8
0
100
AcDbLine
10
547.86324981680116
20
71.851455236062506
30
0
11
545.98466914252572
21
71.850271764655218
31
0
0
SPLINE
5
235
100
AcDbEntity
8
0
100
AcDbSpline
70
0
71
2
72
6
73
3
74
0
42
0.000000001
43
0.0000000001
44
0.0000000001
40
0
40
0
40
0
40
1
40
1
40
1
10
545.98466914252572
20
71.850271764655218
30
0
10
545.47716549529389
20
71.849952046655432
30
0
10
545.26543030437506
20
71.74647610374565
30
0
0
SPLINE
5
236
100
AcDbEntity
8
0
100
AcDbSpline
70
0
71
2
72
6
73
3
74
0
42
0.000000001
43
0.0000000001
44
0.0000000001
40
0
40
0
40
0
40
1
40
1
40
1
10
545.26543030437506
20
71.74647610374565
30
0
10
545.05369451590786
20
71.643002544645697
30
0
10
544.9310525225419
20
71.418845152216306
30
0
0
SPLINE
5
237
100
AcDbEntity
8
0
100
AcDbSpline
70
0
71
2
72
6
73
3
74
0
42
0.000000001
43
0.0000000001
44
0.0000000001
40
0
40
0
40
0
40
1
40
1
40
1
10
544.9310525225419
20
71.418845152216306
30
0
10
544.80841052917594
20
71.194687759786902
30
0
10
544.80861679788416
20
70.867267590079479
30
0
0
SPLINE
5
238
100
AcDbEntity
8
0
100
AcDbSpline
70
0
71
2
72
6
73
3
74
0
42
0.000000001
43
0.0000000001
44
0.0000000001
40
0
40
0
40
0
40
1
40
1
40
1
10
544.80861679788416
20
70.867267590079479
30
0
10
544.80886174291402
20
70.478454648436085
30
0
10
544.98397840280552
20
70.239135447334547
30
0
0
SPLINE
5
239
100
AcDbEntity
8
0
100
AcDbSpline
70
0
71
2
72
6
73
3
74
0
42
0.000000001
43
0.0000000001
44
0.0000000001
40
0
40
0
40
0
40
1
40
1
40
1
10
544.98397840280552
20
70.239135447334547
30
0
10
545.15909505969307
20
69.999821014603626
30
0
10
545.51106837392535
20
70.008227662787846
30
0
0
SPLINE
5
240
100
AcDbEntity
8
0
100
AcDbSpline
70
0
71
2
72
6
73
3
74
0
42
0.000000001
43
0.0000000001
44
0.0000000001
40
0
40
0
40
0
40
1
40
1
40
1
10
546.81646927863585
20
70.313961238574848
30
0
10
546.38877504282812
20
70.313691799042061
30
0
10
546.19221534297105
20
70.483417399488943
30
0
0
SPLINE
5
241
100
AcDbEntity
8
0
100
AcDbSpline
70
0
71
2
72
6
73
3
74
0
42
0.000000001
43
0.0000000001
44
0.0000000001
40
0
40
0
40
0
40
1
40
1
40
1
10
546.19221534297105
20
70.483417399488943
30
0
10
545.99565504706766
20
70.653142999560302
30
0
10
545.99549389823119
20
70.908942242317963
30
0
0
SPLINE
5
242
100
AcDbEntity
8
0
100
AcDbSpline
70
0
71
2
72
6
73
3
74
0
42
0.000000001
43
0.0000000001
44
0.0000000001
40
0
40
0
40
0
40
1
40
1
40
1
10
545.99549389823119
20
70.908942242317963
30
0
10
545.99533403960686
20
71.162693469887557
30
0
10
546.19065562977789
20
71.334713964368362
30
0
0
SPLINE
5
243
100
AcDbEntity
8
0
100
AcDbSpline
70
0
71
2
72
6
73
3
74
0
42
0.000000001
43
0.0000000001
44
0.0000000001
40
0
40
0
40
0
40
1
40
1
40
1
10
546.19065562977789
20
71.334713964368362
30
0
10
546.38597722145096
20
71.506732074663844
30
0
10
546.803439725967
20
71.506995068393366
30
0
0
SPLINE
5
244
100
AcDbEntity
8
0
100
AcDbSpline
70
0
71
2
72
6
73
3
74
0
42
0.000000001
43
0.0000000001
44
0.0000000001
40
0
40
0
40
0
40
1
40
1
40
1
10
546.803439725967
20
71.506995068393366
30
0
10
547.20248439890213
20
71.507246459226408
30
0
10
547.40518788793997
20
71.330362633716732
30
0
0
SPLINE
5
245
100
AcDbEntity
8
0
100
AcDbSpline
70
0
71
2
72
6
73
3
74
0
42
0.000000001
43
0.0000000001
44
0.0000000001
40
0
40
0
40
0
40
1
40
1
40
1
10
547.40518788793997
20
71.330362633716732
30
0
10
547.60789137697782
20
71.153478808207041
30
0
10
547.60804865818204
20
70.903818842642977
30
0
0
SPLINE
5
246
100
AcDbEntity
8
0
100
AcDbSpline
70
0
71
2
72
6
73
3
74
0
42
0.000000001
43
0.0000000001
44
0.0000000001
40
0
40
0
40
0
40
1
40
1
40
1
10
547.60804865818204
20
70.903818842642977
30
0
10
547.60820336046424
20
70.658252523269738
30
0
10
547.408789316195
20
70.486229450617827
30
0
0
SPLINE
5
247
100
AcDbEntity
8
0
100
AcDbSpline
70
0
71
2
72
6
73
3
74
0
42
0.000000001
43
0.0000000001
44
0.0000000001
40
0
40
0
40
0
40
1
40
1
40
1
10
547.408789316195
20
70.486229450617827
30
0
10
547.20937527042372
20
70.314208762151239
30
0
10
546.81646927863585
20
70.313961238574848
30
0
0
LWPOLYLINE
5
248
100
AcDbEntity
8
0
100
AcDbPolyline
90
4
70
1
43
0.0
10
546.95980058634302
20
73.428647565936174
10
546.58940488023404
20
73.428414223427353
10
546.58869196072555
20
74.560065400384033
10
546.95908766683442
20
74.560298742892869
0
LINE
5
249
100
AcDbEntity
8
0
100
AcDbLine
10
545.68729282344657
20
76.131122126334972
30
0
11
548.68729234734064
21
76.133012071072002
31
0
0
LINE
5
250
100
AcDbEntity
8
0
100
AcDbLine
10
548.68729234734064
20
76.133012071072002
30
0
11
548.68706029391728
21
76.501361550131861
31
0
0
LINE
5
251
100
AcDbEntity
8
0
100
AcDbLine
10
548.68706029391728
20
76.501361550131861
30
0
11
547.61066201565677
21
76.500683438937259
31
0
0
SPLINE
5
252
100
AcDbEntity
8
0
100
AcDbSpline
70
0
71
2
72
6
73
3
74
0
42
0.000000001
43
0.0000000001
44
0.0000000001
40
0
40
0
40
0
40
1
40
1
40
1
10
547.61066201565677
20
76.500683438937244
30
0
10
547.90927167506095
20
76.758716533644957
30
0
10
547.90902415261098
20
77.151620737293868
30
0
0
SPLINE
5
253
100
AcDbEntity
8
0
100
AcDbSpline
70
0
71
2
72
6
73
3
74
0
42
0.000000001
43
0.0000000001
44
0.0000000001
40
0
40
0
40
0
40
1
40
1
40
1
10
547.90902415261098
20
77.151620737293868
30
0
10
547.908872027749
20
77.393095794661576
30
0
10
547.81360315908182
20
77.571070117921096
30
0
0
SPLINE
5
254
100
AcDbEntity
8
0
100
AcDbSpline
70
0
71
2
72
6
73
3
74
0
42
0.000000001
43
0.0000000001
44
0.0000000001
40
0
40
0
40
0
40
1
40
1
40
1
10
547.81360315908182
20
77.571070117921096
30
0
10
547.71833399088962
20
77.749046825178198
30
0
10
547.55048251274252
20
77.825678500919437
30
0
0
SPLINE
5
255
100
AcDbEntity
8
0
100
AcDbSpline
70
0
71
2
72
6
73
3
74
0
42
0.000000001
43
0.0000000001
44
0.0000000001
40
0
40
0
40
0
40
1
40
1
40
1
10
547.55048251274252
20
77.825678500919437
30
0
10
547.38263043704694
20
77.90231256047052
30
0
10
547.06339398344323
20
77.902111447353491
30
0
0
LINE
5
256
100
AcDbEntity
8
0
100
AcDbLine
10
547.06339398344323
20
77.902111447353491
30
0
11
545.68617767920603
21
77.901243826313802
31
0
0
LINE
5
257
100
AcDbEntity
8
0
100
AcDbLine
10
545.68617767920603
20
77.901243826313802
30
0
11
545.68640973262927
21
77.532894347253958
31
0
0
LINE
5
258
100
AcDbEntity
8
0
100
AcDbLine
10
545.68640973262927
20
77.532894347253958
30
0
11
547.06362603686659
21
77.533761968293632
31
0
0
SPLINE
5
259
100
AcDbEntity
8
0
100
AcDbSpline
70
0
71
2
72
6
73
3
74
0
42
0.000000001
43
0.0000000001
44
0.0000000001
40
0
40
0
40
0
40
1
40
1
40
1
10
547.06362603686659
20
77.533761968293632
30
0
10
547.33988814616146
20
77.533936008361081
30
0
10
547.46581636101882
20
77.414302964321109
30
0
0
SPLINE
5
260
100
AcDbEntity
8
0
100
AcDbSpline
70
0
71
2
72
6
73
3
74
0
42
0.000000001
43
0.0000000001
44
0.0000000001
40
0
40
0
40
0
40
1
40
1
40
1
10
547.46581636101882
20
77.414302964321109
30
0
10
547.59174457737822
20
77.294667536095801
30
0
10
547.59188251891976
20
77.075706340685031
30
0
0
SPLINE
5
261
100
AcDbEntity
8
0
100
AcDbSpline
70
0
71
2
72
6
73
3
74
0
42
0.000000001
43
0.0000000001
44
0.0000000001
40
0
40
0
40
0
40
1
40
1
40
1
10
547.59188251891976
20
77.075706340685031
30
0
10
547.59198565477595
20
76.911993871646004
30
0
10
547.5071512648085
20
76.767670932505808
30
0
0
SPLINE
5
262
100
AcDbEntity
8
0
100
AcDbSpline
70
0
71
2
72
6
73
3
74
0
42
0.000000001
43
0.0000000001
44
0.0000000001
40
0
40
0
40
0
40
1
40
1
40
1
10
547.5071512648085
20
76.767670932505808
30
0
10
547.42231747088749
20
76.623347993741135
30
0
10
547.27706270184353
20
76.561863689596507
30
0
0
SPLINE
5
263
100
AcDbEntity
8
0
100
AcDbSpline
70
0
71
2
72
6
73
3
74
0
42
0.000000001
43
0.0000000001
44
0.0000000001
40
0
40
0
40
0
40
1
40
1
40
1
10
547.27706270184353
20
76.561863689596507
30
0
10
547.13180793129743
20
76.500381769637201
30
0
10
546.87600988063241
20
76.500220621551748
30
0
0
LINE
5
264
100
AcDbEntity
8
0
100
AcDbLine
10
546.87600988063241
20
76.500220621551748
30
0
11
545.68706077002332
21
76.499471605394817
31
0
0
LINE
5
265
100
AcDbEntity
8
0
100
AcDbLine
10
545.68706077002332
20
76.499471605394817
30
0
11
545.68729282344657
21
76.131122126334972
31
0
0
SPLINE
5
266
100
AcDbEntity
8
0
100
AcDbSpline
70
0
71
2
72
6
73
3
74
0
42
0.000000001
43
0.0000000001
44
0.0000000001
40
0
40
0
40
0
40
1
40
1
40
1
10
546.77254082814773
20
78.325528972928566
30
0
10
547.37622429924272
20
78.325909282455257
30
0
10
547.66659976342146
20
78.661699808961686
30
0
0
SPLINE
5
267
100
AcDbEntity
8
0
100
AcDbSpline
70
0
71
2
72
6
73
3
74
0
42
0.000000001
43
0.0000000001
44
0.0000000001
40
0
40
0
40
0
40
1
40
1
40
1
10
547.66659976342146
20
78.661699808961686
30
0
10
547.90789641478705
20
78.942205900044002
30
0
10
547.90764244578293
20
79.345343027077334
30
0
0
SPLINE
5
268
100
AcDbEntity
8
0
100
AcDbSpline
70
0
71
2
72
6
73
3
74
0
42
0.000000001
43
0.0000000001
44
0.0000000001
40
0
40
0
40
0
40
1
40
1
40
1
10
547.90764244578293
20
79.345343027077334
30
0
10
547.90736011314164
20
79.79350310965394
30
0
10
547.61352438853055
20
80.077763340772805
30
0
0
SPLINE
5
269
100
AcDbEntity
8
0
100
AcDbSpline
70
0
71
2
72
6
73
3
74
0
42
0.000000001
43
0.0000000001
44
0.0000000001
40
0
40
0
40
0
40
1
40
1
40
1
10
547.61352438853055
20
80.077763340772805
30
0
10
547.31968925846377
20
80.362025956452484
30
0
10
546.80195387994013
20
80.361699792649432
30
0
0
SPLINE
5
270
100
AcDbEntity
8
0
100
AcDbSpline
70
0
71
2
72
6
73
3
74
0
42
0.000000001
43
0.0000000001
44
0.0000000001
40
0
40
0
40
0
40
1
40
1
40
1
10
546.80195387994013
20
80.361699792649432
30
0
10
546.38244514837515
20
80.361435509834379
30
0
10
546.14207397885389
20
80.235432424263067
30
0
0
SPLINE
5
271
100
AcDbEntity
8
0
100
AcDbSpline
70
0
71
2
72
6
73
3
74
0
42
0.000000001
43
0.0000000001
44
0.0000000001
40
0
40
0
40
0
40
1
40
1
40
1
10
546.14207397885389
20
80.235432424263067
30
0
10
545.90170340537907
20
80.109429339067262
30
0
10
545.76883999490769
20
79.868893300256588
30
0
0
SPLINE
5
272
100
AcDbEntity
8
0
100
AcDbSpline
70
0
71
2
72
6
73
3
74
0
42
0.000000001
43
0.0000000001
44
0.0000000001
40
0
40
0
40
0
40
1
40
1
40
1
10
545.76883999490769
20
79.868893300256588
30
0
10
545.6359765829344
20
79.628359645631221
30
0
10
545.63615577971962
20
79.343912032093655
30
0
0
SPLINE
5
273
100
AcDbEntity
8
0
100
AcDbSpline
70
0
71
2
72
6
73
3
74
0
42
0.000000001
43
0.0000000001
44
0.0000000001
40
0
40
0
40
0
40
1
40
1
40
1
10
545.63615577971962
20
79.343912032093655
30
0
10
545.636443267201
20
78.887569425506015
30
0
10
545.92925305265499
20
78.606374611599946
30
0
0
SPLINE
5
274
100
AcDbEntity
8
0
100
AcDbSpline
70
0
71
2
72
6
73
3
74
0
42
0.000000001
43
0.0000000001
44
0.0000000001
40
0
40
0
40
0
40
1
40
1
40
1
10
545.92925305265499
20
78.606374611599946
30
0
10
546.22206343265339
20
78.325182182254707
30
0
10
546.77254082814773
20
78.325528972928566
30
0
0
SPLINE
5
275
100
AcDbEntity
8
0
100
AcDbSpline
70
0
71
2
72
6
73
3
74
0
42
0.000000001
43
0.0000000001
44
0.0000000001
40
0
40
0
40
0
40
1
40
1
40
1
10
546.77230232967213
20
78.704108991187525
30
0
10
546.3548398251562
20
78.703845997458018
30
0
10
546.14701724569341
20
78.885845445943602
30
0
0
SPLINE
5
276
100
AcDbEntity
8
0
100
AcDbSpline
70
0
71
2
72
6
73
3
74
0
42
0.000000001
43
0.0000000001
44
0.0000000001
40
0
40
0
40
0
40
1
40
1
40
1
10
546.14701724569341
20
78.885845445943602
30
0
10
545.93919466773264
20
79.067842510243878
30
0
10
545.93902062879158
20
79.344102831399766
30
0
0
SPLINE
5
277
100
AcDbEntity
8
0
100
AcDbSpline
70
0
71
2
72
6
73
3
74
0
42
0.000000001
43
0.0000000001
44
0.0000000001
40
0
40
0
40
0
40
1
40
1
40
1
10
545.93902062879158
20
79.344102831399766
30
0
10
545.93884787705872
20
79.618319905738218
30
0
10
546.14746439206601
20
79.800579319037496
30
0
0
SPLINE
5
278
100
AcDbEntity
8
0
100
AcDbSpline
70
0
71
2
72
6
73
3
74
0
42
0.000000001
43
0.0000000001
44
0.0000000001
40
0
40
0
40
0
40
1
40
1
40
1
10
546.14746439206601
20
79.800579319037496
30
0
10
546.35608031102709
20
79.982838731961252
30
0
10
546.78377514288127
20
79.983108171869503
30
0
0
SPLINE
5
279
100
AcDbEntity
8
0
100
AcDbSpline
70
0
71
2
72
6
73
3
74
0
42
0.000000001
43
0.0000000001
44
0.0000000001
40
0
40
0
40
0
40
1
40
1
40
1
10
546.78377514288127
20
79.983108171869503
30
0
10
547.18691286596095
20
79.983362141249174
30
0
10
547.39473608827677
20
79.800342261447511
30
0
0
SPLINE
5
280
100
AcDbEntity
8
0
100
AcDbSpline
70
0
71
2
72
6
73
3
74
0
42
0.000000001
43
0.0000000001
44
0.0000000001
40
0
40
0
40
0
40
1
40
1
40
1
10
547.39473608827677
20
79.800342261447511
30
0
10
547.60255931209463
20
79.617319997460541
30
0
10
547.60273077361546
20
79.345150938310169
30
0
0
SPLINE
5
281
100
AcDbEntity
8
0
100
AcDbSpline
70
0
71
2
72
6
73
3
74
0
42
0.000000001
43
0.0000000001
44
0.0000000001
40
0
40
0
40
0
40
1
40
1
40
1
10
547.60273077361546
20
79.345150938310169
30
0
10
547.6029048125564
20
79.068890617154267
30
0
10
547.39633512064449
20
78.886632493316057
30
0
0
SPLINE
5
282
100
AcDbEntity
8
0
100
AcDbSpline
70
0
71
2
72
6
73
3
74
0
42
0.000000001
43
0.0000000001
44
0.0000000001
40
0
40
0
40
0
40
1
40
1
40
1
10
547.39633512064449
20
78.886632493316057
30
0
10
547.18976483418817
20
78.704371984917032
30
0
10
546.77230232967213
20
78.704108991187525
30
0
0
SPLINE
5
283
100
AcDbEntity
8
0
100
AcDbSpline
70
0
71
2
72
6
73
3
74
0
42
0.000000001
43
0.0000000001
44
0.0000000001
40
0
40
0
40
0
40
1
40
1
40
1
10
546.77107244667911
20
80.656360991786173
30
0
10
547.374755917774
20
80.656741301312877
30
0
10
547.66513138195273
20
80.992531827819292
30
0
0
SPLINE
5
284
100
AcDbEntity
8
0
100
AcDbSpline
70
0
71
2
72
6
73
3
74
0
42
0.000000001
43
0.0000000001
44
0.0000000001
40
0
40
0
40
0
40
1
40
1
40
1
10
547.66513138195273
20
80.992531827819292
30
0
10
547.90642803331843
20
81.273037918901593
30
0
10
547.9061740643142
20
81.676175045934954
30
0
0
SPLINE
5
285
100
AcDbEntity
8
0
100
AcDbSpline
70
0
71
2
72
6
73
3
74
0
42
0.000000001
43
0.0000000001
44
0.0000000001
40
0
40
0
40
0
40
1
40
1
40
1
10
547.9061740643142
20
81.676175045934954
30
0
10
547.90589173167302
20
82.124335128511561
30
0
10
547.61205600706182
20
82.408595359630411
30
0
0
SPLINE
5
286
100
AcDbEntity
8
0
100
AcDbSpline
70
0
71
2
72
6
73
3
74
0
42
0.000000001
43
0.0000000001
44
0.0000000001
40
0
40
0
40
0
40
1
40
1
40
1
10
547.61205600706182
20
82.408595359630411
30
0
10
547.31822087699504
20
82.692857975310091
30
0
10
546.8004854984714
20
82.692531811507052
30
0
0
SPLINE
5
287
100
AcDbEntity
8
0
100
AcDbSpline
70
0
71
2
72
6
73
3
74
0
42
0.000000001
43
0.0000000001
44
0.0000000001
40
0
40
0
40
0
40
1
40
1
40
1
10
546.8004854984714
20
82.692531811507052
30
0
10
546.38097676690643
20
82.692267528692
30
0
10
546.14060559738516
20
82.566264443120687
30
0
0
SPLINE
5
288
100
AcDbEntity
8
0
100
AcDbSpline
70
0
71
2
72
6
73
3
74
0
42
0.000000001
43
0.0000000001
44
0.0000000001
40
0
40
0
40
0
40
1
40
1
40
1
10
546.14060559738516
20
82.566264443120687
30
0
10
545.90023502391034
20
82.440261357924882
30
0
10
545.76737161343897
20
82.199725319114208
30
0
0
SPLINE
5
289
100
AcDbEntity
8
0
100
AcDbSpline
70
0
71
2
72
6
73
3
74
0
42
0.000000001
43
0.0000000001
44
0.0000000001
40
0
40
0
40
0
40
1
40
1
40
1
10
545.76737161343897
20
82.199725319114208
30
0
10
545.63450820146568
20
81.959191664488827
30
0
10
545.63468739825089
20
81.674744050951261
30
0
0
SPLINE
5
290
100
AcDbEntity
8
0
100
AcDbSpline
70
0
71
2
72
6
73
3
74
0
42
0.000000001
43
0.0000000001
44
0.0000000001
40
0
40
0
40
0
40
1
40
1
40
1
10
545.63468739825089
20
81.674744050951261
30
0
10
545.63497488573239
20
81.218401444363622
30
0
10
545.92778467118637
20
80.937206630457567
30
0
0
SPLINE
5
291
100
AcDbEntity
8
0
100
AcDbSpline
70
0
71
2
72
6
73
3
74
0
42
0.000000001
43
0.0000000001
44
0.0000000001
40
0
40
0
40
0
40
1
40
1
40
1
10
545.92778467118637
20
80.937206630457567
30
0
10
546.22059505118477
20
80.656014201112328
30
0
10
546.77107244667911
20
80.656360991786173
30
0
0
SPLINE
5
292
100
AcDbEntity
8
0
100
AcDbSpline
70
0
71
2
72
6
73
3
74
0
42
0.000000001
43
0.0000000001
44
0.0000000001
40
0
40
0
40
0
40
1
40
1
40
1
10
546.77083394820352
20
81.034941010045131
30
0
10
546.35337144368759
20
81.034678016315638
30
0
10
546.14554886422468
20
81.216677464801208
30
0
0
SPLINE
5
293
100
AcDbEntity
8
0
100
AcDbSpline
70
0
71
2
72
6
73
3
74
0
42
0.000000001
43
0.0000000001
44
0.0000000001
40
0
40
0
40
0
40
1
40
1
40
1
10
546.14554886422468
20
81.216677464801208
30
0
10
545.9377262862638
20
81.398674529101498
30
0
10
545.93755224732286
20
81.674934850257387
30
0
0
SPLINE
5
294
100
AcDbEntity
8
0
100
AcDbSpline
70
0
71
2
72
6
73
3
74
0
42
0.000000001
43
0.0000000001
44
0.0000000001
40
0
40
0
40
0
40
1
40
1
40
1
10
545.93755224732286
20
81.674934850257387
30
0
10
545.93737949558999
20
81.949151924595839
30
0
10
546.1459960105974
20
82.131411337895088
30
0
0
SPLINE
5
295
100
AcDbEntity
8
0
100
AcDbSpline
70
0
71
2
72
6
73
3
74
0
42
0.000000001
43
0.0000000001
44
0.0000000001
40
0
40
0
40
0
40
1
40
1
40
1
10
546.1459960105974
20
82.131411337895088
30
0
10
546.35461192955847
20
82.313670750818858
30
0
10
546.78230676141254
20
82.313940190727124
30
0
0
SPLINE
5
296
100
AcDbEntity
8
0
100
AcDbSpline
70
0
71
2
72
6
73
3
74
0
42
0.000000001
43
0.0000000001
44
0.0000000001
40
0
40
0
40
0
40
1
40
1
40
1
10
546.78230676141254
20
82.313940190727124
30
0
10
547.18544448449211
20
82.31419416010678
30
0
10
547.39326770680805
20
82.131174280305132
30
0
0
SPLINE
5
297
100
AcDbEntity
8
0
100
AcDbSpline
70
0
71
2
72
6
73
3
74
0
42
0.000000001
43
0.0000000001
44
0.0000000001
40
0
40
0
40
0
40
1
40
1
40
1
10
547.39326770680805
20
82.131174280305132
30
0
10
547.60109093062601
20
81.948152016318147
30
0
10
547.60126239214674
20
81.675982957167776
30
0
0
SPLINE
5
298
100
AcDbEntity
8
0
100
AcDbSpline
70
0
71
2
72
6
73
3
74
0
42
0.000000001
43
0.0000000001
44
0.0000000001
40
0
40
0
40
0
40
1
40
1
40
1
10
547.60126239214674
20
81.675982957167776
30
0
10
547.60143643108779
20
81.399722636011873
30
0
10
547.39486673917577
20
81.217464512173677
30
0
0
SPLINE
5
299
100
AcDbEntity
8
0
100
AcDbSpline
70
0
71
2
72
6
73
3
74
0
42
0.000000001
43
0.0000000001
44
0.0000000001
40
0
40
0
40
0
40
1
40
1
40
1
10
547.39486673917577
20
81.217464512173677
30
0
10
547.18829645271944
20
81.035204003774638
30
0
10
546.77083394820352
20
81.034941010045131
30
0
0
LINE
5
300
100
AcDbEntity
8
0
100
AcDbLine
10
545.68199943188097
20
84.533575312023146
30
0
11
545.95621471808045
21
84.533748062629556
31
0
0
SPLINE
5
301
100
AcDbEntity
8
0
100
AcDbSpline
70
0
71
2
72
6
73
3
74
0
42
0.000000001
43
0.0000000001
44
0.0000000001
40
0
40
0
40
0
40
1
40
1
40
1
10
545.95621471808045
20
84.533748062629556
30
0
10
545.63301661420405
20
84.32685934650803
30
0
10
545.63326929449818
20
83.925767850477442
30
0
0
SPLINE
5
302
100
AcDbEntity
8
0
100
AcDbSpline
70
0
71
2
72
6
73
3
74
0
42
0.000000001
43
0.0000000001
44
0.0000000001
40
0
40
0
40
0
40
1
40
1
40
1
10
545.63326929449818
20
83.925767850477442
30
0
10
545.63343302075475
20
83.66587734571425
30
0
10
545.77681694021135
20
83.44802920855247
30
0
0
SPLINE
5
303
100
AcDbEntity
8
0
100
AcDbSpline
70
0
71
2
72
6
73
3
74
0
42
0.000000001
43
0.0000000001
44
0.0000000001
40
0
40
0
40
0
40
1
40
1
40
1
10
545.77681694021135
20
83.44802920855247
30
0
10
545.92020145721631
20
83.230178687580874
30
0
10
546.17709774145874
20
83.110625766838865
30
0
0
SPLINE
5
304
100
AcDbEntity
8
0
100
AcDbSpline
70
0
71
2
72
6
73
3
74
0
42
0.000000001
43
0.0000000001
44
0.0000000001
40
0
40
0
40
0
40
1
40
1
40
1
10
546.17709774145874
20
83.110625766838865
30
0
10
546.43399462024547
20
82.991075230657685
30
0
10
546.7675552592392
20
82.991285367749072
30
0
0
SPLINE
5
305
100
AcDbEntity
8
0
100
AcDbSpline
70
0
71
2
72
6
73
3
74
0
42
0.000000001
43
0.0000000001
44
0.0000000001
40
0
40
0
40
0
40
1
40
1
40
1
10
546.7675552592392
20
82.991285367749072
30
0
10
547.09293039399017
20
82.991490348122767
30
0
10
547.35786843723258
20
83.100116271577605
30
0
0
SPLINE
5
306
100
AcDbEntity
8
0
100
AcDbSpline
70
0
71
2
72
6
73
3
74
0
42
0.000000001
43
0.0000000001
44
0.0000000001
40
0
40
0
40
0
40
1
40
1
40
1
10
547.35786843723258
20
83.100116271577605
30
0
10
547.62280707802324
20
83.208739811222614
30
0
10
547.76387081891085
20
83.425746713477992
30
0
0
SPLINE
5
307
100
AcDbEntity
8
0
100
AcDbSpline
70
0
71
2
72
6
73
3
74
0
42
0.000000001
43
0.0000000001
44
0.0000000001
40
0
40
0
40
0
40
1
40
1
40
1
10
547.76387081891085
20
83.425746713477992
30
0
10
547.90493485932359
20
83.642751231735815
30
0
10
547.90476597522274
20
83.910829028880656
30
0
0
SPLINE
5
308
100
AcDbEntity
8
0
100
AcDbSpline
70
0
71
2
72
6
73
3
74
0
42
0.000000001
43
0.0000000001
44
0.0000000001
40
0
40
0
40
0
40
1
40
1
40
1
10
547.90476597522274
20
83.910829028880656
30
0
10
547.90464221399793
20
84.107281130705118
30
0
10
547.82166677269834
20
84.260708464264383
30
0
0
SPLINE
5
309
100
AcDbEntity
8
0
100
AcDbSpline
70
0
71
2
72
6
73
3
74
0
42
0.000000001
43
0.0000000001
44
0.0000000001
40
0
40
0
40
0
40
1
40
1
40
1
10
547.82166677269834
20
84.260708464264383
30
0
10
547.73869162942185
20
84.414135798011387
30
0
10
547.60561614804305
20
84.510230036791199
30
0
0
LINE
5
310
100
AcDbEntity
8
0
100
AcDbLine
10
547.60561614804305
20
84.510230036791185
30
0
11
548.68201412828046
21
84.510908147798048
31
0
0
LINE
5
311
100
AcDbEntity
8
0
100
AcDbLine
10
548.68201412828046
20
84.510908147798048
30
0
11
548.68178336356732
21
84.877211995855134
31
0
0
LINE
5
312
100
AcDbEntity
8
0
100
AcDbLine
10
548.68178336356732
20
84.877211995855134
30
0
11
545.68178413769635
21
84.875322051305844
31
0
0
LINE
5
313
100
AcDbEntity
8
0
100
AcDbLine
10
545.68178413769635
20
84.875322051305844
30
0
11
545.68199943188097
21
84.533575312023146
31
0
0
SPLINE
5
314
100
AcDbEntity
8
0
100
AcDbSpline
70
0
71
2
72
6
73
3
74
0
42
0.000000001
43
0.0000000001
44
0.0000000001
40
0
40
0
40
0
40
1
40
1
40
1
10
546.76731676076361
20
83.36986538600803
30
0
10
546.34985425624768
20
83.369602392278523
30
0
10
546.14305835991831
20
83.545463207925536
30
0
0
SPLINE
5
315
100
AcDbEntity
8
0
100
AcDbSpline
70
0
71
2
72
6
73
3
74
0
42
0.000000001
43
0.0000000001
44
0.0000000001
40
0
40
0
40
0
40
1
40
1
40
1
10
546.14305835991831
20
83.545463207925536
30
0
10
545.93626306113731
20
83.721321639762749
30
0
10
545.93611222648735
20
83.960748681942363
30
0
0
SPLINE
5
316
100
AcDbEntity
8
0
100
AcDbSpline
70
0
71
2
72
6
73
3
74
0
42
0.000000001
43
0.0000000001
44
0.0000000001
40
0
40
0
40
0
40
1
40
1
40
1
10
545.93611222648735
20
83.960748681942363
30
0
10
545.93596010312717
20
84.202221355124763
30
0
10
546.13332985491445
20
84.371172308001675
30
0
0
SPLINE
5
317
100
AcDbEntity
8
0
100
AcDbSpline
70
0
71
2
72
6
73
3
74
0
42
0.000000001
43
0.0000000001
44
0.0000000001
40
0
40
0
40
0
40
1
40
1
40
1
10
546.13332985491445
20
84.371172308001675
30
0
10
546.33069901065539
20
84.540123260503066
30
0
10
546.73588355683046
20
84.54037851934379
30
0
0
SPLINE
5
318
100
AcDbEntity
8
0
100
AcDbSpline
70
0
71
2
72
6
73
3
74
0
42
0.000000001
43
0.0000000001
44
0.0000000001
40
0
40
0
40
0
40
1
40
1
40
1
10
546.73588355683046
20
84.54037851934379
30
0
10
547.18199502817265
20
84.540659561397518
30
0
10
547.39083457112702
20
84.368896065212198
30
0
0
SPLINE
5
319
100
AcDbEntity
8
0
100
AcDbSpline
70
0
71
2
72
6
73
3
74
0
42
0.000000001
43
0.0000000001
44
0.0000000001
40
0
40
0
40
0
40
1
40
1
40
1
10
547.39083457112702
20
84.368896065212198
30
0
10
547.59967411558341
20
84.197130184841569
30
0
10
547.59983268549763
20
83.945424588274733
30
0
0
SPLINE
5
320
100
AcDbEntity
8
0
100
AcDbSpline
70
0
71
2
72
6
73
3
74
0
42
0.000000001
43
0.0000000001
44
0.0000000001
40
0
40
0
40
0
40
1
40
1
40
1
10
547.59983268549763
20
83.945424588274733
30
0
10
547.59998738777983
20
83.699858268901508
30
0
10
547.39954541847374
20
83.534999028399355
30
0
0
SPLINE
5
321
100
AcDbEntity
8
0
100
AcDbSpline
70
0
71
2
72
6
73
3
74
0
42
0.000000001
43
0.0000000001
44
0.0000000001
40
0
40
0
40
0
40
1
40
1
40
1
10
547.39954541847374
20
83.534999028399355
30
0
10
547.19910345066955
20
83.370137403711908
30
0
10
546.76731676076361
20
83.36986538600803
30
0
0
LINE
5
322
100
AcDbEntity
8
0
100
AcDbLine
10
546.00964728979375
20
87.423274809306434
30
0
11
545.68423863356134
21
87.476280076857677
31
0
0
SPLINE
5
323
100
AcDbEntity
8
0
100
AcDbSpline
70
0
71
2
72
6
73
3
74
0
42
0.000000001
43
0.0000000001
44
0.0000000001
40
0
40
0
40
0
40
1
40
1
40
1
10
545.68423863356134
20
87.476280076857691
30
0
10
545.65159399855622
20
87.320734272954013
30
0
10
545.65167134819535
20
87.197953497452701
30
0
0
SPLINE
5
324
100
AcDbEntity
8
0
100
AcDbSpline
70
0
71
2
72
6
73
3
74
0
42
0.000000001
43
0.0000000001
44
0.0000000001
40
0
40
0
40
0
40
1
40
1
40
1
10
545.65167134819535
20
87.197953497452701
30
0
10
545.65179768984433
20
86.997405365252092
30
0
10
545.71530511111155
20
86.8869431087941
30
0
0
SPLINE
5
325
100
AcDbEntity
8
0
100
AcDbSpline
70
0
71
2
72
6
73
3
74
0
42
0.000000001
43
0.0000000001
44
0.0000000001
40
0
40
0
40
0
40
1
40
1
40
1
10
545.71530511111155
20
86.8869431087941
30
0
10
545.77881313142916
20
86.776476084340942
30
0
10
545.88218340862034
20
86.731523000682415
30
0
0
SPLINE
5
326
100
AcDbEntity
8
0
100
AcDbSpline
70
0
71
2
72
6
73
3
74
0
42
0.000000001
43
0.0000000001
44
0.0000000001
40
0
40
0
40
0
40
1
40
1
40
1
10
545.88218340862034
20
86.731523000682415
30
0
10
545.98555428486191
20
86.68656514902878
30
0
10
546.31706869680647
20
86.686773997034621
30
0
0
LINE
5
327
100
AcDbEntity
8
0
100
AcDbLine
10
546.31706869680647
20
86.686773997034621
30
0
11
547.56740938725898
21
86.687561688762116
31
0
0
LINE
5
328
100
AcDbEntity
8
0
100
AcDbLine
10
547.56740938725898
20
86.687561688762116
30
0
11
547.56757956006982
21
86.417438260614489
31
0
0
LINE
5
329
100
AcDbEntity
8
0
100
AcDbLine
10
547.56757956006982
20
86.417438260614489
30
0
11
547.85407340065649
21
86.417618746485203
31
0
0
LINE
5
330
100
AcDbEntity
8
0
100
AcDbLine
10
547.85407340065649
20
86.417618746485203
30
0
11
547.85390322784554
21
86.687742174632817
31
0
0
LINE
5
331
100
AcDbEntity
8
0
100
AcDbLine
10
547.85390322784554
20
86.687742174632817
30
0
11
548.39210266499902
21
86.688081230417851
31
0
0
LINE
5
332
100
AcDbEntity
8
0
100
AcDbLine
10
548.39210266499902
20
86.688081230417851
30
0
11
548.61288141040984
21
87.054521926230933
31
0
0
LINE
5
333
100
AcDbEntity
8
0
100
AcDbLine
10
548.61288141040984
20
87.054521926230933
30
0
11
547.85367246463443
21
87.054043638504595
31
0
0
LINE
5
334
100
AcDbEntity
8
0
100
AcDbLine
10
547.85367246463443
20
87.054043638504595
30
0
11
547.85343912400299
21
87.424436364381876
31
0
0
LINE
5
335
100
AcDbEntity
8
0
100
AcDbLine
10
547.85343912400299
20
87.424436364381876
30
0
11
547.56694528341643
21
87.424255878511161
31
0
0
LINE
5
336
100
AcDbEntity
8
0
100
AcDbLine
10
547.56694528341643
20
87.424255878511161
30
0
11
547.56717862404776
21
87.05386315263388
31
0
0
LINE
5
337
100
AcDbEntity
8
0
100
AcDbLine
10
547.56717862404776
20
87.05386315263388
30
0
11
546.29637387496541
21
87.053062568924361
31
0
0
SPLINE
5
338
100
AcDbEntity
8
0
100
AcDbSpline
70
0
71
2
72
6
73
3
74
0
42
0.000000001
43
0.0000000001
44
0.0000000001
40
0
40
0
40
0
40
1
40
1
40
1
10
546.29637387496541
20
87.053062568924389
30
0
10
546.13880247125894
20
87.052963301826907
30
0
10
546.09376965264948
20
87.072375586773944
30
0
0
SPLINE
5
339
100
AcDbEntity
8
0
100
AcDbSpline
70
0
71
2
72
6
73
3
74
0
42
0.000000001
43
0.0000000001
44
0.0000000001
40
0
40
0
40
0
40
1
40
1
40
1
10
546.09376965264948
20
87.072375586773944
30
0
10
546.04873743008636
20
87.091787872096489
30
0
10
546.02210637648284
20
87.135768868338857
30
0
0
SPLINE
5
340
100
AcDbEntity
8
0
100
AcDbSpline
70
0
71
2
72
6
73
3
74
0
42
0.000000001
43
0.0000000001
44
0.0000000001
40
0
40
0
40
0
40
1
40
1
40
1
10
546.02210637648284
20
87.135768868338857
30
0
10
545.99547591892565
20
87.179749864956761
30
0
10
545.99542435249953
20
87.261603715290931
30
0
0
SPLINE
5
341
100
AcDbEntity
8
0
100
AcDbSpline
70
0
71
2
72
6
73
3
74
0
42
0.000000001
43
0.0000000001
44
0.0000000001
40
0
40
0
40
0
40
1
40
1
40
1
10
545.99542435249953
20
87.261603715290931
30
0
10
545.99538567617799
20
87.322996487226902
30
0
10
546.00964728979375
20
87.423274809306434
30
0
0
SPLINE
5
342
100
AcDbEntity
8
0
100
AcDbSpline
70
0
71
2
72
6
73
3
74
0
42
0.000000001
43
0.0000000001
44
0.0000000001
40
0
40
0
40
0
40
1
40
1
40
1
10
546.76666859098304
20
87.646811417356247
30
0
10
547.37035206207804
20
87.647191726882951
30
0
10
547.66072752625666
20
87.982982253389366
30
0
0
SPLINE
5
343
100
AcDbEntity
8
0
100
AcDbSpline
70
0
71
2
72
6
73
3
74
0
42
0.000000001
43
0.0000000001
44
0.0000000001
40
0
40
0
40
0
40
1
40
1
40
1
10
547.66072752625666
20
87.982982253389366
30
0
10
547.90202417612034
20
88.26349072865699
30
0
10
547.90177020711621
20
88.666627855690336
30
0
0
SPLINE
5
344
100
AcDbEntity
8
0
100
AcDbSpline
70
0
71
2
72
6
73
3
74
0
42
0.000000001
43
0.0000000001
44
0.0000000001
40
0
40
0
40
0
40
1
40
1
40
1
10
547.90177020711621
20
88.666627855690336
30
0
10
547.90148787447492
20
89.114787938266943
30
0
10
547.60765215136576
20
89.399045785200499
30
0
0
SPLINE
5
345
100
AcDbEntity
8
0
100
AcDbSpline
70
0
71
2
72
6
73
3
74
0
42
0.000000001
43
0.0000000001
44
0.0000000001
40
0
40
0
40
0
40
1
40
1
40
1
10
547.60765215136576
20
89.399045785200499
30
0
10
547.31381702129897
20
89.683308400880151
30
0
10
546.79608164277533
20
89.682982237077127
30
0
0
SPLINE
5
346
100
AcDbEntity
8
0
100
AcDbSpline
70
0
71
2
72
6
73
3
74
0
42
0.000000001
43
0.0000000001
44
0.0000000001
40
0
40
0
40
0
40
1
40
1
40
1
10
546.79608164277533
20
89.682982237077127
30
0
10
546.37657291121036
20
89.68271795426206
30
0
10
546.13620174168909
20
89.556714868690761
30
0
0
SPLINE
5
347
100
AcDbEntity
8
0
100
AcDbSpline
70
0
71
2
72
6
73
3
74
0
42
0.000000001
43
0.0000000001
44
0.0000000001
40
0
40
0
40
0
40
1
40
1
40
1
10
546.13620174168909
20
89.556714868690761
30
0
10
545.89583116821439
20
89.430711783494957
30
0
10
545.76296775924493
20
89.190173360498932
30
0
0
SPLINE
5
348
100
AcDbEntity
8
0
100
AcDbSpline
70
0
71
2
72
6
73
3
74
0
42
0.000000001
43
0.0000000001
44
0.0000000001
40
0
40
0
40
0
40
1
40
1
40
1
10
545.76296775924493
20
89.190173360498932
30
0
10
545.63010434727164
20
88.949639705873579
30
0
10
545.6302835410529
20
88.665196860706658
30
0
0
SPLINE
5
349
100
AcDbEntity
8
0
100
AcDbSpline
70
0
71
2
72
6
73
3
74
0
42
0.000000001
43
0.0000000001
44
0.0000000001
40
0
40
0
40
0
40
1
40
1
40
1
10
545.6302835410529
20
88.665196860706658
30
0
10
545.6305710285344
20
88.208854254119018
30
0
10
545.9233808154903
20
87.927657056027641
30
0
0
SPLINE
5
350
100
AcDbEntity
8
0
100
AcDbSpline
70
0
71
2
72
6
73
3
74
0
42
0.000000001
43
0.0000000001
44
0.0000000001
40
0
40
0
40
0
40
1
40
1
40
1
10
545.9233808154903
20
87.927657056027641
30
0
10
546.2161911954887
20
87.646464626682388
30
0
10
546.76666859098304
20
87.646811417356247
30
0
0
SPLINE
5
351
100
AcDbEntity
8
0
100
AcDbSpline
70
0
71
2
72
6
73
3
74
0
42
0.000000001
43
0.0000000001
44
0.0000000001
40
0
40
0
40
0
40
1
40
1
40
1
10
546.76643009250745
20
88.025391435615205
30
0
10
546.34896758799152
20
88.025128441885698
30
0
10
546.14114501003064
20
88.207125506185974
30
0
0
SPLINE
5
352
100
AcDbEntity
8
0
100
AcDbSpline
70
0
71
2
72
6
73
3
74
0
42
0.000000001
43
0.0000000001
44
0.0000000001
40
0
40
0
40
0
40
1
40
1
40
1
10
546.14114501003064
20
88.207125506185974
30
0
10
545.93332242906581
20
88.389127338856895
30
0
10
545.93314839012487
20
88.665387660012783
30
0
0
SPLINE
5
353
100
AcDbEntity
8
0
100
AcDbSpline
70
0
71
2
72
6
73
3
74
0
42
0.000000001
43
0.0000000001
44
0.0000000001
40
0
40
0
40
0
40
1
40
1
40
1
10
545.93314839012487
20
88.665387660012783
30
0
10
545.93297563989393
20
88.939602350165927
30
0
10
546.14159215490133
20
89.121861763465162
30
0
0
SPLINE
5
354
100
AcDbEntity
8
0
100
AcDbSpline
70
0
71
2
72
6
73
3
74
0
42
0.000000001
43
0.0000000001
44
0.0000000001
40
0
40
0
40
0
40
1
40
1
40
1
10
546.14159215490133
20
89.121861763465162
30
0
10
546.3502080738624
20
89.304121176388946
30
0
10
546.77790290571647
20
89.304390616297198
30
0
0
SPLINE
5
355
100
AcDbEntity
8
0
100
AcDbSpline
70
0
71
2
72
6
73
3
74
0
42
0.000000001
43
0.0000000001
44
0.0000000001
40
0
40
0
40
0
40
1
40
1
40
1
10
546.77790290571647
20
89.304390616297198
30
0
10
547.18104062879615
20
89.304644585676854
30
0
10
547.38886384961006
20
89.121627090060528
30
0
0
SPLINE
5
356
100
AcDbEntity
8
0
100
AcDbSpline
70
0
71
2
72
6
73
3
74
0
42
0.000000001
43
0.0000000001
44
0.0000000001
40
0
40
0
40
0
40
1
40
1
40
1
10
547.38886384961006
20
89.121627090060528
30
0
10
547.59668707342792
20
88.938604826073544
30
0
10
547.59685853494875
20
88.666435766923186
30
0
0
SPLINE
5
357
100
AcDbEntity
8
0
100
AcDbSpline
70
0
71
2
72
6
73
3
74
0
42
0.000000001
43
0.0000000001
44
0.0000000001
40
0
40
0
40
0
40
1
40
1
40
1
10
547.59685853494875
20
88.666435766923186
30
0
10
547.59703257388969
20
88.390175445767269
30
0
10
547.39046288498173
20
88.20791255355843
30
0
0
SPLINE
5
358
100
AcDbEntity
8
0
100
AcDbSpline
70
0
71
2
72
6
73
3
74
0
42
0.000000001
43
0.0000000001
44
0.0000000001
40
0
40
0
40
0
40
1
40
1
40
1
10
547.39046288498173
20
88.20791255355843
30
0
10
547.18389259702337
20
88.025654429344726
30
0
10
546.76643009250745
20
88.025391435615205
30
0
0
LINE
5
359
100
AcDbEntity
8
0
100
AcDbLine
10
544.84560563740797
20
90.113543910479905
30
0
11
547.85174384244931
21
90.115437722473615
31
0
0
LINE
5
360
100
AcDbEntity
8
0
100
AcDbLine
10
547.85174384244931
20
90.115437722473615
30
0
11
547.85153241589694
21
90.451045184562716
31
0
0
LINE
5
361
100
AcDbEntity
8
0
100
AcDbLine
10
547.85153241589694
20
90.451045184562716
30
0
11
547.5691316254547
21
90.450867277238586
31
0
0
SPLINE
5
362
100
AcDbEntity
8
0
100
AcDbSpline
70
0
71
2
72
6
73
3
74
0
42
0.000000001
43
0.0000000001
44
0.0000000001
40
0
40
0
40
0
40
1
40
1
40
1
10
547.5691316254547
20
90.450867277238586
30
0
10
547.73481376418886
20
90.569656446178911
30
0
10
547.81759840430482
20
90.719096941923311
30
0
0
SPLINE
5
363
100
AcDbEntity
8
0
100
AcDbSpline
70
0
71
2
72
6
73
3
74
0
42
0.000000001
43
0.0000000001
44
0.0000000001
40
0
40
0
40
0
40
1
40
1
40
1
10
547.81759840430482
20
90.719096941923311
30
0
10
547.90038274639767
20
90.868537437480001
30
0
10
547.90024867248826
20
91.081359355697174
30
0
0
SPLINE
5
364
100
AcDbEntity
8
0
100
AcDbSpline
70
0
71
2
72
6
73
3
74
0
42
0.000000001
43
0.0000000001
44
0.0000000001
40
0
40
0
40
0
40
1
40
1
40
1
10
547.90024867248826
20
91.081359355697174
30
0
10
547.90007334183326
20
91.359670076226465
30
0
10
547.75669234763063
20
91.572401751508266
30
0
0
SPLINE
5
365
100
AcDbEntity
8
0
100
AcDbSpline
70
0
71
2
72
6
73
3
74
0
42
0.000000001
43
0.0000000001
44
0.0000000001
40
0
40
0
40
0
40
1
40
1
40
1
10
547.75669234763063
20
91.572401751508266
30
0
10
547.613311651451
20
91.785133426977836
30
0
10
547.35232881042509
20
91.893430414097253
30
0
0
SPLINE
5
366
100
AcDbEntity
8
0
100
AcDbSpline
70
0
71
2
72
6
73
3
74
0
42
0.000000001
43
0.0000000001
44
0.0000000001
40
0
40
0
40
0
40
1
40
1
40
1
10
547.35232881042509
20
91.893430414097253
30
0
10
547.0913471644958
20
92.001722633597012
30
0
10
546.78029621513474
20
92.001526677197688
30
0
0
SPLINE
5
367
100
AcDbEntity
8
0
100
AcDbSpline
70
0
71
2
72
6
73
3
74
0
42
0.000000001
43
0.0000000001
44
0.0000000001
40
0
40
0
40
0
40
1
40
1
40
1
10
546.78029621513474
20
92.001526677197688
30
0
10
546.44673557614101
20
92.001316540106302
30
0
10
546.17975779770859
20
91.881438356675204
30
0
0
SPLINE
5
368
100
AcDbEntity
8
0
100
AcDbSpline
70
0
71
2
72
6
73
3
74
0
42
0.000000001
43
0.0000000001
44
0.0000000001
40
0
40
0
40
0
40
1
40
1
40
1
10
546.17975779770859
20
91.881438356675204
30
0
10
545.91278002228012
20
91.761555404873519
30
0
10
545.77070055830245
20
91.533289735191971
30
0
0
SPLINE
5
369
100
AcDbEntity
8
0
100
AcDbSpline
70
0
71
2
72
6
73
3
74
0
42
0.000000001
43
0.0000000001
44
0.0000000001
40
0
40
0
40
0
40
1
40
1
40
1
10
545.77070055830245
20
91.533289735191971
30
0
10
545.62862049227033
20
91.305033601876204
30
0
10
545.62877906368669
20
91.053325621124074
30
0
0
SPLINE
5
370
100
AcDbEntity
8
0
100
AcDbSpline
70
0
71
2
72
6
73
3
74
0
42
0.000000001
43
0.0000000001
44
0.0000000001
40
0
40
0
40
0
40
1
40
1
40
1
10
545.62877906368669
20
91.053325621124074
30
0
10
545.62889508964736
20
90.869152073686791
30
0
10
545.7067498552907
20
90.722883609733145
30
0
0
SPLINE
5
371
100
AcDbEntity
8
0
100
AcDbSpline
70
0
71
2
72
6
73
3
74
0
42
0.000000001
43
0.0000000001
44
0.0000000001
40
0
40
0
40
0
40
1
40
1
40
1
10
545.7067498552907
20
90.722883609733145
30
0
10
545.78460462093403
20
90.576615145779471
30
0
10
545.90335403216659
20
90.48255751365258
30
0
0
LINE
5
372
100
AcDbEntity
8
0
100
AcDbLine
10
545.90335403216659
20
90.482557513652594
30
0
11
544.84537358548675
21
90.481891005354441
31
0
0
LINE
5
373
100
AcDbEntity
8
0
100
AcDbLine
10
544.84537358548675
20
90.481891005354441
30
0
11
544.84560563740797
21
90.113543910479905
31
0
0
SPLINE
5
374
100
AcDbEntity
8
0
100
AcDbSpline
70
0
71
2
72
6
73
3
74
0
42
0.000000001
43
0.0000000001
44
0.0000000001
40
0
40
0
40
0
40
1
40
1
40
1
10
546.75262573971759
20
90.448302493302634
30
0
10
546.33311641210628
20
90.448038210112074
30
0
10
546.132464258151
20
90.617761232387849
30
0
0
SPLINE
5
375
100
AcDbEntity
8
0
100
AcDbSpline
70
0
71
2
72
6
73
3
74
0
42
0.000000001
43
0.0000000001
44
0.0000000001
40
0
40
0
40
0
40
1
40
1
40
1
10
546.132464258151
20
90.617761232387849
30
0
10
545.93181150814939
20
90.787484254288103
30
0
10
545.9316593832873
20
91.028959311655825
30
0
0
SPLINE
5
376
100
AcDbEntity
8
0
100
AcDbSpline
70
0
71
2
72
6
73
3
74
0
42
0.000000001
43
0.0000000001
44
0.0000000001
40
0
40
0
40
0
40
1
40
1
40
1
10
545.9316593832873
20
91.028959311655825
30
0
10
545.93150468100521
20
91.27452563102905
30
0
10
546.13910229645194
20
91.44962230690281
30
0
0
SPLINE
5
377
100
AcDbEntity
8
0
100
AcDbSpline
70
0
71
2
72
6
73
3
74
0
42
0.000000001
43
0.0000000001
44
0.0000000001
40
0
40
0
40
0
40
1
40
1
40
1
10
546.13910229645194
20
91.44962230690281
30
0
10
546.3466999118989
20
91.624718982776571
30
0
10
546.78258024799561
20
91.624993579402542
30
0
0
SPLINE
5
378
100
AcDbEntity
8
0
100
AcDbSpline
70
0
71
2
72
6
73
3
74
0
42
0.000000001
43
0.0000000001
44
0.0000000001
40
0
40
0
40
0
40
1
40
1
40
1
10
546.78258024799561
20
91.624993579402542
30
0
10
547.19799592941615
20
91.625255283670995
30
0
10
547.40478800341805
20
91.454515697711329
30
0
0
SPLINE
5
379
100
AcDbEntity
8
0
100
AcDbSpline
70
0
71
2
72
6
73
3
74
0
42
0.000000001
43
0.0000000001
44
0.0000000001
40
0
40
0
40
0
40
1
40
1
40
1
10
547.40478800341805
20
91.454515697711329
30
0
10
547.61158067947417
20
91.283766575385883
30
0
10
547.61173022391222
20
91.046387548394335
30
0
0
SPLINE
5
380
100
AcDbEntity
8
0
100
AcDbSpline
70
0
71
2
72
6
73
3
74
0
42
0.000000001
43
0.0000000001
44
0.0000000001
40
0
40
0
40
0
40
1
40
1
40
1
10
547.61173022391222
20
91.046387548394335
30
0
10
547.61187847964015
20
90.811054152405546
30
0
10
547.39200617894016
20
90.629808079888534
30
0
0
SPLINE
5
381
100
AcDbEntity
8
0
100
AcDbSpline
70
0
71
2
72
6
73
3
74
0
42
0.000000001
43
0.0000000001
44
0.0000000001
40
0
40
0
40
0
40
1
40
1
40
1
10
547.39200617894016
20
90.629808079888534
30
0
10
547.17213387523634
20
90.448566775742194
30
0
10
546.75262573971759
20
90.448302493302634
30
0
0
LINE
5
382
100
AcDbEntity
8
0
100
AcDbLine
10
541.34337031259554
20
62.260032992151395
30
0
11
541.01796106332085
21
62.313033490956499
31
0
0
SPLINE
5
383
100
AcDbEntity
8
0
100
AcDbSpline
70
0
71
2
72
6
73
3
74
0
42
0.000000001
43
0.0000000001
44
0.0000000001
40
0
40
0
40
0
40
1
40
1
40
1
10
541.01796106332085
20
62.313033490956499
30
0
10
540.98531702436208
20
62.157487687428308
30
0
10
540.98539437550312
20
62.034704527741695
30
0
0
SPLINE
5
384
100
AcDbEntity
8
0
100
AcDbSpline
70
0
71
2
72
6
73
3
74
0
42
0.000000001
43
0.0000000001
44
0.0000000001
40
0
40
0
40
0
40
1
40
1
40
1
10
540.98539437550312
20
62.034704527741695
30
0
10
540.98552071565018
20
61.834158779726408
30
0
10
541.04902873446565
20
61.72369413945858
30
0
0
SPLINE
5
385
100
AcDbEntity
8
0
100
AcDbSpline
70
0
71
2
72
6
73
3
74
0
42
0.000000001
43
0.0000000001
44
0.0000000001
40
0
40
0
40
0
40
1
40
1
40
1
10
541.04902873446565
20
61.72369413945858
30
0
10
541.11253556118857
20
61.61322949843975
30
0
10
541.2159064359281
20
61.568274030971423
30
0
0
SPLINE
5
386
100
AcDbEntity
8
0
100
AcDbSpline
70
0
71
2
72
6
73
3
74
0
42
0.000000001
43
0.0000000001
44
0.0000000001
40
0
40
0
40
0
40
1
40
1
40
1
10
541.2159064359281
20
61.568274030971423
30
0
10
541.31927731066776
20
61.523318563503082
30
0
10
541.65079231865866
20
61.52352741188443
30
0
0
LINE
5
387
100
AcDbEntity
8
0
100
AcDbLine
10
541.65079231865866
20
61.523527411884416
30
0
11
542.90113241306483
21
61.524315103236411
31
0
0
LINE
5
388
100
AcDbEntity
8
0
100
AcDbLine
10
542.90113241306483
20
61.524315103236411
30
0
11
542.90130258512465
21
61.254192867181452
31
0
0
LINE
5
389
100
AcDbEntity
8
0
100
AcDbLine
10
542.90130258512465
20
61.254192867181452
30
0
11
543.18779642571121
21
61.254373353052159
31
0
0
LINE
5
390
100
AcDbEntity
8
0
100
AcDbLine
10
543.18779642571121
20
61.254373353052159
30
0
11
543.18762625365139
21
61.524495589107133
31
0
0
LINE
5
391
100
AcDbEntity
8
0
100
AcDbLine
10
543.18762625365139
20
61.524495589107133
30
0
11
543.72582569080487
21
61.524834644892181
31
0
0
LINE
5
392
100
AcDbEntity
8
0
100
AcDbLine
10
543.72582569080487
20
61.524834644892181
30
0
11
543.9466047334879
21
61.891276532985671
31
0
0
LINE
5
393
100
AcDbEntity
8
0
100
AcDbLine
10
543.9466047334879
20
61.891276532985671
30
0
11
543.18739548968915
21
61.890798245071551
31
0
0
LINE
5
394
100
AcDbEntity
8
0
100
AcDbLine
10
543.18739548968915
20
61.890798245071551
30
0
11
543.18716214680489
21
62.261194547226815
31
0
0
LINE
5
395
100
AcDbEntity
8
0
100
AcDbLine
10
543.18716214680489
20
62.261194547226815
30
0
11
542.90066830621822
21
62.261014061356107
31
0
0
LINE
5
396
100
AcDbEntity
8
0
100
AcDbLine
10
542.90066830621822
20
62.261014061356107
30
0
11
542.90090164910259
21
61.890617759200843
31
0
0
LINE
5
397
100
AcDbEntity
8
0
100
AcDbLine
10
542.90090164910259
20
61.890617759200843
30
0
11
541.63009690002025
21
61.889817175491345
31
0
0
SPLINE
5
398
100
AcDbEntity
8
0
100
AcDbSpline
70
0
71
2
72
6
73
3
74
0
42
0.000000001
43
0.0000000001
44
0.0000000001
40
0
40
0
40
0
40
1
40
1
40
1
10
541.63009690002025
20
61.889817175491345
30
0
10
541.47252609236011
20
61.889717908769377
30
0
10
541.42749327375066
20
61.909130193716415
30
0
0
SPLINE
5
399
100
AcDbEntity
8
0
100
AcDbSpline
70
0
71
2
72
6
73
3
74
0
42
0.000000001
43
0.0000000001
44
0.0000000001
40
0
40
0
40
0
40
1
40
1
40
1
10
541.42749327375066
20
61.909130193716415
30
0
10
541.3824604551412
20
61.928542478663445
30
0
10
541.35582999758401
20
61.972523475281335
30
0
0
SPLINE
5
400
100
AcDbEntity
8
0
100
AcDbSpline
70
0
71
2
72
6
73
3
74
0
42
0.000000001
43
0.0000000001
44
0.0000000001
40
0
40
0
40
0
40
1
40
1
40
1
10
541.35582999758401
20
61.972523475281335
30
0
10
541.32919834793404
20
62.016504471148224
30
0
10
541.32914678075701
20
62.098359513575083
30
0
0
SPLINE
5
401
100
AcDbEntity
8
0
100
AcDbSpline
70
0
71
2
72
6
73
3
74
0
42
0.000000001
43
0.0000000001
44
0.0000000001
40
0
40
0
40
0
40
1
40
1
40
1
10
541.32914678075701
20
62.098359513575083
30
0
10
541.32910810518649
20
62.159751093418393
30
0
10
541.34337031259554
20
62.260032992151395
30
0
0
LINE
5
402
100
AcDbEntity
8
0
100
AcDbLine
10
541.01367523137003
20
62.619988812001928
30
0
11
544.01367475526411
21
62.621878756738958
31
0
0
LINE
5
403
100
AcDbEntity
8
0
100
AcDbLine
10
544.01367475526411
20
62.621878756738958
30
0
11
544.01344270184075
21
62.990228235798817
31
0
0
LINE
5
404
100
AcDbEntity
8
0
100
AcDbLine
10
544.01344270184075
20
62.990228235798817
30
0
11
542.93704442358012
21
62.989550124604207
31
0
0
SPLINE
5
405
100
AcDbEntity
8
0
100
AcDbSpline
70
0
71
2
72
6
73
3
74
0
42
0.000000001
43
0.0000000001
44
0.0000000001
40
0
40
0
40
0
40
1
40
1
40
1
10
542.93704442358012
20
62.989550124604207
30
0
10
543.2356537857122
20
63.247582027031498
30
0
10
543.23540626251122
20
63.640487422773063
30
0
0
SPLINE
5
406
100
AcDbEntity
8
0
100
AcDbSpline
70
0
71
2
72
6
73
3
74
0
42
0.000000001
43
0.0000000001
44
0.0000000001
40
0
40
0
40
0
40
1
40
1
40
1
10
543.23540626251122
20
63.640487422773063
30
0
10
543.23525413840014
20
63.881961288048132
30
0
10
543.13998556700528
20
64.059936803588059
30
0
0
SPLINE
5
407
100
AcDbEntity
8
0
100
AcDbSpline
70
0
71
2
72
6
73
3
74
0
42
0.000000001
43
0.0000000001
44
0.0000000001
40
0
40
0
40
0
40
1
40
1
40
1
10
543.13998556700528
20
64.059936803588059
30
0
10
543.04471639956409
20
64.237912318752478
30
0
10
542.87686491991485
20
64.314546378679054
30
0
0
SPLINE
5
408
100
AcDbEntity
8
0
100
AcDbSpline
70
0
71
2
72
6
73
3
74
0
42
0.000000001
43
0.0000000001
44
0.0000000001
40
0
40
0
40
0
40
1
40
1
40
1
10
542.87686491991485
20
64.314546378679054
30
0
10
542.7090128449704
20
64.391179246137469
30
0
10
542.38977639136669
20
64.39097813302044
30
0
0
LINE
5
409
100
AcDbEntity
8
0
100
AcDbLine
10
542.38977639136669
20
64.39097813302044
30
0
11
541.01256008712937
21
64.390110511980765
31
0
0
LINE
5
410
100
AcDbEntity
8
0
100
AcDbLine
10
541.01256008712937
20
64.390110511980765
30
0
11
541.0127921398016
21
64.021762225013561
31
0
0
LINE
5
411
100
AcDbEntity
8
0
100
AcDbLine
10
541.0127921398016
20
64.021762225013561
30
0
11
542.39000844403893
21
64.022629846053249
31
0
0
SPLINE
5
412
100
AcDbEntity
8
0
100
AcDbSpline
70
0
71
2
72
6
73
3
74
0
42
0.000000001
43
0.0000000001
44
0.0000000001
40
0
40
0
40
0
40
1
40
1
40
1
10
542.39000844403893
20
64.022629846053249
30
0
10
542.66627114938024
20
64.022803886496206
30
0
10
542.79219876894228
20
63.903169649988058
30
0
0
SPLINE
5
413
100
AcDbEntity
8
0
100
AcDbSpline
70
0
71
2
72
6
73
3
74
0
42
0.000000001
43
0.0000000001
44
0.0000000001
40
0
40
0
40
0
40
1
40
1
40
1
10
542.79219876894228
20
63.903169649988058
30
0
10
542.91812698455067
20
63.783535413855404
30
0
10
542.91826492759424
20
63.564571834259318
30
0
0
SPLINE
5
414
100
AcDbEntity
8
0
100
AcDbSpline
70
0
71
2
72
6
73
3
74
0
42
0.000000001
43
0.0000000001
44
0.0000000001
40
0
40
0
40
0
40
1
40
1
40
1
10
542.91826492759424
20
63.564571834259318
30
0
10
542.91836806194829
20
63.400861749405607
30
0
10
542.83353367273196
20
63.256537618172771
30
0
0
SPLINE
5
415
100
AcDbEntity
8
0
100
AcDbSpline
70
0
71
2
72
6
73
3
74
0
42
0.000000001
43
0.0000000001
44
0.0000000001
40
0
40
0
40
0
40
1
40
1
40
1
10
542.83353367273196
20
63.256537618172771
30
0
10
542.74869987881095
20
63.112214679408083
30
0
10
542.60344510901587
20
63.05073156735611
30
0
0
SPLINE
5
416
100
AcDbEntity
8
0
100
AcDbSpline
70
0
71
2
72
6
73
3
74
0
42
0.000000001
43
0.0000000001
44
0.0000000001
40
0
40
0
40
0
40
1
40
1
40
1
10
542.60344510901587
20
63.05073156735611
30
0
10
542.45819033922089
20
62.98924845530415
30
0
10
542.20239228855587
20
62.989087307218711
30
0
0
LINE
5
417
100
AcDbEntity
8
0
100
AcDbLine
10
542.20239228855587
20
62.989087307218711
30
0
11
541.01344317794667
21
62.98833829106178
31
0
0
LINE
5
418
100
AcDbEntity
8
0
100
AcDbLine
10
541.01344317794667
20
62.98833829106178
30
0
11
541.01367523137003
21
62.619988812001928
31
0
0
LWPOLYLINE
5
419
100
AcDbEntity
8
0
100
AcDbPolyline
90
4
70
1
43
0.0
10
544.01220508508527
20
64.95475640659933
10
543.58860389942208
20
64.954489545613171
10
543.58837184599884
20
65.322839024673016
10
544.01197303166202
20
65.323105885659189
0
LWPOLYLINE
5
420
100
AcDbEntity
8
0
100
AcDbPolyline
90
4
70
1
43
0.0
10
543.18546558029607
20
64.954235575858021
10
541.01220556119119
20
64.9528664618623
10
541.01197350776795
20
65.321215940922144
10
543.18523352687282
20
65.322585054917866
0
LINE
5
421
100
AcDbEntity
8
0
100
AcDbLine
10
541.66041653861612
20
65.734994662626264
30
0
11
541.7174861898601
21
66.099286592894714
31
0
0
SPLINE
5
422
100
AcDbEntity
8
0
100
AcDbSpline
70
0
71
2
72
6
73
3
74
0
42
0.000000001
43
0.0000000001
44
0.0000000001
40
0
40
0
40
0
40
1
40
1
40
1
10
541.7174861898601
20
66.099286592894714
30
0
10
541.49850327210322
20
66.129845035819187
30
0
10
541.38177108142963
20
66.269947343890948
30
0
0
SPLINE
5
423
100
AcDbEntity
8
0
100
AcDbSpline
70
0
71
2
72
6
73
3
74
0
42
0.000000001
43
0.0000000001
44
0.0000000001
40
0
40
0
40
0
40
1
40
1
40
1
10
541.38177108142963
20
66.269947343890948
30
0
10
541.26503888925413
20
66.410052036148045
30
0
10
541.2648803193398
20
66.661757632714881
30
0
0
SPLINE
5
424
100
AcDbEntity
8
0
100
AcDbSpline
70
0
71
2
72
6
73
3
74
0
42
0.000000001
43
0.0000000001
44
0.0000000001
40
0
40
0
40
0
40
1
40
1
40
1
10
541.2648803193398
20
66.661757632714881
30
0
10
541.26472046071535
20
66.915508860284461
30
0
10
541.36798562217882
20
67.038357123860678
30
0
0
SPLINE
5
425
100
AcDbEntity
8
0
100
AcDbSpline
70
0
71
2
72
6
73
3
74
0
42
0.000000001
43
0.0000000001
44
0.0000000001
40
0
40
0
40
0
40
1
40
1
40
1
10
541.36798562217882
20
67.038357123860678
30
0
10
541.47125078364206
20
67.161205387436894
30
0
10
541.61040495181408
20
67.161293052013406
30
0
0
SPLINE
5
426
100
AcDbEntity
8
0
100
AcDbSpline
70
0
71
2
72
6
73
3
74
0
42
0.000000001
43
0.0000000001
44
0.0000000001
40
0
40
0
40
0
40
1
40
1
40
1
10
541.61040495181408
20
67.161293052013406
30
0
10
541.73523493459606
20
67.161371692615546
30
0
10
541.80692657289796
20
67.052957839692681
30
0
0
SPLINE
5
427
100
AcDbEntity
8
0
100
AcDbSpline
70
0
71
2
72
6
73
3
74
0
42
0.000000001
43
0.0000000001
44
0.0000000001
40
0
40
0
40
0
40
1
40
1
40
1
10
541.80692657289796
20
67.052957839692681
30
0
10
541.85608729714795
20
66.977274206858311
30
0
10
541.93199257335277
20
66.67650209228762
30
0
0
SPLINE
5
428
100
AcDbEntity
8
0
100
AcDbSpline
70
0
71
2
72
6
73
3
74
0
42
0.000000001
43
0.0000000001
44
0.0000000001
40
0
40
0
40
0
40
1
40
1
40
1
10
541.93199257335277
20
66.67650209228762
30
0
10
542.0345675281701
20
66.271383793786086
30
0
10
542.10935910177091
20
66.11488047263191
30
0
0
SPLINE
5
429
100
AcDbEntity
8
0
100
AcDbSpline
70
0
71
2
72
6
73
3
74
0
42
0.000000001
43
0.0000000001
44
0.0000000001
40
0
40
0
40
0
40
1
40
1
40
1
10
542.10935910177091
20
66.11488047263191
30
0
10
542.18415067386968
20
65.958379535663056
30
0
10
542.31619367141775
20
65.877631653419556
30
0
0
SPLINE
5
430
100
AcDbEntity
8
0
100
AcDbSpline
70
0
71
2
72
6
73
3
74
0
42
0.000000001
43
0.0000000001
44
0.0000000001
40
0
40
0
40
0
40
1
40
1
40
1
10
542.31619367141775
20
65.877631653419556
30
0
10
542.44823667046785
20
65.796881386990748
30
0
10
542.60785430122337
20
65.796981943173762
30
0
0
SPLINE
5
431
100
AcDbEntity
8
0
100
AcDbSpline
70
0
71
2
72
6
73
3
74
0
42
0.000000001
43
0.0000000001
44
0.0000000001
40
0
40
0
40
0
40
1
40
1
40
1
10
542.60785430122337
20
65.796981943173762
30
0
10
542.75314774658898
20
65.797073475382433
30
0
10
542.87691182217827
20
65.863660704506728
30
0
0
SPLINE
5
432
100
AcDbEntity
8
0
100
AcDbSpline
70
0
71
2
72
6
73
3
74
0
42
0.000000001
43
0.0000000001
44
0.0000000001
40
0
40
0
40
0
40
1
40
1
40
1
10
542.87691182217827
20
65.863660704506728
30
0
10
543.00067589926948
20
65.930245549445715
30
0
10
543.08245934294382
20
66.044895368488525
30
0
0
SPLINE
5
433
100
AcDbEntity
8
0
100
AcDbSpline
70
0
71
2
72
6
73
3
74
0
42
0.000000001
43
0.0000000001
44
0.0000000001
40
0
40
0
40
0
40
1
40
1
40
1
10
543.08245934294382
20
66.044895368488525
30
0
10
543.14584300448803
20
66.130882829669673
30
0
10
543.18974729431989
20
66.279273631412138
30
0
0
SPLINE
5
434
100
AcDbEntity
8
0
100
AcDbSpline
70
0
71
2
72
6
73
3
74
0
42
0.000000001
43
0.0000000001
44
0.0000000001
40
0
40
0
40
0
40
1
40
1
40
1
10
543.18974729431989
20
66.279273631412138
30
0
10
543.23365098810541
20
66.427664432779139
30
0
10
543.23354398611912
20
66.59751379482644
30
0
0
SPLINE
5
435
100
AcDbEntity
8
0
100
AcDbSpline
70
0
71
2
72
6
73
3
74
0
42
0.000000001
43
0.0000000001
44
0.0000000001
40
0
40
0
40
0
40
1
40
1
40
1
10
543.23354398611912
20
66.59751379482644
30
0
10
543.23338283728265
20
66.853313037584115
30
0
10
543.1595908763943
20
67.046647897884256
30
0
0
SPLINE
5
436
100
AcDbEntity
8
0
100
AcDbSpline
70
0
71
2
72
6
73
3
74
0
42
0.000000001
43
0.0000000001
44
0.0000000001
40
0
40
0
40
0
40
1
40
1
40
1
10
543.1595908763943
20
67.046647897884256
30
0
10
543.08579951005026
20
67.239985142745212
30
0
10
542.95988869878659
20
67.331992631506679
30
0
0
SPLINE
5
437
100
AcDbEntity
8
0
100
AcDbSpline
70
0
71
2
72
6
73
3
74
0
42
0.000000001
43
0.0000000001
44
0.0000000001
40
0
40
0
40
0
40
1
40
1
40
1
10
542.95988869878659
20
67.331992631506679
30
0
10
542.83397788602076
20
67.424002504453455
30
0
10
542.62317849113288
20
67.458657366476658
30
0
0
LINE
5
438
100
AcDbEntity
8
0
100
AcDbLine
10
542.62317849113276
20
67.458657366476658
30
0
11
542.57429236275789
21
67.098461855306923
31
0
0
SPLINE
5
439
100
AcDbEntity
8
0
100
AcDbSpline
70
0
71
2
72
6
73
3
74
0
42
0.000000001
43
0.0000000001
44
0.0000000001
40
0
40
0
40
0
40
1
40
1
40
1
10
542.57429236275789
20
67.098461855306937
30
0
10
542.74211096678266
20
67.07401284361859
30
0
10
542.836319289009
20
66.956403064255753
30
0
0
SPLINE
5
440
100
AcDbEntity
8
0
100
AcDbSpline
70
0
71
2
72
6
73
3
74
0
42
0.000000001
43
0.0000000001
44
0.0000000001
40
0
40
0
40
0
40
1
40
1
40
1
10
542.836319289009
20
66.956403064255753
30
0
10
542.93052701368697
20
66.838795668702716
30
0
10
542.9306623778084
20
66.623925735297462
30
0
0
SPLINE
5
441
100
AcDbEntity
8
0
100
AcDbSpline
70
0
71
2
72
6
73
3
74
0
42
0.000000001
43
0.0000000001
44
0.0000000001
40
0
40
0
40
0
40
1
40
1
40
1
10
542.9306623778084
20
66.623925735297462
30
0
10
542.93082223643285
20
66.370174507727882
30
0
10
542.84698869807721
20
66.261662676793108
30
0
0
SPLINE
5
442
100
AcDbEntity
8
0
100
AcDbSpline
70
0
71
2
72
6
73
3
74
0
42
0.000000001
43
0.0000000001
44
0.0000000001
40
0
40
0
40
0
40
1
40
1
40
1
10
542.84698869807721
20
66.261662676793108
30
0
10
542.76315515972169
20
66.153150845858335
30
0
10
542.6506037313269
20
66.153079940520499
30
0
0
SPLINE
5
443
100
AcDbEntity
8
0
100
AcDbSpline
70
0
71
2
72
6
73
3
74
0
42
0.000000001
43
0.0000000001
44
0.0000000001
40
0
40
0
40
0
40
1
40
1
40
1
10
542.6506037313269
20
66.153079940520499
30
0
10
542.57898042019178
20
66.153034819146683
30
0
10
542.52165293231155
20
66.19801929310519
30
0
0
SPLINE
5
444
100
AcDbEntity
8
0
100
AcDbSpline
70
0
71
2
72
6
73
3
74
0
42
0.000000001
43
0.0000000001
44
0.0000000001
40
0
40
0
40
0
40
1
40
1
40
1
10
542.52165293231155
20
66.19801929310519
30
0
10
542.46227981342849
20
66.243002478353631
30
0
10
542.42333792736179
20
66.339158403760123
30
0
0
SPLINE
5
445
100
AcDbEntity
8
0
100
AcDbSpline
70
0
71
2
72
6
73
3
74
0
42
0.000000001
43
0.0000000001
44
0.0000000001
40
0
40
0
40
0
40
1
40
1
40
1
10
542.42333792736179
20
66.339158403760123
30
0
10
542.40283965759079
20
66.394396622710659
30
0
10
542.32899935054957
20
66.664473640023431
30
0
0
SPLINE
5
446
100
AcDbEntity
8
0
100
AcDbSpline
70
0
71
2
72
6
73
3
74
0
42
0.000000001
43
0.0000000001
44
0.0000000001
40
0
40
0
40
0
40
1
40
1
40
1
10
542.32899935054957
20
66.664473640023431
30
0
10
542.22438778720186
20
67.055268848610268
30
0
10
542.1577824120094
20
67.209729310918576
30
0
0
SPLINE
5
447
100
AcDbEntity
8
0
100
AcDbSpline
70
0
71
2
72
6
73
3
74
0
42
0.000000001
43
0.0000000001
44
0.0000000001
40
0
40
0
40
0
40
1
40
1
40
1
10
542.1577824120094
20
67.209729310918576
30
0
10
542.09117823041174
20
67.364187389792548
30
0
10
541.96424718106664
20
67.452102972193472
30
0
0
SPLINE
5
448
100
AcDbEntity
8
0
100
AcDbSpline
70
0
71
2
72
6
73
3
74
0
42
0.000000001
43
0.0000000001
44
0.0000000001
40
0
40
0
40
0
40
1
40
1
40
1
10
541.96424718106664
20
67.452102972193472
30
0
10
541.83731493962898
20
67.540018553843396
30
0
10
541.64904774600086
20
67.539899948960652
30
0
0
SPLINE
5
449
100
AcDbEntity
8
0
100
AcDbSpline
70
0
71
2
72
6
73
3
74
0
42
0.000000001
43
0.0000000001
44
0.0000000001
40
0
40
0
40
0
40
1
40
1
40
1
10
541.64904774600086
20
67.539899948960652
30
0
10
541.46487300647095
20
67.539783922249015
30
0
10
541.30225341993037
20
67.432245273454626
30
0
0
SPLINE
5
450
100
AcDbEntity
8
0
100
AcDbSpline
70
0
71
2
72
6
73
3
74
0
42
0.000000001
43
0.0000000001
44
0.0000000001
40
0
40
0
40
0
40
1
40
1
40
1
10
541.30225341993037
20
67.432245273454626
30
0
10
541.13963383338967
20
67.324706624660266
30
0
10
541.05074313503235
20
67.122059165726967
30
0
0
SPLINE
5
451
100
AcDbEntity
8
0
100
AcDbSpline
70
0
71
2
72
6
73
3
74
0
42
0.000000001
43
0.0000000001
44
0.0000000001
40
0
40
0
40
0
40
1
40
1
40
1
10
541.05074313503235
20
67.122059165726967
30
0
10
540.96185362876759
20
66.919411707544668
30
0
10
540.96201477760405
20
66.663612464787008
30
0
0
SPLINE
5
452
100
AcDbEntity
8
0
100
AcDbSpline
70
0
71
2
72
6
73
3
74
0
42
0.000000001
43
0.0000000001
44
0.0000000001
40
0
40
0
40
0
40
1
40
1
40
1
10
540.96201477760405
20
66.663612464787008
30
0
10
540.96228163821468
20
66.240011875170111
30
0
10
541.13841015356422
20
66.018090718688313
30
0
0
SPLINE
5
453
100
AcDbEntity
8
0
100
AcDbSpline
70
0
71
2
72
6
73
3
74
0
42
0.000000001
43
0.0000000001
44
0.0000000001
40
0
40
0
40
0
40
1
40
1
40
1
10
541.13841015356422
20
66.018090718688313
30
0
10
541.31453986250835
20
65.796167178772208
30
0
10
541.66041653861612
20
65.734994662626264
30
0
0
LINE
5
454
100
AcDbEntity
8
0
100
AcDbLine
10
541.65836286799799
20
68.994884095237182
30
0
11
541.71543251924197
21
69.359176025505633
31
0
0
SPLINE
5
455
100
AcDbEntity
8
0
100
AcDbSpline
70
0
71
2
72
6
73
3
74
0
42
0.000000001
43
0.0000000001
44
0.0000000001
40
0
40
0
40
0
40
1
40
1
40
1
10
541.71543251924197
20
69.359176025505633
30
0
10
541.4964496014851
20
69.389734468430106
30
0
10
541.37971740930959
20
69.529839160687189
30
0
0
SPLINE
5
456
100
AcDbEntity
8
0
100
AcDbSpline
70
0
71
2
72
6
73
3
74
0
42
0.000000001
43
0.0000000001
44
0.0000000001
40
0
40
0
40
0
40
1
40
1
40
1
10
541.37971740930959
20
69.529839160687189
30
0
10
541.262985218636
20
69.669941468758964
30
0
10
541.26282664721975
20
69.921649449511122
30
0
0
SPLINE
5
457
100
AcDbEntity
8
0
100
AcDbSpline
70
0
71
2
72
6
73
3
74
0
42
0.000000001
43
0.0000000001
44
0.0000000001
40
0
40
0
40
0
40
1
40
1
40
1
10
541.26282664721975
20
69.921649449511122
30
0
10
541.26266679009734
20
70.17539829289538
30
0
10
541.36593195005867
20
70.298248940656919
30
0
0
SPLINE
5
458
100
AcDbEntity
8
0
100
AcDbSpline
70
0
71
2
72
6
73
3
74
0
42
0.000000001
43
0.0000000001
44
0.0000000001
40
0
40
0
40
0
40
1
40
1
40
1
10
541.36593195005867
20
70.298248940656919
30
0
10
541.46919711302405
20
70.421094820047813
30
0
10
541.60835128119606
20
70.42118248462431
30
0
0
SPLINE
5
459
100
AcDbEntity
8
0
100
AcDbSpline
70
0
71
2
72
6
73
3
74
0
42
0.000000001
43
0.0000000001
44
0.0000000001
40
0
40
0
40
0
40
1
40
1
40
1
10
541.60835128119606
20
70.42118248462431
30
0
10
541.73318126397805
20
70.421261125226465
30
0
10
541.80487290077781
20
70.312849656488922
30
0
0
SPLINE
5
460
100
AcDbEntity
8
0
100
AcDbSpline
70
0
71
2
72
6
73
3
74
0
42
0.000000001
43
0.0000000001
44
0.0000000001
40
0
40
0
40
0
40
1
40
1
40
1
10
541.80487290077781
20
70.312849656488922
30
0
10
541.85403362652983
20
70.23716363946923
30
0
10
541.92993890123273
20
69.936393909083861
30
0
0
SPLINE
5
461
100
AcDbEntity
8
0
100
AcDbSpline
70
0
71
2
72
6
73
3
74
0
42
0.000000001
43
0.0000000001
44
0.0000000001
40
0
40
0
40
0
40
1
40
1
40
1
10
541.92993890123273
20
69.936393909083861
30
0
10
542.03251385755198
20
69.531273226397005
30
0
10
542.10730542965075
20
69.374772289428151
30
0
0
SPLINE
5
462
100
AcDbEntity
8
0
100
AcDbSpline
70
0
71
2
72
6
73
3
74
0
42
0.000000001
43
0.0000000001
44
0.0000000001
40
0
40
0
40
0
40
1
40
1
40
1
10
542.10730542965075
20
69.374772289428151
30
0
10
542.18209700174964
20
69.218271352459311
30
0
10
542.31414000079963
20
69.137521086030489
30
0
0
SPLINE
5
463
100
AcDbEntity
8
0
100
AcDbSpline
70
0
71
2
72
6
73
3
74
0
42
0.000000001
43
0.0000000001
44
0.0000000001
40
0
40
0
40
0
40
1
40
1
40
1
10
542.31414000079963
20
69.137521086030489
30
0
10
542.44618299834769
20
69.056773203786989
30
0
10
542.60580062910321
20
69.056873759970017
30
0
0
SPLINE
5
464
100
AcDbEntity
8
0
100
AcDbSpline
70
0
71
2
72
6
73
3
74
0
42
0.000000001
43
0.0000000001
44
0.0000000001
40
0
40
0
40
0
40
1
40
1
40
1
10
542.60580062910321
20
69.056873759970017
30
0
10
542.75109407446882
20
69.05696529217866
30
0
10
542.87485815156015
20
69.123550137117647
30
0
0
SPLINE
5
465
100
AcDbEntity
8
0
100
AcDbSpline
70
0
71
2
72
6
73
3
74
0
42
0.000000001
43
0.0000000001
44
0.0000000001
40
0
40
0
40
0
40
1
40
1
40
1
10
542.87485815156015
20
69.123550137117647
30
0
10
542.99862222865147
20
69.190134982056634
30
0
10
543.0804056723257
20
69.304784801099458
30
0
0
SPLINE
5
466
100
AcDbEntity
8
0
100
AcDbSpline
70
0
71
2
72
6
73
3
74
0
42
0.000000001
43
0.0000000001
44
0.0000000001
40
0
40
0
40
0
40
1
40
1
40
1
10
543.0804056723257
20
69.304784801099458
30
0
10
543.14378933387002
20
69.390772262280578
30
0
10
543.18769362370188
20
69.539163064023072
30
0
0
SPLINE
5
467
100
AcDbEntity
8
0
100
AcDbSpline
70
0
71
2
72
6
73
3
74
0
42
0.000000001
43
0.0000000001
44
0.0000000001
40
0
40
0
40
0
40
1
40
1
40
1
10
543.18769362370188
20
69.539163064023072
30
0
10
543.23159731748729
20
69.687553865390058
30
0
10
543.23149031550099
20
69.857403227437374
30
0
0
SPLINE
5
468
100
AcDbEntity
8
0
100
AcDbSpline
70
0
71
2
72
6
73
3
74
0
42
0.000000001
43
0.0000000001
44
0.0000000001
40
0
40
0
40
0
40
1
40
1
40
1
10
543.23149031550099
20
69.857403227437374
30
0
10
543.23132916666464
20
70.113202470195034
30
0
10
543.15753720427426
20
70.306539714680497
30
0
0
SPLINE
5
469
100
AcDbEntity
8
0
100
AcDbSpline
70
0
71
2
72
6
73
3
74
0
42
0.000000001
43
0.0000000001
44
0.0000000001
40
0
40
0
40
0
40
1
40
1
40
1
10
543.15753720427426
20
70.306539714680497
30
0
10
543.08374583943214
20
70.499874575356145
30
0
10
542.95783502666643
20
70.59188444830292
30
0
0
SPLINE
5
470
100
AcDbEntity
8
0
100
AcDbSpline
70
0
71
2
72
6
73
3
74
0
42
0.000000001
43
0.0000000001
44
0.0000000001
40
0
40
0
40
0
40
1
40
1
40
1
10
542.95783502666643
20
70.59188444830292
30
0
10
542.83192421540275
20
70.683891937064388
30
0
10
542.62112482051475
20
70.718546799087591
30
0
0
LINE
5
471
100
AcDbEntity
8
0
100
AcDbLine
10
542.62112482051475
20
70.718546799087591
30
0
11
542.57223869063773
21
70.358353672103178
31
0
0
SPLINE
5
472
100
AcDbEntity
8
0
100
AcDbSpline
70
0
71
2
72
6
73
3
74
0
42
0.000000001
43
0.0000000001
44
0.0000000001
40
0
40
0
40
0
40
1
40
1
40
1
10
542.57223869063773
20
70.358353672103178
30
0
10
542.74005729616454
20
70.333902276229509
30
0
10
542.83426561688896
20
70.216294881051994
30
0
0
SPLINE
5
473
100
AcDbEntity
8
0
100
AcDbSpline
70
0
71
2
72
6
73
3
74
0
42
0.000000001
43
0.0000000001
44
0.0000000001
40
0
40
0
40
0
40
1
40
1
40
1
10
542.83426561688896
20
70.216294881051994
30
0
10
542.92847334306896
20
70.098685101313635
30
0
10
542.92860870568825
20
69.883817552093717
30
0
0
SPLINE
5
474
100
AcDbEntity
8
0
100
AcDbSpline
70
0
71
2
72
6
73
3
74
0
42
0.000000001
43
0.0000000001
44
0.0000000001
40
0
40
0
40
0
40
1
40
1
40
1
10
542.92860870568825
20
69.883817552093717
30
0
10
542.92876856581472
20
69.630063940338815
30
0
10
542.84493502595717
20
69.521554493589349
30
0
0
SPLINE
5
475
100
AcDbEntity
8
0
100
AcDbSpline
70
0
71
2
72
6
73
3
74
0
42
0.000000001
43
0.0000000001
44
0.0000000001
40
0
40
0
40
0
40
1
40
1
40
1
10
542.84493502595717
20
69.521554493589349
30
0
10
542.76110148760165
20
69.413042662654576
30
0
10
542.64855005920685
20
69.41297175731674
30
0
0
SPLINE
5
476
100
AcDbEntity
8
0
100
AcDbSpline
70
0
71
2
72
6
73
3
74
0
42
0.000000001
43
0.0000000001
44
0.0000000001
40
0
40
0
40
0
40
1
40
1
40
1
10
542.64855005920685
20
69.41297175731674
30
0
10
542.57692674807174
20
69.412926635942938
30
0
10
542.51959926019151
20
69.457911109901431
30
0
0
SPLINE
5
477
100
AcDbEntity
8
0
100
AcDbSpline
70
0
71
2
72
6
73
3
74
0
42
0.000000001
43
0.0000000001
44
0.0000000001
40
0
40
0
40
0
40
1
40
1
40
1
10
542.51959926019151
20
69.457911109901431
30
0
10
542.46022614281048
20
69.502891910964564
30
0
10
542.42128425524163
20
69.599050220556364
30
0
0
SPLINE
5
478
100
AcDbEntity
8
0
100
AcDbSpline
70
0
71
2
72
6
73
3
74
0
42
0.000000001
43
0.0000000001
44
0.0000000001
40
0
40
0
40
0
40
1
40
1
40
1
10
542.42128425524163
20
69.599050220556364
30
0
10
542.40078598547075
20
69.6542884395069
30
0
10
542.32694567842941
20
69.924365456819672
30
0
0
SPLINE
5
479
100
AcDbEntity
8
0
100
AcDbSpline
70
0
71
2
72
6
73
3
74
0
42
0.000000001
43
0.0000000001
44
0.0000000001
40
0
40
0
40
0
40
1
40
1
40
1
10
542.32694567842941
20
69.924365456819672
30
0
10
542.22233411658374
20
70.315158281221187
30
0
10
542.15572874139139
20
70.469618743529495
30
0
0
SPLINE
5
480
100
AcDbEntity
8
0
100
AcDbSpline
70
0
71
2
72
6
73
3
74
0
42
0.000000001
43
0.0000000001
44
0.0000000001
40
0
40
0
40
0
40
1
40
1
40
1
10
542.15572874139139
20
70.469618743529495
30
0
10
542.08912455829159
20
70.624079206588789
30
0
10
541.9621935089466
20
70.711994788989713
30
0
0
SPLINE
5
481
100
AcDbEntity
8
0
100
AcDbSpline
70
0
71
2
72
6
73
3
74
0
42
0.000000001
43
0.0000000001
44
0.0000000001
40
0
40
0
40
0
40
1
40
1
40
1
10
541.9621935089466
20
70.711994788989713
30
0
10
541.83526126901097
20
70.799907986454315
30
0
10
541.64699407538274
20
70.799789381571571
30
0
0
SPLINE
5
482
100
AcDbEntity
8
0
100
AcDbSpline
70
0
71
2
72
6
73
3
74
0
42
0.000000001
43
0.0000000001
44
0.0000000001
40
0
40
0
40
0
40
1
40
1
40
1
10
541.64699407538274
20
70.799789381571571
30
0
10
541.46281933585283
20
70.799673354859934
30
0
10
541.30019974781032
20
70.692137090250867
30
0
0
SPLINE
5
483
100
AcDbEntity
8
0
100
AcDbSpline
70
0
71
2
72
6
73
3
74
0
42
0.000000001
43
0.0000000001
44
0.0000000001
40
0
40
0
40
0
40
1
40
1
40
1
10
541.30019974781032
20
70.692137090250867
30
0
10
541.13758016126963
20
70.584598441456507
30
0
10
541.04868946441422
20
70.381948598337885
30
0
0
SPLINE
5
484
100
AcDbEntity
8
0
100
AcDbSpline
70
0
71
2
72
6
73
3
74
0
42
0.000000001
43
0.0000000001
44
0.0000000001
40
0
40
0
40
0
40
1
40
1
40
1
10
541.04868946441422
20
70.381948598337885
30
0
10
540.95979995814946
20
70.179301140155587
30
0
10
540.9599611054839
20
69.923504281583249
30
0
0
SPLINE
5
485
100
AcDbEntity
8
0
100
AcDbSpline
70
0
71
2
72
6
73
3
74
0
42
0.000000001
43
0.0000000001
44
0.0000000001
40
0
40
0
40
0
40
1
40
1
40
1
10
540.9599611054839
20
69.923504281583249
30
0
10
540.96022796759667
20
69.49990130778103
30
0
10
541.1363564829461
20
69.277980151299232
30
0
0
SPLINE
5
486
100
AcDbEntity
8
0
100
AcDbSpline
70
0
71
2
72
6
73
3
74
0
42
0.000000001
43
0.0000000001
44
0.0000000001
40
0
40
0
40
0
40
1
40
1
40
1
10
541.1363564829461
20
69.277980151299232
30
0
10
541.31248619038831
20
69.056058995568449
30
0
10
541.65836286799799
20
68.994884095237182
30
0
0
LWPOLYLINE
5
487
100
AcDbEntity
8
0
100
AcDbPolyline
90
4
70
1
43
0.0
10
544.00824470936504
20
71.241249891020459
10
543.58464352370174
20
71.2409830300343
10
543.5844114702785
20
71.609332509094145
10
544.00801265594168
20
71.609599370080318
0
LWPOLYLINE
5
488
100
AcDbEntity
8
0
100
AcDbPolyline
90
4
70
1
43
0.0
10
543.18150520457584
20
71.240729060279151
10
541.00824518547097
20
71.239359946283429
10
541.00801313204761
20
71.607709425343273
10
543.18127315115248
20
71.609078539338981
0
LINE
5
489
100
AcDbEntity
8
0
100
AcDbLine
10
541.00677164766
20
73.578376873337405
30
0
11
541.28098752990581
21
73.578549624319308
31
0
0
SPLINE
5
490
100
AcDbEntity
8
0
100
AcDbSpline
70
0
71
2
72
6
73
3
74
0
42
0.000000001
43
0.0000000001
44
0.0000000001
40
0
40
0
40
0
40
1
40
1
40
1
10
541.28098752990581
20
73.578549624319294
30
0
10
540.95778882998309
20
73.371660907822275
30
0
10
540.95804151027721
20
72.970569411791672
30
0
0
SPLINE
5
491
100
AcDbEntity
8
0
100
AcDbSpline
70
0
71
2
72
6
73
3
74
0
42
0.000000001
43
0.0000000001
44
0.0000000001
40
0
40
0
40
0
40
1
40
1
40
1
10
540.95804151027721
20
72.970569411791672
30
0
10
540.95820523653379
20
72.710678907028495
30
0
10
541.10158915749241
20
72.492828385681406
30
0
0
SPLINE
5
492
100
AcDbEntity
8
0
100
AcDbSpline
70
0
71
2
72
6
73
3
74
0
42
0.000000001
43
0.0000000001
44
0.0000000001
40
0
40
0
40
0
40
1
40
1
40
1
10
541.10158915749241
20
72.492828385681406
30
0
10
541.24497307845104
20
72.274977864334303
30
0
10
541.50187055328411
20
72.155427328528603
30
0
0
SPLINE
5
493
100
AcDbEntity
8
0
100
AcDbSpline
70
0
71
2
72
6
73
3
74
0
42
0.000000001
43
0.0000000001
44
0.0000000001
40
0
40
0
40
0
40
1
40
1
40
1
10
541.50187055328411
20
72.155427328528603
30
0
10
541.75876683602451
20
72.035876791971916
30
0
10
542.09232747501824
20
72.036086929063316
30
0
0
SPLINE
5
494
100
AcDbEntity
8
0
100
AcDbSpline
70
0
71
2
72
6
73
3
74
0
42
0.000000001
43
0.0000000001
44
0.0000000001
40
0
40
0
40
0
40
1
40
1
40
1
10
542.09232747501824
20
72.036086929063316
30
0
10
542.41770201372287
20
72.036291909061504
30
0
10
542.68264065451353
20
72.144915448706527
30
0
0
SPLINE
5
495
100
AcDbEntity
8
0
100
AcDbSpline
70
0
71
2
72
6
73
3
74
0
42
0.000000001
43
0.0000000001
44
0.0000000001
40
0
40
0
40
0
40
1
40
1
40
1
10
542.68264065451353
20
72.144915448706527
30
0
10
542.94757929380216
20
72.253541372536858
30
0
10
543.0886430361918
20
72.470545890606928
30
0
0
SPLINE
5
496
100
AcDbEntity
8
0
100
AcDbSpline
70
0
71
2
72
6
73
3
74
0
42
0.000000001
43
0.0000000001
44
0.0000000001
40
0
40
0
40
0
40
1
40
1
40
1
10
543.0886430361918
20
72.470545890606928
30
0
10
543.2297067770794
20
72.687552792862306
30
0
10
543.22953789297867
20
72.955630590007161
30
0
0
SPLINE
5
497
100
AcDbEntity
8
0
100
AcDbSpline
70
0
71
2
72
6
73
3
74
0
42
0.000000001
43
0.0000000001
44
0.0000000001
40
0
40
0
40
0
40
1
40
1
40
1
10
543.22953789297867
20
72.955630590007161
30
0
10
543.22941413175374
20
73.152082691831609
30
0
10
543.14643898847737
20
73.305510025578627
30
0
0
SPLINE
5
498
100
AcDbEntity
8
0
100
AcDbSpline
70
0
71
2
72
6
73
3
74
0
42
0.000000001
43
0.0000000001
44
0.0000000001
40
0
40
0
40
0
40
1
40
1
40
1
10
543.14643898847737
20
73.305510025578627
30
0
10
543.0634638467028
20
73.458934975140323
30
0
10
542.93038836382209
20
73.555031598105444
30
0
0
LINE
5
499
100
AcDbEntity
8
0
100
AcDbLine
10
542.9303883638222
20
73.555031598105444
30
0
11
544.00678604603638
21
73.555709708924553
31
0
0
LINE
5
500
100
AcDbEntity
8
0
100
AcDbLine
10
544.00678604603638
20
73.555709708924553
30
0
11
544.00655528282516
21
73.922011172796317
31
0
0
LINE
5
501
100
AcDbEntity
8
0
100
AcDbLine
10
544.00655528282516
20
73.922011172796317
30
0
11
541.00655635497742
21
73.92012122843478
31
0
0
LINE
5
502
100
AcDbEntity
8
0
100
AcDbLine
10
541.00655635497742
20
73.92012122843478
30
0
11
541.00677164766
21
73.578376873337405
31
0
0
SPLINE
5
503
100
AcDbEntity
8
0
100
AcDbSpline
70
0
71
2
72
6
73
3
74
0
42
0.000000001
43
0.0000000001
44
0.0000000001
40
0
40
0
40
0
40
1
40
1
40
1
10
542.09208897654264
20
72.414666947322274
30
0
10
541.67462647202672
20
72.414403953592767
30
0
10
541.46783057719938
20
72.590262385054473
30
0
0
SPLINE
5
504
100
AcDbEntity
8
0
100
AcDbSpline
70
0
71
2
72
6
73
3
74
0
42
0.000000001
43
0.0000000001
44
0.0000000001
40
0
40
0
40
0
40
1
40
1
40
1
10
541.46783057719938
20
72.590262385054473
30
0
10
541.26103468237204
20
72.766120816516178
30
0
10
541.26088384622005
20
73.005550242881128
30
0
0
SPLINE
5
505
100
AcDbEntity
8
0
100
AcDbSpline
70
0
71
2
72
6
73
3
74
0
42
0.000000001
43
0.0000000001
44
0.0000000001
40
0
40
0
40
0
40
1
40
1
40
1
10
541.26088384622005
20
73.005550242881128
30
0
10
541.2607317243619
20
73.247020531878206
30
0
10
541.45810147464726
20
73.415973868940426
30
0
0
SPLINE
5
506
100
AcDbEntity
8
0
100
AcDbSpline
70
0
71
2
72
6
73
3
74
0
42
0.000000001
43
0.0000000001
44
0.0000000001
40
0
40
0
40
0
40
1
40
1
40
1
10
541.45810147464726
20
73.415973868940426
30
0
10
541.65547122793646
20
73.584922437632017
30
0
10
542.06065517806519
20
73.585177696097205
30
0
0
SPLINE
5
507
100
AcDbEntity
8
0
100
AcDbSpline
70
0
71
2
72
6
73
3
74
0
42
0.000000001
43
0.0000000001
44
0.0000000001
40
0
40
0
40
0
40
1
40
1
40
1
10
542.06065517806519
20
73.585177696097205
30
0
10
542.50676724545372
20
73.585458738526455
30
0
10
542.71560678840808
20
73.41369524234112
30
0
0
SPLINE
5
508
100
AcDbEntity
8
0
100
AcDbSpline
70
0
71
2
72
6
73
3
74
0
42
0.000000001
43
0.0000000001
44
0.0000000001
40
0
40
0
40
0
40
1
40
1
40
1
10
542.71560678840808
20
73.41369524234112
30
0
10
542.92444633136233
20
73.241931746155814
30
0
10
542.9246049027787
20
72.990223765403655
30
0
0
SPLINE
5
509
100
AcDbEntity
8
0
100
AcDbSpline
70
0
71
2
72
6
73
3
74
0
42
0.000000001
43
0.0000000001
44
0.0000000001
40
0
40
0
40
0
40
1
40
1
40
1
10
542.9246049027787
20
72.990223765403655
30
0
10
542.92475960355887
20
72.744659830215753
30
0
10
542.72431763575469
20
72.579798205528306
30
0
0
SPLINE
5
510
100
AcDbEntity
8
0
100
AcDbSpline
70
0
71
2
72
6
73
3
74
0
42
0.000000001
43
0.0000000001
44
0.0000000001
40
0
40
0
40
0
40
1
40
1
40
1
10
542.72431763575469
20
72.579798205528306
30
0
10
542.52387566644859
20
72.414938965026153
30
0
10
542.09208897654264
20
72.414666947322274
30
0
0
LINE
5
511
100
AcDbEntity
8
0
100
AcDbLine
10
541.70511757214354
20
75.9874123815773
30
0
11
541.65781158259722
21
76.368008379993839
31
0
0
SPLINE
5
512
100
AcDbEntity
8
0
100
AcDbSpline
70
0
71
2
72
6
73
3
74
0
42
0.000000001
43
0.0000000001
44
0.0000000001
40
0
40
0
40
0
40
1
40
1
40
1
10
541.65781158259722
20
76.368008379993853
30
0
10
541.32430766787377
20
76.277757100186562
30
0
10
541.14028634041392
20
76.03412276928978
30
0
0
SPLINE
5
513
100
AcDbEntity
8
0
100
AcDbSpline
70
0
71
2
72
6
73
3
74
0
42
0.000000001
43
0.0000000001
44
0.0000000001
40
0
40
0
40
0
40
1
40
1
40
1
10
541.14028634041392
20
76.03412276928978
30
0
10
540.95626501295419
20
75.790488438392998
30
0
10
540.9565035129317
20
75.411906035948718
30
0
0
SPLINE
5
514
100
AcDbEntity
8
0
100
AcDbSpline
70
0
71
2
72
6
73
3
74
0
42
0.000000001
43
0.0000000001
44
0.0000000001
40
0
40
0
40
0
40
1
40
1
40
1
10
540.9565035129317
20
75.411906035948718
30
0
10
540.95680389201971
20
74.935099966777528
30
0
10
541.25063639635778
20
74.655951428980245
30
0
0
SPLINE
5
515
100
AcDbEntity
8
0
100
AcDbSpline
70
0
71
2
72
6
73
3
74
0
42
0.000000001
43
0.0000000001
44
0.0000000001
40
0
40
0
40
0
40
1
40
1
40
1
10
541.25063639635778
20
74.655951428980245
30
0
10
541.54446770710115
20
74.376805274617283
30
0
10
542.07448164001187
20
74.377139173684625
30
0
0
SPLINE
5
516
100
AcDbEntity
8
0
100
AcDbSpline
70
0
71
2
72
6
73
3
74
0
42
0.000000001
43
0.0000000001
44
0.0000000001
40
0
40
0
40
0
40
1
40
1
40
1
10
542.07448164001187
20
74.377139173684625
30
0
10
542.62291221241082
20
74.377484674897431
30
0
10
542.92559975095605
20
74.660075072928564
30
0
0
SPLINE
5
517
100
AcDbEntity
8
0
100
AcDbSpline
70
0
71
2
72
6
73
3
74
0
42
0.000000001
43
0.0000000001
44
0.0000000001
40
0
40
0
40
0
40
1
40
1
40
1
10
542.92559975095605
20
74.660075072928564
30
0
10
543.22828669195292
20
74.942667854769496
30
0
10
543.22800307060163
20
75.392873568348847
30
0
0
SPLINE
5
518
100
AcDbEntity
8
0
100
AcDbSpline
70
0
71
2
72
6
73
3
74
0
42
0.000000001
43
0.0000000001
44
0.0000000001
40
0
40
0
40
0
40
1
40
1
40
1
10
543.22800307060163
20
75.392873568348847
30
0
10
543.22772847472663
20
75.828752712352951
30
0
10
542.93082886240529
20
76.104828486020182
30
0
0
SPLINE
5
519
100
AcDbEntity
8
0
100
AcDbSpline
70
0
71
2
72
6
73
3
74
0
42
0.000000001
43
0.0000000001
44
0.0000000001
40
0
40
0
40
0
40
1
40
1
40
1
10
542.93082886240529
20
76.104828486020182
30
0
10
542.63392865553953
20
76.380901875126611
30
0
10
542.09572981443239
20
76.380562819717071
30
0
0
SPLINE
5
520
100
AcDbEntity
8
0
100
AcDbSpline
70
0
71
2
72
6
73
3
74
0
42
0.000000001
43
0.0000000001
44
0.0000000001
40
0
40
0
40
0
40
1
40
1
40
1
10
542.09572981443239
20
76.380562819717071
30
0
10
542.06298779746157
20
76.380542192846235
30
0
10
541.99750505223028
20
76.37845530810182
30
0
0
LINE
5
521
100
AcDbEntity
8
0
100
AcDbLine
10
541.99750505223028
20
76.37845530810182
30
0
11
541.99852608609103
21
74.757719507586756
31
0
0
SPLINE
5
522
100
AcDbEntity
8
0
100
AcDbSpline
70
0
71
2
72
6
73
3
74
0
42
0.000000001
43
0.0000000001
44
0.0000000001
40
0
40
0
40
0
40
1
40
1
40
1
10
541.99852608609103
20
74.757719507586756
30
0
10
541.64039544671641
20
74.777957362550296
30
0
10
541.44996669274235
20
74.959965384641009
30
0
0
SPLINE
5
523
100
AcDbEntity
8
0
100
AcDbSpline
70
0
71
2
72
6
73
3
74
0
42
0.000000001
43
0.0000000001
44
0.0000000001
40
0
40
0
40
0
40
1
40
1
40
1
10
541.44996669274235
20
74.959965384641009
30
0
10
541.25953793876829
20
75.141973406731722
30
0
10
541.25936647724734
20
75.414142465882094
30
0
0
SPLINE
5
524
100
AcDbEntity
8
0
100
AcDbSpline
70
0
71
2
72
6
73
3
74
0
42
0.000000001
43
0.0000000001
44
0.0000000001
40
0
40
0
40
0
40
1
40
1
40
1
10
541.25936647724734
20
75.414142465882094
30
0
10
541.25923884839028
20
75.616733844900153
30
0
10
541.36556075684393
20
75.760047504875999
30
0
0
SPLINE
5
525
100
AcDbEntity
8
0
100
AcDbSpline
70
0
71
2
72
6
73
3
74
0
42
0.000000001
43
0.0000000001
44
0.0000000001
40
0
40
0
40
0
40
1
40
1
40
1
10
541.36556075684393
20
75.760047504875999
30
0
10
541.47188266529747
20
75.903361164851844
30
0
10
541.70511757214354
20
75.9874123815773
30
0
0
LINE
5
526
100
AcDbEntity
8
0
100
AcDbLine
10
542.30137744751016
20
74.778373769100938
30
0
11
542.30061296157567
21
75.991878796391816
31
0
0
SPLINE
5
527
100
AcDbEntity
8
0
100
AcDbSpline
70
0
71
2
72
6
73
3
74
0
42
0.000000001
43
0.0000000001
44
0.0000000001
40
0
40
0
40
0
40
1
40
1
40
1
10
542.30061296157567
20
75.991878796391816
30
0
10
542.57484431435
20
75.967494438599331
30
0
10
542.71202385422555
20
75.852982562224526
30
0
0
SPLINE
5
528
100
AcDbEntity
8
0
100
AcDbSpline
70
0
71
2
72
6
73
3
74
0
42
0.000000001
43
0.0000000001
44
0.0000000001
40
0
40
0
40
0
40
1
40
1
40
1
10
542.71202385422555
20
75.852982562224526
30
0
10
542.92495902474445
20
75.677130382580302
30
0
10
542.92513564410956
20
75.396774031048253
30
0
0
SPLINE
5
529
100
AcDbEntity
8
0
100
AcDbSpline
70
0
71
2
72
6
73
3
74
0
42
0.000000001
43
0.0000000001
44
0.0000000001
40
0
40
0
40
0
40
1
40
1
40
1
10
542.92513564410956
20
75.396774031048253
30
0
10
542.92529550273389
20
75.143022803478658
30
0
10
542.75555447969157
20
74.969997992565439
30
0
0
SPLINE
5
530
100
AcDbEntity
8
0
100
AcDbSpline
70
0
71
2
72
6
73
3
74
0
42
0.000000001
43
0.0000000001
44
0.0000000001
40
0
40
0
40
0
40
1
40
1
40
1
10
542.75555447969157
20
74.969997992565439
30
0
10
542.58581345815128
20
74.796970797466884
30
0
10
542.30137744751016
20
74.778373769100938
30
0
0
LINE
5
531
100
AcDbEntity
8
0
100
AcDbLine
10
541.0031013383433
20
79.404434104980041
30
0
11
541.277317220589
21
79.404606855961944
31
0
0
SPLINE
5
532
100
AcDbEntity
8
0
100
AcDbSpline
70
0
71
2
72
6
73
3
74
0
42
0.000000001
43
0.0000000001
44
0.0000000001
40
0
40
0
40
0
40
1
40
1
40
1
10
541.27731722058911
20
79.404606855961944
30
0
10
540.95411852066638
20
79.197718139464911
30
0
10
540.95437120096051
20
78.796626643434337
30
0
0
SPLINE
5
533
100
AcDbEntity
8
0
100
AcDbSpline
70
0
71
2
72
6
73
3
74
0
42
0.000000001
43
0.0000000001
44
0.0000000001
40
0
40
0
40
0
40
1
40
1
40
1
10
540.95437120096051
20
78.796626643434337
30
0
10
540.95453492721708
20
78.536736138671145
30
0
10
541.09791884967774
20
78.318883233138735
30
0
0
SPLINE
5
534
100
AcDbEntity
8
0
100
AcDbSpline
70
0
71
2
72
6
73
3
74
0
42
0.000000001
43
0.0000000001
44
0.0000000001
40
0
40
0
40
0
40
1
40
1
40
1
10
541.09791884967774
20
78.318883233138735
30
0
10
541.24130276913434
20
78.101035095976954
30
0
10
541.49820024546943
20
77.981482175985931
30
0
0
SPLINE
5
535
100
AcDbEntity
8
0
100
AcDbSpline
70
0
71
2
72
6
73
3
74
0
42
0.000000001
43
0.0000000001
44
0.0000000001
40
0
40
0
40
0
40
1
40
1
40
1
10
541.49820024546943
20
77.981482175985931
30
0
10
541.75509652820983
20
77.861931639429244
30
0
10
542.08865716720345
20
77.862141776520644
30
0
0
SPLINE
5
536
100
AcDbEntity
8
0
100
AcDbSpline
70
0
71
2
72
6
73
3
74
0
42
0.000000001
43
0.0000000001
44
0.0000000001
40
0
40
0
40
0
40
1
40
1
40
1
10
542.08865716720345
20
77.862141776520644
30
0
10
542.4140317059082
20
77.862346756518846
30
0
10
542.67897034519683
20
77.970972680349178
30
0
0
SPLINE
5
537
100
AcDbEntity
8
0
100
AcDbSpline
70
0
71
2
72
6
73
3
74
0
42
0.000000001
43
0.0000000001
44
0.0000000001
40
0
40
0
40
0
40
1
40
1
40
1
10
542.67897034519683
20
77.970972680349178
30
0
10
542.94390898598749
20
78.079596219994187
30
0
10
543.08497272687509
20
78.296603122249579
30
0
0
SPLINE
5
538
100
AcDbEntity
8
0
100
AcDbSpline
70
0
71
2
72
6
73
3
74
0
42
0.000000001
43
0.0000000001
44
0.0000000001
40
0
40
0
40
0
40
1
40
1
40
1
10
543.08497272687509
20
78.296603122249579
30
0
10
543.2260364677627
20
78.513610024504956
30
0
10
543.225867585164
20
78.781685437464489
30
0
0
SPLINE
5
539
100
AcDbEntity
8
0
100
AcDbSpline
70
0
71
2
72
6
73
3
74
0
42
0.000000001
43
0.0000000001
44
0.0000000001
40
0
40
0
40
0
40
1
40
1
40
1
10
543.225867585164
20
78.781685437464489
30
0
10
543.22574382393907
20
78.978137539288952
30
0
10
543.14276868066258
20
79.131564873035956
30
0
0
SPLINE
5
540
100
AcDbEntity
8
0
100
AcDbSpline
70
0
71
2
72
6
73
3
74
0
42
0.000000001
43
0.0000000001
44
0.0000000001
40
0
40
0
40
0
40
1
40
1
40
1
10
543.14276868066258
20
79.131564873035956
30
0
10
543.05979353888813
20
79.284989822597652
30
0
10
542.92671805450527
20
79.381088829748094
30
0
0
LINE
5
541
100
AcDbEntity
8
0
100
AcDbLine
10
542.92671805450539
20
79.381088829748094
30
0
11
544.00311573671968
21
79.381766940567204
31
0
0
LINE
5
542
100
AcDbEntity
8
0
100
AcDbLine
10
544.00311573671968
20
79.381766940567204
30
0
11
544.00288497350846
21
79.748068404438953
31
0
0
LINE
5
543
100
AcDbEntity
8
0
100
AcDbLine
10
544.00288497350846
20
79.748068404438953
30
0
11
541.00288604566072
21
79.746178460077431
31
0
0
LINE
5
544
100
AcDbEntity
8
0
100
AcDbLine
10
541.00288604566072
20
79.746178460077431
30
0
11
541.0031013383433
21
79.404434104980041
31
0
0
SPLINE
5
545
100
AcDbEntity
8
0
100
AcDbSpline
70
0
71
2
72
6
73
3
74
0
42
0.000000001
43
0.0000000001
44
0.0000000001
40
0
40
0
40
0
40
1
40
1
40
1
10
542.08841866722594
20
78.240724178964925
30
0
10
541.67095616271001
20
78.240461185235418
30
0
10
541.46416026938471
20
78.416317232511801
30
0
0
SPLINE
5
546
100
AcDbEntity
8
0
100
AcDbSpline
70
0
71
2
72
6
73
3
74
0
42
0.000000001
43
0.0000000001
44
0.0000000001
40
0
40
0
40
0
40
1
40
1
40
1
10
541.46416026938471
20
78.416317232511801
30
0
10
541.25736437305534
20
78.592178048158829
30
0
10
541.25721353840527
20
78.831605090338456
30
0
0
SPLINE
5
547
100
AcDbEntity
8
0
100
AcDbSpline
70
0
71
2
72
6
73
3
74
0
42
0.000000001
43
0.0000000001
44
0.0000000001
40
0
40
0
40
0
40
1
40
1
40
1
10
541.25721353840527
20
78.831605090338456
30
0
10
541.2570614150452
20
79.073077763520857
30
0
10
541.45443116683248
20
79.242028716397755
30
0
0
SPLINE
5
548
100
AcDbEntity
8
0
100
AcDbSpline
70
0
71
2
72
6
73
3
74
0
42
0.000000001
43
0.0000000001
44
0.0000000001
40
0
40
0
40
0
40
1
40
1
40
1
10
541.45443116683248
20
79.242028716397755
30
0
10
541.65180091861976
20
79.410979669274653
30
0
10
542.05698486874849
20
79.411234927739855
30
0
0
SPLINE
5
549
100
AcDbEntity
8
0
100
AcDbSpline
70
0
71
2
72
6
73
3
74
0
42
0.000000001
43
0.0000000001
44
0.0000000001
40
0
40
0
40
0
40
1
40
1
40
1
10
542.05698486874849
20
79.411234927739855
30
0
10
542.50309693613701
20
79.411515970169091
30
0
10
542.71193647909126
20
79.239752473983771
30
0
0
SPLINE
5
550
100
AcDbEntity
8
0
100
AcDbSpline
70
0
71
2
72
6
73
3
74
0
42
0.000000001
43
0.0000000001
44
0.0000000001
40
0
40
0
40
0
40
1
40
1
40
1
10
542.71193647909126
20
79.239752473983771
30
0
10
542.92077602354766
20
79.067986593613142
30
0
10
542.92093459346199
20
78.816280997046306
30
0
0
SPLINE
5
551
100
AcDbEntity
8
0
100
AcDbSpline
70
0
71
2
72
6
73
3
74
0
42
0.000000001
43
0.0000000001
44
0.0000000001
40
0
40
0
40
0
40
1
40
1
40
1
10
542.92093459346199
20
78.816280997046306
30
0
10
542.9210892957442
20
78.570714677673095
30
0
10
542.72064732643798
20
78.405855437170942
30
0
0
SPLINE
5
552
100
AcDbEntity
8
0
100
AcDbSpline
70
0
71
2
72
6
73
3
74
0
42
0.000000001
43
0.0000000001
44
0.0000000001
40
0
40
0
40
0
40
1
40
1
40
1
10
542.72064732643798
20
78.405855437170942
30
0
10
542.52020535713189
20
78.240996196668803
30
0
10
542.08841866722594
20
78.240724178964925
30
0
0
SPLINE
5
553
100
AcDbEntity
8
0
100
AcDbSpline
70
0
71
2
72
6
73
3
74
0
42
0.000000001
43
0.0000000001
44
0.0000000001
40
0
40
0
40
0
40
1
40
1
40
1
10
542.08923818775236
20
80.18888143864848
30
0
10
542.69292106280102
20
80.189261747799662
30
0
10
542.98329652697964
20
80.525052274306091
30
0
0
SPLINE
5
554
100
AcDbEntity
8
0
100
AcDbSpline
70
0
71
2
72
6
73
3
74
0
42
0.000000001
43
0.0000000001
44
0.0000000001
40
0
40
0
40
0
40
1
40
1
40
1
10
542.98329652697964
20
80.525052274306091
30
0
10
543.22459317684331
20
80.805560749573715
30
0
10
543.22433920783919
20
81.208697876607076
30
0
0
SPLINE
5
555
100
AcDbEntity
8
0
100
AcDbSpline
70
0
71
2
72
6
73
3
74
0
42
0.000000001
43
0.0000000001
44
0.0000000001
40
0
40
0
40
0
40
1
40
1
40
1
10
543.22433920783919
20
81.208697876607076
30
0
10
543.2240568751979
20
81.656857959183668
30
0
10
542.93022114908479
20
81.94112057448784
30
0
0
SPLINE
5
556
100
AcDbEntity
8
0
100
AcDbSpline
70
0
71
2
72
6
73
3
74
0
42
0.000000001
43
0.0000000001
44
0.0000000001
40
0
40
0
40
0
40
1
40
1
40
1
10
542.93022114908479
20
81.94112057448784
30
0
10
542.63638602202195
20
82.22537842179689
30
0
10
542.11865064349831
20
82.225052257993838
30
0
0
SPLINE
5
557
100
AcDbEntity
8
0
100
AcDbSpline
70
0
71
2
72
6
73
3
74
0
42
0.000000001
43
0.0000000001
44
0.0000000001
40
0
40
0
40
0
40
1
40
1
40
1
10
542.11865064349831
20
82.225052257993838
30
0
10
541.699141315887
20
82.224787974803291
30
0
10
541.45877074241207
20
82.098784889607487
30
0
0
SPLINE
5
558
100
AcDbEntity
8
0
100
AcDbSpline
70
0
71
2
72
6
73
3
74
0
42
0.000000001
43
0.0000000001
44
0.0000000001
40
0
40
0
40
0
40
1
40
1
40
1
10
541.45877074241207
20
82.098784889607487
30
0
10
541.21840016893725
20
81.972781804411667
30
0
10
541.08553675696396
20
81.732248149786315
30
0
0
SPLINE
5
559
100
AcDbEntity
8
0
100
AcDbSpline
70
0
71
2
72
6
73
3
74
0
42
0.000000001
43
0.0000000001
44
0.0000000001
40
0
40
0
40
0
40
1
40
1
40
1
10
541.08553675696396
20
81.732248149786315
30
0
10
540.95267334499067
20
81.491714495160949
30
0
10
540.95285254177588
20
81.207266881623369
30
0
0
SPLINE
5
560
100
AcDbEntity
8
0
100
AcDbSpline
70
0
71
2
72
6
73
3
74
0
42
0.000000001
43
0.0000000001
44
0.0000000001
40
0
40
0
40
0
40
1
40
1
40
1
10
540.95285254177588
20
81.207266881623369
30
0
10
540.95314002925727
20
80.750924275035743
30
0
10
541.24594981471125
20
80.469729461129674
30
0
0
SPLINE
5
561
100
AcDbEntity
8
0
100
AcDbSpline
70
0
71
2
72
6
73
3
74
0
42
0.000000001
43
0.0000000001
44
0.0000000001
40
0
40
0
40
0
40
1
40
1
40
1
10
541.24594981471125
20
80.469729461129674
30
0
10
541.53876079225802
20
80.188534647974606
30
0
10
542.08923818775236
20
80.18888143864848
30
0
0
SPLINE
5
562
100
AcDbEntity
8
0
100
AcDbSpline
70
0
71
2
72
6
73
3
74
0
42
0.000000001
43
0.0000000001
44
0.0000000001
40
0
40
0
40
0
40
1
40
1
40
1
10
542.08899968777484
20
80.567463841092746
30
0
10
541.67153718325881
20
80.567200847363239
30
0
10
541.46371460529804
20
80.749197911663515
30
0
0
SPLINE
5
563
100
AcDbEntity
8
0
100
AcDbSpline
70
0
71
2
72
6
73
3
74
0
42
0.000000001
43
0.0000000001
44
0.0000000001
40
0
40
0
40
0
40
1
40
1
40
1
10
541.46371460529804
20
80.749197911663515
30
0
10
541.25589083524449
20
80.93119497521279
30
0
10
541.2557167948014
20
81.207457680554
30
0
0
SPLINE
5
564
100
AcDbEntity
8
0
100
AcDbSpline
70
0
71
2
72
6
73
3
74
0
42
0.000000001
43
0.0000000001
44
0.0000000001
40
0
40
0
40
0
40
1
40
1
40
1
10
541.2557167948014
20
81.207457680554
30
0
10
541.25554404457057
20
81.481672370707145
30
0
10
541.46416115562431
20
81.663931784381901
30
0
0
SPLINE
5
565
100
AcDbEntity
8
0
100
AcDbSpline
70
0
71
2
72
6
73
3
74
0
42
0.000000001
43
0.0000000001
44
0.0000000001
40
0
40
0
40
0
40
1
40
1
40
1
10
541.46416115562431
20
81.663931784381901
30
0
10
541.67277707458538
20
81.846191197305671
30
0
10
542.10047131039312
20
81.84646063683843
30
0
0
SPLINE
5
566
100
AcDbEntity
8
0
100
AcDbSpline
70
0
71
2
72
6
73
3
74
0
42
0.000000001
43
0.0000000001
44
0.0000000001
40
0
40
0
40
0
40
1
40
1
40
1
10
542.10047131039312
20
81.84646063683843
30
0
10
542.50360962951913
20
81.846714606593579
30
0
10
542.71143285033293
20
81.663697110977239
30
0
0
SPLINE
5
567
100
AcDbEntity
8
0
100
AcDbSpline
70
0
71
2
72
6
73
3
74
0
42
0.000000001
43
0.0000000001
44
0.0000000001
40
0
40
0
40
0
40
1
40
1
40
1
10
542.71143285033293
20
81.663697110977239
30
0
10
542.91925607415089
20
81.480674846990269
30
0
10
542.91942753567173
20
81.208505787839883
30
0
0
SPLINE
5
568
100
AcDbEntity
8
0
100
AcDbSpline
70
0
71
2
72
6
73
3
74
0
42
0.000000001
43
0.0000000001
44
0.0000000001
40
0
40
0
40
0
40
1
40
1
40
1
10
542.91942753567173
20
81.208505787839883
30
0
10
542.9196015761147
20
80.932243082498672
30
0
10
542.71303188420268
20
80.749984958660477
30
0
0
SPLINE
5
569
100
AcDbEntity
8
0
100
AcDbSpline
70
0
71
2
72
6
73
3
74
0
42
0.000000001
43
0.0000000001
44
0.0000000001
40
0
40
0
40
0
40
1
40
1
40
1
10
542.71303188420268
20
80.749984958660477
30
0
10
542.50646219229077
20
80.567726834822253
30
0
10
542.08899968777484
20
80.567463841092746
30
0
0
LINE
5
570
100
AcDbEntity
8
0
100
AcDbLine
10
541.00080014377329
20
83.057230125425207
30
0
11
543.17447914684885
21
82.393525976621632
31
0
0
LINE
5
571
100
AcDbEntity
8
0
100
AcDbLine
10
543.17447914684885
20
82.393525976621632
30
0
11
543.17423935966326
21
82.774151625883334
31
0
0
LINE
5
572
100
AcDbEntity
8
0
100
AcDbLine
10
543.17423935966326
20
82.774151625883334
30
0
11
541.91958834200602
21
83.119201741458312
31
0
0
LINE
5
573
100
AcDbEntity
8
0
100
AcDbLine
10
541.91958834200602
20
83.119201741458312
30
0
11
541.4529315932607
21
83.247830244302747
31
0
0
SPLINE
5
574
100
AcDbEntity
8
0
100
AcDbSpline
70
0
71
2
72
6
73
3
74
0
42
0.000000001
43
0.0000000001
44
0.0000000001
40
0
40
0
40
0
40
1
40
1
40
1
10
541.4529315932607
20
83.247830244302762
30
0
10
541.48771408639391
20
83.256034683894669
30
0
10
541.90101838856708
20
83.360660427558912
30
0
0
LINE
5
575
100
AcDbEntity
8
0
100
AcDbLine
10
541.90101838856708
20
83.360660427558912
30
0
11
543.17365149159184
21
83.7073026858275
31
0
0
LINE
5
576
100
AcDbEntity
8
0
100
AcDbLine
10
543.17365149159184
20
83.7073026858275
30
0
11
543.17341299311624
21
84.085882704086444
31
0
0
LINE
5
577
100
AcDbEntity
8
0
100
AcDbLine
10
543.17341299311624
20
84.085882704086444
30
0
11
541.91263558836988
21
84.410467873631035
31
0
0
LINE
5
578
100
AcDbEntity
8
0
100
AcDbLine
10
541.91263558836988
20
84.410467873631035
30
0
11
541.49715158128458
21
84.518662759473926
31
0
0
LINE
5
579
100
AcDbEntity
8
0
100
AcDbLine
10
541.49715158128458
20
84.518662759473926
30
0
11
541.91658107545015
21
84.643758216788157
31
0
0
LINE
5
580
100
AcDbEntity
8
0
100
AcDbLine
10
541.91658107545015
20
84.643758216788157
30
0
11
543.17282641375482
21
85.016988133027837
31
0
0
LINE
5
581
100
AcDbEntity
8
0
100
AcDbLine
10
543.17282641375482
20
85.016988133027837
30
0
11
543.17260080538381
21
85.375107072888582
31
0
0
LINE
5
582
100
AcDbEntity
8
0
100
AcDbLine
10
543.17260080538381
20
85.375107072888582
30
0
11
540.99976879422411
21
84.694340510703626
31
0
0
LINE
5
583
100
AcDbEntity
8
0
100
AcDbLine
10
540.99976879422411
20
84.694340510703626
30
0
11
541.00000987312376
21
84.311664462068507
31
0
0
LINE
5
584
100
AcDbEntity
8
0
100
AcDbLine
10
541.00000987312376
20
84.311664462068507
30
0
11
542.30172828523439
21
83.966643998089722
31
0
0
LINE
5
585
100
AcDbEntity
8
0
100
AcDbLine
10
542.30172828523439
20
83.966643998089722
30
0
11
542.67217625043315
21
83.882977858886107
31
0
0
LINE
5
586
100
AcDbEntity
8
0
100
AcDbLine
10
542.67217625043315
20
83.882977858886107
30
0
11
541.00055777616365
21
83.44195180506307
31
0
0
LINE
5
587
100
AcDbEntity
8
0
100
AcDbLine
10
541.00055777616365
20
83.44195180506307
30
0
11
541.00080014377329
21
83.057230125425207
31
0
0
LINE
5
588
100
AcDbEntity
8
0
100
AcDbLine
10
540.9991461189652
20
85.682742681204815
30
0
11
543.17240613807007
21
85.684111795200536
31
0
0
LINE
5
589
100
AcDbEntity
8
0
100
AcDbLine
10
543.17240613807007
20
85.684111795200536
30
0
11
543.17219729194164
21
86.01562322691349
31
0
0
LINE
5
590
100
AcDbEntity
8
0
100
AcDbLine
10
543.17219729194164
20
86.01562322691349
30
0
11
542.86319376172241
21
86.015428560350685
31
0
0
SPLINE
5
591
100
AcDbEntity
8
0
100
AcDbSpline
70
0
71
2
72
6
73
3
74
0
42
0.000000001
43
0.0000000001
44
0.0000000001
40
0
40
0
40
0
40
1
40
1
40
1
10
542.86319376172241
20
86.015428560350699
30
0
10
543.22115948124576
20
86.255083593584658
30
0
10
543.22087457118437
20
86.707334938166809
30
0
0
SPLINE
5
592
100
AcDbEntity
8
0
100
AcDbSpline
70
0
71
2
72
6
73
3
74
0
42
0.000000001
43
0.0000000001
44
0.0000000001
40
0
40
0
40
0
40
1
40
1
40
1
10
543.22087457118437
20
86.707334938166809
30
0
10
543.22075080995944
20
86.903787039991244
30
0
10
543.15004713166286
20
87.068475463703066
30
0
0
SPLINE
5
593
100
AcDbEntity
8
0
100
AcDbSpline
70
0
71
2
72
6
73
3
74
0
42
0.000000001
43
0.0000000001
44
0.0000000001
40
0
40
0
40
0
40
1
40
1
40
1
10
543.15004713166286
20
87.068475463703066
30
0
10
543.07934345336639
20
87.233163887414875
30
0
10
542.96469363244614
20
87.314950311320843
30
0
0
SPLINE
5
594
100
AcDbEntity
8
0
100
AcDbSpline
70
0
71
2
72
6
73
3
74
0
42
0.000000001
43
0.0000000001
44
0.0000000001
40
0
40
0
40
0
40
1
40
1
40
1
10
542.96469363244614
20
87.314950311320843
30
0
10
542.85004500662239
20
87.396731967607138
30
0
10
542.6924523784968
20
87.429377101290243
30
0
0
SPLINE
5
595
100
AcDbEntity
8
0
100
AcDbSpline
70
0
71
2
72
6
73
3
74
0
42
0.000000001
43
0.0000000001
44
0.0000000001
40
0
40
0
40
0
40
1
40
1
40
1
10
542.6924523784968
20
87.429377101290243
30
0
10
542.59012098338189
20
87.449773720904886
30
0
10
542.33432293271687
20
87.449612572819447
30
0
0
LINE
5
596
100
AcDbEntity
8
0
100
AcDbLine
10
542.33432293271687
20
87.449612572819461
30
0
11
540.99803355364679
21
87.448770734992806
31
0
0
LINE
5
597
100
AcDbEntity
8
0
100
AcDbLine
10
540.99803355364679
20
87.448770734992806
30
0
11
540.99826560556801
21
87.080423640118283
31
0
0
LINE
5
598
100
AcDbEntity
8
0
100
AcDbLine
10
540.99826560556801
20
87.080423640118283
30
0
11
542.32022960715551
21
87.081256453219567
31
0
0
SPLINE
5
599
100
AcDbEntity
8
0
100
AcDbSpline
70
0
71
2
72
6
73
3
74
0
42
0.000000001
43
0.0000000001
44
0.0000000001
40
0
40
0
40
0
40
1
40
1
40
1
10
542.32022960715551
20
87.081256453219567
30
0
10
542.54533246394521
20
87.081398263895238
30
0
10
542.6568869596731
20
87.038491199586545
30
0
0
SPLINE
5
600
100
AcDbEntity
8
0
100
AcDbSpline
70
0
71
2
72
6
73
3
74
0
42
0.000000001
43
0.0000000001
44
0.0000000001
40
0
40
0
40
0
40
1
40
1
40
1
10
542.6568869596731
20
87.038491199586545
30
0
10
542.76844204844326
20
86.995588904024004
30
0
10
542.83501846545425
20
86.886149012698127
30
0
0
SPLINE
5
601
100
AcDbEntity
8
0
100
AcDbSpline
70
0
71
2
72
6
73
3
74
0
42
0.000000001
43
0.0000000001
44
0.0000000001
40
0
40
0
40
0
40
1
40
1
40
1
10
542.83501846545425
20
86.886149012698127
30
0
10
542.90159547851158
20
86.776709121747757
30
0
10
542.90168829867935
20
86.629371237472071
30
0
0
SPLINE
5
602
100
AcDbEntity
8
0
100
AcDbSpline
70
0
71
2
72
6
73
3
74
0
42
0.000000001
43
0.0000000001
44
0.0000000001
40
0
40
0
40
0
40
1
40
1
40
1
10
542.90168829867935
20
86.629371237472071
30
0
10
542.90183655440717
20
86.394037841483282
30
0
10
542.75255770674039
20
86.223069168994016
30
0
0
SPLINE
5
603
100
AcDbEntity
8
0
100
AcDbSpline
70
0
71
2
72
6
73
3
74
0
42
0.000000001
43
0.0000000001
44
0.0000000001
40
0
40
0
40
0
40
1
40
1
40
1
10
542.75255770674039
20
86.223069168994016
30
0
10
542.60327885907361
20
86.052100496504735
30
0
10
542.18581754665036
20
86.05183750352623
30
0
0
LINE
5
604
100
AcDbEntity
8
0
100
AcDbLine
10
542.18581754665036
20
86.05183750352623
30
0
11
540.99891406704398
21
86.051089776079351
31
0
0
LINE
5
605
100
AcDbEntity
8
0
100
AcDbLine
10
540.99891406704398
20
86.051089776079351
30
0
11
540.9991461189652
21
85.682742681204815
31
0
0
ENDSEC
0
SECTION
2
OBJECTS
0
DICTIONARY
5
C
100
AcDbDictionary
3
ACAD_GROUP
350
D
3
ACAD_MLINESTYLE
350
17
0
DICTIONARY
5
D
100
AcDbDictionary
0
DICTIONARY
5
1A
330
C
100
AcDbDictionary
0
DICTIONARY
5
17
100
AcDbDictionary
0
ENDSEC
0
EOF
