0
SECTION
2
HEADER
9
$INSUNITS
70
4
9
$ACADVER
1
AC1014
9
$HANDSEED
5
FFFF
0
ENDSEC
0
SECTION
2
TABLES
0
TABLE
2
VPORT
5
8
100
AcDbSymbolTable
0
ENDTAB
0
TABLE
2
LTYPE
5
5
100
AcDbSymbolTable
0
LTYPE
5
14
100
AcDbSymbolTableRecord
100
AcDbLinetypeTableRecord
2
BYBLOCK
70
0
0
LTYPE
5
15
100
AcDbSymbolTableRecord
100
AcDbLinetypeTableRecord
2
BYLAYER
70
0
0
ENDTAB
0
TABLE
2
LAYER
5
2
100
AcDbSymbolTable
70
2
0
LAYER
5
50
100
AcDbSymbolTableRecord
100
AcDbLayerTableRecord
2
0
70
0
6
CONTINUOUS
0
ENDTAB
0
TABLE
2
STYLE
5
3
100
AcDbSymbolTable
70
1
0
STYLE
5
11
100
AcDbSymbolTableRecord
100
AcDbTextStyleTableRecord
2
STANDARD
70
0
0
ENDTAB
0
TABLE
2
VIEW
5
6
100
AcDbSymbolTable
70
0
0
ENDTAB
0
TABLE
2
UCS
5
7
100
AcDbSymbolTable
70
0
0
ENDTAB
0
TABLE
2
APPID
5
9
100
AcDbSymbolTable
70
2
0
APPID
5
12
100
AcDbSymbolTableRecord
100
AcDbRegAppTableRecord
2
ACAD
70
0
0
ENDTAB
0
TABLE
2
DIMSTYLE
5
A
100
AcDbSymbolTable
70
1
0
ENDTAB
0
TABLE
2
BLOCK_RECORD
5
1
100
AcDbSymbolTable
70
1
0
BLOCK_RECORD
5
1F
100
AcDbSymbolTableRecord
100
AcDbBlockTableRecord
2
*MODEL_SPACE
0
BLOCK_RECORD
5
1B
100
AcDbSymbolTableRecord
100
AcDbBlockTableRecord
2
*PAPER_SPACE
0
ENDTAB
0
ENDSEC
0
SECTION
2
BLOCKS
0
BLOCK
5
20
100
AcDbEntity
100
AcDbBlockBegin
2
*MODEL_SPACE
0
ENDBLK
5
21
100
AcDbEntity
100
AcDbBlockEnd
0
BLOCK
5
1C
100
AcDbEntity
100
AcDbBlockBegin
2
*PAPER_SPACE
0
ENDBLK
5
1D
100
AcDbEntity
100
AcDbBlockEnd
0
ENDSEC
0
SECTION
2
ENTITIES
0
LWPOLYLINE
5
100
100
AcDbEntity
8
0
100
AcDbPolyline
90
4
70
1
43
0.0
10
432.74703774553217
20
18.200000002254889
10
432.74703774553217
20
38.200000002254882
10
429.54703774553218
20
38.200000002254882
10
429.54703774553218
20
18.200000002254889
0
LWPOLYLINE
5
101
100
AcDbEntity
8
0
100
AcDbPolyline
90
4
70
1
43
0.0
10
432.74703774553217
20
125.42123666539948
10
429.54703774553218
20
125.42123666539948
10
429.54703774553218
20
105.42123666539949
10
432.74703774553217
20
105.42123666539949
0
LWPOLYLINE
5
102
100
AcDbEntity
8
0
100
AcDbPolyline
90
18
70
1
43
0.0
10
447.99703774553666
20
140
10
464.64703774552538
20
140.00000000000034
10
464.64703774552538
20
125.00000000000037
10
461.44703774552863
20
125.00000000000037
10
461.44703774552863
20
18.200000000001744
10
464.64703774552561
20
18.20000000000185
10
464.64703774552612
20
3.2000000000017437
10
447.99703774553666
20
3.2000000000000028
10
447.99703774553666
20
0
10
427.99703774552961
20
0
10
427.99703774552961
20
3.2000000000000028
10
414.55685856237164
20
3.2407295749402643
10
414.95626601600753
20
135.03949623827492
10
420.95623846561
20
135.02131371822071
10
420.97139056565413
20
140.02129075955449
10
427.99703774552961
20
140
10
427.99703774552961
20
143.19999999999999
10
447.99703774553666
20
143.19999999999999
0
LWPOLYLINE
5
103
100
AcDbEntity
8
0
100
AcDbPolyline
90
4
70
1
43
0.0
10
428.93402593114092
20
40.948660147475323
10
428.93402593114092
20
104.39617593256207
10
437.60915543526806
20
104.39617593256207
10
437.60915543526806
20
40.948660147475323
0
LWPOLYLINE
5
104
100
AcDbEntity
8
0
100
AcDbPolyline
90
4
70
1
43
0.0
10
433.71912270922445
20
125.42651560007478
10
433.71912270922445
20
131.72023700502976
10
438.48193890756875
20
131.72023700502976
10
438.48193890756875
20
125.42651560007478
0
LWPOLYLINE
5
105
100
AcDbEntity
8
0
100
AcDbPolyline
90
4
70
1
43
0.0
10
433.3468397969674
20
14.672349204074084
10
433.3468397969674
20
20.966070609029046
10
438.10965599531175
20
20.966070609029046
10
438.10965599531175
20
14.672349204074084
0
LWPOLYLINE
5
106
100
AcDbEntity
8
0
100
AcDbPolyline
90
12
70
1
43
0.0
10
437.11265470475354
20
90.510754961943348
10
434.11265458554425
20
90.510754961943348
10
434.11265458554425
20
90.113757033323964
10
435.52670653552212
20
90.113757033323964
10
435.52670653552212
20
88.554411311125477
10
434.11265458554425
20
88.554411311125477
10
434.11265458554425
20
88.157412190413197
10
437.11265470475354
20
88.157412190413197
10
437.11265470475354
20
88.554411311125477
10
435.88073100537457
20
88.554411311125477
10
435.88073100537457
20
90.113757033323964
10
437.11265470475354
20
90.113757033323964
0
SPLINE
5
107
100
AcDbEntity
8
0
100
AcDbSpline
70
0
71
2
72
6
73
3
74
0
42
0.000000001
43
0.0000000001
44
0.0000000001
40
0
40
0
40
0
40
1
40
1
40
1
10
435.19928481072583
20
87.68060483453246
30
0
10
435.80296840161481
20
87.68060483453246
30
0
10
436.09355505198636
20
87.344998497938832
30
0
0
SPLINE
5
108
100
AcDbEntity
8
0
100
AcDbSpline
70
0
71
2
72
6
73
3
74
0
42
0.000000001
43
0.0000000001
44
0.0000000001
40
0
40
0
40
0
40
1
40
1
40
1
10
436.09355505198636
20
87.344998497938832
30
0
10
436.33502851814427
20
87.0646432828662
30
0
10
436.33502851814427
20
86.661504883742055
30
0
0
SPLINE
5
109
100
AcDbEntity
8
0
100
AcDbSpline
70
0
71
2
72
6
73
3
74
0
42
0.000000001
43
0.0000000001
44
0.0000000001
40
0
40
0
40
0
40
1
40
1
40
1
10
436.33502851814427
20
86.661504883742055
30
0
10
436.33502851814427
20
86.213347096419056
30
0
10
436.04137222856679
20
85.928899426436146
30
0
0
SPLINE
5
110
100
AcDbEntity
8
0
100
AcDbSpline
70
0
71
2
72
6
73
3
74
0
42
0.000000001
43
0.0000000001
44
0.0000000001
40
0
40
0
40
0
40
1
40
1
40
1
10
436.04137222856679
20
85.928899426436146
30
0
10
435.74771608800091
20
85.644451756453236
30
0
10
435.22998060673871
20
85.644451756453236
30
0
0
SPLINE
5
111
100
AcDbEntity
8
0
100
AcDbSpline
70
0
71
2
72
6
73
3
74
0
42
0.000000001
43
0.0000000001
44
0.0000000001
40
0
40
0
40
0
40
1
40
1
40
1
10
435.22998060673871
20
85.644451756453236
30
0
10
434.810471791927
20
85.644451756453236
30
0
10
434.57002158850827
20
85.770305771803578
30
0
0
SPLINE
5
112
100
AcDbEntity
8
0
100
AcDbSpline
70
0
71
2
72
6
73
3
74
0
42
0.000000001
43
0.0000000001
44
0.0000000001
40
0
40
0
40
0
40
1
40
1
40
1
10
434.57002158850827
20
85.770305771803578
30
0
10
434.32957138508954
20
85.896157402968129
30
0
10
434.19655646771588
20
86.136607308363637
30
0
0
SPLINE
5
113
100
AcDbEntity
8
0
100
AcDbSpline
70
0
71
2
72
6
73
3
74
0
42
0.000000001
43
0.0000000001
44
0.0000000001
40
0
40
0
40
0
40
1
40
1
40
1
10
434.19655646771588
20
86.136607308363637
30
0
10
434.063541252319
20
86.37705840585204
30
0
10
434.063541252319
20
86.661504883742055
30
0
0
SPLINE
5
114
100
AcDbEntity
8
0
100
AcDbSpline
70
0
71
2
72
6
73
3
74
0
42
0.000000001
43
0.0000000001
44
0.0000000001
40
0
40
0
40
0
40
1
40
1
40
1
10
434.063541252319
20
86.661504883742055
30
0
10
434.063541252319
20
87.1178499650714
30
0
10
434.35617442816891
20
87.399226803755482
30
0
0
SPLINE
5
115
100
AcDbEntity
8
0
100
AcDbSpline
70
0
71
2
72
6
73
3
74
0
42
0.000000001
43
0.0000000001
44
0.0000000001
40
0
40
0
40
0
40
1
40
1
40
1
10
434.35617442816891
20
87.399226803755482
30
0
10
434.6488073059956
20
87.68060483453246
30
0
10
435.19928481072583
20
87.68060483453246
30
0
0
SPLINE
5
116
100
AcDbEntity
8
0
100
AcDbSpline
70
0
71
2
72
6
73
3
74
0
42
0.000000001
43
0.0000000001
44
0.0000000001
40
0
40
0
40
0
40
1
40
1
40
1
10
435.19928481072583
20
87.302023549055775
30
0
10
434.78182252139248
20
87.302023549055775
30
0
10
434.57411434144177
20
87.119895596480092
30
0
0
SPLINE
5
117
100
AcDbEntity
8
0
100
AcDbSpline
70
0
71
2
72
6
73
3
74
0
42
0.000000001
43
0.0000000001
44
0.0000000001
40
0
40
0
40
0
40
1
40
1
40
1
10
434.57411434144177
20
87.119895596480092
30
0
10
434.36640616149106
20
86.937767643904408
30
0
10
434.36640616149106
20
86.661504883742055
30
0
0
SPLINE
5
118
100
AcDbEntity
8
0
100
AcDbSpline
70
0
71
2
72
6
73
3
74
0
42
0.000000001
43
0.0000000001
44
0.0000000001
40
0
40
0
40
0
40
1
40
1
40
1
10
434.36640616149106
20
86.661504883742055
30
0
10
434.36640616149106
20
86.387290139174183
30
0
10
434.57513745516934
20
86.2051621865985
30
0
0
SPLINE
5
119
100
AcDbEntity
8
0
100
AcDbSpline
70
0
71
2
72
6
73
3
74
0
42
0.000000001
43
0.0000000001
44
0.0000000001
40
0
40
0
40
0
40
1
40
1
40
1
10
434.57513745516934
20
86.2051621865985
30
0
10
434.78386874884762
20
86.023034234022816
30
0
10
435.21156306952633
20
86.023034234022816
30
0
0
SPLINE
5
120
100
AcDbEntity
8
0
100
AcDbSpline
70
0
71
2
72
6
73
3
74
0
42
0.000000001
43
0.0000000001
44
0.0000000001
40
0
40
0
40
0
40
1
40
1
40
1
10
435.21156306952633
20
86.023034234022816
30
0
10
435.61470087260403
20
86.023034234022816
30
0
10
435.82240905255475
20
86.206185002302846
30
0
0
SPLINE
5
121
100
AcDbEntity
8
0
100
AcDbSpline
70
0
71
2
72
6
73
3
74
0
42
0.000000001
43
0.0000000001
44
0.0000000001
40
0
40
0
40
0
40
1
40
1
40
1
10
435.82240905255475
20
86.206185002302846
30
0
10
436.03011708349385
20
86.389335770582875
30
0
10
436.03011708349385
20
86.661504883742055
30
0
0
SPLINE
5
122
100
AcDbEntity
8
0
100
AcDbSpline
70
0
71
2
72
6
73
3
74
0
42
0.000000001
43
0.0000000001
44
0.0000000001
40
0
40
0
40
0
40
1
40
1
40
1
10
436.03011708349385
20
86.661504883742055
30
0
10
436.03011708349385
20
86.937767643904408
30
0
10
435.82343216628232
20
87.119895596480092
30
0
0
SPLINE
5
123
100
AcDbEntity
8
0
100
AcDbSpline
70
0
71
2
72
6
73
3
74
0
42
0.000000001
43
0.0000000001
44
0.0000000001
40
0
40
0
40
0
40
1
40
1
40
1
10
435.82343216628232
20
87.119895596480092
30
0
10
435.6167473980824
20
87.302023549055775
30
0
10
435.19928481072583
20
87.302023549055775
30
0
0
LINE
5
124
100
AcDbEntity
8
0
100
AcDbLine
10
434.11265458554425
20
83.788379807448109
30
0
11
434.43189050645032
21
83.788379807448109
31
0
0
SPLINE
5
125
100
AcDbEntity
8
0
100
AcDbSpline
70
0
71
2
72
6
73
3
74
0
42
0.000000001
43
0.0000000001
44
0.0000000001
40
0
40
0
40
0
40
1
40
1
40
1
10
434.43189050645032
20
83.788379807448109
30
0
10
434.063541252319
20
84.042133469557484
30
0
10
434.063541252319
20
84.478012700056752
30
0
0
SPLINE
5
126
100
AcDbEntity
8
0
100
AcDbSpline
70
0
71
2
72
6
73
3
74
0
42
0.000000001
43
0.0000000001
44
0.0000000001
40
0
40
0
40
0
40
1
40
1
40
1
10
434.063541252319
20
84.478012700056752
30
0
10
434.063541252319
20
84.670373578047474
30
0
10
434.13721110314526
20
84.837153334593495
30
0
0
SPLINE
5
127
100
AcDbEntity
8
0
100
AcDbSpline
70
0
71
2
72
6
73
3
74
0
42
0.000000001
43
0.0000000001
44
0.0000000001
40
0
40
0
40
0
40
1
40
1
40
1
10
434.13721110314526
20
84.837153334593495
30
0
10
434.21088095397153
20
85.003933091139515
30
0
10
434.3224089929501
20
85.084766526198109
30
0
0
SPLINE
5
128
100
AcDbEntity
8
0
100
AcDbSpline
70
0
71
2
72
6
73
3
74
0
42
0.000000001
43
0.0000000001
44
0.0000000001
40
0
40
0
40
0
40
1
40
1
40
1
10
434.3224089929501
20
85.084766526198109
30
0
10
434.43393703192868
20
85.165597577070912
30
0
10
434.59560151786008
20
85.19833960053893
30
0
0
SPLINE
5
129
100
AcDbEntity
8
0
100
AcDbSpline
70
0
71
2
72
6
73
3
74
0
42
0.000000001
43
0.0000000001
44
0.0000000001
40
0
40
0
40
0
40
1
40
1
40
1
10
434.59560151786008
20
85.19833960053893
30
0
10
434.70405991763272
20
85.220851082777699
30
0
10
434.93939395636716
20
85.220851082777699
30
0
0
LINE
5
130
100
AcDbEntity
8
0
100
AcDbLine
10
434.93939395636721
20
85.220851082777699
30
0
11
436.28591518491902
21
85.220851082777699
31
0
0
LINE
5
131
100
AcDbEntity
8
0
100
AcDbLine
10
436.28591518491902
20
85.220851082777699
30
0
11
436.28591518491902
21
84.852501530623158
31
0
0
LINE
5
132
100
AcDbEntity
8
0
100
AcDbLine
10
436.28591518491902
20
84.852501530623158
30
0
11
435.08059437960782
21
84.852501530623158
31
0
0
SPLINE
5
133
100
AcDbEntity
8
0
100
AcDbSpline
70
0
71
2
72
6
73
3
74
0
42
0.000000001
43
0.0000000001
44
0.0000000001
40
0
40
0
40
0
40
1
40
1
40
1
10
435.08059437960782
20
84.852501530623158
30
0
10
434.79205425471463
20
84.852501530623158
30
0
10
434.69178136080899
20
84.829991240477284
30
0
0
SPLINE
5
134
100
AcDbEntity
8
0
100
AcDbSpline
70
0
71
2
72
6
73
3
74
0
42
0.000000001
43
0.0000000001
44
0.0000000001
40
0
40
0
40
0
40
1
40
1
40
1
10
434.69178136080899
20
84.829991240477284
30
0
10
434.54648818463482
20
84.79520239350768
30
0
10
434.46360971421399
20
84.682652134871205
30
0
0
SPLINE
5
135
100
AcDbEntity
8
0
100
AcDbSpline
70
0
71
2
72
6
73
3
74
0
42
0.000000001
43
0.0000000001
44
0.0000000001
40
0
40
0
40
0
40
1
40
1
40
1
10
434.46360971421399
20
84.682652134871205
30
0
10
434.38073094576993
20
84.570099492048939
30
0
10
434.38073094576993
20
84.40434374330016
30
0
0
SPLINE
5
136
100
AcDbEntity
8
0
100
AcDbSpline
70
0
71
2
72
6
73
3
74
0
42
0.000000001
43
0.0000000001
44
0.0000000001
40
0
40
0
40
0
40
1
40
1
40
1
10
434.38073094576993
20
84.40434374330016
30
0
10
434.38073094576993
20
84.23858561036559
30
0
10
434.46565594166913
20
84.093293328261097
30
0
0
SPLINE
5
137
100
AcDbEntity
8
0
100
AcDbSpline
70
0
71
2
72
6
73
3
74
0
42
0.000000001
43
0.0000000001
44
0.0000000001
40
0
40
0
40
0
40
1
40
1
40
1
10
434.46565594166913
20
84.093293328261097
30
0
10
434.55058093756833
20
83.947998661970814
30
0
10
434.69689752549328
20
83.887631077742299
30
0
0
SPLINE
5
138
100
AcDbEntity
8
0
100
AcDbSpline
70
0
71
2
72
6
73
3
74
0
42
0.000000001
43
0.0000000001
44
0.0000000001
40
0
40
0
40
0
40
1
40
1
40
1
10
434.69689752549328
20
83.887631077742299
30
0
10
434.84321381539502
20
83.827261109327992
30
0
10
435.12152220696606
20
83.827261109327992
30
0
0
LINE
5
139
100
AcDbEntity
8
0
100
AcDbLine
10
435.12152220696606
20
83.827261109327992
30
0
11
436.28591518491902
21
83.827261109327992
31
0
0
LINE
5
140
100
AcDbEntity
8
0
100
AcDbLine
10
436.28591518491902
20
83.827261109327992
30
0
11
436.28591518491902
21
83.458913941359242
31
0
0
LINE
5
141
100
AcDbEntity
8
0
100
AcDbLine
10
436.28591518491902
20
83.458913941359242
30
0
11
434.11265458554425
21
83.458913941359242
31
0
0
LINE
5
142
100
AcDbEntity
8
0
100
AcDbLine
10
434.11265458554425
20
83.458913941359242
30
0
11
434.11265458554425
21
83.788379807448109
31
0
0
LINE
5
143
100
AcDbEntity
8
0
100
AcDbLine
10
434.76135845870175
20
83.029171605086049
30
0
11
434.818657297794
21
82.664915699934681
31
0
0
SPLINE
5
144
100
AcDbEntity
8
0
100
AcDbSpline
70
0
71
2
72
6
73
3
74
0
42
0.000000001
43
0.0000000001
44
0.0000000001
40
0
40
0
40
0
40
1
40
1
40
1
10
434.818657297794
20
82.664915699934681
30
0
10
434.59969427079358
20
82.634219307875355
30
0
10
434.48305036515393
20
82.494043488478383
30
0
0
SPLINE
5
145
100
AcDbEntity
8
0
100
AcDbSpline
70
0
71
2
72
6
73
3
74
0
42
0.000000001
43
0.0000000001
44
0.0000000001
40
0
40
0
40
0
40
1
40
1
40
1
10
434.48305036515393
20
82.494043488478383
30
0
10
434.36640616149106
20
82.353865284895619
30
0
10
434.36640616149106
20
82.102159638380726
30
0
0
SPLINE
5
146
100
AcDbEntity
8
0
100
AcDbSpline
70
0
71
2
72
6
73
3
74
0
42
0.000000001
43
0.0000000001
44
0.0000000001
40
0
40
0
40
0
40
1
40
1
40
1
10
434.36640616149106
20
82.102159638380726
30
0
10
434.36640616149106
20
81.848408360457142
30
0
10
434.46974869460263
20
81.725625176405629
30
0
0
SPLINE
5
147
100
AcDbEntity
8
0
100
AcDbSpline
70
0
71
2
72
6
73
3
74
0
42
0.000000001
43
0.0000000001
44
0.0000000001
40
0
40
0
40
0
40
1
40
1
40
1
10
434.46974869460263
20
81.725625176405629
30
0
10
434.5730912277142
20
81.602841992354115
30
0
10
434.71224542349972
20
81.602841992354115
30
0
0
SPLINE
5
148
100
AcDbEntity
8
0
100
AcDbSpline
70
0
71
2
72
6
73
3
74
0
42
0.000000001
43
0.0000000001
44
0.0000000001
40
0
40
0
40
0
40
1
40
1
40
1
10
434.71224542349972
20
81.602841992354115
30
0
10
434.83707483500638
20
81.602841992354115
30
0
10
434.90869816035428
20
81.711300988173207
30
0
0
SPLINE
5
149
100
AcDbEntity
8
0
100
AcDbSpline
70
0
71
2
72
6
73
3
74
0
42
0.000000001
43
0.0000000001
44
0.0000000001
40
0
40
0
40
0
40
1
40
1
40
1
10
434.90869816035428
20
81.711300988173207
30
0
10
434.95781149357953
20
81.787017960524281
30
0
10
435.03352757186093
20
82.087835450148305
30
0
0
SPLINE
5
150
100
AcDbEntity
8
0
100
AcDbSpline
70
0
71
2
72
6
73
3
74
0
42
0.000000001
43
0.0000000001
44
0.0000000001
40
0
40
0
40
0
40
1
40
1
40
1
10
435.03352757186093
20
82.087835450148305
30
0
10
435.13584699124493
20
82.493018288588246
30
0
10
435.21053995579877
20
82.649568695997914
30
0
0
SPLINE
5
151
100
AcDbEntity
8
0
100
AcDbSpline
70
0
71
2
72
6
73
3
74
0
42
0.000000001
43
0.0000000001
44
0.0000000001
40
0
40
0
40
0
40
1
40
1
40
1
10
435.21053995579877
20
82.649568695997914
30
0
10
435.2852329203526
20
82.806116719221791
30
0
10
435.41722472399869
20
82.886947770094594
30
0
0
SPLINE
5
152
100
AcDbEntity
8
0
100
AcDbSpline
70
0
71
2
72
6
73
3
74
0
42
0.000000001
43
0.0000000001
44
0.0000000001
40
0
40
0
40
0
40
1
40
1
40
1
10
435.41722472399869
20
82.886947770094594
30
0
10
435.549216825668
20
82.967781205153187
30
0
10
435.70883478612103
20
82.967781205153187
30
0
0
SPLINE
5
153
100
AcDbEntity
8
0
100
AcDbSpline
70
0
71
2
72
6
73
3
74
0
42
0.000000001
43
0.0000000001
44
0.0000000001
40
0
40
0
40
0
40
1
40
1
40
1
10
435.70883478612103
20
82.967781205153187
30
0
10
435.85412796229519
20
82.967781205153187
30
0
10
435.97793440908589
20
82.901271958327015
30
0
0
SPLINE
5
154
100
AcDbEntity
8
0
100
AcDbSpline
70
0
71
2
72
6
73
3
74
0
42
0.000000001
43
0.0000000001
44
0.0000000001
40
0
40
0
40
0
40
1
40
1
40
1
10
435.97793440908589
20
82.901271958327015
30
0
10
436.10174055785336
20
82.834765095686635
30
0
10
436.18359606355824
20
82.720169205641469
30
0
0
SPLINE
5
155
100
AcDbEntity
8
0
100
AcDbSpline
70
0
71
2
72
6
73
3
74
0
42
0.000000001
43
0.0000000001
44
0.0000000001
40
0
40
0
40
0
40
1
40
1
40
1
10
436.18359606355824
20
82.720169205641469
30
0
10
436.24703388303914
20
82.634219307875355
30
0
10
436.2910312005917
20
82.485856194472035
30
0
0
SPLINE
5
156
100
AcDbEntity
8
0
100
AcDbSpline
70
0
71
2
72
6
73
3
74
0
42
0.000000001
43
0.0000000001
44
0.0000000001
40
0
40
0
40
0
40
1
40
1
40
1
10
436.2910312005917
20
82.485856194472035
30
0
10
436.33502851814427
20
82.337493081068715
30
0
10
436.33502851814427
20
82.167643685316762
30
0
0
SPLINE
5
157
100
AcDbEntity
8
0
100
AcDbSpline
70
0
71
2
72
6
73
3
74
0
42
0.000000001
43
0.0000000001
44
0.0000000001
40
0
40
0
40
0
40
1
40
1
40
1
10
436.33502851814427
20
82.167643685316762
30
0
10
436.33502851814427
20
81.911846775984486
30
0
10
436.26135866731801
20
81.718463082289418
30
0
0
SPLINE
5
158
100
AcDbEntity
8
0
100
AcDbSpline
70
0
71
2
72
6
73
3
74
0
42
0.000000001
43
0.0000000001
44
0.0000000001
40
0
40
0
40
0
40
1
40
1
40
1
10
436.26135866731801
20
81.718463082289418
30
0
10
436.18768881649174
20
81.525079388594349
30
0
10
436.06183614224591
20
81.432992596602162
30
0
0
SPLINE
5
159
100
AcDbEntity
8
0
100
AcDbSpline
70
0
71
2
72
6
73
3
74
0
42
0.000000001
43
0.0000000001
44
0.0000000001
40
0
40
0
40
0
40
1
40
1
40
1
10
436.06183614224591
20
81.432992596602162
30
0
10
435.93598346800007
20
81.340903420424183
30
0
10
435.72520579785504
20
81.306115765547474
30
0
0
LINE
5
160
100
AcDbEntity
8
0
100
AcDbLine
10
435.72520579785498
20
81.306115765547489
30
0
11
435.67609246462979
21
81.666280407881459
31
0
0
SPLINE
5
161
100
AcDbEntity
8
0
100
AcDbSpline
70
0
71
2
72
6
73
3
74
0
42
0.000000001
43
0.0000000001
44
0.0000000001
40
0
40
0
40
0
40
1
40
1
40
1
10
435.67609246462979
20
81.666280407881459
30
0
10
435.84389622897305
20
81.690835137343129
30
0
10
435.93802984446683
20
81.808504242872914
30
0
0
SPLINE
5
162
100
AcDbEntity
8
0
100
AcDbSpline
70
0
71
2
72
6
73
3
74
0
42
0.000000001
43
0.0000000001
44
0.0000000001
40
0
40
0
40
0
40
1
40
1
40
1
10
435.93802984446683
20
81.808504242872914
30
0
10
436.03216360897221
20
81.926170964216908
30
0
10
436.03216360897221
20
82.141040940260609
30
0
0
SPLINE
5
163
100
AcDbEntity
8
0
100
AcDbSpline
70
0
71
2
72
6
73
3
74
0
42
0.000000001
43
0.0000000001
44
0.0000000001
40
0
40
0
40
0
40
1
40
1
40
1
10
436.03216360897221
20
82.141040940260609
30
0
10
436.03216360897221
20
82.394792218184193
30
0
10
435.94826172680058
20
82.503251214003285
30
0
0
SPLINE
5
164
100
AcDbEntity
8
0
100
AcDbSpline
70
0
71
2
72
6
73
3
74
0
42
0.000000001
43
0.0000000001
44
0.0000000001
40
0
40
0
40
0
40
1
40
1
40
1
10
435.94826172680058
20
82.503251214003285
30
0
10
435.86435999364056
20
82.611710209822377
30
0
10
435.75180884093442
20
82.611710209822377
30
0
0
SPLINE
5
165
100
AcDbEntity
8
0
100
AcDbSpline
70
0
71
2
72
6
73
3
74
0
42
0.000000001
43
0.0000000001
44
0.0000000001
40
0
40
0
40
0
40
1
40
1
40
1
10
435.75180884093442
20
82.611710209822377
30
0
10
435.68018551558652
20
82.611710209822377
30
0
10
435.62288637847104
20
82.566689629530629
30
0
0
SPLINE
5
166
100
AcDbEntity
8
0
100
AcDbSpline
70
0
71
2
72
6
73
3
74
0
42
0.000000001
43
0.0000000001
44
0.0000000001
40
0
40
0
40
0
40
1
40
1
40
1
10
435.62288637847104
20
82.566689629530629
30
0
10
435.56354160994687
20
82.521669049238881
30
0
10
435.52466030806698
20
82.425488610243519
30
0
0
SPLINE
5
167
100
AcDbEntity
8
0
100
AcDbSpline
70
0
71
2
72
6
73
3
74
0
42
0.000000001
43
0.0000000001
44
0.0000000001
40
0
40
0
40
0
40
1
40
1
40
1
10
435.52466030806698
20
82.425488610243519
30
0
10
435.50419624537625
20
82.370237488722523
30
0
10
435.43052639454999
20
82.100114006972035
30
0
0
SPLINE
5
168
100
AcDbEntity
8
0
100
AcDbSpline
70
0
71
2
72
6
73
3
74
0
42
0.000000001
43
0.0000000001
44
0.0000000001
40
0
40
0
40
0
40
1
40
1
40
1
10
435.43052639454999
20
82.100114006972035
30
0
10
435.32616074771084
20
81.709255356764515
30
0
10
435.25965328902402
20
81.554750580763539
30
0
0
SPLINE
5
169
100
AcDbEntity
8
0
100
AcDbSpline
70
0
71
2
72
6
73
3
74
0
42
0.000000001
43
0.0000000001
44
0.0000000001
40
0
40
0
40
0
40
1
40
1
40
1
10
435.25965328902402
20
81.554750580763539
30
0
10
435.19314583033719
20
81.400250573134144
30
0
10
435.06626989335217
20
81.31225504395934
30
0
0
SPLINE
5
170
100
AcDbEntity
8
0
100
AcDbSpline
70
0
71
2
72
6
73
3
74
0
42
0.000000001
43
0.0000000001
44
0.0000000001
40
0
40
0
40
0
40
1
40
1
40
1
10
435.06626989335217
20
81.31225504395934
30
0
10
434.93939395636716
20
81.224259514784535
30
0
10
434.75112672537961
20
81.224259514784535
30
0
0
SPLINE
5
171
100
AcDbEntity
8
0
100
AcDbSpline
70
0
71
2
72
6
73
3
74
0
42
0.000000001
43
0.0000000001
44
0.0000000001
40
0
40
0
40
0
40
1
40
1
40
1
10
434.75112672537961
20
81.224259514784535
30
0
10
434.56695194930234
20
81.224259514784535
30
0
10
434.40426434964337
20
81.331695694899281
30
0
0
SPLINE
5
172
100
AcDbEntity
8
0
100
AcDbSpline
70
0
71
2
72
6
73
3
74
0
42
0.000000001
43
0.0000000001
44
0.0000000001
40
0
40
0
40
0
40
1
40
1
40
1
10
434.40426434964337
20
81.331695694899281
30
0
10
434.2415767499844
20
81.439131875014027
30
0
10
434.1525590011517
20
81.641723294233998
30
0
0
SPLINE
5
173
100
AcDbEntity
8
0
100
AcDbSpline
70
0
71
2
72
6
73
3
74
0
42
0.000000001
43
0.0000000001
44
0.0000000001
40
0
40
0
40
0
40
1
40
1
40
1
10
434.1525590011517
20
81.641723294233998
30
0
10
434.063541252319
20
81.844314713453969
30
0
10
434.063541252319
20
82.100114006972035
30
0
0
SPLINE
5
174
100
AcDbEntity
8
0
100
AcDbSpline
70
0
71
2
72
6
73
3
74
0
42
0.000000001
43
0.0000000001
44
0.0000000001
40
0
40
0
40
0
40
1
40
1
40
1
10
434.063541252319
20
82.100114006972035
30
0
10
434.063541252319
20
82.523714680647572
30
0
10
434.23953052252926
20
82.745746750807484
30
0
0
SPLINE
5
175
100
AcDbEntity
8
0
100
AcDbSpline
70
0
71
2
72
6
73
3
74
0
42
0.000000001
43
0.0000000001
44
0.0000000001
40
0
40
0
40
0
40
1
40
1
40
1
10
434.23953052252926
20
82.745746750807484
30
0
10
434.41551949471631
20
82.967781205153187
30
0
10
434.76135845870175
20
83.029171605086049
30
0
0
LWPOLYLINE
5
176
100
AcDbEntity
8
0
100
AcDbPolyline
90
4
70
1
43
0.0
10
437.11265470475354
20
80.784289021467885
10
436.68905313700833
20
80.784289021467885
10
436.68905313700833
20
80.415939469313344
10
437.11265470475354
20
80.415939469313344
0
LWPOLYLINE
5
177
100
AcDbEntity
8
0
100
AcDbPolyline
90
4
70
1
43
0.0
10
436.28591518491902
20
80.784289021467885
10
434.11265458554425
20
80.784289021467885
10
434.11265458554425
20
80.415939469313344
10
436.28591518491902
20
80.415939469313344
0
LINE
5
178
100
AcDbEntity
8
0
100
AcDbLine
10
434.11265458554425
20
79.855231423353871
30
0
11
436.28591518491902
21
79.855231423353871
31
0
0
LINE
5
179
100
AcDbEntity
8
0
100
AcDbLine
10
436.28591518491902
20
79.855231423353871
30
0
11
436.28591518491902
21
79.52371515748473
31
0
0
LINE
5
180
100
AcDbEntity
8
0
100
AcDbLine
10
436.28591518491902
20
79.52371515748473
30
0
11
435.97691114634671
21
79.52371515748473
31
0
0
SPLINE
5
181
100
AcDbEntity
8
0
100
AcDbSpline
70
0
71
2
72
6
73
3
74
0
42
0.000000001
43
0.0000000001
44
0.0000000001
40
0
40
0
40
0
40
1
40
1
40
1
10
435.97691114634671
20
79.52371515748473
30
0
10
436.33502836913266
20
79.284290451979359
30
0
10
436.33502836913266
20
78.832039017653187
30
0
0
SPLINE
5
182
100
AcDbEntity
8
0
100
AcDbSpline
70
0
71
2
72
6
73
3
74
0
42
0.000000001
43
0.0000000001
44
0.0000000001
40
0
40
0
40
0
40
1
40
1
40
1
10
436.33502836913266
20
78.832039017653187
30
0
10
436.33502836913266
20
78.635584492659291
30
0
10
436.26442815751233
20
78.470849175429066
30
0
0
SPLINE
5
183
100
AcDbEntity
8
0
100
AcDbSpline
70
0
71
2
72
6
73
3
74
0
42
0.000000001
43
0.0000000001
44
0.0000000001
40
0
40
0
40
0
40
1
40
1
40
1
10
436.26442815751233
20
78.470849175429066
30
0
10
436.193827945892
20
78.306116242384633
30
0
10
436.07923026770749
20
78.224262375807484
30
0
0
SPLINE
5
184
100
AcDbEntity
8
0
100
AcDbSpline
70
0
71
2
72
6
73
3
74
0
42
0.000000001
43
0.0000000001
44
0.0000000001
40
0
40
0
40
0
40
1
40
1
40
1
10
436.07923026770749
20
78.224262375807484
30
0
10
435.96463273853459
20
78.142406125044545
30
0
10
435.80706115454831
20
78.109664101576527
30
0
0
SPLINE
5
185
100
AcDbEntity
8
0
100
AcDbSpline
70
0
71
2
72
6
73
3
74
0
42
0.000000001
43
0.0000000001
44
0.0000000001
40
0
40
0
40
0
40
1
40
1
40
1
10
435.80706115454831
20
78.109664101576527
30
0
10
435.70474203318753
20
78.08920063493224
30
0
10
435.44894393176236
20
78.08920063493224
30
0
0
LINE
5
186
100
AcDbEntity
8
0
100
AcDbLine
10
435.44894393176236
20
78.08920063493224
30
0
11
434.11265458554425
21
78.08920063493224
31
0
0
LINE
5
187
100
AcDbEntity
8
0
100
AcDbLine
10
434.11265458554425
20
78.08920063493224
30
0
11
434.11265458554425
21
78.457550187086781
31
0
0
LINE
5
188
100
AcDbEntity
8
0
100
AcDbLine
10
434.11265458554425
20
78.457550187086781
30
0
11
435.43461914748349
21
78.457550187086781
31
0
0
SPLINE
5
189
100
AcDbEntity
8
0
100
AcDbSpline
70
0
71
2
72
6
73
3
74
0
42
0.000000001
43
0.0000000001
44
0.0000000001
40
0
40
0
40
0
40
1
40
1
40
1
10
435.43461914748349
20
78.457550187086781
30
0
10
435.65972145289578
20
78.457550187086781
30
0
10
435.77124949187436
20
78.500522751784047
30
0
0
SPLINE
5
190
100
AcDbEntity
8
0
100
AcDbSpline
70
0
71
2
72
6
73
3
74
0
42
0.000000001
43
0.0000000001
44
0.0000000001
40
0
40
0
40
0
40
1
40
1
40
1
10
435.77124949187436
20
78.500522751784047
30
0
10
435.88277753085293
20
78.543497700667103
30
0
10
435.94928484052815
20
78.652979512190541
30
0
0
SPLINE
5
191
100
AcDbEntity
8
0
100
AcDbSpline
70
0
71
2
72
6
73
3
74
0
42
0.000000001
43
0.0000000001
44
0.0000000001
40
0
40
0
40
0
40
1
40
1
40
1
10
435.94928484052815
20
78.652979512190541
30
0
10
436.01579244822659
20
78.762461323713978
30
0
10
436.01579244822659
20
78.909801621412953
30
0
0
SPLINE
5
192
100
AcDbEntity
8
0
100
AcDbSpline
70
0
71
2
72
6
73
3
74
0
42
0.000000001
43
0.0000000001
44
0.0000000001
40
0
40
0
40
0
40
1
40
1
40
1
10
436.01579244822659
20
78.909801621412953
30
0
10
436.01579244822659
20
79.145135064100941
30
0
10
435.86640651911893
20
79.31600727555724
30
0
0
SPLINE
5
193
100
AcDbEntity
8
0
100
AcDbSpline
70
0
71
2
72
6
73
3
74
0
42
0.000000001
43
0.0000000001
44
0.0000000001
40
0
40
0
40
0
40
1
40
1
40
1
10
435.86640651911893
20
79.31600727555724
30
0
10
435.71702029198804
20
79.486879487013539
30
0
10
435.29955770463147
20
79.486879487013539
30
0
0
LINE
5
194
100
AcDbEntity
8
0
100
AcDbLine
10
435.29955770463147
20
79.486879487013539
30
0
11
434.11265458554425
21
79.486879487013539
31
0
0
LINE
5
195
100
AcDbEntity
8
0
100
AcDbLine
10
434.11265458554425
20
79.486879487013539
30
0
11
434.11265458554425
21
79.855231423353871
31
0
0
LINE
5
196
100
AcDbEntity
8
0
100
AcDbLine
10
433.93257256240048
20
77.59192862031432
30
0
11
433.87936677426495
21
77.233809609389027
31
0
0
SPLINE
5
197
100
AcDbEntity
8
0
100
AcDbSpline
70
0
71
2
72
6
73
3
74
0
42
0.000000001
43
0.0000000001
44
0.0000000001
40
0
40
0
40
0
40
1
40
1
40
1
10
433.87936677426495
20
77.233809609389027
30
0
10
433.71360953540005
20
77.211300511336049
30
0
10
433.63789315909543
20
77.108980793928822
30
0
0
SPLINE
5
198
100
AcDbEntity
8
0
100
AcDbSpline
70
0
71
2
72
6
73
3
74
0
42
0.000000001
43
0.0000000001
44
0.0000000001
40
0
40
0
40
0
40
1
40
1
40
1
10
433.63789315909543
20
77.108980793928822
30
0
10
433.53557403773465
20
76.971873421644887
30
0
10
433.53557403773465
20
76.734491963362416
30
0
0
SPLINE
5
199
100
AcDbEntity
8
0
100
AcDbSpline
70
0
71
2
72
6
73
3
74
0
42
0.000000001
43
0.0000000001
44
0.0000000001
40
0
40
0
40
0
40
1
40
1
40
1
10
433.53557403773465
20
76.734491963362416
30
0
10
433.53557403773465
20
76.47869505403014
30
0
10
433.63789315909543
20
76.339539666151722
30
0
0
SPLINE
5
200
100
AcDbEntity
8
0
100
AcDbSpline
70
0
71
2
72
6
73
3
74
0
42
0.000000001
43
0.0000000001
44
0.0000000001
40
0
40
0
40
0
40
1
40
1
40
1
10
433.63789315909543
20
76.339539666151722
30
0
10
433.74021257847943
20
76.200384278273305
30
0
10
433.92438705653348
20
76.151272435164174
30
0
0
SPLINE
5
201
100
AcDbEntity
8
0
100
AcDbSpline
70
0
71
2
72
6
73
3
74
0
42
0.000000001
43
0.0000000001
44
0.0000000001
40
0
40
0
40
0
40
1
40
1
40
1
10
433.92438705653348
20
76.151272435164174
30
0
10
434.03693850726285
20
76.122621674513539
30
0
10
434.39710195750393
20
76.124669690108021
30
0
0
SPLINE
5
202
100
AcDbEntity
8
0
100
AcDbSpline
70
0
71
2
72
6
73
3
74
0
42
0.000000001
43
0.0000000001
44
0.0000000001
40
0
40
0
40
0
40
1
40
1
40
1
10
434.39710195750393
20
76.124669690108021
30
0
10
434.11265458554425
20
76.366142411207875
30
0
10
434.11265458554425
20
76.726307053541859
30
0
0
SPLINE
5
203
100
AcDbEntity
8
0
100
AcDbSpline
70
0
71
2
72
6
73
3
74
0
42
0.000000001
43
0.0000000001
44
0.0000000001
40
0
40
0
40
0
40
1
40
1
40
1
10
434.11265458554425
20
76.726307053541859
30
0
10
434.11265458554425
20
77.174464840864857
30
0
10
434.43598325938382
20
77.420031208967885
30
0
0
SPLINE
5
204
100
AcDbEntity
8
0
100
AcDbSpline
70
0
71
2
72
6
73
3
74
0
42
0.000000001
43
0.0000000001
44
0.0000000001
40
0
40
0
40
0
40
1
40
1
40
1
10
434.43598325938382
20
77.420031208967885
30
0
10
434.75931223124661
20
77.665597577070912
30
0
10
435.21156306952633
20
77.665597577070912
30
0
0
SPLINE
5
205
100
AcDbEntity
8
0
100
AcDbSpline
70
0
71
2
72
6
73
3
74
0
42
0.000000001
43
0.0000000001
44
0.0000000001
40
0
40
0
40
0
40
1
40
1
40
1
10
435.21156306952633
20
77.665597577070912
30
0
10
435.5226134845654
20
77.665597577070912
30
0
10
435.78557427615323
20
77.553047318434437
30
0
0
SPLINE
5
206
100
AcDbEntity
8
0
100
AcDbSpline
70
0
71
2
72
6
73
3
74
0
42
0.000000001
43
0.0000000001
44
0.0000000001
40
0
40
0
40
0
40
1
40
1
40
1
10
435.78557427615323
20
77.553047318434437
30
0
10
436.04853462070622
20
77.440494675612172
30
0
10
436.19178156942525
20
77.226647515272816
30
0
0
SPLINE
5
207
100
AcDbEntity
8
0
100
AcDbSpline
70
0
71
2
72
6
73
3
74
0
42
0.000000001
43
0.0000000001
44
0.0000000001
40
0
40
0
40
0
40
1
40
1
40
1
10
436.19178156942525
20
77.226647515272816
30
0
10
436.33502851814427
20
77.012800354933461
30
0
10
436.33502851814427
20
76.724261422133168
30
0
0
SPLINE
5
208
100
AcDbEntity
8
0
100
AcDbSpline
70
0
71
2
72
6
73
3
74
0
42
0.000000001
43
0.0000000001
44
0.0000000001
40
0
40
0
40
0
40
1
40
1
40
1
10
436.33502851814427
20
76.724261422133168
30
0
10
436.33502851814427
20
76.339539666151722
30
0
10
436.02397780508198
20
76.089882035231312
30
0
0
LINE
5
209
100
AcDbEntity
8
0
100
AcDbLine
10
436.02397780508198
20
76.089882035231312
30
0
11
436.28591518491902
21
76.089882035231312
31
0
0
LINE
5
210
100
AcDbEntity
8
0
100
AcDbLine
10
436.28591518491902
20
76.089882035231312
30
0
11
436.28591518491902
21
75.750183243727406
31
0
0
LINE
5
211
100
AcDbEntity
8
0
100
AcDbLine
10
436.28591518491902
20
75.750183243727406
30
0
11
434.4073339888493
21
75.750183243727406
31
0
0
SPLINE
5
212
100
AcDbEntity
8
0
100
AcDbSpline
70
0
71
2
72
6
73
3
74
0
42
0.000000001
43
0.0000000001
44
0.0000000001
40
0
40
0
40
0
40
1
40
1
40
1
10
434.4073339888493
20
75.750183243727406
30
0
10
433.89983053893246
20
75.750183243727406
30
0
10
433.68802960604825
20
75.853523392653187
30
0
0
SPLINE
5
213
100
AcDbEntity
8
0
100
AcDbSpline
70
0
71
2
72
6
73
3
74
0
42
0.000000001
43
0.0000000001
44
0.0000000001
40
0
40
0
40
0
40
1
40
1
40
1
10
433.68802960604825
20
75.853523392653187
30
0
10
433.47622897118725
20
75.95686592576476
30
0
10
433.35344608515896
20
76.180943627333363
30
0
0
SPLINE
5
214
100
AcDbEntity
8
0
100
AcDbSpline
70
0
71
2
72
6
73
3
74
0
42
0.000000001
43
0.0000000001
44
0.0000000001
40
0
40
0
40
0
40
1
40
1
40
1
10
433.35344608515896
20
76.180943627333363
30
0
10
433.23066290110745
20
76.405023713087758
30
0
10
433.23066290110745
20
76.732446331953724
30
0
0
SPLINE
5
215
100
AcDbEntity
8
0
100
AcDbSpline
70
0
71
2
72
6
73
3
74
0
42
0.000000001
43
0.0000000001
44
0.0000000001
40
0
40
0
40
0
40
1
40
1
40
1
10
433.23066290110745
20
76.732446331953724
30
0
10
433.23066290110745
20
77.121259350752553
30
0
10
433.40562875956692
20
77.360686440443715
30
0
0
SPLINE
5
216
100
AcDbEntity
8
0
100
AcDbSpline
70
0
71
2
72
6
73
3
74
0
42
0.000000001
43
0.0000000001
44
0.0000000001
40
0
40
0
40
0
40
1
40
1
40
1
10
433.40562875956692
20
77.360686440443715
30
0
10
433.5805946180264
20
77.600113530134877
30
0
10
433.93257256240048
20
77.59192862031432
30
0
0
SPLINE
5
217
100
AcDbEntity
8
0
100
AcDbSpline
70
0
71
2
72
6
73
3
74
0
42
0.000000001
43
0.0000000001
44
0.0000000001
40
0
40
0
40
0
40
1
40
1
40
1
10
435.23816641062893
20
77.287015099501332
30
0
10
434.810471791927
20
77.287015099501332
30
0
10
434.61401875704922
20
77.117165703749379
30
0
0
SPLINE
5
218
100
AcDbEntity
8
0
100
AcDbSpline
70
0
71
2
72
6
73
3
74
0
42
0.000000001
43
0.0000000001
44
0.0000000001
40
0
40
0
40
0
40
1
40
1
40
1
10
434.61401875704922
20
77.117165703749379
30
0
10
434.41756602019467
20
76.947316307997426
30
0
10
434.41756602019467
20
76.691517014479359
30
0
0
SPLINE
5
219
100
AcDbEntity
8
0
100
AcDbSpline
70
0
71
2
72
6
73
3
74
0
42
0.000000001
43
0.0000000001
44
0.0000000001
40
0
40
0
40
0
40
1
40
1
40
1
10
434.41756602019467
20
76.691517014479359
30
0
10
434.41756602019467
20
76.437768120741566
30
0
10
434.61299564332165
20
76.265870709395131
30
0
0
SPLINE
5
220
100
AcDbEntity
8
0
100
AcDbSpline
70
0
71
2
72
6
73
3
74
0
42
0.000000001
43
0.0000000001
44
0.0000000001
40
0
40
0
40
0
40
1
40
1
40
1
10
434.61299564332165
20
76.265870709395131
30
0
10
434.80842526644864
20
76.093973298048695
30
0
10
435.2258878538052
20
76.093973298048695
30
0
0
SPLINE
5
221
100
AcDbEntity
8
0
100
AcDbSpline
70
0
71
2
72
6
73
3
74
0
42
0.000000001
43
0.0000000001
44
0.0000000001
40
0
40
0
40
0
40
1
40
1
40
1
10
435.2258878538052
20
76.093973298048695
30
0
10
435.6249329039494
20
76.093973298048695
30
0
10
435.82752521723904
20
76.270984787916859
30
0
0
SPLINE
5
222
100
AcDbEntity
8
0
100
AcDbSpline
70
0
71
2
72
6
73
3
74
0
42
0.000000001
43
0.0000000001
44
0.0000000001
40
0
40
0
40
0
40
1
40
1
40
1
10
435.82752521723904
20
76.270984787916859
30
0
10
436.03011708349385
20
76.447998661970814
30
0
10
436.03011708349385
20
76.697658677077015
30
0
0
SPLINE
5
223
100
AcDbEntity
8
0
100
AcDbSpline
70
0
71
2
72
6
73
3
74
0
42
0.000000001
43
0.0000000001
44
0.0000000001
40
0
40
0
40
0
40
1
40
1
40
1
10
436.03011708349385
20
76.697658677077015
30
0
10
436.03011708349385
20
76.943225045180043
30
0
10
435.83059485644497
20
77.115120072340687
30
0
0
SPLINE
5
224
100
AcDbEntity
8
0
100
AcDbSpline
70
0
71
2
72
6
73
3
74
0
42
0.000000001
43
0.0000000001
44
0.0000000001
40
0
40
0
40
0
40
1
40
1
40
1
10
435.83059485644497
20
77.115120072340687
30
0
10
435.63107188433804
20
77.287015099501332
30
0
10
435.23816641062893
20
77.287015099501332
30
0
0
LWPOLYLINE
5
225
100
AcDbEntity
8
0
100
AcDbPolyline
90
4
70
1
43
0.0
10
435.3834595868031
20
74.172419686293324
10
435.01306380719342
20
74.172419686293324
10
435.01306380719342
20
73.04077066895934
10
435.3834595868031
20
73.04077066895934
0
LINE
5
226
100
AcDbEntity
8
0
100
AcDbLine
10
434.11265458554425
20
71.469144005751332
30
0
11
436.28591518491902
21
71.469144005751332
31
0
0
LINE
5
227
100
AcDbEntity
8
0
100
AcDbLine
10
436.28591518491902
20
71.469144005751332
30
0
11
436.28591518491902
21
71.139678139662465
31
0
0
LINE
5
228
100
AcDbEntity
8
0
100
AcDbLine
10
436.28591518491902
20
71.139678139662465
30
0
11
435.98100389928021
21
71.139678139662465
31
0
0
SPLINE
5
229
100
AcDbEntity
8
0
100
AcDbSpline
70
0
71
2
72
6
73
3
74
0
42
0.000000001
43
0.0000000001
44
0.0000000001
40
0
40
0
40
0
40
1
40
1
40
1
10
435.98100389928021
20
71.139678139662465
30
0
10
436.14062185973324
20
71.037358422255238
30
0
10
436.23782511443295
20
70.867509026503285
30
0
0
SPLINE
5
230
100
AcDbEntity
8
0
100
AcDbSpline
70
0
71
2
72
6
73
3
74
0
42
0.000000001
43
0.0000000001
44
0.0000000001
40
0
40
0
40
0
40
1
40
1
40
1
10
436.23782511443295
20
70.867509026503285
30
0
10
436.33502836913266
20
70.697659630751332
30
0
10
436.33502836913266
20
70.480741639113148
30
0
0
SPLINE
5
231
100
AcDbEntity
8
0
100
AcDbSpline
70
0
71
2
72
6
73
3
74
0
42
0.000000001
43
0.0000000001
44
0.0000000001
40
0
40
0
40
0
40
1
40
1
40
1
10
436.33502836913266
20
70.480741639113148
30
0
10
436.33502836913266
20
70.239266533827504
30
0
10
436.23475562423863
20
70.084766526198109
30
0
0
SPLINE
5
232
100
AcDbEntity
8
0
100
AcDbSpline
70
0
71
2
72
6
73
3
74
0
42
0.000000001
43
0.0000000001
44
0.0000000001
40
0
40
0
40
0
40
1
40
1
40
1
10
436.23475562423863
20
70.084766526198109
30
0
10
436.13448273033299
20
69.930261750197133
30
0
10
435.95440085620083
20
69.866828103041371
30
0
0
SPLINE
5
233
100
AcDbEntity
8
0
100
AcDbSpline
70
0
71
2
72
6
73
3
74
0
42
0.000000001
43
0.0000000001
44
0.0000000001
40
0
40
0
40
0
40
1
40
1
40
1
10
435.95440085620083
20
69.866828103041371
30
0
10
436.33502836913266
20
69.608983178114613
30
0
10
436.33502836913266
20
69.195613045668324
30
0
0
SPLINE
5
234
100
AcDbEntity
8
0
100
AcDbSpline
70
0
71
2
72
6
73
3
74
0
42
0.000000001
43
0.0000000001
44
0.0000000001
40
0
40
0
40
0
40
1
40
1
40
1
10
436.33502836913266
20
69.195613045668324
30
0
10
436.33502836913266
20
68.872284073805531
30
0
10
436.15596975773968
20
68.698338646864613
30
0
0
SPLINE
5
235
100
AcDbEntity
8
0
100
AcDbSpline
70
0
71
2
72
6
73
3
74
0
42
0.000000001
43
0.0000000001
44
0.0000000001
40
0
40
0
40
0
40
1
40
1
40
1
10
436.15596975773968
20
68.698338646864613
30
0
10
435.97691114634671
20
68.524397988295277
30
0
10
435.60446913928189
20
68.524397988295277
30
0
0
LINE
5
236
100
AcDbEntity
8
0
100
AcDbLine
10
435.60446913928189
20
68.524397988295277
30
0
11
434.11265458554425
21
68.524397988295277
31
0
0
LINE
5
237
100
AcDbEntity
8
0
100
AcDbLine
10
434.11265458554425
20
68.524397988295277
30
0
11
434.11265458554425
21
68.890699524855336
31
0
0
LINE
5
238
100
AcDbEntity
8
0
100
AcDbLine
10
434.11265458554425
20
68.890699524855336
30
0
11
435.48168595523038
21
68.890699524855336
31
0
0
SPLINE
5
239
100
AcDbEntity
8
0
100
AcDbSpline
70
0
71
2
72
6
73
3
74
0
42
0.000000001
43
0.0000000001
44
0.0000000001
40
0
40
0
40
0
40
1
40
1
40
1
10
435.48168595523038
20
68.890699524855336
30
0
10
435.70269550770917
20
68.890699524855336
30
0
10
435.79989876240887
20
68.92650999543639
30
0
0
SPLINE
5
240
100
AcDbEntity
8
0
100
AcDbSpline
70
0
71
2
72
6
73
3
74
0
42
0.000000001
43
0.0000000001
44
0.0000000001
40
0
40
0
40
0
40
1
40
1
40
1
10
435.79989876240887
20
68.92650999543639
30
0
10
435.8971023151318
20
68.962325234389027
30
0
10
435.95644723266759
20
69.056457657789906
30
0
0
SPLINE
5
241
100
AcDbEntity
8
0
100
AcDbSpline
70
0
71
2
72
6
73
3
74
0
42
0.000000001
43
0.0000000001
44
0.0000000001
40
0
40
0
40
0
40
1
40
1
40
1
10
435.95644723266759
20
69.056457657789906
30
0
10
436.01579244822659
20
69.150590081190785
30
0
10
436.01579244822659
20
69.277466912245472
30
0
0
SPLINE
5
242
100
AcDbEntity
8
0
100
AcDbSpline
70
0
71
2
72
6
73
3
74
0
42
0.000000001
43
0.0000000001
44
0.0000000001
40
0
40
0
40
0
40
1
40
1
40
1
10
436.01579244822659
20
69.277466912245472
30
0
10
436.01579244822659
20
69.506663460707387
30
0
10
435.86333687991299
20
69.658092637037953
30
0
0
SPLINE
5
243
100
AcDbEntity
8
0
100
AcDbSpline
70
0
71
2
72
6
73
3
74
0
42
0.000000001
43
0.0000000001
44
0.0000000001
40
0
40
0
40
0
40
1
40
1
40
1
10
435.86333687991299
20
69.658092637037953
30
0
10
435.71088101357617
20
69.809526581740101
30
0
10
435.37527378291287
20
69.809526581740101
30
0
0
LINE
5
244
100
AcDbEntity
8
0
100
AcDbLine
10
435.37527378291287
20
69.809526581740101
30
0
11
434.11265458554425
21
69.809526581740101
31
0
0
LINE
5
245
100
AcDbEntity
8
0
100
AcDbLine
10
434.11265458554425
20
69.809526581740101
30
0
11
434.11265458554425
21
70.177878518080433
31
0
0
LINE
5
246
100
AcDbEntity
8
0
100
AcDbLine
10
434.11265458554425
20
70.177878518080433
30
0
11
435.52466001004376
21
70.177878518080433
31
0
0
SPLINE
5
247
100
AcDbEntity
8
0
100
AcDbSpline
70
0
71
2
72
6
73
3
74
0
42
0.000000001
43
0.0000000001
44
0.0000000001
40
0
40
0
40
0
40
1
40
1
40
1
10
435.52466001004376
20
70.177878518080433
30
0
10
435.77022608012356
20
70.177878518080433
30
0
10
435.89300926417508
20
70.267914910292347
30
0
0
SPLINE
5
248
100
AcDbEntity
8
0
100
AcDbSpline
70
0
71
2
72
6
73
3
74
0
42
0.000000001
43
0.0000000001
44
0.0000000001
40
0
40
0
40
0
40
1
40
1
40
1
10
435.89300926417508
20
70.267914910292347
30
0
10
436.01579244822659
20
70.357956070875844
30
0
10
436.01579244822659
20
70.562595505690297
30
0
0
SPLINE
5
249
100
AcDbEntity
8
0
100
AcDbSpline
70
0
71
2
72
6
73
3
74
0
42
0.000000001
43
0.0000000001
44
0.0000000001
40
0
40
0
40
0
40
1
40
1
40
1
10
436.01579244822659
20
70.562595505690297
30
0
10
436.01579244822659
20
70.718120713209828
30
0
10
435.93393709153332
20
70.850114006972035
30
0
0
SPLINE
5
250
100
AcDbEntity
8
0
100
AcDbSpline
70
0
71
2
72
6
73
3
74
0
42
0.000000001
43
0.0000000001
44
0.0000000001
40
0
40
0
40
0
40
1
40
1
40
1
10
435.93393709153332
20
70.850114006972035
30
0
10
435.85208173484006
20
70.982107300734242
30
0
10
435.69451000184216
20
71.041449685072621
30
0
0
SPLINE
5
251
100
AcDbEntity
8
0
100
AcDbSpline
70
0
71
2
72
6
73
3
74
0
42
0.000000001
43
0.0000000001
44
0.0000000001
40
0
40
0
40
0
40
1
40
1
40
1
10
435.69451000184216
20
71.041449685072621
30
0
10
435.53693826884427
20
71.100796837782582
30
0
10
435.24021263808407
20
71.100796837782582
30
0
0
LINE
5
252
100
AcDbEntity
8
0
100
AcDbLine
10
435.24021263808407
20
71.100796837782582
30
0
11
434.11265458554425
21
71.100796837782582
31
0
0
LINE
5
253
100
AcDbEntity
8
0
100
AcDbLine
10
434.11265458554425
20
71.100796837782582
30
0
11
434.11265458554425
21
71.469144005751332
31
0
0
LWPOLYLINE
5
254
100
AcDbEntity
8
0
100
AcDbPolyline
90
4
70
1
43
0.0
10
437.11265470475354
20
67.975968499159535
10
436.68905313700833
20
67.975968499159535
10
436.68905313700833
20
67.607616562819203
10
437.11265470475354
20
67.607616562819203
0
LWPOLYLINE
5
255
100
AcDbEntity
8
0
100
AcDbPolyline
90
4
70
1
43
0.0
10
436.28591518491902
20
67.975968499159535
10
434.11265458554425
20
67.975968499159535
10
434.11265458554425
20
67.607616562819203
10
436.28591518491902
20
67.607616562819203
0
LINE
5
256
100
AcDbEntity
8
0
100
AcDbLine
10
434.11265458554425
20
65.63694872376891
30
0
11
434.38687022418179
21
65.63694872376891
31
0
0
SPLINE
5
257
100
AcDbEntity
8
0
100
AcDbSpline
70
0
71
2
72
6
73
3
74
0
42
0.000000001
43
0.0000000001
44
0.0000000001
40
0
40
0
40
0
40
1
40
1
40
1
10
434.38687022418179
20
65.63694872376891
30
0
10
434.063541252319
20
65.843633789992055
30
0
10
434.063541252319
20
66.244725365614613
30
0
0
SPLINE
5
258
100
AcDbEntity
8
0
100
AcDbSpline
70
0
71
2
72
6
73
3
74
0
42
0.000000001
43
0.0000000001
44
0.0000000001
40
0
40
0
40
0
40
1
40
1
40
1
10
434.063541252319
20
66.244725365614613
30
0
10
434.063541252319
20
66.504615921950062
30
0
10
434.20678820103802
20
66.722554345106801
30
0
0
SPLINE
5
259
100
AcDbEntity
8
0
100
AcDbSpline
70
0
71
2
72
6
73
3
74
0
42
0.000000001
43
0.0000000001
44
0.0000000001
40
0
40
0
40
0
40
1
40
1
40
1
10
434.20678820103802
20
66.722554345106801
30
0
10
434.35003514975705
20
66.940497536635121
30
0
10
434.60685636490979
20
67.060212273573597
30
0
0
SPLINE
5
260
100
AcDbEntity
8
0
100
AcDbSpline
70
0
71
2
72
6
73
3
74
0
42
0.000000001
43
0.0000000001
44
0.0000000001
40
0
40
0
40
0
40
1
40
1
40
1
10
434.60685636490979
20
67.060212273573597
30
0
10
434.86367758006253
20
67.179922242140492
30
0
10
435.19723828524747
20
67.179922242140492
30
0
0
SPLINE
5
261
100
AcDbEntity
8
0
100
AcDbSpline
70
0
71
2
72
6
73
3
74
0
42
0.000000001
43
0.0000000001
44
0.0000000001
40
0
40
0
40
0
40
1
40
1
40
1
10
435.19723828524747
20
67.179922242140492
30
0
10
435.5226134845654
20
67.179922242140492
30
0
10
435.78762050360837
20
67.071465630507191
30
0
0
SPLINE
5
262
100
AcDbEntity
8
0
100
AcDbSpline
70
0
71
2
72
6
73
3
74
0
42
0.000000001
43
0.0000000001
44
0.0000000001
40
0
40
0
40
0
40
1
40
1
40
1
10
435.78762050360837
20
67.071465630507191
30
0
10
436.05262722462811
20
66.96300901887389
30
0
10
436.19382779688038
20
66.746091027235707
30
0
0
SPLINE
5
263
100
AcDbEntity
8
0
100
AcDbSpline
70
0
71
2
72
6
73
3
74
0
42
0.000000001
43
0.0000000001
44
0.0000000001
40
0
40
0
40
0
40
1
40
1
40
1
10
436.19382779688038
20
66.746091027235707
30
0
10
436.33502836913266
20
66.529173035597523
30
0
10
436.33502836913266
20
66.261095185255726
30
0
0
SPLINE
5
264
100
AcDbEntity
8
0
100
AcDbSpline
70
0
71
2
72
6
73
3
74
0
42
0.000000001
43
0.0000000001
44
0.0000000001
40
0
40
0
40
0
40
1
40
1
40
1
10
436.33502836913266
20
66.261095185255726
30
0
10
436.33502836913266
20
66.064643044447621
30
0
10
436.25214974970021
20
65.911163468336781
30
0
0
SPLINE
5
265
100
AcDbEntity
8
0
100
AcDbSpline
70
0
71
2
72
6
73
3
74
0
42
0.000000001
43
0.0000000001
44
0.0000000001
40
0
40
0
40
0
40
1
40
1
40
1
10
436.25214974970021
20
65.911163468336781
30
0
10
436.16927113026776
20
65.757683892225941
30
0
10
436.0362562128941
20
65.661505837416371
30
0
0
LINE
5
266
100
AcDbEntity
8
0
100
AcDbLine
10
436.0362562128941
20
65.661505837416371
30
0
11
437.11265440673031
21
65.661505837416371
31
0
0
LINE
5
267
100
AcDbEntity
8
0
100
AcDbLine
10
437.11265440673031
20
65.661505837416371
30
0
11
437.11265440673031
21
65.295204300856312
31
0
0
LINE
5
268
100
AcDbEntity
8
0
100
AcDbLine
10
437.11265440673031
20
65.295204300856312
30
0
11
434.11265458554425
21
65.295204300856312
31
0
0
LINE
5
269
100
AcDbEntity
8
0
100
AcDbLine
10
434.11265458554425
20
65.295204300856312
30
0
11
434.11265458554425
21
65.63694872376891
31
0
0
SPLINE
5
270
100
AcDbEntity
8
0
100
AcDbSpline
70
0
71
2
72
6
73
3
74
0
42
0.000000001
43
0.0000000001
44
0.0000000001
40
0
40
0
40
0
40
1
40
1
40
1
10
435.19723828524747
20
66.801342148756703
30
0
10
434.77977599591412
20
66.801342148756703
30
0
10
434.5730912277142
20
66.625351090407094
30
0
0
SPLINE
5
271
100
AcDbEntity
8
0
100
AcDbSpline
70
0
71
2
72
6
73
3
74
0
42
0.000000001
43
0.0000000001
44
0.0000000001
40
0
40
0
40
0
40
1
40
1
40
1
10
434.5730912277142
20
66.625351090407094
30
0
10
434.36640616149106
20
66.449364800429066
30
0
10
434.36640616149106
20
66.209935326552113
30
0
0
SPLINE
5
272
100
AcDbEntity
8
0
100
AcDbSpline
70
0
71
2
72
6
73
3
74
0
42
0.000000001
43
0.0000000001
44
0.0000000001
40
0
40
0
40
0
40
1
40
1
40
1
10
434.36640616149106
20
66.209935326552113
30
0
10
434.36640616149106
20
65.968464989638051
30
0
10
434.5638823100964
20
65.799636025404652
30
0
0
SPLINE
5
273
100
AcDbEntity
8
0
100
AcDbSpline
70
0
71
2
72
6
73
3
74
0
42
0.000000001
43
0.0000000001
44
0.0000000001
40
0
40
0
40
0
40
1
40
1
40
1
10
434.5638823100964
20
65.799636025404652
30
0
10
434.76135845870175
20
65.630811829542836
30
0
10
435.16654248923459
20
65.630811829542836
30
0
0
SPLINE
5
274
100
AcDbEntity
8
0
100
AcDbSpline
70
0
71
2
72
6
73
3
74
0
42
0.000000001
43
0.0000000001
44
0.0000000001
40
0
40
0
40
0
40
1
40
1
40
1
10
435.16654248923459
20
65.630811829542836
30
0
10
435.61265464514889
20
65.630811829542836
30
0
10
435.82138593882718
20
65.80270685670348
30
0
0
SPLINE
5
275
100
AcDbEntity
8
0
100
AcDbSpline
70
0
71
2
72
6
73
3
74
0
42
0.000000001
43
0.0000000001
44
0.0000000001
40
0
40
0
40
0
40
1
40
1
40
1
10
435.82138593882718
20
65.80270685670348
30
0
10
436.03011708349385
20
65.974601883864125
30
0
10
436.03011708349385
20
66.226309914564808
30
0
0
SPLINE
5
276
100
AcDbEntity
8
0
100
AcDbSpline
70
0
71
2
72
6
73
3
74
0
42
0.000000001
43
0.0000000001
44
0.0000000001
40
0
40
0
40
0
40
1
40
1
40
1
10
436.03011708349385
20
66.226309914564808
30
0
10
436.03011708349385
20
66.471876282667836
30
0
10
435.82957144469418
20
66.636609215712269
30
0
0
SPLINE
5
277
100
AcDbEntity
8
0
100
AcDbSpline
70
0
71
2
72
6
73
3
74
0
42
0.000000001
43
0.0000000001
44
0.0000000001
40
0
40
0
40
0
40
1
40
1
40
1
10
435.82957144469418
20
66.636609215712269
30
0
10
435.6290256568829
20
66.801342148756703
30
0
10
435.19723828524747
20
66.801342148756703
30
0
0
LINE
5
278
100
AcDbEntity
8
0
100
AcDbLine
10
434.11265458554425
20
63.55168261048766
30
0
11
437.11265470475354
21
63.55168261048766
31
0
0
LINE
5
279
100
AcDbEntity
8
0
100
AcDbLine
10
437.11265470475354
20
63.55168261048766
30
0
11
437.11265470475354
21
63.183330674147328
31
0
0
LINE
5
280
100
AcDbEntity
8
0
100
AcDbLine
10
437.11265470475354
20
63.183330674147328
30
0
11
436.0362562128941
21
63.183330674147328
31
0
0
SPLINE
5
281
100
AcDbEntity
8
0
100
AcDbSpline
70
0
71
2
72
6
73
3
74
0
42
0.000000001
43
0.0000000001
44
0.0000000001
40
0
40
0
40
0
40
1
40
1
40
1
10
436.0362562128941
20
63.183330674147328
30
0
10
436.33502836913266
20
62.92548574922057
30
0
10
436.33502836913266
20
62.532581467604359
30
0
0
SPLINE
5
282
100
AcDbEntity
8
0
100
AcDbSpline
70
0
71
2
72
6
73
3
74
0
42
0.000000001
43
0.0000000001
44
0.0000000001
40
0
40
0
40
0
40
1
40
1
40
1
10
436.33502836913266
20
62.532581467604359
30
0
10
436.33502836913266
20
62.291106362318715
30
0
10
436.2398714908997
20
62.113074440931996
30
0
0
SPLINE
5
283
100
AcDbEntity
8
0
100
AcDbSpline
70
0
71
2
72
6
73
3
74
0
42
0.000000001
43
0.0000000001
44
0.0000000001
40
0
40
0
40
0
40
1
40
1
40
1
10
436.2398714908997
20
62.113074440931996
30
0
10
436.14471461266675
20
61.935037751173695
30
0
10
435.97691114634671
20
61.858295578932484
30
0
0
SPLINE
5
284
100
AcDbEntity
8
0
100
AcDbSpline
70
0
71
2
72
6
73
3
74
0
42
0.000000001
43
0.0000000001
44
0.0000000001
40
0
40
0
40
0
40
1
40
1
40
1
10
435.97691114634671
20
61.858295578932484
30
0
10
435.80910738200345
20
61.781558175062855
30
0
10
435.48987146109738
20
61.781558175062855
30
0
0
LINE
5
285
100
AcDbEntity
8
0
100
AcDbLine
10
435.48987146109738
20
61.781558175062855
30
0
11
434.11265458554425
21
61.781558175062855
31
0
0
LINE
5
286
100
AcDbEntity
8
0
100
AcDbLine
10
434.11265458554425
20
61.781558175062855
30
0
11
434.11265458554425
21
62.149910111403187
31
0
0
LINE
5
287
100
AcDbEntity
8
0
100
AcDbLine
10
434.11265458554425
20
62.149910111403187
30
0
11
435.48987146109738
21
62.149910111403187
31
0
0
SPLINE
5
288
100
AcDbEntity
8
0
100
AcDbSpline
70
0
71
2
72
6
73
3
74
0
42
0.000000001
43
0.0000000001
44
0.0000000001
40
0
40
0
40
0
40
1
40
1
40
1
10
435.48987146109738
20
62.149910111403187
30
0
10
435.76613362521329
20
62.149910111403187
30
0
10
435.89198615044751
20
62.269620079970082
30
0
0
SPLINE
5
289
100
AcDbEntity
8
0
100
AcDbSpline
70
0
71
2
72
6
73
3
74
0
42
0.000000001
43
0.0000000001
44
0.0000000001
40
0
40
0
40
0
40
1
40
1
40
1
10
435.89198615044751
20
62.269620079970082
30
0
10
436.01783882469334
20
62.389334816908558
30
0
10
436.01783882469334
20
62.608298439955433
30
0
0
SPLINE
5
290
100
AcDbEntity
8
0
100
AcDbSpline
70
0
71
2
72
6
73
3
74
0
42
0.000000001
43
0.0000000001
44
0.0000000001
40
0
40
0
40
0
40
1
40
1
40
1
10
436.01783882469334
20
62.608298439955433
30
0
10
436.01783882469334
20
62.772010941481312
30
0
10
435.93291382879414
20
62.916278023695668
30
0
0
SPLINE
5
291
100
AcDbEntity
8
0
100
AcDbSpline
70
0
71
2
72
6
73
3
74
0
42
0.000000001
43
0.0000000001
44
0.0000000001
40
0
40
0
40
0
40
1
40
1
40
1
10
435.93291382879414
20
62.916278023695668
30
0
10
435.84798868388333
20
63.060549874281605
30
0
10
435.70269550770917
20
63.121942658400258
30
0
0
SPLINE
5
292
100
AcDbEntity
8
0
100
AcDbSpline
70
0
71
2
72
6
73
3
74
0
42
0.000000001
43
0.0000000001
44
0.0000000001
40
0
40
0
40
0
40
1
40
1
40
1
10
435.70269550770917
20
63.121942658400258
30
0
10
435.557402331535
20
63.183330674147328
30
0
10
435.30160423010983
20
63.183330674147328
30
0
0
LINE
5
293
100
AcDbEntity
8
0
100
AcDbLine
10
435.30160423010983
20
63.183330674147328
30
0
11
434.11265458554425
21
63.183330674147328
31
0
0
LINE
5
294
100
AcDbEntity
8
0
100
AcDbLine
10
434.11265458554425
20
63.183330674147328
30
0
11
434.11265458554425
21
63.55168261048766
31
0
0
SPLINE
5
295
100
AcDbEntity
8
0
100
AcDbSpline
70
0
71
2
72
6
73
3
74
0
42
0.000000001
43
0.0000000001
44
0.0000000001
40
0
40
0
40
0
40
1
40
1
40
1
10
435.19928481072583
20
61.357959885573109
30
0
10
435.80296840161481
20
61.357959885573109
30
0
10
436.09355505198636
20
61.022352356886586
30
0
0
SPLINE
5
296
100
AcDbEntity
8
0
100
AcDbSpline
70
0
71
2
72
6
73
3
74
0
42
0.000000001
43
0.0000000001
44
0.0000000001
40
0
40
0
40
0
40
1
40
1
40
1
10
436.09355505198636
20
61.022352356886586
30
0
10
436.33502851814427
20
60.741995949721058
30
0
10
436.33502851814427
20
60.338858742689808
30
0
0
SPLINE
5
297
100
AcDbEntity
8
0
100
AcDbSpline
70
0
71
2
72
6
73
3
74
0
42
0.000000001
43
0.0000000001
44
0.0000000001
40
0
40
0
40
0
40
1
40
1
40
1
10
436.33502851814427
20
60.338858742689808
30
0
10
436.33502851814427
20
59.890698571181019
30
0
10
436.04137222856679
20
59.606250901198109
30
0
0
SPLINE
5
298
100
AcDbEntity
8
0
100
AcDbSpline
70
0
71
2
72
6
73
3
74
0
42
0.000000001
43
0.0000000001
44
0.0000000001
40
0
40
0
40
0
40
1
40
1
40
1
10
436.04137222856679
20
59.606250901198109
30
0
10
435.74771608800091
20
59.321807999586781
30
0
10
435.22998060673871
20
59.321807999586781
30
0
0
SPLINE
5
299
100
AcDbEntity
8
0
100
AcDbSpline
70
0
71
2
72
6
73
3
74
0
42
0.000000001
43
0.0000000001
44
0.0000000001
40
0
40
0
40
0
40
1
40
1
40
1
10
435.22998060673871
20
59.321807999586781
30
0
10
434.810471791927
20
59.321807999586781
30
0
10
434.57002158850827
20
59.447659630751332
30
0
0
SPLINE
5
300
100
AcDbEntity
8
0
100
AcDbSpline
70
0
71
2
72
6
73
3
74
0
42
0.000000001
43
0.0000000001
44
0.0000000001
40
0
40
0
40
0
40
1
40
1
40
1
10
434.57002158850827
20
59.447659630751332
30
0
10
434.32957138508954
20
59.573511261915883
30
0
10
434.19655646771588
20
59.81396116731139
30
0
0
SPLINE
5
301
100
AcDbEntity
8
0
100
AcDbSpline
70
0
71
2
72
6
73
3
74
0
42
0.000000001
43
0.0000000001
44
0.0000000001
40
0
40
0
40
0
40
1
40
1
40
1
10
434.19655646771588
20
59.81396116731139
30
0
10
434.063541252319
20
60.054411072706898
30
0
10
434.063541252319
20
60.338858742689808
30
0
0
SPLINE
5
302
100
AcDbEntity
8
0
100
AcDbSpline
70
0
71
2
72
6
73
3
74
0
42
0.000000001
43
0.0000000001
44
0.0000000001
40
0
40
0
40
0
40
1
40
1
40
1
10
434.063541252319
20
60.338858742689808
30
0
10
434.063541252319
20
60.795201439833363
30
0
10
434.35617442816891
20
61.076583046889027
30
0
0
SPLINE
5
303
100
AcDbEntity
8
0
100
AcDbSpline
70
0
71
2
72
6
73
3
74
0
42
0.000000001
43
0.0000000001
44
0.0000000001
40
0
40
0
40
0
40
1
40
1
40
1
10
434.35617442816891
20
61.076583046889027
30
0
10
434.6488073059956
20
61.357959885573109
30
0
10
435.19928481072583
20
61.357959885573109
30
0
0
SPLINE
5
304
100
AcDbEntity
8
0
100
AcDbSpline
70
0
71
2
72
6
73
3
74
0
42
0.000000001
43
0.0000000001
44
0.0000000001
40
0
40
0
40
0
40
1
40
1
40
1
10
435.19928481072583
20
60.97937979218932
30
0
10
434.78182252139248
20
60.97937979218932
30
0
10
434.57411434144177
20
60.797247071242055
30
0
0
SPLINE
5
305
100
AcDbEntity
8
0
100
AcDbSpline
70
0
71
2
72
6
73
3
74
0
42
0.000000001
43
0.0000000001
44
0.0000000001
40
0
40
0
40
0
40
1
40
1
40
1
10
434.57411434144177
20
60.797247071242055
30
0
10
434.36640616149106
20
60.615119118666371
30
0
10
434.36640616149106
20
60.338858742689808
30
0
0
SPLINE
5
306
100
AcDbEntity
8
0
100
AcDbSpline
70
0
71
2
72
6
73
3
74
0
42
0.000000001
43
0.0000000001
44
0.0000000001
40
0
40
0
40
0
40
1
40
1
40
1
10
434.36640616149106
20
60.338858742689808
30
0
10
434.36640616149106
20
60.064643998121937
30
0
10
434.57513745516934
20
59.882516045546254
30
0
0
SPLINE
5
307
100
AcDbEntity
8
0
100
AcDbSpline
70
0
71
2
72
6
73
3
74
0
42
0.000000001
43
0.0000000001
44
0.0000000001
40
0
40
0
40
0
40
1
40
1
40
1
10
434.57513745516934
20
59.882516045546254
30
0
10
434.78386874884762
20
59.70038809297057
30
0
10
435.21156306952633
20
59.70038809297057
30
0
0
SPLINE
5
308
100
AcDbEntity
8
0
100
AcDbSpline
70
0
71
2
72
6
73
3
74
0
42
0.000000001
43
0.0000000001
44
0.0000000001
40
0
40
0
40
0
40
1
40
1
40
1
10
435.21156306952633
20
59.70038809297057
30
0
10
435.61470087260403
20
59.70038809297057
30
0
10
435.82240905255475
20
59.883536477064808
30
0
0
SPLINE
5
309
100
AcDbEntity
8
0
100
AcDbSpline
70
0
71
2
72
6
73
3
74
0
42
0.000000001
43
0.0000000001
44
0.0000000001
40
0
40
0
40
0
40
1
40
1
40
1
10
435.82240905255475
20
59.883536477064808
30
0
10
436.03011708349385
20
60.066689629530629
30
0
10
436.03011708349385
20
60.338858742689808
30
0
0
SPLINE
5
310
100
AcDbEntity
8
0
100
AcDbSpline
70
0
71
2
72
6
73
3
74
0
42
0.000000001
43
0.0000000001
44
0.0000000001
40
0
40
0
40
0
40
1
40
1
40
1
10
436.03011708349385
20
60.338858742689808
30
0
10
436.03011708349385
20
60.615119118666371
30
0
10
435.82343216628232
20
60.797247071242055
30
0
0
SPLINE
5
311
100
AcDbEntity
8
0
100
AcDbSpline
70
0
71
2
72
6
73
3
74
0
42
0.000000001
43
0.0000000001
44
0.0000000001
40
0
40
0
40
0
40
1
40
1
40
1
10
435.82343216628232
20
60.797247071242055
30
0
10
435.6167473980824
20
60.97937979218932
30
0
10
435.19928481072583
20
60.97937979218932
30
0
0
LINE
5
312
100
AcDbEntity
8
0
100
AcDbLine
10
434.11265458554425
20
58.894108910536488
30
0
11
436.28591518491902
21
58.894108910536488
31
0
0
LINE
5
313
100
AcDbEntity
8
0
100
AcDbLine
10
436.28591518491902
20
58.894108910536488
30
0
11
436.28591518491902
21
58.56259741303893
31
0
0
LINE
5
314
100
AcDbEntity
8
0
100
AcDbLine
10
436.28591518491902
20
58.56259741303893
30
0
11
435.95644723266759
21
58.56259741303893
31
0
0
SPLINE
5
315
100
AcDbEntity
8
0
100
AcDbSpline
70
0
71
2
72
6
73
3
74
0
42
0.000000001
43
0.0000000001
44
0.0000000001
40
0
40
0
40
0
40
1
40
1
40
1
10
435.95644723266759
20
58.56259741303893
30
0
10
436.18768866748013
20
58.435720581984242
30
0
10
436.26135851830639
20
58.328284401869496
30
0
0
SPLINE
5
316
100
AcDbEntity
8
0
100
AcDbSpline
70
0
71
2
72
6
73
3
74
0
42
0.000000001
43
0.0000000001
44
0.0000000001
40
0
40
0
40
0
40
1
40
1
40
1
10
436.26135851830639
20
58.328284401869496
30
0
10
436.33502836913266
20
58.22084822175475
30
0
10
436.33502836913266
20
58.091925759291371
30
0
0
SPLINE
5
317
100
AcDbEntity
8
0
100
AcDbSpline
70
0
71
2
72
6
73
3
74
0
42
0.000000001
43
0.0000000001
44
0.0000000001
40
0
40
0
40
0
40
1
40
1
40
1
10
436.33502836913266
20
58.091925759291371
30
0
10
436.33502836913266
20
57.905706543898305
30
0
10
436.21633808702626
20
57.713345665907582
30
0
0
LINE
5
318
100
AcDbEntity
8
0
100
AcDbLine
10
436.21633808702626
20
57.713345665907582
30
0
11
435.87459202498593
21
57.840222496962269
31
0
0
SPLINE
5
319
100
AcDbEntity
8
0
100
AcDbSpline
70
0
71
2
72
6
73
3
74
0
42
0.000000001
43
0.0000000001
44
0.0000000001
40
0
40
0
40
0
40
1
40
1
40
1
10
435.87459202498593
20
57.840222496962269
30
0
10
435.95440085620083
20
57.975281853651722
30
0
10
435.95440085620083
20
58.110345978712758
30
0
0
SPLINE
5
320
100
AcDbEntity
8
0
100
AcDbSpline
70
0
71
2
72
6
73
3
74
0
42
0.000000001
43
0.0000000001
44
0.0000000001
40
0
40
0
40
0
40
1
40
1
40
1
10
435.95440085620083
20
58.110345978712758
30
0
10
435.95440085620083
20
58.231081147169789
30
0
10
435.88175411910214
20
58.327259201979359
30
0
0
SPLINE
5
321
100
AcDbEntity
8
0
100
AcDbSpline
70
0
71
2
72
6
73
3
74
0
42
0.000000001
43
0.0000000001
44
0.0000000001
40
0
40
0
40
0
40
1
40
1
40
1
10
435.88175411910214
20
58.327259201979359
30
0
10
435.80910738200345
20
58.423442025160512
30
0
10
435.68018551558652
20
58.464368958449086
30
0
0
SPLINE
5
322
100
AcDbEntity
8
0
100
AcDbSpline
70
0
71
2
72
6
73
3
74
0
42
0.000000001
43
0.0000000001
44
0.0000000001
40
0
40
0
40
0
40
1
40
1
40
1
10
435.68018551558652
20
58.464368958449086
30
0
10
435.48373218268551
20
58.525761742567738
30
0
10
435.25044437140622
20
58.525761742567738
30
0
0
LINE
5
323
100
AcDbEntity
8
0
100
AcDbLine
10
435.25044437140616
20
58.525761742567738
30
0
11
434.11265458554425
21
58.525761742567738
31
0
0
LINE
5
324
100
AcDbEntity
8
0
100
AcDbLine
10
434.11265458554425
20
58.525761742567738
30
0
11
434.11265458554425
21
58.894108910536488
31
0
0
LWPOLYLINE
5
325
100
AcDbEntity
8
0
100
AcDbPolyline
90
4
70
1
43
0.0
10
437.11265470475354
20
57.492336411452015
10
436.68905313700833
20
57.492336411452015
10
436.68905313700833
20
57.123989243483265
10
437.11265470475354
20
57.123989243483265
0
LWPOLYLINE
5
326
100
AcDbEntity
8
0
100
AcDbPolyline
90
4
70
1
43
0.0
10
436.28591518491902
20
57.492336411452015
10
434.11265458554425
20
57.492336411452015
10
434.11265458554425
20
57.123989243483265
10
436.28591518491902
20
57.123989243483265
0
LINE
5
327
100
AcDbEntity
8
0
100
AcDbLine
10
434.11265458554425
20
56.757682938551625
30
0
11
434.4114267417828
21
56.757682938551625
31
0
0
LINE
5
328
100
AcDbEntity
8
0
100
AcDbLine
10
434.4114267417828
20
56.757682938551625
30
0
11
435.99942128748097
21
55.374325890516957
31
0
0
SPLINE
5
329
100
AcDbEntity
8
0
100
AcDbSpline
70
0
71
2
72
6
73
3
74
0
42
0.000000001
43
0.0000000001
44
0.0000000001
40
0
40
0
40
0
40
1
40
1
40
1
10
435.99942128748097
20
55.374325890516957
30
0
10
435.98714302868046
20
55.609664101576527
30
0
10
435.98714302868046
20
55.789746422743519
30
0
0
LINE
5
330
100
AcDbEntity
8
0
100
AcDbLine
10
435.98714302868046
20
55.789746422743519
30
0
11
435.98714302868046
21
56.675829071974476
31
0
0
LINE
5
331
100
AcDbEntity
8
0
100
AcDbLine
10
435.98714302868046
20
56.675829071974476
30
0
11
436.28591518491902
21
56.675829071974476
31
0
0
LINE
5
332
100
AcDbEntity
8
0
100
AcDbLine
10
436.28591518491902
20
56.675829071974476
30
0
11
436.28591518491902
21
54.899567742323597
31
0
0
LINE
5
333
100
AcDbEntity
8
0
100
AcDbLine
10
436.28591518491902
20
54.899567742323597
30
0
11
436.04239534229436
21
54.899567742323597
31
0
0
LINE
5
334
100
AcDbEntity
8
0
100
AcDbLine
10
436.04239534229436
20
54.899567742323597
30
0
11
434.66313209027447
21
56.076239724135121
31
0
0
LINE
5
335
100
AcDbEntity
8
0
100
AcDbLine
10
434.66313209027447
20
56.076239724135121
30
0
11
434.4114267417828
21
56.303385872816762
31
0
0
SPLINE
5
336
100
AcDbEntity
8
0
100
AcDbSpline
70
0
71
2
72
6
73
3
74
0
42
0.000000001
43
0.0000000001
44
0.0000000001
40
0
40
0
40
0
40
1
40
1
40
1
10
434.4114267417828
20
56.303385872816762
30
0
10
434.42984427899518
20
56.055773873305043
30
0
10
434.42984427899518
20
55.838855881666859
30
0
0
LINE
5
337
100
AcDbEntity
8
0
100
AcDbLine
10
434.42984427899518
20
55.838855881666859
30
0
11
434.42984427899518
21
54.834083695387562
31
0
0
LINE
5
338
100
AcDbEntity
8
0
100
AcDbLine
10
434.42984427899518
20
54.834083695387562
30
0
11
434.11265458554425
21
54.834083695387562
31
0
0
LINE
5
339
100
AcDbEntity
8
0
100
AcDbLine
10
434.11265458554425
20
54.834083695387562
30
0
11
434.11265458554425
21
56.757682938551625
31
0
0
LINE
5
340
100
AcDbEntity
8
0
100
AcDbLine
10
429.75999410838284
20
82.314983983015736
30
0
11
429.43461890906491
21
82.261778492903431
31
0
0
SPLINE
5
341
100
AcDbEntity
8
0
100
AcDbSpline
70
0
71
2
72
6
73
3
74
0
42
0.000000001
43
0.0000000001
44
0.0000000001
40
0
40
0
40
0
40
1
40
1
40
1
10
429.43461890906491
20
82.261778492903431
30
0
10
429.40187628955044
20
82.417303700422963
30
0
10
429.40187628955044
20
82.540086884474476
30
0
0
SPLINE
5
342
100
AcDbEntity
8
0
100
AcDbSpline
70
0
71
2
72
6
73
3
74
0
42
0.000000001
43
0.0000000001
44
0.0000000001
40
0
40
0
40
0
40
1
40
1
40
1
10
429.40187628955044
20
82.540086884474476
30
0
10
429.40187628955044
20
82.740632672285756
30
0
10
429.46531410903134
20
82.851137299513539
30
0
0
SPLINE
5
343
100
AcDbEntity
8
0
100
AcDbSpline
70
0
71
2
72
6
73
3
74
0
42
0.000000001
43
0.0000000001
44
0.0000000001
40
0
40
0
40
0
40
1
40
1
40
1
10
429.46531410903134
20
82.851137299513539
30
0
10
429.52875252455868
20
82.961641926741322
30
0
10
429.63209446162381
20
83.00666250703307
30
0
0
SPLINE
5
344
100
AcDbEntity
8
0
100
AcDbSpline
70
0
71
2
72
6
73
3
74
0
42
0.000000001
43
0.0000000001
44
0.0000000001
40
0
40
0
40
0
40
1
40
1
40
1
10
429.63209446162381
20
83.00666250703307
30
0
10
429.73543699473538
20
83.051683087324818
30
0
10
430.06695147246518
20
83.051683087324818
30
0
0
LINE
5
345
100
AcDbEntity
8
0
100
AcDbLine
10
430.06695147246518
20
83.051683087324818
30
0
11
431.31729241103329
21
83.051683087324818
31
0
0
LINE
5
346
100
AcDbEntity
8
0
100
AcDbLine
10
431.31729241103329
20
83.051683087324818
30
0
11
431.31729241103329
21
83.321806569075306
31
0
0
LINE
5
347
100
AcDbEntity
8
0
100
AcDbLine
10
431.31729241103329
20
83.321806569075306
30
0
11
431.60378630847134
21
83.321806569075306
31
0
0
LINE
5
348
100
AcDbEntity
8
0
100
AcDbLine
10
431.60378630847134
20
83.321806569075306
30
0
11
431.60378630847134
21
83.051683087324818
31
0
0
LINE
5
349
100
AcDbEntity
8
0
100
AcDbLine
10
431.60378630847134
20
83.051683087324818
30
0
11
432.14198585242428
21
83.051683087324818
31
0
0
LINE
5
350
100
AcDbEntity
8
0
100
AcDbLine
10
432.14198585242428
20
83.051683087324818
30
0
11
432.3629957029263
21
82.685379166578969
31
0
0
LINE
5
351
100
AcDbEntity
8
0
100
AcDbLine
10
432.3629957029263
20
82.685379166578969
30
0
11
431.60378630847134
21
82.685379166578969
31
0
0
LINE
5
352
100
AcDbEntity
8
0
100
AcDbLine
10
431.60378630847134
20
82.685379166578969
30
0
11
431.60378630847134
21
82.314983983015736
31
0
0
LINE
5
353
100
AcDbEntity
8
0
100
AcDbLine
10
431.60378630847134
20
82.314983983015736
30
0
11
431.31729241103329
21
82.314983983015736
31
0
0
LINE
5
354
100
AcDbEntity
8
0
100
AcDbLine
10
431.31729241103329
20
82.314983983015736
30
0
11
431.31729241103329
21
82.685379166578969
31
0
0
LINE
5
355
100
AcDbEntity
8
0
100
AcDbLine
10
431.31729241103329
20
82.685379166578969
30
0
11
430.04648740977444
21
82.685379166578969
31
0
0
SPLINE
5
356
100
AcDbEntity
8
0
100
AcDbSpline
70
0
71
2
72
6
73
3
74
0
42
0.000000001
43
0.0000000001
44
0.0000000001
40
0
40
0
40
0
40
1
40
1
40
1
10
430.04648740977444
20
82.685379166578969
30
0
10
429.88891597479977
20
82.685379166578969
30
0
10
429.84389539450802
20
82.665938515639027
30
0
0
SPLINE
5
357
100
AcDbEntity
8
0
100
AcDbSpline
70
0
71
2
72
6
73
3
74
0
42
0.000000001
43
0.0000000001
44
0.0000000001
40
0
40
0
40
0
40
1
40
1
40
1
10
429.84389539450802
20
82.665938515639027
30
0
10
429.79887541026272
20
82.646497864699086
30
0
10
429.77227206916012
20
82.602502484297474
30
0
0
SPLINE
5
358
100
AcDbEntity
8
0
100
AcDbSpline
70
0
71
2
72
6
73
3
74
0
42
0.000000001
43
0.0000000001
44
0.0000000001
40
0
40
0
40
0
40
1
40
1
40
1
10
429.77227206916012
20
82.602502484297474
30
0
10
429.74566932410397
20
82.558504719710072
30
0
10
429.74566932410397
20
82.476648468947133
30
0
0
SPLINE
5
359
100
AcDbEntity
8
0
100
AcDbSpline
70
0
71
2
72
6
73
3
74
0
42
0.000000001
43
0.0000000001
44
0.0000000001
40
0
40
0
40
0
40
1
40
1
40
1
10
429.74566932410397
20
82.476648468947133
30
0
10
429.74566932410397
20
82.415258069014271
30
0
10
429.75999410838284
20
82.314983983015736
30
0
0
LINE
5
360
100
AcDbEntity
8
0
100
AcDbLine
10
429.43052585810818
20
81.954821724867543
30
0
11
432.43052597731747
21
81.954821724867543
31
0
0
LINE
5
361
100
AcDbEntity
8
0
100
AcDbLine
10
432.43052597731747
20
81.954821724867543
30
0
11
432.43052597731747
21
81.586472172713002
31
0
0
LINE
5
362
100
AcDbEntity
8
0
100
AcDbLine
10
432.43052597731747
20
81.586472172713002
30
0
11
431.35412748545804
21
81.586472172713002
31
0
0
SPLINE
5
363
100
AcDbEntity
8
0
100
AcDbSpline
70
0
71
2
72
6
73
3
74
0
42
0.000000001
43
0.0000000001
44
0.0000000001
40
0
40
0
40
0
40
1
40
1
40
1
10
431.35412748545804
20
81.586472172713002
30
0
10
431.65289934367337
20
81.328627247786244
30
0
10
431.65289934367337
20
80.935720581984242
30
0
0
SPLINE
5
364
100
AcDbEntity
8
0
100
AcDbSpline
70
0
71
2
72
6
73
3
74
0
42
0.000000001
43
0.0000000001
44
0.0000000001
40
0
40
0
40
0
40
1
40
1
40
1
10
431.65289934367337
20
80.935720581984242
30
0
10
431.65289934367337
20
80.694247860884389
30
0
10
431.55774291247525
20
80.516213555311879
30
0
0
SPLINE
5
365
100
AcDbEntity
8
0
100
AcDbSpline
70
0
71
2
72
6
73
3
74
0
42
0.000000001
43
0.0000000001
44
0.0000000001
40
0
40
0
40
0
40
1
40
1
40
1
10
431.55774291247525
20
80.516213555311879
30
0
10
431.46258588523068
20
80.338176865553578
30
0
10
431.29478271693387
20
80.261437077498158
30
0
0
SPLINE
5
366
100
AcDbEntity
8
0
100
AcDbSpline
70
0
71
2
72
6
73
3
74
0
42
0.000000001
43
0.0000000001
44
0.0000000001
40
0
40
0
40
0
40
1
40
1
40
1
10
431.29478271693387
20
80.261437077498158
30
0
10
431.1269789525906
20
80.184697289442738
30
0
10
430.80774243563809
20
80.184697289442738
30
0
0
LINE
5
367
100
AcDbEntity
8
0
100
AcDbLine
10
430.80774243563809
20
80.184697289442738
30
0
11
429.43052585810818
21
80.184697289442738
31
0
0
LINE
5
368
100
AcDbEntity
8
0
100
AcDbLine
10
429.43052585810818
20
80.184697289442738
30
0
11
429.43052585810818
21
80.553046841597279
31
0
0
LINE
5
369
100
AcDbEntity
8
0
100
AcDbLine
10
429.43052585810818
20
80.553046841597279
30
0
11
430.80774243563809
21
80.553046841597279
31
0
0
SPLINE
5
370
100
AcDbEntity
8
0
100
AcDbSpline
70
0
71
2
72
6
73
3
74
0
42
0.000000001
43
0.0000000001
44
0.0000000001
40
0
40
0
40
0
40
1
40
1
40
1
10
430.80774243563809
20
80.553046841597279
30
0
10
431.084004599754
20
80.553046841597279
30
0
10
431.20985742301144
20
80.672761578535756
30
0
0
SPLINE
5
371
100
AcDbEntity
8
0
100
AcDbSpline
70
0
71
2
72
6
73
3
74
0
42
0.000000001
43
0.0000000001
44
0.0000000001
40
0
40
0
40
0
40
1
40
1
40
1
10
431.20985742301144
20
80.672761578535756
30
0
10
431.33571024626889
20
80.792473931288441
30
0
10
431.33571024626889
20
81.011437554335316
30
0
0
SPLINE
5
372
100
AcDbEntity
8
0
100
AcDbSpline
70
0
71
2
72
6
73
3
74
0
42
0.000000001
43
0.0000000001
44
0.0000000001
40
0
40
0
40
0
40
1
40
1
40
1
10
431.33571024626889
20
81.011437554335316
30
0
10
431.33571024626889
20
81.175147671675404
30
0
10
431.25078495234646
20
81.319417138075551
30
0
0
SPLINE
5
373
100
AcDbEntity
8
0
100
AcDbSpline
70
0
71
2
72
6
73
3
74
0
42
0.000000001
43
0.0000000001
44
0.0000000001
40
0
40
0
40
0
40
1
40
1
40
1
10
431.25078495234646
20
81.319417138075551
30
0
10
431.16586025447049
20
81.463688988661488
30
0
10
431.0205667802731
20
81.525079388594349
30
0
0
SPLINE
5
374
100
AcDbEntity
8
0
100
AcDbSpline
70
0
71
2
72
6
73
3
74
0
42
0.000000001
43
0.0000000001
44
0.0000000001
40
0
40
0
40
0
40
1
40
1
40
1
10
431.0205667802731
20
81.525079388594349
30
0
10
430.87527330607571
20
81.586472172713002
30
0
10
430.61947520465054
20
81.586472172713002
30
0
0
LINE
5
375
100
AcDbEntity
8
0
100
AcDbLine
10
430.61947520465054
20
81.586472172713002
30
0
11
429.43052585810818
21
81.586472172713002
31
0
0
LINE
5
376
100
AcDbEntity
8
0
100
AcDbLine
10
429.43052585810818
20
81.586472172713002
30
0
11
429.43052585810818
21
81.954821724867543
31
0
0
LWPOLYLINE
5
377
100
AcDbEntity
8
0
100
AcDbPolyline
90
4
70
1
43
0.0
10
432.43052597731747
20
79.621941227888783
10
432.00692470759549
20
79.621941227888783
10
432.00692470759549
20
79.253591675734242
10
432.43052597731747
20
79.253591675734242
0
LWPOLYLINE
5
378
100
AcDbEntity
8
0
100
AcDbPolyline
90
4
70
1
43
0.0
10
431.60378630847134
20
79.621941227888783
10
429.43052585810818
20
79.621941227888783
10
429.43052585810818
20
79.253591675734242
10
431.60378630847134
20
79.253591675734242
0
LINE
5
379
100
AcDbEntity
8
0
100
AcDbLine
10
430.07923002928891
20
78.840223927473744
30
0
11
430.13652857035794
21
78.475965638136586
31
0
0
SPLINE
5
380
100
AcDbEntity
8
0
100
AcDbSpline
70
0
71
2
72
6
73
3
74
0
42
0.000000001
43
0.0000000001
44
0.0000000001
40
0
40
0
40
0
40
1
40
1
40
1
10
430.13652857035794
20
78.475965638136586
30
0
10
429.91756554335751
20
78.445271630263051
30
0
10
429.80092163771786
20
78.305093426680287
30
0
0
SPLINE
5
381
100
AcDbEntity
8
0
100
AcDbSpline
70
0
71
2
72
6
73
3
74
0
42
0.000000001
43
0.0000000001
44
0.0000000001
40
0
40
0
40
0
40
1
40
1
40
1
10
429.80092163771786
20
78.305093426680287
30
0
10
429.68427773207821
20
78.164915223097523
30
0
10
429.68427773207821
20
77.913211960768422
30
0
0
SPLINE
5
382
100
AcDbEntity
8
0
100
AcDbSpline
70
0
71
2
72
6
73
3
74
0
42
0.000000001
43
0.0000000001
44
0.0000000001
40
0
40
0
40
0
40
1
40
1
40
1
10
429.68427773207821
20
77.913211960768422
30
0
10
429.68427773207821
20
77.659458298659047
30
0
10
429.78762026518979
20
77.536677498793324
30
0
0
SPLINE
5
383
100
AcDbEntity
8
0
100
AcDbSpline
70
0
71
2
72
6
73
3
74
0
42
0.000000001
43
0.0000000001
44
0.0000000001
40
0
40
0
40
0
40
1
40
1
40
1
10
429.78762026518979
20
77.536677498793324
30
0
10
429.89096220225491
20
77.413891930556019
30
0
10
430.03011639804043
20
77.413891930556019
30
0
0
SPLINE
5
384
100
AcDbEntity
8
0
100
AcDbSpline
70
0
71
2
72
6
73
3
74
0
42
0.000000001
43
0.0000000001
44
0.0000000001
40
0
40
0
40
0
40
1
40
1
40
1
10
430.03011639804043
20
77.413891930556019
30
0
10
430.15494580954709
20
77.413891930556019
30
0
10
430.22656973094143
20
77.522350926375111
30
0
0
SPLINE
5
385
100
AcDbEntity
8
0
100
AcDbSpline
70
0
71
2
72
6
73
3
74
0
42
0.000000001
43
0.0000000001
44
0.0000000001
40
0
40
0
40
0
40
1
40
1
40
1
10
430.22656973094143
20
77.522350926375111
30
0
10
430.27568276614346
20
77.598067898726185
30
0
10
430.35139914244809
20
77.898885388350209
30
0
0
SPLINE
5
386
100
AcDbEntity
8
0
100
AcDbSpline
70
0
71
2
72
6
73
3
74
0
42
0.000000001
43
0.0000000001
44
0.0000000001
40
0
40
0
40
0
40
1
40
1
40
1
10
430.35139914244809
20
77.898885388350209
30
0
10
430.45371826380887
20
78.304070610975941
30
0
10
430.5284112283627
20
78.460618634199818
30
0
0
SPLINE
5
387
100
AcDbEntity
8
0
100
AcDbSpline
70
0
71
2
72
6
73
3
74
0
42
0.000000001
43
0.0000000001
44
0.0000000001
40
0
40
0
40
0
40
1
40
1
40
1
10
430.5284112283627
20
78.460618634199818
30
0
10
430.60310419291653
20
78.617166657423695
30
0
10
430.73509629458584
20
78.698000092482289
30
0
0
SPLINE
5
388
100
AcDbEntity
8
0
100
AcDbSpline
70
0
71
2
72
6
73
3
74
0
42
0.000000001
43
0.0000000001
44
0.0000000001
40
0
40
0
40
0
40
1
40
1
40
1
10
430.73509629458584
20
78.698000092482289
30
0
10
430.86708780020871
20
78.778831143355092
30
0
10
431.02670605868497
20
78.778831143355092
30
0
0
SPLINE
5
389
100
AcDbEntity
8
0
100
AcDbSpline
70
0
71
2
72
6
73
3
74
0
42
0.000000001
43
0.0000000001
44
0.0000000001
40
0
40
0
40
0
40
1
40
1
40
1
10
431.02670605868497
20
78.778831143355092
30
0
10
431.17199953288235
20
78.778831143355092
30
0
10
431.29580553263821
20
78.712324280714711
30
0
0
SPLINE
5
390
100
AcDbEntity
8
0
100
AcDbSpline
70
0
71
2
72
6
73
3
74
0
42
0.000000001
43
0.0000000001
44
0.0000000001
40
0
40
0
40
0
40
1
40
1
40
1
10
431.29580553263821
20
78.712324280714711
30
0
10
431.41961153239407
20
78.64581741807433
30
0
10
431.50146718711056
20
78.531219143843373
30
0
0
SPLINE
5
391
100
AcDbEntity
8
0
100
AcDbSpline
70
0
71
2
72
6
73
3
74
0
42
0.000000001
43
0.0000000001
44
0.0000000001
40
0
40
0
40
0
40
1
40
1
40
1
10
431.50146718711056
20
78.531219143843373
30
0
10
431.56490500659146
20
78.445271630263051
30
0
10
431.60890277117886
20
78.29690851685973
30
0
0
SPLINE
5
392
100
AcDbEntity
8
0
100
AcDbSpline
70
0
71
2
72
6
73
3
74
0
42
0.000000001
43
0.0000000001
44
0.0000000001
40
0
40
0
40
0
40
1
40
1
40
1
10
431.60890277117886
20
78.29690851685973
30
0
10
431.65289993971982
20
78.14854540345641
30
0
10
431.65289993971982
20
77.978696007704457
30
0
0
SPLINE
5
393
100
AcDbEntity
8
0
100
AcDbSpline
70
0
71
2
72
6
73
3
74
0
42
0.000000001
43
0.0000000001
44
0.0000000001
40
0
40
0
40
0
40
1
40
1
40
1
10
431.65289993971982
20
77.978696007704457
30
0
10
431.65289993971982
20
77.72289671418639
30
0
10
431.57922979087033
20
77.529513020491322
30
0
0
SPLINE
5
394
100
AcDbEntity
8
0
100
AcDbSpline
70
0
71
2
72
6
73
3
74
0
42
0.000000001
43
0.0000000001
44
0.0000000001
40
0
40
0
40
0
40
1
40
1
40
1
10
431.57922979087033
20
77.529513020491322
30
0
10
431.50556023806729
20
77.336129326796254
30
0
10
431.37970741480984
20
77.244042534804066
30
0
0
SPLINE
5
395
100
AcDbEntity
8
0
100
AcDbSpline
70
0
71
2
72
6
73
3
74
0
42
0.000000001
43
0.0000000001
44
0.0000000001
40
0
40
0
40
0
40
1
40
1
40
1
10
431.37970741480984
20
77.244042534804066
30
0
10
431.2538545915524
20
77.151955742811879
30
0
10
431.04307707041897
20
77.117165703749379
30
0
0
LINE
5
396
100
AcDbEntity
8
0
100
AcDbLine
10
431.04307707041892
20
77.117165703749379
30
0
11
430.99396403521695
21
77.477330346083363
31
0
0
SPLINE
5
397
100
AcDbEntity
8
0
100
AcDbSpline
70
0
71
2
72
6
73
3
74
0
42
0.000000001
43
0.0000000001
44
0.0000000001
40
0
40
0
40
0
40
1
40
1
40
1
10
430.99396403521695
20
77.477330346083363
30
0
10
431.16176720351376
20
77.501887459730824
30
0
10
431.25590141505398
20
77.619554181074818
30
0
0
SPLINE
5
398
100
AcDbEntity
8
0
100
AcDbSpline
70
0
71
2
72
6
73
3
74
0
42
0.000000001
43
0.0000000001
44
0.0000000001
40
0
40
0
40
0
40
1
40
1
40
1
10
431.25590141505398
20
77.619554181074818
30
0
10
431.35003503054776
20
77.737220902418812
30
0
10
431.35003503054776
20
77.952093262648305
30
0
0
SPLINE
5
399
100
AcDbEntity
8
0
100
AcDbSpline
70
0
71
2
72
6
73
3
74
0
42
0.000000001
43
0.0000000001
44
0.0000000001
40
0
40
0
40
0
40
1
40
1
40
1
10
431.35003503054776
20
77.952093262648305
30
0
10
431.35003503054776
20
78.205844540571889
30
0
10
431.26613314837613
20
78.31430353639098
30
0
0
SPLINE
5
400
100
AcDbEntity
8
0
100
AcDbSpline
70
0
71
2
72
6
73
3
74
0
42
0.000000001
43
0.0000000001
44
0.0000000001
40
0
40
0
40
0
40
1
40
1
40
1
10
431.26613314837613
20
78.31430353639098
30
0
10
431.1822312662045
20
78.422760148024281
30
0
10
431.06967981547513
20
78.422760148024281
30
0
0
SPLINE
5
401
100
AcDbEntity
8
0
100
AcDbSpline
70
0
71
2
72
6
73
3
74
0
42
0.000000001
43
0.0000000001
44
0.0000000001
40
0
40
0
40
0
40
1
40
1
40
1
10
431.06967981547513
20
78.422760148024281
30
0
10
430.99805649012723
20
78.422760148024281
30
0
10
430.9407579490582
20
78.377739567732533
30
0
0
SPLINE
5
402
100
AcDbEntity
8
0
100
AcDbSpline
70
0
71
2
72
6
73
3
74
0
42
0.000000001
43
0.0000000001
44
0.0000000001
40
0
40
0
40
0
40
1
40
1
40
1
10
430.9407579490582
20
78.377739567732533
30
0
10
430.88141258448758
20
78.332718987440785
30
0
10
430.84253128260769
20
78.236540932631215
30
0
0
SPLINE
5
403
100
AcDbEntity
8
0
100
AcDbSpline
70
0
71
2
72
6
73
3
74
0
42
0.000000001
43
0.0000000001
44
0.0000000001
40
0
40
0
40
0
40
1
40
1
40
1
10
430.84253128260769
20
78.236540932631215
30
0
10
430.82206781596341
20
78.181287426924428
30
0
10
430.74839766711392
20
77.911163945173939
30
0
0
SPLINE
5
404
100
AcDbEntity
8
0
100
AcDbSpline
70
0
71
2
72
6
73
3
74
0
42
0.000000001
43
0.0000000001
44
0.0000000001
40
0
40
0
40
0
40
1
40
1
40
1
10
430.74839766711392
20
77.911163945173939
30
0
10
430.64403172225155
20
77.52030529496642
30
0
10
430.57752426356473
20
77.365802903151234
30
0
0
SPLINE
5
405
100
AcDbEntity
8
0
100
AcDbSpline
70
0
71
2
72
6
73
3
74
0
42
0.000000001
43
0.0000000001
44
0.0000000001
40
0
40
0
40
0
40
1
40
1
40
1
10
430.57752426356473
20
77.365802903151234
30
0
10
430.5110168048779
20
77.211300511336049
30
0
10
430.38414116591611
20
77.123307366347035
30
0
0
SPLINE
5
406
100
AcDbEntity
8
0
100
AcDbSpline
70
0
71
2
72
6
73
3
74
0
42
0.000000001
43
0.0000000001
44
0.0000000001
40
0
40
0
40
0
40
1
40
1
40
1
10
430.38414116591611
20
77.123307366347035
30
0
10
430.25726552695431
20
77.03531183717223
30
0
10
430.06899769992032
20
77.03531183717223
30
0
0
SPLINE
5
407
100
AcDbEntity
8
0
100
AcDbSpline
70
0
71
2
72
6
73
3
74
0
42
0.000000001
43
0.0000000001
44
0.0000000001
40
0
40
0
40
0
40
1
40
1
40
1
10
430.06899769992032
20
77.03531183717223
30
0
10
429.88482351988949
20
77.03531183717223
30
0
10
429.7221356222073
20
77.142748017286976
30
0
0
SPLINE
5
408
100
AcDbEntity
8
0
100
AcDbSpline
70
0
71
2
72
6
73
3
74
0
42
0.000000001
43
0.0000000001
44
0.0000000001
40
0
40
0
40
0
40
1
40
1
40
1
10
429.7221356222073
20
77.142748017286976
30
0
10
429.55944832057156
20
77.250181813215931
30
0
10
429.47043057173886
20
77.452773232435902
30
0
0
SPLINE
5
409
100
AcDbEntity
8
0
100
AcDbSpline
70
0
71
2
72
6
73
3
74
0
42
0.000000001
43
0.0000000001
44
0.0000000001
40
0
40
0
40
0
40
1
40
1
40
1
10
429.47043057173886
20
77.452773232435902
30
0
10
429.38141282290616
20
77.655367035841664
30
0
10
429.38141282290616
20
77.911163945173939
30
0
0
SPLINE
5
410
100
AcDbEntity
8
0
100
AcDbSpline
70
0
71
2
72
6
73
3
74
0
42
0.000000001
43
0.0000000001
44
0.0000000001
40
0
40
0
40
0
40
1
40
1
40
1
10
429.38141282290616
20
77.911163945173939
30
0
10
429.38141282290616
20
78.334764618849476
30
0
10
429.55740149706997
20
78.55679907319518
30
0
0
SPLINE
5
411
100
AcDbEntity
8
0
100
AcDbSpline
70
0
71
2
72
6
73
3
74
0
42
0.000000001
43
0.0000000001
44
0.0000000001
40
0
40
0
40
0
40
1
40
1
40
1
10
429.55740149706997
20
78.55679907319518
30
0
10
429.73339076728024
20
78.778831143355092
30
0
10
430.07923002928891
20
78.840223927473744
30
0
0
LINE
5
412
100
AcDbEntity
8
0
100
AcDbLine
10
430.07923002928891
20
75.580331463789662
30
0
11
430.13652857035794
21
75.216075558638295
31
0
0
SPLINE
5
413
100
AcDbEntity
8
0
100
AcDbSpline
70
0
71
2
72
6
73
3
74
0
42
0.000000001
43
0.0000000001
44
0.0000000001
40
0
40
0
40
0
40
1
40
1
40
1
10
430.13652857035794
20
75.216075558638295
30
0
10
429.91756554335751
20
75.185379166578969
30
0
10
429.80092163771786
20
75.045203347181996
30
0
0
SPLINE
5
414
100
AcDbEntity
8
0
100
AcDbSpline
70
0
71
2
72
6
73
3
74
0
42
0.000000001
43
0.0000000001
44
0.0000000001
40
0
40
0
40
0
40
1
40
1
40
1
10
429.80092163771786
20
75.045203347181996
30
0
10
429.68427773207821
20
74.905025143599232
30
0
10
429.68427773207821
20
74.65331949708434
30
0
0
SPLINE
5
415
100
AcDbEntity
8
0
100
AcDbSpline
70
0
71
2
72
6
73
3
74
0
42
0.000000001
43
0.0000000001
44
0.0000000001
40
0
40
0
40
0
40
1
40
1
40
1
10
429.68427773207821
20
74.65331949708434
30
0
10
429.68427773207821
20
74.399568219160756
30
0
10
429.78762026518979
20
74.276785035109242
30
0
0
SPLINE
5
416
100
AcDbEntity
8
0
100
AcDbSpline
70
0
71
2
72
6
73
3
74
0
42
0.000000001
43
0.0000000001
44
0.0000000001
40
0
40
0
40
0
40
1
40
1
40
1
10
429.78762026518979
20
74.276785035109242
30
0
10
429.89096220225491
20
74.154001851057728
30
0
10
430.03011639804043
20
74.154001851057728
30
0
0
SPLINE
5
417
100
AcDbEntity
8
0
100
AcDbSpline
70
0
71
2
72
6
73
3
74
0
42
0.000000001
43
0.0000000001
44
0.0000000001
40
0
40
0
40
0
40
1
40
1
40
1
10
430.03011639804043
20
74.154001851057728
30
0
10
430.15494580954709
20
74.154001851057728
30
0
10
430.22656973094143
20
74.26246084687682
30
0
0
SPLINE
5
418
100
AcDbEntity
8
0
100
AcDbSpline
70
0
71
2
72
6
73
3
74
0
42
0.000000001
43
0.0000000001
44
0.0000000001
40
0
40
0
40
0
40
1
40
1
40
1
10
430.22656973094143
20
74.26246084687682
30
0
10
430.27568276614346
20
74.338177819227894
30
0
10
430.35139914244809
20
74.638995308851918
30
0
0
SPLINE
5
419
100
AcDbEntity
8
0
100
AcDbSpline
70
0
71
2
72
6
73
3
74
0
42
0.000000001
43
0.0000000001
44
0.0000000001
40
0
40
0
40
0
40
1
40
1
40
1
10
430.35139914244809
20
74.638995308851918
30
0
10
430.45371826380887
20
75.044178147291859
30
0
10
430.5284112283627
20
75.200728554701527
30
0
0
SPLINE
5
420
100
AcDbEntity
8
0
100
AcDbSpline
70
0
71
2
72
6
73
3
74
0
42
0.000000001
43
0.0000000001
44
0.0000000001
40
0
40
0
40
0
40
1
40
1
40
1
10
430.5284112283627
20
75.200728554701527
30
0
10
430.60310419291653
20
75.357276577925404
30
0
10
430.73509629458584
20
75.438107628798207
30
0
0
SPLINE
5
421
100
AcDbEntity
8
0
100
AcDbSpline
70
0
71
2
72
6
73
3
74
0
42
0.000000001
43
0.0000000001
44
0.0000000001
40
0
40
0
40
0
40
1
40
1
40
1
10
430.73509629458584
20
75.438107628798207
30
0
10
430.86708780020871
20
75.518941063856801
30
0
10
431.02670605868497
20
75.518941063856801
30
0
0
SPLINE
5
422
100
AcDbEntity
8
0
100
AcDbSpline
70
0
71
2
72
6
73
3
74
0
42
0.000000001
43
0.0000000001
44
0.0000000001
40
0
40
0
40
0
40
1
40
1
40
1
10
431.02670605868497
20
75.518941063856801
30
0
10
431.17199953288235
20
75.518941063856801
30
0
10
431.29580553263821
20
75.452431817030629
30
0
0
SPLINE
5
423
100
AcDbEntity
8
0
100
AcDbSpline
70
0
71
2
72
6
73
3
74
0
42
0.000000001
43
0.0000000001
44
0.0000000001
40
0
40
0
40
0
40
1
40
1
40
1
10
431.29580553263821
20
75.452431817030629
30
0
10
431.41961153239407
20
75.385924954390248
30
0
10
431.50146718711056
20
75.271329064345082
30
0
0
SPLINE
5
424
100
AcDbEntity
8
0
100
AcDbSpline
70
0
71
2
72
6
73
3
74
0
42
0.000000001
43
0.0000000001
44
0.0000000001
40
0
40
0
40
0
40
1
40
1
40
1
10
431.50146718711056
20
75.271329064345082
30
0
10
431.56490500659146
20
75.185379166578969
30
0
10
431.60890277117886
20
75.037016053175648
30
0
0
SPLINE
5
425
100
AcDbEntity
8
0
100
AcDbSpline
70
0
71
2
72
6
73
3
74
0
42
0.000000001
43
0.0000000001
44
0.0000000001
40
0
40
0
40
0
40
1
40
1
40
1
10
431.60890277117886
20
75.037016053175648
30
0
10
431.65289993971982
20
74.888652939772328
30
0
10
431.65289993971982
20
74.718803544020375
30
0
0
SPLINE
5
426
100
AcDbEntity
8
0
100
AcDbSpline
70
0
71
2
72
6
73
3
74
0
42
0.000000001
43
0.0000000001
44
0.0000000001
40
0
40
0
40
0
40
1
40
1
40
1
10
431.65289993971982
20
74.718803544020375
30
0
10
431.65289993971982
20
74.463006634688099
30
0
10
431.57922979087033
20
74.269622940993031
30
0
0
SPLINE
5
427
100
AcDbEntity
8
0
100
AcDbSpline
70
0
71
2
72
6
73
3
74
0
42
0.000000001
43
0.0000000001
44
0.0000000001
40
0
40
0
40
0
40
1
40
1
40
1
10
431.57922979087033
20
74.269622940993031
30
0
10
431.50556023806729
20
74.076239247297963
30
0
10
431.37970741480984
20
73.984152455305775
30
0
0
SPLINE
5
428
100
AcDbEntity
8
0
100
AcDbSpline
70
0
71
2
72
6
73
3
74
0
42
0.000000001
43
0.0000000001
44
0.0000000001
40
0
40
0
40
0
40
1
40
1
40
1
10
431.37970741480984
20
73.984152455305775
30
0
10
431.2538545915524
20
73.892063279127797
30
0
10
431.04307707041897
20
73.857275624251088
30
0
0
LINE
5
429
100
AcDbEntity
8
0
100
AcDbLine
10
431.04307707041892
20
73.857275624251088
30
0
11
430.99396403521695
21
74.217440266585072
31
0
0
SPLINE
5
430
100
AcDbEntity
8
0
100
AcDbSpline
70
0
71
2
72
6
73
3
74
0
42
0.000000001
43
0.0000000001
44
0.0000000001
40
0
40
0
40
0
40
1
40
1
40
1
10
430.99396403521695
20
74.217440266585072
30
0
10
431.16176720351376
20
74.241994996046742
30
0
10
431.25590141505398
20
74.359664101576527
30
0
0
SPLINE
5
431
100
AcDbEntity
8
0
100
AcDbSpline
70
0
71
2
72
6
73
3
74
0
42
0.000000001
43
0.0000000001
44
0.0000000001
40
0
40
0
40
0
40
1
40
1
40
1
10
431.25590141505398
20
74.359664101576527
30
0
10
431.35003503054776
20
74.477330822920521
30
0
10
431.35003503054776
20
74.692200798964222
30
0
0
SPLINE
5
432
100
AcDbEntity
8
0
100
AcDbSpline
70
0
71
2
72
6
73
3
74
0
42
0.000000001
43
0.0000000001
44
0.0000000001
40
0
40
0
40
0
40
1
40
1
40
1
10
431.35003503054776
20
74.692200798964222
30
0
10
431.35003503054776
20
74.945952076887806
30
0
10
431.26613314837613
20
75.054411072706898
30
0
0
SPLINE
5
433
100
AcDbEntity
8
0
100
AcDbSpline
70
0
71
2
72
6
73
3
74
0
42
0.000000001
43
0.0000000001
44
0.0000000001
40
0
40
0
40
0
40
1
40
1
40
1
10
431.26613314837613
20
75.054411072706898
30
0
10
431.1822312662045
20
75.16287006852599
30
0
10
431.06967981547513
20
75.16287006852599
30
0
0
SPLINE
5
434
100
AcDbEntity
8
0
100
AcDbSpline
70
0
71
2
72
6
73
3
74
0
42
0.000000001
43
0.0000000001
44
0.0000000001
40
0
40
0
40
0
40
1
40
1
40
1
10
431.06967981547513
20
75.16287006852599
30
0
10
430.99805649012723
20
75.16287006852599
30
0
10
430.9407579490582
20
75.117849488234242
30
0
0
SPLINE
5
435
100
AcDbEntity
8
0
100
AcDbSpline
70
0
71
2
72
6
73
3
74
0
42
0.000000001
43
0.0000000001
44
0.0000000001
40
0
40
0
40
0
40
1
40
1
40
1
10
430.9407579490582
20
75.117849488234242
30
0
10
430.88141258448758
20
75.072828907942494
30
0
10
430.84253128260769
20
74.976648468947133
30
0
0
SPLINE
5
436
100
AcDbEntity
8
0
100
AcDbSpline
70
0
71
2
72
6
73
3
74
0
42
0.000000001
43
0.0000000001
44
0.0000000001
40
0
40
0
40
0
40
1
40
1
40
1
10
430.84253128260769
20
74.976648468947133
30
0
10
430.82206781596341
20
74.921397347426137
30
0
10
430.74839766711392
20
74.651273865675648
30
0
0
SPLINE
5
437
100
AcDbEntity
8
0
100
AcDbSpline
70
0
71
2
72
6
73
3
74
0
42
0.000000001
43
0.0000000001
44
0.0000000001
40
0
40
0
40
0
40
1
40
1
40
1
10
430.74839766711392
20
74.651273865675648
30
0
10
430.64403172225155
20
74.260415215468129
30
0
10
430.57752426356473
20
74.105910439467152
30
0
0
SPLINE
5
438
100
AcDbEntity
8
0
100
AcDbSpline
70
0
71
2
72
6
73
3
74
0
42
0.000000001
43
0.0000000001
44
0.0000000001
40
0
40
0
40
0
40
1
40
1
40
1
10
430.57752426356473
20
74.105910439467152
30
0
10
430.5110168048779
20
73.951410431837758
30
0
10
430.38414116591611
20
73.863414902662953
30
0
0
SPLINE
5
439
100
AcDbEntity
8
0
100
AcDbSpline
70
0
71
2
72
6
73
3
74
0
42
0.000000001
43
0.0000000001
44
0.0000000001
40
0
40
0
40
0
40
1
40
1
40
1
10
430.38414116591611
20
73.863414902662953
30
0
10
430.25726552695431
20
73.775419373488148
30
0
10
430.06899769992032
20
73.775419373488148
30
0
0
SPLINE
5
440
100
AcDbEntity
8
0
100
AcDbSpline
70
0
71
2
72
6
73
3
74
0
42
0.000000001
43
0.0000000001
44
0.0000000001
40
0
40
0
40
0
40
1
40
1
40
1
10
430.06899769992032
20
73.775419373488148
30
0
10
429.88482351988949
20
73.775419373488148
30
0
10
429.7221356222073
20
73.882855553602894
30
0
0
SPLINE
5
441
100
AcDbEntity
8
0
100
AcDbSpline
70
0
71
2
72
6
73
3
74
0
42
0.000000001
43
0.0000000001
44
0.0000000001
40
0
40
0
40
0
40
1
40
1
40
1
10
429.7221356222073
20
73.882855553602894
30
0
10
429.55944832057156
20
73.99029173371764
30
0
10
429.47043057173886
20
74.192883152937611
30
0
0
SPLINE
5
442
100
AcDbEntity
8
0
100
AcDbSpline
70
0
71
2
72
6
73
3
74
0
42
0.000000001
43
0.0000000001
44
0.0000000001
40
0
40
0
40
0
40
1
40
1
40
1
10
429.47043057173886
20
74.192883152937611
30
0
10
429.38141282290616
20
74.395474572157582
30
0
10
429.38141282290616
20
74.651273865675648
30
0
0
SPLINE
5
443
100
AcDbEntity
8
0
100
AcDbSpline
70
0
71
2
72
6
73
3
74
0
42
0.000000001
43
0.0000000001
44
0.0000000001
40
0
40
0
40
0
40
1
40
1
40
1
10
429.38141282290616
20
74.651273865675648
30
0
10
429.38141282290616
20
75.074874539351185
30
0
10
429.55740149706997
20
75.296906609511097
30
0
0
SPLINE
5
444
100
AcDbEntity
8
0
100
AcDbSpline
70
0
71
2
72
6
73
3
74
0
42
0.000000001
43
0.0000000001
44
0.0000000001
40
0
40
0
40
0
40
1
40
1
40
1
10
429.55740149706997
20
75.296906609511097
30
0
10
429.73339076728024
20
75.518941063856801
30
0
10
430.07923002928891
20
75.580331463789662
30
0
0
LWPOLYLINE
5
445
100
AcDbEntity
8
0
100
AcDbPolyline
90
4
70
1
43
0.0
10
432.43052597731747
20
73.335446495985707
10
432.00692470759549
20
73.335446495985707
10
432.00692470759549
20
72.967099328016957
10
432.43052597731747
20
72.967099328016957
0
LWPOLYLINE
5
446
100
AcDbEntity
8
0
100
AcDbPolyline
90
4
70
1
43
0.0
10
431.60378630847134
20
73.335446495985707
10
429.43052585810818
20
73.335446495985707
10
429.43052585810818
20
72.967099328016957
10
431.60378630847134
20
72.967099328016957
0
LINE
5
447
100
AcDbEntity
8
0
100
AcDbLine
10
429.43052585810818
20
70.996431488966664
30
0
11
429.7047411987225
21
70.996431488966664
31
0
0
SPLINE
5
448
100
AcDbEntity
8
0
100
AcDbSpline
70
0
71
2
72
6
73
3
74
0
42
0.000000001
43
0.0000000001
44
0.0000000001
40
0
40
0
40
0
40
1
40
1
40
1
10
429.7047411987225
20
70.996431488966664
30
0
10
429.38141282290616
20
71.203116555189808
30
0
10
429.38141282290616
20
71.604208130812367
30
0
0
SPLINE
5
449
100
AcDbEntity
8
0
100
AcDbSpline
70
0
71
2
72
6
73
3
74
0
42
0.000000001
43
0.0000000001
44
0.0000000001
40
0
40
0
40
0
40
1
40
1
40
1
10
429.38141282290616
20
71.604208130812367
30
0
10
429.38141282290616
20
71.864098687147816
30
0
10
429.52465947360196
20
72.082037110304555
30
0
0
SPLINE
5
450
100
AcDbEntity
8
0
100
AcDbSpline
70
0
71
2
72
6
73
3
74
0
42
0.000000001
43
0.0000000001
44
0.0000000001
40
0
40
0
40
0
40
1
40
1
40
1
10
429.52465947360196
20
72.082037110304555
30
0
10
429.66790672034421
20
72.299977917647084
30
0
10
429.92472763747372
20
72.419690270399769
30
0
0
SPLINE
5
451
100
AcDbEntity
8
0
100
AcDbSpline
70
0
71
2
72
6
73
3
74
0
42
0.000000001
43
0.0000000001
44
0.0000000001
40
0
40
0
40
0
40
1
40
1
40
1
10
429.92472763747372
20
72.419690270399769
30
0
10
430.18154915064969
20
72.539405007338246
30
0
10
430.51510985583462
20
72.539405007338246
30
0
0
SPLINE
5
452
100
AcDbEntity
8
0
100
AcDbSpline
70
0
71
2
72
6
73
3
74
0
42
0.000000001
43
0.0000000001
44
0.0000000001
40
0
40
0
40
0
40
1
40
1
40
1
10
430.51510985583462
20
72.539405007338246
30
0
10
430.84048505515256
20
72.539405007338246
30
0
10
431.10549147814908
20
72.430948395704945
30
0
0
SPLINE
5
453
100
AcDbEntity
8
0
100
AcDbSpline
70
0
71
2
72
6
73
3
74
0
42
0.000000001
43
0.0000000001
44
0.0000000001
40
0
40
0
40
0
40
1
40
1
40
1
10
431.10549147814908
20
72.430948395704945
30
0
10
431.37049849719205
20
72.322487015700062
30
0
10
431.51169892043271
20
72.10557140824767
30
0
0
SPLINE
5
454
100
AcDbEntity
8
0
100
AcDbSpline
70
0
71
2
72
6
73
3
74
0
42
0.000000001
43
0.0000000001
44
0.0000000001
40
0
40
0
40
0
40
1
40
1
40
1
10
431.51169892043271
20
72.10557140824767
30
0
10
431.65289934367337
20
71.888655800795277
30
0
10
431.65289934367337
20
71.62057795045348
30
0
0
SPLINE
5
455
100
AcDbEntity
8
0
100
AcDbSpline
70
0
71
2
72
6
73
3
74
0
42
0.000000001
43
0.0000000001
44
0.0000000001
40
0
40
0
40
0
40
1
40
1
40
1
10
431.65289934367337
20
71.62057795045348
30
0
10
431.65289934367337
20
71.424125809645375
30
0
10
431.57002087325253
20
71.270646233534535
30
0
0
SPLINE
5
456
100
AcDbEntity
8
0
100
AcDbSpline
70
0
71
2
72
6
73
3
74
0
42
0.000000001
43
0.0000000001
44
0.0000000001
40
0
40
0
40
0
40
1
40
1
40
1
10
431.57002087325253
20
71.270646233534535
30
0
10
431.48714240283169
20
71.117166657423695
30
0
10
431.35412748545804
20
71.020988602614125
30
0
0
LINE
5
457
100
AcDbEntity
8
0
100
AcDbLine
10
431.35412748545804
20
71.020988602614125
30
0
11
432.43052538127102
21
71.020988602614125
31
0
0
LINE
5
458
100
AcDbEntity
8
0
100
AcDbLine
10
432.43052538127102
20
71.020988602614125
30
0
11
432.43052538127102
21
70.654684681868275
31
0
0
LINE
5
459
100
AcDbEntity
8
0
100
AcDbLine
10
432.43052538127102
20
70.654684681868275
30
0
11
429.43052585810818
21
70.654684681868275
31
0
0
LINE
5
460
100
AcDbEntity
8
0
100
AcDbLine
10
429.43052585810818
20
70.654684681868275
30
0
11
429.43052585810818
21
70.996431488966664
31
0
0
SPLINE
5
461
100
AcDbEntity
8
0
100
AcDbSpline
70
0
71
2
72
6
73
3
74
0
42
0.000000001
43
0.0000000001
44
0.0000000001
40
0
40
0
40
0
40
1
40
1
40
1
10
430.51510985583462
20
72.160824913954457
30
0
10
430.09764726847806
20
72.160824913954457
30
0
10
429.89096220225491
20
71.984833855604847
30
0
0
SPLINE
5
462
100
AcDbEntity
8
0
100
AcDbSpline
70
0
71
2
72
6
73
3
74
0
42
0.000000001
43
0.0000000001
44
0.0000000001
40
0
40
0
40
0
40
1
40
1
40
1
10
429.89096220225491
20
71.984833855604847
30
0
10
429.68427773207821
20
71.808845181441029
30
0
10
429.68427773207821
20
71.569418091749867
30
0
0
SPLINE
5
463
100
AcDbEntity
8
0
100
AcDbSpline
70
0
71
2
72
6
73
3
74
0
42
0.000000001
43
0.0000000001
44
0.0000000001
40
0
40
0
40
0
40
1
40
1
40
1
10
429.68427773207821
20
71.569418091749867
30
0
10
429.68427773207821
20
71.327945370650014
30
0
10
429.88175388068356
20
71.159118790602406
30
0
0
SPLINE
5
464
100
AcDbEntity
8
0
100
AcDbSpline
70
0
71
2
72
6
73
3
74
0
42
0.000000001
43
0.0000000001
44
0.0000000001
40
0
40
0
40
0
40
1
40
1
40
1
10
429.88175388068356
20
71.159118790602406
30
0
10
430.07922943324246
20
70.990292210554799
30
0
10
430.48441405982175
20
70.990292210554799
30
0
0
SPLINE
5
465
100
AcDbEntity
8
0
100
AcDbSpline
70
0
71
2
72
6
73
3
74
0
42
0.000000001
43
0.0000000001
44
0.0000000001
40
0
40
0
40
0
40
1
40
1
40
1
10
430.48441405982175
20
70.990292210554799
30
0
10
430.9305256196896
20
70.990292210554799
30
0
10
431.13925691336789
20
71.162189621901234
30
0
0
SPLINE
5
466
100
AcDbEntity
8
0
100
AcDbSpline
70
0
71
2
72
6
73
3
74
0
42
0.000000001
43
0.0000000001
44
0.0000000001
40
0
40
0
40
0
40
1
40
1
40
1
10
431.13925691336789
20
71.162189621901234
30
0
10
431.34798820704617
20
71.334084649061879
30
0
10
431.34798820704617
20
71.585790295576771
30
0
0
SPLINE
5
467
100
AcDbEntity
8
0
100
AcDbSpline
70
0
71
2
72
6
73
3
74
0
42
0.000000001
43
0.0000000001
44
0.0000000001
40
0
40
0
40
0
40
1
40
1
40
1
10
431.34798820704617
20
71.585790295576771
30
0
10
431.34798820704617
20
71.831354279494008
30
0
10
431.14744241923489
20
71.996089596724232
30
0
0
SPLINE
5
468
100
AcDbEntity
8
0
100
AcDbSpline
70
0
71
2
72
6
73
3
74
0
42
0.000000001
43
0.0000000001
44
0.0000000001
40
0
40
0
40
0
40
1
40
1
40
1
10
431.14744241923489
20
71.996089596724232
30
0
10
430.94689663142361
20
72.160824913954457
30
0
10
430.51510985583462
20
72.160824913954457
30
0
0
LINE
5
469
100
AcDbEntity
8
0
100
AcDbLine
10
430.13038929194607
20
68.587836403822621
30
0
11
430.08332248419919
21
68.207208294844349
31
0
0
SPLINE
5
470
100
AcDbEntity
8
0
100
AcDbSpline
70
0
71
2
72
6
73
3
74
0
42
0.000000001
43
0.0000000001
44
0.0000000001
40
0
40
0
40
0
40
1
40
1
40
1
10
430.08332248419919
20
68.207208294844349
30
0
10
429.74976177901425
20
68.297249455427846
30
0
10
429.56558700293698
20
68.54076780793639
30
0
0
SPLINE
5
471
100
AcDbEntity
8
0
100
AcDbSpline
70
0
71
2
72
6
73
3
74
0
42
0.000000001
43
0.0000000001
44
0.0000000001
40
0
40
0
40
0
40
1
40
1
40
1
10
429.56558700293698
20
68.54076780793639
30
0
10
429.38141282290616
20
68.784288544630726
30
0
10
429.38141282290616
20
69.162868638014515
30
0
0
SPLINE
5
472
100
AcDbEntity
8
0
100
AcDbSpline
70
0
71
2
72
6
73
3
74
0
42
0.000000001
43
0.0000000001
44
0.0000000001
40
0
40
0
40
0
40
1
40
1
40
1
10
429.38141282290616
20
69.162868638014515
30
0
10
429.38141282290616
20
69.639677185988148
30
0
10
429.67506881446042
20
69.919008393263539
30
0
0
SPLINE
5
473
100
AcDbEntity
8
0
100
AcDbSpline
70
0
71
2
72
6
73
3
74
0
42
0.000000001
43
0.0000000001
44
0.0000000001
40
0
40
0
40
0
40
1
40
1
40
1
10
429.67506881446042
20
69.919008393263539
30
0
10
429.96872480601468
20
70.19833960053893
30
0
10
430.49873884410061
20
70.19833960053893
30
0
0
SPLINE
5
474
100
AcDbEntity
8
0
100
AcDbSpline
70
0
71
2
72
6
73
3
74
0
42
0.000000001
43
0.0000000001
44
0.0000000001
40
0
40
0
40
0
40
1
40
1
40
1
10
430.49873884410061
20
70.19833960053893
30
0
10
431.04716952532925
20
70.19833960053893
30
0
10
431.35003503054776
20
69.915939946150502
30
0
0
SPLINE
5
475
100
AcDbEntity
8
0
100
AcDbSpline
70
0
71
2
72
6
73
3
74
0
42
0.000000001
43
0.0000000001
44
0.0000000001
40
0
40
0
40
0
40
1
40
1
40
1
10
431.35003503054776
20
69.915939946150502
30
0
10
431.65289993971982
20
69.633540291762074
30
0
10
431.65289993971982
20
69.183334488844594
30
0
0
SPLINE
5
476
100
AcDbEntity
8
0
100
AcDbSpline
70
0
71
2
72
6
73
3
74
0
42
0.000000001
43
0.0000000001
44
0.0000000001
40
0
40
0
40
0
40
1
40
1
40
1
10
431.65289993971982
20
69.183334488844594
30
0
10
431.65289993971982
20
68.747452874159535
30
0
10
431.35617430895962
20
68.471192498182972
30
0
0
SPLINE
5
477
100
AcDbEntity
8
0
100
AcDbSpline
70
0
71
2
72
6
73
3
74
0
42
0.000000001
43
0.0000000001
44
0.0000000001
40
0
40
0
40
0
40
1
40
1
40
1
10
431.35617430895962
20
68.471192498182972
30
0
10
431.05944808215298
20
68.194929738020619
30
0
10
430.52124913424649
20
68.194929738020619
30
0
0
SPLINE
5
478
100
AcDbEntity
8
0
100
AcDbSpline
70
0
71
2
72
6
73
3
74
0
42
0.000000001
43
0.0000000001
44
0.0000000001
40
0
40
0
40
0
40
1
40
1
40
1
10
430.52124913424649
20
68.194929738020619
30
0
10
430.48850651473202
20
68.194929738020619
30
0
10
430.42302246779599
20
68.196977753615101
30
0
0
LINE
5
479
100
AcDbEntity
8
0
100
AcDbLine
10
430.42302246779599
20
68.196977753615101
30
0
11
430.42302246779599
21
69.817713875746449
31
0
0
SPLINE
5
480
100
AcDbEntity
8
0
100
AcDbSpline
70
0
71
2
72
6
73
3
74
0
42
0.000000001
43
0.0000000001
44
0.0000000001
40
0
40
0
40
0
40
1
40
1
40
1
10
430.42302246779599
20
69.817713875746449
30
0
10
430.06490524501004
20
69.797248024916371
30
0
10
429.8745911905209
20
69.615120072340687
30
0
0
SPLINE
5
481
100
AcDbEntity
8
0
100
AcDbSpline
70
0
71
2
72
6
73
3
74
0
42
0.000000001
43
0.0000000001
44
0.0000000001
40
0
40
0
40
0
40
1
40
1
40
1
10
429.8745911905209
20
69.615120072340687
30
0
10
429.68427773207821
20
69.432992119765004
30
0
10
429.68427773207821
20
69.160823006605824
30
0
0
SPLINE
5
482
100
AcDbEntity
8
0
100
AcDbSpline
70
0
71
2
72
6
73
3
74
0
42
0.000000001
43
0.0000000001
44
0.0000000001
40
0
40
0
40
0
40
1
40
1
40
1
10
429.68427773207821
20
69.160823006605824
30
0
10
429.68427773207821
20
68.958231587385853
30
0
10
429.79068930834927
20
68.814984936690053
30
0
0
SPLINE
5
483
100
AcDbEntity
8
0
100
AcDbSpline
70
0
71
2
72
6
73
3
74
0
42
0.000000001
43
0.0000000001
44
0.0000000001
40
0
40
0
40
0
40
1
40
1
40
1
10
429.79068930834927
20
68.814984936690053
30
0
10
429.89710148066678
20
68.671738285994252
30
0
10
430.13038929194607
20
68.587836403822621
30
0
0
LINE
5
484
100
AcDbEntity
8
0
100
AcDbLine
10
430.72588737696805
20
69.797248024916371
30
0
11
430.72588737696805
21
68.583742756819447
31
0
0
SPLINE
5
485
100
AcDbEntity
8
0
100
AcDbSpline
70
0
71
2
72
6
73
3
74
0
42
0.000000001
43
0.0000000001
44
0.0000000001
40
0
40
0
40
0
40
1
40
1
40
1
10
430.72588737696805
20
68.583742756819447
30
0
10
431.00010331362881
20
68.608299870466908
30
0
10
431.13721068591275
20
68.722898144697865
30
0
0
SPLINE
5
486
100
AcDbEntity
8
0
100
AcDbSpline
70
0
71
2
72
6
73
3
74
0
42
0.000000001
43
0.0000000001
44
0.0000000001
40
0
40
0
40
0
40
1
40
1
40
1
10
431.13721068591275
20
68.722898144697865
30
0
10
431.35003503054776
20
68.898886818861683
30
0
10
431.35003503054776
20
69.17924084184142
30
0
0
SPLINE
5
487
100
AcDbEntity
8
0
100
AcDbSpline
70
0
71
2
72
6
73
3
74
0
42
0.000000001
43
0.0000000001
44
0.0000000001
40
0
40
0
40
0
40
1
40
1
40
1
10
431.35003503054776
20
69.17924084184142
30
0
10
431.35003503054776
20
69.432992119765004
30
0
10
431.18018503874936
20
69.605912346815785
30
0
0
SPLINE
5
488
100
AcDbEntity
8
0
100
AcDbSpline
70
0
71
2
72
6
73
3
74
0
42
0.000000001
43
0.0000000001
44
0.0000000001
40
0
40
0
40
0
40
1
40
1
40
1
10
431.18018503874936
20
69.605912346815785
30
0
10
431.01033504695096
20
69.778832573866566
30
0
10
430.72588737696805
20
69.797248024916371
30
0
0
LINE
5
489
100
AcDbEntity
8
0
100
AcDbLine
10
429.43052585810818
20
65.156048912977894
30
0
11
429.74976177901425
21
65.156048912977894
31
0
0
SPLINE
5
490
100
AcDbEntity
8
0
100
AcDbSpline
70
0
71
2
72
6
73
3
74
0
42
0.000000001
43
0.0000000001
44
0.0000000001
40
0
40
0
40
0
40
1
40
1
40
1
10
429.74976177901425
20
65.156048912977894
30
0
10
429.38141282290616
20
65.409800190901478
30
0
10
429.38141282290616
20
65.845679421400746
30
0
0
SPLINE
5
491
100
AcDbEntity
8
0
100
AcDbSpline
70
0
71
2
72
6
73
3
74
0
42
0.000000001
43
0.0000000001
44
0.0000000001
40
0
40
0
40
0
40
1
40
1
40
1
10
429.38141282290616
20
65.845679421400746
30
0
10
429.38141282290616
20
66.038040299391469
30
0
10
429.4550823757092
20
66.204821248030385
30
0
0
SPLINE
5
492
100
AcDbEntity
8
0
100
AcDbSpline
70
0
71
2
72
6
73
3
74
0
42
0.000000001
43
0.0000000001
44
0.0000000001
40
0
40
0
40
0
40
1
40
1
40
1
10
429.4550823757092
20
66.204821248030385
30
0
10
429.52875252455868
20
66.371602196669301
30
0
10
429.64028056353726
20
66.452433247542103
30
0
0
SPLINE
5
493
100
AcDbEntity
8
0
100
AcDbSpline
70
0
71
2
72
6
73
3
74
0
42
0.000000001
43
0.0000000001
44
0.0000000001
40
0
40
0
40
0
40
1
40
1
40
1
10
429.64028056353726
20
66.452433247542103
30
0
10
429.75180800646939
20
66.533264298414906
30
0
10
429.91347249240079
20
66.566008706068715
30
0
0
SPLINE
5
494
100
AcDbEntity
8
0
100
AcDbSpline
70
0
71
2
72
6
73
3
74
0
42
0.000000001
43
0.0000000001
44
0.0000000001
40
0
40
0
40
0
40
1
40
1
40
1
10
429.91347249240079
20
66.566008706068715
30
0
10
430.02193089217343
20
66.588517804121693
30
0
10
430.25726552695431
20
66.588517804121693
30
0
0
LINE
5
495
100
AcDbEntity
8
0
100
AcDbLine
10
430.25726552695431
20
66.588517804121693
30
0
11
431.60378630847134
21
66.588517804121693
31
0
0
LINE
5
496
100
AcDbEntity
8
0
100
AcDbLine
10
431.60378630847134
20
66.588517804121693
30
0
11
431.60378630847134
21
66.220168251967152
31
0
0
LINE
5
497
100
AcDbEntity
8
0
100
AcDbLine
10
431.60378630847134
20
66.220168251967152
30
0
11
430.39846595019497
21
66.220168251967152
31
0
0
SPLINE
5
498
100
AcDbEntity
8
0
100
AcDbSpline
70
0
71
2
72
6
73
3
74
0
42
0.000000001
43
0.0000000001
44
0.0000000001
40
0
40
0
40
0
40
1
40
1
40
1
10
430.39846595019497
20
66.220168251967152
30
0
10
430.10992582530179
20
66.220168251967152
30
0
10
430.00965293139615
20
66.197656769728383
30
0
0
SPLINE
5
499
100
AcDbEntity
8
0
100
AcDbSpline
70
0
71
2
72
6
73
3
74
0
42
0.000000001
43
0.0000000001
44
0.0000000001
40
0
40
0
40
0
40
1
40
1
40
1
10
430.00965293139615
20
66.197656769728383
30
0
10
429.86435945719876
20
66.162871499037465
30
0
10
429.78148098677792
20
66.050318856215199
30
0
0
SPLINE
5
500
100
AcDbEntity
8
0
100
AcDbSpline
70
0
71
2
72
6
73
3
74
0
42
0.000000001
43
0.0000000001
44
0.0000000001
40
0
40
0
40
0
40
1
40
1
40
1
10
429.78148098677792
20
66.050318856215199
30
0
10
429.69860251635708
20
65.937766213392933
30
0
10
429.69860251635708
20
65.772010464644154
30
0
0
SPLINE
5
501
100
AcDbEntity
8
0
100
AcDbSpline
70
0
71
2
72
6
73
3
74
0
42
0.000000001
43
0.0000000001
44
0.0000000001
40
0
40
0
40
0
40
1
40
1
40
1
10
429.69860251635708
20
65.772010464644154
30
0
10
429.69860251635708
20
65.606254715895375
30
0
10
429.78352721423306
20
65.460960049605092
30
0
0
SPLINE
5
502
100
AcDbEntity
8
0
100
AcDbSpline
70
0
71
2
72
6
73
3
74
0
42
0.000000001
43
0.0000000001
44
0.0000000001
40
0
40
0
40
0
40
1
40
1
40
1
10
429.78352721423306
20
65.460960049605092
30
0
10
429.86845191210904
20
65.315665383314808
30
0
10
430.01476879805722
20
65.255297799086293
30
0
0
SPLINE
5
503
100
AcDbEntity
8
0
100
AcDbSpline
70
0
71
2
72
6
73
3
74
0
42
0.000000001
43
0.0000000001
44
0.0000000001
40
0
40
0
40
0
40
1
40
1
40
1
10
430.01476879805722
20
65.255297799086293
30
0
10
430.16108508795895
20
65.194930214857777
30
0
10
430.43939347953
20
65.194930214857777
30
0
0
LINE
5
504
100
AcDbEntity
8
0
100
AcDbLine
10
430.43939347953
20
65.194930214857777
30
0
11
431.60378630847134
21
65.194930214857777
31
0
0
LINE
5
505
100
AcDbEntity
8
0
100
AcDbLine
10
431.60378630847134
20
65.194930214857777
30
0
11
431.60378630847134
21
64.826580662703236
31
0
0
LINE
5
506
100
AcDbEntity
8
0
100
AcDbLine
10
431.60378630847134
20
64.826580662703236
30
0
11
429.43052585810818
21
64.826580662703236
31
0
0
LINE
5
507
100
AcDbEntity
8
0
100
AcDbLine
10
429.43052585810818
20
64.826580662703236
30
0
11
429.43052585810818
21
65.156048912977894
31
0
0
LINE
5
508
100
AcDbEntity
8
0
100
AcDbLine
10
428.59764750689664
20
64.249500412916859
30
0
11
431.60378630847134
21
64.249500412916859
31
0
0
LINE
5
509
100
AcDbEntity
8
0
100
AcDbLine
10
431.60378630847134
20
64.249500412916859
30
0
11
431.60378630847134
21
63.913892884230336
31
0
0
LINE
5
510
100
AcDbEntity
8
0
100
AcDbLine
10
431.60378630847134
20
63.913892884230336
30
0
11
431.32138546199002
21
63.913892884230336
31
0
0
SPLINE
5
511
100
AcDbEntity
8
0
100
AcDbSpline
70
0
71
2
72
6
73
3
74
0
42
0.000000001
43
0.0000000001
44
0.0000000001
40
0
40
0
40
0
40
1
40
1
40
1
10
431.32138546199002
20
63.913892884230336
30
0
10
431.48714240283169
20
63.795203347181996
30
0
10
431.57002146929898
20
63.645815033888539
30
0
0
SPLINE
5
512
100
AcDbEntity
8
0
100
AcDbSpline
70
0
71
2
72
6
73
3
74
0
42
0.000000001
43
0.0000000001
44
0.0000000001
40
0
40
0
40
0
40
1
40
1
40
1
10
431.57002146929898
20
63.645815033888539
30
0
10
431.65289934367337
20
63.496431488966664
30
0
10
431.65289934367337
20
63.283609528517445
30
0
0
SPLINE
5
513
100
AcDbEntity
8
0
100
AcDbSpline
70
0
71
2
72
6
73
3
74
0
42
0.000000001
43
0.0000000001
44
0.0000000001
40
0
40
0
40
0
40
1
40
1
40
1
10
431.65289934367337
20
63.283609528517445
30
0
10
431.65289934367337
20
63.005298752760609
30
0
10
431.50965269297757
20
62.79247679231139
30
0
0
SPLINE
5
514
100
AcDbEntity
8
0
100
AcDbSpline
70
0
71
2
72
6
73
3
74
0
42
0.000000001
43
0.0000000001
44
0.0000000001
40
0
40
0
40
0
40
1
40
1
40
1
10
431.50965269297757
20
62.79247679231139
30
0
10
431.36640604228177
20
62.57965006349059
30
0
10
431.10549147814908
20
62.471193451857289
30
0
0
SPLINE
5
515
100
AcDbEntity
8
0
100
AcDbSpline
70
0
71
2
72
6
73
3
74
0
42
0.000000001
43
0.0000000001
44
0.0000000001
40
0
40
0
40
0
40
1
40
1
40
1
10
431.10549147814908
20
62.471193451857289
30
0
10
430.84457810610928
20
62.362732071852406
30
0
10
430.53352709502377
20
62.362732071852406
30
0
0
SPLINE
5
516
100
AcDbEntity
8
0
100
AcDbSpline
70
0
71
2
72
6
73
3
74
0
42
0.000000001
43
0.0000000001
44
0.0000000001
40
0
40
0
40
0
40
1
40
1
40
1
10
430.53352709502377
20
62.362732071852406
30
0
10
430.19996638983883
20
62.362732071852406
30
0
10
429.93291314334073
20
62.482446808790883
30
0
0
SPLINE
5
517
100
AcDbEntity
8
0
100
AcDbSpline
70
0
71
2
72
6
73
3
74
0
42
0.000000001
43
0.0000000001
44
0.0000000001
40
0
40
0
40
0
40
1
40
1
40
1
10
429.93291314334073
20
62.482446808790883
30
0
10
429.66585989684262
20
62.602161545729359
30
0
10
429.52363665789761
20
62.830332894301137
30
0
0
SPLINE
5
518
100
AcDbEntity
8
0
100
AcDbSpline
70
0
71
2
72
6
73
3
74
0
42
0.000000001
43
0.0000000001
44
0.0000000001
40
0
40
0
40
0
40
1
40
1
40
1
10
429.52363665789761
20
62.830332894301137
30
0
10
429.38141282290616
20
63.058504242872914
30
0
10
429.38141282290616
20
63.310207505202015
30
0
0
SPLINE
5
519
100
AcDbEntity
8
0
100
AcDbSpline
70
0
71
2
72
6
73
3
74
0
42
0.000000001
43
0.0000000001
44
0.0000000001
40
0
40
0
40
0
40
1
40
1
40
1
10
429.38141282290616
20
63.310207505202015
30
0
10
429.38141282290616
20
63.494385857557972
30
0
10
429.45917542666592
20
63.640703339552601
30
0
0
SPLINE
5
520
100
AcDbEntity
8
0
100
AcDbSpline
70
0
71
2
72
6
73
3
74
0
42
0.000000001
43
0.0000000001
44
0.0000000001
40
0
40
0
40
0
40
1
40
1
40
1
10
429.45917542666592
20
63.640703339552601
30
0
10
429.53693803042569
20
63.787016053175648
30
0
10
429.65562816352048
20
63.881153244948109
30
0
0
LINE
5
521
100
AcDbEntity
8
0
100
AcDbLine
10
429.65562816352048
20
63.881153244948109
30
0
11
428.59764750689664
21
63.881153244948109
31
0
0
LINE
5
522
100
AcDbEntity
8
0
100
AcDbLine
10
428.59764750689664
20
63.881153244948109
30
0
11
428.59764750689664
21
64.249500412916859
31
0
0
SPLINE
5
523
100
AcDbEntity
8
0
100
AcDbSpline
70
0
71
2
72
6
73
3
74
0
42
0.000000001
43
0.0000000001
44
0.0000000001
40
0
40
0
40
0
40
1
40
1
40
1
10
430.50487812251248
20
63.915938515639027
30
0
10
430.08536871165433
20
63.915938515639027
30
0
10
429.88482351988949
20
63.746089119887074
30
0
0
SPLINE
5
524
100
AcDbEntity
8
0
100
AcDbSpline
70
0
71
2
72
6
73
3
74
0
42
0.000000001
43
0.0000000001
44
0.0000000001
40
0
40
0
40
0
40
1
40
1
40
1
10
429.88482351988949
20
63.746089119887074
30
0
10
429.68427773207821
20
63.576239724135121
30
0
10
429.68427773207821
20
63.334764618849476
30
0
0
SPLINE
5
525
100
AcDbEntity
8
0
100
AcDbSpline
70
0
71
2
72
6
73
3
74
0
42
0.000000001
43
0.0000000001
44
0.0000000001
40
0
40
0
40
0
40
1
40
1
40
1
10
429.68427773207821
20
63.334764618849476
30
0
10
429.68427773207821
20
63.089203019118031
30
0
10
429.8919856140057
20
62.914232392286976
30
0
0
SPLINE
5
526
100
AcDbEntity
8
0
100
AcDbSpline
70
0
71
2
72
6
73
3
74
0
42
0.000000001
43
0.0000000001
44
0.0000000001
40
0
40
0
40
0
40
1
40
1
40
1
10
429.8919856140057
20
62.914232392286976
30
0
10
430.0996934959332
20
62.739271302199086
30
0
10
430.53557391852536
20
62.739271302199086
30
0
0
SPLINE
5
527
100
AcDbEntity
8
0
100
AcDbSpline
70
0
71
2
72
6
73
3
74
0
42
0.000000001
43
0.0000000001
44
0.0000000001
40
0
40
0
40
0
40
1
40
1
40
1
10
430.53557391852536
20
62.739271302199086
30
0
10
430.95098968238034
20
62.739271302199086
30
0
10
431.15767415255704
20
62.910141129469594
30
0
0
SPLINE
5
528
100
AcDbEntity
8
0
100
AcDbSpline
70
0
71
2
72
6
73
3
74
0
42
0.000000001
43
0.0000000001
44
0.0000000001
40
0
40
0
40
0
40
1
40
1
40
1
10
431.15767415255704
20
62.910141129469594
30
0
10
431.36435921878018
20
63.081015725111683
30
0
10
431.36435921878018
20
63.318394799208363
30
0
0
SPLINE
5
529
100
AcDbEntity
8
0
100
AcDbSpline
70
0
71
2
72
6
73
3
74
0
42
0.000000001
43
0.0000000001
44
0.0000000001
40
0
40
0
40
0
40
1
40
1
40
1
10
431.36435921878018
20
63.318394799208363
30
0
10
431.36435921878018
20
63.553728241896351
30
0
10
431.14437278002896
20
63.73483576295348
30
0
0
SPLINE
5
530
100
AcDbEntity
8
0
100
AcDbSpline
70
0
71
2
72
6
73
3
74
0
42
0.000000001
43
0.0000000001
44
0.0000000001
40
0
40
0
40
0
40
1
40
1
40
1
10
431.14437278002896
20
63.73483576295348
30
0
10
430.92438634127774
20
63.915938515639027
30
0
10
430.50487812251248
20
63.915938515639027
30
0
0
LWPOLYLINE
5
531
100
AcDbEntity
8
0
100
AcDbPolyline
90
10
70
1
43
0.0
10
437.6005307526043
20
129.58531370339259
10
434.60053063339501
20
129.58531370339259
10
434.60053063339501
20
129.18831502971514
10
435.9634230226925
20
129.18831502971514
10
435.9634230226925
20
127.78040235814913
10
436.31744749254494
20
127.78040235814913
10
436.31744749254494
20
129.18831502971514
10
437.24650598472863
20
129.18831502971514
10
437.24650598472863
20
127.5614393311487
10
437.6005307526043
20
127.5614393311487
0
LINE
5
532
100
AcDbEntity
8
0
100
AcDbLine
10
435.40491910690309
20
17.702565973486415
30
0
11
435.75689705127718
21
17.702565973486415
31
0
0
LINE
5
533
100
AcDbEntity
8
0
100
AcDbLine
10
435.75689705127718
20
17.702565973486415
30
0
11
435.75894357675554
21
16.431760972227565
31
0
0
LINE
5
534
100
AcDbEntity
8
0
100
AcDbLine
10
435.75894357675554
20
16.431760972227565
30
0
11
434.64571030849459
21
16.431760972227565
31
0
0
SPLINE
5
535
100
AcDbEntity
8
0
100
AcDbSpline
70
0
71
2
72
6
73
3
74
0
42
0.000000001
43
0.0000000001
44
0.0000000001
40
0
40
0
40
0
40
1
40
1
40
1
10
434.64571030849459
20
16.431760972227565
30
0
10
434.41242249721529
20
16.724394148077479
30
0
10
434.29475517982485
20
17.035444563116542
30
0
0
SPLINE
5
536
100
AcDbEntity
8
0
100
AcDbSpline
70
0
71
2
72
6
73
3
74
0
42
0.000000001
43
0.0000000001
44
0.0000000001
40
0
40
0
40
0
40
1
40
1
40
1
10
434.29475517982485
20
17.035444563116542
30
0
10
434.17708816045763
20
17.346494978155604
30
0
10
434.17708816045763
20
17.673916404928676
30
0
0
SPLINE
5
537
100
AcDbEntity
8
0
100
AcDbSpline
70
0
71
2
72
6
73
3
74
0
42
0.000000001
43
0.0000000001
44
0.0000000001
40
0
40
0
40
0
40
1
40
1
40
1
10
434.17708816045763
20
17.673916404928676
30
0
10
434.17708816045763
20
18.115935509886256
30
0
10
434.36637880319597
20
18.477122669901362
30
0
0
SPLINE
5
538
100
AcDbEntity
8
0
100
AcDbSpline
70
0
71
2
72
6
73
3
74
0
42
0.000000001
43
0.0000000001
44
0.0000000001
40
0
40
0
40
0
40
1
40
1
40
1
10
434.36637880319597
20
18.477122669901362
30
0
10
434.55566914791109
20
18.838309531893245
30
0
10
434.91378666872026
20
19.022484158958903
30
0
0
SPLINE
5
539
100
AcDbEntity
8
0
100
AcDbSpline
70
0
71
2
72
6
73
3
74
0
42
0.000000001
43
0.0000000001
44
0.0000000001
40
0
40
0
40
0
40
1
40
1
40
1
10
434.91378666872026
20
19.022484158958903
30
0
10
435.27190389150621
20
19.206658786024562
30
0
10
435.71392329448702
20
19.206658786024562
30
0
0
SPLINE
5
540
100
AcDbEntity
8
0
100
AcDbSpline
70
0
71
2
72
6
73
3
74
0
42
0.000000001
43
0.0000000001
44
0.0000000001
40
0
40
0
40
0
40
1
40
1
40
1
10
435.71392329448702
20
19.206658786024562
30
0
10
436.15184934848787
20
19.206658786024562
30
0
10
436.53145389670374
20
19.023507421698085
30
0
0
SPLINE
5
541
100
AcDbEntity
8
0
100
AcDbSpline
70
0
71
2
72
6
73
3
74
0
42
0.000000001
43
0.0000000001
44
0.0000000001
40
0
40
0
40
0
40
1
40
1
40
1
10
436.53145389670374
20
19.023507421698085
30
0
10
436.91105814689638
20
18.840355908359996
30
0
10
437.09523292297365
20
18.496563320841304
30
0
0
SPLINE
5
542
100
AcDbEntity
8
0
100
AcDbSpline
70
0
71
2
72
6
73
3
74
0
42
0.000000001
43
0.0000000001
44
0.0000000001
40
0
40
0
40
0
40
1
40
1
40
1
10
437.09523292297365
20
18.496563320841304
30
0
10
437.2794074010277
20
18.152770584311
30
0
10
437.2794074010277
20
17.704612200941554
30
0
0
SPLINE
5
543
100
AcDbEntity
8
0
100
AcDbSpline
70
0
71
2
72
6
73
3
74
0
42
0.000000001
43
0.0000000001
44
0.0000000001
40
0
40
0
40
0
40
1
40
1
40
1
10
437.2794074010277
20
17.704612200941554
30
0
10
437.2794074010277
20
17.379237001623622
30
0
10
437.17401864046099
20
17.11627680608224
30
0
0
SPLINE
5
544
100
AcDbEntity
8
0
100
AcDbSpline
70
0
71
2
72
6
73
3
74
0
42
0.000000001
43
0.0000000001
44
0.0000000001
40
0
40
0
40
0
40
1
40
1
40
1
10
437.17401864046099
20
17.11627680608224
30
0
10
437.06862987989427
20
16.853316014494411
30
0
10
436.8803623508835
20
16.703930085386745
30
0
0
SPLINE
5
545
100
AcDbEntity
8
0
100
AcDbSpline
70
0
71
2
72
6
73
3
74
0
42
0.000000001
43
0.0000000001
44
0.0000000001
40
0
40
0
40
0
40
1
40
1
40
1
10
436.8803623508835
20
16.703930085386745
30
0
10
436.69209511989595
20
16.554544156279078
30
0
10
436.38923021072389
20
16.476781552519313
30
0
0
LINE
5
546
100
AcDbEntity
8
0
100
AcDbLine
10
436.38923021072389
20
16.476781552519313
30
0
11
436.29100354427339
21
16.834898775305263
31
0
0
SPLINE
5
547
100
AcDbEntity
8
0
100
AcDbSpline
70
0
71
2
72
6
73
3
74
0
42
0.000000001
43
0.0000000001
44
0.0000000001
40
0
40
0
40
0
40
1
40
1
40
1
10
436.29100354427339
20
16.834898775305263
30
0
10
436.5201987516308
20
16.902429645742885
30
0
10
436.65116729253771
20
17.002702539648524
30
0
0
SPLINE
5
548
100
AcDbEntity
8
0
100
AcDbSpline
70
0
71
2
72
6
73
3
74
0
42
0.000000001
43
0.0000000001
44
0.0000000001
40
0
40
0
40
0
40
1
40
1
40
1
10
436.65116729253771
20
17.002702539648524
30
0
10
436.78213598245623
20
17.102975433554164
30
0
10
436.86092169994356
20
17.289196437086574
30
0
0
SPLINE
5
549
100
AcDbEntity
8
0
100
AcDbSpline
70
0
71
2
72
6
73
3
74
0
42
0.000000001
43
0.0000000001
44
0.0000000001
40
0
40
0
40
0
40
1
40
1
40
1
10
436.86092169994356
20
17.289196437086574
30
0
10
436.93970771545412
20
17.475417440618983
30
0
10
436.93970771545412
20
17.702565973486415
30
0
0
SPLINE
5
550
100
AcDbEntity
8
0
100
AcDbSpline
70
0
71
2
72
6
73
3
74
0
42
0.000000001
43
0.0000000001
44
0.0000000001
40
0
40
0
40
0
40
1
40
1
40
1
10
436.93970771545412
20
17.702565973486415
30
0
10
436.93970771545412
20
17.974735086645595
30
0
10
436.85682894701006
20
18.173234647001735
30
0
0
SPLINE
5
551
100
AcDbEntity
8
0
100
AcDbSpline
70
0
71
2
72
6
73
3
74
0
42
0.000000001
43
0.0000000001
44
0.0000000001
40
0
40
0
40
0
40
1
40
1
40
1
10
436.85682894701006
20
18.173234647001735
30
0
10
436.77395047658922
20
18.371733909334651
30
0
10
436.6388890337372
20
18.493493681635371
30
0
0
SPLINE
5
552
100
AcDbEntity
8
0
100
AcDbSpline
70
0
71
2
72
6
73
3
74
0
42
0.000000001
43
0.0000000001
44
0.0000000001
40
0
40
0
40
0
40
1
40
1
40
1
10
436.6388890337372
20
18.493493681635371
30
0
10
436.50382759088518
20
18.615253751959315
30
0
10
436.34216340297701
20
18.682784324373714
30
0
0
SPLINE
5
553
100
AcDbEntity
8
0
100
AcDbSpline
70
0
71
2
72
6
73
3
74
0
42
0.000000001
43
0.0000000001
44
0.0000000001
40
0
40
0
40
0
40
1
40
1
40
1
10
436.34216340297701
20
18.682784324373714
30
0
10
436.06385501140596
20
18.797381704534999
30
0
10
435.73847981208803
20
18.797381704534999
30
0
0
SPLINE
5
554
100
AcDbEntity
8
0
100
AcDbSpline
70
0
71
2
72
6
73
3
74
0
42
0.000000001
43
0.0000000001
44
0.0000000001
40
0
40
0
40
0
40
1
40
1
40
1
10
435.73847981208803
20
18.797381704534999
30
0
10
435.33738823646547
20
18.797381704534999
30
0
10
435.06726535076143
20
18.65925092050027
30
0
0
SPLINE
5
555
100
AcDbEntity
8
0
100
AcDbSpline
70
0
71
2
72
6
73
3
74
0
42
0.000000001
43
0.0000000001
44
0.0000000001
40
0
40
0
40
0
40
1
40
1
40
1
10
435.06726535076143
20
18.65925092050027
30
0
10
434.79714276308061
20
18.521119838442317
30
0
10
434.6661740731621
20
18.257136231150142
30
0
0
SPLINE
5
556
100
AcDbEntity
8
0
100
AcDbSpline
70
0
71
2
72
6
73
3
74
0
42
0.000000001
43
0.0000000001
44
0.0000000001
40
0
40
0
40
0
40
1
40
1
40
1
10
434.6661740731621
20
18.257136231150142
30
0
10
434.53520538324358
20
17.993152623857966
30
0
10
434.53520538324358
20
17.69642669507455
30
0
0
SPLINE
5
557
100
AcDbEntity
8
0
100
AcDbSpline
70
0
71
2
72
6
73
3
74
0
42
0.000000001
43
0.0000000001
44
0.0000000001
40
0
40
0
40
0
40
1
40
1
40
1
10
434.53520538324358
20
17.69642669507455
30
0
10
434.53520538324358
20
17.43858236619424
30
0
10
434.63445516342165
20
17.193015998091212
30
0
0
SPLINE
5
558
100
AcDbEntity
8
0
100
AcDbSpline
70
0
71
2
72
6
73
3
74
0
42
0.000000001
43
0.0000000001
44
0.0000000001
40
0
40
0
40
0
40
1
40
1
40
1
10
434.63445516342165
20
17.193015998091212
30
0
10
434.73370464557649
20
16.947450226034633
30
0
10
434.84625579828264
20
16.820573991026393
30
0
0
LINE
5
559
100
AcDbEntity
8
0
100
AcDbLine
10
434.84625579828264
20
16.820573991026393
30
0
11
435.40491910690309
21
16.820573991026393
31
0
0
LINE
5
560
100
AcDbEntity
8
0
100
AcDbLine
10
435.40491910690309
20
16.820573991026393
30
0
11
435.40491910690309
21
17.702565973486415
31
0
0
ENDSEC
0
SECTION
2
OBJECTS
0
DICTIONARY
5
C
100
AcDbDictionary
3
ACAD_GROUP
350
D
3
ACAD_MLINESTYLE
350
17
0
DICTIONARY
5
D
100
AcDbDictionary
0
DICTIONARY
5
1A
330
C
100
AcDbDictionary
0
DICTIONARY
5
17
100
AcDbDictionary
0
ENDSEC
0
EOF
