  0
SECTION
  2
HEADER
  9
$ACADVER
  1
AC1014
  9
$ACADMAINTVER
 70
     0
  9
$DWGCODEPAGE
  3
ANSI_1252
  9
$INSBASE
 10
0.0
 20
0.0
 30
0.0
  9
$EXTMIN
 10
0.0
 20
0.0
 30
0.0
  9
$EXTMAX
 10
170.0
 20
220.0
 30
0.0
  9
$LIMMIN
 10
0.0
 20
0.0
  9
$LIMMAX
 10
12.0
 20
9.0
  9
$ORTHOMODE
 70
     0
  9
$REGENMODE
 70
     1
  9
$FILLMODE
 70
     0
  9
$QTEXTMODE
 70
     0
  9
$MIRRTEXT
 70
     1
  9
$DRAGMODE
 70
     2
  9
$LTSCALE
 40
1.0
  9
$OSMODE
 70
    37
  9
$ATTMODE
 70
     1
  9
$TEXTSIZE
 40
0.2
  9
$TRACEWID
 40
0.05
  9
$TEXTSTYLE
  7
STANDARD
  9
$CLAYER
  8
0
  9
$CELTYPE
  6
BYLAYER
  9
$CECOLOR
 62
   256
  9
$CELTSCALE
 40
1.0
  9
$DELOBJ
 70
     1
  9
$DISPSILH
 70
     0
  9
$DIMSCALE
 40
1.0
  9
$DIMASZ
 40
0.18
  9
$DIMEXO
 40
0.0625
  9
$DIMDLI
 40
0.38
  9
$DIMRND
 40
0.0
  9
$DIMDLE
 40
0.0
  9
$DIMEXE
 40
0.18
  9
$DIMTP
 40
0.0
  9
$DIMTM
 40
0.0
  9
$DIMTXT
 40
0.18
  9
$DIMCEN
 40
0.09
  9
$DIMTSZ
 40
0.0
  9
$DIMTOL
 70
     0
  9
$DIMLIM
 70
     0
  9
$DIMTIH
 70
     0
  9
$DIMTOH
 70
     0
  9
$DIMSE1
 70
     0
  9
$DIMSE2
 70
     0
  9
$DIMTAD
 70
     1
  9
$DIMZIN
 70
     0
  9
$DIMBLK
  1

  9
$DIMASO
 70
     1
  9
$DIMSHO
 70
     1
  9
$DIMPOST
  1

  9
$DIMAPOST
  1

  9
$DIMALT
 70
     0
  9
$DIMALTD
 70
     2
  9
$DIMALTF
 40
25.4
  9
$DIMLFAC
 40
1.0
  9
$DIMTOFL
 70
     0
  9
$DIMTVP
 40
0.0
  9
$DIMTIX
 70
     0
  9
$DIMSOXD
 70
     0
  9
$DIMSAH
 70
     0
  9
$DIMBLK1
  1

  9
$DIMBLK2
  1

  9
$DIMSTYLE
  2
STANDARD
  9
$DIMCLRD
 70
     0
  9
$DIMCLRE
 70
     0
  9
$DIMCLRT
 70
     0
  9
$DIMTFAC
 40
1.0
  9
$DIMGAP
 40
0.09
  9
$DIMJUST
 70
     0
  9
$DIMSD1
 70
     0
  9
$DIMSD2
 70
     0
  9
$DIMTOLJ
 70
     1
  9
$DIMTZIN
 70
     0
  9
$DIMALTZ
 70
     0
  9
$DIMALTTZ
 70
     0
  9
$DIMFIT
 70
     5
  9
$DIMUPT
 70
     0
  9
$DIMUNIT
 70
     2
  9
$DIMDEC
 70
     2
  9
$DIMTDEC
 70
     4
  9
$DIMALTU
 70
     2
  9
$DIMALTTD
 70
     2
  9
$DIMTXSTY
  7
STANDARD
  9
$DIMAUNIT
 70
     0
  9
$LUNITS
 70
     2
  9
$LUPREC
 70
     4
  9
$SKETCHINC
 40
0.1
  9
$FILLETRAD
 40
0.5
  9
$AUNITS
 70
     0
  9
$AUPREC
 70
     0
  9
$MENU
  1
.
  9
$ELEVATION
 40
0.0
  9
$PELEVATION
 40
0.0
  9
$THICKNESS
 40
0.0
  9
$LIMCHECK
 70
     0
  9
$BLIPMODE
 70
     0
  9
$CHAMFERA
 40
0.5
  9
$CHAMFERB
 40
0.5
  9
$CHAMFERC
 40
1.0
  9
$CHAMFERD
 40
0.0
  9
$SKPOLY
 70
     0
  9
$TDCREATE
 40
2450772.666465926
  9
$TDUPDATE
 40
2459354.406504630
  9
$TDINDWG
 40
0.0011565046
  9
$TDUSRTIMER
 40
0.0011565046
  9
$USRTIMER
 70
     1
  9
$ANGBASE
 50
0.0
  9
$ANGDIR
 70
     0
  9
$PDMODE
 70
     0
  9
$PDSIZE
 40
0.0
  9
$PLINEWID
 40
0.0
  9
$COORDS
 70
     1
  9
$SPLFRAME
 70
     0
  9
$SPLINETYPE
 70
     6
  9
$SPLINESEGS
 70
     8
  9
$ATTDIA
 70
     0
  9
$ATTREQ
 70
     1
  9
$HANDLING
 70
     1
  9
$HANDSEED
  5
202
  9
$SURFTAB1
 70
     6
  9
$SURFTAB2
 70
     6
  9
$SURFTYPE
 70
     6
  9
$SURFU
 70
     6
  9
$SURFV
 70
     6
  9
$UCSNAME
  2

  9
$UCSORG
 10
0.0
 20
0.0
 30
0.0
  9
$UCSXDIR
 10
1.0
 20
0.0
 30
0.0
  9
$UCSYDIR
 10
0.0
 20
1.0
 30
0.0
  9
$PUCSNAME
  2

  9
$PUCSORG
 10
0.0
 20
0.0
 30
0.0
  9
$PUCSXDIR
 10
1.0
 20
0.0
 30
0.0
  9
$PUCSYDIR
 10
0.0
 20
1.0
 30
0.0
  9
$USERI1
 70
     0
  9
$USERI2
 70
     0
  9
$USERI3
 70
     0
  9
$USERI4
 70
     0
  9
$USERI5
 70
     0
  9
$USERR1
 40
0.0
  9
$USERR2
 40
0.0
  9
$USERR3
 40
0.0
  9
$USERR4
 40
0.0
  9
$USERR5
 40
0.0
  9
$WORLDVIEW
 70
     1
  9
$SHADEDGE
 70
     3
  9
$SHADEDIF
 70
    70
  9
$TILEMODE
 70
     1
  9
$MAXACTVP
 70
    48
  9
$PINSBASE
 10
0.0
 20
0.0
 30
0.0
  9
$PLIMCHECK
 70
     0
  9
$PEXTMIN
 10
0.0
 20
0.0
 30
0.0
  9
$PEXTMAX
 10
0.0
 20
0.0
 30
0.0
  9
$PLIMMIN
 10
0.0
 20
0.0
  9
$PLIMMAX
 10
12.0
 20
9.0
  9
$UNITMODE
 70
     0
  9
$VISRETAIN
 70
     1
  9
$PLINEGEN
 70
     0
  9
$PSLTSCALE
 70
     1
  9
$TREEDEPTH
 70
  3020
  9
$PICKSTYLE
 70
     1
  9
$CMLSTYLE
  2
STANDARD
  9
$CMLJUST
 70
     0
  9
$CMLSCALE
 40
1.0
  9
$PROXYGRAPHICS
 70
     1
  9
$MEASUREMENT
 70
     0
  0
ENDSEC
  0
SECTION
  2
CLASSES
  0
CLASS
  1
LWPOLYLINE
  2
AcDbPolyline
  3
AutoCAD 2000
 90
       20
280
     0
281
     1
  0
CLASS
  1
IMAGE
  2
AcDbRasterImage
  3
ISM
 90
       21
280
     0
281
     1
  0
CLASS
  1
OLE2FRAME
  2
AcDbOle2Frame
  3
AutoCAD 2000
 90
       21
280
     0
281
     1
  0
CLASS
  1
HATCH
  2
AcDbHatch
  3
AutoCAD 2000
 90
       20
280
     0
281
     1
  0
CLASS
  1
DICTIONARYVAR
  2
AcDbDictionaryVar
  3
ObjectDBX Classes
 90
       20
280
     0
281
     0
  0
CLASS
  1
RASTERVARIABLES
  2
AcDbRasterVariables
  3
ISM
 90
       21
280
     0
281
     0
  0
CLASS
  1
IMAGEDEF
  2
AcDbRasterImageDef
  3
ISM
 90
       21
280
     0
281
     0
  0
CLASS
  1
IMAGEDEF_REACTOR
  2
AcDbRasterImageDefReactor
  3
ISM
 90
       21
280
     0
281
     0
  0
CLASS
  1
IDBUFFER
  2
AcDbIdBuffer
  3
ObjectDBX Classes
 90
       20
280
     0
281
     0
  0
CLASS
  1
SPATIAL_FILTER
  2
AcDbSpatialFilter
  3
ObjectDBX Classes
 90
       20
280
     0
281
     0
  0
CLASS
  1
XRECORD
  2
AcDbXrecord
  3
AutoCAD 2000
 90
       21
280
     0
281
     0
  0
CLASS
  1
SORTENTSTABLE
  2
AcDbSortentsTable
  3
"AutoCAD"
 90
        0
280
     0
281
     0
  0
CLASS
  1
LAYER_INDEX
  2
AcDbLayerIndex
  3
"Acad"
 90
        0
280
     0
281
     0
  0
CLASS
  1
SPATIAL_INDEX
  2
AcDbSpatialIndex
  3
"Acad"
 90
        0
280
     0
281
     0
  0
CLASS
  1
OBJECT_PTR
  2
CAseDLPNTableRecord
  3
"ASE-LPNTableRecord"
 90
        1
280
     0
281
     0
  0
CLASS
  1
LAYOUT
  2
AcDbLayout
  3
"AutoCAD 2000"
 90
        1
280
     0
281
     0
  0
CLASS
  1
PLOTSETTINGS
  2
AcDbPlotsettings
  3
"AutoCAD 2000"
 90
        1
280
     0
281
     0
  0
CLASS
  1
ACDBDICTIONARYWDFLT
  2
AcDbDictionaryWithDefault
  3
"AutoCAD 2000"
 90
        1
280
     0
281
     0
  0
CLASS
  1
ACDBPLACEHOLDER
  2
AcDbPlaceholder
  3
"AutoCAD 2000"
 90
        1
280
     0
281
     0
  0
CLASS
  1
VBA_PROJECT
  2
AcDbVbaProject
  3
"AutoCAD 2000"
 90
        1
280
     0
281
     0
  0
CLASS
  1
WIPEOUT
  2
AcDbWipeout
  3
"AutoCAD 2000"
 90
        1
280
     0
281
     1
  0
CLASS
  1
WIPEOUTVARIABLES
  2
AcDbWipeoutVariables
  3
"AutoCAD 2000"
 90
        1
280
     0
281
     0
  0
CLASS
  1
RTEXT
  2
RText
  3
RText|AutoCAD Express Tool|expresstools@autodesk.com
 90
        1
280
     0
281
     1
  0
CLASS
  1
ARCALIGNEDTEXT
  2
AcDbArcAlignedText
  3
RText|AutoCAD Express Tool|expresstools@autodesk.com
 90
        1
280
     0
281
     1
  0
ENDSEC
  0
SECTION
  2
TABLES
  0
TABLE
  2
VPORT
  5
8
100
AcDbSymbolTable
 70
     1
  0
VPORT
  5
25
100
AcDbSymbolTableRecord
100
AcDbViewportTableRecord
  2
*ACTIVE
 70
     0
 10
0.0
 20
0.0
 11
1.0
 21
1.0
 12
85.0
 22
110.0
 13
0.0
 23
0.0
 14
0.5
 24
0.5
 15
0.5
 25
0.5
 16
0.0
 26
0.0
 36
1.0
 17
0.0
 27
0.0
 37
0.0
 40
220.0
 41
0.772727
 42
50.0
 43
0.0
 44
0.0
 50
0.0
 51
0.0
 71
     0
 72
   100
 73
     1
 74
     1
 75
     0
 76
     0
 77
     0
 78
     0
  0
ENDTAB
  0
TABLE
  2
LTYPE
  5
5
100
AcDbSymbolTable
 70
     3
  0
LTYPE
  5
12
100
AcDbSymbolTableRecord
100
AcDbLinetypeTableRecord
  2
BYBLOCK
 70
     0
  3

 72
    65
 73
     0
 40
0.0
  0
LTYPE
  5
13
100
AcDbSymbolTableRecord
100
AcDbLinetypeTableRecord
  2
BYLAYER
 70
     0
  3

 72
    65
 73
     0
 40
0.0
  0
LTYPE
  5
14
100
AcDbSymbolTableRecord
100
AcDbLinetypeTableRecord
  2
CONTINUOUS
 70
     0
  3
Solid line
 72
    65
 73
     0
 40
0.0
  0
ENDTAB
  0
TABLE
  2
LAYER
  5
2
100
AcDbSymbolTable
 70
     1
  0
LAYER
  5
E
100
AcDbSymbolTableRecord
100
AcDbLayerTableRecord
  2
0
 70
     0
 62
     7
  6
CONTINUOUS
  0
ENDTAB
  0
TABLE
  2
STYLE
  5
3
100
AcDbSymbolTable
 70
     1
  0
STYLE
  5
F
100
AcDbSymbolTableRecord
100
AcDbTextStyleTableRecord
  2
STANDARD
 70
     0
 40
0.0
 41
1.0
 50
0.0
 71
     0
 42
0.2
  3
txt.shx
  4

  0
ENDTAB
  0
TABLE
  2
VIEW
  5
6
100
AcDbSymbolTable
 70
     0
  0
ENDTAB
  0
TABLE
  2
UCS
  5
7
100
AcDbSymbolTable
 70
     0
  0
ENDTAB
  0
TABLE
  2
APPID
  5
9
100
AcDbSymbolTable
 70
     1
  0
APPID
  5
10
100
AcDbSymbolTableRecord
100
AcDbRegAppTableRecord
  2
ACAD
 70
     0
  0
ENDTAB
  0
TABLE
  2
DIMSTYLE
  5
A
100
AcDbSymbolTable
 70
     1
  0
DIMSTYLE
105
1D
100
AcDbSymbolTableRecord
100
AcDbDimStyleTableRecord
  2
STANDARD
 70
     0
  3

  4

  5

  6

  7

 40
1.0
 41
0.18
 42
0.0625
 43
0.38
 44
0.18
 45
0.0
 46
0.0
 47
0.0
 48
0.0
 71
     0
 72
     0
 73
     1
 74
     1
 75
     0
 76
     0
 77
     0
 78
     0
140
0.18
141
0.09
142
0.0
143
25.4
144
1.0
145
0.0
146
1.0
147
0.09
170
     0
171
     2
172
     0
173
     0
174
     0
175
     0
176
     0
177
     0
178
     0
270
     2
271
     4
272
     4
273
     2
274
     2
275
     0
280
     0
281
     0
282
     0
283
     1
284
     0
285
     0
286
     0
287
     3
288
     0
340
F
  0
ENDTAB
  0
TABLE
  2
BLOCK_RECORD
  5
1
100
AcDbSymbolTable
 70
     0
  0
BLOCK_RECORD
  5
18
100
AcDbSymbolTableRecord
100
AcDbBlockTableRecord
  2
*MODEL_SPACE
  0
BLOCK_RECORD
  5
15
100
AcDbSymbolTableRecord
100
AcDbBlockTableRecord
  2
*PAPER_SPACE
  0
ENDTAB
  0
ENDSEC
  0
SECTION
  2
BLOCKS
  0
BLOCK
  5
19
100
AcDbEntity
  8
0
100
AcDbBlockBegin
  2
*MODEL_SPACE
 70
     0
 10
0.0
 20
0.0
 30
0.0
  3
*MODEL_SPACE
  1

  0
ENDBLK
  5
1A
100
AcDbEntity
  8
0
100
AcDbBlockEnd
  0
BLOCK
  5
16
100
AcDbEntity
 67
     1
  8
0
100
AcDbBlockBegin
  2
*PAPER_SPACE
 70
     0
 10
0.0
 20
0.0
 30
0.0
  3
*PAPER_SPACE
  1

  0
ENDBLK
  5
17
100
AcDbEntity
 67
     1
  8
0
100
AcDbBlockEnd
  0
ENDSEC
  0
SECTION
  2
ENTITIES
  0
LWPOLYLINE
  5
32
102
{ACAD_REACTORS
330
31
102
}
100
AcDbEntity
  8
0
  6
CONTINUOUS
100
AcDbPolyline
 90
        5
 70
     0
 10
93.40629
 20
79.781
 10
81.40629
 20
79.781
 10
81.40629
 20
82.981
 10
93.40629
 20
82.981
 10
93.40629
 20
79.781
  0
LWPOLYLINE
  5
33
102
{ACAD_REACTORS
330
31
102
}
100
AcDbEntity
  8
0
  6
CONTINUOUS
100
AcDbPolyline
 90
       13
 70
     0
 10
76.40629
 20
179.781
 10
68.669031
 20
179.781
 10
68.669031
 20
46.981
 10
76.40629
 20
46.981
 10
76.40629
 20
39.780997
 10
91.406288
 20
39.781
 10
91.406288
 20
42.981
 10
101.40629
 20
42.981
 10
101.40629
 20
179.781
 10
91.40629
 20
179.781
 10
91.40629
 20
182.981
 10
76.40629
 20
182.981
 10
76.40629
 20
179.781
  0
LWPOLYLINE
  5
34
102
{ACAD_REACTORS
330
31
102
}
100
AcDbEntity
  8
0
  6
CONTINUOUS
100
AcDbPolyline
 90
       13
 70
     0
 10
91.332212
 20
99.138326
 10
94.332212
 20
99.138326
 10
94.332212
 20
99.535324
 10
92.91816
 20
99.535324
 10
92.91816
 20
101.09467
 10
94.332212
 20
101.09467
 10
94.332212
 20
101.491668
 10
91.332212
 20
101.491668
 10
91.332212
 20
101.09467
 10
92.564136
 20
101.09467
 10
92.564136
 20
99.535324
 10
91.332212
 20
99.535324
 10
91.332212
 20
99.138326
  0
SPLINE
  5
35
102
{ACAD_REACTORS
330
31
102
}
100
AcDbEntity
  8
0
  6
CONTINUOUS
100
AcDbSpline
210
0.0
220
0.0
230
1.0
 70
     8
 71
     2
 72
     6
 73
     3
 74
     0
 42
0.0000001
 43
0.0000001
 40
0.0
 40
0.0
 40
0.0
 40
1.0
 40
1.0
 40
1.0
 10
93.245581858805679
 20
101.96847647768233
 30
0.0
 10
92.641898267916702
 20
101.96847647768233
 30
0.0
 10
92.35131161754515
 20
102.30408400636884
 30
0.0
  0
SPLINE
  5
36
102
{ACAD_REACTORS
330
31
102
}
100
AcDbEntity
  8
0
  6
CONTINUOUS
100
AcDbSpline
210
0.0
220
0.0
230
1.0
 70
     8
 71
     2
 72
     6
 73
     3
 74
     0
 42
0.0000001
 43
0.0000001
 40
0.0
 40
0.0
 40
0.0
 40
1.0
 40
1.0
 40
1.0
 10
92.351311617545036
 20
102.30408400636883
 30
0.0
 10
92.109838002375511
 20
102.58443802934856
 30
0.0
 10
92.109838002375511
 20
102.98757523637981
 30
0.0
  0
SPLINE
  5
37
102
{ACAD_REACTORS
330
31
102
}
100
AcDbEntity
  8
0
  6
CONTINUOUS
100
AcDbSpline
210
0.0
220
0.0
230
1.0
 70
     8
 71
     2
 72
     6
 73
     3
 74
     0
 42
0.0000001
 43
0.0000001
 40
0.0
 40
0.0
 40
0.0
 40
1.0
 40
1.0
 40
1.0
 10
92.109838002375568
 20
102.98757523637981
 30
0.0
 10
92.109838002375568
 20
103.4357342157957
 30
0.0
 10
92.403494589976276
 20
103.72018188577862
 30
0.0
  0
SPLINE
  5
38
102
{ACAD_REACTORS
330
31
102
}
100
AcDbEntity
  8
0
  6
CONTINUOUS
100
AcDbSpline
210
0.0
220
0.0
230
1.0
 70
     8
 71
     2
 72
     6
 73
     3
 74
     0
 42
0.0000001
 43
0.0000001
 40
0.0
 40
0.0
 40
0.0
 40
1.0
 40
1.0
 40
1.0
 10
92.403494589976276
 20
103.72018188577863
 30
0.0
 10
92.697150581530536
 20
104.00462836366864
 30
0.0
 10
93.214886062792743
 20
104.00462836366866
 30
0.0
  0
SPLINE
  5
39
102
{ACAD_REACTORS
330
31
102
}
100
AcDbEntity
  8
0
  6
CONTINUOUS
100
AcDbSpline
210
0.0
220
0.0
230
1.0
 70
     8
 71
     2
 72
     6
 73
     3
 74
     0
 42
0.0000001
 43
0.0000001
 40
0.0
 40
0.0
 40
0.0
 40
1.0
 40
1.0
 40
1.0
 10
93.2148860627928
 20
104.00462836366864
 30
0.0
 10
93.634394877604507
 20
104.00462836366864
 30
0.0
 10
93.874845081023238
 20
103.87877673250409
 30
0.0
  0
SPLINE
  5
3A
102
{ACAD_REACTORS
330
31
102
}
100
AcDbEntity
  8
0
  6
CONTINUOUS
100
AcDbSpline
210
0.0
220
0.0
230
1.0
 70
     8
 71
     2
 72
     6
 73
     3
 74
     0
 42
0.0000001
 43
0.0000001
 40
0.0
 40
0.0
 40
0.0
 40
1.0
 40
1.0
 40
1.0
 10
93.874845081023182
 20
103.87877673250409
 30
0.0
 10
94.115295284441913
 20
103.75292390924666
 30
0.0
 10
94.248310201815571
 20
103.51247281175826
 30
0.0
  0
SPLINE
  5
3B
102
{ACAD_REACTORS
330
31
102
}
100
AcDbEntity
  8
0
  6
CONTINUOUS
100
AcDbSpline
210
0.0
220
0.0
230
1.0
 70
     8
 71
     2
 72
     6
 73
     3
 74
     0
 42
0.0000001
 43
0.0000001
 40
0.0
 40
0.0
 40
0.0
 40
1.0
 40
1.0
 40
1.0
 10
94.248310201815571
 20
103.51247281175826
 30
0.0
 10
94.381325119189228
 20
103.27202290636275
 30
0.0
 10
94.381325119189228
 20
102.98757523637984
 30
0.0
  0
SPLINE
  5
3C
102
{ACAD_REACTORS
330
31
102
}
100
AcDbEntity
  8
0
  6
CONTINUOUS
100
AcDbSpline
210
0.0
220
0.0
230
1.0
 70
     8
 71
     2
 72
     6
 73
     3
 74
     0
 42
0.0000001
 43
0.0000001
 40
0.0
 40
0.0
 40
0.0
 40
1.0
 40
1.0
 40
1.0
 10
94.381325119189228
 20
102.98757523637983
 30
0.0
 10
94.381325119189228
 20
102.53123253923627
 30
0.0
 10
94.088692241362537
 20
102.24985450845928
 30
0.0
  0
SPLINE
  5
3D
102
{ACAD_REACTORS
330
31
102
}
100
AcDbEntity
  8
0
  6
CONTINUOUS
100
AcDbSpline
210
0.0
220
0.0
230
1.0
 70
     8
 71
     2
 72
     6
 73
     3
 74
     0
 42
0.0000001
 43
0.0000001
 40
0.0
 40
0.0
 40
0.0
 40
1.0
 40
1.0
 40
1.0
 10
94.088692241362537
 20
102.24985450845929
 30
0.0
 10
93.796059363535846
 20
101.96847647768232
 30
0.0
 10
93.245581858805622
 20
101.96847647768232
 30
0.0
  0
SPLINE
  5
3E
102
{ACAD_REACTORS
330
31
102
}
100
AcDbEntity
  8
0
  6
CONTINUOUS
100
AcDbSpline
210
0.0
220
0.0
230
1.0
 70
     8
 71
     2
 72
     6
 73
     3
 74
     0
 42
0.0000001
 43
0.0000001
 40
0.0
 40
0.0
 40
0.0
 40
1.0
 40
1.0
 40
1.0
 10
93.245581858805565
 20
102.347057763159
 30
0.0
 10
93.663044446162132
 20
102.347057763159
 30
0.0
 10
93.870752328089623
 20
102.52918571573468
 30
0.0
  0
SPLINE
  5
3F
102
{ACAD_REACTORS
330
31
102
}
100
AcDbEntity
  8
0
  6
CONTINUOUS
100
AcDbSpline
210
0.0
220
0.0
230
1.0
 70
     8
 71
     2
 72
     6
 73
     3
 74
     0
 42
0.0000001
 43
0.0000001
 40
0.0
 40
0.0
 40
0.0
 40
1.0
 40
1.0
 40
1.0
 10
93.870752328089623
 20
102.5291857157347
 30
0.0
 10
94.078460508040337
 20
102.71131366831038
 30
0.0
 10
94.078460508040337
 20
102.98757523637985
 30
0.0
  0
SPLINE
  5
40
102
{ACAD_REACTORS
330
31
102
}
100
AcDbEntity
  8
0
  6
CONTINUOUS
100
AcDbSpline
210
0.0
220
0.0
230
1.0
 70
     8
 71
     2
 72
     6
 73
     3
 74
     0
 42
0.0000001
 43
0.0000001
 40
0.0
 40
0.0
 40
0.0
 40
1.0
 40
1.0
 40
1.0
 10
94.078460508040337
 20
102.98757523637984
 30
0.0
 10
94.078460508040337
 20
103.26179117304061
 30
0.0
 10
93.869729214362053
 20
103.44392031770917
 30
0.0
  0
SPLINE
  5
41
102
{ACAD_REACTORS
330
31
102
}
100
AcDbEntity
  8
0
  6
CONTINUOUS
100
AcDbSpline
210
0.0
220
0.0
230
1.0
 70
     8
 71
     2
 72
     6
 73
     3
 74
     0
 42
0.0000001
 43
0.0000001
 40
0.0
 40
0.0
 40
0.0
 40
1.0
 40
1.0
 40
1.0
 10
93.86972921436211
 20
103.44392031770917
 30
0.0
 10
93.660997920683826
 20
103.62604827028485
 30
0.0
 10
93.233303600005115
 20
103.62604827028485
 30
0.0
  0
SPLINE
  5
42
102
{ACAD_REACTORS
330
31
102
}
100
AcDbEntity
  8
0
  6
CONTINUOUS
100
AcDbSpline
210
0.0
220
0.0
230
1.0
 70
     8
 71
     2
 72
     6
 73
     3
 74
     0
 42
0.0000001
 43
0.0000001
 40
0.0
 40
0.0
 40
0.0
 40
1.0
 40
1.0
 40
1.0
 10
93.233303600005115
 20
103.62604827028485
 30
0.0
 10
92.830165498904194
 20
103.62604827028484
 30
0.0
 10
92.622457616976703
 20
103.44289630991192
 30
0.0
  0
SPLINE
  5
43
102
{ACAD_REACTORS
330
31
102
}
100
AcDbEntity
  8
0
  6
CONTINUOUS
100
AcDbSpline
210
0.0
220
0.0
230
1.0
 70
     8
 71
     2
 72
     6
 73
     3
 74
     0
 42
0.0000001
 43
0.0000001
 40
0.0
 40
0.0
 40
0.0
 40
1.0
 40
1.0
 40
1.0
 10
92.62245761697676
 20
103.44289630991192
 30
0.0
 10
92.41474973504927
 20
103.25974434953899
 30
0.0
 10
92.41474973504927
 20
102.98757523637981
 30
0.0
  0
SPLINE
  5
44
102
{ACAD_REACTORS
330
31
102
}
100
AcDbEntity
  8
0
  6
CONTINUOUS
100
AcDbSpline
210
0.0
220
0.0
230
1.0
 70
     8
 71
     2
 72
     6
 73
     3
 74
     0
 42
0.0000001
 43
0.0000001
 40
0.0
 40
0.0
 40
0.0
 40
1.0
 40
1.0
 40
1.0
 10
92.41474973504927
 20
102.98757523637981
 30
0.0
 10
92.41474973504927
 20
102.71131366831035
 30
0.0
 10
92.621434205225967
 20
102.52918571573467
 30
0.0
  0
SPLINE
  5
45
102
{ACAD_REACTORS
330
31
102
}
100
AcDbEntity
  8
0
  6
CONTINUOUS
100
AcDbSpline
210
0.0
220
0.0
230
1.0
 70
     8
 71
     2
 72
     6
 73
     3
 74
     0
 42
0.0000001
 43
0.0000001
 40
0.0
 40
0.0
 40
0.0
 40
1.0
 40
1.0
 40
1.0
 10
92.621434205225967
 20
102.52918571573468
 30
0.0
 10
92.828119271449111
 20
102.34705776315901
 30
0.0
 10
93.245581858805679
 20
102.34705776315901
 30
0.0
  0
LINE
  5
46
102
{ACAD_REACTORS
330
31
102
}
100
AcDbEntity
  8
0
  6
CONTINUOUS
100
AcDbLine
 10
94.332212
 20
105.8607
 30
0.0
 11
94.012976
 21
105.8607
 31
0.0
  0
SPLINE
  5
47
102
{ACAD_REACTORS
330
31
102
}
100
AcDbEntity
  8
0
  6
CONTINUOUS
100
AcDbSpline
210
0.0
220
0.0
230
1.0
 70
     8
 71
     2
 72
     6
 73
     3
 74
     0
 42
0.0000001
 43
0.0000001
 40
0.0
 40
0.0
 40
0.0
 40
1.0
 40
1.0
 40
1.0
 10
94.012976163081134
 20
105.86070031267379
 30
0.0
 10
94.381325119189228
 20
105.6069490347502
 30
0.0
 10
94.381325119189228
 20
105.17106861215804
 30
0.0
  0
SPLINE
  5
48
102
{ACAD_REACTORS
330
31
102
}
100
AcDbEntity
  8
0
  6
CONTINUOUS
100
AcDbSpline
210
0.0
220
0.0
230
1.0
 70
     8
 71
     2
 72
     6
 73
     3
 74
     0
 42
0.0000001
 43
0.0000001
 40
0.0
 40
0.0
 40
0.0
 40
1.0
 40
1.0
 40
1.0
 10
94.381325119189228
 20
105.17106861215804
 30
0.0
 10
94.381325119189228
 20
104.97870892626021
 30
0.0
 10
94.307655566386188
 20
104.81192797762129
 30
0.0
  0
SPLINE
  5
49
102
{ACAD_REACTORS
330
31
102
}
100
AcDbEntity
  8
0
  6
CONTINUOUS
100
AcDbSpline
210
0.0
220
0.0
230
1.0
 70
     8
 71
     2
 72
     6
 73
     3
 74
     0
 42
0.0000001
 43
0.0000001
 40
0.0
 40
0.0
 40
0.0
 40
1.0
 40
1.0
 40
1.0
 10
94.307655566386245
 20
104.81192797762129
 30
0.0
 10
94.233985417536758
 20
104.64514702898238
 30
0.0
 10
94.122457676581405
 20
104.56431597810958
 30
0.0
  0
SPLINE
  5
4A
102
{ACAD_REACTORS
330
31
102
}
100
AcDbEntity
  8
0
  6
CONTINUOUS
100
AcDbSpline
210
0.0
220
0.0
230
1.0
 70
     8
 71
     2
 72
     6
 73
     3
 74
     0
 42
0.0000001
 43
0.0000001
 40
0.0
 40
0.0
 40
0.0
 40
1.0
 40
1.0
 40
1.0
 10
94.122457676581405
 20
104.56431597810956
 30
0.0
 10
94.010929637602828
 20
104.48348254305097
 30
0.0
 10
93.849265151671432
 20
104.45074051958294
 30
0.0
  0
SPLINE
  5
4B
102
{ACAD_REACTORS
330
31
102
}
100
AcDbEntity
  8
0
  6
CONTINUOUS
100
AcDbSpline
210
0.0
220
0.0
230
1.0
 70
     8
 71
     2
 72
     6
 73
     3
 74
     0
 42
0.0000001
 43
0.0000001
 40
0.0
 40
0.0
 40
0.0
 40
1.0
 40
1.0
 40
1.0
 10
93.849265151671318
 20
104.45074051958295
 30
0.0
 10
93.740806751898674
 20
104.42823142152997
 30
0.0
 10
93.505472713164238
 20
104.42823142152997
 30
0.0
  0
LINE
  5
4C
102
{ACAD_REACTORS
330
31
102
}
100
AcDbEntity
  8
0
  6
CONTINUOUS
100
AcDbLine
 10
93.505473
 20
104.428231
 30
0.0
 11
92.158952
 21
104.428231
 31
0.0
  0
LINE
  5
4D
102
{ACAD_REACTORS
330
31
102
}
100
AcDbEntity
  8
0
  6
CONTINUOUS
100
AcDbLine
 10
92.158952
 20
104.428231
 30
0.0
 11
92.158952
 21
104.79658
 31
0.0
  0
LINE
  5
4E
102
{ACAD_REACTORS
330
31
102
}
100
AcDbEntity
  8
0
  6
CONTINUOUS
100
AcDbLine
 10
92.158952
 20
104.79658
 30
0.0
 11
93.364272
 21
104.79658
 31
0.0
  0
SPLINE
  5
4F
102
{ACAD_REACTORS
330
31
102
}
100
AcDbEntity
  8
0
  6
CONTINUOUS
100
AcDbSpline
210
0.0
220
0.0
230
1.0
 70
     8
 71
     2
 72
     6
 73
     3
 74
     0
 42
0.0000001
 43
0.0000001
 40
0.0
 40
0.0
 40
0.0
 40
1.0
 40
1.0
 40
1.0
 10
93.364271991900353
 20
104.79657978159162
 30
0.0
 10
93.652812414816765
 20
104.79657978159162
 30
0.0
 10
93.753085308722405
 20
104.81909007173749
 30
0.0
  0
SPLINE
  5
50
102
{ACAD_REACTORS
330
31
102
}
100
AcDbEntity
  8
0
  6
CONTINUOUS
100
AcDbSpline
210
0.0
220
0.0
230
1.0
 70
     8
 71
     2
 72
     6
 73
     3
 74
     0
 42
0.0000001
 43
0.0000001
 40
0.0
 40
0.0
 40
0.0
 40
1.0
 40
1.0
 40
1.0
 10
93.753085308722518
 20
104.81909007173746
 30
0.0
 10
93.898378484896682
 20
104.85387891870708
 30
0.0
 10
93.981256955317519
 20
104.96643036943645
 30
0.0
  0
SPLINE
  5
51
102
{ACAD_REACTORS
330
31
102
}
100
AcDbEntity
  8
0
  6
CONTINUOUS
100
AcDbSpline
210
0.0
220
0.0
230
1.0
 70
     8
 71
     2
 72
     6
 73
     3
 74
     0
 42
0.0000001
 43
0.0000001
 40
0.0
 40
0.0
 40
0.0
 40
1.0
 40
1.0
 40
1.0
 10
93.981256955317463
 20
104.96643036943648
 30
0.0
 10
94.064135723761524
 20
105.07898062807296
 30
0.0
 10
94.064135723761524
 20
105.24473876100753
 30
0.0
  0
SPLINE
  5
52
102
{ACAD_REACTORS
330
31
102
}
100
AcDbEntity
  8
0
  6
CONTINUOUS
100
AcDbSpline
210
0.0
220
0.0
230
1.0
 70
     8
 71
     2
 72
     6
 73
     3
 74
     0
 42
0.0000001
 43
0.0000001
 40
0.0
 40
0.0
 40
0.0
 40
1.0
 40
1.0
 40
1.0
 10
94.064135723761524
 20
105.24473876100753
 30
0.0
 10
94.064135723761524
 20
105.4104957018492
 30
0.0
 10
93.979210727862323
 20
105.55578917604659
 30
0.0
  0
SPLINE
  5
53
102
{ACAD_REACTORS
330
31
102
}
100
AcDbEntity
  8
0
  6
CONTINUOUS
100
AcDbSpline
210
0.0
220
0.0
230
1.0
 70
     8
 71
     2
 72
     6
 73
     3
 74
     0
 42
0.0000001
 43
0.0000001
 40
0.0
 40
0.0
 40
0.0
 40
1.0
 40
1.0
 40
1.0
 10
93.979210727862267
 20
105.55578917604659
 30
0.0
 10
93.894285731963066
 20
105.70108145815107
 30
0.0
 10
93.747969144038109
 20
105.76145023447248
 30
0.0
  0
SPLINE
  5
54
102
{ACAD_REACTORS
330
31
102
}
100
AcDbEntity
  8
0
  6
CONTINUOUS
100
AcDbSpline
210
0.0
220
0.0
230
1.0
 70
     8
 71
     2
 72
     6
 73
     3
 74
     0
 42
0.0000001
 43
0.0000001
 40
0.0
 40
0.0
 40
0.0
 40
1.0
 40
1.0
 40
1.0
 10
93.747969144038166
 20
105.76145023447248
 30
0.0
 10
93.601652854136432
 20
105.82181901079389
 30
0.0
 10
93.323344462565387
 20
105.82181901079389
 30
0.0
  0
LINE
  5
55
102
{ACAD_REACTORS
330
31
102
}
100
AcDbEntity
  8
0
  6
CONTINUOUS
100
AcDbLine
 10
93.323344
 20
105.821819
 30
0.0
 11
92.158952
 21
105.821819
 31
0.0
  0
LINE
  5
56
102
{ACAD_REACTORS
330
31
102
}
100
AcDbEntity
  8
0
  6
CONTINUOUS
100
AcDbLine
 10
92.158952
 20
105.821819
 30
0.0
 11
92.158952
 21
106.190169
 31
0.0
  0
LINE
  5
57
102
{ACAD_REACTORS
330
31
102
}
100
AcDbEntity
  8
0
  6
CONTINUOUS
100
AcDbLine
 10
92.158952
 20
106.190169
 30
0.0
 11
94.332212
 21
106.190169
 31
0.0
  0
LINE
  5
58
102
{ACAD_REACTORS
330
31
102
}
100
AcDbEntity
  8
0
  6
CONTINUOUS
100
AcDbLine
 10
94.332212
 20
106.190169
 30
0.0
 11
94.332212
 21
105.8607
 31
0.0
  0
LINE
  5
59
102
{ACAD_REACTORS
330
31
102
}
100
AcDbEntity
  8
0
  6
CONTINUOUS
100
AcDbLine
 10
93.683508
 20
106.619909
 30
0.0
 11
93.626209
 21
106.984167
 31
0.0
  0
SPLINE
  5
5A
102
{ACAD_REACTORS
330
31
102
}
100
AcDbEntity
  8
0
  6
CONTINUOUS
100
AcDbSpline
210
0.0
220
0.0
230
1.0
 70
     8
 71
     2
 72
     6
 73
     3
 74
     0
 42
0.0000001
 43
0.0000001
 40
0.0
 40
0.0
 40
0.0
 40
1.0
 40
1.0
 40
1.0
 10
93.626209371737446
 20
106.98416680437298
 30
0.0
 10
93.845172398737873
 20
107.01486081224651
 30
0.0
 10
93.961816304377521
 20
107.15503901582927
 30
0.0
  0
SPLINE
  5
5B
102
{ACAD_REACTORS
330
31
102
}
100
AcDbEntity
  8
0
  6
CONTINUOUS
100
AcDbSpline
210
0.0
220
0.0
230
1.0
 70
     8
 71
     2
 72
     6
 73
     3
 74
     0
 42
0.0000001
 43
0.0000001
 40
0.0
 40
0.0
 40
0.0
 40
1.0
 40
1.0
 40
1.0
 10
93.961816304377578
 20
107.15503901582929
 30
0.0
 10
94.07846050804045
 20
107.29521721941207
 30
0.0
 10
94.07846050804045
 20
107.54692048174117
 30
0.0
  0
SPLINE
  5
5C
102
{ACAD_REACTORS
330
31
102
}
100
AcDbEntity
  8
0
  6
CONTINUOUS
100
AcDbSpline
210
0.0
220
0.0
230
1.0
 70
     8
 71
     2
 72
     6
 73
     3
 74
     0
 42
0.0000001
 43
0.0000001
 40
0.0
 40
0.0
 40
0.0
 40
1.0
 40
1.0
 40
1.0
 10
94.078460508040394
 20
107.54692048174117
 30
0.0
 10
94.078460508040394
 20
107.80067414385054
 30
0.0
 10
93.975117974928821
 20
107.92345494371625
 30
0.0
  0
SPLINE
  5
5D
102
{ACAD_REACTORS
330
31
102
}
100
AcDbEntity
  8
0
  6
CONTINUOUS
100
AcDbSpline
210
0.0
220
0.0
230
1.0
 70
     8
 71
     2
 72
     6
 73
     3
 74
     0
 42
0.0000001
 43
0.0000001
 40
0.0
 40
0.0
 40
0.0
 40
1.0
 40
1.0
 40
1.0
 10
93.975117974928821
 20
107.92345494371625
 30
0.0
 10
93.871775441817249
 20
108.04624051195356
 30
0.0
 10
93.732621246031727
 20
108.04624051195356
 30
0.0
  0
SPLINE
  5
5E
102
{ACAD_REACTORS
330
31
102
}
100
AcDbEntity
  8
0
  6
CONTINUOUS
100
AcDbSpline
210
0.0
220
0.0
230
1.0
 70
     8
 71
     2
 72
     6
 73
     3
 74
     0
 42
0.0000001
 43
0.0000001
 40
0.0
 40
0.0
 40
0.0
 40
1.0
 40
1.0
 40
1.0
 10
93.73262124603167
 20
108.04624051195356
 30
0.0
 10
93.607791834525017
 20
108.04624051195356
 30
0.0
 10
93.536168509177116
 20
107.93778151613446
 30
0.0
  0
SPLINE
  5
5F
102
{ACAD_REACTORS
330
31
102
}
100
AcDbEntity
  8
0
  6
CONTINUOUS
100
AcDbSpline
210
0.0
220
0.0
230
1.0
 70
     8
 71
     2
 72
     6
 73
     3
 74
     0
 42
0.0000001
 43
0.0000001
 40
0.0
 40
0.0
 40
0.0
 40
1.0
 40
1.0
 40
1.0
 10
93.536168509177116
 20
107.93778151613446
 30
0.0
 10
93.487055175951866
 20
107.86206454378339
 30
0.0
 10
93.41133879964724
 20
107.56124466997358
 30
0.0
  0
SPLINE
  5
60
102
{ACAD_REACTORS
330
31
102
}
100
AcDbEntity
  8
0
  6
CONTINUOUS
100
AcDbSpline
210
0.0
220
0.0
230
1.0
 70
     8
 71
     2
 72
     6
 73
     3
 74
     0
 42
0.0000001
 43
0.0000001
 40
0.0
 40
0.0
 40
0.0
 40
1.0
 40
1.0
 40
1.0
 10
93.411338799647297
 20
107.56124466997358
 30
0.0
 10
93.309019678286518
 20
107.15606183153363
 30
0.0
 10
93.234326713732685
 20
106.99951380830976
 30
0.0
  0
SPLINE
  5
61
102
{ACAD_REACTORS
330
31
102
}
100
AcDbEntity
  8
0
  6
CONTINUOUS
100
AcDbSpline
210
0.0
220
0.0
230
1.0
 70
     8
 71
     2
 72
     6
 73
     3
 74
     0
 42
0.0000001
 43
0.0000001
 40
0.0
 40
0.0
 40
0.0
 40
1.0
 40
1.0
 40
1.0
 10
93.234326713732685
 20
106.99951380830976
 30
0.0
 10
93.159633749178852
 20
106.84296578508588
 30
0.0
 10
93.02764164750954
 20
106.76213235002729
 30
0.0
  0
SPLINE
  5
62
102
{ACAD_REACTORS
330
31
102
}
100
AcDbEntity
  8
0
  6
CONTINUOUS
100
AcDbSpline
210
0.0
220
0.0
230
1.0
 70
     8
 71
     2
 72
     6
 73
     3
 74
     0
 42
0.0000001
 43
0.0000001
 40
0.0
 40
0.0
 40
0.0
 40
1.0
 40
1.0
 40
1.0
 10
93.02764164750954
 20
106.76213235002729
 30
0.0
 10
92.895650141886676
 20
106.68130129915447
 30
0.0
 10
92.736031883410419
 20
106.68130129915447
 30
0.0
  0
SPLINE
  5
63
102
{ACAD_REACTORS
330
31
102
}
100
AcDbEntity
  8
0
  6
CONTINUOUS
100
AcDbSpline
210
0.0
220
0.0
230
1.0
 70
     8
 71
     2
 72
     6
 73
     3
 74
     0
 42
0.0000001
 43
0.0000001
 40
0.0
 40
0.0
 40
0.0
 40
1.0
 40
1.0
 40
1.0
 10
92.736031883410419
 20
106.68130129915447
 30
0.0
 10
92.590738409213031
 20
106.68130129915447
 30
0.0
 10
92.466932409457172
 20
106.74780816179485
 30
0.0
  0
SPLINE
  5
64
102
{ACAD_REACTORS
330
31
102
}
100
AcDbEntity
  8
0
  6
CONTINUOUS
100
AcDbSpline
210
0.0
220
0.0
230
1.0
 70
     8
 71
     2
 72
     6
 73
     3
 74
     0
 42
0.0000001
 43
0.0000001
 40
0.0
 40
0.0
 40
0.0
 40
1.0
 40
1.0
 40
1.0
 10
92.466932409457172
 20
106.74780816179485
 30
0.0
 10
92.343126111678089
 20
106.81431502443523
 30
0.0
 10
92.261270754984821
 20
106.92891329866619
 30
0.0
  0
SPLINE
  5
65
102
{ACAD_REACTORS
330
31
102
}
100
AcDbEntity
  8
0
  6
CONTINUOUS
100
AcDbSpline
210
0.0
220
0.0
230
1.0
 70
     8
 71
     2
 72
     6
 73
     3
 74
     0
 42
0.0000001
 43
0.0000001
 40
0.0
 40
0.0
 40
0.0
 40
1.0
 40
1.0
 40
1.0
 10
92.261270754984821
 20
106.92891329866619
 30
0.0
 10
92.197832935503925
 20
107.01486081224651
 30
0.0
 10
92.153835468939747
 20
107.16322392564983
 30
0.0
  0
SPLINE
  5
66
102
{ACAD_REACTORS
330
31
102
}
100
AcDbEntity
  8
0
  6
CONTINUOUS
100
AcDbSpline
210
0.0
220
0.0
230
1.0
 70
     8
 71
     2
 72
     6
 73
     3
 74
     0
 42
0.0000001
 43
0.0000001
 40
0.0
 40
0.0
 40
0.0
 40
1.0
 40
1.0
 40
1.0
 10
92.153835468939803
 20
107.16322392564983
 30
0.0
 10
92.109838002375625
 20
107.31158703905315
 30
0.0
 10
92.109838002375625
 20
107.4814364348051
 30
0.0
  0
SPLINE
  5
67
102
{ACAD_REACTORS
330
31
102
}
100
AcDbEntity
  8
0
  6
CONTINUOUS
100
AcDbSpline
210
0.0
220
0.0
230
1.0
 70
     8
 71
     2
 72
     6
 73
     3
 74
     0
 42
0.0000001
 43
0.0000001
 40
0.0
 40
0.0
 40
0.0
 40
1.0
 40
1.0
 40
1.0
 10
92.109838002375568
 20
107.4814364348051
 30
0.0
 10
92.109838002375568
 20
107.73723572832317
 30
0.0
 10
92.183508151225055
 20
107.93061703783245
 30
0.0
  0
SPLINE
  5
68
102
{ACAD_REACTORS
330
31
102
}
100
AcDbEntity
  8
0
  6
CONTINUOUS
100
AcDbSpline
210
0.0
220
0.0
230
1.0
 70
     8
 71
     2
 72
     6
 73
     3
 74
     0
 42
0.0000001
 43
0.0000001
 40
0.0
 40
0.0
 40
0.0
 40
1.0
 40
1.0
 40
1.0
 10
92.183508151225055
 20
107.93061703783245
 30
0.0
 10
92.257177704028095
 20
108.12400311571331
 30
0.0
 10
92.383030527285541
 20
108.21608990770549
 30
0.0
  0
SPLINE
  5
69
102
{ACAD_REACTORS
330
31
102
}
100
AcDbEntity
  8
0
  6
CONTINUOUS
100
AcDbSpline
210
0.0
220
0.0
230
1.0
 70
     8
 71
     2
 72
     6
 73
     3
 74
     0
 42
0.0000001
 43
0.0000001
 40
0.0
 40
0.0
 40
0.0
 40
1.0
 40
1.0
 40
1.0
 10
92.383030527285541
 20
108.21608990770549
 30
0.0
 10
92.508883350542988
 20
108.30817669969768
 30
0.0
 10
92.71966087167641
 20
108.34296435457439
 30
0.0
  0
LINE
  5
6A
102
{ACAD_REACTORS
330
31
102
}
100
AcDbEntity
  8
0
  6
CONTINUOUS
100
AcDbLine
 10
92.719661
 20
108.342964
 30
0.0
 11
92.768774
 21
107.982802
 31
0.0
  0
SPLINE
  5
6B
102
{ACAD_REACTORS
330
31
102
}
100
AcDbEntity
  8
0
  6
CONTINUOUS
100
AcDbSpline
210
0.0
220
0.0
230
1.0
 70
     8
 71
     2
 72
     6
 73
     3
 74
     0
 42
0.0000001
 43
0.0000001
 40
0.0
 40
0.0
 40
0.0
 40
1.0
 40
1.0
 40
1.0
 10
92.76877390687838
 20
107.9828020964262
 30
0.0
 10
92.600970738581566
 20
107.95824498277874
 30
0.0
 10
92.506836825064568
 20
107.84057826143474
 30
0.0
  0
SPLINE
  5
6C
102
{ACAD_REACTORS
330
31
102
}
100
AcDbEntity
  8
0
  6
CONTINUOUS
100
AcDbSpline
210
0.0
220
0.0
230
1.0
 70
     8
 71
     2
 72
     6
 73
     3
 74
     0
 42
0.0000001
 43
0.0000001
 40
0.0
 40
0.0
 40
0.0
 40
1.0
 40
1.0
 40
1.0
 10
92.506836825064624
 20
107.84057826143474
 30
0.0
 10
92.412702911547626
 20
107.72291154009075
 30
0.0
 10
92.412702911547626
 20
107.50803917986126
 30
0.0
  0
SPLINE
  5
6D
102
{ACAD_REACTORS
330
31
102
}
100
AcDbEntity
  8
0
  6
CONTINUOUS
100
AcDbSpline
210
0.0
220
0.0
230
1.0
 70
     8
 71
     2
 72
     6
 73
     3
 74
     0
 42
0.0000001
 43
0.0000001
 40
0.0
 40
0.0
 40
0.0
 40
1.0
 40
1.0
 40
1.0
 10
92.412702911547569
 20
107.50803917986126
 30
0.0
 10
92.412702911547569
 20
107.25428790193767
 30
0.0
 10
92.4966047937192
 20
107.14582890611858
 30
0.0
  0
SPLINE
  5
6E
102
{ACAD_REACTORS
330
31
102
}
100
AcDbEntity
  8
0
  6
CONTINUOUS
100
AcDbSpline
210
0.0
220
0.0
230
1.0
 70
     8
 71
     2
 72
     6
 73
     3
 74
     0
 42
0.0000001
 43
0.0000001
 40
0.0
 40
0.0
 40
0.0
 40
1.0
 40
1.0
 40
1.0
 10
92.4966047937192
 20
107.14582890611858
 30
0.0
 10
92.580506675890831
 20
107.03737229448528
 30
0.0
 10
92.693057828596977
 20
107.03737229448528
 30
0.0
  0
SPLINE
  5
6F
102
{ACAD_REACTORS
330
31
102
}
100
AcDbEntity
  8
0
  6
CONTINUOUS
100
AcDbSpline
210
0.0
220
0.0
230
1.0
 70
     8
 71
     2
 72
     6
 73
     3
 74
     0
 42
0.0000001
 43
0.0000001
 40
0.0
 40
0.0
 40
0.0
 40
1.0
 40
1.0
 40
1.0
 10
92.693057828597034
 20
107.03737229448528
 30
0.0
 10
92.764681451968158
 20
107.03737229448528
 30
0.0
 10
92.821979993037189
 20
107.08239287477703
 30
0.0
  0
SPLINE
  5
70
102
{ACAD_REACTORS
330
31
102
}
100
AcDbEntity
  8
0
  6
CONTINUOUS
100
AcDbSpline
210
0.0
220
0.0
230
1.0
 70
     8
 71
     2
 72
     6
 73
     3
 74
     0
 42
0.0000001
 43
0.0000001
 40
0.0
 40
0.0
 40
0.0
 40
1.0
 40
1.0
 40
1.0
 10
92.821979993037132
 20
107.08239287477703
 30
0.0
 10
92.88132535760775
 20
107.12741345506878
 30
0.0
 10
92.920206659487633
 20
107.22359150987835
 30
0.0
  0
SPLINE
  5
71
102
{ACAD_REACTORS
330
31
102
}
100
AcDbEntity
  8
0
  6
CONTINUOUS
100
AcDbSpline
210
0.0
220
0.0
230
1.0
 70
     8
 71
     2
 72
     6
 73
     3
 74
     0
 42
0.0000001
 43
0.0000001
 40
0.0
 40
0.0
 40
0.0
 40
1.0
 40
1.0
 40
1.0
 10
92.92020665948769
 20
107.22359150987835
 30
0.0
 10
92.940670424155201
 20
107.27884501558515
 30
0.0
 10
93.014340274981464
 20
107.54896849733564
 30
0.0
  0
SPLINE
  5
72
102
{ACAD_REACTORS
330
31
102
}
100
AcDbEntity
  8
0
  6
CONTINUOUS
100
AcDbSpline
210
0.0
220
0.0
230
1.0
 70
     8
 71
     2
 72
     6
 73
     3
 74
     0
 42
0.0000001
 43
0.0000001
 40
0.0
 40
0.0
 40
0.0
 40
1.0
 40
1.0
 40
1.0
 10
93.014340274981407
 20
107.54896849733564
 30
0.0
 10
93.118705921820549
 20
107.93982714754316
 30
0.0
 10
93.185213380507378
 20
108.09432953935834
 30
0.0
  0
SPLINE
  5
73
102
{ACAD_REACTORS
330
31
102
}
100
AcDbEntity
  8
0
  6
CONTINUOUS
100
AcDbSpline
210
0.0
220
0.0
230
1.0
 70
     8
 71
     2
 72
     6
 73
     3
 74
     0
 42
0.0000001
 43
0.0000001
 40
0.0
 40
0.0
 40
0.0
 40
1.0
 40
1.0
 40
1.0
 10
93.185213380507491
 20
108.09432953935834
 30
0.0
 10
93.251721137217544
 20
108.24883193117353
 30
0.0
 10
93.378596776179336
 20
108.33682507616254
 30
0.0
  0
SPLINE
  5
74
102
{ACAD_REACTORS
330
31
102
}
100
AcDbEntity
  8
0
  6
CONTINUOUS
100
AcDbSpline
210
0.0
220
0.0
230
1.0
 70
     8
 71
     2
 72
     6
 73
     3
 74
     0
 42
0.0000001
 43
0.0000001
 40
0.0
 40
0.0
 40
0.0
 40
1.0
 40
1.0
 40
1.0
 10
93.378596776179279
 20
108.33682507616254
 30
0.0
 10
93.505472713164295
 20
108.42482060533735
 30
0.0
 10
93.693740242175068
 20
108.42482060533735
 30
0.0
  0
SPLINE
  5
75
102
{ACAD_REACTORS
330
31
102
}
100
AcDbEntity
  8
0
  6
CONTINUOUS
100
AcDbSpline
210
0.0
220
0.0
230
1.0
 70
     8
 71
     2
 72
     6
 73
     3
 74
     0
 42
0.0000001
 43
0.0000001
 40
0.0
 40
0.0
 40
0.0
 40
1.0
 40
1.0
 40
1.0
 10
93.693740242175068
 20
108.42482060533735
 30
0.0
 10
93.877914720229114
 20
108.42482060533735
 30
0.0
 10
94.04060231988808
 20
108.31738442522261
 30
0.0
  0
SPLINE
  5
76
102
{ACAD_REACTORS
330
31
102
}
100
AcDbEntity
  8
0
  6
CONTINUOUS
100
AcDbSpline
210
0.0
220
0.0
230
1.0
 70
     8
 71
     2
 72
     6
 73
     3
 74
     0
 42
0.0000001
 43
0.0000001
 40
0.0
 40
0.0
 40
0.0
 40
1.0
 40
1.0
 40
1.0
 10
94.04060231988808
 20
108.31738442522263
 30
0.0
 10
94.203289919547046
 20
108.20995062929367
 30
0.0
 10
94.292307370356525
 20
108.0073592100737
 30
0.0
  0
SPLINE
  5
77
102
{ACAD_REACTORS
330
31
102
}
100
AcDbEntity
  8
0
  6
CONTINUOUS
100
AcDbSpline
210
0.0
220
0.0
230
1.0
 70
     8
 71
     2
 72
     6
 73
     3
 74
     0
 42
0.0000001
 43
0.0000001
 40
0.0
 40
0.0
 40
0.0
 40
1.0
 40
1.0
 40
1.0
 10
94.292307370356525
 20
108.00735921007369
 30
0.0
 10
94.381325119189228
 20
107.80476540666793
 30
0.0
 10
94.381325119189228
 20
107.54896849733565
 30
0.0
  0
SPLINE
  5
78
102
{ACAD_REACTORS
330
31
102
}
100
AcDbEntity
  8
0
  6
CONTINUOUS
100
AcDbSpline
210
0.0
220
0.0
230
1.0
 70
     8
 71
     2
 72
     6
 73
     3
 74
     0
 42
0.0000001
 43
0.0000001
 40
0.0
 40
0.0
 40
0.0
 40
1.0
 40
1.0
 40
1.0
 10
94.381325119189228
 20
107.54896849733565
 30
0.0
 10
94.381325119189228
 20
107.12536543947432
 30
0.0
 10
94.205336147002185
 20
106.90333336931441
 30
0.0
  0
SPLINE
  5
79
102
{ACAD_REACTORS
330
31
102
}
100
AcDbEntity
  8
0
  6
CONTINUOUS
100
AcDbSpline
210
0.0
220
0.0
230
1.0
 70
     8
 71
     2
 72
     6
 73
     3
 74
     0
 42
0.0000001
 43
0.0000001
 40
0.0
 40
0.0
 40
0.0
 40
1.0
 40
1.0
 40
1.0
 10
94.205336147002129
 20
106.90333336931441
 30
0.0
 10
94.029347174815086
 20
106.6813012991545
 30
0.0
 10
93.683508210829643
 20
106.61990851503583
 30
0.0
  0
LWPOLYLINE
  5
7A
102
{ACAD_REACTORS
330
31
102
}
100
AcDbEntity
  8
0
  6
CONTINUOUS
100
AcDbPolyline
 90
        5
 70
     0
 10
91.332212
 20
108.864793
 10
91.755814
 20
108.864793
 10
91.755814
 20
109.233141
 10
91.332212
 20
109.233141
 10
91.332212
 20
108.864793
  0
LWPOLYLINE
  5
7B
102
{ACAD_REACTORS
330
31
102
}
100
AcDbEntity
  8
0
  6
CONTINUOUS
100
AcDbPolyline
 90
        5
 70
     0
 10
92.158952
 20
108.864793
 10
94.332212
 20
108.864793
 10
94.332212
 20
109.233141
 10
92.158952
 20
109.233141
 10
92.158952
 20
108.864793
  0
LINE
  5
7C
102
{ACAD_REACTORS
330
31
102
}
100
AcDbEntity
  8
0
  6
CONTINUOUS
100
AcDbLine
 10
94.332212
 20
109.793851
 30
0.0
 11
92.158952
 21
109.793851
 31
0.0
  0
LINE
  5
7D
102
{ACAD_REACTORS
330
31
102
}
100
AcDbEntity
  8
0
  6
CONTINUOUS
100
AcDbLine
 10
92.158952
 20
109.793851
 30
0.0
 11
92.158952
 21
110.125365
 31
0.0
  0
LINE
  5
7E
102
{ACAD_REACTORS
330
31
102
}
100
AcDbEntity
  8
0
  6
CONTINUOUS
100
AcDbLine
 10
92.158952
 20
110.125365
 30
0.0
 11
92.467956
 21
110.125365
 31
0.0
  0
SPLINE
  5
7F
102
{ACAD_REACTORS
330
31
102
}
100
AcDbEntity
  8
0
  6
CONTINUOUS
100
AcDbSpline
210
0.0
220
0.0
230
1.0
 70
     8
 71
     2
 72
     6
 73
     3
 74
     0
 42
0.0000001
 43
0.0000001
 40
0.0
 40
0.0
 40
0.0
 40
1.0
 40
1.0
 40
1.0
 10
92.467955523184798
 20
110.12536496263714
 30
0.0
 10
92.109838300398849
 20
110.3647920523283
 30
0.0
 10
92.109838300398849
 20
110.81704348665447
 30
0.0
  0
SPLINE
  5
80
102
{ACAD_REACTORS
330
31
102
}
100
AcDbEntity
  8
0
  6
CONTINUOUS
100
AcDbSpline
210
0.0
220
0.0
230
1.0
 70
     8
 71
     2
 72
     6
 73
     3
 74
     0
 42
0.0000001
 43
0.0000001
 40
0.0
 40
0.0
 40
0.0
 40
1.0
 40
1.0
 40
1.0
 10
92.109838300398849
 20
110.81704348665446
 30
0.0
 10
92.109838300398849
 20
111.01349801164835
 30
0.0
 10
92.18043851201918
 20
111.17823094469279
 30
0.0
  0
SPLINE
  5
81
102
{ACAD_REACTORS
330
31
102
}
100
AcDbEntity
  8
0
  6
CONTINUOUS
100
AcDbSpline
210
0.0
220
0.0
230
1.0
 70
     8
 71
     2
 72
     6
 73
     3
 74
     0
 42
0.0000001
 43
0.0000001
 40
0.0
 40
0.0
 40
0.0
 40
1.0
 40
1.0
 40
1.0
 10
92.180438512019066
 20
111.1782309446928
 30
0.0
 10
92.251038723639397
 20
111.34296387773723
 30
0.0
 10
92.365636401823906
 20
111.42482012850017
 30
0.0
  0
SPLINE
  5
82
102
{ACAD_REACTORS
330
31
102
}
100
AcDbEntity
  8
0
  6
CONTINUOUS
100
AcDbSpline
210
0.0
220
0.0
230
1.0
 70
     8
 71
     2
 72
     6
 73
     3
 74
     0
 42
0.0000001
 43
0.0000001
 40
0.0
 40
0.0
 40
0.0
 40
1.0
 40
1.0
 40
1.0
 10
92.365636401823906
 20
111.42482012850017
 30
0.0
 10
92.480233781985191
 20
111.50667637926311
 30
0.0
 10
92.637805514983086
 20
111.53941601854534
 30
0.0
  0
SPLINE
  5
83
102
{ACAD_REACTORS
330
31
102
}
100
AcDbEntity
  8
0
  6
CONTINUOUS
100
AcDbSpline
210
0.0
220
0.0
230
1.0
 70
     8
 71
     2
 72
     6
 73
     3
 74
     0
 42
0.0000001
 43
0.0000001
 40
0.0
 40
0.0
 40
0.0
 40
1.0
 40
1.0
 40
1.0
 10
92.637805514983086
 20
111.53941601854534
 30
0.0
 10
92.740124934367088
 20
111.55988186937542
 30
0.0
 10
92.995923035792259
 20
111.55988186937543
 30
0.0
  0
LINE
  5
84
102
{ACAD_REACTORS
330
31
102
}
100
AcDbEntity
  8
0
  6
CONTINUOUS
100
AcDbLine
 10
92.995923
 20
111.559882
 30
0.0
 11
94.332212
 21
111.559882
 31
0.0
  0
LINE
  5
85
102
{ACAD_REACTORS
330
31
102
}
100
AcDbEntity
  8
0
  6
CONTINUOUS
100
AcDbLine
 10
94.332212
 20
111.559882
 30
0.0
 11
94.332212
 21
111.191532
 31
0.0
  0
LINE
  5
86
102
{ACAD_REACTORS
330
31
102
}
100
AcDbEntity
  8
0
  6
CONTINUOUS
100
AcDbLine
 10
94.332212
 20
111.191532
 30
0.0
 11
93.010248
 21
111.191532
 31
0.0
  0
SPLINE
  5
87
102
{ACAD_REACTORS
330
31
102
}
100
AcDbEntity
  8
0
  6
CONTINUOUS
100
AcDbSpline
210
0.0
220
0.0
230
1.0
 70
     8
 71
     2
 72
     6
 73
     3
 74
     0
 42
0.0000001
 43
0.0000001
 40
0.0
 40
0.0
 40
0.0
 40
1.0
 40
1.0
 40
1.0
 10
93.010247522047962
 20
111.19153231722089
 30
0.0
 10
92.785145216635669
 20
111.19153231722088
 30
0.0
 10
92.673617177657093
 20
111.14855736833782
 30
0.0
  0
SPLINE
  5
88
102
{ACAD_REACTORS
330
31
102
}
100
AcDbEntity
  8
0
  6
CONTINUOUS
100
AcDbSpline
210
0.0
220
0.0
230
1.0
 70
     8
 71
     2
 72
     6
 73
     3
 74
     0
 42
0.0000001
 43
0.0000001
 40
0.0
 40
0.0
 40
0.0
 40
1.0
 40
1.0
 40
1.0
 10
92.673617177657093
 20
111.14855736833782
 30
0.0
 10
92.56208943670174
 20
111.10558480364055
 30
0.0
 10
92.495581978014911
 20
110.99610299211712
 30
0.0
  0
SPLINE
  5
89
102
{ACAD_REACTORS
330
31
102
}
100
AcDbEntity
  8
0
  6
CONTINUOUS
100
AcDbSpline
210
0.0
220
0.0
230
1.0
 70
     8
 71
     2
 72
     6
 73
     3
 74
     0
 42
0.0000001
 43
0.0000001
 40
0.0
 40
0.0
 40
0.0
 40
1.0
 40
1.0
 40
1.0
 10
92.495581978014911
 20
110.99610299211712
 30
0.0
 10
92.429074221304859
 20
110.88662118059368
 30
0.0
 10
92.429074221304859
 20
110.7392808828947
 30
0.0
  0
SPLINE
  5
8A
102
{ACAD_REACTORS
330
31
102
}
100
AcDbEntity
  8
0
  6
CONTINUOUS
100
AcDbSpline
210
0.0
220
0.0
230
1.0
 70
     8
 71
     2
 72
     6
 73
     3
 74
     0
 42
0.0000001
 43
0.0000001
 40
0.0
 40
0.0
 40
0.0
 40
1.0
 40
1.0
 40
1.0
 10
92.429074221304859
 20
110.7392808828947
 30
0.0
 10
92.429074221304859
 20
110.50394505602092
 30
0.0
 10
92.578460448435749
 20
110.33307522875042
 30
0.0
  0
SPLINE
  5
8B
102
{ACAD_REACTORS
330
31
102
}
100
AcDbEntity
  8
0
  6
CONTINUOUS
100
AcDbSpline
210
0.0
220
0.0
230
1.0
 70
     8
 71
     2
 72
     6
 73
     3
 74
     0
 42
0.0000001
 43
0.0000001
 40
0.0
 40
0.0
 40
0.0
 40
1.0
 40
1.0
 40
1.0
 10
92.578460448435806
 20
110.3330752287504
 30
0.0
 10
92.727846377543472
 20
110.16220063310831
 30
0.0
 10
93.145308964900039
 20
110.16220063310833
 30
0.0
  0
LINE
  5
8C
102
{ACAD_REACTORS
330
31
102
}
100
AcDbEntity
  8
0
  6
CONTINUOUS
100
AcDbLine
 10
93.145309
 20
110.162201
 30
0.0
 11
94.332212
 21
110.162201
 31
0.0
  0
LINE
  5
8D
102
{ACAD_REACTORS
330
31
102
}
100
AcDbEntity
  8
0
  6
CONTINUOUS
100
AcDbLine
 10
94.332212
 20
110.162201
 30
0.0
 11
94.332212
 21
109.793851
 31
0.0
  0
LINE
  5
8E
102
{ACAD_REACTORS
330
31
102
}
100
AcDbEntity
  8
0
  6
CONTINUOUS
100
AcDbLine
 10
94.512294
 20
112.057154
 30
0.0
 11
94.5655
 21
112.415271
 31
0.0
  0
SPLINE
  5
8F
102
{ACAD_REACTORS
330
31
102
}
100
AcDbEntity
  8
0
  6
CONTINUOUS
100
AcDbSpline
210
0.0
220
0.0
230
1.0
 70
     8
 71
     2
 72
     6
 73
     3
 74
     0
 42
0.0000001
 43
0.0000001
 40
0.0
 40
0.0
 40
0.0
 40
1.0
 40
1.0
 40
1.0
 10
94.565499895266441
 20
112.41527051073287
 30
0.0
 10
94.731256836108116
 20
112.43778199297164
 30
0.0
 10
94.806973212412743
 20
112.54010171037886
 30
0.0
  0
SPLINE
  5
90
102
{ACAD_REACTORS
330
31
102
}
100
AcDbEntity
  8
0
  6
CONTINUOUS
100
AcDbSpline
210
0.0
220
0.0
230
1.0
 70
     8
 71
     2
 72
     6
 73
     3
 74
     0
 42
0.0000001
 43
0.0000001
 40
0.0
 40
0.0
 40
0.0
 40
1.0
 40
1.0
 40
1.0
 10
94.8069732124128
 20
112.54010171037886
 30
0.0
 10
94.909292333773578
 20
112.67720669847701
 30
0.0
 10
94.909292333773578
 20
112.91459054094527
 30
0.0
  0
SPLINE
  5
91
102
{ACAD_REACTORS
330
31
102
}
100
AcDbEntity
  8
0
  6
CONTINUOUS
100
AcDbSpline
210
0.0
220
0.0
230
1.0
 70
     8
 71
     2
 72
     6
 73
     3
 74
     0
 42
0.0000001
 43
0.0000001
 40
0.0
 40
0.0
 40
0.0
 40
1.0
 40
1.0
 40
1.0
 10
94.909292333773578
 20
112.91459054094527
 30
0.0
 10
94.909292333773578
 20
113.17038745027754
 30
0.0
 10
94.8069732124128
 20
113.30954045397017
 30
0.0
  0
SPLINE
  5
92
102
{ACAD_REACTORS
330
31
102
}
100
AcDbEntity
  8
0
  6
CONTINUOUS
100
AcDbSpline
210
0.0
220
0.0
230
1.0
 70
     8
 71
     2
 72
     6
 73
     3
 74
     0
 42
0.0000001
 43
0.0000001
 40
0.0
 40
0.0
 40
0.0
 40
1.0
 40
1.0
 40
1.0
 10
94.8069732124128
 20
113.30954045397017
 30
0.0
 10
94.704654091052021
 20
113.44869584184859
 30
0.0
 10
94.52047931497475
 20
113.49781006914351
 30
0.0
  0
SPLINE
  5
93
102
{ACAD_REACTORS
330
31
102
}
100
AcDbEntity
  8
0
  6
CONTINUOUS
100
AcDbSpline
210
0.0
220
0.0
230
1.0
 70
     8
 71
     2
 72
     6
 73
     3
 74
     0
 42
0.0000001
 43
0.0000001
 40
0.0
 40
0.0
 40
0.0
 40
1.0
 40
1.0
 40
1.0
 10
94.520479314974693
 20
113.49781006914351
 30
0.0
 10
94.407928460291771
 20
113.52645844560836
 30
0.0
 10
94.047764712027458
 20
113.52441281419966
 30
0.0
  0
SPLINE
  5
94
102
{ACAD_REACTORS
330
31
102
}
100
AcDbEntity
  8
0
  6
CONTINUOUS
100
AcDbSpline
210
0.0
220
0.0
230
1.0
 70
     8
 71
     2
 72
     6
 73
     3
 74
     0
 42
0.0000001
 43
0.0000001
 40
0.0
 40
0.0
 40
0.0
 40
1.0
 40
1.0
 40
1.0
 10
94.047764712027572
 20
113.52441281419966
 30
0.0
 10
94.332212083987258
 20
113.28293770891402
 30
0.0
 10
94.332212083987258
 20
112.92277306658004
 30
0.0
  0
SPLINE
  5
95
102
{ACAD_REACTORS
330
31
102
}
100
AcDbEntity
  8
0
  6
CONTINUOUS
100
AcDbSpline
210
0.0
220
0.0
230
1.0
 70
     8
 71
     2
 72
     6
 73
     3
 74
     0
 42
0.0000001
 43
0.0000001
 40
0.0
 40
0.0
 40
0.0
 40
1.0
 40
1.0
 40
1.0
 10
94.332212083987201
 20
112.92277306658004
 30
0.0
 10
94.332212083987201
 20
112.47461766344283
 30
0.0
 10
94.008883112124408
 20
112.2290512953398
 30
0.0
  0
SPLINE
  5
96
102
{ACAD_REACTORS
330
31
102
}
100
AcDbEntity
  8
0
  6
CONTINUOUS
100
AcDbSpline
210
0.0
220
0.0
230
1.0
 70
     8
 71
     2
 72
     6
 73
     3
 74
     0
 42
0.0000001
 43
0.0000001
 40
0.0
 40
0.0
 40
0.0
 40
1.0
 40
1.0
 40
1.0
 10
94.008883112124352
 20
112.2290512953398
 30
0.0
 10
93.685554438284782
 20
111.98348492723676
 30
0.0
 10
93.233303301981834
 20
111.98348492723676
 30
0.0
  0
SPLINE
  5
97
102
{ACAD_REACTORS
330
31
102
}
100
AcDbEntity
  8
0
  6
CONTINUOUS
100
AcDbSpline
210
0.0
220
0.0
230
1.0
 70
     8
 71
     2
 72
     6
 73
     3
 74
     0
 42
0.0000001
 43
0.0000001
 40
0.0
 40
0.0
 40
0.0
 40
1.0
 40
1.0
 40
1.0
 10
93.233303301981948
 20
111.98348492723677
 30
0.0
 10
92.922252886942886
 20
111.98348492723676
 30
0.0
 10
92.659292691401504
 20
112.09603518587323
 30
0.0
  0
SPLINE
  5
98
102
{ACAD_REACTORS
330
31
102
}
100
AcDbEntity
  8
0
  6
CONTINUOUS
100
AcDbSpline
210
0.0
220
0.0
230
1.0
 70
     8
 71
     2
 72
     6
 73
     3
 74
     0
 42
0.0000001
 43
0.0000001
 40
0.0
 40
0.0
 40
0.0
 40
1.0
 40
1.0
 40
1.0
 10
92.65929269140139
 20
112.09603518587322
 30
0.0
 10
92.396331899813561
 20
112.20858544450969
 30
0.0
 10
92.25308524911776
 20
112.42243260484905
 30
0.0
  0
SPLINE
  5
99
102
{ACAD_REACTORS
330
31
102
}
100
AcDbEntity
  8
0
  6
CONTINUOUS
100
AcDbSpline
210
0.0
220
0.0
230
1.0
 70
     8
 71
     2
 72
     6
 73
     3
 74
     0
 42
0.0000001
 43
0.0000001
 40
0.0
 40
0.0
 40
0.0
 40
1.0
 40
1.0
 40
1.0
 10
92.253085249117817
 20
112.42243260484905
 30
0.0
 10
92.109838002375568
 20
112.63627976518841
 30
0.0
 10
92.109838002375568
 20
112.92482108217449
 30
0.0
  0
SPLINE
  5
9A
102
{ACAD_REACTORS
330
31
102
}
100
AcDbEntity
  8
0
  6
CONTINUOUS
100
AcDbSpline
210
0.0
220
0.0
230
1.0
 70
     8
 71
     2
 72
     6
 73
     3
 74
     0
 42
0.0000001
 43
0.0000001
 40
0.0
 40
0.0
 40
0.0
 40
1.0
 40
1.0
 40
1.0
 10
92.109838002375568
 20
112.92482108217449
 30
0.0
 10
92.109838002375568
 20
113.30954045397014
 30
0.0
 10
92.420889013461078
 20
113.55920046907634
 30
0.0
  0
LINE
  5
9B
102
{ACAD_REACTORS
330
31
102
}
100
AcDbEntity
  8
0
  6
CONTINUOUS
100
AcDbLine
 10
92.420889
 20
113.5592
 30
0.0
 11
92.158952
 21
113.5592
 31
0.0
  0
LINE
  5
9C
102
{ACAD_REACTORS
330
31
102
}
100
AcDbEntity
  8
0
  6
CONTINUOUS
100
AcDbLine
 10
92.158952
 20
113.5592
 30
0.0
 11
92.158952
 21
113.898899
 31
0.0
  0
LINE
  5
9D
102
{ACAD_REACTORS
330
31
102
}
100
AcDbEntity
  8
0
  6
CONTINUOUS
100
AcDbLine
 10
92.158952
 20
113.898899
 30
0.0
 11
94.037533
 21
113.898899
 31
0.0
  0
SPLINE
  5
9E
102
{ACAD_REACTORS
330
31
102
}
100
AcDbEntity
  8
0
  6
CONTINUOUS
100
AcDbSpline
210
0.0
220
0.0
230
1.0
 70
     8
 71
     2
 72
     6
 73
     3
 74
     0
 42
0.0000001
 43
0.0000001
 40
0.0
 40
0.0
 40
0.0
 40
1.0
 40
1.0
 40
1.0
 10
94.037532680682205
 20
113.89889926058028
 30
0.0
 10
94.545036428622268
 20
113.89889926058028
 30
0.0
 10
94.756836765460037
 20
113.79555672746871
 30
0.0
  0
SPLINE
  5
9F
102
{ACAD_REACTORS
330
31
102
}
100
AcDbEntity
  8
0
  6
CONTINUOUS
100
AcDbSpline
210
0.0
220
0.0
230
1.0
 70
     8
 71
     2
 72
     6
 73
     3
 74
     0
 42
0.0000001
 43
0.0000001
 40
0.0
 40
0.0
 40
0.0
 40
1.0
 40
1.0
 40
1.0
 10
94.756836765459923
 20
113.79555672746871
 30
0.0
 10
94.968637698344139
 20
113.69221657854293
 30
0.0
 10
95.091420882395653
 20
113.46813649278853
 30
0.0
  0
SPLINE
  5
A0
102
{ACAD_REACTORS
330
31
102
}
100
AcDbEntity
  8
0
  6
CONTINUOUS
100
AcDbSpline
210
0.0
220
0.0
230
1.0
 70
     8
 71
     2
 72
     6
 73
     3
 74
     0
 42
0.0000001
 43
0.0000001
 40
0.0
 40
0.0
 40
0.0
 40
1.0
 40
1.0
 40
1.0
 10
95.091420882395767
 20
113.46813649278853
 30
0.0
 10
95.21420406644728
 20
113.24405640703414
 30
0.0
 10
95.21420406644728
 20
112.91663617235396
 30
0.0
  0
SPLINE
  5
A1
102
{ACAD_REACTORS
330
31
102
}
100
AcDbEntity
  8
0
  6
CONTINUOUS
100
AcDbSpline
210
0.0
220
0.0
230
1.0
 70
     8
 71
     2
 72
     6
 73
     3
 74
     0
 42
0.0000001
 43
0.0000001
 40
0.0
 40
0.0
 40
0.0
 40
1.0
 40
1.0
 40
1.0
 10
95.214204066447223
 20
112.91663617235396
 30
0.0
 10
95.214204066447223
 20
112.52782315355513
 30
0.0
 10
95.039238207987751
 20
112.28839367967818
 30
0.0
  0
SPLINE
  5
A2
102
{ACAD_REACTORS
330
31
102
}
100
AcDbEntity
  8
0
  6
CONTINUOUS
100
AcDbSpline
210
0.0
220
0.0
230
1.0
 70
     8
 71
     2
 72
     6
 73
     3
 74
     0
 42
0.0000001
 43
0.0000001
 40
0.0
 40
0.0
 40
0.0
 40
1.0
 40
1.0
 40
1.0
 10
95.039238207987694
 20
112.28839367967818
 30
0.0
 10
94.864272349528221
 20
112.04896897417281
 30
0.0
 10
94.512293809107689
 20
112.05715388399337
 30
0.0
  0
SPLINE
  5
A3
102
{ACAD_REACTORS
330
31
102
}
100
AcDbEntity
  8
0
  6
CONTINUOUS
100
AcDbSpline
210
0.0
220
0.0
230
1.0
 70
     8
 71
     2
 72
     6
 73
     3
 74
     0
 42
0.0000001
 43
0.0000001
 40
0.0
 40
0.0
 40
0.0
 40
1.0
 40
1.0
 40
1.0
 10
93.206700556925796
 20
112.36206502062055
 30
0.0
 10
93.634394877604507
 20
112.36206502062055
 30
0.0
 10
93.83084761445906
 20
112.5319144163725
 30
0.0
  0
SPLINE
  5
A4
102
{ACAD_REACTORS
330
31
102
}
100
AcDbEntity
  8
0
  6
CONTINUOUS
100
AcDbSpline
210
0.0
220
0.0
230
1.0
 70
     8
 71
     2
 72
     6
 73
     3
 74
     0
 42
0.0000001
 43
0.0000001
 40
0.0
 40
0.0
 40
0.0
 40
1.0
 40
1.0
 40
1.0
 10
93.830847614459003
 20
112.53191441637249
 30
0.0
 10
94.02730064933678
 20
112.70176381212445
 30
0.0
 10
94.02730064933678
 20
112.95756310564252
 30
0.0
  0
SPLINE
  5
A5
102
{ACAD_REACTORS
330
31
102
}
100
AcDbEntity
  8
0
  6
CONTINUOUS
100
AcDbSpline
210
0.0
220
0.0
230
1.0
 70
     8
 71
     2
 72
     6
 73
     3
 74
     0
 42
0.0000001
 43
0.0000001
 40
0.0
 40
0.0
 40
0.0
 40
1.0
 40
1.0
 40
1.0
 10
94.02730064933678
 20
112.95756310564254
 30
0.0
 10
94.02730064933678
 20
113.21131438356612
 30
0.0
 10
93.831871026209797
 20
113.38321179491254
 30
0.0
  0
SPLINE
  5
A6
102
{ACAD_REACTORS
330
31
102
}
100
AcDbEntity
  8
0
  6
CONTINUOUS
100
AcDbSpline
210
0.0
220
0.0
230
1.0
 70
     8
 71
     2
 72
     6
 73
     3
 74
     0
 42
0.0000001
 43
0.0000001
 40
0.0
 40
0.0
 40
0.0
 40
1.0
 40
1.0
 40
1.0
 10
93.831871026209797
 20
113.38321179491254
 30
0.0
 10
93.636441105059589
 20
113.55510682207318
 30
0.0
 10
93.218978815726246
 20
113.55510682207318
 30
0.0
  0
SPLINE
  5
A7
102
{ACAD_REACTORS
330
31
102
}
100
AcDbEntity
  8
0
  6
CONTINUOUS
100
AcDbSpline
210
0.0
220
0.0
230
1.0
 70
     8
 71
     2
 72
     6
 73
     3
 74
     0
 42
0.0000001
 43
0.0000001
 40
0.0
 40
0.0
 40
0.0
 40
1.0
 40
1.0
 40
1.0
 10
93.218978815726189
 20
113.5551068220732
 30
0.0
 10
92.819933765581993
 20
113.55510682207318
 30
0.0
 10
92.617341750315575
 20
113.37809533220502
 30
0.0
  0
SPLINE
  5
A8
102
{ACAD_REACTORS
330
31
102
}
100
AcDbEntity
  8
0
  6
CONTINUOUS
100
AcDbSpline
210
0.0
220
0.0
230
1.0
 70
     8
 71
     2
 72
     6
 73
     3
 74
     0
 42
0.0000001
 43
0.0000001
 40
0.0
 40
0.0
 40
0.0
 40
1.0
 40
1.0
 40
1.0
 10
92.617341750315632
 20
113.37809533220501
 30
0.0
 10
92.414749735049213
 20
113.20108384233684
 30
0.0
 10
92.414749735049213
 20
112.95142382723064
 30
0.0
  0
SPLINE
  5
A9
102
{ACAD_REACTORS
330
31
102
}
100
AcDbEntity
  8
0
  6
CONTINUOUS
100
AcDbSpline
210
0.0
220
0.0
230
1.0
 70
     8
 71
     2
 72
     6
 73
     3
 74
     0
 42
0.0000001
 43
0.0000001
 40
0.0
 40
0.0
 40
0.0
 40
1.0
 40
1.0
 40
1.0
 10
92.41474973504927
 20
112.95142382723064
 30
0.0
 10
92.41474973504927
 20
112.70585745912761
 30
0.0
 10
92.614272111109756
 20
112.53396004778118
 30
0.0
  0
SPLINE
  5
AA
102
{ACAD_REACTORS
330
31
102
}
100
AcDbEntity
  8
0
  6
CONTINUOUS
100
AcDbSpline
210
0.0
220
0.0
230
1.0
 70
     8
 71
     2
 72
     6
 73
     3
 74
     0
 42
0.0000001
 43
0.0000001
 40
0.0
 40
0.0
 40
0.0
 40
1.0
 40
1.0
 40
1.0
 10
92.614272111109699
 20
112.53396004778118
 30
0.0
 10
92.813794487170185
 20
112.36206502062053
 30
0.0
 10
93.206700556925739
 20
112.36206502062055
 30
0.0
  0
LINE
  5
AB
102
{ACAD_REACTORS
330
31
102
}
100
AcDbEntity
  8
0
  6
CONTINUOUS
100
AcDbLine
 10
94.332212
 20
115.615816
 30
0.0
 11
92.158952
 21
115.615816
 31
0.0
  0
LINE
  5
AC
102
{ACAD_REACTORS
330
31
102
}
100
AcDbEntity
  8
0
  6
CONTINUOUS
100
AcDbLine
 10
92.158952
 20
115.615816
 30
0.0
 11
92.158952
 21
115.94733
 31
0.0
  0
LINE
  5
AD
102
{ACAD_REACTORS
330
31
102
}
100
AcDbEntity
  8
0
  6
CONTINUOUS
100
AcDbLine
 10
92.158952
 20
115.94733
 30
0.0
 11
92.488419
 21
115.94733
 31
0.0
  0
SPLINE
  5
AE
102
{ACAD_REACTORS
330
31
102
}
100
AcDbEntity
  8
0
  6
CONTINUOUS
100
AcDbSpline
210
0.0
220
0.0
230
1.0
 70
     8
 71
     2
 72
     6
 73
     3
 74
     0
 42
0.0000001
 43
0.0000001
 40
0.0
 40
0.0
 40
0.0
 40
1.0
 40
1.0
 40
1.0
 10
92.488419287852082
 20
115.94732970339031
 30
0.0
 10
92.257178002051148
 20
116.074206534445
 30
0.0
 10
92.183508151224885
 20
116.18164033037395
 30
0.0
  0
SPLINE
  5
AF
102
{ACAD_REACTORS
330
31
102
}
100
AcDbEntity
  8
0
  6
CONTINUOUS
100
AcDbSpline
210
0.0
220
0.0
230
1.0
 70
     8
 71
     2
 72
     6
 73
     3
 74
     0
 42
0.0000001
 43
0.0000001
 40
0.0
 40
0.0
 40
0.0
 40
1.0
 40
1.0
 40
1.0
 10
92.183508151224942
 20
116.18164033037395
 30
0.0
 10
92.109838300398678
 20
116.2890765104887
 30
0.0
 10
92.109838300398678
 20
116.41799897295208
 30
0.0
  0
SPLINE
  5
B0
102
{ACAD_REACTORS
330
31
102
}
100
AcDbEntity
  8
0
  6
CONTINUOUS
100
AcDbSpline
210
0.0
220
0.0
230
1.0
 70
     8
 71
     2
 72
     6
 73
     3
 74
     0
 42
0.0000001
 43
0.0000001
 40
0.0
 40
0.0
 40
0.0
 40
1.0
 40
1.0
 40
1.0
 10
92.109838300398678
 20
116.41799897295208
 30
0.0
 10
92.109838300398678
 20
116.60421818834514
 30
0.0
 10
92.22852873151669
 20
116.79657906633587
 30
0.0
  0
LINE
  5
B1
102
{ACAD_REACTORS
330
31
102
}
100
AcDbEntity
  8
0
  6
CONTINUOUS
100
AcDbLine
 10
92.228529
 20
116.796579
 30
0.0
 11
92.570275
 21
116.669702
 31
0.0
  0
SPLINE
  5
B2
102
{ACAD_REACTORS
330
31
102
}
100
AcDbEntity
  8
0
  6
CONTINUOUS
100
AcDbSpline
210
0.0
220
0.0
230
1.0
 70
     8
 71
     2
 72
     6
 73
     3
 74
     0
 42
0.0000001
 43
0.0000001
 40
0.0
 40
0.0
 40
0.0
 40
1.0
 40
1.0
 40
1.0
 10
92.570274942568687
 20
116.66970223528118
 30
0.0
 10
92.490465813330559
 20
116.53464287859173
 30
0.0
 10
92.490465813330559
 20
116.39958113771648
 30
0.0
  0
SPLINE
  5
B3
102
{ACAD_REACTORS
330
31
102
}
100
AcDbEntity
  8
0
  6
CONTINUOUS
100
AcDbSpline
210
0.0
220
0.0
230
1.0
 70
     8
 71
     2
 72
     6
 73
     3
 74
     0
 42
0.0000001
 43
0.0000001
 40
0.0
 40
0.0
 40
0.0
 40
1.0
 40
1.0
 40
1.0
 10
92.490465813330445
 20
116.39958113771648
 30
0.0
 10
92.490465813330445
 20
116.27884358507366
 30
0.0
 10
92.563112252405915
 20
116.18266553026409
 30
0.0
  0
SPLINE
  5
B4
102
{ACAD_REACTORS
330
31
102
}
100
AcDbEntity
  8
0
  6
CONTINUOUS
100
AcDbSpline
210
0.0
220
0.0
230
1.0
 70
     8
 71
     2
 72
     6
 73
     3
 74
     0
 42
0.0000001
 43
0.0000001
 40
0.0
 40
0.0
 40
0.0
 40
1.0
 40
1.0
 40
1.0
 10
92.563112252405972
 20
116.18266553026409
 30
0.0
 10
92.635758989504666
 20
116.08648270708294
 30
0.0
 10
92.764681451968045
 20
116.04555577379436
 30
0.0
  0
SPLINE
  5
B5
102
{ACAD_REACTORS
330
31
102
}
100
AcDbEntity
  8
0
  6
CONTINUOUS
100
AcDbSpline
210
0.0
220
0.0
230
1.0
 70
     8
 71
     2
 72
     6
 73
     3
 74
     0
 42
0.0000001
 43
0.0000001
 40
0.0
 40
0.0
 40
0.0
 40
1.0
 40
1.0
 40
1.0
 10
92.764681451968102
 20
116.04555577379438
 30
0.0
 10
92.961134188822655
 20
115.98416537386153
 30
0.0
 10
93.194422000101952
 20
115.98416537386153
 30
0.0
  0
LINE
  5
B6
102
{ACAD_REACTORS
330
31
102
}
100
AcDbEntity
  8
0
  6
CONTINUOUS
100
AcDbLine
 10
93.194422
 20
115.984165
 30
0.0
 11
94.332212
 21
115.984165
 31
0.0
  0
LINE
  5
B7
102
{ACAD_REACTORS
330
31
102
}
100
AcDbEntity
  8
0
  6
CONTINUOUS
100
AcDbLine
 10
94.332212
 20
115.984165
 30
0.0
 11
94.332212
 21
115.615816
 31
0.0
  0
LINE
  5
B8
102
{ACAD_REACTORS
330
31
102
}
100
AcDbEntity
  8
0
  6
CONTINUOUS
100
AcDbLine
 10
93.632349
 20
118.503265
 30
0.0
 11
93.679415
 21
118.883891
 31
0.0
  0
SPLINE
  5
B9
102
{ACAD_REACTORS
330
31
102
}
100
AcDbEntity
  8
0
  6
CONTINUOUS
100
AcDbSpline
210
0.0
220
0.0
230
1.0
 70
     8
 71
     2
 72
     6
 73
     3
 74
     0
 42
0.0000001
 43
0.0000001
 40
0.0
 40
0.0
 40
0.0
 40
1.0
 40
1.0
 40
1.0
 10
93.679415457896084
 20
118.88389081102582
 30
0.0
 10
94.012976163081021
 20
118.79384965044234
 30
0.0
 10
94.197150641135067
 20
118.55033129793379
 30
0.0
  0
SPLINE
  5
BA
102
{ACAD_REACTORS
330
31
102
}
100
AcDbEntity
  8
0
  6
CONTINUOUS
100
AcDbSpline
210
0.0
220
0.0
230
1.0
 70
     8
 71
     2
 72
     6
 73
     3
 74
     0
 42
0.0000001
 43
0.0000001
 40
0.0
 40
0.0
 40
0.0
 40
1.0
 40
1.0
 40
1.0
 10
94.197150641135067
 20
118.55033129793379
 30
0.0
 10
94.381325119189114
 20
118.30681294542525
 30
0.0
 10
94.381325119189114
 20
117.92823046785567
 30
0.0
  0
SPLINE
  5
BB
102
{ACAD_REACTORS
330
31
102
}
100
AcDbEntity
  8
0
  6
CONTINUOUS
100
AcDbSpline
210
0.0
220
0.0
230
1.0
 70
     8
 71
     2
 72
     6
 73
     3
 74
     0
 42
0.0000001
 43
0.0000001
 40
0.0
 40
0.0
 40
0.0
 40
1.0
 40
1.0
 40
1.0
 10
94.381325119189114
 20
117.92823046785567
 30
0.0
 10
94.381325119189114
 20
117.45142191988204
 30
0.0
 10
94.087669127634854
 20
117.17209071260665
 30
0.0
  0
SPLINE
  5
BC
102
{ACAD_REACTORS
330
31
102
}
100
AcDbEntity
  8
0
  6
CONTINUOUS
100
AcDbSpline
210
0.0
220
0.0
230
1.0
 70
     8
 71
     2
 72
     6
 73
     3
 74
     0
 42
0.0000001
 43
0.0000001
 40
0.0
 40
0.0
 40
0.0
 40
1.0
 40
1.0
 40
1.0
 10
94.087669127634797
 20
117.17209071260663
 30
0.0
 10
93.794012838057313
 20
116.89275950533123
 30
0.0
 10
93.263999097994599
 20
116.89275950533123
 30
0.0
  0
SPLINE
  5
BD
102
{ACAD_REACTORS
330
31
102
}
100
AcDbEntity
  8
0
  6
CONTINUOUS
100
AcDbSpline
210
0.0
220
0.0
230
1.0
 70
     8
 71
     2
 72
     6
 73
     3
 74
     0
 42
0.0000001
 43
0.0000001
 40
0.0
 40
0.0
 40
0.0
 40
1.0
 40
1.0
 40
1.0
 10
93.263999097994656
 20
116.89275950533126
 30
0.0
 10
92.715568118742794
 20
116.89275950533123
 30
0.0
 10
92.412702911547512
 20
117.17515915971967
 30
0.0
  0
SPLINE
  5
BE
102
{ACAD_REACTORS
330
31
102
}
100
AcDbEntity
  8
0
  6
CONTINUOUS
100
AcDbSpline
210
0.0
220
0.0
230
1.0
 70
     8
 71
     2
 72
     6
 73
     3
 74
     0
 42
0.0000001
 43
0.0000001
 40
0.0
 40
0.0
 40
0.0
 40
1.0
 40
1.0
 40
1.0
 10
92.412702911547512
 20
117.17515915971966
 30
0.0
 10
92.109838002375454
 20
117.45756119829387
 30
0.0
 10
92.109838002375454
 20
117.90776700121135
 30
0.0
  0
SPLINE
  5
BF
102
{ACAD_REACTORS
330
31
102
}
100
AcDbEntity
  8
0
  6
CONTINUOUS
100
AcDbSpline
210
0.0
220
0.0
230
1.0
 70
     8
 71
     2
 72
     6
 73
     3
 74
     0
 42
0.0000001
 43
0.0000001
 40
0.0
 40
0.0
 40
0.0
 40
1.0
 40
1.0
 40
1.0
 10
92.109838002375511
 20
117.90776700121135
 30
0.0
 10
92.109838002375511
 20
118.34364623171062
 30
0.0
 10
92.406563931158928
 20
118.61990899187298
 30
0.0
  0
SPLINE
  5
C0
102
{ACAD_REACTORS
330
31
102
}
100
AcDbEntity
  8
0
  6
CONTINUOUS
100
AcDbSpline
210
0.0
220
0.0
230
1.0
 70
     8
 71
     2
 72
     6
 73
     3
 74
     0
 42
0.0000001
 43
0.0000001
 40
0.0
 40
0.0
 40
0.0
 40
1.0
 40
1.0
 40
1.0
 10
92.406563931158814
 20
118.61990899187299
 30
0.0
 10
92.703289859942231
 20
118.89616936784955
 30
0.0
 10
93.241489105871949
 20
118.89616936784957
 30
0.0
  0
SPLINE
  5
C1
102
{ACAD_REACTORS
330
31
102
}
100
AcDbEntity
  8
0
  6
CONTINUOUS
100
AcDbSpline
210
0.0
220
0.0
230
1.0
 70
     8
 71
     2
 72
     6
 73
     3
 74
     0
 42
0.0000001
 43
0.0000001
 40
0.0
 40
0.0
 40
0.0
 40
1.0
 40
1.0
 40
1.0
 10
93.241489105871949
 20
118.89616936784955
 30
0.0
 10
93.274231129339967
 20
118.89616936784955
 30
0.0
 10
93.339715474299226
 20
118.89412373644086
 30
0.0
  0
LINE
  5
C2
102
{ACAD_REACTORS
330
31
102
}
100
AcDbEntity
  8
0
  6
CONTINUOUS
100
AcDbLine
 10
93.339715
 20
118.894124
 30
0.0
 11
93.339715
 21
117.273388
 31
0.0
  0
SPLINE
  5
C3
102
{ACAD_REACTORS
330
31
102
}
100
AcDbEntity
  8
0
  6
CONTINUOUS
100
AcDbSpline
210
0.0
220
0.0
230
1.0
 70
     8
 71
     2
 72
     6
 73
     3
 74
     0
 42
0.0000001
 43
0.0000001
 40
0.0
 40
0.0
 40
0.0
 40
1.0
 40
1.0
 40
1.0
 10
93.339715474299283
 20
117.27338761430951
 30
0.0
 10
93.697832697085232
 20
117.2938510809538
 30
0.0
 10
93.888146453551144
 20
117.47597903352948
 30
0.0
  0
SPLINE
  5
C4
102
{ACAD_REACTORS
330
31
102
}
100
AcDbEntity
  8
0
  6
CONTINUOUS
100
AcDbSpline
210
0.0
220
0.0
230
1.0
 70
     8
 71
     2
 72
     6
 73
     3
 74
     0
 42
0.0000001
 43
0.0000001
 40
0.0
 40
0.0
 40
0.0
 40
1.0
 40
1.0
 40
1.0
 10
93.888146453551144
 20
117.47597903352948
 30
0.0
 10
94.07846050804028
 20
117.65810698610518
 30
0.0
 10
94.07846050804028
 20
117.93027609926436
 30
0.0
  0
SPLINE
  5
C5
102
{ACAD_REACTORS
330
31
102
}
100
AcDbEntity
  8
0
  6
CONTINUOUS
100
AcDbSpline
210
0.0
220
0.0
230
1.0
 70
     8
 71
     2
 72
     6
 73
     3
 74
     0
 42
0.0000001
 43
0.0000001
 40
0.0
 40
0.0
 40
0.0
 40
1.0
 40
1.0
 40
1.0
 10
94.07846050804028
 20
117.93027609926435
 30
0.0
 10
94.07846050804028
 20
118.13286751848432
 30
0.0
 10
93.972048335722775
 20
118.2761141691801
 30
0.0
  0
SPLINE
  5
C6
102
{ACAD_REACTORS
330
31
102
}
100
AcDbEntity
  8
0
  6
CONTINUOUS
100
AcDbSpline
210
0.0
220
0.0
230
1.0
 70
     8
 71
     2
 72
     6
 73
     3
 74
     0
 42
0.0000001
 43
0.0000001
 40
0.0
 40
0.0
 40
0.0
 40
1.0
 40
1.0
 40
1.0
 10
93.972048335722775
 20
118.27611416918012
 30
0.0
 10
93.865636461428494
 20
118.41936081987592
 30
0.0
 10
93.632348650149197
 20
118.50326508623334
 30
0.0
  0
LINE
  5
C7
102
{ACAD_REACTORS
330
31
102
}
100
AcDbEntity
  8
0
  6
CONTINUOUS
100
AcDbLine
 10
93.036851
 20
117.293851
 30
0.0
 11
93.036851
 21
118.507356
 31
0.0
  0
SPLINE
  5
C8
102
{ACAD_REACTORS
330
31
102
}
100
AcDbEntity
  8
0
  6
CONTINUOUS
100
AcDbSpline
210
0.0
220
0.0
230
1.0
 70
     8
 71
     2
 72
     6
 73
     3
 74
     0
 42
0.0000001
 43
0.0000001
 40
0.0
 40
0.0
 40
0.0
 40
1.0
 40
1.0
 40
1.0
 10
93.036850565127224
 20
118.50735634905074
 30
0.0
 10
92.762634926489682
 20
118.48279923540326
 30
0.0
 10
92.625527256182522
 20
118.3682033453581
 30
0.0
  0
SPLINE
  5
C9
102
{ACAD_REACTORS
330
31
102
}
100
AcDbEntity
  8
0
  6
CONTINUOUS
100
AcDbSpline
210
0.0
220
0.0
230
1.0
 70
     8
 71
     2
 72
     6
 73
     3
 74
     0
 42
0.0000001
 43
0.0000001
 40
0.0
 40
0.0
 40
0.0
 40
1.0
 40
1.0
 40
1.0
 10
92.625527256182522
 20
118.36820334535808
 30
0.0
 10
92.412702911547512
 20
118.19221467119426
 30
0.0
 10
92.412702911547512
 20
117.91185826402874
 30
0.0
  0
SPLINE
  5
CA
102
{ACAD_REACTORS
330
31
102
}
100
AcDbEntity
  8
0
  6
CONTINUOUS
100
AcDbSpline
210
0.0
220
0.0
230
1.0
 70
     8
 71
     2
 72
     6
 73
     3
 74
     0
 42
0.0000001
 43
0.0000001
 40
0.0
 40
0.0
 40
0.0
 40
1.0
 40
1.0
 40
1.0
 10
92.412702911547512
 20
117.91185826402874
 30
0.0
 10
92.412702911547512
 20
117.65810698610515
 30
0.0
 10
92.582552903345913
 20
117.48518914324016
 30
0.0
  0
SPLINE
  5
CB
102
{ACAD_REACTORS
330
31
102
}
100
AcDbEntity
  8
0
  6
CONTINUOUS
100
AcDbSpline
210
0.0
220
0.0
230
1.0
 70
     8
 71
     2
 72
     6
 73
     3
 74
     0
 42
0.0000001
 43
0.0000001
 40
0.0
 40
0.0
 40
0.0
 40
1.0
 40
1.0
 40
1.0
 10
92.58255290334597
 20
117.48518914324016
 30
0.0
 10
92.752402895144371
 20
117.31226891618938
 30
0.0
 10
93.036850565127281
 20
117.2938510809538
 30
0.0
  0
LINE
  5
CC
102
{ACAD_REACTORS
330
31
102
}
100
AcDbEntity
  8
0
  6
CONTINUOUS
100
AcDbLine
 10
94.332212
 20
119.434368
 30
0.0
 11
92.445446
 21
119.434368
 31
0.0
  0
LINE
  5
CD
102
{ACAD_REACTORS
330
31
102
}
100
AcDbEntity
  8
0
  6
CONTINUOUS
100
AcDbLine
 10
92.445446
 20
119.434368
 30
0.0
 11
92.445446
 21
119.108994
 31
0.0
  0
LINE
  5
CE
102
{ACAD_REACTORS
330
31
102
}
100
AcDbEntity
  8
0
  6
CONTINUOUS
100
AcDbLine
 10
92.445446
 20
119.108994
 30
0.0
 11
92.158952
 21
119.108994
 31
0.0
  0
LINE
  5
CF
102
{ACAD_REACTORS
330
31
102
}
100
AcDbEntity
  8
0
  6
CONTINUOUS
100
AcDbLine
 10
92.158952
 20
119.108994
 30
0.0
 11
92.158952
 21
119.434368
 31
0.0
  0
LINE
  5
D0
102
{ACAD_REACTORS
330
31
102
}
100
AcDbEntity
  8
0
  6
CONTINUOUS
100
AcDbLine
 10
92.158952
 20
119.434368
 30
0.0
 11
91.92771
 21
119.434368
 31
0.0
  0
SPLINE
  5
D1
102
{ACAD_REACTORS
330
31
102
}
100
AcDbEntity
  8
0
  6
CONTINUOUS
100
AcDbSpline
210
0.0
220
0.0
230
1.0
 70
     8
 71
     2
 72
     6
 73
     3
 74
     0
 42
0.0000001
 43
0.0000001
 40
0.0
 40
0.0
 40
0.0
 40
1.0
 40
1.0
 40
1.0
 10
91.927710049799771
 20
119.43436831575603
 30
0.0
 10
91.70874672477612
 20
119.43436831575603
 30
0.0
 10
91.602334850481839
 20
119.47324961763591
 30
0.0
  0
SPLINE
  5
D2
102
{ACAD_REACTORS
330
31
102
}
100
AcDbEntity
  8
0
  6
CONTINUOUS
100
AcDbSpline
210
0.0
220
0.0
230
1.0
 70
     8
 71
     2
 72
     6
 73
     3
 74
     0
 42
0.0000001
 43
0.0000001
 40
0.0
 40
0.0
 40
0.0
 40
1.0
 40
1.0
 40
1.0
 10
91.602334850481839
 20
119.47324961763591
 30
0.0
 10
91.459087901762814
 20
119.52645510774821
 30
0.0
 10
91.370070152930111
 20
119.6604940329191
 30
0.0
  0
SPLINE
  5
D3
102
{ACAD_REACTORS
330
31
102
}
100
AcDbEntity
  8
0
  6
CONTINUOUS
100
AcDbSpline
210
0.0
220
0.0
230
1.0
 70
     8
 71
     2
 72
     6
 73
     3
 74
     0
 42
0.0000001
 43
0.0000001
 40
0.0
 40
0.0
 40
0.0
 40
1.0
 40
1.0
 40
1.0
 10
91.370070152930168
 20
119.6604940329191
 30
0.0
 10
91.281052404097466
 20
119.79453295809
 30
0.0
 10
91.281052404097466
 20
120.03600567918986
 30
0.0
  0
SPLINE
  5
D4
102
{ACAD_REACTORS
330
31
102
}
100
AcDbEntity
  8
0
  6
CONTINUOUS
100
AcDbSpline
210
0.0
220
0.0
230
1.0
 70
     8
 71
     2
 72
     6
 73
     3
 74
     0
 42
0.0000001
 43
0.0000001
 40
0.0
 40
0.0
 40
0.0
 40
1.0
 40
1.0
 40
1.0
 10
91.281052404097409
 20
120.03600567918986
 30
0.0
 10
91.281052404097409
 20
120.19153088670939
 30
0.0
 10
91.317887478522152
 20
120.37979811769694
 30
0.0
  0
LINE
  5
D5
102
{ACAD_REACTORS
330
31
102
}
100
AcDbEntity
  8
0
  6
CONTINUOUS
100
AcDbLine
 10
91.317887
 20
120.379798
 30
0.0
 11
91.63917
 21
120.324547
 31
0.0
  0
SPLINE
  5
D6
102
{ACAD_REACTORS
330
31
102
}
100
AcDbEntity
  8
0
  6
CONTINUOUS
100
AcDbSpline
210
0.0
220
0.0
230
1.0
 70
     8
 71
     2
 72
     6
 73
     3
 74
     0
 42
0.0000001
 43
0.0000001
 40
0.0
 40
0.0
 40
0.0
 40
1.0
 40
1.0
 40
1.0
 10
91.639169626883358
 20
120.32454699617594
 30
0.0
 10
91.618705862215847
 20
120.20994872194498
 30
0.0
 10
91.618705862215847
 20
120.10762900453776
 30
0.0
  0
SPLINE
  5
D7
102
{ACAD_REACTORS
330
31
102
}
100
AcDbEntity
  8
0
  6
CONTINUOUS
100
AcDbSpline
210
0.0
220
0.0
230
1.0
 70
     8
 71
     2
 72
     6
 73
     3
 74
     0
 42
0.0000001
 43
0.0000001
 40
0.0
 40
0.0
 40
0.0
 40
1.0
 40
1.0
 40
1.0
 10
91.618705862215847
 20
120.10762900453776
 30
0.0
 10
91.618705862215847
 20
119.93982524019449
 30
0.0
 10
91.690329485586972
 20
119.87024993044108
 30
0.0
  0
SPLINE
  5
D8
102
{ACAD_REACTORS
330
31
102
}
100
AcDbEntity
  8
0
  6
CONTINUOUS
100
AcDbSpline
210
0.0
220
0.0
230
1.0
 70
     8
 71
     2
 72
     6
 73
     3
 74
     0
 42
0.0000001
 43
0.0000001
 40
0.0
 40
0.0
 40
0.0
 40
1.0
 40
1.0
 40
1.0
 10
91.690329485586972
 20
119.87024993044109
 30
0.0
 10
91.761952810934872
 20
119.80067223650188
 30
0.0
 10
91.958405845812649
 20
119.80067223650188
 30
0.0
  0
LINE
  5
D9
102
{ACAD_REACTORS
330
31
102
}
100
AcDbEntity
  8
0
  6
CONTINUOUS
100
AcDbLine
 10
91.958406
 20
119.800672
 30
0.0
 11
92.158952
 21
119.800672
 31
0.0
  0
LINE
  5
DA
102
{ACAD_REACTORS
330
31
102
}
100
AcDbEntity
  8
0
  6
CONTINUOUS
100
AcDbLine
 10
92.158952
 20
119.800672
 30
0.0
 11
92.158952
 21
120.224273
 31
0.0
  0
LINE
  5
DB
102
{ACAD_REACTORS
330
31
102
}
100
AcDbEntity
  8
0
  6
CONTINUOUS
100
AcDbLine
 10
92.158952
 20
120.224273
 30
0.0
 11
92.445446
 21
120.224273
 31
0.0
  0
LINE
  5
DC
102
{ACAD_REACTORS
330
31
102
}
100
AcDbEntity
  8
0
  6
CONTINUOUS
100
AcDbLine
 10
92.445446
 20
120.224273
 30
0.0
 11
92.445446
 21
119.800672
 31
0.0
  0
LINE
  5
DD
102
{ACAD_REACTORS
330
31
102
}
100
AcDbEntity
  8
0
  6
CONTINUOUS
100
AcDbLine
 10
92.445446
 20
119.800672
 30
0.0
 11
94.332212
 21
119.800672
 31
0.0
  0
LINE
  5
DE
102
{ACAD_REACTORS
330
31
102
}
100
AcDbEntity
  8
0
  6
CONTINUOUS
100
AcDbLine
 10
94.332212
 20
119.800672
 30
0.0
 11
94.332212
 21
119.434368
 31
0.0
  0
LWPOLYLINE
  5
DF
102
{ACAD_REACTORS
330
31
102
}
100
AcDbEntity
  8
0
  6
CONTINUOUS
100
AcDbPolyline
 90
        5
 70
     0
 10
91.332212
 20
120.502581
 10
94.332212
 20
120.502581
 10
94.332212
 20
120.870931
 10
91.332212
 20
120.870931
 10
91.332212
 20
120.502581
  0
LINE
  5
E0
102
{ACAD_REACTORS
330
31
102
}
100
AcDbEntity
  8
0
  6
CONTINUOUS
100
AcDbLine
 10
93.632349
 20
122.929597
 30
0.0
 11
93.679415
 21
123.310222
 31
0.0
  0
SPLINE
  5
E1
102
{ACAD_REACTORS
330
31
102
}
100
AcDbEntity
  8
0
  6
CONTINUOUS
100
AcDbSpline
210
0.0
220
0.0
230
1.0
 70
     8
 71
     2
 72
     6
 73
     3
 74
     0
 42
0.0000001
 43
0.0000001
 40
0.0
 40
0.0
 40
0.0
 40
1.0
 40
1.0
 40
1.0
 10
93.679415457896084
 20
123.31022233110639
 30
0.0
 10
94.012976163081021
 20
123.22018117052289
 30
0.0
 10
94.197150641135067
 20
122.97666281801435
 30
0.0
  0
SPLINE
  5
E2
102
{ACAD_REACTORS
330
31
102
}
100
AcDbEntity
  8
0
  6
CONTINUOUS
100
AcDbSpline
210
0.0
220
0.0
230
1.0
 70
     8
 71
     2
 72
     6
 73
     3
 74
     0
 42
0.0000001
 43
0.0000001
 40
0.0
 40
0.0
 40
0.0
 40
1.0
 40
1.0
 40
1.0
 10
94.197150641135067
 20
122.97666281801436
 30
0.0
 10
94.381325119189114
 20
122.73314208132004
 30
0.0
 10
94.381325119189114
 20
122.35456198793625
 30
0.0
  0
SPLINE
  5
E3
102
{ACAD_REACTORS
330
31
102
}
100
AcDbEntity
  8
0
  6
CONTINUOUS
100
AcDbSpline
210
0.0
220
0.0
230
1.0
 70
     8
 71
     2
 72
     6
 73
     3
 74
     0
 42
0.0000001
 43
0.0000001
 40
0.0
 40
0.0
 40
0.0
 40
1.0
 40
1.0
 40
1.0
 10
94.381325119189114
 20
122.35456198793624
 30
0.0
 10
94.381325119189114
 20
121.8777534399626
 30
0.0
 10
94.087669127634854
 20
121.5984222326872
 30
0.0
  0
SPLINE
  5
E4
102
{ACAD_REACTORS
330
31
102
}
100
AcDbEntity
  8
0
  6
CONTINUOUS
100
AcDbSpline
210
0.0
220
0.0
230
1.0
 70
     8
 71
     2
 72
     6
 73
     3
 74
     0
 42
0.0000001
 43
0.0000001
 40
0.0
 40
0.0
 40
0.0
 40
1.0
 40
1.0
 40
1.0
 10
94.087669127634797
 20
121.5984222326872
 30
0.0
 10
93.794012838057313
 20
121.31909102541181
 30
0.0
 10
93.263999097994599
 20
121.31909102541181
 30
0.0
  0
SPLINE
  5
E5
102
{ACAD_REACTORS
330
31
102
}
100
AcDbEntity
  8
0
  6
CONTINUOUS
100
AcDbSpline
210
0.0
220
0.0
230
1.0
 70
     8
 71
     2
 72
     6
 73
     3
 74
     0
 42
0.0000001
 43
0.0000001
 40
0.0
 40
0.0
 40
0.0
 40
1.0
 40
1.0
 40
1.0
 10
93.263999097994656
 20
121.31909102541181
 30
0.0
 10
92.715568118742794
 20
121.31909102541181
 30
0.0
 10
92.412702911547512
 20
121.60149306398603
 30
0.0
  0
SPLINE
  5
E6
102
{ACAD_REACTORS
330
31
102
}
100
AcDbEntity
  8
0
  6
CONTINUOUS
100
AcDbSpline
210
0.0
220
0.0
230
1.0
 70
     8
 71
     2
 72
     6
 73
     3
 74
     0
 42
0.0000001
 43
0.0000001
 40
0.0
 40
0.0
 40
0.0
 40
1.0
 40
1.0
 40
1.0
 10
92.412702911547512
 20
121.60149306398601
 30
0.0
 10
92.109838002375454
 20
121.88389271837444
 30
0.0
 10
92.109838002375454
 20
122.33409852129192
 30
0.0
  0
SPLINE
  5
E7
102
{ACAD_REACTORS
330
31
102
}
100
AcDbEntity
  8
0
  6
CONTINUOUS
100
AcDbSpline
210
0.0
220
0.0
230
1.0
 70
     8
 71
     2
 72
     6
 73
     3
 74
     0
 42
0.0000001
 43
0.0000001
 40
0.0
 40
0.0
 40
0.0
 40
1.0
 40
1.0
 40
1.0
 10
92.109838002375511
 20
122.33409852129191
 30
0.0
 10
92.109838002375511
 20
122.76997775179117
 30
0.0
 10
92.406563931158928
 20
123.04624051195353
 30
0.0
  0
SPLINE
  5
E8
102
{ACAD_REACTORS
330
31
102
}
100
AcDbEntity
  8
0
  6
CONTINUOUS
100
AcDbSpline
210
0.0
220
0.0
230
1.0
 70
     8
 71
     2
 72
     6
 73
     3
 74
     0
 42
0.0000001
 43
0.0000001
 40
0.0
 40
0.0
 40
0.0
 40
1.0
 40
1.0
 40
1.0
 10
92.406563931158814
 20
123.04624051195356
 30
0.0
 10
92.703289859942231
 20
123.32250088793012
 30
0.0
 10
93.241489105871949
 20
123.32250088793013
 30
0.0
  0
SPLINE
  5
E9
102
{ACAD_REACTORS
330
31
102
}
100
AcDbEntity
  8
0
  6
CONTINUOUS
100
AcDbSpline
210
0.0
220
0.0
230
1.0
 70
     8
 71
     2
 72
     6
 73
     3
 74
     0
 42
0.0000001
 43
0.0000001
 40
0.0
 40
0.0
 40
0.0
 40
1.0
 40
1.0
 40
1.0
 10
93.241489105871949
 20
123.32250088793012
 30
0.0
 10
93.274231129339967
 20
123.32250088793012
 30
0.0
 10
93.339715474299226
 20
123.32045525652143
 30
0.0
  0
LINE
  5
EA
102
{ACAD_REACTORS
330
31
102
}
100
AcDbEntity
  8
0
  6
CONTINUOUS
100
AcDbLine
 10
93.339715
 20
123.320455
 30
0.0
 11
93.339715
 21
121.699719
 31
0.0
  0
SPLINE
  5
EB
102
{ACAD_REACTORS
330
31
102
}
100
AcDbEntity
  8
0
  6
CONTINUOUS
100
AcDbSpline
210
0.0
220
0.0
230
1.0
 70
     8
 71
     2
 72
     6
 73
     3
 74
     0
 42
0.0000001
 43
0.0000001
 40
0.0
 40
0.0
 40
0.0
 40
1.0
 40
1.0
 40
1.0
 10
93.339715474299283
 20
121.69971913439008
 30
0.0
 10
93.697832697085232
 20
121.72018260103437
 30
0.0
 10
93.888146453551144
 20
121.90231055361005
 30
0.0
  0
SPLINE
  5
EC
102
{ACAD_REACTORS
330
31
102
}
100
AcDbEntity
  8
0
  6
CONTINUOUS
100
AcDbSpline
210
0.0
220
0.0
230
1.0
 70
     8
 71
     2
 72
     6
 73
     3
 74
     0
 42
0.0000001
 43
0.0000001
 40
0.0
 40
0.0
 40
0.0
 40
1.0
 40
1.0
 40
1.0
 10
93.888146453551144
 20
121.90231055361005
 30
0.0
 10
94.07846050804028
 20
122.08443850618575
 30
0.0
 10
94.07846050804028
 20
122.35660761934493
 30
0.0
  0
SPLINE
  5
ED
102
{ACAD_REACTORS
330
31
102
}
100
AcDbEntity
  8
0
  6
CONTINUOUS
100
AcDbSpline
210
0.0
220
0.0
230
1.0
 70
     8
 71
     2
 72
     6
 73
     3
 74
     0
 42
0.0000001
 43
0.0000001
 40
0.0
 40
0.0
 40
0.0
 40
1.0
 40
1.0
 40
1.0
 10
94.07846050804028
 20
122.35660761934494
 30
0.0
 10
94.07846050804028
 20
122.55919903856491
 30
0.0
 10
93.972048335722775
 20
122.70244807344649
 30
0.0
  0
SPLINE
  5
EE
102
{ACAD_REACTORS
330
31
102
}
100
AcDbEntity
  8
0
  6
CONTINUOUS
100
AcDbSpline
210
0.0
220
0.0
230
1.0
 70
     8
 71
     2
 72
     6
 73
     3
 74
     0
 42
0.0000001
 43
0.0000001
 40
0.0
 40
0.0
 40
0.0
 40
1.0
 40
1.0
 40
1.0
 10
93.972048335722775
 20
122.70244807344648
 30
0.0
 10
93.865636461428494
 20
122.84569472414228
 30
0.0
 10
93.632348650149197
 20
122.92959660631391
 30
0.0
  0
LINE
  5
EF
102
{ACAD_REACTORS
330
31
102
}
100
AcDbEntity
  8
0
  6
CONTINUOUS
100
AcDbLine
 10
93.036851
 20
121.720183
 30
0.0
 11
93.036851
 21
122.933688
 31
0.0
  0
SPLINE
  5
F0
102
{ACAD_REACTORS
330
31
102
}
100
AcDbEntity
  8
0
  6
CONTINUOUS
100
AcDbSpline
210
0.0
220
0.0
230
1.0
 70
     8
 71
     2
 72
     6
 73
     3
 74
     0
 42
0.0000001
 43
0.0000001
 40
0.0
 40
0.0
 40
0.0
 40
1.0
 40
1.0
 40
1.0
 10
93.036850565127224
 20
122.93368786913129
 30
0.0
 10
92.762634926489682
 20
122.90913075548383
 30
0.0
 10
92.625527256182522
 20
122.79453486543866
 30
0.0
  0
SPLINE
  5
F1
102
{ACAD_REACTORS
330
31
102
}
100
AcDbEntity
  8
0
  6
CONTINUOUS
100
AcDbSpline
210
0.0
220
0.0
230
1.0
 70
     8
 71
     2
 72
     6
 73
     3
 74
     0
 42
0.0000001
 43
0.0000001
 40
0.0
 40
0.0
 40
0.0
 40
1.0
 40
1.0
 40
1.0
 10
92.625527256182522
 20
122.79453486543865
 30
0.0
 10
92.412702911547512
 20
122.61854619127482
 30
0.0
 10
92.412702911547512
 20
122.33818978410929
 30
0.0
  0
SPLINE
  5
F2
102
{ACAD_REACTORS
330
31
102
}
100
AcDbEntity
  8
0
  6
CONTINUOUS
100
AcDbSpline
210
0.0
220
0.0
230
1.0
 70
     8
 71
     2
 72
     6
 73
     3
 74
     0
 42
0.0000001
 43
0.0000001
 40
0.0
 40
0.0
 40
0.0
 40
1.0
 40
1.0
 40
1.0
 10
92.412702911547512
 20
122.33818978410929
 30
0.0
 10
92.412702911547512
 20
122.08443850618571
 30
0.0
 10
92.582552903345913
 20
121.91151827913492
 30
0.0
  0
SPLINE
  5
F3
102
{ACAD_REACTORS
330
31
102
}
100
AcDbEntity
  8
0
  6
CONTINUOUS
100
AcDbSpline
210
0.0
220
0.0
230
1.0
 70
     8
 71
     2
 72
     6
 73
     3
 74
     0
 42
0.0000001
 43
0.0000001
 40
0.0
 40
0.0
 40
0.0
 40
1.0
 40
1.0
 40
1.0
 10
92.58255290334597
 20
121.91151827913495
 30
0.0
 10
92.752402895144371
 20
121.73860043626996
 30
0.0
 10
93.036850565127281
 20
121.72018260103437
 30
0.0
  0
LINE
  5
F4
102
{ACAD_REACTORS
330
31
102
}
100
AcDbEntity
  8
0
  6
CONTINUOUS
100
AcDbLine
 10
93.536169
 20
125.190849
 30
0.0
 11
93.583235
 21
125.553059
 31
0.0
  0
SPLINE
  5
F5
102
{ACAD_REACTORS
330
31
102
}
100
AcDbEntity
  8
0
  6
CONTINUOUS
100
AcDbSpline
210
0.0
220
0.0
230
1.0
 70
     8
 71
     2
 72
     6
 73
     3
 74
     0
 42
0.0000001
 43
0.0000001
 40
0.0
 40
0.0
 40
0.0
 40
1.0
 40
1.0
 40
1.0
 10
93.58323531692389
 20
125.55305928331586
 30
0.0
 10
93.957723551443848
 20
125.49371451479169
 30
0.0
 10
94.169524484328065
 20
125.24917096239301
 30
0.0
  0
SPLINE
  5
F6
102
{ACAD_REACTORS
330
31
102
}
100
AcDbEntity
  8
0
  6
CONTINUOUS
100
AcDbSpline
210
0.0
220
0.0
230
1.0
 70
     8
 71
     2
 72
     6
 73
     3
 74
     0
 42
0.0000001
 43
0.0000001
 40
0.0
 40
0.0
 40
0.0
 40
1.0
 40
1.0
 40
1.0
 10
94.169524484328122
 20
125.24917096239301
 30
0.0
 10
94.381325119189114
 20
125.00462979418012
 30
0.0
 10
94.381325119189114
 20
124.64855879884931
 30
0.0
  0
SPLINE
  5
F7
102
{ACAD_REACTORS
330
31
102
}
100
AcDbEntity
  8
0
  6
CONTINUOUS
100
AcDbSpline
210
0.0
220
0.0
230
1.0
 70
     8
 71
     2
 72
     6
 73
     3
 74
     0
 42
0.0000001
 43
0.0000001
 40
0.0
 40
0.0
 40
0.0
 40
1.0
 40
1.0
 40
1.0
 10
94.381325119189057
 20
124.64855879884931
 30
0.0
 10
94.381325119189057
 20
124.202446642935
 30
0.0
 10
94.089715355089936
 20
123.93130034548017
 30
0.0
  0
SPLINE
  5
F8
102
{ACAD_REACTORS
330
31
102
}
100
AcDbEntity
  8
0
  6
CONTINUOUS
100
AcDbSpline
210
0.0
220
0.0
230
1.0
 70
     8
 71
     2
 72
     6
 73
     3
 74
     0
 42
0.0000001
 43
0.0000001
 40
0.0
 40
0.0
 40
0.0
 40
1.0
 40
1.0
 40
1.0
 10
94.089715355089936
 20
123.93130034548017
 30
0.0
 10
93.798105590990815
 20
123.66015404802532
 30
0.0
 10
93.253767364672456
 20
123.66015404802532
 30
0.0
  0
SPLINE
  5
F9
102
{ACAD_REACTORS
330
31
102
}
100
AcDbEntity
  8
0
  6
CONTINUOUS
100
AcDbSpline
210
0.0
220
0.0
230
1.0
 70
     8
 71
     2
 72
     6
 73
     3
 74
     0
 42
0.0000001
 43
0.0000001
 40
0.0
 40
0.0
 40
0.0
 40
1.0
 40
1.0
 40
1.0
 10
93.253767364672569
 20
123.66015404802533
 30
0.0
 10
92.901789122275261
 20
123.66015404802532
 30
0.0
 10
92.637805514983086
 20
123.77679795366498
 30
0.0
  0
SPLINE
  5
FA
102
{ACAD_REACTORS
330
31
102
}
100
AcDbEntity
  8
0
  6
CONTINUOUS
100
AcDbSpline
210
0.0
220
0.0
230
1.0
 70
     8
 71
     2
 72
     6
 73
     3
 74
     0
 42
0.0000001
 43
0.0000001
 40
0.0
 40
0.0
 40
0.0
 40
1.0
 40
1.0
 40
1.0
 10
92.637805514983029
 20
123.77679795366495
 30
0.0
 10
92.37382160966763
 20
123.8934418593046
 30
0.0
 10
92.241830104044766
 20
124.13184613329142
 30
0.0
  0
SPLINE
  5
FB
102
{ACAD_REACTORS
330
31
102
}
100
AcDbEntity
  8
0
  6
CONTINUOUS
100
AcDbSpline
210
0.0
220
0.0
230
1.0
 70
     8
 71
     2
 72
     6
 73
     3
 74
     0
 42
0.0000001
 43
0.0000001
 40
0.0
 40
0.0
 40
0.0
 40
1.0
 40
1.0
 40
1.0
 10
92.241830104044766
 20
124.13184613329143
 30
0.0
 10
92.109838002375454
 20
124.37025040727825
 30
0.0
 10
92.109838002375454
 20
124.65060443025799
 30
0.0
  0
SPLINE
  5
FC
102
{ACAD_REACTORS
330
31
102
}
100
AcDbEntity
  8
0
  6
CONTINUOUS
100
AcDbSpline
210
0.0
220
0.0
230
1.0
 70
     8
 71
     2
 72
     6
 73
     3
 74
     0
 42
0.0000001
 43
0.0000001
 40
0.0
 40
0.0
 40
0.0
 40
1.0
 40
1.0
 40
1.0
 10
92.109838002375398
 20
124.65060443025799
 30
0.0
 10
92.109838002375398
 20
125.0046297941801
 30
0.0
 10
92.288896911791596
 20
125.22973031145305
 30
0.0
  0
SPLINE
  5
FD
102
{ACAD_REACTORS
330
31
102
}
100
AcDbEntity
  8
0
  6
CONTINUOUS
100
AcDbSpline
210
0.0
220
0.0
230
1.0
 70
     8
 71
     2
 72
     6
 73
     3
 74
     0
 42
0.0000001
 43
0.0000001
 40
0.0
 40
0.0
 40
0.0
 40
1.0
 40
1.0
 40
1.0
 10
92.28889691179171
 20
125.22973031145304
 30
0.0
 10
92.467955523184685
 20
125.45483321291178
 30
0.0
 10
92.797423475436119
 20
125.51827162843914
 30
0.0
  0
LINE
  5
FE
102
{ACAD_REACTORS
330
31
102
}
100
AcDbEntity
  8
0
  6
CONTINUOUS
100
AcDbLine
 10
92.797423
 20
125.518272
 30
0.0
 11
92.852676
 21
125.160155
 31
0.0
  0
SPLINE
  5
FF
102
{ACAD_REACTORS
330
31
102
}
100
AcDbEntity
  8
0
  6
CONTINUOUS
100
AcDbSpline
210
0.0
220
0.0
230
1.0
 70
     8
 71
     2
 72
     6
 73
     3
 74
     0
 42
0.0000001
 43
0.0000001
 40
0.0
 40
0.0
 40
0.0
 40
1.0
 40
1.0
 40
1.0
 10
92.852675789049897
 20
125.16015500169964
 30
0.0
 10
92.63371276204947
 20
125.10899514299602
 30
0.0
 10
92.523207836798463
 20
124.97904986482828
 30
0.0
  0
SPLINE
  5
100
102
{ACAD_REACTORS
330
31
102
}
100
AcDbEntity
  8
0
  6
CONTINUOUS
100
AcDbSpline
210
0.0
220
0.0
230
1.0
 70
     8
 71
     2
 72
     6
 73
     3
 74
     0
 42
0.0000001
 43
0.0000001
 40
0.0
 40
0.0
 40
0.0
 40
1.0
 40
1.0
 40
1.0
 10
92.52320783679852
 20
124.97904986482828
 30
0.0
 10
92.412702911547512
 20
124.84910458666056
 30
0.0
 10
92.412702911547512
 20
124.66492861849039
 30
0.0
  0
SPLINE
  5
101
102
{ACAD_REACTORS
330
31
102
}
100
AcDbEntity
  8
0
  6
CONTINUOUS
100
AcDbSpline
210
0.0
220
0.0
230
1.0
 70
     8
 71
     2
 72
     6
 73
     3
 74
     0
 42
0.0000001
 43
0.0000001
 40
0.0
 40
0.0
 40
0.0
 40
1.0
 40
1.0
 40
1.0
 10
92.412702911547569
 20
124.66492861849039
 30
0.0
 10
92.412702911547569
 20
124.38662022691935
 30
0.0
 10
92.612225585631279
 20
124.21267718416424
 30
0.0
  0
SPLINE
  5
102
102
{ACAD_REACTORS
330
31
102
}
100
AcDbEntity
  8
0
  6
CONTINUOUS
100
AcDbSpline
210
0.0
220
0.0
230
1.0
 70
     8
 71
     2
 72
     6
 73
     3
 74
     0
 42
0.0000001
 43
0.0000001
 40
0.0
 40
0.0
 40
0.0
 40
1.0
 40
1.0
 40
1.0
 10
92.612225585631222
 20
124.21267718416425
 30
0.0
 10
92.811748259714932
 20
124.03873414140912
 30
0.0
 10
93.243535333327145
 20
124.03873414140912
 30
0.0
  0
SPLINE
  5
103
102
{ACAD_REACTORS
330
31
102
}
100
AcDbEntity
  8
0
  6
CONTINUOUS
100
AcDbSpline
210
0.0
220
0.0
230
1.0
 70
     8
 71
     2
 72
     6
 73
     3
 74
     0
 42
0.0000001
 43
0.0000001
 40
0.0
 40
0.0
 40
0.0
 40
1.0
 40
1.0
 40
1.0
 10
93.243535333327088
 20
124.03873414140912
 30
0.0
 10
93.681461685351167
 20
124.03873414140912
 30
0.0
 10
93.879960947684083
 20
124.20653790575238
 30
0.0
  0
SPLINE
  5
104
102
{ACAD_REACTORS
330
31
102
}
100
AcDbEntity
  8
0
  6
CONTINUOUS
100
AcDbSpline
210
0.0
220
0.0
230
1.0
 70
     8
 71
     2
 72
     6
 73
     3
 74
     0
 42
0.0000001
 43
0.0000001
 40
0.0
 40
0.0
 40
0.0
 40
1.0
 40
1.0
 40
1.0
 10
93.87996094768414
 20
124.20653790575238
 30
0.0
 10
94.07846050804028
 20
124.37434167009565
 30
0.0
 10
94.07846050804028
 20
124.64446515184613
 30
0.0
  0
SPLINE
  5
105
102
{ACAD_REACTORS
330
31
102
}
100
AcDbEntity
  8
0
  6
CONTINUOUS
100
AcDbSpline
210
0.0
220
0.0
230
1.0
 70
     8
 71
     2
 72
     6
 73
     3
 74
     0
 42
0.0000001
 43
0.0000001
 40
0.0
 40
0.0
 40
0.0
 40
1.0
 40
1.0
 40
1.0
 10
94.078460508040223
 20
124.64446515184613
 30
0.0
 10
94.078460508040223
 20
124.86138075929853
 30
0.0
 10
93.945445292643342
 20
125.00667542558881
 30
0.0
  0
SPLINE
  5
106
102
{ACAD_REACTORS
330
31
102
}
100
AcDbEntity
  8
0
  6
CONTINUOUS
100
AcDbSpline
210
0.0
220
0.0
230
1.0
 70
     8
 71
     2
 72
     6
 73
     3
 74
     0
 42
0.0000001
 43
0.0000001
 40
0.0
 40
0.0
 40
0.0
 40
1.0
 40
1.0
 40
1.0
 10
93.945445292643342
 20
125.00667542558881
 30
0.0
 10
93.812430375269685
 20
125.1519677076933
 30
0.0
 10
93.536168509177003
 20
125.19084900957318
 30
0.0
  0
LINE
  5
107
102
{ACAD_REACTORS
330
31
102
}
100
AcDbEntity
  8
0
  6
CONTINUOUS
100
AcDbLine
 10
94.002744
 20
126.67243
 30
0.0
 11
94.328119
 21
126.725638
 31
0.0
  0
SPLINE
  5
108
102
{ACAD_REACTORS
330
31
102
}
100
AcDbEntity
  8
0
  6
CONTINUOUS
100
AcDbSpline
210
0.0
220
0.0
230
1.0
 70
     8
 71
     2
 72
     6
 73
     3
 74
     0
 42
0.0000001
 43
0.0000001
 40
0.0
 40
0.0
 40
0.0
 40
1.0
 40
1.0
 40
1.0
 10
94.328119033030362
 20
126.72563761812421
 30
0.0
 10
94.360861652544827
 20
126.57011241060468
 30
0.0
 10
94.360861652544827
 20
126.44732922655317
 30
0.0
  0
SPLINE
  5
109
102
{ACAD_REACTORS
330
31
102
}
100
AcDbEntity
  8
0
  6
CONTINUOUS
100
AcDbSpline
210
0.0
220
0.0
230
1.0
 70
     8
 71
     2
 72
     6
 73
     3
 74
     0
 42
0.0000001
 43
0.0000001
 40
0.0
 40
0.0
 40
0.0
 40
1.0
 40
1.0
 40
1.0
 10
94.360861652544827
 20
126.44732922655318
 30
0.0
 10
94.360861652544827
 20
126.2467834387419
 30
0.0
 10
94.297423833063931
 20
126.1362788115141
 30
0.0
  0
SPLINE
  5
10A
102
{ACAD_REACTORS
330
31
102
}
100
AcDbEntity
  8
0
  6
CONTINUOUS
100
AcDbSpline
210
0.0
220
0.0
230
1.0
 70
     8
 71
     2
 72
     6
 73
     3
 74
     0
 42
0.0000001
 43
0.0000001
 40
0.0
 40
0.0
 40
0.0
 40
1.0
 40
1.0
 40
1.0
 10
94.297423833063931
 20
126.1362788115141
 30
0.0
 10
94.233985417536587
 20
126.02577418428632
 30
0.0
 10
94.130643182448239
 20
125.98075360399457
 30
0.0
  0
SPLINE
  5
10B
102
{ACAD_REACTORS
330
31
102
}
100
AcDbEntity
  8
0
  6
CONTINUOUS
100
AcDbSpline
210
0.0
220
0.0
230
1.0
 70
     8
 71
     2
 72
     6
 73
     3
 74
     0
 42
0.0000001
 43
0.0000001
 40
0.0
 40
0.0
 40
0.0
 40
1.0
 40
1.0
 40
1.0
 10
94.130643182448296
 20
125.98075360399457
 30
0.0
 10
94.027300649336723
 20
125.93573302370282
 30
0.0
 10
93.69578646963015
 20
125.93573302370282
 30
0.0
  0
LINE
  5
10C
102
{ACAD_REACTORS
330
31
102
}
100
AcDbEntity
  8
0
  6
CONTINUOUS
100
AcDbLine
 10
93.695786
 20
125.935733
 30
0.0
 11
92.445446
 21
125.935733
 31
0.0
  0
LINE
  5
10D
102
{ACAD_REACTORS
330
31
102
}
100
AcDbEntity
  8
0
  6
CONTINUOUS
100
AcDbLine
 10
92.445446
 20
125.935733
 30
0.0
 11
92.445446
 21
125.66561
 31
0.0
  0
LINE
  5
10E
102
{ACAD_REACTORS
330
31
102
}
100
AcDbEntity
  8
0
  6
CONTINUOUS
100
AcDbLine
 10
92.445446
 20
125.66561
 30
0.0
 11
92.158952
 21
125.66561
 31
0.0
  0
LINE
  5
10F
102
{ACAD_REACTORS
330
31
102
}
100
AcDbEntity
  8
0
  6
CONTINUOUS
100
AcDbLine
 10
92.158952
 20
125.66561
 30
0.0
 11
92.158952
 21
125.935733
 31
0.0
  0
LINE
  5
110
102
{ACAD_REACTORS
330
31
102
}
100
AcDbEntity
  8
0
  6
CONTINUOUS
100
AcDbLine
 10
92.158952
 20
125.935733
 30
0.0
 11
91.620752
 21
125.935733
 31
0.0
  0
LINE
  5
111
102
{ACAD_REACTORS
330
31
102
}
100
AcDbEntity
  8
0
  6
CONTINUOUS
100
AcDbLine
 10
91.620752
 20
125.935733
 30
0.0
 11
91.399743
 21
126.302035
 31
0.0
  0
LINE
  5
112
102
{ACAD_REACTORS
330
31
102
}
100
AcDbEntity
  8
0
  6
CONTINUOUS
100
AcDbLine
 10
91.399743
 20
126.302035
 30
0.0
 11
92.158952
 21
126.302035
 31
0.0
  0
LINE
  5
113
102
{ACAD_REACTORS
330
31
102
}
100
AcDbEntity
  8
0
  6
CONTINUOUS
100
AcDbLine
 10
92.158952
 20
126.302035
 30
0.0
 11
92.158952
 21
126.67243
 31
0.0
  0
LINE
  5
114
102
{ACAD_REACTORS
330
31
102
}
100
AcDbEntity
  8
0
  6
CONTINUOUS
100
AcDbLine
 10
92.158952
 20
126.67243
 30
0.0
 11
92.445446
 21
126.67243
 31
0.0
  0
LINE
  5
115
102
{ACAD_REACTORS
330
31
102
}
100
AcDbEntity
  8
0
  6
CONTINUOUS
100
AcDbLine
 10
92.445446
 20
126.67243
 30
0.0
 11
92.445446
 21
126.302035
 31
0.0
  0
LINE
  5
116
102
{ACAD_REACTORS
330
31
102
}
100
AcDbEntity
  8
0
  6
CONTINUOUS
100
AcDbLine
 10
92.445446
 20
126.302035
 30
0.0
 11
93.71625
 21
126.302035
 31
0.0
  0
SPLINE
  5
117
102
{ACAD_REACTORS
330
31
102
}
100
AcDbEntity
  8
0
  6
CONTINUOUS
100
AcDbSpline
210
0.0
220
0.0
230
1.0
 70
     8
 71
     2
 72
     6
 73
     3
 74
     0
 42
0.0000001
 43
0.0000001
 40
0.0
 40
0.0
 40
0.0
 40
1.0
 40
1.0
 40
1.0
 10
93.716250234297604
 20
126.30203456026288
 30
0.0
 10
93.873821967295498
 20
126.30203456026288
 30
0.0
 10
93.918842249564022
 20
126.32147521120282
 30
0.0
  0
SPLINE
  5
118
102
{ACAD_REACTORS
330
31
102
}
100
AcDbEntity
  8
0
  6
CONTINUOUS
100
AcDbSpline
210
0.0
220
0.0
230
1.0
 70
     8
 71
     2
 72
     6
 73
     3
 74
     0
 42
0.0000001
 43
0.0000001
 40
0.0
 40
0.0
 40
0.0
 40
1.0
 40
1.0
 40
1.0
 10
93.918842249564022
 20
126.32147521120282
 30
0.0
 10
93.963862829855771
 20
126.34091586214277
 30
0.0
 10
93.990465872935147
 20
126.38491362673017
 30
0.0
  0
SPLINE
  5
119
102
{ACAD_REACTORS
330
31
102
}
100
AcDbEntity
  8
0
  6
CONTINUOUS
100
AcDbSpline
210
0.0
220
0.0
230
1.0
 70
     8
 71
     2
 72
     6
 73
     3
 74
     0
 42
0.0000001
 43
0.0000001
 40
0.0
 40
0.0
 40
0.0
 40
1.0
 40
1.0
 40
1.0
 10
93.99046587293509
 20
126.38491362673017
 30
0.0
 10
94.017068916014466
 20
126.42891139131757
 30
0.0
 10
94.017068916014466
 20
126.51076764208051
 30
0.0
  0
SPLINE
  5
11A
102
{ACAD_REACTORS
330
31
102
}
100
AcDbEntity
  8
0
  6
CONTINUOUS
100
AcDbSpline
210
0.0
220
0.0
230
1.0
 70
     8
 71
     2
 72
     6
 73
     3
 74
     0
 42
0.0000001
 43
0.0000001
 40
0.0
 40
0.0
 40
0.0
 40
1.0
 40
1.0
 40
1.0
 10
94.017068916014523
 20
126.51076764208051
 30
0.0
 10
94.017068916014523
 20
126.57215804201337
 30
0.0
 10
94.002744131735653
 20
126.67242974382611
 30
0.0
  0
SPLINE
  5
11B
102
{ACAD_REACTORS
330
31
102
}
100
AcDbEntity
  8
0
  6
CONTINUOUS
100
AcDbSpline
210
0.0
220
0.0
230
1.0
 70
     8
 71
     2
 72
     6
 73
     3
 74
     0
 42
0.0000001
 43
0.0000001
 40
0.0
 40
0.0
 40
0.0
 40
1.0
 40
1.0
 40
1.0
 10
93.245581858805451
 20
126.89548701387616
 30
0.0
 10
92.641898267916474
 20
126.89548701387616
 30
0.0
 10
92.351311617544923
 20
127.23109692674846
 30
0.0
  0
SPLINE
  5
11C
102
{ACAD_REACTORS
330
31
102
}
100
AcDbEntity
  8
0
  6
CONTINUOUS
100
AcDbSpline
210
0.0
220
0.0
230
1.0
 70
     8
 71
     2
 72
     6
 73
     3
 74
     0
 42
0.0000001
 43
0.0000001
 40
0.0
 40
0.0
 40
0.0
 40
1.0
 40
1.0
 40
1.0
 10
92.35131161754498
 20
127.23109692674845
 30
0.0
 10
92.109838002375454
 20
127.51144856554239
 30
0.0
 10
92.109838002375454
 20
127.91458577257364
 30
0.0
  0
SPLINE
  5
11D
102
{ACAD_REACTORS
330
31
102
}
100
AcDbEntity
  8
0
  6
CONTINUOUS
100
AcDbSpline
210
0.0
220
0.0
230
1.0
 70
     8
 71
     2
 72
     6
 73
     3
 74
     0
 42
0.0000001
 43
0.0000001
 40
0.0
 40
0.0
 40
0.0
 40
1.0
 40
1.0
 40
1.0
 10
92.109838002375454
 20
127.91458577257366
 30
0.0
 10
92.109838002375454
 20
128.36274594408246
 30
0.0
 10
92.403494589976162
 20
128.64719361406537
 30
0.0
  0
SPLINE
  5
11E
102
{ACAD_REACTORS
330
31
102
}
100
AcDbEntity
  8
0
  6
CONTINUOUS
100
AcDbSpline
210
0.0
220
0.0
230
1.0
 70
     8
 71
     2
 72
     6
 73
     3
 74
     0
 42
0.0000001
 43
0.0000001
 40
0.0
 40
0.0
 40
0.0
 40
1.0
 40
1.0
 40
1.0
 10
92.403494589976162
 20
128.64719361406537
 30
0.0
 10
92.697150581530423
 20
128.93164128404828
 30
0.0
 10
93.21488606279263
 20
128.93164128404828
 30
0.0
  0
SPLINE
  5
11F
102
{ACAD_REACTORS
330
31
102
}
100
AcDbEntity
  8
0
  6
CONTINUOUS
100
AcDbSpline
210
0.0
220
0.0
230
1.0
 70
     8
 71
     2
 72
     6
 73
     3
 74
     0
 42
0.0000001
 43
0.0000001
 40
0.0
 40
0.0
 40
0.0
 40
1.0
 40
1.0
 40
1.0
 10
93.214886062792573
 20
128.93164128404828
 30
0.0
 10
93.634394877604279
 20
128.93164128404828
 30
0.0
 10
93.874845081023011
 20
128.80578488451215
 30
0.0
  0
SPLINE
  5
120
102
{ACAD_REACTORS
330
31
102
}
100
AcDbEntity
  8
0
  6
CONTINUOUS
100
AcDbSpline
210
0.0
220
0.0
230
1.0
 70
     8
 71
     2
 72
     6
 73
     3
 74
     0
 42
0.0000001
 43
0.0000001
 40
0.0
 40
0.0
 40
0.0
 40
1.0
 40
1.0
 40
1.0
 10
93.874845081023125
 20
128.80578488451215
 30
0.0
 10
94.115295284441856
 20
128.67993802171918
 30
0.0
 10
94.248310201815514
 20
128.43948334795209
 30
0.0
  0
SPLINE
  5
121
102
{ACAD_REACTORS
330
31
102
}
100
AcDbEntity
  8
0
  6
CONTINUOUS
100
AcDbSpline
210
0.0
220
0.0
230
1.0
 70
     8
 71
     2
 72
     6
 73
     3
 74
     0
 42
0.0000001
 43
0.0000001
 40
0.0
 40
0.0
 40
0.0
 40
1.0
 40
1.0
 40
1.0
 10
94.248310201815457
 20
128.43948334795209
 30
0.0
 10
94.381325119189114
 20
128.19903344255658
 30
0.0
 10
94.381325119189114
 20
127.91458577257367
 30
0.0
  0
SPLINE
  5
122
102
{ACAD_REACTORS
330
31
102
}
100
AcDbEntity
  8
0
  6
CONTINUOUS
100
AcDbSpline
210
0.0
220
0.0
230
1.0
 70
     8
 71
     2
 72
     6
 73
     3
 74
     0
 42
0.0000001
 43
0.0000001
 40
0.0
 40
0.0
 40
0.0
 40
1.0
 40
1.0
 40
1.0
 10
94.381325119189171
 20
127.91458577257367
 30
0.0
 10
94.381325119189171
 20
127.45824307543012
 30
0.0
 10
94.08869224136248
 20
127.17686146837445
 30
0.0
  0
SPLINE
  5
123
102
{ACAD_REACTORS
330
31
102
}
100
AcDbEntity
  8
0
  6
CONTINUOUS
100
AcDbSpline
210
0.0
220
0.0
230
1.0
 70
     8
 71
     2
 72
     6
 73
     3
 74
     0
 42
0.0000001
 43
0.0000001
 40
0.0
 40
0.0
 40
0.0
 40
1.0
 40
1.0
 40
1.0
 10
94.08869224136248
 20
127.17686146837445
 30
0.0
 10
93.79605936353579
 20
126.89548701387616
 30
0.0
 10
93.245581858805565
 20
126.89548701387616
 30
0.0
  0
SPLINE
  5
124
102
{ACAD_REACTORS
330
31
102
}
100
AcDbEntity
  8
0
  6
CONTINUOUS
100
AcDbSpline
210
0.0
220
0.0
230
1.0
 70
     8
 71
     2
 72
     6
 73
     3
 74
     0
 42
0.0000001
 43
0.0000001
 40
0.0
 40
0.0
 40
0.0
 40
1.0
 40
1.0
 40
1.0
 10
93.245581858805451
 20
127.27406949144574
 30
0.0
 10
93.663044446162019
 20
127.27406949144574
 30
0.0
 10
93.870752328089509
 20
127.45619744402143
 30
0.0
  0
SPLINE
  5
125
102
{ACAD_REACTORS
330
31
102
}
100
AcDbEntity
  8
0
  6
CONTINUOUS
100
AcDbSpline
210
0.0
220
0.0
230
1.0
 70
     8
 71
     2
 72
     6
 73
     3
 74
     0
 42
0.0000001
 43
0.0000001
 40
0.0
 40
0.0
 40
0.0
 40
1.0
 40
1.0
 40
1.0
 10
93.870752328089566
 20
127.45619744402143
 30
0.0
 10
94.07846050804028
 20
127.63832539659711
 30
0.0
 10
94.07846050804028
 20
127.91458577257367
 30
0.0
  0
SPLINE
  5
126
102
{ACAD_REACTORS
330
31
102
}
100
AcDbEntity
  8
0
  6
CONTINUOUS
100
AcDbSpline
210
0.0
220
0.0
230
1.0
 70
     8
 71
     2
 72
     6
 73
     3
 74
     0
 42
0.0000001
 43
0.0000001
 40
0.0
 40
0.0
 40
0.0
 40
1.0
 40
1.0
 40
1.0
 10
94.078460508040223
 20
127.91458577257367
 30
0.0
 10
94.078460508040223
 20
128.18880528551313
 30
0.0
 10
93.869729214361939
 20
128.37092846971723
 30
0.0
  0
SPLINE
  5
127
102
{ACAD_REACTORS
330
31
102
}
100
AcDbEntity
  8
0
  6
CONTINUOUS
100
AcDbSpline
210
0.0
220
0.0
230
1.0
 70
     8
 71
     2
 72
     6
 73
     3
 74
     0
 42
0.0000001
 43
0.0000001
 40
0.0
 40
0.0
 40
0.0
 40
1.0
 40
1.0
 40
1.0
 10
93.869729214361996
 20
128.37092846971723
 30
0.0
 10
93.660997920683712
 20
128.55306119066449
 30
0.0
 10
93.233303600005001
 20
128.55306119066449
 30
0.0
  0
SPLINE
  5
128
102
{ACAD_REACTORS
330
31
102
}
100
AcDbEntity
  8
0
  6
CONTINUOUS
100
AcDbSpline
210
0.0
220
0.0
230
1.0
 70
     8
 71
     2
 72
     6
 73
     3
 74
     0
 42
0.0000001
 43
0.0000001
 40
0.0
 40
0.0
 40
0.0
 40
1.0
 40
1.0
 40
1.0
 10
93.233303600005001
 20
128.55306119066449
 30
0.0
 10
92.83016549890408
 20
128.55306119066449
 30
0.0
 10
92.62245761697659
 20
128.36990803819867
 30
0.0
  0
SPLINE
  5
129
102
{ACAD_REACTORS
330
31
102
}
100
AcDbEntity
  8
0
  6
CONTINUOUS
100
AcDbSpline
210
0.0
220
0.0
230
1.0
 70
     8
 71
     2
 72
     6
 73
     3
 74
     0
 42
0.0000001
 43
0.0000001
 40
0.0
 40
0.0
 40
0.0
 40
1.0
 40
1.0
 40
1.0
 10
92.622457616976533
 20
128.36990803819867
 30
0.0
 10
92.414749735049043
 20
128.18675488573285
 30
0.0
 10
92.414749735049043
 20
127.91458577257367
 30
0.0
  0
SPLINE
  5
12A
102
{ACAD_REACTORS
330
31
102
}
100
AcDbEntity
  8
0
  6
CONTINUOUS
100
AcDbSpline
210
0.0
220
0.0
230
1.0
 70
     8
 71
     2
 72
     6
 73
     3
 74
     0
 42
0.0000001
 43
0.0000001
 40
0.0
 40
0.0
 40
0.0
 40
1.0
 40
1.0
 40
1.0
 10
92.414749735049043
 20
127.91458577257366
 30
0.0
 10
92.414749735049043
 20
127.6383253965971
 30
0.0
 10
92.621434205225739
 20
127.45619744402141
 30
0.0
  0
SPLINE
  5
12B
102
{ACAD_REACTORS
330
31
102
}
100
AcDbEntity
  8
0
  6
CONTINUOUS
100
AcDbSpline
210
0.0
220
0.0
230
1.0
 70
     8
 71
     2
 72
     6
 73
     3
 74
     0
 42
0.0000001
 43
0.0000001
 40
0.0
 40
0.0
 40
0.0
 40
1.0
 40
1.0
 40
1.0
 10
92.621434205225739
 20
127.45619744402143
 30
0.0
 10
92.828119271448884
 20
127.27406949144574
 30
0.0
 10
93.245581858805451
 20
127.27406949144574
 30
0.0
  0
LINE
  5
12C
102
{ACAD_REACTORS
330
31
102
}
100
AcDbEntity
  8
0
  6
CONTINUOUS
100
AcDbLine
 10
94.332212
 20
129.359336
 30
0.0
 11
92.158952
 21
129.359336
 31
0.0
  0
LINE
  5
12D
102
{ACAD_REACTORS
330
31
102
}
100
AcDbEntity
  8
0
  6
CONTINUOUS
100
AcDbLine
 10
92.158952
 20
129.359336
 30
0.0
 11
92.158952
 21
129.690852
 31
0.0
  0
LINE
  5
12E
102
{ACAD_REACTORS
330
31
102
}
100
AcDbEntity
  8
0
  6
CONTINUOUS
100
AcDbLine
 10
92.158952
 20
129.690852
 30
0.0
 11
92.488419
 21
129.690852
 31
0.0
  0
SPLINE
  5
12F
102
{ACAD_REACTORS
330
31
102
}
100
AcDbEntity
  8
0
  6
CONTINUOUS
100
AcDbSpline
210
0.0
220
0.0
230
1.0
 70
     8
 71
     2
 72
     6
 73
     3
 74
     0
 42
0.0000001
 43
0.0000001
 40
0.0
 40
0.0
 40
0.0
 40
1.0
 40
1.0
 40
1.0
 10
92.488419287852082
 20
129.69085187059613
 30
0.0
 10
92.257178002051148
 20
129.81772870165082
 30
0.0
 10
92.183508151224885
 20
129.92516011339399
 30
0.0
  0
SPLINE
  5
130
102
{ACAD_REACTORS
330
31
102
}
100
AcDbEntity
  8
0
  6
CONTINUOUS
100
AcDbSpline
210
0.0
220
0.0
230
1.0
 70
     8
 71
     2
 72
     6
 73
     3
 74
     0
 42
0.0000001
 43
0.0000001
 40
0.0
 40
0.0
 40
0.0
 40
1.0
 40
1.0
 40
1.0
 10
92.183508151224942
 20
129.92516011339399
 30
0.0
 10
92.109838300398678
 20
130.03259629350873
 30
0.0
 10
92.109838300398678
 20
130.16151875597211
 30
0.0
  0
SPLINE
  5
131
102
{ACAD_REACTORS
330
31
102
}
100
AcDbEntity
  8
0
  6
CONTINUOUS
100
AcDbSpline
210
0.0
220
0.0
230
1.0
 70
     8
 71
     2
 72
     6
 73
     3
 74
     0
 42
0.0000001
 43
0.0000001
 40
0.0
 40
0.0
 40
0.0
 40
1.0
 40
1.0
 40
1.0
 10
92.109838300398678
 20
130.16151875597208
 30
0.0
 10
92.109838300398678
 20
130.34774273973673
 30
0.0
 10
92.22852873151669
 20
130.54009884935587
 30
0.0
  0
LINE
  5
132
102
{ACAD_REACTORS
330
31
102
}
100
AcDbEntity
  8
0
  6
CONTINUOUS
100
AcDbLine
 10
92.228529
 20
130.540099
 30
0.0
 11
92.570275
 21
130.413222
 31
0.0
  0
SPLINE
  5
133
102
{ACAD_REACTORS
330
31
102
}
100
AcDbEntity
  8
0
  6
CONTINUOUS
100
AcDbSpline
210
0.0
220
0.0
230
1.0
 70
     8
 71
     2
 72
     6
 73
     3
 74
     0
 42
0.0000001
 43
0.0000001
 40
0.0
 40
0.0
 40
0.0
 40
1.0
 40
1.0
 40
1.0
 10
92.570274942568687
 20
130.41322201830121
 30
0.0
 10
92.490465813330559
 20
130.27816266161176
 30
0.0
 10
92.490465813330559
 20
130.14310330492231
 30
0.0
  0
SPLINE
  5
134
102
{ACAD_REACTORS
330
31
102
}
100
AcDbEntity
  8
0
  6
CONTINUOUS
100
AcDbSpline
210
0.0
220
0.0
230
1.0
 70
     8
 71
     2
 72
     6
 73
     3
 74
     0
 42
0.0000001
 43
0.0000001
 40
0.0
 40
0.0
 40
0.0
 40
1.0
 40
1.0
 40
1.0
 10
92.490465813330445
 20
130.14310330492231
 30
0.0
 10
92.490465813330445
 20
130.02236336809369
 30
0.0
 10
92.563112252405915
 20
129.92618531328412
 30
0.0
  0
SPLINE
  5
135
102
{ACAD_REACTORS
330
31
102
}
100
AcDbEntity
  8
0
  6
CONTINUOUS
100
AcDbSpline
210
0.0
220
0.0
230
1.0
 70
     8
 71
     2
 72
     6
 73
     3
 74
     0
 42
0.0000001
 43
0.0000001
 40
0.0
 40
0.0
 40
0.0
 40
1.0
 40
1.0
 40
1.0
 10
92.563112252405972
 20
129.92618531328412
 30
0.0
 10
92.635758989504666
 20
129.83000249010297
 30
0.0
 10
92.764681451968045
 20
129.7890755568144
 30
0.0
  0
SPLINE
  5
136
102
{ACAD_REACTORS
330
31
102
}
100
AcDbEntity
  8
0
  6
CONTINUOUS
100
AcDbSpline
210
0.0
220
0.0
230
1.0
 70
     8
 71
     2
 72
     6
 73
     3
 74
     0
 42
0.0000001
 43
0.0000001
 40
0.0
 40
0.0
 40
0.0
 40
1.0
 40
1.0
 40
1.0
 10
92.764681451968102
 20
129.7890755568144
 30
0.0
 10
92.961134188822655
 20
129.72768277269574
 30
0.0
 10
93.194422000101952
 20
129.72768277269574
 30
0.0
  0
LINE
  5
137
102
{ACAD_REACTORS
330
31
102
}
100
AcDbEntity
  8
0
  6
CONTINUOUS
100
AcDbLine
 10
93.194422
 20
129.727683
 30
0.0
 11
94.332212
 21
129.727683
 31
0.0
  0
LINE
  5
138
102
{ACAD_REACTORS
330
31
102
}
100
AcDbEntity
  8
0
  6
CONTINUOUS
100
AcDbLine
 10
94.332212
 20
129.727683
 30
0.0
 11
94.332212
 21
129.359336
 31
0.0
  0
LWPOLYLINE
  5
139
102
{ACAD_REACTORS
330
31
102
}
100
AcDbEntity
  8
0
  6
CONTINUOUS
100
AcDbPolyline
 90
       13
 70
     0
 10
82.246669
 20
180.103947
 10
85.246669
 20
180.103947
 10
85.246669
 20
182.342691
 10
84.892644
 20
182.342691
 10
84.892644
 20
180.500945
 10
83.871498
 20
180.500945
 10
83.871498
 20
182.160563
 10
83.51952
 20
182.160563
 10
83.51952
 20
180.500945
 10
82.600693
 20
180.500945
 10
82.600693
 20
182.273115
 10
82.246669
 20
182.273115
 10
82.246669
 20
180.103947
  0
LWPOLYLINE
  5
13A
102
{ACAD_REACTORS
330
31
102
}
100
AcDbEntity
  8
0
  6
CONTINUOUS
100
AcDbPolyline
 90
        9
 70
     0
 10
78.535404
 20
103.618273
 10
81.181379
 20
103.618273
 10
81.181379
 20
104.015271
 10
78.535404
 20
104.015271
 10
78.535404
 20
105.007768
 10
78.181379
 20
105.007768
 10
78.181379
 20
102.629868
 10
78.535404
 20
102.629868
 10
78.535404
 20
103.618273
  0
LINE
  5
13B
102
{ACAD_REACTORS
330
31
102
}
100
AcDbEntity
  8
0
  6
CONTINUOUS
100
AcDbLine
 10
81.181379
 20
105.367931
 30
0.0
 11
78.181379
 21
105.367931
 31
0.0
  0
LINE
  5
13C
102
{ACAD_REACTORS
330
31
102
}
100
AcDbEntity
  8
0
  6
CONTINUOUS
100
AcDbLine
 10
78.181379
 20
105.367931
 30
0.0
 11
78.181379
 21
105.736281
 31
0.0
  0
LINE
  5
13D
102
{ACAD_REACTORS
330
31
102
}
100
AcDbEntity
  8
0
  6
CONTINUOUS
100
AcDbLine
 10
78.181379
 20
105.736281
 30
0.0
 11
79.257778
 21
105.736281
 31
0.0
  0
SPLINE
  5
13E
102
{ACAD_REACTORS
330
31
102
}
100
AcDbEntity
  8
0
  6
CONTINUOUS
100
AcDbSpline
210
0.0
220
0.0
230
1.0
 70
     8
 71
     2
 72
     6
 73
     3
 74
     0
 42
0.0000001
 43
0.0000001
 40
0.0
 40
0.0
 40
0.0
 40
1.0
 40
1.0
 40
1.0
 10
79.257777760220506
 20
105.73628072506443
 30
0.0
 10
78.95900560398195
 20
105.99412445789829
 30
0.0
 10
78.95900560398195
 20
106.3870299316074
 30
0.0
  0
SPLINE
  5
13F
102
{ACAD_REACTORS
330
31
102
}
100
AcDbEntity
  8
0
  6
CONTINUOUS
100
AcDbSpline
210
0.0
220
0.0
230
1.0
 70
     8
 71
     2
 72
     6
 73
     3
 74
     0
 42
0.0000001
 43
0.0000001
 40
0.0
 40
0.0
 40
0.0
 40
1.0
 40
1.0
 40
1.0
 10
78.95900560398195
 20
106.3870299316074
 30
0.0
 10
78.95900560398195
 20
106.62850384480015
 30
0.0
 10
79.054162333203294
 20
106.80653934246556
 30
0.0
  0
SPLINE
  5
140
102
{ACAD_REACTORS
330
31
102
}
100
AcDbEntity
  8
0
  6
CONTINUOUS
100
AcDbSpline
210
0.0
220
0.0
230
1.0
 70
     8
 71
     2
 72
     6
 73
     3
 74
     0
 42
0.0000001
 43
0.0000001
 40
0.0
 40
0.0
 40
0.0
 40
1.0
 40
1.0
 40
1.0
 10
79.054162333203294
 20
106.80653934246556
 30
0.0
 10
79.149319360447862
 20
106.98457603222386
 30
0.0
 10
79.3171228267679
 20
107.06131343609349
 30
0.0
  0
SPLINE
  5
141
102
{ACAD_REACTORS
330
31
102
}
100
AcDbEntity
  8
0
  6
CONTINUOUS
100
AcDbSpline
210
0.0
220
0.0
230
1.0
 70
     8
 71
     2
 72
     6
 73
     3
 74
     0
 42
0.0000001
 43
0.0000001
 40
0.0
 40
0.0
 40
0.0
 40
1.0
 40
1.0
 40
1.0
 10
79.317122826767957
 20
107.06131343609349
 30
0.0
 10
79.484926293087995
 20
107.1380532241489
 30
0.0
 10
79.804162512017285
 20
107.13805322414892
 30
0.0
  0
LINE
  5
142
102
{ACAD_REACTORS
330
31
102
}
100
AcDbEntity
  8
0
  6
CONTINUOUS
100
AcDbLine
 10
79.804163
 20
107.138053
 30
0.0
 11
81.181379
 21
107.138053
 31
0.0
  0
LINE
  5
143
102
{ACAD_REACTORS
330
31
102
}
100
AcDbEntity
  8
0
  6
CONTINUOUS
100
AcDbLine
 10
81.181379
 20
107.138053
 30
0.0
 11
81.181379
 21
106.769704
 31
0.0
  0
LINE
  5
144
102
{ACAD_REACTORS
330
31
102
}
100
AcDbEntity
  8
0
  6
CONTINUOUS
100
AcDbLine
 10
81.181379
 20
106.769704
 30
0.0
 11
79.804163
 21
106.769704
 31
0.0
  0
SPLINE
  5
145
102
{ACAD_REACTORS
330
31
102
}
100
AcDbEntity
  8
0
  6
CONTINUOUS
100
AcDbSpline
210
0.0
220
0.0
230
1.0
 70
     8
 71
     2
 72
     6
 73
     3
 74
     0
 42
0.0000001
 43
0.0000001
 40
0.0
 40
0.0
 40
0.0
 40
1.0
 40
1.0
 40
1.0
 10
79.804162512017285
 20
106.76970367199436
 30
0.0
 10
79.527900645924603
 20
106.76970367199436
 30
0.0
 10
79.402047822667157
 20
106.64999131924168
 30
0.0
  0
SPLINE
  5
146
102
{ACAD_REACTORS
330
31
102
}
100
AcDbEntity
  8
0
  6
CONTINUOUS
100
AcDbSpline
210
0.0
220
0.0
230
1.0
 70
     8
 71
     2
 72
     6
 73
     3
 74
     0
 42
0.0000001
 43
0.0000001
 40
0.0
 40
0.0
 40
0.0
 40
1.0
 40
1.0
 40
1.0
 10
79.4020478226671
 20
106.64999131924168
 30
0.0
 10
79.276194999409654
 20
106.5302777743961
 30
0.0
 10
79.276194999409654
 20
106.31131415134922
 30
0.0
  0
SPLINE
  5
147
102
{ACAD_REACTORS
330
31
102
}
100
AcDbEntity
  8
0
  6
CONTINUOUS
100
AcDbSpline
210
0.0
220
0.0
230
1.0
 70
     8
 71
     2
 72
     6
 73
     3
 74
     0
 42
0.0000001
 43
0.0000001
 40
0.0
 40
0.0
 40
0.0
 40
1.0
 40
1.0
 40
1.0
 10
79.276194999409711
 20
106.31131415134922
 30
0.0
 10
79.276194999409711
 20
106.14760284191624
 30
0.0
 10
79.361120293332135
 20
106.00333337551609
 30
0.0
  0
SPLINE
  5
148
102
{ACAD_REACTORS
330
31
102
}
100
AcDbEntity
  8
0
  6
CONTINUOUS
100
AcDbSpline
210
0.0
220
0.0
230
1.0
 70
     8
 71
     2
 72
     6
 73
     3
 74
     0
 42
0.0000001
 43
0.0000001
 40
0.0
 40
0.0
 40
0.0
 40
1.0
 40
1.0
 40
1.0
 10
79.361120293332135
 20
106.00333337551609
 30
0.0
 10
79.446044991208112
 20
105.85906390911595
 30
0.0
 10
79.591338465405499
 20
105.79767112499729
 30
0.0
  0
SPLINE
  5
149
102
{ACAD_REACTORS
330
31
102
}
100
AcDbEntity
  8
0
  6
CONTINUOUS
100
AcDbSpline
210
0.0
220
0.0
230
1.0
 70
     8
 71
     2
 72
     6
 73
     3
 74
     0
 42
0.0000001
 43
0.0000001
 40
0.0
 40
0.0
 40
0.0
 40
1.0
 40
1.0
 40
1.0
 10
79.591338465405443
 20
105.79767112499729
 30
0.0
 10
79.73663193960283
 20
105.73628072506443
 30
0.0
 10
79.992429743004777
 20
105.73628072506445
 30
0.0
  0
LINE
  5
14A
102
{ACAD_REACTORS
330
31
102
}
100
AcDbEntity
  8
0
  6
CONTINUOUS
100
AcDbLine
 10
79.99243
 20
105.736281
 30
0.0
 11
81.181379
 21
105.736281
 31
0.0
  0
LINE
  5
14B
102
{ACAD_REACTORS
330
31
102
}
100
AcDbEntity
  8
0
  6
CONTINUOUS
100
AcDbLine
 10
81.181379
 20
105.736281
 30
0.0
 11
81.181379
 21
105.367931
 31
0.0
  0
LWPOLYLINE
  5
14C
102
{ACAD_REACTORS
330
31
102
}
100
AcDbEntity
  8
0
  6
CONTINUOUS
100
AcDbPolyline
 90
        5
 70
     0
 10
78.181379
 20
107.700809
 10
78.604981
 20
107.700809
 10
78.604981
 20
108.069159
 10
78.181379
 20
108.069159
 10
78.181379
 20
107.700809
  0
LWPOLYLINE
  5
14D
102
{ACAD_REACTORS
330
31
102
}
100
AcDbEntity
  8
0
  6
CONTINUOUS
100
AcDbPolyline
 90
        5
 70
     0
 10
79.008119
 20
107.700809
 10
81.181379
 20
107.700809
 10
81.181379
 20
108.069159
 10
79.008119
 20
108.069159
 10
79.008119
 20
107.700809
  0
LINE
  5
14E
102
{ACAD_REACTORS
330
31
102
}
100
AcDbEntity
  8
0
  6
CONTINUOUS
100
AcDbLine
 10
80.532676
 20
108.482529
 30
0.0
 11
80.475377
 21
108.846785
 31
0.0
  0
SPLINE
  5
14F
102
{ACAD_REACTORS
330
31
102
}
100
AcDbEntity
  8
0
  6
CONTINUOUS
100
AcDbSpline
210
0.0
220
0.0
230
1.0
 70
     8
 71
     2
 72
     6
 73
     3
 74
     0
 42
0.0000001
 43
0.0000001
 40
0.0
 40
0.0
 40
0.0
 40
1.0
 40
1.0
 40
1.0
 10
80.475376675320547
 20
108.84678487545507
 30
0.0
 10
80.694339702320974
 20
108.8774812675144
 30
0.0
 10
80.810983607960623
 20
109.01765708691137
 30
0.0
  0
SPLINE
  5
150
102
{ACAD_REACTORS
330
31
102
}
100
AcDbEntity
  8
0
  6
CONTINUOUS
100
AcDbSpline
210
0.0
220
0.0
230
1.0
 70
     8
 71
     2
 72
     6
 73
     3
 74
     0
 42
0.0000001
 43
0.0000001
 40
0.0
 40
0.0
 40
0.0
 40
1.0
 40
1.0
 40
1.0
 10
80.810983607960679
 20
109.01765708691137
 30
0.0
 10
80.927627811623552
 20
109.15783529049413
 30
0.0
 10
80.927627811623552
 20
109.40954093700903
 30
0.0
  0
SPLINE
  5
151
102
{ACAD_REACTORS
330
31
102
}
100
AcDbEntity
  8
0
  6
CONTINUOUS
100
AcDbSpline
210
0.0
220
0.0
230
1.0
 70
     8
 71
     2
 72
     6
 73
     3
 74
     0
 42
0.0000001
 43
0.0000001
 40
0.0
 40
0.0
 40
0.0
 40
1.0
 40
1.0
 40
1.0
 10
80.927627811623609
 20
109.40954093700903
 30
0.0
 10
80.927627811623609
 20
109.66329221493261
 30
0.0
 10
80.824285278512036
 20
109.78607539898412
 30
0.0
  0
SPLINE
  5
152
102
{ACAD_REACTORS
330
31
102
}
100
AcDbEntity
  8
0
  6
CONTINUOUS
100
AcDbSpline
210
0.0
220
0.0
230
1.0
 70
     8
 71
     2
 72
     6
 73
     3
 74
     0
 42
0.0000001
 43
0.0000001
 40
0.0
 40
0.0
 40
0.0
 40
1.0
 40
1.0
 40
1.0
 10
80.824285278511923
 20
109.78607539898412
 30
0.0
 10
80.72094274540035
 20
109.90885858303564
 30
0.0
 10
80.581788549614828
 20
109.90885858303564
 30
0.0
  0
SPLINE
  5
153
102
{ACAD_REACTORS
330
31
102
}
100
AcDbEntity
  8
0
  6
CONTINUOUS
100
AcDbSpline
210
0.0
220
0.0
230
1.0
 70
     8
 71
     2
 72
     6
 73
     3
 74
     0
 42
0.0000001
 43
0.0000001
 40
0.0
 40
0.0
 40
0.0
 40
1.0
 40
1.0
 40
1.0
 10
80.581788549614885
 20
109.90885858303565
 30
0.0
 10
80.456959138108232
 20
109.90885858303565
 30
0.0
 10
80.385335812760331
 20
109.80039958721656
 30
0.0
  0
SPLINE
  5
154
102
{ACAD_REACTORS
330
31
102
}
100
AcDbEntity
  8
0
  6
CONTINUOUS
100
AcDbSpline
210
0.0
220
0.0
230
1.0
 70
     8
 71
     2
 72
     6
 73
     3
 74
     0
 42
0.0000001
 43
0.0000001
 40
0.0
 40
0.0
 40
0.0
 40
1.0
 40
1.0
 40
1.0
 10
80.385335812760331
 20
109.80039958721655
 30
0.0
 10
80.336222479535081
 20
109.72468499905126
 30
0.0
 10
80.260506103230455
 20
109.42386512524145
 30
0.0
  0
SPLINE
  5
155
102
{ACAD_REACTORS
330
31
102
}
100
AcDbEntity
  8
0
  6
CONTINUOUS
100
AcDbSpline
210
0.0
220
0.0
230
1.0
 70
     8
 71
     2
 72
     6
 73
     3
 74
     0
 42
0.0000001
 43
0.0000001
 40
0.0
 40
0.0
 40
0.0
 40
1.0
 40
1.0
 40
1.0
 10
80.260506103230398
 20
109.42386512524145
 30
0.0
 10
80.158186981869619
 20
109.01868228680151
 30
0.0
 10
80.083494017315786
 20
108.86213187939184
 30
0.0
  0
SPLINE
  5
156
102
{ACAD_REACTORS
330
31
102
}
100
AcDbEntity
  8
0
  6
CONTINUOUS
100
AcDbSpline
210
0.0
220
0.0
230
1.0
 70
     8
 71
     2
 72
     6
 73
     3
 74
     0
 42
0.0000001
 43
0.0000001
 40
0.0
 40
0.0
 40
0.0
 40
1.0
 40
1.0
 40
1.0
 10
80.0834940173159
 20
108.86213187939182
 30
0.0
 10
80.008801052762067
 20
108.70558624035374
 30
0.0
 10
79.876808951092755
 20
108.62475280529515
 30
0.0
  0
SPLINE
  5
157
102
{ACAD_REACTORS
330
31
102
}
100
AcDbEntity
  8
0
  6
CONTINUOUS
100
AcDbSpline
210
0.0
220
0.0
230
1.0
 70
     8
 71
     2
 72
     6
 73
     3
 74
     0
 42
0.0000001
 43
0.0000001
 40
0.0
 40
0.0
 40
0.0
 40
1.0
 40
1.0
 40
1.0
 10
79.876808951092642
 20
108.62475280529515
 30
0.0
 10
79.744817445469778
 20
108.54391937023654
 30
0.0
 10
79.58519918699352
 20
108.54391937023654
 30
0.0
  0
SPLINE
  5
158
102
{ACAD_REACTORS
330
31
102
}
100
AcDbEntity
  8
0
  6
CONTINUOUS
100
AcDbSpline
210
0.0
220
0.0
230
1.0
 70
     8
 71
     2
 72
     6
 73
     3
 74
     0
 42
0.0000001
 43
0.0000001
 40
0.0
 40
0.0
 40
0.0
 40
1.0
 40
1.0
 40
1.0
 10
79.58519918699352
 20
108.54391937023655
 30
0.0
 10
79.439905712796133
 20
108.54391937023655
 30
0.0
 10
79.316099713040273
 20
108.61042861706272
 30
0.0
  0
SPLINE
  5
159
102
{ACAD_REACTORS
330
31
102
}
100
AcDbEntity
  8
0
  6
CONTINUOUS
100
AcDbSpline
210
0.0
220
0.0
230
1.0
 70
     8
 71
     2
 72
     6
 73
     3
 74
     0
 42
0.0000001
 43
0.0000001
 40
0.0
 40
0.0
 40
0.0
 40
1.0
 40
1.0
 40
1.0
 10
79.316099713040273
 20
108.61042861706272
 30
0.0
 10
79.19229341526119
 20
108.6769354797031
 30
0.0
 10
79.110438058567922
 20
108.79153375393406
 30
0.0
  0
SPLINE
  5
15A
102
{ACAD_REACTORS
330
31
102
}
100
AcDbEntity
  8
0
  6
CONTINUOUS
100
AcDbSpline
210
0.0
220
0.0
230
1.0
 70
     8
 71
     2
 72
     6
 73
     3
 74
     0
 42
0.0000001
 43
0.0000001
 40
0.0
 40
0.0
 40
0.0
 40
1.0
 40
1.0
 40
1.0
 10
79.110438058567922
 20
108.79153375393406
 30
0.0
 10
79.047000239087026
 20
108.87748126751438
 30
0.0
 10
79.003002772522848
 20
109.0258443809177
 30
0.0
  0
SPLINE
  5
15B
102
{ACAD_REACTORS
330
31
102
}
100
AcDbEntity
  8
0
  6
CONTINUOUS
100
AcDbSpline
210
0.0
220
0.0
230
1.0
 70
     8
 71
     2
 72
     6
 73
     3
 74
     0
 42
0.0000001
 43
0.0000001
 40
0.0
 40
0.0
 40
0.0
 40
1.0
 40
1.0
 40
1.0
 10
79.003002772522905
 20
109.0258443809177
 30
0.0
 10
78.959005305958726
 20
109.17420749432102
 30
0.0
 10
78.959005305958726
 20
109.34405689007298
 30
0.0
  0
SPLINE
  5
15C
102
{ACAD_REACTORS
330
31
102
}
100
AcDbEntity
  8
0
  6
CONTINUOUS
100
AcDbSpline
210
0.0
220
0.0
230
1.0
 70
     8
 71
     2
 72
     6
 73
     3
 74
     0
 42
0.0000001
 43
0.0000001
 40
0.0
 40
0.0
 40
0.0
 40
1.0
 40
1.0
 40
1.0
 10
78.959005305958783
 20
109.34405689007298
 30
0.0
 10
78.959005305958783
 20
109.59985618359104
 30
0.0
 10
79.03267545480827
 20
109.79323749310032
 30
0.0
  0
SPLINE
  5
15D
102
{ACAD_REACTORS
330
31
102
}
100
AcDbEntity
  8
0
  6
CONTINUOUS
100
AcDbSpline
210
0.0
220
0.0
230
1.0
 70
     8
 71
     2
 72
     6
 73
     3
 74
     0
 42
0.0000001
 43
0.0000001
 40
0.0
 40
0.0
 40
0.0
 40
1.0
 40
1.0
 40
1.0
 10
79.03267545480827
 20
109.79323749310032
 30
0.0
 10
79.10634500761131
 20
109.98662118679539
 30
0.0
 10
79.232197830868756
 20
110.07871036297337
 30
0.0
  0
SPLINE
  5
15E
102
{ACAD_REACTORS
330
31
102
}
100
AcDbEntity
  8
0
  6
CONTINUOUS
100
AcDbSpline
210
0.0
220
0.0
230
1.0
 70
     8
 71
     2
 72
     6
 73
     3
 74
     0
 42
0.0000001
 43
0.0000001
 40
0.0
 40
0.0
 40
0.0
 40
1.0
 40
1.0
 40
1.0
 10
79.232197830868643
 20
110.07871036297337
 30
0.0
 10
79.358050654126089
 20
110.17079715496556
 30
0.0
 10
79.568828175259512
 20
110.20558480984226
 30
0.0
  0
LINE
  5
15F
102
{ACAD_REACTORS
330
31
102
}
100
AcDbEntity
  8
0
  6
CONTINUOUS
100
AcDbLine
 10
79.568828
 20
110.205585
 30
0.0
 11
79.617941
 21
109.845423
 31
0.0
  0
SPLINE
  5
160
102
{ACAD_REACTORS
330
31
102
}
100
AcDbEntity
  8
0
  6
CONTINUOUS
100
AcDbSpline
210
0.0
220
0.0
230
1.0
 70
     8
 71
     2
 72
     6
 73
     3
 74
     0
 42
0.0000001
 43
0.0000001
 40
0.0
 40
0.0
 40
0.0
 40
1.0
 40
1.0
 40
1.0
 10
79.617941210461595
 20
109.84542255169407
 30
0.0
 10
79.450138042164781
 20
109.82086543804661
 30
0.0
 10
79.356004128647783
 20
109.70319633251682
 30
0.0
  0
SPLINE
  5
161
102
{ACAD_REACTORS
330
31
102
}
100
AcDbEntity
  8
0
  6
CONTINUOUS
100
AcDbSpline
210
0.0
220
0.0
230
1.0
 70
     8
 71
     2
 72
     6
 73
     3
 74
     0
 42
0.0000001
 43
0.0000001
 40
0.0
 40
0.0
 40
0.0
 40
1.0
 40
1.0
 40
1.0
 10
79.356004128647783
 20
109.70319633251682
 30
0.0
 10
79.261870215130784
 20
109.58552961117283
 30
0.0
 10
79.261870215130784
 20
109.37065963512913
 30
0.0
  0
SPLINE
  5
162
102
{ACAD_REACTORS
330
31
102
}
100
AcDbEntity
  8
0
  6
CONTINUOUS
100
AcDbSpline
210
0.0
220
0.0
230
1.0
 70
     8
 71
     2
 72
     6
 73
     3
 74
     0
 42
0.0000001
 43
0.0000001
 40
0.0
 40
0.0
 40
0.0
 40
1.0
 40
1.0
 40
1.0
 10
79.261870215130784
 20
109.37065963512913
 30
0.0
 10
79.261870215130784
 20
109.11690835720555
 30
0.0
 10
79.345772097302415
 20
109.00844936138645
 30
0.0
  0
SPLINE
  5
163
102
{ACAD_REACTORS
330
31
102
}
100
AcDbEntity
  8
0
  6
CONTINUOUS
100
AcDbSpline
210
0.0
220
0.0
230
1.0
 70
     8
 71
     2
 72
     6
 73
     3
 74
     0
 42
0.0000001
 43
0.0000001
 40
0.0
 40
0.0
 40
0.0
 40
1.0
 40
1.0
 40
1.0
 10
79.345772097302415
 20
109.00844936138645
 30
0.0
 10
79.429673979474046
 20
108.89999274975315
 30
0.0
 10
79.542225132180192
 20
108.89999274975315
 30
0.0
  0
SPLINE
  5
164
102
{ACAD_REACTORS
330
31
102
}
100
AcDbEntity
  8
0
  6
CONTINUOUS
100
AcDbSpline
210
0.0
220
0.0
230
1.0
 70
     8
 71
     2
 72
     6
 73
     3
 74
     0
 42
0.0000001
 43
0.0000001
 40
0.0
 40
0.0
 40
0.0
 40
1.0
 40
1.0
 40
1.0
 10
79.542225132180249
 20
108.89999274975315
 30
0.0
 10
79.613848755551373
 20
108.89999274975315
 30
0.0
 10
79.671147296620404
 20
108.94501094585911
 30
0.0
  0
SPLINE
  5
165
102
{ACAD_REACTORS
330
31
102
}
100
AcDbEntity
  8
0
  6
CONTINUOUS
100
AcDbSpline
210
0.0
220
0.0
230
1.0
 70
     8
 71
     2
 72
     6
 73
     3
 74
     0
 42
0.0000001
 43
0.0000001
 40
0.0
 40
0.0
 40
0.0
 40
1.0
 40
1.0
 40
1.0
 10
79.671147296620347
 20
108.94501094585911
 30
0.0
 10
79.730492661190965
 20
108.99003152615086
 30
0.0
 10
79.769373963070848
 20
109.08621196514622
 30
0.0
  0
SPLINE
  5
166
102
{ACAD_REACTORS
330
31
102
}
100
AcDbEntity
  8
0
  6
CONTINUOUS
100
AcDbSpline
210
0.0
220
0.0
230
1.0
 70
     8
 71
     2
 72
     6
 73
     3
 74
     0
 42
0.0000001
 43
0.0000001
 40
0.0
 40
0.0
 40
0.0
 40
1.0
 40
1.0
 40
1.0
 10
79.769373963070791
 20
109.08621196514623
 30
0.0
 10
79.789837727738302
 20
109.14146547085303
 30
0.0
 10
79.863507578564565
 20
109.41158656841773
 30
0.0
  0
SPLINE
  5
167
102
{ACAD_REACTORS
330
31
102
}
100
AcDbEntity
  8
0
  6
CONTINUOUS
100
AcDbSpline
210
0.0
220
0.0
230
1.0
 70
     8
 71
     2
 72
     6
 73
     3
 74
     0
 42
0.0000001
 43
0.0000001
 40
0.0
 40
0.0
 40
0.0
 40
1.0
 40
1.0
 40
1.0
 10
79.863507578564622
 20
109.41158656841772
 30
0.0
 10
79.967873225403764
 20
109.80244760281103
 30
0.0
 10
80.034380684090593
 20
109.95694999462621
 30
0.0
  0
SPLINE
  5
168
102
{ACAD_REACTORS
330
31
102
}
100
AcDbEntity
  8
0
  6
CONTINUOUS
100
AcDbSpline
210
0.0
220
0.0
230
1.0
 70
     8
 71
     2
 72
     6
 73
     3
 74
     0
 42
0.0000001
 43
0.0000001
 40
0.0
 40
0.0
 40
0.0
 40
1.0
 40
1.0
 40
1.0
 10
80.034380684090593
 20
109.95694999462621
 30
0.0
 10
80.100888440800645
 20
110.11145000225561
 30
0.0
 10
80.227764079762437
 20
110.19944553143041
 30
0.0
  0
SPLINE
  5
169
102
{ACAD_REACTORS
330
31
102
}
100
AcDbEntity
  8
0
  6
CONTINUOUS
100
AcDbSpline
210
0.0
220
0.0
230
1.0
 70
     8
 71
     2
 72
     6
 73
     3
 74
     0
 42
0.0000001
 43
0.0000001
 40
0.0
 40
0.0
 40
0.0
 40
1.0
 40
1.0
 40
1.0
 10
80.22776407976238
 20
110.19944553143041
 30
0.0
 10
80.354640016747396
 20
110.28744106060522
 30
0.0
 10
80.542907545758169
 20
110.28744106060522
 30
0.0
  0
SPLINE
  5
16A
102
{ACAD_REACTORS
330
31
102
}
100
AcDbEntity
  8
0
  6
CONTINUOUS
100
AcDbSpline
210
0.0
220
0.0
230
1.0
 70
     8
 71
     2
 72
     6
 73
     3
 74
     0
 42
0.0000001
 43
0.0000001
 40
0.0
 40
0.0
 40
0.0
 40
1.0
 40
1.0
 40
1.0
 10
80.542907545758169
 20
110.28744106060522
 30
0.0
 10
80.727082023812216
 20
110.28744106060522
 30
0.0
 10
80.889769623471182
 20
110.18000488049047
 30
0.0
  0
SPLINE
  5
16B
102
{ACAD_REACTORS
330
31
102
}
100
AcDbEntity
  8
0
  6
CONTINUOUS
100
AcDbSpline
210
0.0
220
0.0
230
1.0
 70
     8
 71
     2
 72
     6
 73
     3
 74
     0
 42
0.0000001
 43
0.0000001
 40
0.0
 40
0.0
 40
0.0
 40
1.0
 40
1.0
 40
1.0
 10
80.889769623471295
 20
110.18000488049047
 30
0.0
 10
81.052457223130261
 20
110.07256870037573
 30
0.0
 10
81.14147467393974
 20
109.86997728115576
 30
0.0
  0
SPLINE
  5
16C
102
{ACAD_REACTORS
330
31
102
}
100
AcDbEntity
  8
0
  6
CONTINUOUS
100
AcDbSpline
210
0.0
220
0.0
230
1.0
 70
     8
 71
     2
 72
     6
 73
     3
 74
     0
 42
0.0000001
 43
0.0000001
 40
0.0
 40
0.0
 40
0.0
 40
1.0
 40
1.0
 40
1.0
 10
81.141474673939626
 20
109.86997728115577
 30
0.0
 10
81.230492422772329
 20
109.66738586193581
 30
0.0
 10
81.230492422772329
 20
109.41158656841775
 30
0.0
  0
SPLINE
  5
16D
102
{ACAD_REACTORS
330
31
102
}
100
AcDbEntity
  8
0
  6
CONTINUOUS
100
AcDbSpline
210
0.0
220
0.0
230
1.0
 70
     8
 71
     2
 72
     6
 73
     3
 74
     0
 42
0.0000001
 43
0.0000001
 40
0.0
 40
0.0
 40
0.0
 40
1.0
 40
1.0
 40
1.0
 10
81.230492422772443
 20
109.41158656841773
 30
0.0
 10
81.230492422772443
 20
108.9879858947422
 30
0.0
 10
81.054503450585401
 20
108.76595382458227
 30
0.0
  0
SPLINE
  5
16E
102
{ACAD_REACTORS
330
31
102
}
100
AcDbEntity
  8
0
  6
CONTINUOUS
100
AcDbSpline
210
0.0
220
0.0
230
1.0
 70
     8
 71
     2
 72
     6
 73
     3
 74
     0
 42
0.0000001
 43
0.0000001
 40
0.0
 40
0.0
 40
0.0
 40
1.0
 40
1.0
 40
1.0
 10
81.054503450585344
 20
108.76595382458228
 30
0.0
 10
80.878514478398301
 20
108.54391937023658
 30
0.0
 10
80.532675514412858
 20
108.48252897030372
 30
0.0
  0
LINE
  5
16F
102
{ACAD_REACTORS
330
31
102
}
100
AcDbEntity
  8
0
  6
CONTINUOUS
100
AcDbLine
 10
80.481516
 20
113.377479
 30
0.0
 11
80.528583
 21
113.75811
 31
0.0
  0
SPLINE
  5
170
102
{ACAD_REACTORS
330
31
102
}
100
AcDbEntity
  8
0
  6
CONTINUOUS
100
AcDbSpline
210
0.0
220
0.0
230
1.0
 70
     8
 71
     2
 72
     6
 73
     3
 74
     0
 42
0.0000001
 43
0.0000001
 40
0.0
 40
0.0
 40
0.0
 40
1.0
 40
1.0
 40
1.0
 10
80.528582761479299
 20
113.75810985332983
 30
0.0
 10
80.862143466664236
 20
113.66806869274633
 30
0.0
 10
81.046317944718282
 20
113.424547956052
 30
0.0
  0
SPLINE
  5
171
102
{ACAD_REACTORS
330
31
102
}
100
AcDbEntity
  8
0
  6
CONTINUOUS
100
AcDbSpline
210
0.0
220
0.0
230
1.0
 70
     8
 71
     2
 72
     6
 73
     3
 74
     0
 42
0.0000001
 43
0.0000001
 40
0.0
 40
0.0
 40
0.0
 40
1.0
 40
1.0
 40
1.0
 10
81.046317944718396
 20
113.42454795605201
 30
0.0
 10
81.230492422772443
 20
113.18102721935769
 30
0.0
 10
81.230492422772443
 20
112.8024471259739
 30
0.0
  0
SPLINE
  5
172
102
{ACAD_REACTORS
330
31
102
}
100
AcDbEntity
  8
0
  6
CONTINUOUS
100
AcDbSpline
210
0.0
220
0.0
230
1.0
 70
     8
 71
     2
 72
     6
 73
     3
 74
     0
 42
0.0000001
 43
0.0000001
 40
0.0
 40
0.0
 40
0.0
 40
1.0
 40
1.0
 40
1.0
 10
81.230492422772443
 20
112.80244712597388
 30
0.0
 10
81.230492422772443
 20
112.32563857800025
 30
0.0
 10
80.936836431218182
 20
112.04630737072485
 30
0.0
  0
SPLINE
  5
173
102
{ACAD_REACTORS
330
31
102
}
100
AcDbEntity
  8
0
  6
CONTINUOUS
100
AcDbSpline
210
0.0
220
0.0
230
1.0
 70
     8
 71
     2
 72
     6
 73
     3
 74
     0
 42
0.0000001
 43
0.0000001
 40
0.0
 40
0.0
 40
0.0
 40
1.0
 40
1.0
 40
1.0
 10
80.936836431218126
 20
112.04630737072485
 30
0.0
 10
80.643180141640642
 20
111.76697616344946
 30
0.0
 10
80.113166401577928
 20
111.76697616344946
 30
0.0
  0
SPLINE
  5
174
102
{ACAD_REACTORS
330
31
102
}
100
AcDbEntity
  8
0
  6
CONTINUOUS
100
AcDbSpline
210
0.0
220
0.0
230
1.0
 70
     8
 71
     2
 72
     6
 73
     3
 74
     0
 42
0.0000001
 43
0.0000001
 40
0.0
 40
0.0
 40
0.0
 40
1.0
 40
1.0
 40
1.0
 10
80.113166401577985
 20
111.76697616344944
 30
0.0
 10
79.564735422326123
 20
111.76697616344941
 30
0.0
 10
79.261870215130841
 20
112.04937820202365
 30
0.0
  0
SPLINE
  5
175
102
{ACAD_REACTORS
330
31
102
}
100
AcDbEntity
  8
0
  6
CONTINUOUS
100
AcDbSpline
210
0.0
220
0.0
230
1.0
 70
     8
 71
     2
 72
     6
 73
     3
 74
     0
 42
0.0000001
 43
0.0000001
 40
0.0
 40
0.0
 40
0.0
 40
1.0
 40
1.0
 40
1.0
 10
79.261870215130841
 20
112.04937820202366
 30
0.0
 10
78.959005305958783
 20
112.33177785641209
 30
0.0
 10
78.959005305958783
 20
112.78198127514378
 30
0.0
  0
SPLINE
  5
176
102
{ACAD_REACTORS
330
31
102
}
100
AcDbEntity
  8
0
  6
CONTINUOUS
100
AcDbSpline
210
0.0
220
0.0
230
1.0
 70
     8
 71
     2
 72
     6
 73
     3
 74
     0
 42
0.0000001
 43
0.0000001
 40
0.0
 40
0.0
 40
0.0
 40
1.0
 40
1.0
 40
1.0
 10
78.959005305958669
 20
112.78198127514378
 30
0.0
 10
78.959005305958669
 20
113.21786288982884
 30
0.0
 10
79.255731234742086
 20
113.4941232658054
 30
0.0
  0
SPLINE
  5
177
102
{ACAD_REACTORS
330
31
102
}
100
AcDbEntity
  8
0
  6
CONTINUOUS
100
AcDbSpline
210
0.0
220
0.0
230
1.0
 70
     8
 71
     2
 72
     6
 73
     3
 74
     0
 42
0.0000001
 43
0.0000001
 40
0.0
 40
0.0
 40
0.0
 40
1.0
 40
1.0
 40
1.0
 10
79.255731234742143
 20
113.49412326580538
 30
0.0
 10
79.55245716352556
 20
113.77038841015353
 30
0.0
 10
80.090656409455278
 20
113.77038841015354
 30
0.0
  0
SPLINE
  5
178
102
{ACAD_REACTORS
330
31
102
}
100
AcDbEntity
  8
0
  6
CONTINUOUS
100
AcDbSpline
210
0.0
220
0.0
230
1.0
 70
     8
 71
     2
 72
     6
 73
     3
 74
     0
 42
0.0000001
 43
0.0000001
 40
0.0
 40
0.0
 40
0.0
 40
1.0
 40
1.0
 40
1.0
 10
80.090656409455278
 20
113.77038841015356
 30
0.0
 10
80.123398432923295
 20
113.77038841015356
 30
0.0
 10
80.188882777882554
 20
113.76834039455908
 30
0.0
  0
LINE
  5
179
102
{ACAD_REACTORS
330
31
102
}
100
AcDbEntity
  8
0
  6
CONTINUOUS
100
AcDbLine
 10
80.188883
 20
113.76834
 30
0.0
 11
80.188883
 21
112.147604
 31
0.0
  0
SPLINE
  5
17A
102
{ACAD_REACTORS
330
31
102
}
100
AcDbEntity
  8
0
  6
CONTINUOUS
100
AcDbSpline
210
0.0
220
0.0
230
1.0
 70
     8
 71
     2
 72
     6
 73
     3
 74
     0
 42
0.0000001
 43
0.0000001
 40
0.0
 40
0.0
 40
0.0
 40
1.0
 40
1.0
 40
1.0
 10
80.188882777882554
 20
112.14760427242773
 30
0.0
 10
80.547000000668504
 20
112.16806773907201
 30
0.0
 10
80.737313757134416
 20
112.3501956916477
 30
0.0
  0
SPLINE
  5
17B
102
{ACAD_REACTORS
330
31
102
}
100
AcDbEntity
  8
0
  6
CONTINUOUS
100
AcDbSpline
210
0.0
220
0.0
230
1.0
 70
     8
 71
     2
 72
     6
 73
     3
 74
     0
 42
0.0000001
 43
0.0000001
 40
0.0
 40
0.0
 40
0.0
 40
1.0
 40
1.0
 40
1.0
 10
80.737313757134416
 20
112.3501956916477
 30
0.0
 10
80.927627811623552
 20
112.53232364422338
 30
0.0
 10
80.927627811623552
 20
112.80449275738256
 30
0.0
  0
SPLINE
  5
17C
102
{ACAD_REACTORS
330
31
102
}
100
AcDbEntity
  8
0
  6
CONTINUOUS
100
AcDbSpline
210
0.0
220
0.0
230
1.0
 70
     8
 71
     2
 72
     6
 73
     3
 74
     0
 42
0.0000001
 43
0.0000001
 40
0.0
 40
0.0
 40
0.0
 40
1.0
 40
1.0
 40
1.0
 10
80.927627811623552
 20
112.80449275738256
 30
0.0
 10
80.927627811623552
 20
113.00708656078832
 30
0.0
 10
80.821215639306047
 20
113.15033321148412
 30
0.0
  0
SPLINE
  5
17D
102
{ACAD_REACTORS
330
31
102
}
100
AcDbEntity
  8
0
  6
CONTINUOUS
100
AcDbSpline
210
0.0
220
0.0
230
1.0
 70
     8
 71
     2
 72
     6
 73
     3
 74
     0
 42
0.0000001
 43
0.0000001
 40
0.0
 40
0.0
 40
0.0
 40
1.0
 40
1.0
 40
1.0
 10
80.821215639306104
 20
113.15033321148412
 30
0.0
 10
80.714803765011823
 20
113.29357986217993
 30
0.0
 10
80.481515953732526
 20
113.37747936016576
 30
0.0
  0
LINE
  5
17E
102
{ACAD_REACTORS
330
31
102
}
100
AcDbEntity
  8
0
  6
CONTINUOUS
100
AcDbLine
 10
79.886018
 20
112.168068
 30
0.0
 11
79.886018
 21
113.381573
 31
0.0
  0
SPLINE
  5
17F
102
{ACAD_REACTORS
330
31
102
}
100
AcDbEntity
  8
0
  6
CONTINUOUS
100
AcDbSpline
210
0.0
220
0.0
230
1.0
 70
     8
 71
     2
 72
     6
 73
     3
 74
     0
 42
0.0000001
 43
0.0000001
 40
0.0
 40
0.0
 40
0.0
 40
1.0
 40
1.0
 40
1.0
 10
79.886017868710439
 20
113.38157300716894
 30
0.0
 10
79.611802230072897
 20
113.35701827770725
 30
0.0
 10
79.474694559765737
 20
113.2424200034763
 30
0.0
  0
SPLINE
  5
180
102
{ACAD_REACTORS
330
31
102
}
100
AcDbEntity
  8
0
  6
CONTINUOUS
100
AcDbSpline
210
0.0
220
0.0
230
1.0
 70
     8
 71
     2
 72
     6
 73
     3
 74
     0
 42
0.0000001
 43
0.0000001
 40
0.0
 40
0.0
 40
0.0
 40
1.0
 40
1.0
 40
1.0
 10
79.474694559765794
 20
113.2424200034763
 30
0.0
 10
79.261870215130784
 20
113.06642894512669
 30
0.0
 10
79.261870215130784
 20
112.78607730633274
 30
0.0
  0
SPLINE
  5
181
102
{ACAD_REACTORS
330
31
102
}
100
AcDbEntity
  8
0
  6
CONTINUOUS
100
AcDbSpline
210
0.0
220
0.0
230
1.0
 70
     8
 71
     2
 72
     6
 73
     3
 74
     0
 42
0.0000001
 43
0.0000001
 40
0.0
 40
0.0
 40
0.0
 40
1.0
 40
1.0
 40
1.0
 10
79.261870215130784
 20
112.78607730633274
 30
0.0
 10
79.261870215130784
 20
112.53232364422337
 30
0.0
 10
79.431720206929185
 20
112.35940341717259
 30
0.0
  0
SPLINE
  5
182
102
{ACAD_REACTORS
330
31
102
}
100
AcDbEntity
  8
0
  6
CONTINUOUS
100
AcDbSpline
210
0.0
220
0.0
230
1.0
 70
     8
 71
     2
 72
     6
 73
     3
 74
     0
 42
0.0000001
 43
0.0000001
 40
0.0
 40
0.0
 40
0.0
 40
1.0
 40
1.0
 40
1.0
 10
79.431720206929128
 20
112.35940341717257
 30
0.0
 10
79.601570198727529
 20
112.18648557430758
 30
0.0
 10
79.886017868710439
 20
112.168067739072
 30
0.0
  0
LINE
  5
183
102
{ACAD_REACTORS
330
31
102
}
100
AcDbEntity
  8
0
  6
CONTINUOUS
100
AcDbLine
 10
81.181379
 20
115.630549
 30
0.0
 11
80.907164
 21
115.630549
 31
0.0
  0
SPLINE
  5
184
102
{ACAD_REACTORS
330
31
102
}
100
AcDbEntity
  8
0
  6
CONTINUOUS
100
AcDbSpline
210
0.0
220
0.0
230
1.0
 70
     8
 71
     2
 72
     6
 73
     3
 74
     0
 42
0.0000001
 43
0.0000001
 40
0.0
 40
0.0
 40
0.0
 40
1.0
 40
1.0
 40
1.0
 10
80.907163748932703
 20
115.63054923779029
 30
0.0
 10
81.230492422772272
 20
115.42386417156716
 30
0.0
 10
81.230492422772272
 20
115.0227725959446
 30
0.0
  0
SPLINE
  5
185
102
{ACAD_REACTORS
330
31
102
}
100
AcDbEntity
  8
0
  6
CONTINUOUS
100
AcDbSpline
210
0.0
220
0.0
230
1.0
 70
     8
 71
     2
 72
     6
 73
     3
 74
     0
 42
0.0000001
 43
0.0000001
 40
0.0
 40
0.0
 40
0.0
 40
1.0
 40
1.0
 40
1.0
 10
81.230492422772357
 20
115.0227725959446
 30
0.0
 10
81.230492422772414
 20
114.76288203960915
 30
0.0
 10
81.087245772076614
 20
114.5449436164524
 30
0.0
  0
SPLINE
  5
186
102
{ACAD_REACTORS
330
31
102
}
100
AcDbEntity
  8
0
  6
CONTINUOUS
100
AcDbSpline
210
0.0
220
0.0
230
1.0
 70
     8
 71
     2
 72
     6
 73
     3
 74
     0
 42
0.0000001
 43
0.0000001
 40
0.0
 40
0.0
 40
0.0
 40
1.0
 40
1.0
 40
1.0
 10
81.087245772076585
 20
114.54494361645239
 30
0.0
 10
80.94399882335756
 20
114.32700280910986
 30
0.0
 10
80.68717760820482
 20
114.20729045635717
 30
0.0
  0
SPLINE
  5
187
102
{ACAD_REACTORS
330
31
102
}
100
AcDbEntity
  8
0
  6
CONTINUOUS
100
AcDbSpline
210
0.0
220
0.0
230
1.0
 70
     8
 71
     2
 72
     6
 73
     3
 74
     0
 42
0.0000001
 43
0.0000001
 40
0.0
 40
0.0
 40
0.0
 40
1.0
 40
1.0
 40
1.0
 10
80.687177608204877
 20
114.20729045635717
 30
0.0
 10
80.430356095028912
 20
114.08757571941869
 30
0.0
 10
80.096795389843976
 20
114.08757571941869
 30
0.0
  0
SPLINE
  5
188
102
{ACAD_REACTORS
330
31
102
}
100
AcDbEntity
  8
0
  6
CONTINUOUS
100
AcDbSpline
210
0.0
220
0.0
230
1.0
 70
     8
 71
     2
 72
     6
 73
     3
 74
     0
 42
0.0000001
 43
0.0000001
 40
0.0
 40
0.0
 40
0.0
 40
1.0
 40
1.0
 40
1.0
 10
80.096795389843919
 20
114.08757571941869
 30
0.0
 10
79.771420190525987
 20
114.08757571941868
 30
0.0
 10
79.506413469506242
 20
114.19603233105198
 30
0.0
  0
SPLINE
  5
189
102
{ACAD_REACTORS
330
31
102
}
100
AcDbEntity
  8
0
  6
CONTINUOUS
100
AcDbSpline
210
0.0
220
0.0
230
1.0
 70
     8
 71
     2
 72
     6
 73
     3
 74
     0
 42
0.0000001
 43
0.0000001
 40
0.0
 40
0.0
 40
0.0
 40
1.0
 40
1.0
 40
1.0
 10
79.506413469506185
 20
114.19603233105198
 30
0.0
 10
79.24140674848644
 20
114.30449371105686
 30
0.0
 10
79.100206325245779
 20
114.52140931850926
 30
0.0
  0
SPLINE
  5
18A
102
{ACAD_REACTORS
330
31
102
}
100
AcDbEntity
  8
0
  6
CONTINUOUS
100
AcDbSpline
210
0.0
220
0.0
230
1.0
 70
     8
 71
     2
 72
     6
 73
     3
 74
     0
 42
0.0000001
 43
0.0000001
 40
0.0
 40
0.0
 40
0.0
 40
1.0
 40
1.0
 40
1.0
 10
79.100206325245864
 20
114.52140931850926
 30
0.0
 10
78.959005603981922
 20
114.73832492596165
 30
0.0
 10
78.959005603981922
 20
115.00640277630345
 30
0.0
  0
SPLINE
  5
18B
102
{ACAD_REACTORS
330
31
102
}
100
AcDbEntity
  8
0
  6
CONTINUOUS
100
AcDbSpline
210
0.0
220
0.0
230
1.0
 70
     8
 71
     2
 72
     6
 73
     3
 74
     0
 42
0.0000001
 43
0.0000001
 40
0.0
 40
0.0
 40
0.0
 40
1.0
 40
1.0
 40
1.0
 10
78.959005603981893
 20
115.00640277630345
 30
0.0
 10
78.959005603981893
 20
115.20285491711155
 30
0.0
 10
79.041884372425955
 20
115.35633449322239
 30
0.0
  0
SPLINE
  5
18C
102
{ACAD_REACTORS
330
31
102
}
100
AcDbEntity
  8
0
  6
CONTINUOUS
100
AcDbSpline
210
0.0
220
0.0
230
1.0
 70
     8
 71
     2
 72
     6
 73
     3
 74
     0
 42
0.0000001
 43
0.0000001
 40
0.0
 40
0.0
 40
0.0
 40
1.0
 40
1.0
 40
1.0
 10
79.041884372425955
 20
115.35633449322239
 30
0.0
 10
79.124762842846792
 20
115.50981406933323
 30
0.0
 10
79.257777760220449
 20
115.6059921241428
 30
0.0
  0
LINE
  5
18D
102
{ACAD_REACTORS
330
31
102
}
100
AcDbEntity
  8
0
  6
CONTINUOUS
100
AcDbLine
 10
79.257778
 20
115.605992
 30
0.0
 11
78.18138
 21
115.605992
 31
0.0
  0
LINE
  5
18E
102
{ACAD_REACTORS
330
31
102
}
100
AcDbEntity
  8
0
  6
CONTINUOUS
100
AcDbLine
 10
78.18138
 20
115.605992
 30
0.0
 11
78.18138
 21
115.972296
 31
0.0
  0
LINE
  5
18F
102
{ACAD_REACTORS
330
31
102
}
100
AcDbEntity
  8
0
  6
CONTINUOUS
100
AcDbLine
 10
78.18138
 20
115.972296
 30
0.0
 11
81.181379
 21
115.972296
 31
0.0
  0
LINE
  5
190
102
{ACAD_REACTORS
330
31
102
}
100
AcDbEntity
  8
0
  6
CONTINUOUS
100
AcDbLine
 10
81.181379
 20
115.972296
 30
0.0
 11
81.181379
 21
115.630549
 31
0.0
  0
SPLINE
  5
191
102
{ACAD_REACTORS
330
31
102
}
100
AcDbEntity
  8
0
  6
CONTINUOUS
100
AcDbSpline
210
0.0
220
0.0
230
1.0
 70
     8
 71
     2
 72
     6
 73
     3
 74
     0
 42
0.0000001
 43
0.0000001
 40
0.0
 40
0.0
 40
0.0
 40
1.0
 40
1.0
 40
1.0
 10
80.096795389843976
 20
114.46615581280248
 30
0.0
 10
80.514257977200543
 20
114.46615581280248
 30
0.0
 10
80.720942745400464
 20
114.64214687115209
 30
0.0
  0
SPLINE
  5
192
102
{ACAD_REACTORS
330
31
102
}
100
AcDbEntity
  8
0
  6
CONTINUOUS
100
AcDbSpline
210
0.0
220
0.0
230
1.0
 70
     8
 71
     2
 72
     6
 73
     3
 74
     0
 42
0.0000001
 43
0.0000001
 40
0.0
 40
0.0
 40
0.0
 40
1.0
 40
1.0
 40
1.0
 10
80.720942745400436
 20
114.64214687115209
 30
0.0
 10
80.927627811623523
 20
114.81813554531591
 30
0.0
 10
80.927627811623523
 20
115.05756263500707
 30
0.0
  0
SPLINE
  5
193
102
{ACAD_REACTORS
330
31
102
}
100
AcDbEntity
  8
0
  6
CONTINUOUS
100
AcDbSpline
210
0.0
220
0.0
230
1.0
 70
     8
 71
     2
 72
     6
 73
     3
 74
     0
 42
0.0000001
 43
0.0000001
 40
0.0
 40
0.0
 40
0.0
 40
1.0
 40
1.0
 40
1.0
 10
80.927627811623495
 20
115.05756263500707
 30
0.0
 10
80.927627811623495
 20
115.29903535610693
 30
0.0
 10
80.730151663018148
 20
115.46786193615453
 30
0.0
  0
SPLINE
  5
194
102
{ACAD_REACTORS
330
31
102
}
100
AcDbEntity
  8
0
  6
CONTINUOUS
100
AcDbSpline
210
0.0
220
0.0
230
1.0
 70
     8
 71
     2
 72
     6
 73
     3
 74
     0
 42
0.0000001
 43
0.0000001
 40
0.0
 40
0.0
 40
0.0
 40
1.0
 40
1.0
 40
1.0
 10
80.730151663018091
 20
115.46786193615453
 30
0.0
 10
80.532675514412745
 20
115.63668851620214
 30
0.0
 10
80.127491185856684
 20
115.63668851620214
 30
0.0
  0
SPLINE
  5
195
102
{ACAD_REACTORS
330
31
102
}
100
AcDbEntity
  8
0
  6
CONTINUOUS
100
AcDbSpline
210
0.0
220
0.0
230
1.0
 70
     8
 71
     2
 72
     6
 73
     3
 74
     0
 42
0.0000001
 43
0.0000001
 40
0.0
 40
0.0
 40
0.0
 40
1.0
 40
1.0
 40
1.0
 10
80.127491185856798
 20
115.63668851620214
 30
0.0
 10
79.681379625988939
 20
115.63668851620213
 30
0.0
 10
79.472648332310655
 20
115.46479110485569
 30
0.0
  0
SPLINE
  5
196
102
{ACAD_REACTORS
330
31
102
}
100
AcDbEntity
  8
0
  6
CONTINUOUS
100
AcDbSpline
210
0.0
220
0.0
230
1.0
 70
     8
 71
     2
 72
     6
 73
     3
 74
     0
 42
0.0000001
 43
0.0000001
 40
0.0
 40
0.0
 40
0.0
 40
1.0
 40
1.0
 40
1.0
 10
79.472648332310655
 20
115.46479110485569
 30
0.0
 10
79.263917038632371
 20
115.29289607769505
 30
0.0
 10
79.263917038632371
 20
115.04119043118015
 30
0.0
  0
SPLINE
  5
197
102
{ACAD_REACTORS
330
31
102
}
100
AcDbEntity
  8
0
  6
CONTINUOUS
100
AcDbSpline
210
0.0
220
0.0
230
1.0
 70
     8
 71
     2
 72
     6
 73
     3
 74
     0
 42
0.0000001
 43
0.0000001
 40
0.0
 40
0.0
 40
0.0
 40
1.0
 40
1.0
 40
1.0
 10
79.263917038632343
 20
115.04119043118015
 30
0.0
 10
79.263917038632343
 20
114.79562644726292
 30
0.0
 10
79.464462826443679
 20
114.63089113003269
 30
0.0
  0
SPLINE
  5
198
102
{ACAD_REACTORS
330
31
102
}
100
AcDbEntity
  8
0
  6
CONTINUOUS
100
AcDbSpline
210
0.0
220
0.0
230
1.0
 70
     8
 71
     2
 72
     6
 73
     3
 74
     0
 42
0.0000001
 43
0.0000001
 40
0.0
 40
0.0
 40
0.0
 40
1.0
 40
1.0
 40
1.0
 10
79.464462826443651
 20
114.63089113003269
 30
0.0
 10
79.665008316231706
 20
114.46615581280247
 30
0.0
 10
80.096795389843919
 20
114.46615581280248
 30
0.0
  0
LINE
  5
199
102
{ACAD_REACTORS
330
31
102
}
100
AcDbEntity
  8
0
  6
CONTINUOUS
100
AcDbLine
 10
81.361461
 20
116.483892
 30
0.0
 11
81.414667
 21
116.842011
 31
0.0
  0
SPLINE
  5
19A
102
{ACAD_REACTORS
330
31
102
}
100
AcDbEntity
  8
0
  6
CONTINUOUS
100
AcDbSpline
210
0.0
220
0.0
230
1.0
 70
     8
 71
     2
 72
     6
 73
     3
 74
     0
 42
0.0000001
 43
0.0000001
 40
0.0
 40
0.0
 40
0.0
 40
1.0
 40
1.0
 40
1.0
 10
81.414667198849543
 20
116.84201125866431
 30
0.0
 10
81.580424139691218
 20
116.86452035671729
 30
0.0
 10
81.656140515995844
 20
116.96684007412452
 30
0.0
  0
SPLINE
  5
19B
102
{ACAD_REACTORS
330
31
102
}
100
AcDbEntity
  8
0
  6
CONTINUOUS
100
AcDbSpline
210
0.0
220
0.0
230
1.0
 70
     8
 71
     2
 72
     6
 73
     3
 74
     0
 42
0.0000001
 43
0.0000001
 40
0.0
 40
0.0
 40
0.0
 40
1.0
 40
1.0
 40
1.0
 10
81.656140515995901
 20
116.96684007412452
 30
0.0
 10
81.75845963735668
 20
117.10394744640845
 30
0.0
 10
81.75845963735668
 20
117.34132890469093
 30
0.0
  0
SPLINE
  5
19C
102
{ACAD_REACTORS
330
31
102
}
100
AcDbEntity
  8
0
  6
CONTINUOUS
100
AcDbSpline
210
0.0
220
0.0
230
1.0
 70
     8
 71
     2
 72
     6
 73
     3
 74
     0
 42
0.0000001
 43
0.0000001
 40
0.0
 40
0.0
 40
0.0
 40
1.0
 40
1.0
 40
1.0
 10
81.75845963735668
 20
117.34132890469093
 30
0.0
 10
81.75845963735668
 20
117.5971258140232
 30
0.0
 10
81.656140515995901
 20
117.73628120190162
 30
0.0
  0
SPLINE
  5
19D
102
{ACAD_REACTORS
330
31
102
}
100
AcDbEntity
  8
0
  6
CONTINUOUS
100
AcDbSpline
210
0.0
220
0.0
230
1.0
 70
     8
 71
     2
 72
     6
 73
     3
 74
     0
 42
0.0000001
 43
0.0000001
 40
0.0
 40
0.0
 40
0.0
 40
1.0
 40
1.0
 40
1.0
 10
81.656140515995901
 20
117.73628120190162
 30
0.0
 10
81.553821394635122
 20
117.87543420559425
 30
0.0
 10
81.369646618557852
 20
117.92454843288917
 30
0.0
  0
SPLINE
  5
19E
102
{ACAD_REACTORS
330
31
102
}
100
AcDbEntity
  8
0
  6
CONTINUOUS
100
AcDbSpline
210
0.0
220
0.0
230
1.0
 70
     8
 71
     2
 72
     6
 73
     3
 74
     0
 42
0.0000001
 43
0.0000001
 40
0.0
 40
0.0
 40
0.0
 40
1.0
 40
1.0
 40
1.0
 10
81.369646618557795
 20
117.92454843288918
 30
0.0
 10
81.257095763874872
 20
117.95319680935403
 30
0.0
 10
80.89693201561056
 20
117.95115117794532
 30
0.0
  0
SPLINE
  5
19F
102
{ACAD_REACTORS
330
31
102
}
100
AcDbEntity
  8
0
  6
CONTINUOUS
100
AcDbSpline
210
0.0
220
0.0
230
1.0
 70
     8
 71
     2
 72
     6
 73
     3
 74
     0
 42
0.0000001
 43
0.0000001
 40
0.0
 40
0.0
 40
0.0
 40
1.0
 40
1.0
 40
1.0
 10
80.896932015610673
 20
117.95115117794531
 30
0.0
 10
81.18137938757036
 20
117.70967845684545
 30
0.0
 10
81.18137938757036
 20
117.34951381451147
 30
0.0
  0
SPLINE
  5
1A0
102
{ACAD_REACTORS
330
31
102
}
100
AcDbEntity
  8
0
  6
CONTINUOUS
100
AcDbSpline
210
0.0
220
0.0
230
1.0
 70
     8
 71
     2
 72
     6
 73
     3
 74
     0
 42
0.0000001
 43
0.0000001
 40
0.0
 40
0.0
 40
0.0
 40
1.0
 40
1.0
 40
1.0
 10
81.181379387570303
 20
117.34951381451147
 30
0.0
 10
81.181379387570303
 20
116.90135602718847
 30
0.0
 10
80.85805041570751
 20
116.65578965908544
 30
0.0
  0
SPLINE
  5
1A1
102
{ACAD_REACTORS
330
31
102
}
100
AcDbEntity
  8
0
  6
CONTINUOUS
100
AcDbSpline
210
0.0
220
0.0
230
1.0
 70
     8
 71
     2
 72
     6
 73
     3
 74
     0
 42
0.0000001
 43
0.0000001
 40
0.0
 40
0.0
 40
0.0
 40
1.0
 40
1.0
 40
1.0
 10
80.858050415707453
 20
116.65578965908544
 30
0.0
 10
80.534721741867884
 20
116.41022329098242
 30
0.0
 10
80.082470605564936
 20
116.41022329098242
 30
0.0
  0
SPLINE
  5
1A2
102
{ACAD_REACTORS
330
31
102
}
100
AcDbEntity
  8
0
  6
CONTINUOUS
100
AcDbSpline
210
0.0
220
0.0
230
1.0
 70
     8
 71
     2
 72
     6
 73
     3
 74
     0
 42
0.0000001
 43
0.0000001
 40
0.0
 40
0.0
 40
0.0
 40
1.0
 40
1.0
 40
1.0
 10
80.082470605565049
 20
116.41022329098242
 30
0.0
 10
79.771420190525987
 20
116.4102232909824
 30
0.0
 10
79.508459994984605
 20
116.52277354961888
 30
0.0
  0
SPLINE
  5
1A3
102
{ACAD_REACTORS
330
31
102
}
100
AcDbEntity
  8
0
  6
CONTINUOUS
100
AcDbSpline
210
0.0
220
0.0
230
1.0
 70
     8
 71
     2
 72
     6
 73
     3
 74
     0
 42
0.0000001
 43
0.0000001
 40
0.0
 40
0.0
 40
0.0
 40
1.0
 40
1.0
 40
1.0
 10
79.508459994984491
 20
116.52277354961888
 30
0.0
 10
79.245499203396662
 20
116.63532619244114
 30
0.0
 10
79.102252552700861
 20
116.8491733527805
 30
0.0
  0
SPLINE
  5
1A4
102
{ACAD_REACTORS
330
31
102
}
100
AcDbEntity
  8
0
  6
CONTINUOUS
100
AcDbSpline
210
0.0
220
0.0
230
1.0
 70
     8
 71
     2
 72
     6
 73
     3
 74
     0
 42
0.0000001
 43
0.0000001
 40
0.0
 40
0.0
 40
0.0
 40
1.0
 40
1.0
 40
1.0
 10
79.102252552700918
 20
116.8491733527805
 30
0.0
 10
78.959005305958669
 20
117.06302051311985
 30
0.0
 10
78.959005305958669
 20
117.35155944592015
 30
0.0
  0
SPLINE
  5
1A5
102
{ACAD_REACTORS
330
31
102
}
100
AcDbEntity
  8
0
  6
CONTINUOUS
100
AcDbSpline
210
0.0
220
0.0
230
1.0
 70
     8
 71
     2
 72
     6
 73
     3
 74
     0
 42
0.0000001
 43
0.0000001
 40
0.0
 40
0.0
 40
0.0
 40
1.0
 40
1.0
 40
1.0
 10
78.959005305958669
 20
117.35155944592015
 30
0.0
 10
78.959005305958669
 20
117.73628120190159
 30
0.0
 10
79.27005631704418
 20
117.985938832822
 30
0.0
  0
LINE
  5
1A6
102
{ACAD_REACTORS
330
31
102
}
100
AcDbEntity
  8
0
  6
CONTINUOUS
100
AcDbLine
 10
79.270056
 20
117.985939
 30
0.0
 11
79.008119
 21
117.985939
 31
0.0
  0
LINE
  5
1A7
102
{ACAD_REACTORS
330
31
102
}
100
AcDbEntity
  8
0
  6
CONTINUOUS
100
AcDbLine
 10
79.008119
 20
117.985939
 30
0.0
 11
79.008119
 21
118.32564
 31
0.0
  0
LINE
  5
1A8
102
{ACAD_REACTORS
330
31
102
}
100
AcDbEntity
  8
0
  6
CONTINUOUS
100
AcDbLine
 10
79.008119
 20
118.32564
 30
0.0
 11
80.8867
 21
118.32564
 31
0.0
  0
SPLINE
  5
1A9
102
{ACAD_REACTORS
330
31
102
}
100
AcDbEntity
  8
0
  6
CONTINUOUS
100
AcDbSpline
210
0.0
220
0.0
230
1.0
 70
     8
 71
     2
 72
     6
 73
     3
 74
     0
 42
0.0000001
 43
0.0000001
 40
0.0
 40
0.0
 40
0.0
 40
1.0
 40
1.0
 40
1.0
 10
80.886699984265306
 20
118.32564000851173
 30
0.0
 10
81.394203732205369
 20
118.32564000851174
 30
0.0
 10
81.606004069043138
 20
118.22229747540017
 30
0.0
  0
SPLINE
  5
1AA
102
{ACAD_REACTORS
330
31
102
}
100
AcDbEntity
  8
0
  6
CONTINUOUS
100
AcDbSpline
210
0.0
220
0.0
230
1.0
 70
     8
 71
     2
 72
     6
 73
     3
 74
     0
 42
0.0000001
 43
0.0000001
 40
0.0
 40
0.0
 40
0.0
 40
1.0
 40
1.0
 40
1.0
 10
81.606004069043024
 20
118.22229747540015
 30
0.0
 10
81.81780500192724
 20
118.11895494228858
 30
0.0
 10
81.940588185978754
 20
117.89487485653419
 30
0.0
  0
SPLINE
  5
1AB
102
{ACAD_REACTORS
330
31
102
}
100
AcDbEntity
  8
0
  6
CONTINUOUS
100
AcDbSpline
210
0.0
220
0.0
230
1.0
 70
     8
 71
     2
 72
     6
 73
     3
 74
     0
 42
0.0000001
 43
0.0000001
 40
0.0
 40
0.0
 40
0.0
 40
1.0
 40
1.0
 40
1.0
 10
81.940588185978868
 20
117.89487485653419
 30
0.0
 10
82.063371370030382
 20
117.67079715496558
 30
0.0
 10
82.063371370030382
 20
117.34337453609962
 30
0.0
  0
SPLINE
  5
1AC
102
{ACAD_REACTORS
330
31
102
}
100
AcDbEntity
  8
0
  6
CONTINUOUS
100
AcDbSpline
210
0.0
220
0.0
230
1.0
 70
     8
 71
     2
 72
     6
 73
     3
 74
     0
 42
0.0000001
 43
0.0000001
 40
0.0
 40
0.0
 40
0.0
 40
1.0
 40
1.0
 40
1.0
 10
82.063371370030325
 20
117.34337453609962
 30
0.0
 10
82.063371370030325
 20
116.95456151730079
 30
0.0
 10
81.888405511570852
 20
116.71513442760963
 30
0.0
  0
SPLINE
  5
1AD
102
{ACAD_REACTORS
330
31
102
}
100
AcDbEntity
  8
0
  6
CONTINUOUS
100
AcDbSpline
210
0.0
220
0.0
230
1.0
 70
     8
 71
     2
 72
     6
 73
     3
 74
     0
 42
0.0000001
 43
0.0000001
 40
0.0
 40
0.0
 40
0.0
 40
1.0
 40
1.0
 40
1.0
 10
81.888405511570795
 20
116.71513442760963
 30
0.0
 10
81.713439653111323
 20
116.47570733791846
 30
0.0
 10
81.36146111269079
 20
116.48389224773902
 30
0.0
  0
SPLINE
  5
1AE
102
{ACAD_REACTORS
330
31
102
}
100
AcDbEntity
  8
0
  6
CONTINUOUS
100
AcDbSpline
210
0.0
220
0.0
230
1.0
 70
     8
 71
     2
 72
     6
 73
     3
 74
     0
 42
0.0000001
 43
0.0000001
 40
0.0
 40
0.0
 40
0.0
 40
1.0
 40
1.0
 40
1.0
 10
80.05586786050884
 20
116.788805768552
 30
0.0
 10
80.483562181187551
 20
116.788805768552
 30
0.0
 10
80.680014918042104
 20
116.95865516430395
 30
0.0
  0
SPLINE
  5
1AF
102
{ACAD_REACTORS
330
31
102
}
100
AcDbEntity
  8
0
  6
CONTINUOUS
100
AcDbSpline
210
0.0
220
0.0
230
1.0
 70
     8
 71
     2
 72
     6
 73
     3
 74
     0
 42
0.0000001
 43
0.0000001
 40
0.0
 40
0.0
 40
0.0
 40
1.0
 40
1.0
 40
1.0
 10
80.680014918042104
 20
116.95865516430395
 30
0.0
 10
80.876467952919882
 20
117.1285045600559
 30
0.0
 10
80.876467952919882
 20
117.38430385357397
 30
0.0
  0
SPLINE
  5
1B0
102
{ACAD_REACTORS
330
31
102
}
100
AcDbEntity
  8
0
  6
CONTINUOUS
100
AcDbSpline
210
0.0
220
0.0
230
1.0
 70
     8
 71
     2
 72
     6
 73
     3
 74
     0
 42
0.0000001
 43
0.0000001
 40
0.0
 40
0.0
 40
0.0
 40
1.0
 40
1.0
 40
1.0
 10
80.876467952919882
 20
117.38430385357397
 30
0.0
 10
80.876467952919882
 20
117.63805274731176
 30
0.0
 10
80.681038329792898
 20
117.8099501586582
 30
0.0
  0
SPLINE
  5
1B1
102
{ACAD_REACTORS
330
31
102
}
100
AcDbEntity
  8
0
  6
CONTINUOUS
100
AcDbSpline
210
0.0
220
0.0
230
1.0
 70
     8
 71
     2
 72
     6
 73
     3
 74
     0
 42
0.0000001
 43
0.0000001
 40
0.0
 40
0.0
 40
0.0
 40
1.0
 40
1.0
 40
1.0
 10
80.681038329792898
 20
117.8099501586582
 30
0.0
 10
80.48560840864269
 20
117.98184757000463
 30
0.0
 10
80.068146119309347
 20
117.98184757000463
 30
0.0
  0
SPLINE
  5
1B2
102
{ACAD_REACTORS
330
31
102
}
100
AcDbEntity
  8
0
  6
CONTINUOUS
100
AcDbSpline
210
0.0
220
0.0
230
1.0
 70
     8
 71
     2
 72
     6
 73
     3
 74
     0
 42
0.0000001
 43
0.0000001
 40
0.0
 40
0.0
 40
0.0
 40
1.0
 40
1.0
 40
1.0
 10
80.06814611930929
 20
117.98184757000463
 30
0.0
 10
79.669101069165094
 20
117.98184757000462
 30
0.0
 10
79.466509053898676
 20
117.80483608013645
 30
0.0
  0
SPLINE
  5
1B3
102
{ACAD_REACTORS
330
31
102
}
100
AcDbEntity
  8
0
  6
CONTINUOUS
100
AcDbSpline
210
0.0
220
0.0
230
1.0
 70
     8
 71
     2
 72
     6
 73
     3
 74
     0
 42
0.0000001
 43
0.0000001
 40
0.0
 40
0.0
 40
0.0
 40
1.0
 40
1.0
 40
1.0
 10
79.466509053898733
 20
117.80483608013645
 30
0.0
 10
79.263917038632314
 20
117.6278222060825
 30
0.0
 10
79.263917038632314
 20
117.3781621909763
 30
0.0
  0
SPLINE
  5
1B4
102
{ACAD_REACTORS
330
31
102
}
100
AcDbEntity
  8
0
  6
CONTINUOUS
100
AcDbSpline
210
0.0
220
0.0
230
1.0
 70
     8
 71
     2
 72
     6
 73
     3
 74
     0
 42
0.0000001
 43
0.0000001
 40
0.0
 40
0.0
 40
0.0
 40
1.0
 40
1.0
 40
1.0
 10
79.263917038632371
 20
117.3781621909763
 30
0.0
 10
79.263917038632371
 20
117.13259582287327
 30
0.0
 10
79.463439414692857
 20
116.96070079571263
 30
0.0
  0
SPLINE
  5
1B5
102
{ACAD_REACTORS
330
31
102
}
100
AcDbEntity
  8
0
  6
CONTINUOUS
100
AcDbSpline
210
0.0
220
0.0
230
1.0
 70
     8
 71
     2
 72
     6
 73
     3
 74
     0
 42
0.0000001
 43
0.0000001
 40
0.0
 40
0.0
 40
0.0
 40
1.0
 40
1.0
 40
1.0
 10
79.4634394146928
 20
116.96070079571261
 30
0.0
 10
79.662961790753286
 20
116.78880576855197
 30
0.0
 10
80.05586786050884
 20
116.78880576855198
 30
0.0
  0
LINE
  5
1B6
102
{ACAD_REACTORS
330
31
102
}
100
AcDbEntity
  8
0
  6
CONTINUOUS
100
AcDbLine
 10
80.481516
 20
120.369977
 30
0.0
 11
80.528583
 21
120.750605
 31
0.0
  0
SPLINE
  5
1B7
102
{ACAD_REACTORS
330
31
102
}
100
AcDbEntity
  8
0
  6
CONTINUOUS
100
AcDbSpline
210
0.0
220
0.0
230
1.0
 70
     8
 71
     2
 72
     6
 73
     3
 74
     0
 42
0.0000001
 43
0.0000001
 40
0.0
 40
0.0
 40
0.0
 40
1.0
 40
1.0
 40
1.0
 10
80.528582761479299
 20
120.75060491329687
 30
0.0
 10
80.862143466664236
 20
120.66056375271339
 30
0.0
 10
81.046317944718282
 20
120.41704540020484
 30
0.0
  0
SPLINE
  5
1B8
102
{ACAD_REACTORS
330
31
102
}
100
AcDbEntity
  8
0
  6
CONTINUOUS
100
AcDbSpline
210
0.0
220
0.0
230
1.0
 70
     8
 71
     2
 72
     6
 73
     3
 74
     0
 42
0.0000001
 43
0.0000001
 40
0.0
 40
0.0
 40
0.0
 40
1.0
 40
1.0
 40
1.0
 10
81.046317944718282
 20
120.41704540020484
 30
0.0
 10
81.230492422772329
 20
120.17352466351051
 30
0.0
 10
81.230492422772329
 20
119.79494457012672
 30
0.0
  0
SPLINE
  5
1B9
102
{ACAD_REACTORS
330
31
102
}
100
AcDbEntity
  8
0
  6
CONTINUOUS
100
AcDbSpline
210
0.0
220
0.0
230
1.0
 70
     8
 71
     2
 72
     6
 73
     3
 74
     0
 42
0.0000001
 43
0.0000001
 40
0.0
 40
0.0
 40
0.0
 40
1.0
 40
1.0
 40
1.0
 10
81.230492422772329
 20
119.79494457012672
 30
0.0
 10
81.230492422772329
 20
119.31813602215308
 30
0.0
 10
80.936836431218069
 20
119.03880481487769
 30
0.0
  0
SPLINE
  5
1BA
102
{ACAD_REACTORS
330
31
102
}
100
AcDbEntity
  8
0
  6
CONTINUOUS
100
AcDbSpline
210
0.0
220
0.0
230
1.0
 70
     8
 71
     2
 72
     6
 73
     3
 74
     0
 42
0.0000001
 43
0.0000001
 40
0.0
 40
0.0
 40
0.0
 40
1.0
 40
1.0
 40
1.0
 10
80.936836431218126
 20
119.03880481487768
 30
0.0
 10
80.643180141640642
 20
118.75947360760229
 30
0.0
 10
80.113166401577928
 20
118.75947360760229
 30
0.0
  0
SPLINE
  5
1BB
102
{ACAD_REACTORS
330
31
102
}
100
AcDbEntity
  8
0
  6
CONTINUOUS
100
AcDbSpline
210
0.0
220
0.0
230
1.0
 70
     8
 71
     2
 72
     6
 73
     3
 74
     0
 42
0.0000001
 43
0.0000001
 40
0.0
 40
0.0
 40
0.0
 40
1.0
 40
1.0
 40
1.0
 10
80.113166401577871
 20
118.75947360760227
 30
0.0
 10
79.564735422326009
 20
118.75947360760226
 30
0.0
 10
79.261870215130728
 20
119.04187326199069
 30
0.0
  0
SPLINE
  5
1BC
102
{ACAD_REACTORS
330
31
102
}
100
AcDbEntity
  8
0
  6
CONTINUOUS
100
AcDbSpline
210
0.0
220
0.0
230
1.0
 70
     8
 71
     2
 72
     6
 73
     3
 74
     0
 42
0.0000001
 43
0.0000001
 40
0.0
 40
0.0
 40
0.0
 40
1.0
 40
1.0
 40
1.0
 10
79.261870215130728
 20
119.0418732619907
 30
0.0
 10
78.959005305958669
 20
119.32427291637913
 30
0.0
 10
78.959005305958669
 20
119.77447871929661
 30
0.0
  0
SPLINE
  5
1BD
102
{ACAD_REACTORS
330
31
102
}
100
AcDbEntity
  8
0
  6
CONTINUOUS
100
AcDbSpline
210
0.0
220
0.0
230
1.0
 70
     8
 71
     2
 72
     6
 73
     3
 74
     0
 42
0.0000001
 43
0.0000001
 40
0.0
 40
0.0
 40
0.0
 40
1.0
 40
1.0
 40
1.0
 10
78.959005305958669
 20
119.77447871929661
 30
0.0
 10
78.959005305958669
 20
120.21036033398167
 30
0.0
 10
79.255731234742086
 20
120.48662070995823
 30
0.0
  0
SPLINE
  5
1BE
102
{ACAD_REACTORS
330
31
102
}
100
AcDbEntity
  8
0
  6
CONTINUOUS
100
AcDbSpline
210
0.0
220
0.0
230
1.0
 70
     8
 71
     2
 72
     6
 73
     3
 74
     0
 42
0.0000001
 43
0.0000001
 40
0.0
 40
0.0
 40
0.0
 40
1.0
 40
1.0
 40
1.0
 10
79.255731234742029
 20
120.48662070995822
 30
0.0
 10
79.552457163525446
 20
120.76288347012058
 30
0.0
 10
80.090656409455164
 20
120.76288347012058
 30
0.0
  0
SPLINE
  5
1BF
102
{ACAD_REACTORS
330
31
102
}
100
AcDbEntity
  8
0
  6
CONTINUOUS
100
AcDbSpline
210
0.0
220
0.0
230
1.0
 70
     8
 71
     2
 72
     6
 73
     3
 74
     0
 42
0.0000001
 43
0.0000001
 40
0.0
 40
0.0
 40
0.0
 40
1.0
 40
1.0
 40
1.0
 10
80.090656409455278
 20
120.7628834701206
 30
0.0
 10
80.123398432923295
 20
120.7628834701206
 30
0.0
 10
80.188882777882554
 20
120.76083545452612
 30
0.0
  0
LINE
  5
1C0
102
{ACAD_REACTORS
330
31
102
}
100
AcDbEntity
  8
0
  6
CONTINUOUS
100
AcDbLine
 10
80.188883
 20
120.760835
 30
0.0
 11
80.188883
 21
119.140099
 31
0.0
  0
SPLINE
  5
1C1
102
{ACAD_REACTORS
330
31
102
}
100
AcDbEntity
  8
0
  6
CONTINUOUS
100
AcDbSpline
210
0.0
220
0.0
230
1.0
 70
     8
 71
     2
 72
     6
 73
     3
 74
     0
 42
0.0000001
 43
0.0000001
 40
0.0
 40
0.0
 40
0.0
 40
1.0
 40
1.0
 40
1.0
 10
80.188882777882498
 20
119.14009933239477
 30
0.0
 10
80.547000000668447
 20
119.16056518322485
 30
0.0
 10
80.737313757134359
 20
119.34269313580053
 30
0.0
  0
SPLINE
  5
1C2
102
{ACAD_REACTORS
330
31
102
}
100
AcDbEntity
  8
0
  6
CONTINUOUS
100
AcDbSpline
210
0.0
220
0.0
230
1.0
 70
     8
 71
     2
 72
     6
 73
     3
 74
     0
 42
0.0000001
 43
0.0000001
 40
0.0
 40
0.0
 40
0.0
 40
1.0
 40
1.0
 40
1.0
 10
80.737313757134359
 20
119.34269313580052
 30
0.0
 10
80.927627811623495
 20
119.5248210883762
 30
0.0
 10
80.927627811623495
 20
119.79699020153538
 30
0.0
  0
SPLINE
  5
1C3
102
{ACAD_REACTORS
330
31
102
}
100
AcDbEntity
  8
0
  6
CONTINUOUS
100
AcDbSpline
210
0.0
220
0.0
230
1.0
 70
     8
 71
     2
 72
     6
 73
     3
 74
     0
 42
0.0000001
 43
0.0000001
 40
0.0
 40
0.0
 40
0.0
 40
1.0
 40
1.0
 40
1.0
 10
80.927627811623438
 20
119.79699020153541
 30
0.0
 10
80.927627811623438
 20
119.99958162075538
 30
0.0
 10
80.821215639305933
 20
120.14282827145117
 30
0.0
  0
SPLINE
  5
1C4
102
{ACAD_REACTORS
330
31
102
}
100
AcDbEntity
  8
0
  6
CONTINUOUS
100
AcDbSpline
210
0.0
220
0.0
230
1.0
 70
     8
 71
     2
 72
     6
 73
     3
 74
     0
 42
0.0000001
 43
0.0000001
 40
0.0
 40
0.0
 40
0.0
 40
1.0
 40
1.0
 40
1.0
 10
80.82121563930599
 20
120.14282827145115
 30
0.0
 10
80.714803765011709
 20
120.28607492214695
 30
0.0
 10
80.481515953732412
 20
120.36997680431858
 30
0.0
  0
LINE
  5
1C5
102
{ACAD_REACTORS
330
31
102
}
100
AcDbEntity
  8
0
  6
CONTINUOUS
100
AcDbLine
 10
79.886018
 20
119.160565
 30
0.0
 11
79.886018
 21
120.37407
 31
0.0
  0
SPLINE
  5
1C6
102
{ACAD_REACTORS
330
31
102
}
100
AcDbEntity
  8
0
  6
CONTINUOUS
100
AcDbSpline
210
0.0
220
0.0
230
1.0
 70
     8
 71
     2
 72
     6
 73
     3
 74
     0
 42
0.0000001
 43
0.0000001
 40
0.0
 40
0.0
 40
0.0
 40
1.0
 40
1.0
 40
1.0
 10
79.886017868710439
 20
120.37407045132176
 30
0.0
 10
79.611802230072897
 20
120.3495133376743
 30
0.0
 10
79.474694559765737
 20
120.23491506344334
 30
0.0
  0
SPLINE
  5
1C7
102
{ACAD_REACTORS
330
31
102
}
100
AcDbEntity
  8
0
  6
CONTINUOUS
100
AcDbSpline
210
0.0
220
0.0
230
1.0
 70
     8
 71
     2
 72
     6
 73
     3
 74
     0
 42
0.0000001
 43
0.0000001
 40
0.0
 40
0.0
 40
0.0
 40
1.0
 40
1.0
 40
1.0
 10
79.47469455976568
 20
120.23491506344334
 30
0.0
 10
79.261870215130671
 20
120.05892638927952
 30
0.0
 10
79.261870215130671
 20
119.77857236629978
 30
0.0
  0
SPLINE
  5
1C8
102
{ACAD_REACTORS
330
31
102
}
100
AcDbEntity
  8
0
  6
CONTINUOUS
100
AcDbSpline
210
0.0
220
0.0
230
1.0
 70
     8
 71
     2
 72
     6
 73
     3
 74
     0
 42
0.0000001
 43
0.0000001
 40
0.0
 40
0.0
 40
0.0
 40
1.0
 40
1.0
 40
1.0
 10
79.261870215130728
 20
119.77857236629977
 30
0.0
 10
79.261870215130728
 20
119.52482108837619
 30
0.0
 10
79.431720206929128
 20
119.35190086132542
 30
0.0
  0
SPLINE
  5
1C9
102
{ACAD_REACTORS
330
31
102
}
100
AcDbEntity
  8
0
  6
CONTINUOUS
100
AcDbSpline
210
0.0
220
0.0
230
1.0
 70
     8
 71
     2
 72
     6
 73
     3
 74
     0
 42
0.0000001
 43
0.0000001
 40
0.0
 40
0.0
 40
0.0
 40
1.0
 40
1.0
 40
1.0
 10
79.431720206929128
 20
119.35190086132542
 30
0.0
 10
79.601570198727529
 20
119.17898063427464
 30
0.0
 10
79.886017868710439
 20
119.16056518322483
 30
0.0
  0
LINE
  5
1CA
102
{ACAD_REACTORS
330
31
102
}
100
AcDbEntity
  8
0
  6
CONTINUOUS
100
AcDbLine
 10
81.181379
 20
123.801764
 30
0.0
 11
80.862143
 21
123.801764
 31
0.0
  0
SPLINE
  5
1CB
102
{ACAD_REACTORS
330
31
102
}
100
AcDbEntity
  8
0
  6
CONTINUOUS
100
AcDbSpline
210
0.0
220
0.0
230
1.0
 70
     8
 71
     2
 72
     6
 73
     3
 74
     0
 42
0.0000001
 43
0.0000001
 40
0.0
 40
0.0
 40
0.0
 40
1.0
 40
1.0
 40
1.0
 10
80.862143466664236
 20
123.80176429516334
 30
0.0
 10
81.230492422772329
 20
123.54801301723975
 30
0.0
 10
81.230492422772329
 20
123.11213378674049
 30
0.0
  0
SPLINE
  5
1CC
102
{ACAD_REACTORS
330
31
102
}
100
AcDbEntity
  8
0
  6
CONTINUOUS
100
AcDbSpline
210
0.0
220
0.0
230
1.0
 70
     8
 71
     2
 72
     6
 73
     3
 74
     0
 42
0.0000001
 43
0.0000001
 40
0.0
 40
0.0
 40
0.0
 40
1.0
 40
1.0
 40
1.0
 10
81.230492422772329
 20
123.1121337867405
 30
0.0
 10
81.230492422772329
 20
122.91977290874978
 30
0.0
 10
81.15682286996929
 20
122.75299196011085
 30
0.0
  0
SPLINE
  5
1CD
102
{ACAD_REACTORS
330
31
102
}
100
AcDbEntity
  8
0
  6
CONTINUOUS
100
AcDbSpline
210
0.0
220
0.0
230
1.0
 70
     8
 71
     2
 72
     6
 73
     3
 74
     0
 42
0.0000001
 43
0.0000001
 40
0.0
 40
0.0
 40
0.0
 40
1.0
 40
1.0
 40
1.0
 10
81.156822869969346
 20
122.75299196011085
 30
0.0
 10
81.083152721119859
 20
122.58621101147193
 30
0.0
 10
80.971624980164506
 20
122.50537996059913
 30
0.0
  0
SPLINE
  5
1CE
102
{ACAD_REACTORS
330
31
102
}
100
AcDbEntity
  8
0
  6
CONTINUOUS
100
AcDbSpline
210
0.0
220
0.0
230
1.0
 70
     8
 71
     2
 72
     6
 73
     3
 74
     0
 42
0.0000001
 43
0.0000001
 40
0.0
 40
0.0
 40
0.0
 40
1.0
 40
1.0
 40
1.0
 10
80.971624980164506
 20
122.50537996059911
 30
0.0
 10
80.86009694118593
 20
122.42454890972631
 30
0.0
 10
80.698432455254533
 20
122.39180450207249
 30
0.0
  0
SPLINE
  5
1CF
102
{ACAD_REACTORS
330
31
102
}
100
AcDbEntity
  8
0
  6
CONTINUOUS
100
AcDbSpline
210
0.0
220
0.0
230
1.0
 70
     8
 71
     2
 72
     6
 73
     3
 74
     0
 42
0.0000001
 43
0.0000001
 40
0.0
 40
0.0
 40
0.0
 40
1.0
 40
1.0
 40
1.0
 10
80.698432455254419
 20
122.39180450207252
 30
0.0
 10
80.589974055481775
 20
122.36929540401954
 30
0.0
 10
80.354640016747339
 20
122.36929540401954
 30
0.0
  0
LINE
  5
1D0
102
{ACAD_REACTORS
330
31
102
}
100
AcDbEntity
  8
0
  6
CONTINUOUS
100
AcDbLine
 10
80.35464
 20
122.369295
 30
0.0
 11
79.008119
 21
122.369295
 31
0.0
  0
LINE
  5
1D1
102
{ACAD_REACTORS
330
31
102
}
100
AcDbEntity
  8
0
  6
CONTINUOUS
100
AcDbLine
 10
79.008119
 20
122.369295
 30
0.0
 11
79.008119
 21
122.737645
 31
0.0
  0
LINE
  5
1D2
102
{ACAD_REACTORS
330
31
102
}
100
AcDbEntity
  8
0
  6
CONTINUOUS
100
AcDbLine
 10
79.008119
 20
122.737645
 30
0.0
 11
80.213439
 21
122.737645
 31
0.0
  0
SPLINE
  5
1D3
102
{ACAD_REACTORS
330
31
102
}
100
AcDbEntity
  8
0
  6
CONTINUOUS
100
AcDbSpline
210
0.0
220
0.0
230
1.0
 70
     8
 71
     2
 72
     6
 73
     3
 74
     0
 42
0.0000001
 43
0.0000001
 40
0.0
 40
0.0
 40
0.0
 40
1.0
 40
1.0
 40
1.0
 10
80.213439295483454
 20
122.73764495617407
 30
0.0
 10
80.501979718399866
 20
122.73764495617407
 30
0.0
 10
80.602252612305506
 20
122.76015405422704
 30
0.0
  0
SPLINE
  5
1D4
102
{ACAD_REACTORS
330
31
102
}
100
AcDbEntity
  8
0
  6
CONTINUOUS
100
AcDbSpline
210
0.0
220
0.0
230
1.0
 70
     8
 71
     2
 72
     6
 73
     3
 74
     0
 42
0.0000001
 43
0.0000001
 40
0.0
 40
0.0
 40
0.0
 40
1.0
 40
1.0
 40
1.0
 10
80.60225261230562
 20
122.76015405422702
 30
0.0
 10
80.747545788479783
 20
122.79494409328952
 30
0.0
 10
80.830424258900621
 20
122.90749435192599
 30
0.0
  0
SPLINE
  5
1D5
102
{ACAD_REACTORS
330
31
102
}
100
AcDbEntity
  8
0
  6
CONTINUOUS
100
AcDbSpline
210
0.0
220
0.0
230
1.0
 70
     8
 71
     2
 72
     6
 73
     3
 74
     0
 42
0.0000001
 43
0.0000001
 40
0.0
 40
0.0
 40
0.0
 40
1.0
 40
1.0
 40
1.0
 10
80.830424258900564
 20
122.907494351926
 30
0.0
 10
80.913303027344625
 20
123.02004461056249
 30
0.0
 10
80.913303027344625
 20
123.18580274349706
 30
0.0
  0
SPLINE
  5
1D6
102
{ACAD_REACTORS
330
31
102
}
100
AcDbEntity
  8
0
  6
CONTINUOUS
100
AcDbSpline
210
0.0
220
0.0
230
1.0
 70
     8
 71
     2
 72
     6
 73
     3
 74
     0
 42
0.0000001
 43
0.0000001
 40
0.0
 40
0.0
 40
0.0
 40
1.0
 40
1.0
 40
1.0
 10
80.913303027344625
 20
123.18580274349708
 30
0.0
 10
80.913303027344625
 20
123.35156087643165
 30
0.0
 10
80.828378031445425
 20
123.49685315853613
 30
0.0
  0
SPLINE
  5
1D7
102
{ACAD_REACTORS
330
31
102
}
100
AcDbEntity
  8
0
  6
CONTINUOUS
100
AcDbSpline
210
0.0
220
0.0
230
1.0
 70
     8
 71
     2
 72
     6
 73
     3
 74
     0
 42
0.0000001
 43
0.0000001
 40
0.0
 40
0.0
 40
0.0
 40
1.0
 40
1.0
 40
1.0
 10
80.828378031445368
 20
123.49685315853613
 30
0.0
 10
80.743453035546167
 20
123.64214782482641
 30
0.0
 10
80.59713644762121
 20
123.70251540905493
 30
0.0
  0
SPLINE
  5
1D8
102
{ACAD_REACTORS
330
31
102
}
100
AcDbEntity
  8
0
  6
CONTINUOUS
100
AcDbSpline
210
0.0
220
0.0
230
1.0
 70
     8
 71
     2
 72
     6
 73
     3
 74
     0
 42
0.0000001
 43
0.0000001
 40
0.0
 40
0.0
 40
0.0
 40
1.0
 40
1.0
 40
1.0
 10
80.597136447621267
 20
123.70251540905491
 30
0.0
 10
80.450820157719534
 20
123.76288299328343
 30
0.0
 10
80.172511766148489
 20
123.76288299328343
 30
0.0
  0
LINE
  5
1D9
102
{ACAD_REACTORS
330
31
102
}
100
AcDbEntity
  8
0
  6
CONTINUOUS
100
AcDbLine
 10
80.172512
 20
123.762883
 30
0.0
 11
79.008119
 21
123.762883
 31
0.0
  0
LINE
  5
1DA
102
{ACAD_REACTORS
330
31
102
}
100
AcDbEntity
  8
0
  6
CONTINUOUS
100
AcDbLine
 10
79.008119
 20
123.762883
 30
0.0
 11
79.008119
 21
124.131233
 31
0.0
  0
LINE
  5
1DB
102
{ACAD_REACTORS
330
31
102
}
100
AcDbEntity
  8
0
  6
CONTINUOUS
100
AcDbLine
 10
79.008119
 20
124.131233
 30
0.0
 11
81.181379
 21
124.131233
 31
0.0
  0
LINE
  5
1DC
102
{ACAD_REACTORS
330
31
102
}
100
AcDbEntity
  8
0
  6
CONTINUOUS
100
AcDbLine
 10
81.181379
 20
124.131233
 30
0.0
 11
81.181379
 21
123.801764
 31
0.0
  0
LINE
  5
1DD
102
{ACAD_REACTORS
330
31
102
}
100
AcDbEntity
  8
0
  6
CONTINUOUS
100
AcDbLine
 10
82.014258
 20
124.708315
 30
0.0
 11
79.008119
 21
124.708315
 31
0.0
  0
LINE
  5
1DE
102
{ACAD_REACTORS
330
31
102
}
100
AcDbEntity
  8
0
  6
CONTINUOUS
100
AcDbLine
 10
79.008119
 20
124.708315
 30
0.0
 11
79.008119
 21
125.043923
 31
0.0
  0
LINE
  5
1DF
102
{ACAD_REACTORS
330
31
102
}
100
AcDbEntity
  8
0
  6
CONTINUOUS
100
AcDbLine
 10
79.008119
 20
125.043923
 30
0.0
 11
79.29052
 21
125.043923
 31
0.0
  0
SPLINE
  5
1E0
102
{ACAD_REACTORS
330
31
102
}
100
AcDbEntity
  8
0
  6
CONTINUOUS
100
AcDbSpline
210
0.0
220
0.0
230
1.0
 70
     8
 71
     2
 72
     6
 73
     3
 74
     0
 42
0.0000001
 43
0.0000001
 40
0.0
 40
0.0
 40
0.0
 40
1.0
 40
1.0
 40
1.0
 10
79.290519783688467
 20
125.04392270809666
 30
0.0
 10
79.124762842846792
 20
125.162612245145
 30
0.0
 10
79.041884074402731
 20
125.31199817425266
 30
0.0
  0
SPLINE
  5
1E1
102
{ACAD_REACTORS
330
31
102
}
100
AcDbEntity
  8
0
  6
CONTINUOUS
100
AcDbSpline
210
0.0
220
0.0
230
1.0
 70
     8
 71
     2
 72
     6
 73
     3
 74
     0
 42
0.0000001
 43
0.0000001
 40
0.0
 40
0.0
 40
0.0
 40
1.0
 40
1.0
 40
1.0
 10
79.041884074402731
 20
125.31199817425266
 30
0.0
 10
78.959005603981893
 20
125.46138410336033
 30
0.0
 10
78.959005603981893
 20
125.67420844799534
 30
0.0
  0
SPLINE
  5
1E2
102
{ACAD_REACTORS
330
31
102
}
100
AcDbEntity
  8
0
  6
CONTINUOUS
100
AcDbSpline
210
0.0
220
0.0
230
1.0
 70
     8
 71
     2
 72
     6
 73
     3
 74
     0
 42
0.0000001
 43
0.0000001
 40
0.0
 40
0.0
 40
0.0
 40
1.0
 40
1.0
 40
1.0
 10
78.959005603981893
 20
125.67420844799534
 30
0.0
 10
78.959005603981893
 20
125.95251683956639
 30
0.0
 10
79.102252552700918
 20
126.1653411842014
 30
0.0
  0
SPLINE
  5
1E3
102
{ACAD_REACTORS
330
31
102
}
100
AcDbEntity
  8
0
  6
CONTINUOUS
100
AcDbSpline
210
0.0
220
0.0
230
1.0
 70
     8
 71
     2
 72
     6
 73
     3
 74
     0
 42
0.0000001
 43
0.0000001
 40
0.0
 40
0.0
 40
0.0
 40
1.0
 40
1.0
 40
1.0
 10
79.102252552700861
 20
126.1653411842014
 30
0.0
 10
79.245499501419886
 20
126.3781655288364
 30
0.0
 10
79.506413469506128
 20
126.4866245246555
 30
0.0
  0
SPLINE
  5
1E4
102
{ACAD_REACTORS
330
31
102
}
100
AcDbEntity
  8
0
  6
CONTINUOUS
100
AcDbSpline
210
0.0
220
0.0
230
1.0
 70
     8
 71
     2
 72
     6
 73
     3
 74
     0
 42
0.0000001
 43
0.0000001
 40
0.0
 40
0.0
 40
0.0
 40
1.0
 40
1.0
 40
1.0
 10
79.506413469506128
 20
126.48662452465547
 30
0.0
 10
79.767327437592371
 20
126.59508113628877
 30
0.0
 10
80.078377852631434
 20
126.5950811362888
 30
0.0
  0
SPLINE
  5
1E5
102
{ACAD_REACTORS
330
31
102
}
100
AcDbEntity
  8
0
  6
CONTINUOUS
100
AcDbSpline
210
0.0
220
0.0
230
1.0
 70
     8
 71
     2
 72
     6
 73
     3
 74
     0
 42
0.0000001
 43
0.0000001
 40
0.0
 40
0.0
 40
0.0
 40
1.0
 40
1.0
 40
1.0
 10
80.07837785263149
 20
126.59508113628881
 30
0.0
 10
80.411938557816427
 20
126.59508113628881
 30
0.0
 10
80.678991804314535
 20
126.47536878353613
 30
0.0
  0
SPLINE
  5
1E6
102
{ACAD_REACTORS
330
31
102
}
100
AcDbEntity
  8
0
  6
CONTINUOUS
100
AcDbSpline
210
0.0
220
0.0
230
1.0
 70
     8
 71
     2
 72
     6
 73
     3
 74
     0
 42
0.0000001
 43
0.0000001
 40
0.0
 40
0.0
 40
0.0
 40
1.0
 40
1.0
 40
1.0
 10
80.678991804314535
 20
126.47536878353613
 30
0.0
 10
80.946045050812643
 20
126.35565404659766
 30
0.0
 10
81.088268587780874
 20
126.12748269802589
 30
0.0
  0
SPLINE
  5
1E7
102
{ACAD_REACTORS
330
31
102
}
100
AcDbEntity
  8
0
  6
CONTINUOUS
100
AcDbSpline
210
0.0
220
0.0
230
1.0
 70
     8
 71
     2
 72
     6
 73
     3
 74
     0
 42
0.0000001
 43
0.0000001
 40
0.0
 40
0.0
 40
0.0
 40
1.0
 40
1.0
 40
1.0
 10
81.088268587780874
 20
126.12748269802587
 30
0.0
 10
81.230492422772329
 20
125.89931134945411
 30
0.0
 10
81.230492422772329
 20
125.64760570293922
 30
0.0
  0
SPLINE
  5
1E8
102
{ACAD_REACTORS
330
31
102
}
100
AcDbEntity
  8
0
  6
CONTINUOUS
100
AcDbSpline
210
0.0
220
0.0
230
1.0
 70
     8
 71
     2
 72
     6
 73
     3
 74
     0
 42
0.0000001
 43
0.0000001
 40
0.0
 40
0.0
 40
0.0
 40
1.0
 40
1.0
 40
1.0
 10
81.230492422772272
 20
125.64760570293922
 30
0.0
 10
81.230492422772272
 20
125.46343211895484
 30
0.0
 10
81.152729819012507
 20
125.31711463696021
 30
0.0
  0
SPLINE
  5
1E9
102
{ACAD_REACTORS
330
31
102
}
100
AcDbEntity
  8
0
  6
CONTINUOUS
100
AcDbSpline
210
0.0
220
0.0
230
1.0
 70
     8
 71
     2
 72
     6
 73
     3
 74
     0
 42
0.0000001
 43
0.0000001
 40
0.0
 40
0.0
 40
0.0
 40
1.0
 40
1.0
 40
1.0
 10
81.152729819012563
 20
125.3171146369602
 30
0.0
 10
81.074967215252798
 20
125.17079715496557
 30
0.0
 10
80.95627708215801
 20
125.07666473156469
 30
0.0
  0
LINE
  5
1EA
102
{ACAD_REACTORS
330
31
102
}
100
AcDbEntity
  8
0
  6
CONTINUOUS
100
AcDbLine
 10
80.956277
 20
125.076665
 30
0.0
 11
82.014258
 21
125.076665
 31
0.0
  0
LINE
  5
1EB
102
{ACAD_REACTORS
330
31
102
}
100
AcDbEntity
  8
0
  6
CONTINUOUS
100
AcDbLine
 10
82.014258
 20
125.076665
 30
0.0
 11
82.014258
 21
124.708315
 31
0.0
  0
SPLINE
  5
1EC
102
{ACAD_REACTORS
330
31
102
}
100
AcDbEntity
  8
0
  6
CONTINUOUS
100
AcDbSpline
210
0.0
220
0.0
230
1.0
 70
     8
 71
     2
 72
     6
 73
     3
 74
     0
 42
0.0000001
 43
0.0000001
 40
0.0
 40
0.0
 40
0.0
 40
1.0
 40
1.0
 40
1.0
 10
80.10702742118923
 20
125.04187469250218
 30
0.0
 10
80.526536236000936
 20
125.04187469250218
 30
0.0
 10
80.727082023812216
 20
125.21172647243992
 30
0.0
  0
SPLINE
  5
1ED
102
{ACAD_REACTORS
330
31
102
}
100
AcDbEntity
  8
0
  6
CONTINUOUS
100
AcDbSpline
210
0.0
220
0.0
230
1.0
 70
     8
 71
     2
 72
     6
 73
     3
 74
     0
 42
0.0000001
 43
0.0000001
 40
0.0
 40
0.0
 40
0.0
 40
1.0
 40
1.0
 40
1.0
 10
80.727082023812159
 20
125.21172647243993
 30
0.0
 10
80.927627513600214
 20
125.3815758681919
 30
0.0
 10
80.927627513600214
 20
125.62304858929176
 30
0.0
  0
SPLINE
  5
1EE
102
{ACAD_REACTORS
330
31
102
}
100
AcDbEntity
  8
0
  6
CONTINUOUS
100
AcDbSpline
210
0.0
220
0.0
230
1.0
 70
     8
 71
     2
 72
     6
 73
     3
 74
     0
 42
0.0000001
 43
0.0000001
 40
0.0
 40
0.0
 40
0.0
 40
1.0
 40
1.0
 40
1.0
 10
80.927627513600271
 20
125.62304858929173
 30
0.0
 10
80.927627513600271
 20
125.86861495739475
 30
0.0
 10
80.719919631672781
 20
126.04358081585423
 30
0.0
  0
SPLINE
  5
1EF
102
{ACAD_REACTORS
330
31
102
}
100
AcDbEntity
  8
0
  6
CONTINUOUS
100
AcDbSpline
210
0.0
220
0.0
230
1.0
 70
     8
 71
     2
 72
     6
 73
     3
 74
     0
 42
0.0000001
 43
0.0000001
 40
0.0
 40
0.0
 40
0.0
 40
1.0
 40
1.0
 40
1.0
 10
80.719919631672838
 20
126.04358081585424
 30
0.0
 10
80.512211451722123
 20
126.21854667431371
 30
0.0
 10
80.076331625176408
 20
126.21854667431371
 30
0.0
  0
SPLINE
  5
1F0
102
{ACAD_REACTORS
330
31
102
}
100
AcDbEntity
  8
0
  6
CONTINUOUS
100
AcDbSpline
210
0.0
220
0.0
230
1.0
 70
     8
 71
     2
 72
     6
 73
     3
 74
     0
 42
0.0000001
 43
0.0000001
 40
0.0
 40
0.0
 40
0.0
 40
1.0
 40
1.0
 40
1.0
 10
80.076331625176351
 20
126.2185466743137
 30
0.0
 10
79.660915563298147
 20
126.21854667431369
 30
0.0
 10
79.454230795098226
 20
126.04767446285739
 30
0.0
  0
SPLINE
  5
1F1
102
{ACAD_REACTORS
330
31
102
}
100
AcDbEntity
  8
0
  6
CONTINUOUS
100
AcDbSpline
210
0.0
220
0.0
230
1.0
 70
     8
 71
     2
 72
     6
 73
     3
 74
     0
 42
0.0000001
 43
0.0000001
 40
0.0
 40
0.0
 40
0.0
 40
1.0
 40
1.0
 40
1.0
 10
79.454230795098169
 20
126.0476744628574
 30
0.0
 10
79.247545728875025
 20
125.87679986721531
 30
0.0
 10
79.247545728875025
 20
125.63942079311863
 30
0.0
  0
SPLINE
  5
1F2
102
{ACAD_REACTORS
330
31
102
}
100
AcDbEntity
  8
0
  6
CONTINUOUS
100
AcDbSpline
210
0.0
220
0.0
230
1.0
 70
     8
 71
     2
 72
     6
 73
     3
 74
     0
 42
0.0000001
 43
0.0000001
 40
0.0
 40
0.0
 40
0.0
 40
1.0
 40
1.0
 40
1.0
 10
79.247545728875082
 20
125.63942079311863
 30
0.0
 10
79.247545728875082
 20
125.40408496624485
 30
0.0
 10
79.467532167626302
 20
125.22297982937351
 30
0.0
  0
SPLINE
  5
1F3
102
{ACAD_REACTORS
330
31
102
}
100
AcDbEntity
  8
0
  6
CONTINUOUS
100
AcDbSpline
210
0.0
220
0.0
230
1.0
 70
     8
 71
     2
 72
     6
 73
     3
 74
     0
 42
0.0000001
 43
0.0000001
 40
0.0
 40
0.0
 40
0.0
 40
1.0
 40
1.0
 40
1.0
 10
79.467532167626359
 20
125.22297982937351
 30
0.0
 10
79.68751860637758
 20
125.04187469250216
 30
0.0
 10
80.107027421189287
 20
125.04187469250218
 30
0.0
  0
LINE
  5
1F4
102
{ACAD_REACTORS
330
31
102
}
100
AcDbEntity
  8
0
  6
CONTINUOUS
100
AcDbLine
 10
79.543387
 20
80.345317
 30
0.0
 11
79.491473
 21
80.703039
 31
0.0
  0
SPLINE
  5
1F5
102
{ACAD_REACTORS
330
31
102
}
100
AcDbEntity
  8
0
  6
CONTINUOUS
100
AcDbSpline
210
0.0
220
0.0
230
1.0
 70
     8
 71
     2
 72
     6
 73
     3
 74
     0
 42
0.0000001
 43
0.0000001
 40
0.0
 40
0.0
 40
0.0
 40
1.0
 40
1.0
 40
1.0
 10
79.491472515955223
 20
80.703039371547874
 30
0.0
 10
79.835142305304629
 20
80.72005429351789
 30
0.0
 10
79.961117396144829
 20
80.835641523430652
 30
0.0
  0
SPLINE
  5
1F6
102
{ACAD_REACTORS
330
31
102
}
100
AcDbEntity
  8
0
  6
CONTINUOUS
100
AcDbSpline
210
0.0
220
0.0
230
1.0
 70
     8
 71
     2
 72
     6
 73
     3
 74
     0
 42
0.0000001
 43
0.0000001
 40
0.0
 40
0.0
 40
0.0
 40
1.0
 40
1.0
 40
1.0
 10
79.961117396144772
 20
80.835641523430709
 30
0.0
 10
80.087092489317612
 20
80.951228455329357
 30
0.0
 10
80.085506795084058
 20
81.153814264860799
 30
0.0
  0
SPLINE
  5
1F7
102
{ACAD_REACTORS
330
31
102
}
100
AcDbEntity
  8
0
  6
CONTINUOUS
100
AcDbSpline
210
0.0
220
0.0
230
1.0
 70
     8
 71
     2
 72
     6
 73
     3
 74
     0
 42
0.0000001
 43
0.0000001
 40
0.0
 40
0.0
 40
0.0
 40
1.0
 40
1.0
 40
1.0
 10
80.085506795084029
 20
81.153814264860785
 30
0.0
 10
80.084337544269147
 20
81.30319591603967
 30
0.0
 10
80.014936752637141
 20
81.411114419304937
 30
0.0
  0
SPLINE
  5
1F8
102
{ACAD_REACTORS
330
31
102
}
100
AcDbEntity
  8
0
  6
CONTINUOUS
100
AcDbSpline
210
0.0
220
0.0
230
1.0
 70
     8
 71
     2
 72
     6
 73
     3
 74
     0
 42
0.0000001
 43
0.0000001
 40
0.0
 40
0.0
 40
0.0
 40
1.0
 40
1.0
 40
1.0
 10
80.014936752637112
 20
81.411114419304937
 30
0.0
 10
79.945536256686552
 20
81.519033222916946
 30
0.0
 10
79.827552202553107
 20
81.559038512686783
 30
0.0
  0
SPLINE
  5
1F9
102
{ACAD_REACTORS
330
31
102
}
100
AcDbEntity
  8
0
  6
CONTINUOUS
100
AcDbSpline
210
0.0
220
0.0
230
1.0
 70
     8
 71
     2
 72
     6
 73
     3
 74
     0
 42
0.0000001
 43
0.0000001
 40
0.0
 40
0.0
 40
0.0
 40
1.0
 40
1.0
 40
1.0
 10
79.827552202553221
 20
81.559038512686698
 30
0.0
 10
79.709568446433906
 20
81.59904380478919
 30
0.0
 10
79.451731717746014
 20
81.597025646583404
 30
0.0
  0
LINE
  5
1FA
102
{ACAD_REACTORS
330
31
102
}
100
AcDbEntity
  8
0
  6
CONTINUOUS
100
AcDbLine
 10
79.451732
 20
81.597026
 30
0.0
 11
77.384946
 21
81.580848
 31
0.0
  0
LINE
  5
1FB
102
{ACAD_REACTORS
330
31
102
}
100
AcDbEntity
  8
0
  6
CONTINUOUS
100
AcDbLine
 10
77.384946
 20
81.580848
 30
0.0
 11
77.381839
 21
81.977835
 31
0.0
  0
LINE
  5
1FC
102
{ACAD_REACTORS
330
31
102
}
100
AcDbEntity
  8
0
  6
CONTINUOUS
100
AcDbLine
 10
77.381839
 20
81.977835
 30
0.0
 11
79.426115
 21
81.993836
 31
0.0
  0
SPLINE
  5
1FD
102
{ACAD_REACTORS
330
31
102
}
100
AcDbEntity
  8
0
  6
CONTINUOUS
100
AcDbSpline
210
0.0
220
0.0
230
1.0
 70
     8
 71
     2
 72
     6
 73
     3
 74
     0
 42
0.0000001
 43
0.0000001
 40
0.0
 40
0.0
 40
0.0
 40
1.0
 40
1.0
 40
1.0
 10
79.426115094893362
 20
81.993835824081259
 30
0.0
 10
79.802638320997175
 20
81.996782973784477
 30
0.0
 10
80.01002951877183
 20
81.907339515282459
 30
0.0
  0
SPLINE
  5
1FE
102
{ACAD_REACTORS
330
31
102
}
100
AcDbEntity
  8
0
  6
CONTINUOUS
100
AcDbSpline
210
0.0
220
0.0
230
1.0
 70
     8
 71
     2
 72
     6
 73
     3
 74
     0
 42
0.0000001
 43
0.0000001
 40
0.0
 40
0.0
 40
0.0
 40
1.0
 40
1.0
 40
1.0
 10
80.01002951877183
 20
81.907339515282388
 30
0.0
 10
80.217420716546485
 20
81.81789605678037
 30
0.0
 10
80.327421446235803
 20
81.621274864593303
 30
0.0
  0
SPLINE
  5
1FF
102
{ACAD_REACTORS
330
31
102
}
100
AcDbEntity
  8
0
  6
CONTINUOUS
100
AcDbSpline
210
0.0
220
0.0
230
1.0
 70
     8
 71
     2
 72
     6
 73
     3
 74
     0
 42
0.0000001
 43
0.0000001
 40
0.0
 40
0.0
 40
0.0
 40
1.0
 40
1.0
 40
1.0
 10
80.327421446235775
 20
81.621274864593431
 30
0.0
 10
80.437422175925093
 20
81.424653672406365
 30
0.0
 10
80.439504402349172
 20
81.158631688587306
 30
0.0
  0
SPLINE
  5
200
102
{ACAD_REACTORS
330
31
102
}
100
AcDbEntity
  8
0
  6
CONTINUOUS
100
AcDbSpline
210
0.0
220
0.0
230
1.0
 70
     8
 71
     2
 72
     6
 73
     3
 74
     0
 42
0.0000001
 43
0.0000001
 40
0.0
 40
0.0
 40
0.0
 40
1.0
 40
1.0
 40
1.0
 10
80.439504402349201
 20
81.158631688587278
 30
0.0
 10
80.442595706709881
 20
80.763691489431309
 30
0.0
 10
80.217095886292611
 20
80.552165608268226
 30
0.0
  0
SPLINE
  5
201
102
{ACAD_REACTORS
330
31
102
}
100
AcDbEntity
  8
0
  6
CONTINUOUS
100
AcDbSpline
210
0.0
220
0.0
230
1.0
 70
     8
 71
     2
 72
     6
 73
     3
 74
     0
 42
0.0000001
 43
0.0000001
 40
0.0
 40
0.0
 40
0.0
 40
1.0
 40
1.0
 40
1.0
 10
80.217095886292554
 20
80.552165608268197
 30
0.0
 10
79.99159576786127
 20
80.340639724772515
 30
0.0
 10
79.543387044120436
 20
80.345317229791704
 30
0.0
  0
ENDSEC
  0
SECTION
  2
OBJECTS
  0
DICTIONARY
  5
C
100
AcDbDictionary
  3
ACAD_GROUP
350
D
  3
ACAD_MLINESTYLE
350
1B
  0
DICTIONARY
  5
D
102
{ACAD_REACTORS
330
C
102
}
100
AcDbDictionary
  3
VISIOGROUP_0
350
31
  0
DICTIONARY
  5
1B
102
{ACAD_REACTORS
330
C
102
}
100
AcDbDictionary
  3
STANDARD
350
1C
  0
MLINESTYLE
  5
1C
102
{ACAD_REACTORS
330
1B
102
}
100
AcDbMlineStyle
  2
STANDARD
 70
     0
  3

 62
   256
 51
90.0
 52
90.0
 71
     2
 49
0.5
 62
   256
  6
BYLAYER
 49
-0.5
 62
   256
  6
BYLAYER
  0
DICTIONARY
  5
29
102
{ACAD_REACTORS
330
C
102
}
100
AcDbDictionary
  3
MODEL
350
2A
  3
LAYOUT1
350
2B
  0
DICTIONARY
  5
2C
102
{ACAD_REACTORS
330
C
102
}
100
AcDbDictionary
  0
GROUP
  5
31
102
{ACAD_REACTORS
330
D
102
}
100
AcDbGroup
300
Group created by Visio.
 70
     0
 71
     1
340
32
340
33
340
34
340
35
340
36
340
37
340
38
340
39
340
3A
340
3B
340
3C
340
3D
340
3E
340
3F
340
40
340
41
340
42
340
43
340
44
340
45
340
46
340
47
340
48
340
49
340
4A
340
4B
340
4C
340
4D
340
4E
340
4F
340
50
340
51
340
52
340
53
340
54
340
55
340
56
340
57
340
58
340
59
340
5A
340
5B
340
5C
340
5D
340
5E
340
5F
340
60
340
61
340
62
340
63
340
64
340
65
340
66
340
67
340
68
340
69
340
6A
340
6B
340
6C
340
6D
340
6E
340
6F
340
70
340
71
340
72
340
73
340
74
340
75
340
76
340
77
340
78
340
79
340
7A
340
7B
340
7C
340
7D
340
7E
340
7F
340
80
340
81
340
82
340
83
340
84
340
85
340
86
340
87
340
88
340
89
340
8A
340
8B
340
8C
340
8D
340
8E
340
8F
340
90
340
91
340
92
340
93
340
94
340
95
340
96
340
97
340
98
340
99
340
9A
340
9B
340
9C
340
9D
340
9E
340
9F
340
A0
340
A1
340
A2
340
A3
340
A4
340
A5
340
A6
340
A7
340
A8
340
A9
340
AA
340
AB
340
AC
340
AD
340
AE
340
AF
340
B0
340
B1
340
B2
340
B3
340
B4
340
B5
340
B6
340
B7
340
B8
340
B9
340
BA
340
BB
340
BC
340
BD
340
BE
340
BF
340
C0
340
C1
340
C2
340
C3
340
C4
340
C5
340
C6
340
C7
340
C8
340
C9
340
CA
340
CB
340
CC
340
CD
340
CE
340
CF
340
D0
340
D1
340
D2
340
D3
340
D4
340
D5
340
D6
340
D7
340
D8
340
D9
340
DA
340
DB
340
DC
340
DD
340
DE
340
DF
340
E0
340
E1
340
E2
340
E3
340
E4
340
E5
340
E6
340
E7
340
E8
340
E9
340
EA
340
EB
340
EC
340
ED
340
EE
340
EF
340
F0
340
F1
340
F2
340
F3
340
F4
340
F5
340
F6
340
F7
340
F8
340
F9
340
FA
340
FB
340
FC
340
FD
340
FE
340
FF
340
100
340
101
340
102
340
103
340
104
340
105
340
106
340
107
340
108
340
109
340
10A
340
10B
340
10C
340
10D
340
10E
340
10F
340
110
340
111
340
112
340
113
340
114
340
115
340
116
340
117
340
118
340
119
340
11A
340
11B
340
11C
340
11D
340
11E
340
11F
340
120
340
121
340
122
340
123
340
124
340
125
340
126
340
127
340
128
340
129
340
12A
340
12B
340
12C
340
12D
340
12E
340
12F
340
130
340
131
340
132
340
133
340
134
340
135
340
136
340
137
340
138
340
139
340
13A
340
13B
340
13C
340
13D
340
13E
340
13F
340
140
340
141
340
142
340
143
340
144
340
145
340
146
340
147
340
148
340
149
340
14A
340
14B
340
14C
340
14D
340
14E
340
14F
340
150
340
151
340
152
340
153
340
154
340
155
340
156
340
157
340
158
340
159
340
15A
340
15B
340
15C
340
15D
340
15E
340
15F
340
160
340
161
340
162
340
163
340
164
340
165
340
166
340
167
340
168
340
169
340
16A
340
16B
340
16C
340
16D
340
16E
340
16F
340
170
340
171
340
172
340
173
340
174
340
175
340
176
340
177
340
178
340
179
340
17A
340
17B
340
17C
340
17D
340
17E
340
17F
340
180
340
181
340
182
340
183
340
184
340
185
340
186
340
187
340
188
340
189
340
18A
340
18B
340
18C
340
18D
340
18E
340
18F
340
190
340
191
340
192
340
193
340
194
340
195
340
196
340
197
340
198
340
199
340
19A
340
19B
340
19C
340
19D
340
19E
340
19F
340
1A0
340
1A1
340
1A2
340
1A3
340
1A4
340
1A5
340
1A6
340
1A7
340
1A8
340
1A9
340
1AA
340
1AB
340
1AC
340
1AD
340
1AE
340
1AF
340
1B0
340
1B1
340
1B2
340
1B3
340
1B4
340
1B5
340
1B6
340
1B7
340
1B8
340
1B9
340
1BA
340
1BB
340
1BC
340
1BD
340
1BE
340
1BF
340
1C0
340
1C1
340
1C2
340
1C3
340
1C4
340
1C5
340
1C6
340
1C7
340
1C8
340
1C9
340
1CA
340
1CB
340
1CC
340
1CD
340
1CE
340
1CF
340
1D0
340
1D1
340
1D2
340
1D3
340
1D4
340
1D5
340
1D6
340
1D7
340
1D8
340
1D9
340
1DA
340
1DB
340
1DC
340
1DD
340
1DE
340
1DF
340
1E0
340
1E1
340
1E2
340
1E3
340
1E4
340
1E5
340
1E6
340
1E7
340
1E8
340
1E9
340
1EA
340
1EB
340
1EC
340
1ED
340
1EE
340
1EF
340
1F0
340
1F1
340
1F2
340
1F3
340
1F4
340
1F5
340
1F6
340
1F7
340
1F8
340
1F9
340
1FA
340
1FB
340
1FC
340
1FD
340
1FE
340
1FF
340
200
340
201
  0
ENDSEC
  0
EOF
