0
SECTION
2
HEADER
9
$INSUNITS
70
4
9
$ACADVER
1
AC1014
9
$HANDSEED
5
FFFF
0
ENDSEC
0
SECTION
2
TABLES
0
TABLE
2
VPORT
5
8
100
AcDbSymbolTable
0
ENDTAB
0
TABLE
2
LTYPE
5
5
100
AcDbSymbolTable
0
LTYPE
5
14
100
AcDbSymbolTableRecord
100
AcDbLinetypeTableRecord
2
BYBLOCK
70
0
0
LTYPE
5
15
100
AcDbSymbolTableRecord
100
AcDbLinetypeTableRecord
2
BYLAYER
70
0
0
ENDTAB
0
TABLE
2
LAYER
5
2
100
AcDbSymbolTable
70
2
0
LAYER
5
50
100
AcDbSymbolTableRecord
100
AcDbLayerTableRecord
2
0
70
0
6
CONTINUOUS
0
ENDTAB
0
TABLE
2
STYLE
5
3
100
AcDbSymbolTable
70
1
0
STYLE
5
11
100
AcDbSymbolTableRecord
100
AcDbTextStyleTableRecord
2
STANDARD
70
0
0
ENDTAB
0
TABLE
2
VIEW
5
6
100
AcDbSymbolTable
70
0
0
ENDTAB
0
TABLE
2
UCS
5
7
100
AcDbSymbolTable
70
0
0
ENDTAB
0
TABLE
2
APPID
5
9
100
AcDbSymbolTable
70
2
0
APPID
5
12
100
AcDbSymbolTableRecord
100
AcDbRegAppTableRecord
2
ACAD
70
0
0
ENDTAB
0
TABLE
2
DIMSTYLE
5
A
100
AcDbSymbolTable
70
1
0
ENDTAB
0
TABLE
2
BLOCK_RECORD
5
1
100
AcDbSymbolTable
70
1
0
BLOCK_RECORD
5
1F
100
AcDbSymbolTableRecord
100
AcDbBlockTableRecord
2
*MODEL_SPACE
0
BLOCK_RECORD
5
1B
100
AcDbSymbolTableRecord
100
AcDbBlockTableRecord
2
*PAPER_SPACE
0
ENDTAB
0
ENDSEC
0
SECTION
2
BLOCKS
0
BLOCK
5
20
100
AcDbEntity
100
AcDbBlockBegin
2
*MODEL_SPACE
0
ENDBLK
5
21
100
AcDbEntity
100
AcDbBlockEnd
0
BLOCK
5
1C
100
AcDbEntity
100
AcDbBlockBegin
2
*PAPER_SPACE
0
ENDBLK
5
1D
100
AcDbEntity
100
AcDbBlockEnd
0
ENDSEC
0
SECTION
2
ENTITIES
0
CIRCLE
5
100
100
AcDbEntity
8
0
100
AcDbCircle
10
-556.88508782188467
20
-134.05891263871086
30
0
40
1.25
210
0
220
-0
230
1
0
CIRCLE
5
101
100
AcDbEntity
8
0
100
AcDbCircle
10
-549.63462552528154
20
-137.43985873278098
30
0
40
1.25
210
0
220
-0
230
1
0
CIRCLE
5
102
100
AcDbEntity
8
0
100
AcDbCircle
10
-555.6899116785919
20
-140.96065546120639
30
0
40
2.0000000000000284
210
0
220
-0
230
1
0
CIRCLE
5
103
100
AcDbEntity
8
0
100
AcDbCircle
10
-550.82980166857396
20
-130.53811591028497
30
0
40
2.0000000000000284
210
0
220
-0
230
1
0
LWPOLYLINE
5
104
100
AcDbEntity
8
0
100
AcDbPolyline
90
12
70
1
43
0.0
10
-539.77503309303847
20
-130.49310402693214
10
-546.51040949305002
20
-144.93716532902826
10
-552.52444224215526
20
-147.12609423760165
10
-565.39401295200219
20
-141.12491485842057
10
-566.7463913963644
20
-144.0250997914975
10
-577.62208483135942
20
-138.95368065501304
10
-576.26970639288993
20
-136.05349572897461
10
-585.0946593074267
20
-131.93835261000908
10
-531.32266785812533
20
-112.36694828624539
10
-534.70361395204861
20
-119.61741058253941
10
-531.80342903353096
20
-120.969789020109
10
-536.87484817441589
20
-131.84548246455046
0
LWPOLYLINE
5
105
100
AcDbEntity
8
0
100
AcDbPolyline
90
4
70
1
43
0.0
10
-568.00026134915265
20
-139.10936440974231
10
-545.44472987328345
20
-130.89982233489047
10
-544.29858632317985
20
-134.04882585841423
10
-566.85411779904882
20
-142.25836793326604
0
LWPOLYLINE
5
106
100
AcDbEntity
8
0
100
AcDbPolyline
90
4
70
1
43
0.0
10
-540.37895087887546
20
-126.00679972170225
10
-538.94721820540997
20
-122.9286952828602
10
-534.2649798485138
20
-125.10656603861797
10
-535.69671252197929
20
-128.18467047745989
0
LINE
5
107
100
AcDbEntity
8
0
100
AcDbLine
10
-544.99499158881599
20
-132.13546811619148
30
0
11
-545.33569718034346
21
-132.29431814374951
31
0
0
SPLINE
5
108
100
AcDbEntity
8
0
100
AcDbSpline
70
0
71
2
72
6
73
3
74
0
42
0.000000001
43
0.0000000001
44
0.0000000001
40
0
40
0
40
0
40
1
40
1
40
1
10
-545.33569718034346
20
-132.29431814374951
30
0
10
-545.43768531635976
20
-132.09188991955443
30
0
10
-545.57836976495139
20
-131.98956587757488
30
0
0
SPLINE
5
109
100
AcDbEntity
8
0
100
AcDbSpline
70
0
71
2
72
6
73
3
74
0
42
0.000000001
43
0.0000000001
44
0.0000000001
40
0
40
0
40
0
40
1
40
1
40
1
10
-545.57836976495139
20
-131.98956587757488
30
0
10
-545.71905428355558
20
-131.88724186107777
30
0
10
-545.94179740342338
20
-131.87358301693007
30
0
0
SPLINE
5
110
100
AcDbEntity
8
0
100
AcDbSpline
70
0
71
2
72
6
73
3
74
0
42
0.000000001
43
0.0000000001
44
0.0000000001
40
0
40
0
40
0
40
1
40
1
40
1
10
-545.94179740342338
20
-131.87358301693007
30
0
10
-546.16454052329107
20
-131.85992417278234
30
0
10
-546.40491204160026
20
-131.94741225060778
30
0
0
SPLINE
5
111
100
AcDbEntity
8
0
100
AcDbSpline
70
0
71
2
72
6
73
3
74
0
42
0.000000001
43
0.0000000001
44
0.0000000001
40
0
40
0
40
0
40
1
40
1
40
1
10
-546.40491204160026
20
-131.94741225060778
30
0
10
-546.61836198178446
20
-132.0251016753368
30
0
10
-546.75871787939423
20
-132.14805157839342
30
0
0
SPLINE
5
112
100
AcDbEntity
8
0
100
AcDbSpline
70
0
71
2
72
6
73
3
74
0
42
0.000000001
43
0.0000000001
44
0.0000000001
40
0
40
0
40
0
40
1
40
1
40
1
10
-546.75871787939423
20
-132.14805157839342
30
0
10
-546.89907377700411
20
-132.27100148145004
30
0
10
-546.93863257621456
20
-132.41061865057821
30
0
0
SPLINE
5
113
100
AcDbEntity
8
0
100
AcDbSpline
70
0
71
2
72
6
73
3
74
0
42
0.000000001
43
0.0000000001
44
0.0000000001
40
0
40
0
40
0
40
1
40
1
40
1
10
-546.93863257621456
20
-132.41061865057821
30
0
10
-546.97819147735481
20
-132.5502355396562
30
0
10
-546.93059793937005
20
-132.68099771058803
30
0
0
SPLINE
5
114
100
AcDbEntity
8
0
100
AcDbSpline
70
0
71
2
72
6
73
3
74
0
42
0.000000001
43
0.0000000001
44
0.0000000001
40
0
40
0
40
0
40
1
40
1
40
1
10
-546.93059793937005
20
-132.68099771058803
30
0
10
-546.88230444844783
20
-132.81368298641013
30
0
10
-546.76934035477348
20
-132.88471979523712
30
0
0
SPLINE
5
115
100
AcDbEntity
8
0
100
AcDbSpline
70
0
71
2
72
6
73
3
74
0
42
0.000000001
43
0.0000000001
44
0.0000000001
40
0
40
0
40
0
40
1
40
1
40
1
10
-546.76934035477348
20
-132.88471979523712
30
0
10
-546.65637640112425
20
-132.95575665502906
30
0
10
-546.45496631340347
20
-132.9586693290471
30
0
0
SPLINE
5
116
100
AcDbEntity
8
0
100
AcDbSpline
70
0
71
2
72
6
73
3
74
0
42
0.000000001
43
0.0000000001
44
0.0000000001
40
0
40
0
40
0
40
1
40
1
40
1
10
-546.45496631340347
20
-132.9586693290471
30
0
10
-546.32541316995253
20
-132.96160329170306
30
0
10
-545.90302725190747
20
-132.91348695873214
30
0
0
SPLINE
5
117
100
AcDbEntity
8
0
100
AcDbSpline
70
0
71
2
72
6
73
3
74
0
42
0.000000001
43
0.0000000001
44
0.0000000001
40
0
40
0
40
0
40
1
40
1
40
1
10
-545.90302725190747
20
-132.91348695873214
30
0
10
-545.48064129576721
20
-132.86537029474604
30
0
10
-545.294784694844
20
-132.89136580037214
30
0
0
SPLINE
5
118
100
AcDbEntity
8
0
100
AcDbSpline
70
0
71
2
72
6
73
3
74
0
42
0.000000001
43
0.0000000001
44
0.0000000001
40
0
40
0
40
0
40
1
40
1
40
1
10
-545.294784694844
20
-132.89136580037214
30
0
10
-545.05437778247244
20
-132.92363927513722
30
0
10
-544.89830243174595
20
-133.04431643728657
30
0
0
SPLINE
5
119
100
AcDbEntity
8
0
100
AcDbSpline
70
0
71
2
72
6
73
3
74
0
42
0.000000001
43
0.0000000001
44
0.0000000001
40
0
40
0
40
0
40
1
40
1
40
1
10
-544.89830243174595
20
-133.04431643728657
30
0
10
-544.74222711602567
20
-133.16499361217717
30
0
10
-544.67153671102096
20
-133.35921390370973
30
0
0
SPLINE
5
120
100
AcDbEntity
8
0
100
AcDbSpline
70
0
71
2
72
6
73
3
74
0
42
0.000000001
43
0.0000000001
44
0.0000000001
40
0
40
0
40
0
40
1
40
1
40
1
10
-544.67153671102096
20
-133.35921390370973
30
0
10
-544.59384723532696
20
-133.57266398391909
30
0
10
-544.64745379320402
20
-133.8023245861358
30
0
0
SPLINE
5
121
100
AcDbEntity
8
0
100
AcDbSpline
70
0
71
2
72
6
73
3
74
0
42
0.000000001
43
0.0000000001
44
0.0000000001
40
0
40
0
40
0
40
1
40
1
40
1
10
-544.64745379320402
20
-133.8023245861358
30
0
10
-544.70106028415739
20
-134.03198548114401
30
0
10
-544.89874464052468
20
-134.21282275443855
30
0
0
SPLINE
5
122
100
AcDbEntity
8
0
100
AcDbSpline
70
0
71
2
72
6
73
3
74
0
42
0.000000001
43
0.0000000001
44
0.0000000001
40
0
40
0
40
0
40
1
40
1
40
1
10
-544.89874464052468
20
-134.21282275443855
30
0
10
-545.096429098822
20
-134.3936597476829
30
0
10
-545.38102908908024
20
-134.49724567280407
30
0
0
SPLINE
5
123
100
AcDbEntity
8
0
100
AcDbSpline
70
0
71
2
72
6
73
3
74
0
42
0.000000001
43
0.0000000001
44
0.0000000001
40
0
40
0
40
0
40
1
40
1
40
1
10
-545.38102908908024
20
-134.49724567280407
30
0
10
-545.69447362232847
20
-134.61133015299407
30
0
10
-545.97062869013473
20
-134.59751213432412
30
0
0
SPLINE
5
124
100
AcDbEntity
8
0
100
AcDbSpline
70
0
71
2
72
6
73
3
74
0
42
0.000000001
43
0.0000000001
44
0.0000000001
40
0
40
0
40
0
40
1
40
1
40
1
10
-545.97062869013473
20
-134.59751213432412
30
0
10
-546.2467837960362
20
-134.58369444666937
30
0
10
-546.44701330908015
20
-134.43444482628399
30
0
0
SPLINE
5
125
100
AcDbEntity
8
0
100
AcDbSpline
70
0
71
2
72
6
73
3
74
0
42
0.000000001
43
0.0000000001
44
0.0000000001
40
0
40
0
40
0
40
1
40
1
40
1
10
-546.44701330908015
20
-134.43444482628399
30
0
10
-546.64724268209886
20
-134.28519515493363
30
0
10
-546.74714535764747
20
-134.04063126797834
30
0
0
LINE
5
126
100
AcDbEntity
8
0
100
AcDbLine
10
-546.74714535764747
20
-134.04063126797834
30
0
11
-546.399271031029
21
-133.88352729235515
31
0
0
SPLINE
5
127
100
AcDbEntity
8
0
100
AcDbSpline
70
0
71
2
72
6
73
3
74
0
42
0.000000001
43
0.0000000001
44
0.0000000001
40
0
40
0
40
0
40
1
40
1
40
1
10
-546.399271031029
20
-133.88352729235515
30
0
10
-546.27313963613949
20
-134.14032194826297
30
0
10
-546.0571093522525
20
-134.21631112380805
30
0
0
SPLINE
5
128
100
AcDbEntity
8
0
100
AcDbSpline
70
0
71
2
72
6
73
3
74
0
42
0.000000001
43
0.0000000001
44
0.0000000001
40
0
40
0
40
0
40
1
40
1
40
1
10
-546.0571093522525
20
-134.21631112380805
30
0
10
-545.84107896643536
20
-134.29230057940339
30
0
10
-545.51609664399609
20
-134.17401668737878
30
0
0
SPLINE
5
129
100
AcDbEntity
8
0
100
AcDbSpline
70
0
71
2
72
6
73
3
74
0
42
0.000000001
43
0.0000000001
44
0.0000000001
40
0
40
0
40
0
40
1
40
1
40
1
10
-545.51609664399609
20
-134.17401668737878
30
0
10
-545.17765335746299
20
-134.05083340509978
30
0
10
-545.06799791130277
20
-133.87045934308603
30
0
0
SPLINE
5
130
100
AcDbEntity
8
0
100
AcDbSpline
70
0
71
2
72
6
73
3
74
0
42
0.000000001
43
0.0000000001
44
0.0000000001
40
0
40
0
40
0
40
1
40
1
40
1
10
-545.06799791130277
20
-133.87045934308603
30
0
10
-544.95834246514266
20
-133.69008528107224
30
0
10
-545.0220337994582
20
-133.51509477821645
30
0
0
SPLINE
5
131
100
AcDbEntity
8
0
100
AcDbSpline
70
0
71
2
72
6
73
3
74
0
42
0.000000001
43
0.0000000001
44
0.0000000001
40
0
40
0
40
0
40
1
40
1
40
1
10
-545.0220337994582
20
-133.51509477821645
30
0
10
-545.07732631010458
20
-133.36317985374268
30
0
10
-545.22263095099572
20
-133.30500281634943
30
0
0
SPLINE
5
132
100
AcDbEntity
8
0
100
AcDbSpline
70
0
71
2
72
6
73
3
74
0
42
0.000000001
43
0.0000000001
44
0.0000000001
40
0
40
0
40
0
40
1
40
1
40
1
10
-545.22263095099572
20
-133.30500281634943
30
0
10
-545.36601250604394
20
-133.24612599152636
30
0
10
-545.85824052089731
20
-133.30877438565767
30
0
0
SPLINE
5
133
100
AcDbEntity
8
0
100
AcDbSpline
70
0
71
2
72
6
73
3
74
0
42
0.000000001
43
0.0000000001
44
0.0000000001
40
0
40
0
40
0
40
1
40
1
40
1
10
-545.85824052089731
20
-133.30877438565767
30
0
10
-546.35046834476043
20
-133.37142286884909
30
0
10
-546.54768618481262
20
-133.35609548256531
30
0
0
SPLINE
5
134
100
AcDbEntity
8
0
100
AcDbSpline
70
0
71
2
72
6
73
3
74
0
42
0.000000001
43
0.0000000001
44
0.0000000001
40
0
40
0
40
0
40
1
40
1
40
1
10
-546.54768618481262
20
-133.35609548256531
30
0
10
-546.83512103699786
20
-133.33222794467031
30
0
10
-547.01576381172038
20
-133.20089321843747
30
0
0
SPLINE
5
135
100
AcDbEntity
8
0
100
AcDbSpline
70
0
71
2
72
6
73
3
74
0
42
0.000000001
43
0.0000000001
44
0.0000000001
40
0
40
0
40
0
40
1
40
1
40
1
10
-547.01576381172038
20
-133.20089321843747
30
0
10
-547.19640663740779
20
-133.06955835217951
30
0
10
-547.27899537594385
20
-132.8426476579391
30
0
0
SPLINE
5
136
100
AcDbEntity
8
0
100
AcDbSpline
70
0
71
2
72
6
73
3
74
0
42
0.000000001
43
0.0000000001
44
0.0000000001
40
0
40
0
40
0
40
1
40
1
40
1
10
-547.27899537594385
20
-132.8426476579391
30
0
10
-547.36088426347237
20
-132.61765978853873
30
0
10
-547.30448510279894
20
-132.37173832785334
30
0
0
SPLINE
5
137
100
AcDbEntity
8
0
100
AcDbSpline
70
0
71
2
72
6
73
3
74
0
42
0.000000001
43
0.0000000001
44
0.0000000001
40
0
40
0
40
0
40
1
40
1
40
1
10
-547.30448510279894
20
-132.37173832785334
30
0
10
-547.24808622217574
20
-132.12581696909791
30
0
10
-547.04699757223568
20
-131.92740805951138
30
0
0
SPLINE
5
138
100
AcDbEntity
8
0
100
AcDbSpline
70
0
71
2
72
6
73
3
74
0
42
0.000000001
43
0.0000000001
44
0.0000000001
40
0
40
0
40
0
40
1
40
1
40
1
10
-547.04699757223568
20
-131.92740805951138
30
0
10
-546.84590906232086
20
-131.7289992008898
30
0
10
-546.54400231826355
20
-131.61911413253432
30
0
0
SPLINE
5
139
100
AcDbEntity
8
0
100
AcDbSpline
70
0
71
2
72
6
73
3
74
0
42
0.000000001
43
0.0000000001
44
0.0000000001
40
0
40
0
40
0
40
1
40
1
40
1
10
-546.54400231826355
20
-131.61911413253432
30
0
10
-546.16133069980651
20
-131.47983305392458
30
0
10
-545.86209652893513
20
-131.49722812410855
30
0
0
SPLINE
5
140
100
AcDbEntity
8
0
100
AcDbSpline
70
0
71
2
72
6
73
3
74
0
42
0.000000001
43
0.0000000001
44
0.0000000001
40
0
40
0
40
0
40
1
40
1
40
1
10
-545.86209652893513
20
-131.49722812410855
30
0
10
-545.56286218612115
20
-131.51462344886025
30
0
10
-545.33421578179809
20
-131.6851071756077
30
0
0
SPLINE
5
141
100
AcDbEntity
8
0
100
AcDbSpline
70
0
71
2
72
6
73
3
74
0
42
0.000000001
43
0.0000000001
44
0.0000000001
40
0
40
0
40
0
40
1
40
1
40
1
10
-545.33421578179809
20
-131.6851071756077
30
0
10
-545.10556953191428
20
-131.8555906414168
30
0
10
-544.99499158881599
20
-132.13546811619148
30
0
0
SPLINE
5
142
100
AcDbEntity
8
0
100
AcDbSpline
70
0
71
2
72
6
73
3
74
0
42
0.000000001
43
0.0000000001
44
0.0000000001
40
0
40
0
40
0
40
1
40
1
40
1
10
-547.46515613125234
20
-133.56371967386036
30
0
10
-547.20969089201776
20
-134.2656046501487
30
0
10
-547.44206301147369
20
-134.79987994136468
30
0
0
SPLINE
5
143
100
AcDbEntity
8
0
100
AcDbSpline
70
0
71
2
72
6
73
3
74
0
42
0.000000001
43
0.0000000001
44
0.0000000001
40
0
40
0
40
0
40
1
40
1
40
1
10
-547.44206301147369
20
-134.79987994136468
30
0
10
-547.67443546194488
20
-135.3341551944855
30
0
10
-548.2705570905988
20
-135.55112572330674
30
0
0
SPLINE
5
144
100
AcDbEntity
8
0
100
AcDbSpline
70
0
71
2
72
6
73
3
74
0
42
0.000000001
43
0.0000000001
44
0.0000000001
40
0
40
0
40
0
40
1
40
1
40
1
10
-548.2705570905988
20
-135.55112572330674
30
0
10
-548.66092021845384
20
-135.69320628239376
30
0
10
-549.04225549785224
20
-135.62076247053699
30
0
0
SPLINE
5
145
100
AcDbEntity
8
0
100
AcDbSpline
70
0
71
2
72
6
73
3
74
0
42
0.000000001
43
0.0000000001
44
0.0000000001
40
0
40
0
40
0
40
1
40
1
40
1
10
-549.04225549785224
20
-135.62076247053699
30
0
10
-549.42359143928104
20
-135.54831858248988
30
0
10
-549.70943904174885
20
-135.2745246961295
30
0
0
SPLINE
5
146
100
AcDbEntity
8
0
100
AcDbSpline
70
0
71
2
72
6
73
3
74
0
42
0.000000001
43
0.0000000001
44
0.0000000001
40
0
40
0
40
0
40
1
40
1
40
1
10
-549.70943904174885
20
-135.2745246961295
30
0
10
-549.99528664421666
20
-135.0007308097691
30
0
10
-550.14926568972987
20
-134.57767685913095
30
0
0
SPLINE
5
147
100
AcDbEntity
8
0
100
AcDbSpline
70
0
71
2
72
6
73
3
74
0
42
0.000000001
43
0.0000000001
44
0.0000000001
40
0
40
0
40
0
40
1
40
1
40
1
10
-550.14926568972987
20
-134.57767685913095
30
0
10
-550.3053444921253
20
-134.14885387387216
30
0
10
-550.25546007090611
20
-133.74741917404347
30
0
0
SPLINE
5
148
100
AcDbEntity
8
0
100
AcDbSpline
70
0
71
2
72
6
73
3
74
0
42
0.000000001
43
0.0000000001
44
0.0000000001
40
0
40
0
40
0
40
1
40
1
40
1
10
-550.25546007090611
20
-133.74741917404347
30
0
10
-550.20557564968692
20
-133.34598447421482
30
0
10
-549.95162677364044
20
-133.05647148162436
30
0
0
SPLINE
5
149
100
AcDbEntity
8
0
100
AcDbSpline
70
0
71
2
72
6
73
3
74
0
42
0.000000001
43
0.0000000001
44
0.0000000001
40
0
40
0
40
0
40
1
40
1
40
1
10
-549.95162677364044
20
-133.05647148162436
30
0
10
-549.69767743942339
20
-132.7669580051238
30
0
10
-549.33038960990018
20
-132.6332761677759
30
0
0
SPLINE
5
150
100
AcDbEntity
8
0
100
AcDbSpline
70
0
71
2
72
6
73
3
74
0
42
0.000000001
43
0.0000000001
44
0.0000000001
40
0
40
0
40
0
40
1
40
1
40
1
10
-549.33038960990018
20
-132.6332761677759
30
0
10
-548.9323343425342
20
-132.48839589886924
30
0
10
-548.54889930625359
20
-132.56660874534663
30
0
0
SPLINE
5
151
100
AcDbEntity
8
0
100
AcDbSpline
70
0
71
2
72
6
73
3
74
0
42
0.000000001
43
0.0000000001
44
0.0000000001
40
0
40
0
40
0
40
1
40
1
40
1
10
-548.54889930625359
20
-132.56660874534663
30
0
10
-548.16546437190289
20
-132.6448213117738
30
0
10
-547.88285088123394
20
-132.91870370225047
30
0
0
SPLINE
5
152
100
AcDbEntity
8
0
100
AcDbSpline
70
0
71
2
72
6
73
3
74
0
42
0.000000001
43
0.0000000001
44
0.0000000001
40
0
40
0
40
0
40
1
40
1
40
1
10
-547.88285088123394
20
-132.91870370225047
30
0
10
-547.60023777254514
20
-133.19258591460684
30
0
10
-547.46515613125234
20
-133.56371967386036
30
0
0
SPLINE
5
153
100
AcDbEntity
8
0
100
AcDbSpline
70
0
71
2
72
6
73
3
74
0
42
0.000000001
43
0.0000000001
44
0.0000000001
40
0
40
0
40
0
40
1
40
1
40
1
10
-547.85185049050449
20
-133.69793178532953
30
0
10
-548.03732532863671
20
-133.18834385565839
30
0
10
-548.41808430514357
20
-132.99482707683987
30
0
0
SPLINE
5
154
100
AcDbEntity
8
0
100
AcDbSpline
70
0
71
2
72
6
73
3
74
0
42
0.000000001
43
0.0000000001
44
0.0000000001
40
0
40
0
40
0
40
1
40
1
40
1
10
-548.41808430514357
20
-132.99482707683987
30
0
10
-548.79884338358033
20
-132.80131001797113
30
0
10
-549.21228236986747
20
-132.95178950265719
30
0
0
SPLINE
5
155
100
AcDbEntity
8
0
100
AcDbSpline
70
0
71
2
72
6
73
3
74
0
42
0.000000001
43
0.0000000001
44
0.0000000001
40
0
40
0
40
0
40
1
40
1
40
1
10
-549.21228236986747
20
-132.95178950265719
30
0
10
-549.63341349566565
20
-133.10506869716289
30
0
10
-549.79772880089718
20
-133.5002432489502
30
0
0
SPLINE
5
156
100
AcDbEntity
8
0
100
AcDbSpline
70
0
71
2
72
6
73
3
74
0
42
0.000000001
43
0.0000000001
44
0.0000000001
40
0
40
0
40
0
40
1
40
1
40
1
10
-549.79772880089718
20
-133.5002432489502
30
0
10
-549.9620442080585
20
-133.89541752068726
30
0
10
-549.7639711344226
20
-134.43961881793143
30
0
0
SPLINE
5
157
100
AcDbEntity
8
0
100
AcDbSpline
70
0
71
2
72
6
73
3
74
0
42
0.000000001
43
0.0000000001
44
0.0000000001
40
0
40
0
40
0
40
1
40
1
40
1
10
-549.7639711344226
20
-134.43961881793143
30
0
10
-549.63868817170885
20
-134.78383092904753
30
0
10
-549.42891073167198
20
-134.99820343909664
30
0
0
SPLINE
5
158
100
AcDbEntity
8
0
100
AcDbSpline
70
0
71
2
72
6
73
3
74
0
42
0.000000001
43
0.0000000001
44
0.0000000001
40
0
40
0
40
0
40
1
40
1
40
1
10
-549.42891073167198
20
-134.99820343909664
30
0
10
-549.21913385173571
20
-135.21257615300567
30
0
10
-548.94366437043971
20
-135.27237573868365
30
0
0
SPLINE
5
159
100
AcDbEntity
8
0
100
AcDbSpline
70
0
71
2
72
6
73
3
74
0
42
0.000000001
43
0.0000000001
44
0.0000000001
40
0
40
0
40
0
40
1
40
1
40
1
10
-548.94366437043971
20
-135.27237573868365
30
0
10
-548.66819488914371
20
-135.33217532436166
30
0
10
-548.38936400351872
20
-135.23068918160524
30
0
0
SPLINE
5
160
100
AcDbEntity
8
0
100
AcDbSpline
70
0
71
2
72
6
73
3
74
0
42
0.000000001
43
0.0000000001
44
0.0000000001
40
0
40
0
40
0
40
1
40
1
40
1
10
-548.38936400351872
20
-135.23068918160524
30
0
10
-547.99323156099285
20
-135.08650876370604
30
0
10
-547.80670679062746
20
-134.71047221992899
30
0
0
SPLINE
5
161
100
AcDbEntity
8
0
100
AcDbSpline
70
0
71
2
72
6
73
3
74
0
42
0.000000001
43
0.0000000001
44
0.0000000001
40
0
40
0
40
0
40
1
40
1
40
1
10
-547.80670679062746
20
-134.71047221992899
30
0
10
-547.62018202026229
20
-134.33443567615194
30
0
10
-547.85185049050449
20
-133.69793178532953
30
0
0
LINE
5
162
100
AcDbEntity
8
0
100
AcDbLine
10
-552.7933176273558
20
-135.06746828880392
30
0
11
-553.20066956099322
21
-135.10902408263556
31
0
0
SPLINE
5
163
100
AcDbEntity
8
0
100
AcDbSpline
70
0
71
2
72
6
73
3
74
0
42
0.000000001
43
0.0000000001
44
0.0000000001
40
0
40
0
40
0
40
1
40
1
40
1
10
-553.20066956099322
20
-135.10902408263556
30
0
10
-553.25064551809692
20
-134.60673948632126
30
0
10
-553.0336925655912
20
-134.25447164071289
30
0
0
SPLINE
5
164
100
AcDbEntity
8
0
100
AcDbSpline
70
0
71
2
72
6
73
3
74
0
42
0.000000001
43
0.0000000001
44
0.0000000001
40
0
40
0
40
0
40
1
40
1
40
1
10
-553.0336925655912
20
-134.25447164071289
30
0
10
-552.81673905298499
20
-133.90220359124459
30
0
10
-552.37637855858543
20
-133.74192547894458
30
0
0
SPLINE
5
165
100
AcDbEntity
8
0
100
AcDbSpline
70
0
71
2
72
6
73
3
74
0
42
0.000000001
43
0.0000000001
44
0.0000000001
40
0
40
0
40
0
40
1
40
1
40
1
10
-552.37637855858543
20
-133.74192547894458
30
0
10
-551.92063378516411
20
-133.57604794700529
30
0
10
-551.56753191190228
20
-133.65767910341961
30
0
0
SPLINE
5
166
100
AcDbEntity
8
0
100
AcDbSpline
70
0
71
2
72
6
73
3
74
0
42
0.000000001
43
0.0000000001
44
0.0000000001
40
0
40
0
40
0
40
1
40
1
40
1
10
-551.56753191190228
20
-133.65767910341961
30
0
10
-551.21442947853996
20
-133.73931005597402
30
0
10
-550.93731655173792
20
-134.03697125432035
30
0
0
SPLINE
5
167
100
AcDbEntity
8
0
100
AcDbSpline
70
0
71
2
72
6
73
3
74
0
42
0.000000001
43
0.0000000001
44
0.0000000001
40
0
40
0
40
0
40
1
40
1
40
1
10
-550.93731655173792
20
-134.03697125432035
30
0
10
-550.66020352300586
20
-134.3346327327169
30
0
10
-550.51322349721704
20
-134.7384570347034
30
0
0
SPLINE
5
168
100
AcDbEntity
8
0
100
AcDbSpline
70
0
71
2
72
6
73
3
74
0
42
0.000000001
43
0.0000000001
44
0.0000000001
40
0
40
0
40
0
40
1
40
1
40
1
10
-550.51322349721704
20
-134.7384570347034
30
0
10
-550.35294528298698
20
-135.17881780915317
30
0
10
-550.40187184838669
20
-135.56792640276228
30
0
0
SPLINE
5
169
100
AcDbEntity
8
0
100
AcDbSpline
70
0
71
2
72
6
73
3
74
0
42
0.000000001
43
0.0000000001
44
0.0000000001
40
0
40
0
40
0
40
1
40
1
40
1
10
-550.40187184838669
20
-135.56792640276228
30
0
10
-550.4507978536858
20
-135.95703479251148
30
0
10
-550.69941636668682
20
-136.2402522749156
30
0
0
SPLINE
5
170
100
AcDbEntity
8
0
100
AcDbSpline
70
0
71
2
72
6
73
3
74
0
42
0.000000001
43
0.0000000001
44
0.0000000001
40
0
40
0
40
0
40
1
40
1
40
1
10
-550.69941636668682
20
-136.2402522749156
30
0
10
-550.94803477775781
20
-136.52347003736995
30
0
10
-551.32109192195185
20
-136.65925173353
30
0
0
SPLINE
5
171
100
AcDbEntity
8
0
100
AcDbSpline
70
0
71
2
72
6
73
3
74
0
42
0.000000001
43
0.0000000001
44
0.0000000001
40
0
40
0
40
0
40
1
40
1
40
1
10
-551.32109192195185
20
-136.65925173353
30
0
10
-551.74414587259002
20
-136.81323077904315
30
0
10
-552.11098076921735
20
-136.70284347564731
30
0
0
SPLINE
5
172
100
AcDbEntity
8
0
100
AcDbSpline
70
0
71
2
72
6
73
3
74
0
42
0.000000001
43
0.0000000001
44
0.0000000001
40
0
40
0
40
0
40
1
40
1
40
1
10
-552.11098076921735
20
-136.70284347564731
30
0
10
-552.47781622594505
20
-136.59245637611136
30
0
10
-552.73335251413243
20
-136.2433874394041
30
0
0
LINE
5
173
100
AcDbEntity
8
0
100
AcDbLine
10
-552.73335251413232
20
-136.24338743940407
30
0
11
-552.3975601462131
21
-136.02317166111843
31
0
0
SPLINE
5
174
100
AcDbEntity
8
0
100
AcDbSpline
70
0
71
2
72
6
73
3
74
0
42
0.000000001
43
0.0000000001
44
0.0000000001
40
0
40
0
40
0
40
1
40
1
40
1
10
-552.3975601462131
20
-136.02317166111843
30
0
10
-552.18750402379169
20
-136.29515224821256
30
0
10
-551.94988240384771
20
-136.3676383953902
30
0
0
SPLINE
5
175
100
AcDbEntity
8
0
100
AcDbSpline
70
0
71
2
72
6
73
3
74
0
42
0.000000001
43
0.0000000001
44
0.0000000001
40
0
40
0
40
0
40
1
40
1
40
1
10
-551.94988240384771
20
-136.3676383953902
30
0
10
-551.71226073293872
20
-136.44012468259294
30
0
10
-551.42958363753314
20
-136.33723863396173
30
0
0
SPLINE
5
176
100
AcDbEntity
8
0
100
AcDbSpline
70
0
71
2
72
6
73
3
74
0
42
0.000000001
43
0.0000000001
44
0.0000000001
40
0
40
0
40
0
40
1
40
1
40
1
10
-551.42958363753314
20
-136.33723863396173
30
0
10
-551.104601595144
20
-136.2189548438671
30
0
10
-550.94303676742584
20
-135.98375488645036
30
0
0
SPLINE
5
177
100
AcDbEntity
8
0
100
AcDbSpline
70
0
71
2
72
6
73
3
74
0
42
0.000000001
43
0.0000000001
44
0.0000000001
40
0
40
0
40
0
40
1
40
1
40
1
10
-550.94303676742584
20
-135.98375488645036
30
0
10
-550.78147137960718
20
-135.74855472517373
30
0
10
-550.78855171723251
20
-135.45387337822856
30
0
0
SPLINE
5
178
100
AcDbEntity
8
0
100
AcDbSpline
70
0
71
2
72
6
73
3
74
0
42
0.000000001
43
0.0000000001
44
0.0000000001
40
0
40
0
40
0
40
1
40
1
40
1
10
-550.78855171723251
20
-135.45387337822856
30
0
10
-550.79563205485795
20
-135.15919203128337
30
0
10
-550.89711824857932
20
-134.88036100563323
30
0
0
SPLINE
5
179
100
AcDbEntity
8
0
100
AcDbSpline
70
0
71
2
72
6
73
3
74
0
42
0.000000001
43
0.0000000001
44
0.0000000001
40
0
40
0
40
0
40
1
40
1
40
1
10
-550.89711824857932
20
-134.88036100563323
30
0
10
-551.02800042707258
20
-134.52076517559578
30
0
10
-551.23043926066771
20
-134.29065522256604
30
0
0
SPLINE
5
180
100
AcDbEntity
8
0
100
AcDbSpline
70
0
71
2
72
6
73
3
74
0
42
0.000000001
43
0.0000000001
44
0.0000000001
40
0
40
0
40
0
40
1
40
1
40
1
10
-551.23043926066771
20
-134.29065522256604
30
0
10
-551.43287809426272
20
-134.06054526953631
30
0
10
-551.7023131428748
20
-134.00834925541818
30
0
0
SPLINE
5
181
100
AcDbEntity
8
0
100
AcDbSpline
70
0
71
2
72
6
73
3
74
0
42
0.000000001
43
0.0000000001
44
0.0000000001
40
0
40
0
40
0
40
1
40
1
40
1
10
-551.7023131428748
20
-134.00834925541818
30
0
10
-551.97174829341679
20
-133.95615296124981
30
0
10
-552.22942698560041
20
-134.04994033520447
30
0
0
SPLINE
5
182
100
AcDbEntity
8
0
100
AcDbSpline
70
0
71
2
72
6
73
3
74
0
42
0.000000001
43
0.0000000001
44
0.0000000001
40
0
40
0
40
0
40
1
40
1
40
1
10
-552.22942698560041
20
-134.04994033520447
30
0
10
-552.54287151884876
20
-134.16402481539447
30
0
10
-552.69437587749019
20
-134.42387342864981
30
0
0
SPLINE
5
183
100
AcDbEntity
8
0
100
AcDbSpline
70
0
71
2
72
6
73
3
74
0
42
0.000000001
43
0.0000000001
44
0.0000000001
40
0
40
0
40
0
40
1
40
1
40
1
10
-552.69437587749019
20
-134.42387342864981
30
0
10
-552.84588089816202
20
-134.68372196571485
30
0
10
-552.7933176273558
20
-135.06746828880392
30
0
0
LWPOLYLINE
5
184
100
AcDbEntity
8
0
100
AcDbPolyline
90
12
70
1
43
0.0
10
-552.94427148577233
20
-137.19559791227431
10
-553.97033195647532
20
-134.37651993787972
10
-554.34338854056887
20
-134.51230143017992
10
-553.98783691155779
20
-135.48917150238805
10
-554.28557299550766
20
-136.10712438998524
10
-555.80869420898159
20
-135.04562907755647
10
-556.3009743346654
20
-135.22480439021703
10
-554.45610967323614
20
-136.45229801862746
10
-555.22299367257779
20
-138.02498496039112
10
-554.71725209271233
20
-137.84091007909873
10
-553.82615889338285
20
-135.93337820656819
10
-553.31732806986588
20
-137.33137940457448
0
LWPOLYLINE
5
185
100
AcDbEntity
8
0
100
AcDbPolyline
90
12
70
1
43
0.0
10
-555.59412743183134
20
-138.16006660168387
10
-556.62018790253433
20
-135.34098862728931
10
-558.72391958648404
20
-136.10668434109061
10
-558.60283608656971
20
-136.43935852299057
10
-556.87216154681414
20
-135.80944450534932
10
-556.52290903555479
20
-136.76900789377098
10
-558.0824392822351
20
-137.33663048297151
10
-557.9620556333283
20
-137.66738184003142
10
-556.40252538664777
20
-137.09975925083089
10
-556.08826817786974
20
-137.96317383589374
10
-557.75356219225978
20
-138.5692912884025
10
-557.63247859041553
20
-138.9019657503527
0
LWPOLYLINE
5
186
100
AcDbEntity
8
0
100
AcDbPolyline
90
8
70
1
43
0.0
10
-559.05156809707648
20
-139.04172680163344
10
-559.95654496593522
20
-136.55532328918906
10
-560.32960211012937
20
-136.69110498534911
10
-559.42462524127063
20
-139.1775084977935
10
-560.35726642145437
20
-139.51696212661398
10
-560.23618281961012
20
-139.84963658856415
10
-558.0016889647286
20
-139.03634733677805
10
-558.12277256657285
20
-138.70367287482787
0
LINE
5
187
100
AcDbEntity
8
0
100
AcDbLine
10
-536.21669394432479
20
-124.20778410581995
30
0
11
-536.32319612039248
21
-124.55320764963864
31
0
0
SPLINE
5
188
100
AcDbEntity
8
0
100
AcDbSpline
70
0
71
2
72
6
73
3
74
0
42
0.000000001
43
0.0000000001
44
0.0000000001
40
0
40
0
40
0
40
1
40
1
40
1
10
-536.32319612039248
20
-124.55320764963865
30
0
10
-536.64095942651807
20
-124.42120339510909
30
0
10
-536.80433032094743
20
-124.47160161775669
30
0
0
SPLINE
5
189
100
AcDbEntity
8
0
100
AcDbSpline
70
0
71
2
72
6
73
3
74
0
42
0.000000001
43
0.0000000001
44
0.0000000001
40
0
40
0
40
0
40
1
40
1
40
1
10
-536.80433032094743
20
-124.47160161775669
30
0
10
-536.96770146988774
20
-124.52199968093689
30
0
10
-537.0531435406682
20
-124.70569292354263
30
0
0
SPLINE
5
190
100
AcDbEntity
8
0
100
AcDbSpline
70
0
71
2
72
6
73
3
74
0
42
0.000000001
43
0.0000000001
44
0.0000000001
40
0
40
0
40
0
40
1
40
1
40
1
10
-537.0531435406682
20
-124.70569292354263
30
0
10
-537.11614627623726
20
-124.84114348886695
30
0
10
-537.09972908354985
20
-124.96839657924369
30
0
0
SPLINE
5
191
100
AcDbEntity
8
0
100
AcDbSpline
70
0
71
2
72
6
73
3
74
0
42
0.000000001
43
0.0000000001
44
0.0000000001
40
0
40
0
40
0
40
1
40
1
40
1
10
-537.09972908354985
20
-124.96839657924369
30
0
10
-537.08331216108456
20
-125.09564954393082
30
0
10
-536.99388248241166
20
-125.18238480209715
30
0
0
SPLINE
5
192
100
AcDbEntity
8
0
100
AcDbSpline
70
0
71
2
72
6
73
3
74
0
42
0.000000001
43
0.0000000001
44
0.0000000001
40
0
40
0
40
0
40
1
40
1
40
1
10
-536.99388248241166
20
-125.18238480209715
30
0
10
-536.90445307396089
20
-125.26911993457387
30
0
10
-536.67066153916983
20
-125.37786445113936
30
0
0
LINE
5
193
100
AcDbEntity
8
0
100
AcDbLine
10
-536.67066153916983
20
-125.37786445113935
30
0
11
-534.79661938214394
21
-126.2495461763622
31
0
0
LINE
5
194
100
AcDbEntity
8
0
100
AcDbLine
10
-534.79661938214394
20
-126.2495461763622
30
0
11
-534.96405133279052
21
-126.60951074240215
31
0
0
LINE
5
195
100
AcDbEntity
8
0
100
AcDbLine
10
-534.96405133279052
20
-126.60951074240215
30
0
11
-536.81768307698371
21
-125.74732260503902
31
0
0
SPLINE
5
196
100
AcDbEntity
8
0
100
AcDbSpline
70
0
71
2
72
6
73
3
74
0
42
0.000000001
43
0.0000000001
44
0.0000000001
40
0
40
0
40
0
40
1
40
1
40
1
10
-536.81768307698371
20
-125.74732260503902
30
0
10
-537.15909298020597
20
-125.5885210688339
30
0
10
-537.30809133380592
20
-125.41878374545777
30
0
0
SPLINE
5
197
100
AcDbEntity
8
0
100
AcDbSpline
70
0
71
2
72
6
73
3
74
0
42
0.000000001
43
0.0000000001
44
0.0000000001
40
0
40
0
40
0
40
1
40
1
40
1
10
-537.30809133380592
20
-125.41878374545777
30
0
10
-537.45708968740598
20
-125.24904642208168
30
0
10
-537.47214607030276
20
-125.02425016080647
30
0
0
SPLINE
5
198
100
AcDbEntity
8
0
100
AcDbSpline
70
0
71
2
72
6
73
3
74
0
42
0.000000001
43
0.0000000001
44
0.0000000001
40
0
40
0
40
0
40
1
40
1
40
1
10
-537.47214607030276
20
-125.02425016080647
30
0
10
-537.48720248462189
20
-124.79945396708678
30
0
10
-537.37500580856431
20
-124.55824058067972
30
0
0
SPLINE
5
199
100
AcDbEntity
8
0
100
AcDbSpline
70
0
71
2
72
6
73
3
74
0
42
0.000000001
43
0.0000000001
44
0.0000000001
40
0
40
0
40
0
40
1
40
1
40
1
10
-537.37500580856431
20
-124.55824058067972
30
0
10
-537.20843693706865
20
-124.20013156198814
30
0
10
-536.91401525096194
20
-124.10574271843126
30
0
0
SPLINE
5
200
100
AcDbEntity
8
0
100
AcDbSpline
70
0
71
2
72
6
73
3
74
0
42
0.000000001
43
0.0000000001
44
0.0000000001
40
0
40
0
40
0
40
1
40
1
40
1
10
-536.91401525096194
20
-124.10574271843126
30
0
10
-536.61959329856109
20
-124.01135400900841
30
0
10
-536.21669394432479
20
-124.20778410581995
30
0
0
ENDSEC
0
SECTION
2
OBJECTS
0
DICTIONARY
5
C
100
AcDbDictionary
3
ACAD_GROUP
350
D
3
ACAD_MLINESTYLE
350
17
0
DICTIONARY
5
D
100
AcDbDictionary
0
DICTIONARY
5
1A
330
C
100
AcDbDictionary
0
DICTIONARY
5
17
100
AcDbDictionary
0
ENDSEC
0
EOF
