0
SECTION
2
HEADER
9
$INSUNITS
70
4
9
$ACADVER
1
AC1014
9
$HANDSEED
5
FFFF
0
ENDSEC
0
SECTION
2
TABLES
0
TABLE
2
VPORT
5
8
100
AcDbSymbolTable
0
ENDTAB
0
TABLE
2
LTYPE
5
5
100
AcDbSymbolTable
0
LTYPE
5
14
100
AcDbSymbolTableRecord
100
AcDbLinetypeTableRecord
2
BYBLOCK
70
0
0
LTYPE
5
15
100
AcDbSymbolTableRecord
100
AcDbLinetypeTableRecord
2
BYLAYER
70
0
0
ENDTAB
0
TABLE
2
LAYER
5
2
100
AcDbSymbolTable
70
2
0
LAYER
5
50
100
AcDbSymbolTableRecord
100
AcDbLayerTableRecord
2
0
70
0
6
CONTINUOUS
0
ENDTAB
0
TABLE
2
STYLE
5
3
100
AcDbSymbolTable
70
1
0
STYLE
5
11
100
AcDbSymbolTableRecord
100
AcDbTextStyleTableRecord
2
STANDARD
70
0
0
ENDTAB
0
TABLE
2
VIEW
5
6
100
AcDbSymbolTable
70
0
0
ENDTAB
0
TABLE
2
UCS
5
7
100
AcDbSymbolTable
70
0
0
ENDTAB
0
TABLE
2
APPID
5
9
100
AcDbSymbolTable
70
2
0
APPID
5
12
100
AcDbSymbolTableRecord
100
AcDbRegAppTableRecord
2
ACAD
70
0
0
ENDTAB
0
TABLE
2
DIMSTYLE
5
A
100
AcDbSymbolTable
70
1
0
ENDTAB
0
TABLE
2
BLOCK_RECORD
5
1
100
AcDbSymbolTable
70
1
0
BLOCK_RECORD
5
1F
100
AcDbSymbolTableRecord
100
AcDbBlockTableRecord
2
*MODEL_SPACE
0
BLOCK_RECORD
5
1B
100
AcDbSymbolTableRecord
100
AcDbBlockTableRecord
2
*PAPER_SPACE
0
ENDTAB
0
ENDSEC
0
SECTION
2
BLOCKS
0
BLOCK
5
20
100
AcDbEntity
100
AcDbBlockBegin
2
*MODEL_SPACE
0
ENDBLK
5
21
100
AcDbEntity
100
AcDbBlockEnd
0
BLOCK
5
1C
100
AcDbEntity
100
AcDbBlockBegin
2
*PAPER_SPACE
0
ENDBLK
5
1D
100
AcDbEntity
100
AcDbBlockEnd
0
ENDSEC
0
SECTION
2
ENTITIES
0
LINE
5
100
100
AcDbEntity
8
0
100
AcDbLine
10
102.38199885806908
20
140
30
0
11
102.38199885806908
21
143.19999999999999
31
0
0
LINE
5
101
100
AcDbEntity
8
0
100
AcDbLine
10
102.38199885806908
20
143.19999999999999
30
0
11
82.381998858069082
21
143.19999999999999
31
0
0
LINE
5
102
100
AcDbEntity
8
0
100
AcDbLine
10
82.381998858069082
20
143.19999999999999
30
0
11
82.381998858069082
21
140
31
0
0
LINE
5
103
100
AcDbEntity
8
0
100
AcDbLine
10
82.381998858069082
20
140
30
0
11
-7.8180011419309459
21
140
31
0
0
LINE
5
104
100
AcDbEntity
8
0
100
AcDbLine
10
-7.8180011419309459
20
140
30
0
11
-7.818001141930929
21
143.19999999999999
31
0
0
LINE
5
105
100
AcDbEntity
8
0
100
AcDbLine
10
-7.818001141930929
20
143.19999999999999
30
0
11
-27.818001141930946
21
143.19999999999999
31
0
0
LINE
5
106
100
AcDbEntity
8
0
100
AcDbLine
10
-27.818001141930946
20
143.19999999999999
30
0
11
-27.818001141930928
21
140
31
0
0
LINE
5
107
100
AcDbEntity
8
0
100
AcDbLine
10
-27.818001141930928
20
140
30
0
11
-39.61800114193705
21
140.0000007120407
31
0
0
LINE
5
108
100
AcDbEntity
8
0
100
AcDbLine
10
-39.61800114193705
20
140.0000007120407
30
0
11
-39.618001141944312
21
125.00000078369493
31
0
0
LINE
5
109
100
AcDbEntity
8
0
100
AcDbLine
10
-39.618001141944312
20
125.00000078369493
30
0
11
-42.817999200630155
21
125.00000078369257
31
0
0
LINE
5
110
100
AcDbEntity
8
0
100
AcDbLine
10
-42.817999200630155
20
125.00000078369257
30
0
11
-42.81799964845451
21
105.00000078369257
31
0
0
LINE
5
111
100
AcDbEntity
8
0
100
AcDbLine
10
-42.81799964845451
20
105.00000078369257
30
0
11
-39.618001141941988
21
105.00000078369493
31
0
0
LINE
5
112
100
AcDbEntity
8
0
100
AcDbLine
10
-39.618001141941988
20
105.00000078369493
30
0
11
-39.61800114194164
21
99.000000783692585
31
0
0
LINE
5
113
100
AcDbEntity
8
0
100
AcDbLine
10
-39.618001141933888
20
38.200000000004131
30
0
11
-42.818001144187846
21
38.200000000008515
31
0
0
LINE
5
114
100
AcDbEntity
8
0
100
AcDbLine
10
-42.818001144187846
20
38.200000000008515
30
0
11
-42.818001143006192
21
18.200000000008512
31
0
0
LINE
5
115
100
AcDbEntity
8
0
100
AcDbLine
10
-42.818001143006192
20
18.200000000008512
30
0
11
-39.618001141933235
21
18.200000000004142
31
0
0
LINE
5
116
100
AcDbEntity
8
0
100
AcDbLine
10
-39.618001141933235
20
18.200000000004142
30
0
11
-39.618001141931636
21
3.2000000000135387
31
0
0
LINE
5
117
100
AcDbEntity
8
0
100
AcDbLine
10
-39.618001141931636
20
3.2000000000135387
30
0
11
-27.818001141932349
21
3.2000000000085116
31
0
0
LINE
5
118
100
AcDbEntity
8
0
100
AcDbLine
10
-27.818001141932349
20
3.2000000000085116
30
0
11
-27.81800114193091
21
0
31
0
0
LINE
5
119
100
AcDbEntity
8
0
100
AcDbLine
10
-27.81800114193091
20
0
30
0
11
-7.8180011419309459
21
0
31
0
0
LINE
5
120
100
AcDbEntity
8
0
100
AcDbLine
10
-7.8180011419309459
20
0
30
0
11
-7.8180011419313908
21
3.2000000000000028
31
0
0
LINE
5
121
100
AcDbEntity
8
0
100
AcDbLine
10
-7.8180011419313908
20
3.2000000000000028
30
0
11
82.381998858069068
21
3.2000000000003226
31
0
0
LINE
5
122
100
AcDbEntity
8
0
100
AcDbLine
10
82.381998858069068
20
3.2000000000003226
30
0
11
82.381998858069068
21
0
31
0
0
LINE
5
123
100
AcDbEntity
8
0
100
AcDbLine
10
82.381998858069068
20
0
30
0
11
102.38199885806907
21
0
31
0
0
LINE
5
124
100
AcDbEntity
8
0
100
AcDbLine
10
102.38199885806907
20
0
30
0
11
102.38199885806878
21
3.2000000000066109
31
0
0
LINE
5
125
100
AcDbEntity
8
0
100
AcDbLine
10
102.38199885806878
20
3.2000000000066109
30
0
11
114.18199885806764
21
3.2000000000073214
31
0
0
LINE
5
126
100
AcDbEntity
8
0
100
AcDbLine
10
114.18199885806764
20
3.2000000000073214
30
0
11
114.18199885806774
21
18.200000000006877
31
0
0
LINE
5
127
100
AcDbEntity
8
0
100
AcDbLine
10
114.18199885806774
20
18.200000000006877
30
0
11
117.38199885808493
21
18.200000000006895
31
0
0
LINE
5
128
100
AcDbEntity
8
0
100
AcDbLine
10
117.38199885808493
20
18.200000000006895
30
0
11
117.38199885806821
21
38.200000000006909
31
0
0
LINE
5
129
100
AcDbEntity
8
0
100
AcDbLine
10
117.38199885806821
20
38.200000000006909
30
0
11
114.18199885806789
21
38.200000000006909
31
0
0
LINE
5
130
100
AcDbEntity
8
0
100
AcDbLine
10
114.18199885806789
20
38.200000000006909
30
0
11
114.18199885806985
21
105
31
0
0
LINE
5
131
100
AcDbEntity
8
0
100
AcDbLine
10
114.18199885806985
20
105
30
0
11
117.38199885806969
21
105
31
0
0
LINE
5
132
100
AcDbEntity
8
0
100
AcDbLine
10
117.38199885806969
20
105
30
0
11
117.38199885807013
21
125
31
0
0
LINE
5
133
100
AcDbEntity
8
0
100
AcDbLine
10
117.38199885807013
20
125
30
0
11
114.18199885807022
21
125
31
0
0
LINE
5
134
100
AcDbEntity
8
0
100
AcDbLine
10
114.18199885807022
20
125
30
0
11
114.18199885806906
21
140
31
0
0
LINE
5
135
100
AcDbEntity
8
0
100
AcDbLine
10
114.18199885806906
20
140
30
0
11
102.38199885806908
21
140
31
0
0
CIRCLE
5
136
100
AcDbEntity
8
0
100
AcDbCircle
10
53.181998858067637
20
71.59999999999998
30
0
40
59
210
0
220
-0
230
1
0
CIRCLE
5
137
100
AcDbEntity
8
0
100
AcDbCircle
10
106.18199885806763
20
18.599999999999884
30
0
40
2.5
210
0
220
-0
230
1
0
CIRCLE
5
138
100
AcDbEntity
8
0
100
AcDbCircle
10
106.18199885806773
20
124.59999999999999
30
0
40
2.5
210
0
220
-0
230
1
0
CIRCLE
5
139
100
AcDbEntity
8
0
100
AcDbCircle
10
0.18199885806763721
20
124.60000000000007
30
0
40
2.499999999999996
210
0
220
-0
230
1
0
CIRCLE
5
140
100
AcDbEntity
8
0
100
AcDbCircle
10
0.18199885806753952
20
18.599999999999977
30
0
40
2.499999999999996
210
0
220
-0
230
1
0
LWPOLYLINE
5
141
100
AcDbEntity
8
0
100
AcDbPolyline
90
4
70
1
43
0.0
10
-27.853329470019197
20
61.599344536272937
10
-28.449607421649116
20
21.099618010913478
10
-19.12950666528598
20
20.962398057476754
10
-18.533228713656097
20
61.462124582833596
0
LWPOLYLINE
5
142
100
AcDbEntity
8
0
100
AcDbPolyline
90
4
70
1
43
0.0
10
-20.555492210790092
20
10.717409038953383
10
-20.555492210795549
20
-6.9044301039822678
10
-14.502014781562737
20
-6.9044301039844829
10
-14.502014781557284
20
10.717409038950281
0
LWPOLYLINE
5
143
100
AcDbEntity
8
0
100
AcDbPolyline
90
4
70
1
43
0.0
10
88.03607509343783
20
10.70632934922736
10
88.036075093437773
20
-6.9155097937082886
10
96.937909721300869
20
-6.9155097937088161
10
96.937909721300912
20
10.70632934922685
0
LINE
5
144
100
AcDbEntity
8
0
100
AcDbLine
10
-39.61800114194164
20
99.000000783692585
30
0
11
-30.218001141933396
21
99.000000783692585
31
0
0
LINE
5
145
100
AcDbEntity
8
0
100
AcDbLine
10
-30.218001141933396
20
99.000000783692585
30
0
11
-30.218001141934113
21
82.600000783692579
31
0
0
LINE
5
146
100
AcDbEntity
8
0
100
AcDbLine
10
-30.218001141934113
20
82.600000783692579
30
0
11
-39.618001141939651
21
82.600000783692579
31
0
0
LINE
5
147
100
AcDbEntity
8
0
100
AcDbLine
10
-39.618001141939651
20
82.600000783692579
30
0
11
-39.618001141933888
21
38.200000000004131
31
0
0
LWPOLYLINE
5
148
100
AcDbEntity
8
0
100
AcDbPolyline
90
12
70
1
43
0.0
10
-19.825333310547812
20
29.36783295971577
10
-22.825008331981277
20
29.411997210460939
10
-22.819163951417373
20
29.808952714016023
10
-21.405265236481359
20
29.788135866548039
10
-21.382309458902871
20
31.347312608811244
10
-22.796208173838885
20
31.36812945627922
10
-22.79036378450034
20
31.765085555816167
10
-19.790688763066871
20
31.720921305070998
10
-19.796533152405424
20
31.323965205534058
10
-21.028323353238143
20
31.342100867199505
10
-21.051279130816631
20
29.782924124936308
10
-19.819488929983908
20
29.764788463270861
0
SPLINE
5
149
100
AcDbEntity
8
0
100
AcDbSpline
70
0
71
2
72
6
73
3
74
0
42
0.000000001
43
0.0000000001
44
0.0000000001
40
0
40
0
40
0
40
1
40
1
40
1
10
-21.69683203340886
20
32.225844506086915
30
0
10
-21.093213861248184
20
32.216957428613796
30
0
10
-20.797718099962729
20
32.548249549857601
30
0
0
SPLINE
5
150
100
AcDbEntity
8
0
100
AcDbSpline
70
0
71
2
72
6
73
3
74
0
42
0.000000001
43
0.0000000001
44
0.0000000001
40
0
40
0
40
0
40
1
40
1
40
1
10
-20.797718099962729
20
32.548249549857601
30
0
10
-20.552143575458061
20
32.825019552551176
30
0
10
-20.546208807246053
20
33.228114265211424
30
0
0
SPLINE
5
151
100
AcDbEntity
8
0
100
AcDbSpline
70
0
71
2
72
6
73
3
74
0
42
0.000000001
43
0.0000000001
44
0.0000000001
40
0
40
0
40
0
40
1
40
1
40
1
10
-20.546208807246053
20
33.228114265211424
30
0
10
-20.539611289877449
20
33.676223487503066
30
0
10
-20.829048135551361
20
33.964963367355409
30
0
0
SPLINE
5
152
100
AcDbEntity
8
0
100
AcDbSpline
70
0
71
2
72
6
73
3
74
0
42
0.000000001
43
0.0000000001
44
0.0000000001
40
0
40
0
40
0
40
1
40
1
40
1
10
-20.829048135551361
20
33.964963367355409
30
0
10
-21.118485130220733
20
34.253703249401404
30
0
10
-21.636164506600693
20
34.261325048969923
30
0
0
SPLINE
5
153
100
AcDbEntity
8
0
100
AcDbSpline
70
0
71
2
72
6
73
3
74
0
42
0.000000001
43
0.0000000001
44
0.0000000001
40
0
40
0
40
0
40
1
40
1
40
1
10
-21.636164506600693
20
34.261325048969923
30
0
10
-22.055627860953333
20
34.267500812886908
30
0
10
-22.297904757121067
20
34.145200203374024
30
0
0
SPLINE
5
154
100
AcDbEntity
8
0
100
AcDbSpline
70
0
71
2
72
6
73
3
74
0
42
0.000000001
43
0.0000000001
44
0.0000000001
40
0
40
0
40
0
40
1
40
1
40
1
10
-22.297904757121067
20
34.145200203374024
30
0
10
-22.540181618190207
20
34.022901977788564
30
0
10
-22.676721884443616
20
33.784436296945273
30
0
0
SPLINE
5
155
100
AcDbEntity
8
0
100
AcDbSpline
70
0
71
2
72
6
73
3
74
0
42
0.000000001
43
0.0000000001
44
0.0000000001
40
0
40
0
40
0
40
1
40
1
40
1
10
-22.676721884443616
20
33.784436296945273
30
0
10
-22.813262466237244
20
33.545969428525588
30
0
10
-22.81744992126179
20
33.261553774940111
30
0
0
SPLINE
5
156
100
AcDbEntity
8
0
100
AcDbSpline
70
0
71
2
72
6
73
3
74
0
42
0.000000001
43
0.0000000001
44
0.0000000001
40
0
40
0
40
0
40
1
40
1
40
1
10
-22.81744992126179
20
33.261553774940111
30
0
10
-22.824167967194072
20
32.805258145865785
30
0
10
-22.53570876839558
20
32.51960382402828
30
0
0
SPLINE
5
157
100
AcDbEntity
8
0
100
AcDbSpline
70
0
71
2
72
6
73
3
74
0
42
0.000000001
43
0.0000000001
44
0.0000000001
40
0
40
0
40
0
40
1
40
1
40
1
10
-22.53570876839558
20
32.51960382402828
30
0
10
-22.247249885137315
20
32.233948314614395
30
0
10
-21.69683203340886
20
32.225844506086915
30
0
0
SPLINE
5
158
100
AcDbEntity
8
0
100
AcDbSpline
70
0
71
2
72
6
73
3
74
0
42
0.000000001
43
0.0000000001
44
0.0000000001
40
0
40
0
40
0
40
1
40
1
40
1
10
-21.69125878069071
20
32.604384766253943
30
0
10
-22.108675831338598
20
32.610530402417325
30
0
10
-22.313680321385952
20
32.795696377121914
30
0
0
SPLINE
5
159
100
AcDbEntity
8
0
100
AcDbSpline
70
0
71
2
72
6
73
3
74
0
42
0.000000001
43
0.0000000001
44
0.0000000001
40
0
40
0
40
0
40
1
40
1
40
1
10
-22.313680321385952
20
32.795696377121914
30
0
10
-22.5186848114333
20
32.980862351826502
30
0
10
-22.514617832324546
20
33.257095174520416
30
0
0
SPLINE
5
160
100
AcDbEntity
8
0
100
AcDbSpline
70
0
71
2
72
6
73
3
74
0
42
0.000000001
43
0.0000000001
44
0.0000000001
40
0
40
0
40
0
40
1
40
1
40
1
10
-22.514617832324546
20
33.257095174520416
30
0
10
-22.510581002906012
20
33.531280203554957
30
0
10
-22.299191147171449
20
33.710315599391969
30
0
0
SPLINE
5
161
100
AcDbEntity
8
0
100
AcDbSpline
70
0
71
2
72
6
73
3
74
0
42
0.000000001
43
0.0000000001
44
0.0000000001
40
0
40
0
40
0
40
1
40
1
40
1
10
-22.299191147171449
20
33.710315599391969
30
0
10
-22.08780129143689
20
33.88935099522898
30
0
10
-21.660153318247133
20
33.883054729072263
30
0
0
SPLINE
5
162
100
AcDbEntity
8
0
100
AcDbSpline
70
0
71
2
72
6
73
3
74
0
42
0.000000001
43
0.0000000001
44
0.0000000001
40
0
40
0
40
0
40
1
40
1
40
1
10
-21.660153318247133
20
33.883054729072263
30
0
10
-21.257059201568744
20
33.877119969634762
30
0
10
-21.052069768817205
20
33.690931290064192
30
0
0
SPLINE
5
163
100
AcDbEntity
8
0
100
AcDbSpline
70
0
71
2
72
6
73
3
74
0
42
0.000000001
43
0.0000000001
44
0.0000000001
40
0
40
0
40
0
40
1
40
1
40
1
10
-21.052069768817205
20
33.690931290064192
30
0
10
-20.847080336065666
20
33.504742610493629
30
0
10
-20.851087050892581
20
33.232602991191051
30
0
0
SPLINE
5
164
100
AcDbEntity
8
0
100
AcDbSpline
70
0
71
2
72
6
73
3
74
0
42
0.000000001
43
0.0000000001
44
0.0000000001
40
0
40
0
40
0
40
1
40
1
40
1
10
-20.851087050892581
20
33.232602991191051
30
0
10
-20.855154030001334
20
32.956370168497131
30
0
10
-21.064497880022074
20
32.777304649293846
30
0
0
SPLINE
5
165
100
AcDbEntity
8
0
100
AcDbSpline
70
0
71
2
72
6
73
3
74
0
42
0.000000001
43
0.0000000001
44
0.0000000001
40
0
40
0
40
0
40
1
40
1
40
1
10
-21.064497880022074
20
32.777304649293846
30
0
10
-21.273841432051892
20
32.59823912570323
30
0
10
-21.69125878069071
20
32.604384766253943
30
0
0
LINE
5
166
100
AcDbEntity
8
0
100
AcDbLine
10
-22.726045457381879
20
36.133643292599643
30
0
11
-22.406844130770388
21
36.128943687700463
31
0
0
SPLINE
5
167
100
AcDbEntity
8
0
100
AcDbSpline
70
0
71
2
72
6
73
3
74
0
42
0.000000001
43
0.0000000001
44
0.0000000001
40
0
40
0
40
0
40
1
40
1
40
1
10
-22.406844130770388
20
36.12894368770047
30
0
10
-22.778889064151358
20
35.880641338529038
30
0
10
-22.785305823773022
20
35.444809342484014
30
0
0
SPLINE
5
168
100
AcDbEntity
8
0
100
AcDbSpline
70
0
71
2
72
6
73
3
74
0
42
0.000000001
43
0.0000000001
44
0.0000000001
40
0
40
0
40
0
40
1
40
1
40
1
10
-22.785305823773022
20
35.444809342484014
30
0
10
-22.788137648343479
20
35.252469309856991
30
0
10
-22.716931015049937
20
35.084623102007903
30
0
0
SPLINE
5
169
100
AcDbEntity
8
0
100
AcDbSpline
70
0
71
2
72
6
73
3
74
0
42
0.000000001
43
0.0000000001
44
0.0000000001
40
0
40
0
40
0
40
1
40
1
40
1
10
-22.716931015049937
20
35.084623102007903
30
0
10
-22.645724381756391
20
34.916776894158808
30
0
10
-22.535398411267337
20
34.83431036799557
30
0
0
SPLINE
5
170
100
AcDbEntity
8
0
100
AcDbSpline
70
0
71
2
72
6
73
3
74
0
42
0.000000001
43
0.0000000001
44
0.0000000001
40
0
40
0
40
0
40
1
40
1
40
1
10
-22.535398411267337
20
34.83431036799557
30
0
10
-22.425072405679686
20
34.751846225759749
30
0
10
-22.263907447628142
20
34.716727820208078
30
0
0
SPLINE
5
171
100
AcDbEntity
8
0
100
AcDbSpline
70
0
71
2
72
6
73
3
74
0
42
0.000000001
43
0.0000000001
44
0.0000000001
40
0
40
0
40
0
40
1
40
1
40
1
10
-22.263907447628142
20
34.716727820208078
30
0
10
-22.155792201952114
20
34.692622116189263
30
0
10
-21.920483665407524
20
34.689157665828418
30
0
0
LINE
5
172
100
AcDbEntity
8
0
100
AcDbLine
10
-21.920483665407527
20
34.689157665828418
30
0
11
-20.574108353868695
21
34.669334966225613
31
0
0
LINE
5
173
100
AcDbEntity
8
0
100
AcDbLine
10
-20.574108353868695
20
34.669334966225613
30
0
11
-20.568685726756556
21
35.037644601841706
31
0
0
LINE
5
174
100
AcDbEntity
8
0
100
AcDbLine
10
-20.568685726756556
20
35.037644601841706
30
0
11
-21.773875916368624
21
35.055388631227999
31
0
0
SPLINE
5
175
100
AcDbEntity
8
0
100
AcDbSpline
70
0
71
2
72
6
73
3
74
0
42
0.000000001
43
0.0000000001
44
0.0000000001
40
0
40
0
40
0
40
1
40
1
40
1
10
-21.773875916368624
20
35.055388631227999
30
0
10
-22.062384773345443
20
35.059636350534483
30
0
10
-22.162315417733645
20
35.08362036034984
30
0
0
SPLINE
5
176
100
AcDbEntity
8
0
100
AcDbSpline
70
0
71
2
72
6
73
3
74
0
42
0.000000001
43
0.0000000001
44
0.0000000001
40
0
40
0
40
0
40
1
40
1
40
1
10
-22.162315417733645
20
35.08362036034984
30
0
10
-22.307080707979093
20
35.120544358730385
30
0
10
-22.388293297982745
20
35.234302509222289
30
0
0
SPLINE
5
177
100
AcDbEntity
8
0
100
AcDbSpline
70
0
71
2
72
6
73
3
74
0
42
0.000000001
43
0.0000000001
44
0.0000000001
40
0
40
0
40
0
40
1
40
1
40
1
10
-22.388293297982745
20
35.234302509222289
30
0
10
-22.469506150878736
20
35.348063048028948
30
0
10
-22.467065991492355
20
35.513800834503357
30
0
0
SPLINE
5
178
100
AcDbEntity
8
0
100
AcDbSpline
70
0
71
2
72
6
73
3
74
0
42
0.000000001
43
0.0000000001
44
0.0000000001
40
0
40
0
40
0
40
1
40
1
40
1
10
-22.467065991492355
20
35.513800834503357
30
0
10
-22.464625797007386
20
35.679541004905197
30
0
10
-22.377571095909218
20
35.823567326056263
30
0
0
SPLINE
5
179
100
AcDbEntity
8
0
100
AcDbSpline
70
0
71
2
72
6
73
3
74
0
42
0.000000001
43
0.0000000001
44
0.0000000001
40
0
40
0
40
0
40
1
40
1
40
1
10
-22.377571095909218
20
35.823567326056263
30
0
10
-22.290516359712463
20
35.967596031134768
30
0
10
-22.143326931179061
20
36.025803086167578
30
0
0
SPLINE
5
180
100
AcDbEntity
8
0
100
AcDbSpline
70
0
71
2
72
6
73
3
74
0
42
0.000000001
43
0.0000000001
44
0.0000000001
40
0
40
0
40
0
40
1
40
1
40
1
10
-22.143326931179061
20
36.025803086167578
30
0
10
-21.996137783087292
20
36.084011337551431
30
0
10
-21.717859550661412
20
36.079914243850965
30
0
0
LINE
5
181
100
AcDbEntity
8
0
100
AcDbLine
10
-21.717859550661409
20
36.079914243850965
30
0
11
-20.553592753225878
21
36.062772730050696
31
0
0
LINE
5
182
100
AcDbEntity
8
0
100
AcDbLine
10
-20.553592753225878
20
36.062772730050696
30
0
11
-20.548170143663036
21
36.43108117370307
31
0
0
LINE
5
183
100
AcDbEntity
8
0
100
AcDbLine
10
-20.548170143663036
20
36.43108117370307
30
0
11
-22.72119523565145
21
36.463074647780218
31
0
0
LINE
5
184
100
AcDbEntity
8
0
100
AcDbLine
10
-22.72119523565145
20
36.463074647780218
30
0
11
-22.726045457381879
21
36.133643292599643
31
0
0
LINE
5
185
100
AcDbEntity
8
0
100
AcDbLine
10
-22.066235244039806
20
36.883220574837679
30
0
11
-22.00358025135872
21
37.246593486996915
31
0
0
SPLINE
5
186
100
AcDbEntity
8
0
100
AcDbSpline
70
0
71
2
72
6
73
3
74
0
42
0.000000001
43
0.0000000001
44
0.0000000001
40
0
40
0
40
0
40
1
40
1
40
1
10
-22.003580251358716
20
37.246593486996915
30
0
10
-22.222067655861739
20
37.280509998494807
30
0
10
-22.336635317131126
20
37.422388983071016
30
0
0
SPLINE
5
187
100
AcDbEntity
8
0
100
AcDbSpline
70
0
71
2
72
6
73
3
74
0
42
0.000000001
43
0.0000000001
44
0.0000000001
40
0
40
0
40
0
40
1
40
1
40
1
10
-22.336635317131126
20
37.422388983071016
30
0
10
-22.451203276391443
20
37.564267972034543
30
0
10
-22.44749781277655
20
37.815946342235243
30
0
0
SPLINE
5
188
100
AcDbEntity
8
0
100
AcDbSpline
70
0
71
2
72
6
73
3
74
0
42
0.000000001
43
0.0000000001
44
0.0000000001
40
0
40
0
40
0
40
1
40
1
40
1
10
-22.44749781277655
20
37.815946342235243
30
0
10
-22.443762234570031
20
38.069670122167899
30
0
10
-22.338623357896523
20
38.190918652252051
30
0
0
SPLINE
5
189
100
AcDbEntity
8
0
100
AcDbSpline
70
0
71
2
72
6
73
3
74
0
42
0.000000001
43
0.0000000001
44
0.0000000001
40
0
40
0
40
0
40
1
40
1
40
1
10
-22.338623357896523
20
38.190918652252051
30
0
10
-22.233484481223012
20
38.312167182336211
30
0
10
-22.094345365010071
20
38.310118635485971
30
0
0
SPLINE
5
190
100
AcDbEntity
8
0
100
AcDbSpline
70
0
71
2
72
6
73
3
74
0
42
0.000000001
43
0.0000000001
44
0.0000000001
40
0
40
0
40
0
40
1
40
1
40
1
10
-22.094345365010071
20
38.310118635485971
30
0
10
-21.969529480757561
20
38.308280969748949
30
0
10
-21.899510586969434
20
38.198779330397429
30
0
0
SPLINE
5
191
100
AcDbEntity
8
0
100
AcDbSpline
70
0
71
2
72
6
73
3
74
0
42
0.000000001
43
0.0000000001
44
0.0000000001
40
0
40
0
40
0
40
1
40
1
40
1
10
-21.899510586969434
20
38.198779330397429
30
0
10
-21.851517219479682
20
38.122348737323748
30
0
10
-21.780237823294154
20
37.820448006189054
30
0
0
SPLINE
5
192
100
AcDbEntity
8
0
100
AcDbSpline
70
0
71
2
72
6
73
3
74
0
42
0.000000001
43
0.0000000001
44
0.0000000001
40
0
40
0
40
0
40
1
40
1
40
1
10
-21.780237823294154
20
37.820448006189054
30
0
10
-21.683894374651903
20
37.41380159702544
30
0
10
-21.611514130444736
20
37.256169760080439
30
0
0
SPLINE
5
193
100
AcDbEntity
8
0
100
AcDbSpline
70
0
71
2
72
6
73
3
74
0
42
0.000000001
43
0.0000000001
44
0.0000000001
40
0
40
0
40
0
40
1
40
1
40
1
10
-21.611514130444736
20
37.256169760080439
30
0
10
-21.539133868688275
20
37.098539115099143
30
0
10
-21.408346316007819
20
37.015773717263983
30
0
0
SPLINE
5
194
100
AcDbEntity
8
0
100
AcDbSpline
70
0
71
2
72
6
73
3
74
0
42
0.000000001
43
0.0000000001
44
0.0000000001
40
0
40
0
40
0
40
1
40
1
40
1
10
-21.408346316007819
20
37.015773717263983
30
0
10
-21.277558500435028
20
36.933005931114067
30
0
10
-21.117957837129282
20
36.930656128664481
30
0
0
SPLINE
5
195
100
AcDbEntity
8
0
100
AcDbSpline
70
0
71
2
72
6
73
3
74
0
42
0.000000001
43
0.0000000001
44
0.0000000001
40
0
40
0
40
0
40
1
40
1
40
1
10
-21.117957837129282
20
36.930656128664481
30
0
10
-20.972680405783962
20
36.928517207328106
30
0
10
-20.847908133634423
20
36.993195446413559
30
0
0
SPLINE
5
196
100
AcDbEntity
8
0
100
AcDbSpline
70
0
71
2
72
6
73
3
74
0
42
0.000000001
43
0.0000000001
44
0.0000000001
40
0
40
0
40
0
40
1
40
1
40
1
10
-20.847908133634423
20
36.993195446413559
30
0
10
-20.723136457466737
20
37.057873694273667
30
0
10
-20.639602641757328
20
37.171253326821329
30
0
0
SPLINE
5
197
100
AcDbEntity
8
0
100
AcDbSpline
70
0
71
2
72
6
73
3
74
0
42
0.000000001
43
0.0000000001
44
0.0000000001
40
0
40
0
40
0
40
1
40
1
40
1
10
-20.639602641757328
20
37.171253326821329
30
0
10
-20.574906559090408
20
37.25625882622591
30
0
10
-20.528729894187293
20
37.40395815929471
30
0
0
SPLINE
5
198
100
AcDbEntity
8
0
100
AcDbSpline
70
0
71
2
72
6
73
3
74
0
42
0.000000001
43
0.0000000001
44
0.0000000001
40
0
40
0
40
0
40
1
40
1
40
1
10
-20.528729894187293
20
37.40395815929471
30
0
10
-20.482553246833469
20
37.551656300399799
30
0
10
-20.480052805615955
20
37.721488482229269
30
0
0
SPLINE
5
199
100
AcDbEntity
8
0
100
AcDbSpline
70
0
71
2
72
6
73
3
74
0
42
0.000000001
43
0.0000000001
44
0.0000000001
40
0
40
0
40
0
40
1
40
1
40
1
10
-20.480052805615955
20
37.721488482229269
30
0
10
-20.476287112817815
20
37.977257671893888
30
0
10
-20.547102098476575
20
38.171704933931878
30
0
0
SPLINE
5
200
100
AcDbEntity
8
0
100
AcDbSpline
70
0
71
2
72
6
73
3
74
0
42
0.000000001
43
0.0000000001
44
0.0000000001
40
0
40
0
40
0
40
1
40
1
40
1
10
-20.547102098476575
20
38.171704933931878
30
0
10
-20.617917233130804
20
38.366152198163526
30
0
10
-20.742400472236838
20
38.460081738505856
30
0
0
SPLINE
5
201
100
AcDbEntity
8
0
100
AcDbSpline
70
0
71
2
72
6
73
3
74
0
42
0.000000001
43
0.0000000001
44
0.0000000001
40
0
40
0
40
0
40
1
40
1
40
1
10
-20.742400472236838
20
38.460081738505856
30
0
10
-20.866883693793568
20
38.554012470811905
30
0
10
-21.077126530717855
20
38.591900495885014
30
0
0
LINE
5
202
100
AcDbEntity
8
0
100
AcDbLine
10
-21.077126530717859
20
38.591900495885014
30
0
11
-21.13153667537857
21
38.232497900949959
31
0
0
SPLINE
5
203
100
AcDbEntity
8
0
100
AcDbSpline
70
0
71
2
72
6
73
3
74
0
42
0.000000001
43
0.0000000001
44
0.0000000001
40
0
40
0
40
0
40
1
40
1
40
1
10
-21.13153667537857
20
38.232497900949966
30
0
10
-20.964112593189338
20
38.205474331343801
30
0
10
-20.871721416913857
20
38.086433388954376
30
0
0
SPLINE
5
204
100
AcDbEntity
8
0
100
AcDbSpline
70
0
71
2
72
6
73
3
74
0
42
0.000000001
43
0.0000000001
44
0.0000000001
40
0
40
0
40
0
40
1
40
1
40
1
10
-20.871721416913857
20
38.086433388954376
30
0
10
-20.77933022308908
20
37.967393638528669
30
0
10
-20.782493413463182
20
37.752546947067813
30
0
0
SPLINE
5
205
100
AcDbEntity
8
0
100
AcDbSpline
70
0
71
2
72
6
73
3
74
0
42
0.000000001
43
0.0000000001
44
0.0000000001
40
0
40
0
40
0
40
1
40
1
40
1
10
-20.782493413463182
20
37.752546947067813
30
0
10
-20.786228991669699
20
37.498823167135157
30
0
10
-20.871718451768757
20
37.391611079113353
30
0
0
SPLINE
5
206
100
AcDbEntity
8
0
100
AcDbSpline
70
0
71
2
72
6
73
3
74
0
42
0.000000001
43
0.0000000001
44
0.0000000001
40
0
40
0
40
0
40
1
40
1
40
1
10
-20.871718451768757
20
37.391611079113353
30
0
10
-20.957207613876886
20
37.28439898670424
30
0
10
-21.069746569873715
20
37.286055899081653
30
0
0
SPLINE
5
207
100
AcDbEntity
8
0
100
AcDbSpline
70
0
71
2
72
6
73
3
74
0
42
0.000000001
43
0.0000000001
44
0.0000000001
40
0
40
0
40
0
40
1
40
1
40
1
10
-21.069746569873715
20
37.286055899081653
30
0
10
-21.141362133693995
20
37.287110295873049
30
0
10
-21.197992294829831
20
37.33296952192098
30
0
0
SPLINE
5
208
100
AcDbEntity
8
0
100
AcDbSpline
70
0
71
2
72
6
73
3
74
0
42
0.000000001
43
0.0000000001
44
0.0000000001
40
0
40
0
40
0
40
1
40
1
40
1
10
-21.197992294829831
20
37.33296952192098
30
0
10
-21.256667865697626
20
37.378858862560534
30
0
10
-21.29412904188419
20
37.475601266706477
30
0
0
SPLINE
5
209
100
AcDbEntity
8
0
100
AcDbSpline
70
0
71
2
72
6
73
3
74
0
42
0.000000001
43
0.0000000001
44
0.0000000001
40
0
40
0
40
0
40
1
40
1
40
1
10
-21.29412904188419
20
37.475601266706477
30
0
10
-21.313777494656033
20
37.531148852839195
30
0
10
-21.383462779495073
20
37.802326394991084
30
0
0
SPLINE
5
210
100
AcDbEntity
8
0
100
AcDbSpline
70
0
71
2
72
6
73
3
74
0
42
0.000000001
43
0.0000000001
44
0.0000000001
40
0
40
0
40
0
40
1
40
1
40
1
10
-21.383462779495073
20
37.802326394991084
30
0
10
-21.482063106189699
20
38.194680291542397
30
0
10
-21.54628886370066
20
38.350145024551985
30
0
0
SPLINE
5
211
100
AcDbEntity
8
0
100
AcDbSpline
70
0
71
2
72
6
73
3
74
0
42
0.000000001
43
0.0000000001
44
0.0000000001
40
0
40
0
40
0
40
1
40
1
40
1
10
-21.54628886370066
20
38.350145024551985
30
0
10
-21.610514638760918
20
38.505608565597868
30
0
10
-21.736081407898034
20
38.595462352546733
30
0
0
SPLINE
5
212
100
AcDbEntity
8
0
100
AcDbSpline
70
0
71
2
72
6
73
3
74
0
42
0.000000001
43
0.0000000001
44
0.0000000001
40
0
40
0
40
0
40
1
40
1
40
1
10
-21.736081407898034
20
38.595462352546733
30
0
10
-21.861648194584447
20
38.685314947531893
30
0
10
-22.049895023820127
20
38.688086507820572
30
0
0
SPLINE
5
213
100
AcDbEntity
8
0
100
AcDbSpline
70
0
71
2
72
6
73
3
74
0
42
0.000000001
43
0.0000000001
44
0.0000000001
40
0
40
0
40
0
40
1
40
1
40
1
10
-22.049895023820127
20
38.688086507820572
30
0
10
-22.234049841628163
20
38.690797821376705
30
0
10
-22.398301406682613
20
38.585769467532593
30
0
0
SPLINE
5
214
100
AcDbEntity
8
0
100
AcDbSpline
70
0
71
2
72
6
73
3
74
0
42
0.000000001
43
0.0000000001
44
0.0000000001
40
0
40
0
40
0
40
1
40
1
40
1
10
-22.398301406682613
20
38.585769467532593
30
0
10
-22.56255298928636
20
38.480739921724769
30
0
10
-22.654543524255899
20
38.279480923851857
30
0
0
SPLINE
5
215
100
AcDbEntity
8
0
100
AcDbSpline
70
0
71
2
72
6
73
3
74
0
42
0.000000001
43
0.0000000001
44
0.0000000001
40
0
40
0
40
0
40
1
40
1
40
1
10
-22.654543524255899
20
38.279480923851857
30
0
10
-22.746534059225439
20
38.078221925978937
30
0
10
-22.75029978712217
20
37.822450352386895
30
0
0
SPLINE
5
216
100
AcDbEntity
8
0
100
AcDbSpline
70
0
71
2
72
6
73
3
74
0
42
0.000000001
43
0.0000000001
44
0.0000000001
40
0
40
0
40
0
40
1
40
1
40
1
10
-22.75029978712217
20
37.822450352386895
30
0
10
-22.75653578899691
20
37.398895582588487
30
0
10
-22.583834234118669
20
37.174295569858231
30
0
0
SPLINE
5
217
100
AcDbEntity
8
0
100
AcDbSpline
70
0
71
2
72
6
73
3
74
0
42
0.000000001
43
0.0000000001
44
0.0000000001
40
0
40
0
40
0
40
1
40
1
40
1
10
-22.583834234118669
20
37.174295569858231
30
0
10
-22.41113297723135
20
36.949695561515306
30
0
10
-22.066235244039806
20
36.883220574837679
30
0
0
LWPOLYLINE
5
218
100
AcDbEntity
8
0
100
AcDbPolyline
90
4
70
1
43
0.0
10
-19.682145947246358
20
39.093245478733735
10
-20.105701611017555
20
39.099481493770583
10
-20.100278983905415
20
39.467791129386669
10
-19.676723320134219
20
39.461555114349814
0
LWPOLYLINE
5
219
100
AcDbEntity
8
0
100
AcDbPolyline
90
4
70
1
43
0.0
10
-20.508795876691408
20
39.105416255401749
10
-22.681820968679823
20
39.137409729478904
10
-22.67639834156768
20
39.50571936509499
10
-20.503373249579269
20
39.473725891017828
0
LINE
5
220
100
AcDbEntity
8
0
100
AcDbLine
10
-22.668143907434381
20
40.06636784137438
30
0
11
-20.495118815445966
21
40.034374367297225
31
0
0
LINE
5
221
100
AcDbEntity
8
0
100
AcDbLine
10
-20.495118815445966
20
40.034374367297225
30
0
11
-20.49023846157462
21
40.365852324173474
31
0
0
LINE
5
222
100
AcDbEntity
8
0
100
AcDbLine
10
-20.49023846157462
20
40.365852324173474
30
0
11
-20.7992090146397
21
40.370401301272985
31
0
0
SPLINE
5
223
100
AcDbEntity
8
0
100
AcDbSpline
70
0
71
2
72
6
73
3
74
0
42
0.000000001
43
0.0000000001
44
0.0000000001
40
0
40
0
40
0
40
1
40
1
40
1
10
-20.799209014639708
20
40.370401301272977
30
0
10
-20.437605893688456
20
40.604530452495453
30
0
10
-20.43094809448872
20
41.056734070142156
30
0
0
SPLINE
5
224
100
AcDbEntity
8
0
100
AcDbSpline
70
0
71
2
72
6
73
3
74
0
42
0.000000001
43
0.0000000001
44
0.0000000001
40
0
40
0
40
0
40
1
40
1
40
1
10
-20.43094809448872
20
41.056734070142156
30
0
10
-20.428056040735015
20
41.25316492223309
30
0
10
-20.496223499607822
20
41.418919338949785
30
0
0
SPLINE
5
225
100
AcDbEntity
8
0
100
AcDbSpline
70
0
71
2
72
6
73
3
74
0
42
0.000000001
43
0.0000000001
44
0.0000000001
40
0
40
0
40
0
40
1
40
1
40
1
10
-20.496223499607822
20
41.418919338949785
30
0
10
-20.564390958480637
20
41.584673755666458
30
0
10
-20.677771143136944
20
41.668210560059848
30
0
0
SPLINE
5
226
100
AcDbEntity
8
0
100
AcDbSpline
70
0
71
2
72
6
73
3
74
0
42
0.000000001
43
0.0000000001
44
0.0000000001
40
0
40
0
40
0
40
1
40
1
40
1
10
-20.677771143136944
20
41.668210560059848
30
0
10
-20.791151397990433
20
41.751742596598369
30
0
10
-20.948223748632486
20
41.786800746642854
30
0
0
SPLINE
5
227
100
AcDbEntity
8
0
100
AcDbSpline
70
0
71
2
72
6
73
3
74
0
42
0.000000001
43
0.0000000001
44
0.0000000001
40
0
40
0
40
0
40
1
40
1
40
1
10
-20.948223748632486
20
41.786800746642854
30
0
10
-21.050230530875425
20
41.808768278128809
30
0
10
-21.306000912503755
20
41.812533988476339
30
0
0
LINE
5
228
100
AcDbEntity
8
0
100
AcDbLine
10
-21.306000912503752
20
41.812533988476346
30
0
11
-22.642145450496184
21
41.832206060279461
31
0
0
LINE
5
229
100
AcDbEntity
8
0
100
AcDbLine
10
-22.642145450496184
20
41.832206060279461
30
0
11
-22.647568042509725
21
41.463898808590812
31
0
0
LINE
5
230
100
AcDbEntity
8
0
100
AcDbLine
10
-22.647568042509725
20
41.463898808590812
30
0
11
-21.325746736477733
21
41.444437617900888
31
0
0
SPLINE
5
231
100
AcDbEntity
8
0
100
AcDbSpline
70
0
71
2
72
6
73
3
74
0
42
0.000000001
43
0.0000000001
44
0.0000000001
40
0
40
0
40
0
40
1
40
1
40
1
10
-21.325746736477733
20
41.444437617900888
30
0
10
-21.100668824484075
20
41.441123793146055
30
0
10
-20.98978555855701
20
41.396509266661205
30
0
0
SPLINE
5
232
100
AcDbEntity
8
0
100
AcDbSpline
70
0
71
2
72
6
73
3
74
0
42
0.000000001
43
0.0000000001
44
0.0000000001
40
0
40
0
40
0
40
1
40
1
40
1
10
-20.98978555855701
20
41.396509266661205
30
0
10
-20.87890222243275
20
41.351899508031202
30
0
10
-20.814013698215909
20
41.241450476616713
30
0
0
SPLINE
5
233
100
AcDbEntity
8
0
100
AcDbSpline
70
0
71
2
72
6
73
3
74
0
42
0.000000001
43
0.0000000001
44
0.0000000001
40
0
40
0
40
0
40
1
40
1
40
1
10
-20.814013698215909
20
41.241450476616713
30
0
10
-20.749125173999062
20
41.13100144520223
30
0
10
-20.751294196765045
20
40.983679498097736
30
0
0
SPLINE
5
234
100
AcDbEntity
8
0
100
AcDbSpline
70
0
71
2
72
6
73
3
74
0
42
0.000000001
43
0.0000000001
44
0.0000000001
40
0
40
0
40
0
40
1
40
1
40
1
10
-20.751294196765045
20
40.983679498097736
30
0
10
-20.754758673449757
20
40.748369173607571
30
0
10
-20.906643895177666
20
40.579714651332083
30
0
0
SPLINE
5
235
100
AcDbEntity
8
0
100
AcDbSpline
70
0
71
2
72
6
73
3
74
0
42
0.000000001
43
0.0000000001
44
0.0000000001
40
0
40
0
40
0
40
1
40
1
40
1
10
-20.906643895177666
20
40.579714651332083
30
0
10
-21.058529432445802
20
40.411058941480206
30
0
10
-21.47594678108462
20
40.417204582030912
30
0
0
LINE
5
236
100
AcDbEntity
8
0
100
AcDbLine
10
-21.47594678108462
20
40.417204582030912
30
0
11
-22.662721280322238
21
40.434677476990466
31
0
0
LINE
5
237
100
AcDbEntity
8
0
100
AcDbLine
10
-22.662721280322238
20
40.434677476990466
30
0
11
-22.668143907434381
21
40.06636784137438
31
0
0
LINE
5
238
100
AcDbEntity
8
0
100
AcDbLine
10
-22.81488737543075
20
42.332077633921237
30
0
11
-22.862815449013802
21
42.690936333653553
31
0
0
SPLINE
5
239
100
AcDbEntity
8
0
100
AcDbSpline
70
0
71
2
72
6
73
3
74
0
42
0.000000001
43
0.0000000001
44
0.0000000001
40
0
40
0
40
0
40
1
40
1
40
1
10
-22.862815449013798
20
42.690936333653553
30
0
10
-23.028223324540615
20
42.715885557737877
30
0
10
-23.102425204611698
20
42.81930883947328
30
0
0
SPLINE
5
240
100
AcDbEntity
8
0
100
AcDbSpline
70
0
71
2
72
6
73
3
74
0
42
0.000000001
43
0.0000000001
44
0.0000000001
40
0
40
0
40
0
40
1
40
1
40
1
10
-23.102425204611698
20
42.81930883947328
30
0
10
-23.20271482335739
20
42.957907636374628
30
0
10
-23.199220232081053
20
43.195263370596749
30
0
0
SPLINE
5
241
100
AcDbEntity
8
0
100
AcDbSpline
70
0
71
2
72
6
73
3
74
0
42
0.000000001
43
0.0000000001
44
0.0000000001
40
0
40
0
40
0
40
1
40
1
40
1
10
-23.199220232081053
20
43.195263370596749
30
0
10
-23.195454504184315
20
43.451034944188791
30
0
10
-23.091097976527056
20
43.588664202126509
30
0
0
SPLINE
5
242
100
AcDbEntity
8
0
100
AcDbSpline
70
0
71
2
72
6
73
3
74
0
42
0.000000001
43
0.0000000001
44
0.0000000001
40
0
40
0
40
0
40
1
40
1
40
1
10
-23.091097976527056
20
43.588664202126509
30
0
10
-22.986741080681682
20
43.726298223531764
30
0
10
-22.801863529876847
20
43.772695819349401
30
0
0
SPLINE
5
243
100
AcDbEntity
8
0
100
AcDbSpline
70
0
71
2
72
6
73
3
74
0
42
0.000000001
43
0.0000000001
44
0.0000000001
40
0
40
0
40
0
40
1
40
1
40
1
10
-22.801863529876847
20
43.772695819349401
30
0
10
-22.68890253121198
20
43.799684174541802
30
0
10
-22.328808225006505
20
43.792336648711974
30
0
0
SPLINE
5
244
100
AcDbEntity
8
0
100
AcDbSpline
70
0
71
2
72
6
73
3
74
0
42
0.000000001
43
0.0000000001
44
0.0000000001
40
0
40
0
40
0
40
1
40
1
40
1
10
-22.328808225006505
20
43.792336648711974
30
0
10
-22.616779628122934
20
43.555075179285119
30
0
10
-22.622081726671396
20
43.194951950451717
30
0
0
SPLINE
5
245
100
AcDbEntity
8
0
100
AcDbSpline
70
0
71
2
72
6
73
3
74
0
42
0.000000001
43
0.0000000001
44
0.0000000001
40
0
40
0
40
0
40
1
40
1
40
1
10
-22.622081726671396
20
43.194951950451717
30
0
10
-22.628679244039994
20
42.74684272816009
30
0
10
-22.309000692751368
20
42.496543115063652
30
0
0
SPLINE
5
246
100
AcDbEntity
8
0
100
AcDbSpline
70
0
71
2
72
6
73
3
74
0
42
0.000000001
43
0.0000000001
44
0.0000000001
40
0
40
0
40
0
40
1
40
1
40
1
10
-22.309000692751368
20
42.496543115063652
30
0
10
-21.989321843471817
20
42.246243497579883
30
0
10
-21.537120013770693
20
42.239585724703943
30
0
0
SPLINE
5
247
100
AcDbEntity
8
0
100
AcDbSpline
70
0
71
2
72
6
73
3
74
0
42
0.000000001
43
0.0000000001
44
0.0000000001
40
0
40
0
40
0
40
1
40
1
40
1
10
-21.537120013770693
20
42.239585724703943
30
0
10
-21.226103305996318
20
42.235006622044509
30
0
10
-20.961514076082853
20
42.343675912704541
30
0
0
SPLINE
5
248
100
AcDbEntity
8
0
100
AcDbSpline
70
0
71
2
72
6
73
3
74
0
42
0.000000001
43
0.0000000001
44
0.0000000001
40
0
40
0
40
0
40
1
40
1
40
1
10
-20.961514076082853
20
42.343675912704541
30
0
10
-20.696925477249831
20
42.452342828211769
30
0
10
-20.550545620549112
20
42.664058012449217
30
0
0
SPLINE
5
249
100
AcDbEntity
8
0
100
AcDbSpline
70
0
71
2
72
6
73
3
74
0
42
0.000000001
43
0.0000000001
44
0.0000000001
40
0
40
0
40
0
40
1
40
1
40
1
10
-20.550545620549112
20
42.664058012449217
30
0
10
-20.404166210834784
20
42.875773203267649
30
0
10
-20.399918473979103
20
43.164283252208186
30
0
0
SPLINE
5
250
100
AcDbEntity
8
0
100
AcDbSpline
70
0
71
2
72
6
73
3
74
0
42
0.000000001
43
0.0000000001
44
0.0000000001
40
0
40
0
40
0
40
1
40
1
40
1
10
-20.399918473979103
20
43.164283252208186
30
0
10
-20.394254895035374
20
43.548958549607377
30
0
10
-20.701596367683347
20
43.803172998856638
30
0
0
LINE
5
251
100
AcDbEntity
8
0
100
AcDbLine
10
-20.701596367683347
20
43.803172998856638
30
0
11
-20.43968752192718
21
43.799316911829308
31
0
0
LINE
5
252
100
AcDbEntity
8
0
100
AcDbLine
10
-20.43968752192718
20
43.799316911829308
30
0
11
-20.434686674590736
21
44.138978891560818
31
0
0
LINE
5
253
100
AcDbEntity
8
0
100
AcDbLine
10
-20.434686674590736
20
44.138978891560818
30
0
11
-22.313064296479027
21
44.166634267458029
31
0
0
SPLINE
5
254
100
AcDbEntity
8
0
100
AcDbSpline
70
0
71
2
72
6
73
3
74
0
42
0.000000001
43
0.0000000001
44
0.0000000001
40
0
40
0
40
0
40
1
40
1
40
1
10
-22.31306429647903
20
44.166634267458029
30
0
10
-22.820512750317121
20
44.174105437033198
30
0
10
-23.033812079652691
20
44.073892112442493
30
0
0
SPLINE
5
255
100
AcDbEntity
8
0
100
AcDbSpline
70
0
71
2
72
6
73
3
74
0
42
0.000000001
43
0.0000000001
44
0.0000000001
40
0
40
0
40
0
40
1
40
1
40
1
10
-23.033812079652691
20
44.073892112442493
30
0
10
-23.247111408988257
20
43.973678787851789
30
0
10
-23.373179467778691
20
43.751430518338353
30
0
0
SPLINE
5
256
100
AcDbEntity
8
0
100
AcDbSpline
70
0
71
2
72
6
73
3
74
0
42
0.000000001
43
0.0000000001
44
0.0000000001
40
0
40
0
40
0
40
1
40
1
40
1
10
-23.373179467778691
20
43.751430518338353
30
0
10
-23.499248122550981
20
43.529182257599572
30
0
10
-23.504068212140492
20
43.20179750411468
30
0
0
SPLINE
5
257
100
AcDbEntity
8
0
100
AcDbSpline
70
0
71
2
72
6
73
3
74
0
42
0.000000001
43
0.0000000001
44
0.0000000001
40
0
40
0
40
0
40
1
40
1
40
1
10
-23.504068212140492
20
43.20179750411468
30
0
10
-23.50979209046465
20
42.813026619396709
30
0
10
-23.338369898209528
20
42.571049730196705
30
0
0
SPLINE
5
258
100
AcDbEntity
8
0
100
AcDbSpline
70
0
71
2
72
6
73
3
74
0
42
0.000000001
43
0.0000000001
44
0.0000000001
40
0
40
0
40
0
40
1
40
1
40
1
10
-23.338369898209528
20
42.571049730196705
30
0
10
-23.166947705954406
20
42.32907284099668
30
0
10
-22.81488737543075
20
42.332077633921237
30
0
0
SPLINE
5
259
100
AcDbEntity
8
0
100
AcDbSpline
70
0
71
2
72
6
73
3
74
0
42
0.000000001
43
0.0000000001
44
0.0000000001
40
0
40
0
40
0
40
1
40
1
40
1
10
-21.504946320394794
20
42.617733154047116
30
0
10
-21.93259459157548
20
42.624029424591171
30
0
10
-22.126525913970987
20
42.796752481372664
30
0
0
SPLINE
5
260
100
AcDbEntity
8
0
100
AcDbSpline
70
0
71
2
72
6
73
3
74
0
42
0.000000001
43
0.0000000001
44
0.0000000001
40
0
40
0
40
0
40
1
40
1
40
1
10
-22.126525913970987
20
42.796752481372664
30
0
10
-22.32045690327697
20
42.969477917694263
30
0
10
-22.31669121047883
20
43.225247107358875
30
0
0
SPLINE
5
261
100
AcDbEntity
8
0
100
AcDbSpline
70
0
71
2
72
6
73
3
74
0
42
0.000000001
43
0.0000000001
44
0.0000000001
40
0
40
0
40
0
40
1
40
1
40
1
10
-22.31669121047883
20
43.225247107358875
30
0
10
-22.312955597173723
20
43.478973271218962
30
0
10
-22.115016613697986
20
43.647972669971402
30
0
0
SPLINE
5
262
100
AcDbEntity
8
0
100
AcDbSpline
70
0
71
2
72
6
73
3
74
0
42
0.000000001
43
0.0000000001
44
0.0000000001
40
0
40
0
40
0
40
1
40
1
40
1
10
-22.115016613697986
20
43.647972669971402
30
0
10
-21.917077630222256
20
43.816972068723828
30
0
10
-21.499660281583438
20
43.810826428173122
30
0
0
SPLINE
5
263
100
AcDbEntity
8
0
100
AcDbSpline
70
0
71
2
72
6
73
3
74
0
42
0.000000001
43
0.0000000001
44
0.0000000001
40
0
40
0
40
0
40
1
40
1
40
1
10
-21.499660281583438
20
43.810826428173122
30
0
10
-21.100658474323609
20
43.80495191985549
30
0
10
-20.900693974974072
20
43.624977166211245
30
0
0
SPLINE
5
264
100
AcDbEntity
8
0
100
AcDbSpline
70
0
71
2
72
6
73
3
74
0
42
0.000000001
43
0.0000000001
44
0.0000000001
40
0
40
0
40
0
40
1
40
1
40
1
10
-20.900693974974072
20
43.624977166211245
30
0
10
-20.700729773615471
20
43.44500241695431
30
0
10
-20.704405087540145
20
43.195371840413003
30
0
0
SPLINE
5
265
100
AcDbEntity
8
0
100
AcDbSpline
70
0
71
2
72
6
73
3
74
0
42
0.000000001
43
0.0000000001
44
0.0000000001
40
0
40
0
40
0
40
1
40
1
40
1
10
-20.704405087540145
20
43.195371840413003
30
0
10
-20.708020172281572
20
42.949832083335608
30
0
10
-20.910051500274456
20
42.780890551775613
30
0
0
SPLINE
5
266
100
AcDbEntity
8
0
100
AcDbSpline
70
0
71
2
72
6
73
3
74
0
42
0.000000001
43
0.0000000001
44
0.0000000001
40
0
40
0
40
0
40
1
40
1
40
1
10
-20.910051500274456
20
42.780890551775613
30
0
10
-21.112083424249199
20
42.611949028990281
30
0
10
-21.504946320394794
20
42.617733154047116
30
0
0
LINE
5
267
100
AcDbEntity
8
0
100
AcDbLine
10
-22.582436358177969
20
45.887700487592895
30
0
11
-20.409411266189554
21
45.85570701351574
31
0
0
LINE
5
268
100
AcDbEntity
8
0
100
AcDbLine
10
-20.409411266189554
20
45.85570701351574
30
0
11
-20.40453087721961
21
46.187187354319413
31
0
0
LINE
5
269
100
AcDbEntity
8
0
100
AcDbLine
10
-20.40453087721961
20
46.187187354319413
30
0
11
-20.733963275368431
21
46.192037591405594
31
0
0
SPLINE
5
270
100
AcDbEntity
8
0
100
AcDbSpline
70
0
71
2
72
6
73
3
74
0
42
0.000000001
43
0.0000000001
44
0.0000000001
40
0
40
0
40
0
40
1
40
1
40
1
10
-20.733963275368431
20
46.192037591405594
30
0
10
-20.50087894359892
20
46.315496469707327
30
0
10
-20.425635498436133
20
46.421834098929068
30
0
0
SPLINE
5
271
100
AcDbEntity
8
0
100
AcDbSpline
70
0
71
2
72
6
73
3
74
0
42
0.000000001
43
0.0000000001
44
0.0000000001
40
0
40
0
40
0
40
1
40
1
40
1
10
-20.425635498436133
20
46.421834098929068
30
0
10
-20.35039205327335
20
46.528171728150781
30
0
10
-20.348494132029167
20
46.657080219812798
30
0
0
SPLINE
5
272
100
AcDbEntity
8
0
100
AcDbSpline
70
0
71
2
72
6
73
3
74
0
42
0.000000001
43
0.0000000001
44
0.0000000001
40
0
40
0
40
0
40
1
40
1
40
1
10
-20.348494132029167
20
46.657080219812798
30
0
10
-20.345752686332176
20
46.843281639316501
30
0
10
-20.461598132890927
20
47.037368958807093
30
0
0
LINE
5
273
100
AcDbEntity
8
0
100
AcDbLine
10
-20.461598132890927
20
47.037368958807093
30
0
11
-20.805175116952523
21
46.915536865129177
31
0
0
SPLINE
5
274
100
AcDbEntity
8
0
100
AcDbSpline
70
0
71
2
72
6
73
3
74
0
42
0.000000001
43
0.0000000001
44
0.0000000001
40
0
40
0
40
0
40
1
40
1
40
1
10
-20.805175116952523
20
46.91553686512917
30
0
10
-20.72736323441276
20
46.779314861312727
30
0
10
-20.729351499431811
20
46.64427014045485
30
0
0
SPLINE
5
275
100
AcDbEntity
8
0
100
AcDbSpline
70
0
71
2
72
6
73
3
74
0
42
0.000000001
43
0.0000000001
44
0.0000000001
40
0
40
0
40
0
40
1
40
1
40
1
10
-20.729351499431811
20
46.64427014045485
30
0
10
-20.7311289272109
20
46.523545671648122
30
0
10
-20.80518370416425
20
46.42844511819645
30
0
0
SPLINE
5
276
100
AcDbEntity
8
0
100
AcDbSpline
70
0
71
2
72
6
73
3
74
0
42
0.000000001
43
0.0000000001
44
0.0000000001
40
0
40
0
40
0
40
1
40
1
40
1
10
-20.80518370416425
20
46.42844511819645
30
0
10
-20.879238481117603
20
46.333344564744792
30
0
10
-21.008748879221784
20
46.294319979010616
30
0
0
SPLINE
5
277
100
AcDbEntity
8
0
100
AcDbSpline
70
0
71
2
72
6
73
3
74
0
42
0.000000001
43
0.0000000001
44
0.0000000001
40
0
40
0
40
0
40
1
40
1
40
1
10
-21.008748879221784
20
46.294319979010616
30
0
10
-21.2060846769125
20
46.235828303008049
30
0
10
-21.439347207743282
20
46.239262630002628
30
0
0
LINE
5
278
100
AcDbEntity
8
0
100
AcDbLine
10
-21.439347207743282
20
46.239262630002628
30
0
11
-22.577013695967235
21
46.256012507136404
31
0
0
LINE
5
279
100
AcDbEntity
8
0
100
AcDbLine
10
-22.577013695967235
20
46.256012507136404
30
0
11
-22.582436358177969
21
45.887700487592895
31
0
0
LINE
5
280
100
AcDbEntity
8
0
100
AcDbLine
10
-21.840141124940608
20
48.764533865649433
30
0
11
-21.881599780479974
21
49.145811238044203
31
0
0
SPLINE
5
281
100
AcDbEntity
8
0
100
AcDbSpline
70
0
71
2
72
6
73
3
74
0
42
0.000000001
43
0.0000000001
44
0.0000000001
40
0
40
0
40
0
40
1
40
1
40
1
10
-21.881599780479974
20
49.145811238044189
30
0
10
-22.216449837365065
20
49.060692704793794
30
0
10
-22.40418929223339
20
48.819912050544602
30
0
0
SPLINE
5
282
100
AcDbEntity
8
0
100
AcDbSpline
70
0
71
2
72
6
73
3
74
0
42
0.000000001
43
0.0000000001
44
0.0000000001
40
0
40
0
40
0
40
1
40
1
40
1
10
-22.40418929223339
20
48.819912050544602
30
0
10
-22.591929080191235
20
48.579129016755296
30
0
10
-22.597502315360089
20
48.200589948551986
30
0
0
SPLINE
5
283
100
AcDbEntity
8
0
100
AcDbSpline
70
0
71
2
72
6
73
3
74
0
42
0.000000001
43
0.0000000001
44
0.0000000001
40
0
40
0
40
0
40
1
40
1
40
1
10
-22.597502315360089
20
48.200589948551986
30
0
10
-22.604521612504392
20
47.723833070375782
30
0
10
-22.315009296257365
20
47.440209096587097
30
0
0
SPLINE
5
284
100
AcDbEntity
8
0
100
AcDbSpline
70
0
71
2
72
6
73
3
74
0
42
0.000000001
43
0.0000000001
44
0.0000000001
40
0
40
0
40
0
40
1
40
1
40
1
10
-22.315009296257365
20
47.440209096587097
30
0
10
-22.025496980010342
20
47.156585122798433
30
0
10
-21.495540973365621
20
47.148782574257631
30
0
0
SPLINE
5
285
100
AcDbEntity
8
0
100
AcDbSpline
70
0
71
2
72
6
73
3
74
0
42
0.000000001
43
0.0000000001
44
0.0000000001
40
0
40
0
40
0
40
1
40
1
40
1
10
-21.495540973365621
20
47.148782574257631
30
0
10
-20.947169127350985
20
47.140708889096423
30
0
10
-20.64017971553011
20
47.418619340566522
30
0
0
SPLINE
5
286
100
AcDbEntity
8
0
100
AcDbSpline
70
0
71
2
72
6
73
3
74
0
42
0.000000001
43
0.0000000001
44
0.0000000001
40
0
40
0
40
0
40
1
40
1
40
1
10
-20.64017971553011
20
47.418619340566522
30
0
10
-20.333190154713776
20
47.69652978984297
30
0
10
-20.326562487654961
20
48.146686805794005
30
0
0
SPLINE
5
287
100
AcDbEntity
8
0
100
AcDbSpline
70
0
71
2
72
6
73
3
74
0
42
0.000000001
43
0.0000000001
44
0.0000000001
40
0
40
0
40
0
40
1
40
1
40
1
10
-20.326562487654961
20
48.146686805794005
30
0
10
-20.320145692934698
20
48.582521185766453
30
0
10
-20.612772373733943
20
48.863119848272838
30
0
0
SPLINE
5
288
100
AcDbEntity
8
0
100
AcDbSpline
70
0
71
2
72
6
73
3
74
0
42
0.000000001
43
0.0000000001
44
0.0000000001
40
0
40
0
40
0
40
1
40
1
40
1
10
-20.612772373733943
20
48.863119848272838
30
0
10
-20.905398905537723
20
49.14371850858555
30
0
10
-21.443540127001416
20
49.151641568140747
30
0
0
SPLINE
5
289
100
AcDbEntity
8
0
100
AcDbSpline
70
0
71
2
72
6
73
3
74
0
42
0.000000001
43
0.0000000001
44
0.0000000001
40
0
40
0
40
0
40
1
40
1
40
1
10
-21.443540127001416
20
49.151641568140747
30
0
10
-21.476278602349907
20
49.152123577099701
30
0
10
-21.541785965629437
20
49.151042189672992
30
0
0
LINE
5
290
100
AcDbEntity
8
0
100
AcDbLine
10
-21.541785965629444
20
49.151042189672992
30
0
11
-21.565645496843988
21
47.530481700104154
31
0
0
SPLINE
5
291
100
AcDbEntity
8
0
100
AcDbSpline
70
0
71
2
72
6
73
3
74
0
42
0.000000001
43
0.0000000001
44
0.0000000001
40
0
40
0
40
0
40
1
40
1
40
1
10
-21.565645496843988
20
47.530481700104161
30
0
10
-21.923422923607593
20
47.556217330252395
30
0
10
-22.111034577141933
20
47.741127230019714
30
0
0
SPLINE
5
292
100
AcDbEntity
8
0
100
AcDbSpline
70
0
71
2
72
6
73
3
74
0
42
0.000000001
43
0.0000000001
44
0.0000000001
40
0
40
0
40
0
40
1
40
1
40
1
10
-22.111034577141933
20
47.741127230019714
30
0
10
-22.298646826658132
20
47.926037138561682
30
0
10
-22.294640111831221
20
48.198176757864253
30
0
0
SPLINE
5
293
100
AcDbEntity
8
0
100
AcDbSpline
70
0
71
2
72
6
73
3
74
0
42
0.000000001
43
0.0000000001
44
0.0000000001
40
0
40
0
40
0
40
1
40
1
40
1
10
-22.294640111831221
20
48.198176757864253
30
0
10
-22.291657679204047
20
48.400746223078514
30
0
10
-22.183148244756865
20
48.542410812827804
30
0
0
SPLINE
5
294
100
AcDbEntity
8
0
100
AcDbSpline
70
0
71
2
72
6
73
3
74
0
42
0.000000001
43
0.0000000001
44
0.0000000001
40
0
40
0
40
0
40
1
40
1
40
1
10
-22.183148244756865
20
48.542410812827804
30
0
10
-22.074639108300609
20
48.684075406964425
30
0
10
-21.840141124940608
20
48.764533865649433
30
0
0
LINE
5
295
100
AcDbEntity
8
0
100
AcDbLine
10
-21.262511823605202
20
47.546486728326443
30
0
11
-21.244647342433804
21
48.759858109879971
31
0
0
SPLINE
5
296
100
AcDbEntity
8
0
100
AcDbSpline
70
0
71
2
72
6
73
3
74
0
42
0.000000001
43
0.0000000001
44
0.0000000001
40
0
40
0
40
0
40
1
40
1
40
1
10
-21.244647342433804
20
48.759858109879971
30
0
10
-20.970823197812685
20
48.731269203120895
30
0
10
-20.835417101120591
20
48.614667307880936
30
0
0
SPLINE
5
297
100
AcDbEntity
8
0
100
AcDbSpline
70
0
71
2
72
6
73
3
74
0
42
0.000000001
43
0.0000000001
44
0.0000000001
40
0
40
0
40
0
40
1
40
1
40
1
10
-20.835417101120591
20
48.614667307880936
30
0
10
-20.625207253013826
20
48.435562253956533
30
0
10
-20.629334461305827
20
48.155238611798694
30
0
0
SPLINE
5
298
100
AcDbEntity
8
0
100
AcDbSpline
70
0
71
2
72
6
73
3
74
0
42
0.000000001
43
0.0000000001
44
0.0000000001
40
0
40
0
40
0
40
1
40
1
40
1
10
-20.629334461305827
20
48.155238611798694
30
0
10
-20.633070039512347
20
47.901514831866045
30
0
10
-20.805447256014208
20
47.731113775917848
30
0
0
SPLINE
5
299
100
AcDbEntity
8
0
100
AcDbSpline
70
0
71
2
72
6
73
3
74
0
42
0.000000001
43
0.0000000001
44
0.0000000001
40
0
40
0
40
0
40
1
40
1
40
1
10
-20.805447256014208
20
47.731113775917848
30
0
10
-20.977824472516069
20
47.560712719969644
30
0
10
-21.262511823605202
20
47.546486728326443
30
0
0
SPLINE
5
300
100
AcDbEntity
8
0
100
AcDbSpline
70
0
71
2
72
6
73
3
74
0
42
0.000000001
43
0.0000000001
44
0.0000000001
40
0
40
0
40
0
40
1
40
1
40
1
10
-22.23859286748484
20
51.031897747873401
30
0
10
-22.415529274871222
20
50.829845940417428
30
0
10
-22.489931526473118
20
50.641626035252301
30
0
0
SPLINE
5
301
100
AcDbEntity
8
0
100
AcDbSpline
70
0
71
2
72
6
73
3
74
0
42
0.000000001
43
0.0000000001
44
0.0000000001
40
0
40
0
40
0
40
1
40
1
40
1
10
-22.489931526473118
20
50.641626035252301
30
0
10
-22.564334005868758
20
50.453410902329367
30
0
10
-22.567527275735895
20
50.236521185063971
30
0
0
SPLINE
5
302
100
AcDbEntity
8
0
100
AcDbSpline
70
0
71
2
72
6
73
3
74
0
42
0.000000001
43
0.0000000001
44
0.0000000001
40
0
40
0
40
0
40
1
40
1
40
1
10
-22.567527275735895
20
50.236521185063971
30
0
10
-22.572799294791324
20
49.878440982035109
30
0
10
-22.400684221238695
20
49.683525204162166
30
0
0
SPLINE
5
303
100
AcDbEntity
8
0
100
AcDbSpline
70
0
71
2
72
6
73
3
74
0
42
0.000000001
43
0.0000000001
44
0.0000000001
40
0
40
0
40
0
40
1
40
1
40
1
10
-22.400684221238695
20
49.683525204162166
30
0
10
-22.228568849695137
20
49.488609421901884
30
0
10
-21.956429230392569
20
49.48460270707487
30
0
0
SPLINE
5
304
100
AcDbEntity
8
0
100
AcDbSpline
70
0
71
2
72
6
73
3
74
0
42
0.000000001
43
0.0000000001
44
0.0000000001
40
0
40
0
40
0
40
1
40
1
40
1
10
-21.956429230392569
20
49.48460270707487
30
0
10
-21.796828567086823
20
49.482252904625298
30
0
10
-21.663781612766915
20
49.552948067017923
30
0
0
SPLINE
5
305
100
AcDbEntity
8
0
100
AcDbSpline
70
0
71
2
72
6
73
3
74
0
42
0.000000001
43
0.0000000001
44
0.0000000001
40
0
40
0
40
0
40
1
40
1
40
1
10
-21.663781612766915
20
49.552948067017923
30
0
10
-21.530734658447017
20
49.623643229410561
30
0
10
-21.449202219897948
20
49.740124684588224
30
0
0
SPLINE
5
306
100
AcDbEntity
8
0
100
AcDbSpline
70
0
71
2
72
6
73
3
74
0
42
0.000000001
43
0.0000000001
44
0.0000000001
40
0
40
0
40
0
40
1
40
1
40
1
10
-21.449202219897948
20
49.740124684588224
30
0
10
-21.367669483357965
20
49.856606135378563
30
0
10
-21.32457706841544
20
50.003325566897026
30
0
0
SPLINE
5
307
100
AcDbEntity
8
0
100
AcDbSpline
70
0
71
2
72
6
73
3
74
0
42
0.000000001
43
0.0000000001
44
0.0000000001
40
0
40
0
40
0
40
1
40
1
40
1
10
-21.32457706841544
20
50.003325566897026
30
0
10
-21.294334267551939
20
50.111348667690635
30
0
10
-21.264510652679888
20
50.329896928070013
30
0
0
SPLINE
5
308
100
AcDbEntity
8
0
100
AcDbSpline
70
0
71
2
72
6
73
3
74
0
42
0.000000001
43
0.0000000001
44
0.0000000001
40
0
40
0
40
0
40
1
40
1
40
1
10
-21.264510652679888
20
50.329896928070013
30
0
10
-21.204742894372099
20
50.775179855611498
30
0
10
-21.127978100754806
20
50.984848819136005
30
0
0
SPLINE
5
309
100
AcDbEntity
8
0
100
AcDbSpline
70
0
71
2
72
6
73
3
74
0
42
0.000000001
43
0.0000000001
44
0.0000000001
40
0
40
0
40
0
40
1
40
1
40
1
10
-21.127978100754806
20
50.984848819136005
30
0
10
-21.052240112924334
20
50.985779580956709
30
0
10
-21.0317782678406
20
50.985478320970039
30
0
0
SPLINE
5
310
100
AcDbEntity
8
0
100
AcDbSpline
70
0
71
2
72
6
73
3
74
0
42
0.000000001
43
0.0000000001
44
0.0000000001
40
0
40
0
40
0
40
1
40
1
40
1
10
-21.0317782678406
20
50.985478320970039
30
0
10
-20.806700355846942
20
50.982164496215205
30
0
10
-20.716159352693243
20
50.876454800268363
30
0
0
SPLINE
5
311
100
AcDbEntity
8
0
100
AcDbSpline
70
0
71
2
72
6
73
3
74
0
42
0.000000001
43
0.0000000001
44
0.0000000001
40
0
40
0
40
0
40
1
40
1
40
1
10
-20.716159352693243
20
50.876454800268363
30
0
10
-20.593422147431841
20
50.733431416622714
30
0
10
-20.597519206033628
20
50.455155568124262
30
0
0
SPLINE
5
312
100
AcDbEntity
8
0
100
AcDbSpline
70
0
71
2
72
6
73
3
74
0
42
0.000000001
43
0.0000000001
44
0.0000000001
40
0
40
0
40
0
40
1
40
1
40
1
10
-20.597519206033628
20
50.455155568124262
30
0
10
-20.60134516311361
20
50.195293175068301
30
0
10
-20.694221870836319
20
50.072841182371235
30
0
0
SPLINE
5
313
100
AcDbEntity
8
0
100
AcDbSpline
70
0
71
2
72
6
73
3
74
0
42
0.000000001
43
0.0000000001
44
0.0000000001
40
0
40
0
40
0
40
1
40
1
40
1
10
-20.694221870836319
20
50.072841182371235
30
0
10
-20.787098876549962
20
49.950389194061486
30
0
10
-21.019189075809948
20
49.894452676188692
30
0
0
LINE
5
314
100
AcDbEntity
8
0
100
AcDbLine
10
-21.019189075809948
20
49.894452676188692
30
0
11
-20.975383198443332
21
49.533604045602104
31
0
0
SPLINE
5
315
100
AcDbEntity
8
0
100
AcDbSpline
70
0
71
2
72
6
73
3
74
0
42
0.000000001
43
0.0000000001
44
0.0000000001
40
0
40
0
40
0
40
1
40
1
40
1
10
-20.975383198443332
20
49.533604045602104
30
0
10
-20.743443642338654
20
49.579308746960251
30
0
10
-20.599578583240987
20
49.689755461012069
30
0
0
SPLINE
5
316
100
AcDbEntity
8
0
100
AcDbSpline
70
0
71
2
72
6
73
3
74
0
42
0.000000001
43
0.0000000001
44
0.0000000001
40
0
40
0
40
0
40
1
40
1
40
1
10
-20.599578583240987
20
49.689755461012069
30
0
10
-20.455713296349582
20
49.800197402821723
30
0
10
-20.375849160377292
20
50.011871356689987
30
0
0
SPLINE
5
317
100
AcDbEntity
8
0
100
AcDbSpline
70
0
71
2
72
6
73
3
74
0
42
0.000000001
43
0.0000000001
44
0.0000000001
40
0
40
0
40
0
40
1
40
1
40
1
10
-20.375849160377292
20
50.011871356689987
30
0
10
-20.295984945606726
20
50.223540540509731
30
0
10
-20.291857702216127
20
50.503866566595008
30
0
0
SPLINE
5
318
100
AcDbEntity
8
0
100
AcDbSpline
70
0
71
2
72
6
73
3
74
0
42
0.000000001
43
0.0000000001
44
0.0000000001
40
0
40
0
40
0
40
1
40
1
40
1
10
-20.291857702216127
20
50.503866566595008
30
0
10
-20.287760643614341
20
50.78214241509346
30
0
10
-20.350677169253597
20
50.957033014583232
30
0
0
SPLINE
5
319
100
AcDbEntity
8
0
100
AcDbSpline
70
0
71
2
72
6
73
3
74
0
42
0.000000001
43
0.0000000001
44
0.0000000001
40
0
40
0
40
0
40
1
40
1
40
1
10
-20.350677169253597
20
50.957033014583232
30
0
10
-20.413593914085503
20
51.131918848411821
30
0
10
-20.511627636130729
20
51.215224937766678
30
0
0
SPLINE
5
320
100
AcDbEntity
8
0
100
AcDbSpline
70
0
71
2
72
6
73
3
74
0
42
0.000000001
43
0.0000000001
44
0.0000000001
40
0
40
0
40
0
40
1
40
1
40
1
10
-20.511627636130729
20
51.215224937766678
30
0
10
-20.609661287978767
20
51.298535794976402
30
0
10
-20.760595656577962
20
51.333501190994625
30
0
0
SPLINE
5
321
100
AcDbEntity
8
0
100
AcDbSpline
70
0
71
2
72
6
73
3
74
0
42
0.000000001
43
0.0000000001
44
0.0000000001
40
0
40
0
40
0
40
1
40
1
40
1
10
-20.760595656577962
20
51.333501190994625
30
0
10
-20.854447899476813
20
51.353305194436309
30
0
10
-21.099987656554198
20
51.356920279177828
30
0
0
LINE
5
322
100
AcDbEntity
8
0
100
AcDbLine
10
-21.099987656554205
20
51.356920279177828
30
0
11
-21.591066574727122
21
51.364150439886195
31
0
0
SPLINE
5
323
100
AcDbEntity
8
0
100
AcDbSpline
70
0
71
2
72
6
73
3
74
0
42
0.000000001
43
0.0000000001
44
0.0000000001
40
0
40
0
40
0
40
1
40
1
40
1
10
-21.591066574727122
20
51.364150439886203
30
0
10
-22.104653343697596
20
51.37171198394752
30
0
10
-22.240377028240353
20
51.397244709448167
30
0
0
SPLINE
5
324
100
AcDbEntity
8
0
100
AcDbSpline
70
0
71
2
72
6
73
3
74
0
42
0.000000001
43
0.0000000001
44
0.0000000001
40
0
40
0
40
0
40
1
40
1
40
1
10
-22.240377028240353
20
51.397244709448167
30
0
10
-22.376100414792184
20
51.422777430561482
30
0
10
-22.499891981746359
20
51.494187634314258
30
0
0
LINE
5
325
100
AcDbEntity
8
0
100
AcDbLine
10
-22.499891981746359
20
51.494187634314258
30
0
11
-22.505555630887276
21
51.109507569060213
31
0
0
SPLINE
5
326
100
AcDbEntity
8
0
100
AcDbSpline
70
0
71
2
72
6
73
3
74
0
42
0.000000001
43
0.0000000001
44
0.0000000001
40
0
40
0
40
0
40
1
40
1
40
1
10
-22.505555630887272
20
51.109507569060213
30
0
10
-22.391813860539923
20
51.050529985014919
30
0
10
-22.23859286748484
20
51.031897747873401
30
0
0
SPLINE
5
327
100
AcDbEntity
8
0
100
AcDbSpline
70
0
71
2
72
6
73
3
74
0
42
0.000000001
43
0.0000000001
44
0.0000000001
40
0
40
0
40
0
40
1
40
1
40
1
10
-21.416487255722551
20
50.989096542829827
30
0
10
-21.50128602502166
20
50.789779898059692
30
0
10
-21.564483290943535
20
50.389575307160626
30
0
0
SPLINE
5
328
100
AcDbEntity
8
0
100
AcDbSpline
70
0
71
2
72
6
73
3
74
0
42
0.000000001
43
0.0000000001
44
0.0000000001
40
0
40
0
40
0
40
1
40
1
40
1
10
-21.564483290943535
20
50.389575307160626
30
0
10
-21.600565749511652
20
50.162931014484684
30
0
10
-21.642874904283204
20
50.069411307416587
30
0
0
SPLINE
5
329
100
AcDbEntity
8
0
100
AcDbSpline
70
0
71
2
72
6
73
3
74
0
42
0.000000001
43
0.0000000001
44
0.0000000001
40
0
40
0
40
0
40
1
40
1
40
1
10
-21.642874904283204
20
50.069411307416587
30
0
10
-21.685183831261014
20
49.975886828106312
30
0
10
-21.764714086443675
20
49.925897118590754
30
0
0
SPLINE
5
330
100
AcDbEntity
8
0
100
AcDbSpline
70
0
71
2
72
6
73
3
74
0
42
0.000000001
43
0.0000000001
44
0.0000000001
40
0
40
0
40
0
40
1
40
1
40
1
10
-21.764714086443675
20
49.925897118590754
30
0
10
-21.844244709814454
20
49.87590264560766
30
0
10
-21.940414428137032
20
49.877318553505603
30
0
0
SPLINE
5
331
100
AcDbEntity
8
0
100
AcDbSpline
70
0
71
2
72
6
73
3
74
0
42
0.000000001
43
0.0000000001
44
0.0000000001
40
0
40
0
40
0
40
1
40
1
40
1
10
-21.940414428137032
20
49.877318553505603
30
0
10
-22.087737865196168
20
49.87948759820825
30
0
10
-22.184312045303898
20
49.992448991017852
30
0
0
SPLINE
5
332
100
AcDbEntity
8
0
100
AcDbSpline
70
0
71
2
72
6
73
3
74
0
42
0.000000001
43
0.0000000001
44
0.0000000001
40
0
40
0
40
0
40
1
40
1
40
1
10
-22.184312045303898
20
49.992448991017852
30
0
10
-22.280885927420702
20
50.105410379440123
30
0
10
-22.277722772145193
20
50.320254686973556
30
0
0
SPLINE
5
333
100
AcDbEntity
8
0
100
AcDbSpline
70
0
71
2
72
6
73
3
74
0
42
0.000000001
43
0.0000000001
44
0.0000000001
40
0
40
0
40
0
40
1
40
1
40
1
10
-22.277722772145193
20
50.320254686973556
30
0
10
-22.274589661264127
20
50.533058352629887
30
0
10
-22.179049055018226
20
50.697427804570516
30
0
0
SPLINE
5
334
100
AcDbEntity
8
0
100
AcDbSpline
70
0
71
2
72
6
73
3
74
0
42
0.000000001
43
0.0000000001
44
0.0000000001
40
0
40
0
40
0
40
1
40
1
40
1
10
-22.179049055018226
20
50.697427804570516
30
0
10
-22.083508518969509
20
50.861792488656299
30
0
10
-21.920716776294185
20
50.937166735396708
30
0
0
SPLINE
5
335
100
AcDbEntity
8
0
100
AcDbSpline
70
0
71
2
72
6
73
3
74
0
42
0.000000001
43
0.0000000001
44
0.0000000001
40
0
40
0
40
0
40
1
40
1
40
1
10
-21.920716776294185
20
50.937166735396708
30
0
10
-21.795027515889576
20
50.994669795548106
30
0
10
-21.551533764525999
20
50.99108483417286
30
0
0
LINE
5
336
100
AcDbEntity
8
0
100
AcDbLine
10
-21.551533764525999
20
50.991084834172852
30
0
11
-21.416487255722551
21
50.989096542829827
31
0
0
LINE
5
337
100
AcDbEntity
8
0
100
AcDbLine
10
-22.493264314687544
20
51.944344650265286
30
0
11
-20.320239222699129
21
51.912351176188132
31
0
0
LINE
5
338
100
AcDbEntity
8
0
100
AcDbLine
10
-20.320239222699129
20
51.912351176188132
30
0
11
-20.315358903926374
21
52.24382674913695
31
0
0
LINE
5
339
100
AcDbEntity
8
0
100
AcDbLine
10
-20.315358903926374
20
52.24382674913695
30
0
11
-20.644791302075195
21
52.248676986223124
31
0
0
SPLINE
5
340
100
AcDbEntity
8
0
100
AcDbSpline
70
0
71
2
72
6
73
3
74
0
42
0.000000001
43
0.0000000001
44
0.0000000001
40
0
40
0
40
0
40
1
40
1
40
1
10
-20.644791302075195
20
52.248676986223131
30
0
10
-20.41170697030568
20
52.372135864524871
30
0
10
-20.336463490044302
20
52.478475877674029
30
0
0
SPLINE
5
341
100
AcDbEntity
8
0
100
AcDbSpline
70
0
71
2
72
6
73
3
74
0
42
0.000000001
43
0.0000000001
44
0.0000000001
40
0
40
0
40
0
40
1
40
1
40
1
10
-20.336463490044302
20
52.478475877674029
30
0
10
-20.261220009782924
20
52.58481589082318
30
0
10
-20.259322088538745
20
52.713724382485182
30
0
0
SPLINE
5
342
100
AcDbEntity
8
0
100
AcDbSpline
70
0
71
2
72
6
73
3
74
0
42
0.000000001
43
0.0000000001
44
0.0000000001
40
0
40
0
40
0
40
1
40
1
40
1
10
-20.259322088538745
20
52.713724382485182
30
0
10
-20.256580677940349
20
52.899923418061469
30
0
10
-20.372426124499093
20
53.094010737552054
30
0
0
LINE
5
343
100
AcDbEntity
8
0
100
AcDbLine
10
-20.372426124499093
20
53.094010737552068
30
0
11
-20.716003108560692
21
52.972178643874138
31
0
0
SPLINE
5
344
100
AcDbEntity
8
0
100
AcDbSpline
70
0
71
2
72
6
73
3
74
0
42
0.000000001
43
0.0000000001
44
0.0000000001
40
0
40
0
40
0
40
1
40
1
40
1
10
-20.716003108560692
20
52.97217864387413
30
0
10
-20.638191190922335
20
52.835959023985112
30
0
10
-20.640179526138574
20
52.700909535272388
30
0
0
SPLINE
5
345
100
AcDbEntity
8
0
100
AcDbSpline
70
0
71
2
72
6
73
3
74
0
42
0.000000001
43
0.0000000001
44
0.0000000001
40
0
40
0
40
0
40
1
40
1
40
1
10
-20.640179526138574
20
52.700909535272388
30
0
10
-20.641956918819069
20
52.580187450393083
30
0
10
-20.716011660673828
20
52.485089280868849
30
0
0
SPLINE
5
346
100
AcDbEntity
8
0
100
AcDbSpline
70
0
71
2
72
6
73
3
74
0
42
0.000000001
43
0.0000000001
44
0.0000000001
40
0
40
0
40
0
40
1
40
1
40
1
10
-20.716011660673828
20
52.485089280868849
30
0
10
-20.790066472725769
20
52.389986343489753
30
0
10
-20.919576870829957
20
52.350961757755584
30
0
0
SPLINE
5
347
100
AcDbEntity
8
0
100
AcDbSpline
70
0
71
2
72
6
73
3
74
0
42
0.000000001
43
0.0000000001
44
0.0000000001
40
0
40
0
40
0
40
1
40
1
40
1
10
-20.919576870829957
20
52.350961757755584
30
0
10
-21.116912703619263
20
52.292467697825586
30
0
10
-21.350175234450042
20
52.295902024820158
30
0
0
LINE
5
348
100
AcDbEntity
8
0
100
AcDbLine
10
-21.350175234450042
20
52.295902024820151
30
0
11
-22.487841722673995
21
52.312651901953942
31
0
0
LINE
5
349
100
AcDbEntity
8
0
100
AcDbLine
10
-22.487841722673995
20
52.312651901953942
30
0
11
-22.493264314687544
21
51.944344650265286
31
0
0
LWPOLYLINE
5
350
100
AcDbEntity
8
0
100
AcDbPolyline
90
8
70
1
43
0.0
10
-24.829294018439228
20
31.591467255333725
10
-27.474982636217042
20
31.630419760079835
10
-27.469138264427791
20
32.027374667653064
10
-24.82344964664998
20
31.988422162906957
10
-24.80883868207826
20
32.980811815767453
10
-24.454852278422603
20
32.975600069768397
10
-24.489858323848107
20
30.597958463883657
10
-24.843844727503761
20
30.603170209882716
0
LINE
5
351
100
AcDbEntity
8
0
100
AcDbLine
10
-27.449225183758319
20
33.379888741310673
30
0
11
-24.449550162324854
21
33.335724490565504
31
0
0
LINE
5
352
100
AcDbEntity
8
0
100
AcDbLine
10
-24.449550162324854
20
33.335724490565504
30
0
11
-24.444127552762005
21
33.704032934217878
31
0
0
LINE
5
353
100
AcDbEntity
8
0
100
AcDbLine
10
-24.444127552762005
20
33.704032934217878
30
0
11
-25.520409399707539
21
33.719879044553608
31
0
0
SPLINE
5
354
100
AcDbEntity
8
0
100
AcDbSpline
70
0
71
2
72
6
73
3
74
0
42
0.000000001
43
0.0000000001
44
0.0000000001
40
0
40
0
40
0
40
1
40
1
40
1
10
-25.520409399707546
20
33.719879044553608
30
0
10
-25.217874075691427
20
33.973297682965111
30
0
10
-25.212089933085426
20
34.366161771074424
30
0
0
SPLINE
5
355
100
AcDbEntity
8
0
100
AcDbSpline
70
0
71
2
72
6
73
3
74
0
42
0.000000001
43
0.0000000001
44
0.0000000001
40
0
40
0
40
0
40
1
40
1
40
1
10
-25.212089933085426
20
34.366161771074424
30
0
10
-25.208535112625835
20
34.60760832476047
30
0
10
-25.30106029742705
20
34.787025366885359
30
0
0
SPLINE
5
356
100
AcDbEntity
8
0
100
AcDbSpline
70
0
71
2
72
6
73
3
74
0
42
0.000000001
43
0.0000000001
44
0.0000000001
40
0
40
0
40
0
40
1
40
1
40
1
10
-25.30106029742705
20
34.787025366885359
30
0
10
-25.393586078210117
20
34.96644241778489
30
0
10
-25.560241343993042
20
35.045644190164509
30
0
0
SPLINE
5
357
100
AcDbEntity
8
0
100
AcDbSpline
70
0
71
2
72
6
73
3
74
0
42
0.000000001
43
0.0000000001
44
0.0000000001
40
0
40
0
40
0
40
1
40
1
40
1
10
-25.560241343993042
20
35.045644190164509
30
0
10
-25.726897205757812
20
35.124845971318777
30
0
10
-26.046099128351162
20
35.129545584992599
30
0
0
LINE
5
358
100
AcDbEntity
8
0
100
AcDbLine
10
-26.046099128351162
20
35.129545584992592
30
0
11
-27.423166462538276
21
35.149820163607103
31
0
0
LINE
5
359
100
AcDbEntity
8
0
100
AcDbLine
10
-27.423166462538276
20
35.149820163607103
30
0
11
-27.428589089650409
21
34.781510527991017
31
0
0
LINE
5
360
100
AcDbEntity
8
0
100
AcDbLine
10
-27.428589089650409
20
34.781510527991017
30
0
11
-26.051521755463302
21
34.761235949376513
31
0
0
SPLINE
5
361
100
AcDbEntity
8
0
100
AcDbSpline
70
0
71
2
72
6
73
3
74
0
42
0.000000001
43
0.0000000001
44
0.0000000001
40
0
40
0
40
0
40
1
40
1
40
1
10
-26.051521755463302
20
34.761235949376513
30
0
10
-25.775289528751241
20
34.757168979042312
30
0
10
-25.651212714134171
20
34.63561448329407
30
0
0
SPLINE
5
362
100
AcDbEntity
8
0
100
AcDbSpline
70
0
71
2
72
6
73
3
74
0
42
0.000000001
43
0.0000000001
44
0.0000000001
40
0
40
0
40
0
40
1
40
1
40
1
10
-25.651212714134171
20
34.63561448329407
30
0
10
-25.527135864418508
20
34.514062371473251
30
0
10
-25.530359319074449
20
34.295122476621039
30
0
0
SPLINE
5
363
100
AcDbEntity
8
0
100
AcDbSpline
70
0
71
2
72
6
73
3
74
0
42
0.000000001
43
0.0000000001
44
0.0000000001
40
0
40
0
40
0
40
1
40
1
40
1
10
-25.530359319074449
20
34.295122476621039
30
0
10
-25.532769363869203
20
34.131430099878592
30
0
10
-25.619809323211783
20
33.988425296017112
30
0
0
SPLINE
5
364
100
AcDbEntity
8
0
100
AcDbSpline
70
0
71
2
72
6
73
3
74
0
42
0.000000001
43
0.0000000001
44
0.0000000001
40
0
40
0
40
0
40
1
40
1
40
1
10
-25.619809323211783
20
33.988425296017112
30
0
10
-25.706848686572499
20
33.845420483380984
30
0
10
-25.853030169544809
20
33.786175661799057
30
0
0
SPLINE
5
365
100
AcDbEntity
8
0
100
AcDbSpline
70
0
71
2
72
6
73
3
74
0
42
0.000000001
43
0.0000000001
44
0.0000000001
40
0
40
0
40
0
40
1
40
1
40
1
10
-25.853030169544809
20
33.786175661799057
30
0
10
-25.999211687615706
20
33.726928456289691
30
0
10
-26.254982069244033
20
33.730694166637221
30
0
0
LINE
5
366
100
AcDbEntity
8
0
100
AcDbLine
10
-26.254982069244029
20
33.730694166637221
30
0
11
-27.44380257419547
21
33.748197184963047
31
0
0
LINE
5
367
100
AcDbEntity
8
0
100
AcDbLine
10
-27.44380257419547
20
33.748197184963047
30
0
11
-27.449225183758319
21
33.379888741310673
31
0
0
LWPOLYLINE
5
368
100
AcDbEntity
8
0
100
AcDbPolyline
90
4
70
1
43
0.0
10
-24.415206874830588
20
35.668350990836998
10
-24.838762240610851
20
35.674587001486529
10
-24.833339631048009
20
36.042895445138903
10
-24.409784265267742
20
36.036659434489373
0
LWPOLYLINE
5
369
100
AcDbEntity
8
0
100
AcDbPolyline
90
4
70
1
43
0.0
10
-25.241856953271096
20
35.680521769698672
10
-27.414881896264053
20
35.712515241582167
10
-27.409459286701203
20
36.080823685234535
10
-25.236434343708254
20
36.048830213351046
0
LINE
5
370
100
AcDbEntity
8
0
100
AcDbLine
10
-26.754740019127404
20
36.484599178266713
30
0
11
-26.69208530688795
21
36.847973286776984
31
0
0
SPLINE
5
371
100
AcDbEntity
8
0
100
AcDbSpline
70
0
71
2
72
6
73
3
74
0
42
0.000000001
43
0.0000000001
44
0.0000000001
40
0
40
0
40
0
40
1
40
1
40
1
10
-26.69208530688795
20
36.847973286776984
30
0
10
-26.910572728940267
20
36.881888606311165
30
0
10
-27.025140390209653
20
37.023767590887374
30
0
0
SPLINE
5
372
100
AcDbEntity
8
0
100
AcDbSpline
70
0
71
2
72
6
73
3
74
0
42
0.000000001
43
0.0000000001
44
0.0000000001
40
0
40
0
40
0
40
1
40
1
40
1
10
-27.025140390209653
20
37.023767590887374
30
0
10
-27.139708033929747
20
37.165647767427295
30
0
10
-27.136002587864148
20
37.417324945664284
30
0
0
SPLINE
5
373
100
AcDbEntity
8
0
100
AcDbSpline
70
0
71
2
72
6
73
3
74
0
42
0.000000001
43
0.0000000001
44
0.0000000001
40
0
40
0
40
0
40
1
40
1
40
1
10
-27.136002587864148
20
37.417324945664284
30
0
10
-27.132266992108335
20
37.671049917560651
30
0
10
-27.027128115434827
20
37.792298447644804
30
0
0
SPLINE
5
374
100
AcDbEntity
8
0
100
AcDbSpline
70
0
71
2
72
6
73
3
74
0
42
0.000000001
43
0.0000000001
44
0.0000000001
40
0
40
0
40
0
40
1
40
1
40
1
10
-27.027128115434827
20
37.792298447644804
30
0
10
-26.921989834743172
20
37.913546986503604
30
0
10
-26.782850718530234
20
37.911498439653371
30
0
0
SPLINE
5
375
100
AcDbEntity
8
0
100
AcDbSpline
70
0
71
2
72
6
73
3
74
0
42
0.000000001
43
0.0000000001
44
0.0000000001
40
0
40
0
40
0
40
1
40
1
40
1
10
-26.782850718530234
20
37.911498439653371
30
0
10
-26.658034834277721
20
37.909660773916343
30
0
10
-26.588015344507738
20
37.800159125790181
30
0
0
SPLINE
5
376
100
AcDbEntity
8
0
100
AcDbSpline
70
0
71
2
72
6
73
3
74
0
42
0.000000001
43
0.0000000001
44
0.0000000001
40
0
40
0
40
0
40
1
40
1
40
1
10
-26.588015344507738
20
37.800159125790181
30
0
10
-26.540022292558213
20
37.723727345140105
30
0
10
-26.468742580832458
20
37.421827801581806
30
0
0
SPLINE
5
377
100
AcDbEntity
8
0
100
AcDbSpline
70
0
71
2
72
6
73
3
74
0
42
0.000000001
43
0.0000000001
44
0.0000000001
40
0
40
0
40
0
40
1
40
1
40
1
10
-26.468742580832458
20
37.421827801581806
30
0
10
-26.37239944773043
20
37.015180204841805
30
0
10
-26.300019185973969
20
36.857549559860516
30
0
0
SPLINE
5
378
100
AcDbEntity
8
0
100
AcDbSpline
70
0
71
2
72
6
73
3
74
0
42
0.000000001
43
0.0000000001
44
0.0000000001
40
0
40
0
40
0
40
1
40
1
40
1
10
-26.300019185973969
20
36.857549559860516
30
0
10
-26.227638924217509
20
36.69991891487922
30
0
10
-26.096851091095417
20
36.617152320693023
30
0
0
SPLINE
5
379
100
AcDbEntity
8
0
100
AcDbSpline
70
0
71
2
72
6
73
3
74
0
42
0.000000001
43
0.0000000001
44
0.0000000001
40
0
40
0
40
0
40
1
40
1
40
1
10
-26.096851091095417
20
36.617152320693023
30
0
10
-25.966063853955184
20
36.534385735281468
30
0
10
-25.806462892658509
20
36.532035928444557
30
0
0
SPLINE
5
380
100
AcDbEntity
8
0
100
AcDbSpline
70
0
71
2
72
6
73
3
74
0
42
0.000000001
43
0.0000000001
44
0.0000000001
40
0
40
0
40
0
40
1
40
1
40
1
10
-25.806462892658509
20
36.532035928444557
30
0
10
-25.661185163322262
20
36.529897002720858
30
0
10
-25.536413504703876
20
36.594574058617241
30
0
0
SPLINE
5
381
100
AcDbEntity
8
0
100
AcDbSpline
70
0
71
2
72
6
73
3
74
0
42
0.000000001
43
0.0000000001
44
0.0000000001
40
0
40
0
40
0
40
1
40
1
40
1
10
-25.536413504703876
20
36.594574058617241
30
0
10
-25.41164182853619
20
36.659252306477356
30
0
10
-25.328108012826785
20
36.772631939025011
30
0
0
SPLINE
5
382
100
AcDbEntity
8
0
100
AcDbSpline
70
0
71
2
72
6
73
3
74
0
42
0.000000001
43
0.0000000001
44
0.0000000001
40
0
40
0
40
0
40
1
40
1
40
1
10
-25.328108012826785
20
36.772631939025011
30
0
10
-25.2634117811644
20
36.857637436235933
30
0
10
-25.217234669274895
20
37.005336762723751
30
0
0
SPLINE
5
383
100
AcDbEntity
8
0
100
AcDbSpline
70
0
71
2
72
6
73
3
74
0
42
0.000000001
43
0.0000000001
44
0.0000000001
40
0
40
0
40
0
40
1
40
1
40
1
10
-25.217234669274895
20
37.005336762723751
30
0
10
-25.171058170916535
20
37.153034906022498
30
0
10
-25.168557729699018
20
37.322867087851968
30
0
0
SPLINE
5
384
100
AcDbEntity
8
0
100
AcDbSpline
70
0
71
2
72
6
73
3
74
0
42
0.000000001
43
0.0000000001
44
0.0000000001
40
0
40
0
40
0
40
1
40
1
40
1
10
-25.168557729699018
20
37.322867087851968
30
0
10
-25.164792019351584
20
37.578637469480299
30
0
10
-25.235607303001274
20
37.773084735905613
30
0
0
SPLINE
5
385
100
AcDbEntity
8
0
100
AcDbSpline
70
0
71
2
72
6
73
3
74
0
42
0.000000001
43
0.0000000001
44
0.0000000001
40
0
40
0
40
0
40
1
40
1
40
1
10
-25.235607303001274
20
37.773084735905613
30
0
10
-25.306421990669108
20
37.967531993556278
30
0
10
-25.430905527766065
20
38.061461538285933
30
0
0
SPLINE
5
386
100
AcDbEntity
8
0
100
AcDbSpline
70
0
71
2
72
6
73
3
74
0
42
0.000000001
43
0.0000000001
44
0.0000000001
40
0
40
0
40
0
40
1
40
1
40
1
10
-25.430905527766065
20
38.061461538285933
30
0
10
-25.555389064863029
20
38.155391083015587
30
0
10
-25.765631603796383
20
38.193279103701379
30
0
0
LINE
5
387
100
AcDbEntity
8
0
100
AcDbLine
10
-25.765631603796383
20
38.193279103701371
30
0
11
-25.820041432916874
21
37.833877696342718
31
0
0
SPLINE
5
388
100
AcDbEntity
8
0
100
AcDbSpline
70
0
71
2
72
6
73
3
74
0
42
0.000000001
43
0.0000000001
44
0.0000000001
40
0
40
0
40
0
40
1
40
1
40
1
10
-25.820041432916874
20
37.833877696342711
30
0
10
-25.652617964258795
20
37.806852943547483
30
0
10
-25.560226174452158
20
37.687813184347128
30
0
0
SPLINE
5
389
100
AcDbEntity
8
0
100
AcDbSpline
70
0
71
2
72
6
73
3
74
0
42
0.000000001
43
0.0000000001
44
0.0000000001
40
0
40
0
40
0
40
1
40
1
40
1
10
-25.560226174452158
20
37.687813184347128
30
0
10
-25.46783498062738
20
37.568773433921422
30
0
10
-25.47099818855078
20
37.353925550496847
30
0
0
SPLINE
5
390
100
AcDbEntity
8
0
100
AcDbSpline
70
0
71
2
72
6
73
3
74
0
42
0.000000001
43
0.0000000001
44
0.0000000001
40
0
40
0
40
0
40
1
40
1
40
1
10
-25.47099818855078
20
37.353925550496847
30
0
10
-25.474733766757296
20
37.100201770564198
30
0
10
-25.560223209307054
20
36.992990874506106
30
0
0
SPLINE
5
391
100
AcDbEntity
8
0
100
AcDbSpline
70
0
71
2
72
6
73
3
74
0
42
0.000000001
43
0.0000000001
44
0.0000000001
40
0
40
0
40
0
40
1
40
1
40
1
10
-25.560223209307054
20
36.992990874506106
30
0
10
-25.645712669406116
20
36.885778786484309
30
0
10
-25.758251923393871
20
36.887435703249054
30
0
0
SPLINE
5
392
100
AcDbEntity
8
0
100
AcDbSpline
70
0
71
2
72
6
73
3
74
0
42
0.000000001
43
0.0000000001
44
0.0000000001
40
0
40
0
40
0
40
1
40
1
40
1
10
-25.758251923393871
20
36.887435703249054
30
0
10
-25.829867487214155
20
36.888490100040443
30
0
10
-25.886497052368131
20
36.934349317313732
30
0
0
SPLINE
5
393
100
AcDbEntity
8
0
100
AcDbSpline
70
0
71
2
72
6
73
3
74
0
42
0.000000001
43
0.0000000001
44
0.0000000001
40
0
40
0
40
0
40
1
40
1
40
1
10
-25.886497052368131
20
36.934349317313732
30
0
10
-25.945173219217782
20
36.980238666727935
30
0
10
-25.982634395404354
20
37.076981070873877
30
0
0
SPLINE
5
394
100
AcDbEntity
8
0
100
AcDbSpline
70
0
71
2
72
6
73
3
74
0
42
0.000000001
43
0.0000000001
44
0.0000000001
40
0
40
0
40
0
40
1
40
1
40
1
10
-25.982634395404354
20
37.076981070873877
30
0
10
-26.002282269743631
20
37.132527456268235
30
0
10
-26.071967835024306
20
37.403706194771161
30
0
0
SPLINE
5
395
100
AcDbEntity
8
0
100
AcDbSpline
70
0
71
2
72
6
73
3
74
0
42
0.000000001
43
0.0000000001
44
0.0000000001
40
0
40
0
40
0
40
1
40
1
40
1
10
-26.071967835024306
20
37.403706194771161
30
0
10
-26.170568477259152
20
37.796058903746086
30
0
10
-26.234794234770114
20
37.951523636755674
30
0
0
SPLINE
5
396
100
AcDbEntity
8
0
100
AcDbSpline
70
0
71
2
72
6
73
3
74
0
42
0.000000001
43
0.0000000001
44
0.0000000001
40
0
40
0
40
0
40
1
40
1
40
1
10
-26.234794234770114
20
37.951523636755674
30
0
10
-26.299019992281082
20
38.106988369765261
30
0
10
-26.424586480976565
20
38.196840960363097
30
0
0
SPLINE
5
397
100
AcDbEntity
8
0
100
AcDbSpline
70
0
71
2
72
6
73
3
74
0
42
0.000000001
43
0.0000000001
44
0.0000000001
40
0
40
0
40
0
40
1
40
1
40
1
10
-26.424586480976565
20
38.196840960363097
30
0
10
-26.550152969672052
20
38.286693550960926
30
0
10
-26.738400394889581
20
38.289465120024254
30
0
0
SPLINE
5
398
100
AcDbEntity
8
0
100
AcDbSpline
70
0
71
2
72
6
73
3
74
0
42
0.000000001
43
0.0000000001
44
0.0000000001
40
0
40
0
40
0
40
1
40
1
40
1
10
-26.738400394889581
20
38.289465120024254
30
0
10
-26.922554616715768
20
38.292176424805746
30
0
10
-27.086806479761144
20
38.187148075348958
30
0
0
SPLINE
5
399
100
AcDbEntity
8
0
100
AcDbSpline
70
0
71
2
72
6
73
3
74
0
42
0.000000001
43
0.0000000001
44
0.0000000001
40
0
40
0
40
0
40
1
40
1
40
1
10
-27.086806479761144
20
38.187148075348958
30
0
10
-27.251057746824667
20
38.082119717117521
30
0
10
-27.3430482817942
20
37.880860719244609
30
0
0
SPLINE
5
400
100
AcDbEntity
8
0
100
AcDbSpline
70
0
71
2
72
6
73
3
74
0
42
0.000000001
43
0.0000000001
44
0.0000000001
40
0
40
0
40
0
40
1
40
1
40
1
10
-27.3430482817942
20
37.880860719244609
30
0
10
-27.435038834313037
20
37.679600529407978
30
0
10
-27.438804544660478
20
37.423830147779647
30
0
0
SPLINE
5
401
100
AcDbEntity
8
0
100
AcDbSpline
70
0
71
2
72
6
73
3
74
0
42
0.000000001
43
0.0000000001
44
0.0000000001
40
0
40
0
40
0
40
1
40
1
40
1
10
-27.438804544660478
20
37.423830147779647
30
0
10
-27.445040564084508
20
37.000274186017521
30
0
10
-27.272339605188122
20
36.77567418206192
30
0
0
SPLINE
5
402
100
AcDbEntity
8
0
100
AcDbSpline
70
0
71
2
72
6
73
3
74
0
42
0.000000001
43
0.0000000001
44
0.0000000001
40
0
40
0
40
0
40
1
40
1
40
1
10
-27.272339605188122
20
36.77567418206192
30
0
10
-27.099638032760577
20
36.551075361295382
30
0
10
-26.754740019127404
20
36.484599178266713
30
0
0
LINE
5
403
100
AcDbEntity
8
0
100
AcDbLine
10
-26.706749802528616
20
39.744137188738016
30
0
11
-26.64409510783846
21
40.107510105284575
31
0
0
SPLINE
5
404
100
AcDbEntity
8
0
100
AcDbSpline
70
0
71
2
72
6
73
3
74
0
42
0.000000001
43
0.0000000001
44
0.0000000001
40
0
40
0
40
0
40
1
40
1
40
1
10
-26.64409510783846
20
40.107510105284575
30
0
10
-26.862582512341476
20
40.141426616782468
30
0
10
-26.977150173610866
20
40.283305601358677
30
0
0
SPLINE
5
405
100
AcDbEntity
8
0
100
AcDbSpline
70
0
71
2
72
6
73
3
74
0
42
0.000000001
43
0.0000000001
44
0.0000000001
40
0
40
0
40
0
40
1
40
1
40
1
10
-26.977150173610866
20
40.283305601358677
30
0
10
-27.091717834880249
20
40.425184585934886
30
0
10
-27.088012371265361
20
40.676862956135587
30
0
0
SPLINE
5
406
100
AcDbEntity
8
0
100
AcDbSpline
70
0
71
2
72
6
73
3
74
0
42
0.000000001
43
0.0000000001
44
0.0000000001
40
0
40
0
40
0
40
1
40
1
40
1
10
-27.088012371265361
20
40.676862956135587
30
0
10
-27.084276793058844
20
40.930586736068236
30
0
10
-26.979137916385334
20
41.051835266152395
30
0
0
SPLINE
5
407
100
AcDbEntity
8
0
100
AcDbSpline
70
0
71
2
72
6
73
3
74
0
42
0.000000001
43
0.0000000001
44
0.0000000001
40
0
40
0
40
0
40
1
40
1
40
1
10
-26.979137916385334
20
41.051835266152395
30
0
10
-26.873999635693679
20
41.173083805011203
30
0
10
-26.73486051948074
20
41.17103525816097
30
0
0
SPLINE
5
408
100
AcDbEntity
8
0
100
AcDbSpline
70
0
71
2
72
6
73
3
74
0
42
0.000000001
43
0.0000000001
44
0.0000000001
40
0
40
0
40
0
40
1
40
1
40
1
10
-26.73486051948074
20
41.17103525816097
30
0
10
-26.610044635228228
20
41.169197592423927
30
0
10
-26.540025110359654
20
41.059698328225195
30
0
0
SPLINE
5
409
100
AcDbEntity
8
0
100
AcDbSpline
70
0
71
2
72
6
73
3
74
0
42
0.000000001
43
0.0000000001
44
0.0000000001
40
0
40
0
40
0
40
1
40
1
40
1
10
-26.540025110359654
20
41.059698328225195
30
0
10
-26.492032058410125
20
40.983266547575127
30
0
10
-26.420752381782968
20
40.681364620089383
30
0
0
SPLINE
5
410
100
AcDbEntity
8
0
100
AcDbSpline
70
0
71
2
72
6
73
3
74
0
42
0.000000001
43
0.0000000001
44
0.0000000001
40
0
40
0
40
0
40
1
40
1
40
1
10
-26.420752381782968
20
40.681364620089383
30
0
10
-26.324409231131639
20
40.274718215313101
30
0
10
-26.252028986924472
20
40.1170863783681
30
0
0
SPLINE
5
411
100
AcDbEntity
8
0
100
AcDbSpline
70
0
71
2
72
6
73
3
74
0
42
0.000000001
43
0.0000000001
44
0.0000000001
40
0
40
0
40
0
40
1
40
1
40
1
10
-26.252028986924472
20
40.1170863783681
30
0
10
-26.179648725168011
20
39.959455733386811
30
0
10
-26.048860874496633
20
39.876690331164319
30
0
0
SPLINE
5
412
100
AcDbEntity
8
0
100
AcDbSpline
70
0
71
2
72
6
73
3
74
0
42
0.000000001
43
0.0000000001
44
0.0000000001
40
0
40
0
40
0
40
1
40
1
40
1
10
-26.048860874496633
20
39.876690331164319
30
0
10
-25.918073654905697
20
39.793922553789052
30
0
10
-25.758472693609022
20
39.791572746952141
30
0
0
SPLINE
5
413
100
AcDbEntity
8
0
100
AcDbSpline
70
0
71
2
72
6
73
3
74
0
42
0.000000001
43
0.0000000001
44
0.0000000001
40
0
40
0
40
0
40
1
40
1
40
1
10
-25.758472693609022
20
39.791572746952141
30
0
10
-25.613194964272772
20
39.789433821228435
30
0
10
-25.488423288105089
20
39.854112069088544
30
0
0
SPLINE
5
414
100
AcDbEntity
8
0
100
AcDbSpline
70
0
71
2
72
6
73
3
74
0
42
0.000000001
43
0.0000000001
44
0.0000000001
40
0
40
0
40
0
40
1
40
1
40
1
10
-25.488423288105089
20
39.854112069088544
30
0
10
-25.363651611937406
20
39.918790316948652
30
0
10
-25.280117796227994
20
40.032169949496314
30
0
0
SPLINE
5
415
100
AcDbEntity
8
0
100
AcDbSpline
70
0
71
2
72
6
73
3
74
0
42
0.000000001
43
0.0000000001
44
0.0000000001
40
0
40
0
40
0
40
1
40
1
40
1
10
-25.280117796227994
20
40.032169949496314
30
0
10
-25.215421564565613
20
40.117175446707236
30
0
10
-25.169244452676104
20
40.264874773195054
30
0
0
SPLINE
5
416
100
AcDbEntity
8
0
100
AcDbSpline
70
0
71
2
72
6
73
3
74
0
42
0.000000001
43
0.0000000001
44
0.0000000001
40
0
40
0
40
0
40
1
40
1
40
1
10
-25.169244452676104
20
40.264874773195054
30
0
10
-25.123067954317747
20
40.412572916493801
30
0
10
-25.120567513100234
20
40.582405098323271
30
0
0
SPLINE
5
417
100
AcDbEntity
8
0
100
AcDbSpline
70
0
71
2
72
6
73
3
74
0
42
0.000000001
43
0.0000000001
44
0.0000000001
40
0
40
0
40
0
40
1
40
1
40
1
10
-25.120567513100234
20
40.582405098323271
30
0
10
-25.116801820302086
20
40.838174287987883
30
0
10
-25.18761710395178
20
41.032621554413204
30
0
0
SPLINE
5
418
100
AcDbEntity
8
0
100
AcDbSpline
70
0
71
2
72
6
73
3
74
0
42
0.000000001
43
0.0000000001
44
0.0000000001
40
0
40
0
40
0
40
1
40
1
40
1
10
-25.18761710395178
20
41.032621554413204
30
0
10
-25.258431791619614
20
41.22706881206387
30
0
10
-25.382915328716575
20
41.320998356793517
30
0
0
SPLINE
5
419
100
AcDbEntity
8
0
100
AcDbSpline
70
0
71
2
72
6
73
3
74
0
42
0.000000001
43
0.0000000001
44
0.0000000001
40
0
40
0
40
0
40
1
40
1
40
1
10
-25.382915328716575
20
41.320998356793517
30
0
10
-25.507398865813535
20
41.414927901523185
30
0
10
-25.717641387197592
20
41.452817114172682
30
0
0
LINE
5
420
100
AcDbEntity
8
0
100
AcDbLine
10
-25.717641387197592
20
41.452817114172682
30
0
11
-25.77205123386738
21
41.093414514850302
31
0
0
SPLINE
5
421
100
AcDbEntity
8
0
100
AcDbSpline
70
0
71
2
72
6
73
3
74
0
42
0.000000001
43
0.0000000001
44
0.0000000001
40
0
40
0
40
0
40
1
40
1
40
1
10
-25.77205123386738
20
41.093414514850295
30
0
10
-25.604627765209301
20
41.066389762055081
30
0
10
-25.512235975402664
20
40.947350002854712
30
0
0
SPLINE
5
422
100
AcDbEntity
8
0
100
AcDbSpline
70
0
71
2
72
6
73
3
74
0
42
0.000000001
43
0.0000000001
44
0.0000000001
40
0
40
0
40
0
40
1
40
1
40
1
10
-25.512235975402664
20
40.947350002854712
30
0
10
-25.419844781577893
20
40.828310252429006
30
0
10
-25.423007971951993
20
40.613463560968142
30
0
0
SPLINE
5
423
100
AcDbEntity
8
0
100
AcDbSpline
70
0
71
2
72
6
73
3
74
0
42
0.000000001
43
0.0000000001
44
0.0000000001
40
0
40
0
40
0
40
1
40
1
40
1
10
-25.423007971951993
20
40.613463560968142
30
0
10
-25.426743550158509
20
40.359739781035493
30
0
10
-25.512233010257567
20
40.25252769301369
30
0
0
SPLINE
5
424
100
AcDbEntity
8
0
100
AcDbSpline
70
0
71
2
72
6
73
3
74
0
42
0.000000001
43
0.0000000001
44
0.0000000001
40
0
40
0
40
0
40
1
40
1
40
1
10
-25.512233010257567
20
40.25252769301369
30
0
10
-25.597722470356622
20
40.1453156049919
30
0
10
-25.710261724344381
20
40.146972521756638
30
0
0
SPLINE
5
425
100
AcDbEntity
8
0
100
AcDbSpline
70
0
71
2
72
6
73
3
74
0
42
0.000000001
43
0.0000000001
44
0.0000000001
40
0
40
0
40
0
40
1
40
1
40
1
10
-25.710261724344381
20
40.146972521756638
30
0
10
-25.781877288164665
20
40.148026918548034
30
0
10
-25.838506853318641
20
40.193886135821316
30
0
0
SPLINE
5
426
100
AcDbEntity
8
0
100
AcDbSpline
70
0
71
2
72
6
73
3
74
0
42
0.000000001
43
0.0000000001
44
0.0000000001
40
0
40
0
40
0
40
1
40
1
40
1
10
-25.838506853318641
20
40.193886135821316
30
0
10
-25.897183020168288
20
40.239775485235526
30
0
10
-25.93464419635486
20
40.336517889381454
30
0
0
SPLINE
5
427
100
AcDbEntity
8
0
100
AcDbSpline
70
0
71
2
72
6
73
3
74
0
42
0.000000001
43
0.0000000001
44
0.0000000001
40
0
40
0
40
0
40
1
40
1
40
1
10
-25.93464419635486
20
40.336517889381454
30
0
10
-25.954292053144847
20
40.392065466739531
30
0
10
-26.023977635974809
20
40.663243013278745
30
0
0
SPLINE
5
428
100
AcDbEntity
8
0
100
AcDbSpline
70
0
71
2
72
6
73
3
74
0
42
0.000000001
43
0.0000000001
44
0.0000000001
40
0
40
0
40
0
40
1
40
1
40
1
10
-26.023977635974809
20
40.663243013278745
30
0
10
-26.122578243111072
20
41.055598106181094
30
0
10
-26.186804035720623
20
41.211060455263258
30
0
0
SPLINE
5
429
100
AcDbEntity
8
0
100
AcDbSpline
70
0
71
2
72
6
73
3
74
0
42
0.000000001
43
0.0000000001
44
0.0000000001
40
0
40
0
40
0
40
1
40
1
40
1
10
-26.186804035720623
20
41.211060455263258
30
0
10
-26.251029758132994
20
41.366527572200276
30
0
10
-26.376596264377774
20
41.456378970834393
30
0
0
SPLINE
5
430
100
AcDbEntity
8
0
100
AcDbSpline
70
0
71
2
72
6
73
3
74
0
42
0.000000001
43
0.0000000001
44
0.0000000001
40
0
40
0
40
0
40
1
40
1
40
1
10
-26.376596264377774
20
41.456378970834393
30
0
10
-26.502162770622558
20
41.546230369468518
30
0
10
-26.690410195840091
20
41.549001938531838
30
0
0
SPLINE
5
431
100
AcDbEntity
8
0
100
AcDbSpline
70
0
71
2
72
6
73
3
74
0
42
0.000000001
43
0.0000000001
44
0.0000000001
40
0
40
0
40
0
40
1
40
1
40
1
10
-26.690410195840091
20
41.549001938531838
30
0
10
-26.874564417666274
20
41.55171324331333
30
0
10
-27.038816263162353
20
41.446686085820247
30
0
0
SPLINE
5
432
100
AcDbEntity
8
0
100
AcDbSpline
70
0
71
2
72
6
73
3
74
0
42
0.000000001
43
0.0000000001
44
0.0000000001
40
0
40
0
40
0
40
1
40
1
40
1
10
-27.038816263162353
20
41.446686085820247
30
0
10
-27.203067512676583
20
41.341658919552543
30
0
10
-27.29505808274471
20
41.1403975377522
30
0
0
SPLINE
5
433
100
AcDbEntity
8
0
100
AcDbSpline
70
0
71
2
72
6
73
3
74
0
42
0.000000001
43
0.0000000001
44
0.0000000001
40
0
40
0
40
0
40
1
40
1
40
1
10
-27.29505808274471
20
41.1403975377522
30
0
10
-27.387048652812844
20
40.93913615595185
30
0
10
-27.390814345610984
20
40.683366966287231
30
0
0
SPLINE
5
434
100
AcDbEntity
8
0
100
AcDbSpline
70
0
71
2
72
6
73
3
74
0
42
0.000000001
43
0.0000000001
44
0.0000000001
40
0
40
0
40
0
40
1
40
1
40
1
10
-27.390814345610984
20
40.683366966287231
30
0
10
-27.397050347485717
20
40.259812196488824
30
0
10
-27.224349388589332
20
40.035212192533223
30
0
0
SPLINE
5
435
100
AcDbEntity
8
0
100
AcDbSpline
70
0
71
2
72
6
73
3
74
0
42
0.000000001
43
0.0000000001
44
0.0000000001
40
0
40
0
40
0
40
1
40
1
40
1
10
-27.224349388589332
20
40.035212192533223
30
0
10
-27.051647833711087
20
39.810612179802966
30
0
10
-26.706749802528616
20
39.744137188738016
30
0
0
LWPOLYLINE
5
436
100
AcDbEntity
8
0
100
AcDbPolyline
90
4
70
1
43
0.0
10
-24.322660803726098
20
41.954162097021396
10
-24.746216169506361
20
41.960398107670926
10
-24.740793507295628
20
42.328710127214435
10
-24.317238141515361
20
42.322474116564912
0
LWPOLYLINE
5
437
100
AcDbEntity
8
0
100
AcDbPolyline
90
4
70
1
43
0.0
10
-25.149310882166613
20
41.966332875883069
10
-27.322335825159563
20
41.998326347766564
10
-27.316913162948833
20
42.366638367310081
10
-25.14388821995588
20
42.334644895426585
0
LINE
5
438
100
AcDbEntity
8
0
100
AcDbLine
10
-27.287902141242533
20
44.337092653125083
30
0
11
-27.013716516226147
21
44.333055814931804
31
0
0
SPLINE
5
439
100
AcDbEntity
8
0
100
AcDbSpline
70
0
71
2
72
6
73
3
74
0
42
0.000000001
43
0.0000000001
44
0.0000000001
40
0
40
0
40
0
40
1
40
1
40
1
10
-27.013716516226147
20
44.333055814931797
30
0
10
-27.340052551174281
20
44.131152997957926
30
0
10
-27.345957187245375
20
43.730104886993352
30
0
0
SPLINE
5
440
100
AcDbEntity
8
0
100
AcDbSpline
70
0
71
2
72
6
73
3
74
0
42
0.000000001
43
0.0000000001
44
0.0000000001
40
0
40
0
40
0
40
1
40
1
40
1
10
-27.345957187245375
20
43.730104886993352
30
0
10
-27.349783144325357
20
43.470242493937391
30
0
10
-27.209760449143509
20
43.250214126440945
30
0
0
SPLINE
5
441
100
AcDbEntity
8
0
100
AcDbSpline
70
0
71
2
72
6
73
3
74
0
42
0.000000001
43
0.0000000001
44
0.0000000001
40
0
40
0
40
0
40
1
40
1
40
1
10
-27.209760449143509
20
43.250214126440945
30
0
10
-27.069737087782613
20
43.030190518024725
30
0
10
-26.814706371771582
20
42.906707986440637
30
0
0
SPLINE
5
442
100
AcDbEntity
8
0
100
AcDbSpline
70
0
71
2
72
6
73
3
74
0
42
0.000000001
43
0.0000000001
44
0.0000000001
40
0
40
0
40
0
40
1
40
1
40
1
10
-26.814706371771582
20
42.906707986440637
30
0
10
-26.559675024680107
20
42.783227830009317
30
0
10
-26.226150466108184
20
42.778317343996939
30
0
0
SPLINE
5
443
100
AcDbEntity
8
0
100
AcDbSpline
70
0
71
2
72
6
73
3
74
0
42
0.000000001
43
0.0000000001
44
0.0000000001
40
0
40
0
40
0
40
1
40
1
40
1
10
-26.226150466108184
20
42.778317343996939
30
0
10
-25.900810526373384
20
42.773527360224293
30
0
10
-25.634236151009798
20
42.878073332901337
30
0
0
SPLINE
5
444
100
AcDbEntity
8
0
100
AcDbSpline
70
0
71
2
72
6
73
3
74
0
42
0.000000001
43
0.0000000001
44
0.0000000001
40
0
40
0
40
0
40
1
40
1
40
1
10
-25.634236151009798
20
42.878073332901337
30
0
10
-25.367661214762943
20
42.982616912876317
30
0
10
-25.223282752771873
20
43.197432727780054
30
0
0
SPLINE
5
445
100
AcDbEntity
8
0
100
AcDbSpline
70
0
71
2
72
6
73
3
74
0
42
0.000000001
43
0.0000000001
44
0.0000000001
40
0
40
0
40
0
40
1
40
1
40
1
10
-25.223282752771873
20
43.197432727780054
30
0
10
-25.078904290780795
20
43.412248542683791
30
0
10
-25.074957840235726
20
43.680294958595013
30
0
0
SPLINE
5
446
100
AcDbEntity
8
0
100
AcDbSpline
70
0
71
2
72
6
73
3
74
0
42
0.000000001
43
0.0000000001
44
0.0000000001
40
0
40
0
40
0
40
1
40
1
40
1
10
-25.074957840235726
20
43.680294958595013
30
0
10
-25.072065786482018
20
43.876725810685961
30
0
10
-25.152675838963042
20
44.031408843309052
30
0
0
SPLINE
5
447
100
AcDbEntity
8
0
100
AcDbSpline
70
0
71
2
72
6
73
3
74
0
42
0.000000001
43
0.0000000001
44
0.0000000001
40
0
40
0
40
0
40
1
40
1
40
1
10
-25.152675838963042
20
44.031408843309052
30
0
10
-25.233285926542656
20
44.186089492004719
30
0
10
-25.36487048224847
20
44.284220060222417
30
0
0
LINE
5
448
100
AcDbEntity
8
0
100
AcDbLine
10
-25.36487048224847
20
44.284220060222417
30
0
11
-24.288589231284789
21
44.268373958661336
31
0
0
LINE
5
449
100
AcDbEntity
8
0
100
AcDbLine
10
-24.288589231284789
20
44.268373958661336
30
0
11
-24.283196753862867
21
44.634635800618042
31
0
0
LINE
5
450
100
AcDbEntity
8
0
100
AcDbLine
10
-24.283196753862867
20
44.634635800618042
30
0
11
-27.282871179314473
21
44.678800042588549
31
0
0
LINE
5
451
100
AcDbEntity
8
0
100
AcDbLine
10
-27.282871179314473
20
44.678800042588549
30
0
11
-27.287902141242533
21
44.337092653125083
31
0
0
SPLINE
5
452
100
AcDbEntity
8
0
100
AcDbSpline
70
0
71
2
72
6
73
3
74
0
42
0.000000001
43
0.0000000001
44
0.0000000001
40
0
40
0
40
0
40
1
40
1
40
1
10
-26.22057719584074
20
43.156858796127665
30
0
10
-26.637994544479557
20
43.163004436678385
30
0
10
-26.842066445642057
20
43.342014352649095
30
0
0
SPLINE
5
453
100
AcDbEntity
8
0
100
AcDbSpline
70
0
71
2
72
6
73
3
74
0
42
0.000000001
43
0.0000000001
44
0.0000000001
40
0
40
0
40
0
40
1
40
1
40
1
10
-26.842066445642057
20
43.342014352649095
30
0
10
-27.046137680625513
20
43.521029027700024
30
0
10
-27.042612974757553
20
43.760430171654107
30
0
0
SPLINE
5
454
100
AcDbEntity
8
0
100
AcDbSpline
70
0
71
2
72
6
73
3
74
0
42
0.000000001
43
0.0000000001
44
0.0000000001
40
0
40
0
40
0
40
1
40
1
40
1
10
-27.042612974757553
20
43.760430171654107
30
0
10
-27.039058154297962
20
44.001876725340153
30
0
10
-26.839118039004926
20
44.167777881741053
30
0
0
SPLINE
5
455
100
AcDbEntity
8
0
100
AcDbSpline
70
0
71
2
72
6
73
3
74
0
42
0.000000001
43
0.0000000001
44
0.0000000001
40
0
40
0
40
0
40
1
40
1
40
1
10
-26.839118039004926
20
44.167777881741053
30
0
10
-26.639178519693736
20
44.333679046916586
30
0
10
-26.234037801319676
20
44.327714155338178
30
0
0
SPLINE
5
456
100
AcDbEntity
8
0
100
AcDbSpline
70
0
71
2
72
6
73
3
74
0
42
0.000000001
43
0.0000000001
44
0.0000000001
40
0
40
0
40
0
40
1
40
1
40
1
10
-26.234037801319676
20
44.327714155338178
30
0
10
-25.78797458474186
20
44.32114676133569
30
0
10
-25.581796448682294
20
44.14619754146262
30
0
0
SPLINE
5
457
100
AcDbEntity
8
0
100
AcDbSpline
70
0
71
2
72
6
73
3
74
0
42
0.000000001
43
0.0000000001
44
0.0000000001
40
0
40
0
40
0
40
1
40
1
40
1
10
-25.581796448682294
20
44.14619754146262
30
0
10
-25.375618347721321
20
43.971245937662133
30
0
10
-25.379323811336214
20
43.719567567461432
30
0
0
SPLINE
5
458
100
AcDbEntity
8
0
100
AcDbSpline
70
0
71
2
72
6
73
3
74
0
42
0.000000001
43
0.0000000001
44
0.0000000001
40
0
40
0
40
0
40
1
40
1
40
1
10
-25.379323811336214
20
43.719567567461432
30
0
10
-25.38293889607764
20
43.474027810384044
30
0
10
-25.585888053650496
20
43.312265046811227
30
0
0
SPLINE
5
459
100
AcDbEntity
8
0
100
AcDbSpline
70
0
71
2
72
6
73
3
74
0
42
0.000000001
43
0.0000000001
44
0.0000000001
40
0
40
0
40
0
40
1
40
1
40
1
10
-25.585888053650496
20
43.312265046811227
30
0
10
-25.788837211223345
20
43.15050228323841
30
0
10
-26.22057719584074
20
43.156858796127665
30
0
0
LINE
5
460
100
AcDbEntity
8
0
100
AcDbLine
10
-26.55265665283062
20
46.735121363733342
30
0
11
-26.594114975280469
21
47.116401115668218
31
0
0
SPLINE
5
461
100
AcDbEntity
8
0
100
AcDbSpline
70
0
71
2
72
6
73
3
74
0
42
0.000000001
43
0.0000000001
44
0.0000000001
40
0
40
0
40
0
40
1
40
1
40
1
10
-26.594114975280469
20
47.116401115668211
30
0
10
-26.928965067264148
20
47.031280198490386
30
0
10
-27.116704855221997
20
46.79049716470108
30
0
0
SPLINE
5
462
100
AcDbEntity
8
0
100
AcDbSpline
70
0
71
2
72
6
73
3
74
0
42
0.000000001
43
0.0000000001
44
0.0000000001
40
0
40
0
40
0
40
1
40
1
40
1
10
-27.116704855221997
20
46.79049716470108
30
0
10
-27.304444012099395
20
46.549716506064563
30
0
10
-27.310017282366839
20
46.171175053933823
30
0
0
SPLINE
5
463
100
AcDbEntity
8
0
100
AcDbSpline
70
0
71
2
72
6
73
3
74
0
42
0.000000001
43
0.0000000001
44
0.0000000001
40
0
40
0
40
0
40
1
40
1
40
1
10
-27.310017282366839
20
46.171175053933823
30
0
10
-27.317036579511139
20
45.694418175757612
30
0
10
-27.027524561255042
20
45.410794206356265
30
0
0
SPLINE
5
464
100
AcDbEntity
8
0
100
AcDbSpline
70
0
71
2
72
6
73
3
74
0
42
0.000000001
43
0.0000000001
44
0.0000000001
40
0
40
0
40
0
40
1
40
1
40
1
10
-27.027524561255042
20
45.410794206356265
30
0
10
-26.738012542998945
20
45.12717023695491
30
0
10
-26.208055940372368
20
45.119367679639467
30
0
0
SPLINE
5
465
100
AcDbEntity
8
0
100
AcDbSpline
70
0
71
2
72
6
73
3
74
0
42
0.000000001
43
0.0000000001
44
0.0000000001
40
0
40
0
40
0
40
1
40
1
40
1
10
-26.208055940372368
20
45.119367679639467
30
0
10
-25.659684690339589
20
45.111294003252908
30
0
10
-25.35269464743827
20
45.389206829875796
30
0
0
SPLINE
5
466
100
AcDbEntity
8
0
100
AcDbSpline
70
0
71
2
72
6
73
3
74
0
42
0.000000001
43
0.0000000001
44
0.0000000001
40
0
40
0
40
0
40
1
40
1
40
1
10
-25.35269464743827
20
45.389206829875796
30
0
10
-25.045705200518803
20
45.667119665273326
30
0
10
-25.039077568558579
20
46.117274297296916
30
0
0
SPLINE
5
467
100
AcDbEntity
8
0
100
AcDbSpline
70
0
71
2
72
6
73
3
74
0
42
0.000000001
43
0.0000000001
44
0.0000000001
40
0
40
0
40
0
40
1
40
1
40
1
10
-25.039077568558579
20
46.117274297296916
30
0
10
-25.032660808936914
20
46.553106293341955
30
0
10
-25.3252873056421
20
46.833707337582098
30
0
0
SPLINE
5
468
100
AcDbEntity
8
0
100
AcDbSpline
70
0
71
2
72
6
73
3
74
0
42
0.000000001
43
0.0000000001
44
0.0000000001
40
0
40
0
40
0
40
1
40
1
40
1
10
-25.3252873056421
20
46.833707337582098
30
0
10
-25.617914398329145
20
47.114308390596889
30
0
10
-26.156055023810985
20
47.122231441377437
30
0
0
SPLINE
5
469
100
AcDbEntity
8
0
100
AcDbSpline
70
0
71
2
72
6
73
3
74
0
42
0.000000001
43
0.0000000001
44
0.0000000001
40
0
40
0
40
0
40
1
40
1
40
1
10
-26.156055023810985
20
47.122231441377437
30
0
10
-26.188794095141329
20
47.12271345911104
30
0
10
-26.254301160429936
20
47.121632067297
30
0
0
LINE
5
470
100
AcDbEntity
8
0
100
AcDbLine
10
-26.254301160429936
20
47.121632067297
30
0
11
-26.278160691644487
21
45.501071577728169
31
0
0
SPLINE
5
471
100
AcDbEntity
8
0
100
AcDbSpline
70
0
71
2
72
6
73
3
74
0
42
0.000000001
43
0.0000000001
44
0.0000000001
40
0
40
0
40
0
40
1
40
1
40
1
10
-26.278160691644487
20
45.501071577728176
30
0
10
-26.63593789061434
20
45.526802435634224
30
0
10
-26.823550140130543
20
45.711712344176199
30
0
0
SPLINE
5
472
100
AcDbEntity
8
0
100
AcDbSpline
70
0
71
2
72
6
73
3
74
0
42
0.000000001
43
0.0000000001
44
0.0000000001
40
0
40
0
40
0
40
1
40
1
40
1
10
-26.823550140130543
20
45.711712344176199
30
0
10
-27.011161793664883
20
45.896622243943526
30
0
10
-27.007155078837968
20
46.168761863246097
30
0
0
SPLINE
5
473
100
AcDbEntity
8
0
100
AcDbSpline
70
0
71
2
72
6
73
3
74
0
42
0.000000001
43
0.0000000001
44
0.0000000001
40
0
40
0
40
0
40
1
40
1
40
1
10
-27.007155078837968
20
46.168761863246097
30
0
10
-27.004172611112203
20
46.371333712387766
30
0
10
-26.895663772646881
20
46.512998310911719
30
0
0
SPLINE
5
474
100
AcDbEntity
8
0
100
AcDbSpline
70
0
71
2
72
6
73
3
74
0
42
0.000000001
43
0.0000000001
44
0.0000000001
40
0
40
0
40
0
40
1
40
1
40
1
10
-26.895663772646881
20
46.512998310911719
30
0
10
-26.787154338199699
20
46.654662900661009
30
0
10
-26.55265665283062
20
46.735121363733342
30
0
0
LINE
5
475
100
AcDbEntity
8
0
100
AcDbLine
10
-25.975027386593808
20
45.517071842482935
30
0
11
-25.957162835225226
21
46.730447991891317
31
0
0
SPLINE
5
476
100
AcDbEntity
8
0
100
AcDbSpline
70
0
71
2
72
6
73
3
74
0
42
0.000000001
43
0.0000000001
44
0.0000000001
40
0
40
0
40
0
40
1
40
1
40
1
10
-25.957162835225223
20
46.73044799189131
30
0
10
-25.683338129720845
20
46.701856692430169
30
0
10
-25.547932664109197
20
46.585252422037414
30
0
0
SPLINE
5
477
100
AcDbEntity
8
0
100
AcDbSpline
70
0
71
2
72
6
73
3
74
0
42
0.000000001
43
0.0000000001
44
0.0000000001
40
0
40
0
40
0
40
1
40
1
40
1
10
-25.547932664109197
20
46.585252422037414
30
0
10
-25.337722184921986
20
46.406149743265807
30
0
10
-25.341849393213987
20
46.125826101107961
30
0
0
SPLINE
5
478
100
AcDbEntity
8
0
100
AcDbSpline
70
0
71
2
72
6
73
3
74
0
42
0.000000001
43
0.0000000001
44
0.0000000001
40
0
40
0
40
0
40
1
40
1
40
1
10
-25.341849393213987
20
46.125826101107961
30
0
10
-25.345585006519098
20
45.872099937247881
30
0
10
-25.517962187922365
20
45.701701265227115
30
0
0
SPLINE
5
479
100
AcDbEntity
8
0
100
AcDbSpline
70
0
71
2
72
6
73
3
74
0
42
0.000000001
43
0.0000000001
44
0.0000000001
40
0
40
0
40
0
40
1
40
1
40
1
10
-25.517962187922365
20
45.701701265227115
30
0
10
-25.690339369325635
20
45.531302593206334
30
0
10
-25.975027386593808
20
45.517071842482935
30
0
0
LWPOLYLINE
5
480
100
AcDbEntity
8
0
100
AcDbPolyline
90
4
70
1
43
0.0
10
-24.223185779252184
20
48.710593852186122
10
-24.646741145032451
20
48.716829862835652
10
-24.641318553018898
20
49.085137114524301
10
-24.217763187238639
20
49.078901103874777
0
LWPOLYLINE
5
481
100
AcDbEntity
8
0
100
AcDbPolyline
90
4
70
1
43
0.0
10
-25.049835857692699
20
48.722764631047795
10
-27.222860800685652
20
48.754758102931291
10
-27.2174382086721
20
49.123065354619953
10
-25.044413265679147
20
49.091071882736458
0
LINE
5
482
100
AcDbEntity
8
0
100
AcDbLine
10
-27.209183756989503
20
49.683715022863062
30
0
11
-25.036158813996554
21
49.651721550979566
31
0
0
LINE
5
483
100
AcDbEntity
8
0
100
AcDbLine
10
-25.036158813996554
20
49.651721550979566
30
0
11
-25.031278460125208
21
49.983199507855815
31
0
0
LINE
5
484
100
AcDbEntity
8
0
100
AcDbLine
10
-25.031278460125208
20
49.983199507855815
30
0
11
-25.340248566203897
21
49.987748478374321
31
0
0
SPLINE
5
485
100
AcDbEntity
8
0
100
AcDbSpline
70
0
71
2
72
6
73
3
74
0
42
0.000000001
43
0.0000000001
44
0.0000000001
40
0
40
0
40
0
40
1
40
1
40
1
10
-25.340248566203897
20
49.987748478374321
30
0
10
-24.978646041234501
20
50.221877638371453
30
0
10
-24.971988224485475
20
50.674082447981867
30
0
0
SPLINE
5
486
100
AcDbEntity
8
0
100
AcDbSpline
70
0
71
2
72
6
73
3
74
0
42
0.000000001
43
0.0000000001
44
0.0000000001
40
0
40
0
40
0
40
1
40
1
40
1
10
-24.971988224485475
20
50.674082447981867
30
0
10
-24.96909617073177
20
50.870513300072808
30
0
10
-25.037263331613651
20
51.036267712402164
30
0
0
SPLINE
5
487
100
AcDbEntity
8
0
100
AcDbSpline
70
0
71
2
72
6
73
3
74
0
42
0.000000001
43
0.0000000001
44
0.0000000001
40
0
40
0
40
0
40
1
40
1
40
1
10
-25.037263331613651
20
51.036267712402164
30
0
10
-25.105430492495536
20
51.202022124731528
30
0
10
-25.218811343330884
20
51.285554170044705
30
0
0
SPLINE
5
488
100
AcDbEntity
8
0
100
AcDbSpline
70
0
71
2
72
6
73
3
74
0
42
0.000000001
43
0.0000000001
44
0.0000000001
40
0
40
0
40
0
40
1
40
1
40
1
10
-25.218811343330884
20
51.285554170044705
30
0
10
-25.332190932005332
20
51.369090965663432
30
0
10
-25.489263913727829
20
51.404146740555134
30
0
0
SPLINE
5
489
100
AcDbEntity
8
0
100
AcDbSpline
70
0
71
2
72
6
73
3
74
0
42
0.000000001
43
0.0000000001
44
0.0000000001
40
0
40
0
40
0
40
1
40
1
40
1
10
-25.489263913727829
20
51.404146740555134
30
0
10
-25.591270660872176
20
51.426116655968528
30
0
10
-25.847041042500507
20
51.42988236631605
30
0
0
LINE
5
490
100
AcDbEntity
8
0
100
AcDbLine
10
-25.847041042500503
20
51.42988236631605
30
0
11
-27.183185282502006
21
51.449554433731848
31
0
0
LINE
5
491
100
AcDbEntity
8
0
100
AcDbLine
10
-27.183185282502006
20
51.449554433731848
30
0
11
-27.188607944712739
21
51.081242414188338
31
0
0
LINE
5
492
100
AcDbEntity
8
0
100
AcDbLine
10
-27.188607944712739
20
51.081242414188338
30
0
11
-25.866786936671669
21
51.061781227885739
31
0
0
SPLINE
5
493
100
AcDbEntity
8
0
100
AcDbSpline
70
0
71
2
72
6
73
3
74
0
42
0.000000001
43
0.0000000001
44
0.0000000001
40
0
40
0
40
0
40
1
40
1
40
1
10
-25.866786936671669
20
51.061781227885739
30
0
10
-25.641708428696155
20
51.058467394356263
30
0
10
-25.530825688553762
20
51.013857644500916
30
0
0
SPLINE
5
494
100
AcDbEntity
8
0
100
AcDbSpline
70
0
71
2
72
6
73
3
74
0
42
0.000000001
43
0.0000000001
44
0.0000000001
40
0
40
0
40
0
40
1
40
1
40
1
10
-25.530825688553762
20
51.013857644500916
30
0
10
-25.419942352429501
20
50.969247885870921
30
0
10
-25.355053828212661
20
50.858798854456424
30
0
0
SPLINE
5
495
100
AcDbEntity
8
0
100
AcDbSpline
70
0
71
2
72
6
73
3
74
0
42
0.000000001
43
0.0000000001
44
0.0000000001
40
0
40
0
40
0
40
1
40
1
40
1
10
-25.355053828212661
20
50.858798854456424
30
0
10
-25.290164708013954
20
50.748349814267293
30
0
10
-25.292333800977126
20
50.601023099307945
30
0
0
SPLINE
5
496
100
AcDbEntity
8
0
100
AcDbSpline
70
0
71
2
72
6
73
3
74
0
42
0.000000001
43
0.0000000001
44
0.0000000001
40
0
40
0
40
0
40
1
40
1
40
1
10
-25.292333800977126
20
50.601023099307945
30
0
10
-25.295798242563244
20
50.365715158745203
30
0
10
-25.447684025174418
20
50.197063029171794
30
0
0
SPLINE
5
497
100
AcDbEntity
8
0
100
AcDbSpline
70
0
71
2
72
6
73
3
74
0
42
0.000000001
43
0.0000000001
44
0.0000000001
40
0
40
0
40
0
40
1
40
1
40
1
10
-25.447684025174418
20
50.197063029171794
30
0
10
-25.599569282000925
20
50.028406122968875
30
0
10
-26.016986630639742
20
50.034551763519588
30
0
0
LINE
5
498
100
AcDbEntity
8
0
100
AcDbLine
10
-26.016986630639746
20
50.034551763519588
30
0
11
-27.203761129877361
21
50.052024658479141
31
0
0
LINE
5
499
100
AcDbEntity
8
0
100
AcDbLine
10
-27.203761129877361
20
50.052024658479141
30
0
11
-27.209183756989503
21
49.683715022863062
31
0
0
LWPOLYLINE
5
500
100
AcDbEntity
8
0
100
AcDbPolyline
90
8
70
1
43
0.0
10
-16.028753484810974
20
1.6547842448037868
10
-19.028753604020618
20
0.50266937664126154
10
-19.028753604020491
20
0.92422501495455434
10
-18.120158876504213
20
1.2536926691822992
10
-18.120158876503826
20
2.5081266587071411
10
-19.02875360401989
20
2.8580583756265519
10
-19.028753604019752
20
3.3103086178598278
10
-16.028753484810842
20
2.0824785654824973
0
LINE
5
501
100
AcDbEntity
8
0
100
AcDbLine
10
-17.796829904641385
20
1.368290347366643
30
0
11
-17.796829904641069
21
2.3853434746554614
31
0
0
LINE
5
502
100
AcDbEntity
8
0
100
AcDbLine
10
-17.796829904641069
20
2.3853434746554614
30
0
11
-16.965997780884759
21
2.0722468321608338
31
0
0
SPLINE
5
503
100
AcDbEntity
8
0
100
AcDbSpline
70
0
71
2
72
6
73
3
74
0
42
0.000000001
43
0.0000000001
44
0.0000000001
40
0
40
0
40
0
40
1
40
1
40
1
10
-16.965997780884759
20
2.0722468321608343
30
0
10
-16.587416495408117
20
1.9289995854183917
30
0
10
-16.343896652783478
20
1.8594224875255061
30
0
0
SPLINE
5
504
100
AcDbEntity
8
0
100
AcDbSpline
70
0
71
2
72
6
73
3
74
0
42
0.000000001
43
0.0000000001
44
0.0000000001
40
0
40
0
40
0
40
1
40
1
40
1
10
-16.343896652783478
20
1.8594224875255061
30
0
10
-16.632437075699904
20
1.802123946456623
30
0
10
-16.916884745682847
20
1.6977580015944027
30
0
0
LINE
5
505
100
AcDbEntity
8
0
100
AcDbLine
10
-16.916884745682847
20
1.6977580015944027
30
0
11
-17.796829904641385
21
1.368290347366643
31
0
0
LINE
5
506
100
AcDbEntity
8
0
100
AcDbLine
10
90.986991821692271
20
0.76273635049687427
30
0
11
93.986991940901561
21
0.76273635049670285
31
0
0
LINE
5
507
100
AcDbEntity
8
0
100
AcDbLine
10
93.986991940901561
20
0.76273635049670285
30
0
11
93.986991940901561
21
1.8882478775581657
31
0
0
SPLINE
5
508
100
AcDbEntity
8
0
100
AcDbSpline
70
0
71
2
72
6
73
3
74
0
42
0.000000001
43
0.0000000001
44
0.0000000001
40
0
40
0
40
0
40
1
40
1
40
1
10
93.986991940901575
20
1.8882478775581657
30
0
10
93.986991940901575
20
2.2320403160652456
30
0
10
93.895927666590509
20
2.4397481979927402
30
0
0
SPLINE
5
509
100
AcDbEntity
8
0
100
AcDbSpline
70
0
71
2
72
6
73
3
74
0
42
0.000000001
43
0.0000000001
44
0.0000000001
40
0
40
0
40
0
40
1
40
1
40
1
10
93.895927666590509
20
2.4397481979927402
30
0
10
93.804863690302668
20
2.6474560799202362
30
0
10
93.615573047564325
20
2.7651233973106892
30
0
0
SPLINE
5
510
100
AcDbEntity
8
0
100
AcDbSpline
70
0
71
2
72
6
73
3
74
0
42
0.000000001
43
0.0000000001
44
0.0000000001
40
0
40
0
40
0
40
1
40
1
40
1
10
93.615573047564325
20
2.7651233973106892
30
0
10
93.426282404825983
20
2.8827907147011422
30
0
10
93.219597636626062
20
2.8827907147011533
30
0
0
SPLINE
5
511
100
AcDbEntity
8
0
100
AcDbSpline
70
0
71
2
72
6
73
3
74
0
42
0.000000001
43
0.0000000001
44
0.0000000001
40
0
40
0
40
0
40
1
40
1
40
1
10
93.219597636626062
20
2.8827907147011533
30
0
10
93.027237354681787
20
2.8827907147011644
30
0
10
92.857387362883387
20
2.7784253658852553
30
0
0
SPLINE
5
512
100
AcDbEntity
8
0
100
AcDbSpline
70
0
71
2
72
6
73
3
74
0
42
0.000000001
43
0.0000000001
44
0.0000000001
40
0
40
0
40
0
40
1
40
1
40
1
10
92.857387362883387
20
2.7784253658852553
30
0
10
92.687537371084986
20
2.6740594210229007
30
0
10
92.583172022269068
20
2.4632818998894832
30
0
0
SPLINE
5
513
100
AcDbEntity
8
0
100
AcDbSpline
70
0
71
2
72
6
73
3
74
0
42
0.000000001
43
0.0000000001
44
0.0000000001
40
0
40
0
40
0
40
1
40
1
40
1
10
92.583172022269068
20
2.4632818998894832
30
0
10
92.503362595007715
20
2.7354510130486673
30
0
10
92.311002909109888
20
2.8817678989968587
30
0
0
SPLINE
5
514
100
AcDbEntity
8
0
100
AcDbSpline
70
0
71
2
72
6
73
3
74
0
42
0.000000001
43
0.0000000001
44
0.0000000001
40
0
40
0
40
0
40
1
40
1
40
1
10
92.311002909109888
20
2.8817678989968587
30
0
10
92.118642627165613
20
3.0280841888986032
30
0
10
91.856705247328577
20
3.0280841888986187
30
0
0
SPLINE
5
515
100
AcDbEntity
8
0
100
AcDbSpline
70
0
71
2
72
6
73
3
74
0
42
0.000000001
43
0.0000000001
44
0.0000000001
40
0
40
0
40
0
40
1
40
1
40
1
10
91.856705247328577
20
3.0280841888986187
30
0
10
91.645927726195154
20
3.0280841888986321
30
0
10
91.464822589323816
20
2.9390658440194906
30
0
0
SPLINE
5
516
100
AcDbEntity
8
0
100
AcDbSpline
70
0
71
2
72
6
73
3
74
0
42
0.000000001
43
0.0000000001
44
0.0000000001
40
0
40
0
40
0
40
1
40
1
40
1
10
91.464822589323816
20
2.9390658440194906
30
0
10
91.283717452452478
20
2.8500486912332468
30
0
10
91.185491382048426
20
2.719080001314734
30
0
0
SPLINE
5
517
100
AcDbEntity
8
0
100
AcDbSpline
70
0
71
2
72
6
73
3
74
0
42
0.000000001
43
0.0000000001
44
0.0000000001
40
0
40
0
40
0
40
1
40
1
40
1
10
91.185491382048426
20
2.719080001314734
30
0
10
91.087264715597925
20
2.5881113113962217
30
0
10
91.037128268645105
20
2.3906351627908773
30
0
0
SPLINE
5
518
100
AcDbEntity
8
0
100
AcDbSpline
70
0
71
2
72
6
73
3
74
0
42
0.000000001
43
0.0000000001
44
0.0000000001
40
0
40
0
40
0
40
1
40
1
40
1
10
91.037128268645105
20
2.3906351627908773
30
0
10
90.986991821692285
20
2.1931590141855342
30
0
10
90.986991821692285
20
1.9066651167474846
30
0
0
LINE
5
519
100
AcDbEntity
8
0
100
AcDbLine
10
90.986991821692285
20
1.9066651167474846
30
0
11
90.986991821692271
21
0.76273635049687427
31
0
0
LINE
5
520
100
AcDbEntity
8
0
100
AcDbLine
10
92.726418672964854
20
1.159734875162608
30
0
11
92.726418672964854
21
1.8084384502968853
31
0
0
SPLINE
5
521
100
AcDbEntity
8
0
100
AcDbSpline
70
0
71
2
72
6
73
3
74
0
42
0.000000001
43
0.0000000001
44
0.0000000001
40
0
40
0
40
0
40
1
40
1
40
1
10
92.726418672964869
20
1.8084384502968853
30
0
10
92.726418672964869
20
2.0724226536355084
30
0
10
92.761207519934473
20
2.1870197357735677
30
0
0
SPLINE
5
522
100
AcDbEntity
8
0
100
AcDbSpline
70
0
71
2
72
6
73
3
74
0
42
0.000000001
43
0.0000000001
44
0.0000000001
40
0
40
0
40
0
40
1
40
1
40
1
10
92.761207519934473
20
2.1870197357735677
30
0
10
92.806227802202997
20
2.3384524883828171
30
0
10
92.910593449042139
20
2.4151916803917839
30
0
0
SPLINE
5
523
100
AcDbEntity
8
0
100
AcDbSpline
70
0
71
2
72
6
73
3
74
0
42
0.000000001
43
0.0000000001
44
0.0000000001
40
0
40
0
40
0
40
1
40
1
40
1
10
92.910593449042139
20
2.4151916803917839
30
0
10
93.014959095881281
20
2.4919308724007507
30
0
10
93.172530828879175
20
2.4919308724007418
30
0
0
SPLINE
5
524
100
AcDbEntity
8
0
100
AcDbSpline
70
0
71
2
72
6
73
3
74
0
42
0.000000001
43
0.0000000001
44
0.0000000001
40
0
40
0
40
0
40
1
40
1
40
1
10
93.172530828879175
20
2.4919308724007418
30
0
10
93.321916757986841
20
2.491930872400733
30
0
10
93.435491024420557
20
2.4203075470528255
30
0
0
SPLINE
5
525
100
AcDbEntity
8
0
100
AcDbSpline
70
0
71
2
72
6
73
3
74
0
42
0.000000001
43
0.0000000001
44
0.0000000001
40
0
40
0
40
0
40
1
40
1
40
1
10
93.435491024420557
20
2.4203075470528255
30
0
10
93.549065588877497
20
2.3486842217049189
30
0
10
93.591016529963312
20
2.215669304331259
30
0
0
SPLINE
5
526
100
AcDbEntity
8
0
100
AcDbSpline
70
0
71
2
72
6
73
3
74
0
42
0.000000001
43
0.0000000001
44
0.0000000001
40
0
40
0
40
0
40
1
40
1
40
1
10
93.591016529963312
20
2.215669304331259
30
0
10
93.632967173025904
20
2.0826543869576
30
0
10
93.632967173025904
20
1.7593254150948068
30
0
0
LINE
5
527
100
AcDbEntity
8
0
100
AcDbLine
10
93.632967173025904
20
1.7593254150948068
30
0
11
93.632967173025904
21
1.1597348751625558
31
0
0
LINE
5
528
100
AcDbEntity
8
0
100
AcDbLine
10
93.632967173025904
20
1.1597348751625558
30
0
11
92.726418672964854
21
1.159734875162608
31
0
0
LINE
5
529
100
AcDbEntity
8
0
100
AcDbLine
10
91.341016589567943
20
1.1597348751626868
30
0
11
91.341016589567943
21
1.9066651167474646
31
0
0
SPLINE
5
530
100
AcDbEntity
8
0
100
AcDbSpline
70
0
71
2
72
6
73
3
74
0
42
0.000000001
43
0.0000000001
44
0.0000000001
40
0
40
0
40
0
40
1
40
1
40
1
10
91.341016589567957
20
1.9066651167474646
30
0
10
91.341016589567957
20
2.0990253986917393
30
0
10
91.355341373846827
20
2.1767880024515041
30
0
0
SPLINE
5
531
100
AcDbEntity
8
0
100
AcDbSpline
70
0
71
2
72
6
73
3
74
0
42
0.000000001
43
0.0000000001
44
0.0000000001
40
0
40
0
40
0
40
1
40
1
40
1
10
91.355341373846827
20
2.1767880024515041
30
0
10
91.37989789144784
20
2.3138953747354387
30
0
10
91.43719643251687
20
2.4059833588205182
30
0
0
SPLINE
5
532
100
AcDbEntity
8
0
100
AcDbSpline
70
0
71
2
72
6
73
3
74
0
42
0.000000001
43
0.0000000001
44
0.0000000001
40
0
40
0
40
0
40
1
40
1
40
1
10
91.43719643251687
20
2.4059833588205182
30
0
10
91.494494973585901
20
2.4980701508127021
30
0
10
91.603976785109339
20
2.5574155153833136
30
0
0
SPLINE
5
533
100
AcDbEntity
8
0
100
AcDbSpline
70
0
71
2
72
6
73
3
74
0
42
0.000000001
43
0.0000000001
44
0.0000000001
40
0
40
0
40
0
40
1
40
1
40
1
10
91.603976785109339
20
2.5574155153833136
30
0
10
91.713458596632776
20
2.6167608799539255
30
0
10
91.856705247328577
20
2.6167608799539166
30
0
0
SPLINE
5
534
100
AcDbEntity
8
0
100
AcDbSpline
70
0
71
2
72
6
73
3
74
0
42
0.000000001
43
0.0000000001
44
0.0000000001
40
0
40
0
40
0
40
1
40
1
40
1
10
91.856705247328577
20
2.6167608799539166
30
0
10
92.024509011671839
20
2.6167608799539077
30
0
10
92.148315011427698
20
2.5308121742806824
30
0
0
SPLINE
5
535
100
AcDbEntity
8
0
100
AcDbSpline
70
0
71
2
72
6
73
3
74
0
42
0.000000001
43
0.0000000001
44
0.0000000001
40
0
40
0
40
0
40
1
40
1
40
1
10
92.148315011427698
20
2.5308121742806824
30
0
10
92.272121607230005
20
2.444864660700353
30
0
10
92.322258054182825
20
2.2924084963403035
30
0
0
SPLINE
5
536
100
AcDbEntity
8
0
100
AcDbSpline
70
0
71
2
72
6
73
3
74
0
42
0.000000001
43
0.0000000001
44
0.0000000001
40
0
40
0
40
0
40
1
40
1
40
1
10
92.322258054182825
20
2.2924084963403035
30
0
10
92.372394501135645
20
2.1399529280267027
30
0
10
92.372394501135645
20
1.8534590305886534
30
0
0
LINE
5
537
100
AcDbEntity
8
0
100
AcDbLine
10
92.372394501135645
20
1.8534590305886534
30
0
11
92.372394501135645
21
1.159734875162628
31
0
0
LINE
5
538
100
AcDbEntity
8
0
100
AcDbLine
10
92.372394501135645
20
1.159734875162628
30
0
11
91.341016589567943
21
1.1597348751626868
31
0
0
ENDSEC
0
SECTION
2
OBJECTS
0
DICTIONARY
5
C
100
AcDbDictionary
3
ACAD_GROUP
350
D
3
ACAD_MLINESTYLE
350
17
0
DICTIONARY
5
D
100
AcDbDictionary
0
DICTIONARY
5
1A
330
C
100
AcDbDictionary
0
DICTIONARY
5
17
100
AcDbDictionary
0
ENDSEC
0
EOF
