0
SECTION
2
HEADER
9
$INSUNITS
70
4
9
$ACADVER
1
AC1014
9
$HANDSEED
5
FFFF
0
ENDSEC
0
SECTION
2
TABLES
0
TABLE
2
VPORT
5
8
100
AcDbSymbolTable
0
ENDTAB
0
TABLE
2
LTYPE
5
5
100
AcDbSymbolTable
0
LTYPE
5
14
100
AcDbSymbolTableRecord
100
AcDbLinetypeTableRecord
2
BYBLOCK
70
0
0
LTYPE
5
15
100
AcDbSymbolTableRecord
100
AcDbLinetypeTableRecord
2
BYLAYER
70
0
0
ENDTAB
0
TABLE
2
LAYER
5
2
100
AcDbSymbolTable
70
2
0
LAYER
5
50
100
AcDbSymbolTableRecord
100
AcDbLayerTableRecord
2
0
70
0
6
CONTINUOUS
0
ENDTAB
0
TABLE
2
STYLE
5
3
100
AcDbSymbolTable
70
1
0
STYLE
5
11
100
AcDbSymbolTableRecord
100
AcDbTextStyleTableRecord
2
STANDARD
70
0
0
ENDTAB
0
TABLE
2
VIEW
5
6
100
AcDbSymbolTable
70
0
0
ENDTAB
0
TABLE
2
UCS
5
7
100
AcDbSymbolTable
70
0
0
ENDTAB
0
TABLE
2
APPID
5
9
100
AcDbSymbolTable
70
2
0
APPID
5
12
100
AcDbSymbolTableRecord
100
AcDbRegAppTableRecord
2
ACAD
70
0
0
ENDTAB
0
TABLE
2
DIMSTYLE
5
A
100
AcDbSymbolTable
70
1
0
ENDTAB
0
TABLE
2
BLOCK_RECORD
5
1
100
AcDbSymbolTable
70
1
0
BLOCK_RECORD
5
1F
100
AcDbSymbolTableRecord
100
AcDbBlockTableRecord
2
*MODEL_SPACE
0
BLOCK_RECORD
5
1B
100
AcDbSymbolTableRecord
100
AcDbBlockTableRecord
2
*PAPER_SPACE
0
ENDTAB
0
ENDSEC
0
SECTION
2
BLOCKS
0
BLOCK
5
20
100
AcDbEntity
100
AcDbBlockBegin
2
*MODEL_SPACE
0
ENDBLK
5
21
100
AcDbEntity
100
AcDbBlockEnd
0
BLOCK
5
1C
100
AcDbEntity
100
AcDbBlockBegin
2
*PAPER_SPACE
0
ENDBLK
5
1D
100
AcDbEntity
100
AcDbBlockEnd
0
ENDSEC
0
SECTION
2
ENTITIES
0
LWPOLYLINE
5
100
100
AcDbEntity
8
0
100
AcDbPolyline
90
4
70
1
43
0.0
10
411.34703774552941
20
38.200000000008522
10
411.34703774552941
20
18.200000000008512
10
414.54703774552939
20
18.200000000008512
10
414.54703774552939
20
38.200000000008522
0
LWPOLYLINE
5
101
100
AcDbEntity
8
0
100
AcDbPolyline
90
4
70
1
43
0.0
10
414.54703774552939
20
125.00000001485816
10
411.34703774552941
20
125.00000001485816
10
411.34703774552941
20
105.00000001485816
10
414.54703774552939
20
105.00000001485816
0
LWPOLYLINE
5
102
100
AcDbEntity
8
0
100
AcDbPolyline
90
28
70
1
43
0.0
10
442.80703774552933
20
0
10
424.16703774552951
20
0
10
424.16703774552951
20
3.2000000000000028
10
405.52703774552936
20
3.2000000000000028
10
405.52703774552936
20
0
10
386.88703774552943
20
0
10
386.88703774552943
20
3.2000000000000028
10
368.24703774552938
20
3.2000000000000028
10
368.24703774552938
20
140
10
386.88703774552943
20
140
10
386.88703774552943
20
143.19999999999999
10
405.52703774552936
20
143.19999999999999
10
405.52703774552936
20
140
10
424.16703774552951
20
140
10
424.16703774552951
20
143.19999999999999
10
442.80703774552933
20
143.19999999999999
10
442.80703774552933
20
140
10
464.64703774552936
20
140
10
464.64703774552936
20
125
10
461.44703774552937
20
125
10
461.44703774552937
20
79.850000000000009
10
464.64703774552936
20
79.850000000000009
10
464.64703774552936
20
63.350000000000001
10
461.44703774552937
20
63.350000000000001
10
461.44703774552937
20
18.200000000000003
10
464.64703774552936
20
18.200000000000003
10
464.64703774552936
20
3.2000000000000162
10
442.80703774552933
20
3.1999999999999984
0
LWPOLYLINE
5
103
100
AcDbEntity
8
0
100
AcDbPolyline
90
4
70
1
43
0.0
10
417.73046872767594
20
28.383405704449185
10
417.73046872767594
20
132.77083743098095
10
426.25189172576017
20
132.77083743098095
10
426.25189172576017
20
28.383405704449189
0
LWPOLYLINE
5
104
100
AcDbEntity
8
0
100
AcDbPolyline
90
12
70
1
43
0.0
10
425.83224462817259
20
94.950926971760538
10
422.8322445089633
20
94.950926971760538
10
422.8322445089633
20
94.553929043141153
10
424.24629645894117
20
94.553929043141153
10
424.24629645894117
20
92.994583320942667
10
422.8322445089633
20
92.994583320942667
10
422.8322445089633
20
92.597583008137491
10
425.83224462817259
20
92.597583008137491
10
425.83224462817259
20
92.994583320942667
10
424.60032092879362
20
92.994583320942667
10
424.60032092879362
20
94.553929043141153
10
425.83224462817259
20
94.553929043141153
0
SPLINE
5
105
100
AcDbEntity
8
0
100
AcDbSpline
70
0
71
2
72
6
73
3
74
0
42
0.000000001
43
0.0000000001
44
0.0000000001
40
0
40
0
40
0
40
1
40
1
40
1
10
423.91887473414488
20
92.12077922853544
30
0
10
424.52255832503386
20
92.12077922853544
30
0
10
424.81314497540541
20
91.785171699848917
30
0
0
SPLINE
5
106
100
AcDbEntity
8
0
100
AcDbSpline
70
0
71
2
72
6
73
3
74
0
42
0.000000001
43
0.0000000001
44
0.0000000001
40
0
40
0
40
0
40
1
40
1
40
1
10
424.81314497540541
20
91.785171699848917
30
0
10
425.05461844156332
20
91.504815292683389
30
0
10
425.05461844156332
20
91.101678085652139
30
0
0
SPLINE
5
107
100
AcDbEntity
8
0
100
AcDbSpline
70
0
71
2
72
6
73
3
74
0
42
0.000000001
43
0.0000000001
44
0.0000000001
40
0
40
0
40
0
40
1
40
1
40
1
10
425.05461844156332
20
91.101678085652139
30
0
10
425.05461844156332
20
90.65351791414335
30
0
10
424.76096215198584
20
90.36907024416044
30
0
0
SPLINE
5
108
100
AcDbEntity
8
0
100
AcDbSpline
70
0
71
2
72
6
73
3
74
0
42
0.000000001
43
0.0000000001
44
0.0000000001
40
0
40
0
40
0
40
1
40
1
40
1
10
424.76096215198584
20
90.36907024416044
30
0
10
424.46730601141996
20
90.08462257417753
30
0
10
423.94957053015776
20
90.08462257417753
30
0
0
SPLINE
5
109
100
AcDbEntity
8
0
100
AcDbSpline
70
0
71
2
72
6
73
3
74
0
42
0.000000001
43
0.0000000001
44
0.0000000001
40
0
40
0
40
0
40
1
40
1
40
1
10
423.94957053015776
20
90.08462257417753
30
0
10
423.53006171534605
20
90.08462257417753
30
0
10
423.28961151192732
20
90.210478973713663
30
0
0
SPLINE
5
110
100
AcDbEntity
8
0
100
AcDbSpline
70
0
71
2
72
6
73
3
74
0
42
0.000000001
43
0.0000000001
44
0.0000000001
40
0
40
0
40
0
40
1
40
1
40
1
10
423.28961151192732
20
90.210478973713663
30
0
10
423.04916130850859
20
90.336330604878214
30
0
10
422.91614639113493
20
90.576780510273721
30
0
0
SPLINE
5
111
100
AcDbEntity
8
0
100
AcDbSpline
70
0
71
2
72
6
73
3
74
0
42
0.000000001
43
0.0000000001
44
0.0000000001
40
0
40
0
40
0
40
1
40
1
40
1
10
422.91614639113493
20
90.576780510273721
30
0
10
422.78313117573805
20
90.817230415669229
30
0
10
422.78313117573805
20
91.101678085652139
30
0
0
SPLINE
5
112
100
AcDbEntity
8
0
100
AcDbSpline
70
0
71
2
72
6
73
3
74
0
42
0.000000001
43
0.0000000001
44
0.0000000001
40
0
40
0
40
0
40
1
40
1
40
1
10
422.78313117573805
20
91.101678085652139
30
0
10
422.78313117573805
20
91.558020782795694
30
0
10
423.07576435158796
20
91.839397621479776
30
0
0
SPLINE
5
113
100
AcDbEntity
8
0
100
AcDbSpline
70
0
71
2
72
6
73
3
74
0
42
0.000000001
43
0.0000000001
44
0.0000000001
40
0
40
0
40
0
40
1
40
1
40
1
10
423.07576435158796
20
91.839397621479776
30
0
10
423.36839722941465
20
92.12077922853544
30
0
10
423.91887473414488
20
92.12077922853544
30
0
0
SPLINE
5
114
100
AcDbEntity
8
0
100
AcDbSpline
70
0
71
2
72
6
73
3
74
0
42
0.000000001
43
0.0000000001
44
0.0000000001
40
0
40
0
40
0
40
1
40
1
40
1
10
423.91887473414488
20
91.742194366780069
30
0
10
423.50141244481154
20
91.742194366780069
30
0
10
423.29370426486082
20
91.560066414204385
30
0
0
SPLINE
5
115
100
AcDbEntity
8
0
100
AcDbSpline
70
0
71
2
72
6
73
3
74
0
42
0.000000001
43
0.0000000001
44
0.0000000001
40
0
40
0
40
0
40
1
40
1
40
1
10
423.29370426486082
20
91.560066414204385
30
0
10
423.08599608491011
20
91.377938461628702
30
0
10
423.08599608491011
20
91.101678085652139
30
0
0
SPLINE
5
116
100
AcDbEntity
8
0
100
AcDbSpline
70
0
71
2
72
6
73
3
74
0
42
0.000000001
43
0.0000000001
44
0.0000000001
40
0
40
0
40
0
40
1
40
1
40
1
10
423.08599608491011
20
91.101678085652139
30
0
10
423.08599608491011
20
90.827463341084268
30
0
10
423.29472737858839
20
90.645335388508585
30
0
0
SPLINE
5
117
100
AcDbEntity
8
0
100
AcDbSpline
70
0
71
2
72
6
73
3
74
0
42
0.000000001
43
0.0000000001
44
0.0000000001
40
0
40
0
40
0
40
1
40
1
40
1
10
423.29472737858839
20
90.645335388508585
30
0
10
423.50345867226667
20
90.463207435932901
30
0
10
423.93115299294539
20
90.463207435932901
30
0
0
SPLINE
5
118
100
AcDbEntity
8
0
100
AcDbSpline
70
0
71
2
72
6
73
3
74
0
42
0.000000001
43
0.0000000001
44
0.0000000001
40
0
40
0
40
0
40
1
40
1
40
1
10
423.93115299294539
20
90.463207435932901
30
0
10
424.33429079602308
20
90.463207435932901
30
0
10
424.5419989759738
20
90.646355820027139
30
0
0
SPLINE
5
119
100
AcDbEntity
8
0
100
AcDbSpline
70
0
71
2
72
6
73
3
74
0
42
0.000000001
43
0.0000000001
44
0.0000000001
40
0
40
0
40
0
40
1
40
1
40
1
10
424.5419989759738
20
90.646355820027139
30
0
10
424.7497070069129
20
90.82950897249296
30
0
10
424.7497070069129
20
91.101678085652139
30
0
0
SPLINE
5
120
100
AcDbEntity
8
0
100
AcDbSpline
70
0
71
2
72
6
73
3
74
0
42
0.000000001
43
0.0000000001
44
0.0000000001
40
0
40
0
40
0
40
1
40
1
40
1
10
424.7497070069129
20
91.101678085652139
30
0
10
424.7497070069129
20
91.377938461628702
30
0
10
424.54302208970137
20
91.560066414204385
30
0
0
SPLINE
5
121
100
AcDbEntity
8
0
100
AcDbSpline
70
0
71
2
72
6
73
3
74
0
42
0.000000001
43
0.0000000001
44
0.0000000001
40
0
40
0
40
0
40
1
40
1
40
1
10
424.54302208970137
20
91.560066414204385
30
0
10
424.33633732150145
20
91.742194366780069
30
0
10
423.91887473414488
20
91.742194366780069
30
0
0
LINE
5
122
100
AcDbEntity
8
0
100
AcDbLine
10
422.8322445089633
20
88.228553009358194
30
0
11
423.15148042986937
21
88.228553009358194
31
0
0
SPLINE
5
123
100
AcDbEntity
8
0
100
AcDbSpline
70
0
71
2
72
6
73
3
74
0
42
0.000000001
43
0.0000000001
44
0.0000000001
40
0
40
0
40
0
40
1
40
1
40
1
10
423.15148042986937
20
88.228553009358194
30
0
10
422.78313117573805
20
88.482306671467569
30
0
10
422.78313117573805
20
88.918183517781046
30
0
0
SPLINE
5
124
100
AcDbEntity
8
0
100
AcDbSpline
70
0
71
2
72
6
73
3
74
0
42
0.000000001
43
0.0000000001
44
0.0000000001
40
0
40
0
40
0
40
1
40
1
40
1
10
422.78313117573805
20
88.918183517781046
30
0
10
422.78313117573805
20
89.110544395771768
30
0
10
422.85680102656431
20
89.277327728596475
30
0
0
SPLINE
5
125
100
AcDbEntity
8
0
100
AcDbSpline
70
0
71
2
72
6
73
3
74
0
42
0.000000001
43
0.0000000001
44
0.0000000001
40
0
40
0
40
0
40
1
40
1
40
1
10
422.85680102656431
20
89.277327728596475
30
0
10
422.93047087739058
20
89.4441062930496
30
0
10
423.04199891636915
20
89.524939728108194
30
0
0
SPLINE
5
126
100
AcDbEntity
8
0
100
AcDbSpline
70
0
71
2
72
6
73
3
74
0
42
0.000000001
43
0.0000000001
44
0.0000000001
40
0
40
0
40
0
40
1
40
1
40
1
10
423.04199891636915
20
89.524939728108194
30
0
10
423.15352695534773
20
89.605768394795206
30
0
10
423.31519144127913
20
89.638512802449014
30
0
0
SPLINE
5
127
100
AcDbEntity
8
0
100
AcDbSpline
70
0
71
2
72
6
73
3
74
0
42
0.000000001
43
0.0000000001
44
0.0000000001
40
0
40
0
40
0
40
1
40
1
40
1
10
423.31519144127913
20
89.638512802449014
30
0
10
423.42364984105177
20
89.661024284687784
30
0
10
423.65898387978621
20
89.661024284687784
30
0
0
LINE
5
128
100
AcDbEntity
8
0
100
AcDbLine
10
423.65898387978626
20
89.661024284687784
30
0
11
425.00550510833807
21
89.661024284687784
31
0
0
LINE
5
129
100
AcDbEntity
8
0
100
AcDbLine
10
425.00550510833807
20
89.661024284687784
30
0
11
425.00550510833807
21
89.292672348347452
31
0
0
LINE
5
130
100
AcDbEntity
8
0
100
AcDbLine
10
425.00550510833807
20
89.292672348347452
30
0
11
423.80018430302687
21
89.292672348347452
31
0
0
SPLINE
5
131
100
AcDbEntity
8
0
100
AcDbSpline
70
0
71
2
72
6
73
3
74
0
42
0.000000001
43
0.0000000001
44
0.0000000001
40
0
40
0
40
0
40
1
40
1
40
1
10
423.80018430302687
20
89.292672348347452
30
0
10
423.51164417813368
20
89.292672348347452
30
0
10
423.41137128422804
20
89.270165634480264
30
0
0
SPLINE
5
132
100
AcDbEntity
8
0
100
AcDbSpline
70
0
71
2
72
6
73
3
74
0
42
0.000000001
43
0.0000000001
44
0.0000000001
40
0
40
0
40
0
40
1
40
1
40
1
10
423.41137128422804
20
89.270165634480264
30
0
10
423.26607810805388
20
89.235375595417764
30
0
10
423.18319963763304
20
89.122822952595499
30
0
0
SPLINE
5
133
100
AcDbEntity
8
0
100
AcDbSpline
70
0
71
2
72
6
73
3
74
0
42
0.000000001
43
0.0000000001
44
0.0000000001
40
0
40
0
40
0
40
1
40
1
40
1
10
423.18319963763304
20
89.122822952595499
30
0
10
423.10032086918898
20
89.010270309773233
30
0
10
423.10032086918898
20
88.844516945210245
30
0
0
SPLINE
5
134
100
AcDbEntity
8
0
100
AcDbSpline
70
0
71
2
72
6
73
3
74
0
42
0.000000001
43
0.0000000001
44
0.0000000001
40
0
40
0
40
0
40
1
40
1
40
1
10
423.10032086918898
20
88.844516945210245
30
0
10
423.10032086918898
20
88.678758812275674
30
0
10
423.18524586508818
20
88.533466530171182
30
0
0
SPLINE
5
135
100
AcDbEntity
8
0
100
AcDbSpline
70
0
71
2
72
6
73
3
74
0
42
0.000000001
43
0.0000000001
44
0.0000000001
40
0
40
0
40
0
40
1
40
1
40
1
10
423.18524586508818
20
88.533466530171182
30
0
10
423.27017086098738
20
88.388169479695108
30
0
10
423.41648744891233
20
88.327801895466592
30
0
0
SPLINE
5
136
100
AcDbEntity
8
0
100
AcDbSpline
70
0
71
2
72
6
73
3
74
0
42
0.000000001
43
0.0000000001
44
0.0000000001
40
0
40
0
40
0
40
1
40
1
40
1
10
423.41648744891233
20
88.327801895466592
30
0
10
423.56280373881407
20
88.267434311238077
30
0
10
423.84111213038511
20
88.267434311238077
30
0
0
LINE
5
137
100
AcDbEntity
8
0
100
AcDbLine
10
423.84111213038511
20
88.267434311238077
30
0
11
425.00550510833807
21
88.267434311238077
31
0
0
LINE
5
138
100
AcDbEntity
8
0
100
AcDbLine
10
425.00550510833807
20
88.267434311238077
30
0
11
425.00550510833807
21
87.899087143269327
31
0
0
LINE
5
139
100
AcDbEntity
8
0
100
AcDbLine
10
425.00550510833807
20
87.899087143269327
30
0
11
422.8322445089633
21
87.899087143269327
31
0
0
LINE
5
140
100
AcDbEntity
8
0
100
AcDbLine
10
422.8322445089633
20
87.899087143269327
30
0
11
422.8322445089633
21
88.228553009358194
31
0
0
LINE
5
141
100
AcDbEntity
8
0
100
AcDbLine
10
423.4809483821208
20
87.469342422810342
30
0
11
423.53824722121306
21
87.105086517658975
31
0
0
SPLINE
5
142
100
AcDbEntity
8
0
100
AcDbSpline
70
0
71
2
72
6
73
3
74
0
42
0.000000001
43
0.0000000001
44
0.0000000001
40
0
40
0
40
0
40
1
40
1
40
1
10
423.53824722121306
20
87.105086517658975
30
0
10
423.31928419421263
20
87.07439250978544
30
0
10
423.20264028857298
20
86.934216690388467
30
0
0
SPLINE
5
143
100
AcDbEntity
8
0
100
AcDbSpline
70
0
71
2
72
6
73
3
74
0
42
0.000000001
43
0.0000000001
44
0.0000000001
40
0
40
0
40
0
40
1
40
1
40
1
10
423.20264028857298
20
86.934216690388467
30
0
10
423.08599608491011
20
86.794036102619913
30
0
10
423.08599608491011
20
86.542332840290811
30
0
0
SPLINE
5
144
100
AcDbEntity
8
0
100
AcDbSpline
70
0
71
2
72
6
73
3
74
0
42
0.000000001
43
0.0000000001
44
0.0000000001
40
0
40
0
40
0
40
1
40
1
40
1
10
423.08599608491011
20
86.542332840290811
30
0
10
423.08599608491011
20
86.288579178181436
30
0
10
423.18933861802168
20
86.165798378315714
30
0
0
SPLINE
5
145
100
AcDbEntity
8
0
100
AcDbSpline
70
0
71
2
72
6
73
3
74
0
42
0.000000001
43
0.0000000001
44
0.0000000001
40
0
40
0
40
0
40
1
40
1
40
1
10
423.18933861802168
20
86.165798378315714
30
0
10
423.29268115113325
20
86.043012810078409
30
0
10
423.43183534691877
20
86.043012810078409
30
0
0
SPLINE
5
146
100
AcDbEntity
8
0
100
AcDbSpline
70
0
71
2
72
6
73
3
74
0
42
0.000000001
43
0.0000000001
44
0.0000000001
40
0
40
0
40
0
40
1
40
1
40
1
10
423.43183534691877
20
86.043012810078409
30
0
10
423.55666475842543
20
86.043012810078409
30
0
10
423.62828808377333
20
86.151474190083292
30
0
0
SPLINE
5
147
100
AcDbEntity
8
0
100
AcDbSpline
70
0
71
2
72
6
73
3
74
0
42
0.000000001
43
0.0000000001
44
0.0000000001
40
0
40
0
40
0
40
1
40
1
40
1
10
423.62828808377333
20
86.151474190083292
30
0
10
423.67740141699858
20
86.227191162434366
30
0
10
423.75311749527998
20
86.528008652058389
30
0
0
SPLINE
5
148
100
AcDbEntity
8
0
100
AcDbSpline
70
0
71
2
72
6
73
3
74
0
42
0.000000001
43
0.0000000001
44
0.0000000001
40
0
40
0
40
0
40
1
40
1
40
1
10
423.75311749527998
20
86.528008652058389
30
0
10
423.85543691466398
20
86.933191490498331
30
0
10
423.93012987921782
20
87.089741897907999
30
0
0
SPLINE
5
149
100
AcDbEntity
8
0
100
AcDbSpline
70
0
71
2
72
6
73
3
74
0
42
0.000000001
43
0.0000000001
44
0.0000000001
40
0
40
0
40
0
40
1
40
1
40
1
10
423.93012987921782
20
87.089741897907999
30
0
10
424.00482284377165
20
87.246287536946085
30
0
10
424.13681464741774
20
87.327120972004678
30
0
0
SPLINE
5
150
100
AcDbEntity
8
0
100
AcDbSpline
70
0
71
2
72
6
73
3
74
0
42
0.000000001
43
0.0000000001
44
0.0000000001
40
0
40
0
40
0
40
1
40
1
40
1
10
424.13681464741774
20
87.327120972004678
30
0
10
424.26880674908705
20
87.407954407063272
30
0
10
424.42842470954008
20
87.407954407063272
30
0
0
SPLINE
5
151
100
AcDbEntity
8
0
100
AcDbSpline
70
0
71
2
72
6
73
3
74
0
42
0.000000001
43
0.0000000001
44
0.0000000001
40
0
40
0
40
0
40
1
40
1
40
1
10
424.42842470954008
20
87.407954407063272
30
0
10
424.57371803472586
20
87.407954407063272
30
0
10
424.69752433250494
20
87.3414451602371
30
0
0
SPLINE
5
152
100
AcDbEntity
8
0
100
AcDbSpline
70
0
71
2
72
6
73
3
74
0
42
0.000000001
43
0.0000000001
44
0.0000000001
40
0
40
0
40
0
40
1
40
1
40
1
10
424.69752433250494
20
87.3414451602371
30
0
10
424.82133048127241
20
87.274935913410928
30
0
10
424.90318598697729
20
87.160342407551553
30
0
0
SPLINE
5
153
100
AcDbEntity
8
0
100
AcDbSpline
70
0
71
2
72
6
73
3
74
0
42
0.000000001
43
0.0000000001
44
0.0000000001
40
0
40
0
40
0
40
1
40
1
40
1
10
424.90318598697729
20
87.160342407551553
30
0
10
424.96662380645819
20
87.07439250978544
30
0
10
425.01062112401075
20
86.92602939638212
30
0
0
SPLINE
5
154
100
AcDbEntity
8
0
100
AcDbSpline
70
0
71
2
72
6
73
3
74
0
42
0.000000001
43
0.0000000001
44
0.0000000001
40
0
40
0
40
0
40
1
40
1
40
1
10
425.01062112401075
20
86.92602939638212
30
0
10
425.05461844156332
20
86.777666282978799
30
0
10
425.05461844156332
20
86.607816887226846
30
0
0
SPLINE
5
155
100
AcDbEntity
8
0
100
AcDbSpline
70
0
71
2
72
6
73
3
74
0
42
0.000000001
43
0.0000000001
44
0.0000000001
40
0
40
0
40
0
40
1
40
1
40
1
10
425.05461844156332
20
86.607816887226846
30
0
10
425.05461844156332
20
86.35201759370878
30
0
10
424.98094859073706
20
86.158636284199503
30
0
0
SPLINE
5
156
100
AcDbEntity
8
0
100
AcDbSpline
70
0
71
2
72
6
73
3
74
0
42
0.000000001
43
0.0000000001
44
0.0000000001
40
0
40
0
40
0
40
1
40
1
40
1
10
424.98094859073706
20
86.158636284199503
30
0
10
424.90727873991079
20
85.965250206318643
30
0
10
424.78142606566496
20
85.873163414326456
30
0
0
SPLINE
5
157
100
AcDbEntity
8
0
100
AcDbSpline
70
0
71
2
72
6
73
3
74
0
42
0.000000001
43
0.0000000001
44
0.0000000001
40
0
40
0
40
0
40
1
40
1
40
1
10
424.78142606566496
20
85.873163414326456
30
0
10
424.65557339141913
20
85.781076622334268
30
0
10
424.44479572127409
20
85.746286583271768
30
0
0
LINE
5
158
100
AcDbEntity
8
0
100
AcDbLine
10
424.44479572127398
20
85.746286583271768
30
0
11
424.39568238804884
21
86.106451225605753
31
0
0
SPLINE
5
159
100
AcDbEntity
8
0
100
AcDbSpline
70
0
71
2
72
6
73
3
74
0
42
0.000000001
43
0.0000000001
44
0.0000000001
40
0
40
0
40
0
40
1
40
1
40
1
10
424.39568238804884
20
86.106451225605753
30
0
10
424.56348600338049
20
86.131008339253214
30
0
10
424.65761976788588
20
86.248677444782999
30
0
0
SPLINE
5
160
100
AcDbEntity
8
0
100
AcDbSpline
70
0
71
2
72
6
73
3
74
0
42
0.000000001
43
0.0000000001
44
0.0000000001
40
0
40
0
40
0
40
1
40
1
40
1
10
424.65761976788588
20
86.248677444782999
30
0
10
424.75175353239126
20
86.366341781941202
30
0
10
424.75175353239126
20
86.581214142170694
30
0
0
SPLINE
5
161
100
AcDbEntity
8
0
100
AcDbSpline
70
0
71
2
72
6
73
3
74
0
42
0.000000001
43
0.0000000001
44
0.0000000001
40
0
40
0
40
0
40
1
40
1
40
1
10
424.75175353239126
20
86.581214142170694
30
0
10
424.75175353239126
20
86.834963035908487
30
0
10
424.66785165021963
20
86.94342441591337
30
0
0
SPLINE
5
162
100
AcDbEntity
8
0
100
AcDbSpline
70
0
71
2
72
6
73
3
74
0
42
0.000000001
43
0.0000000001
44
0.0000000001
40
0
40
0
40
0
40
1
40
1
40
1
10
424.66785165021963
20
86.94342441591337
30
0
10
424.58394991705961
20
87.051881027546671
30
0
10
424.47139876435347
20
87.051881027546671
30
0
0
SPLINE
5
163
100
AcDbEntity
8
0
100
AcDbSpline
70
0
71
2
72
6
73
3
74
0
42
0.000000001
43
0.0000000001
44
0.0000000001
40
0
40
0
40
0
40
1
40
1
40
1
10
424.47139876435347
20
87.051881027546671
30
0
10
424.39977543900557
20
87.051881027546671
30
0
10
424.34247630189009
20
87.006862831440714
30
0
0
SPLINE
5
164
100
AcDbEntity
8
0
100
AcDbSpline
70
0
71
2
72
6
73
3
74
0
42
0.000000001
43
0.0000000001
44
0.0000000001
40
0
40
0
40
0
40
1
40
1
40
1
10
424.34247630189009
20
87.006862831440714
30
0
10
424.28313153336592
20
86.961839866963174
30
0
10
424.24425023148603
20
86.865661812153604
30
0
0
SPLINE
5
165
100
AcDbEntity
8
0
100
AcDbSpline
70
0
71
2
72
6
73
3
74
0
42
0.000000001
43
0.0000000001
44
0.0000000001
40
0
40
0
40
0
40
1
40
1
40
1
10
424.24425023148603
20
86.865661812153604
30
0
10
424.2237861687953
20
86.810410690632608
30
0
10
424.15011631796904
20
86.54028720888212
30
0
0
SPLINE
5
166
100
AcDbEntity
8
0
100
AcDbSpline
70
0
71
2
72
6
73
3
74
0
42
0.000000001
43
0.0000000001
44
0.0000000001
40
0
40
0
40
0
40
1
40
1
40
1
10
424.15011631796904
20
86.54028720888212
30
0
10
424.04575067112989
20
86.1494285586746
30
0
10
423.97924321244307
20
85.994923782673624
30
0
0
SPLINE
5
167
100
AcDbEntity
8
0
100
AcDbSpline
70
0
71
2
72
6
73
3
74
0
42
0.000000001
43
0.0000000001
44
0.0000000001
40
0
40
0
40
0
40
1
40
1
40
1
10
423.97924321244307
20
85.994923782673624
30
0
10
423.91273575375624
20
85.840423775044229
30
0
10
423.78585981677122
20
85.752428245869424
30
0
0
SPLINE
5
168
100
AcDbEntity
8
0
100
AcDbSpline
70
0
71
2
72
6
73
3
74
0
42
0.000000001
43
0.0000000001
44
0.0000000001
40
0
40
0
40
0
40
1
40
1
40
1
10
423.78585981677122
20
85.752428245869424
30
0
10
423.65898387978621
20
85.66443271669462
30
0
10
423.47071664879866
20
85.66443271669462
30
0
0
SPLINE
5
169
100
AcDbEntity
8
0
100
AcDbSpline
70
0
71
2
72
6
73
3
74
0
42
0.000000001
43
0.0000000001
44
0.0000000001
40
0
40
0
40
0
40
1
40
1
40
1
10
423.47071664879866
20
85.66443271669462
30
0
10
423.28654187272139
20
85.66443271669462
30
0
10
423.12385427306242
20
85.771868896809366
30
0
0
SPLINE
5
170
100
AcDbEntity
8
0
100
AcDbSpline
70
0
71
2
72
6
73
3
74
0
42
0.000000001
43
0.0000000001
44
0.0000000001
40
0
40
0
40
0
40
1
40
1
40
1
10
423.12385427306242
20
85.771868896809366
30
0
10
422.96116667340345
20
85.879305076924112
30
0
10
422.87214892457075
20
86.081894111958292
30
0
0
SPLINE
5
171
100
AcDbEntity
8
0
100
AcDbSpline
70
0
71
2
72
6
73
3
74
0
42
0.000000001
43
0.0000000001
44
0.0000000001
40
0
40
0
40
0
40
1
40
1
40
1
10
422.87214892457075
20
86.081894111958292
30
0
10
422.78313117573805
20
86.284487915364053
30
0
10
422.78313117573805
20
86.54028720888212
30
0
0
SPLINE
5
172
100
AcDbEntity
8
0
100
AcDbSpline
70
0
71
2
72
6
73
3
74
0
42
0.000000001
43
0.0000000001
44
0.0000000001
40
0
40
0
40
0
40
1
40
1
40
1
10
422.78313117573805
20
86.54028720888212
30
0
10
422.78313117573805
20
86.963885498371866
30
0
10
422.95912044594832
20
87.185919952717569
30
0
0
SPLINE
5
173
100
AcDbEntity
8
0
100
AcDbSpline
70
0
71
2
72
6
73
3
74
0
42
0.000000001
43
0.0000000001
44
0.0000000001
40
0
40
0
40
0
40
1
40
1
40
1
10
422.95912044594832
20
87.185919952717569
30
0
10
423.13510941813536
20
87.407954407063272
30
0
10
423.4809483821208
20
87.469342422810342
30
0
0
LWPOLYLINE
5
174
100
AcDbEntity
8
0
100
AcDbPolyline
90
4
70
1
43
0.0
10
425.83224462817259
20
85.224459839192178
10
425.40864306042738
20
85.224459839192178
10
425.40864306042738
20
84.856112671223428
10
425.83224462817259
20
84.856112671223428
0
LWPOLYLINE
5
175
100
AcDbEntity
8
0
100
AcDbPolyline
90
4
70
1
43
0.0
10
425.00550510833807
20
85.224459839192178
10
422.8322445089633
20
85.224459839192178
10
422.8322445089633
20
84.856112671223428
10
425.00550510833807
20
84.856112671223428
0
LINE
5
176
100
AcDbEntity
8
0
100
AcDbLine
10
422.8322445089633
20
84.295399856892374
30
0
11
425.00550510833807
21
84.295399856892374
31
0
0
LINE
5
177
100
AcDbEntity
8
0
100
AcDbLine
10
425.00550510833807
20
84.295399856892374
30
0
11
425.00550510833807
21
83.963888359394815
31
0
0
LINE
5
178
100
AcDbEntity
8
0
100
AcDbLine
10
425.00550510833807
20
83.963888359394815
30
0
11
424.69650106976576
21
83.963888359394815
31
0
0
SPLINE
5
179
100
AcDbEntity
8
0
100
AcDbSpline
70
0
71
2
72
6
73
3
74
0
42
0.000000001
43
0.0000000001
44
0.0000000001
40
0
40
0
40
0
40
1
40
1
40
1
10
424.69650106976576
20
83.963888359394815
30
0
10
425.05461829255171
20
83.724463653889444
30
0
10
425.05461829255171
20
83.272212219563272
30
0
0
SPLINE
5
180
100
AcDbEntity
8
0
100
AcDbSpline
70
0
71
2
72
6
73
3
74
0
42
0.000000001
43
0.0000000001
44
0.0000000001
40
0
40
0
40
0
40
1
40
1
40
1
10
425.05461829255171
20
83.272212219563272
30
0
10
425.05461829255171
20
83.075755310383585
30
0
10
424.98401808093138
20
82.911022377339151
30
0
0
SPLINE
5
181
100
AcDbEntity
8
0
100
AcDbSpline
70
0
71
2
72
6
73
3
74
0
42
0.000000001
43
0.0000000001
44
0.0000000001
40
0
40
0
40
0
40
1
40
1
40
1
10
424.98401808093138
20
82.911022377339151
30
0
10
424.91341786931105
20
82.746289444294717
30
0
10
424.79882019112654
20
82.664435577717569
30
0
0
SPLINE
5
182
100
AcDbEntity
8
0
100
AcDbSpline
70
0
71
2
72
6
73
3
74
0
42
0.000000001
43
0.0000000001
44
0.0000000001
40
0
40
0
40
0
40
1
40
1
40
1
10
424.79882019112654
20
82.664435577717569
30
0
10
424.68422266195364
20
82.582576942768839
30
0
10
424.52665107796736
20
82.549837303486612
30
0
0
SPLINE
5
183
100
AcDbEntity
8
0
100
AcDbSpline
70
0
71
2
72
6
73
3
74
0
42
0.000000001
43
0.0000000001
44
0.0000000001
40
0
40
0
40
0
40
1
40
1
40
1
10
424.52665107796736
20
82.549837303486612
30
0
10
424.42433195660658
20
82.529371452656534
30
0
10
424.16853385518141
20
82.529371452656534
30
0
0
LINE
5
184
100
AcDbEntity
8
0
100
AcDbLine
10
424.16853385518141
20
82.529371452656534
30
0
11
422.8322445089633
21
82.529371452656534
31
0
0
LINE
5
185
100
AcDbEntity
8
0
100
AcDbLine
10
422.8322445089633
20
82.529371452656534
30
0
11
422.8322445089633
21
82.897723388996866
31
0
0
LINE
5
186
100
AcDbEntity
8
0
100
AcDbLine
10
422.8322445089633
20
82.897723388996866
30
0
11
424.15420907090254
21
82.897723388996866
31
0
0
SPLINE
5
187
100
AcDbEntity
8
0
100
AcDbSpline
70
0
71
2
72
6
73
3
74
0
42
0.000000001
43
0.0000000001
44
0.0000000001
40
0
40
0
40
0
40
1
40
1
40
1
10
424.15420907090254
20
82.897723388996866
30
0
10
424.37931137631483
20
82.897723388996866
30
0
10
424.49083941529341
20
82.940695953694132
30
0
0
SPLINE
5
188
100
AcDbEntity
8
0
100
AcDbSpline
70
0
71
2
72
6
73
3
74
0
42
0.000000001
43
0.0000000001
44
0.0000000001
40
0
40
0
40
0
40
1
40
1
40
1
10
424.49083941529341
20
82.940695953694132
30
0
10
424.60236730526037
20
82.983668518391397
30
0
10
424.6688747639472
20
83.093150329914835
30
0
0
SPLINE
5
189
100
AcDbEntity
8
0
100
AcDbSpline
70
0
71
2
72
6
73
3
74
0
42
0.000000001
43
0.0000000001
44
0.0000000001
40
0
40
0
40
0
40
1
40
1
40
1
10
424.6688747639472
20
83.093150329914835
30
0
10
424.73538237164564
20
83.202632141438272
30
0
10
424.73538237164564
20
83.349974823323038
30
0
0
SPLINE
5
190
100
AcDbEntity
8
0
100
AcDbSpline
70
0
71
2
72
6
73
3
74
0
42
0.000000001
43
0.0000000001
44
0.0000000001
40
0
40
0
40
0
40
1
40
1
40
1
10
424.73538237164564
20
83.349974823323038
30
0
10
424.73538237164564
20
83.585308266011026
30
0
10
424.58599629352636
20
83.756178093281534
30
0
0
SPLINE
5
191
100
AcDbEntity
8
0
100
AcDbSpline
70
0
71
2
72
6
73
3
74
0
42
0.000000001
43
0.0000000001
44
0.0000000001
40
0
40
0
40
0
40
1
40
1
40
1
10
424.58599629352636
20
83.756178093281534
30
0
10
424.43661021540709
20
83.927052688923624
30
0
10
424.01914762805052
20
83.927052688923624
30
0
0
LINE
5
192
100
AcDbEntity
8
0
100
AcDbLine
10
424.01914762805052
20
83.927052688923624
30
0
11
422.8322445089633
21
83.927052688923624
31
0
0
LINE
5
193
100
AcDbEntity
8
0
100
AcDbLine
10
422.8322445089633
20
83.927052688923624
30
0
11
422.8322445089633
21
84.295399856892374
31
0
0
LINE
5
194
100
AcDbEntity
8
0
100
AcDbLine
10
422.65216248581953
20
82.032101822224405
30
0
11
422.598956697684
21
81.673982811299112
31
0
0
SPLINE
5
195
100
AcDbEntity
8
0
100
AcDbSpline
70
0
71
2
72
6
73
3
74
0
42
0.000000001
43
0.0000000001
44
0.0000000001
40
0
40
0
40
0
40
1
40
1
40
1
10
422.598956697684
20
81.673982811299112
30
0
10
422.4331994588191
20
81.651471329060342
30
0
10
422.35748308251448
20
81.549151611653116
30
0
0
SPLINE
5
196
100
AcDbEntity
8
0
100
AcDbSpline
70
0
71
2
72
6
73
3
74
0
42
0.000000001
43
0.0000000001
44
0.0000000001
40
0
40
0
40
0
40
1
40
1
40
1
10
422.35748308251448
20
81.549151611653116
30
0
10
422.2551639611537
20
81.412046623554971
30
0
10
422.2551639611537
20
81.17466278108671
30
0
0
SPLINE
5
197
100
AcDbEntity
8
0
100
AcDbSpline
70
0
71
2
72
6
73
3
74
0
42
0.000000001
43
0.0000000001
44
0.0000000001
40
0
40
0
40
0
40
1
40
1
40
1
10
422.2551639611537
20
81.17466278108671
30
0
10
422.2551639611537
20
80.918868255940225
30
0
10
422.35748308251448
20
80.779712868061807
30
0
0
SPLINE
5
198
100
AcDbEntity
8
0
100
AcDbSpline
70
0
71
2
72
6
73
3
74
0
42
0.000000001
43
0.0000000001
44
0.0000000001
40
0
40
0
40
0
40
1
40
1
40
1
10
422.35748308251448
20
80.779712868061807
30
0
10
422.45980250189848
20
80.640557480183389
30
0
10
422.64397697995253
20
80.591443252888467
30
0
0
SPLINE
5
199
100
AcDbEntity
8
0
100
AcDbSpline
70
0
71
2
72
6
73
3
74
0
42
0.000000001
43
0.0000000001
44
0.0000000001
40
0
40
0
40
0
40
1
40
1
40
1
10
422.64397697995253
20
80.591443252888467
30
0
10
422.7565284306819
20
80.562794876423624
30
0
10
423.11669188092299
20
80.564840507832315
30
0
0
SPLINE
5
200
100
AcDbEntity
8
0
100
AcDbSpline
70
0
71
2
72
6
73
3
74
0
42
0.000000001
43
0.0000000001
44
0.0000000001
40
0
40
0
40
0
40
1
40
1
40
1
10
423.11669188092299
20
80.564840507832315
30
0
10
422.8322445089633
20
80.80631561311796
30
0
10
422.8322445089633
20
81.166480255451944
30
0
0
SPLINE
5
201
100
AcDbEntity
8
0
100
AcDbSpline
70
0
71
2
72
6
73
3
74
0
42
0.000000001
43
0.0000000001
44
0.0000000001
40
0
40
0
40
0
40
1
40
1
40
1
10
422.8322445089633
20
81.166480255451944
30
0
10
422.8322445089633
20
81.614635658589151
30
0
10
423.15557318280287
20
81.860202026692178
30
0
0
SPLINE
5
202
100
AcDbEntity
8
0
100
AcDbSpline
70
0
71
2
72
6
73
3
74
0
42
0.000000001
43
0.0000000001
44
0.0000000001
40
0
40
0
40
0
40
1
40
1
40
1
10
423.15557318280287
20
81.860202026692178
30
0
10
423.47890215466566
20
82.105768394795206
30
0
10
423.93115299294539
20
82.105768394795206
30
0
0
SPLINE
5
203
100
AcDbEntity
8
0
100
AcDbSpline
70
0
71
2
72
6
73
3
74
0
42
0.000000001
43
0.0000000001
44
0.0000000001
40
0
40
0
40
0
40
1
40
1
40
1
10
423.93115299294539
20
82.105768394795206
30
0
10
424.24220340798445
20
82.105768394795206
30
0
10
424.50516419957228
20
81.993220520344522
30
0
0
SPLINE
5
204
100
AcDbEntity
8
0
100
AcDbSpline
70
0
71
2
72
6
73
3
74
0
42
0.000000001
43
0.0000000001
44
0.0000000001
40
0
40
0
40
0
40
1
40
1
40
1
10
424.50516419957228
20
81.993220520344522
30
0
10
424.76812454412527
20
81.880667877522257
30
0
10
424.9113714928443
20
81.666820717182901
30
0
0
SPLINE
5
205
100
AcDbEntity
8
0
100
AcDbSpline
70
0
71
2
72
6
73
3
74
0
42
0.000000001
43
0.0000000001
44
0.0000000001
40
0
40
0
40
0
40
1
40
1
40
1
10
424.9113714928443
20
81.666820717182901
30
0
10
425.05461844156332
20
81.452973556843546
30
0
10
425.05461844156332
20
81.164429855671671
30
0
0
SPLINE
5
206
100
AcDbEntity
8
0
100
AcDbSpline
70
0
71
2
72
6
73
3
74
0
42
0.000000001
43
0.0000000001
44
0.0000000001
40
0
40
0
40
0
40
1
40
1
40
1
10
425.05461844156332
20
81.164429855671671
30
0
10
425.05461844156332
20
80.779712868061807
30
0
10
424.74356772850103
20
80.530055237141397
30
0
0
LINE
5
207
100
AcDbEntity
8
0
100
AcDbLine
10
424.74356772850103
20
80.530055237141369
30
0
11
425.00550510833807
21
80.530055237141397
31
0
0
LINE
5
208
100
AcDbEntity
8
0
100
AcDbLine
10
425.00550510833807
20
80.530055237141397
30
0
11
425.00550510833807
21
80.190356445637491
31
0
0
LINE
5
209
100
AcDbEntity
8
0
100
AcDbLine
10
425.00550510833807
20
80.190356445637491
30
0
11
423.12692391226835
21
80.190356445637491
31
0
0
SPLINE
5
210
100
AcDbEntity
8
0
100
AcDbSpline
70
0
71
2
72
6
73
3
74
0
42
0.000000001
43
0.0000000001
44
0.0000000001
40
0
40
0
40
0
40
1
40
1
40
1
10
423.12692391226835
20
80.190356445637491
30
0
10
422.61942046235151
20
80.190356445637491
30
0
10
422.4076195294673
20
80.293696594563272
30
0
0
SPLINE
5
211
100
AcDbEntity
8
0
100
AcDbSpline
70
0
71
2
72
6
73
3
74
0
42
0.000000001
43
0.0000000001
44
0.0000000001
40
0
40
0
40
0
40
1
40
1
40
1
10
422.4076195294673
20
80.293696594563272
30
0
10
422.1958188946063
20
80.397036743489053
30
0
10
422.07303571055479
20
80.621116829243448
30
0
0
SPLINE
5
212
100
AcDbEntity
8
0
100
AcDbSpline
70
0
71
2
72
6
73
3
74
0
42
0.000000001
43
0.0000000001
44
0.0000000001
40
0
40
0
40
0
40
1
40
1
40
1
10
422.07303571055479
20
80.621116829243448
30
0
10
421.9502528245265
20
80.845196914997842
30
0
10
421.9502528245265
20
81.172617149678018
30
0
0
SPLINE
5
213
100
AcDbEntity
8
0
100
AcDbSpline
70
0
71
2
72
6
73
3
74
0
42
0.000000001
43
0.0000000001
44
0.0000000001
40
0
40
0
40
0
40
1
40
1
40
1
10
421.9502528245265
20
81.172617149678018
30
0
10
421.9502528245265
20
81.561430168476846
30
0
10
422.12521868298597
20
81.800859642353799
30
0
0
SPLINE
5
214
100
AcDbEntity
8
0
100
AcDbSpline
70
0
71
2
72
6
73
3
74
0
42
0.000000001
43
0.0000000001
44
0.0000000001
40
0
40
0
40
0
40
1
40
1
40
1
10
422.12521868298597
20
81.800859642353799
30
0
10
422.30018454144545
20
82.040284347859171
30
0
10
422.65216248581953
20
82.032101822224405
30
0
0
SPLINE
5
215
100
AcDbEntity
8
0
100
AcDbSpline
70
0
71
2
72
6
73
3
74
0
42
0.000000001
43
0.0000000001
44
0.0000000001
40
0
40
0
40
0
40
1
40
1
40
1
10
423.95775633404799
20
81.727188301411417
30
0
10
423.53006171534605
20
81.727188301411417
30
0
10
423.33360868046827
20
81.557338905659464
30
0
0
SPLINE
5
216
100
AcDbEntity
8
0
100
AcDbSpline
70
0
71
2
72
6
73
3
74
0
42
0.000000001
43
0.0000000001
44
0.0000000001
40
0
40
0
40
0
40
1
40
1
40
1
10
423.33360868046827
20
81.557338905659464
30
0
10
423.13715594361372
20
81.38748950990751
30
0
10
423.13715594361372
20
81.131690216389444
30
0
0
SPLINE
5
217
100
AcDbEntity
8
0
100
AcDbSpline
70
0
71
2
72
6
73
3
74
0
42
0.000000001
43
0.0000000001
44
0.0000000001
40
0
40
0
40
0
40
1
40
1
40
1
10
423.13715594361372
20
81.131690216389444
30
0
10
423.13715594361372
20
80.877936554280069
30
0
10
423.3325855667407
20
80.706041527119424
30
0
0
SPLINE
5
218
100
AcDbEntity
8
0
100
AcDbSpline
70
0
71
2
72
6
73
3
74
0
42
0.000000001
43
0.0000000001
44
0.0000000001
40
0
40
0
40
0
40
1
40
1
40
1
10
423.3325855667407
20
80.706041527119424
30
0
10
423.52801518986769
20
80.53414649995878
30
0
10
423.94547777722426
20
80.53414649995878
30
0
0
SPLINE
5
219
100
AcDbEntity
8
0
100
AcDbSpline
70
0
71
2
72
6
73
3
74
0
42
0.000000001
43
0.0000000001
44
0.0000000001
40
0
40
0
40
0
40
1
40
1
40
1
10
423.94547777722426
20
80.53414649995878
30
0
10
424.34452282736845
20
80.53414649995878
30
0
10
424.54711499164648
20
80.711157989826944
30
0
0
SPLINE
5
220
100
AcDbEntity
8
0
100
AcDbSpline
70
0
71
2
72
6
73
3
74
0
42
0.000000001
43
0.0000000001
44
0.0000000001
40
0
40
0
40
0
40
1
40
1
40
1
10
424.54711499164648
20
80.711157989826944
30
0
10
424.7497070069129
20
80.888169479695108
30
0
10
424.7497070069129
20
81.1378318789871
30
0
0
SPLINE
5
221
100
AcDbEntity
8
0
100
AcDbSpline
70
0
71
2
72
6
73
3
74
0
42
0.000000001
43
0.0000000001
44
0.0000000001
40
0
40
0
40
0
40
1
40
1
40
1
10
424.7497070069129
20
81.1378318789871
30
0
10
424.7497070069129
20
81.383393478718546
30
0
10
424.55018463085241
20
81.555293274250772
30
0
0
SPLINE
5
222
100
AcDbEntity
8
0
100
AcDbSpline
70
0
71
2
72
6
73
3
74
0
42
0.000000001
43
0.0000000001
44
0.0000000001
40
0
40
0
40
0
40
1
40
1
40
1
10
424.55018463085241
20
81.555293274250772
30
0
10
424.35066180775709
20
81.727188301411417
30
0
10
423.95775633404799
20
81.727188301411417
30
0
0
LINE
5
223
100
AcDbEntity
8
0
100
AcDbLine
10
422.8322445089633
20
78.12964267763212
30
0
11
422.8322445089633
21
78.471391868916299
31
0
0
LINE
5
224
100
AcDbEntity
8
0
100
AcDbLine
10
422.8322445089633
20
78.471391868916299
30
0
11
425.83224433014936
21
78.471391868916299
31
0
0
LINE
5
225
100
AcDbEntity
8
0
100
AcDbLine
10
425.83224433014936
20
78.471391868916299
30
0
11
425.83224433014936
21
78.103039932575967
31
0
0
LINE
5
226
100
AcDbEntity
8
0
100
AcDbLine
10
425.83224433014936
20
78.103039932575967
30
0
11
424.76198526571341
21
78.103039932575967
31
0
0
SPLINE
5
227
100
AcDbEntity
8
0
100
AcDbSpline
70
0
71
2
72
6
73
3
74
0
42
0.000000001
43
0.0000000001
44
0.0000000001
40
0
40
0
40
0
40
1
40
1
40
1
10
424.76198526571341
20
78.103039932575967
30
0
10
425.05461829255171
20
77.869752121296671
30
0
10
425.05461829255171
20
77.507541847553995
30
0
0
SPLINE
5
228
100
AcDbEntity
8
0
100
AcDbSpline
70
0
71
2
72
6
73
3
74
0
42
0.000000001
43
0.0000000001
44
0.0000000001
40
0
40
0
40
0
40
1
40
1
40
1
10
425.05461829255171
20
77.507541847553995
30
0
10
425.05461829255171
20
77.306998443928507
30
0
10
424.97378604958601
20
77.127936554280069
30
0
0
SPLINE
5
229
100
AcDbEntity
8
0
100
AcDbSpline
70
0
71
2
72
6
73
3
74
0
42
0.000000001
43
0.0000000001
44
0.0000000001
40
0
40
0
40
0
40
1
40
1
40
1
10
424.97378604958601
20
77.127936554280069
30
0
10
424.89295380662031
20
76.948879433003214
30
0
10
424.74663736770697
20
76.833260727253702
30
0
0
SPLINE
5
230
100
AcDbEntity
8
0
100
AcDbSpline
70
0
71
2
72
6
73
3
74
0
42
0.000000001
43
0.0000000001
44
0.0000000001
40
0
40
0
40
0
40
1
40
1
40
1
10
424.74663736770697
20
76.833260727253702
30
0
10
424.60032092879362
20
76.717637253132608
30
0
10
424.3936361605937
20
76.652153206196573
30
0
0
SPLINE
5
231
100
AcDbEntity
8
0
100
AcDbSpline
70
0
71
2
72
6
73
3
74
0
42
0.000000001
43
0.0000000001
44
0.0000000001
40
0
40
0
40
0
40
1
40
1
40
1
10
424.3936361605937
20
76.652153206196573
30
0
10
424.18695109437056
20
76.586669159260538
30
0
10
423.9516167576129
20
76.586669159260538
30
0
0
SPLINE
5
232
100
AcDbEntity
8
0
100
AcDbSpline
70
0
71
2
72
6
73
3
74
0
42
0.000000001
43
0.0000000001
44
0.0000000001
40
0
40
0
40
0
40
1
40
1
40
1
10
423.9516167576129
20
76.586669159260538
30
0
10
423.39295404503889
20
76.586669159260538
30
0
10
423.08804261038847
20
76.8629295352371
30
0
0
SPLINE
5
233
100
AcDbEntity
8
0
100
AcDbSpline
70
0
71
2
72
6
73
3
74
0
42
0.000000001
43
0.0000000001
44
0.0000000001
40
0
40
0
40
0
40
1
40
1
40
1
10
423.08804261038847
20
76.8629295352371
30
0
10
422.78313117573805
20
77.139194679585245
30
0
10
422.78313117573805
20
77.525962066975382
30
0
0
SPLINE
5
234
100
AcDbEntity
8
0
100
AcDbSpline
70
0
71
2
72
6
73
3
74
0
42
0.000000001
43
0.0000000001
44
0.0000000001
40
0
40
0
40
0
40
1
40
1
40
1
10
422.78313117573805
20
77.525962066975382
30
0
10
422.78313117573805
20
77.910683822956827
30
0
10
423.10441362212248
20
78.12964267763212
30
0
0
LINE
5
235
100
AcDbEntity
8
0
100
AcDbLine
10
423.10441362212248
20
78.12964267763212
30
0
11
422.8322445089633
21
78.12964267763212
31
0
0
SPLINE
5
236
100
AcDbEntity
8
0
100
AcDbSpline
70
0
71
2
72
6
73
3
74
0
42
0.000000001
43
0.0000000001
44
0.0000000001
40
0
40
0
40
0
40
1
40
1
40
1
10
423.93524574587889
20
78.133738708821085
30
0
10
423.5443862016017
20
78.133738708821085
30
0
10
423.37044375489302
20
78.027327728596475
30
0
0
SPLINE
5
237
100
AcDbEntity
8
0
100
AcDbSpline
70
0
71
2
72
6
73
3
74
0
42
0.000000001
43
0.0000000001
44
0.0000000001
40
0
40
0
40
0
40
1
40
1
40
1
10
423.37044375489302
20
78.027327728596475
30
0
10
423.08599608491011
20
77.853382301655557
30
0
10
423.08599608491011
20
77.556656074848917
30
0
0
SPLINE
5
238
100
AcDbEntity
8
0
100
AcDbSpline
70
0
71
2
72
6
73
3
74
0
42
0.000000001
43
0.0000000001
44
0.0000000001
40
0
40
0
40
0
40
1
40
1
40
1
10
423.08599608491011
20
77.556656074848917
30
0
10
423.08599608491011
20
77.315180969563272
30
0
10
423.29575079033918
20
77.139194679585245
30
0
0
SPLINE
5
239
100
AcDbEntity
8
0
100
AcDbSpline
70
0
71
2
72
6
73
3
74
0
42
0.000000001
43
0.0000000001
44
0.0000000001
40
0
40
0
40
0
40
1
40
1
40
1
10
423.29575079033918
20
77.139194679585245
30
0
10
423.50550489972181
20
76.963203621235635
30
0
10
423.92092125962324
20
76.963203621235635
30
0
0
SPLINE
5
240
100
AcDbEntity
8
0
100
AcDbSpline
70
0
71
2
72
6
73
3
74
0
42
0.000000001
43
0.0000000001
44
0.0000000001
40
0
40
0
40
0
40
1
40
1
40
1
10
423.92092125962324
20
76.963203621235635
30
0
10
424.34656935284681
20
76.963203621235635
30
0
10
424.54916121910162
20
77.132032585469034
30
0
0
SPLINE
5
241
100
AcDbEntity
8
0
100
AcDbSpline
70
0
71
2
72
6
73
3
74
0
42
0.000000001
43
0.0000000001
44
0.0000000001
40
0
40
0
40
0
40
1
40
1
40
1
10
424.54916121910162
20
77.132032585469034
30
0
10
424.75175338337965
20
77.30085678133085
30
0
10
424.75175338337965
20
77.540286255207803
30
0
0
SPLINE
5
242
100
AcDbEntity
8
0
100
AcDbSpline
70
0
71
2
72
6
73
3
74
0
42
0.000000001
43
0.0000000001
44
0.0000000001
40
0
40
0
40
0
40
1
40
1
40
1
10
424.75175338337965
20
77.540286255207803
30
0
10
424.75175338337965
20
77.781756592121866
30
0
10
424.5419989759738
20
77.957747650471475
30
0
0
SPLINE
5
243
100
AcDbEntity
8
0
100
AcDbSpline
70
0
71
2
72
6
73
3
74
0
42
0.000000001
43
0.0000000001
44
0.0000000001
40
0
40
0
40
0
40
1
40
1
40
1
10
424.5419989759738
20
77.957747650471475
30
0
10
424.33224456856794
20
78.133738708821085
30
0
10
423.93524574587889
20
78.133738708821085
30
0
0
SPLINE
5
244
100
AcDbEntity
8
0
100
AcDbSpline
70
0
71
2
72
6
73
3
74
0
42
0.000000001
43
0.0000000001
44
0.0000000001
40
0
40
0
40
0
40
1
40
1
40
1
10
423.91887473414488
20
76.275618744221475
30
0
10
424.52255832503386
20
76.275618744221475
30
0
10
424.81314497540541
20
75.940011215534952
30
0
0
SPLINE
5
245
100
AcDbEntity
8
0
100
AcDbSpline
70
0
71
2
72
6
73
3
74
0
42
0.000000001
43
0.0000000001
44
0.0000000001
40
0
40
0
40
0
40
1
40
1
40
1
10
424.81314497540541
20
75.940011215534952
30
0
10
425.05461844156332
20
75.659659576741007
30
0
10
425.05461844156332
20
75.256522369709757
30
0
0
SPLINE
5
246
100
AcDbEntity
8
0
100
AcDbSpline
70
0
71
2
72
6
73
3
74
0
42
0.000000001
43
0.0000000001
44
0.0000000001
40
0
40
0
40
0
40
1
40
1
40
1
10
425.05461844156332
20
75.256522369709757
30
0
10
425.05461844156332
20
74.808362198200967
30
0
10
424.76096215198584
20
74.523914528218057
30
0
0
SPLINE
5
247
100
AcDbEntity
8
0
100
AcDbSpline
70
0
71
2
72
6
73
3
74
0
42
0.000000001
43
0.0000000001
44
0.0000000001
40
0
40
0
40
0
40
1
40
1
40
1
10
424.76096215198584
20
74.523914528218057
30
0
10
424.46730601141996
20
74.239466858235147
30
0
10
423.94957053015776
20
74.239466858235147
30
0
0
SPLINE
5
248
100
AcDbEntity
8
0
100
AcDbSpline
70
0
71
2
72
6
73
3
74
0
42
0.000000001
43
0.0000000001
44
0.0000000001
40
0
40
0
40
0
40
1
40
1
40
1
10
423.94957053015776
20
74.239466858235147
30
0
10
423.53006171534605
20
74.239466858235147
30
0
10
423.28961151192732
20
74.36532325777128
30
0
0
SPLINE
5
249
100
AcDbEntity
8
0
100
AcDbSpline
70
0
71
2
72
6
73
3
74
0
42
0.000000001
43
0.0000000001
44
0.0000000001
40
0
40
0
40
0
40
1
40
1
40
1
10
423.28961151192732
20
74.36532325777128
30
0
10
423.04916130850859
20
74.491170120564249
30
0
10
422.91614639113493
20
74.731620025959757
30
0
0
SPLINE
5
250
100
AcDbEntity
8
0
100
AcDbSpline
70
0
71
2
72
6
73
3
74
0
42
0.000000001
43
0.0000000001
44
0.0000000001
40
0
40
0
40
0
40
1
40
1
40
1
10
422.91614639113493
20
74.731620025959757
30
0
10
422.78313117573805
20
74.972069931355264
30
0
10
422.78313117573805
20
75.256522369709757
30
0
0
SPLINE
5
251
100
AcDbEntity
8
0
100
AcDbSpline
70
0
71
2
72
6
73
3
74
0
42
0.000000001
43
0.0000000001
44
0.0000000001
40
0
40
0
40
0
40
1
40
1
40
1
10
422.78313117573805
20
75.256522369709757
30
0
10
422.78313117573805
20
75.712865066853311
30
0
10
423.07576435158796
20
75.994241905537393
30
0
0
SPLINE
5
252
100
AcDbEntity
8
0
100
AcDbSpline
70
0
71
2
72
6
73
3
74
0
42
0.000000001
43
0.0000000001
44
0.0000000001
40
0
40
0
40
0
40
1
40
1
40
1
10
423.07576435158796
20
75.994241905537393
30
0
10
423.36839722941465
20
76.275618744221475
30
0
10
423.91887473414488
20
76.275618744221475
30
0
0
SPLINE
5
253
100
AcDbEntity
8
0
100
AcDbSpline
70
0
71
2
72
6
73
3
74
0
42
0.000000001
43
0.0000000001
44
0.0000000001
40
0
40
0
40
0
40
1
40
1
40
1
10
423.91887473414488
20
75.897038650837686
30
0
10
423.50141244481154
20
75.897038650837686
30
0
10
423.29370426486082
20
75.714910698262003
30
0
0
SPLINE
5
254
100
AcDbEntity
8
0
100
AcDbSpline
70
0
71
2
72
6
73
3
74
0
42
0.000000001
43
0.0000000001
44
0.0000000001
40
0
40
0
40
0
40
1
40
1
40
1
10
423.29370426486082
20
75.714910698262003
30
0
10
423.08599608491011
20
75.532782745686319
30
0
10
423.08599608491011
20
75.256522369709757
30
0
0
SPLINE
5
255
100
AcDbEntity
8
0
100
AcDbSpline
70
0
71
2
72
6
73
3
74
0
42
0.000000001
43
0.0000000001
44
0.0000000001
40
0
40
0
40
0
40
1
40
1
40
1
10
423.08599608491011
20
75.256522369709757
30
0
10
423.08599608491011
20
74.982302856770303
30
0
10
423.29472737858839
20
74.800179672566202
30
0
0
SPLINE
5
256
100
AcDbEntity
8
0
100
AcDbSpline
70
0
71
2
72
6
73
3
74
0
42
0.000000001
43
0.0000000001
44
0.0000000001
40
0
40
0
40
0
40
1
40
1
40
1
10
423.29472737858839
20
74.800179672566202
30
0
10
423.50345867226667
20
74.618046951618936
30
0
10
423.93115299294539
20
74.618046951618936
30
0
0
SPLINE
5
257
100
AcDbEntity
8
0
100
AcDbSpline
70
0
71
2
72
6
73
3
74
0
42
0.000000001
43
0.0000000001
44
0.0000000001
40
0
40
0
40
0
40
1
40
1
40
1
10
423.93115299294539
20
74.618046951618936
30
0
10
424.33429079602308
20
74.618046951618936
30
0
10
424.5419989759738
20
74.801200104084757
30
0
0
SPLINE
5
258
100
AcDbEntity
8
0
100
AcDbSpline
70
0
71
2
72
6
73
3
74
0
42
0.000000001
43
0.0000000001
44
0.0000000001
40
0
40
0
40
0
40
1
40
1
40
1
10
424.5419989759738
20
74.801200104084757
30
0
10
424.7497070069129
20
74.984353256550577
30
0
10
424.7497070069129
20
75.256522369709757
30
0
0
SPLINE
5
259
100
AcDbEntity
8
0
100
AcDbSpline
70
0
71
2
72
6
73
3
74
0
42
0.000000001
43
0.0000000001
44
0.0000000001
40
0
40
0
40
0
40
1
40
1
40
1
10
424.7497070069129
20
75.256522369709757
30
0
10
424.7497070069129
20
75.532782745686319
30
0
10
424.54302208970137
20
75.714910698262003
30
0
0
SPLINE
5
260
100
AcDbEntity
8
0
100
AcDbSpline
70
0
71
2
72
6
73
3
74
0
42
0.000000001
43
0.0000000001
44
0.0000000001
40
0
40
0
40
0
40
1
40
1
40
1
10
424.54302208970137
20
75.714910698262003
30
0
10
424.33633732150145
20
75.897038650837686
30
0
10
423.91887473414488
20
75.897038650837686
30
0
0
LINE
5
261
100
AcDbEntity
8
0
100
AcDbLine
10
423.16171246121473
20
73.003452492085245
30
0
11
422.8363372618968
21
72.950242233601358
31
0
0
SPLINE
5
262
100
AcDbEntity
8
0
100
AcDbSpline
70
0
71
2
72
6
73
3
74
0
42
0.000000001
43
0.0000000001
44
0.0000000001
40
0
40
0
40
0
40
1
40
1
40
1
10
422.8363372618968
20
72.950242233601358
30
0
10
422.80359523842878
20
73.105767441120889
30
0
10
422.80359523842878
20
73.228553009358194
30
0
0
SPLINE
5
263
100
AcDbEntity
8
0
100
AcDbSpline
70
0
71
2
72
6
73
3
74
0
42
0.000000001
43
0.0000000001
44
0.0000000001
40
0
40
0
40
0
40
1
40
1
40
1
10
422.80359523842878
20
73.228553009358194
30
0
10
422.80359523842878
20
73.429101181355264
30
0
10
422.86703305790968
20
73.539603424397257
30
0
0
SPLINE
5
264
100
AcDbEntity
8
0
100
AcDbSpline
70
0
71
2
72
6
73
3
74
0
42
0.000000001
43
0.0000000001
44
0.0000000001
40
0
40
0
40
0
40
1
40
1
40
1
10
422.86703305790968
20
73.539603424397257
30
0
10
422.93047087739058
20
73.650105667439249
30
0
10
423.03381341050215
20
73.695128631916788
30
0
0
SPLINE
5
265
100
AcDbEntity
8
0
100
AcDbSpline
70
0
71
2
72
6
73
3
74
0
42
0.000000001
43
0.0000000001
44
0.0000000001
40
0
40
0
40
0
40
1
40
1
40
1
10
423.03381341050215
20
73.695128631916788
30
0
10
423.13715594361372
20
73.740151596394327
30
0
10
423.46867012332029
20
73.740151596394327
30
0
0
LINE
5
266
100
AcDbEntity
8
0
100
AcDbLine
10
423.46867012332029
20
73.740151596394327
30
0
11
424.71901121090002
21
73.740151596394327
31
0
0
LINE
5
267
100
AcDbEntity
8
0
100
AcDbLine
10
424.71901121090002
20
73.740151596394327
30
0
11
424.71901121090002
21
74.010270309773233
31
0
0
LINE
5
268
100
AcDbEntity
8
0
100
AcDbLine
10
424.71901121090002
20
74.010270309773233
30
0
11
425.00550510833807
21
74.010270309773233
31
0
0
LINE
5
269
100
AcDbEntity
8
0
100
AcDbLine
10
425.00550510833807
20
74.010270309773233
30
0
11
425.00550510833807
21
73.740151596394327
31
0
0
LINE
5
270
100
AcDbEntity
8
0
100
AcDbLine
10
425.00550510833807
20
73.740151596394327
30
0
11
425.5437045032794
21
73.740151596394327
31
0
0
LINE
5
271
100
AcDbEntity
8
0
100
AcDbLine
10
425.5437045032794
20
73.740151596394327
30
0
11
425.76471405575819
21
73.373845291462686
31
0
0
LINE
5
272
100
AcDbEntity
8
0
100
AcDbLine
10
425.76471405575819
20
73.373845291462686
30
0
11
425.00550510833807
21
73.373845291462686
31
0
0
LINE
5
273
100
AcDbEntity
8
0
100
AcDbLine
10
425.00550510833807
20
73.373845291462686
30
0
11
425.00550510833807
21
73.003452492085245
31
0
0
LINE
5
274
100
AcDbEntity
8
0
100
AcDbLine
10
425.00550510833807
20
73.003452492085245
30
0
11
424.71901121090002
21
73.003452492085245
31
0
0
LINE
5
275
100
AcDbEntity
8
0
100
AcDbLine
10
424.71901121090002
20
73.003452492085245
30
0
11
424.71901121090002
21
73.373845291462686
31
0
0
LINE
5
276
100
AcDbEntity
8
0
100
AcDbLine
10
424.71901121090002
20
73.373845291462686
30
0
11
423.44820635865278
21
73.373845291462686
31
0
0
SPLINE
5
277
100
AcDbEntity
8
0
100
AcDbSpline
70
0
71
2
72
6
73
3
74
0
42
0.000000001
43
0.0000000001
44
0.0000000001
40
0
40
0
40
0
40
1
40
1
40
1
10
423.44820635865278
20
73.373845291462686
30
0
10
423.29063462565489
20
73.373845291462686
30
0
10
423.24561434338636
20
73.354409408894327
30
0
0
SPLINE
5
278
100
AcDbEntity
8
0
100
AcDbSpline
70
0
71
2
72
6
73
3
74
0
42
0.000000001
43
0.0000000001
44
0.0000000001
40
0
40
0
40
0
40
1
40
1
40
1
10
423.24561434338636
20
73.354409408894327
30
0
10
423.20059376309462
20
73.334963989582803
30
0
10
423.17399072001524
20
73.290970993366983
30
0
0
SPLINE
5
279
100
AcDbEntity
8
0
100
AcDbSpline
70
0
71
2
72
6
73
3
74
0
42
0.000000001
43
0.0000000001
44
0.0000000001
40
0
40
0
40
0
40
1
40
1
40
1
10
423.17399072001524
20
73.290970993366983
30
0
10
423.14738767693586
20
73.246968460407999
30
0
10
423.14738767693586
20
73.16511459383085
30
0
0
SPLINE
5
280
100
AcDbEntity
8
0
100
AcDbSpline
70
0
71
2
72
6
73
3
74
0
42
0.000000001
43
0.0000000001
44
0.0000000001
40
0
40
0
40
0
40
1
40
1
40
1
10
423.14738767693586
20
73.16511459383085
30
0
10
423.14738767693586
20
73.10372657808378
30
0
10
423.16171246121473
20
73.003452492085245
30
0
0
LINE
5
281
100
AcDbEntity
8
0
100
AcDbLine
10
423.16171246121473
20
71.839059067097452
30
0
11
422.8363372618968
21
71.785853576985147
31
0
0
SPLINE
5
282
100
AcDbEntity
8
0
100
AcDbSpline
70
0
71
2
72
6
73
3
74
0
42
0.000000001
43
0.0000000001
44
0.0000000001
40
0
40
0
40
0
40
1
40
1
40
1
10
422.8363372618968
20
71.785853576985147
30
0
10
422.80359523842878
20
71.941378784504678
30
0
10
422.80359523842878
20
72.064159584370401
30
0
0
SPLINE
5
283
100
AcDbEntity
8
0
100
AcDbSpline
70
0
71
2
72
6
73
3
74
0
42
0.000000001
43
0.0000000001
44
0.0000000001
40
0
40
0
40
0
40
1
40
1
40
1
10
422.80359523842878
20
72.064159584370401
30
0
10
422.80359523842878
20
72.264702987995889
30
0
10
422.86703305790968
20
72.375209999409464
30
0
0
SPLINE
5
284
100
AcDbEntity
8
0
100
AcDbSpline
70
0
71
2
72
6
73
3
74
0
42
0.000000001
43
0.0000000001
44
0.0000000001
40
0
40
0
40
0
40
1
40
1
40
1
10
422.86703305790968
20
72.375209999409464
30
0
10
422.93047087739058
20
72.485717010823038
30
0
10
423.03381341050215
20
72.530735206928995
30
0
0
SPLINE
5
285
100
AcDbEntity
8
0
100
AcDbSpline
70
0
71
2
72
6
73
3
74
0
42
0.000000001
43
0.0000000001
44
0.0000000001
40
0
40
0
40
0
40
1
40
1
40
1
10
423.03381341050215
20
72.530735206928995
30
0
10
423.13715594361372
20
72.575753403034952
30
0
10
423.46867012332029
20
72.575753403034952
30
0
0
LINE
5
286
100
AcDbEntity
8
0
100
AcDbLine
10
423.46867012332029
20
72.575753403034952
30
0
11
424.71901121090002
21
72.575753403034952
31
0
0
LINE
5
287
100
AcDbEntity
8
0
100
AcDbLine
10
424.71901121090002
20
72.575753403034952
30
0
11
424.71901121090002
21
72.845881653157022
31
0
0
LINE
5
288
100
AcDbEntity
8
0
100
AcDbLine
10
424.71901121090002
20
72.845881653157022
30
0
11
425.00550510833807
21
72.845881653157022
31
0
0
LINE
5
289
100
AcDbEntity
8
0
100
AcDbLine
10
425.00550510833807
20
72.845881653157022
30
0
11
425.00550510833807
21
72.575753403034952
31
0
0
LINE
5
290
100
AcDbEntity
8
0
100
AcDbLine
10
425.00550510833807
20
72.575753403034952
30
0
11
425.5437045032794
21
72.575753403034952
31
0
0
LINE
5
291
100
AcDbEntity
8
0
100
AcDbLine
10
425.5437045032794
20
72.575753403034952
30
0
11
425.76471405575819
21
72.209456634846475
31
0
0
LINE
5
292
100
AcDbEntity
8
0
100
AcDbLine
10
425.76471405575819
20
72.209456634846475
30
0
11
425.00550510833807
21
72.209456634846475
31
0
0
LINE
5
293
100
AcDbEntity
8
0
100
AcDbLine
10
425.00550510833807
20
72.209456634846475
30
0
11
425.00550510833807
21
71.839059067097452
31
0
0
LINE
5
294
100
AcDbEntity
8
0
100
AcDbLine
10
425.00550510833807
20
71.839059067097452
30
0
11
424.71901121090002
21
71.839059067097452
31
0
0
LINE
5
295
100
AcDbEntity
8
0
100
AcDbLine
10
424.71901121090002
20
71.839059067097452
30
0
11
424.71901121090002
21
72.209456634846475
31
0
0
LINE
5
296
100
AcDbEntity
8
0
100
AcDbLine
10
424.71901121090002
20
72.209456634846475
30
0
11
423.44820635865278
21
72.209456634846475
31
0
0
SPLINE
5
297
100
AcDbEntity
8
0
100
AcDbSpline
70
0
71
2
72
6
73
3
74
0
42
0.000000001
43
0.0000000001
44
0.0000000001
40
0
40
0
40
0
40
1
40
1
40
1
10
423.44820635865278
20
72.209456634846475
30
0
10
423.29063462565489
20
72.209456634846475
30
0
10
423.24561434338636
20
72.190011215534952
30
0
0
SPLINE
5
298
100
AcDbEntity
8
0
100
AcDbSpline
70
0
71
2
72
6
73
3
74
0
42
0.000000001
43
0.0000000001
44
0.0000000001
40
0
40
0
40
0
40
1
40
1
40
1
10
423.24561434338636
20
72.190011215534952
30
0
10
423.20059376309462
20
72.170575332966592
30
0
10
423.17399072001524
20
72.126572800007608
30
0
0
SPLINE
5
299
100
AcDbEntity
8
0
100
AcDbSpline
70
0
71
2
72
6
73
3
74
0
42
0.000000001
43
0.0000000001
44
0.0000000001
40
0
40
0
40
0
40
1
40
1
40
1
10
423.17399072001524
20
72.126572800007608
30
0
10
423.14738767693586
20
72.082579803791788
30
0
10
423.14738767693586
20
72.000721168843057
30
0
0
SPLINE
5
300
100
AcDbEntity
8
0
100
AcDbSpline
70
0
71
2
72
6
73
3
74
0
42
0.000000001
43
0.0000000001
44
0.0000000001
40
0
40
0
40
0
40
1
40
1
40
1
10
423.14738767693586
20
72.000721168843057
30
0
10
423.14738767693586
20
71.939328384724405
30
0
10
423.16171246121473
20
71.839059067097452
30
0
0
SPLINE
5
301
100
AcDbEntity
8
0
100
AcDbSpline
70
0
71
2
72
6
73
3
74
0
42
0.000000001
43
0.0000000001
44
0.0000000001
40
0
40
0
40
0
40
1
40
1
40
1
10
423.91887473414488
20
71.616004181233194
30
0
10
424.52255832503386
20
71.616004181233194
30
0
10
424.81314497540541
20
71.280396652546671
30
0
0
SPLINE
5
302
100
AcDbEntity
8
0
100
AcDbSpline
70
0
71
2
72
6
73
3
74
0
42
0.000000001
43
0.0000000001
44
0.0000000001
40
0
40
0
40
0
40
1
40
1
40
1
10
424.81314497540541
20
71.280396652546671
30
0
10
425.05461844156332
20
71.000045013752725
30
0
10
425.05461844156332
20
70.596907806721475
30
0
0
SPLINE
5
303
100
AcDbEntity
8
0
100
AcDbSpline
70
0
71
2
72
6
73
3
74
0
42
0.000000001
43
0.0000000001
44
0.0000000001
40
0
40
0
40
0
40
1
40
1
40
1
10
425.05461844156332
20
70.596907806721475
30
0
10
425.05461844156332
20
70.148747635212686
30
0
10
424.76096215198584
20
69.864299965229776
30
0
0
SPLINE
5
304
100
AcDbEntity
8
0
100
AcDbSpline
70
0
71
2
72
6
73
3
74
0
42
0.000000001
43
0.0000000001
44
0.0000000001
40
0
40
0
40
0
40
1
40
1
40
1
10
424.76096215198584
20
69.864299965229776
30
0
10
424.46730601141996
20
69.579852295246866
30
0
10
423.94957053015776
20
69.579852295246866
30
0
0
SPLINE
5
305
100
AcDbEntity
8
0
100
AcDbSpline
70
0
71
2
72
6
73
3
74
0
42
0.000000001
43
0.0000000001
44
0.0000000001
40
0
40
0
40
0
40
1
40
1
40
1
10
423.94957053015776
20
69.579852295246866
30
0
10
423.53006171534605
20
69.579852295246866
30
0
10
423.28961151192732
20
69.705703926411417
30
0
0
SPLINE
5
306
100
AcDbEntity
8
0
100
AcDbSpline
70
0
71
2
72
6
73
3
74
0
42
0.000000001
43
0.0000000001
44
0.0000000001
40
0
40
0
40
0
40
1
40
1
40
1
10
423.28961151192732
20
69.705703926411417
30
0
10
423.04916130850859
20
69.831555557575967
30
0
10
422.91614639113493
20
70.072005462971475
30
0
0
SPLINE
5
307
100
AcDbEntity
8
0
100
AcDbSpline
70
0
71
2
72
6
73
3
74
0
42
0.000000001
43
0.0000000001
44
0.0000000001
40
0
40
0
40
0
40
1
40
1
40
1
10
422.91614639113493
20
70.072005462971475
30
0
10
422.78313117573805
20
70.312455368366983
30
0
10
422.78313117573805
20
70.596907806721475
30
0
0
SPLINE
5
308
100
AcDbEntity
8
0
100
AcDbSpline
70
0
71
2
72
6
73
3
74
0
42
0.000000001
43
0.0000000001
44
0.0000000001
40
0
40
0
40
0
40
1
40
1
40
1
10
422.78313117573805
20
70.596907806721475
30
0
10
422.78313117573805
20
71.05325050386503
30
0
10
423.07576435158796
20
71.334627342549112
30
0
0
SPLINE
5
309
100
AcDbEntity
8
0
100
AcDbSpline
70
0
71
2
72
6
73
3
74
0
42
0.000000001
43
0.0000000001
44
0.0000000001
40
0
40
0
40
0
40
1
40
1
40
1
10
423.07576435158796
20
71.334627342549112
30
0
10
423.36839722941465
20
71.616004181233194
30
0
10
423.91887473414488
20
71.616004181233194
30
0
0
SPLINE
5
310
100
AcDbEntity
8
0
100
AcDbSpline
70
0
71
2
72
6
73
3
74
0
42
0.000000001
43
0.0000000001
44
0.0000000001
40
0
40
0
40
0
40
1
40
1
40
1
10
423.91887473414488
20
71.237424087849405
30
0
10
423.50141244481154
20
71.237424087849405
30
0
10
423.29370426486082
20
71.055291366902139
30
0
0
SPLINE
5
311
100
AcDbEntity
8
0
100
AcDbSpline
70
0
71
2
72
6
73
3
74
0
42
0.000000001
43
0.0000000001
44
0.0000000001
40
0
40
0
40
0
40
1
40
1
40
1
10
423.29370426486082
20
71.055291366902139
30
0
10
423.08599608491011
20
70.873168182698038
30
0
10
423.08599608491011
20
70.596907806721475
30
0
0
SPLINE
5
312
100
AcDbEntity
8
0
100
AcDbSpline
70
0
71
2
72
6
73
3
74
0
42
0.000000001
43
0.0000000001
44
0.0000000001
40
0
40
0
40
0
40
1
40
1
40
1
10
423.08599608491011
20
70.596907806721475
30
0
10
423.08599608491011
20
70.322688293782022
30
0
10
423.29472737858839
20
70.140560341206339
30
0
0
SPLINE
5
313
100
AcDbEntity
8
0
100
AcDbSpline
70
0
71
2
72
6
73
3
74
0
42
0.000000001
43
0.0000000001
44
0.0000000001
40
0
40
0
40
0
40
1
40
1
40
1
10
423.29472737858839
20
70.140560341206339
30
0
10
423.50345867226667
20
69.958432388630655
30
0
10
423.93115299294539
20
69.958432388630655
30
0
0
SPLINE
5
314
100
AcDbEntity
8
0
100
AcDbSpline
70
0
71
2
72
6
73
3
74
0
42
0.000000001
43
0.0000000001
44
0.0000000001
40
0
40
0
40
0
40
1
40
1
40
1
10
423.93115299294539
20
69.958432388630655
30
0
10
424.33429079602308
20
69.958432388630655
30
0
10
424.5419989759738
20
70.141585541096475
30
0
0
SPLINE
5
315
100
AcDbEntity
8
0
100
AcDbSpline
70
0
71
2
72
6
73
3
74
0
42
0.000000001
43
0.0000000001
44
0.0000000001
40
0
40
0
40
0
40
1
40
1
40
1
10
424.5419989759738
20
70.141585541096475
30
0
10
424.7497070069129
20
70.324738693562296
30
0
10
424.7497070069129
20
70.596907806721475
30
0
0
SPLINE
5
316
100
AcDbEntity
8
0
100
AcDbSpline
70
0
71
2
72
6
73
3
74
0
42
0.000000001
43
0.0000000001
44
0.0000000001
40
0
40
0
40
0
40
1
40
1
40
1
10
424.7497070069129
20
70.596907806721475
30
0
10
424.7497070069129
20
70.873168182698038
30
0
10
424.54302208970137
20
71.055291366902139
30
0
0
SPLINE
5
317
100
AcDbEntity
8
0
100
AcDbSpline
70
0
71
2
72
6
73
3
74
0
42
0.000000001
43
0.0000000001
44
0.0000000001
40
0
40
0
40
0
40
1
40
1
40
1
10
424.54302208970137
20
71.055291366902139
30
0
10
424.33633732150145
20
71.237424087849405
30
0
10
423.91887473414488
20
71.237424087849405
30
0
0
LINE
5
318
100
AcDbEntity
8
0
100
AcDbLine
10
422.8322445089633
20
69.14806194337919
30
0
11
425.00550510833807
21
69.14806194337919
31
0
0
LINE
5
319
100
AcDbEntity
8
0
100
AcDbLine
10
425.00550510833807
20
69.14806194337919
30
0
11
425.00550510833807
21
68.818591308918741
31
0
0
LINE
5
320
100
AcDbEntity
8
0
100
AcDbLine
10
425.00550510833807
20
68.818591308918741
30
0
11
424.70059382269926
21
68.818591308918741
31
0
0
SPLINE
5
321
100
AcDbEntity
8
0
100
AcDbSpline
70
0
71
2
72
6
73
3
74
0
42
0.000000001
43
0.0000000001
44
0.0000000001
40
0
40
0
40
0
40
1
40
1
40
1
10
424.70059382269926
20
68.818591308918741
30
0
10
424.86021178315229
20
68.716271591511514
30
0
10
424.957415037852
20
68.546422195759561
30
0
0
SPLINE
5
322
100
AcDbEntity
8
0
100
AcDbSpline
70
0
71
2
72
6
73
3
74
0
42
0.000000001
43
0.0000000001
44
0.0000000001
40
0
40
0
40
0
40
1
40
1
40
1
10
424.957415037852
20
68.546422195759561
30
0
10
425.05461829255171
20
68.376572800007608
30
0
10
425.05461829255171
20
68.159659576741007
30
0
0
SPLINE
5
323
100
AcDbEntity
8
0
100
AcDbSpline
70
0
71
2
72
6
73
3
74
0
42
0.000000001
43
0.0000000001
44
0.0000000001
40
0
40
0
40
0
40
1
40
1
40
1
10
425.05461829255171
20
68.159659576741007
30
0
10
425.05461829255171
20
67.918184471455362
30
0
10
424.95434554765768
20
67.763684463825967
30
0
0
SPLINE
5
324
100
AcDbEntity
8
0
100
AcDbSpline
70
0
71
2
72
6
73
3
74
0
42
0.000000001
43
0.0000000001
44
0.0000000001
40
0
40
0
40
0
40
1
40
1
40
1
10
424.95434554765768
20
67.763684463825967
30
0
10
424.85407265375204
20
67.609179687824991
30
0
10
424.67399077961988
20
67.545741272297647
30
0
0
SPLINE
5
325
100
AcDbEntity
8
0
100
AcDbSpline
70
0
71
2
72
6
73
3
74
0
42
0.000000001
43
0.0000000001
44
0.0000000001
40
0
40
0
40
0
40
1
40
1
40
1
10
424.67399077961988
20
67.545741272297647
30
0
10
425.05461829255171
20
67.287896347370889
30
0
10
425.05461829255171
20
66.8745262149246
30
0
0
SPLINE
5
326
100
AcDbEntity
8
0
100
AcDbSpline
70
0
71
2
72
6
73
3
74
0
42
0.000000001
43
0.0000000001
44
0.0000000001
40
0
40
0
40
0
40
1
40
1
40
1
10
425.05461829255171
20
66.8745262149246
30
0
10
425.05461829255171
20
66.551202011433389
30
0
10
424.87555968115873
20
66.377256584492471
30
0
0
SPLINE
5
327
100
AcDbEntity
8
0
100
AcDbSpline
70
0
71
2
72
6
73
3
74
0
42
0.000000001
43
0.0000000001
44
0.0000000001
40
0
40
0
40
0
40
1
40
1
40
1
10
424.87555968115873
20
66.377256584492471
30
0
10
424.69650106976576
20
66.203311157551553
30
0
10
424.32405906270094
20
66.203311157551553
30
0
0
LINE
5
328
100
AcDbEntity
8
0
100
AcDbLine
10
424.32405906270094
20
66.203311157551553
30
0
11
422.8322445089633
21
66.203311157551553
31
0
0
LINE
5
329
100
AcDbEntity
8
0
100
AcDbLine
10
422.8322445089633
20
66.203311157551553
30
0
11
422.8322445089633
21
66.569617462483194
31
0
0
LINE
5
330
100
AcDbEntity
8
0
100
AcDbLine
10
422.8322445089633
20
66.569617462483194
30
0
11
424.20127587864943
21
66.569617462483194
31
0
0
SPLINE
5
331
100
AcDbEntity
8
0
100
AcDbSpline
70
0
71
2
72
6
73
3
74
0
42
0.000000001
43
0.0000000001
44
0.0000000001
40
0
40
0
40
0
40
1
40
1
40
1
10
424.20127587864943
20
66.569617462483194
30
0
10
424.42228543112822
20
66.569617462483194
30
0
10
424.51948868582792
20
66.605427933064249
30
0
0
SPLINE
5
332
100
AcDbEntity
8
0
100
AcDbSpline
70
0
71
2
72
6
73
3
74
0
42
0.000000001
43
0.0000000001
44
0.0000000001
40
0
40
0
40
0
40
1
40
1
40
1
10
424.51948868582792
20
66.605427933064249
30
0
10
424.61669208953924
20
66.641238403645303
30
0
10
424.67603715608664
20
66.735375595417764
30
0
0
SPLINE
5
333
100
AcDbEntity
8
0
100
AcDbSpline
70
0
71
2
72
6
73
3
74
0
42
0.000000001
43
0.0000000001
44
0.0000000001
40
0
40
0
40
0
40
1
40
1
40
1
10
424.67603715608664
20
66.735375595417764
30
0
10
424.73538237164564
20
66.829508018818643
30
0
10
424.73538237164564
20
66.956384849873331
30
0
0
SPLINE
5
334
100
AcDbEntity
8
0
100
AcDbSpline
70
0
71
2
72
6
73
3
74
0
42
0.000000001
43
0.0000000001
44
0.0000000001
40
0
40
0
40
0
40
1
40
1
40
1
10
424.73538237164564
20
66.956384849873331
30
0
10
424.73538237164564
20
67.185576629963663
30
0
10
424.58292665432043
20
67.337010574665811
30
0
0
SPLINE
5
335
100
AcDbEntity
8
0
100
AcDbSpline
70
0
71
2
72
6
73
3
74
0
42
0.000000001
43
0.0000000001
44
0.0000000001
40
0
40
0
40
0
40
1
40
1
40
1
10
424.58292665432043
20
67.337010574665811
30
0
10
424.43047093699522
20
67.48844451936796
30
0
10
424.09486370633192
20
67.48844451936796
30
0
0
LINE
5
336
100
AcDbEntity
8
0
100
AcDbLine
10
424.09486370633192
20
67.48844451936796
30
0
11
422.8322445089633
21
67.48844451936796
31
0
0
LINE
5
337
100
AcDbEntity
8
0
100
AcDbLine
10
422.8322445089633
20
67.48844451936796
30
0
11
422.8322445089633
21
67.85679168733671
31
0
0
LINE
5
338
100
AcDbEntity
8
0
100
AcDbLine
10
422.8322445089633
20
67.85679168733671
30
0
11
424.24424993346281
21
67.85679168733671
31
0
0
SPLINE
5
339
100
AcDbEntity
8
0
100
AcDbSpline
70
0
71
2
72
6
73
3
74
0
42
0.000000001
43
0.0000000001
44
0.0000000001
40
0
40
0
40
0
40
1
40
1
40
1
10
424.24424993346281
20
67.85679168733671
30
0
10
424.48981600354261
20
67.85679168733671
30
0
10
424.61259918759413
20
67.946832847920206
30
0
0
SPLINE
5
340
100
AcDbEntity
8
0
100
AcDbSpline
70
0
71
2
72
6
73
3
74
0
42
0.000000001
43
0.0000000001
44
0.0000000001
40
0
40
0
40
0
40
1
40
1
40
1
10
424.61259918759413
20
67.946832847920206
30
0
10
424.73538237164564
20
68.036874008503702
30
0
10
424.73538237164564
20
68.241513443318155
30
0
0
SPLINE
5
341
100
AcDbEntity
8
0
100
AcDbSpline
70
0
71
2
72
6
73
3
74
0
42
0.000000001
43
0.0000000001
44
0.0000000001
40
0
40
0
40
0
40
1
40
1
40
1
10
424.73538237164564
20
68.241513443318155
30
0
10
424.73538237164564
20
68.397038650837686
30
0
10
424.65352701495237
20
68.529027176228311
30
0
0
SPLINE
5
342
100
AcDbEntity
8
0
100
AcDbSpline
70
0
71
2
72
6
73
3
74
0
42
0.000000001
43
0.0000000001
44
0.0000000001
40
0
40
0
40
0
40
1
40
1
40
1
10
424.65352701495237
20
68.529027176228311
30
0
10
424.57167150924749
20
68.6610252383621
30
0
10
424.41409992526121
20
68.720367622700479
30
0
0
SPLINE
5
343
100
AcDbEntity
8
0
100
AcDbSpline
70
0
71
2
72
6
73
3
74
0
42
0.000000001
43
0.0000000001
44
0.0000000001
40
0
40
0
40
0
40
1
40
1
40
1
10
424.41409992526121
20
68.720367622700479
30
0
10
424.25652819226332
20
68.779710007038858
30
0
10
423.95980256150312
20
68.779710007038858
30
0
0
LINE
5
344
100
AcDbEntity
8
0
100
AcDbLine
10
423.95980256150312
20
68.779710007038858
30
0
11
422.8322445089633
21
68.779710007038858
31
0
0
LINE
5
345
100
AcDbEntity
8
0
100
AcDbLine
10
422.8322445089633
20
68.779710007038858
30
0
11
422.8322445089633
21
69.14806194337919
31
0
0
LWPOLYLINE
5
346
100
AcDbEntity
8
0
100
AcDbPolyline
90
8
70
1
43
0.0
10
420.7960917289073
20
93.965593052235391
10
418.15011637757368
20
93.965593052235391
10
418.15011637757368
20
93.568595123616007
10
420.7960917289073
20
93.568595123616007
10
420.7960917289073
20
92.576096725788858
10
421.15011649678297
20
92.576096725788858
10
421.15011649678297
20
94.953997803059366
10
420.7960917289073
20
94.953997803059366
0
LINE
5
347
100
AcDbEntity
8
0
100
AcDbLine
10
418.15011637757368
20
92.215936851826456
30
0
11
421.15011649678297
21
92.215936851826456
31
0
0
LINE
5
348
100
AcDbEntity
8
0
100
AcDbLine
10
421.15011649678297
20
92.215936851826456
30
0
11
421.15011649678297
21
91.847584915486124
31
0
0
LINE
5
349
100
AcDbEntity
8
0
100
AcDbLine
10
421.15011649678297
20
91.847584915486124
30
0
11
420.07371800492353
21
91.847584915486124
31
0
0
SPLINE
5
350
100
AcDbEntity
8
0
100
AcDbSpline
70
0
71
2
72
6
73
3
74
0
42
0.000000001
43
0.0000000001
44
0.0000000001
40
0
40
0
40
0
40
1
40
1
40
1
10
420.07371800492353
20
91.847584915486124
30
0
10
420.37248986313887
20
91.589739990559366
30
0
10
420.37248986313887
20
91.196835708943155
30
0
0
SPLINE
5
351
100
AcDbEntity
8
0
100
AcDbSpline
70
0
71
2
72
6
73
3
74
0
42
0.000000001
43
0.0000000001
44
0.0000000001
40
0
40
0
40
0
40
1
40
1
40
1
10
420.37248986313887
20
91.196835708943155
30
0
10
420.37248986313887
20
90.95536060365751
30
0
10
420.27733343194075
20
90.77732391389921
30
0
0
SPLINE
5
352
100
AcDbEntity
8
0
100
AcDbSpline
70
0
71
2
72
6
73
3
74
0
42
0.000000001
43
0.0000000001
44
0.0000000001
40
0
40
0
40
0
40
1
40
1
40
1
10
420.27733343194075
20
90.77732391389921
30
0
10
420.18217640469618
20
90.599291992512491
30
0
10
420.01437323639936
20
90.52254982027128
30
0
0
SPLINE
5
353
100
AcDbEntity
8
0
100
AcDbSpline
70
0
71
2
72
6
73
3
74
0
42
0.000000001
43
0.0000000001
44
0.0000000001
40
0
40
0
40
0
40
1
40
1
40
1
10
420.01437323639936
20
90.52254982027128
30
0
10
419.8465694720561
20
90.445812416401651
30
0
10
419.52733295510359
20
90.445812416401651
30
0
0
LINE
5
354
100
AcDbEntity
8
0
100
AcDbLine
10
419.52733295510359
20
90.445812416401651
30
0
11
418.15011637757368
21
90.445812416401651
31
0
0
LINE
5
355
100
AcDbEntity
8
0
100
AcDbLine
10
418.15011637757368
20
90.445812416401651
30
0
11
418.15011637757368
21
90.814159584370401
31
0
0
LINE
5
356
100
AcDbEntity
8
0
100
AcDbLine
10
418.15011637757368
20
90.814159584370401
30
0
11
419.52733295510359
21
90.814159584370401
31
0
0
SPLINE
5
357
100
AcDbEntity
8
0
100
AcDbSpline
70
0
71
2
72
6
73
3
74
0
42
0.000000001
43
0.0000000001
44
0.0000000001
40
0
40
0
40
0
40
1
40
1
40
1
10
419.52733295510359
20
90.814159584370401
30
0
10
419.80359511921949
20
90.814159584370401
30
0
10
419.92944794247694
20
90.933874321308878
30
0
0
SPLINE
5
358
100
AcDbEntity
8
0
100
AcDbSpline
70
0
71
2
72
6
73
3
74
0
42
0.000000001
43
0.0000000001
44
0.0000000001
40
0
40
0
40
0
40
1
40
1
40
1
10
419.92944794247694
20
90.933874321308878
30
0
10
420.05530076573439
20
91.053589058247354
30
0
10
420.05530076573439
20
91.272552681294229
30
0
0
SPLINE
5
359
100
AcDbEntity
8
0
100
AcDbSpline
70
0
71
2
72
6
73
3
74
0
42
0.000000001
43
0.0000000001
44
0.0000000001
40
0
40
0
40
0
40
1
40
1
40
1
10
420.05530076573439
20
91.272552681294229
30
0
10
420.05530076573439
20
91.436260414448526
30
0
10
419.97037547181196
20
91.580532265034464
30
0
0
SPLINE
5
360
100
AcDbEntity
8
0
100
AcDbSpline
70
0
71
2
72
6
73
3
74
0
42
0.000000001
43
0.0000000001
44
0.0000000001
40
0
40
0
40
0
40
1
40
1
40
1
10
419.97037547181196
20
91.580532265034464
30
0
10
419.88545077393599
20
91.724804115620401
30
0
10
419.7401572997386
20
91.786192131367471
30
0
0
SPLINE
5
361
100
AcDbEntity
8
0
100
AcDbSpline
70
0
71
2
72
6
73
3
74
0
42
0.000000001
43
0.0000000001
44
0.0000000001
40
0
40
0
40
0
40
1
40
1
40
1
10
419.7401572997386
20
91.786192131367471
30
0
10
419.59486382554121
20
91.847584915486124
30
0
10
419.33906572411604
20
91.847584915486124
30
0
0
LINE
5
362
100
AcDbEntity
8
0
100
AcDbLine
10
419.33906572411604
20
91.847584915486124
30
0
11
418.15011637757368
21
91.847584915486124
31
0
0
LINE
5
363
100
AcDbEntity
8
0
100
AcDbLine
10
418.15011637757368
20
91.847584915486124
30
0
11
418.15011637757368
21
92.215936851826456
31
0
0
LWPOLYLINE
5
364
100
AcDbEntity
8
0
100
AcDbPolyline
90
4
70
1
43
0.0
10
421.15011649678297
20
89.883053970661905
10
420.72651522706099
20
89.883053970661905
10
420.72651522706099
20
89.514706802693155
10
421.15011649678297
20
89.514706802693155
0
LWPOLYLINE
5
365
100
AcDbEntity
8
0
100
AcDbPolyline
90
4
70
1
43
0.0
10
420.32337682793684
20
89.883053970661905
10
418.15011637757368
20
89.883053970661905
10
418.15011637757368
20
89.514706802693155
10
420.32337682793684
20
89.514706802693155
0
LINE
5
366
100
AcDbEntity
8
0
100
AcDbLine
10
418.79882054875441
20
89.101336670246866
30
0
11
418.85611908982344
21
88.737080765095499
31
0
0
SPLINE
5
367
100
AcDbEntity
8
0
100
AcDbSpline
70
0
71
2
72
6
73
3
74
0
42
0.000000001
43
0.0000000001
44
0.0000000001
40
0
40
0
40
0
40
1
40
1
40
1
10
418.85611908982344
20
88.737080765095499
30
0
10
418.63715606282301
20
88.706381988850382
30
0
10
418.52051215718336
20
88.566206169453409
30
0
0
SPLINE
5
368
100
AcDbEntity
8
0
100
AcDbSpline
70
0
71
2
72
6
73
3
74
0
42
0.000000001
43
0.0000000001
44
0.0000000001
40
0
40
0
40
0
40
1
40
1
40
1
10
418.52051215718336
20
88.566206169453409
30
0
10
418.40386825154371
20
88.426030350056436
30
0
10
418.40386825154371
20
88.174327087727335
30
0
0
SPLINE
5
369
100
AcDbEntity
8
0
100
AcDbSpline
70
0
71
2
72
6
73
3
74
0
42
0.000000001
43
0.0000000001
44
0.0000000001
40
0
40
0
40
0
40
1
40
1
40
1
10
418.40386825154371
20
88.174327087727335
30
0
10
418.40386825154371
20
87.92057342561796
30
0
10
418.50721078465529
20
87.797787857380655
30
0
0
SPLINE
5
370
100
AcDbEntity
8
0
100
AcDbSpline
70
0
71
2
72
6
73
3
74
0
42
0.000000001
43
0.0000000001
44
0.0000000001
40
0
40
0
40
0
40
1
40
1
40
1
10
418.50721078465529
20
87.797787857380655
30
0
10
418.61055272172041
20
87.675007057514932
30
0
10
418.74970691750593
20
87.675007057514932
30
0
0
SPLINE
5
371
100
AcDbEntity
8
0
100
AcDbSpline
70
0
71
2
72
6
73
3
74
0
42
0.000000001
43
0.0000000001
44
0.0000000001
40
0
40
0
40
0
40
1
40
1
40
1
10
418.74970691750593
20
87.675007057514932
30
0
10
418.87453632901259
20
87.675007057514932
30
0
10
418.94616025040693
20
87.783463669148233
30
0
0
SPLINE
5
372
100
AcDbEntity
8
0
100
AcDbSpline
70
0
71
2
72
6
73
3
74
0
42
0.000000001
43
0.0000000001
44
0.0000000001
40
0
40
0
40
0
40
1
40
1
40
1
10
418.94616025040693
20
87.783463669148233
30
0
10
418.99527328560896
20
87.859180641499307
30
0
10
419.07098966191359
20
88.159998131123331
30
0
0
SPLINE
5
373
100
AcDbEntity
8
0
100
AcDbSpline
70
0
71
2
72
6
73
3
74
0
42
0.000000001
43
0.0000000001
44
0.0000000001
40
0
40
0
40
0
40
1
40
1
40
1
10
419.07098966191359
20
88.159998131123331
30
0
10
419.17330878327436
20
88.565185737934854
30
0
10
419.2480017478282
20
88.72173137697294
30
0
0
SPLINE
5
374
100
AcDbEntity
8
0
100
AcDbSpline
70
0
71
2
72
6
73
3
74
0
42
0.000000001
43
0.0000000001
44
0.0000000001
40
0
40
0
40
0
40
1
40
1
40
1
10
419.2480017478282
20
88.72173137697294
30
0
10
419.32269471238203
20
88.878281784382608
30
0
10
419.45468681405134
20
88.959115219441202
30
0
0
SPLINE
5
375
100
AcDbEntity
8
0
100
AcDbSpline
70
0
71
2
72
6
73
3
74
0
42
0.000000001
43
0.0000000001
44
0.0000000001
40
0
40
0
40
0
40
1
40
1
40
1
10
419.45468681405134
20
88.959115219441202
30
0
10
419.58667831967421
20
89.039943886128214
30
0
10
419.74629657815046
20
89.039943886128214
30
0
0
SPLINE
5
376
100
AcDbEntity
8
0
100
AcDbSpline
70
0
71
2
72
6
73
3
74
0
42
0.000000001
43
0.0000000001
44
0.0000000001
40
0
40
0
40
0
40
1
40
1
40
1
10
419.74629657815046
20
89.039943886128214
30
0
10
419.89159005234785
20
89.039943886128214
30
0
10
420.01539605210371
20
88.973439407673624
30
0
0
SPLINE
5
377
100
AcDbEntity
8
0
100
AcDbSpline
70
0
71
2
72
6
73
3
74
0
42
0.000000001
43
0.0000000001
44
0.0000000001
40
0
40
0
40
0
40
1
40
1
40
1
10
420.01539605210371
20
88.973439407673624
30
0
10
420.13920205185957
20
88.906930160847452
30
0
10
420.22105770657606
20
88.792331886616495
30
0
0
SPLINE
5
378
100
AcDbEntity
8
0
100
AcDbSpline
70
0
71
2
72
6
73
3
74
0
42
0.000000001
43
0.0000000001
44
0.0000000001
40
0
40
0
40
0
40
1
40
1
40
1
10
420.22105770657606
20
88.792331886616495
30
0
10
420.28449552605696
20
88.706381988850382
30
0
10
420.32849329064436
20
88.558018875447061
30
0
0
SPLINE
5
379
100
AcDbEntity
8
0
100
AcDbSpline
70
0
71
2
72
6
73
3
74
0
42
0.000000001
43
0.0000000001
44
0.0000000001
40
0
40
0
40
0
40
1
40
1
40
1
10
420.32849329064436
20
88.558018875447061
30
0
10
420.37249045918531
20
88.409660530415323
30
0
10
420.37249045918531
20
88.239806366291788
30
0
0
SPLINE
5
380
100
AcDbEntity
8
0
100
AcDbSpline
70
0
71
2
72
6
73
3
74
0
42
0.000000001
43
0.0000000001
44
0.0000000001
40
0
40
0
40
0
40
1
40
1
40
1
10
420.37249045918531
20
88.239806366291788
30
0
10
420.37249045918531
20
87.984011841145303
30
0
10
420.29882031033583
20
87.790625763264444
30
0
0
SPLINE
5
381
100
AcDbEntity
8
0
100
AcDbSpline
70
0
71
2
72
6
73
3
74
0
42
0.000000001
43
0.0000000001
44
0.0000000001
40
0
40
0
40
0
40
1
40
1
40
1
10
420.29882031033583
20
87.790625763264444
30
0
10
420.22515075753279
20
87.597244453755167
30
0
10
420.09929793427534
20
87.505157661762979
30
0
0
SPLINE
5
382
100
AcDbEntity
8
0
100
AcDbSpline
70
0
71
2
72
6
73
3
74
0
42
0.000000001
43
0.0000000001
44
0.0000000001
40
0
40
0
40
0
40
1
40
1
40
1
10
420.09929793427534
20
87.505157661762979
30
0
10
419.9734451110179
20
87.413070869770792
30
0
10
419.76266758988447
20
87.378280830708292
30
0
0
LINE
5
383
100
AcDbEntity
8
0
100
AcDbLine
10
419.76266758988436
20
87.378280830708292
30
0
11
419.71355455468245
21
87.738445473042276
31
0
0
SPLINE
5
384
100
AcDbEntity
8
0
100
AcDbSpline
70
0
71
2
72
6
73
3
74
0
42
0.000000001
43
0.0000000001
44
0.0000000001
40
0
40
0
40
0
40
1
40
1
40
1
10
419.71355455468245
20
87.738445473042276
30
0
10
419.88135772297926
20
87.763002586689737
30
0
10
419.97549193451948
20
87.88066692384794
30
0
0
SPLINE
5
385
100
AcDbEntity
8
0
100
AcDbSpline
70
0
71
2
72
6
73
3
74
0
42
0.000000001
43
0.0000000001
44
0.0000000001
40
0
40
0
40
0
40
1
40
1
40
1
10
419.97549193451948
20
87.88066692384794
30
0
10
420.06962555001326
20
87.998336029377725
30
0
10
420.06962555001326
20
88.213208389607217
30
0
0
SPLINE
5
386
100
AcDbEntity
8
0
100
AcDbSpline
70
0
71
2
72
6
73
3
74
0
42
0.000000001
43
0.0000000001
44
0.0000000001
40
0
40
0
40
0
40
1
40
1
40
1
10
420.06962555001326
20
88.213208389607217
30
0
10
420.06962555001326
20
88.46695728334501
30
0
10
419.98572366784163
20
88.575413894978311
30
0
0
SPLINE
5
387
100
AcDbEntity
8
0
100
AcDbSpline
70
0
71
2
72
6
73
3
74
0
42
0.000000001
43
0.0000000001
44
0.0000000001
40
0
40
0
40
0
40
1
40
1
40
1
10
419.98572366784163
20
88.575413894978311
30
0
10
419.90182178566999
20
88.683875274983194
30
0
10
419.78927033494062
20
88.683875274983194
30
0
0
SPLINE
5
388
100
AcDbEntity
8
0
100
AcDbSpline
70
0
71
2
72
6
73
3
74
0
42
0.000000001
43
0.0000000001
44
0.0000000001
40
0
40
0
40
0
40
1
40
1
40
1
10
419.78927033494062
20
88.683875274983194
30
0
10
419.71764700959272
20
88.683875274983194
30
0
10
419.66034846852369
20
88.638852310505655
30
0
0
SPLINE
5
389
100
AcDbEntity
8
0
100
AcDbSpline
70
0
71
2
72
6
73
3
74
0
42
0.000000001
43
0.0000000001
44
0.0000000001
40
0
40
0
40
0
40
1
40
1
40
1
10
419.66034846852369
20
88.638852310505655
30
0
10
419.60100310395308
20
88.593834114399698
30
0
10
419.56212180207319
20
88.497651291218546
30
0
0
SPLINE
5
390
100
AcDbEntity
8
0
100
AcDbSpline
70
0
71
2
72
6
73
3
74
0
42
0.000000001
43
0.0000000001
44
0.0000000001
40
0
40
0
40
0
40
1
40
1
40
1
10
419.56212180207319
20
88.497651291218546
30
0
10
419.54165833542891
20
88.442400169697549
30
0
10
419.46798818657942
20
88.172276687947061
30
0
0
SPLINE
5
391
100
AcDbEntity
8
0
100
AcDbSpline
70
0
71
2
72
6
73
3
74
0
42
0.000000001
43
0.0000000001
44
0.0000000001
40
0
40
0
40
0
40
1
40
1
40
1
10
419.46798818657942
20
88.172276687947061
30
0
10
419.36362224171705
20
87.781418037739542
30
0
10
419.29711478303022
20
87.626918030110147
30
0
0
SPLINE
5
392
100
AcDbEntity
8
0
100
AcDbSpline
70
0
71
2
72
6
73
3
74
0
42
0.000000001
43
0.0000000001
44
0.0000000001
40
0
40
0
40
0
40
1
40
1
40
1
10
419.29711478303022
20
87.626918030110147
30
0
10
419.2306073243434
20
87.472413254109171
30
0
10
419.1037316853816
20
87.384417724934366
30
0
0
SPLINE
5
393
100
AcDbEntity
8
0
100
AcDbSpline
70
0
71
2
72
6
73
3
74
0
42
0.000000001
43
0.0000000001
44
0.0000000001
40
0
40
0
40
0
40
1
40
1
40
1
10
419.1037316853816
20
87.384417724934366
30
0
10
418.97685604641981
20
87.296426964131143
30
0
10
418.78858821938582
20
87.296426964131143
30
0
0
SPLINE
5
394
100
AcDbEntity
8
0
100
AcDbSpline
70
0
71
2
72
6
73
3
74
0
42
0.000000001
43
0.0000000001
44
0.0000000001
40
0
40
0
40
0
40
1
40
1
40
1
10
418.78858821938582
20
87.296426964131143
30
0
10
418.60441403935499
20
87.296426964131143
30
0
10
418.4417261416728
20
87.403863144245889
30
0
0
SPLINE
5
395
100
AcDbEntity
8
0
100
AcDbSpline
70
0
71
2
72
6
73
3
74
0
42
0.000000001
43
0.0000000001
44
0.0000000001
40
0
40
0
40
0
40
1
40
1
40
1
10
418.4417261416728
20
87.403863144245889
30
0
10
418.27903884003706
20
87.511294555989053
30
0
10
418.19002109120436
20
87.713888359394815
30
0
0
SPLINE
5
396
100
AcDbEntity
8
0
100
AcDbSpline
70
0
71
2
72
6
73
3
74
0
42
0.000000001
43
0.0000000001
44
0.0000000001
40
0
40
0
40
0
40
1
40
1
40
1
10
418.19002109120436
20
87.713888359394815
30
0
10
418.10100334237165
20
87.916482162800577
30
0
10
418.10100334237165
20
88.172276687947061
30
0
0
SPLINE
5
397
100
AcDbEntity
8
0
100
AcDbSpline
70
0
71
2
72
6
73
3
74
0
42
0.000000001
43
0.0000000001
44
0.0000000001
40
0
40
0
40
0
40
1
40
1
40
1
10
418.10100334237165
20
88.172276687947061
30
0
10
418.10100334237165
20
88.595879745808389
30
0
10
418.27699201653547
20
88.817914200154092
30
0
0
SPLINE
5
398
100
AcDbEntity
8
0
100
AcDbSpline
70
0
71
2
72
6
73
3
74
0
42
0.000000001
43
0.0000000001
44
0.0000000001
40
0
40
0
40
0
40
1
40
1
40
1
10
418.27699201653547
20
88.817914200154092
30
0
10
418.45298128674574
20
89.039943886128214
30
0
10
418.79882054875441
20
89.101336670246866
30
0
0
LINE
5
399
100
AcDbEntity
8
0
100
AcDbLine
10
418.79882054875441
20
85.841444206562784
30
0
11
418.85611908982344
21
85.477188301411417
31
0
0
SPLINE
5
400
100
AcDbEntity
8
0
100
AcDbSpline
70
0
71
2
72
6
73
3
74
0
42
0.000000001
43
0.0000000001
44
0.0000000001
40
0
40
0
40
0
40
1
40
1
40
1
10
418.85611908982344
20
85.477188301411417
30
0
10
418.63715606282301
20
85.446494293537882
30
0
10
418.52051215718336
20
85.306313705769327
30
0
0
SPLINE
5
401
100
AcDbEntity
8
0
100
AcDbSpline
70
0
71
2
72
6
73
3
74
0
42
0.000000001
43
0.0000000001
44
0.0000000001
40
0
40
0
40
0
40
1
40
1
40
1
10
418.52051215718336
20
85.306313705769327
30
0
10
418.40386825154371
20
85.166137886372354
30
0
10
418.40386825154371
20
84.914434624043253
30
0
0
SPLINE
5
402
100
AcDbEntity
8
0
100
AcDbSpline
70
0
71
2
72
6
73
3
74
0
42
0.000000001
43
0.0000000001
44
0.0000000001
40
0
40
0
40
0
40
1
40
1
40
1
10
418.40386825154371
20
84.914434624043253
30
0
10
418.40386825154371
20
84.660680961933878
30
0
10
418.50721078465529
20
84.537900162068155
30
0
0
SPLINE
5
403
100
AcDbEntity
8
0
100
AcDbSpline
70
0
71
2
72
6
73
3
74
0
42
0.000000001
43
0.0000000001
44
0.0000000001
40
0
40
0
40
0
40
1
40
1
40
1
10
418.50721078465529
20
84.537900162068155
30
0
10
418.61055272172041
20
84.41511459383085
30
0
10
418.74970691750593
20
84.41511459383085
30
0
0
SPLINE
5
404
100
AcDbEntity
8
0
100
AcDbSpline
70
0
71
2
72
6
73
3
74
0
42
0.000000001
43
0.0000000001
44
0.0000000001
40
0
40
0
40
0
40
1
40
1
40
1
10
418.74970691750593
20
84.41511459383085
30
0
10
418.87453632901259
20
84.41511459383085
30
0
10
418.94616025040693
20
84.523575973835733
30
0
0
SPLINE
5
405
100
AcDbEntity
8
0
100
AcDbSpline
70
0
71
2
72
6
73
3
74
0
42
0.000000001
43
0.0000000001
44
0.0000000001
40
0
40
0
40
0
40
1
40
1
40
1
10
418.94616025040693
20
84.523575973835733
30
0
10
418.99527328560896
20
84.599288177815225
30
0
10
419.07098966191359
20
84.900110435810831
30
0
0
SPLINE
5
406
100
AcDbEntity
8
0
100
AcDbSpline
70
0
71
2
72
6
73
3
74
0
42
0.000000001
43
0.0000000001
44
0.0000000001
40
0
40
0
40
0
40
1
40
1
40
1
10
419.07098966191359
20
84.900110435810831
30
0
10
419.17330878327436
20
85.305293274250772
30
0
10
419.2480017478282
20
85.46184368166044
30
0
0
SPLINE
5
407
100
AcDbEntity
8
0
100
AcDbSpline
70
0
71
2
72
6
73
3
74
0
42
0.000000001
43
0.0000000001
44
0.0000000001
40
0
40
0
40
0
40
1
40
1
40
1
10
419.2480017478282
20
85.46184368166044
30
0
10
419.32269471238203
20
85.618389320698526
30
0
10
419.45468681405134
20
85.69922275575712
30
0
0
SPLINE
5
408
100
AcDbEntity
8
0
100
AcDbSpline
70
0
71
2
72
6
73
3
74
0
42
0.000000001
43
0.0000000001
44
0.0000000001
40
0
40
0
40
0
40
1
40
1
40
1
10
419.45468681405134
20
85.69922275575712
30
0
10
419.58667831967421
20
85.780056190815714
30
0
10
419.74629657815046
20
85.780056190815714
30
0
0
SPLINE
5
409
100
AcDbEntity
8
0
100
AcDbSpline
70
0
71
2
72
6
73
3
74
0
42
0.000000001
43
0.0000000001
44
0.0000000001
40
0
40
0
40
0
40
1
40
1
40
1
10
419.74629657815046
20
85.780056190815714
30
0
10
419.89159005234785
20
85.780056190815714
30
0
10
420.01539605210371
20
85.713546943989542
30
0
0
SPLINE
5
410
100
AcDbEntity
8
0
100
AcDbSpline
70
0
71
2
72
6
73
3
74
0
42
0.000000001
43
0.0000000001
44
0.0000000001
40
0
40
0
40
0
40
1
40
1
40
1
10
420.01539605210371
20
85.713546943989542
30
0
10
420.13920205185957
20
85.64703769716337
30
0
10
420.22105770657606
20
85.532439422932413
30
0
0
SPLINE
5
411
100
AcDbEntity
8
0
100
AcDbSpline
70
0
71
2
72
6
73
3
74
0
42
0.000000001
43
0.0000000001
44
0.0000000001
40
0
40
0
40
0
40
1
40
1
40
1
10
420.22105770657606
20
85.532439422932413
30
0
10
420.28449552605696
20
85.446494293537882
30
0
10
420.32849329064436
20
85.298131180134561
30
0
0
SPLINE
5
412
100
AcDbEntity
8
0
100
AcDbSpline
70
0
71
2
72
6
73
3
74
0
42
0.000000001
43
0.0000000001
44
0.0000000001
40
0
40
0
40
0
40
1
40
1
40
1
10
420.32849329064436
20
85.298131180134561
30
0
10
420.37249045918531
20
85.149768066731241
30
0
10
420.37249045918531
20
84.979918670979288
30
0
0
SPLINE
5
413
100
AcDbEntity
8
0
100
AcDbSpline
70
0
71
2
72
6
73
3
74
0
42
0.000000001
43
0.0000000001
44
0.0000000001
40
0
40
0
40
0
40
1
40
1
40
1
10
420.37249045918531
20
84.979918670979288
30
0
10
420.37249045918531
20
84.724119377461221
30
0
10
420.29882031033583
20
84.530738067951944
30
0
0
SPLINE
5
414
100
AcDbEntity
8
0
100
AcDbSpline
70
0
71
2
72
6
73
3
74
0
42
0.000000001
43
0.0000000001
44
0.0000000001
40
0
40
0
40
0
40
1
40
1
40
1
10
420.29882031033583
20
84.530738067951944
30
0
10
420.22515075753279
20
84.337351990071085
30
0
10
420.09929793427534
20
84.245265198078897
30
0
0
SPLINE
5
415
100
AcDbEntity
8
0
100
AcDbSpline
70
0
71
2
72
6
73
3
74
0
42
0.000000001
43
0.0000000001
44
0.0000000001
40
0
40
0
40
0
40
1
40
1
40
1
10
420.09929793427534
20
84.245265198078897
30
0
10
419.9734451110179
20
84.15317840608671
30
0
10
419.76266758988447
20
84.11838836702421
30
0
0
LINE
5
416
100
AcDbEntity
8
0
100
AcDbLine
10
419.76266758988436
20
84.11838836702421
30
0
11
419.71355455468245
21
84.478553009358194
31
0
0
SPLINE
5
417
100
AcDbEntity
8
0
100
AcDbSpline
70
0
71
2
72
6
73
3
74
0
42
0.000000001
43
0.0000000001
44
0.0000000001
40
0
40
0
40
0
40
1
40
1
40
1
10
419.71355455468245
20
84.478553009358194
30
0
10
419.88135772297926
20
84.503110123005655
30
0
10
419.97549193451948
20
84.62077922853544
30
0
0
SPLINE
5
418
100
AcDbEntity
8
0
100
AcDbSpline
70
0
71
2
72
6
73
3
74
0
42
0.000000001
43
0.0000000001
44
0.0000000001
40
0
40
0
40
0
40
1
40
1
40
1
10
419.97549193451948
20
84.62077922853544
30
0
10
420.06962555001326
20
84.738443565693643
30
0
10
420.06962555001326
20
84.953315925923135
30
0
0
SPLINE
5
419
100
AcDbEntity
8
0
100
AcDbSpline
70
0
71
2
72
6
73
3
74
0
42
0.000000001
43
0.0000000001
44
0.0000000001
40
0
40
0
40
0
40
1
40
1
40
1
10
420.06962555001326
20
84.953315925923135
30
0
10
420.06962555001326
20
85.207064819660928
30
0
10
419.98572366784163
20
85.315526199665811
30
0
0
SPLINE
5
420
100
AcDbEntity
8
0
100
AcDbSpline
70
0
71
2
72
6
73
3
74
0
42
0.000000001
43
0.0000000001
44
0.0000000001
40
0
40
0
40
0
40
1
40
1
40
1
10
419.98572366784163
20
85.315526199665811
30
0
10
419.90182178566999
20
85.423982811299112
30
0
10
419.78927033494062
20
85.423982811299112
30
0
0
SPLINE
5
421
100
AcDbEntity
8
0
100
AcDbSpline
70
0
71
2
72
6
73
3
74
0
42
0.000000001
43
0.0000000001
44
0.0000000001
40
0
40
0
40
0
40
1
40
1
40
1
10
419.78927033494062
20
85.423982811299112
30
0
10
419.71764700959272
20
85.423982811299112
30
0
10
419.66034846852369
20
85.378964615193155
30
0
0
SPLINE
5
422
100
AcDbEntity
8
0
100
AcDbSpline
70
0
71
2
72
6
73
3
74
0
42
0.000000001
43
0.0000000001
44
0.0000000001
40
0
40
0
40
0
40
1
40
1
40
1
10
419.66034846852369
20
85.378964615193155
30
0
10
419.60100310395308
20
85.333941650715616
30
0
10
419.56212180207319
20
85.237763595906046
30
0
0
SPLINE
5
423
100
AcDbEntity
8
0
100
AcDbSpline
70
0
71
2
72
6
73
3
74
0
42
0.000000001
43
0.0000000001
44
0.0000000001
40
0
40
0
40
0
40
1
40
1
40
1
10
419.56212180207319
20
85.237763595906046
30
0
10
419.54165833542891
20
85.182507706013467
30
0
10
419.46798818657942
20
84.912388992634561
30
0
0
SPLINE
5
424
100
AcDbEntity
8
0
100
AcDbSpline
70
0
71
2
72
6
73
3
74
0
42
0.000000001
43
0.0000000001
44
0.0000000001
40
0
40
0
40
0
40
1
40
1
40
1
10
419.46798818657942
20
84.912388992634561
30
0
10
419.36362224171705
20
84.52152557405546
30
0
10
419.29711478303022
20
84.367025566426065
30
0
0
SPLINE
5
425
100
AcDbEntity
8
0
100
AcDbSpline
70
0
71
2
72
6
73
3
74
0
42
0.000000001
43
0.0000000001
44
0.0000000001
40
0
40
0
40
0
40
1
40
1
40
1
10
419.29711478303022
20
84.367025566426065
30
0
10
419.2306073243434
20
84.212525558796671
30
0
10
419.1037316853816
20
84.124530029621866
30
0
0
SPLINE
5
426
100
AcDbEntity
8
0
100
AcDbSpline
70
0
71
2
72
6
73
3
74
0
42
0.000000001
43
0.0000000001
44
0.0000000001
40
0
40
0
40
0
40
1
40
1
40
1
10
419.1037316853816
20
84.124530029621866
30
0
10
418.97685604641981
20
84.036534500447061
30
0
10
418.78858821938582
20
84.036534500447061
30
0
0
SPLINE
5
427
100
AcDbEntity
8
0
100
AcDbSpline
70
0
71
2
72
6
73
3
74
0
42
0.000000001
43
0.0000000001
44
0.0000000001
40
0
40
0
40
0
40
1
40
1
40
1
10
418.78858821938582
20
84.036534500447061
30
0
10
418.60441403935499
20
84.036534500447061
30
0
10
418.4417261416728
20
84.143970680561807
30
0
0
SPLINE
5
428
100
AcDbEntity
8
0
100
AcDbSpline
70
0
71
2
72
6
73
3
74
0
42
0.000000001
43
0.0000000001
44
0.0000000001
40
0
40
0
40
0
40
1
40
1
40
1
10
418.4417261416728
20
84.143970680561807
30
0
10
418.27903884003706
20
84.251406860676553
30
0
10
418.19002109120436
20
84.453995895710733
30
0
0
SPLINE
5
429
100
AcDbEntity
8
0
100
AcDbSpline
70
0
71
2
72
6
73
3
74
0
42
0.000000001
43
0.0000000001
44
0.0000000001
40
0
40
0
40
0
40
1
40
1
40
1
10
418.19002109120436
20
84.453995895710733
30
0
10
418.10100334237165
20
84.656589699116495
30
0
10
418.10100334237165
20
84.912388992634561
30
0
0
SPLINE
5
430
100
AcDbEntity
8
0
100
AcDbSpline
70
0
71
2
72
6
73
3
74
0
42
0.000000001
43
0.0000000001
44
0.0000000001
40
0
40
0
40
0
40
1
40
1
40
1
10
418.10100334237165
20
84.912388992634561
30
0
10
418.10100334237165
20
85.335987282124307
30
0
10
418.27699201653547
20
85.55802173647001
30
0
0
SPLINE
5
431
100
AcDbEntity
8
0
100
AcDbSpline
70
0
71
2
72
6
73
3
74
0
42
0.000000001
43
0.0000000001
44
0.0000000001
40
0
40
0
40
0
40
1
40
1
40
1
10
418.27699201653547
20
85.55802173647001
30
0
10
418.45298128674574
20
85.780056190815714
30
0
10
418.79882054875441
20
85.841444206562784
30
0
0
LWPOLYLINE
5
432
100
AcDbEntity
8
0
100
AcDbPolyline
90
4
70
1
43
0.0
10
421.15011649678297
20
83.59656162294462
10
420.72651522706099
20
83.59656162294462
10
420.72651522706099
20
83.228209686604288
10
421.15011649678297
20
83.228209686604288
0
LWPOLYLINE
5
433
100
AcDbEntity
8
0
100
AcDbPolyline
90
4
70
1
43
0.0
10
420.32337682793684
20
83.59656162294462
10
418.15011637757368
20
83.59656162294462
10
418.15011637757368
20
83.228209686604288
10
420.32337682793684
20
83.228209686604288
0
LINE
5
434
100
AcDbEntity
8
0
100
AcDbLine
10
418.15011637757368
20
81.257546615925577
30
0
11
418.424331718188
21
81.257546615925577
31
0
0
SPLINE
5
435
100
AcDbEntity
8
0
100
AcDbSpline
70
0
71
2
72
6
73
3
74
0
42
0.000000001
43
0.0000000001
44
0.0000000001
40
0
40
0
40
0
40
1
40
1
40
1
10
418.424331718188
20
81.257546615925577
30
0
10
418.10100334237165
20
81.464226913777139
30
0
10
418.10100334237165
20
81.86532325777128
30
0
0
SPLINE
5
436
100
AcDbEntity
8
0
100
AcDbSpline
70
0
71
2
72
6
73
3
74
0
42
0.000000001
43
0.0000000001
44
0.0000000001
40
0
40
0
40
0
40
1
40
1
40
1
10
418.10100334237165
20
81.86532325777128
30
0
10
418.10100334237165
20
82.125209045735147
30
0
10
418.24424999306746
20
82.343152237263467
30
0
0
SPLINE
5
437
100
AcDbEntity
8
0
100
AcDbSpline
70
0
71
2
72
6
73
3
74
0
42
0.000000001
43
0.0000000001
44
0.0000000001
40
0
40
0
40
0
40
1
40
1
40
1
10
418.24424999306746
20
82.343152237263467
30
0
10
418.3874972398097
20
82.561090660420206
30
0
10
418.64431815693922
20
82.680805397358682
30
0
0
SPLINE
5
438
100
AcDbEntity
8
0
100
AcDbSpline
70
0
71
2
72
6
73
3
74
0
42
0.000000001
43
0.0000000001
44
0.0000000001
40
0
40
0
40
0
40
1
40
1
40
1
10
418.64431815693922
20
82.680805397358682
30
0
10
418.90113967011519
20
82.800520134297159
30
0
10
419.23470037530012
20
82.800520134297159
30
0
0
SPLINE
5
439
100
AcDbEntity
8
0
100
AcDbSpline
70
0
71
2
72
6
73
3
74
0
42
0.000000001
43
0.0000000001
44
0.0000000001
40
0
40
0
40
0
40
1
40
1
40
1
10
419.23470037530012
20
82.800520134297159
30
0
10
419.56007557461805
20
82.800520134297159
30
0
10
419.82508199761457
20
82.692063522663858
30
0
0
SPLINE
5
440
100
AcDbEntity
8
0
100
AcDbSpline
70
0
71
2
72
6
73
3
74
0
42
0.000000001
43
0.0000000001
44
0.0000000001
40
0
40
0
40
0
40
1
40
1
40
1
10
419.82508199761457
20
82.692063522663858
30
0
10
420.09008901665754
20
82.583602142658975
30
0
10
420.23128943989821
20
82.366684151020792
30
0
0
SPLINE
5
441
100
AcDbEntity
8
0
100
AcDbSpline
70
0
71
2
72
6
73
3
74
0
42
0.000000001
43
0.0000000001
44
0.0000000001
40
0
40
0
40
0
40
1
40
1
40
1
10
420.23128943989821
20
82.366684151020792
30
0
10
420.37248986313887
20
82.149766159382608
30
0
10
420.37248986313887
20
81.881693077412393
30
0
0
SPLINE
5
442
100
AcDbEntity
8
0
100
AcDbSpline
70
0
71
2
72
6
73
3
74
0
42
0.000000001
43
0.0000000001
44
0.0000000001
40
0
40
0
40
0
40
1
40
1
40
1
10
420.37248986313887
20
81.881693077412393
30
0
10
420.37248986313887
20
81.685240936604288
30
0
10
420.28961139271803
20
81.531761360493448
30
0
0
SPLINE
5
443
100
AcDbEntity
8
0
100
AcDbSpline
70
0
71
2
72
6
73
3
74
0
42
0.000000001
43
0.0000000001
44
0.0000000001
40
0
40
0
40
0
40
1
40
1
40
1
10
420.28961139271803
20
81.531761360493448
30
0
10
420.20673292229719
20
81.378281784382608
30
0
10
420.07371800492353
20
81.282103729573038
30
0
0
LINE
5
444
100
AcDbEntity
8
0
100
AcDbLine
10
420.07371800492353
20
81.282103729573038
30
0
11
421.15011590073652
21
81.282103729573038
31
0
0
LINE
5
445
100
AcDbEntity
8
0
100
AcDbLine
10
421.15011590073652
20
81.282103729573038
30
0
11
421.15011590073652
21
80.915797424641397
31
0
0
LINE
5
446
100
AcDbEntity
8
0
100
AcDbLine
10
421.15011590073652
20
80.915797424641397
30
0
11
418.15011637757368
21
80.915797424641397
31
0
0
LINE
5
447
100
AcDbEntity
8
0
100
AcDbLine
10
418.15011637757368
20
80.915797424641397
30
0
11
418.15011637757368
21
81.257546615925577
31
0
0
SPLINE
5
448
100
AcDbEntity
8
0
100
AcDbSpline
70
0
71
2
72
6
73
3
74
0
42
0.000000001
43
0.0000000001
44
0.0000000001
40
0
40
0
40
0
40
1
40
1
40
1
10
419.23470037530012
20
82.421935272541788
30
0
10
418.81723778794355
20
82.421935272541788
30
0
10
418.61055272172041
20
82.24594898256376
30
0
0
SPLINE
5
449
100
AcDbEntity
8
0
100
AcDbSpline
70
0
71
2
72
6
73
3
74
0
42
0.000000001
43
0.0000000001
44
0.0000000001
40
0
40
0
40
0
40
1
40
1
40
1
10
418.61055272172041
20
82.24594898256376
30
0
10
418.40386825154371
20
82.069957924214151
30
0
10
418.40386825154371
20
81.83053321870878
30
0
0
SPLINE
5
450
100
AcDbEntity
8
0
100
AcDbSpline
70
0
71
2
72
6
73
3
74
0
42
0.000000001
43
0.0000000001
44
0.0000000001
40
0
40
0
40
0
40
1
40
1
40
1
10
418.40386825154371
20
81.83053321870878
30
0
10
418.40386825154371
20
81.589058113423135
30
0
10
418.60134440014906
20
81.420233917561319
30
0
0
SPLINE
5
451
100
AcDbEntity
8
0
100
AcDbSpline
70
0
71
2
72
6
73
3
74
0
42
0.000000001
43
0.0000000001
44
0.0000000001
40
0
40
0
40
0
40
1
40
1
40
1
10
418.60134440014906
20
81.420233917561319
30
0
10
418.79881995270796
20
81.251404953327921
30
0
10
419.20400457928724
20
81.251404953327921
30
0
0
SPLINE
5
452
100
AcDbEntity
8
0
100
AcDbSpline
70
0
71
2
72
6
73
3
74
0
42
0.000000001
43
0.0000000001
44
0.0000000001
40
0
40
0
40
0
40
1
40
1
40
1
10
419.20400457928724
20
81.251404953327921
30
0
10
419.6501161391551
20
81.251404953327921
30
0
10
419.85884743283339
20
81.423304748860147
30
0
0
SPLINE
5
453
100
AcDbEntity
8
0
100
AcDbSpline
70
0
71
2
72
6
73
3
74
0
42
0.000000001
43
0.0000000001
44
0.0000000001
40
0
40
0
40
0
40
1
40
1
40
1
10
419.85884743283339
20
81.423304748860147
30
0
10
420.06757872651167
20
81.595199776020792
30
0
10
420.06757872651167
20
81.846903038349893
30
0
0
SPLINE
5
454
100
AcDbEntity
8
0
100
AcDbSpline
70
0
71
2
72
6
73
3
74
0
42
0.000000001
43
0.0000000001
44
0.0000000001
40
0
40
0
40
0
40
1
40
1
40
1
10
420.06757872651167
20
81.846903038349893
30
0
10
420.06757872651167
20
82.092469406452921
30
0
10
419.86703293870039
20
82.257202339497354
30
0
0
SPLINE
5
455
100
AcDbEntity
8
0
100
AcDbSpline
70
0
71
2
72
6
73
3
74
0
42
0.000000001
43
0.0000000001
44
0.0000000001
40
0
40
0
40
0
40
1
40
1
40
1
10
419.86703293870039
20
82.257202339497354
30
0
10
419.66648715088911
20
82.421935272541788
30
0
10
419.23470037530012
20
82.421935272541788
30
0
0
LINE
5
456
100
AcDbEntity
8
0
100
AcDbLine
10
418.84997981141157
20
78.848951530781534
30
0
11
418.80291300366468
21
78.468321037617471
31
0
0
SPLINE
5
457
100
AcDbEntity
8
0
100
AcDbSpline
70
0
71
2
72
6
73
3
74
0
42
0.000000001
43
0.0000000001
44
0.0000000001
40
0
40
0
40
0
40
1
40
1
40
1
10
418.80291300366468
20
78.468321037617471
30
0
10
418.46935229847975
20
78.558362198200967
30
0
10
418.28517752240248
20
78.801882934895303
30
0
0
SPLINE
5
458
100
AcDbEntity
8
0
100
AcDbSpline
70
0
71
2
72
6
73
3
74
0
42
0.000000001
43
0.0000000001
44
0.0000000001
40
0
40
0
40
0
40
1
40
1
40
1
10
418.28517752240248
20
78.801882934895303
30
0
10
418.10100334237165
20
79.045403671589639
30
0
10
418.10100334237165
20
79.423983764973428
30
0
0
SPLINE
5
459
100
AcDbEntity
8
0
100
AcDbSpline
70
0
71
2
72
6
73
3
74
0
42
0.000000001
43
0.0000000001
44
0.0000000001
40
0
40
0
40
0
40
1
40
1
40
1
10
418.10100334237165
20
79.423983764973428
30
0
10
418.10100334237165
20
79.900792312947061
30
0
10
418.39465933392592
20
80.180123520222452
30
0
0
SPLINE
5
460
100
AcDbEntity
8
0
100
AcDbSpline
70
0
71
2
72
6
73
3
74
0
42
0.000000001
43
0.0000000001
44
0.0000000001
40
0
40
0
40
0
40
1
40
1
40
1
10
418.39465933392592
20
80.180123520222452
30
0
10
418.68831532548018
20
80.459454727497842
30
0
10
419.21832936356611
20
80.459454727497842
30
0
0
SPLINE
5
461
100
AcDbEntity
8
0
100
AcDbSpline
70
0
71
2
72
6
73
3
74
0
42
0.000000001
43
0.0000000001
44
0.0000000001
40
0
40
0
40
0
40
1
40
1
40
1
10
419.21832936356611
20
80.459454727497842
30
0
10
419.76676004479475
20
80.459454727497842
30
0
10
420.06962555001326
20
80.177052688923624
30
0
0
SPLINE
5
462
100
AcDbEntity
8
0
100
AcDbSpline
70
0
71
2
72
6
73
3
74
0
42
0.000000001
43
0.0000000001
44
0.0000000001
40
0
40
0
40
0
40
1
40
1
40
1
10
420.06962555001326
20
80.177052688923624
30
0
10
420.37249045918531
20
79.894650650349405
30
0
10
420.37249045918531
20
79.444449615803507
30
0
0
SPLINE
5
463
100
AcDbEntity
8
0
100
AcDbSpline
70
0
71
2
72
6
73
3
74
0
42
0.000000001
43
0.0000000001
44
0.0000000001
40
0
40
0
40
0
40
1
40
1
40
1
10
420.37249045918531
20
79.444449615803507
30
0
10
420.37249045918531
20
79.008568001118448
30
0
10
420.07576482842512
20
78.732307625141885
30
0
0
SPLINE
5
464
100
AcDbEntity
8
0
100
AcDbSpline
70
0
71
2
72
6
73
3
74
0
42
0.000000001
43
0.0000000001
44
0.0000000001
40
0
40
0
40
0
40
1
40
1
40
1
10
420.07576482842512
20
78.732307625141885
30
0
10
419.77903860161848
20
78.456042480793741
30
0
10
419.24083965371199
20
78.456042480793741
30
0
0
SPLINE
5
465
100
AcDbEntity
8
0
100
AcDbSpline
70
0
71
2
72
6
73
3
74
0
42
0.000000001
43
0.0000000001
44
0.0000000001
40
0
40
0
40
0
40
1
40
1
40
1
10
419.24083965371199
20
78.456042480793741
30
0
10
419.20809703419752
20
78.456042480793741
30
0
10
419.14261298726149
20
78.458092880574014
30
0
0
LINE
5
466
100
AcDbEntity
8
0
100
AcDbLine
10
419.14261298726149
20
78.458092880574014
30
0
11
419.14261298726149
21
80.07882423433378
31
0
0
SPLINE
5
467
100
AcDbEntity
8
0
100
AcDbSpline
70
0
71
2
72
6
73
3
74
0
42
0.000000001
43
0.0000000001
44
0.0000000001
40
0
40
0
40
0
40
1
40
1
40
1
10
419.14261298726149
20
80.07882423433378
30
0
10
418.78449576447554
20
80.058363151875284
30
0
10
418.5941817099864
20
79.8762351992996
30
0
0
SPLINE
5
468
100
AcDbEntity
8
0
100
AcDbSpline
70
0
71
2
72
6
73
3
74
0
42
0.000000001
43
0.0000000001
44
0.0000000001
40
0
40
0
40
0
40
1
40
1
40
1
10
418.5941817099864
20
79.8762351992996
30
0
10
418.40386825154371
20
79.694107246723917
30
0
10
418.40386825154371
20
79.421938133564737
30
0
0
SPLINE
5
469
100
AcDbEntity
8
0
100
AcDbSpline
70
0
71
2
72
6
73
3
74
0
42
0.000000001
43
0.0000000001
44
0.0000000001
40
0
40
0
40
0
40
1
40
1
40
1
10
418.40386825154371
20
79.421938133564737
30
0
10
418.40386825154371
20
79.219344330158975
30
0
10
418.51027982781477
20
79.076097679463174
30
0
0
SPLINE
5
470
100
AcDbEntity
8
0
100
AcDbSpline
70
0
71
2
72
6
73
3
74
0
42
0.000000001
43
0.0000000001
44
0.0000000001
40
0
40
0
40
0
40
1
40
1
40
1
10
418.51027982781477
20
79.076097679463174
30
0
10
418.61669200013228
20
78.932851028767374
30
0
10
418.84997981141157
20
78.848951530781534
30
0
0
LINE
5
471
100
AcDbEntity
8
0
100
AcDbLine
10
419.44547789643354
20
80.058363151875284
30
0
11
419.44547789643354
21
78.844855499592569
31
0
0
SPLINE
5
472
100
AcDbEntity
8
0
100
AcDbSpline
70
0
71
2
72
6
73
3
74
0
42
0.000000001
43
0.0000000001
44
0.0000000001
40
0
40
0
40
0
40
1
40
1
40
1
10
419.44547789643354
20
78.844855499592569
30
0
10
419.71969383309431
20
78.86941261324003
30
0
10
419.85680120537825
20
78.984010887470987
30
0
0
SPLINE
5
473
100
AcDbEntity
8
0
100
AcDbSpline
70
0
71
2
72
6
73
3
74
0
42
0.000000001
43
0.0000000001
44
0.0000000001
40
0
40
0
40
0
40
1
40
1
40
1
10
419.85680120537825
20
78.984010887470987
30
0
10
420.06962555001326
20
79.160001945820596
30
0
10
420.06962555001326
20
79.440353584614542
30
0
0
SPLINE
5
474
100
AcDbEntity
8
0
100
AcDbSpline
70
0
71
2
72
6
73
3
74
0
42
0.000000001
43
0.0000000001
44
0.0000000001
40
0
40
0
40
0
40
1
40
1
40
1
10
420.06962555001326
20
79.440353584614542
30
0
10
420.06962555001326
20
79.694107246723917
30
0
10
419.89977555821486
20
79.867027473774698
30
0
0
SPLINE
5
475
100
AcDbEntity
8
0
100
AcDbSpline
70
0
71
2
72
6
73
3
74
0
42
0.000000001
43
0.0000000001
44
0.0000000001
40
0
40
0
40
0
40
1
40
1
40
1
10
419.89977555821486
20
79.867027473774698
30
0
10
419.72992556641645
20
80.039942932453897
30
0
10
419.44547789643354
20
80.058363151875284
30
0
0
LWPOLYLINE
5
476
100
AcDbEntity
8
0
100
AcDbPolyline
90
4
70
1
43
0.0
10
421.15011649678297
20
76.839402389851358
10
420.72651522706099
20
76.839402389851358
10
420.72651522706099
20
76.471050453511026
10
421.15011649678297
20
76.471050453511026
0
LWPOLYLINE
5
477
100
AcDbEntity
8
0
100
AcDbPolyline
90
4
70
1
43
0.0
10
420.32337682793684
20
76.839402389851358
10
418.15011637757368
20
76.839402389851358
10
418.15011637757368
20
76.471050453511026
10
420.32337682793684
20
76.471050453511026
0
LINE
5
478
100
AcDbEntity
8
0
100
AcDbLine
10
418.15011637757368
20
75.910342407551553
30
0
11
420.32337682793684
21
75.910342407551553
31
0
0
LINE
5
479
100
AcDbEntity
8
0
100
AcDbLine
10
420.32337682793684
20
75.910342407551553
30
0
11
420.32337682793684
21
75.578826141682413
31
0
0
LINE
5
480
100
AcDbEntity
8
0
100
AcDbLine
10
420.32337682793684
20
75.578826141682413
30
0
11
420.01437323639936
21
75.578826141682413
31
0
0
SPLINE
5
481
100
AcDbEntity
8
0
100
AcDbSpline
70
0
71
2
72
6
73
3
74
0
42
0.000000001
43
0.0000000001
44
0.0000000001
40
0
40
0
40
0
40
1
40
1
40
1
10
420.01437323639936
20
75.578826141682413
30
0
10
420.37248986313887
20
75.339401436177042
30
0
10
420.37248986313887
20
74.887145233479288
30
0
0
SPLINE
5
482
100
AcDbEntity
8
0
100
AcDbSpline
70
0
71
2
72
6
73
3
74
0
42
0.000000001
43
0.0000000001
44
0.0000000001
40
0
40
0
40
0
40
1
40
1
40
1
10
420.37248986313887
20
74.887145233479288
30
0
10
420.37248986313887
20
74.690697861042764
30
0
10
420.30188994954176
20
74.525960159626749
30
0
0
SPLINE
5
483
100
AcDbEntity
8
0
100
AcDbSpline
70
0
71
2
72
6
73
3
74
0
42
0.000000001
43
0.0000000001
44
0.0000000001
40
0
40
0
40
0
40
1
40
1
40
1
10
420.30188994954176
20
74.525960159626749
30
0
10
420.23129003594465
20
74.361227226582315
30
0
10
420.1166917617137
20
74.279373360005167
30
0
0
SPLINE
5
484
100
AcDbEntity
8
0
100
AcDbSpline
70
0
71
2
72
6
73
3
74
0
42
0.000000001
43
0.0000000001
44
0.0000000001
40
0
40
0
40
0
40
1
40
1
40
1
10
420.1166917617137
20
74.279373360005167
30
0
10
420.00209467957563
20
74.197514725056436
30
0
10
419.84452264855452
20
74.16477508577421
30
0
0
SPLINE
5
485
100
AcDbEntity
8
0
100
AcDbSpline
70
0
71
2
72
6
73
3
74
0
42
0.000000001
43
0.0000000001
44
0.0000000001
40
0
40
0
40
0
40
1
40
1
40
1
10
419.84452264855452
20
74.16477508577421
30
0
10
419.74220352719374
20
74.144309234944132
30
0
10
419.48640542576857
20
74.144309234944132
30
0
0
LINE
5
486
100
AcDbEntity
8
0
100
AcDbLine
10
419.48640542576857
20
74.144309234944132
30
0
11
418.15011637757368
21
74.144309234944132
31
0
0
LINE
5
487
100
AcDbEntity
8
0
100
AcDbLine
10
418.15011637757368
20
74.144309234944132
30
0
11
418.15011637757368
21
74.512661171284464
31
0
0
LINE
5
488
100
AcDbEntity
8
0
100
AcDbLine
10
418.15011637757368
20
74.512661171284464
30
0
11
419.4720806414897
21
74.512661171284464
31
0
0
SPLINE
5
489
100
AcDbEntity
8
0
100
AcDbSpline
70
0
71
2
72
6
73
3
74
0
42
0.000000001
43
0.0000000001
44
0.0000000001
40
0
40
0
40
0
40
1
40
1
40
1
10
419.4720806414897
20
74.512661171284464
30
0
10
419.69718354294844
20
74.512661171284464
30
0
10
419.80871098588057
20
74.555633735981729
30
0
0
SPLINE
5
490
100
AcDbEntity
8
0
100
AcDbSpline
70
0
71
2
72
6
73
3
74
0
42
0.000000001
43
0.0000000001
44
0.0000000001
40
0
40
0
40
0
40
1
40
1
40
1
10
419.80871098588057
20
74.555633735981729
30
0
10
419.92023902485914
20
74.598611069050577
30
0
10
419.98674648354597
20
74.708092880574014
30
0
0
SPLINE
5
491
100
AcDbEntity
8
0
100
AcDbSpline
70
0
71
2
72
6
73
3
74
0
42
0.000000001
43
0.0000000001
44
0.0000000001
40
0
40
0
40
0
40
1
40
1
40
1
10
419.98674648354597
20
74.708092880574014
30
0
10
420.05325453827925
20
74.817574692097452
30
0
10
420.05325453827925
20
74.964912605610635
30
0
0
SPLINE
5
492
100
AcDbEntity
8
0
100
AcDbSpline
70
0
71
2
72
6
73
3
74
0
42
0.000000001
43
0.0000000001
44
0.0000000001
40
0
40
0
40
0
40
1
40
1
40
1
10
420.05325453827925
20
74.964912605610635
30
0
10
420.05325453827925
20
75.200246048298624
30
0
10
419.90386801312513
20
75.371115875569132
30
0
0
SPLINE
5
493
100
AcDbEntity
8
0
100
AcDbSpline
70
0
71
2
72
6
73
3
74
0
42
0.000000001
43
0.0000000001
44
0.0000000001
40
0
40
0
40
0
40
1
40
1
40
1
10
419.90386801312513
20
75.371115875569132
30
0
10
419.75448208401747
20
75.541990471211221
30
0
10
419.3370194966609
20
75.541990471211221
30
0
0
LINE
5
494
100
AcDbEntity
8
0
100
AcDbLine
10
419.3370194966609
20
75.541990471211221
30
0
11
418.15011637757368
21
75.541990471211221
31
0
0
LINE
5
495
100
AcDbEntity
8
0
100
AcDbLine
10
418.15011637757368
20
75.541990471211221
30
0
11
418.15011637757368
21
75.910342407551553
31
0
0
LINE
5
496
100
AcDbEntity
8
0
100
AcDbLine
10
418.79882054875441
20
73.72684783968046
30
0
11
418.85611908982344
21
73.362591934529092
31
0
0
SPLINE
5
497
100
AcDbEntity
8
0
100
AcDbSpline
70
0
71
2
72
6
73
3
74
0
42
0.000000001
43
0.0000000001
44
0.0000000001
40
0
40
0
40
0
40
1
40
1
40
1
10
418.85611908982344
20
73.362591934529092
30
0
10
418.63715606282301
20
73.331893158283975
30
0
10
418.52051215718336
20
73.191717338887003
30
0
0
SPLINE
5
498
100
AcDbEntity
8
0
100
AcDbSpline
70
0
71
2
72
6
73
3
74
0
42
0.000000001
43
0.0000000001
44
0.0000000001
40
0
40
0
40
0
40
1
40
1
40
1
10
418.52051215718336
20
73.191717338887003
30
0
10
418.40386825154371
20
73.05154151949003
30
0
10
418.40386825154371
20
72.799838257160928
30
0
0
SPLINE
5
499
100
AcDbEntity
8
0
100
AcDbSpline
70
0
71
2
72
6
73
3
74
0
42
0.000000001
43
0.0000000001
44
0.0000000001
40
0
40
0
40
0
40
1
40
1
40
1
10
418.40386825154371
20
72.799838257160928
30
0
10
418.40386825154371
20
72.546084595051553
30
0
10
418.50721078465529
20
72.423299026814249
30
0
0
SPLINE
5
500
100
AcDbEntity
8
0
100
AcDbSpline
70
0
71
2
72
6
73
3
74
0
42
0.000000001
43
0.0000000001
44
0.0000000001
40
0
40
0
40
0
40
1
40
1
40
1
10
418.50721078465529
20
72.423299026814249
30
0
10
418.61055272172041
20
72.300518226948526
30
0
10
418.74970691750593
20
72.300518226948526
30
0
0
SPLINE
5
501
100
AcDbEntity
8
0
100
AcDbSpline
70
0
71
2
72
6
73
3
74
0
42
0.000000001
43
0.0000000001
44
0.0000000001
40
0
40
0
40
0
40
1
40
1
40
1
10
418.74970691750593
20
72.300518226948526
30
0
10
418.87453632901259
20
72.300518226948526
30
0
10
418.94616025040693
20
72.408974838581827
30
0
0
SPLINE
5
502
100
AcDbEntity
8
0
100
AcDbSpline
70
0
71
2
72
6
73
3
74
0
42
0.000000001
43
0.0000000001
44
0.0000000001
40
0
40
0
40
0
40
1
40
1
40
1
10
418.94616025040693
20
72.408974838581827
30
0
10
418.99527328560896
20
72.484691810932901
30
0
10
419.07098966191359
20
72.785514068928507
30
0
0
SPLINE
5
503
100
AcDbEntity
8
0
100
AcDbSpline
70
0
71
2
72
6
73
3
74
0
42
0.000000001
43
0.0000000001
44
0.0000000001
40
0
40
0
40
0
40
1
40
1
40
1
10
419.07098966191359
20
72.785514068928507
30
0
10
419.17330878327436
20
73.190692138996866
30
0
10
419.2480017478282
20
73.347242546406534
30
0
0
SPLINE
5
504
100
AcDbEntity
8
0
100
AcDbSpline
70
0
71
2
72
6
73
3
74
0
42
0.000000001
43
0.0000000001
44
0.0000000001
40
0
40
0
40
0
40
1
40
1
40
1
10
419.2480017478282
20
73.347242546406534
30
0
10
419.32269471238203
20
73.503792953816202
30
0
10
419.45468681405134
20
73.584626388874796
30
0
0
SPLINE
5
505
100
AcDbEntity
8
0
100
AcDbSpline
70
0
71
2
72
6
73
3
74
0
42
0.000000001
43
0.0000000001
44
0.0000000001
40
0
40
0
40
0
40
1
40
1
40
1
10
419.45468681405134
20
73.584626388874796
30
0
10
419.58667831967421
20
73.665459823933389
30
0
10
419.74629657815046
20
73.665459823933389
30
0
0
SPLINE
5
506
100
AcDbEntity
8
0
100
AcDbSpline
70
0
71
2
72
6
73
3
74
0
42
0.000000001
43
0.0000000001
44
0.0000000001
40
0
40
0
40
0
40
1
40
1
40
1
10
419.74629657815046
20
73.665459823933389
30
0
10
419.89159005234785
20
73.665459823933389
30
0
10
420.01539605210371
20
73.598950577107217
30
0
0
SPLINE
5
507
100
AcDbEntity
8
0
100
AcDbSpline
70
0
71
2
72
6
73
3
74
0
42
0.000000001
43
0.0000000001
44
0.0000000001
40
0
40
0
40
0
40
1
40
1
40
1
10
420.01539605210371
20
73.598950577107217
30
0
10
420.13920205185957
20
73.532441330281046
30
0
10
420.22105770657606
20
73.417843056050089
30
0
0
SPLINE
5
508
100
AcDbEntity
8
0
100
AcDbSpline
70
0
71
2
72
6
73
3
74
0
42
0.000000001
43
0.0000000001
44
0.0000000001
40
0
40
0
40
0
40
1
40
1
40
1
10
420.22105770657606
20
73.417843056050089
30
0
10
420.28449552605696
20
73.331893158283975
30
0
10
420.32849329064436
20
73.183530044880655
30
0
0
SPLINE
5
509
100
AcDbEntity
8
0
100
AcDbSpline
70
0
71
2
72
6
73
3
74
0
42
0.000000001
43
0.0000000001
44
0.0000000001
40
0
40
0
40
0
40
1
40
1
40
1
10
420.32849329064436
20
73.183530044880655
30
0
10
420.37249045918531
20
73.035166931477335
30
0
10
420.37249045918531
20
72.865317535725382
30
0
0
SPLINE
5
510
100
AcDbEntity
8
0
100
AcDbSpline
70
0
71
2
72
6
73
3
74
0
42
0.000000001
43
0.0000000001
44
0.0000000001
40
0
40
0
40
0
40
1
40
1
40
1
10
420.37249045918531
20
72.865317535725382
30
0
10
420.37249045918531
20
72.609523010578897
30
0
10
420.29882031033583
20
72.416136932698038
30
0
0
SPLINE
5
511
100
AcDbEntity
8
0
100
AcDbSpline
70
0
71
2
72
6
73
3
74
0
42
0.000000001
43
0.0000000001
44
0.0000000001
40
0
40
0
40
0
40
1
40
1
40
1
10
420.29882031033583
20
72.416136932698038
30
0
10
420.22515075753279
20
72.22275562318876
30
0
10
420.09929793427534
20
72.130668831196573
30
0
0
SPLINE
5
512
100
AcDbEntity
8
0
100
AcDbSpline
70
0
71
2
72
6
73
3
74
0
42
0.000000001
43
0.0000000001
44
0.0000000001
40
0
40
0
40
0
40
1
40
1
40
1
10
420.09929793427534
20
72.130668831196573
30
0
10
419.9734451110179
20
72.038577270832803
30
0
10
419.76266758988447
20
72.003792000141885
30
0
0
LINE
5
513
100
AcDbEntity
8
0
100
AcDbLine
10
419.76266758988436
20
72.003792000141885
30
0
11
419.71355455468245
21
72.36395664247587
31
0
0
SPLINE
5
514
100
AcDbEntity
8
0
100
AcDbSpline
70
0
71
2
72
6
73
3
74
0
42
0.000000001
43
0.0000000001
44
0.0000000001
40
0
40
0
40
0
40
1
40
1
40
1
10
419.71355455468245
20
72.36395664247587
30
0
10
419.88135772297926
20
72.388508987751749
30
0
10
419.97549193451948
20
72.506182861653116
30
0
0
SPLINE
5
515
100
AcDbEntity
8
0
100
AcDbSpline
70
0
71
2
72
6
73
3
74
0
42
0.000000001
43
0.0000000001
44
0.0000000001
40
0
40
0
40
0
40
1
40
1
40
1
10
419.97549193451948
20
72.506182861653116
30
0
10
420.06962555001326
20
72.623847198811319
30
0
10
420.06962555001326
20
72.838719559040811
30
0
0
SPLINE
5
516
100
AcDbEntity
8
0
100
AcDbSpline
70
0
71
2
72
6
73
3
74
0
42
0.000000001
43
0.0000000001
44
0.0000000001
40
0
40
0
40
0
40
1
40
1
40
1
10
420.06962555001326
20
72.838719559040811
30
0
10
420.06962555001326
20
73.092468452778604
30
0
10
419.98572366784163
20
73.200925064411905
30
0
0
SPLINE
5
517
100
AcDbEntity
8
0
100
AcDbSpline
70
0
71
2
72
6
73
3
74
0
42
0.000000001
43
0.0000000001
44
0.0000000001
40
0
40
0
40
0
40
1
40
1
40
1
10
419.98572366784163
20
73.200925064411905
30
0
10
419.90182178566999
20
73.309386444416788
30
0
10
419.78927033494062
20
73.309386444416788
30
0
0
SPLINE
5
518
100
AcDbEntity
8
0
100
AcDbSpline
70
0
71
2
72
6
73
3
74
0
42
0.000000001
43
0.0000000001
44
0.0000000001
40
0
40
0
40
0
40
1
40
1
40
1
10
419.78927033494062
20
73.309386444416788
30
0
10
419.71764700959272
20
73.309386444416788
30
0
10
419.66034846852369
20
73.264363479939249
30
0
0
SPLINE
5
519
100
AcDbEntity
8
0
100
AcDbSpline
70
0
71
2
72
6
73
3
74
0
42
0.000000001
43
0.0000000001
44
0.0000000001
40
0
40
0
40
0
40
1
40
1
40
1
10
419.66034846852369
20
73.264363479939249
30
0
10
419.60100310395308
20
73.219345283833292
30
0
10
419.56212180207319
20
73.123162460652139
30
0
0
SPLINE
5
520
100
AcDbEntity
8
0
100
AcDbSpline
70
0
71
2
72
6
73
3
74
0
42
0.000000001
43
0.0000000001
44
0.0000000001
40
0
40
0
40
0
40
1
40
1
40
1
10
419.56212180207319
20
73.123162460652139
30
0
10
419.54165833542891
20
73.067911339131143
30
0
10
419.46798818657942
20
72.797787857380655
30
0
0
SPLINE
5
521
100
AcDbEntity
8
0
100
AcDbSpline
70
0
71
2
72
6
73
3
74
0
42
0.000000001
43
0.0000000001
44
0.0000000001
40
0
40
0
40
0
40
1
40
1
40
1
10
419.46798818657942
20
72.797787857380655
30
0
10
419.36362224171705
20
72.406929207173135
30
0
10
419.29711478303022
20
72.252429199543741
30
0
0
SPLINE
5
522
100
AcDbEntity
8
0
100
AcDbSpline
70
0
71
2
72
6
73
3
74
0
42
0.000000001
43
0.0000000001
44
0.0000000001
40
0
40
0
40
0
40
1
40
1
40
1
10
419.29711478303022
20
72.252429199543741
30
0
10
419.2306073243434
20
72.097924423542764
30
0
10
419.1037316853816
20
72.00992889436796
30
0
0
SPLINE
5
523
100
AcDbEntity
8
0
100
AcDbSpline
70
0
71
2
72
6
73
3
74
0
42
0.000000001
43
0.0000000001
44
0.0000000001
40
0
40
0
40
0
40
1
40
1
40
1
10
419.1037316853816
20
72.00992889436796
30
0
10
418.97685604641981
20
71.921933365193155
30
0
10
418.78858821938582
20
71.921933365193155
30
0
0
SPLINE
5
524
100
AcDbEntity
8
0
100
AcDbSpline
70
0
71
2
72
6
73
3
74
0
42
0.000000001
43
0.0000000001
44
0.0000000001
40
0
40
0
40
0
40
1
40
1
40
1
10
418.78858821938582
20
71.921933365193155
30
0
10
418.60441403935499
20
71.921933365193155
30
0
10
418.4417261416728
20
72.029374313679483
30
0
0
SPLINE
5
525
100
AcDbEntity
8
0
100
AcDbSpline
70
0
71
2
72
6
73
3
74
0
42
0.000000001
43
0.0000000001
44
0.0000000001
40
0
40
0
40
0
40
1
40
1
40
1
10
418.4417261416728
20
72.029374313679483
30
0
10
418.27903884003706
20
72.136805725422647
30
0
10
418.19002109120436
20
72.339399528828409
30
0
0
SPLINE
5
526
100
AcDbEntity
8
0
100
AcDbSpline
70
0
71
2
72
6
73
3
74
0
42
0.000000001
43
0.0000000001
44
0.0000000001
40
0
40
0
40
0
40
1
40
1
40
1
10
418.19002109120436
20
72.339399528828409
30
0
10
418.10100334237165
20
72.541993332234171
30
0
10
418.10100334237165
20
72.797787857380655
30
0
0
SPLINE
5
527
100
AcDbEntity
8
0
100
AcDbSpline
70
0
71
2
72
6
73
3
74
0
42
0.000000001
43
0.0000000001
44
0.0000000001
40
0
40
0
40
0
40
1
40
1
40
1
10
418.10100334237165
20
72.797787857380655
30
0
10
418.10100334237165
20
73.221390915241983
30
0
10
418.27699201653547
20
73.443425369587686
30
0
0
SPLINE
5
528
100
AcDbEntity
8
0
100
AcDbSpline
70
0
71
2
72
6
73
3
74
0
42
0.000000001
43
0.0000000001
44
0.0000000001
40
0
40
0
40
0
40
1
40
1
40
1
10
418.27699201653547
20
73.443425369587686
30
0
10
418.45298128674574
20
73.665459823933389
30
0
10
418.79882054875441
20
73.72684783968046
30
0
0
LWPOLYLINE
5
529
100
AcDbEntity
8
0
100
AcDbPolyline
90
4
70
1
43
0.0
10
421.15011649678297
20
71.481965256062296
10
420.72651522706099
20
71.481965256062296
10
420.72651522706099
20
71.113618088093546
10
421.15011649678297
20
71.113618088093546
0
LWPOLYLINE
5
530
100
AcDbEntity
8
0
100
AcDbPolyline
90
4
70
1
43
0.0
10
420.32337682793684
20
71.481965256062296
10
418.15011637757368
20
71.481965256062296
10
418.15011637757368
20
71.113618088093546
10
420.32337682793684
20
71.113618088093546
0
LINE
5
531
100
AcDbEntity
8
0
100
AcDbLine
10
418.15011637757368
20
69.142945480671671
30
0
11
418.424331718188
21
69.142945480671671
31
0
0
SPLINE
5
532
100
AcDbEntity
8
0
100
AcDbSpline
70
0
71
2
72
6
73
3
74
0
42
0.000000001
43
0.0000000001
44
0.0000000001
40
0
40
0
40
0
40
1
40
1
40
1
10
418.424331718188
20
69.142945480671671
30
0
10
418.10100334237165
20
69.349635315266397
30
0
10
418.10100334237165
20
69.750722122517374
30
0
0
SPLINE
5
533
100
AcDbEntity
8
0
100
AcDbSpline
70
0
71
2
72
6
73
3
74
0
42
0.000000001
43
0.0000000001
44
0.0000000001
40
0
40
0
40
0
40
1
40
1
40
1
10
418.10100334237165
20
69.750722122517374
30
0
10
418.10100334237165
20
70.010617447224405
30
0
10
418.24424999306746
20
70.228551102009561
30
0
0
SPLINE
5
534
100
AcDbEntity
8
0
100
AcDbSpline
70
0
71
2
72
6
73
3
74
0
42
0.000000001
43
0.0000000001
44
0.0000000001
40
0
40
0
40
0
40
1
40
1
40
1
10
418.24424999306746
20
70.228551102009561
30
0
10
418.3874972398097
20
70.446494293537882
30
0
10
418.64431815693922
20
70.566209030476358
30
0
0
SPLINE
5
535
100
AcDbEntity
8
0
100
AcDbSpline
70
0
71
2
72
6
73
3
74
0
42
0.000000001
43
0.0000000001
44
0.0000000001
40
0
40
0
40
0
40
1
40
1
40
1
10
418.64431815693922
20
70.566209030476358
30
0
10
418.90113967011519
20
70.685923767414835
30
0
10
419.23470037530012
20
70.685923767414835
30
0
0
SPLINE
5
536
100
AcDbEntity
8
0
100
AcDbSpline
70
0
71
2
72
6
73
3
74
0
42
0.000000001
43
0.0000000001
44
0.0000000001
40
0
40
0
40
0
40
1
40
1
40
1
10
419.23470037530012
20
70.685923767414835
30
0
10
419.56007557461805
20
70.685923767414835
30
0
10
419.82508199761457
20
70.577462387409952
30
0
0
SPLINE
5
537
100
AcDbEntity
8
0
100
AcDbSpline
70
0
71
2
72
6
73
3
74
0
42
0.000000001
43
0.0000000001
44
0.0000000001
40
0
40
0
40
0
40
1
40
1
40
1
10
419.82508199761457
20
70.577462387409952
30
0
10
420.09008901665754
20
70.469005775776651
30
0
10
420.23128943989821
20
70.252087784138467
30
0
0
SPLINE
5
538
100
AcDbEntity
8
0
100
AcDbSpline
70
0
71
2
72
6
73
3
74
0
42
0.000000001
43
0.0000000001
44
0.0000000001
40
0
40
0
40
0
40
1
40
1
40
1
10
420.23128943989821
20
70.252087784138467
30
0
10
420.37248986313887
20
70.035174560871866
30
0
10
420.37248986313887
20
69.767096710530069
30
0
0
SPLINE
5
539
100
AcDbEntity
8
0
100
AcDbSpline
70
0
71
2
72
6
73
3
74
0
42
0.000000001
43
0.0000000001
44
0.0000000001
40
0
40
0
40
0
40
1
40
1
40
1
10
420.37248986313887
20
69.767096710530069
30
0
10
420.37248986313887
20
69.570639801350382
30
0
10
420.28961139271803
20
69.417164993611124
30
0
0
SPLINE
5
540
100
AcDbEntity
8
0
100
AcDbSpline
70
0
71
2
72
6
73
3
74
0
42
0.000000001
43
0.0000000001
44
0.0000000001
40
0
40
0
40
0
40
1
40
1
40
1
10
420.28961139271803
20
69.417164993611124
30
0
10
420.20673292229719
20
69.263680649128702
30
0
10
420.07371800492353
20
69.167502594319132
30
0
0
LINE
5
541
100
AcDbEntity
8
0
100
AcDbLine
10
420.07371800492353
20
69.167502594319132
30
0
11
421.15011590073652
21
69.167502594319132
31
0
0
LINE
5
542
100
AcDbEntity
8
0
100
AcDbLine
10
421.15011590073652
20
69.167502594319132
30
0
11
421.15011590073652
21
68.801201057759073
31
0
0
LINE
5
543
100
AcDbEntity
8
0
100
AcDbLine
10
421.15011590073652
20
68.801201057759073
30
0
11
418.15011637757368
21
68.801201057759073
31
0
0
LINE
5
544
100
AcDbEntity
8
0
100
AcDbLine
10
418.15011637757368
20
68.801201057759073
30
0
11
418.15011637757368
21
69.142945480671671
31
0
0
SPLINE
5
545
100
AcDbEntity
8
0
100
AcDbSpline
70
0
71
2
72
6
73
3
74
0
42
0.000000001
43
0.0000000001
44
0.0000000001
40
0
40
0
40
0
40
1
40
1
40
1
10
419.23470037530012
20
70.307343674031046
30
0
10
418.81723778794355
20
70.307343674031046
30
0
10
418.61055272172041
20
70.131352615681436
30
0
0
SPLINE
5
546
100
AcDbEntity
8
0
100
AcDbSpline
70
0
71
2
72
6
73
3
74
0
42
0.000000001
43
0.0000000001
44
0.0000000001
40
0
40
0
40
0
40
1
40
1
40
1
10
418.61055272172041
20
70.131352615681436
30
0
10
418.40386825154371
20
69.955361557331827
30
0
10
418.40386825154371
20
69.715932083454874
30
0
0
SPLINE
5
547
100
AcDbEntity
8
0
100
AcDbSpline
70
0
71
2
72
6
73
3
74
0
42
0.000000001
43
0.0000000001
44
0.0000000001
40
0
40
0
40
0
40
1
40
1
40
1
10
418.40386825154371
20
69.715932083454874
30
0
10
418.40386825154371
20
69.474461746540811
30
0
10
418.60134440014906
20
69.305632782307413
30
0
0
SPLINE
5
548
100
AcDbEntity
8
0
100
AcDbSpline
70
0
71
2
72
6
73
3
74
0
42
0.000000001
43
0.0000000001
44
0.0000000001
40
0
40
0
40
0
40
1
40
1
40
1
10
418.60134440014906
20
69.305632782307413
30
0
10
418.79881995270796
20
69.136808586445596
30
0
10
419.20400457928724
20
69.136808586445596
30
0
0
SPLINE
5
549
100
AcDbEntity
8
0
100
AcDbSpline
70
0
71
2
72
6
73
3
74
0
42
0.000000001
43
0.0000000001
44
0.0000000001
40
0
40
0
40
0
40
1
40
1
40
1
10
419.20400457928724
20
69.136808586445596
30
0
10
419.6501161391551
20
69.136808586445596
30
0
10
419.85884743283339
20
69.308703613606241
30
0
0
SPLINE
5
550
100
AcDbEntity
8
0
100
AcDbSpline
70
0
71
2
72
6
73
3
74
0
42
0.000000001
43
0.0000000001
44
0.0000000001
40
0
40
0
40
0
40
1
40
1
40
1
10
419.85884743283339
20
69.308703613606241
30
0
10
420.06757872651167
20
69.480603409138467
30
0
10
420.06757872651167
20
69.732306671467569
30
0
0
SPLINE
5
551
100
AcDbEntity
8
0
100
AcDbSpline
70
0
71
2
72
6
73
3
74
0
42
0.000000001
43
0.0000000001
44
0.0000000001
40
0
40
0
40
0
40
1
40
1
40
1
10
420.06757872651167
20
69.732306671467569
30
0
10
420.06757872651167
20
69.977873039570596
30
0
10
419.86703293870039
20
70.14260597261503
30
0
0
SPLINE
5
552
100
AcDbEntity
8
0
100
AcDbSpline
70
0
71
2
72
6
73
3
74
0
42
0.000000001
43
0.0000000001
44
0.0000000001
40
0
40
0
40
0
40
1
40
1
40
1
10
419.86703293870039
20
70.14260597261503
30
0
10
419.66648715088911
20
70.307343674031046
30
0
10
419.23470037530012
20
70.307343674031046
30
0
0
LINE
5
553
100
AcDbEntity
8
0
100
AcDbLine
10
418.84997981141157
20
66.734350395527628
30
0
11
418.80291300366468
21
66.353724670735147
31
0
0
SPLINE
5
554
100
AcDbEntity
8
0
100
AcDbSpline
70
0
71
2
72
6
73
3
74
0
42
0.000000001
43
0.0000000001
44
0.0000000001
40
0
40
0
40
0
40
1
40
1
40
1
10
418.80291300366468
20
66.353724670735147
30
0
10
418.46935229847975
20
66.443761062947061
30
0
10
418.28517752240248
20
66.687281799641397
30
0
0
SPLINE
5
555
100
AcDbEntity
8
0
100
AcDbSpline
70
0
71
2
72
6
73
3
74
0
42
0.000000001
43
0.0000000001
44
0.0000000001
40
0
40
0
40
0
40
1
40
1
40
1
10
418.28517752240248
20
66.687281799641397
30
0
10
418.10100334237165
20
66.930802536335733
30
0
10
418.10100334237165
20
67.309382629719522
30
0
0
SPLINE
5
556
100
AcDbEntity
8
0
100
AcDbSpline
70
0
71
2
72
6
73
3
74
0
42
0.000000001
43
0.0000000001
44
0.0000000001
40
0
40
0
40
0
40
1
40
1
40
1
10
418.10100334237165
20
67.309382629719522
30
0
10
418.10100334237165
20
67.786191177693155
30
0
10
418.39465933392592
20
68.065522384968546
30
0
0
SPLINE
5
557
100
AcDbEntity
8
0
100
AcDbSpline
70
0
71
2
72
6
73
3
74
0
42
0.000000001
43
0.0000000001
44
0.0000000001
40
0
40
0
40
0
40
1
40
1
40
1
10
418.39465933392592
20
68.065522384968546
30
0
10
418.68831532548018
20
68.344853592243936
30
0
10
419.21832936356611
20
68.344853592243936
30
0
0
SPLINE
5
558
100
AcDbEntity
8
0
100
AcDbSpline
70
0
71
2
72
6
73
3
74
0
42
0.000000001
43
0.0000000001
44
0.0000000001
40
0
40
0
40
0
40
1
40
1
40
1
10
419.21832936356611
20
68.344853592243936
30
0
10
419.76676004479475
20
68.344853592243936
30
0
10
420.06962555001326
20
68.062451553669717
30
0
0
SPLINE
5
559
100
AcDbEntity
8
0
100
AcDbSpline
70
0
71
2
72
6
73
3
74
0
42
0.000000001
43
0.0000000001
44
0.0000000001
40
0
40
0
40
0
40
1
40
1
40
1
10
420.06962555001326
20
68.062451553669717
30
0
10
420.37249045918531
20
67.780054283467081
30
0
10
420.37249045918531
20
67.3298484805496
30
0
0
SPLINE
5
560
100
AcDbEntity
8
0
100
AcDbSpline
70
0
71
2
72
6
73
3
74
0
42
0.000000001
43
0.0000000001
44
0.0000000001
40
0
40
0
40
0
40
1
40
1
40
1
10
420.37249045918531
20
67.3298484805496
30
0
10
420.37249045918531
20
66.893971634236124
30
0
10
420.07576482842512
20
66.617706489887979
30
0
0
SPLINE
5
561
100
AcDbEntity
8
0
100
AcDbSpline
70
0
71
2
72
6
73
3
74
0
42
0.000000001
43
0.0000000001
44
0.0000000001
40
0
40
0
40
0
40
1
40
1
40
1
10
420.07576482842512
20
66.617706489887979
30
0
10
419.77903860161848
20
66.341446113911417
30
0
10
419.24083965371199
20
66.341446113911417
30
0
0
SPLINE
5
562
100
AcDbEntity
8
0
100
AcDbSpline
70
0
71
2
72
6
73
3
74
0
42
0.000000001
43
0.0000000001
44
0.0000000001
40
0
40
0
40
0
40
1
40
1
40
1
10
419.24083965371199
20
66.341446113911417
30
0
10
419.20809703419752
20
66.341446113911417
30
0
10
419.14261298726149
20
66.343491745320108
30
0
0
LINE
5
563
100
AcDbEntity
8
0
100
AcDbLine
10
419.14261298726149
20
66.343491745320108
30
0
11
419.14261298726149
21
67.964227867451456
31
0
0
SPLINE
5
564
100
AcDbEntity
8
0
100
AcDbSpline
70
0
71
2
72
6
73
3
74
0
42
0.000000001
43
0.0000000001
44
0.0000000001
40
0
40
0
40
0
40
1
40
1
40
1
10
419.14261298726149
20
67.964227867451456
30
0
10
418.78449576447554
20
67.94376678499296
30
0
10
418.5941817099864
20
67.761634064045694
30
0
0
SPLINE
5
565
100
AcDbEntity
8
0
100
AcDbSpline
70
0
71
2
72
6
73
3
74
0
42
0.000000001
43
0.0000000001
44
0.0000000001
40
0
40
0
40
0
40
1
40
1
40
1
10
418.5941817099864
20
67.761634064045694
30
0
10
418.40386825154371
20
67.579510879841592
30
0
10
418.40386825154371
20
67.307341766682413
30
0
0
SPLINE
5
566
100
AcDbEntity
8
0
100
AcDbSpline
70
0
71
2
72
6
73
3
74
0
42
0.000000001
43
0.0000000001
44
0.0000000001
40
0
40
0
40
0
40
1
40
1
40
1
10
418.40386825154371
20
67.307341766682413
30
0
10
418.40386825154371
20
67.104747963276651
30
0
10
418.51027982781477
20
66.96150131258085
30
0
0
SPLINE
5
567
100
AcDbEntity
8
0
100
AcDbSpline
70
0
71
2
72
6
73
3
74
0
42
0.000000001
43
0.0000000001
44
0.0000000001
40
0
40
0
40
0
40
1
40
1
40
1
10
418.51027982781477
20
66.96150131258085
30
0
10
418.61669200013228
20
66.818249893513467
30
0
10
418.84997981141157
20
66.734350395527628
30
0
0
LINE
5
568
100
AcDbEntity
8
0
100
AcDbLine
10
419.44547789643354
20
67.94376678499296
30
0
11
419.44547789643354
21
66.730259132710245
31
0
0
SPLINE
5
569
100
AcDbEntity
8
0
100
AcDbSpline
70
0
71
2
72
6
73
3
74
0
42
0.000000001
43
0.0000000001
44
0.0000000001
40
0
40
0
40
0
40
1
40
1
40
1
10
419.44547789643354
20
66.730259132710245
30
0
10
419.71969383309431
20
66.754816246357706
30
0
10
419.85680120537825
20
66.869414520588663
30
0
0
SPLINE
5
570
100
AcDbEntity
8
0
100
AcDbSpline
70
0
71
2
72
6
73
3
74
0
42
0.000000001
43
0.0000000001
44
0.0000000001
40
0
40
0
40
0
40
1
40
1
40
1
10
419.85680120537825
20
66.869414520588663
30
0
10
420.06962555001326
20
67.04540081056669
30
0
10
420.06962555001326
20
67.325757217732217
30
0
0
SPLINE
5
571
100
AcDbEntity
8
0
100
AcDbSpline
70
0
71
2
72
6
73
3
74
0
42
0.000000001
43
0.0000000001
44
0.0000000001
40
0
40
0
40
0
40
1
40
1
40
1
10
420.06962555001326
20
67.325757217732217
30
0
10
420.06962555001326
20
67.579510879841592
30
0
10
419.89977555821486
20
67.752431106892374
30
0
0
SPLINE
5
572
100
AcDbEntity
8
0
100
AcDbSpline
70
0
71
2
72
6
73
3
74
0
42
0.000000001
43
0.0000000001
44
0.0000000001
40
0
40
0
40
0
40
1
40
1
40
1
10
419.89977555821486
20
67.752431106892374
30
0
10
419.72992556641645
20
67.925346565571573
30
0
10
419.44547789643354
20
67.94376678499296
30
0
0
ENDSEC
0
SECTION
2
OBJECTS
0
DICTIONARY
5
C
100
AcDbDictionary
3
ACAD_GROUP
350
D
3
ACAD_MLINESTYLE
350
17
0
DICTIONARY
5
D
100
AcDbDictionary
0
DICTIONARY
5
1A
330
C
100
AcDbDictionary
0
DICTIONARY
5
17
100
AcDbDictionary
0
ENDSEC
0
EOF
