0
SECTION
2
HEADER
9
$INSUNITS
70
4
9
$ACADVER
1
AC1014
9
$HANDSEED
5
FFFF
0
ENDSEC
0
SECTION
2
TABLES
0
TABLE
2
VPORT
5
8
100
AcDbSymbolTable
0
ENDTAB
0
TABLE
2
LTYPE
5
5
100
AcDbSymbolTable
0
LTYPE
5
14
100
AcDbSymbolTableRecord
100
AcDbLinetypeTableRecord
2
BYBLOCK
70
0
0
LTYPE
5
15
100
AcDbSymbolTableRecord
100
AcDbLinetypeTableRecord
2
BYLAYER
70
0
0
ENDTAB
0
TABLE
2
LAYER
5
2
100
AcDbSymbolTable
70
2
0
LAYER
5
50
100
AcDbSymbolTableRecord
100
AcDbLayerTableRecord
2
0
70
0
6
CONTINUOUS
0
ENDTAB
0
TABLE
2
STYLE
5
3
100
AcDbSymbolTable
70
1
0
STYLE
5
11
100
AcDbSymbolTableRecord
100
AcDbTextStyleTableRecord
2
STANDARD
70
0
0
ENDTAB
0
TABLE
2
VIEW
5
6
100
AcDbSymbolTable
70
0
0
ENDTAB
0
TABLE
2
UCS
5
7
100
AcDbSymbolTable
70
0
0
ENDTAB
0
TABLE
2
APPID
5
9
100
AcDbSymbolTable
70
2
0
APPID
5
12
100
AcDbSymbolTableRecord
100
AcDbRegAppTableRecord
2
ACAD
70
0
0
ENDTAB
0
TABLE
2
DIMSTYLE
5
A
100
AcDbSymbolTable
70
1
0
ENDTAB
0
TABLE
2
BLOCK_RECORD
5
1
100
AcDbSymbolTable
70
1
0
BLOCK_RECORD
5
1F
100
AcDbSymbolTableRecord
100
AcDbBlockTableRecord
2
*MODEL_SPACE
0
BLOCK_RECORD
5
1B
100
AcDbSymbolTableRecord
100
AcDbBlockTableRecord
2
*PAPER_SPACE
0
ENDTAB
0
ENDSEC
0
SECTION
2
BLOCKS
0
BLOCK
5
20
100
AcDbEntity
100
AcDbBlockBegin
2
*MODEL_SPACE
0
ENDBLK
5
21
100
AcDbEntity
100
AcDbBlockEnd
0
BLOCK
5
1C
100
AcDbEntity
100
AcDbBlockBegin
2
*PAPER_SPACE
0
ENDBLK
5
1D
100
AcDbEntity
100
AcDbBlockEnd
0
ENDSEC
0
SECTION
2
ENTITIES
0
CIRCLE
5
100
100
AcDbEntity
8
0
100
AcDbCircle
10
-554.95032972054423
20
-139.37461683388943
30
0
40
1.25
210
0
220
-0
230
1
0
CIRCLE
5
101
100
AcDbEntity
8
0
100
AcDbCircle
10
-551.56938362661867
20
-132.12415453759621
30
0
40
1.25
210
0
220
-0
230
1
0
CIRCLE
5
102
100
AcDbEntity
8
0
100
AcDbCircle
10
-547.85662410406201
20
-133.78276986162024
30
0
40
2.0000000000000284
210
0
220
-0
230
1
0
CIRCLE
5
103
100
AcDbEntity
8
0
100
AcDbCircle
10
-558.66308924309999
20
-137.71600150986535
30
0
40
2.0000000000000284
210
0
220
-0
230
1
0
LWPOLYLINE
5
104
100
AcDbEntity
8
0
100
AcDbPolyline
90
12
70
1
43
0.0
10
-539.77503309303847
20
-130.49310402693214
10
-546.51040949305002
20
-144.93716532902826
10
-552.52444224215526
20
-147.12609423760165
10
-565.39401295200219
20
-141.12491485842057
10
-566.7463913963644
20
-144.0250997914975
10
-577.62208483135942
20
-138.95368065501304
10
-576.26970639288993
20
-136.05349572897461
10
-585.0946593074267
20
-131.93835261000908
10
-531.32266785812533
20
-112.36694828624539
10
-534.70361395204861
20
-119.61741058253941
10
-531.80342903353096
20
-120.969789020109
10
-536.87484817441589
20
-131.84548246455046
0
LWPOLYLINE
5
105
100
AcDbEntity
8
0
100
AcDbPolyline
90
4
70
1
43
0.0
10
-565.72493133053968
20
-125.676801733331
10
-543.42929797003626
20
-136.07342631277098
10
-545.61167980595371
20
-140.75355926308075
10
-567.90731316645713
20
-130.35693468364076
0
LWPOLYLINE
5
106
100
AcDbEntity
8
0
100
AcDbPolyline
90
4
70
1
43
0.0
10
-540.37895087887546
20
-126.00679972170225
10
-538.94721820540997
20
-122.9286952828602
10
-534.2649798485138
20
-125.10656603861797
10
-535.69671252197929
20
-128.18467047745989
0
LINE
5
107
100
AcDbEntity
8
0
100
AcDbLine
10
-544.7511644574065
20
-138.90817814292032
30
0
11
-545.10440362324368
21
-138.77958684044663
31
0
0
SPLINE
5
108
100
AcDbEntity
8
0
100
AcDbSpline
70
0
71
2
72
6
73
3
74
0
42
0.000000001
43
0.0000000001
44
0.0000000001
40
0
40
0
40
0
40
1
40
1
40
1
10
-545.10440362324368
20
-138.77958684044663
30
0
10
-545.0333817557929
20
-138.56433196783593
30
0
10
-545.06050665944008
20
-138.39249901626755
30
0
0
SPLINE
5
109
100
AcDbEntity
8
0
100
AcDbSpline
70
0
71
2
72
6
73
3
74
0
42
0.000000001
43
0.0000000001
44
0.0000000001
40
0
40
0
40
0
40
1
40
1
40
1
10
-545.06050665944008
20
-138.39249901626755
30
0
10
-545.08763163061235
20
-138.22066603321167
30
0
10
-545.23547653981598
20
-138.05350460137282
30
0
0
SPLINE
5
110
100
AcDbEntity
8
0
100
AcDbSpline
70
0
71
2
72
6
73
3
74
0
42
0.000000001
43
0.0000000001
44
0.0000000001
40
0
40
0
40
0
40
1
40
1
40
1
10
-545.23547653981598
20
-138.05350460137282
30
0
10
-545.38332144901983
20
-137.88634316953394
30
0
10
-545.6151531927253
20
-137.77823825204041
30
0
0
SPLINE
5
111
100
AcDbEntity
8
0
100
AcDbSpline
70
0
71
2
72
6
73
3
74
0
42
0.000000001
43
0.0000000001
44
0.0000000001
40
0
40
0
40
0
40
1
40
1
40
1
10
-545.6151531927253
20
-137.77823825204041
30
0
10
-545.82101981192739
20
-137.68224107094784
30
0
10
-546.00720512910448
20
-137.66993317416888
30
0
0
SPLINE
5
112
100
AcDbEntity
8
0
100
AcDbSpline
70
0
71
2
72
6
73
3
74
0
42
0.000000001
43
0.0000000001
44
0.0000000001
40
0
40
0
40
0
40
1
40
1
40
1
10
-546.00720512910448
20
-137.66993317416888
30
0
10
-546.19339044628168
20
-137.65762527738997
30
0
10
-546.32008698851848
20
-137.72837722927528
30
0
0
SPLINE
5
113
100
AcDbEntity
8
0
100
AcDbSpline
70
0
71
2
72
6
73
3
74
0
42
0.000000001
43
0.0000000001
44
0.0000000001
40
0
40
0
40
0
40
1
40
1
40
1
10
-546.32008698851848
20
-137.72837722927528
30
0
10
-546.44678340480527
20
-137.79912891105982
30
0
10
-546.50559250914216
20
-137.92524544229903
30
0
0
SPLINE
5
114
100
AcDbEntity
8
0
100
AcDbSpline
70
0
71
2
72
6
73
3
74
0
42
0.000000001
43
0.0000000001
44
0.0000000001
40
0
40
0
40
0
40
1
40
1
40
1
10
-546.50559250914216
20
-137.92524544229903
30
0
10
-546.56526651251932
20
-138.05321675551562
30
0
10
-546.53561944508499
20
-138.1833250414183
30
0
0
SPLINE
5
115
100
AcDbEntity
8
0
100
AcDbSpline
70
0
71
2
72
6
73
3
74
0
42
0.000000001
43
0.0000000001
44
0.0000000001
40
0
40
0
40
0
40
1
40
1
40
1
10
-546.53561944508499
20
-138.1833250414183
30
0
10
-546.50597251270096
20
-138.31343326434595
30
0
10
-546.36561364542149
20
-138.45791127472003
30
0
0
SPLINE
5
116
100
AcDbEntity
8
0
100
AcDbSpline
70
0
71
2
72
6
73
3
74
0
42
0.000000001
43
0.0000000001
44
0.0000000001
40
0
40
0
40
0
40
1
40
1
40
1
10
-546.36561364542149
20
-138.45791127472003
30
0
10
-546.27608036405161
20
-138.55159380586662
30
0
10
-545.94338503179051
20
-138.81624236745924
30
0
0
SPLINE
5
117
100
AcDbEntity
8
0
100
AcDbSpline
70
0
71
2
72
6
73
3
74
0
42
0.000000001
43
0.0000000001
44
0.0000000001
40
0
40
0
40
0
40
1
40
1
40
1
10
-545.94338503179051
20
-138.81624236745924
30
0
10
-545.61068943852911
20
-139.08089072192607
30
0
10
-545.49765057399418
20
-139.23069278307401
30
0
0
SPLINE
5
118
100
AcDbEntity
8
0
100
AcDbSpline
70
0
71
2
72
6
73
3
74
0
42
0.000000001
43
0.0000000001
44
0.0000000001
40
0
40
0
40
0
40
1
40
1
40
1
10
-545.49765057399418
20
-139.23069278307401
30
0
10
-545.35047800886798
20
-139.42350693391259
30
0
10
-545.32544770968036
20
-139.61920051247711
30
0
0
SPLINE
5
119
100
AcDbEntity
8
0
100
AcDbSpline
70
0
71
2
72
6
73
3
74
0
42
0.000000001
43
0.0000000001
44
0.0000000001
40
0
40
0
40
0
40
1
40
1
40
1
10
-545.32544770968036
20
-139.61920051247711
30
0
10
-545.30041744425534
20
-139.81489407529784
30
0
10
-545.38776626469541
20
-140.00221422522964
30
0
0
SPLINE
5
120
100
AcDbEntity
8
0
100
AcDbSpline
70
0
71
2
72
6
73
3
74
0
42
0.000000001
43
0.0000000001
44
0.0000000001
40
0
40
0
40
0
40
1
40
1
40
1
10
-545.38776626469541
20
-140.00221422522964
30
0
10
-545.48376350876299
20
-140.20808097948202
30
0
10
-545.68406363855081
20
-140.33256998809307
30
0
0
SPLINE
5
121
100
AcDbEntity
8
0
100
AcDbSpline
70
0
71
2
72
6
73
3
74
0
42
0.000000001
43
0.0000000001
44
0.0000000001
40
0
40
0
40
0
40
1
40
1
40
1
10
-545.68406363855081
20
-140.33256998809307
30
0
10
-545.88436392805124
20
-140.45705925106114
30
0
10
-546.15201913921123
20
-140.44514656438133
30
0
0
SPLINE
5
122
100
AcDbEntity
8
0
100
AcDbSpline
70
0
71
2
72
6
73
3
74
0
42
0.000000001
43
0.0000000001
44
0.0000000001
40
0
40
0
40
0
40
1
40
1
40
1
10
-546.15201913921123
20
-140.44514656438133
30
0
10
-546.41967422442099
20
-140.43323360760076
30
0
10
-546.6941631175489
20
-140.30523733465651
30
0
0
SPLINE
5
123
100
AcDbEntity
8
0
100
AcDbSpline
70
0
71
2
72
6
73
3
74
0
42
0.000000001
43
0.0000000001
44
0.0000000001
40
0
40
0
40
0
40
1
40
1
40
1
10
-546.6941631175489
20
-140.30523733465651
30
0
10
-546.99647178210728
20
-140.16426848924598
30
0
10
-547.18197208851132
20
-139.95922655343995
30
0
0
SPLINE
5
124
100
AcDbEntity
8
0
100
AcDbSpline
70
0
71
2
72
6
73
3
74
0
42
0.000000001
43
0.0000000001
44
0.0000000001
40
0
40
0
40
0
40
1
40
1
40
1
10
-547.18197208851132
20
-139.95922655343995
30
0
10
-547.36747265591578
20
-139.75418482475965
30
0
10
-547.40352088372254
20
-139.5070657596292
30
0
0
SPLINE
5
125
100
AcDbEntity
8
0
100
AcDbSpline
70
0
71
2
72
6
73
3
74
0
42
0.000000001
43
0.0000000001
44
0.0000000001
40
0
40
0
40
0
40
1
40
1
40
1
10
-547.40352088372254
20
-139.5070657596292
30
0
10
-547.43956897647899
20
-139.25994675747378
30
0
10
-547.33727805292244
20
-139.01637211523368
30
0
0
LINE
5
126
100
AcDbEntity
8
0
100
AcDbLine
10
-547.33727805292256
20
-139.01637211523368
30
0
11
-546.98020447105318
21
-139.15126712406621
31
0
0
SPLINE
5
127
100
AcDbEntity
8
0
100
AcDbSpline
70
0
71
2
72
6
73
3
74
0
42
0.000000001
43
0.0000000001
44
0.0000000001
40
0
40
0
40
0
40
1
40
1
40
1
10
-546.98020447105318
20
-139.15126712406618
30
0
10
-547.07259734896695
20
-139.42203673127938
30
0
10
-546.97357333161017
20
-139.62852567128073
30
0
0
SPLINE
5
128
100
AcDbEntity
8
0
100
AcDbSpline
70
0
71
2
72
6
73
3
74
0
42
0.000000001
43
0.0000000001
44
0.0000000001
40
0
40
0
40
0
40
1
40
1
40
1
10
-546.97357333161017
20
-139.62852567128073
30
0
10
-546.87454944020362
20
-139.83501488138288
30
0
10
-546.56111289408295
20
-139.98117274318486
30
0
0
SPLINE
5
129
100
AcDbEntity
8
0
100
AcDbSpline
70
0
71
2
72
6
73
3
74
0
42
0.000000001
43
0.0000000001
44
0.0000000001
40
0
40
0
40
0
40
1
40
1
40
1
10
-546.56111289408295
20
-139.98117274318486
30
0
10
-546.23469361689763
20
-140.13338455190609
30
0
10
-546.02961178492455
20
-140.08337893907668
30
0
0
SPLINE
5
130
100
AcDbEntity
8
0
100
AcDbSpline
70
0
71
2
72
6
73
3
74
0
42
0.000000001
43
0.0000000001
44
0.0000000001
40
0
40
0
40
0
40
1
40
1
40
1
10
-546.02961178492455
20
-140.08337893907668
30
0
10
-545.82452995295125
20
-140.03337332624727
30
0
10
-545.74582955613869
20
-139.86459978063613
30
0
0
SPLINE
5
131
100
AcDbEntity
8
0
100
AcDbSpline
70
0
71
2
72
6
73
3
74
0
42
0.000000001
43
0.0000000001
44
0.0000000001
40
0
40
0
40
0
40
1
40
1
40
1
10
-545.74582955613869
20
-139.86459978063613
30
0
10
-545.67750719210903
20
-139.71808199814927
30
0
10
-545.73911571137307
20
-139.57419872358821
30
0
0
SPLINE
5
132
100
AcDbEntity
8
0
100
AcDbSpline
70
0
71
2
72
6
73
3
74
0
42
0.000000001
43
0.0000000001
44
0.0000000001
40
0
40
0
40
0
40
1
40
1
40
1
10
-545.73911571137307
20
-139.57419872358821
30
0
10
-545.79886957915994
20
-139.4311804516303
30
0
10
-546.19122645067807
20
-139.12742178876437
30
0
0
SPLINE
5
133
100
AcDbEntity
8
0
100
AcDbSpline
70
0
71
2
72
6
73
3
74
0
42
0.000000001
43
0.0000000001
44
0.0000000001
40
0
40
0
40
0
40
1
40
1
40
1
10
-546.19122645067807
20
-139.12742178876437
30
0
10
-546.58358325012091
20
-138.82366332392388
30
0
10
-546.71219922341595
20
-138.67337115307487
30
0
0
SPLINE
5
134
100
AcDbEntity
8
0
100
AcDbSpline
70
0
71
2
72
6
73
3
74
0
42
0.000000001
43
0.0000000001
44
0.0000000001
40
0
40
0
40
0
40
1
40
1
40
1
10
-546.71219922341595
20
-138.67337115307487
30
0
10
-546.89856945865313
20
-138.45324712205246
30
0
10
-546.93343551411067
20
-138.23264571554986
30
0
0
SPLINE
5
135
100
AcDbEntity
8
0
100
AcDbSpline
70
0
71
2
72
6
73
3
74
0
42
0.000000001
43
0.0000000001
44
0.0000000001
40
0
40
0
40
0
40
1
40
1
40
1
10
-546.93343551411067
20
-138.23264571554986
30
0
10
-546.96830150659321
20
-138.01204417399688
30
0
10
-546.86625047304392
20
-137.79319502630568
30
0
0
SPLINE
5
136
100
AcDbEntity
8
0
100
AcDbSpline
70
0
71
2
72
6
73
3
74
0
42
0.000000001
43
0.0000000001
44
0.0000000001
40
0
40
0
40
0
40
1
40
1
40
1
10
-546.86625047304392
20
-137.79319502630568
30
0
10
-546.76506421258478
20
-137.57620039049115
30
0
10
-546.5512912511316
20
-137.44218788696332
30
0
0
SPLINE
5
137
100
AcDbEntity
8
0
100
AcDbSpline
70
0
71
2
72
6
73
3
74
0
42
0.000000001
43
0.0000000001
44
0.0000000001
40
0
40
0
40
0
40
1
40
1
40
1
10
-546.5512912511316
20
-137.44218788696332
30
0
10
-546.33751855977903
20
-137.3081752574854
30
0
10
-546.0550311263703
20
-137.31007012005674
30
0
0
SPLINE
5
138
100
AcDbEntity
8
0
100
AcDbSpline
70
0
71
2
72
6
73
3
74
0
42
0.000000001
43
0.0000000001
44
0.0000000001
40
0
40
0
40
0
40
1
40
1
40
1
10
-546.0550311263703
20
-137.31007012005674
30
0
10
-545.77254382801198
20
-137.31196491965304
30
0
10
-545.48136304501566
20
-137.44774474867205
30
0
0
SPLINE
5
139
100
AcDbEntity
8
0
100
AcDbSpline
70
0
71
2
72
6
73
3
74
0
42
0.000000001
43
0.0000000001
44
0.0000000001
40
0
40
0
40
0
40
1
40
1
40
1
10
-545.48136304501566
20
-137.44774474867205
30
0
10
-545.11228675345842
20
-137.61984784986902
30
0
10
-544.91299641415526
20
-137.84373853333813
30
0
0
SPLINE
5
140
100
AcDbEntity
8
0
100
AcDbSpline
70
0
71
2
72
6
73
3
74
0
42
0.000000001
43
0.0000000001
44
0.0000000001
40
0
40
0
40
0
40
1
40
1
40
1
10
-544.91299641415526
20
-137.84373853333813
30
0
10
-544.71370613327713
20
-138.06762951839548
30
0
10
-544.67257890954693
20
-138.34985714065073
30
0
0
SPLINE
5
141
100
AcDbEntity
8
0
100
AcDbSpline
70
0
71
2
72
6
73
3
74
0
42
0.000000001
43
0.0000000001
44
0.0000000001
40
0
40
0
40
0
40
1
40
1
40
1
10
-544.67257890954693
20
-138.34985714065073
30
0
10
-544.63145161051068
20
-138.63208446918952
30
0
10
-544.7511644574065
20
-138.90817814292032
30
0
0
SPLINE
5
142
100
AcDbEntity
8
0
100
AcDbSpline
70
0
71
2
72
6
73
3
74
0
42
0.000000001
43
0.0000000001
44
0.0000000001
40
0
40
0
40
0
40
1
40
1
40
1
10
-547.50776091768921
20
-138.17143440602803
30
0
10
-547.82342734100496
20
-138.84838323539961
30
0
10
-548.36552892386692
20
-139.06186101542127
30
0
0
SPLINE
5
143
100
AcDbEntity
8
0
100
AcDbSpline
70
0
71
2
72
6
73
3
74
0
42
0.000000001
43
0.0000000001
44
0.0000000001
40
0
40
0
40
0
40
1
40
1
40
1
10
-548.36552892386692
20
-139.06186101542127
30
0
10
-548.90763071385459
20
-139.27533853444251
30
0
10
-549.48257369213911
20
-139.00723822066547
30
0
0
SPLINE
5
144
100
AcDbEntity
8
0
100
AcDbSpline
70
0
71
2
72
6
73
3
74
0
42
0.000000001
43
0.0000000001
44
0.0000000001
40
0
40
0
40
0
40
1
40
1
40
1
10
-549.48257369213911
20
-139.00723822066547
30
0
10
-549.85906823377854
20
-138.83167593264511
30
0
10
-550.07748748513291
20
-138.51080566006129
30
0
0
SPLINE
5
145
100
AcDbEntity
8
0
100
AcDbSpline
70
0
71
2
72
6
73
3
74
0
42
0.000000001
43
0.0000000001
44
0.0000000001
40
0
40
0
40
0
40
1
40
1
40
1
10
-550.07748748513291
20
-138.51080566006129
30
0
10
-550.29590715073869
20
-138.18993486547666
30
0
10
-550.30443041514286
20
-137.79420857369303
30
0
0
SPLINE
5
146
100
AcDbEntity
8
0
100
AcDbSpline
70
0
71
2
72
6
73
3
74
0
42
0.000000001
43
0.0000000001
44
0.0000000001
40
0
40
0
40
0
40
1
40
1
40
1
10
-550.30443041514286
20
-137.79420857369303
30
0
10
-550.31295367954715
20
-137.39848228190942
30
0
10
-550.12268898949242
20
-136.99045833735943
30
0
0
SPLINE
5
147
100
AcDbEntity
8
0
100
AcDbSpline
70
0
71
2
72
6
73
3
74
0
42
0.000000001
43
0.0000000001
44
0.0000000001
40
0
40
0
40
0
40
1
40
1
40
1
10
-550.12268898949242
20
-136.99045833735943
30
0
10
-549.92982972826701
20
-136.57687031697802
30
0
10
-549.61069891729881
20
-136.32828673104027
30
0
0
SPLINE
5
148
100
AcDbEntity
8
0
100
AcDbSpline
70
0
71
2
72
6
73
3
74
0
42
0.000000001
43
0.0000000001
44
0.0000000001
40
0
40
0
40
0
40
1
40
1
40
1
10
-549.61069891729881
20
-136.32828673104027
30
0
10
-549.2915681063306
20
-136.07970314510251
30
0
10
-548.90728253370139
20
-136.05455551712137
30
0
0
SPLINE
5
149
100
AcDbEntity
8
0
100
AcDbSpline
70
0
71
2
72
6
73
3
74
0
42
0.000000001
43
0.0000000001
44
0.0000000001
40
0
40
0
40
0
40
1
40
1
40
1
10
-548.90728253370139
20
-136.05455551712137
30
0
10
-548.52299629492063
20
-136.02940787093962
30
0
10
-548.16875724630472
20
-136.19459225212708
30
0
0
SPLINE
5
150
100
AcDbEntity
8
0
100
AcDbSpline
70
0
71
2
72
6
73
3
74
0
42
0.000000001
43
0.0000000001
44
0.0000000001
40
0
40
0
40
0
40
1
40
1
40
1
10
-548.16875724630472
20
-136.19459225212708
30
0
10
-547.78484384685646
20
-136.37361401035849
30
0
10
-547.569019166673
20
-136.70004835877373
30
0
0
SPLINE
5
151
100
AcDbEntity
8
0
100
AcDbSpline
70
0
71
2
72
6
73
3
74
0
42
0.000000001
43
0.0000000001
44
0.0000000001
40
0
40
0
40
0
40
1
40
1
40
1
10
-547.569019166673
20
-136.70004835877373
30
0
10
-547.35319436053931
20
-137.02648243708819
30
0
10
-547.34702054037996
20
-137.41998444834854
30
0
0
SPLINE
5
152
100
AcDbEntity
8
0
100
AcDbSpline
70
0
71
2
72
6
73
3
74
0
42
0.000000001
43
0.0000000001
44
0.0000000001
40
0
40
0
40
0
40
1
40
1
40
1
10
-547.34702054037996
20
-137.41998444834854
30
0
10
-547.34084686437131
20
-137.81348606355809
30
0
10
-547.50776091768921
20
-138.17143440602803
30
0
0
SPLINE
5
153
100
AcDbEntity
8
0
100
AcDbSpline
70
0
71
2
72
6
73
3
74
0
42
0.000000001
43
0.0000000001
44
0.0000000001
40
0
40
0
40
0
40
1
40
1
40
1
10
-547.87609741550307
20
-137.99290249649724
30
0
10
-547.64691485061223
20
-137.50141890002962
30
0
10
-547.77931507832818
20
-137.09534461917013
30
0
0
SPLINE
5
154
100
AcDbEntity
8
0
100
AcDbSpline
70
0
71
2
72
6
73
3
74
0
42
0.000000001
43
0.0000000001
44
0.0000000001
40
0
40
0
40
0
40
1
40
1
40
1
10
-547.77931507832818
20
-137.09534461917013
30
0
10
-547.91171518009412
20
-136.68927006820985
30
0
10
-548.31046575495861
20
-136.50332962145649
30
0
0
SPLINE
5
155
100
AcDbEntity
8
0
100
AcDbSpline
70
0
71
2
72
6
73
3
74
0
42
0.000000001
43
0.0000000001
44
0.0000000001
40
0
40
0
40
0
40
1
40
1
40
1
10
-548.31046575495861
20
-136.50332962145649
30
0
10
-548.71663518763194
20
-136.31392970449204
30
0
10
-549.11225425953239
20
-136.47717184323747
30
0
0
SPLINE
5
156
100
AcDbEntity
8
0
100
AcDbSpline
70
0
71
2
72
6
73
3
74
0
42
0.000000001
43
0.0000000001
44
0.0000000001
40
0
40
0
40
0
40
1
40
1
40
1
10
-549.11225425953239
20
-136.47717184323747
30
0
10
-549.50787320548295
20
-136.6404137118821
30
0
10
-549.75262281954815
20
-137.16528095303619
30
0
0
SPLINE
5
157
100
AcDbEntity
8
0
100
AcDbSpline
70
0
71
2
72
6
73
3
74
0
42
0.000000001
43
0.0000000001
44
0.0000000001
40
0
40
0
40
0
40
1
40
1
40
1
10
-549.75262281954815
20
-137.16528095303619
30
0
10
-549.90742910497772
20
-137.49726410347739
30
0
10
-549.91067831013879
20
-137.79718340942313
30
0
0
SPLINE
5
158
100
AcDbEntity
8
0
100
AcDbSpline
70
0
71
2
72
6
73
3
74
0
42
0.000000001
43
0.0000000001
44
0.0000000001
40
0
40
0
40
0
40
1
40
1
40
1
10
-549.91067831013879
20
-137.79718340942313
30
0
10
-549.9139280555014
20
-138.09710246346873
30
0
10
-549.76142640980845
20
-138.3341734942457
30
0
0
SPLINE
5
159
100
AcDbEntity
8
0
100
AcDbSpline
70
0
71
2
72
6
73
3
74
0
42
0.000000001
43
0.0000000001
44
0.0000000001
40
0
40
0
40
0
40
1
40
1
40
1
10
-549.76142640980845
20
-138.3341734942457
30
0
10
-549.6089247641155
20
-138.57124452502273
30
0
10
-549.34000001434424
20
-138.69664619530872
30
0
0
SPLINE
5
160
100
AcDbEntity
8
0
100
AcDbSpline
70
0
71
2
72
6
73
3
74
0
42
0.000000001
43
0.0000000001
44
0.0000000001
40
0
40
0
40
0
40
1
40
1
40
1
10
-549.34000001434424
20
-138.69664619530872
30
0
10
-548.95794112677265
20
-138.8748031804499
30
0
10
-548.56015020671146
20
-138.74079812034955
30
0
0
SPLINE
5
161
100
AcDbEntity
8
0
100
AcDbSpline
70
0
71
2
72
6
73
3
74
0
42
0.000000001
43
0.0000000001
44
0.0000000001
40
0
40
0
40
0
40
1
40
1
40
1
10
-548.56015020671146
20
-138.74079812034955
30
0
10
-548.16235928665026
20
-138.60679306024923
30
0
10
-547.87609741550307
20
-137.99290249649724
30
0
0
LINE
5
162
100
AcDbEntity
8
0
100
AcDbLine
10
-552.33865088570974
20
-135.46716612377816
30
0
11
-552.65607658393424
21
-135.20850919279465
31
0
0
SPLINE
5
163
100
AcDbEntity
8
0
100
AcDbSpline
70
0
71
2
72
6
73
3
74
0
42
0.000000001
43
0.0000000001
44
0.0000000001
40
0
40
0
40
0
40
1
40
1
40
1
10
-552.65607658393424
20
-135.20850919279462
30
0
10
-552.33624607796526
20
-134.81800201048594
30
0
10
-551.93374619162773
20
-134.72231993197124
30
0
0
SPLINE
5
164
100
AcDbEntity
8
0
100
AcDbSpline
70
0
71
2
72
6
73
3
74
0
42
0.000000001
43
0.0000000001
44
0.0000000001
40
0
40
0
40
0
40
1
40
1
40
1
10
-551.93374619162773
20
-134.72231993197124
30
0
10
-551.53124576508878
20
-134.62663810535662
30
0
10
-551.106530133246
20
-134.82468625702347
30
0
0
SPLINE
5
165
100
AcDbEntity
8
0
100
AcDbSpline
70
0
71
2
72
6
73
3
74
0
42
0.000000001
43
0.0000000001
44
0.0000000001
40
0
40
0
40
0
40
1
40
1
40
1
10
-551.106530133246
20
-134.82468625702347
30
0
10
-550.66697678578544
20
-135.02965334911241
30
0
10
-550.47501800100417
20
-135.3370560223992
30
0
0
SPLINE
5
166
100
AcDbEntity
8
0
100
AcDbSpline
70
0
71
2
72
6
73
3
74
0
42
0.000000001
43
0.0000000001
44
0.0000000001
40
0
40
0
40
0
40
1
40
1
40
1
10
-550.47501800100417
20
-135.3370560223992
30
0
10
-550.28305867602148
20
-135.64445894758609
30
0
10
-550.29758849816574
20
-136.05088562912928
30
0
0
SPLINE
5
167
100
AcDbEntity
8
0
100
AcDbSpline
70
0
71
2
72
6
73
3
74
0
42
0.000000001
43
0.0000000001
44
0.0000000001
40
0
40
0
40
0
40
1
40
1
40
1
10
-550.29758849816574
20
-136.05088562912928
30
0
10
-550.31211844626011
20
-136.45731258077322
30
0
10
-550.49373477566223
20
-136.84679005605295
30
0
0
SPLINE
5
168
100
AcDbEntity
8
0
100
AcDbSpline
70
0
71
2
72
6
73
3
74
0
42
0.000000001
43
0.0000000001
44
0.0000000001
40
0
40
0
40
0
40
1
40
1
40
1
10
-550.49373477566223
20
-136.84679005605295
30
0
10
-550.69178305327921
20
-137.27150595799654
30
0
10
-551.00152068460864
20
-137.51205097698607
30
0
0
SPLINE
5
169
100
AcDbEntity
8
0
100
AcDbSpline
70
0
71
2
72
6
73
3
74
0
42
0.000000001
43
0.0000000001
44
0.0000000001
40
0
40
0
40
0
40
1
40
1
40
1
10
-551.00152068460864
20
-137.51205097698607
30
0
10
-551.31125777573664
20
-137.75259624787569
30
0
10
-551.68732261456626
20
-137.77706141376859
30
0
0
SPLINE
5
170
100
AcDbEntity
8
0
100
AcDbSpline
70
0
71
2
72
6
73
3
74
0
42
0.000000001
43
0.0000000001
44
0.0000000001
40
0
40
0
40
0
40
1
40
1
40
1
10
-551.68732261456626
20
-137.77706141376859
30
0
10
-552.063387579346
20
-137.80152684976227
30
0
10
-552.42319097389418
20
-137.63374777145395
30
0
0
SPLINE
5
171
100
AcDbEntity
8
0
100
AcDbSpline
70
0
71
2
72
6
73
3
74
0
42
0.000000001
43
0.0000000001
44
0.0000000001
40
0
40
0
40
0
40
1
40
1
40
1
10
-552.42319097389418
20
-137.63374777145395
30
0
10
-552.83121491844418
20
-137.44348308139931
30
0
10
-553.01255075064228
20
-137.10603602763308
30
0
0
SPLINE
5
172
100
AcDbEntity
8
0
100
AcDbSpline
70
0
71
2
72
6
73
3
74
0
42
0.000000001
43
0.0000000001
44
0.0000000001
40
0
40
0
40
0
40
1
40
1
40
1
10
-553.01255075064228
20
-137.10603602763308
30
0
10
-553.19388712304192
20
-136.76858872196672
30
0
10
-553.12774955301779
20
-136.34106826750184
30
0
0
LINE
5
173
100
AcDbEntity
8
0
100
AcDbLine
10
-553.12774955301779
20
-136.34106826750184
30
0
11
-552.73459242244007
21
-136.42279325777213
31
0
0
SPLINE
5
174
100
AcDbEntity
8
0
100
AcDbSpline
70
0
71
2
72
6
73
3
74
0
42
0.000000001
43
0.0000000001
44
0.0000000001
40
0
40
0
40
0
40
1
40
1
40
1
10
-552.73459242244007
20
-136.4227932577721
30
0
10
-552.77837963132606
20
-136.76364468385208
30
0
10
-552.66161121871517
20
-136.98292398888054
30
0
0
SPLINE
5
175
100
AcDbEntity
8
0
100
AcDbSpline
70
0
71
2
72
6
73
3
74
0
42
0.000000001
43
0.0000000001
44
0.0000000001
40
0
40
0
40
0
40
1
40
1
40
1
10
-552.66161121871517
20
-136.98292398888054
30
0
10
-552.54484286907928
20
-137.20220342895939
30
0
10
-552.27220855535325
20
-137.32933489732596
30
0
0
SPLINE
5
176
100
AcDbEntity
8
0
100
AcDbSpline
70
0
71
2
72
6
73
3
74
0
42
0.000000001
43
0.0000000001
44
0.0000000001
40
0
40
0
40
0
40
1
40
1
40
1
10
-552.27220855535325
20
-137.32933489732596
30
0
10
-551.9587722793334
20
-137.47549263317785
30
0
10
-551.67821720922927
20
-137.42342473363013
30
0
0
SPLINE
5
177
100
AcDbEntity
8
0
100
AcDbSpline
70
0
71
2
72
6
73
3
74
0
42
0.000000001
43
0.0000000001
44
0.0000000001
40
0
40
0
40
0
40
1
40
1
40
1
10
-551.67821720922927
20
-137.42342473363013
30
0
10
-551.39766159892372
20
-137.37135708598248
30
0
10
-551.19429697496082
20
-137.15797935251717
30
0
0
SPLINE
5
178
100
AcDbEntity
8
0
100
AcDbSpline
70
0
71
2
72
6
73
3
74
0
42
0.000000001
43
0.0000000001
44
0.0000000001
40
0
40
0
40
0
40
1
40
1
40
1
10
-551.19429697496082
20
-137.15797935251717
30
0
10
-550.99093235099804
20
-136.94460161905187
30
0
10
-550.86553061773702
20
-136.67567673423028
30
0
0
SPLINE
5
179
100
AcDbEntity
8
0
100
AcDbSpline
70
0
71
2
72
6
73
3
74
0
42
0.000000001
43
0.0000000001
44
0.0000000001
40
0
40
0
40
0
40
1
40
1
40
1
10
-550.86553061773702
20
-136.67567673423028
30
0
10
-550.70380564378559
20
-136.32885640837287
30
0
10
-550.68423920759506
20
-136.02299822815613
30
0
0
SPLINE
5
180
100
AcDbEntity
8
0
100
AcDbSpline
70
0
71
2
72
6
73
3
74
0
42
0.000000001
43
0.0000000001
44
0.0000000001
40
0
40
0
40
0
40
1
40
1
40
1
10
-550.68423920759506
20
-136.02299822815613
30
0
10
-550.66467277140453
20
-135.71714004793941
30
0
10
-550.81828396583717
20
-135.48971254244503
30
0
0
SPLINE
5
181
100
AcDbEntity
8
0
100
AcDbSpline
70
0
71
2
72
6
73
3
74
0
42
0.000000001
43
0.0000000001
44
0.0000000001
40
0
40
0
40
0
40
1
40
1
40
1
10
-550.81828396583717
20
-135.48971254244503
30
0
10
-550.97189503431969
20
-135.26228476684992
30
0
10
-551.22041907304481
20
-135.14639610435654
30
0
0
SPLINE
5
182
100
AcDbEntity
8
0
100
AcDbSpline
70
0
71
2
72
6
73
3
74
0
42
0.000000001
43
0.0000000001
44
0.0000000001
40
0
40
0
40
0
40
1
40
1
40
1
10
-551.22041907304481
20
-135.14639610435654
30
0
10
-551.52272773760319
20
-135.00542725894607
30
0
10
-551.81359821349156
20
-135.08203821609067
30
0
0
SPLINE
5
183
100
AcDbEntity
8
0
100
AcDbSpline
70
0
71
2
72
6
73
3
74
0
42
0.000000001
43
0.0000000001
44
0.0000000001
40
0
40
0
40
0
40
1
40
1
40
1
10
-551.81359821349156
20
-135.08203821609067
30
0
10
-552.10446910363135
20
-135.15864865123439
30
0
10
-552.33865088570974
20
-135.46716612377816
30
0
0
LWPOLYLINE
5
184
100
AcDbEntity
8
0
100
AcDbPolyline
90
12
70
1
43
0.0
10
-553.95020627062058
20
-136.86524051487055
10
-552.68235143501636
20
-134.14631704572128
10
-553.04215428936288
20
-133.97853821931312
10
-553.48149277380912
20
-134.92070263965223
10
-554.12898265504418
20
-135.14713011297127
10
-554.45540146007318
20
-133.31953024074369
10
-554.93019215379445
20
-133.09813170424027
10
-554.49364490980497
20
-135.2706170852137
10
-556.14797138731865
20
-135.84040581012624
10
-555.66019748985627
20
-136.06785851396151
10
-553.68127072355651
20
-135.34912783544991
10
-554.31000912496711
20
-136.69746168846237
0
LWPOLYLINE
5
185
100
AcDbEntity
8
0
100
AcDbPolyline
90
12
70
1
43
0.0
10
-556.50591972978862
20
-135.67349175680826
10
-555.23806489418439
20
-132.95456828765901
10
-557.26705646527137
20
-132.00843397972727
10
-557.41667367133437
20
-132.32928911355594
10
-555.74748549479546
20
-133.1076443431794
10
-556.17904045465446
20
-134.03311694117531
10
-557.68316464953705
20
-133.33173231028394
10
-557.83191708250979
20
-133.650732932236
10
-556.3277928876272
20
-134.35211756312736
10
-556.71610579232367
20
-135.18485727457053
10
-558.32223624344454
20
-134.43590634521544
10
-558.47185357545743
20
-134.75676174914489
0
LWPOLYLINE
5
186
100
AcDbEntity
8
0
100
AcDbPolyline
90
8
70
1
43
0.0
10
-559.57412737584866
20
-133.85213992299785
10
-558.45588987225744
20
-131.45407185777802
10
-558.81569326680551
20
-131.28629277946976
10
-559.93393077039673
20
-133.68436084468956
10
-560.83343763616244
20
-133.26491390461916
10
-560.98305496817545
20
-133.58576930854863
10
-558.8279468658493
20
-134.59071272081727
10
-558.67832953383629
20
-134.26985731688779
0
LINE
5
187
100
AcDbEntity
8
0
100
AcDbLine
10
-536.21669394432479
20
-124.20778410581995
30
0
11
-536.32319612039248
21
-124.55320764963864
31
0
0
SPLINE
5
188
100
AcDbEntity
8
0
100
AcDbSpline
70
0
71
2
72
6
73
3
74
0
42
0.000000001
43
0.0000000001
44
0.0000000001
40
0
40
0
40
0
40
1
40
1
40
1
10
-536.32319612039248
20
-124.55320764963865
30
0
10
-536.64095942651807
20
-124.42120339510909
30
0
10
-536.80433032094743
20
-124.47160161775669
30
0
0
SPLINE
5
189
100
AcDbEntity
8
0
100
AcDbSpline
70
0
71
2
72
6
73
3
74
0
42
0.000000001
43
0.0000000001
44
0.0000000001
40
0
40
0
40
0
40
1
40
1
40
1
10
-536.80433032094743
20
-124.47160161775669
30
0
10
-536.96770146988774
20
-124.52199968093689
30
0
10
-537.0531435406682
20
-124.70569292354263
30
0
0
SPLINE
5
190
100
AcDbEntity
8
0
100
AcDbSpline
70
0
71
2
72
6
73
3
74
0
42
0.000000001
43
0.0000000001
44
0.0000000001
40
0
40
0
40
0
40
1
40
1
40
1
10
-537.0531435406682
20
-124.70569292354263
30
0
10
-537.11614627623726
20
-124.84114348886695
30
0
10
-537.09972908354985
20
-124.96839657924369
30
0
0
SPLINE
5
191
100
AcDbEntity
8
0
100
AcDbSpline
70
0
71
2
72
6
73
3
74
0
42
0.000000001
43
0.0000000001
44
0.0000000001
40
0
40
0
40
0
40
1
40
1
40
1
10
-537.09972908354985
20
-124.96839657924369
30
0
10
-537.08331216108456
20
-125.09564954393082
30
0
10
-536.99388248241166
20
-125.18238480209715
30
0
0
SPLINE
5
192
100
AcDbEntity
8
0
100
AcDbSpline
70
0
71
2
72
6
73
3
74
0
42
0.000000001
43
0.0000000001
44
0.0000000001
40
0
40
0
40
0
40
1
40
1
40
1
10
-536.99388248241166
20
-125.18238480209715
30
0
10
-536.90445307396089
20
-125.26911993457387
30
0
10
-536.67066153916983
20
-125.37786445113936
30
0
0
LINE
5
193
100
AcDbEntity
8
0
100
AcDbLine
10
-536.67066153916983
20
-125.37786445113935
30
0
11
-534.79661938214394
21
-126.2495461763622
31
0
0
LINE
5
194
100
AcDbEntity
8
0
100
AcDbLine
10
-534.79661938214394
20
-126.2495461763622
30
0
11
-534.96405133279052
21
-126.60951074240215
31
0
0
LINE
5
195
100
AcDbEntity
8
0
100
AcDbLine
10
-534.96405133279052
20
-126.60951074240215
30
0
11
-536.81768307698371
21
-125.74732260503902
31
0
0
SPLINE
5
196
100
AcDbEntity
8
0
100
AcDbSpline
70
0
71
2
72
6
73
3
74
0
42
0.000000001
43
0.0000000001
44
0.0000000001
40
0
40
0
40
0
40
1
40
1
40
1
10
-536.81768307698371
20
-125.74732260503902
30
0
10
-537.15909298020597
20
-125.5885210688339
30
0
10
-537.30809133380592
20
-125.41878374545777
30
0
0
SPLINE
5
197
100
AcDbEntity
8
0
100
AcDbSpline
70
0
71
2
72
6
73
3
74
0
42
0.000000001
43
0.0000000001
44
0.0000000001
40
0
40
0
40
0
40
1
40
1
40
1
10
-537.30809133380592
20
-125.41878374545777
30
0
10
-537.45708968740598
20
-125.24904642208168
30
0
10
-537.47214607030276
20
-125.02425016080647
30
0
0
SPLINE
5
198
100
AcDbEntity
8
0
100
AcDbSpline
70
0
71
2
72
6
73
3
74
0
42
0.000000001
43
0.0000000001
44
0.0000000001
40
0
40
0
40
0
40
1
40
1
40
1
10
-537.47214607030276
20
-125.02425016080647
30
0
10
-537.48720248462189
20
-124.79945396708678
30
0
10
-537.37500580856431
20
-124.55824058067972
30
0
0
SPLINE
5
199
100
AcDbEntity
8
0
100
AcDbSpline
70
0
71
2
72
6
73
3
74
0
42
0.000000001
43
0.0000000001
44
0.0000000001
40
0
40
0
40
0
40
1
40
1
40
1
10
-537.37500580856431
20
-124.55824058067972
30
0
10
-537.20843693706865
20
-124.20013156198814
30
0
10
-536.91401525096194
20
-124.10574271843126
30
0
0
SPLINE
5
200
100
AcDbEntity
8
0
100
AcDbSpline
70
0
71
2
72
6
73
3
74
0
42
0.000000001
43
0.0000000001
44
0.0000000001
40
0
40
0
40
0
40
1
40
1
40
1
10
-536.91401525096194
20
-124.10574271843126
30
0
10
-536.61959329856109
20
-124.01135400900841
30
0
10
-536.21669394432479
20
-124.20778410581995
30
0
0
ENDSEC
0
SECTION
2
OBJECTS
0
DICTIONARY
5
C
100
AcDbDictionary
3
ACAD_GROUP
350
D
3
ACAD_MLINESTYLE
350
17
0
DICTIONARY
5
D
100
AcDbDictionary
0
DICTIONARY
5
1A
330
C
100
AcDbDictionary
0
DICTIONARY
5
17
100
AcDbDictionary
0
ENDSEC
0
EOF
