  0
SECTION
  2
HEADER
  9
$ACADVER
  1
AC1014
  9
$ACADMAINTVER
 70
     0
  9
$DWGCODEPAGE
  3
ANSI_1252
  9
$INSBASE
 10
0.0
 20
0.0
 30
0.0
  9
$EXTMIN
 10
0.0
 20
0.0
 30
0.0
  9
$EXTMAX
 10
170.0
 20
220.0
 30
0.0
  9
$LIMMIN
 10
0.0
 20
0.0
  9
$LIMMAX
 10
12.0
 20
9.0
  9
$ORTHOMODE
 70
     0
  9
$REGENMODE
 70
     1
  9
$FILLMODE
 70
     0
  9
$QTEXTMODE
 70
     0
  9
$MIRRTEXT
 70
     1
  9
$DRAGMODE
 70
     2
  9
$LTSCALE
 40
1.0
  9
$OSMODE
 70
    37
  9
$ATTMODE
 70
     1
  9
$TEXTSIZE
 40
0.2
  9
$TRACEWID
 40
0.05
  9
$TEXTSTYLE
  7
STANDARD
  9
$CLAYER
  8
0
  9
$CELTYPE
  6
BYLAYER
  9
$CECOLOR
 62
   256
  9
$CELTSCALE
 40
1.0
  9
$DELOBJ
 70
     1
  9
$DISPSILH
 70
     0
  9
$DIMSCALE
 40
1.0
  9
$DIMASZ
 40
0.18
  9
$DIMEXO
 40
0.0625
  9
$DIMDLI
 40
0.38
  9
$DIMRND
 40
0.0
  9
$DIMDLE
 40
0.0
  9
$DIMEXE
 40
0.18
  9
$DIMTP
 40
0.0
  9
$DIMTM
 40
0.0
  9
$DIMTXT
 40
0.18
  9
$DIMCEN
 40
0.09
  9
$DIMTSZ
 40
0.0
  9
$DIMTOL
 70
     0
  9
$DIMLIM
 70
     0
  9
$DIMTIH
 70
     0
  9
$DIMTOH
 70
     0
  9
$DIMSE1
 70
     0
  9
$DIMSE2
 70
     0
  9
$DIMTAD
 70
     1
  9
$DIMZIN
 70
     0
  9
$DIMBLK
  1

  9
$DIMASO
 70
     1
  9
$DIMSHO
 70
     1
  9
$DIMPOST
  1

  9
$DIMAPOST
  1

  9
$DIMALT
 70
     0
  9
$DIMALTD
 70
     2
  9
$DIMALTF
 40
25.4
  9
$DIMLFAC
 40
1.0
  9
$DIMTOFL
 70
     0
  9
$DIMTVP
 40
0.0
  9
$DIMTIX
 70
     0
  9
$DIMSOXD
 70
     0
  9
$DIMSAH
 70
     0
  9
$DIMBLK1
  1

  9
$DIMBLK2
  1

  9
$DIMSTYLE
  2
STANDARD
  9
$DIMCLRD
 70
     0
  9
$DIMCLRE
 70
     0
  9
$DIMCLRT
 70
     0
  9
$DIMTFAC
 40
1.0
  9
$DIMGAP
 40
0.09
  9
$DIMJUST
 70
     0
  9
$DIMSD1
 70
     0
  9
$DIMSD2
 70
     0
  9
$DIMTOLJ
 70
     1
  9
$DIMTZIN
 70
     0
  9
$DIMALTZ
 70
     0
  9
$DIMALTTZ
 70
     0
  9
$DIMFIT
 70
     5
  9
$DIMUPT
 70
     0
  9
$DIMUNIT
 70
     2
  9
$DIMDEC
 70
     2
  9
$DIMTDEC
 70
     4
  9
$DIMALTU
 70
     2
  9
$DIMALTTD
 70
     2
  9
$DIMTXSTY
  7
STANDARD
  9
$DIMAUNIT
 70
     0
  9
$LUNITS
 70
     2
  9
$LUPREC
 70
     4
  9
$SKETCHINC
 40
0.1
  9
$FILLETRAD
 40
0.5
  9
$AUNITS
 70
     0
  9
$AUPREC
 70
     0
  9
$MENU
  1
.
  9
$ELEVATION
 40
0.0
  9
$PELEVATION
 40
0.0
  9
$THICKNESS
 40
0.0
  9
$LIMCHECK
 70
     0
  9
$BLIPMODE
 70
     0
  9
$CHAMFERA
 40
0.5
  9
$CHAMFERB
 40
0.5
  9
$CHAMFERC
 40
1.0
  9
$CHAMFERD
 40
0.0
  9
$SKPOLY
 70
     0
  9
$TDCREATE
 40
2450772.666465926
  9
$TDUPDATE
 40
2459354.408194445
  9
$TDINDWG
 40
0.0011565046
  9
$TDUSRTIMER
 40
0.0011565046
  9
$USRTIMER
 70
     1
  9
$ANGBASE
 50
0.0
  9
$ANGDIR
 70
     0
  9
$PDMODE
 70
     0
  9
$PDSIZE
 40
0.0
  9
$PLINEWID
 40
0.0
  9
$COORDS
 70
     1
  9
$SPLFRAME
 70
     0
  9
$SPLINETYPE
 70
     6
  9
$SPLINESEGS
 70
     8
  9
$ATTDIA
 70
     0
  9
$ATTREQ
 70
     1
  9
$HANDLING
 70
     1
  9
$HANDSEED
  5
1CE
  9
$SURFTAB1
 70
     6
  9
$SURFTAB2
 70
     6
  9
$SURFTYPE
 70
     6
  9
$SURFU
 70
     6
  9
$SURFV
 70
     6
  9
$UCSNAME
  2

  9
$UCSORG
 10
0.0
 20
0.0
 30
0.0
  9
$UCSXDIR
 10
1.0
 20
0.0
 30
0.0
  9
$UCSYDIR
 10
0.0
 20
1.0
 30
0.0
  9
$PUCSNAME
  2

  9
$PUCSORG
 10
0.0
 20
0.0
 30
0.0
  9
$PUCSXDIR
 10
1.0
 20
0.0
 30
0.0
  9
$PUCSYDIR
 10
0.0
 20
1.0
 30
0.0
  9
$USERI1
 70
     0
  9
$USERI2
 70
     0
  9
$USERI3
 70
     0
  9
$USERI4
 70
     0
  9
$USERI5
 70
     0
  9
$USERR1
 40
0.0
  9
$USERR2
 40
0.0
  9
$USERR3
 40
0.0
  9
$USERR4
 40
0.0
  9
$USERR5
 40
0.0
  9
$WORLDVIEW
 70
     1
  9
$SHADEDGE
 70
     3
  9
$SHADEDIF
 70
    70
  9
$TILEMODE
 70
     1
  9
$MAXACTVP
 70
    48
  9
$PINSBASE
 10
0.0
 20
0.0
 30
0.0
  9
$PLIMCHECK
 70
     0
  9
$PEXTMIN
 10
0.0
 20
0.0
 30
0.0
  9
$PEXTMAX
 10
0.0
 20
0.0
 30
0.0
  9
$PLIMMIN
 10
0.0
 20
0.0
  9
$PLIMMAX
 10
12.0
 20
9.0
  9
$UNITMODE
 70
     0
  9
$VISRETAIN
 70
     1
  9
$PLINEGEN
 70
     0
  9
$PSLTSCALE
 70
     1
  9
$TREEDEPTH
 70
  3020
  9
$PICKSTYLE
 70
     1
  9
$CMLSTYLE
  2
STANDARD
  9
$CMLJUST
 70
     0
  9
$CMLSCALE
 40
1.0
  9
$PROXYGRAPHICS
 70
     1
  9
$MEASUREMENT
 70
     0
  0
ENDSEC
  0
SECTION
  2
CLASSES
  0
CLASS
  1
LWPOLYLINE
  2
AcDbPolyline
  3
AutoCAD 2000
 90
       20
280
     0
281
     1
  0
CLASS
  1
IMAGE
  2
AcDbRasterImage
  3
ISM
 90
       21
280
     0
281
     1
  0
CLASS
  1
OLE2FRAME
  2
AcDbOle2Frame
  3
AutoCAD 2000
 90
       21
280
     0
281
     1
  0
CLASS
  1
HATCH
  2
AcDbHatch
  3
AutoCAD 2000
 90
       20
280
     0
281
     1
  0
CLASS
  1
DICTIONARYVAR
  2
AcDbDictionaryVar
  3
ObjectDBX Classes
 90
       20
280
     0
281
     0
  0
CLASS
  1
RASTERVARIABLES
  2
AcDbRasterVariables
  3
ISM
 90
       21
280
     0
281
     0
  0
CLASS
  1
IMAGEDEF
  2
AcDbRasterImageDef
  3
ISM
 90
       21
280
     0
281
     0
  0
CLASS
  1
IMAGEDEF_REACTOR
  2
AcDbRasterImageDefReactor
  3
ISM
 90
       21
280
     0
281
     0
  0
CLASS
  1
IDBUFFER
  2
AcDbIdBuffer
  3
ObjectDBX Classes
 90
       20
280
     0
281
     0
  0
CLASS
  1
SPATIAL_FILTER
  2
AcDbSpatialFilter
  3
ObjectDBX Classes
 90
       20
280
     0
281
     0
  0
CLASS
  1
XRECORD
  2
AcDbXrecord
  3
AutoCAD 2000
 90
       21
280
     0
281
     0
  0
CLASS
  1
SORTENTSTABLE
  2
AcDbSortentsTable
  3
"AutoCAD"
 90
        0
280
     0
281
     0
  0
CLASS
  1
LAYER_INDEX
  2
AcDbLayerIndex
  3
"Acad"
 90
        0
280
     0
281
     0
  0
CLASS
  1
SPATIAL_INDEX
  2
AcDbSpatialIndex
  3
"Acad"
 90
        0
280
     0
281
     0
  0
CLASS
  1
OBJECT_PTR
  2
CAseDLPNTableRecord
  3
"ASE-LPNTableRecord"
 90
        1
280
     0
281
     0
  0
CLASS
  1
LAYOUT
  2
AcDbLayout
  3
"AutoCAD 2000"
 90
        1
280
     0
281
     0
  0
CLASS
  1
PLOTSETTINGS
  2
AcDbPlotsettings
  3
"AutoCAD 2000"
 90
        1
280
     0
281
     0
  0
CLASS
  1
ACDBDICTIONARYWDFLT
  2
AcDbDictionaryWithDefault
  3
"AutoCAD 2000"
 90
        1
280
     0
281
     0
  0
CLASS
  1
ACDBPLACEHOLDER
  2
AcDbPlaceholder
  3
"AutoCAD 2000"
 90
        1
280
     0
281
     0
  0
CLASS
  1
VBA_PROJECT
  2
AcDbVbaProject
  3
"AutoCAD 2000"
 90
        1
280
     0
281
     0
  0
CLASS
  1
WIPEOUT
  2
AcDbWipeout
  3
"AutoCAD 2000"
 90
        1
280
     0
281
     1
  0
CLASS
  1
WIPEOUTVARIABLES
  2
AcDbWipeoutVariables
  3
"AutoCAD 2000"
 90
        1
280
     0
281
     0
  0
CLASS
  1
RTEXT
  2
RText
  3
RText|AutoCAD Express Tool|expresstools@autodesk.com
 90
        1
280
     0
281
     1
  0
CLASS
  1
ARCALIGNEDTEXT
  2
AcDbArcAlignedText
  3
RText|AutoCAD Express Tool|expresstools@autodesk.com
 90
        1
280
     0
281
     1
  0
ENDSEC
  0
SECTION
  2
TABLES
  0
TABLE
  2
VPORT
  5
8
100
AcDbSymbolTable
 70
     1
  0
VPORT
  5
25
100
AcDbSymbolTableRecord
100
AcDbViewportTableRecord
  2
*ACTIVE
 70
     0
 10
0.0
 20
0.0
 11
1.0
 21
1.0
 12
85.0
 22
110.0
 13
0.0
 23
0.0
 14
0.5
 24
0.5
 15
0.5
 25
0.5
 16
0.0
 26
0.0
 36
1.0
 17
0.0
 27
0.0
 37
0.0
 40
220.0
 41
0.772727
 42
50.0
 43
0.0
 44
0.0
 50
0.0
 51
0.0
 71
     0
 72
   100
 73
     1
 74
     1
 75
     0
 76
     0
 77
     0
 78
     0
  0
ENDTAB
  0
TABLE
  2
LTYPE
  5
5
100
AcDbSymbolTable
 70
     3
  0
LTYPE
  5
12
100
AcDbSymbolTableRecord
100
AcDbLinetypeTableRecord
  2
BYBLOCK
 70
     0
  3

 72
    65
 73
     0
 40
0.0
  0
LTYPE
  5
13
100
AcDbSymbolTableRecord
100
AcDbLinetypeTableRecord
  2
BYLAYER
 70
     0
  3

 72
    65
 73
     0
 40
0.0
  0
LTYPE
  5
14
100
AcDbSymbolTableRecord
100
AcDbLinetypeTableRecord
  2
CONTINUOUS
 70
     0
  3
Solid line
 72
    65
 73
     0
 40
0.0
  0
ENDTAB
  0
TABLE
  2
LAYER
  5
2
100
AcDbSymbolTable
 70
     1
  0
LAYER
  5
E
100
AcDbSymbolTableRecord
100
AcDbLayerTableRecord
  2
0
 70
     0
 62
     7
  6
CONTINUOUS
  0
ENDTAB
  0
TABLE
  2
STYLE
  5
3
100
AcDbSymbolTable
 70
     1
  0
STYLE
  5
F
100
AcDbSymbolTableRecord
100
AcDbTextStyleTableRecord
  2
STANDARD
 70
     0
 40
0.0
 41
1.0
 50
0.0
 71
     0
 42
0.2
  3
txt.shx
  4

  0
ENDTAB
  0
TABLE
  2
VIEW
  5
6
100
AcDbSymbolTable
 70
     0
  0
ENDTAB
  0
TABLE
  2
UCS
  5
7
100
AcDbSymbolTable
 70
     0
  0
ENDTAB
  0
TABLE
  2
APPID
  5
9
100
AcDbSymbolTable
 70
     1
  0
APPID
  5
10
100
AcDbSymbolTableRecord
100
AcDbRegAppTableRecord
  2
ACAD
 70
     0
  0
ENDTAB
  0
TABLE
  2
DIMSTYLE
  5
A
100
AcDbSymbolTable
 70
     1
  0
DIMSTYLE
105
1D
100
AcDbSymbolTableRecord
100
AcDbDimStyleTableRecord
  2
STANDARD
 70
     0
  3

  4

  5

  6

  7

 40
1.0
 41
0.18
 42
0.0625
 43
0.38
 44
0.18
 45
0.0
 46
0.0
 47
0.0
 48
0.0
 71
     0
 72
     0
 73
     1
 74
     1
 75
     0
 76
     0
 77
     0
 78
     0
140
0.18
141
0.09
142
0.0
143
25.4
144
1.0
145
0.0
146
1.0
147
0.09
170
     0
171
     2
172
     0
173
     0
174
     0
175
     0
176
     0
177
     0
178
     0
270
     2
271
     4
272
     4
273
     2
274
     2
275
     0
280
     0
281
     0
282
     0
283
     1
284
     0
285
     0
286
     0
287
     3
288
     0
340
F
  0
ENDTAB
  0
TABLE
  2
BLOCK_RECORD
  5
1
100
AcDbSymbolTable
 70
     0
  0
BLOCK_RECORD
  5
18
100
AcDbSymbolTableRecord
100
AcDbBlockTableRecord
  2
*MODEL_SPACE
  0
BLOCK_RECORD
  5
15
100
AcDbSymbolTableRecord
100
AcDbBlockTableRecord
  2
*PAPER_SPACE
  0
ENDTAB
  0
ENDSEC
  0
SECTION
  2
BLOCKS
  0
BLOCK
  5
19
100
AcDbEntity
  8
0
100
AcDbBlockBegin
  2
*MODEL_SPACE
 70
     0
 10
0.0
 20
0.0
 30
0.0
  3
*MODEL_SPACE
  1

  0
ENDBLK
  5
1A
100
AcDbEntity
  8
0
100
AcDbBlockEnd
  0
BLOCK
  5
16
100
AcDbEntity
 67
     1
  8
0
100
AcDbBlockBegin
  2
*PAPER_SPACE
 70
     0
 10
0.0
 20
0.0
 30
0.0
  3
*PAPER_SPACE
  1

  0
ENDBLK
  5
17
100
AcDbEntity
 67
     1
  8
0
100
AcDbBlockEnd
  0
ENDSEC
  0
SECTION
  2
ENTITIES
  0
LWPOLYLINE
  5
32
102
{ACAD_REACTORS
330
31
102
}
100
AcDbEntity
  8
0
  6
CONTINUOUS
100
AcDbPolyline
 90
        5
 70
     0
 10
70.277818
 20
56.628497
 10
67.077818
 20
56.628497
 10
67.077818
 20
76.628497
 10
70.277818
 20
76.628497
 10
70.277818
 20
56.628497
  0
LWPOLYLINE
  5
33
102
{ACAD_REACTORS
330
31
102
}
100
AcDbEntity
  8
0
  6
CONTINUOUS
100
AcDbPolyline
 90
        5
 70
     0
 10
70.277818
 20
143.849484
 10
67.077818
 20
143.849484
 10
67.077818
 20
163.849484
 10
70.277818
 20
163.849484
 10
70.277818
 20
143.849484
  0
LWPOLYLINE
  5
34
102
{ACAD_REACTORS
330
31
102
}
100
AcDbEntity
  8
0
  6
CONTINUOUS
100
AcDbPolyline
 90
        5
 70
     0
 10
88.477818
 20
56.628497
 10
85.277818
 20
56.628497
 10
85.277818
 20
76.628497
 10
88.477818
 20
76.628497
 10
88.477818
 20
56.628497
  0
LWPOLYLINE
  5
35
102
{ACAD_REACTORS
330
31
102
}
100
AcDbEntity
  8
0
  6
CONTINUOUS
100
AcDbPolyline
 90
        5
 70
     0
 10
88.477818
 20
143.428497
 10
85.277818
 20
143.428497
 10
85.277818
 20
163.428497
 10
88.477818
 20
163.428497
 10
88.477818
 20
143.428497
  0
LWPOLYLINE
  5
36
102
{ACAD_REACTORS
330
31
102
}
100
AcDbEntity
  8
0
  6
CONTINUOUS
100
AcDbPolyline
 90
       21
 70
     0
 10
131.577818
 20
178.428497
 10
112.937818
 20
178.428497
 10
112.937818
 20
181.628497
 10
94.297818
 20
181.628497
 10
94.297818
 20
178.428497
 10
75.657818
 20
178.428497
 10
75.657818
 20
181.628497
 10
57.017818
 20
181.628497
 10
57.017818
 20
178.428497
 10
38.377818
 20
178.428497
 10
38.377818
 20
41.628497
 10
57.017818
 20
41.628497
 10
57.017818
 20
38.428497
 10
75.657818
 20
38.428497
 10
75.657818
 20
41.628497
 10
94.297818
 20
41.628497
 10
94.297818
 20
38.428497
 10
112.937818
 20
38.428497
 10
112.937818
 20
41.628497
 10
131.577818
 20
41.628497
 10
131.577818
 20
178.428497
  0
LWPOLYLINE
  5
37
102
{ACAD_REACTORS
330
31
102
}
100
AcDbEntity
  8
0
  6
CONTINUOUS
100
AcDbPolyline
 90
       13
 70
     0
 10
70.174921
 20
96.86339
 10
73.174921
 20
96.86339
 10
73.174921
 20
97.260388
 10
71.760869
 20
97.260388
 10
71.760869
 20
98.819734
 10
73.174921
 20
98.819734
 10
73.174921
 20
99.216731
 10
70.174921
 20
99.216731
 10
70.174921
 20
98.819734
 10
71.406844
 20
98.819734
 10
71.406844
 20
97.260388
 10
70.174921
 20
97.260388
 10
70.174921
 20
96.86339
  0
SPLINE
  5
38
102
{ACAD_REACTORS
330
31
102
}
100
AcDbEntity
  8
0
  6
CONTINUOUS
100
AcDbSpline
210
0.0
220
0.0
230
1.0
 70
     8
 71
     2
 72
     6
 73
     3
 74
     0
 42
0.0000001
 43
0.0000001
 40
0.0
 40
0.0
 40
0.0
 40
1.0
 40
1.0
 40
1.0
 10
72.088290614763139
 20
99.693540030268949
 30
0.0
 10
71.484607023874162
 20
99.693540030268949
 30
0.0
 10
71.19402037350261
 20
100.02914755895547
 30
0.0
  0
SPLINE
  5
39
102
{ACAD_REACTORS
330
31
102
}
100
AcDbEntity
  8
0
  6
CONTINUOUS
100
AcDbSpline
210
0.0
220
0.0
230
1.0
 70
     8
 71
     2
 72
     6
 73
     3
 74
     0
 42
0.0000001
 43
0.0000001
 40
0.0
 40
0.0
 40
0.0
 40
1.0
 40
1.0
 40
1.0
 10
71.194020373502497
 20
100.02914755895547
 30
0.0
 10
70.952546758332971
 20
100.30950158193521
 30
0.0
 10
70.952546758332971
 20
100.71263878896646
 30
0.0
  0
SPLINE
  5
3A
102
{ACAD_REACTORS
330
31
102
}
100
AcDbEntity
  8
0
  6
CONTINUOUS
100
AcDbSpline
210
0.0
220
0.0
230
1.0
 70
     8
 71
     2
 72
     6
 73
     3
 74
     0
 42
0.0000001
 43
0.0000001
 40
0.0
 40
0.0
 40
0.0
 40
1.0
 40
1.0
 40
1.0
 10
70.952546758333028
 20
100.71263878896646
 30
0.0
 10
70.952546758333028
 20
101.16079896047525
 30
0.0
 10
71.246203345933736
 20
101.44524424627237
 30
0.0
  0
SPLINE
  5
3B
102
{ACAD_REACTORS
330
31
102
}
100
AcDbEntity
  8
0
  6
CONTINUOUS
100
AcDbSpline
210
0.0
220
0.0
230
1.0
 70
     8
 71
     2
 72
     6
 73
     3
 74
     0
 42
0.0000001
 43
0.0000001
 40
0.0
 40
0.0
 40
0.0
 40
1.0
 40
1.0
 40
1.0
 10
71.246203345933736
 20
101.44524424627237
 30
0.0
 10
71.539859337487997
 20
101.72969191625528
 30
0.0
 10
72.057594818750204
 20
101.72969191625528
 30
0.0
  0
SPLINE
  5
3C
102
{ACAD_REACTORS
330
31
102
}
100
AcDbEntity
  8
0
  6
CONTINUOUS
100
AcDbSpline
210
0.0
220
0.0
230
1.0
 70
     8
 71
     2
 72
     6
 73
     3
 74
     0
 42
0.0000001
 43
0.0000001
 40
0.0
 40
0.0
 40
0.0
 40
1.0
 40
1.0
 40
1.0
 10
72.057594818750204
 20
101.72969191625528
 30
0.0
 10
72.47710363356191
 20
101.72969191625528
 30
0.0
 10
72.717554135003866
 20
101.60384028509073
 30
0.0
  0
SPLINE
  5
3D
102
{ACAD_REACTORS
330
31
102
}
100
AcDbEntity
  8
0
  6
CONTINUOUS
100
AcDbSpline
210
0.0
220
0.0
230
1.0
 70
     8
 71
     2
 72
     6
 73
     3
 74
     0
 42
0.0000001
 43
0.0000001
 40
0.0
 40
0.0
 40
0.0
 40
1.0
 40
1.0
 40
1.0
 10
72.717554135003866
 20
101.60384028509071
 30
0.0
 10
72.958004040399373
 20
101.47798626974037
 30
0.0
 10
73.091018957773031
 20
101.23753636434486
 30
0.0
  0
SPLINE
  5
3E
102
{ACAD_REACTORS
330
31
102
}
100
AcDbEntity
  8
0
  6
CONTINUOUS
100
AcDbSpline
210
0.0
220
0.0
230
1.0
 70
     8
 71
     2
 72
     6
 73
     3
 74
     0
 42
0.0000001
 43
0.0000001
 40
0.0
 40
0.0
 40
0.0
 40
1.0
 40
1.0
 40
1.0
 10
73.091018957773031
 20
101.23753636434486
 30
0.0
 10
73.224033875146688
 20
100.99708645894935
 30
0.0
 10
73.224033875146688
 20
100.71263878896644
 30
0.0
  0
SPLINE
  5
3F
102
{ACAD_REACTORS
330
31
102
}
100
AcDbEntity
  8
0
  6
CONTINUOUS
100
AcDbSpline
210
0.0
220
0.0
230
1.0
 70
     8
 71
     2
 72
     6
 73
     3
 74
     0
 42
0.0000001
 43
0.0000001
 40
0.0
 40
0.0
 40
0.0
 40
1.0
 40
1.0
 40
1.0
 10
73.224033875146688
 20
100.71263878896644
 30
0.0
 10
73.224033875146688
 20
100.25629609182289
 30
0.0
 10
72.931401295343221
 20
99.974916868953017
 30
0.0
  0
SPLINE
  5
40
102
{ACAD_REACTORS
330
31
102
}
100
AcDbEntity
  8
0
  6
CONTINUOUS
100
AcDbSpline
210
0.0
220
0.0
230
1.0
 70
     8
 71
     2
 72
     6
 73
     3
 74
     0
 42
0.0000001
 43
0.0000001
 40
0.0
 40
0.0
 40
0.0
 40
1.0
 40
1.0
 40
1.0
 10
72.931401295343221
 20
99.974916868953031
 30
0.0
 10
72.638768119493307
 20
99.693540030268949
 30
0.0
 10
72.088290614763082
 20
99.693540030268949
 30
0.0
  0
SPLINE
  5
41
102
{ACAD_REACTORS
330
31
102
}
100
AcDbEntity
  8
0
  6
CONTINUOUS
100
AcDbSpline
210
0.0
220
0.0
230
1.0
 70
     8
 71
     2
 72
     6
 73
     3
 74
     0
 42
0.0000001
 43
0.0000001
 40
0.0
 40
0.0
 40
0.0
 40
1.0
 40
1.0
 40
1.0
 10
72.088290614763025
 20
100.07212012365274
 30
0.0
 10
72.505753202119593
 20
100.07212012365274
 30
0.0
 10
72.713461084047083
 20
100.25425046041421
 30
0.0
  0
SPLINE
  5
42
102
{ACAD_REACTORS
330
31
102
}
100
AcDbEntity
  8
0
  6
CONTINUOUS
100
AcDbSpline
210
0.0
220
0.0
230
1.0
 70
     8
 71
     2
 72
     6
 73
     3
 74
     0
 42
0.0000001
 43
0.0000001
 40
0.0
 40
0.0
 40
0.0
 40
1.0
 40
1.0
 40
1.0
 10
72.71346108404714
 20
100.25425046041421
 30
0.0
 10
72.92116896597463
 20
100.4363784129899
 30
0.0
 10
72.92116896597463
 20
100.71263878896646
 30
0.0
  0
SPLINE
  5
43
102
{ACAD_REACTORS
330
31
102
}
100
AcDbEntity
  8
0
  6
CONTINUOUS
100
AcDbSpline
210
0.0
220
0.0
230
1.0
 70
     8
 71
     2
 72
     6
 73
     3
 74
     0
 42
0.0000001
 43
0.0000001
 40
0.0
 40
0.0
 40
0.0
 40
1.0
 40
1.0
 40
1.0
 10
72.921168965974573
 20
100.71263878896646
 30
0.0
 10
72.921168965974573
 20
100.98685353353433
 30
0.0
 10
72.712437672296289
 20
101.1689838702958
 30
0.0
  0
SPLINE
  5
44
102
{ACAD_REACTORS
330
31
102
}
100
AcDbEntity
  8
0
  6
CONTINUOUS
100
AcDbSpline
210
0.0
220
0.0
230
1.0
 70
     8
 71
     2
 72
     6
 73
     3
 74
     0
 42
0.0000001
 43
0.0000001
 40
0.0
 40
0.0
 40
0.0
 40
1.0
 40
1.0
 40
1.0
 10
72.712437672296346
 20
101.1689838702958
 30
0.0
 10
72.50370697466451
 20
101.35111182287149
 30
0.0
 10
72.076012057939352
 20
101.35111182287149
 30
0.0
  0
SPLINE
  5
45
102
{ACAD_REACTORS
330
31
102
}
100
AcDbEntity
  8
0
  6
CONTINUOUS
100
AcDbSpline
210
0.0
220
0.0
230
1.0
 70
     8
 71
     2
 72
     6
 73
     3
 74
     0
 42
0.0000001
 43
0.0000001
 40
0.0
 40
0.0
 40
0.0
 40
1.0
 40
1.0
 40
1.0
 10
72.076012057939352
 20
101.35111182287149
 30
0.0
 10
71.672874254861654
 20
101.35111182287149
 30
0.0
 10
71.465166372934164
 20
101.16796105459146
 30
0.0
  0
SPLINE
  5
46
102
{ACAD_REACTORS
330
31
102
}
100
AcDbEntity
  8
0
  6
CONTINUOUS
100
AcDbSpline
210
0.0
220
0.0
230
1.0
 70
     8
 71
     2
 72
     6
 73
     3
 74
     0
 42
0.0000001
 43
0.0000001
 40
0.0
 40
0.0
 40
0.0
 40
1.0
 40
1.0
 40
1.0
 10
71.46516637293422
 20
101.16796105459144
 30
0.0
 10
71.25745849100673
 20
100.98480790212562
 30
0.0
 10
71.25745849100673
 20
100.71263878896644
 30
0.0
  0
SPLINE
  5
47
102
{ACAD_REACTORS
330
31
102
}
100
AcDbEntity
  8
0
  6
CONTINUOUS
100
AcDbSpline
210
0.0
220
0.0
230
1.0
 70
     8
 71
     2
 72
     6
 73
     3
 74
     0
 42
0.0000001
 43
0.0000001
 40
0.0
 40
0.0
 40
0.0
 40
1.0
 40
1.0
 40
1.0
 10
71.257458491006716
 20
100.71263878896646
 30
0.0
 10
71.257458491006716
 20
100.4363784129899
 30
0.0
 10
71.464142961183413
 20
100.25425046041421
 30
0.0
  0
SPLINE
  5
48
102
{ACAD_REACTORS
330
31
102
}
100
AcDbEntity
  8
0
  6
CONTINUOUS
100
AcDbSpline
210
0.0
220
0.0
230
1.0
 70
     8
 71
     2
 72
     6
 73
     3
 74
     0
 42
0.0000001
 43
0.0000001
 40
0.0
 40
0.0
 40
0.0
 40
1.0
 40
1.0
 40
1.0
 10
71.464142961183427
 20
100.25425046041421
 30
0.0
 10
71.670828027406571
 20
100.07212012365274
 30
0.0
 10
72.088290614763139
 20
100.07212012365274
 30
0.0
  0
LINE
  5
49
102
{ACAD_REACTORS
330
31
102
}
100
AcDbEntity
  8
0
  6
CONTINUOUS
100
AcDbLine
 10
73.174921
 20
103.585764
 30
0.0
 11
72.855685
 21
103.585764
 31
0.0
  0
SPLINE
  5
4A
102
{ACAD_REACTORS
330
31
102
}
100
AcDbEntity
  8
0
  6
CONTINUOUS
100
AcDbSpline
210
0.0
220
0.0
230
1.0
 70
     8
 71
     2
 72
     6
 73
     3
 74
     0
 42
0.0000001
 43
0.0000001
 40
0.0
 40
0.0
 40
0.0
 40
1.0
 40
1.0
 40
1.0
 10
72.855684919038595
 20
103.58576386526039
 30
0.0
 10
73.224033875146688
 20
103.33201258733681
 30
0.0
 10
73.224033875146688
 20
102.89613335683754
 30
0.0
  0
SPLINE
  5
4B
102
{ACAD_REACTORS
330
31
102
}
100
AcDbEntity
  8
0
  6
CONTINUOUS
100
AcDbSpline
210
0.0
220
0.0
230
1.0
 70
     8
 71
     2
 72
     6
 73
     3
 74
     0
 42
0.0000001
 43
0.0000001
 40
0.0
 40
0.0
 40
0.0
 40
1.0
 40
1.0
 40
1.0
 10
73.224033875146688
 20
102.89613335683754
 30
0.0
 10
73.224033875146688
 20
102.70377247884682
 30
0.0
 10
73.150364322343648
 20
102.5369915302079
 30
0.0
  0
SPLINE
  5
4C
102
{ACAD_REACTORS
330
31
102
}
100
AcDbEntity
  8
0
  6
CONTINUOUS
100
AcDbSpline
210
0.0
220
0.0
230
1.0
 70
     8
 71
     2
 72
     6
 73
     3
 74
     0
 42
0.0000001
 43
0.0000001
 40
0.0
 40
0.0
 40
0.0
 40
1.0
 40
1.0
 40
1.0
 10
73.150364322343705
 20
102.5369915302079
 30
0.0
 10
73.076694173494218
 20
102.37021058156898
 30
0.0
 10
72.965166134515641
 20
102.28937953069618
 30
0.0
  0
SPLINE
  5
4D
102
{ACAD_REACTORS
330
31
102
}
100
AcDbEntity
  8
0
  6
CONTINUOUS
100
AcDbSpline
210
0.0
220
0.0
230
1.0
 70
     8
 71
     2
 72
     6
 73
     3
 74
     0
 42
0.0000001
 43
0.0000001
 40
0.0
 40
0.0
 40
0.0
 40
1.0
 40
1.0
 40
1.0
 10
72.965166134515627
 20
102.28937953069621
 30
0.0
 10
72.853638691583498
 20
102.20854609563762
 30
0.0
 10
72.691974205652102
 20
102.1758040721696
 30
0.0
  0
SPLINE
  5
4E
102
{ACAD_REACTORS
330
31
102
}
100
AcDbEntity
  8
0
  6
CONTINUOUS
100
AcDbSpline
210
0.0
220
0.0
230
1.0
 70
     8
 71
     2
 72
     6
 73
     3
 74
     0
 42
0.0000001
 43
0.0000001
 40
0.0
 40
0.0
 40
0.0
 40
1.0
 40
1.0
 40
1.0
 10
72.691974205652002
 20
102.17580407216957
 30
0.0
 10
72.583515805879358
 20
102.15329497411659
 30
0.0
 10
72.348181171098474
 20
102.15329497411659
 30
0.0
  0
LINE
  5
4F
102
{ACAD_REACTORS
330
31
102
}
100
AcDbEntity
  8
0
  6
CONTINUOUS
100
AcDbLine
 10
72.348181
 20
102.153295
 30
0.0
 11
71.00166
 21
102.153295
 31
0.0
  0
LINE
  5
50
102
{ACAD_REACTORS
330
31
102
}
100
AcDbEntity
  8
0
  6
CONTINUOUS
100
AcDbLine
 10
71.00166
 20
102.153295
 30
0.0
 11
71.00166
 21
102.521645
 31
0.0
  0
LINE
  5
51
102
{ACAD_REACTORS
330
31
102
}
100
AcDbEntity
  8
0
  6
CONTINUOUS
100
AcDbLine
 10
71.00166
 20
102.521645
 30
0.0
 11
72.206981
 21
102.521645
 31
0.0
  0
SPLINE
  5
52
102
{ACAD_REACTORS
330
31
102
}
100
AcDbEntity
  8
0
  6
CONTINUOUS
100
AcDbSpline
210
0.0
220
0.0
230
1.0
 70
     8
 71
     2
 72
     6
 73
     3
 74
     0
 42
0.0000001
 43
0.0000001
 40
0.0
 40
0.0
 40
0.0
 40
1.0
 40
1.0
 40
1.0
 10
72.20698074785787
 20
102.52164452627113
 30
0.0
 10
72.495520872751058
 20
102.52164452627113
 30
0.0
 10
72.595793766656698
 20
102.54415362432411
 30
0.0
  0
SPLINE
  5
53
102
{ACAD_REACTORS
330
31
102
}
100
AcDbEntity
  8
0
  6
CONTINUOUS
100
AcDbSpline
210
0.0
220
0.0
230
1.0
 70
     8
 71
     2
 72
     6
 73
     3
 74
     0
 42
0.0000001
 43
0.0000001
 40
0.0
 40
0.0
 40
0.0
 40
1.0
 40
1.0
 40
1.0
 10
72.595793766656641
 20
102.54415362432411
 30
0.0
 10
72.741087240854029
 20
102.57894127920082
 30
0.0
 10
72.823965711274866
 20
102.69149392202308
 30
0.0
  0
SPLINE
  5
54
102
{ACAD_REACTORS
330
31
102
}
100
AcDbEntity
  8
0
  6
CONTINUOUS
100
AcDbSpline
210
0.0
220
0.0
230
1.0
 70
     8
 71
     2
 72
     6
 73
     3
 74
     0
 42
0.0000001
 43
0.0000001
 40
0.0
 40
0.0
 40
0.0
 40
1.0
 40
1.0
 40
1.0
 10
72.823965711274923
 20
102.69149392202308
 30
0.0
 10
72.90684418169576
 20
102.80404418065956
 30
0.0
 10
72.90684418169576
 20
102.96980231359413
 30
0.0
  0
SPLINE
  5
55
102
{ACAD_REACTORS
330
31
102
}
100
AcDbEntity
  8
0
  6
CONTINUOUS
100
AcDbSpline
210
0.0
220
0.0
230
1.0
 70
     8
 71
     2
 72
     6
 73
     3
 74
     0
 42
0.0000001
 43
0.0000001
 40
0.0
 40
0.0
 40
0.0
 40
1.0
 40
1.0
 40
1.0
 10
72.90684418169576
 20
102.96980231359413
 30
0.0
 10
72.90684418169576
 20
103.13555806234291
 30
0.0
 10
72.821919483819784
 20
103.28085272863319
 30
0.0
  0
SPLINE
  5
56
102
{ACAD_REACTORS
330
31
102
}
100
AcDbEntity
  8
0
  6
CONTINUOUS
100
AcDbSpline
210
0.0
220
0.0
230
1.0
 70
     8
 71
     2
 72
     6
 73
     3
 74
     0
 42
0.0000001
 43
0.0000001
 40
0.0
 40
0.0
 40
0.0
 40
1.0
 40
1.0
 40
1.0
 10
72.821919483819713
 20
103.28085272863319
 30
0.0
 10
72.736994785943736
 20
103.42614501073768
 30
0.0
 10
72.590677899995555
 20
103.48651497915199
 30
0.0
  0
SPLINE
  5
57
102
{ACAD_REACTORS
330
31
102
}
100
AcDbEntity
  8
0
  6
CONTINUOUS
100
AcDbSpline
210
0.0
220
0.0
230
1.0
 70
     8
 71
     2
 72
     6
 73
     3
 74
     0
 42
0.0000001
 43
0.0000001
 40
0.0
 40
0.0
 40
0.0
 40
1.0
 40
1.0
 40
1.0
 10
72.590677899995626
 20
103.48651497915199
 30
0.0
 10
72.444361610093893
 20
103.54688256338051
 30
0.0
 10
72.166053218522848
 20
103.54688256338051
 30
0.0
  0
LINE
  5
58
102
{ACAD_REACTORS
330
31
102
}
100
AcDbEntity
  8
0
  6
CONTINUOUS
100
AcDbLine
 10
72.166053
 20
103.546883
 30
0.0
 11
71.00166
 21
103.546883
 31
0.0
  0
LINE
  5
59
102
{ACAD_REACTORS
330
31
102
}
100
AcDbEntity
  8
0
  6
CONTINUOUS
100
AcDbLine
 10
71.00166
 20
103.546883
 30
0.0
 11
71.00166
 21
103.915232
 31
0.0
  0
LINE
  5
5A
102
{ACAD_REACTORS
330
31
102
}
100
AcDbEntity
  8
0
  6
CONTINUOUS
100
AcDbLine
 10
71.00166
 20
103.915232
 30
0.0
 11
73.174921
 21
103.915232
 31
0.0
  0
LINE
  5
5B
102
{ACAD_REACTORS
330
31
102
}
100
AcDbEntity
  8
0
  6
CONTINUOUS
100
AcDbLine
 10
73.174921
 20
103.915232
 30
0.0
 11
73.174921
 21
103.585764
 31
0.0
  0
LINE
  5
5C
102
{ACAD_REACTORS
330
31
102
}
100
AcDbEntity
  8
0
  6
CONTINUOUS
100
AcDbLine
 10
72.526217
 20
104.344972
 30
0.0
 11
72.468918
 21
104.70923
 31
0.0
  0
SPLINE
  5
5D
102
{ACAD_REACTORS
330
31
102
}
100
AcDbEntity
  8
0
  6
CONTINUOUS
100
AcDbSpline
210
0.0
220
0.0
230
1.0
 70
     8
 71
     2
 72
     6
 73
     3
 74
     0
 42
0.0000001
 43
0.0000001
 40
0.0
 40
0.0
 40
0.0
 40
1.0
 40
1.0
 40
1.0
 10
72.468918127694906
 20
104.70923035695961
 30
0.0
 10
72.687881154695333
 20
104.73992436483314
 30
0.0
 10
72.804525060334981
 20
104.8801049526017
 30
0.0
  0
SPLINE
  5
5E
102
{ACAD_REACTORS
330
31
102
}
100
AcDbEntity
  8
0
  6
CONTINUOUS
100
AcDbSpline
210
0.0
220
0.0
230
1.0
 70
     8
 71
     2
 72
     6
 73
     3
 74
     0
 42
0.0000001
 43
0.0000001
 40
0.0
 40
0.0
 40
0.0
 40
1.0
 40
1.0
 40
1.0
 10
72.804525060334925
 20
104.8801049526017
 30
0.0
 10
72.921168965974573
 20
105.02028077199867
 30
0.0
 10
72.921168965974573
 20
105.27198403432777
 30
0.0
  0
SPLINE
  5
5F
102
{ACAD_REACTORS
330
31
102
}
100
AcDbEntity
  8
0
  6
CONTINUOUS
100
AcDbSpline
210
0.0
220
0.0
230
1.0
 70
     8
 71
     2
 72
     6
 73
     3
 74
     0
 42
0.0000001
 43
0.0000001
 40
0.0
 40
0.0
 40
0.0
 40
1.0
 40
1.0
 40
1.0
 10
72.92116896597463
 20
105.27198403432777
 30
0.0
 10
72.92116896597463
 20
105.52573769643715
 30
0.0
 10
72.817826432863058
 20
105.64851849630287
 30
0.0
  0
SPLINE
  5
60
102
{ACAD_REACTORS
330
31
102
}
100
AcDbEntity
  8
0
  6
CONTINUOUS
100
AcDbSpline
210
0.0
220
0.0
230
1.0
 70
     8
 71
     2
 72
     6
 73
     3
 74
     0
 42
0.0000001
 43
0.0000001
 40
0.0
 40
0.0
 40
0.0
 40
1.0
 40
1.0
 40
1.0
 10
72.817826432863058
 20
105.64851849630287
 30
0.0
 10
72.714484495797933
 20
105.77130406454017
 30
0.0
 10
72.575330300012411
 20
105.77130406454017
 30
0.0
  0
SPLINE
  5
61
102
{ACAD_REACTORS
330
31
102
}
100
AcDbEntity
  8
0
  6
CONTINUOUS
100
AcDbSpline
210
0.0
220
0.0
230
1.0
 70
     8
 71
     2
 72
     6
 73
     3
 74
     0
 42
0.0000001
 43
0.0000001
 40
0.0
 40
0.0
 40
0.0
 40
1.0
 40
1.0
 40
1.0
 10
72.575330300012354
 20
105.77130406454017
 30
0.0
 10
72.450500888505701
 20
105.77130406454017
 30
0.0
 10
72.378876967111353
 20
105.66284268453529
 30
0.0
  0
SPLINE
  5
62
102
{ACAD_REACTORS
330
31
102
}
100
AcDbEntity
  8
0
  6
CONTINUOUS
100
AcDbSpline
210
0.0
220
0.0
230
1.0
 70
     8
 71
     2
 72
     6
 73
     3
 74
     0
 42
0.0000001
 43
0.0000001
 40
0.0
 40
0.0
 40
0.0
 40
1.0
 40
1.0
 40
1.0
 10
72.37887696711141
 20
105.66284268453529
 30
0.0
 10
72.329763931909383
 20
105.5871304805558
 30
0.0
 10
72.254047555604757
 20
105.28630822256019
 30
0.0
  0
SPLINE
  5
63
102
{ACAD_REACTORS
330
31
102
}
100
AcDbEntity
  8
0
  6
CONTINUOUS
100
AcDbSpline
210
0.0
220
0.0
230
1.0
 70
     8
 71
     2
 72
     6
 73
     3
 74
     0
 42
0.0000001
 43
0.0000001
 40
0.0
 40
0.0
 40
0.0
 40
1.0
 40
1.0
 40
1.0
 10
72.254047555604757
 20
105.28630822256019
 30
0.0
 10
72.151728434243978
 20
104.88112538412025
 30
0.0
 10
72.077035469690145
 20
104.72457497671058
 30
0.0
  0
SPLINE
  5
64
102
{ACAD_REACTORS
330
31
102
}
100
AcDbEntity
  8
0
  6
CONTINUOUS
100
AcDbSpline
210
0.0
220
0.0
230
1.0
 70
     8
 71
     2
 72
     6
 73
     3
 74
     0
 42
0.0000001
 43
0.0000001
 40
0.0
 40
0.0
 40
0.0
 40
1.0
 40
1.0
 40
1.0
 10
72.077035469690145
 20
104.72457497671058
 30
0.0
 10
72.002342505136312
 20
104.5680293376725
 30
0.0
 10
71.870350403467
 20
104.48719590261391
 30
0.0
  0
SPLINE
  5
65
102
{ACAD_REACTORS
330
31
102
}
100
AcDbEntity
  8
0
  6
CONTINUOUS
100
AcDbSpline
210
0.0
220
0.0
230
1.0
 70
     8
 71
     2
 72
     6
 73
     3
 74
     0
 42
0.0000001
 43
0.0000001
 40
0.0
 40
0.0
 40
0.0
 40
1.0
 40
1.0
 40
1.0
 10
71.870350403467
 20
104.48719590261391
 30
0.0
 10
71.738358897844137
 20
104.40636246755531
 30
0.0
 10
71.578740639367879
 20
104.40636246755531
 30
0.0
  0
SPLINE
  5
66
102
{ACAD_REACTORS
330
31
102
}
100
AcDbEntity
  8
0
  6
CONTINUOUS
100
AcDbSpline
210
0.0
220
0.0
230
1.0
 70
     8
 71
     2
 72
     6
 73
     3
 74
     0
 42
0.0000001
 43
0.0000001
 40
0.0
 40
0.0
 40
0.0
 40
1.0
 40
1.0
 40
1.0
 10
71.578740639367879
 20
104.40636246755531
 30
0.0
 10
71.433447165170492
 20
104.40636246755531
 30
0.0
 10
71.309641165414632
 20
104.47287171438148
 30
0.0
  0
SPLINE
  5
67
102
{ACAD_REACTORS
330
31
102
}
100
AcDbEntity
  8
0
  6
CONTINUOUS
100
AcDbSpline
210
0.0
220
0.0
230
1.0
 70
     8
 71
     2
 72
     6
 73
     3
 74
     0
 42
0.0000001
 43
0.0000001
 40
0.0
 40
0.0
 40
0.0
 40
1.0
 40
1.0
 40
1.0
 10
71.309641165414632
 20
104.47287171438148
 30
0.0
 10
71.185834867635549
 20
104.53938096120766
 30
0.0
 10
71.103979510942281
 20
104.65397923543861
 30
0.0
  0
SPLINE
  5
68
102
{ACAD_REACTORS
330
31
102
}
100
AcDbEntity
  8
0
  6
CONTINUOUS
100
AcDbSpline
210
0.0
220
0.0
230
1.0
 70
     8
 71
     2
 72
     6
 73
     3
 74
     0
 42
0.0000001
 43
0.0000001
 40
0.0
 40
0.0
 40
0.0
 40
1.0
 40
1.0
 40
1.0
 10
71.103979510942281
 20
104.65397923543861
 30
0.0
 10
71.040541691461385
 20
104.73992436483314
 30
0.0
 10
70.996544224897207
 20
104.88828747823646
 30
0.0
  0
SPLINE
  5
69
102
{ACAD_REACTORS
330
31
102
}
100
AcDbEntity
  8
0
  6
CONTINUOUS
100
AcDbSpline
210
0.0
220
0.0
230
1.0
 70
     8
 71
     2
 72
     6
 73
     3
 74
     0
 42
0.0000001
 43
0.0000001
 40
0.0
 40
0.0
 40
0.0
 40
1.0
 40
1.0
 40
1.0
 10
70.996544224897264
 20
104.88828747823646
 30
0.0
 10
70.952546758333085
 20
105.03665059163978
 30
0.0
 10
70.952546758333085
 20
105.20649998739174
 30
0.0
  0
SPLINE
  5
6A
102
{ACAD_REACTORS
330
31
102
}
100
AcDbEntity
  8
0
  6
CONTINUOUS
100
AcDbSpline
210
0.0
220
0.0
230
1.0
 70
     8
 71
     2
 72
     6
 73
     3
 74
     0
 42
0.0000001
 43
0.0000001
 40
0.0
 40
0.0
 40
0.0
 40
1.0
 40
1.0
 40
1.0
 10
70.952546758333028
 20
105.20649998739174
 30
0.0
 10
70.952546758333028
 20
105.4622992809098
 30
0.0
 10
71.026216907182516
 20
105.65568059041908
 30
0.0
  0
SPLINE
  5
6B
102
{ACAD_REACTORS
330
31
102
}
100
AcDbEntity
  8
0
  6
CONTINUOUS
100
AcDbSpline
210
0.0
220
0.0
230
1.0
 70
     8
 71
     2
 72
     6
 73
     3
 74
     0
 42
0.0000001
 43
0.0000001
 40
0.0
 40
0.0
 40
0.0
 40
1.0
 40
1.0
 40
1.0
 10
71.026216907182516
 20
105.65568059041908
 30
0.0
 10
71.099886459985555
 20
105.84906666829994
 30
0.0
 10
71.225739283243001
 20
105.94115346029213
 30
0.0
  0
SPLINE
  5
6C
102
{ACAD_REACTORS
330
31
102
}
100
AcDbEntity
  8
0
  6
CONTINUOUS
100
AcDbSpline
210
0.0
220
0.0
230
1.0
 70
     8
 71
     2
 72
     6
 73
     3
 74
     0
 42
0.0000001
 43
0.0000001
 40
0.0
 40
0.0
 40
0.0
 40
1.0
 40
1.0
 40
1.0
 10
71.225739283243016
 20
105.94115346029213
 30
0.0
 10
71.351592106500462
 20
106.03324025228432
 30
0.0
 10
71.562369627633885
 20
106.06803029134682
 30
0.0
  0
LINE
  5
6D
102
{ACAD_REACTORS
330
31
102
}
100
AcDbEntity
  8
0
  6
CONTINUOUS
100
AcDbLine
 10
71.56237
 20
106.06803
 30
0.0
 11
71.611483
 21
105.707866
 31
0.0
  0
SPLINE
  5
6E
102
{ACAD_REACTORS
330
31
102
}
100
AcDbEntity
  8
0
  6
CONTINUOUS
100
AcDbSpline
210
0.0
220
0.0
230
1.0
 70
     8
 71
     2
 72
     6
 73
     3
 74
     0
 42
0.0000001
 43
0.0000001
 40
0.0
 40
0.0
 40
0.0
 40
1.0
 40
1.0
 40
1.0
 10
71.61148266283584
 20
105.70786564901283
 30
0.0
 10
71.443679494539026
 20
105.68330853536537
 30
0.0
 10
71.349545581022028
 20
105.56563942983558
 30
0.0
  0
SPLINE
  5
6F
102
{ACAD_REACTORS
330
31
102
}
100
AcDbEntity
  8
0
  6
CONTINUOUS
100
AcDbSpline
210
0.0
220
0.0
230
1.0
 70
     8
 71
     2
 72
     6
 73
     3
 74
     0
 42
0.0000001
 43
0.0000001
 40
0.0
 40
0.0
 40
0.0
 40
1.0
 40
1.0
 40
1.0
 10
71.349545581022028
 20
105.56563942983558
 30
0.0
 10
71.25541166750503
 20
105.44797509267738
 30
0.0
 10
71.25541166750503
 20
105.23310273244789
 30
0.0
  0
SPLINE
  5
70
102
{ACAD_REACTORS
330
31
102
}
100
AcDbEntity
  8
0
  6
CONTINUOUS
100
AcDbSpline
210
0.0
220
0.0
230
1.0
 70
     8
 71
     2
 72
     6
 73
     3
 74
     0
 42
0.0000001
 43
0.0000001
 40
0.0
 40
0.0
 40
0.0
 40
1.0
 40
1.0
 40
1.0
 10
71.25541166750503
 20
105.23310273244789
 30
0.0
 10
71.25541166750503
 20
104.9793538387101
 30
0.0
 10
71.33931354967666
 20
104.87089245870521
 30
0.0
  0
SPLINE
  5
71
102
{ACAD_REACTORS
330
31
102
}
100
AcDbEntity
  8
0
  6
CONTINUOUS
100
AcDbSpline
210
0.0
220
0.0
230
1.0
 70
     8
 71
     2
 72
     6
 73
     3
 74
     0
 42
0.0000001
 43
0.0000001
 40
0.0
 40
0.0
 40
0.0
 40
1.0
 40
1.0
 40
1.0
 10
71.33931354967666
 20
104.87089245870521
 30
0.0
 10
71.423215431848291
 20
104.76243584707191
 30
0.0
 10
71.535766584554437
 20
104.76243584707191
 30
0.0
  0
SPLINE
  5
72
102
{ACAD_REACTORS
330
31
102
}
100
AcDbEntity
  8
0
  6
CONTINUOUS
100
AcDbSpline
210
0.0
220
0.0
230
1.0
 70
     8
 71
     2
 72
     6
 73
     3
 74
     0
 42
0.0000001
 43
0.0000001
 40
0.0
 40
0.0
 40
0.0
 40
1.0
 40
1.0
 40
1.0
 10
71.535766584554494
 20
104.76243584707191
 30
0.0
 10
71.607390207925619
 20
104.76243584707191
 30
0.0
 10
71.664688748994649
 20
104.80745404317787
 30
0.0
  0
SPLINE
  5
73
102
{ACAD_REACTORS
330
31
102
}
100
AcDbEntity
  8
0
  6
CONTINUOUS
100
AcDbSpline
210
0.0
220
0.0
230
1.0
 70
     8
 71
     2
 72
     6
 73
     3
 74
     0
 42
0.0000001
 43
0.0000001
 40
0.0
 40
0.0
 40
0.0
 40
1.0
 40
1.0
 40
1.0
 10
71.664688748994593
 20
104.80745404317787
 30
0.0
 10
71.72403411356521
 20
104.85247700765541
 30
0.0
 10
71.762915415445093
 20
104.94865506246498
 30
0.0
  0
SPLINE
  5
74
102
{ACAD_REACTORS
330
31
102
}
100
AcDbEntity
  8
0
  6
CONTINUOUS
100
AcDbSpline
210
0.0
220
0.0
230
1.0
 70
     8
 71
     2
 72
     6
 73
     3
 74
     0
 42
0.0000001
 43
0.0000001
 40
0.0
 40
0.0
 40
0.0
 40
1.0
 40
1.0
 40
1.0
 10
71.76291541544515
 20
104.94865506246498
 30
0.0
 10
71.783379180112661
 20
105.00391095235756
 30
0.0
 10
71.857049030938924
 20
105.27402966573646
 30
0.0
  0
SPLINE
  5
75
102
{ACAD_REACTORS
330
31
102
}
100
AcDbEntity
  8
0
  6
CONTINUOUS
100
AcDbSpline
210
0.0
220
0.0
230
1.0
 70
     8
 71
     2
 72
     6
 73
     3
 74
     0
 42
0.0000001
 43
0.0000001
 40
0.0
 40
0.0
 40
0.0
 40
1.0
 40
1.0
 40
1.0
 10
71.857049030938867
 20
105.27402966573646
 30
0.0
 10
71.961414677778009
 20
105.66489308431557
 30
0.0
 10
72.027922136464838
 20
105.81939309194496
 30
0.0
  0
SPLINE
  5
76
102
{ACAD_REACTORS
330
31
102
}
100
AcDbEntity
  8
0
  6
CONTINUOUS
100
AcDbSpline
210
0.0
220
0.0
230
1.0
 70
     8
 71
     2
 72
     6
 73
     3
 74
     0
 42
0.0000001
 43
0.0000001
 40
0.0
 40
0.0
 40
0.0
 40
1.0
 40
1.0
 40
1.0
 10
72.027922136464952
 20
105.81939309194496
 30
0.0
 10
72.094429893175004
 20
105.97389309957435
 30
0.0
 10
72.221305532136796
 20
106.06188862874916
 30
0.0
  0
SPLINE
  5
77
102
{ACAD_REACTORS
330
31
102
}
100
AcDbEntity
  8
0
  6
CONTINUOUS
100
AcDbSpline
210
0.0
220
0.0
230
1.0
 70
     8
 71
     2
 72
     6
 73
     3
 74
     0
 42
0.0000001
 43
0.0000001
 40
0.0
 40
0.0
 40
0.0
 40
1.0
 40
1.0
 40
1.0
 10
72.221305532136739
 20
106.06188862874916
 30
0.0
 10
72.348181171098531
 20
106.14988415792396
 30
0.0
 10
72.536448998132528
 20
106.14988415792396
 30
0.0
  0
SPLINE
  5
78
102
{ACAD_REACTORS
330
31
102
}
100
AcDbEntity
  8
0
  6
CONTINUOUS
100
AcDbSpline
210
0.0
220
0.0
230
1.0
 70
     8
 71
     2
 72
     6
 73
     3
 74
     0
 42
0.0000001
 43
0.0000001
 40
0.0
 40
0.0
 40
0.0
 40
1.0
 40
1.0
 40
1.0
 10
72.536448998132528
 20
106.14988415792396
 30
0.0
 10
72.720623178163351
 20
106.14988415792396
 30
0.0
 10
72.88331107584554
 20
106.04244797780922
 30
0.0
  0
SPLINE
  5
79
102
{ACAD_REACTORS
330
31
102
}
100
AcDbEntity
  8
0
  6
CONTINUOUS
100
AcDbSpline
210
0.0
220
0.0
230
1.0
 70
     8
 71
     2
 72
     6
 73
     3
 74
     0
 42
0.0000001
 43
0.0000001
 40
0.0
 40
0.0
 40
0.0
 40
1.0
 40
1.0
 40
1.0
 10
72.88331107584554
 20
106.04244797780922
 30
0.0
 10
73.045998377481283
 20
105.93501179769447
 30
0.0
 10
73.135016126313985
 20
105.73242276266029
 30
0.0
  0
SPLINE
  5
7A
102
{ACAD_REACTORS
330
31
102
}
100
AcDbEntity
  8
0
  6
CONTINUOUS
100
AcDbSpline
210
0.0
220
0.0
230
1.0
 70
     8
 71
     2
 72
     6
 73
     3
 74
     0
 42
0.0000001
 43
0.0000001
 40
0.0
 40
0.0
 40
0.0
 40
1.0
 40
1.0
 40
1.0
 10
73.135016126313985
 20
105.73242276266029
 30
0.0
 10
73.224033875146688
 20
105.52982895925453
 30
0.0
 10
73.224033875146688
 20
105.27402966573646
 30
0.0
  0
SPLINE
  5
7B
102
{ACAD_REACTORS
330
31
102
}
100
AcDbEntity
  8
0
  6
CONTINUOUS
100
AcDbSpline
210
0.0
220
0.0
230
1.0
 70
     8
 71
     2
 72
     6
 73
     3
 74
     0
 42
0.0000001
 43
0.0000001
 40
0.0
 40
0.0
 40
0.0
 40
1.0
 40
1.0
 40
1.0
 10
73.224033875146674
 20
105.27402966573646
 30
0.0
 10
73.224033875146674
 20
104.85043137624672
 30
0.0
 10
73.048045200982855
 20
104.62839692190101
 30
0.0
  0
SPLINE
  5
7C
102
{ACAD_REACTORS
330
31
102
}
100
AcDbEntity
  8
0
  6
CONTINUOUS
100
AcDbSpline
210
0.0
220
0.0
230
1.0
 70
     8
 71
     2
 72
     6
 73
     3
 74
     0
 42
0.0000001
 43
0.0000001
 40
0.0
 40
0.0
 40
0.0
 40
1.0
 40
1.0
 40
1.0
 10
73.048045200982813
 20
104.62839692190101
 30
0.0
 10
72.872055930772547
 20
104.40636246755531
 30
0.0
 10
72.52621666876388
 20
104.34497206762245
 30
0.0
  0
LWPOLYLINE
  5
7D
102
{ACAD_REACTORS
330
31
102
}
100
AcDbEntity
  8
0
  6
CONTINUOUS
100
AcDbPolyline
 90
        5
 70
     0
 10
70.174921
 20
106.589857
 10
70.598522
 20
106.589857
 10
70.598522
 20
106.958204
 10
70.174921
 20
106.958204
 10
70.174921
 20
106.589857
  0
LWPOLYLINE
  5
7E
102
{ACAD_REACTORS
330
31
102
}
100
AcDbEntity
  8
0
  6
CONTINUOUS
100
AcDbPolyline
 90
        5
 70
     0
 10
71.00166
 20
106.589857
 10
73.174921
 20
106.589857
 10
73.174921
 20
106.958204
 10
71.00166
 20
106.958204
 10
71.00166
 20
106.589857
  0
LINE
  5
7F
102
{ACAD_REACTORS
330
31
102
}
100
AcDbEntity
  8
0
  6
CONTINUOUS
100
AcDbLine
 10
73.174921
 20
107.518912
 30
0.0
 11
71.00166
 21
107.518912
 31
0.0
  0
LINE
  5
80
102
{ACAD_REACTORS
330
31
102
}
100
AcDbEntity
  8
0
  6
CONTINUOUS
100
AcDbLine
 10
71.00166
 20
107.518912
 30
0.0
 11
71.00166
 21
107.850429
 31
0.0
  0
LINE
  5
81
102
{ACAD_REACTORS
330
31
102
}
100
AcDbEntity
  8
0
  6
CONTINUOUS
100
AcDbLine
 10
71.00166
 20
107.850429
 30
0.0
 11
71.310664
 21
107.850429
 31
0.0
  0
SPLINE
  5
82
102
{ACAD_REACTORS
330
31
102
}
100
AcDbEntity
  8
0
  6
CONTINUOUS
100
AcDbSpline
210
0.0
220
0.0
230
1.0
 70
     8
 71
     2
 72
     6
 73
     3
 74
     0
 42
0.0000001
 43
0.0000001
 40
0.0
 40
0.0
 40
0.0
 40
1.0
 40
1.0
 40
1.0
 10
71.310664279142259
 20
107.85042851522377
 30
0.0
 10
70.952547056356309
 20
108.08985798910072
 30
0.0
 10
70.952547056356309
 20
108.54210942342689
 30
0.0
  0
SPLINE
  5
83
102
{ACAD_REACTORS
330
31
102
}
100
AcDbEntity
  8
0
  6
CONTINUOUS
100
AcDbSpline
210
0.0
220
0.0
230
1.0
 70
     8
 71
     2
 72
     6
 73
     3
 74
     0
 42
0.0000001
 43
0.0000001
 40
0.0
 40
0.0
 40
0.0
 40
1.0
 40
1.0
 40
1.0
 10
70.952547056356309
 20
108.54210942342689
 30
0.0
 10
70.952547056356309
 20
108.738561564235
 30
0.0
 10
71.02314726797664
 20
108.90329449727943
 30
0.0
  0
SPLINE
  5
84
102
{ACAD_REACTORS
330
31
102
}
100
AcDbEntity
  8
0
  6
CONTINUOUS
100
AcDbSpline
210
0.0
220
0.0
230
1.0
 70
     8
 71
     2
 72
     6
 73
     3
 74
     0
 42
0.0000001
 43
0.0000001
 40
0.0
 40
0.0
 40
0.0
 40
1.0
 40
1.0
 40
1.0
 10
71.023147267976526
 20
108.90329449727943
 30
0.0
 10
71.093747479596857
 20
109.06802743032387
 30
0.0
 10
71.208345157781366
 20
109.1498860652726
 30
0.0
  0
SPLINE
  5
85
102
{ACAD_REACTORS
330
31
102
}
100
AcDbEntity
  8
0
  6
CONTINUOUS
100
AcDbSpline
210
0.0
220
0.0
230
1.0
 70
     8
 71
     2
 72
     6
 73
     3
 74
     0
 42
0.0000001
 43
0.0000001
 40
0.0
 40
0.0
 40
0.0
 40
1.0
 40
1.0
 40
1.0
 10
71.20834515778148
 20
109.1498860652726
 30
0.0
 10
71.322942537942765
 20
109.23173993184975
 30
0.0
 10
71.48051427094066
 20
109.26447957113197
 30
0.0
  0
SPLINE
  5
86
102
{ACAD_REACTORS
330
31
102
}
100
AcDbEntity
  8
0
  6
CONTINUOUS
100
AcDbSpline
210
0.0
220
0.0
230
1.0
 70
     8
 71
     2
 72
     6
 73
     3
 74
     0
 42
0.0000001
 43
0.0000001
 40
0.0
 40
0.0
 40
0.0
 40
1.0
 40
1.0
 40
1.0
 10
71.480514270940546
 20
109.26447957113197
 30
0.0
 10
71.582833690324549
 20
109.28494542196205
 30
0.0
 10
71.838631791749719
 20
109.28494542196205
 30
0.0
  0
LINE
  5
87
102
{ACAD_REACTORS
330
31
102
}
100
AcDbEntity
  8
0
  6
CONTINUOUS
100
AcDbLine
 10
71.838632
 20
109.284945
 30
0.0
 11
73.174921
 21
109.284945
 31
0.0
  0
LINE
  5
88
102
{ACAD_REACTORS
330
31
102
}
100
AcDbEntity
  8
0
  6
CONTINUOUS
100
AcDbLine
 10
73.174921
 20
109.284945
 30
0.0
 11
73.174921
 21
108.916598
 31
0.0
  0
LINE
  5
89
102
{ACAD_REACTORS
330
31
102
}
100
AcDbEntity
  8
0
  6
CONTINUOUS
100
AcDbLine
 10
73.174921
 20
108.916598
 30
0.0
 11
71.852956
 21
108.916598
 31
0.0
  0
SPLINE
  5
8A
102
{ACAD_REACTORS
330
31
102
}
100
AcDbEntity
  8
0
  6
CONTINUOUS
100
AcDbSpline
210
0.0
220
0.0
230
1.0
 70
     8
 71
     2
 72
     6
 73
     3
 74
     0
 42
0.0000001
 43
0.0000001
 40
0.0
 40
0.0
 40
0.0
 40
1.0
 40
1.0
 40
1.0
 10
71.852956278005365
 20
108.9165982539933
 30
0.0
 10
71.627853972593073
 20
108.9165982539933
 30
0.0
 10
71.516325933614496
 20
108.87362092092445
 30
0.0
  0
SPLINE
  5
8B
102
{ACAD_REACTORS
330
31
102
}
100
AcDbEntity
  8
0
  6
CONTINUOUS
100
AcDbSpline
210
0.0
220
0.0
230
1.0
 70
     8
 71
     2
 72
     6
 73
     3
 74
     0
 42
0.0000001
 43
0.0000001
 40
0.0
 40
0.0
 40
0.0
 40
1.0
 40
1.0
 40
1.0
 10
71.516325933614553
 20
108.87362092092445
 30
0.0
 10
71.4047981926592
 20
108.83064835622719
 30
0.0
 10
71.338290733972372
 20
108.72116654470375
 30
0.0
  0
SPLINE
  5
8C
102
{ACAD_REACTORS
330
31
102
}
100
AcDbEntity
  8
0
  6
CONTINUOUS
100
AcDbSpline
210
0.0
220
0.0
230
1.0
 70
     8
 71
     2
 72
     6
 73
     3
 74
     0
 42
0.0000001
 43
0.0000001
 40
0.0
 40
0.0
 40
0.0
 40
1.0
 40
1.0
 40
1.0
 10
71.338290733972372
 20
108.72116654470375
 30
0.0
 10
71.271782977262319
 20
108.61168473318031
 30
0.0
 10
71.271782977262319
 20
108.46434681966713
 30
0.0
  0
SPLINE
  5
8D
102
{ACAD_REACTORS
330
31
102
}
100
AcDbEntity
  8
0
  6
CONTINUOUS
100
AcDbSpline
210
0.0
220
0.0
230
1.0
 70
     8
 71
     2
 72
     6
 73
     3
 74
     0
 42
0.0000001
 43
0.0000001
 40
0.0
 40
0.0
 40
0.0
 40
1.0
 40
1.0
 40
1.0
 10
71.271782977262319
 20
108.46434681966713
 30
0.0
 10
71.271782977262319
 20
108.22900860860756
 30
0.0
 10
71.421169204393209
 20
108.05813878133705
 30
0.0
  0
SPLINE
  5
8E
102
{ACAD_REACTORS
330
31
102
}
100
AcDbEntity
  8
0
  6
CONTINUOUS
100
AcDbSpline
210
0.0
220
0.0
230
1.0
 70
     8
 71
     2
 72
     6
 73
     3
 74
     0
 42
0.0000001
 43
0.0000001
 40
0.0
 40
0.0
 40
0.0
 40
1.0
 40
1.0
 40
1.0
 10
71.421169204393266
 20
108.05813878133705
 30
0.0
 10
71.570555133500932
 20
107.88726418569496
 30
0.0
 10
71.988017720857499
 20
107.88726418569496
 30
0.0
  0
LINE
  5
8F
102
{ACAD_REACTORS
330
31
102
}
100
AcDbEntity
  8
0
  6
CONTINUOUS
100
AcDbLine
 10
71.988018
 20
107.887264
 30
0.0
 11
73.174921
 21
107.887264
 31
0.0
  0
LINE
  5
90
102
{ACAD_REACTORS
330
31
102
}
100
AcDbEntity
  8
0
  6
CONTINUOUS
100
AcDbLine
 10
73.174921
 20
107.887264
 30
0.0
 11
73.174921
 21
107.518912
 31
0.0
  0
LINE
  5
91
102
{ACAD_REACTORS
330
31
102
}
100
AcDbEntity
  8
0
  6
CONTINUOUS
100
AcDbLine
 10
73.355003
 20
109.78222
 30
0.0
 11
73.408209
 21
110.140334
 31
0.0
  0
SPLINE
  5
92
102
{ACAD_REACTORS
330
31
102
}
100
AcDbEntity
  8
0
  6
CONTINUOUS
100
AcDbSpline
210
0.0
220
0.0
230
1.0
 70
     8
 71
     2
 72
     6
 73
     3
 74
     0
 42
0.0000001
 43
0.0000001
 40
0.0
 40
0.0
 40
0.0
 40
1.0
 40
1.0
 40
1.0
 10
73.408208651223902
 20
110.14033406331947
 30
0.0
 10
73.573965592065576
 20
110.16284554555824
 30
0.0
 10
73.649681968370203
 20
110.26516526296547
 30
0.0
  0
SPLINE
  5
93
102
{ACAD_REACTORS
330
31
102
}
100
AcDbEntity
  8
0
  6
CONTINUOUS
100
AcDbSpline
210
0.0
220
0.0
230
1.0
 70
     8
 71
     2
 72
     6
 73
     3
 74
     0
 42
0.0000001
 43
0.0000001
 40
0.0
 40
0.0
 40
0.0
 40
1.0
 40
1.0
 40
1.0
 10
73.64968196837026
 20
110.26516526296547
 30
0.0
 10
73.752001089731039
 20
110.40227025106361
 30
0.0
 10
73.752001089731039
 20
110.63965409353187
 30
0.0
  0
SPLINE
  5
94
102
{ACAD_REACTORS
330
31
102
}
100
AcDbEntity
  8
0
  6
CONTINUOUS
100
AcDbSpline
210
0.0
220
0.0
230
1.0
 70
     8
 71
     2
 72
     6
 73
     3
 74
     0
 42
0.0000001
 43
0.0000001
 40
0.0
 40
0.0
 40
0.0
 40
1.0
 40
1.0
 40
1.0
 10
73.752001089731039
 20
110.63965409353187
 30
0.0
 10
73.752001089731039
 20
110.89545338704994
 30
0.0
 10
73.64968196837026
 20
111.03460400655678
 30
0.0
  0
SPLINE
  5
95
102
{ACAD_REACTORS
330
31
102
}
100
AcDbEntity
  8
0
  6
CONTINUOUS
100
AcDbSpline
210
0.0
220
0.0
230
1.0
 70
     8
 71
     2
 72
     6
 73
     3
 74
     0
 42
0.0000001
 43
0.0000001
 40
0.0
 40
0.0
 40
0.0
 40
1.0
 40
1.0
 40
1.0
 10
73.64968196837026
 20
111.03460400655678
 30
0.0
 10
73.547362847009481
 20
111.17375939443519
 30
0.0
 10
73.36318807093221
 20
111.22287362173012
 30
0.0
  0
SPLINE
  5
96
102
{ACAD_REACTORS
330
31
102
}
100
AcDbEntity
  8
0
  6
CONTINUOUS
100
AcDbSpline
210
0.0
220
0.0
230
1.0
 70
     8
 71
     2
 72
     6
 73
     3
 74
     0
 42
0.0000001
 43
0.0000001
 40
0.0
 40
0.0
 40
0.0
 40
1.0
 40
1.0
 40
1.0
 10
73.36318807093221
 20
111.22287362173012
 30
0.0
 10
73.250637216249288
 20
111.25152199819496
 30
0.0
 10
72.890473169961751
 20
111.24947636678627
 30
0.0
  0
SPLINE
  5
97
102
{ACAD_REACTORS
330
31
102
}
100
AcDbEntity
  8
0
  6
CONTINUOUS
100
AcDbSpline
210
0.0
220
0.0
230
1.0
 70
     8
 71
     2
 72
     6
 73
     3
 74
     0
 42
0.0000001
 43
0.0000001
 40
0.0
 40
0.0
 40
0.0
 40
1.0
 40
1.0
 40
1.0
 10
72.890473169961695
 20
111.24947636678627
 30
0.0
 10
73.174920839944605
 20
111.00800126150062
 30
0.0
 10
73.174920839944605
 20
110.64783661916664
 30
0.0
  0
SPLINE
  5
98
102
{ACAD_REACTORS
330
31
102
}
100
AcDbEntity
  8
0
  6
CONTINUOUS
100
AcDbSpline
210
0.0
220
0.0
230
1.0
 70
     8
 71
     2
 72
     6
 73
     3
 74
     0
 42
0.0000001
 43
0.0000001
 40
0.0
 40
0.0
 40
0.0
 40
1.0
 40
1.0
 40
1.0
 10
73.174920839944662
 20
110.64783661916664
 30
0.0
 10
73.174920839944662
 20
110.19968121602943
 30
0.0
 10
72.851591868081869
 20
109.95411484792641
 30
0.0
  0
SPLINE
  5
99
102
{ACAD_REACTORS
330
31
102
}
100
AcDbEntity
  8
0
  6
CONTINUOUS
100
AcDbSpline
210
0.0
220
0.0
230
1.0
 70
     8
 71
     2
 72
     6
 73
     3
 74
     0
 42
0.0000001
 43
0.0000001
 40
0.0
 40
0.0
 40
0.0
 40
1.0
 40
1.0
 40
1.0
 10
72.851591868081812
 20
109.95411484792641
 30
0.0
 10
72.528262896219019
 20
109.70854847982338
 30
0.0
 10
72.076012057939295
 20
109.70854847982338
 30
0.0
  0
SPLINE
  5
9A
102
{ACAD_REACTORS
330
31
102
}
100
AcDbEntity
  8
0
  6
CONTINUOUS
100
AcDbSpline
210
0.0
220
0.0
230
1.0
 70
     8
 71
     2
 72
     6
 73
     3
 74
     0
 42
0.0000001
 43
0.0000001
 40
0.0
 40
0.0
 40
0.0
 40
1.0
 40
1.0
 40
1.0
 10
72.076012057939352
 20
109.70854847982338
 30
0.0
 10
71.764961642900289
 20
109.70854847982338
 30
0.0
 10
71.502001447358907
 20
109.82110112264564
 30
0.0
  0
SPLINE
  5
9B
102
{ACAD_REACTORS
330
31
102
}
100
AcDbEntity
  8
0
  6
CONTINUOUS
100
AcDbSpline
210
0.0
220
0.0
230
1.0
 70
     8
 71
     2
 72
     6
 73
     3
 74
     0
 42
0.0000001
 43
0.0000001
 40
0.0
 40
0.0
 40
0.0
 40
1.0
 40
1.0
 40
1.0
 10
71.50200144735885
 20
109.82110112264564
 30
0.0
 10
71.239040655771021
 20
109.93364899709633
 30
0.0
 10
71.09579400507522
 20
110.14749615743568
 30
0.0
  0
SPLINE
  5
9C
102
{ACAD_REACTORS
330
31
102
}
100
AcDbEntity
  8
0
  6
CONTINUOUS
100
AcDbSpline
210
0.0
220
0.0
230
1.0
 70
     8
 71
     2
 72
     6
 73
     3
 74
     0
 42
0.0000001
 43
0.0000001
 40
0.0
 40
0.0
 40
0.0
 40
1.0
 40
1.0
 40
1.0
 10
71.095794005075277
 20
110.1474961574357
 30
0.0
 10
70.952546758333028
 20
110.36134331777505
 30
0.0
 10
70.952546758333028
 20
110.64988225057535
 30
0.0
  0
SPLINE
  5
9D
102
{ACAD_REACTORS
330
31
102
}
100
AcDbEntity
  8
0
  6
CONTINUOUS
100
AcDbSpline
210
0.0
220
0.0
230
1.0
 70
     8
 71
     2
 72
     6
 73
     3
 74
     0
 42
0.0000001
 43
0.0000001
 40
0.0
 40
0.0
 40
0.0
 40
1.0
 40
1.0
 40
1.0
 10
70.952546758333028
 20
110.64988225057535
 30
0.0
 10
70.952546758333028
 20
111.03460400655679
 30
0.0
 10
71.263597769418539
 20
111.28426640584878
 30
0.0
  0
LINE
  5
9E
102
{ACAD_REACTORS
330
31
102
}
100
AcDbEntity
  8
0
  6
CONTINUOUS
100
AcDbLine
 10
71.263598
 20
111.284266
 30
0.0
 11
71.00166
 21
111.284266
 31
0.0
  0
LINE
  5
9F
102
{ACAD_REACTORS
330
31
102
}
100
AcDbEntity
  8
0
  6
CONTINUOUS
100
AcDbLine
 10
71.00166
 20
111.284266
 30
0.0
 11
71.00166
 21
111.623965
 31
0.0
  0
LINE
  5
A0
102
{ACAD_REACTORS
330
31
102
}
100
AcDbEntity
  8
0
  6
CONTINUOUS
100
AcDbLine
 10
71.00166
 20
111.623965
 30
0.0
 11
72.880241
 21
111.623965
 31
0.0
  0
SPLINE
  5
A1
102
{ACAD_REACTORS
330
31
102
}
100
AcDbEntity
  8
0
  6
CONTINUOUS
100
AcDbSpline
210
0.0
220
0.0
230
1.0
 70
     8
 71
     2
 72
     6
 73
     3
 74
     0
 42
0.0000001
 43
0.0000001
 40
0.0
 40
0.0
 40
0.0
 40
1.0
 40
1.0
 40
1.0
 10
72.880241436639665
 20
111.62396519735267
 30
0.0
 10
73.387745184579728
 20
111.62396519735267
 30
0.0
 10
73.599545521417497
 20
111.52062028005531
 30
0.0
  0
SPLINE
  5
A2
102
{ACAD_REACTORS
330
31
102
}
100
AcDbEntity
  8
0
  6
CONTINUOUS
100
AcDbSpline
210
0.0
220
0.0
230
1.0
 70
     8
 71
     2
 72
     6
 73
     3
 74
     0
 42
0.0000001
 43
0.0000001
 40
0.0
 40
0.0
 40
0.0
 40
1.0
 40
1.0
 40
1.0
 10
73.599545521417383
 20
111.52062028005531
 30
0.0
 10
73.811346454301599
 20
111.41728013112953
 30
0.0
 10
73.934129638353113
 20
111.19320004537514
 30
0.0
  0
SPLINE
  5
A3
102
{ACAD_REACTORS
330
31
102
}
100
AcDbEntity
  8
0
  6
CONTINUOUS
100
AcDbSpline
210
0.0
220
0.0
230
1.0
 70
     8
 71
     2
 72
     6
 73
     3
 74
     0
 42
0.0000001
 43
0.0000001
 40
0.0
 40
0.0
 40
0.0
 40
1.0
 40
1.0
 40
1.0
 10
73.934129638353227
 20
111.19320004537514
 30
0.0
 10
74.05691282240474
 20
110.96911995962074
 30
0.0
 10
74.05691282240474
 20
110.64169972494057
 30
0.0
  0
SPLINE
  5
A4
102
{ACAD_REACTORS
330
31
102
}
100
AcDbEntity
  8
0
  6
CONTINUOUS
100
AcDbSpline
210
0.0
220
0.0
230
1.0
 70
     8
 71
     2
 72
     6
 73
     3
 74
     0
 42
0.0000001
 43
0.0000001
 40
0.0
 40
0.0
 40
0.0
 40
1.0
 40
1.0
 40
1.0
 10
74.056912822404684
 20
110.64169972494057
 30
0.0
 10
74.056912822404684
 20
110.25288670614174
 30
0.0
 10
73.881946963945211
 20
110.01345723226478
 30
0.0
  0
SPLINE
  5
A5
102
{ACAD_REACTORS
330
31
102
}
100
AcDbEntity
  8
0
  6
CONTINUOUS
100
AcDbSpline
210
0.0
220
0.0
230
1.0
 70
     8
 71
     2
 72
     6
 73
     3
 74
     0
 42
0.0000001
 43
0.0000001
 40
0.0
 40
0.0
 40
0.0
 40
1.0
 40
1.0
 40
1.0
 10
73.881946963945154
 20
110.01345723226478
 30
0.0
 10
73.706981105485681
 20
109.77403252675941
 30
0.0
 10
73.355002565065149
 20
109.78221982076576
 30
0.0
  0
SPLINE
  5
A6
102
{ACAD_REACTORS
330
31
102
}
100
AcDbEntity
  8
0
  6
CONTINUOUS
100
AcDbSpline
210
0.0
220
0.0
230
1.0
 70
     8
 71
     2
 72
     6
 73
     3
 74
     0
 42
0.0000001
 43
0.0000001
 40
0.0
 40
0.0
 40
0.0
 40
1.0
 40
1.0
 40
1.0
 10
72.049409312883199
 20
110.08712857320717
 30
0.0
 10
72.47710363356191
 20
110.08712857320717
 30
0.0
 10
72.673556370416463
 20
110.25697796895912
 30
0.0
  0
SPLINE
  5
A7
102
{ACAD_REACTORS
330
31
102
}
100
AcDbEntity
  8
0
  6
CONTINUOUS
100
AcDbSpline
210
0.0
220
0.0
230
1.0
 70
     8
 71
     2
 72
     6
 73
     3
 74
     0
 42
0.0000001
 43
0.0000001
 40
0.0
 40
0.0
 40
0.0
 40
1.0
 40
1.0
 40
1.0
 10
72.673556370416463
 20
110.25697796895912
 30
0.0
 10
72.870009703317464
 20
110.42682736471107
 30
0.0
 10
72.870009703317464
 20
110.68262665822914
 30
0.0
  0
SPLINE
  5
A8
102
{ACAD_REACTORS
330
31
102
}
100
AcDbEntity
  8
0
  6
CONTINUOUS
100
AcDbSpline
210
0.0
220
0.0
230
1.0
 70
     8
 71
     2
 72
     6
 73
     3
 74
     0
 42
0.0000001
 43
0.0000001
 40
0.0
 40
0.0
 40
0.0
 40
1.0
 40
1.0
 40
1.0
 10
72.870009703317464
 20
110.68262665822914
 30
0.0
 10
72.870009703317464
 20
110.93637555196693
 30
0.0
 10
72.674579782167257
 20
111.10827534749916
 30
0.0
  0
SPLINE
  5
A9
102
{ACAD_REACTORS
330
31
102
}
100
AcDbEntity
  8
0
  6
CONTINUOUS
100
AcDbSpline
210
0.0
220
0.0
230
1.0
 70
     8
 71
     2
 72
     6
 73
     3
 74
     0
 42
0.0000001
 43
0.0000001
 40
0.0
 40
0.0
 40
0.0
 40
1.0
 40
1.0
 40
1.0
 10
72.674579782167257
 20
111.10827534749916
 30
0.0
 10
72.479149861017049
 20
111.2801703746598
 30
0.0
 10
72.061687273660482
 20
111.2801703746598
 30
0.0
  0
SPLINE
  5
AA
102
{ACAD_REACTORS
330
31
102
}
100
AcDbEntity
  8
0
  6
CONTINUOUS
100
AcDbSpline
210
0.0
220
0.0
230
1.0
 70
     8
 71
     2
 72
     6
 73
     3
 74
     0
 42
0.0000001
 43
0.0000001
 40
0.0
 40
0.0
 40
0.0
 40
1.0
 40
1.0
 40
1.0
 10
72.061687273660425
 20
111.2801703746598
 30
0.0
 10
71.662642521539453
 20
111.2801703746598
 30
0.0
 10
71.460050506273035
 20
111.10315888479164
 30
0.0
  0
SPLINE
  5
AB
102
{ACAD_REACTORS
330
31
102
}
100
AcDbEntity
  8
0
  6
CONTINUOUS
100
AcDbSpline
210
0.0
220
0.0
230
1.0
 70
     8
 71
     2
 72
     6
 73
     3
 74
     0
 42
0.0000001
 43
0.0000001
 40
0.0
 40
0.0
 40
0.0
 40
1.0
 40
1.0
 40
1.0
 10
71.460050506273092
 20
111.10315888479164
 30
0.0
 10
71.257458491006673
 20
110.92614739492348
 30
0.0
 10
71.257458491006673
 20
110.67648976400307
 30
0.0
  0
SPLINE
  5
AC
102
{ACAD_REACTORS
330
31
102
}
100
AcDbEntity
  8
0
  6
CONTINUOUS
100
AcDbSpline
210
0.0
220
0.0
230
1.0
 70
     8
 71
     2
 72
     6
 73
     3
 74
     0
 42
0.0000001
 43
0.0000001
 40
0.0
 40
0.0
 40
0.0
 40
1.0
 40
1.0
 40
1.0
 10
71.25745849100673
 20
110.67648976400307
 30
0.0
 10
71.25745849100673
 20
110.43091862752846
 30
0.0
 10
71.456980867067216
 20
110.25902360036781
 30
0.0
  0
SPLINE
  5
AD
102
{ACAD_REACTORS
330
31
102
}
100
AcDbEntity
  8
0
  6
CONTINUOUS
100
AcDbSpline
210
0.0
220
0.0
230
1.0
 70
     8
 71
     2
 72
     6
 73
     3
 74
     0
 42
0.0000001
 43
0.0000001
 40
0.0
 40
0.0
 40
0.0
 40
1.0
 40
1.0
 40
1.0
 10
71.456980867067145
 20
110.25902360036781
 30
0.0
 10
71.656503243127631
 20
110.08712857320717
 30
0.0
 10
72.049409312883185
 20
110.08712857320717
 30
0.0
  0
LWPOLYLINE
  5
AE
102
{ACAD_REACTORS
330
31
102
}
100
AcDbEntity
  8
0
  6
CONTINUOUS
100
AcDbPolyline
 90
        5
 70
     0
 10
71.904116
 20
113.201724
 10
72.274512
 20
113.201724
 10
72.274512
 20
114.333373
 10
71.904116
 20
114.333373
 10
71.904116
 20
113.201724
  0
LINE
  5
AF
102
{ACAD_REACTORS
330
31
102
}
100
AcDbEntity
  8
0
  6
CONTINUOUS
100
AcDbLine
 10
72.845453
 20
116.709228
 30
0.0
 11
73.170828
 21
116.762439
 31
0.0
  0
SPLINE
  5
B0
102
{ACAD_REACTORS
330
31
102
}
100
AcDbEntity
  8
0
  6
CONTINUOUS
100
AcDbSpline
210
0.0
220
0.0
230
1.0
 70
     8
 71
     2
 72
     6
 73
     3
 74
     0
 42
0.0000001
 43
0.0000001
 40
0.0
 40
0.0
 40
0.0
 40
1.0
 40
1.0
 40
1.0
 10
73.170827788987935
 20
116.76243870809486
 30
0.0
 10
73.203570408502401
 20
116.60691350057533
 30
0.0
 10
73.203570408502401
 20
116.48412793233803
 30
0.0
  0
SPLINE
  5
B1
102
{ACAD_REACTORS
330
31
102
}
100
AcDbEntity
  8
0
  6
CONTINUOUS
100
AcDbSpline
210
0.0
220
0.0
230
1.0
 70
     8
 71
     2
 72
     6
 73
     3
 74
     0
 42
0.0000001
 43
0.0000001
 40
0.0
 40
0.0
 40
0.0
 40
1.0
 40
1.0
 40
1.0
 10
73.203570408502401
 20
116.48412793233801
 30
0.0
 10
73.203570408502401
 20
116.28357976034094
 30
0.0
 10
73.140132589021505
 20
116.17307751729895
 30
0.0
  0
SPLINE
  5
B2
102
{ACAD_REACTORS
330
31
102
}
100
AcDbEntity
  8
0
  6
CONTINUOUS
100
AcDbSpline
210
0.0
220
0.0
230
1.0
 70
     8
 71
     2
 72
     6
 73
     3
 74
     0
 42
0.0000001
 43
0.0000001
 40
0.0
 40
0.0
 40
0.0
 40
1.0
 40
1.0
 40
1.0
 10
73.140132589021505
 20
116.17307751729896
 30
0.0
 10
73.076694173494161
 20
116.06257050588539
 30
0.0
 10
72.973352236429037
 20
116.01755230977943
 30
0.0
  0
SPLINE
  5
B3
102
{ACAD_REACTORS
330
31
102
}
100
AcDbEntity
  8
0
  6
CONTINUOUS
100
AcDbSpline
210
0.0
220
0.0
230
1.0
 70
     8
 71
     2
 72
     6
 73
     3
 74
     0
 42
0.0000001
 43
0.0000001
 40
0.0
 40
0.0
 40
0.0
 40
1.0
 40
1.0
 40
1.0
 10
72.973352236429037
 20
116.01755230977943
 30
0.0
 10
72.870009703317464
 20
115.97252934530189
 30
0.0
 10
72.538495225587667
 20
115.97252934530189
 30
0.0
  0
LINE
  5
B4
102
{ACAD_REACTORS
330
31
102
}
100
AcDbEntity
  8
0
  6
CONTINUOUS
100
AcDbLine
 10
72.538495
 20
115.972529
 30
0.0
 11
71.288154
 21
115.972529
 31
0.0
  0
LINE
  5
B5
102
{ACAD_REACTORS
330
31
102
}
100
AcDbEntity
  8
0
  6
CONTINUOUS
100
AcDbLine
 10
71.288154
 20
115.972529
 30
0.0
 11
71.288154
 21
115.702411
 31
0.0
  0
LINE
  5
B6
102
{ACAD_REACTORS
330
31
102
}
100
AcDbEntity
  8
0
  6
CONTINUOUS
100
AcDbLine
 10
71.288154
 20
115.702411
 30
0.0
 11
71.00166
 21
115.702411
 31
0.0
  0
LINE
  5
B7
102
{ACAD_REACTORS
330
31
102
}
100
AcDbEntity
  8
0
  6
CONTINUOUS
100
AcDbLine
 10
71.00166
 20
115.702411
 30
0.0
 11
71.00166
 21
115.972529
 31
0.0
  0
LINE
  5
B8
102
{ACAD_REACTORS
330
31
102
}
100
AcDbEntity
  8
0
  6
CONTINUOUS
100
AcDbLine
 10
71.00166
 20
115.972529
 30
0.0
 11
70.463461
 21
115.972529
 31
0.0
  0
LINE
  5
B9
102
{ACAD_REACTORS
330
31
102
}
100
AcDbEntity
  8
0
  6
CONTINUOUS
100
AcDbLine
 10
70.463461
 20
115.972529
 30
0.0
 11
70.242451
 21
116.338836
 31
0.0
  0
LINE
  5
BA
102
{ACAD_REACTORS
330
31
102
}
100
AcDbEntity
  8
0
  6
CONTINUOUS
100
AcDbLine
 10
70.242451
 20
116.338836
 30
0.0
 11
71.00166
 21
116.338836
 31
0.0
  0
LINE
  5
BB
102
{ACAD_REACTORS
330
31
102
}
100
AcDbEntity
  8
0
  6
CONTINUOUS
100
AcDbLine
 10
71.00166
 20
116.338836
 30
0.0
 11
71.00166
 21
116.709228
 31
0.0
  0
LINE
  5
BC
102
{ACAD_REACTORS
330
31
102
}
100
AcDbEntity
  8
0
  6
CONTINUOUS
100
AcDbLine
 10
71.00166
 20
116.709228
 30
0.0
 11
71.288154
 21
116.709228
 31
0.0
  0
LINE
  5
BD
102
{ACAD_REACTORS
330
31
102
}
100
AcDbEntity
  8
0
  6
CONTINUOUS
100
AcDbLine
 10
71.288154
 20
116.709228
 30
0.0
 11
71.288154
 21
116.338836
 31
0.0
  0
LINE
  5
BE
102
{ACAD_REACTORS
330
31
102
}
100
AcDbEntity
  8
0
  6
CONTINUOUS
100
AcDbLine
 10
71.288154
 20
116.338836
 30
0.0
 11
72.558959
 21
116.338836
 31
0.0
  0
SPLINE
  5
BF
102
{ACAD_REACTORS
330
31
102
}
100
AcDbEntity
  8
0
  6
CONTINUOUS
100
AcDbSpline
210
0.0
220
0.0
230
1.0
 70
     8
 71
     2
 72
     6
 73
     3
 74
     0
 42
0.0000001
 43
0.0000001
 40
0.0
 40
0.0
 40
0.0
 40
1.0
 40
1.0
 40
1.0
 10
72.558959288278345
 20
116.33883565023353
 30
0.0
 10
72.716530723253015
 20
116.33883565023353
 30
0.0
 10
72.761551303544763
 20
116.35827630117348
 30
0.0
  0
SPLINE
  5
C0
102
{ACAD_REACTORS
330
31
102
}
100
AcDbEntity
  8
0
  6
CONTINUOUS
100
AcDbSpline
210
0.0
220
0.0
230
1.0
 70
     8
 71
     2
 72
     6
 73
     3
 74
     0
 42
0.0000001
 43
0.0000001
 40
0.0
 40
0.0
 40
0.0
 40
1.0
 40
1.0
 40
1.0
 10
72.76155130354482
 20
116.35827630117348
 30
0.0
 10
72.806571287790121
 20
116.37771695211342
 30
0.0
 10
72.833174628892721
 20
116.42170994832924
 30
0.0
  0
SPLINE
  5
C1
102
{ACAD_REACTORS
330
31
102
}
100
AcDbEntity
  8
0
  6
CONTINUOUS
100
AcDbSpline
210
0.0
220
0.0
230
1.0
 70
     8
 71
     2
 72
     6
 73
     3
 74
     0
 42
0.0000001
 43
0.0000001
 40
0.0
 40
0.0
 40
0.0
 40
1.0
 40
1.0
 40
1.0
 10
72.833174628892664
 20
116.42170994832924
 30
0.0
 10
72.859777373948816
 20
116.46571248128822
 30
0.0
 10
72.859777373948816
 20
116.54756634786537
 30
0.0
  0
SPLINE
  5
C2
102
{ACAD_REACTORS
330
31
102
}
100
AcDbEntity
  8
0
  6
CONTINUOUS
100
AcDbSpline
210
0.0
220
0.0
230
1.0
 70
     8
 71
     2
 72
     6
 73
     3
 74
     0
 42
0.0000001
 43
0.0000001
 40
0.0
 40
0.0
 40
0.0
 40
1.0
 40
1.0
 40
1.0
 10
72.859777373948873
 20
116.54756634786537
 30
0.0
 10
72.859777373948873
 20
116.60895436361244
 30
0.0
 10
72.845452589670003
 20
116.70922844961098
 30
0.0
  0
SPLINE
  5
C3
102
{ACAD_REACTORS
330
31
102
}
100
AcDbEntity
  8
0
  6
CONTINUOUS
100
AcDbSpline
210
0.0
220
0.0
230
1.0
 70
     8
 71
     2
 72
     6
 73
     3
 74
     0
 42
0.0000001
 43
0.0000001
 40
0.0
 40
0.0
 40
0.0
 40
1.0
 40
1.0
 40
1.0
 10
72.088290614763139
 20
116.93228333547523
 30
0.0
 10
71.484607023874162
 20
116.93228333547523
 30
0.0
 10
71.19402037350261
 20
117.26789086416176
 30
0.0
  0
SPLINE
  5
C4
102
{ACAD_REACTORS
330
31
102
}
100
AcDbEntity
  8
0
  6
CONTINUOUS
100
AcDbSpline
210
0.0
220
0.0
230
1.0
 70
     8
 71
     2
 72
     6
 73
     3
 74
     0
 42
0.0000001
 43
0.0000001
 40
0.0
 40
0.0
 40
0.0
 40
1.0
 40
1.0
 40
1.0
 10
71.194020373502497
 20
117.26789086416176
 30
0.0
 10
70.952546758332971
 20
117.54824727132728
 30
0.0
 10
70.952546758332971
 20
117.95138447835853
 30
0.0
  0
SPLINE
  5
C5
102
{ACAD_REACTORS
330
31
102
}
100
AcDbEntity
  8
0
  6
CONTINUOUS
100
AcDbSpline
210
0.0
220
0.0
230
1.0
 70
     8
 71
     2
 72
     6
 73
     3
 74
     0
 42
0.0000001
 43
0.0000001
 40
0.0
 40
0.0
 40
0.0
 40
1.0
 40
1.0
 40
1.0
 10
70.952546758333028
 20
117.95138447835855
 30
0.0
 10
70.952546758333028
 20
118.39954464986734
 30
0.0
 10
71.246203345933736
 20
118.68398755147868
 30
0.0
  0
SPLINE
  5
C6
102
{ACAD_REACTORS
330
31
102
}
100
AcDbEntity
  8
0
  6
CONTINUOUS
100
AcDbSpline
210
0.0
220
0.0
230
1.0
 70
     8
 71
     2
 72
     6
 73
     3
 74
     0
 42
0.0000001
 43
0.0000001
 40
0.0
 40
0.0
 40
0.0
 40
1.0
 40
1.0
 40
1.0
 10
71.246203345933736
 20
118.68398755147867
 30
0.0
 10
71.539859337487997
 20
118.96843522146158
 30
0.0
 10
72.057594818750204
 20
118.96843522146158
 30
0.0
  0
SPLINE
  5
C7
102
{ACAD_REACTORS
330
31
102
}
100
AcDbEntity
  8
0
  6
CONTINUOUS
100
AcDbSpline
210
0.0
220
0.0
230
1.0
 70
     8
 71
     2
 72
     6
 73
     3
 74
     0
 42
0.0000001
 43
0.0000001
 40
0.0
 40
0.0
 40
0.0
 40
1.0
 40
1.0
 40
1.0
 10
72.057594818750204
 20
118.96843522146158
 30
0.0
 10
72.47710363356191
 20
118.96843522146158
 30
0.0
 10
72.717554135003866
 20
118.84258359029702
 30
0.0
  0
SPLINE
  5
C8
102
{ACAD_REACTORS
330
31
102
}
100
AcDbEntity
  8
0
  6
CONTINUOUS
100
AcDbSpline
210
0.0
220
0.0
230
1.0
 70
     8
 71
     2
 72
     6
 73
     3
 74
     0
 42
0.0000001
 43
0.0000001
 40
0.0
 40
0.0
 40
0.0
 40
1.0
 40
1.0
 40
1.0
 10
72.717554135003866
 20
118.84258359029702
 30
0.0
 10
72.958004040399373
 20
118.71673195913247
 30
0.0
 10
73.091018957773031
 20
118.47627728536538
 30
0.0
  0
SPLINE
  5
C9
102
{ACAD_REACTORS
330
31
102
}
100
AcDbEntity
  8
0
  6
CONTINUOUS
100
AcDbSpline
210
0.0
220
0.0
230
1.0
 70
     8
 71
     2
 72
     6
 73
     3
 74
     0
 42
0.0000001
 43
0.0000001
 40
0.0
 40
0.0
 40
0.0
 40
1.0
 40
1.0
 40
1.0
 10
73.091018957773031
 20
118.4762772853654
 30
0.0
 10
73.224033875146688
 20
118.23582737996988
 30
0.0
 10
73.224033875146688
 20
117.95138447835855
 30
0.0
  0
SPLINE
  5
CA
102
{ACAD_REACTORS
330
31
102
}
100
AcDbEntity
  8
0
  6
CONTINUOUS
100
AcDbSpline
210
0.0
220
0.0
230
1.0
 70
     8
 71
     2
 72
     6
 73
     3
 74
     0
 42
0.0000001
 43
0.0000001
 40
0.0
 40
0.0
 40
0.0
 40
1.0
 40
1.0
 40
1.0
 10
73.224033875146688
 20
117.95138447835853
 30
0.0
 10
73.224033875146688
 20
117.49504178121498
 30
0.0
 10
72.931401295343221
 20
117.21366017415932
 30
0.0
  0
SPLINE
  5
CB
102
{ACAD_REACTORS
330
31
102
}
100
AcDbEntity
  8
0
  6
CONTINUOUS
100
AcDbSpline
210
0.0
220
0.0
230
1.0
 70
     8
 71
     2
 72
     6
 73
     3
 74
     0
 42
0.0000001
 43
0.0000001
 40
0.0
 40
0.0
 40
0.0
 40
1.0
 40
1.0
 40
1.0
 10
72.931401295343221
 20
117.21366017415932
 30
0.0
 10
72.638768119493307
 20
116.93228333547523
 30
0.0
 10
72.088290614763082
 20
116.93228333547523
 30
0.0
  0
SPLINE
  5
CC
102
{ACAD_REACTORS
330
31
102
}
100
AcDbEntity
  8
0
  6
CONTINUOUS
100
AcDbSpline
210
0.0
220
0.0
230
1.0
 70
     8
 71
     2
 72
     6
 73
     3
 74
     0
 42
0.0000001
 43
0.0000001
 40
0.0
 40
0.0
 40
0.0
 40
1.0
 40
1.0
 40
1.0
 10
72.088290614763025
 20
117.31086342885901
 30
0.0
 10
72.505753202119593
 20
117.31086342885901
 30
0.0
 10
72.713461084047083
 20
117.49299138143469
 30
0.0
  0
SPLINE
  5
CD
102
{ACAD_REACTORS
330
31
102
}
100
AcDbEntity
  8
0
  6
CONTINUOUS
100
AcDbSpline
210
0.0
220
0.0
230
1.0
 70
     8
 71
     2
 72
     6
 73
     3
 74
     0
 42
0.0000001
 43
0.0000001
 40
0.0
 40
0.0
 40
0.0
 40
1.0
 40
1.0
 40
1.0
 10
72.71346108404714
 20
117.49299138143471
 30
0.0
 10
72.92116896597463
 20
117.67512410238197
 30
0.0
 10
72.92116896597463
 20
117.95138447835853
 30
0.0
  0
SPLINE
  5
CE
102
{ACAD_REACTORS
330
31
102
}
100
AcDbEntity
  8
0
  6
CONTINUOUS
100
AcDbSpline
210
0.0
220
0.0
230
1.0
 70
     8
 71
     2
 72
     6
 73
     3
 74
     0
 42
0.0000001
 43
0.0000001
 40
0.0
 40
0.0
 40
0.0
 40
1.0
 40
1.0
 40
1.0
 10
72.921168965974573
 20
117.95138447835853
 30
0.0
 10
72.921168965974573
 20
118.22559922292641
 30
0.0
 10
72.712437672296289
 20
118.40772717550209
 30
0.0
  0
SPLINE
  5
CF
102
{ACAD_REACTORS
330
31
102
}
100
AcDbEntity
  8
0
  6
CONTINUOUS
100
AcDbSpline
210
0.0
220
0.0
230
1.0
 70
     8
 71
     2
 72
     6
 73
     3
 74
     0
 42
0.0000001
 43
0.0000001
 40
0.0
 40
0.0
 40
0.0
 40
1.0
 40
1.0
 40
1.0
 10
72.712437672296346
 20
118.4077271755021
 30
0.0
 10
72.50370697466451
 20
118.5898551280778
 30
0.0
 10
72.076012057939352
 20
118.5898551280778
 30
0.0
  0
SPLINE
  5
D0
102
{ACAD_REACTORS
330
31
102
}
100
AcDbEntity
  8
0
  6
CONTINUOUS
100
AcDbSpline
210
0.0
220
0.0
230
1.0
 70
     8
 71
     2
 72
     6
 73
     3
 74
     0
 42
0.0000001
 43
0.0000001
 40
0.0
 40
0.0
 40
0.0
 40
1.0
 40
1.0
 40
1.0
 10
72.076012057939352
 20
118.5898551280778
 30
0.0
 10
71.672874254861654
 20
118.5898551280778
 30
0.0
 10
71.465166372934164
 20
118.40670674398355
 30
0.0
  0
SPLINE
  5
D1
102
{ACAD_REACTORS
330
31
102
}
100
AcDbEntity
  8
0
  6
CONTINUOUS
100
AcDbSpline
210
0.0
220
0.0
230
1.0
 70
     8
 71
     2
 72
     6
 73
     3
 74
     0
 42
0.0000001
 43
0.0000001
 40
0.0
 40
0.0
 40
0.0
 40
1.0
 40
1.0
 40
1.0
 10
71.46516637293422
 20
118.40670674398353
 30
0.0
 10
71.25745849100673
 20
118.22355359151771
 30
0.0
 10
71.25745849100673
 20
117.95138447835853
 30
0.0
  0
SPLINE
  5
D2
102
{ACAD_REACTORS
330
31
102
}
100
AcDbEntity
  8
0
  6
CONTINUOUS
100
AcDbSpline
210
0.0
220
0.0
230
1.0
 70
     8
 71
     2
 72
     6
 73
     3
 74
     0
 42
0.0000001
 43
0.0000001
 40
0.0
 40
0.0
 40
0.0
 40
1.0
 40
1.0
 40
1.0
 10
71.257458491006716
 20
117.95138447835853
 30
0.0
 10
71.257458491006716
 20
117.67512410238197
 30
0.0
 10
71.464142961183413
 20
117.49299138143471
 30
0.0
  0
SPLINE
  5
D3
102
{ACAD_REACTORS
330
31
102
}
100
AcDbEntity
  8
0
  6
CONTINUOUS
100
AcDbSpline
210
0.0
220
0.0
230
1.0
 70
     8
 71
     2
 72
     6
 73
     3
 74
     0
 42
0.0000001
 43
0.0000001
 40
0.0
 40
0.0
 40
0.0
 40
1.0
 40
1.0
 40
1.0
 10
71.464142961183427
 20
117.49299138143469
 30
0.0
 10
71.670828027406571
 20
117.31086342885901
 30
0.0
 10
72.088290614763139
 20
117.31086342885901
 30
0.0
  0
LINE
  5
D4
102
{ACAD_REACTORS
330
31
102
}
100
AcDbEntity
  8
0
  6
CONTINUOUS
100
AcDbLine
 10
74.007799
 20
119.400226
 30
0.0
 11
71.00166
 21
119.400226
 31
0.0
  0
LINE
  5
D5
102
{ACAD_REACTORS
330
31
102
}
100
AcDbEntity
  8
0
  6
CONTINUOUS
100
AcDbLine
 10
71.00166
 20
119.400226
 30
0.0
 11
71.00166
 21
119.735833
 31
0.0
  0
LINE
  5
D6
102
{ACAD_REACTORS
330
31
102
}
100
AcDbEntity
  8
0
  6
CONTINUOUS
100
AcDbLine
 10
71.00166
 20
119.735833
 30
0.0
 11
71.284061
 21
119.735833
 31
0.0
  0
SPLINE
  5
D7
102
{ACAD_REACTORS
330
31
102
}
100
AcDbEntity
  8
0
  6
CONTINUOUS
100
AcDbSpline
210
0.0
220
0.0
230
1.0
 70
     8
 71
     2
 72
     6
 73
     3
 74
     0
 42
0.0000001
 43
0.0000001
 40
0.0
 40
0.0
 40
0.0
 40
1.0
 40
1.0
 40
1.0
 10
71.284061236062826
 20
119.73583310201577
 30
0.0
 10
71.118304295221151
 20
119.85452263906411
 30
0.0
 10
71.03542552677709
 20
120.00391095235757
 30
0.0
  0
SPLINE
  5
D8
102
{ACAD_REACTORS
330
31
102
}
100
AcDbEntity
  8
0
  6
CONTINUOUS
100
AcDbSpline
210
0.0
220
0.0
230
1.0
 70
     8
 71
     2
 72
     6
 73
     3
 74
     0
 42
0.0000001
 43
0.0000001
 40
0.0
 40
0.0
 40
0.0
 40
1.0
 40
1.0
 40
1.0
 10
71.03542552677709
 20
120.00391095235757
 30
0.0
 10
70.952547056356252
 20
120.15329449727945
 30
0.0
 10
70.952547056356252
 20
120.36611645772867
 30
0.0
  0
SPLINE
  5
D9
102
{ACAD_REACTORS
330
31
102
}
100
AcDbEntity
  8
0
  6
CONTINUOUS
100
AcDbSpline
210
0.0
220
0.0
230
1.0
 70
     8
 71
     2
 72
     6
 73
     3
 74
     0
 42
0.0000001
 43
0.0000001
 40
0.0
 40
0.0
 40
0.0
 40
1.0
 40
1.0
 40
1.0
 10
70.952547056356252
 20
120.36611645772867
 30
0.0
 10
70.952547056356252
 20
120.6444272334855
 30
0.0
 10
71.095794005075277
 20
120.85724919393472
 30
0.0
  0
SPLINE
  5
DA
102
{ACAD_REACTORS
330
31
102
}
100
AcDbEntity
  8
0
  6
CONTINUOUS
100
AcDbSpline
210
0.0
220
0.0
230
1.0
 70
     8
 71
     2
 72
     6
 73
     3
 74
     0
 42
0.0000001
 43
0.0000001
 40
0.0
 40
0.0
 40
0.0
 40
1.0
 40
1.0
 40
1.0
 10
71.09579400507522
 20
120.85724919393472
 30
0.0
 10
71.239040953794245
 20
121.07007592275552
 30
0.0
 10
71.499954921880487
 20
121.17853253438882
 30
0.0
  0
SPLINE
  5
DB
102
{ACAD_REACTORS
330
31
102
}
100
AcDbEntity
  8
0
  6
CONTINUOUS
100
AcDbSpline
210
0.0
220
0.0
230
1.0
 70
     8
 71
     2
 72
     6
 73
     3
 74
     0
 42
0.0000001
 43
0.0000001
 40
0.0
 40
0.0
 40
0.0
 40
1.0
 40
1.0
 40
1.0
 10
71.499954921880487
 20
121.17853253438882
 30
0.0
 10
71.76086888996673
 20
121.2869939143937
 30
0.0
 10
72.071919603029016
 20
121.2869939143937
 30
0.0
  0
SPLINE
  5
DC
102
{ACAD_REACTORS
330
31
102
}
100
AcDbEntity
  8
0
  6
CONTINUOUS
100
AcDbSpline
210
0.0
220
0.0
230
1.0
 70
     8
 71
     2
 72
     6
 73
     3
 74
     0
 42
0.0000001
 43
0.0000001
 40
0.0
 40
0.0
 40
0.0
 40
1.0
 40
1.0
 40
1.0
 10
72.071919603029016
 20
121.2869939143937
 30
0.0
 10
72.405480308213953
 20
121.2869939143937
 30
0.0
 10
72.672533554712061
 20
121.16727917745523
 30
0.0
  0
SPLINE
  5
DD
102
{ACAD_REACTORS
330
31
102
}
100
AcDbEntity
  8
0
  6
CONTINUOUS
100
AcDbSpline
210
0.0
220
0.0
230
1.0
 70
     8
 71
     2
 72
     6
 73
     3
 74
     0
 42
0.0000001
 43
0.0000001
 40
0.0
 40
0.0
 40
0.0
 40
1.0
 40
1.0
 40
1.0
 10
72.672533554712118
 20
121.16727917745523
 30
0.0
 10
72.939586801210226
 20
121.04756444051675
 30
0.0
 10
73.081810040155233
 20
120.81939309194497
 30
0.0
  0
SPLINE
  5
DE
102
{ACAD_REACTORS
330
31
102
}
100
AcDbEntity
  8
0
  6
CONTINUOUS
100
AcDbSpline
210
0.0
220
0.0
230
1.0
 70
     8
 71
     2
 72
     6
 73
     3
 74
     0
 42
0.0000001
 43
0.0000001
 40
0.0
 40
0.0
 40
0.0
 40
1.0
 40
1.0
 40
1.0
 10
73.081810040155233
 20
120.81939309194497
 30
0.0
 10
73.224033875146688
 20
120.5912217433732
 30
0.0
 10
73.224033875146688
 20
120.3395184810441
 30
0.0
  0
SPLINE
  5
DF
102
{ACAD_REACTORS
330
31
102
}
100
AcDbEntity
  8
0
  6
CONTINUOUS
100
AcDbSpline
210
0.0
220
0.0
230
1.0
 70
     8
 71
     2
 72
     6
 73
     3
 74
     0
 42
0.0000001
 43
0.0000001
 40
0.0
 40
0.0
 40
0.0
 40
1.0
 40
1.0
 40
1.0
 10
73.224033875146631
 20
120.3395184810441
 30
0.0
 10
73.224033875146631
 20
120.15534489705972
 30
0.0
 10
73.146271271386865
 20
120.00902264669351
 30
0.0
  0
SPLINE
  5
E0
102
{ACAD_REACTORS
330
31
102
}
100
AcDbEntity
  8
0
  6
CONTINUOUS
100
AcDbSpline
210
0.0
220
0.0
230
1.0
 70
     8
 71
     2
 72
     6
 73
     3
 74
     0
 42
0.0000001
 43
0.0000001
 40
0.0
 40
0.0
 40
0.0
 40
1.0
 40
1.0
 40
1.0
 10
73.146271271386922
 20
120.00902264669351
 30
0.0
 10
73.068508667627157
 20
119.86270993307046
 30
0.0
 10
72.949818534532369
 20
119.768572741298
 30
0.0
  0
LINE
  5
E1
102
{ACAD_REACTORS
330
31
102
}
100
AcDbEntity
  8
0
  6
CONTINUOUS
100
AcDbLine
 10
72.949819
 20
119.768573
 30
0.0
 11
74.007799
 21
119.768573
 31
0.0
  0
LINE
  5
E2
102
{ACAD_REACTORS
330
31
102
}
100
AcDbEntity
  8
0
  6
CONTINUOUS
100
AcDbLine
 10
74.007799
 20
119.768573
 30
0.0
 11
74.007799
 21
119.400226
 31
0.0
  0
SPLINE
  5
E3
102
{ACAD_REACTORS
330
31
102
}
100
AcDbEntity
  8
0
  6
CONTINUOUS
100
AcDbSpline
210
0.0
220
0.0
230
1.0
 70
     8
 71
     2
 72
     6
 73
     3
 74
     0
 42
0.0000001
 43
0.0000001
 40
0.0
 40
0.0
 40
0.0
 40
1.0
 40
1.0
 40
1.0
 10
72.100568575540365
 20
119.73378747060708
 30
0.0
 10
72.520077986398519
 20
119.73378747060708
 30
0.0
 10
72.720623178163351
 20
119.90363686635904
 30
0.0
  0
SPLINE
  5
E4
102
{ACAD_REACTORS
330
31
102
}
100
AcDbEntity
  8
0
  6
CONTINUOUS
100
AcDbSpline
210
0.0
220
0.0
230
1.0
 70
     8
 71
     2
 72
     6
 73
     3
 74
     0
 42
0.0000001
 43
0.0000001
 40
0.0
 40
0.0
 40
0.0
 40
1.0
 40
1.0
 40
1.0
 10
72.720623178163294
 20
119.90363686635904
 30
0.0
 10
72.921168965974573
 20
120.07348626211099
 30
0.0
 10
72.921168965974573
 20
120.31496136739663
 30
0.0
  0
SPLINE
  5
E5
102
{ACAD_REACTORS
330
31
102
}
100
AcDbEntity
  8
0
  6
CONTINUOUS
100
AcDbSpline
210
0.0
220
0.0
230
1.0
 70
     8
 71
     2
 72
     6
 73
     3
 74
     0
 42
0.0000001
 43
0.0000001
 40
0.0
 40
0.0
 40
0.0
 40
1.0
 40
1.0
 40
1.0
 10
72.92116896597463
 20
120.31496136739663
 30
0.0
 10
72.92116896597463
 20
120.56052296712808
 30
0.0
 10
72.71346108404714
 20
120.73549359395913
 30
0.0
  0
SPLINE
  5
E6
102
{ACAD_REACTORS
330
31
102
}
100
AcDbEntity
  8
0
  6
CONTINUOUS
100
AcDbSpline
210
0.0
220
0.0
230
1.0
 70
     8
 71
     2
 72
     6
 73
     3
 74
     0
 42
0.0000001
 43
0.0000001
 40
0.0
 40
0.0
 40
0.0
 40
1.0
 40
1.0
 40
1.0
 10
72.713461084047196
 20
120.73549359395913
 30
0.0
 10
72.505753202119706
 20
120.91045468404702
 30
0.0
 10
72.069872779527543
 20
120.91045468404702
 30
0.0
  0
SPLINE
  5
E7
102
{ACAD_REACTORS
330
31
102
}
100
AcDbEntity
  8
0
  6
CONTINUOUS
100
AcDbSpline
210
0.0
220
0.0
230
1.0
 70
     8
 71
     2
 72
     6
 73
     3
 74
     0
 42
0.0000001
 43
0.0000001
 40
0.0
 40
0.0
 40
0.0
 40
1.0
 40
1.0
 40
1.0
 10
72.069872779527486
 20
120.91045468404702
 30
0.0
 10
71.654457015672506
 20
120.91045468404702
 30
0.0
 10
71.447772247472585
 20
120.73958485677652
 30
0.0
  0
SPLINE
  5
E8
102
{ACAD_REACTORS
330
31
102
}
100
AcDbEntity
  8
0
  6
CONTINUOUS
100
AcDbSpline
210
0.0
220
0.0
230
1.0
 70
     8
 71
     2
 72
     6
 73
     3
 74
     0
 42
0.0000001
 43
0.0000001
 40
0.0
 40
0.0
 40
0.0
 40
1.0
 40
1.0
 40
1.0
 10
71.447772247472642
 20
120.73958485677652
 30
0.0
 10
71.241087181249497
 20
120.56871026113443
 30
0.0
 10
71.241087181249497
 20
120.33133118703775
 30
0.0
  0
SPLINE
  5
E9
102
{ACAD_REACTORS
330
31
102
}
100
AcDbEntity
  8
0
  6
CONTINUOUS
100
AcDbSpline
210
0.0
220
0.0
230
1.0
 70
     8
 71
     2
 72
     6
 73
     3
 74
     0
 42
0.0000001
 43
0.0000001
 40
0.0
 40
0.0
 40
0.0
 40
1.0
 40
1.0
 40
1.0
 10
71.241087181249441
 20
120.33133118703775
 30
0.0
 10
71.241087181249441
 20
120.09599774434976
 30
0.0
 10
71.461073620000661
 20
119.91489022329263
 30
0.0
  0
SPLINE
  5
EA
102
{ACAD_REACTORS
330
31
102
}
100
AcDbEntity
  8
0
  6
CONTINUOUS
100
AcDbSpline
210
0.0
220
0.0
230
1.0
 70
     8
 71
     2
 72
     6
 73
     3
 74
     0
 42
0.0000001
 43
0.0000001
 40
0.0
 40
0.0
 40
0.0
 40
1.0
 40
1.0
 40
1.0
 10
71.461073620000718
 20
119.91489022329262
 30
0.0
 10
71.681060058751939
 20
119.73378747060707
 30
0.0
 10
72.100568575540422
 20
119.73378747060707
 30
0.0
  0
LWPOLYLINE
  5
EB
102
{ACAD_REACTORS
330
31
102
}
100
AcDbEntity
  8
0
  6
CONTINUOUS
100
AcDbPolyline
 90
        9
 70
     0
 10
75.211074
 20
95.63556
 10
77.857049
 20
95.63556
 10
77.857049
 20
96.032558
 10
75.211074
 20
96.032558
 10
75.211074
 20
97.025054
 10
74.857049
 20
97.025054
 10
74.857049
 20
94.647156
 10
75.211074
 20
94.647156
 10
75.211074
 20
95.63556
  0
LINE
  5
EC
102
{ACAD_REACTORS
330
31
102
}
100
AcDbEntity
  8
0
  6
CONTINUOUS
100
AcDbLine
 10
77.857049
 20
97.385219
 30
0.0
 11
74.857049
 21
97.385219
 31
0.0
  0
LINE
  5
ED
102
{ACAD_REACTORS
330
31
102
}
100
AcDbEntity
  8
0
  6
CONTINUOUS
100
AcDbLine
 10
74.857049
 20
97.385219
 30
0.0
 11
74.857049
 21
97.753569
 31
0.0
  0
LINE
  5
EE
102
{ACAD_REACTORS
330
31
102
}
100
AcDbEntity
  8
0
  6
CONTINUOUS
100
AcDbLine
 10
74.857049
 20
97.753569
 30
0.0
 11
75.933448
 21
97.753569
 31
0.0
  0
SPLINE
  5
EF
102
{ACAD_REACTORS
330
31
102
}
100
AcDbEntity
  8
0
  6
CONTINUOUS
100
AcDbSpline
210
0.0
220
0.0
230
1.0
 70
     8
 71
     2
 72
     6
 73
     3
 74
     0
 42
0.0000001
 43
0.0000001
 40
0.0
 40
0.0
 40
0.0
 40
1.0
 40
1.0
 40
1.0
 10
75.93344764200765
 20
97.753568583277982
 30
0.0
 10
75.634675783792318
 20
98.01141350820474
 30
0.0
 10
75.634675783792318
 20
98.404317789820951
 30
0.0
  0
SPLINE
  5
F0
102
{ACAD_REACTORS
330
31
102
}
100
AcDbEntity
  8
0
  6
CONTINUOUS
100
AcDbSpline
210
0.0
220
0.0
230
1.0
 70
     8
 71
     2
 72
     6
 73
     3
 74
     0
 42
0.0000001
 43
0.0000001
 40
0.0
 40
0.0
 40
0.0
 40
1.0
 40
1.0
 40
1.0
 10
75.634675783792318
 20
98.404317789820965
 30
0.0
 10
75.634675783792318
 20
98.645792895106609
 30
0.0
 10
75.729832214990438
 20
98.823827200679119
 30
0.0
  0
SPLINE
  5
F1
102
{ACAD_REACTORS
330
31
102
}
100
AcDbEntity
  8
0
  6
CONTINUOUS
100
AcDbSpline
210
0.0
220
0.0
230
1.0
 70
     8
 71
     2
 72
     6
 73
     3
 74
     0
 42
0.0000001
 43
0.0000001
 40
0.0
 40
0.0
 40
0.0
 40
1.0
 40
1.0
 40
1.0
 10
75.729832214990438
 20
98.823827200679105
 30
0.0
 10
75.824989242235006
 20
99.001861506251615
 30
0.0
 10
75.99279241053182
 20
99.078601294307035
 30
0.0
  0
SPLINE
  5
F2
102
{ACAD_REACTORS
330
31
102
}
100
AcDbEntity
  8
0
  6
CONTINUOUS
100
AcDbSpline
210
0.0
220
0.0
230
1.0
 70
     8
 71
     2
 72
     6
 73
     3
 74
     0
 42
0.0000001
 43
0.0000001
 40
0.0
 40
0.0
 40
0.0
 40
1.0
 40
1.0
 40
1.0
 10
75.992792410531763
 20
99.07860129430702
 30
0.0
 10
76.160596174875025
 20
99.15534108236244
 30
0.0
 10
76.479832691827539
 20
99.15534108236244
 30
0.0
  0
LINE
  5
F3
102
{ACAD_REACTORS
330
31
102
}
100
AcDbEntity
  8
0
  6
CONTINUOUS
100
AcDbLine
 10
76.479833
 20
99.155341
 30
0.0
 11
77.857049
 21
99.155341
 31
0.0
  0
LINE
  5
F4
102
{ACAD_REACTORS
330
31
102
}
100
AcDbEntity
  8
0
  6
CONTINUOUS
100
AcDbLine
 10
77.857049
 20
99.155341
 30
0.0
 11
77.857049
 21
98.786992
 31
0.0
  0
LINE
  5
F5
102
{ACAD_REACTORS
330
31
102
}
100
AcDbEntity
  8
0
  6
CONTINUOUS
100
AcDbLine
 10
77.857049
 20
98.786992
 30
0.0
 11
76.479833
 21
98.786992
 31
0.0
  0
SPLINE
  5
F6
102
{ACAD_REACTORS
330
31
102
}
100
AcDbEntity
  8
0
  6
CONTINUOUS
100
AcDbSpline
210
0.0
220
0.0
230
1.0
 70
     8
 71
     2
 72
     6
 73
     3
 74
     0
 42
0.0000001
 43
0.0000001
 40
0.0
 40
0.0
 40
0.0
 40
1.0
 40
1.0
 40
1.0
 10
76.479832691827653
 20
98.786991530207914
 30
0.0
 10
76.203570527711747
 20
98.786991530207914
 30
0.0
 10
76.077717704454301
 20
98.667279177455228
 30
0.0
  0
SPLINE
  5
F7
102
{ACAD_REACTORS
330
31
102
}
100
AcDbEntity
  8
0
  6
CONTINUOUS
100
AcDbSpline
210
0.0
220
0.0
230
1.0
 70
     8
 71
     2
 72
     6
 73
     3
 74
     0
 42
0.0000001
 43
0.0000001
 40
0.0
 40
0.0
 40
0.0
 40
1.0
 40
1.0
 40
1.0
 10
76.077717704454287
 20
98.667279177455228
 30
0.0
 10
75.95186488119684
 20
98.547564440516751
 30
0.0
 10
75.95186488119684
 20
98.328600817469876
 30
0.0
  0
SPLINE
  5
F8
102
{ACAD_REACTORS
330
31
102
}
100
AcDbEntity
  8
0
  6
CONTINUOUS
100
AcDbSpline
210
0.0
220
0.0
230
1.0
 70
     8
 71
     2
 72
     6
 73
     3
 74
     0
 42
0.0000001
 43
0.0000001
 40
0.0
 40
0.0
 40
0.0
 40
1.0
 40
1.0
 40
1.0
 10
75.951864881196741
 20
98.328600817469891
 30
0.0
 10
75.951864881196741
 20
98.164890700129803
 30
0.0
 10
76.036790175119165
 20
98.020621233729656
 30
0.0
  0
SPLINE
  5
F9
102
{ACAD_REACTORS
330
31
102
}
100
AcDbEntity
  8
0
  6
CONTINUOUS
100
AcDbSpline
210
0.0
220
0.0
230
1.0
 70
     8
 71
     2
 72
     6
 73
     3
 74
     0
 42
0.0000001
 43
0.0000001
 40
0.0
 40
0.0
 40
0.0
 40
1.0
 40
1.0
 40
1.0
 10
76.036790175119165
 20
98.020621233729642
 30
0.0
 10
76.121714872995142
 20
97.876351767329496
 30
0.0
 10
76.26700834719253
 20
97.814958983210843
 30
0.0
  0
SPLINE
  5
FA
102
{ACAD_REACTORS
330
31
102
}
100
AcDbEntity
  8
0
  6
CONTINUOUS
100
AcDbSpline
210
0.0
220
0.0
230
1.0
 70
     8
 71
     2
 72
     6
 73
     3
 74
     0
 42
0.0000001
 43
0.0000001
 40
0.0
 40
0.0
 40
0.0
 40
1.0
 40
1.0
 40
1.0
 10
76.267008347192586
 20
97.814958983210843
 30
0.0
 10
76.412301821389974
 20
97.753568583277982
 30
0.0
 10
76.668099922815145
 20
97.753568583277982
 30
0.0
  0
LINE
  5
FB
102
{ACAD_REACTORS
330
31
102
}
100
AcDbEntity
  8
0
  6
CONTINUOUS
100
AcDbLine
 10
76.6681
 20
97.753569
 30
0.0
 11
77.857049
 21
97.753569
 31
0.0
  0
LINE
  5
FC
102
{ACAD_REACTORS
330
31
102
}
100
AcDbEntity
  8
0
  6
CONTINUOUS
100
AcDbLine
 10
77.857049
 20
97.753569
 30
0.0
 11
77.857049
 21
97.385219
 31
0.0
  0
LWPOLYLINE
  5
FD
102
{ACAD_REACTORS
330
31
102
}
100
AcDbEntity
  8
0
  6
CONTINUOUS
100
AcDbPolyline
 90
        5
 70
     0
 10
74.857049
 20
99.718097
 10
75.28065
 20
99.718097
 10
75.28065
 20
100.086447
 10
74.857049
 20
100.086447
 10
74.857049
 20
99.718097
  0
LWPOLYLINE
  5
FE
102
{ACAD_REACTORS
330
31
102
}
100
AcDbEntity
  8
0
  6
CONTINUOUS
100
AcDbPolyline
 90
        5
 70
     0
 10
75.683789
 20
99.718097
 10
77.857049
 20
99.718097
 10
77.857049
 20
100.086447
 10
75.683789
 20
100.086447
 10
75.683789
 20
99.718097
  0
LINE
  5
FF
102
{ACAD_REACTORS
330
31
102
}
100
AcDbEntity
  8
0
  6
CONTINUOUS
100
AcDbLine
 10
77.208346
 20
100.499817
 30
0.0
 11
77.151047
 21
100.864073
 31
0.0
  0
SPLINE
  5
100
102
{ACAD_REACTORS
330
31
102
}
100
AcDbEntity
  8
0
  6
CONTINUOUS
100
AcDbSpline
210
0.0
220
0.0
230
1.0
 70
     8
 71
     2
 72
     6
 73
     3
 74
     0
 42
0.0000001
 43
0.0000001
 40
0.0
 40
0.0
 40
0.0
 40
1.0
 40
1.0
 40
1.0
 10
77.151046557107691
 20
100.86407273366861
 30
0.0
 10
77.370010180154566
 20
100.89476912572793
 30
0.0
 10
77.486654085794214
 20
101.0349473293107
 30
0.0
  0
SPLINE
  5
101
102
{ACAD_REACTORS
330
31
102
}
100
AcDbEntity
  8
0
  6
CONTINUOUS
100
AcDbSpline
210
0.0
220
0.0
230
1.0
 70
     8
 71
     2
 72
     6
 73
     3
 74
     0
 42
0.0000001
 43
0.0000001
 40
0.0
 40
0.0
 40
0.0
 40
1.0
 40
1.0
 40
1.0
 10
77.486654085794214
 20
101.03494732931071
 30
0.0
 10
77.603297991433863
 20
101.17512314870768
 30
0.0
 10
77.603297991433863
 20
101.42682879522258
 30
0.0
  0
SPLINE
  5
102
102
{ACAD_REACTORS
330
31
102
}
100
AcDbEntity
  8
0
  6
CONTINUOUS
100
AcDbSpline
210
0.0
220
0.0
230
1.0
 70
     8
 71
     2
 72
     6
 73
     3
 74
     0
 42
0.0000001
 43
0.0000001
 40
0.0
 40
0.0
 40
0.0
 40
1.0
 40
1.0
 40
1.0
 10
77.603297991433919
 20
101.42682879522256
 30
0.0
 10
77.603297991433919
 20
101.68058007314615
 30
0.0
 10
77.499955458322347
 20
101.80336325719766
 30
0.0
  0
SPLINE
  5
103
102
{ACAD_REACTORS
330
31
102
}
100
AcDbEntity
  8
0
  6
CONTINUOUS
100
AcDbSpline
210
0.0
220
0.0
230
1.0
 70
     8
 71
     2
 72
     6
 73
     3
 74
     0
 42
0.0000001
 43
0.0000001
 40
0.0
 40
0.0
 40
0.0
 40
1.0
 40
1.0
 40
1.0
 10
77.49995545832229
 20
101.80336325719766
 30
0.0
 10
77.396612925210718
 20
101.92614644124917
 30
0.0
 10
77.257458729425196
 20
101.92614644124917
 30
0.0
  0
SPLINE
  5
104
102
{ACAD_REACTORS
330
31
102
}
100
AcDbEntity
  8
0
  6
CONTINUOUS
100
AcDbSpline
210
0.0
220
0.0
230
1.0
 70
     8
 71
     2
 72
     6
 73
     3
 74
     0
 42
0.0000001
 43
0.0000001
 40
0.0
 40
0.0
 40
0.0
 40
1.0
 40
1.0
 40
1.0
 10
77.257458729425252
 20
101.92614644124917
 30
0.0
 10
77.132628721872152
 20
101.92614644124917
 30
0.0
 10
77.061005396524251
 20
101.81768982961587
 30
0.0
  0
SPLINE
  5
105
102
{ACAD_REACTORS
330
31
102
}
100
AcDbEntity
  8
0
  6
CONTINUOUS
100
AcDbSpline
210
0.0
220
0.0
230
1.0
 70
     8
 71
     2
 72
     6
 73
     3
 74
     0
 42
0.0000001
 43
0.0000001
 40
0.0
 40
0.0
 40
0.0
 40
1.0
 40
1.0
 40
1.0
 10
77.061005396524308
 20
101.81768982961589
 30
0.0
 10
77.011892361322282
 20
101.74197285726481
 30
0.0
 10
76.936175985017655
 20
101.441152983455
 30
0.0
  0
SPLINE
  5
106
102
{ACAD_REACTORS
330
31
102
}
100
AcDbEntity
  8
0
  6
CONTINUOUS
100
AcDbSpline
210
0.0
220
0.0
230
1.0
 70
     8
 71
     2
 72
     6
 73
     3
 74
     0
 42
0.0000001
 43
0.0000001
 40
0.0
 40
0.0
 40
0.0
 40
1.0
 40
1.0
 40
1.0
 10
76.936175985017542
 20
101.44115298345497
 30
0.0
 10
76.833856863656763
 20
101.03597014501503
 30
0.0
 10
76.75916389910293
 20
100.87942212179115
 30
0.0
  0
SPLINE
  5
107
102
{ACAD_REACTORS
330
31
102
}
100
AcDbEntity
  8
0
  6
CONTINUOUS
100
AcDbSpline
210
0.0
220
0.0
230
1.0
 70
     8
 71
     2
 72
     6
 73
     3
 74
     0
 42
0.0000001
 43
0.0000001
 40
0.0
 40
0.0
 40
0.0
 40
1.0
 40
1.0
 40
1.0
 10
76.759163899103044
 20
100.87942212179117
 30
0.0
 10
76.684470934549211
 20
100.7228717143815
 30
0.0
 10
76.552478832879899
 20
100.64204066350869
 30
0.0
  0
SPLINE
  5
108
102
{ACAD_REACTORS
330
31
102
}
100
AcDbEntity
  8
0
  6
CONTINUOUS
100
AcDbSpline
210
0.0
220
0.0
230
1.0
 70
     8
 71
     2
 72
     6
 73
     3
 74
     0
 42
0.0000001
 43
0.0000001
 40
0.0
 40
0.0
 40
0.0
 40
1.0
 40
1.0
 40
1.0
 10
76.552478832879842
 20
100.64204066350869
 30
0.0
 10
76.420487327256978
 20
100.56120961263589
 30
0.0
 10
76.260869068780721
 20
100.56120961263589
 30
0.0
  0
SPLINE
  5
109
102
{ACAD_REACTORS
330
31
102
}
100
AcDbEntity
  8
0
  6
CONTINUOUS
100
AcDbSpline
210
0.0
220
0.0
230
1.0
 70
     8
 71
     2
 72
     6
 73
     3
 74
     0
 42
0.0000001
 43
0.0000001
 40
0.0
 40
0.0
 40
0.0
 40
1.0
 40
1.0
 40
1.0
 10
76.260869068780664
 20
100.56120961263588
 30
0.0
 10
76.115575594583277
 20
100.56120961263588
 30
0.0
 10
75.991769594827417
 20
100.62771647527626
 30
0.0
  0
SPLINE
  5
10A
102
{ACAD_REACTORS
330
31
102
}
100
AcDbEntity
  8
0
  6
CONTINUOUS
100
AcDbSpline
210
0.0
220
0.0
230
1.0
 70
     8
 71
     2
 72
     6
 73
     3
 74
     0
 42
0.0000001
 43
0.0000001
 40
0.0
 40
0.0
 40
0.0
 40
1.0
 40
1.0
 40
1.0
 10
75.991769594827417
 20
100.62771647527627
 30
0.0
 10
75.867963595071558
 20
100.69422333791665
 30
0.0
 10
75.786107940355066
 20
100.80882161214761
 30
0.0
  0
SPLINE
  5
10B
102
{ACAD_REACTORS
330
31
102
}
100
AcDbEntity
  8
0
  6
CONTINUOUS
100
AcDbSpline
210
0.0
220
0.0
230
1.0
 70
     8
 71
     2
 72
     6
 73
     3
 74
     0
 42
0.0000001
 43
0.0000001
 40
0.0
 40
0.0
 40
0.0
 40
1.0
 40
1.0
 40
1.0
 10
75.786107940355123
 20
100.80882161214761
 30
0.0
 10
75.722670120874227
 20
100.89476912572793
 30
0.0
 10
75.678672356286825
 20
101.04313223913125
 30
0.0
  0
SPLINE
  5
10C
102
{ACAD_REACTORS
330
31
102
}
100
AcDbEntity
  8
0
  6
CONTINUOUS
100
AcDbSpline
210
0.0
220
0.0
230
1.0
 70
     8
 71
     2
 72
     6
 73
     3
 74
     0
 42
0.0000001
 43
0.0000001
 40
0.0
 40
0.0
 40
0.0
 40
1.0
 40
1.0
 40
1.0
 10
75.678672356286825
 20
101.04313223913125
 30
0.0
 10
75.63467518774587
 20
101.19149535253457
 30
0.0
 10
75.63467518774587
 20
101.36134474828653
 30
0.0
  0
SPLINE
  5
10D
102
{ACAD_REACTORS
330
31
102
}
100
AcDbEntity
  8
0
  6
CONTINUOUS
100
AcDbSpline
210
0.0
220
0.0
230
1.0
 70
     8
 71
     2
 72
     6
 73
     3
 74
     0
 42
0.0000001
 43
0.0000001
 40
0.0
 40
0.0
 40
0.0
 40
1.0
 40
1.0
 40
1.0
 10
75.634675187745927
 20
101.36134474828651
 30
0.0
 10
75.634675187745927
 20
101.61714165761879
 30
0.0
 10
75.708345336595414
 20
101.81052773549965
 30
0.0
  0
SPLINE
  5
10E
102
{ACAD_REACTORS
330
31
102
}
100
AcDbEntity
  8
0
  6
CONTINUOUS
100
AcDbSpline
210
0.0
220
0.0
230
1.0
 70
     8
 71
     2
 72
     6
 73
     3
 74
     0
 42
0.0000001
 43
0.0000001
 40
0.0
 40
0.0
 40
0.0
 40
1.0
 40
1.0
 40
1.0
 10
75.708345336595301
 20
101.81052773549965
 30
0.0
 10
75.78201488939834
 20
102.00390904500892
 30
0.0
 10
75.907867712655786
 20
102.09599583700111
 30
0.0
  0
SPLINE
  5
10F
102
{ACAD_REACTORS
330
31
102
}
100
AcDbEntity
  8
0
  6
CONTINUOUS
100
AcDbSpline
210
0.0
220
0.0
230
1.0
 70
     8
 71
     2
 72
     6
 73
     3
 74
     0
 42
0.0000001
 43
0.0000001
 40
0.0
 40
0.0
 40
0.0
 40
1.0
 40
1.0
 40
1.0
 10
75.907867712655843
 20
102.09599583700113
 30
0.0
 10
76.033720535913289
 20
102.1880850131791
 30
0.0
 10
76.244498057046712
 20
102.22287266805581
 30
0.0
  0
LINE
  5
110
102
{ACAD_REACTORS
330
31
102
}
100
AcDbEntity
  8
0
  6
CONTINUOUS
100
AcDbLine
 10
76.244498
 20
102.222873
 30
0.0
 11
76.293611
 21
101.862708
 31
0.0
  0
SPLINE
  5
111
102
{ACAD_REACTORS
330
31
102
}
100
AcDbEntity
  8
0
  6
CONTINUOUS
100
AcDbSpline
210
0.0
220
0.0
230
1.0
 70
     8
 71
     2
 72
     6
 73
     3
 74
     0
 42
0.0000001
 43
0.0000001
 40
0.0
 40
0.0
 40
0.0
 40
1.0
 40
1.0
 40
1.0
 10
76.293611092248796
 20
101.86270802572184
 30
0.0
 10
76.125807923951982
 20
101.83815091207438
 30
0.0
 10
76.031673712411759
 20
101.72048657491618
 30
0.0
  0
SPLINE
  5
112
102
{ACAD_REACTORS
330
31
102
}
100
AcDbEntity
  8
0
  6
CONTINUOUS
100
AcDbSpline
210
0.0
220
0.0
230
1.0
 70
     8
 71
     2
 72
     6
 73
     3
 74
     0
 42
0.0000001
 43
0.0000001
 40
0.0
 40
0.0
 40
0.0
 40
1.0
 40
1.0
 40
1.0
 10
76.031673712411759
 20
101.72048657491617
 30
0.0
 10
75.937540096917985
 20
101.60281746938638
 30
0.0
 10
75.937540096917985
 20
101.38794749334268
 30
0.0
  0
SPLINE
  5
113
102
{ACAD_REACTORS
330
31
102
}
100
AcDbEntity
  8
0
  6
CONTINUOUS
100
AcDbSpline
210
0.0
220
0.0
230
1.0
 70
     8
 71
     2
 72
     6
 73
     3
 74
     0
 42
0.0000001
 43
0.0000001
 40
0.0
 40
0.0
 40
0.0
 40
1.0
 40
1.0
 40
1.0
 10
75.937540096917928
 20
101.38794749334268
 30
0.0
 10
75.937540096917928
 20
101.1341962154191
 30
0.0
 10
76.021441979089559
 20
101.0257372196
 30
0.0
  0
SPLINE
  5
114
102
{ACAD_REACTORS
330
31
102
}
100
AcDbEntity
  8
0
  6
CONTINUOUS
100
AcDbSpline
210
0.0
220
0.0
230
1.0
 70
     8
 71
     2
 72
     6
 73
     3
 74
     0
 42
0.0000001
 43
0.0000001
 40
0.0
 40
0.0
 40
0.0
 40
1.0
 40
1.0
 40
1.0
 10
76.021441979089559
 20
101.02573721959999
 30
0.0
 10
76.10534386126119
 20
100.9172782237809
 30
0.0
 10
76.21789531199056
 20
100.9172782237809
 30
0.0
  0
SPLINE
  5
115
102
{ACAD_REACTORS
330
31
102
}
100
AcDbEntity
  8
0
  6
CONTINUOUS
100
AcDbSpline
210
0.0
220
0.0
230
1.0
 70
     8
 71
     2
 72
     6
 73
     3
 74
     0
 42
0.0000001
 43
0.0000001
 40
0.0
 40
0.0
 40
0.0
 40
1.0
 40
1.0
 40
1.0
 10
76.217895311990617
 20
100.91727822378093
 30
0.0
 10
76.289518637338517
 20
100.91727822378093
 30
0.0
 10
76.346817178407548
 20
100.96230118825846
 30
0.0
  0
SPLINE
  5
116
102
{ACAD_REACTORS
330
31
102
}
100
AcDbEntity
  8
0
  6
CONTINUOUS
100
AcDbSpline
210
0.0
220
0.0
230
1.0
 70
     8
 71
     2
 72
     6
 73
     3
 74
     0
 42
0.0000001
 43
0.0000001
 40
0.0
 40
0.0
 40
0.0
 40
1.0
 40
1.0
 40
1.0
 10
76.346817178407491
 20
100.96230118825845
 30
0.0
 10
76.406162542978109
 20
101.00731938436441
 30
0.0
 10
76.445043844857992
 20
101.10349982335977
 30
0.0
  0
SPLINE
  5
117
102
{ACAD_REACTORS
330
31
102
}
100
AcDbEntity
  8
0
  6
CONTINUOUS
100
AcDbSpline
210
0.0
220
0.0
230
1.0
 70
     8
 71
     2
 72
     6
 73
     3
 74
     0
 42
0.0000001
 43
0.0000001
 40
0.0
 40
0.0
 40
0.0
 40
1.0
 40
1.0
 40
1.0
 10
76.445043844857992
 20
101.10349982335977
 30
0.0
 10
76.465507311502279
 20
101.15875332906656
 30
0.0
 10
76.539177460351766
 20
101.42887681081704
 30
0.0
  0
SPLINE
  5
118
102
{ACAD_REACTORS
330
31
102
}
100
AcDbEntity
  8
0
  6
CONTINUOUS
100
AcDbSpline
210
0.0
220
0.0
230
1.0
 70
     8
 71
     2
 72
     6
 73
     3
 74
     0
 42
0.0000001
 43
0.0000001
 40
0.0
 40
0.0
 40
0.0
 40
1.0
 40
1.0
 40
1.0
 10
76.539177460351766
 20
101.42887681081703
 30
0.0
 10
76.643543405214132
 20
101.81973546102455
 30
0.0
 10
76.71005086390096
 20
101.97423785283974
 30
0.0
  0
SPLINE
  5
119
102
{ACAD_REACTORS
330
31
102
}
100
AcDbEntity
  8
0
  6
CONTINUOUS
100
AcDbSpline
210
0.0
220
0.0
230
1.0
 70
     8
 71
     2
 72
     6
 73
     3
 74
     0
 42
0.0000001
 43
0.0000001
 40
0.0
 40
0.0
 40
0.0
 40
1.0
 40
1.0
 40
1.0
 10
76.71005086390096
 20
101.97423785283976
 30
0.0
 10
76.776558322587789
 20
102.12874024465495
 30
0.0
 10
76.903433961549581
 20
102.21673338964396
 30
0.0
  0
SPLINE
  5
11A
102
{ACAD_REACTORS
330
31
102
}
100
AcDbEntity
  8
0
  6
CONTINUOUS
100
AcDbSpline
210
0.0
220
0.0
230
1.0
 70
     8
 71
     2
 72
     6
 73
     3
 74
     0
 42
0.0000001
 43
0.0000001
 40
0.0
 40
0.0
 40
0.0
 40
1.0
 40
1.0
 40
1.0
 10
76.903433961549581
 20
102.21673338964395
 30
0.0
 10
77.030309600511373
 20
102.30472891881875
 30
0.0
 10
77.21857742754537
 20
102.30472891881875
 30
0.0
  0
SPLINE
  5
11B
102
{ACAD_REACTORS
330
31
102
}
100
AcDbEntity
  8
0
  6
CONTINUOUS
100
AcDbSpline
210
0.0
220
0.0
230
1.0
 70
     8
 71
     2
 72
     6
 73
     3
 74
     0
 42
0.0000001
 43
0.0000001
 40
0.0
 40
0.0
 40
0.0
 40
1.0
 40
1.0
 40
1.0
 10
77.21857742754537
 20
102.30472891881875
 30
0.0
 10
77.40275220362264
 20
102.30472891881875
 30
0.0
 10
77.565439505258382
 20
102.19729273870401
 30
0.0
  0
SPLINE
  5
11C
102
{ACAD_REACTORS
330
31
102
}
100
AcDbEntity
  8
0
  6
CONTINUOUS
100
AcDbSpline
210
0.0
220
0.0
230
1.0
 70
     8
 71
     2
 72
     6
 73
     3
 74
     0
 42
0.0000001
 43
0.0000001
 40
0.0
 40
0.0
 40
0.0
 40
1.0
 40
1.0
 40
1.0
 10
77.565439505258382
 20
102.19729273870402
 30
0.0
 10
77.728126806894124
 20
102.08985894277507
 30
0.0
 10
77.817145151773275
 20
101.8872651393693
 30
0.0
  0
SPLINE
  5
11D
102
{ACAD_REACTORS
330
31
102
}
100
AcDbEntity
  8
0
  6
CONTINUOUS
100
AcDbSpline
210
0.0
220
0.0
230
1.0
 70
     8
 71
     2
 72
     6
 73
     3
 74
     0
 42
0.0000001
 43
0.0000001
 40
0.0
 40
0.0
 40
0.0
 40
1.0
 40
1.0
 40
1.0
 10
77.817145151773218
 20
101.88726513936928
 30
0.0
 10
77.906162304559473
 20
101.68467372014931
 30
0.0
 10
77.906162304559473
 20
101.42887681081703
 30
0.0
  0
SPLINE
  5
11E
102
{ACAD_REACTORS
330
31
102
}
100
AcDbEntity
  8
0
  6
CONTINUOUS
100
AcDbSpline
210
0.0
220
0.0
230
1.0
 70
     8
 71
     2
 72
     6
 73
     3
 74
     0
 42
0.0000001
 43
0.0000001
 40
0.0
 40
0.0
 40
0.0
 40
1.0
 40
1.0
 40
1.0
 10
77.906162304559587
 20
101.42887681081703
 30
0.0
 10
77.906162304559587
 20
101.0052737529557
 30
0.0
 10
77.730173630395768
 20
100.78324168279579
 30
0.0
  0
SPLINE
  5
11F
102
{ACAD_REACTORS
330
31
102
}
100
AcDbEntity
  8
0
  6
CONTINUOUS
100
AcDbSpline
210
0.0
220
0.0
230
1.0
 70
     8
 71
     2
 72
     6
 73
     3
 74
     0
 42
0.0000001
 43
0.0000001
 40
0.0
 40
0.0
 40
0.0
 40
1.0
 40
1.0
 40
1.0
 10
77.730173630395711
 20
100.7832416827958
 30
0.0
 10
77.554183764138998
 20
100.56120961263589
 30
0.0
 10
77.208345694223226
 20
100.49981682851724
 30
0.0
  0
LINE
  5
120
102
{ACAD_REACTORS
330
31
102
}
100
AcDbEntity
  8
0
  6
CONTINUOUS
100
AcDbLine
 10
77.208346
 20
103.759707
 30
0.0
 11
77.151047
 21
104.123965
 31
0.0
  0
SPLINE
  5
121
102
{ACAD_REACTORS
330
31
102
}
100
AcDbEntity
  8
0
  6
CONTINUOUS
100
AcDbSpline
210
0.0
220
0.0
230
1.0
 70
     8
 71
     2
 72
     6
 73
     3
 74
     0
 42
0.0000001
 43
0.0000001
 40
0.0
 40
0.0
 40
0.0
 40
1.0
 40
1.0
 40
1.0
 10
77.151046557107691
 20
104.12396519735267
 30
0.0
 10
77.370010180154566
 20
104.15465920522621
 30
0.0
 10
77.486654085794214
 20
104.29483740880897
 30
0.0
  0
SPLINE
  5
122
102
{ACAD_REACTORS
330
31
102
}
100
AcDbEntity
  8
0
  6
CONTINUOUS
100
AcDbSpline
210
0.0
220
0.0
230
1.0
 70
     8
 71
     2
 72
     6
 73
     3
 74
     0
 42
0.0000001
 43
0.0000001
 40
0.0
 40
0.0
 40
0.0
 40
1.0
 40
1.0
 40
1.0
 10
77.486654085794214
 20
104.29483740880897
 30
0.0
 10
77.603297991433863
 20
104.43501561239174
 30
0.0
 10
77.603297991433863
 20
104.68671887472084
 30
0.0
  0
SPLINE
  5
123
102
{ACAD_REACTORS
330
31
102
}
100
AcDbEntity
  8
0
  6
CONTINUOUS
100
AcDbSpline
210
0.0
220
0.0
230
1.0
 70
     8
 71
     2
 72
     6
 73
     3
 74
     0
 42
0.0000001
 43
0.0000001
 40
0.0
 40
0.0
 40
0.0
 40
1.0
 40
1.0
 40
1.0
 10
77.603297991433919
 20
104.68671887472084
 30
0.0
 10
77.603297991433919
 20
104.94047253683021
 30
0.0
 10
77.499955458322347
 20
105.06325333669594
 30
0.0
  0
SPLINE
  5
124
102
{ACAD_REACTORS
330
31
102
}
100
AcDbEntity
  8
0
  6
CONTINUOUS
100
AcDbSpline
210
0.0
220
0.0
230
1.0
 70
     8
 71
     2
 72
     6
 73
     3
 74
     0
 42
0.0000001
 43
0.0000001
 40
0.0
 40
0.0
 40
0.0
 40
1.0
 40
1.0
 40
1.0
 10
77.49995545832229
 20
105.06325333669594
 30
0.0
 10
77.396612925210718
 20
105.18603890493324
 30
0.0
 10
77.257458729425196
 20
105.18603890493324
 30
0.0
  0
SPLINE
  5
125
102
{ACAD_REACTORS
330
31
102
}
100
AcDbEntity
  8
0
  6
CONTINUOUS
100
AcDbSpline
210
0.0
220
0.0
230
1.0
 70
     8
 71
     2
 72
     6
 73
     3
 74
     0
 42
0.0000001
 43
0.0000001
 40
0.0
 40
0.0
 40
0.0
 40
1.0
 40
1.0
 40
1.0
 10
77.257458729425252
 20
105.18603890493324
 30
0.0
 10
77.132628721872152
 20
105.18603890493324
 30
0.0
 10
77.061005396524251
 20
105.07758229329994
 30
0.0
  0
SPLINE
  5
126
102
{ACAD_REACTORS
330
31
102
}
100
AcDbEntity
  8
0
  6
CONTINUOUS
100
AcDbSpline
210
0.0
220
0.0
230
1.0
 70
     8
 71
     2
 72
     6
 73
     3
 74
     0
 42
0.0000001
 43
0.0000001
 40
0.0
 40
0.0
 40
0.0
 40
1.0
 40
1.0
 40
1.0
 10
77.061005396524308
 20
105.07758229329994
 30
0.0
 10
77.011892361322282
 20
105.00186055257728
 30
0.0
 10
76.936175985017655
 20
104.70104306295326
 30
0.0
  0
SPLINE
  5
127
102
{ACAD_REACTORS
330
31
102
}
100
AcDbEntity
  8
0
  6
CONTINUOUS
100
AcDbSpline
210
0.0
220
0.0
230
1.0
 70
     8
 71
     2
 72
     6
 73
     3
 74
     0
 42
0.0000001
 43
0.0000001
 40
0.0
 40
0.0
 40
0.0
 40
1.0
 40
1.0
 40
1.0
 10
76.936175985017542
 20
104.70104306295326
 30
0.0
 10
76.833856863656763
 20
104.29586022451332
 30
0.0
 10
76.75916389910293
 20
104.13931220128944
 30
0.0
  0
SPLINE
  5
128
102
{ACAD_REACTORS
330
31
102
}
100
AcDbEntity
  8
0
  6
CONTINUOUS
100
AcDbSpline
210
0.0
220
0.0
230
1.0
 70
     8
 71
     2
 72
     6
 73
     3
 74
     0
 42
0.0000001
 43
0.0000001
 40
0.0
 40
0.0
 40
0.0
 40
1.0
 40
1.0
 40
1.0
 10
76.759163899103044
 20
104.13931220128944
 30
0.0
 10
76.684470934549211
 20
103.98276417806557
 30
0.0
 10
76.552478832879899
 20
103.90193074300697
 30
0.0
  0
SPLINE
  5
129
102
{ACAD_REACTORS
330
31
102
}
100
AcDbEntity
  8
0
  6
CONTINUOUS
100
AcDbSpline
210
0.0
220
0.0
230
1.0
 70
     8
 71
     2
 72
     6
 73
     3
 74
     0
 42
0.0000001
 43
0.0000001
 40
0.0
 40
0.0
 40
0.0
 40
1.0
 40
1.0
 40
1.0
 10
76.552478832879842
 20
103.90193074300697
 30
0.0
 10
76.420487327256978
 20
103.82109969213417
 30
0.0
 10
76.260869068780721
 20
103.82109969213417
 30
0.0
  0
SPLINE
  5
12A
102
{ACAD_REACTORS
330
31
102
}
100
AcDbEntity
  8
0
  6
CONTINUOUS
100
AcDbSpline
210
0.0
220
0.0
230
1.0
 70
     8
 71
     2
 72
     6
 73
     3
 74
     0
 42
0.0000001
 43
0.0000001
 40
0.0
 40
0.0
 40
0.0
 40
1.0
 40
1.0
 40
1.0
 10
76.260869068780664
 20
103.82109969213417
 30
0.0
 10
76.115575594583277
 20
103.82109969213417
 30
0.0
 10
75.991769594827417
 20
103.88760655477455
 30
0.0
  0
SPLINE
  5
12B
102
{ACAD_REACTORS
330
31
102
}
100
AcDbEntity
  8
0
  6
CONTINUOUS
100
AcDbSpline
210
0.0
220
0.0
230
1.0
 70
     8
 71
     2
 72
     6
 73
     3
 74
     0
 42
0.0000001
 43
0.0000001
 40
0.0
 40
0.0
 40
0.0
 40
1.0
 40
1.0
 40
1.0
 10
75.991769594827417
 20
103.88760655477455
 30
0.0
 10
75.867963595071558
 20
103.95411341741493
 30
0.0
 10
75.786107940355066
 20
104.06871169164589
 30
0.0
  0
SPLINE
  5
12C
102
{ACAD_REACTORS
330
31
102
}
100
AcDbEntity
  8
0
  6
CONTINUOUS
100
AcDbSpline
210
0.0
220
0.0
230
1.0
 70
     8
 71
     2
 72
     6
 73
     3
 74
     0
 42
0.0000001
 43
0.0000001
 40
0.0
 40
0.0
 40
0.0
 40
1.0
 40
1.0
 40
1.0
 10
75.786107940355123
 20
104.06871169164589
 30
0.0
 10
75.722670120874227
 20
104.15465920522621
 30
0.0
 10
75.678672356286825
 20
104.30302231862953
 30
0.0
  0
SPLINE
  5
12D
102
{ACAD_REACTORS
330
31
102
}
100
AcDbEntity
  8
0
  6
CONTINUOUS
100
AcDbSpline
210
0.0
220
0.0
230
1.0
 70
     8
 71
     2
 72
     6
 73
     3
 74
     0
 42
0.0000001
 43
0.0000001
 40
0.0
 40
0.0
 40
0.0
 40
1.0
 40
1.0
 40
1.0
 10
75.678672356286825
 20
104.30302231862953
 30
0.0
 10
75.63467518774587
 20
104.45138543203285
 30
0.0
 10
75.63467518774587
 20
104.6212348277848
 30
0.0
  0
SPLINE
  5
12E
102
{ACAD_REACTORS
330
31
102
}
100
AcDbEntity
  8
0
  6
CONTINUOUS
100
AcDbSpline
210
0.0
220
0.0
230
1.0
 70
     8
 71
     2
 72
     6
 73
     3
 74
     0
 42
0.0000001
 43
0.0000001
 40
0.0
 40
0.0
 40
0.0
 40
1.0
 40
1.0
 40
1.0
 10
75.634675187745927
 20
104.6212348277848
 30
0.0
 10
75.634675187745927
 20
104.87703412130287
 30
0.0
 10
75.708345336595414
 20
105.07041543081215
 30
0.0
  0
SPLINE
  5
12F
102
{ACAD_REACTORS
330
31
102
}
100
AcDbEntity
  8
0
  6
CONTINUOUS
100
AcDbSpline
210
0.0
220
0.0
230
1.0
 70
     8
 71
     2
 72
     6
 73
     3
 74
     0
 42
0.0000001
 43
0.0000001
 40
0.0
 40
0.0
 40
0.0
 40
1.0
 40
1.0
 40
1.0
 10
75.708345336595301
 20
105.07041543081215
 30
0.0
 10
75.78201488939834
 20
105.26380150869301
 30
0.0
 10
75.907867712655786
 20
105.35588830068519
 30
0.0
  0
SPLINE
  5
130
102
{ACAD_REACTORS
330
31
102
}
100
AcDbEntity
  8
0
  6
CONTINUOUS
100
AcDbSpline
210
0.0
220
0.0
230
1.0
 70
     8
 71
     2
 72
     6
 73
     3
 74
     0
 42
0.0000001
 43
0.0000001
 40
0.0
 40
0.0
 40
0.0
 40
1.0
 40
1.0
 40
1.0
 10
75.907867712655843
 20
105.35588830068519
 30
0.0
 10
76.033720535913289
 20
105.44797509267738
 30
0.0
 10
76.244498057046712
 20
105.48276513173988
 30
0.0
  0
LINE
  5
131
102
{ACAD_REACTORS
330
31
102
}
100
AcDbEntity
  8
0
  6
CONTINUOUS
100
AcDbLine
 10
76.244498
 20
105.482765
 30
0.0
 11
76.293611
 21
105.1226
 31
0.0
  0
SPLINE
  5
132
102
{ACAD_REACTORS
330
31
102
}
100
AcDbEntity
  8
0
  6
CONTINUOUS
100
AcDbSpline
210
0.0
220
0.0
230
1.0
 70
     8
 71
     2
 72
     6
 73
     3
 74
     0
 42
0.0000001
 43
0.0000001
 40
0.0
 40
0.0
 40
0.0
 40
1.0
 40
1.0
 40
1.0
 10
76.293611092248796
 20
105.1226004894059
 30
0.0
 10
76.125807923951982
 20
105.09804337575844
 30
0.0
 10
76.031673712411759
 20
104.98037427022865
 30
0.0
  0
SPLINE
  5
133
102
{ACAD_REACTORS
330
31
102
}
100
AcDbEntity
  8
0
  6
CONTINUOUS
100
AcDbSpline
210
0.0
220
0.0
230
1.0
 70
     8
 71
     2
 72
     6
 73
     3
 74
     0
 42
0.0000001
 43
0.0000001
 40
0.0
 40
0.0
 40
0.0
 40
1.0
 40
1.0
 40
1.0
 10
76.031673712411759
 20
104.98037427022865
 30
0.0
 10
75.937540096917985
 20
104.86270993307045
 30
0.0
 10
75.937540096917985
 20
104.64783757284096
 30
0.0
  0
SPLINE
  5
134
102
{ACAD_REACTORS
330
31
102
}
100
AcDbEntity
  8
0
  6
CONTINUOUS
100
AcDbSpline
210
0.0
220
0.0
230
1.0
 70
     8
 71
     2
 72
     6
 73
     3
 74
     0
 42
0.0000001
 43
0.0000001
 40
0.0
 40
0.0
 40
0.0
 40
1.0
 40
1.0
 40
1.0
 10
75.937540096917928
 20
104.64783757284096
 30
0.0
 10
75.937540096917928
 20
104.39408629491737
 30
0.0
 10
76.021441979089559
 20
104.28562729909828
 30
0.0
  0
SPLINE
  5
135
102
{ACAD_REACTORS
330
31
102
}
100
AcDbEntity
  8
0
  6
CONTINUOUS
100
AcDbSpline
210
0.0
220
0.0
230
1.0
 70
     8
 71
     2
 72
     6
 73
     3
 74
     0
 42
0.0000001
 43
0.0000001
 40
0.0
 40
0.0
 40
0.0
 40
1.0
 40
1.0
 40
1.0
 10
76.021441979089559
 20
104.28562729909828
 30
0.0
 10
76.10534386126119
 20
104.17717068746498
 30
0.0
 10
76.21789531199056
 20
104.17717068746498
 30
0.0
  0
SPLINE
  5
136
102
{ACAD_REACTORS
330
31
102
}
100
AcDbEntity
  8
0
  6
CONTINUOUS
100
AcDbSpline
210
0.0
220
0.0
230
1.0
 70
     8
 71
     2
 72
     6
 73
     3
 74
     0
 42
0.0000001
 43
0.0000001
 40
0.0
 40
0.0
 40
0.0
 40
1.0
 40
1.0
 40
1.0
 10
76.217895311990617
 20
104.17717068746498
 30
0.0
 10
76.289518637338517
 20
104.17717068746498
 30
0.0
 10
76.346817178407548
 20
104.22219126775673
 30
0.0
  0
SPLINE
  5
137
102
{ACAD_REACTORS
330
31
102
}
100
AcDbEntity
  8
0
  6
CONTINUOUS
100
AcDbSpline
210
0.0
220
0.0
230
1.0
 70
     8
 71
     2
 72
     6
 73
     3
 74
     0
 42
0.0000001
 43
0.0000001
 40
0.0
 40
0.0
 40
0.0
 40
1.0
 40
1.0
 40
1.0
 10
76.346817178407491
 20
104.22219126775673
 30
0.0
 10
76.406162542978109
 20
104.26721184804848
 30
0.0
 10
76.445043844857992
 20
104.36338990285805
 30
0.0
  0
SPLINE
  5
138
102
{ACAD_REACTORS
330
31
102
}
100
AcDbEntity
  8
0
  6
CONTINUOUS
100
AcDbSpline
210
0.0
220
0.0
230
1.0
 70
     8
 71
     2
 72
     6
 73
     3
 74
     0
 42
0.0000001
 43
0.0000001
 40
0.0
 40
0.0
 40
0.0
 40
1.0
 40
1.0
 40
1.0
 10
76.445043844857992
 20
104.36338990285805
 30
0.0
 10
76.465507311502279
 20
104.41864102437904
 30
0.0
 10
76.539177460351766
 20
104.68876450612953
 30
0.0
  0
SPLINE
  5
139
102
{ACAD_REACTORS
330
31
102
}
100
AcDbEntity
  8
0
  6
CONTINUOUS
100
AcDbSpline
210
0.0
220
0.0
230
1.0
 70
     8
 71
     2
 72
     6
 73
     3
 74
     0
 42
0.0000001
 43
0.0000001
 40
0.0
 40
0.0
 40
0.0
 40
1.0
 40
1.0
 40
1.0
 10
76.539177460351766
 20
104.68876450612953
 30
0.0
 10
76.643543405214132
 20
105.07962315633705
 30
0.0
 10
76.71005086390096
 20
105.23412793233803
 30
0.0
  0
SPLINE
  5
13A
102
{ACAD_REACTORS
330
31
102
}
100
AcDbEntity
  8
0
  6
CONTINUOUS
100
AcDbSpline
210
0.0
220
0.0
230
1.0
 70
     8
 71
     2
 72
     6
 73
     3
 74
     0
 42
0.0000001
 43
0.0000001
 40
0.0
 40
0.0
 40
0.0
 40
1.0
 40
1.0
 40
1.0
 10
76.71005086390096
 20
105.23412793233803
 30
0.0
 10
76.776558322587789
 20
105.388632708339
 30
0.0
 10
76.903433961549581
 20
105.47662346914223
 30
0.0
  0
SPLINE
  5
13B
102
{ACAD_REACTORS
330
31
102
}
100
AcDbEntity
  8
0
  6
CONTINUOUS
100
AcDbSpline
210
0.0
220
0.0
230
1.0
 70
     8
 71
     2
 72
     6
 73
     3
 74
     0
 42
0.0000001
 43
0.0000001
 40
0.0
 40
0.0
 40
0.0
 40
1.0
 40
1.0
 40
1.0
 10
76.903433961549581
 20
105.47662346914223
 30
0.0
 10
77.030309600511373
 20
105.56461899831703
 30
0.0
 10
77.21857742754537
 20
105.56461899831703
 30
0.0
  0
SPLINE
  5
13C
102
{ACAD_REACTORS
330
31
102
}
100
AcDbEntity
  8
0
  6
CONTINUOUS
100
AcDbSpline
210
0.0
220
0.0
230
1.0
 70
     8
 71
     2
 72
     6
 73
     3
 74
     0
 42
0.0000001
 43
0.0000001
 40
0.0
 40
0.0
 40
0.0
 40
1.0
 40
1.0
 40
1.0
 10
77.21857742754537
 20
105.56461899831703
 30
0.0
 10
77.40275220362264
 20
105.56461899831703
 30
0.0
 10
77.565439505258382
 20
105.45718281820228
 30
0.0
  0
SPLINE
  5
13D
102
{ACAD_REACTORS
330
31
102
}
100
AcDbEntity
  8
0
  6
CONTINUOUS
100
AcDbSpline
210
0.0
220
0.0
230
1.0
 70
     8
 71
     2
 72
     6
 73
     3
 74
     0
 42
0.0000001
 43
0.0000001
 40
0.0
 40
0.0
 40
0.0
 40
1.0
 40
1.0
 40
1.0
 10
77.565439505258382
 20
105.45718281820228
 30
0.0
 10
77.728126806894124
 20
105.34975140645912
 30
0.0
 10
77.817145151773275
 20
105.14715760305336
 30
0.0
  0
SPLINE
  5
13E
102
{ACAD_REACTORS
330
31
102
}
100
AcDbEntity
  8
0
  6
CONTINUOUS
100
AcDbSpline
210
0.0
220
0.0
230
1.0
 70
     8
 71
     2
 72
     6
 73
     3
 74
     0
 42
0.0000001
 43
0.0000001
 40
0.0
 40
0.0
 40
0.0
 40
1.0
 40
1.0
 40
1.0
 10
77.817145151773218
 20
105.14715760305336
 30
0.0
 10
77.906162304559473
 20
104.9445637996476
 30
0.0
 10
77.906162304559473
 20
104.68876450612953
 30
0.0
  0
SPLINE
  5
13F
102
{ACAD_REACTORS
330
31
102
}
100
AcDbEntity
  8
0
  6
CONTINUOUS
100
AcDbSpline
210
0.0
220
0.0
230
1.0
 70
     8
 71
     2
 72
     6
 73
     3
 74
     0
 42
0.0000001
 43
0.0000001
 40
0.0
 40
0.0
 40
0.0
 40
1.0
 40
1.0
 40
1.0
 10
77.906162304559587
 20
104.68876450612953
 30
0.0
 10
77.906162304559587
 20
104.26516383245399
 30
0.0
 10
77.730173630395768
 20
104.04313176229408
 30
0.0
  0
SPLINE
  5
140
102
{ACAD_REACTORS
330
31
102
}
100
AcDbEntity
  8
0
  6
CONTINUOUS
100
AcDbSpline
210
0.0
220
0.0
230
1.0
 70
     8
 71
     2
 72
     6
 73
     3
 74
     0
 42
0.0000001
 43
0.0000001
 40
0.0
 40
0.0
 40
0.0
 40
1.0
 40
1.0
 40
1.0
 10
77.730173630395711
 20
104.04313176229408
 30
0.0
 10
77.554183764138998
 20
103.82109969213417
 30
0.0
 10
77.208345694223226
 20
103.75970690801552
 30
0.0
  0
LWPOLYLINE
  5
141
102
{ACAD_REACTORS
330
31
102
}
100
AcDbEntity
  8
0
  6
CONTINUOUS
100
AcDbPolyline
 90
        5
 70
     0
 10
74.857049
 20
106.004592
 10
75.28065
 20
106.004592
 10
75.28065
 20
106.372939
 10
74.857049
 20
106.372939
 10
74.857049
 20
106.004592
  0
LWPOLYLINE
  5
142
102
{ACAD_REACTORS
330
31
102
}
100
AcDbEntity
  8
0
  6
CONTINUOUS
100
AcDbPolyline
 90
        5
 70
     0
 10
75.683789
 20
106.004592
 10
77.857049
 20
106.004592
 10
77.857049
 20
106.372939
 10
75.683789
 20
106.372939
 10
75.683789
 20
106.004592
  0
LINE
  5
143
102
{ACAD_REACTORS
330
31
102
}
100
AcDbEntity
  8
0
  6
CONTINUOUS
100
AcDbLine
 10
77.857049
 20
108.343612
 30
0.0
 11
77.582833
 21
108.343612
 31
0.0
  0
SPLINE
  5
144
102
{ACAD_REACTORS
330
31
102
}
100
AcDbEntity
  8
0
  6
CONTINUOUS
100
AcDbSpline
210
0.0
220
0.0
230
1.0
 70
     8
 71
     2
 72
     6
 73
     3
 74
     0
 42
0.0000001
 43
0.0000001
 40
0.0
 40
0.0
 40
0.0
 40
1.0
 40
1.0
 40
1.0
 10
77.582833332696737
 20
108.3436116512101
 30
0.0
 10
77.90616230455953
 20
108.13692181661537
 30
0.0
 10
77.90616230455953
 20
107.73583500936439
 30
0.0
  0
SPLINE
  5
145
102
{ACAD_REACTORS
330
31
102
}
100
AcDbEntity
  8
0
  6
CONTINUOUS
100
AcDbSpline
210
0.0
220
0.0
230
1.0
 70
     8
 71
     2
 72
     6
 73
     3
 74
     0
 42
0.0000001
 43
0.0000001
 40
0.0
 40
0.0
 40
0.0
 40
1.0
 40
1.0
 40
1.0
 10
77.90616230455953
 20
107.73583500936439
 30
0.0
 10
77.90616230455953
 20
107.47593968465736
 30
0.0
 10
77.762915653863729
 20
107.25800126150062
 30
0.0
  0
SPLINE
  5
146
102
{ACAD_REACTORS
330
31
102
}
100
AcDbEntity
  8
0
  6
CONTINUOUS
100
AcDbSpline
210
0.0
220
0.0
230
1.0
 70
     8
 71
     2
 72
     6
 73
     3
 74
     0
 42
0.0000001
 43
0.0000001
 40
0.0
 40
0.0
 40
0.0
 40
1.0
 40
1.0
 40
1.0
 10
77.762915653863786
 20
107.25800126150062
 30
0.0
 10
77.619669003167985
 20
107.04006283834389
 30
0.0
 10
77.362846893945573
 20
106.92034810140541
 30
0.0
  0
SPLINE
  5
147
102
{ACAD_REACTORS
330
31
102
}
100
AcDbEntity
  8
0
  6
CONTINUOUS
100
AcDbSpline
210
0.0
220
0.0
230
1.0
 70
     8
 71
     2
 72
     6
 73
     3
 74
     0
 42
0.0000001
 43
0.0000001
 40
0.0
 40
0.0
 40
0.0
 40
1.0
 40
1.0
 40
1.0
 10
77.362846893945459
 20
106.92034810140541
 30
0.0
 10
77.106025976815943
 20
106.80063336446693
 30
0.0
 10
76.772465271631006
 20
106.80063336446693
 30
0.0
  0
SPLINE
  5
148
102
{ACAD_REACTORS
330
31
102
}
100
AcDbEntity
  8
0
  6
CONTINUOUS
100
AcDbSpline
210
0.0
220
0.0
230
1.0
 70
     8
 71
     2
 72
     6
 73
     3
 74
     0
 42
0.0000001
 43
0.0000001
 40
0.0
 40
0.0
 40
0.0
 40
1.0
 40
1.0
 40
1.0
 10
76.772465271631063
 20
106.80063336446693
 30
0.0
 10
76.447090072313131
 20
106.80063336446693
 30
0.0
 10
76.18208364931661
 20
106.90909474447182
 30
0.0
  0
SPLINE
  5
149
102
{ACAD_REACTORS
330
31
102
}
100
AcDbEntity
  8
0
  6
CONTINUOUS
100
AcDbSpline
210
0.0
220
0.0
230
1.0
 70
     8
 71
     2
 72
     6
 73
     3
 74
     0
 42
0.0000001
 43
0.0000001
 40
0.0
 40
0.0
 40
0.0
 40
1.0
 40
1.0
 40
1.0
 10
76.182083649316539
 20
106.90909474447182
 30
0.0
 10
75.91707663027357
 20
107.01755135610512
 30
0.0
 10
75.775876207032908
 20
107.2344693477433
 30
0.0
  0
SPLINE
  5
14A
102
{ACAD_REACTORS
330
31
102
}
100
AcDbEntity
  8
0
  6
CONTINUOUS
100
AcDbSpline
210
0.0
220
0.0
230
1.0
 70
     8
 71
     2
 72
     6
 73
     3
 74
     0
 42
0.0000001
 43
0.0000001
 40
0.0
 40
0.0
 40
0.0
 40
1.0
 40
1.0
 40
1.0
 10
75.775876207032979
 20
107.2344693477433
 30
0.0
 10
75.634675783792318
 20
107.4513825710099
 30
0.0
 10
75.634675783792318
 20
107.7194604213517
 30
0.0
  0
SPLINE
  5
14B
102
{ACAD_REACTORS
330
31
102
}
100
AcDbEntity
  8
0
  6
CONTINUOUS
100
AcDbSpline
210
0.0
220
0.0
230
1.0
 70
     8
 71
     2
 72
     6
 73
     3
 74
     0
 42
0.0000001
 43
0.0000001
 40
0.0
 40
0.0
 40
0.0
 40
1.0
 40
1.0
 40
1.0
 10
75.634675783792318
 20
107.7194604213517
 30
0.0
 10
75.634675783792318
 20
107.9159125621598
 30
0.0
 10
75.717554254213155
 20
108.06939213827064
 30
0.0
  0
SPLINE
  5
14C
102
{ACAD_REACTORS
330
31
102
}
100
AcDbEntity
  8
0
  6
CONTINUOUS
100
AcDbSpline
210
0.0
220
0.0
230
1.0
 70
     8
 71
     2
 72
     6
 73
     3
 74
     0
 42
0.0000001
 43
0.0000001
 40
0.0
 40
0.0
 40
0.0
 40
1.0
 40
1.0
 40
1.0
 10
75.717554254213098
 20
108.06939213827064
 30
0.0
 10
75.800432724633936
 20
108.22287171438148
 30
0.0
 10
75.933447642007593
 20
108.31905453756264
 30
0.0
  0
LINE
  5
14D
102
{ACAD_REACTORS
330
31
102
}
100
AcDbEntity
  8
0
  6
CONTINUOUS
100
AcDbLine
 10
75.933448
 20
108.319055
 30
0.0
 11
74.85705
 21
108.319055
 31
0.0
  0
LINE
  5
14E
102
{ACAD_REACTORS
330
31
102
}
100
AcDbEntity
  8
0
  6
CONTINUOUS
100
AcDbLine
 10
74.85705
 20
108.319055
 30
0.0
 11
74.85705
 21
108.685356
 31
0.0
  0
LINE
  5
14F
102
{ACAD_REACTORS
330
31
102
}
100
AcDbEntity
  8
0
  6
CONTINUOUS
100
AcDbLine
 10
74.85705
 20
108.685356
 30
0.0
 11
77.857049
 21
108.685356
 31
0.0
  0
LINE
  5
150
102
{ACAD_REACTORS
330
31
102
}
100
AcDbEntity
  8
0
  6
CONTINUOUS
100
AcDbLine
 10
77.857049
 20
108.685356
 30
0.0
 11
77.857049
 21
108.343612
 31
0.0
  0
SPLINE
  5
151
102
{ACAD_REACTORS
330
31
102
}
100
AcDbEntity
  8
0
  6
CONTINUOUS
100
AcDbSpline
210
0.0
220
0.0
230
1.0
 70
     8
 71
     2
 72
     6
 73
     3
 74
     0
 42
0.0000001
 43
0.0000001
 40
0.0
 40
0.0
 40
0.0
 40
1.0
 40
1.0
 40
1.0
 10
76.77246527163112
 20
107.17921345785072
 30
0.0
 10
77.189927858987687
 20
107.17921345785072
 30
0.0
 10
77.396612925210832
 20
107.35520451620033
 30
0.0
  0
SPLINE
  5
152
102
{ACAD_REACTORS
330
31
102
}
100
AcDbEntity
  8
0
  6
CONTINUOUS
100
AcDbSpline
210
0.0
220
0.0
230
1.0
 70
     8
 71
     2
 72
     6
 73
     3
 74
     0
 42
0.0000001
 43
0.0000001
 40
0.0
 40
0.0
 40
0.0
 40
1.0
 40
1.0
 40
1.0
 10
77.396612925210775
 20
107.35520451620033
 30
0.0
 10
77.603297991433919
 20
107.53119557454994
 30
0.0
 10
77.603297991433919
 20
107.77062028005531
 30
0.0
  0
SPLINE
  5
153
102
{ACAD_REACTORS
330
31
102
}
100
AcDbEntity
  8
0
  6
CONTINUOUS
100
AcDbSpline
210
0.0
220
0.0
230
1.0
 70
     8
 71
     2
 72
     6
 73
     3
 74
     0
 42
0.0000001
 43
0.0000001
 40
0.0
 40
0.0
 40
0.0
 40
1.0
 40
1.0
 40
1.0
 10
77.603297991433934
 20
107.77062028005531
 30
0.0
 10
77.603297991433934
 20
108.01209538534096
 30
0.0
 10
77.405821842828587
 20
108.18091958120277
 30
0.0
  0
SPLINE
  5
154
102
{ACAD_REACTORS
330
31
102
}
100
AcDbEntity
  8
0
  6
CONTINUOUS
100
AcDbSpline
210
0.0
220
0.0
230
1.0
 70
     8
 71
     2
 72
     6
 73
     3
 74
     0
 42
0.0000001
 43
0.0000001
 40
0.0
 40
0.0
 40
0.0
 40
1.0
 40
1.0
 40
1.0
 10
77.405821842828573
 20
108.18091958120277
 30
0.0
 10
77.208345694223226
 20
108.34974854543617
 30
0.0
 10
76.803161067643941
 20
108.34974854543617
 30
0.0
  0
SPLINE
  5
155
102
{ACAD_REACTORS
330
31
102
}
100
AcDbEntity
  8
0
  6
CONTINUOUS
100
AcDbSpline
210
0.0
220
0.0
230
1.0
 70
     8
 71
     2
 72
     6
 73
     3
 74
     0
 42
0.0000001
 43
0.0000001
 40
0.0
 40
0.0
 40
0.0
 40
1.0
 40
1.0
 40
1.0
 10
76.803161067643941
 20
108.34974854543617
 30
0.0
 10
76.357049507776082
 20
108.34974854543617
 30
0.0
 10
76.148318214097799
 20
108.17785351827553
 30
0.0
  0
SPLINE
  5
156
102
{ACAD_REACTORS
330
31
102
}
100
AcDbEntity
  8
0
  6
CONTINUOUS
100
AcDbSpline
210
0.0
220
0.0
230
1.0
 70
     8
 71
     2
 72
     6
 73
     3
 74
     0
 42
0.0000001
 43
0.0000001
 40
0.0
 40
0.0
 40
0.0
 40
1.0
 40
1.0
 40
1.0
 10
76.148318214097799
 20
108.17785351827553
 30
0.0
 10
75.939586920419515
 20
108.0059537227433
 30
0.0
 10
75.939586920419515
 20
107.7542504604142
 30
0.0
  0
SPLINE
  5
157
102
{ACAD_REACTORS
330
31
102
}
100
AcDbEntity
  8
0
  6
CONTINUOUS
100
AcDbSpline
210
0.0
220
0.0
230
1.0
 70
     8
 71
     2
 72
     6
 73
     3
 74
     0
 42
0.0000001
 43
0.0000001
 40
0.0
 40
0.0
 40
0.0
 40
1.0
 40
1.0
 40
1.0
 10
75.939586920419515
 20
107.7542504604142
 30
0.0
 10
75.939586920419515
 20
107.50868409231117
 30
0.0
 10
76.140132708230794
 20
107.34395115926674
 30
0.0
  0
SPLINE
  5
158
102
{ACAD_REACTORS
330
31
102
}
100
AcDbEntity
  8
0
  6
CONTINUOUS
100
AcDbSpline
210
0.0
220
0.0
230
1.0
 70
     8
 71
     2
 72
     6
 73
     3
 74
     0
 42
0.0000001
 43
0.0000001
 40
0.0
 40
0.0
 40
0.0
 40
1.0
 40
1.0
 40
1.0
 10
76.140132708230794
 20
107.34395115926674
 30
0.0
 10
76.340678496042074
 20
107.17921345785072
 30
0.0
 10
76.772465271631063
 20
107.17921345785072
 30
0.0
  0
LINE
  5
159
102
{ACAD_REACTORS
330
31
102
}
100
AcDbEntity
  8
0
  6
CONTINUOUS
100
AcDbLine
 10
77.157186
 20
110.752202
 30
0.0
 11
77.204252
 21
111.132832
 31
0.0
  0
SPLINE
  5
15A
102
{ACAD_REACTORS
330
31
102
}
100
AcDbEntity
  8
0
  6
CONTINUOUS
100
AcDbSpline
210
0.0
220
0.0
230
1.0
 70
     8
 71
     2
 72
     6
 73
     3
 74
     0
 42
0.0000001
 43
0.0000001
 40
0.0
 40
0.0
 40
0.0
 40
1.0
 40
1.0
 40
1.0
 10
77.204252047220052
 20
111.13283246114662
 30
0.0
 10
77.537812752404989
 20
111.04279130056312
 30
0.0
 10
77.721987528482259
 20
110.79927056386879
 30
0.0
  0
SPLINE
  5
15B
102
{ACAD_REACTORS
330
31
102
}
100
AcDbEntity
  8
0
  6
CONTINUOUS
100
AcDbSpline
210
0.0
220
0.0
230
1.0
 70
     8
 71
     2
 72
     6
 73
     3
 74
     0
 42
0.0000001
 43
0.0000001
 40
0.0
 40
0.0
 40
0.0
 40
1.0
 40
1.0
 40
1.0
 10
77.721987528482202
 20
110.79927056386879
 30
0.0
 10
77.906162304559473
 20
110.55574982717445
 30
0.0
 10
77.906162304559473
 20
110.17716973379066
 30
0.0
  0
SPLINE
  5
15C
102
{ACAD_REACTORS
330
31
102
}
100
AcDbEntity
  8
0
  6
CONTINUOUS
100
AcDbSpline
210
0.0
220
0.0
230
1.0
 70
     8
 71
     2
 72
     6
 73
     3
 74
     0
 42
0.0000001
 43
0.0000001
 40
0.0
 40
0.0
 40
0.0
 40
1.0
 40
1.0
 40
1.0
 10
77.90616230455953
 20
110.17716973379066
 30
0.0
 10
77.90616230455953
 20
109.70036118581703
 30
0.0
 10
77.612505716958822
 20
109.42102997854164
 30
0.0
  0
SPLINE
  5
15D
102
{ACAD_REACTORS
330
31
102
}
100
AcDbEntity
  8
0
  6
CONTINUOUS
100
AcDbSpline
210
0.0
220
0.0
230
1.0
 70
     8
 71
     2
 72
     6
 73
     3
 74
     0
 42
0.0000001
 43
0.0000001
 40
0.0
 40
0.0
 40
0.0
 40
1.0
 40
1.0
 40
1.0
 10
77.612505716958822
 20
109.42102997854164
 30
0.0
 10
77.318850321451009
 20
109.14169877126625
 30
0.0
 10
76.788836283365072
 20
109.14169877126625
 30
0.0
  0
SPLINE
  5
15E
102
{ACAD_REACTORS
330
31
102
}
100
AcDbEntity
  8
0
  6
CONTINUOUS
100
AcDbSpline
210
0.0
220
0.0
230
1.0
 70
     8
 71
     2
 72
     6
 73
     3
 74
     0
 42
0.0000001
 43
0.0000001
 40
0.0
 40
0.0
 40
0.0
 40
1.0
 40
1.0
 40
1.0
 10
76.788836283365015
 20
109.14169877126625
 30
0.0
 10
76.240405602136377
 20
109.14169877126625
 30
0.0
 10
75.937540096917871
 20
109.42410080984047
 30
0.0
  0
SPLINE
  5
15F
102
{ACAD_REACTORS
330
31
102
}
100
AcDbEntity
  8
0
  6
CONTINUOUS
100
AcDbSpline
210
0.0
220
0.0
230
1.0
 70
     8
 71
     2
 72
     6
 73
     3
 74
     0
 42
0.0000001
 43
0.0000001
 40
0.0
 40
0.0
 40
0.0
 40
1.0
 40
1.0
 40
1.0
 10
75.937540096917871
 20
109.42410080984047
 30
0.0
 10
75.634675187745813
 20
109.7064980800431
 30
0.0
 10
75.634675187745813
 20
110.15670388296058
 30
0.0
  0
SPLINE
  5
160
102
{ACAD_REACTORS
330
31
102
}
100
AcDbEntity
  8
0
  6
CONTINUOUS
100
AcDbSpline
210
0.0
220
0.0
230
1.0
 70
     8
 71
     2
 72
     6
 73
     3
 74
     0
 42
0.0000001
 43
0.0000001
 40
0.0
 40
0.0
 40
0.0
 40
1.0
 40
1.0
 40
1.0
 10
75.63467518774587
 20
110.15670388296058
 30
0.0
 10
75.63467518774587
 20
110.59258549764564
 30
0.0
 10
75.931400818506063
 20
110.86884587362221
 30
0.0
  0
SPLINE
  5
161
102
{ACAD_REACTORS
330
31
102
}
100
AcDbEntity
  8
0
  6
CONTINUOUS
100
AcDbSpline
210
0.0
220
0.0
230
1.0
 70
     8
 71
     2
 72
     6
 73
     3
 74
     0
 42
0.0000001
 43
0.0000001
 40
0.0
 40
0.0
 40
0.0
 40
1.0
 40
1.0
 40
1.0
 10
75.931400818506063
 20
110.86884587362219
 30
0.0
 10
76.228127045312704
 20
111.14511101797034
 30
0.0
 10
76.766325993219198
 20
111.14511101797034
 30
0.0
  0
SPLINE
  5
162
102
{ACAD_REACTORS
330
31
102
}
100
AcDbEntity
  8
0
  6
CONTINUOUS
100
AcDbSpline
210
0.0
220
0.0
230
1.0
 70
     8
 71
     2
 72
     6
 73
     3
 74
     0
 42
0.0000001
 43
0.0000001
 40
0.0
 40
0.0
 40
0.0
 40
1.0
 40
1.0
 40
1.0
 10
76.766325993219183
 20
111.14511101797035
 30
0.0
 10
76.799068612733649
 20
111.14511101797035
 30
0.0
 10
76.864552659669684
 20
111.14306538656166
 30
0.0
  0
LINE
  5
163
102
{ACAD_REACTORS
330
31
102
}
100
AcDbEntity
  8
0
  6
CONTINUOUS
100
AcDbLine
 10
76.864553
 20
111.143065
 30
0.0
 11
76.864553
 21
109.522324
 31
0.0
  0
SPLINE
  5
164
102
{ACAD_REACTORS
330
31
102
}
100
AcDbEntity
  8
0
  6
CONTINUOUS
100
AcDbSpline
210
0.0
220
0.0
230
1.0
 70
     8
 71
     2
 72
     6
 73
     3
 74
     0
 42
0.0000001
 43
0.0000001
 40
0.0
 40
0.0
 40
0.0
 40
1.0
 40
1.0
 40
1.0
 10
76.864552659669698
 20
109.52232449605873
 30
0.0
 10
77.222669882455648
 20
109.54279034688881
 30
0.0
 10
77.412983936944784
 20
109.72491829946449
 30
0.0
  0
SPLINE
  5
165
102
{ACAD_REACTORS
330
31
102
}
100
AcDbEntity
  8
0
  6
CONTINUOUS
100
AcDbSpline
210
0.0
220
0.0
230
1.0
 70
     8
 71
     2
 72
     6
 73
     3
 74
     0
 42
0.0000001
 43
0.0000001
 40
0.0
 40
0.0
 40
0.0
 40
1.0
 40
1.0
 40
1.0
 10
77.412983936944784
 20
109.72491829946449
 30
0.0
 10
77.603297991433919
 20
109.90704625204017
 30
0.0
 10
77.603297991433919
 20
110.17921536519935
 30
0.0
  0
SPLINE
  5
166
102
{ACAD_REACTORS
330
31
102
}
100
AcDbEntity
  8
0
  6
CONTINUOUS
100
AcDbSpline
210
0.0
220
0.0
230
1.0
 70
     8
 71
     2
 72
     6
 73
     3
 74
     0
 42
0.0000001
 43
0.0000001
 40
0.0
 40
0.0
 40
0.0
 40
1.0
 40
1.0
 40
1.0
 10
77.603297991433919
 20
110.17921536519935
 30
0.0
 10
77.603297991433919
 20
110.38180916860512
 30
0.0
 10
77.496885819116414
 20
110.52505581930092
 30
0.0
  0
SPLINE
  5
167
102
{ACAD_REACTORS
330
31
102
}
100
AcDbEntity
  8
0
  6
CONTINUOUS
100
AcDbSpline
210
0.0
220
0.0
230
1.0
 70
     8
 71
     2
 72
     6
 73
     3
 74
     0
 42
0.0000001
 43
0.0000001
 40
0.0
 40
0.0
 40
0.0
 40
1.0
 40
1.0
 40
1.0
 10
77.496885819116471
 20
110.5250558193009
 30
0.0
 10
77.390473646798966
 20
110.6683024699967
 30
0.0
 10
77.15718583551967
 20
110.75220196798254
 30
0.0
  0
LINE
  5
168
102
{ACAD_REACTORS
330
31
102
}
100
AcDbEntity
  8
0
  6
CONTINUOUS
100
AcDbLine
 10
76.561688
 20
109.54279
 30
0.0
 11
76.561688
 21
110.756293
 31
0.0
  0
SPLINE
  5
169
102
{ACAD_REACTORS
330
31
102
}
100
AcDbEntity
  8
0
  6
CONTINUOUS
100
AcDbSpline
210
0.0
220
0.0
230
1.0
 70
     8
 71
     2
 72
     6
 73
     3
 74
     0
 42
0.0000001
 43
0.0000001
 40
0.0
 40
0.0
 40
0.0
 40
1.0
 40
1.0
 40
1.0
 10
76.561687750497583
 20
110.75629323079994
 30
0.0
 10
76.287471813836817
 20
110.73174088552406
 30
0.0
 10
76.150364441552881
 20
110.6171426112931
 30
0.0
  0
SPLINE
  5
16A
102
{ACAD_REACTORS
330
31
102
}
100
AcDbEntity
  8
0
  6
CONTINUOUS
100
AcDbSpline
210
0.0
220
0.0
230
1.0
 70
     8
 71
     2
 72
     6
 73
     3
 74
     0
 42
0.0000001
 43
0.0000001
 40
0.0
 40
0.0
 40
0.0
 40
1.0
 40
1.0
 40
1.0
 10
76.150364441552938
 20
110.6171426112931
 30
0.0
 10
75.937540096917928
 20
110.4411515529435
 30
0.0
 10
75.937540096917928
 20
110.16079991414955
 30
0.0
  0
SPLINE
  5
16B
102
{ACAD_REACTORS
330
31
102
}
100
AcDbEntity
  8
0
  6
CONTINUOUS
100
AcDbSpline
210
0.0
220
0.0
230
1.0
 70
     8
 71
     2
 72
     6
 73
     3
 74
     0
 42
0.0000001
 43
0.0000001
 40
0.0
 40
0.0
 40
0.0
 40
1.0
 40
1.0
 40
1.0
 10
75.937540096917928
 20
110.16079991414955
 30
0.0
 10
75.937540096917928
 20
109.90704625204017
 30
0.0
 10
76.107390088716329
 20
109.73412602498939
 30
0.0
  0
SPLINE
  5
16C
102
{ACAD_REACTORS
330
31
102
}
100
AcDbEntity
  8
0
  6
CONTINUOUS
100
AcDbSpline
210
0.0
220
0.0
230
1.0
 70
     8
 71
     2
 72
     6
 73
     3
 74
     0
 42
0.0000001
 43
0.0000001
 40
0.0
 40
0.0
 40
0.0
 40
1.0
 40
1.0
 40
1.0
 10
76.107390088716329
 20
109.73412602498939
 30
0.0
 10
76.27724008051473
 20
109.56120579793861
 30
0.0
 10
76.56168775049764
 20
109.54279034688881
 30
0.0
  0
LWPOLYLINE
  5
16D
102
{ACAD_REACTORS
330
31
102
}
100
AcDbEntity
  8
0
  6
CONTINUOUS
100
AcDbPolyline
 90
        5
 70
     0
 10
74.857049
 20
112.761756
 10
75.28065
 20
112.761756
 10
75.28065
 20
113.130103
 10
74.857049
 20
113.130103
 10
74.857049
 20
112.761756
  0
LWPOLYLINE
  5
16E
102
{ACAD_REACTORS
330
31
102
}
100
AcDbEntity
  8
0
  6
CONTINUOUS
100
AcDbPolyline
 90
        5
 70
     0
 10
75.683789
 20
112.761756
 10
77.857049
 20
112.761756
 10
77.857049
 20
113.130103
 10
75.683789
 20
113.130103
 10
75.683789
 20
112.761756
  0
LINE
  5
16F
102
{ACAD_REACTORS
330
31
102
}
100
AcDbEntity
  8
0
  6
CONTINUOUS
100
AcDbLine
 10
77.857049
 20
113.690811
 30
0.0
 11
75.683789
 21
113.690811
 31
0.0
  0
LINE
  5
170
102
{ACAD_REACTORS
330
31
102
}
100
AcDbEntity
  8
0
  6
CONTINUOUS
100
AcDbLine
 10
75.683789
 20
113.690811
 30
0.0
 11
75.683789
 21
114.022327
 31
0.0
  0
LINE
  5
171
102
{ACAD_REACTORS
330
31
102
}
100
AcDbEntity
  8
0
  6
CONTINUOUS
100
AcDbLine
 10
75.683789
 20
114.022327
 30
0.0
 11
75.992792
 21
114.022327
 31
0.0
  0
SPLINE
  5
172
102
{ACAD_REACTORS
330
31
102
}
100
AcDbEntity
  8
0
  6
CONTINUOUS
100
AcDbSpline
210
0.0
220
0.0
230
1.0
 70
     8
 71
     2
 72
     6
 73
     3
 74
     0
 42
0.0000001
 43
0.0000001
 40
0.0
 40
0.0
 40
0.0
 40
1.0
 40
1.0
 40
1.0
 10
75.99279241053182
 20
114.02232735708169
 30
0.0
 10
75.634675783792318
 20
114.26175206258706
 30
0.0
 10
75.634675783792318
 20
114.71400349691324
 30
0.0
  0
SPLINE
  5
173
102
{ACAD_REACTORS
330
31
102
}
100
AcDbEntity
  8
0
  6
CONTINUOUS
100
AcDbSpline
210
0.0
220
0.0
230
1.0
 70
     8
 71
     2
 72
     6
 73
     3
 74
     0
 42
0.0000001
 43
0.0000001
 40
0.0
 40
0.0
 40
0.0
 40
1.0
 40
1.0
 40
1.0
 10
75.634675783792318
 20
114.71400349691322
 30
0.0
 10
75.634675783792318
 20
114.91046040609291
 30
0.0
 10
75.705275697389425
 20
115.07518857076576
 30
0.0
  0
SPLINE
  5
174
102
{ACAD_REACTORS
330
31
102
}
100
AcDbEntity
  8
0
  6
CONTINUOUS
100
AcDbSpline
210
0.0
220
0.0
230
1.0
 70
     8
 71
     2
 72
     6
 73
     3
 74
     0
 42
0.0000001
 43
0.0000001
 40
0.0
 40
0.0
 40
0.0
 40
1.0
 40
1.0
 40
1.0
 10
75.705275697389425
 20
115.07518857076576
 30
0.0
 10
75.775875610986532
 20
115.23992627218178
 30
0.0
 10
75.890473885217489
 20
115.32178013875892
 30
0.0
  0
SPLINE
  5
175
102
{ACAD_REACTORS
330
31
102
}
100
AcDbEntity
  8
0
  6
CONTINUOUS
100
AcDbSpline
210
0.0
220
0.0
230
1.0
 70
     8
 71
     2
 72
     6
 73
     3
 74
     0
 42
0.0000001
 43
0.0000001
 40
0.0
 40
0.0
 40
0.0
 40
1.0
 40
1.0
 40
1.0
 10
75.890473885217489
 20
115.32178013875892
 30
0.0
 10
76.00507096735555
 20
115.40363400533607
 30
0.0
 10
76.162642998376668
 20
115.43637841298988
 30
0.0
  0
SPLINE
  5
176
102
{ACAD_REACTORS
330
31
102
}
100
AcDbEntity
  8
0
  6
CONTINUOUS
100
AcDbSpline
210
0.0
220
0.0
230
1.0
 70
     8
 71
     2
 72
     6
 73
     3
 74
     0
 42
0.0000001
 43
0.0000001
 40
0.0
 40
0.0
 40
0.0
 40
1.0
 40
1.0
 40
1.0
 10
76.162642998376668
 20
115.43637841298988
 30
0.0
 10
76.264962119737447
 20
115.45683949544838
 30
0.0
 10
76.520760221162618
 20
115.45683949544838
 30
0.0
  0
LINE
  5
177
102
{ACAD_REACTORS
330
31
102
}
100
AcDbEntity
  8
0
  6
CONTINUOUS
100
AcDbLine
 10
76.52076
 20
115.456839
 30
0.0
 11
77.857049
 21
115.456839
 31
0.0
  0
LINE
  5
178
102
{ACAD_REACTORS
330
31
102
}
100
AcDbEntity
  8
0
  6
CONTINUOUS
100
AcDbLine
 10
77.857049
 20
115.456839
 30
0.0
 11
77.857049
 21
115.088492
 31
0.0
  0
LINE
  5
179
102
{ACAD_REACTORS
330
31
102
}
100
AcDbEntity
  8
0
  6
CONTINUOUS
100
AcDbLine
 10
77.857049
 20
115.088492
 30
0.0
 11
76.535085
 21
115.088492
 31
0.0
  0
SPLINE
  5
17A
102
{ACAD_REACTORS
330
31
102
}
100
AcDbEntity
  8
0
  6
CONTINUOUS
100
AcDbSpline
210
0.0
220
0.0
230
1.0
 70
     8
 71
     2
 72
     6
 73
     3
 74
     0
 42
0.0000001
 43
0.0000001
 40
0.0
 40
0.0
 40
0.0
 40
1.0
 40
1.0
 40
1.0
 10
76.535085005441488
 20
115.08849232747963
 30
0.0
 10
76.309982103982748
 20
115.08849232747963
 30
0.0
 10
76.198454661050619
 20
115.04551976278236
 30
0.0
  0
SPLINE
  5
17B
102
{ACAD_REACTORS
330
31
102
}
100
AcDbEntity
  8
0
  6
CONTINUOUS
100
AcDbSpline
210
0.0
220
0.0
230
1.0
 70
     8
 71
     2
 72
     6
 73
     3
 74
     0
 42
0.0000001
 43
0.0000001
 40
0.0
 40
0.0
 40
0.0
 40
1.0
 40
1.0
 40
1.0
 10
76.198454661050675
 20
115.04551976278236
 30
0.0
 10
76.086926622072099
 20
115.0025471980851
 30
0.0
 10
76.02041916338527
 20
114.89306538656166
 30
0.0
  0
SPLINE
  5
17C
102
{ACAD_REACTORS
330
31
102
}
100
AcDbEntity
  8
0
  6
CONTINUOUS
100
AcDbSpline
210
0.0
220
0.0
230
1.0
 70
     8
 71
     2
 72
     6
 73
     3
 74
     0
 42
0.0000001
 43
0.0000001
 40
0.0
 40
0.0
 40
0.0
 40
1.0
 40
1.0
 40
1.0
 10
76.020419163385213
 20
114.89306538656166
 30
0.0
 10
75.953911108651937
 20
114.78358357503822
 30
0.0
 10
75.953911108651937
 20
114.63624089315346
 30
0.0
  0
SPLINE
  5
17D
102
{ACAD_REACTORS
330
31
102
}
100
AcDbEntity
  8
0
  6
CONTINUOUS
100
AcDbSpline
210
0.0
220
0.0
230
1.0
 70
     8
 71
     2
 72
     6
 73
     3
 74
     0
 42
0.0000001
 43
0.0000001
 40
0.0
 40
0.0
 40
0.0
 40
1.0
 40
1.0
 40
1.0
 10
75.95391110865188
 20
114.63624089315346
 30
0.0
 10
75.95391110865188
 20
114.40090745046547
 30
0.0
 10
76.103297633805994
 20
114.23003285482338
 30
0.0
  0
SPLINE
  5
17E
102
{ACAD_REACTORS
330
31
102
}
100
AcDbEntity
  8
0
  6
CONTINUOUS
100
AcDbSpline
210
0.0
220
0.0
230
1.0
 70
     8
 71
     2
 72
     6
 73
     3
 74
     0
 42
0.0000001
 43
0.0000001
 40
0.0
 40
0.0
 40
0.0
 40
1.0
 40
1.0
 40
1.0
 10
76.103297633806051
 20
114.23003285482338
 30
0.0
 10
76.252683562913717
 20
114.05916302755287
 30
0.0
 10
76.670146150270284
 20
114.05916302755287
 30
0.0
  0
LINE
  5
17F
102
{ACAD_REACTORS
330
31
102
}
100
AcDbEntity
  8
0
  6
CONTINUOUS
100
AcDbLine
 10
76.670146
 20
114.059163
 30
0.0
 11
77.857049
 21
114.059163
 31
0.0
  0
LINE
  5
180
102
{ACAD_REACTORS
330
31
102
}
100
AcDbEntity
  8
0
  6
CONTINUOUS
100
AcDbLine
 10
77.857049
 20
114.059163
 30
0.0
 11
77.857049
 21
113.690811
 31
0.0
  0
LINE
  5
181
102
{ACAD_REACTORS
330
31
102
}
100
AcDbEntity
  8
0
  6
CONTINUOUS
100
AcDbLine
 10
77.208346
 20
115.874306
 30
0.0
 11
77.151047
 21
116.238562
 31
0.0
  0
SPLINE
  5
182
102
{ACAD_REACTORS
330
31
102
}
100
AcDbEntity
  8
0
  6
CONTINUOUS
100
AcDbSpline
210
0.0
220
0.0
230
1.0
 70
     8
 71
     2
 72
     6
 73
     3
 74
     0
 42
0.0000001
 43
0.0000001
 40
0.0
 40
0.0
 40
0.0
 40
1.0
 40
1.0
 40
1.0
 10
77.151046557107691
 20
116.238561564235
 30
0.0
 10
77.370010180154566
 20
116.26925557210853
 30
0.0
 10
77.486654085794214
 20
116.40943615987709
 30
0.0
  0
SPLINE
  5
183
102
{ACAD_REACTORS
330
31
102
}
100
AcDbEntity
  8
0
  6
CONTINUOUS
100
AcDbSpline
210
0.0
220
0.0
230
1.0
 70
     8
 71
     2
 72
     6
 73
     3
 74
     0
 42
0.0000001
 43
0.0000001
 40
0.0
 40
0.0
 40
0.0
 40
1.0
 40
1.0
 40
1.0
 10
77.486654085794214
 20
116.40943615987709
 30
0.0
 10
77.603297991433863
 20
116.54961197927406
 30
0.0
 10
77.603297991433863
 20
116.80132000997475
 30
0.0
  0
SPLINE
  5
184
102
{ACAD_REACTORS
330
31
102
}
100
AcDbEntity
  8
0
  6
CONTINUOUS
100
AcDbSpline
210
0.0
220
0.0
230
1.0
 70
     8
 71
     2
 72
     6
 73
     3
 74
     0
 42
0.0000001
 43
0.0000001
 40
0.0
 40
0.0
 40
0.0
 40
1.0
 40
1.0
 40
1.0
 10
77.603297991433919
 20
116.80132000997475
 30
0.0
 10
77.603297991433919
 20
117.05506890371254
 30
0.0
 10
77.499955458322347
 20
117.17784970357826
 30
0.0
  0
SPLINE
  5
185
102
{ACAD_REACTORS
330
31
102
}
100
AcDbEntity
  8
0
  6
CONTINUOUS
100
AcDbSpline
210
0.0
220
0.0
230
1.0
 70
     8
 71
     2
 72
     6
 73
     3
 74
     0
 42
0.0000001
 43
0.0000001
 40
0.0
 40
0.0
 40
0.0
 40
1.0
 40
1.0
 40
1.0
 10
77.49995545832229
 20
117.17784970357826
 30
0.0
 10
77.396612925210718
 20
117.30063527181557
 30
0.0
 10
77.257458729425196
 20
117.30063527181557
 30
0.0
  0
SPLINE
  5
186
102
{ACAD_REACTORS
330
31
102
}
100
AcDbEntity
  8
0
  6
CONTINUOUS
100
AcDbSpline
210
0.0
220
0.0
230
1.0
 70
     8
 71
     2
 72
     6
 73
     3
 74
     0
 42
0.0000001
 43
0.0000001
 40
0.0
 40
0.0
 40
0.0
 40
1.0
 40
1.0
 40
1.0
 10
77.257458729425252
 20
117.30063527181557
 30
0.0
 10
77.132628721872152
 20
117.30063527181557
 30
0.0
 10
77.061005396524251
 20
117.19217389181068
 30
0.0
  0
SPLINE
  5
187
102
{ACAD_REACTORS
330
31
102
}
100
AcDbEntity
  8
0
  6
CONTINUOUS
100
AcDbSpline
210
0.0
220
0.0
230
1.0
 70
     8
 71
     2
 72
     6
 73
     3
 74
     0
 42
0.0000001
 43
0.0000001
 40
0.0
 40
0.0
 40
0.0
 40
1.0
 40
1.0
 40
1.0
 10
77.061005396524308
 20
117.19217389181068
 30
0.0
 10
77.011892361322282
 20
117.11646168783119
 30
0.0
 10
76.936175985017655
 20
116.81564419820717
 30
0.0
  0
SPLINE
  5
188
102
{ACAD_REACTORS
330
31
102
}
100
AcDbEntity
  8
0
  6
CONTINUOUS
100
AcDbSpline
210
0.0
220
0.0
230
1.0
 70
     8
 71
     2
 72
     6
 73
     3
 74
     0
 42
0.0000001
 43
0.0000001
 40
0.0
 40
0.0
 40
0.0
 40
1.0
 40
1.0
 40
1.0
 10
76.936175985017542
 20
116.81564419820718
 30
0.0
 10
76.833856863656763
 20
116.41045659139566
 30
0.0
 10
76.75916389910293
 20
116.25391095235757
 30
0.0
  0
SPLINE
  5
189
102
{ACAD_REACTORS
330
31
102
}
100
AcDbEntity
  8
0
  6
CONTINUOUS
100
AcDbSpline
210
0.0
220
0.0
230
1.0
 70
     8
 71
     2
 72
     6
 73
     3
 74
     0
 42
0.0000001
 43
0.0000001
 40
0.0
 40
0.0
 40
0.0
 40
1.0
 40
1.0
 40
1.0
 10
76.759163899103044
 20
116.25391095235756
 30
0.0
 10
76.684470934549211
 20
116.09736054494789
 30
0.0
 10
76.552478832879899
 20
116.01653187826088
 30
0.0
  0
SPLINE
  5
18A
102
{ACAD_REACTORS
330
31
102
}
100
AcDbEntity
  8
0
  6
CONTINUOUS
100
AcDbSpline
210
0.0
220
0.0
230
1.0
 70
     8
 71
     2
 72
     6
 73
     3
 74
     0
 42
0.0000001
 43
0.0000001
 40
0.0
 40
0.0
 40
0.0
 40
1.0
 40
1.0
 40
1.0
 10
76.552478832879842
 20
116.01653187826086
 30
0.0
 10
76.420487327256978
 20
115.93569844320227
 30
0.0
 10
76.260869068780721
 20
115.93569844320227
 30
0.0
  0
SPLINE
  5
18B
102
{ACAD_REACTORS
330
31
102
}
100
AcDbEntity
  8
0
  6
CONTINUOUS
100
AcDbSpline
210
0.0
220
0.0
230
1.0
 70
     8
 71
     2
 72
     6
 73
     3
 74
     0
 42
0.0000001
 43
0.0000001
 40
0.0
 40
0.0
 40
0.0
 40
1.0
 40
1.0
 40
1.0
 10
76.260869068780664
 20
115.9356984432023
 30
0.0
 10
76.115575594583277
 20
115.9356984432023
 30
0.0
 10
75.991769594827417
 20
116.00220769002847
 30
0.0
  0
SPLINE
  5
18C
102
{ACAD_REACTORS
330
31
102
}
100
AcDbEntity
  8
0
  6
CONTINUOUS
100
AcDbSpline
210
0.0
220
0.0
230
1.0
 70
     8
 71
     2
 72
     6
 73
     3
 74
     0
 42
0.0000001
 43
0.0000001
 40
0.0
 40
0.0
 40
0.0
 40
1.0
 40
1.0
 40
1.0
 10
75.991769594827417
 20
116.00220769002846
 30
0.0
 10
75.867963595071558
 20
116.06871216848305
 30
0.0
 10
75.786107940355066
 20
116.183310442714
 30
0.0
  0
SPLINE
  5
18D
102
{ACAD_REACTORS
330
31
102
}
100
AcDbEntity
  8
0
  6
CONTINUOUS
100
AcDbSpline
210
0.0
220
0.0
230
1.0
 70
     8
 71
     2
 72
     6
 73
     3
 74
     0
 42
0.0000001
 43
0.0000001
 40
0.0
 40
0.0
 40
0.0
 40
1.0
 40
1.0
 40
1.0
 10
75.786107940355123
 20
116.183310442714
 30
0.0
 10
75.722670120874227
 20
116.26925557210853
 30
0.0
 10
75.678672356286825
 20
116.41761868551185
 30
0.0
  0
SPLINE
  5
18E
102
{ACAD_REACTORS
330
31
102
}
100
AcDbEntity
  8
0
  6
CONTINUOUS
100
AcDbSpline
210
0.0
220
0.0
230
1.0
 70
     8
 71
     2
 72
     6
 73
     3
 74
     0
 42
0.0000001
 43
0.0000001
 40
0.0
 40
0.0
 40
0.0
 40
1.0
 40
1.0
 40
1.0
 10
75.678672356286825
 20
116.41761868551185
 30
0.0
 10
75.63467518774587
 20
116.56598179891517
 30
0.0
 10
75.63467518774587
 20
116.73583119466713
 30
0.0
  0
SPLINE
  5
18F
102
{ACAD_REACTORS
330
31
102
}
100
AcDbEntity
  8
0
  6
CONTINUOUS
100
AcDbSpline
210
0.0
220
0.0
230
1.0
 70
     8
 71
     2
 72
     6
 73
     3
 74
     0
 42
0.0000001
 43
0.0000001
 40
0.0
 40
0.0
 40
0.0
 40
1.0
 40
1.0
 40
1.0
 10
75.634675187745927
 20
116.73583119466713
 30
0.0
 10
75.634675187745927
 20
116.99163525655678
 30
0.0
 10
75.708345336595414
 20
117.18501179769447
 30
0.0
  0
SPLINE
  5
190
102
{ACAD_REACTORS
330
31
102
}
100
AcDbEntity
  8
0
  6
CONTINUOUS
100
AcDbSpline
210
0.0
220
0.0
230
1.0
 70
     8
 71
     2
 72
     6
 73
     3
 74
     0
 42
0.0000001
 43
0.0000001
 40
0.0
 40
0.0
 40
0.0
 40
1.0
 40
1.0
 40
1.0
 10
75.708345336595301
 20
117.18501179769447
 30
0.0
 10
75.78201488939834
 20
117.37839787557533
 30
0.0
 10
75.907867712655786
 20
117.47048466756752
 30
0.0
  0
SPLINE
  5
191
102
{ACAD_REACTORS
330
31
102
}
100
AcDbEntity
  8
0
  6
CONTINUOUS
100
AcDbSpline
210
0.0
220
0.0
230
1.0
 70
     8
 71
     2
 72
     6
 73
     3
 74
     0
 42
0.0000001
 43
0.0000001
 40
0.0
 40
0.0
 40
0.0
 40
1.0
 40
1.0
 40
1.0
 10
75.907867712655843
 20
117.47048466756752
 30
0.0
 10
76.033720535913289
 20
117.56257145955971
 30
0.0
 10
76.244498057046712
 20
117.59736149862221
 30
0.0
  0
LINE
  5
192
102
{ACAD_REACTORS
330
31
102
}
100
AcDbEntity
  8
0
  6
CONTINUOUS
100
AcDbLine
 10
76.244498
 20
117.597361
 30
0.0
 11
76.293611
 21
117.237197
 31
0.0
  0
SPLINE
  5
193
102
{ACAD_REACTORS
330
31
102
}
100
AcDbEntity
  8
0
  6
CONTINUOUS
100
AcDbSpline
210
0.0
220
0.0
230
1.0
 70
     8
 71
     2
 72
     6
 73
     3
 74
     0
 42
0.0000001
 43
0.0000001
 40
0.0
 40
0.0
 40
0.0
 40
1.0
 40
1.0
 40
1.0
 10
76.293611092248796
 20
117.23719685628822
 30
0.0
 10
76.125807923951982
 20
117.21263974264076
 30
0.0
 10
76.031673712411759
 20
117.09497540548256
 30
0.0
  0
SPLINE
  5
194
102
{ACAD_REACTORS
330
31
102
}
100
AcDbEntity
  8
0
  6
CONTINUOUS
100
AcDbSpline
210
0.0
220
0.0
230
1.0
 70
     8
 71
     2
 72
     6
 73
     3
 74
     0
 42
0.0000001
 43
0.0000001
 40
0.0
 40
0.0
 40
0.0
 40
1.0
 40
1.0
 40
1.0
 10
76.031673712411759
 20
117.09497540548256
 30
0.0
 10
75.937540096917985
 20
116.97730629995277
 30
0.0
 10
75.937540096917985
 20
116.76243870809486
 30
0.0
  0
SPLINE
  5
195
102
{ACAD_REACTORS
330
31
102
}
100
AcDbEntity
  8
0
  6
CONTINUOUS
100
AcDbSpline
210
0.0
220
0.0
230
1.0
 70
     8
 71
     2
 72
     6
 73
     3
 74
     0
 42
0.0000001
 43
0.0000001
 40
0.0
 40
0.0
 40
0.0
 40
1.0
 40
1.0
 40
1.0
 10
75.937540096917928
 20
116.76243870809486
 30
0.0
 10
75.937540096917928
 20
116.50868504598549
 30
0.0
 10
76.021441979089559
 20
116.4002236659806
 30
0.0
  0
SPLINE
  5
196
102
{ACAD_REACTORS
330
31
102
}
100
AcDbEntity
  8
0
  6
CONTINUOUS
100
AcDbSpline
210
0.0
220
0.0
230
1.0
 70
     8
 71
     2
 72
     6
 73
     3
 74
     0
 42
0.0000001
 43
0.0000001
 40
0.0
 40
0.0
 40
0.0
 40
1.0
 40
1.0
 40
1.0
 10
76.021441979089559
 20
116.4002236659806
 30
0.0
 10
76.10534386126119
 20
116.2917670543473
 30
0.0
 10
76.21789531199056
 20
116.2917670543473
 30
0.0
  0
SPLINE
  5
197
102
{ACAD_REACTORS
330
31
102
}
100
AcDbEntity
  8
0
  6
CONTINUOUS
100
AcDbSpline
210
0.0
220
0.0
230
1.0
 70
     8
 71
     2
 72
     6
 73
     3
 74
     0
 42
0.0000001
 43
0.0000001
 40
0.0
 40
0.0
 40
0.0
 40
1.0
 40
1.0
 40
1.0
 10
76.217895311990617
 20
116.2917670543473
 30
0.0
 10
76.289518637338517
 20
116.2917670543473
 30
0.0
 10
76.346817178407548
 20
116.33678525045326
 30
0.0
  0
SPLINE
  5
198
102
{ACAD_REACTORS
330
31
102
}
100
AcDbEntity
  8
0
  6
CONTINUOUS
100
AcDbSpline
210
0.0
220
0.0
230
1.0
 70
     8
 71
     2
 72
     6
 73
     3
 74
     0
 42
0.0000001
 43
0.0000001
 40
0.0
 40
0.0
 40
0.0
 40
1.0
 40
1.0
 40
1.0
 10
76.346817178407491
 20
116.33678525045326
 30
0.0
 10
76.406162542978109
 20
116.3818082149308
 30
0.0
 10
76.445043844857992
 20
116.47798626974037
 30
0.0
  0
SPLINE
  5
199
102
{ACAD_REACTORS
330
31
102
}
100
AcDbEntity
  8
0
  6
CONTINUOUS
100
AcDbSpline
210
0.0
220
0.0
230
1.0
 70
     8
 71
     2
 72
     6
 73
     3
 74
     0
 42
0.0000001
 43
0.0000001
 40
0.0
 40
0.0
 40
0.0
 40
1.0
 40
1.0
 40
1.0
 10
76.445043844857992
 20
116.47798626974037
 30
0.0
 10
76.465507311502279
 20
116.53324215963295
 30
0.0
 10
76.539177460351766
 20
116.80336087301185
 30
0.0
  0
SPLINE
  5
19A
102
{ACAD_REACTORS
330
31
102
}
100
AcDbEntity
  8
0
  6
CONTINUOUS
100
AcDbSpline
210
0.0
220
0.0
230
1.0
 70
     8
 71
     2
 72
     6
 73
     3
 74
     0
 42
0.0000001
 43
0.0000001
 40
0.0
 40
0.0
 40
0.0
 40
1.0
 40
1.0
 40
1.0
 10
76.539177460351766
 20
116.80336087301185
 30
0.0
 10
76.643543405214132
 20
117.19422429159096
 30
0.0
 10
76.71005086390096
 20
117.34872906759193
 30
0.0
  0
SPLINE
  5
19B
102
{ACAD_REACTORS
330
31
102
}
100
AcDbEntity
  8
0
  6
CONTINUOUS
100
AcDbSpline
210
0.0
220
0.0
230
1.0
 70
     8
 71
     2
 72
     6
 73
     3
 74
     0
 42
0.0000001
 43
0.0000001
 40
0.0
 40
0.0
 40
0.0
 40
1.0
 40
1.0
 40
1.0
 10
76.71005086390096
 20
117.34872906759193
 30
0.0
 10
76.776558322587789
 20
117.50322430684975
 30
0.0
 10
76.903433961549581
 20
117.59121983602455
 30
0.0
  0
SPLINE
  5
19C
102
{ACAD_REACTORS
330
31
102
}
100
AcDbEntity
  8
0
  6
CONTINUOUS
100
AcDbSpline
210
0.0
220
0.0
230
1.0
 70
     8
 71
     2
 72
     6
 73
     3
 74
     0
 42
0.0000001
 43
0.0000001
 40
0.0
 40
0.0
 40
0.0
 40
1.0
 40
1.0
 40
1.0
 10
76.903433961549581
 20
117.59121983602455
 30
0.0
 10
77.030309600511373
 20
117.67921536519935
 30
0.0
 10
77.21857742754537
 20
117.67921536519935
 30
0.0
  0
SPLINE
  5
19D
102
{ACAD_REACTORS
330
31
102
}
100
AcDbEntity
  8
0
  6
CONTINUOUS
100
AcDbSpline
210
0.0
220
0.0
230
1.0
 70
     8
 71
     2
 72
     6
 73
     3
 74
     0
 42
0.0000001
 43
0.0000001
 40
0.0
 40
0.0
 40
0.0
 40
1.0
 40
1.0
 40
1.0
 10
77.21857742754537
 20
117.67921536519935
 30
0.0
 10
77.40275220362264
 20
117.67921536519935
 30
0.0
 10
77.565439505258382
 20
117.57178395345619
 30
0.0
  0
SPLINE
  5
19E
102
{ACAD_REACTORS
330
31
102
}
100
AcDbEntity
  8
0
  6
CONTINUOUS
100
AcDbSpline
210
0.0
220
0.0
230
1.0
 70
     8
 71
     2
 72
     6
 73
     3
 74
     0
 42
0.0000001
 43
0.0000001
 40
0.0
 40
0.0
 40
0.0
 40
1.0
 40
1.0
 40
1.0
 10
77.565439505258382
 20
117.57178395345618
 30
0.0
 10
77.728126806894124
 20
117.46434300496985
 30
0.0
 10
77.817145151773275
 20
117.26175396993567
 30
0.0
  0
SPLINE
  5
19F
102
{ACAD_REACTORS
330
31
102
}
100
AcDbEntity
  8
0
  6
CONTINUOUS
100
AcDbSpline
210
0.0
220
0.0
230
1.0
 70
     8
 71
     2
 72
     6
 73
     3
 74
     0
 42
0.0000001
 43
0.0000001
 40
0.0
 40
0.0
 40
0.0
 40
1.0
 40
1.0
 40
1.0
 10
77.817145151773218
 20
117.2617539699357
 30
0.0
 10
77.906162304559473
 20
117.05916493490152
 30
0.0
 10
77.906162304559473
 20
116.80336087301187
 30
0.0
  0
SPLINE
  5
1A0
102
{ACAD_REACTORS
330
31
102
}
100
AcDbEntity
  8
0
  6
CONTINUOUS
100
AcDbSpline
210
0.0
220
0.0
230
1.0
 70
     8
 71
     2
 72
     6
 73
     3
 74
     0
 42
0.0000001
 43
0.0000001
 40
0.0
 40
0.0
 40
0.0
 40
1.0
 40
1.0
 40
1.0
 10
77.906162304559587
 20
116.80336087301185
 30
0.0
 10
77.906162304559587
 20
116.37976258352211
 30
0.0
 10
77.730173630395768
 20
116.15773289754799
 30
0.0
  0
SPLINE
  5
1A1
102
{ACAD_REACTORS
330
31
102
}
100
AcDbEntity
  8
0
  6
CONTINUOUS
100
AcDbSpline
210
0.0
220
0.0
230
1.0
 70
     8
 71
     2
 72
     6
 73
     3
 74
     0
 42
0.0000001
 43
0.0000001
 40
0.0
 40
0.0
 40
0.0
 40
1.0
 40
1.0
 40
1.0
 10
77.730173630395711
 20
116.15773289754799
 30
0.0
 10
77.554183764138998
 20
115.93569844320228
 30
0.0
 10
77.208345694223226
 20
115.87430565908363
 30
0.0
  0
LWPOLYLINE
  5
1A2
102
{ACAD_REACTORS
330
31
102
}
100
AcDbEntity
  8
0
  6
CONTINUOUS
100
AcDbPolyline
 90
        5
 70
     0
 10
74.857049
 20
118.119188
 10
75.28065
 20
118.119188
 10
75.28065
 20
118.48754
 10
74.857049
 20
118.48754
 10
74.857049
 20
118.119188
  0
LWPOLYLINE
  5
1A3
102
{ACAD_REACTORS
330
31
102
}
100
AcDbEntity
  8
0
  6
CONTINUOUS
100
AcDbPolyline
 90
        5
 70
     0
 10
75.683789
 20
118.119188
 10
77.857049
 20
118.119188
 10
77.857049
 20
118.48754
 10
75.683789
 20
118.48754
 10
75.683789
 20
118.119188
  0
LINE
  5
1A4
102
{ACAD_REACTORS
330
31
102
}
100
AcDbEntity
  8
0
  6
CONTINUOUS
100
AcDbLine
 10
77.857049
 20
120.458203
 30
0.0
 11
77.582833
 21
120.458203
 31
0.0
  0
SPLINE
  5
1A5
102
{ACAD_REACTORS
330
31
102
}
100
AcDbEntity
  8
0
  6
CONTINUOUS
100
AcDbSpline
210
0.0
220
0.0
230
1.0
 70
     8
 71
     2
 72
     6
 73
     3
 74
     0
 42
0.0000001
 43
0.0000001
 40
0.0
 40
0.0
 40
0.0
 40
1.0
 40
1.0
 40
1.0
 10
77.582833332696737
 20
120.45820324972085
 30
0.0
 10
77.90616230455953
 20
120.25152295186929
 30
0.0
 10
77.90616230455953
 20
119.85042660787515
 30
0.0
  0
SPLINE
  5
1A6
102
{ACAD_REACTORS
330
31
102
}
100
AcDbEntity
  8
0
  6
CONTINUOUS
100
AcDbSpline
210
0.0
220
0.0
230
1.0
 70
     8
 71
     2
 72
     6
 73
     3
 74
     0
 42
0.0000001
 43
0.0000001
 40
0.0
 40
0.0
 40
0.0
 40
1.0
 40
1.0
 40
1.0
 10
77.90616230455953
 20
119.85042660787515
 30
0.0
 10
77.90616230455953
 20
119.59054081991128
 30
0.0
 10
77.762915653863729
 20
119.37259762838296
 30
0.0
  0
SPLINE
  5
1A7
102
{ACAD_REACTORS
330
31
102
}
100
AcDbEntity
  8
0
  6
CONTINUOUS
100
AcDbSpline
210
0.0
220
0.0
230
1.0
 70
     8
 71
     2
 72
     6
 73
     3
 74
     0
 42
0.0000001
 43
0.0000001
 40
0.0
 40
0.0
 40
0.0
 40
1.0
 40
1.0
 40
1.0
 10
77.762915653863786
 20
119.37259762838296
 30
0.0
 10
77.619669003167985
 20
119.15465920522622
 30
0.0
 10
77.362846893945573
 20
119.03494446828775
 30
0.0
  0
SPLINE
  5
1A8
102
{ACAD_REACTORS
330
31
102
}
100
AcDbEntity
  8
0
  6
CONTINUOUS
100
AcDbSpline
210
0.0
220
0.0
230
1.0
 70
     8
 71
     2
 72
     6
 73
     3
 74
     0
 42
0.0000001
 43
0.0000001
 40
0.0
 40
0.0
 40
0.0
 40
1.0
 40
1.0
 40
1.0
 10
77.362846893945459
 20
119.03494446828776
 30
0.0
 10
77.106025976815943
 20
118.91523449972087
 30
0.0
 10
76.772465271631006
 20
118.91523449972087
 30
0.0
  0
SPLINE
  5
1A9
102
{ACAD_REACTORS
330
31
102
}
100
AcDbEntity
  8
0
  6
CONTINUOUS
100
AcDbSpline
210
0.0
220
0.0
230
1.0
 70
     8
 71
     2
 72
     6
 73
     3
 74
     0
 42
0.0000001
 43
0.0000001
 40
0.0
 40
0.0
 40
0.0
 40
1.0
 40
1.0
 40
1.0
 10
76.772465271631063
 20
118.91523449972085
 30
0.0
 10
76.447090072313131
 20
118.91523449972085
 30
0.0
 10
76.18208364931661
 20
119.02369111135415
 30
0.0
  0
SPLINE
  5
1AA
102
{ACAD_REACTORS
330
31
102
}
100
AcDbEntity
  8
0
  6
CONTINUOUS
100
AcDbSpline
210
0.0
220
0.0
230
1.0
 70
     8
 71
     2
 72
     6
 73
     3
 74
     0
 42
0.0000001
 43
0.0000001
 40
0.0
 40
0.0
 40
0.0
 40
1.0
 40
1.0
 40
1.0
 10
76.182083649316539
 20
119.02369111135415
 30
0.0
 10
75.91707663027357
 20
119.13214772298745
 30
0.0
 10
75.775876207032908
 20
119.34906571462564
 30
0.0
  0
SPLINE
  5
1AB
102
{ACAD_REACTORS
330
31
102
}
100
AcDbEntity
  8
0
  6
CONTINUOUS
100
AcDbSpline
210
0.0
220
0.0
230
1.0
 70
     8
 71
     2
 72
     6
 73
     3
 74
     0
 42
0.0000001
 43
0.0000001
 40
0.0
 40
0.0
 40
0.0
 40
1.0
 40
1.0
 40
1.0
 10
75.775876207032979
 20
119.34906571462564
 30
0.0
 10
75.634675783792318
 20
119.56598370626382
 30
0.0
 10
75.634675783792318
 20
119.83406155660562
 30
0.0
  0
SPLINE
  5
1AC
102
{ACAD_REACTORS
330
31
102
}
100
AcDbEntity
  8
0
  6
CONTINUOUS
100
AcDbSpline
210
0.0
220
0.0
230
1.0
 70
     8
 71
     2
 72
     6
 73
     3
 74
     0
 42
0.0000001
 43
0.0000001
 40
0.0
 40
0.0
 40
0.0
 40
1.0
 40
1.0
 40
1.0
 10
75.634675783792318
 20
119.83406155660562
 30
0.0
 10
75.634675783792318
 20
120.03050892904214
 30
0.0
 10
75.717554254213155
 20
120.18399327352456
 30
0.0
  0
SPLINE
  5
1AD
102
{ACAD_REACTORS
330
31
102
}
100
AcDbEntity
  8
0
  6
CONTINUOUS
100
AcDbSpline
210
0.0
220
0.0
230
1.0
 70
     8
 71
     2
 72
     6
 73
     3
 74
     0
 42
0.0000001
 43
0.0000001
 40
0.0
 40
0.0
 40
0.0
 40
1.0
 40
1.0
 40
1.0
 10
75.717554254213098
 20
120.18399327352456
 30
0.0
 10
75.800432724633936
 20
120.33746808126382
 30
0.0
 10
75.933447642007593
 20
120.43364613607339
 30
0.0
  0
LINE
  5
1AE
102
{ACAD_REACTORS
330
31
102
}
100
AcDbEntity
  8
0
  6
CONTINUOUS
100
AcDbLine
 10
75.933448
 20
120.433646
 30
0.0
 11
74.85705
 21
120.433646
 31
0.0
  0
LINE
  5
1AF
102
{ACAD_REACTORS
330
31
102
}
100
AcDbEntity
  8
0
  6
CONTINUOUS
100
AcDbLine
 10
74.85705
 20
120.433646
 30
0.0
 11
74.85705
 21
120.799952
 31
0.0
  0
LINE
  5
1B0
102
{ACAD_REACTORS
330
31
102
}
100
AcDbEntity
  8
0
  6
CONTINUOUS
100
AcDbLine
 10
74.85705
 20
120.799952
 30
0.0
 11
77.857049
 21
120.799952
 31
0.0
  0
LINE
  5
1B1
102
{ACAD_REACTORS
330
31
102
}
100
AcDbEntity
  8
0
  6
CONTINUOUS
100
AcDbLine
 10
77.857049
 20
120.799952
 30
0.0
 11
77.857049
 21
120.458203
 31
0.0
  0
SPLINE
  5
1B2
102
{ACAD_REACTORS
330
31
102
}
100
AcDbEntity
  8
0
  6
CONTINUOUS
100
AcDbSpline
210
0.0
220
0.0
230
1.0
 70
     8
 71
     2
 72
     6
 73
     3
 74
     0
 42
0.0000001
 43
0.0000001
 40
0.0
 40
0.0
 40
0.0
 40
1.0
 40
1.0
 40
1.0
 10
76.77246527163112
 20
119.29381459310464
 30
0.0
 10
77.189927858987687
 20
119.29381459310464
 30
0.0
 10
77.396612925210832
 20
119.46980565145425
 30
0.0
  0
SPLINE
  5
1B3
102
{ACAD_REACTORS
330
31
102
}
100
AcDbEntity
  8
0
  6
CONTINUOUS
100
AcDbSpline
210
0.0
220
0.0
230
1.0
 70
     8
 71
     2
 72
     6
 73
     3
 74
     0
 42
0.0000001
 43
0.0000001
 40
0.0
 40
0.0
 40
0.0
 40
1.0
 40
1.0
 40
1.0
 10
77.396612925210775
 20
119.46980565145425
 30
0.0
 10
77.603297991433919
 20
119.64579194143228
 30
0.0
 10
77.603297991433919
 20
119.88521664693765
 30
0.0
  0
SPLINE
  5
1B4
102
{ACAD_REACTORS
330
31
102
}
100
AcDbEntity
  8
0
  6
CONTINUOUS
100
AcDbSpline
210
0.0
220
0.0
230
1.0
 70
     8
 71
     2
 72
     6
 73
     3
 74
     0
 42
0.0000001
 43
0.0000001
 40
0.0
 40
0.0
 40
0.0
 40
1.0
 40
1.0
 40
1.0
 10
77.603297991433934
 20
119.88521664693765
 30
0.0
 10
77.603297991433934
 20
120.12669175222329
 30
0.0
 10
77.405821842828587
 20
120.29551594808511
 30
0.0
  0
SPLINE
  5
1B5
102
{ACAD_REACTORS
330
31
102
}
100
AcDbEntity
  8
0
  6
CONTINUOUS
100
AcDbSpline
210
0.0
220
0.0
230
1.0
 70
     8
 71
     2
 72
     6
 73
     3
 74
     0
 42
0.0000001
 43
0.0000001
 40
0.0
 40
0.0
 40
0.0
 40
1.0
 40
1.0
 40
1.0
 10
77.405821842828573
 20
120.29551594808511
 30
0.0
 10
77.208345694223226
 20
120.46434491231851
 30
0.0
 10
76.803161067643941
 20
120.46434491231851
 30
0.0
  0
SPLINE
  5
1B6
102
{ACAD_REACTORS
330
31
102
}
100
AcDbEntity
  8
0
  6
CONTINUOUS
100
AcDbSpline
210
0.0
220
0.0
230
1.0
 70
     8
 71
     2
 72
     6
 73
     3
 74
     0
 42
0.0000001
 43
0.0000001
 40
0.0
 40
0.0
 40
0.0
 40
1.0
 40
1.0
 40
1.0
 10
76.803161067643941
 20
120.46434491231851
 30
0.0
 10
76.357049507776082
 20
120.46434491231851
 30
0.0
 10
76.148318214097799
 20
120.29244988515786
 30
0.0
  0
SPLINE
  5
1B7
102
{ACAD_REACTORS
330
31
102
}
100
AcDbEntity
  8
0
  6
CONTINUOUS
100
AcDbSpline
210
0.0
220
0.0
230
1.0
 70
     8
 71
     2
 72
     6
 73
     3
 74
     0
 42
0.0000001
 43
0.0000001
 40
0.0
 40
0.0
 40
0.0
 40
1.0
 40
1.0
 40
1.0
 10
76.148318214097799
 20
120.29244988515786
 30
0.0
 10
75.939586920419515
 20
120.12055485799722
 30
0.0
 10
75.939586920419515
 20
119.86884682729654
 30
0.0
  0
SPLINE
  5
1B8
102
{ACAD_REACTORS
330
31
102
}
100
AcDbEntity
  8
0
  6
CONTINUOUS
100
AcDbSpline
210
0.0
220
0.0
230
1.0
 70
     8
 71
     2
 72
     6
 73
     3
 74
     0
 42
0.0000001
 43
0.0000001
 40
0.0
 40
0.0
 40
0.0
 40
1.0
 40
1.0
 40
1.0
 10
75.939586920419515
 20
119.86884682729654
 30
0.0
 10
75.939586920419515
 20
119.62328045919351
 30
0.0
 10
76.140132708230794
 20
119.45854752614908
 30
0.0
  0
SPLINE
  5
1B9
102
{ACAD_REACTORS
330
31
102
}
100
AcDbEntity
  8
0
  6
CONTINUOUS
100
AcDbSpline
210
0.0
220
0.0
230
1.0
 70
     8
 71
     2
 72
     6
 73
     3
 74
     0
 42
0.0000001
 43
0.0000001
 40
0.0
 40
0.0
 40
0.0
 40
1.0
 40
1.0
 40
1.0
 10
76.140132708230794
 20
119.45854752614908
 30
0.0
 10
76.340678496042074
 20
119.29381459310464
 30
0.0
 10
76.772465271631063
 20
119.29381459310464
 30
0.0
  0
LINE
  5
1BA
102
{ACAD_REACTORS
330
31
102
}
100
AcDbEntity
  8
0
  6
CONTINUOUS
100
AcDbLine
 10
77.157186
 20
122.866803
 30
0.0
 11
77.204252
 21
123.247429
 31
0.0
  0
SPLINE
  5
1BB
102
{ACAD_REACTORS
330
31
102
}
100
AcDbEntity
  8
0
  6
CONTINUOUS
100
AcDbSpline
210
0.0
220
0.0
230
1.0
 70
     8
 71
     2
 72
     6
 73
     3
 74
     0
 42
0.0000001
 43
0.0000001
 40
0.0
 40
0.0
 40
0.0
 40
1.0
 40
1.0
 40
1.0
 10
77.204252047220052
 20
123.24742882802896
 30
0.0
 10
77.537812752404989
 20
123.15738766744546
 30
0.0
 10
77.721987528482259
 20
122.91386693075113
 30
0.0
  0
SPLINE
  5
1BC
102
{ACAD_REACTORS
330
31
102
}
100
AcDbEntity
  8
0
  6
CONTINUOUS
100
AcDbSpline
210
0.0
220
0.0
230
1.0
 70
     8
 71
     2
 72
     6
 73
     3
 74
     0
 42
0.0000001
 43
0.0000001
 40
0.0
 40
0.0
 40
0.0
 40
1.0
 40
1.0
 40
1.0
 10
77.721987528482202
 20
122.91386693075113
 30
0.0
 10
77.906162304559473
 20
122.67034619405679
 30
0.0
 10
77.906162304559473
 20
122.291766100673
 30
0.0
  0
SPLINE
  5
1BD
102
{ACAD_REACTORS
330
31
102
}
100
AcDbEntity
  8
0
  6
CONTINUOUS
100
AcDbSpline
210
0.0
220
0.0
230
1.0
 70
     8
 71
     2
 72
     6
 73
     3
 74
     0
 42
0.0000001
 43
0.0000001
 40
0.0
 40
0.0
 40
0.0
 40
1.0
 40
1.0
 40
1.0
 10
77.90616230455953
 20
122.291766100673
 30
0.0
 10
77.90616230455953
 20
121.81495755269937
 30
0.0
 10
77.612505716958822
 20
121.53562634542398
 30
0.0
  0
SPLINE
  5
1BE
102
{ACAD_REACTORS
330
31
102
}
100
AcDbEntity
  8
0
  6
CONTINUOUS
100
AcDbSpline
210
0.0
220
0.0
230
1.0
 70
     8
 71
     2
 72
     6
 73
     3
 74
     0
 42
0.0000001
 43
0.0000001
 40
0.0
 40
0.0
 40
0.0
 40
1.0
 40
1.0
 40
1.0
 10
77.612505716958822
 20
121.53562634542398
 30
0.0
 10
77.318850321451009
 20
121.25629513814859
 30
0.0
 10
76.788836283365072
 20
121.25629513814859
 30
0.0
  0
SPLINE
  5
1BF
102
{ACAD_REACTORS
330
31
102
}
100
AcDbEntity
  8
0
  6
CONTINUOUS
100
AcDbSpline
210
0.0
220
0.0
230
1.0
 70
     8
 71
     2
 72
     6
 73
     3
 74
     0
 42
0.0000001
 43
0.0000001
 40
0.0
 40
0.0
 40
0.0
 40
1.0
 40
1.0
 40
1.0
 10
76.788836283365015
 20
121.25629513814859
 30
0.0
 10
76.240405602136377
 20
121.25629513814859
 30
0.0
 10
75.937540096917871
 20
121.53869717672281
 30
0.0
  0
SPLINE
  5
1C0
102
{ACAD_REACTORS
330
31
102
}
100
AcDbEntity
  8
0
  6
CONTINUOUS
100
AcDbSpline
210
0.0
220
0.0
230
1.0
 70
     8
 71
     2
 72
     6
 73
     3
 74
     0
 42
0.0000001
 43
0.0000001
 40
0.0
 40
0.0
 40
0.0
 40
1.0
 40
1.0
 40
1.0
 10
75.937540096917871
 20
121.53869717672281
 30
0.0
 10
75.634675187745813
 20
121.82109921529702
 30
0.0
 10
75.634675187745813
 20
122.27130501821451
 30
0.0
  0
SPLINE
  5
1C1
102
{ACAD_REACTORS
330
31
102
}
100
AcDbEntity
  8
0
  6
CONTINUOUS
100
AcDbSpline
210
0.0
220
0.0
230
1.0
 70
     8
 71
     2
 72
     6
 73
     3
 74
     0
 42
0.0000001
 43
0.0000001
 40
0.0
 40
0.0
 40
0.0
 40
1.0
 40
1.0
 40
1.0
 10
75.63467518774587
 20
122.27130501821451
 30
0.0
 10
75.63467518774587
 20
122.70718663289956
 30
0.0
 10
75.931400818506063
 20
122.98344700887613
 30
0.0
  0
SPLINE
  5
1C2
102
{ACAD_REACTORS
330
31
102
}
100
AcDbEntity
  8
0
  6
CONTINUOUS
100
AcDbSpline
210
0.0
220
0.0
230
1.0
 70
     8
 71
     2
 72
     6
 73
     3
 74
     0
 42
0.0000001
 43
0.0000001
 40
0.0
 40
0.0
 40
0.0
 40
1.0
 40
1.0
 40
1.0
 10
75.931400818506063
 20
122.98344700887613
 30
0.0
 10
76.228127045312704
 20
123.25970738485269
 30
0.0
 10
76.766325993219198
 20
123.25970738485269
 30
0.0
  0
SPLINE
  5
1C3
102
{ACAD_REACTORS
330
31
102
}
100
AcDbEntity
  8
0
  6
CONTINUOUS
100
AcDbSpline
210
0.0
220
0.0
230
1.0
 70
     8
 71
     2
 72
     6
 73
     3
 74
     0
 42
0.0000001
 43
0.0000001
 40
0.0
 40
0.0
 40
0.0
 40
1.0
 40
1.0
 40
1.0
 10
76.766325993219183
 20
123.25970738485269
 30
0.0
 10
76.799068612733649
 20
123.25970738485269
 30
0.0
 10
76.864552659669684
 20
123.257661753444
 30
0.0
  0
LINE
  5
1C4
102
{ACAD_REACTORS
330
31
102
}
100
AcDbEntity
  8
0
  6
CONTINUOUS
100
AcDbLine
 10
76.864553
 20
123.257662
 30
0.0
 11
76.864553
 21
121.636926
 31
0.0
  0
SPLINE
  5
1C5
102
{ACAD_REACTORS
330
31
102
}
100
AcDbEntity
  8
0
  6
CONTINUOUS
100
AcDbSpline
210
0.0
220
0.0
230
1.0
 70
     8
 71
     2
 72
     6
 73
     3
 74
     0
 42
0.0000001
 43
0.0000001
 40
0.0
 40
0.0
 40
0.0
 40
1.0
 40
1.0
 40
1.0
 10
76.864552659669698
 20
121.63692563131265
 30
0.0
 10
77.222669882455648
 20
121.65739148214273
 30
0.0
 10
77.412983936944784
 20
121.83951466634683
 30
0.0
  0
SPLINE
  5
1C6
102
{ACAD_REACTORS
330
31
102
}
100
AcDbEntity
  8
0
  6
CONTINUOUS
100
AcDbSpline
210
0.0
220
0.0
230
1.0
 70
     8
 71
     2
 72
     6
 73
     3
 74
     0
 42
0.0000001
 43
0.0000001
 40
0.0
 40
0.0
 40
0.0
 40
1.0
 40
1.0
 40
1.0
 10
77.412983936944784
 20
121.83951466634683
 30
0.0
 10
77.603297991433919
 20
122.0216473872941
 30
0.0
 10
77.603297991433919
 20
122.29381650045327
 30
0.0
  0
SPLINE
  5
1C7
102
{ACAD_REACTORS
330
31
102
}
100
AcDbEntity
  8
0
  6
CONTINUOUS
100
AcDbSpline
210
0.0
220
0.0
230
1.0
 70
     8
 71
     2
 72
     6
 73
     3
 74
     0
 42
0.0000001
 43
0.0000001
 40
0.0
 40
0.0
 40
0.0
 40
1.0
 40
1.0
 40
1.0
 10
77.603297991433919
 20
122.29381650045327
 30
0.0
 10
77.603297991433919
 20
122.49640553548745
 30
0.0
 10
77.496885819116414
 20
122.63965695455484
 30
0.0
  0
SPLINE
  5
1C8
102
{ACAD_REACTORS
330
31
102
}
100
AcDbEntity
  8
0
  6
CONTINUOUS
100
AcDbSpline
210
0.0
220
0.0
230
1.0
 70
     8
 71
     2
 72
     6
 73
     3
 74
     0
 42
0.0000001
 43
0.0000001
 40
0.0
 40
0.0
 40
0.0
 40
1.0
 40
1.0
 40
1.0
 10
77.496885819116471
 20
122.63965695455484
 30
0.0
 10
77.390473646798966
 20
122.78289883687906
 30
0.0
 10
77.15718583551967
 20
122.86680310323648
 30
0.0
  0
LINE
  5
1C9
102
{ACAD_REACTORS
330
31
102
}
100
AcDbEntity
  8
0
  6
CONTINUOUS
100
AcDbLine
 10
76.561688
 20
121.657391
 30
0.0
 11
76.561688
 21
122.870894
 31
0.0
  0
SPLINE
  5
1CA
102
{ACAD_REACTORS
330
31
102
}
100
AcDbEntity
  8
0
  6
CONTINUOUS
100
AcDbSpline
210
0.0
220
0.0
230
1.0
 70
     8
 71
     2
 72
     6
 73
     3
 74
     0
 42
0.0000001
 43
0.0000001
 40
0.0
 40
0.0
 40
0.0
 40
1.0
 40
1.0
 40
1.0
 10
76.561687750497583
 20
122.87089436605386
 30
0.0
 10
76.287471813836817
 20
122.8463372524064
 30
0.0
 10
76.150364441552881
 20
122.73174374654702
 30
0.0
  0
SPLINE
  5
1CB
102
{ACAD_REACTORS
330
31
102
}
100
AcDbEntity
  8
0
  6
CONTINUOUS
100
AcDbSpline
210
0.0
220
0.0
230
1.0
 70
     8
 71
     2
 72
     6
 73
     3
 74
     0
 42
0.0000001
 43
0.0000001
 40
0.0
 40
0.0
 40
0.0
 40
1.0
 40
1.0
 40
1.0
 10
76.150364441552938
 20
122.73174374654702
 30
0.0
 10
75.937540096917928
 20
122.55575268819742
 30
0.0
 10
75.937540096917928
 20
122.27539628103189
 30
0.0
  0
SPLINE
  5
1CC
102
{ACAD_REACTORS
330
31
102
}
100
AcDbEntity
  8
0
  6
CONTINUOUS
100
AcDbSpline
210
0.0
220
0.0
230
1.0
 70
     8
 71
     2
 72
     6
 73
     3
 74
     0
 42
0.0000001
 43
0.0000001
 40
0.0
 40
0.0
 40
0.0
 40
1.0
 40
1.0
 40
1.0
 10
75.937540096917928
 20
122.27539628103189
 30
0.0
 10
75.937540096917928
 20
122.0216473872941
 30
0.0
 10
76.107390088716329
 20
121.84872716024331
 30
0.0
  0
SPLINE
  5
1CD
102
{ACAD_REACTORS
330
31
102
}
100
AcDbEntity
  8
0
  6
CONTINUOUS
100
AcDbSpline
210
0.0
220
0.0
230
1.0
 70
     8
 71
     2
 72
     6
 73
     3
 74
     0
 42
0.0000001
 43
0.0000001
 40
0.0
 40
0.0
 40
0.0
 40
1.0
 40
1.0
 40
1.0
 10
76.107390088716329
 20
121.84872716024331
 30
0.0
 10
76.27724008051473
 20
121.67580693319253
 30
0.0
 10
76.56168775049764
 20
121.65739148214273
 30
0.0
  0
ENDSEC
  0
SECTION
  2
OBJECTS
  0
DICTIONARY
  5
C
100
AcDbDictionary
  3
ACAD_GROUP
350
D
  3
ACAD_MLINESTYLE
350
1B
  0
DICTIONARY
  5
D
102
{ACAD_REACTORS
330
C
102
}
100
AcDbDictionary
  3
VISIOGROUP_0
350
31
  0
DICTIONARY
  5
1B
102
{ACAD_REACTORS
330
C
102
}
100
AcDbDictionary
  3
STANDARD
350
1C
  0
MLINESTYLE
  5
1C
102
{ACAD_REACTORS
330
1B
102
}
100
AcDbMlineStyle
  2
STANDARD
 70
     0
  3

 62
   256
 51
90.0
 52
90.0
 71
     2
 49
0.5
 62
   256
  6
BYLAYER
 49
-0.5
 62
   256
  6
BYLAYER
  0
DICTIONARY
  5
29
102
{ACAD_REACTORS
330
C
102
}
100
AcDbDictionary
  3
MODEL
350
2A
  3
LAYOUT1
350
2B
  0
DICTIONARY
  5
2C
102
{ACAD_REACTORS
330
C
102
}
100
AcDbDictionary
  0
GROUP
  5
31
102
{ACAD_REACTORS
330
D
102
}
100
AcDbGroup
300
Group created by Visio.
 70
     0
 71
     1
340
32
340
33
340
34
340
35
340
36
340
37
340
38
340
39
340
3A
340
3B
340
3C
340
3D
340
3E
340
3F
340
40
340
41
340
42
340
43
340
44
340
45
340
46
340
47
340
48
340
49
340
4A
340
4B
340
4C
340
4D
340
4E
340
4F
340
50
340
51
340
52
340
53
340
54
340
55
340
56
340
57
340
58
340
59
340
5A
340
5B
340
5C
340
5D
340
5E
340
5F
340
60
340
61
340
62
340
63
340
64
340
65
340
66
340
67
340
68
340
69
340
6A
340
6B
340
6C
340
6D
340
6E
340
6F
340
70
340
71
340
72
340
73
340
74
340
75
340
76
340
77
340
78
340
79
340
7A
340
7B
340
7C
340
7D
340
7E
340
7F
340
80
340
81
340
82
340
83
340
84
340
85
340
86
340
87
340
88
340
89
340
8A
340
8B
340
8C
340
8D
340
8E
340
8F
340
90
340
91
340
92
340
93
340
94
340
95
340
96
340
97
340
98
340
99
340
9A
340
9B
340
9C
340
9D
340
9E
340
9F
340
A0
340
A1
340
A2
340
A3
340
A4
340
A5
340
A6
340
A7
340
A8
340
A9
340
AA
340
AB
340
AC
340
AD
340
AE
340
AF
340
B0
340
B1
340
B2
340
B3
340
B4
340
B5
340
B6
340
B7
340
B8
340
B9
340
BA
340
BB
340
BC
340
BD
340
BE
340
BF
340
C0
340
C1
340
C2
340
C3
340
C4
340
C5
340
C6
340
C7
340
C8
340
C9
340
CA
340
CB
340
CC
340
CD
340
CE
340
CF
340
D0
340
D1
340
D2
340
D3
340
D4
340
D5
340
D6
340
D7
340
D8
340
D9
340
DA
340
DB
340
DC
340
DD
340
DE
340
DF
340
E0
340
E1
340
E2
340
E3
340
E4
340
E5
340
E6
340
E7
340
E8
340
E9
340
EA
340
EB
340
EC
340
ED
340
EE
340
EF
340
F0
340
F1
340
F2
340
F3
340
F4
340
F5
340
F6
340
F7
340
F8
340
F9
340
FA
340
FB
340
FC
340
FD
340
FE
340
FF
340
100
340
101
340
102
340
103
340
104
340
105
340
106
340
107
340
108
340
109
340
10A
340
10B
340
10C
340
10D
340
10E
340
10F
340
110
340
111
340
112
340
113
340
114
340
115
340
116
340
117
340
118
340
119
340
11A
340
11B
340
11C
340
11D
340
11E
340
11F
340
120
340
121
340
122
340
123
340
124
340
125
340
126
340
127
340
128
340
129
340
12A
340
12B
340
12C
340
12D
340
12E
340
12F
340
130
340
131
340
132
340
133
340
134
340
135
340
136
340
137
340
138
340
139
340
13A
340
13B
340
13C
340
13D
340
13E
340
13F
340
140
340
141
340
142
340
143
340
144
340
145
340
146
340
147
340
148
340
149
340
14A
340
14B
340
14C
340
14D
340
14E
340
14F
340
150
340
151
340
152
340
153
340
154
340
155
340
156
340
157
340
158
340
159
340
15A
340
15B
340
15C
340
15D
340
15E
340
15F
340
160
340
161
340
162
340
163
340
164
340
165
340
166
340
167
340
168
340
169
340
16A
340
16B
340
16C
340
16D
340
16E
340
16F
340
170
340
171
340
172
340
173
340
174
340
175
340
176
340
177
340
178
340
179
340
17A
340
17B
340
17C
340
17D
340
17E
340
17F
340
180
340
181
340
182
340
183
340
184
340
185
340
186
340
187
340
188
340
189
340
18A
340
18B
340
18C
340
18D
340
18E
340
18F
340
190
340
191
340
192
340
193
340
194
340
195
340
196
340
197
340
198
340
199
340
19A
340
19B
340
19C
340
19D
340
19E
340
19F
340
1A0
340
1A1
340
1A2
340
1A3
340
1A4
340
1A5
340
1A6
340
1A7
340
1A8
340
1A9
340
1AA
340
1AB
340
1AC
340
1AD
340
1AE
340
1AF
340
1B0
340
1B1
340
1B2
340
1B3
340
1B4
340
1B5
340
1B6
340
1B7
340
1B8
340
1B9
340
1BA
340
1BB
340
1BC
340
1BD
340
1BE
340
1BF
340
1C0
340
1C1
340
1C2
340
1C3
340
1C4
340
1C5
340
1C6
340
1C7
340
1C8
340
1C9
340
1CA
340
1CB
340
1CC
340
1CD
  0
ENDSEC
  0
EOF
