0
SECTION
2
HEADER
9
$INSUNITS
70
4
9
$ACADVER
1
AC1014
9
$HANDSEED
5
FFFF
0
ENDSEC
0
SECTION
2
TABLES
0
TABLE
2
VPORT
5
8
100
AcDbSymbolTable
0
ENDTAB
0
TABLE
2
LTYPE
5
5
100
AcDbSymbolTable
0
LTYPE
5
14
100
AcDbSymbolTableRecord
100
AcDbLinetypeTableRecord
2
BYBLOCK
70
0
0
LTYPE
5
15
100
AcDbSymbolTableRecord
100
AcDbLinetypeTableRecord
2
BYLAYER
70
0
0
ENDTAB
0
TABLE
2
LAYER
5
2
100
AcDbSymbolTable
70
2
0
LAYER
5
50
100
AcDbSymbolTableRecord
100
AcDbLayerTableRecord
2
0
70
0
6
CONTINUOUS
0
ENDTAB
0
TABLE
2
STYLE
5
3
100
AcDbSymbolTable
70
1
0
STYLE
5
11
100
AcDbSymbolTableRecord
100
AcDbTextStyleTableRecord
2
STANDARD
70
0
0
ENDTAB
0
TABLE
2
VIEW
5
6
100
AcDbSymbolTable
70
0
0
ENDTAB
0
TABLE
2
UCS
5
7
100
AcDbSymbolTable
70
0
0
ENDTAB
0
TABLE
2
APPID
5
9
100
AcDbSymbolTable
70
2
0
APPID
5
12
100
AcDbSymbolTableRecord
100
AcDbRegAppTableRecord
2
ACAD
70
0
0
ENDTAB
0
TABLE
2
DIMSTYLE
5
A
100
AcDbSymbolTable
70
1
0
ENDTAB
0
TABLE
2
BLOCK_RECORD
5
1
100
AcDbSymbolTable
70
1
0
BLOCK_RECORD
5
1F
100
AcDbSymbolTableRecord
100
AcDbBlockTableRecord
2
*MODEL_SPACE
0
BLOCK_RECORD
5
1B
100
AcDbSymbolTableRecord
100
AcDbBlockTableRecord
2
*PAPER_SPACE
0
ENDTAB
0
ENDSEC
0
SECTION
2
BLOCKS
0
BLOCK
5
20
100
AcDbEntity
100
AcDbBlockBegin
2
*MODEL_SPACE
0
ENDBLK
5
21
100
AcDbEntity
100
AcDbBlockEnd
0
BLOCK
5
1C
100
AcDbEntity
100
AcDbBlockBegin
2
*PAPER_SPACE
0
ENDBLK
5
1D
100
AcDbEntity
100
AcDbBlockEnd
0
ENDSEC
0
SECTION
2
ENTITIES
0
LWPOLYLINE
5
100
100
AcDbEntity
8
0
100
AcDbPolyline
90
4
70
1
43
0.0
10
-432.54937890936776
20
24.488423550195606
42
-0.99999999999999989
10
-430.54937890936787
20
27.952525165333419
42
0.26794919243112214
10
-372.54937890936793
20
27.952525165334055
42
-0.99999999999999989
10
-370.54937890936799
20
24.488423550196167
42
-0.26794919243112225
0
CIRCLE
5
101
100
AcDbEntity
8
0
100
AcDbCircle
10
-401.54937890936833
20
78.181998584830964
30
0
40
3.5999999999999943
210
0
220
-0
230
1
0
LWPOLYLINE
5
102
100
AcDbEntity
8
0
100
AcDbPolyline
90
18
70
1
43
0.0
10
-332.40724173437121
20
-81.818000378650936
42
-0.19891236737965706
10
-339.47830954620849
20
-78.889068190528064
10
-343.62044517064601
20
-74.746932566090493
42
0.19891236738335888
10
-350.69151298272561
20
-71.818000377926282
10
-452.40723966193013
20
-71.818000379374865
42
0.19891236737966236
10
-459.47830747383171
20
-74.74693256764229
10
-463.62044516986361
20
-78.88907026379168
42
-0.19891236348608768
10
-470.69151283182418
20
-81.818002452006994
10
-481.549377208127
20
-81.818002614599777
42
-0.41421356237310025
10
-491.54937735785501
20
-71.818002764786669
10
-491.54937825750017
20
-21.818002283202851
42
-0.14633873207981804
10
-488.26514454331516
20
-10.836965688893159
10
-421.27398314484219
20
91.139621351132632
42
-0.5395483207359667
10
-381.82477496139836
20
91.139621788782392
10
-314.83361130055459
20
-10.836963765031172
42
-0.14633873392021682
10
-311.54937735808437
20
-21.818000378650968
10
-311.54937735808437
20
-71.818000378666952
42
-0.41421356237309503
10
-321.5493773580684
20
-81.818000378650964
0
LWPOLYLINE
5
103
100
AcDbEntity
8
0
100
AcDbPolyline
90
4
70
1
43
0.0
10
-426.54937890549519
20
-57.618000378019339
10
-451.54937890550087
20
-57.618000378041614
10
-451.54937890532426
20
-63.818000378040701
10
-426.54937890546961
20
-63.818000378018482
0
LWPOLYLINE
5
104
100
AcDbEntity
8
0
100
AcDbPolyline
90
4
70
1
43
0.0
10
-376.54937890546967
20
-63.818000377974037
10
-351.54937890550048
20
-63.818000377951762
10
-351.54937890550087
20
-57.618000377952271
10
-376.54937890550229
20
-57.618000377974631
0
LWPOLYLINE
5
105
100
AcDbEntity
8
0
100
AcDbPolyline
90
4
70
1
43
0.0
10
-404.64937890524243
20
-57.618000377999579
10
-398.44937890575943
20
-57.618000378005206
10
-398.44937890575136
20
-48.618000378005135
10
-404.64937890525044
20
-48.618000377999557
0
LWPOLYLINE
5
106
100
AcDbEntity
8
0
100
AcDbPolyline
90
4
70
1
43
0.0
10
-419.79307588643684
20
-64.590239206823895
10
-383.69419142034621
20
-64.607657337910808
10
-383.69038156468429
20
-56.711773522081963
10
-419.78926603077548
20
-56.694355390994801
0
LINE
5
107
100
AcDbEntity
8
0
100
AcDbLine
10
-390.98051671083545
20
-62.156198897910144
30
0
11
-390.97906917609782
21
-59.156199127926996
31
0
0
LINE
5
108
100
AcDbEntity
8
0
100
AcDbLine
10
-390.97906917609782
20
-59.156199127926996
30
0
11
-392.10458057213998
21
-59.155656055604233
31
0
0
SPLINE
5
109
100
AcDbEntity
8
0
100
AcDbSpline
70
0
71
2
72
6
73
3
74
0
42
0.000000001
43
0.0000000001
44
0.0000000001
40
0
40
0
40
0
40
1
40
1
40
1
10
-392.10458057213992
20
-59.155656055604233
30
0
10
-392.44837297062656
20
-59.155490171778396
30
0
10
-392.65612476794013
20
-59.24645421403465
30
0
0
SPLINE
5
110
100
AcDbEntity
8
0
100
AcDbSpline
70
0
71
2
72
6
73
3
74
0
42
0.000000001
43
0.0000000001
44
0.0000000001
40
0
40
0
40
0
40
1
40
1
40
1
10
-392.65612476794013
20
-59.24645421403465
30
0
10
-392.86387716115627
20
-59.337417957980108
30
0
10
-392.98163520372617
20
-59.526651803130093
30
0
0
SPLINE
5
111
100
AcDbEntity
8
0
100
AcDbSpline
70
0
71
2
72
6
73
3
74
0
42
0.000000001
43
0.0000000001
44
0.0000000001
40
0
40
0
40
0
40
1
40
1
40
1
10
-392.98163520372617
20
-59.526651803130093
30
0
10
-393.09939384234241
20
-59.715885647992479
30
0
10
-393.09949357013238
20
-59.922570392132492
30
0
0
SPLINE
5
112
100
AcDbEntity
8
0
100
AcDbSpline
70
0
71
2
72
6
73
3
74
0
42
0.000000001
43
0.0000000001
44
0.0000000001
40
0
40
0
40
0
40
1
40
1
40
1
10
-393.09949357013238
20
-59.922570392132492
30
0
10
-393.09958638619207
20
-60.114930651684361
30
0
10
-392.99530240806337
20
-60.284830981485612
30
0
0
SPLINE
5
113
100
AcDbEntity
8
0
100
AcDbSpline
70
0
71
2
72
6
73
3
74
0
42
0.000000001
43
0.0000000001
44
0.0000000001
40
0
40
0
40
0
40
1
40
1
40
1
10
-392.99530240806337
20
-60.284830981485612
30
0
10
-392.891019025981
20
-60.454731310999257
30
0
10
-392.68029188687115
20
-60.559198350256686
30
0
0
SPLINE
5
114
100
AcDbEntity
8
0
100
AcDbSpline
70
0
71
2
72
6
73
3
74
0
42
0.000000001
43
0.0000000001
44
0.0000000001
40
0
40
0
40
0
40
1
40
1
40
1
10
-392.68029188687115
20
-60.559198350256686
30
0
10
-392.95249947717491
20
-60.638876145460955
30
0
10
-393.09890856596013
20
-60.831165507688326
30
0
0
SPLINE
5
115
100
AcDbEntity
8
0
100
AcDbSpline
70
0
71
2
72
6
73
3
74
0
42
0.000000001
43
0.0000000001
44
0.0000000001
40
0
40
0
40
0
40
1
40
1
40
1
10
-393.09890856596013
20
-60.831165507688326
30
0
10
-393.24531825093544
20
-61.023455167651292
30
0
10
-393.24544463874923
20
-61.285392516996531
30
0
0
SPLINE
5
116
100
AcDbEntity
8
0
100
AcDbSpline
70
0
71
2
72
6
73
3
74
0
42
0.000000001
43
0.0000000001
44
0.0000000001
40
0
40
0
40
0
40
1
40
1
40
1
10
-393.24544463874923
20
-61.285392516996531
30
0
10
-393.24554634133983
20
-61.496170013593613
30
0
10
-393.15661598819167
20
-61.677318081475605
30
0
0
SPLINE
5
117
100
AcDbEntity
8
0
100
AcDbSpline
70
0
71
2
72
6
73
3
74
0
42
0.000000001
43
0.0000000001
44
0.0000000001
40
0
40
0
40
0
40
1
40
1
40
1
10
-393.15661598819167
20
-61.677318081475605
30
0
10
-393.06768563504352
20
-61.858466149357589
30
0
10
-392.93676435558541
20
-61.956755402234158
30
0
0
SPLINE
5
118
100
AcDbEntity
8
0
100
AcDbSpline
70
0
71
2
72
6
73
3
74
0
42
0.000000001
43
0.0000000001
44
0.0000000001
40
0
40
0
40
0
40
1
40
1
40
1
10
-392.93676435558541
20
-61.956755402234158
30
0
10
-392.80584307641482
20
-62.055045251157104
30
0
10
-392.60839114221261
20
-62.105276976798145
30
0
0
SPLINE
5
119
100
AcDbEntity
8
0
100
AcDbSpline
70
0
71
2
72
6
73
3
74
0
42
0.000000001
43
0.0000000001
44
0.0000000001
40
0
40
0
40
0
40
1
40
1
40
1
10
-392.60839114221261
20
-62.105276976798145
30
0
10
-392.41093920801052
20
-62.155508702439171
30
0
10
-392.12444534392284
20
-62.155646939056567
30
0
0
LINE
5
120
100
AcDbEntity
8
0
100
AcDbLine
10
-392.12444534392284
20
-62.155646939056567
30
0
11
-390.98051671083545
21
-62.156198897910144
31
0
0
LINE
5
121
100
AcDbEntity
8
0
100
AcDbLine
10
-391.37667589572368
20
-60.416580692744532
30
0
11
-392.02537999138951
21
-60.416267685482893
31
0
0
SPLINE
5
122
100
AcDbEntity
8
0
100
AcDbSpline
70
0
71
2
72
6
73
3
74
0
42
0.000000001
43
0.0000000001
44
0.0000000001
40
0
40
0
40
0
40
1
40
1
40
1
10
-392.02537999138951
20
-60.416267685482893
30
0
10
-392.28936297190535
20
-60.416140310628307
30
0
10
-392.40394385072887
20
-60.381296173003953
30
0
0
SPLINE
5
123
100
AcDbEntity
8
0
100
AcDbSpline
70
0
71
2
72
6
73
3
74
0
42
0.000000001
43
0.0000000001
44
0.0000000001
40
0
40
0
40
0
40
1
40
1
40
1
10
-392.40394385072887
20
-60.381296173003953
30
0
10
-392.55535486290341
20
-60.336202827922477
30
0
10
-392.63204368834818
20
-60.231800165685158
30
0
0
SPLINE
5
124
100
AcDbEntity
8
0
100
AcDbSpline
70
0
71
2
72
6
73
3
74
0
42
0.000000001
43
0.0000000001
44
0.0000000001
40
0
40
0
40
0
40
1
40
1
40
1
10
-392.63204368834818
20
-60.231800165685158
30
0
10
-392.70873310983939
20
-60.127397503160232
30
0
10
-392.70865707965663
20
-59.969825788505062
30
0
0
SPLINE
5
125
100
AcDbEntity
8
0
100
AcDbSpline
70
0
71
2
72
6
73
3
74
0
42
0.000000001
43
0.0000000001
44
0.0000000001
40
0
40
0
40
0
40
1
40
1
40
1
10
-392.70865707965663
20
-59.969825788505062
30
0
10
-392.70858499921894
20
-59.820439876787219
30
0
10
-392.63690628526575
20
-59.70690018294458
30
0
0
SPLINE
5
126
100
AcDbEntity
8
0
100
AcDbSpline
70
0
71
2
72
6
73
3
74
0
42
0.000000001
43
0.0000000001
44
0.0000000001
40
0
40
0
40
0
40
1
40
1
40
1
10
-392.63690628526575
20
-59.70690018294458
30
0
10
-392.56522816721514
20
-59.593360190791159
30
0
10
-392.43219302351156
20
-59.551473435824093
30
0
0
SPLINE
5
127
100
AcDbEntity
8
0
100
AcDbSpline
70
0
71
2
72
6
73
3
74
0
42
0.000000001
43
0.0000000001
44
0.0000000001
40
0
40
0
40
0
40
1
40
1
40
1
10
-392.43219302351156
20
-59.551473435824093
30
0
10
-392.29915787995185
20
-59.509586978880208
30
0
10
-391.97582894572736
20
-59.509742988846824
30
0
0
LINE
5
128
100
AcDbEntity
8
0
100
AcDbLine
10
-391.97582894572736
20
-59.509742988846824
30
0
11
-391.37623847559263
21
-59.510032298213638
31
0
0
LINE
5
129
100
AcDbEntity
8
0
100
AcDbLine
10
-391.37623847559263
20
-59.510032298213638
30
0
11
-391.37667589572368
21
-60.416580692744532
31
0
0
LINE
5
130
100
AcDbEntity
8
0
100
AcDbLine
10
-391.37734436824417
20
-61.801982614868571
30
0
11
-392.12427452287977
21
-61.801622212392466
31
0
0
SPLINE
5
131
100
AcDbEntity
8
0
100
AcDbSpline
70
0
71
2
72
6
73
3
74
0
42
0.000000001
43
0.0000000001
44
0.0000000001
40
0
40
0
40
0
40
1
40
1
40
1
10
-392.12427452287977
20
-61.801622212392466
30
0
10
-392.31663478243161
20
-61.801529396332732
30
0
10
-392.39439046555276
20
-61.787167688412516
30
0
0
SPLINE
5
132
100
AcDbEntity
8
0
100
AcDbSpline
70
0
71
2
72
6
73
3
74
0
42
0.000000001
43
0.0000000001
44
0.0000000001
40
0
40
0
40
0
40
1
40
1
40
1
10
-392.39439046555276
20
-61.787167688412516
30
0
10
-392.53148656883133
20
-61.762544421444034
30
0
10
-392.6235457028954
20
-61.705201454103374
30
0
0
SPLINE
5
133
100
AcDbEntity
8
0
100
AcDbSpline
70
0
71
2
72
6
73
3
74
0
42
0.000000001
43
0.0000000001
44
0.0000000001
40
0
40
0
40
0
40
1
40
1
40
1
10
-392.6235457028954
20
-61.705201454103374
30
0
10
-392.71560543300581
20
-61.647858486475144
30
0
10
-392.77489796442842
20
-61.538348052871896
30
0
0
SPLINE
5
134
100
AcDbEntity
8
0
100
AcDbSpline
70
0
71
2
72
6
73
3
74
0
42
0.000000001
43
0.0000000001
44
0.0000000001
40
0
40
0
40
0
40
1
40
1
40
1
10
-392.77489796442842
20
-61.538348052871896
30
0
10
-392.8341898998047
20
-61.428837619556262
30
0
10
-392.83412078163974
20
-61.285590985535606
30
0
0
SPLINE
5
135
100
AcDbEntity
8
0
100
AcDbSpline
70
0
71
2
72
6
73
3
74
0
42
0.000000001
43
0.0000000001
44
0.0000000001
40
0
40
0
40
0
40
1
40
1
40
1
10
-392.83412078163974
20
-61.285590985535606
30
0
10
-392.83403981438369
20
-61.117787240726173
30
0
10
-392.74803257298231
20
-60.994022726051263
30
0
0
SPLINE
5
136
100
AcDbEntity
8
0
100
AcDbSpline
70
0
71
2
72
6
73
3
74
0
42
0.000000001
43
0.0000000001
44
0.0000000001
40
0
40
0
40
0
40
1
40
1
40
1
10
-392.74803257298231
20
-60.994022726051263
30
0
10
-392.66202413920053
20
-60.870257615905182
30
0
10
-392.50954439721886
20
-60.820194736362787
30
0
0
SPLINE
5
137
100
AcDbEntity
8
0
100
AcDbSpline
70
0
71
2
72
6
73
3
74
0
42
0.000000001
43
0.0000000001
44
0.0000000001
40
0
40
0
40
0
40
1
40
1
40
1
10
-392.50954439721886
20
-60.820194736362787
30
0
10
-392.3570646552372
20
-60.770131856820385
30
0
10
-392.07057079114952
20
-60.770270093437787
30
0
0
LINE
5
138
100
AcDbEntity
8
0
100
AcDbLine
10
-392.07057079114952
20
-60.770270093437787
30
0
11
-391.37684671647901
21
-60.770604823362255
31
0
0
LINE
5
139
100
AcDbEntity
8
0
100
AcDbLine
10
-391.37684671647901
20
-60.770604823362255
30
0
11
-391.37734436824417
21
-61.801982614868571
31
0
0
SPLINE
5
140
100
AcDbEntity
8
0
100
AcDbSpline
70
0
71
2
72
6
73
3
74
0
42
0.000000001
43
0.0000000001
44
0.0000000001
40
0
40
0
40
0
40
1
40
1
40
1
10
-395.16319646512676
20
-61.886104016886478
30
0
10
-394.95864217575581
20
-62.060145779710851
30
0
10
-394.76938671018132
20
-62.131860431356898
30
0
0
SPLINE
5
141
100
AcDbEntity
8
0
100
AcDbSpline
70
0
71
2
72
6
73
3
74
0
42
0.000000001
43
0.0000000001
44
0.0000000001
40
0
40
0
40
0
40
1
40
1
40
1
10
-394.76938671018132
20
-62.131860431356898
30
0
10
-394.58013005251416
20
-62.203575083578144
30
0
10
-394.36321447031264
20
-62.203679747866296
30
0
0
SPLINE
5
142
100
AcDbEntity
8
0
100
AcDbSpline
70
0
71
2
72
6
73
3
74
0
42
0.000000001
43
0.0000000001
44
0.0000000001
40
0
40
0
40
0
40
1
40
1
40
1
10
-394.36321447031264
20
-62.203679747866296
30
0
10
-394.00509669316824
20
-62.203852543853735
30
0
10
-393.81265260661343
20
-62.028979521533941
30
0
0
SPLINE
5
143
100
AcDbEntity
8
0
100
AcDbSpline
70
0
71
2
72
6
73
3
74
0
42
0.000000001
43
0.0000000001
44
0.0000000001
40
0
40
0
40
0
40
1
40
1
40
1
10
-393.81265260661343
20
-62.028979521533941
30
0
10
-393.62020732796594
20
-61.854106499789353
30
0
10
-393.62007600322249
20
-61.581937418313032
30
0
0
SPLINE
5
144
100
AcDbEntity
8
0
100
AcDbSpline
70
0
71
2
72
6
73
3
74
0
42
0.000000001
43
0.0000000001
44
0.0000000001
40
0
40
0
40
0
40
1
40
1
40
1
10
-393.62007600322249
20
-61.581937418313032
30
0
10
-393.61999898556758
20
-61.42231917841773
30
0
10
-393.69258143073591
20
-61.290292635556973
30
0
0
SPLINE
5
145
100
AcDbEntity
8
0
100
AcDbSpline
70
0
71
2
72
6
73
3
74
0
42
0.000000001
43
0.0000000001
44
0.0000000001
40
0
40
0
40
0
40
1
40
1
40
1
10
-393.69258143073591
20
-61.290292635556973
30
0
10
-393.76516506799703
20
-61.158266092121025
30
0
10
-393.88279326667231
20
-61.078399898596906
30
0
0
SPLINE
5
146
100
AcDbEntity
8
0
100
AcDbSpline
70
0
71
2
72
6
73
3
74
0
42
0.000000001
43
0.0000000001
44
0.0000000001
40
0
40
0
40
0
40
1
40
1
40
1
10
-393.88279326667231
20
-61.078399898596906
30
0
10
-394.000422657728
20
-60.998534300543959
30
0
10
-394.14774199817646
20
-60.957535683151562
30
0
0
SPLINE
5
147
100
AcDbEntity
8
0
100
AcDbSpline
70
0
71
2
72
6
73
3
74
0
42
0.000000001
43
0.0000000001
44
0.0000000001
40
0
40
0
40
0
40
1
40
1
40
1
10
-394.14774199817646
20
-60.957535683151562
30
0
10
-394.2561859655292
20
-60.928833785784811
30
0
10
-394.475136726811
20
-60.902125093322908
30
0
0
SPLINE
5
148
100
AcDbEntity
8
0
100
AcDbSpline
70
0
71
2
72
6
73
3
74
0
42
0.000000001
43
0.0000000001
44
0.0000000001
40
0
40
0
40
0
40
1
40
1
40
1
10
-394.475136726811
20
-60.902125093322908
30
0
10
-394.92122315824236
20
-60.84870375908551
30
0
10
-395.13196510828482
20
-60.774932214244515
30
0
0
SPLINE
5
149
100
AcDbEntity
8
0
100
AcDbSpline
70
0
71
2
72
6
73
3
74
0
42
0.000000001
43
0.0000000001
44
0.0000000001
40
0
40
0
40
0
40
1
40
1
40
1
10
-395.13196510828482
20
-60.774932214244515
30
0
10
-395.13397539752123
20
-60.699214859137939
30
0
10
-395.13396552366203
20
-60.678751394875768
30
0
0
SPLINE
5
150
100
AcDbEntity
8
0
100
AcDbSpline
70
0
71
2
72
6
73
3
74
0
42
0.000000001
43
0.0000000001
44
0.0000000001
40
0
40
0
40
0
40
1
40
1
40
1
10
-395.13396552366203
20
-60.678751394875768
30
0
10
-395.13385690905363
20
-60.453648817644151
30
0
10
-395.02944713930134
20
-60.361612095835753
30
0
0
SPLINE
5
151
100
AcDbEntity
8
0
100
AcDbSpline
70
0
71
2
72
6
73
3
74
0
42
0.000000001
43
0.0000000001
44
0.0000000001
40
0
40
0
40
0
40
1
40
1
40
1
10
-395.02944713930134
20
-60.361612095835753
30
0
10
-394.88818590481713
20
-60.236850829984434
30
0
10
-394.60987754564366
20
-60.236985117000614
30
0
0
SPLINE
5
152
100
AcDbEntity
8
0
100
AcDbSpline
70
0
71
2
72
6
73
3
74
0
42
0.000000001
43
0.0000000001
44
0.0000000001
40
0
40
0
40
0
40
1
40
1
40
1
10
-394.60987754564366
20
-60.236985117000614
30
0
10
-394.34998701956169
20
-60.237110517198396
30
0
10
-394.22622497363921
20
-60.328234220711678
30
0
0
SPLINE
5
153
100
AcDbEntity
8
0
100
AcDbSpline
70
0
71
2
72
6
73
3
74
0
42
0.000000001
43
0.0000000001
44
0.0000000001
40
0
40
0
40
0
40
1
40
1
40
1
10
-394.22622497363921
20
-60.328234220711678
30
0
10
-394.10246173562393
20
-60.419357924800167
30
0
10
-394.04322855074543
20
-60.650628116242629
30
0
0
LINE
5
154
100
AcDbEntity
8
0
100
AcDbLine
10
-394.04322855074543
20
-60.650628116242629
30
0
11
-393.68304144467942
21
-60.60168857176285
31
0
0
SPLINE
5
155
100
AcDbEntity
8
0
100
AcDbSpline
70
0
71
2
72
6
73
3
74
0
42
0.000000001
43
0.0000000001
44
0.0000000001
40
0
40
0
40
0
40
1
40
1
40
1
10
-393.68304144467942
20
-60.601688571762836
30
0
10
-393.73204289757069
20
-60.370423615273168
30
0
10
-393.84452571055363
20
-60.228145489461731
30
0
0
SPLINE
5
156
100
AcDbEntity
8
0
100
AcDbSpline
70
0
71
2
72
6
73
3
74
0
42
0.000000001
43
0.0000000001
44
0.0000000001
40
0
40
0
40
0
40
1
40
1
40
1
10
-393.84452571055363
20
-60.228145489461731
30
0
10
-393.95700733144372
20
-60.0858673642255
30
0
10
-394.16979462375696
20
-60.009025490943088
30
0
0
SPLINE
5
157
100
AcDbEntity
8
0
100
AcDbSpline
70
0
71
2
72
6
73
3
74
0
42
0.000000001
43
0.0000000001
44
0.0000000001
40
0
40
0
40
0
40
1
40
1
40
1
10
-394.16979462375696
20
-60.009025490943088
30
0
10
-394.38258191578245
20
-59.932183021614307
30
0
10
-394.66293590612651
20
-59.93204774755732
30
0
0
SPLINE
5
158
100
AcDbEntity
8
0
100
AcDbSpline
70
0
71
2
72
6
73
3
74
0
42
0.000000001
43
0.0000000001
44
0.0000000001
40
0
40
0
40
0
40
1
40
1
40
1
10
-394.66293590612651
20
-59.93204774755732
30
0
10
-394.94124426530004
20
-59.931913460541125
30
0
10
-395.11521888490392
20
-59.997314166371716
30
0
0
SPLINE
5
159
100
AcDbEntity
8
0
100
AcDbSpline
70
0
71
2
72
6
73
3
74
0
42
0.000000001
43
0.0000000001
44
0.0000000001
40
0
40
0
40
0
40
1
40
1
40
1
10
-395.11521888490392
20
-59.997314166371716
30
0
10
-395.28919350422024
20
-60.062714276155916
30
0
10
-395.37109644252786
20
-60.161924548768397
30
0
0
SPLINE
5
160
100
AcDbEntity
8
0
100
AcDbSpline
70
0
71
2
72
6
73
3
74
0
42
0.000000001
43
0.0000000001
44
0.0000000001
40
0
40
0
40
0
40
1
40
1
40
1
10
-395.37109644252786
20
-60.161924548768397
30
0
10
-395.45299938083559
20
-60.261134821380864
30
0
10
-395.48581446825824
20
-60.412551161910827
30
0
0
SPLINE
5
161
100
AcDbEntity
8
0
100
AcDbSpline
70
0
71
2
72
6
73
3
74
0
42
0.000000001
43
0.0000000001
44
0.0000000001
40
0
40
0
40
0
40
1
40
1
40
1
10
-395.48581446825824
20
-60.412551161910827
30
0
10
-395.50427772205131
20
-60.506676177651414
30
0
10
-395.50439621051885
20
-60.752242219145181
30
0
0
LINE
5
162
100
AcDbEntity
8
0
100
AcDbLine
10
-395.50439621051885
20
-60.752242219145188
30
0
11
-395.50463318774166
21
-61.243374898179113
31
0
0
SPLINE
5
163
100
AcDbEntity
8
0
100
AcDbSpline
70
0
71
2
72
6
73
3
74
0
42
0.000000001
43
0.0000000001
44
0.0000000001
40
0
40
0
40
0
40
1
40
1
40
1
10
-395.50463318774166
20
-61.243374898179106
30
0
10
-395.50488102615196
20
-61.757017268692138
30
0
10
-395.52847979163437
20
-61.893090454434684
30
0
0
SPLINE
5
164
100
AcDbEntity
8
0
100
AcDbSpline
70
0
71
2
72
6
73
3
74
0
42
0.000000001
43
0.0000000001
44
0.0000000001
40
0
40
0
40
0
40
1
40
1
40
1
10
-395.52847979163437
20
-61.893090454434684
30
0
10
-395.55207855711683
20
-62.029163640177231
30
0
10
-395.6217164745907
20
-62.153959465111008
30
0
0
LINE
5
165
100
AcDbEntity
8
0
100
AcDbLine
10
-395.6217164745907
20
-62.153959465111008
30
0
11
-395.23699595548692
21
-62.154145097230469
31
0
0
SPLINE
5
166
100
AcDbEntity
8
0
100
AcDbSpline
70
0
71
2
72
6
73
3
74
0
42
0.000000001
43
0.0000000001
44
0.0000000001
40
0
40
0
40
0
40
1
40
1
40
1
10
-395.23699595548698
20
-62.154145097230469
30
0
10
-395.17964272242989
20
-62.039575079306964
30
0
10
-395.16319646512676
20
-61.886104016886478
30
0
0
SPLINE
5
167
100
AcDbEntity
8
0
100
AcDbSpline
70
0
71
2
72
6
73
3
74
0
42
0.000000001
43
0.0000000001
44
0.0000000001
40
0
40
0
40
0
40
1
40
1
40
1
10
-395.1321043322306
20
-61.063472305549112
30
0
10
-394.93159806406419
20
-61.145424716397834
30
0
10
-394.5305341823406
20
-61.202916782118692
30
0
0
SPLINE
5
168
100
AcDbEntity
8
0
100
AcDbSpline
70
0
71
2
72
6
73
3
74
0
42
0.000000001
43
0.0000000001
44
0.0000000001
40
0
40
0
40
0
40
1
40
1
40
1
10
-394.5305341823406
20
-61.202916782118692
30
0
10
-394.30340147460765
20
-61.235768999614578
30
0
10
-394.20928761807795
20
-61.276741944742945
30
0
0
SPLINE
5
169
100
AcDbEntity
8
0
100
AcDbSpline
70
0
71
2
72
6
73
3
74
0
42
0.000000001
43
0.0000000001
44
0.0000000001
40
0
40
0
40
0
40
1
40
1
40
1
10
-394.20928761807795
20
-61.276741944742945
30
0
10
-394.11517376154814
20
-61.317714889871304
30
0
10
-394.06405192396329
20
-61.396525581433721
30
0
0
SPLINE
5
170
100
AcDbEntity
8
0
100
AcDbSpline
70
0
71
2
72
6
73
3
74
0
42
0.000000001
43
0.0000000001
44
0.0000000001
40
0
40
0
40
0
40
1
40
1
40
1
10
-394.06405192396329
20
-61.396525581433721
30
0
10
-394.01293008609071
20
-61.475335676949769
30
0
10
-394.01297649426442
20
-61.571516104748881
30
0
0
SPLINE
5
171
100
AcDbEntity
8
0
100
AcDbSpline
70
0
71
2
72
6
73
3
74
0
42
0.000000001
43
0.0000000001
44
0.0000000001
40
0
40
0
40
0
40
1
40
1
40
1
10
-394.01297649426442
20
-61.571516104748881
30
0
10
-394.01304758737365
20
-61.718855789249787
30
0
10
-394.1246236046303
20
-61.817028034363794
30
0
0
SPLINE
5
172
100
AcDbEntity
8
0
100
AcDbSpline
70
0
71
2
72
6
73
3
74
0
42
0.000000001
43
0.0000000001
44
0.0000000001
40
0
40
0
40
0
40
1
40
1
40
1
10
-394.1246236046303
20
-61.817028034363794
30
0
10
-394.23619843008169
20
-61.915200876099377
30
0
10
-394.45106838111269
20
-61.915097198852031
30
0
0
SPLINE
5
173
100
AcDbEntity
8
0
100
AcDbSpline
70
0
71
2
72
6
73
3
74
0
42
0.000000001
43
0.0000000001
44
0.0000000001
40
0
40
0
40
0
40
1
40
1
40
1
10
-394.45106838111269
20
-61.915097198852031
30
0
10
-394.66389270097307
20
-61.914994508645485
30
0
10
-394.82960588786227
20
-61.821804335526032
30
0
0
SPLINE
5
174
100
AcDbEntity
8
0
100
AcDbSpline
70
0
71
2
72
6
73
3
74
0
42
0.000000001
43
0.0000000001
44
0.0000000001
40
0
40
0
40
0
40
1
40
1
40
1
10
-394.82960588786227
20
-61.821804335526032
30
0
10
-394.9953166902784
20
-61.7286135675106
30
0
10
-395.07300247209537
20
-61.566911578467902
30
0
0
SPLINE
5
175
100
AcDbEntity
8
0
100
AcDbSpline
70
0
71
2
72
6
73
3
74
0
42
0.000000001
43
0.0000000001
44
0.0000000001
40
0
40
0
40
0
40
1
40
1
40
1
10
-395.07300247209537
20
-61.566911578467902
30
0
10
-395.13228700207719
20
-61.442053546955641
30
0
10
-395.13216950108188
20
-61.198534030702007
30
0
0
LINE
5
176
100
AcDbEntity
8
0
100
AcDbLine
10
-395.13216950108188
20
-61.198534030702014
30
0
11
-395.1321043322306
21
-61.063472305549112
31
0
0
LINE
5
177
100
AcDbEntity
8
0
100
AcDbLine
10
-395.92836139172528
20
-61.505107258680887
30
0
11
-396.29259079935832
21
-61.447632966021658
31
0
0
SPLINE
5
178
100
AcDbEntity
8
0
100
AcDbSpline
70
0
71
2
72
6
73
3
74
0
42
0.000000001
43
0.0000000001
44
0.0000000001
40
0
40
0
40
0
40
1
40
1
40
1
10
-396.29259079935844
20
-61.447632966021658
30
0
10
-396.32339164794337
20
-61.666581156744058
30
0
10
-396.46362492514834
20
-61.783157411776848
30
0
0
SPLINE
5
179
100
AcDbEntity
8
0
100
AcDbSpline
70
0
71
2
72
6
73
3
74
0
42
0.000000001
43
0.0000000001
44
0.0000000001
40
0
40
0
40
0
40
1
40
1
40
1
10
-396.46362492514834
20
-61.783157411776848
30
0
10
-396.60385939444603
20
-61.89973366623444
30
0
10
-396.85556381956735
20
-61.899612215925465
30
0
0
SPLINE
5
180
100
AcDbEntity
8
0
100
AcDbSpline
70
0
71
2
72
6
73
3
74
0
42
0.000000001
43
0.0000000001
44
0.0000000001
40
0
40
0
40
0
40
1
40
1
40
1
10
-396.85556381956735
20
-61.899612215925465
30
0
10
-397.10931626004486
20
-61.899489777425302
30
0
10
-397.23204956583652
20
-61.796088012038012
30
0
0
SPLINE
5
181
100
AcDbEntity
8
0
100
AcDbSpline
70
0
71
2
72
6
73
3
74
0
42
0.000000001
43
0.0000000001
44
0.0000000001
40
0
40
0
40
0
40
1
40
1
40
1
10
-397.23204956583652
20
-61.796088012038012
30
0
10
-397.35478287191569
20
-61.692686842697107
30
0
10
-397.3547157284076
20
-61.553532663110346
30
0
0
SPLINE
5
182
100
AcDbEntity
8
0
100
AcDbSpline
70
0
71
2
72
6
73
3
74
0
42
0.000000001
43
0.0000000001
44
0.0000000001
40
0
40
0
40
0
40
1
40
1
40
1
10
-397.3547157284076
20
-61.553532663110346
30
0
10
-397.35465549677349
20
-61.428703266134917
30
0
10
-397.24616195420992
20
-61.357131685797491
30
0
0
SPLINE
5
183
100
AcDbEntity
8
0
100
AcDbSpline
70
0
71
2
72
6
73
3
74
0
42
0.000000001
43
0.0000000001
44
0.0000000001
40
0
40
0
40
0
40
1
40
1
40
1
10
-397.24616195420992
20
-61.357131685797491
30
0
10
-397.17042129306577
20
-61.308055190627108
30
0
10
-396.86956730443262
20
-61.232483971052723
30
0
0
SPLINE
5
184
100
AcDbEntity
8
0
100
AcDbSpline
70
0
71
2
72
6
73
3
74
0
42
0.000000001
43
0.0000000001
44
0.0000000001
40
0
40
0
40
0
40
1
40
1
40
1
10
-396.86956730443262
20
-61.232483971052723
30
0
10
-396.46433275881515
20
-61.130360368156659
30
0
10
-396.30774871359597
20
-61.055742948528646
30
0
0
SPLINE
5
185
100
AcDbEntity
8
0
100
AcDbSpline
70
0
71
2
72
6
73
3
74
0
42
0.000000001
43
0.0000000001
44
0.0000000001
40
0
40
0
40
0
40
1
40
1
40
1
10
-396.30774871359597
20
-61.055742948528646
30
0
10
-396.15116466837674
20
-60.981125528900634
30
0
10
-396.07026874710579
20
-60.849172445088001
30
0
0
SPLINE
5
186
100
AcDbEntity
8
0
100
AcDbSpline
70
0
71
2
72
6
73
3
74
0
42
0.000000001
43
0.0000000001
44
0.0000000001
40
0
40
0
40
0
40
1
40
1
40
1
10
-396.07026874710579
20
-60.849172445088001
30
0
10
-395.98937282612241
20
-60.717219957321753
30
0
10
-395.98929580846743
20
-60.557601717426451
30
0
0
SPLINE
5
187
100
AcDbEntity
8
0
100
AcDbSpline
70
0
71
2
72
6
73
3
74
0
42
0.000000001
43
0.0000000001
44
0.0000000001
40
0
40
0
40
0
40
1
40
1
40
1
10
-395.98929580846743
20
-60.557601717426451
30
0
10
-395.98922570268655
20
-60.412308260142488
30
0
10
-396.05567281975885
20
-60.288470184468679
30
0
0
SPLINE
5
188
100
AcDbEntity
8
0
100
AcDbSpline
70
0
71
2
72
6
73
3
74
0
42
0.000000001
43
0.0000000001
44
0.0000000001
40
0
40
0
40
0
40
1
40
1
40
1
10
-396.05567281975885
20
-60.288470184468679
30
0
10
-396.12212112878012
20
-60.164631810196482
30
0
10
-396.23667870142231
20
-60.082721168615016
30
0
0
SPLINE
5
189
100
AcDbEntity
8
0
100
AcDbSpline
70
0
71
2
72
6
73
3
74
0
42
0.000000001
43
0.0000000001
44
0.0000000001
40
0
40
0
40
0
40
1
40
1
40
1
10
-396.23667870142231
20
-60.082721168615016
30
0
10
-396.32259678760903
20
-60.019241885274781
30
0
10
-396.47093865445538
20
-59.975172836914993
30
0
0
SPLINE
5
190
100
AcDbEntity
8
0
100
AcDbSpline
70
0
71
2
72
6
73
3
74
0
42
0.000000001
43
0.0000000001
44
0.0000000001
40
0
40
0
40
0
40
1
40
1
40
1
10
-396.47093865445538
20
-59.975172836914993
30
0
10
-396.61927932920895
20
-59.93110378913039
30
0
10
-396.78912989728178
20
-59.931021834258274
30
0
0
SPLINE
5
191
100
AcDbEntity
8
0
100
AcDbSpline
70
0
71
2
72
6
73
3
74
0
42
0.000000001
43
0.0000000001
44
0.0000000001
40
0
40
0
40
0
40
1
40
1
40
1
10
-396.78912989728178
20
-59.931021834258274
30
0
10
-397.04492796892976
20
-59.930898408717312
30
0
10
-397.23834718681178
20
-60.004475239123217
30
0
0
SPLINE
5
192
100
AcDbEntity
8
0
100
AcDbSpline
70
0
71
2
72
6
73
3
74
0
42
0.000000001
43
0.0000000001
44
0.0000000001
40
0
40
0
40
0
40
1
40
1
40
1
10
-397.23834718681178
20
-60.004475239123217
30
0
10
-397.43176640440606
20
-60.078051473482752
30
0
10
-397.5239139111207
20
-60.203859849148166
30
0
0
SPLINE
5
193
100
AcDbEntity
8
0
100
AcDbSpline
70
0
71
2
72
6
73
3
74
0
42
0.000000001
43
0.0000000001
44
0.0000000001
40
0
40
0
40
0
40
1
40
1
40
1
10
-397.5239139111207
20
-60.203859849148166
30
0
10
-397.61606141783523
20
-60.329668224813588
30
0
10
-397.65095196334573
20
-60.540428935389848
30
0
0
LINE
5
194
100
AcDbEntity
8
0
100
AcDbLine
10
-397.65095196334573
20
-60.540428935389848
30
0
11
-397.29081225263798
21
-60.589715747902929
31
0
0
SPLINE
5
195
100
AcDbEntity
8
0
100
AcDbSpline
70
0
71
2
72
6
73
3
74
0
42
0.000000001
43
0.0000000001
44
0.0000000001
40
0
40
0
40
0
40
1
40
1
40
1
10
-397.29081225263798
20
-60.589715747902929
30
0
10
-397.26617417488063
20
-60.421924448231081
30
0
10
-397.14846204653264
20
-60.32784732122537
30
0
0
SPLINE
5
196
100
AcDbEntity
8
0
100
AcDbSpline
70
0
71
2
72
6
73
3
74
0
42
0.000000001
43
0.0000000001
44
0.0000000001
40
0
40
0
40
0
40
1
40
1
40
1
10
-397.14846204653264
20
-60.32784732122537
30
0
10
-397.0307499181846
20
-60.233770194219659
30
0
10
-396.81587877506092
20
-60.233873872042203
30
0
0
SPLINE
5
197
100
AcDbEntity
8
0
100
AcDbSpline
70
0
71
2
72
6
73
3
74
0
42
0.000000001
43
0.0000000001
44
0.0000000001
40
0
40
0
40
0
40
1
40
1
40
1
10
-396.81587877506092
20
-60.233873872042203
30
0
10
-396.56212752667614
20
-60.233996309967175
30
0
10
-396.45371021920346
20
-60.317950514515971
30
0
0
SPLINE
5
198
100
AcDbEntity
8
0
100
AcDbSpline
70
0
71
2
72
6
73
3
74
0
42
0.000000001
43
0.0000000001
44
0.0000000001
40
0
40
0
40
0
40
1
40
1
40
1
10
-396.45371021920346
20
-60.317950514515971
30
0
10
-396.345291719638
20
-60.401904719639965
30
0
10
-396.34534602687029
20
-60.51445585924418
30
0
0
SPLINE
5
199
100
AcDbEntity
8
0
100
AcDbSpline
70
0
71
2
72
6
73
3
74
0
42
0.000000001
43
0.0000000001
44
0.0000000001
40
0
40
0
40
0
40
1
40
1
40
1
10
-396.34534602687029
20
-60.51445585924418
30
0
10
-396.3453805860965
20
-60.586079474277682
30
0
10
-396.39042880835586
20
-60.643356285726242
30
0
0
SPLINE
5
200
100
AcDbEntity
8
0
100
AcDbSpline
70
0
71
2
72
6
73
3
74
0
42
0.000000001
43
0.0000000001
44
0.0000000001
40
0
40
0
40
0
40
1
40
1
40
1
10
-396.39042880835586
20
-60.643356285726242
30
0
10
-396.43547801823132
20
-60.702679920438108
30
0
10
-396.53167720670808
20
-60.741514809618202
30
0
0
SPLINE
5
201
100
AcDbEntity
8
0
100
AcDbSpline
70
0
71
2
72
6
73
3
74
0
42
0.000000001
43
0.0000000001
44
0.0000000001
40
0
40
0
40
0
40
1
40
1
40
1
10
-396.53167720670808
20
-60.741514809618202
30
0
10
-396.58693819580037
20
-60.761951912598718
30
0
10
-396.85709719266077
20
-60.835491417146592
30
0
0
SPLINE
5
202
100
AcDbEntity
8
0
100
AcDbSpline
70
0
71
2
72
6
73
3
74
0
42
0.000000001
43
0.0000000001
44
0.0000000001
40
0
40
0
40
0
40
1
40
1
40
1
10
-396.85709719266077
20
-60.835491417146592
30
0
10
-397.2480061551438
20
-60.939668756042792
30
0
10
-397.40254061959121
20
-61.006101657797458
30
0
0
SPLINE
5
203
100
AcDbEntity
8
0
100
AcDbSpline
70
0
71
2
72
6
73
3
74
0
42
0.000000001
43
0.0000000001
44
0.0000000001
40
0
40
0
40
0
40
1
40
1
40
1
10
-397.40254061959121
20
-61.006101657797458
30
0
10
-397.55707508403867
20
-61.072534559552139
30
0
10
-397.64513062983974
20
-61.199367725459638
30
0
0
SPLINE
5
204
100
AcDbEntity
8
0
100
AcDbSpline
70
0
71
2
72
6
73
3
74
0
42
0.000000001
43
0.0000000001
44
0.0000000001
40
0
40
0
40
0
40
1
40
1
40
1
10
-397.64513062983974
20
-61.199367725459638
30
0
10
-397.73318617564081
20
-61.326200891367144
30
0
10
-397.73327701704375
20
-61.514468696485125
30
0
0
SPLINE
5
205
100
AcDbEntity
8
0
100
AcDbSpline
70
0
71
2
72
6
73
3
74
0
42
0.000000001
43
0.0000000001
44
0.0000000001
40
0
40
0
40
0
40
1
40
1
40
1
10
-397.73327701704375
20
-61.514468696485125
30
0
10
-397.73336588321467
20
-61.698642855076471
30
0
10
-397.62600940649054
20
-61.861382572444043
30
0
0
SPLINE
5
206
100
AcDbEntity
8
0
100
AcDbSpline
70
0
71
2
72
6
73
3
74
0
42
0.000000001
43
0.0000000001
44
0.0000000001
40
0
40
0
40
0
40
1
40
1
40
1
10
-397.62600940649054
20
-61.861382572444043
30
0
10
-397.51865292947878
20
-62.024121693765238
30
0
10
-397.316104485935
20
-62.11323718493724
30
0
0
SPLINE
5
207
100
AcDbEntity
8
0
100
AcDbSpline
70
0
71
2
72
6
73
3
74
0
42
0.000000001
43
0.0000000001
44
0.0000000001
40
0
40
0
40
0
40
1
40
1
40
1
10
-397.316104485935
20
-62.11323718493724
30
0
10
-397.11355485029856
20
-62.202352676684434
30
0
10
-396.85775677865053
20
-62.202476102225418
30
0
0
SPLINE
5
208
100
AcDbEntity
8
0
100
AcDbSpline
70
0
71
2
72
6
73
3
74
0
42
0.000000001
43
0.0000000001
44
0.0000000001
40
0
40
0
40
0
40
1
40
1
40
1
10
-396.85775677865053
20
-62.202476102225418
30
0
10
-396.43415496219302
20
-62.202680495022491
30
0
10
-396.21203680921712
20
-62.026798974961039
30
0
0
SPLINE
5
209
100
AcDbEntity
8
0
100
AcDbSpline
70
0
71
2
72
6
73
3
74
0
42
0.000000001
43
0.0000000001
44
0.0000000001
40
0
40
0
40
0
40
1
40
1
40
1
10
-396.21203680921712
20
-62.026798974961039
30
0
10
-395.98991984804633
20
-61.850916858278012
30
0
10
-395.92836139172528
20
-61.505107258680887
30
0
0
LINE
5
210
100
AcDbEntity
8
0
100
AcDbLine
10
-399.65889562158009
20
-61.452147963967782
30
0
11
-400.03954520443608
21
-61.499031109348223
31
0
0
SPLINE
5
211
100
AcDbEntity
8
0
100
AcDbSpline
70
0
71
2
72
6
73
3
74
0
42
0.000000001
43
0.0000000001
44
0.0000000001
40
0
40
0
40
0
40
1
40
1
40
1
10
-400.03954520443597
20
-61.499031109348223
30
0
10
-399.94966500123036
20
-61.832635221604654
30
0
10
-399.70623435143523
20
-62.016927477237743
30
0
0
SPLINE
5
212
100
AcDbEntity
8
0
100
AcDbSpline
70
0
71
2
72
6
73
3
74
0
42
0.000000001
43
0.0000000001
44
0.0000000001
40
0
40
0
40
0
40
1
40
1
40
1
10
-399.70623435143523
20
-62.016927477237743
30
0
10
-399.46280370135247
20
-62.201219136824449
30
0
10
-399.08422245994592
20
-62.2014018066711
30
0
0
SPLINE
5
213
100
AcDbEntity
8
0
100
AcDbSpline
70
0
71
2
72
6
73
3
74
0
42
0.000000001
43
0.0000000001
44
0.0000000001
40
0
40
0
40
0
40
1
40
1
40
1
10
-399.08422245994592
20
-62.2014018066711
30
0
10
-398.60741515956977
20
-62.201631871732232
30
0
10
-398.32794229240039
20
-61.908110694898674
30
0
0
SPLINE
5
214
100
AcDbEntity
8
0
100
AcDbSpline
70
0
71
2
72
6
73
3
74
0
42
0.000000001
43
0.0000000001
44
0.0000000001
40
0
40
0
40
0
40
1
40
1
40
1
10
-398.32794229240039
20
-61.908110694898674
30
0
10
-398.04846942523091
20
-61.614589518065117
30
0
10
-398.04821368733059
20
-61.084575541677424
30
0
0
SPLINE
5
215
100
AcDbEntity
8
0
100
AcDbSpline
70
0
71
2
72
6
73
3
74
0
42
0.000000001
43
0.0000000001
44
0.0000000001
40
0
40
0
40
0
40
1
40
1
40
1
10
-398.04821368733059
20
-61.084575541677424
30
0
10
-398.04794906304323
20
-60.536144626267713
30
0
10
-398.33020254859429
20
-60.233143193230781
30
0
0
SPLINE
5
216
100
AcDbEntity
8
0
100
AcDbSpline
70
0
71
2
72
6
73
3
74
0
42
0.000000001
43
0.0000000001
44
0.0000000001
40
0
40
0
40
0
40
1
40
1
40
1
10
-398.33020254859429
20
-60.233143193230781
30
0
10
-398.6124584184746
20
-59.930142057066647
30
0
10
-399.06266297689143
20
-59.929924828137544
30
0
0
SPLINE
5
217
100
AcDbEntity
8
0
100
AcDbSpline
70
0
71
2
72
6
73
3
74
0
42
0.000000001
43
0.0000000001
44
0.0000000001
40
0
40
0
40
0
40
1
40
1
40
1
10
-399.06266297689143
20
-59.929924828137544
30
0
10
-399.49854334874328
20
-59.929714510794845
30
0
10
-399.77494805834431
20
-60.2263071056366
30
0
0
SPLINE
5
218
100
AcDbEntity
8
0
100
AcDbSpline
70
0
71
2
72
6
73
3
74
0
42
0.000000001
43
0.0000000001
44
0.0000000001
40
0
40
0
40
0
40
1
40
1
40
1
10
-399.77494805834431
20
-60.2263071056366
30
0
10
-400.05135276794533
20
-60.522899700478341
30
0
10
-400.05161245515927
20
-61.061098585733795
30
0
0
SPLINE
5
219
100
AcDbEntity
8
0
100
AcDbSpline
70
0
71
2
72
6
73
3
74
0
42
0.000000001
43
0.0000000001
44
0.0000000001
40
0
40
0
40
0
40
1
40
1
40
1
10
-400.05161245515927
20
-61.061098585733795
30
0
10
-400.05162825385173
20
-61.093841201436732
30
0
10
-400.04961421949082
20
-61.159326227790658
30
0
0
LINE
5
220
100
AcDbEntity
8
0
100
AcDbLine
10
-400.04961421949082
20
-61.159326227790658
30
0
11
-398.42887709393449
21
-61.160108252280551
31
0
0
SPLINE
5
221
100
AcDbEntity
8
0
100
AcDbSpline
70
0
71
2
72
6
73
3
74
0
42
0.000000001
43
0.0000000001
44
0.0000000001
40
0
40
0
40
0
40
1
40
1
40
1
10
-398.42887709393449
20
-61.160108252280551
30
0
10
-398.44951454598925
20
-61.518215558944121
30
0
10
-398.63173430609498
20
-61.708441712436517
30
0
0
SPLINE
5
222
100
AcDbEntity
8
0
100
AcDbSpline
70
0
71
2
72
6
73
3
74
0
42
0.000000001
43
0.0000000001
44
0.0000000001
40
0
40
0
40
0
40
1
40
1
40
1
10
-398.63173430609498
20
-61.708441712436517
30
0
10
-398.81395406591315
20
-61.898667269882537
30
0
10
-399.08612314738946
20
-61.898535945139159
30
0
0
SPLINE
5
223
100
AcDbEntity
8
0
100
AcDbSpline
70
0
71
2
72
6
73
3
74
0
42
0.000000001
43
0.0000000001
44
0.0000000001
40
0
40
0
40
0
40
1
40
1
40
1
10
-399.08612314738946
20
-61.898535945139159
30
0
10
-399.288714543026
20
-61.898438192437418
30
0
10
-399.43190983194341
20
-61.791956914342322
30
0
0
SPLINE
5
224
100
AcDbEntity
8
0
100
AcDbSpline
70
0
71
2
72
6
73
3
74
0
42
0.000000001
43
0.0000000001
44
0.0000000001
40
0
40
0
40
0
40
1
40
1
40
1
10
-399.43190983194341
20
-61.791956914342322
30
0
10
-399.57510631324112
20
-61.685476231718404
30
0
10
-399.65889562158009
20
-61.452147963967782
30
0
0
LINE
5
225
100
AcDbEntity
8
0
100
AcDbLine
10
-398.44919561446966
20
-60.857233503930189
30
0
11
-399.66270074130398
21
-60.856647973610166
31
0
0
SPLINE
5
226
100
AcDbEntity
8
0
100
AcDbSpline
70
0
71
2
72
6
73
3
74
0
42
0.000000001
43
0.0000000001
44
0.0000000001
40
0
40
0
40
0
40
1
40
1
40
1
10
-399.66270074130398
20
-60.856647973610166
30
0
10
-399.63801131829962
20
-60.582444215984935
30
0
10
-399.52334809346576
20
-60.445391856055181
30
0
0
SPLINE
5
227
100
AcDbEntity
8
0
100
AcDbSpline
70
0
71
2
72
6
73
3
74
0
42
0.000000001
43
0.0000000001
44
0.0000000001
40
0
40
0
40
0
40
1
40
1
40
1
10
-399.52334809346576
20
-60.445391856055181
30
0
10
-399.34725674958196
20
-60.232652452764491
30
0
10
-399.06690156714512
20
-60.232787727396683
30
0
0
SPLINE
5
228
100
AcDbEntity
8
0
100
AcDbSpline
70
0
71
2
72
6
73
3
74
0
42
0.000000001
43
0.0000000001
44
0.0000000001
40
0
40
0
40
0
40
1
40
1
40
1
10
-399.06690156714512
20
-60.232787727396683
30
0
10
-398.81315031876045
20
-60.232910165321655
30
0
10
-398.64031206642358
20
-60.402843573356563
30
0
0
SPLINE
5
229
100
AcDbEntity
8
0
100
AcDbSpline
70
0
71
2
72
6
73
3
74
0
42
0.000000001
43
0.0000000001
44
0.0000000001
40
0
40
0
40
0
40
1
40
1
40
1
10
-398.64031206642358
20
-60.402843573356563
30
0
10
-398.46747500617943
20
-60.572776980816258
30
0
10
-398.44919561446966
20
-60.857233503930189
30
0
0
LINE
5
230
100
AcDbEntity
8
0
100
AcDbLine
10
-401.57827719542991
20
-61.187238202040305
30
0
11
-401.95275018399775
21
-61.154315487193891
31
0
0
SPLINE
5
231
100
AcDbEntity
8
0
100
AcDbSpline
70
0
71
2
72
6
73
3
74
0
42
0.000000001
43
0.0000000001
44
0.0000000001
40
0
40
0
40
0
40
1
40
1
40
1
10
-401.95275018399769
20
-61.154315487193891
30
0
10
-401.97946154013403
20
-61.379404334223921
30
0
10
-402.07673439577894
20
-61.523628074228533
30
0
0
SPLINE
5
232
100
AcDbEntity
8
0
100
AcDbSpline
70
0
71
2
72
6
73
3
74
0
42
0.000000001
43
0.0000000001
44
0.0000000001
40
0
40
0
40
0
40
1
40
1
40
1
10
-402.07673439577894
20
-61.523628074228533
30
0
10
-402.17400725113623
20
-61.667851218186769
30
0
10
-402.37868842212896
20
-61.756770216339291
30
0
0
SPLINE
5
233
100
AcDbEntity
8
0
100
AcDbSpline
70
0
71
2
72
6
73
3
74
0
42
0.000000001
43
0.0000000001
44
0.0000000001
40
0
40
0
40
0
40
1
40
1
40
1
10
-402.37868842212896
20
-61.756770216339291
30
0
10
-402.58336959312174
20
-61.845689214491813
30
0
10
-402.83916766476978
20
-61.845565788950836
30
0
0
SPLINE
5
234
100
AcDbEntity
8
0
100
AcDbSpline
70
0
71
2
72
6
73
3
74
0
42
0.000000001
43
0.0000000001
44
0.0000000001
40
0
40
0
40
0
40
1
40
1
40
1
10
-402.83916766476978
20
-61.845565788950836
30
0
10
-403.06631617119513
20
-61.845456187157886
30
0
10
-403.24022660927608
20
-61.777841395052526
30
0
0
SPLINE
5
235
100
AcDbEntity
8
0
100
AcDbSpline
70
0
71
2
72
6
73
3
74
0
42
0.000000001
43
0.0000000001
44
0.0000000001
40
0
40
0
40
0
40
1
40
1
40
1
10
-403.24022660927608
20
-61.777841395052526
30
0
10
-403.41413823944993
20
-61.710226602371975
30
0
10
-403.49900615188659
20
-61.592518917576953
30
0
0
SPLINE
5
236
100
AcDbEntity
8
0
100
AcDbSpline
70
0
71
2
72
6
73
3
74
0
42
0.000000001
43
0.0000000001
44
0.0000000001
40
0
40
0
40
0
40
1
40
1
40
1
10
-403.49900615188659
20
-61.592518917576953
30
0
10
-403.58387406403574
20
-61.474810636735555
30
0
10
-403.58380692052765
20
-61.335656457148787
30
0
0
SPLINE
5
237
100
AcDbEntity
8
0
100
AcDbSpline
70
0
71
2
72
6
73
3
74
0
42
0.000000001
43
0.0000000001
44
0.0000000001
40
0
40
0
40
0
40
1
40
1
40
1
10
-403.58380692052765
20
-61.335656457148787
30
0
10
-403.5837387896911
20
-61.194456050345082
30
0
10
-403.50183169716166
20
-61.089106798633793
30
0
0
SPLINE
5
238
100
AcDbEntity
8
0
100
AcDbSpline
70
0
71
2
72
6
73
3
74
0
42
0.000000001
43
0.0000000001
44
0.0000000001
40
0
40
0
40
0
40
1
40
1
40
1
10
-403.50183169716166
20
-61.089106798633793
30
0
10
-403.41992460463223
20
-60.983757546922504
30
0
10
-403.23162402828336
20
-60.912224474405939
30
0
0
SPLINE
5
239
100
AcDbEntity
8
0
100
AcDbSpline
70
0
71
2
72
6
73
3
74
0
42
0.000000001
43
0.0000000001
44
0.0000000001
40
0
40
0
40
0
40
1
40
1
40
1
10
-403.23162402828336
20
-60.912224474405939
30
0
10
-403.1108637794166
20
-60.865215929402922
30
0
10
-402.6974469981605
20
-60.766165914093861
30
0
0
SPLINE
5
240
100
AcDbEntity
8
0
100
AcDbSpline
70
0
71
2
72
6
73
3
74
0
42
0.000000001
43
0.0000000001
44
0.0000000001
40
0
40
0
40
0
40
1
40
1
40
1
10
-402.6974469981605
20
-60.766165914093861
30
0
10
-402.2840290246678
20
-60.667115601336803
30
0
10
-402.11822964469309
20
-60.57920095611513
30
0
0
SPLINE
5
241
100
AcDbEntity
8
0
100
AcDbSpline
70
0
71
2
72
6
73
3
74
0
42
0.000000001
43
0.0000000001
44
0.0000000001
40
0
40
0
40
0
40
1
40
1
40
1
10
-402.11822964469309
20
-60.57920095611513
30
0
10
-401.90330419448088
20
-60.466753792356648
30
0
10
-401.79783556878056
20
-60.300024310186544
30
0
0
SPLINE
5
242
100
AcDbEntity
8
0
100
AcDbSpline
70
0
71
2
72
6
73
3
74
0
42
0.000000001
43
0.0000000001
44
0.0000000001
40
0
40
0
40
0
40
1
40
1
40
1
10
-401.79783556878056
20
-60.300024310186544
30
0
10
-401.69236575098756
20
-60.13329482859163
30
0
10
-401.69226602305378
20
-59.926609786428422
30
0
0
SPLINE
5
243
100
AcDbEntity
8
0
100
AcDbSpline
70
0
71
2
72
6
73
3
74
0
42
0.000000001
43
0.0000000001
44
0.0000000001
40
0
40
0
40
0
40
1
40
1
40
1
10
-401.69226602305378
20
-59.926609786428422
30
0
10
-401.69215642111703
20
-59.699460981979868
30
0
10
-401.82098358419194
20
-59.501922947807167
30
0
0
SPLINE
5
244
100
AcDbEntity
8
0
100
AcDbSpline
70
0
71
2
72
6
73
3
74
0
42
0.000000001
43
0.0000000001
44
0.0000000001
40
0
40
0
40
0
40
1
40
1
40
1
10
-401.82098358419194
20
-59.501922947807167
30
0
10
-401.94981074712314
20
-59.304384615611276
30
0
10
-402.19737334750801
20
-59.201945732485981
30
0
0
SPLINE
5
245
100
AcDbEntity
8
0
100
AcDbSpline
70
0
71
2
72
6
73
3
74
0
42
0.000000001
43
0.0000000001
44
0.0000000001
40
0
40
0
40
0
40
1
40
1
40
1
10
-402.19737334750801
20
-59.201945732485981
30
0
10
-402.44493714012941
20
-59.099507146808676
30
0
10
-402.74780261009175
20
-59.099361010701266
30
0
0
SPLINE
5
246
100
AcDbEntity
8
0
100
AcDbSpline
70
0
71
2
72
6
73
3
74
0
42
0.000000001
43
0.0000000001
44
0.0000000001
40
0
40
0
40
0
40
1
40
1
40
1
10
-402.74780261009175
20
-59.099361010701266
30
0
10
-403.08136208435457
20
-59.099200064380241
30
0
10
-403.33618917918477
20
-59.206512405898337
30
0
0
SPLINE
5
247
100
AcDbEntity
8
0
100
AcDbSpline
70
0
71
2
72
6
73
3
74
0
42
0.000000001
43
0.0000000001
44
0.0000000001
40
0
40
0
40
0
40
1
40
1
40
1
10
-403.33618917918477
20
-59.206512405898337
30
0
10
-403.59101627387122
20
-59.313824449393252
30
0
10
-403.72822434545685
20
-59.522489562881304
30
0
0
SPLINE
5
248
100
AcDbEntity
8
0
100
AcDbSpline
70
0
71
2
72
6
73
3
74
0
42
0.000000001
43
0.0000000001
44
0.0000000001
40
0
40
0
40
0
40
1
40
1
40
1
10
-403.72822434545685
20
-59.522489562881304
30
0
10
-403.86543241704237
20
-59.731154676369357
30
0
10
-403.8757927164084
20
-59.995133315426727
30
0
0
LINE
5
249
100
AcDbEntity
8
0
100
AcDbLine
10
-403.8757927164084
20
-59.995133315426727
30
0
11
-403.49517847548657
21
-60.023966538112063
31
0
0
SPLINE
5
250
100
AcDbEntity
8
0
100
AcDbSpline
70
0
71
2
72
6
73
3
74
0
42
0.000000001
43
0.0000000001
44
0.0000000001
40
0
40
0
40
0
40
1
40
1
40
1
10
-403.49517847548657
20
-60.02396653811207
30
0
10
-403.46434722189713
20
-59.739533711454968
30
0
10
-403.28726326281196
20
-59.594325963434713
30
0
0
SPLINE
5
251
100
AcDbEntity
8
0
100
AcDbSpline
70
0
71
2
72
6
73
3
74
0
42
0.000000001
43
0.0000000001
44
0.0000000001
40
0
40
0
40
0
40
1
40
1
40
1
10
-403.28726326281196
20
-59.594325963434713
30
0
10
-403.11018049567588
20
-59.449117916816064
30
0
10
-402.76434246601866
20
-59.4492847876827
30
0
0
SPLINE
5
252
100
AcDbEntity
8
0
100
AcDbSpline
70
0
71
2
72
6
73
3
74
0
42
0.000000001
43
0.0000000001
44
0.0000000001
40
0
40
0
40
0
40
1
40
1
40
1
10
-402.76434246601866
20
-59.4492847876827
30
0
10
-402.40417786561096
20
-59.449458571286151
30
0
10
-402.23950744722123
20
-59.581529845686951
30
0
0
SPLINE
5
253
100
AcDbEntity
8
0
100
AcDbSpline
70
0
71
2
72
6
73
3
74
0
42
0.000000001
43
0.0000000001
44
0.0000000001
40
0
40
0
40
0
40
1
40
1
40
1
10
-402.23950744722123
20
-59.581529845686951
30
0
10
-402.07483822092422
20
-59.713601119512553
30
0
10
-402.07492807471112
20
-59.899822101367221
30
0
0
SPLINE
5
254
100
AcDbEntity
8
0
100
AcDbSpline
70
0
71
2
72
6
73
3
74
0
42
0.000000001
43
0.0000000001
44
0.0000000001
40
0
40
0
40
0
40
1
40
1
40
1
10
-402.07492807471112
20
-59.899822101367221
30
0
10
-402.07500607969445
20
-60.061486568479467
30
0
10
-402.19170032938678
20
-60.165795921136649
30
0
0
SPLINE
5
255
100
AcDbEntity
8
0
100
AcDbSpline
70
0
71
2
72
6
73
3
74
0
42
0.000000001
43
0.0000000001
44
0.0000000001
40
0
40
0
40
0
40
1
40
1
40
1
10
-402.19170032938678
20
-60.165795921136649
30
0
10
-402.30634775567205
20
-60.270105963386655
30
0
10
-402.79036997557046
20
-60.379354241311134
30
0
0
SPLINE
5
256
100
AcDbEntity
8
0
100
AcDbSpline
70
0
71
2
72
6
73
3
74
0
42
0.000000001
43
0.0000000001
44
0.0000000001
40
0
40
0
40
0
40
1
40
1
40
1
10
-402.79036997557046
20
-60.379354241311134
30
0
10
-403.27439338741777
20
-60.488602220637219
30
0
10
-403.4545151837774
20
-60.570370676000081
30
0
0
SPLINE
5
257
100
AcDbEntity
8
0
100
AcDbSpline
70
0
71
2
72
6
73
3
74
0
42
0.000000001
43
0.0000000001
44
0.0000000001
40
0
40
0
40
0
40
1
40
1
40
1
10
-403.4545151837774
20
-60.570370676000081
30
0
10
-403.71650959800718
20
-60.690981231303041
30
0
10
-403.84143014310069
20
-60.876118569029174
30
0
0
SPLINE
5
258
100
AcDbEntity
8
0
100
AcDbSpline
70
0
71
2
72
6
73
3
74
0
42
0.000000001
43
0.0000000001
44
0.0000000001
40
0
40
0
40
0
40
1
40
1
40
1
10
-403.84143014310069
20
-60.876118569029174
30
0
10
-403.96634830429628
20
-61.061256503952066
30
0
10
-403.96646481796324
20
-61.302729792988771
30
0
0
SPLINE
5
259
100
AcDbEntity
8
0
100
AcDbSpline
70
0
71
2
72
6
73
3
74
0
42
0.000000001
43
0.0000000001
44
0.0000000001
40
0
40
0
40
0
40
1
40
1
40
1
10
-403.96646481796324
20
-61.302729792988771
30
0
10
-403.96658034430175
20
-61.542156854808532
30
0
10
-403.82957518408932
20
-61.754023322882993
30
0
0
SPLINE
5
260
100
AcDbEntity
8
0
100
AcDbSpline
70
0
71
2
72
6
73
3
74
0
42
0.000000001
43
0.0000000001
44
0.0000000001
40
0
40
0
40
0
40
1
40
1
40
1
10
-403.82957518408932
20
-61.754023322882993
30
0
10
-403.6925676399789
20
-61.965890388154222
30
0
10
-403.43580472067919
20
-62.083681610333343
30
0
0
SPLINE
5
261
100
AcDbEntity
8
0
100
AcDbSpline
70
0
71
2
72
6
73
3
74
0
42
0.000000001
43
0.0000000001
44
0.0000000001
40
0
40
0
40
0
40
1
40
1
40
1
10
-403.43580472067919
20
-62.083681610333343
30
0
10
-403.17903941719402
20
-62.201472833662862
30
0
10
-402.85775730623277
20
-62.201627856013474
30
0
0
SPLINE
5
262
100
AcDbEntity
8
0
100
AcDbSpline
70
0
71
2
72
6
73
3
74
0
42
0.000000001
43
0.0000000001
44
0.0000000001
40
0
40
0
40
0
40
1
40
1
40
1
10
-402.85775730623277
20
-62.201627856013474
30
0
10
-402.45052649960365
20
-62.201824349608152
30
0
10
-402.17523050962984
20
-62.083266440163328
30
0
0
SPLINE
5
263
100
AcDbEntity
8
0
100
AcDbSpline
70
0
71
2
72
6
73
3
74
0
42
0.000000001
43
0.0000000001
44
0.0000000001
40
0
40
0
40
0
40
1
40
1
40
1
10
-402.17523050962984
20
-62.083266440163328
30
0
10
-401.8999345199436
20
-61.964709126764895
30
0
10
-401.74327148241269
20
-61.726381012807693
30
0
0
SPLINE
5
264
100
AcDbEntity
8
0
100
AcDbSpline
70
0
71
2
72
6
73
3
74
0
42
0.000000001
43
0.0000000001
44
0.0000000001
40
0
40
0
40
0
40
1
40
1
40
1
10
-401.74327148241269
20
-61.726381012807693
30
0
10
-401.58660844488179
20
-61.488052898850505
30
0
10
-401.57827719542991
20
-61.187238202040305
30
0
0
LWPOLYLINE
5
265
100
AcDbEntity
8
0
100
AcDbPolyline
90
4
70
1
43
0.0
10
-404.46269802526331
20
-59.149693120378679
10
-404.46290241791655
20
-59.573294638812975
10
-404.83124954300649
20
-59.573116907046327
10
-404.83104515035325
20
-59.149515388612024
0
LWPOLYLINE
5
266
100
AcDbEntity
8
0
100
AcDbPolyline
90
4
70
1
43
0.0
10
-404.4630969367106
20
-59.976432692985107
10
-404.46414556000093
20
-62.149692890361827
10
-404.83249268509093
20
-62.149515158595179
10
-404.83144406180054
20
-59.976254961218459
0
LINE
5
267
100
AcDbEntity
8
0
100
AcDbLine
10
-406.80316029473823
20
-62.148564288581845
30
0
11
-406.80302798266644
21
-61.87434897988858
31
0
0
SPLINE
5
268
100
AcDbEntity
8
0
100
AcDbSpline
70
0
71
2
72
6
73
3
74
0
42
0.000000001
43
0.0000000001
44
0.0000000001
40
0
40
0
40
0
40
1
40
1
40
1
10
-406.80302798266644
20
-61.87434897988858
30
0
10
-406.59649895018225
20
-62.197777046000425
30
0
10
-406.19540742125025
20
-62.197970577322295
30
0
0
SPLINE
5
269
100
AcDbEntity
8
0
100
AcDbSpline
70
0
71
2
72
6
73
3
74
0
42
0.000000001
43
0.0000000001
44
0.0000000001
40
0
40
0
40
0
40
1
40
1
40
1
10
-406.19540742125025
20
-62.197970577322295
30
0
10
-405.93551689516835
20
-62.198095977520076
30
0
10
-405.71750937921661
20
-62.054954501307975
30
0
0
SPLINE
5
270
100
AcDbEntity
8
0
100
AcDbSpline
70
0
71
2
72
6
73
3
74
0
42
0.000000001
43
0.0000000001
44
0.0000000001
40
0
40
0
40
0
40
1
40
1
40
1
10
-405.71750937921661
20
-62.054954501307975
30
0
10
-405.49949947879185
20
-61.911812430199902
30
0
10
-405.37966322091336
20
-61.655049305560667
30
0
0
SPLINE
5
271
100
AcDbEntity
8
0
100
AcDbSpline
70
0
71
2
72
6
73
3
74
0
42
0.000000001
43
0.0000000001
44
0.0000000001
40
0
40
0
40
0
40
1
40
1
40
1
10
-405.37966322091336
20
-61.655049305560667
30
0
10
-405.25982457856173
20
-61.398285586025438
30
0
10
-405.25966363166549
20
-61.064724919669871
30
0
0
SPLINE
5
272
100
AcDbEntity
8
0
100
AcDbSpline
70
0
71
2
72
6
73
3
74
0
42
0.000000001
43
0.0000000001
44
0.0000000001
40
0
40
0
40
0
40
1
40
1
40
1
10
-405.25966363166549
20
-61.064724919669871
30
0
10
-405.25950663437044
20
-60.739349758228443
30
0
10
-405.3678353645721
20
-60.474290736488918
30
0
0
SPLINE
5
273
100
AcDbEntity
8
0
100
AcDbSpline
70
0
71
2
72
6
73
3
74
0
42
0.000000001
43
0.0000000001
44
0.0000000001
40
0
40
0
40
0
40
1
40
1
40
1
10
-405.3678353645721
20
-60.474290736488918
30
0
10
-405.47616886314472
20
-60.209231712448592
30
0
10
-405.69301631450975
20
-60.067926641356742
30
0
0
SPLINE
5
274
100
AcDbEntity
8
0
100
AcDbSpline
70
0
71
2
72
6
73
3
74
0
42
0.000000001
43
0.0000000001
44
0.0000000001
40
0
40
0
40
0
40
1
40
1
40
1
10
-405.69301631450975
20
-60.067926641356742
30
0
10
-405.90986376573096
20
-59.926621272241704
30
0
10
-406.17794158486618
20
-59.926491921579917
30
0
0
SPLINE
5
275
100
AcDbEntity
8
0
100
AcDbSpline
70
0
71
2
72
6
73
3
74
0
42
0.000000001
43
0.0000000001
44
0.0000000001
40
0
40
0
40
0
40
1
40
1
40
1
10
-406.17794158486618
20
-59.926491921579917
30
0
10
-406.37439370280555
20
-59.926397131150992
30
0
10
-406.5279132510139
20
-60.009201834277533
30
0
0
SPLINE
5
276
100
AcDbEntity
8
0
100
AcDbSpline
70
0
71
2
72
6
73
3
74
0
42
0.000000001
43
0.0000000001
44
0.0000000001
40
0
40
0
40
0
40
1
40
1
40
1
10
-406.5279132510139
20
-60.009201834277533
30
0
10
-406.68143279907844
20
-60.092006239380893
30
0
10
-406.77767502392732
20
-60.224974734247198
30
0
0
LINE
5
277
100
AcDbEntity
8
0
100
AcDbLine
10
-406.77767502392732
20
-60.224974734247198
30
0
11
-406.77715564935562
21
-59.148576665713108
31
0
0
LINE
5
278
100
AcDbEntity
8
0
100
AcDbLine
10
-406.77715564935562
20
-59.148576665713108
30
0
11
-407.14345952746049
21
-59.148399919836862
31
0
0
LINE
5
279
100
AcDbEntity
8
0
100
AcDbLine
10
-407.14345952746049
20
-59.148399919836862
30
0
11
-407.14490706205436
21
-62.148399391796815
31
0
0
LINE
5
280
100
AcDbEntity
8
0
100
AcDbLine
10
-407.14490706205436
20
-62.148399391796815
30
0
11
-406.80316029473823
21
-62.148564288581845
31
0
0
SPLINE
5
281
100
AcDbEntity
8
0
100
AcDbSpline
70
0
71
2
72
6
73
3
74
0
42
0.000000001
43
0.0000000001
44
0.0000000001
40
0
40
0
40
0
40
1
40
1
40
1
10
-405.63824368097926
20
-61.064542250398411
30
0
10
-405.63844511150353
20
-61.482004789158694
30
0
10
-405.81453587729993
20
-61.688604913601786
30
0
0
SPLINE
5
282
100
AcDbEntity
8
0
100
AcDbSpline
70
0
71
2
72
6
73
3
74
0
42
0.000000001
43
0.0000000001
44
0.0000000001
40
0
40
0
40
0
40
1
40
1
40
1
10
-405.81453587729993
20
-61.688604913601786
30
0
10
-405.99062425862337
20
-61.895204443148884
30
0
10
-406.23005132044312
20
-61.89508891681033
30
0
0
SPLINE
5
283
100
AcDbEntity
8
0
100
AcDbSpline
70
0
71
2
72
6
73
3
74
0
42
0.000000001
43
0.0000000001
44
0.0000000001
40
0
40
0
40
0
40
1
40
1
40
1
10
-406.23005132044312
20
-61.89508891681033
30
0
10
-406.4715240134334
20
-61.89497240343097
30
0
10
-406.64025528930358
20
-61.697414817037043
30
0
0
SPLINE
5
284
100
AcDbEntity
8
0
100
AcDbSpline
70
0
71
2
72
6
73
3
74
0
42
0.000000001
43
0.0000000001
44
0.0000000001
40
0
40
0
40
0
40
1
40
1
40
1
10
-406.64025528930358
20
-61.697414817037043
30
0
10
-406.80898656517377
20
-61.49985723064313
30
0
10
-406.80879105919519
20
-61.094673247277242
30
0
0
SPLINE
5
285
100
AcDbEntity
8
0
100
AcDbSpline
70
0
71
2
72
6
73
3
74
0
42
0.000000001
43
0.0000000001
44
0.0000000001
40
0
40
0
40
0
40
1
40
1
40
1
10
-406.80879105919519
20
-61.094673247277242
30
0
10
-406.80857580521041
20
-60.64856173934065
30
0
10
-406.6365776986122
20
-60.439913412448625
30
0
0
SPLINE
5
286
100
AcDbEntity
8
0
100
AcDbSpline
70
0
71
2
72
6
73
3
74
0
42
0.000000001
43
0.0000000001
44
0.0000000001
40
0
40
0
40
0
40
1
40
1
40
1
10
-406.6365776986122
20
-60.439913412448625
30
0
10
-406.4645819761995
20
-60.231265084406196
30
0
10
-406.21287635898534
20
-60.231386535290376
30
0
0
SPLINE
5
287
100
AcDbEntity
8
0
100
AcDbSpline
70
0
71
2
72
6
73
3
74
0
42
0.000000001
43
0.0000000001
44
0.0000000001
40
0
40
0
40
0
40
1
40
1
40
1
10
-406.21287635898534
20
-60.231386535290376
30
0
10
-405.96731240365386
20
-60.231505022751335
30
0
10
-405.80267387126122
20
-60.43213027391225
30
0
0
SPLINE
5
288
100
AcDbEntity
8
0
100
AcDbSpline
70
0
71
2
72
6
73
3
74
0
42
0.000000001
43
0.0000000001
44
0.0000000001
40
0
40
0
40
0
40
1
40
1
40
1
10
-405.80267387126122
20
-60.43213027391225
30
0
10
-405.63803533872476
20
-60.632755227049977
30
0
10
-405.63824368097926
20
-61.064542250398411
30
0
0
LINE
5
289
100
AcDbEntity
8
0
100
AcDbLine
10
-409.21141740730354
20
-61.447538761242129
30
0
11
-409.59206818225226
21
-61.494421906047371
31
0
0
SPLINE
5
290
100
AcDbEntity
8
0
100
AcDbSpline
70
0
71
2
72
6
73
3
74
0
42
0.000000001
43
0.0000000001
44
0.0000000001
40
0
40
0
40
0
40
1
40
1
40
1
10
-409.59206818225226
20
-61.494421906047371
30
0
10
-409.50218797904654
20
-61.828026018303802
30
0
10
-409.25875852134419
20
-62.012318273361686
30
0
0
SPLINE
5
291
100
AcDbEntity
8
0
100
AcDbSpline
70
0
71
2
72
6
73
3
74
0
42
0.000000001
43
0.0000000001
44
0.0000000001
40
0
40
0
40
0
40
1
40
1
40
1
10
-409.25875852134419
20
-62.012318273361686
30
0
10
-409.01532667916865
20
-62.19660993352359
30
0
10
-408.63674662985494
20
-62.19679260279505
30
0
0
SPLINE
5
292
100
AcDbEntity
8
0
100
AcDbSpline
70
0
71
2
72
6
73
3
74
0
42
0.000000001
43
0.0000000001
44
0.0000000001
40
0
40
0
40
0
40
1
40
1
40
1
10
-408.63674662985494
20
-62.19679260279505
30
0
10
-408.15993813738601
20
-62.197022668431366
30
0
10
-407.88046527021658
20
-61.903501491597822
30
0
0
SPLINE
5
293
100
AcDbEntity
8
0
100
AcDbSpline
70
0
71
2
72
6
73
3
74
0
42
0.000000001
43
0.0000000001
44
0.0000000001
40
0
40
0
40
0
40
1
40
1
40
1
10
-407.88046527021658
20
-61.903501491597822
30
0
10
-407.6009924030472
20
-61.609980314764258
30
0
10
-407.60073666514677
20
-61.079966338376572
30
0
0
SPLINE
5
294
100
AcDbEntity
8
0
100
AcDbSpline
70
0
71
2
72
6
73
3
74
0
42
0.000000001
43
0.0000000001
44
0.0000000001
40
0
40
0
40
0
40
1
40
1
40
1
10
-407.60073666514677
20
-61.079966338376572
30
0
10
-407.60047204085942
20
-60.531535422966847
30
0
10
-407.88272552641047
20
-60.228533989929929
30
0
0
SPLINE
5
295
100
AcDbEntity
8
0
100
AcDbSpline
70
0
71
2
72
6
73
3
74
0
42
0.000000001
43
0.0000000001
44
0.0000000001
40
0
40
0
40
0
40
1
40
1
40
1
10
-407.88272552641047
20
-60.228533989929929
30
0
10
-408.16497901210533
20
-59.925532854916185
30
0
10
-408.61518476261494
20
-59.925315625411884
30
0
0
SPLINE
5
296
100
AcDbEntity
8
0
100
AcDbSpline
70
0
71
2
72
6
73
3
74
0
42
0.000000001
43
0.0000000001
44
0.0000000001
40
0
40
0
40
0
40
1
40
1
40
1
10
-408.61518476261494
20
-59.925315625411884
30
0
10
-409.05106632655958
20
-59.925105307493993
30
0
10
-409.32746984406782
20
-60.22169790291094
30
0
0
SPLINE
5
297
100
AcDbEntity
8
0
100
AcDbSpline
70
0
71
2
72
6
73
3
74
0
42
0.000000001
43
0.0000000001
44
0.0000000001
40
0
40
0
40
0
40
1
40
1
40
1
10
-409.32746984406782
20
-60.22169790291094
30
0
10
-409.60387574576157
20
-60.518290497177489
30
0
10
-409.60413543297557
20
-61.056489382432929
30
0
0
SPLINE
5
298
100
AcDbEntity
8
0
100
AcDbSpline
70
0
71
2
72
6
73
3
74
0
42
0.000000001
43
0.0000000001
44
0.0000000001
40
0
40
0
40
0
40
1
40
1
40
1
10
-409.60413543297557
20
-61.056489382432929
30
0
10
-409.60415123166797
20
-61.08923199813588
30
0
10
-409.60213481312155
20
-61.154717025640196
30
0
0
LINE
5
299
100
AcDbEntity
8
0
100
AcDbLine
10
-409.60213481312155
20
-61.154717025640196
30
0
11
-407.98139887965795
21
-61.155499049554898
31
0
0
SPLINE
5
300
100
AcDbEntity
8
0
100
AcDbSpline
70
0
71
2
72
6
73
3
74
0
42
0.000000001
43
0.0000000001
44
0.0000000001
40
0
40
0
40
0
40
1
40
1
40
1
10
-407.98139887965795
20
-61.155499049554891
30
0
10
-408.00203752380554
20
-61.513606355643269
30
0
10
-408.18425728391128
20
-61.703832509135665
30
0
0
SPLINE
5
301
100
AcDbEntity
8
0
100
AcDbSpline
70
0
71
2
72
6
73
3
74
0
42
0.000000001
43
0.0000000001
44
0.0000000001
40
0
40
0
40
0
40
1
40
1
40
1
10
-408.18425728391128
20
-61.703832509135665
30
0
10
-408.36647704372933
20
-61.894058066581685
30
0
10
-408.6386461252057
20
-61.8939267418383
30
0
0
SPLINE
5
302
100
AcDbEntity
8
0
100
AcDbSpline
70
0
71
2
72
6
73
3
74
0
42
0.000000001
43
0.0000000001
44
0.0000000001
40
0
40
0
40
0
40
1
40
1
40
1
10
-408.6386461252057
20
-61.8939267418383
30
0
10
-408.8412375208423
20
-61.893828989136566
30
0
10
-408.9844328097596
20
-61.787347711041463
30
0
0
SPLINE
5
303
100
AcDbEntity
8
0
100
AcDbSpline
70
0
71
2
72
6
73
3
74
0
42
0.000000001
43
0.0000000001
44
0.0000000001
40
0
40
0
40
0
40
1
40
1
40
1
10
-408.9844328097596
20
-61.787347711041463
30
0
10
-409.12762809896464
20
-61.680867028992743
30
0
10
-409.21141740730354
20
-61.447538761242129
30
0
0
LINE
5
304
100
AcDbEntity
8
0
100
AcDbLine
10
-408.00171859228584
20
-60.852624300629337
30
0
11
-409.21522371912022
21
-60.852038770309314
31
0
0
SPLINE
5
305
100
AcDbEntity
8
0
100
AcDbSpline
70
0
71
2
72
6
73
3
74
0
42
0.000000001
43
0.0000000001
44
0.0000000001
40
0
40
0
40
0
40
1
40
1
40
1
10
-409.21522371912022
20
-60.852038770309314
30
0
10
-409.1905342961158
20
-60.577835012684076
30
0
10
-409.07586987918921
20
-60.440782653329521
30
0
0
SPLINE
5
306
100
AcDbEntity
8
0
100
AcDbSpline
70
0
71
2
72
6
73
3
74
0
42
0.000000001
43
0.0000000001
44
0.0000000001
40
0
40
0
40
0
40
1
40
1
40
1
10
-409.07586987918921
20
-60.440782653329521
30
0
10
-408.89977853530547
20
-60.228043250038837
30
0
10
-408.61942454496136
20
-60.228178524095824
30
0
0
SPLINE
5
307
100
AcDbEntity
8
0
100
AcDbSpline
70
0
71
2
72
6
73
3
74
0
42
0.000000001
43
0.0000000001
44
0.0000000001
40
0
40
0
40
0
40
1
40
1
40
1
10
-408.61942454496136
20
-60.228178524095824
30
0
10
-408.36567329657663
20
-60.228300962020796
30
0
10
-408.19283504423981
20
-60.398234370055697
30
0
0
SPLINE
5
308
100
AcDbEntity
8
0
100
AcDbSpline
70
0
71
2
72
6
73
3
74
0
42
0.000000001
43
0.0000000001
44
0.0000000001
40
0
40
0
40
0
40
1
40
1
40
1
10
-408.19283504423981
20
-60.398234370055697
30
0
10
-408.01999679190294
20
-60.568167778090597
30
0
10
-408.00171859228584
20
-60.852624300629337
30
0
0
LINE
5
309
100
AcDbEntity
8
0
100
AcDbLine
10
-412.5043892033616
20
-62.145813379406789
30
0
11
-412.13603969408615
21
-62.145991112323841
31
0
0
LINE
5
310
100
AcDbEntity
8
0
100
AcDbLine
10
-412.13603969408615
20
-62.145991112323841
30
0
11
-412.13490714126698
21
-59.79878789244048
31
0
0
SPLINE
5
311
100
AcDbEntity
8
0
100
AcDbSpline
70
0
71
2
72
6
73
3
74
0
42
0.000000001
43
0.0000000001
44
0.0000000001
40
0
40
0
40
0
40
1
40
1
40
1
10
-412.13490714126698
20
-59.79878789244048
30
0
10
-412.00195226653472
20
-59.925728294489716
30
0
10
-411.78612071888097
20
-60.052708089449823
30
0
0
SPLINE
5
312
100
AcDbEntity
8
0
100
AcDbSpline
70
0
71
2
72
6
73
3
74
0
42
0.000000001
43
0.0000000001
44
0.0000000001
40
0
40
0
40
0
40
1
40
1
40
1
10
-411.78612071888097
20
-60.052708089449823
30
0
10
-411.57028917137103
20
-60.179688182433118
30
0
10
-411.39842238951616
20
-60.243208937017414
30
0
0
LINE
5
313
100
AcDbEntity
8
0
100
AcDbLine
10
-411.39842238951621
20
-60.243208937017414
30
0
11
-411.39825058128849
21
-59.887138281159558
31
0
0
SPLINE
5
314
100
AcDbEntity
8
0
100
AcDbSpline
70
0
71
2
72
6
73
3
74
0
42
0.000000001
43
0.0000000001
44
0.0000000001
40
0
40
0
40
0
40
1
40
1
40
1
10
-411.39825058128849
20
-59.887138281159558
30
0
10
-411.70718522316719
20
-59.74169572549539
30
0
10
-411.9383252639999
20
-59.534899107457633
30
0
0
SPLINE
5
315
100
AcDbEntity
8
0
100
AcDbSpline
70
0
71
2
72
6
73
3
74
0
42
0.000000001
43
0.0000000001
44
0.0000000001
40
0
40
0
40
0
40
1
40
1
40
1
10
-411.9383252639999
20
-59.534899107457633
30
0
10
-412.16946768916193
20
-59.328102786292661
30
0
10
-412.26555431357298
20
-59.133649891350196
30
0
0
LINE
5
316
100
AcDbEntity
8
0
100
AcDbLine
10
-412.26555431357298
20
-59.133649891350196
30
0
11
-412.50293574422216
21
-59.133535352052434
31
0
0
LINE
5
317
100
AcDbEntity
8
0
100
AcDbLine
10
-412.50293574422216
20
-59.133535352052434
30
0
11
-412.5043892033616
21
-62.145813379406789
31
0
0
ENDSEC
0
SECTION
2
OBJECTS
0
DICTIONARY
5
C
100
AcDbDictionary
3
ACAD_GROUP
350
D
3
ACAD_MLINESTYLE
350
17
0
DICTIONARY
5
D
100
AcDbDictionary
0
DICTIONARY
5
1A
330
C
100
AcDbDictionary
0
DICTIONARY
5
17
100
AcDbDictionary
0
ENDSEC
0
EOF
