0
SECTION
2
HEADER
9
$INSUNITS
70
4
9
$ACADVER
1
AC1014
9
$HANDSEED
5
FFFF
0
ENDSEC
0
SECTION
2
TABLES
0
TABLE
2
VPORT
5
8
100
AcDbSymbolTable
0
ENDTAB
0
TABLE
2
LTYPE
5
5
100
AcDbSymbolTable
0
LTYPE
5
14
100
AcDbSymbolTableRecord
100
AcDbLinetypeTableRecord
2
BYBLOCK
70
0
0
LTYPE
5
15
100
AcDbSymbolTableRecord
100
AcDbLinetypeTableRecord
2
BYLAYER
70
0
0
ENDTAB
0
TABLE
2
LAYER
5
2
100
AcDbSymbolTable
70
2
0
LAYER
5
50
100
AcDbSymbolTableRecord
100
AcDbLayerTableRecord
2
0
70
0
6
CONTINUOUS
0
ENDTAB
0
TABLE
2
STYLE
5
3
100
AcDbSymbolTable
70
1
0
STYLE
5
11
100
AcDbSymbolTableRecord
100
AcDbTextStyleTableRecord
2
STANDARD
70
0
0
ENDTAB
0
TABLE
2
VIEW
5
6
100
AcDbSymbolTable
70
0
0
ENDTAB
0
TABLE
2
UCS
5
7
100
AcDbSymbolTable
70
0
0
ENDTAB
0
TABLE
2
APPID
5
9
100
AcDbSymbolTable
70
2
0
APPID
5
12
100
AcDbSymbolTableRecord
100
AcDbRegAppTableRecord
2
ACAD
70
0
0
ENDTAB
0
TABLE
2
DIMSTYLE
5
A
100
AcDbSymbolTable
70
1
0
ENDTAB
0
TABLE
2
BLOCK_RECORD
5
1
100
AcDbSymbolTable
70
1
0
BLOCK_RECORD
5
1F
100
AcDbSymbolTableRecord
100
AcDbBlockTableRecord
2
*MODEL_SPACE
0
BLOCK_RECORD
5
1B
100
AcDbSymbolTableRecord
100
AcDbBlockTableRecord
2
*PAPER_SPACE
0
ENDTAB
0
ENDSEC
0
SECTION
2
BLOCKS
0
BLOCK
5
20
100
AcDbEntity
100
AcDbBlockBegin
2
*MODEL_SPACE
0
ENDBLK
5
21
100
AcDbEntity
100
AcDbBlockEnd
0
BLOCK
5
1C
100
AcDbEntity
100
AcDbBlockBegin
2
*PAPER_SPACE
0
ENDBLK
5
1D
100
AcDbEntity
100
AcDbBlockEnd
0
ENDSEC
0
SECTION
2
ENTITIES
0
CIRCLE
5
100
100
AcDbEntity
8
0
100
AcDbCircle
10
401.5493815685146
20
78.181998858068752
30
0
40
1.9999999999999929
210
0
220
0
230
1
0
LWPOLYLINE
5
101
100
AcDbEntity
8
0
100
AcDbPolyline
90
18
70
1
43
0.0
10
452.40724232107641
20
-71.818000106137006
42
-0.19891236737966078
10
459.47831013297792
20
-74.746932294404417
10
463.62044782900978
20
-78.889069990553807
42
0.19891236348608982
10
470.69151549097046
20
-81.818002178769106
10
481.54937986727316
20
-81.818002341591281
42
0.41421356676525023
10
491.54938001723059
20
-71.818002341591409
10
491.54938001723048
20
-21.818002341575262
42
0.1496883527772444
10
488.11973862460997
20
-10.618751640219593
10
419.77677605442284
20
90.5011745712454
42
0.53111398406570165
10
383.32198746681661
20
90.501175139721141
10
314.97902174290181
20
-10.618748940263954
42
0.14968836074894579
10
311.54938001723065
20
-21.818000105413109
10
311.54938001723059
20
-71.818000105429078
42
0.41421356237309453
10
321.54938001721462
20
-81.818000105413148
10
332.40724439351737
20
-81.818000105413063
42
0.19891236737965848
10
339.47831220535471
20
-78.889067917290191
10
343.62044782979228
20
-74.74693229285262
42
-0.19891236738334608
10
350.69151564187172
20
-71.818000104688394
0
LWPOLYLINE
5
102
100
AcDbEntity
8
0
100
AcDbPolyline
90
4
70
1
43
0.0
10
351.54938156464709
20
-57.618000104714397
10
351.54938156464664
20
-63.818000104713882
10
376.54938156461589
20
-63.818000104736157
10
376.54938156464851
20
-57.618000104736751
0
LWPOLYLINE
5
103
100
AcDbEntity
8
0
100
AcDbPolyline
90
4
70
1
43
0.0
10
451.54938156447037
20
-63.818000104802827
10
451.54938156464709
20
-57.618000104803741
10
426.54938156464141
20
-57.618000104781466
10
426.54938156461594
20
-63.818000104780602
0
LWPOLYLINE
5
104
100
AcDbEntity
8
0
100
AcDbPolyline
90
4
70
1
43
0.0
10
398.44938156489764
20
-48.618000104767262
10
398.44938156490565
20
-57.618000104767333
10
404.64938156438859
20
-57.618000104761705
10
404.64938156439672
20
-48.618000104761677
0
ENDSEC
0
SECTION
2
OBJECTS
0
DICTIONARY
5
C
100
AcDbDictionary
3
ACAD_GROUP
350
D
3
ACAD_MLINESTYLE
350
17
0
DICTIONARY
5
D
100
AcDbDictionary
0
DICTIONARY
5
1A
330
C
100
AcDbDictionary
0
DICTIONARY
5
17
100
AcDbDictionary
0
ENDSEC
0
EOF
