0
SECTION
2
HEADER
9
$INSUNITS
70
4
9
$ACADVER
1
AC1014
9
$HANDSEED
5
FFFF
0
ENDSEC
0
SECTION
2
TABLES
0
TABLE
2
VPORT
5
8
100
AcDbSymbolTable
0
ENDTAB
0
TABLE
2
LTYPE
5
5
100
AcDbSymbolTable
0
LTYPE
5
14
100
AcDbSymbolTableRecord
100
AcDbLinetypeTableRecord
2
BYBLOCK
70
0
0
LTYPE
5
15
100
AcDbSymbolTableRecord
100
AcDbLinetypeTableRecord
2
BYLAYER
70
0
0
ENDTAB
0
TABLE
2
LAYER
5
2
100
AcDbSymbolTable
70
2
0
LAYER
5
50
100
AcDbSymbolTableRecord
100
AcDbLayerTableRecord
2
0
70
0
6
CONTINUOUS
0
ENDTAB
0
TABLE
2
STYLE
5
3
100
AcDbSymbolTable
70
1
0
STYLE
5
11
100
AcDbSymbolTableRecord
100
AcDbTextStyleTableRecord
2
STANDARD
70
0
0
ENDTAB
0
TABLE
2
VIEW
5
6
100
AcDbSymbolTable
70
0
0
ENDTAB
0
TABLE
2
UCS
5
7
100
AcDbSymbolTable
70
0
0
ENDTAB
0
TABLE
2
APPID
5
9
100
AcDbSymbolTable
70
2
0
APPID
5
12
100
AcDbSymbolTableRecord
100
AcDbRegAppTableRecord
2
ACAD
70
0
0
ENDTAB
0
TABLE
2
DIMSTYLE
5
A
100
AcDbSymbolTable
70
1
0
ENDTAB
0
TABLE
2
BLOCK_RECORD
5
1
100
AcDbSymbolTable
70
1
0
BLOCK_RECORD
5
1F
100
AcDbSymbolTableRecord
100
AcDbBlockTableRecord
2
*MODEL_SPACE
0
BLOCK_RECORD
5
1B
100
AcDbSymbolTableRecord
100
AcDbBlockTableRecord
2
*PAPER_SPACE
0
ENDTAB
0
ENDSEC
0
SECTION
2
BLOCKS
0
BLOCK
5
20
100
AcDbEntity
100
AcDbBlockBegin
2
*MODEL_SPACE
0
ENDBLK
5
21
100
AcDbEntity
100
AcDbBlockEnd
0
BLOCK
5
1C
100
AcDbEntity
100
AcDbBlockBegin
2
*PAPER_SPACE
0
ENDBLK
5
1D
100
AcDbEntity
100
AcDbBlockEnd
0
ENDSEC
0
SECTION
2
ENTITIES
0
CIRCLE
5
100
100
AcDbEntity
8
0
100
AcDbCircle
10
401.5493815685146
20
78.181998858068752
30
0
40
3.5999999999999943
210
0
220
0
230
1
0
LWPOLYLINE
5
101
100
AcDbEntity
8
0
100
AcDbPolyline
90
18
70
1
43
0.0
10
452.40724232107641
20
-71.818000106137006
42
-0.19891236737966078
10
459.47831013297792
20
-74.746932294404417
10
463.62044782900978
20
-78.889069990553807
42
0.19891236348608982
10
470.69151549097046
20
-81.818002178769106
10
481.54937986727316
20
-81.818002341591281
42
0.41421356237310025
10
491.54938001723059
20
-71.818002491548782
10
491.54938091674649
20
-21.818002009964985
42
0.14633873207981399
10
488.26514720254511
20
-10.836965415600393
10
421.27398580398835
20
91.13962162437042
42
0.53954832073596448
10
381.82477762054469
20
91.139622062020209
10
314.8336139593934
20
-10.836963491591334
42
0.14633873392021829
10
311.54938001723065
20
-21.818000105413109
10
311.54938001723059
20
-71.818000105429078
42
0.41421356237309453
10
321.54938001721462
20
-81.818000105413148
10
332.40724439351737
20
-81.818000105413063
42
0.19891236737965848
10
339.47831220535471
20
-78.889067917290191
10
343.62044782979228
20
-74.74693229285262
42
-0.19891236738334608
10
350.69151564187172
20
-71.818000104688394
0
LWPOLYLINE
5
102
100
AcDbEntity
8
0
100
AcDbPolyline
90
4
70
1
43
0.0
10
351.54938156464709
20
-57.618000104714397
10
351.54938156464664
20
-63.818000104713882
10
376.54938156461589
20
-63.818000104736157
10
376.54938156464851
20
-57.618000104736751
0
LWPOLYLINE
5
103
100
AcDbEntity
8
0
100
AcDbPolyline
90
4
70
1
43
0.0
10
451.54938156447037
20
-63.818000104802827
10
451.54938156464709
20
-57.618000104803741
10
426.54938156464141
20
-57.618000104781466
10
426.54938156461594
20
-63.818000104780602
0
LWPOLYLINE
5
104
100
AcDbEntity
8
0
100
AcDbPolyline
90
4
70
1
43
0.0
10
398.44938156489764
20
-48.618000104767262
10
398.44938156490565
20
-57.618000104767333
10
404.64938156438859
20
-57.618000104761705
10
404.64938156439672
20
-48.618000104761677
0
LWPOLYLINE
5
105
100
AcDbEntity
8
0
100
AcDbPolyline
90
4
70
1
43
0.0
10
379.74612088304866
20
-63.827367283145023
10
424.85321098955325
20
-63.829877237893974
10
424.85353207653958
20
-58.059534376436361
10
379.74644197003511
20
-58.05702442165915
0
LINE
5
106
100
AcDbEntity
8
0
100
AcDbLine
10
414.6159099581987
20
-62.44413654801383
30
0
11
414.61607689125958
21
-59.444136433448982
31
0
0
LINE
5
107
100
AcDbEntity
8
0
100
AcDbLine
10
414.61607689125958
20
-59.444136433448982
30
0
11
413.49056596198699
21
-59.444073805123907
31
0
0
SPLINE
5
108
100
AcDbEntity
8
0
100
AcDbSpline
70
0
71
2
72
6
73
3
74
0
42
0.000000001
43
0.0000000001
44
0.0000000001
40
0
40
0
40
0
40
1
40
1
40
1
10
413.49056596198699
20
-59.444073805123907
30
0
10
413.14677233191929
20
-59.444054674950529
30
0
10
412.93905938310093
20
-59.535107391350373
30
0
0
SPLINE
5
109
100
AcDbEntity
8
0
100
AcDbSpline
70
0
71
2
72
6
73
3
74
0
42
0.000000001
43
0.0000000001
44
0.0000000001
40
0
40
0
40
0
40
1
40
1
40
1
10
412.93905938310093
20
-59.535107391350373
30
0
10
412.73134643429904
20
-59.626159809726985
30
0
10
412.61366918018217
20
-59.81544390468396
30
0
0
SPLINE
5
110
100
AcDbEntity
8
0
100
AcDbSpline
70
0
71
2
72
6
73
3
74
0
42
0.000000001
43
0.0000000001
44
0.0000000001
40
0
40
0
40
0
40
1
40
1
40
1
10
412.61366918018217
20
-59.81544390468396
30
0
10
412.4959919260653
20
-60.004727999640934
30
0
10
412.49598042522541
20
-60.211412767520883
30
0
0
SPLINE
5
111
100
AcDbEntity
8
0
100
AcDbSpline
70
0
71
2
72
6
73
3
74
0
42
0.000000001
43
0.0000000001
44
0.0000000001
40
0
40
0
40
0
40
1
40
1
40
1
10
412.49598042522541
20
-60.211412767520883
30
0
10
412.4959697214623
20
-60.403773049167349
30
0
10
412.60032561892399
20
-60.573628848044876
30
0
0
SPLINE
5
112
100
AcDbEntity
8
0
100
AcDbSpline
70
0
71
2
72
6
73
3
74
0
42
0.000000001
43
0.0000000001
44
0.0000000001
40
0
40
0
40
0
40
1
40
1
40
1
10
412.60032561892399
20
-60.573628848044876
30
0
10
412.70468151638573
20
-60.743484646922411
30
0
10
412.91545322985075
20
-60.847861724155067
30
0
0
SPLINE
5
113
100
AcDbEntity
8
0
100
AcDbSpline
70
0
71
2
72
6
73
3
74
0
42
0.000000001
43
0.0000000001
44
0.0000000001
40
0
40
0
40
0
40
1
40
1
40
1
10
412.91545322985075
20
-60.847861724155067
30
0
10
412.64327967618561
20
-60.927655708596042
30
0
10
412.49695268276389
20
-61.120007550544322
30
0
0
SPLINE
5
114
100
AcDbEntity
8
0
100
AcDbSpline
70
0
71
2
72
6
73
3
74
0
42
0.000000001
43
0.0000000001
44
0.0000000001
40
0
40
0
40
0
40
1
40
1
40
1
10
412.49695268276389
20
-61.120007550544322
30
0
10
412.35062449723267
20
-61.312359690449505
30
0
10
412.35060992189699
20
-61.574297069881027
30
0
0
SPLINE
5
115
100
AcDbEntity
8
0
100
AcDbSpline
70
0
71
2
72
6
73
3
74
0
42
0.000000001
43
0.0000000001
44
0.0000000001
40
0
40
0
40
0
40
1
40
1
40
1
10
412.35060992189699
20
-61.574297069881027
30
0
10
412.3505981933186
20
-61.785074590688126
30
0
10
412.43960646058207
20
-61.966184680647103
30
0
0
SPLINE
5
116
100
AcDbEntity
8
0
100
AcDbSpline
70
0
71
2
72
6
73
3
74
0
42
0.000000001
43
0.0000000001
44
0.0000000001
40
0
40
0
40
0
40
1
40
1
40
1
10
412.43960646058207
20
-61.966184680647103
30
0
10
412.52861472786208
20
-62.14729447258285
30
0
10
412.65957735577223
20
-62.24552842651584
30
0
0
SPLINE
5
117
100
AcDbEntity
8
0
100
AcDbSpline
70
0
71
2
72
6
73
3
74
0
42
0.000000001
43
0.0000000001
44
0.0000000001
40
0
40
0
40
0
40
1
40
1
40
1
10
412.65957735577223
20
-62.24552842651584
30
0
10
412.79053998369898
20
-62.343762082425599
30
0
10
412.98801453428143
20
-62.39390951779923
30
0
0
SPLINE
5
118
100
AcDbEntity
8
0
100
AcDbSpline
70
0
71
2
72
6
73
3
74
0
42
0.000000001
43
0.0000000001
44
0.0000000001
40
0
40
0
40
0
40
1
40
1
40
1
10
412.98801453428143
20
-62.39390951779923
30
0
10
413.1854867006781
20
-62.444056953040175
30
0
10
413.47198119371905
20
-62.444072894840275
30
0
0
LINE
5
119
100
AcDbEntity
8
0
100
AcDbLine
10
413.47198119371905
20
-62.444072894840275
30
0
11
414.6159099581987
21
-62.44413654801383
31
0
0
LINE
5
120
100
AcDbEntity
8
0
100
AcDbLine
10
414.21900881947289
20
-60.704687608742127
30
0
11
413.57030405324997
21
-60.704651511986498
31
0
0
SPLINE
5
121
100
AcDbEntity
8
0
100
AcDbSpline
70
0
71
2
72
6
73
3
74
0
42
0.000000001
43
0.0000000001
44
0.0000000001
40
0
40
0
40
0
40
1
40
1
40
1
10
413.57030405324997
20
-60.704651511986498
30
0
10
413.30632104241295
20
-60.704636822823218
30
0
10
413.19172470416225
20
-60.669841599160897
30
0
0
SPLINE
5
122
100
AcDbEntity
8
0
100
AcDbSpline
70
0
71
2
72
6
73
3
74
0
42
0.000000001
43
0.0000000001
44
0.0000000001
40
0
40
0
40
0
40
1
40
1
40
1
10
413.19172470416225
20
-60.669841599160897
30
0
10
413.04029564900475
20
-60.624812890651192
30
0
10
412.96356166842685
20
-60.520442973837945
30
0
0
SPLINE
5
123
100
AcDbEntity
8
0
100
AcDbSpline
70
0
71
2
72
6
73
3
74
0
42
0.000000001
43
0.0000000001
44
0.0000000001
40
0
40
0
40
0
40
1
40
1
40
1
10
412.96356166842685
20
-60.520442973837945
30
0
10
412.88682768784895
20
-60.41607305702469
30
0
10
412.88683645582586
20
-60.258501324270739
30
0
0
SPLINE
5
124
100
AcDbEntity
8
0
100
AcDbSpline
70
0
71
2
72
6
73
3
74
0
42
0.000000001
43
0.0000000001
44
0.0000000001
40
0
40
0
40
0
40
1
40
1
40
1
10
412.88683645582586
20
-60.258501324270739
30
0
10
412.886844768309
20
-60.109115395394348
30
0
10
412.95847441331239
20
-59.995545114569893
30
0
0
SPLINE
5
125
100
AcDbEntity
8
0
100
AcDbSpline
70
0
71
2
72
6
73
3
74
0
42
0.000000001
43
0.0000000001
44
0.0000000001
40
0
40
0
40
0
40
1
40
1
40
1
10
412.95847441331239
20
-59.995545114569893
30
0
10
413.03010405833243
20
-59.881974535722229
30
0
10
413.16312250192595
20
-59.84003099629642
30
0
0
SPLINE
5
126
100
AcDbEntity
8
0
100
AcDbSpline
70
0
71
2
72
6
73
3
74
0
42
0.000000001
43
0.0000000001
44
0.0000000001
40
0
40
0
40
0
40
1
40
1
40
1
10
413.16312250192595
20
-59.84003099629642
30
0
10
413.29613975340999
20
-59.798087754827492
30
0
10
413.61946753267932
20
-59.798105746191894
30
0
0
LINE
5
127
100
AcDbEntity
8
0
100
AcDbLine
10
413.61946753267932
20
-59.798105746191901
30
0
11
414.21905926377622
21
-59.798139110084563
31
0
0
LINE
5
128
100
AcDbEntity
8
0
100
AcDbLine
10
414.21905926377622
20
-59.798139110084563
30
0
11
414.21900881947289
21
-60.704687608742127
31
0
0
LINE
5
129
100
AcDbEntity
8
0
100
AcDbLine
10
414.21893172965599
20
-62.090089988017453
30
0
11
413.47200089318108
21
-62.090048425535905
31
0
0
SPLINE
5
130
100
AcDbEntity
8
0
100
AcDbSpline
70
0
71
2
72
6
73
3
74
0
42
0.000000001
43
0.0000000001
44
0.0000000001
40
0
40
0
40
0
40
1
40
1
40
1
10
413.47200089318108
20
-62.090048425535905
30
0
10
413.27964120758105
20
-62.09003772180607
30
0
10
413.201879401035
20
-62.075708610499774
30
0
0
SPLINE
5
131
100
AcDbEntity
8
0
100
AcDbSpline
70
0
71
2
72
6
73
3
74
0
42
0.000000001
43
0.0000000001
44
0.0000000001
40
0
40
0
40
0
40
1
40
1
40
1
10
413.201879401035
20
-62.075708610499774
30
0
10
413.06477220330191
20
-62.051144463619721
30
0
10
412.97268859980903
20
-61.993840500506423
30
0
0
SPLINE
5
132
100
AcDbEntity
8
0
100
AcDbSpline
70
0
71
2
72
6
73
3
74
0
42
0.000000001
43
0.0000000001
44
0.0000000001
40
0
40
0
40
0
40
1
40
1
40
1
10
412.97268859980903
20
-61.993840500506423
30
0
10
412.88060380422326
20
-61.936536537326781
30
0
10
412.82126512781878
20
-61.827051721794945
30
0
0
SPLINE
5
133
100
AcDbEntity
8
0
100
AcDbSpline
70
0
71
2
72
6
73
3
74
0
42
0.000000001
43
0.0000000001
44
0.0000000001
40
0
40
0
40
0
40
1
40
1
40
1
10
412.82126512781878
20
-61.827051721794945
30
0
10
412.76192645143084
20
-61.717566608239885
30
0
10
412.76193442229783
20
-61.574319957765844
30
0
0
SPLINE
5
134
100
AcDbEntity
8
0
100
AcDbSpline
70
0
71
2
72
6
73
3
74
0
42
0.000000001
43
0.0000000001
44
0.0000000001
40
0
40
0
40
0
40
1
40
1
40
1
10
412.76193442229783
20
-61.574319957765844
30
0
10
412.76194375962945
20
-61.406516193682364
30
0
10
412.84789816218131
20
-61.282714976611778
30
0
0
SPLINE
5
135
100
AcDbEntity
8
0
100
AcDbSpline
70
0
71
2
72
6
73
3
74
0
42
0.000000001
43
0.0000000001
44
0.0000000001
40
0
40
0
40
0
40
1
40
1
40
1
10
412.84789816218131
20
-61.282714976611778
30
0
10
412.93385375685915
20
-61.158913163561067
30
0
10
413.08631211474682
20
-61.108785199976992
30
0
0
SPLINE
5
136
100
AcDbEntity
8
0
100
AcDbSpline
70
0
71
2
72
6
73
3
74
0
42
0.000000001
43
0.0000000001
44
0.0000000001
40
0
40
0
40
0
40
1
40
1
40
1
10
413.08631211474682
20
-61.108785199976992
30
0
10
413.23877047263443
20
-61.058657236392911
30
0
10
413.52526377358254
20
-61.058673178126675
30
0
0
LINE
5
137
100
AcDbEntity
8
0
100
AcDbLine
10
413.52526377358254
20
-61.058673178126675
30
0
11
414.21898912002746
21
-61.058711780023259
31
0
0
LINE
5
138
100
AcDbEntity
8
0
100
AcDbLine
10
414.21898912002746
20
-61.058711780023259
30
0
11
414.21893172965599
21
-62.090089988017453
31
0
0
SPLINE
5
139
100
AcDbEntity
8
0
100
AcDbSpline
70
0
71
2
72
6
73
3
74
0
42
0.000000001
43
0.0000000001
44
0.0000000001
40
0
40
0
40
0
40
1
40
1
40
1
10
410.43311409822331
20
-62.175827438412639
30
0
10
410.63774385378969
20
-62.349781569903755
30
0
10
410.82702991475509
20
-62.421415428062524
30
0
0
SPLINE
5
140
100
AcDbEntity
8
0
100
AcDbSpline
70
0
71
2
72
6
73
3
74
0
42
0.000000001
43
0.0000000001
44
0.0000000001
40
0
40
0
40
0
40
1
40
1
40
1
10
410.82702991475509
20
-62.421415428062524
30
0
10
411.01631597572043
20
-62.493049286221307
30
0
10
411.23323396702278
20
-62.493061356482123
30
0
0
SPLINE
5
141
100
AcDbEntity
8
0
100
AcDbSpline
70
0
71
2
72
6
73
3
74
0
42
0.000000001
43
0.0000000001
44
0.0000000001
40
0
40
0
40
0
40
1
40
1
40
1
10
411.23323396702278
20
-62.493061356482123
30
0
10
411.59135059320789
20
-62.493081283649332
30
0
10
411.78372120676249
20
-62.318126129256903
30
0
0
SPLINE
5
142
100
AcDbEntity
8
0
100
AcDbSpline
70
0
71
2
72
6
73
3
74
0
42
0.000000001
43
0.0000000001
44
0.0000000001
40
0
40
0
40
0
40
1
40
1
40
1
10
411.78372120676249
20
-62.318126129256903
30
0
10
411.97609062822426
20
-62.143170974798139
30
0
10
411.97610577289799
20
-61.871001862060318
30
0
0
SPLINE
5
143
100
AcDbEntity
8
0
100
AcDbSpline
70
0
71
2
72
6
73
3
74
0
42
0.000000001
43
0.0000000001
44
0.0000000001
40
0
40
0
40
0
40
1
40
1
40
1
10
411.97610577289799
20
-61.871001862060318
30
0
10
411.97611465473591
20
-61.711383901854397
30
0
10
411.90347466630152
20
-61.579388055998969
30
0
0
SPLINE
5
144
100
AcDbEntity
8
0
100
AcDbSpline
70
0
71
2
72
6
73
3
74
0
42
0.000000001
43
0.0000000001
44
0.0000000001
40
0
40
0
40
0
40
1
40
1
40
1
10
411.90347466630152
20
-61.579388055998969
30
0
10
411.83083586996008
20
-61.447392210209856
30
0
10
411.71317358972544
20
-61.367576533606972
30
0
0
SPLINE
5
145
100
AcDbEntity
8
0
100
AcDbSpline
70
0
71
2
72
6
73
3
74
0
42
0.000000001
43
0.0000000001
44
0.0000000001
40
0
40
0
40
0
40
1
40
1
40
1
10
411.71317358972544
20
-61.367576533606972
30
0
10
411.59551130947426
20
-61.287761155027304
30
0
10
411.44817328940582
20
-61.246825129077209
30
0
0
SPLINE
5
146
100
AcDbEntity
8
0
100
AcDbSpline
70
0
71
2
72
6
73
3
74
0
42
0.000000001
43
0.0000000001
44
0.0000000001
40
0
40
0
40
0
40
1
40
1
40
1
10
411.44817328940582
20
-61.246825129077209
30
0
10
411.33971588792468
20
-61.218169823456634
30
0
10
411.12075493761881
20
-61.191554596396131
30
0
0
SPLINE
5
147
100
AcDbEntity
8
0
100
AcDbSpline
70
0
71
2
72
6
73
3
74
0
42
0.000000001
43
0.0000000001
44
0.0000000001
40
0
40
0
40
0
40
1
40
1
40
1
10
411.12075493761881
20
-61.191554596396131
30
0
10
410.67464574301334
20
-61.138323686698456
30
0
10
410.46387232151721
20
-61.064642107407906
30
0
0
SPLINE
5
148
100
AcDbEntity
8
0
100
AcDbSpline
70
0
71
2
72
6
73
3
74
0
42
0.000000001
43
0.0000000001
44
0.0000000001
40
0
40
0
40
0
40
1
40
1
40
1
10
410.46387232151721
20
-61.064642107407906
30
0
10
410.46183090330038
20
-60.988925617392681
30
0
10
410.46183204197678
20
-60.96846215078007
30
0
0
SPLINE
5
149
100
AcDbEntity
8
0
100
AcDbSpline
70
0
71
2
72
6
73
3
74
0
42
0.000000001
43
0.0000000001
44
0.0000000001
40
0
40
0
40
0
40
1
40
1
40
1
10
410.46183204197678
20
-60.96846215078007
30
0
10
410.46184456766514
20
-60.743359547693039
30
0
10
410.56621504044585
20
-60.651278265162276
30
0
0
SPLINE
5
150
100
AcDbEntity
8
0
100
AcDbSpline
70
0
71
2
72
6
73
3
74
0
42
0.000000001
43
0.0000000001
44
0.0000000001
40
0
40
0
40
0
40
1
40
1
40
1
10
410.56621504044585
20
-60.651278265162276
30
0
10
410.70742181347305
20
-60.526456710821599
30
0
10
410.98573020461322
20
-60.526472197111367
30
0
0
SPLINE
5
151
100
AcDbEntity
8
0
100
AcDbSpline
70
0
71
2
72
6
73
3
74
0
42
0.000000001
43
0.0000000001
44
0.0000000001
40
0
40
0
40
0
40
1
40
1
40
1
10
410.98573020461322
20
-60.526472197111367
30
0
10
411.24562195263928
20
-60.526486658618985
30
0
10
411.36942288500757
20
-60.617557523870325
30
0
0
SPLINE
5
152
100
AcDbEntity
8
0
100
AcDbSpline
70
0
71
2
72
6
73
3
74
0
42
0.000000001
43
0.0000000001
44
0.0000000001
40
0
40
0
40
0
40
1
40
1
40
1
10
411.36942288500757
20
-60.617557523870325
30
0
10
411.49322381737585
20
-60.708628389121664
30
0
10
411.55255571852018
20
-60.939873274788937
30
0
0
LINE
5
153
100
AcDbEntity
8
0
100
AcDbLine
10
411.55255571852018
20
-60.93987327478893
30
0
11
411.91272309317611
21
-60.890779982767427
31
0
0
SPLINE
5
154
100
AcDbEntity
8
0
100
AcDbSpline
70
0
71
2
72
6
73
3
74
0
42
0.000000001
43
0.0000000001
44
0.0000000001
40
0
40
0
40
0
40
1
40
1
40
1
10
411.91272309317617
20
-60.890779982767427
30
0
10
411.86362173322863
20
-60.659535964395197
30
0
10
411.75107938871946
20
-60.517305866837852
30
0
0
SPLINE
5
155
100
AcDbEntity
8
0
100
AcDbSpline
70
0
71
2
72
6
73
3
74
0
42
0.000000001
43
0.0000000001
44
0.0000000001
40
0
40
0
40
0
40
1
40
1
40
1
10
411.75107938871946
20
-60.517305866837852
30
0
10
411.6385358521174
20
-60.37507576921417
30
0
10
411.42571577791443
20
-60.298324734851512
30
0
0
SPLINE
5
156
100
AcDbEntity
8
0
100
AcDbSpline
70
0
71
2
72
6
73
3
74
0
42
0.000000001
43
0.0000000001
44
0.0000000001
40
0
40
0
40
0
40
1
40
1
40
1
10
411.42571577791443
20
-60.298324734851512
30
0
10
411.21289570374466
20
-60.221573104442413
30
0
10
410.93254168119893
20
-60.221557504324814
30
0
0
SPLINE
5
157
100
AcDbEntity
8
0
100
AcDbSpline
70
0
71
2
72
6
73
3
74
0
42
0.000000001
43
0.0000000001
44
0.0000000001
40
0
40
0
40
0
40
1
40
1
40
1
10
410.93254168119893
20
-60.221557504324814
30
0
10
410.65423329005876
20
-60.221542018035038
30
0
10
410.48028660372245
20
-60.287016981968463
30
0
0
SPLINE
5
158
100
AcDbEntity
8
0
100
AcDbSpline
70
0
71
2
72
6
73
3
74
0
42
0.000000001
43
0.0000000001
44
0.0000000001
40
0
40
0
40
0
40
1
40
1
40
1
10
410.48028660372245
20
-60.287016981968463
30
0
10
410.30634110951218
20
-60.352491349921763
30
0
10
410.22447933618628
20
-60.451736575108242
30
0
0
SPLINE
5
159
100
AcDbEntity
8
0
100
AcDbSpline
70
0
71
2
72
6
73
3
74
0
42
0.000000001
43
0.0000000001
44
0.0000000001
40
0
40
0
40
0
40
1
40
1
40
1
10
410.22447933618628
20
-60.451736575108242
30
0
10
410.14261875495333
20
-60.550981800361058
30
0
10
410.10986711309897
20
-60.70241213471445
30
0
0
SPLINE
5
160
100
AcDbEntity
8
0
100
AcDbSpline
70
0
71
2
72
6
73
3
74
0
42
0.000000001
43
0.0000000001
44
0.0000000001
40
0
40
0
40
0
40
1
40
1
40
1
10
410.10986711309897
20
-60.70241213471445
30
0
10
410.09144523196426
20
-60.796545023303565
30
0
10
410.09143156759956
20
-61.0421110930032
30
0
0
LINE
5
161
100
AcDbEntity
8
0
100
AcDbLine
10
410.09143156759956
20
-61.042111093003214
30
0
11
410.09140423885356
21
-61.533243530425693
31
0
0
SPLINE
5
162
100
AcDbEntity
8
0
100
AcDbSpline
70
0
71
2
72
6
73
3
74
0
42
0.000000001
43
0.0000000001
44
0.0000000001
40
0
40
0
40
0
40
1
40
1
40
1
10
410.09140423885356
20
-61.533243530425679
30
0
10
410.09137565753701
20
-62.046886257959187
30
0
10
410.06783497938642
20
-62.182969504843712
30
0
0
SPLINE
5
163
100
AcDbEntity
8
0
100
AcDbSpline
70
0
71
2
72
6
73
3
74
0
42
0.000000001
43
0.0000000001
44
0.0000000001
40
0
40
0
40
0
40
1
40
1
40
1
10
410.06783497938642
20
-62.182969504843712
30
0
10
410.04429310914281
20
-62.319052751661886
30
0
10
409.97470966135262
20
-62.443878291436015
30
0
0
LINE
5
164
100
AcDbEntity
8
0
100
AcDbLine
10
409.97470966135262
20
-62.443878291436015
30
0
11
410.35943022464556
21
-62.443899698962028
31
0
0
SPLINE
5
165
100
AcDbEntity
8
0
100
AcDbSpline
70
0
71
2
72
6
73
3
74
0
42
0.000000001
43
0.0000000001
44
0.0000000001
40
0
40
0
40
0
40
1
40
1
40
1
10
410.35943022464551
20
-62.443899698962028
30
0
10
410.4167357383858
20
-62.329305209328218
30
0
10
410.43311409822331
20
-62.175827438412639
30
0
0
SPLINE
5
166
100
AcDbEntity
8
0
100
AcDbSpline
70
0
71
2
72
6
73
3
74
0
42
0.000000001
43
0.0000000001
44
0.0000000001
40
0
40
0
40
0
40
1
40
1
40
1
10
410.46385626587261
20
-61.353182529877621
30
0
10
410.66439749858517
20
-61.435049045684337
30
0
10
411.06548588522998
20
-61.492370203168214
30
0
0
SPLINE
5
167
100
AcDbEntity
8
0
100
AcDbSpline
70
0
71
2
72
6
73
3
74
0
42
0.000000001
43
0.0000000001
44
0.0000000001
40
0
40
0
40
0
40
1
40
1
40
1
10
411.06548588522998
20
-61.492370203168214
30
0
10
411.29263259583706
20
-61.52512486611819
30
0
10
411.38676393378273
20
-61.566057931416992
30
0
0
SPLINE
5
168
100
AcDbEntity
8
0
100
AcDbSpline
70
0
71
2
72
6
73
3
74
0
42
0.000000001
43
0.0000000001
44
0.0000000001
40
0
40
0
40
0
40
1
40
1
40
1
10
411.38676393378273
20
-61.566057931416992
30
0
10
411.480895271745
20
-61.60699069869257
30
0
10
411.53205074637265
20
-61.685779560838284
30
0
0
SPLINE
5
169
100
AcDbEntity
8
0
100
AcDbSpline
70
0
71
2
72
6
73
3
74
0
42
0.000000001
43
0.0000000001
44
0.0000000001
40
0
40
0
40
0
40
1
40
1
40
1
10
411.53205074637265
20
-61.685779560838284
30
0
10
411.58320622101689
20
-61.764568124960775
30
0
10
411.58320086913534
20
-61.860748265784011
30
0
0
SPLINE
5
170
100
AcDbEntity
8
0
100
AcDbSpline
70
0
71
2
72
6
73
3
74
0
42
0.000000001
43
0.0000000001
44
0.0000000001
40
0
40
0
40
0
40
1
40
1
40
1
10
411.58320086913534
20
-61.860748265784011
30
0
10
411.5831926705132
20
-62.008087967208432
30
0
10
411.47165856991825
20
-62.106308129545155
30
0
0
SPLINE
5
171
100
AcDbEntity
8
0
100
AcDbSpline
70
0
71
2
72
6
73
3
74
0
42
0.000000001
43
0.0000000001
44
0.0000000001
40
0
40
0
40
0
40
1
40
1
40
1
10
411.47165856991825
20
-62.106308129545155
30
0
10
411.36012566141625
20
-62.204528291948201
30
0
10
411.1452544936123
20
-62.204516335581545
30
0
0
SPLINE
5
172
100
AcDbEntity
8
0
100
AcDbSpline
70
0
71
2
72
6
73
3
74
0
42
0.000000001
43
0.0000000001
44
0.0000000001
40
0
40
0
40
0
40
1
40
1
40
1
10
411.1452544936123
20
-62.204516335581545
30
0
10
410.93243134139971
20
-62.204504493175392
30
0
10
410.76667958188807
20
-62.111384768115975
30
0
0
SPLINE
5
173
100
AcDbEntity
8
0
100
AcDbSpline
70
0
71
2
72
6
73
3
74
0
42
0.000000001
43
0.0000000001
44
0.0000000001
40
0
40
0
40
0
40
1
40
1
40
1
10
410.76667958188807
20
-62.111384768115975
30
0
10
410.60092663028365
20
-62.018265042990215
30
0
10
410.52317302235969
20
-61.856596230259498
30
0
0
SPLINE
5
174
100
AcDbEntity
8
0
100
AcDbSpline
70
0
71
2
72
6
73
3
74
0
42
0.000000001
43
0.0000000001
44
0.0000000001
40
0
40
0
40
0
40
1
40
1
40
1
10
410.52317302235969
20
-61.856596230259498
30
0
10
410.46383519997903
20
-61.731763516744984
30
0
10
410.46384875046618
20
-61.48824397252055
30
0
0
LINE
5
175
100
AcDbEntity
8
0
100
AcDbLine
10
410.46384875046618
20
-61.48824397252055
30
0
11
410.46385626587261
21
-61.353182529877621
31
0
0
LINE
5
176
100
AcDbEntity
8
0
100
AcDbLine
10
409.6677877984053
20
-61.795157338806384
30
0
11
409.30353508217456
21
-61.737838231019467
31
0
0
SPLINE
5
177
100
AcDbEntity
8
0
100
AcDbSpline
70
0
71
2
72
6
73
3
74
0
42
0.000000001
43
0.0000000001
44
0.0000000001
40
0
40
0
40
0
40
1
40
1
40
1
10
409.30353508217456
20
-61.737838231019481
30
0
10
409.27282650610715
20
-61.956799549600106
30
0
10
409.13264300425988
20
-62.073435655000381
30
0
0
SPLINE
5
178
100
AcDbEntity
8
0
100
AcDbSpline
70
0
71
2
72
6
73
3
74
0
42
0.000000001
43
0.0000000001
44
0.0000000001
40
0
40
0
40
0
40
1
40
1
40
1
10
409.13264300425988
20
-62.073435655000381
30
0
10
408.99245950239589
20
-62.190072058423866
30
0
10
408.74075385627071
20
-62.190058052426579
30
0
0
SPLINE
5
179
100
AcDbEntity
8
0
100
AcDbSpline
70
0
71
2
72
6
73
3
74
0
42
0.000000001
43
0.0000000001
44
0.0000000001
40
0
40
0
40
0
40
1
40
1
40
1
10
408.74075385627071
20
-62.190058052426579
30
0
10
408.48700257873998
20
-62.190043932601455
30
0
10
408.36422514530676
20
-62.086694567459304
30
0
0
SPLINE
5
180
100
AcDbEntity
8
0
100
AcDbSpline
70
0
71
2
72
6
73
3
74
0
42
0.000000001
43
0.0000000001
44
0.0000000001
40
0
40
0
40
0
40
1
40
1
40
1
10
408.36422514530676
20
-62.086694567459304
30
0
10
408.24144771187355
20
-61.983345202317153
30
0
10
408.24145545501858
20
-61.844191006747067
30
0
0
SPLINE
5
181
100
AcDbEntity
8
0
100
AcDbSpline
70
0
71
2
72
6
73
3
74
0
42
0.000000001
43
0.0000000001
44
0.0000000001
40
0
40
0
40
0
40
1
40
1
40
1
10
408.24145545501858
20
-61.844191006747067
30
0
10
408.24146240107018
20
-61.719361595433668
30
0
10
408.34992419006198
20
-61.64774430526073
30
0
0
SPLINE
5
182
100
AcDbEntity
8
0
100
AcDbSpline
70
0
71
2
72
6
73
3
74
0
42
0.000000001
43
0.0000000001
44
0.0000000001
40
0
40
0
40
0
40
1
40
1
40
1
10
408.34992419006198
20
-61.64774430526073
30
0
10
408.42564270308253
20
-61.59863518526695
30
0
10
408.72646678961524
20
-61.522935548006132
30
0
0
SPLINE
5
183
100
AcDbEntity
8
0
100
AcDbSpline
70
0
71
2
72
6
73
3
74
0
42
0.000000001
43
0.0000000001
44
0.0000000001
40
0
40
0
40
0
40
1
40
1
40
1
10
408.72646678961524
20
-61.522935548006132
30
0
10
409.13165532090909
20
-61.420638972939742
30
0
10
409.28820869222506
20
-61.345954719581002
30
0
0
SPLINE
5
184
100
AcDbEntity
8
0
100
AcDbSpline
70
0
71
2
72
6
73
3
74
0
42
0.000000001
43
0.0000000001
44
0.0000000001
40
0
40
0
40
0
40
1
40
1
40
1
10
409.28820869222506
20
-61.345954719581002
30
0
10
409.44476087144812
20
-61.271270466155926
30
0
10
409.52560045890357
20
-61.13928286254864
30
0
0
SPLINE
5
185
100
AcDbEntity
8
0
100
AcDbSpline
70
0
71
2
72
6
73
3
74
0
42
0.000000001
43
0.0000000001
44
0.0000000001
40
0
40
0
40
0
40
1
40
1
40
1
10
409.52560045890357
20
-61.13928286254864
30
0
10
409.60644004632582
20
-61.007295854987802
30
0
10
409.60644892818033
20
-60.847677596758658
30
0
0
SPLINE
5
186
100
AcDbEntity
8
0
100
AcDbSpline
70
0
71
2
72
6
73
3
74
0
42
0.000000001
43
0.0000000001
44
0.0000000001
40
0
40
0
40
0
40
1
40
1
40
1
10
409.60644892818033
20
-60.847677596758658
30
0
10
409.60645701294146
20
-60.702384122786206
30
0
10
409.53995584741568
20
-60.578574422424495
30
0
0
SPLINE
5
187
100
AcDbEntity
8
0
100
AcDbSpline
70
0
71
2
72
6
73
3
74
0
42
0.000000001
43
0.0000000001
44
0.0000000001
40
0
40
0
40
0
40
1
40
1
40
1
10
409.53995584741568
20
-60.578574422424495
30
0
10
409.47345587399946
20
-60.454764424105882
30
0
10
409.35886215473408
20
-60.37290269079277
30
0
0
SPLINE
5
188
100
AcDbEntity
8
0
100
AcDbSpline
70
0
71
2
72
6
73
3
74
0
42
0.000000001
43
0.0000000001
44
0.0000000001
40
0
40
0
40
0
40
1
40
1
40
1
10
409.35886215473408
20
-60.37290269079277
30
0
10
409.27291817124313
20
-60.309460088916481
30
0
10
409.12455750627998
20
-60.265454366851294
30
0
0
SPLINE
5
189
100
AcDbEntity
8
0
100
AcDbSpline
70
0
71
2
72
6
73
3
74
0
42
0.000000001
43
0.0000000001
44
0.0000000001
40
0
40
0
40
0
40
1
40
1
40
1
10
409.12455750627998
20
-60.265454366851294
30
0
10
408.97619684131689
20
-60.221448644786108
30
0
10
408.80634744582784
20
-60.22143919362675
30
0
0
SPLINE
5
190
100
AcDbEntity
8
0
100
AcDbSpline
70
0
71
2
72
6
73
3
74
0
42
0.000000001
43
0.0000000001
44
0.0000000001
40
0
40
0
40
0
40
1
40
1
40
1
10
408.80634744582784
20
-60.22143919362675
30
0
10
408.55054934479875
20
-60.221424959907459
30
0
10
408.35716155207535
20
-60.2950843479328
30
0
0
SPLINE
5
191
100
AcDbEntity
8
0
100
AcDbSpline
70
0
71
2
72
6
73
3
74
0
42
0.000000001
43
0.0000000001
44
0.0000000001
40
0
40
0
40
0
40
1
40
1
40
1
10
408.35716155207535
20
-60.2950843479328
30
0
10
408.1637749514781
20
-60.368743139978037
30
0
10
408.07167996453688
20
-60.494590838864553
30
0
0
SPLINE
5
192
100
AcDbEntity
8
0
100
AcDbSpline
70
0
71
2
72
6
73
3
74
0
42
0.000000001
43
0.0000000001
44
0.0000000001
40
0
40
0
40
0
40
1
40
1
40
1
10
408.07167996453688
20
-60.494590838864553
30
0
10
407.97958497759566
20
-60.62043853775107
30
0
10
407.94478559419429
20
-60.831214122821706
30
0
0
LINE
5
193
100
AcDbEntity
8
0
100
AcDbLine
10
407.94478559419429
20
-60.831214122821692
30
0
11
408.30494631101482
21
-60.880347199009066
31
0
0
SPLINE
5
194
100
AcDbEntity
8
0
100
AcDbSpline
70
0
71
2
72
6
73
3
74
0
42
0.000000001
43
0.0000000001
44
0.0000000001
40
0
40
0
40
0
40
1
40
1
40
1
10
408.30494631101482
20
-60.880347199009066
30
0
10
408.32951276192273
20
-60.712545397436685
30
0
10
408.44718472110515
20
-60.618418031553738
30
0
0
SPLINE
5
195
100
AcDbEntity
8
0
100
AcDbSpline
70
0
71
2
72
6
73
3
74
0
42
0.000000001
43
0.0000000001
44
0.0000000001
40
0
40
0
40
0
40
1
40
1
40
1
10
408.44718472110515
20
-60.618418031553738
30
0
10
408.56485787238046
20
-60.524290665737119
30
0
10
408.77972784809145
20
-60.524302622037439
30
0
0
SPLINE
5
196
100
AcDbEntity
8
0
100
AcDbSpline
70
0
71
2
72
6
73
3
74
0
42
0.000000001
43
0.0000000001
44
0.0000000001
40
0
40
0
40
0
40
1
40
1
40
1
10
408.77972784809145
20
-60.524302622037439
30
0
10
409.03347912562219
20
-60.524316741862563
30
0
10
409.14193345260753
20
-60.608224659034711
30
0
0
SPLINE
5
197
100
AcDbEntity
8
0
100
AcDbSpline
70
0
71
2
72
6
73
3
74
0
42
0.000000001
43
0.0000000001
44
0.0000000001
40
0
40
0
40
0
40
1
40
1
40
1
10
409.14193345260753
20
-60.608224659034711
30
0
10
409.25038658750003
20
-60.69213257614053
30
0
10
409.25038032466421
20
-60.804683728672437
30
0
0
SPLINE
5
198
100
AcDbEntity
8
0
100
AcDbSpline
70
0
71
2
72
6
73
3
74
0
42
0.000000001
43
0.0000000001
44
0.0000000001
40
0
40
0
40
0
40
1
40
1
40
1
10
409.25038032466421
20
-60.804683728672437
30
0
10
409.25037633921409
20
-60.876307351932667
30
0
10
409.20535257065188
20
-60.933603387772031
30
0
0
SPLINE
5
199
100
AcDbEntity
8
0
100
AcDbSpline
70
0
71
2
72
6
73
3
74
0
42
0.000000001
43
0.0000000001
44
0.0000000001
40
0
40
0
40
0
40
1
40
1
40
1
10
409.20535257065188
20
-60.933603387772031
30
0
10
409.16032988028837
20
-60.99294624717615
30
0
10
409.06414727791713
20
-61.031822197097753
30
0
0
SPLINE
5
200
100
AcDbEntity
8
0
100
AcDbSpline
70
0
71
2
72
6
73
3
74
0
42
0.000000001
43
0.0000000001
44
0.0000000001
40
0
40
0
40
0
40
1
40
1
40
1
10
409.06414727791713
20
-61.031822197097753
30
0
10
409.00889263360295
20
-61.052282887188127
30
0
10
408.73876624505249
20
-61.12593770712089
30
0
0
SPLINE
5
201
100
AcDbEntity
8
0
100
AcDbSpline
70
0
71
2
72
6
73
3
74
0
42
0.000000001
43
0.0000000001
44
0.0000000001
40
0
40
0
40
0
40
1
40
1
40
1
10
408.73876624505249
20
-61.12593770712089
30
0
10
408.34790059599845
20
-61.230281604656291
30
0
10
408.19339450365806
20
-61.296780466054869
30
0
0
SPLINE
5
202
100
AcDbEntity
8
0
100
AcDbSpline
70
0
71
2
72
6
73
3
74
0
42
0.000000001
43
0.0000000001
44
0.0000000001
40
0
40
0
40
0
40
1
40
1
40
1
10
408.19339450365806
20
-61.296780466054869
30
0
10
408.03888960339401
20
-61.363279625543001
30
0
10
407.95088820653569
20
-61.490150367920606
30
0
0
SPLINE
5
203
100
AcDbEntity
8
0
100
AcDbSpline
70
0
71
2
72
6
73
3
74
0
42
0.000000001
43
0.0000000001
44
0.0000000001
40
0
40
0
40
0
40
1
40
1
40
1
10
407.95088820653569
20
-61.490150367920606
30
0
10
407.86288561756783
20
-61.617021408255106
30
0
10
407.86287514154333
20
-61.805288936974414
30
0
0
SPLINE
5
204
100
AcDbEntity
8
0
100
AcDbSpline
70
0
71
2
72
6
73
3
74
0
42
0.000000001
43
0.0000000001
44
0.0000000001
40
0
40
0
40
0
40
1
40
1
40
1
10
407.86287514154333
20
-61.805288936974414
30
0
10
407.86286489327392
20
-61.989463414743334
30
0
10
407.97029202057638
20
-62.152156992366933
30
0
0
SPLINE
5
205
100
AcDbEntity
8
0
100
AcDbSpline
70
0
71
2
72
6
73
3
74
0
42
0.000000001
43
0.0000000001
44
0.0000000001
40
0
40
0
40
0
40
1
40
1
40
1
10
407.97029202057638
20
-62.152156992366933
30
0
10
408.07771795580254
20
-62.314850271900966
30
0
10
408.28030561346685
20
-62.403879293730185
30
0
0
SPLINE
5
206
100
AcDbEntity
8
0
100
AcDbSpline
70
0
71
2
72
6
73
3
74
0
42
0.000000001
43
0.0000000001
44
0.0000000001
40
0
40
0
40
0
40
1
40
1
40
1
10
408.28030561346685
20
-62.403879293730185
30
0
10
408.48289207903827
20
-62.492908315493082
30
0
10
408.73869018006747
20
-62.492922549212366
30
0
0
SPLINE
5
207
100
AcDbEntity
8
0
100
AcDbSpline
70
0
71
2
72
6
73
3
74
0
42
0.000000001
43
0.0000000001
44
0.0000000001
40
0
40
0
40
0
40
1
40
1
40
1
10
408.73869018006747
20
-62.492922549212366
30
0
10
409.16229204518004
20
-62.492946120263177
30
0
10
409.38433390777186
20
-62.31696980120222
30
0
0
SPLINE
5
208
100
AcDbEntity
8
0
100
AcDbSpline
70
0
71
2
72
6
73
3
74
0
42
0.000000001
43
0.0000000001
44
0.0000000001
40
0
40
0
40
0
40
1
40
1
40
1
10
409.38433390777186
20
-62.31696980120222
30
0
10
409.60637696248972
20
-62.140992886161143
30
0
10
409.6677877984053
20
-61.795157338806384
30
0
0
LINE
5
209
100
AcDbEntity
8
0
100
AcDbLine
10
405.93723130186129
20
-61.743790193652131
30
0
11
405.55660176656318
21
-61.790835821588466
31
0
0
SPLINE
5
210
100
AcDbEntity
8
0
100
AcDbSpline
70
0
71
2
72
6
73
3
74
0
42
0.000000001
43
0.0000000001
44
0.0000000001
40
0
40
0
40
0
40
1
40
1
40
1
10
405.55660176656318
20
-61.790835821588466
30
0
10
405.6466231741453
20
-62.124401536472604
30
0
10
405.89013366217665
20
-62.308589862818032
30
0
0
SPLINE
5
211
100
AcDbEntity
8
0
100
AcDbSpline
70
0
71
2
72
6
73
3
74
0
42
0.000000001
43
0.0000000001
44
0.0000000001
40
0
40
0
40
0
40
1
40
1
40
1
10
405.89013366217665
20
-62.308589862818032
30
0
10
406.13364295814824
20
-62.492777593050697
30
0
10
406.51222424303887
20
-62.492798658960552
30
0
0
SPLINE
5
212
100
AcDbEntity
8
0
100
AcDbSpline
70
0
71
2
72
6
73
3
74
0
42
0.000000001
43
0.0000000001
44
0.0000000001
40
0
40
0
40
0
40
1
40
1
40
1
10
406.51222424303887
20
-62.492798658960552
30
0
10
406.98903159818144
20
-62.492825190596321
30
0
10
407.26837914532155
20
-62.199184742700368
30
0
0
SPLINE
5
213
100
AcDbEntity
8
0
100
AcDbSpline
70
0
71
2
72
6
73
3
74
0
42
0.000000001
43
0.0000000001
44
0.0000000001
40
0
40
0
40
0
40
1
40
1
40
1
10
407.26837914532155
20
-62.199184742700368
30
0
10
407.54772788457115
20
-61.905543996847527
30
0
10
407.54775737684201
20
-61.375530257605348
30
0
0
SPLINE
5
214
100
AcDbEntity
8
0
100
AcDbSpline
70
0
71
2
72
6
73
3
74
0
42
0.000000001
43
0.0000000001
44
0.0000000001
40
0
40
0
40
0
40
1
40
1
40
1
10
407.54775737684201
20
-61.375530257605348
30
0
10
407.54778789392816
20
-60.827099279202542
30
0
10
407.26540270852917
20
-60.524218358398031
30
0
0
SPLINE
5
215
100
AcDbEntity
8
0
100
AcDbSpline
70
0
71
2
72
6
73
3
74
0
42
0.000000001
43
0.0000000001
44
0.0000000001
40
0
40
0
40
0
40
1
40
1
40
1
10
407.26540270852917
20
-60.524218358398031
30
0
10
406.98301871520641
20
-60.221337735683093
30
0
10
406.53281410507884
20
-60.2213126843398
30
0
0
SPLINE
5
216
100
AcDbEntity
8
0
100
AcDbSpline
70
0
71
2
72
6
73
3
74
0
42
0.000000001
43
0.0000000001
44
0.0000000001
40
0
40
0
40
0
40
1
40
1
40
1
10
406.53281410507884
20
-60.2213126843398
30
0
10
406.09693487525442
20
-60.221288430122996
30
0
10
405.82065560439787
20
-60.517998985985102
30
0
0
SPLINE
5
217
100
AcDbEntity
8
0
100
AcDbSpline
70
0
71
2
72
6
73
3
74
0
42
0.000000001
43
0.0000000001
44
0.0000000001
40
0
40
0
40
0
40
1
40
1
40
1
10
405.82065560439787
20
-60.517998985985102
30
0
10
405.54437752563422
20
-60.814709541913537
30
0
10
405.54434757788624
20
-61.352908787010051
30
0
0
SPLINE
5
218
100
AcDbEntity
8
0
100
AcDbSpline
70
0
71
2
72
6
73
3
74
0
42
0.000000001
43
0.0000000001
44
0.0000000001
40
0
40
0
40
0
40
1
40
1
40
1
10
405.54434757788624
20
-61.352908787010051
30
0
10
405.54434575597759
20
-61.385650810427364
30
0
10
405.54638893564209
20
-61.451135269179417
30
0
0
LINE
5
219
100
AcDbEntity
8
0
100
AcDbLine
10
405.54638893564209
20
-61.451135269179417
30
0
11
407.16712505526431
21
-61.451225453988734
31
0
0
SPLINE
5
220
100
AcDbEntity
8
0
100
AcDbSpline
70
0
71
2
72
6
73
3
74
0
42
0.000000001
43
0.0000000001
44
0.0000000001
40
0
40
0
40
0
40
1
40
1
40
1
10
407.16712505526431
20
-61.451225453988734
30
0
10
407.1466416614511
20
-61.809341537543958
30
0
10
406.96450311927185
20
-61.999645159323549
30
0
0
SPLINE
5
221
100
AcDbEntity
8
0
100
AcDbSpline
70
0
71
2
72
6
73
3
74
0
42
0.000000001
43
0.0000000001
44
0.0000000001
40
0
40
0
40
0
40
1
40
1
40
1
10
406.96450311927185
20
-61.999645159323549
30
0
10
406.78236338498317
20
-62.189949079060028
30
0
10
406.51019427224531
20
-62.189933934386431
30
0
0
SPLINE
5
222
100
AcDbEntity
8
0
100
AcDbSpline
70
0
71
2
72
6
73
3
74
0
42
0.000000001
43
0.0000000001
44
0.0000000001
40
0
40
0
40
0
40
1
40
1
40
1
10
406.51019427224531
20
-62.189933934386431
30
0
10
406.30760166124611
20
-62.189922661252098
30
0
10
406.16436093200832
20
-62.08350251823245
30
0
0
SPLINE
5
223
100
AcDbEntity
8
0
100
AcDbSpline
70
0
71
2
72
6
73
3
74
0
42
0.000000001
43
0.0000000001
44
0.0000000001
40
0
40
0
40
0
40
1
40
1
40
1
10
406.16436093200832
20
-62.08350251823245
30
0
10
406.02112020275405
20
-61.977082673236026
30
0
10
405.93723130186129
20
-61.743790193652131
30
0
0
LINE
5
224
100
AcDbEntity
8
0
100
AcDbLine
10
407.14667844137318
20
-61.148359406609245
30
0
11
405.93317198306204
21
-61.14829188183009
31
0
0
SPLINE
5
225
100
AcDbEntity
8
0
100
AcDbSpline
70
0
71
2
72
6
73
3
74
0
42
0.000000001
43
0.0000000001
44
0.0000000001
40
0
40
0
40
0
40
1
40
1
40
1
10
405.93317198306204
20
-61.148291881830083
30
0
10
405.95774316312998
20
-60.874077610015377
30
0
10
406.0723490664509
20
-60.736976316667054
30
0
0
SPLINE
5
226
100
AcDbEntity
8
0
100
AcDbSpline
70
0
71
2
72
6
73
3
74
0
42
0.000000001
43
0.0000000001
44
0.0000000001
40
0
40
0
40
0
40
1
40
1
40
1
10
406.0723490664509
20
-60.736976316667054
30
0
10
406.24834958281485
20
-60.524161765137052
30
0
10
406.52870479745343
20
-60.524177365320988
30
0
0
SPLINE
5
227
100
AcDbEntity
8
0
100
AcDbSpline
70
0
71
2
72
6
73
3
74
0
42
0.000000001
43
0.0000000001
44
0.0000000001
40
0
40
0
40
0
40
1
40
1
40
1
10
406.52870479745343
20
-60.524177365320988
30
0
10
406.78245607498417
20
-60.524191485146105
30
0
10
406.9553656584817
20
-60.694051098648991
30
0
0
SPLINE
5
228
100
AcDbEntity
8
0
100
AcDbSpline
70
0
71
2
72
6
73
3
74
0
42
0.000000001
43
0.0000000001
44
0.0000000001
40
0
40
0
40
0
40
1
40
1
40
1
10
406.9553656584817
20
-60.694051098648991
30
0
10
407.12827643407218
20
-60.863910712218214
30
0
10
407.14667844137318
20
-61.148359406609245
30
0
0
LWPOLYLINE
5
229
100
AcDbEntity
8
0
100
AcDbPolyline
90
4
70
1
43
0.0
10
404.07300621559494
20
-61.172744891752458
10
404.07298560516205
20
-61.543140670788716
10
402.94133420539424
20
-61.543077700781154
10
402.94135481582714
20
-61.172681921744896
0
LINE
5
230
100
AcDbEntity
8
0
100
AcDbLine
10
401.45771137198579
20
-61.479557325972536
30
0
11
401.08322436392439
21
-61.446794166344134
31
0
0
SPLINE
5
231
100
AcDbEntity
8
0
100
AcDbSpline
70
0
71
2
72
6
73
3
74
0
42
0.000000001
43
0.0000000001
44
0.0000000001
40
0
40
0
40
0
40
1
40
1
40
1
10
401.08322436392433
20
-61.44679416634412
30
0
10
401.05660909323763
20
-61.671894991115444
30
0
10
400.95939781087441
20
-61.816159644526685
30
0
0
SPLINE
5
232
100
AcDbEntity
8
0
100
AcDbSpline
70
0
71
2
72
6
73
3
74
0
42
0.000000001
43
0.0000000001
44
0.0000000001
40
0
40
0
40
0
40
1
40
1
40
1
10
400.95939781087441
20
-61.816159644526685
30
0
10
400.86218652849448
20
-61.96042459596115
30
0
10
400.65754214066197
20
-62.049430957627543
30
0
0
SPLINE
5
233
100
AcDbEntity
8
0
100
AcDbSpline
70
0
71
2
72
6
73
3
74
0
42
0.000000001
43
0.0000000001
44
0.0000000001
40
0
40
0
40
0
40
1
40
1
40
1
10
400.65754214066197
20
-62.049430957627543
30
0
10
400.45289775284601
20
-62.138437021270718
30
0
10
400.19710084390971
20
-62.138422787617756
30
0
0
SPLINE
5
234
100
AcDbEntity
8
0
100
AcDbSpline
70
0
71
2
72
6
73
3
74
0
42
0.000000001
43
0.0000000001
44
0.0000000001
40
0
40
0
40
0
40
1
40
1
40
1
10
400.19710084390971
20
-62.138422787617756
30
0
10
399.96995231139397
20
-62.138410148085121
30
0
10
399.79601302660296
20
-62.070869896827574
30
0
0
SPLINE
5
235
100
AcDbEntity
8
0
100
AcDbSpline
70
0
71
2
72
6
73
3
74
0
42
0.000000001
43
0.0000000001
44
0.0000000001
40
0
40
0
40
0
40
1
40
1
40
1
10
399.79601302660296
20
-62.070869896827574
30
0
10
399.62207374181213
20
-62.003329645570034
30
0
10
399.53715559158917
20
-61.885657602782082
30
0
0
SPLINE
5
236
100
AcDbEntity
8
0
100
AcDbSpline
70
0
71
2
72
6
73
3
74
0
42
0.000000001
43
0.0000000001
44
0.0000000001
40
0
40
0
40
0
40
1
40
1
40
1
10
399.53715559158917
20
-61.885657602782082
30
0
10
399.45223744134967
20
-61.767985858017347
30
0
10
399.45224518449459
20
-61.628831662447261
30
0
0
SPLINE
5
237
100
AcDbEntity
8
0
100
AcDbSpline
70
0
71
2
72
6
73
3
74
0
42
0.000000001
43
0.0000000001
44
0.0000000001
40
0
40
0
40
0
40
1
40
1
40
1
10
399.45224518449459
20
-61.628831662447261
30
0
10
399.45225304150057
20
-61.487631239425198
30
0
10
399.53411277225683
20
-61.382246735703689
30
0
0
SPLINE
5
238
100
AcDbEntity
8
0
100
AcDbSpline
70
0
71
2
72
6
73
3
74
0
42
0.000000001
43
0.0000000001
44
0.0000000001
40
0
40
0
40
0
40
1
40
1
40
1
10
399.53411277225683
20
-61.382246735703689
30
0
10
399.61597488718223
20
-61.276862530138061
30
0
10
399.80424610331181
20
-61.205249680908892
30
0
0
SPLINE
5
239
100
AcDbEntity
8
0
100
AcDbSpline
70
0
71
2
72
6
73
3
74
0
42
0.000000001
43
0.0000000001
44
0.0000000001
40
0
40
0
40
0
40
1
40
1
40
1
10
399.80424610331181
20
-61.205249680908892
30
0
10
399.92498627478625
20
-61.158189293574381
30
0
10
400.33835954507992
20
-61.058962813153173
30
0
0
SPLINE
5
240
100
AcDbEntity
8
0
100
AcDbSpline
70
0
71
2
72
6
73
3
74
0
42
0.000000001
43
0.0000000001
44
0.0000000001
40
0
40
0
40
0
40
1
40
1
40
1
10
400.33835954507992
20
-61.058962813153173
30
0
10
400.75173519957588
20
-60.959736034841413
30
0
10
400.91749822865825
20
-60.871750623376208
30
0
0
SPLINE
5
241
100
AcDbEntity
8
0
100
AcDbSpline
70
0
71
2
72
6
73
3
74
0
42
0.000000001
43
0.0000000001
44
0.0000000001
40
0
40
0
40
0
40
1
40
1
40
1
10
400.91749822865825
20
-60.871750623376208
30
0
10
401.13237685137437
20
-60.759211725300517
30
0
10
401.23777191193022
20
-60.592437237089584
30
0
0
SPLINE
5
242
100
AcDbEntity
8
0
100
AcDbSpline
70
0
71
2
72
6
73
3
74
0
42
0.000000001
43
0.0000000001
44
0.0000000001
40
0
40
0
40
0
40
1
40
1
40
1
10
401.23777191193022
20
-60.592437237089584
30
0
10
401.34317174085766
20
-60.425662749143982
30
0
10
401.3431832417142
20
-60.218977683240809
30
0
0
SPLINE
5
243
100
AcDbEntity
8
0
100
AcDbSpline
70
0
71
2
72
6
73
3
74
0
42
0.000000001
43
0.0000000001
44
0.0000000001
40
0
40
0
40
0
40
1
40
1
40
1
10
401.3431832417142
20
-60.218977683240809
30
0
10
401.34319588126351
20
-59.991828852701808
30
0
10
401.21428440741533
20
-59.794345828618688
30
0
0
SPLINE
5
244
100
AcDbEntity
8
0
100
AcDbSpline
70
0
71
2
72
6
73
3
74
0
42
0.000000001
43
0.0000000001
44
0.0000000001
40
0
40
0
40
0
40
1
40
1
40
1
10
401.21428440741533
20
-59.794345828618688
30
0
10
401.08537293358376
20
-59.596862506512338
30
0
10
400.8377666279531
20
-59.494529309077777
30
0
0
SPLINE
5
245
100
AcDbEntity
8
0
100
AcDbSpline
70
0
71
2
72
6
73
3
74
0
42
0.000000001
43
0.0000000001
44
0.0000000001
40
0
40
0
40
0
40
1
40
1
40
1
10
400.8377666279531
20
-59.494529309077777
30
0
10
400.59016032230591
20
-59.39219640966644
30
0
10
400.28729243337045
20
-59.392179556779361
30
0
0
SPLINE
5
246
100
AcDbEntity
8
0
100
AcDbSpline
70
0
71
2
72
6
73
3
74
0
42
0.000000001
43
0.0000000001
44
0.0000000001
40
0
40
0
40
0
40
1
40
1
40
1
10
400.28729243337045
20
-59.392179556779361
30
0
10
399.95373530498063
20
-59.392160996209469
30
0
10
399.69895284939457
20
-59.499582105216511
30
0
0
SPLINE
5
247
100
AcDbEntity
8
0
100
AcDbSpline
70
0
71
2
72
6
73
3
74
0
42
0.000000001
43
0.0000000001
44
0.0000000001
40
0
40
0
40
0
40
1
40
1
40
1
10
399.69895284939457
20
-59.499582105216511
30
0
10
399.444170393825
20
-59.607002916200329
30
0
10
399.30705379122168
20
-59.815726580437421
30
0
0
SPLINE
5
248
100
AcDbEntity
8
0
100
AcDbSpline
70
0
71
2
72
6
73
3
74
0
42
0.000000001
43
0.0000000001
44
0.0000000001
40
0
40
0
40
0
40
1
40
1
40
1
10
399.30705379122168
20
-59.815726580437421
30
0
10
399.16993242024671
20
-60.024450244409167
30
0
10
399.1596848056509
20
-60.288433281888167
30
0
0
LINE
5
249
100
AcDbEntity
8
0
100
AcDbLine
10
399.1596848056509
20
-60.288433281888167
30
0
11
399.54031370403902
21
-60.317104030338236
31
0
0
SPLINE
5
250
100
AcDbEntity
8
0
100
AcDbSpline
70
0
71
2
72
6
73
3
74
0
42
0.000000001
43
0.0000000001
44
0.0000000001
40
0
40
0
40
0
40
1
40
1
40
1
10
399.54031370403902
20
-60.317104030338236
30
0
10
399.5710235397712
20
-60.032658068743828
30
0
10
399.74804311410986
20
-59.887374742484042
30
0
0
SPLINE
5
251
100
AcDbEntity
8
0
100
AcDbSpline
70
0
71
2
72
6
73
3
74
0
42
0.000000001
43
0.0000000001
44
0.0000000001
40
0
40
0
40
0
40
1
40
1
40
1
10
399.74804311410986
20
-59.887374742484042
30
0
10
399.92506507265091
20
-59.74209111833369
30
0
10
400.27090314203127
20
-59.742110362268576
30
0
0
SPLINE
5
252
100
AcDbEntity
8
0
100
AcDbSpline
70
0
71
2
72
6
73
3
74
0
42
0.000000001
43
0.0000000001
44
0.0000000001
40
0
40
0
40
0
40
1
40
1
40
1
10
400.27090314203127
20
-59.742110362268576
30
0
10
400.63106778380768
20
-59.742130403396274
30
0
10
400.79579337199874
20
-59.874131373295128
30
0
0
SPLINE
5
253
100
AcDbEntity
8
0
100
AcDbSpline
70
0
71
2
72
6
73
3
74
0
42
0.000000001
43
0.0000000001
44
0.0000000001
40
0
40
0
40
0
40
1
40
1
40
1
10
400.79579337199874
20
-59.874131373295128
30
0
10
400.96051896018986
20
-60.00613234319399
30
0
10
400.96050859804291
20
-60.192353346438097
30
0
0
SPLINE
5
254
100
AcDbEntity
8
0
100
AcDbSpline
70
0
71
2
72
6
73
3
74
0
42
0.000000001
43
0.0000000001
44
0.0000000001
40
0
40
0
40
0
40
1
40
1
40
1
10
400.96050859804291
20
-60.192353346438097
30
0
10
400.96049960232745
20
-60.354017832119212
30
0
10
400.84384988950967
20
-60.458376988222383
30
0
0
SPLINE
5
255
100
AcDbEntity
8
0
100
AcDbSpline
70
0
71
2
72
6
73
3
74
0
42
0.000000001
43
0.0000000001
44
0.0000000001
40
0
40
0
40
0
40
1
40
1
40
1
10
400.84384988950967
20
-60.458376988222383
30
0
10
400.72924819229974
20
-60.562735960262827
30
0
10
400.24527384310056
20
-60.672190841517249
30
0
0
SPLINE
5
256
100
AcDbEntity
8
0
100
AcDbSpline
70
0
71
2
72
6
73
3
74
0
42
0.000000001
43
0.0000000001
44
0.0000000001
40
0
40
0
40
0
40
1
40
1
40
1
10
400.24527384310056
20
-60.672190841517249
30
0
10
399.7612971097322
20
-60.781645424615789
30
0
10
399.58121023405573
20
-60.86349076061849
30
0
0
SPLINE
5
257
100
AcDbEntity
8
0
100
AcDbSpline
70
0
71
2
72
6
73
3
74
0
42
0.000000001
43
0.0000000001
44
0.0000000001
40
0
40
0
40
0
40
1
40
1
40
1
10
399.58121023405573
20
-60.86349076061849
30
0
10
399.31926732838747
20
-60.984213141758829
30
0
10
399.19442582373483
20
-61.169403787102667
30
0
0
SPLINE
5
258
100
AcDbEntity
8
0
100
AcDbSpline
70
0
71
2
72
6
73
3
74
0
42
0.000000001
43
0.0000000001
44
0.0000000001
40
0
40
0
40
0
40
1
40
1
40
1
10
399.19442582373483
20
-61.169403787102667
30
0
10
399.0695843190656
20
-61.354594730469728
30
0
10
399.06957088242291
20
-61.596068345265415
30
0
0
SPLINE
5
259
100
AcDbEntity
8
0
100
AcDbSpline
70
0
71
2
72
6
73
3
74
0
42
0.000000001
43
0.0000000001
44
0.0000000001
40
0
40
0
40
0
40
1
40
1
40
1
10
399.06957088242291
20
-61.596068345265415
30
0
10
399.06955755967437
20
-61.835495136562685
30
0
10
399.20665553040635
20
-62.04730369850239
30
0
0
SPLINE
5
260
100
AcDbEntity
8
0
100
AcDbSpline
70
0
71
2
72
6
73
3
74
0
42
0.000000001
43
0.0000000001
44
0.0000000001
40
0
40
0
40
0
40
1
40
1
40
1
10
399.20665553040635
20
-62.04730369850239
30
0
10
399.34375111696903
20
-62.259111962286212
30
0
10
399.60056667827234
20
-62.376793570194017
30
0
0
SPLINE
5
261
100
AcDbEntity
8
0
100
AcDbSpline
70
0
71
2
72
6
73
3
74
0
42
0.000000001
43
0.0000000001
44
0.0000000001
40
0
40
0
40
0
40
1
40
1
40
1
10
399.60056667827234
20
-62.376793570194017
30
0
10
399.85737985538975
20
-62.494475177969164
30
0
10
400.17866319534647
20
-62.494493055572065
30
0
0
SPLINE
5
262
100
AcDbEntity
8
0
100
AcDbSpline
70
0
71
2
72
6
73
3
74
0
42
0.000000001
43
0.0000000001
44
0.0000000001
40
0
40
0
40
0
40
1
40
1
40
1
10
400.17866319534647
20
-62.494493055572065
30
0
10
400.58589404875045
20
-62.494515715668555
30
0
10
400.8611382130652
20
-62.375840302126434
30
0
0
SPLINE
5
263
100
AcDbEntity
8
0
100
AcDbSpline
70
0
71
2
72
6
73
3
74
0
42
0.000000001
43
0.0000000001
44
0.0000000001
40
0
40
0
40
0
40
1
40
1
40
1
10
400.8611382130652
20
-62.375840302126434
30
0
10
401.13638476153255
20
-62.257165484763412
30
0
10
401.29294605033209
20
-62.018770518205244
30
0
0
SPLINE
5
264
100
AcDbEntity
8
0
100
AcDbSpline
70
0
71
2
72
6
73
3
74
0
42
0.000000001
43
0.0000000001
44
0.0000000001
40
0
40
0
40
0
40
1
40
1
40
1
10
401.29294605033209
20
-62.018770518205244
30
0
10
401.44950733914823
20
-61.780375253623852
30
0
10
401.45771137198579
20
-61.479557325972536
30
0
0
LWPOLYLINE
5
265
100
AcDbEntity
8
0
100
AcDbPolyline
90
4
70
1
43
0.0
10
398.57242104375251
20
-59.443243694633637
10
398.57239747271808
20
-59.86684526172305
10
398.20404792113379
20
-59.866824765151357
10
398.20407149216828
20
-59.443223198061943
0
LWPOLYLINE
5
266
100
AcDbEntity
8
0
100
AcDbPolyline
90
4
70
1
43
0.0
10
398.57237504035987
20
-60.269983362199852
10
398.57225411069169
20
-62.443243809198485
10
398.2039045591074
20
-62.443223312626792
10
398.20402548877559
20
-60.269962865628159
0
LINE
5
267
100
AcDbEntity
8
0
100
AcDbLine
10
396.23323433892216
20
-62.443113655961596
30
0
11
396.2332495974735
21
-62.168898017748575
31
0
0
SPLINE
5
268
100
AcDbEntity
8
0
100
AcDbSpline
70
0
71
2
72
6
73
3
74
0
42
0.000000001
43
0.0000000001
44
0.0000000001
40
0
40
0
40
0
40
1
40
1
40
1
10
396.23324959747356
20
-62.168898017748582
30
0
10
396.43991667196235
20
-62.492238191943912
30
0
10
396.84100824696395
20
-62.492260510424245
30
0
0
SPLINE
5
269
100
AcDbEntity
8
0
100
AcDbSpline
70
0
71
2
72
6
73
3
74
0
42
0.000000001
43
0.0000000001
44
0.0000000001
40
0
40
0
40
0
40
1
40
1
40
1
10
396.84100824696395
20
-62.492260510424245
30
0
10
397.10089880289706
20
-62.492274971865534
30
0
10
397.31884996495495
20
-62.349040448698901
30
0
0
SPLINE
5
270
100
AcDbEntity
8
0
100
AcDbSpline
70
0
71
2
72
6
73
3
74
0
42
0.000000001
43
0.0000000001
44
0.0000000001
40
0
40
0
40
0
40
1
40
1
40
1
10
397.31884996495495
20
-62.349040448698901
30
0
10
397.53679635865785
20
-62.205805627243713
30
0
10
397.65652538606093
20
-61.948991073937385
30
0
0
SPLINE
5
271
100
AcDbEntity
8
0
100
AcDbSpline
70
0
71
2
72
6
73
3
74
0
42
0.000000001
43
0.0000000001
44
0.0000000001
40
0
40
0
40
0
40
1
40
1
40
1
10
397.65652538606093
20
-61.948991073937385
30
0
10
397.77625202929482
20
-61.692176222475169
30
0
10
397.77627059006392
20
-61.358615517806633
30
0
0
SPLINE
5
272
100
AcDbEntity
8
0
100
AcDbSpline
70
0
71
2
72
6
73
3
74
0
42
0.000000001
43
0.0000000001
44
0.0000000001
40
0
40
0
40
0
40
1
40
1
40
1
10
397.77627059006392
20
-61.358615517806633
30
0
10
397.77628869535584
20
-61.033240318992426
30
0
10
397.6678444458318
20
-60.768227563252552
30
0
0
SPLINE
5
273
100
AcDbEntity
8
0
100
AcDbSpline
70
0
71
2
72
6
73
3
74
0
42
0.000000001
43
0.0000000001
44
0.0000000001
40
0
40
0
40
0
40
1
40
1
40
1
10
397.6678444458318
20
-60.768227563252552
30
0
10
397.5594025804935
20
-60.503214807645321
30
0
10
397.34249244619713
20
-60.362002314362442
30
0
0
SPLINE
5
274
100
AcDbEntity
8
0
100
AcDbSpline
70
0
71
2
72
6
73
3
74
0
42
0.000000001
43
0.0000000001
44
0.0000000001
40
0
40
0
40
0
40
1
40
1
40
1
10
397.34249244619713
20
-60.362002314362442
30
0
10
397.1255823119173
20
-60.220789523056339
30
0
10
396.85750684617631
20
-60.220774606171062
30
0
0
SPLINE
5
275
100
AcDbEntity
8
0
100
AcDbSpline
70
0
71
2
72
6
73
3
74
0
42
0.000000001
43
0.0000000001
44
0.0000000001
40
0
40
0
40
0
40
1
40
1
40
1
10
396.85750684617631
20
-60.220774606171062
30
0
10
396.66105470567231
20
-60.220763674719223
30
0
10
396.5075705180638
20
-60.303633902763607
30
0
0
SPLINE
5
276
100
AcDbEntity
8
0
100
AcDbSpline
70
0
71
2
72
6
73
3
74
0
42
0.000000001
43
0.0000000001
44
0.0000000001
40
0
40
0
40
0
40
1
40
1
40
1
10
396.5075705180638
20
-60.303633902763607
30
0
10
396.35408871465762
20
-60.386503832917427
30
0
10
396.25789849009658
20
-60.519513398054407
30
0
0
LINE
5
277
100
AcDbEntity
8
0
100
AcDbLine
10
396.25789849009658
20
-60.519513398054407
30
0
11
396.25795838557593
21
-59.44311520588461
31
0
0
LINE
5
278
100
AcDbEntity
8
0
100
AcDbLine
10
396.25795838557593
20
-59.44311520588461
30
0
11
395.89165684958294
21
-59.44309482327342
31
0
0
LINE
5
279
100
AcDbEntity
8
0
100
AcDbLine
10
395.89165684958294
20
-59.44309482327342
30
0
11
395.89148991653866
21
-62.443094639815051
31
0
0
LINE
5
280
100
AcDbEntity
8
0
100
AcDbLine
10
395.89148991653866
20
-62.443094639815051
30
0
11
396.23323433892216
21
-62.443113655961596
31
0
0
SPLINE
5
281
100
AcDbEntity
8
0
100
AcDbSpline
70
0
71
2
72
6
73
3
74
0
42
0.000000001
43
0.0000000001
44
0.0000000001
40
0
40
0
40
0
40
1
40
1
40
1
10
397.39768811308045
20
-61.358594451830449
30
0
10
397.39766488364552
20
-61.776057038540728
30
0
10
397.22166709310011
20
-61.982732013777813
30
0
0
SPLINE
5
282
100
AcDbEntity
8
0
100
AcDbSpline
70
0
71
2
72
6
73
3
74
0
42
0.000000001
43
0.0000000001
44
0.0000000001
40
0
40
0
40
0
40
1
40
1
40
1
10
397.22166709310011
20
-61.982732013777813
30
0
10
397.04566453416646
20
-62.189407286772791
30
0
10
396.80623744484598
20
-62.18939396400782
30
0
0
SPLINE
5
283
100
AcDbEntity
8
0
100
AcDbSpline
70
0
71
2
72
6
73
3
74
0
42
0.000000001
43
0.0000000001
44
0.0000000001
40
0
40
0
40
0
40
1
40
1
40
1
10
396.80623744484598
20
-62.18939396400782
30
0
10
396.56476472411998
20
-62.189380527415025
30
0
10
396.39594913276591
20
-61.991894984869951
30
0
0
SPLINE
5
284
100
AcDbEntity
8
0
100
AcDbSpline
70
0
71
2
72
6
73
3
74
0
42
0.000000001
43
0.0000000001
44
0.0000000001
40
0
40
0
40
0
40
1
40
1
40
1
10
396.39594913276591
20
-61.991894984869951
30
0
10
396.22713354141189
20
-61.794409442324891
30
0
10
396.2271560876311
20
-61.389225114396112
30
0
0
SPLINE
5
285
100
AcDbEntity
8
0
100
AcDbSpline
70
0
71
2
72
6
73
3
74
0
42
0.000000001
43
0.0000000001
44
0.0000000001
40
0
40
0
40
0
40
1
40
1
40
1
10
396.2271560876311
20
-61.389225114396112
30
0
10
396.22718091121948
20
-60.943113555218901
30
0
10
396.39908755283147
20
-60.734391826850953
30
0
0
SPLINE
5
286
100
AcDbEntity
8
0
100
AcDbSpline
70
0
71
2
72
6
73
3
74
0
42
0.000000001
43
0.0000000001
44
0.0000000001
40
0
40
0
40
0
40
1
40
1
40
1
10
396.39908755283147
20
-60.734391826850953
30
0
10
396.57099657862921
20
-60.525670098615677
30
0
10
396.82270222475444
20
-60.525684104612964
30
0
0
SPLINE
5
287
100
AcDbEntity
8
0
100
AcDbSpline
70
0
71
2
72
6
73
3
74
0
42
0.000000001
43
0.0000000001
44
0.0000000001
40
0
40
0
40
0
40
1
40
1
40
1
10
396.82270222475444
20
-60.525684104612964
30
0
10
397.06826859247724
20
-60.5256977689941
30
0
10
397.2329903660264
20
-60.726252722952012
30
0
0
SPLINE
5
288
100
AcDbEntity
8
0
100
AcDbSpline
70
0
71
2
72
6
73
3
74
0
42
0.000000001
43
0.0000000001
44
0.0000000001
40
0
40
0
40
0
40
1
40
1
40
1
10
397.2329903660264
20
-60.726252722952012
30
0
10
397.3977121395921
20
-60.926807378886707
30
0
10
397.39768811308045
20
-61.358594451830449
30
0
0
LINE
5
289
100
AcDbEntity
8
0
100
AcDbLine
10
393.82467820095383
20
-61.743116198497361
30
0
11
393.44404985774867
21
-61.790161826500032
31
0
0
SPLINE
5
290
100
AcDbEntity
8
0
100
AcDbSpline
70
0
71
2
72
6
73
3
74
0
42
0.000000001
43
0.0000000001
44
0.0000000001
40
0
40
0
40
0
40
1
40
1
40
1
10
393.44404985774867
20
-61.790161826500032
30
0
10
393.53407245742369
20
-62.123727541450499
30
0
10
393.77758294545504
20
-62.307915867795941
30
0
0
SPLINE
5
291
100
AcDbEntity
8
0
100
AcDbSpline
70
0
71
2
72
6
73
3
74
0
42
0.000000001
43
0.0000000001
44
0.0000000001
40
0
40
0
40
0
40
1
40
1
40
1
10
393.77758294545504
20
-62.307915867795941
30
0
10
394.02109343351952
20
-62.492103598094928
30
0
10
394.39967352631726
20
-62.492124663938441
30
0
0
SPLINE
5
292
100
AcDbEntity
8
0
100
AcDbSpline
70
0
71
2
72
6
73
3
74
0
42
0.000000001
43
0.0000000001
44
0.0000000001
40
0
40
0
40
0
40
1
40
1
40
1
10
394.39967352631726
20
-62.492124663938441
30
0
10
394.87648207355272
20
-62.492151195640552
30
0
10
395.15582962069283
20
-62.198510747744599
30
0
0
SPLINE
5
293
100
AcDbEntity
8
0
100
AcDbSpline
70
0
71
2
72
6
73
3
74
0
42
0.000000001
43
0.0000000001
44
0.0000000001
40
0
40
0
40
0
40
1
40
1
40
1
10
395.15582962069283
20
-62.198510747744599
30
0
10
395.43517716784953
20
-61.904870001825422
30
0
10
395.43520666012034
20
-61.374856262583243
30
0
0
SPLINE
5
294
100
AcDbEntity
8
0
100
AcDbSpline
70
0
71
2
72
6
73
3
74
0
42
0.000000001
43
0.0000000001
44
0.0000000001
40
0
40
0
40
0
40
1
40
1
40
1
10
395.43520666012034
20
-61.374856262583243
30
0
10
395.43523717720655
20
-60.826425284180431
30
0
10
395.15285199180755
20
-60.52354436337594
30
0
0
SPLINE
5
295
100
AcDbEntity
8
0
100
AcDbSpline
70
0
71
2
72
6
73
3
74
0
42
0.000000001
43
0.0000000001
44
0.0000000001
40
0
40
0
40
0
40
1
40
1
40
1
10
395.15285199180755
20
-60.52354436337594
30
0
10
394.87046680639196
20
-60.220663740594659
30
0
10
394.42026100417144
20
-60.220638689185037
30
0
0
SPLINE
5
296
100
AcDbEntity
8
0
100
AcDbSpline
70
0
71
2
72
6
73
3
74
0
42
0.000000001
43
0.0000000001
44
0.0000000001
40
0
40
0
40
0
40
1
40
1
40
1
10
394.42026100417144
20
-60.220638689185037
30
0
10
393.98438415853275
20
-60.220614435100892
30
0
10
393.70810250349047
20
-60.517324990830332
30
0
0
SPLINE
5
297
100
AcDbEntity
8
0
100
AcDbSpline
70
0
71
2
72
6
73
3
74
0
42
0.000000001
43
0.0000000001
44
0.0000000001
40
0
40
0
40
0
40
1
40
1
40
1
10
393.70810250349047
20
-60.517324990830332
30
0
10
393.43182561681971
20
-60.814035546825103
30
0
10
393.43179566907173
20
-61.352234791921603
30
0
0
SPLINE
5
298
100
AcDbEntity
8
0
100
AcDbSpline
70
0
71
2
72
6
73
3
74
0
42
0.000000001
43
0.0000000001
44
0.0000000001
40
0
40
0
40
0
40
1
40
1
40
1
10
393.43179566907173
20
-61.352234791921603
30
0
10
393.43179384716308
20
-61.384976815338931
30
0
10
393.43383583473468
20
-61.450461274024647
30
0
0
LINE
5
299
100
AcDbEntity
8
0
100
AcDbLine
10
393.43383583473468
20
-61.450461274024647
30
0
11
395.0545719543569
21
-61.450551458833964
31
0
0
SPLINE
5
300
100
AcDbEntity
8
0
100
AcDbSpline
70
0
71
2
72
6
73
3
74
0
42
0.000000001
43
0.0000000001
44
0.0000000001
40
0
40
0
40
0
40
1
40
1
40
1
10
395.05457195435696
20
-61.450551458833971
30
0
10
395.03409094472948
20
-61.808667542521853
30
0
10
394.85195240255024
20
-61.998971164301445
30
0
0
SPLINE
5
301
100
AcDbEntity
8
0
100
AcDbSpline
70
0
71
2
72
6
73
3
74
0
42
0.000000001
43
0.0000000001
44
0.0000000001
40
0
40
0
40
0
40
1
40
1
40
1
10
394.85195240255024
20
-61.998971164301445
30
0
10
394.66981386035445
20
-62.189275084104267
30
0
10
394.3976447476166
20
-62.189259939430663
30
0
0
SPLINE
5
302
100
AcDbEntity
8
0
100
AcDbSpline
70
0
71
2
72
6
73
3
74
0
42
0.000000001
43
0.0000000001
44
0.0000000001
40
0
40
0
40
0
40
1
40
1
40
1
10
394.3976447476166
20
-62.189259939430663
30
0
10
394.1950509445245
20
-62.189248666229993
30
0
10
394.05181021528676
20
-62.082828523210345
30
0
0
SPLINE
5
303
100
AcDbEntity
8
0
100
AcDbSpline
70
0
71
2
72
6
73
3
74
0
42
0.000000001
43
0.0000000001
44
0.0000000001
40
0
40
0
40
0
40
1
40
1
40
1
10
394.05181021528676
20
-62.082828523210345
30
0
10
393.90856948603243
20
-61.976408678213929
30
0
10
393.82467820095383
20
-61.743116198497361
30
0
0
LINE
5
304
100
AcDbEntity
8
0
100
AcDbLine
10
395.03412772465151
20
-61.14768541158714
30
0
11
393.82062007424747
21
-61.147617886741649
31
0
0
SPLINE
5
305
100
AcDbEntity
8
0
100
AcDbSpline
70
0
71
2
72
6
73
3
74
0
42
0.000000001
43
0.0000000001
44
0.0000000001
40
0
40
0
40
0
40
1
40
1
40
1
10
393.82062007424747
20
-61.147617886741649
30
0
10
393.84519244640836
20
-60.873403614993279
30
0
10
393.95979834972928
20
-60.736302321644956
30
0
0
SPLINE
5
306
100
AcDbEntity
8
0
100
AcDbSpline
70
0
71
2
72
6
73
3
74
0
42
0.000000001
43
0.0000000001
44
0.0000000001
40
0
40
0
40
0
40
1
40
1
40
1
10
393.95979834972928
20
-60.736302321644956
30
0
10
394.13579648190751
20
-60.523487769982282
30
0
10
394.41615288863892
20
-60.523503370232547
30
0
0
SPLINE
5
307
100
AcDbEntity
8
0
100
AcDbSpline
70
0
71
2
72
6
73
3
74
0
42
0.000000001
43
0.0000000001
44
0.0000000001
40
0
40
0
40
0
40
1
40
1
40
1
10
394.41615288863892
20
-60.523503370232547
30
0
10
394.66990655035545
20
-60.523517490190329
30
0
10
394.84281732594587
20
-60.693377103759552
30
0
0
SPLINE
5
308
100
AcDbEntity
8
0
100
AcDbSpline
70
0
71
2
72
6
73
3
74
0
42
0.000000001
43
0.0000000001
44
0.0000000001
40
0
40
0
40
0
40
1
40
1
40
1
10
394.84281732594587
20
-60.693377103759552
30
0
10
395.01572333316471
20
-60.863236717063444
30
0
10
395.03412772465151
20
-61.14768541158714
30
0
0
LINE
5
309
100
AcDbEntity
8
0
100
AcDbLine
10
389.98359737081353
20
-62.088741428568753
30
0
11
389.98357767135144
21
-62.442765897873116
31
0
0
LINE
5
310
100
AcDbEntity
8
0
100
AcDbLine
10
389.98357767135144
20
-62.442765897873116
30
0
11
391.96652406415558
21
-62.442876237637975
31
0
0
SPLINE
5
311
100
AcDbEntity
8
0
100
AcDbSpline
70
0
71
2
72
6
73
3
74
0
42
0.000000001
43
0.0000000001
44
0.0000000001
40
0
40
0
40
0
40
1
40
1
40
1
10
391.96652406415558
20
-62.442876237637975
30
0
10
391.97062272849541
20
-62.309861548125909
30
0
10
391.92356573324435
20
-62.187075745428345
30
0
0
SPLINE
5
312
100
AcDbEntity
8
0
100
AcDbSpline
70
0
71
2
72
6
73
3
74
0
42
0.000000001
43
0.0000000001
44
0.0000000001
40
0
40
0
40
0
40
1
40
1
40
1
10
391.92356573324435
20
-62.187075745428345
30
0
10
391.84786003411176
20
-61.98447951725381
30
0
10
391.68108763304696
20
-61.788017202129886
30
0
0
SPLINE
5
313
100
AcDbEntity
8
0
100
AcDbSpline
70
0
71
2
72
6
73
3
74
0
42
0.000000001
43
0.0000000001
44
0.0000000001
40
0
40
0
40
0
40
1
40
1
40
1
10
391.68108763304696
20
-61.788017202129886
30
0
10
391.51432000035368
20
-61.591554887271307
30
0
10
391.19919267056559
20
-61.333693022936103
30
0
0
SPLINE
5
314
100
AcDbEntity
8
0
100
AcDbSpline
70
0
71
2
72
6
73
3
74
0
42
0.000000001
43
0.0000000001
44
0.0000000001
40
0
40
0
40
0
40
1
40
1
40
1
10
391.19919267056559
20
-61.333693022936103
30
0
10
390.71012788500605
20
-60.932574233000068
30
0
10
390.53824589619097
20
-60.69825374336876
30
0
0
SPLINE
5
315
100
AcDbEntity
8
0
100
AcDbSpline
70
0
71
2
72
6
73
3
74
0
42
0.000000001
43
0.0000000001
44
0.0000000001
40
0
40
0
40
0
40
1
40
1
40
1
10
390.53824589619097
20
-60.69825374336876
30
0
10
390.36635913900432
20
-60.463933253472113
30
0
10
390.36637075372175
20
-60.255201960116977
30
0
0
SPLINE
5
316
100
AcDbEntity
8
0
100
AcDbSpline
70
0
71
2
72
6
73
3
74
0
42
0.000000001
43
0.0000000001
44
0.0000000001
40
0
40
0
40
0
40
1
40
1
40
1
10
390.36637075372175
20
-60.255201960116977
30
0
10
390.36638293777742
20
-60.036238933455543
30
0
10
390.52294171439149
20
-59.8858380059525
30
0
0
SPLINE
5
317
100
AcDbEntity
8
0
100
AcDbSpline
70
0
71
2
72
6
73
3
74
0
42
0.000000001
43
0.0000000001
44
0.0000000001
40
0
40
0
40
0
40
1
40
1
40
1
10
390.52294171439149
20
-59.8858380059525
30
0
10
390.67950049097243
20
-59.735437674495905
30
0
10
390.93120375291187
20
-59.735451680360534
30
0
0
SPLINE
5
318
100
AcDbEntity
8
0
100
AcDbSpline
70
0
71
2
72
6
73
3
74
0
42
0.000000001
43
0.0000000001
44
0.0000000001
40
0
40
0
40
0
40
1
40
1
40
1
10
390.93120375291187
20
-59.735451680360534
30
0
10
391.19723597143314
20
-59.735466483550638
30
0
10
391.35684355968499
20
-59.895093325511432
30
0
0
SPLINE
5
319
100
AcDbEntity
8
0
100
AcDbSpline
70
0
71
2
72
6
73
3
74
0
42
0.000000001
43
0.0000000001
44
0.0000000001
40
0
40
0
40
0
40
1
40
1
40
1
10
391.35684355968499
20
-59.895093325511432
30
0
10
391.51645114793695
20
-60.054720167472212
30
0
10
391.51848106531395
20
-60.3371214253674
30
0
0
LINE
5
320
100
AcDbEntity
8
0
100
AcDbLine
10
391.51848106531389
20
-60.3371214253674
30
0
11
391.89706809000802
21
-60.298261189656571
31
0
0
SPLINE
5
321
100
AcDbEntity
8
0
100
AcDbSpline
70
0
71
2
72
6
73
3
74
0
42
0.000000001
43
0.0000000001
44
0.0000000001
40
0
40
0
40
0
40
1
40
1
40
1
10
391.89706809000802
20
-60.298261189656557
30
0
10
391.85821035922288
20
-59.874657459042346
30
0
10
391.60446905238655
20
-59.652610375198719
30
0
0
SPLINE
5
322
100
AcDbEntity
8
0
100
AcDbSpline
70
0
71
2
72
6
73
3
74
0
42
0.000000001
43
0.0000000001
44
0.0000000001
40
0
40
0
40
0
40
1
40
1
40
1
10
391.60446905238655
20
-59.652610375198719
30
0
10
391.35072774553379
20
-59.430563589378309
30
0
10
390.92303342551725
20
-59.430539790605501
30
0
0
SPLINE
5
323
100
AcDbEntity
8
0
100
AcDbSpline
70
0
71
2
72
6
73
3
74
0
42
0.000000001
43
0.0000000001
44
0.0000000001
40
0
40
0
40
0
40
1
40
1
40
1
10
390.92303342551725
20
-59.430539790605501
30
0
10
390.49124784268952
20
-59.430515764177017
30
0
10
390.23953125798505
20
-59.669928847632889
30
0
0
SPLINE
5
324
100
AcDbEntity
8
0
100
AcDbSpline
70
0
71
2
72
6
73
3
74
0
42
0.000000001
43
0.0000000001
44
0.0000000001
40
0
40
0
40
0
40
1
40
1
40
1
10
390.23953125798505
20
-59.669928847632889
30
0
10
389.98780990490894
20
-59.909341930823423
30
0
10
389.98779020544691
20
-60.263366400127794
30
0
0
SPLINE
5
325
100
AcDbEntity
8
0
100
AcDbSpline
70
0
71
2
72
6
73
3
74
0
42
0.000000001
43
0.0000000001
44
0.0000000001
40
0
40
0
40
0
40
1
40
1
40
1
10
389.98779020544691
20
-60.263366400127794
30
0
10
389.98778018491612
20
-60.443448124969549
30
0
10
390.06144184681324
20
-60.617394968826098
30
0
0
SPLINE
5
326
100
AcDbEntity
8
0
100
AcDbSpline
70
0
71
2
72
6
73
3
74
0
42
0.000000001
43
0.0000000001
44
0.0000000001
40
0
40
0
40
0
40
1
40
1
40
1
10
390.06144184681324
20
-60.617394968826098
30
0
10
390.13510350871036
20
-60.791341812682653
30
0
10
390.30596263195321
20
-60.983711602269736
30
0
0
SPLINE
5
327
100
AcDbEntity
8
0
100
AcDbSpline
70
0
71
2
72
6
73
3
74
0
42
0.000000001
43
0.0000000001
44
0.0000000001
40
0
40
0
40
0
40
1
40
1
40
1
10
390.30596263195321
20
-60.983711602269736
30
0
10
390.47682652356764
20
-61.17608139212215
30
0
10
390.87380816112807
20
-61.51171041506732
30
0
0
SPLINE
5
328
100
AcDbEntity
8
0
100
AcDbSpline
70
0
71
2
72
6
73
3
74
0
42
0.000000001
43
0.0000000001
44
0.0000000001
40
0
40
0
40
0
40
1
40
1
40
1
10
390.87380816112807
20
-61.51171041506732
30
0
10
391.20530417182243
20
-61.79003725294956
30
0
10
391.29943107240456
20
-61.889291972888344
30
0
0
SPLINE
5
329
100
AcDbEntity
8
0
100
AcDbSpline
70
0
71
2
72
6
73
3
74
0
42
0.000000001
43
0.0000000001
44
0.0000000001
40
0
40
0
40
0
40
1
40
1
40
1
10
391.29943107240456
20
-61.889291972888344
30
0
10
391.39356274134167
20
-61.988546991115683
30
0
10
391.45494517737347
20
-62.088823300762364
30
0
0
LINE
5
330
100
AcDbEntity
8
0
100
AcDbLine
10
391.45494517737347
20
-62.088823300762364
30
0
11
389.98359737081353
21
-62.088741428568753
31
0
0
ENDSEC
0
SECTION
2
OBJECTS
0
DICTIONARY
5
C
100
AcDbDictionary
3
ACAD_GROUP
350
D
3
ACAD_MLINESTYLE
350
17
0
DICTIONARY
5
D
100
AcDbDictionary
0
DICTIONARY
5
1A
330
C
100
AcDbDictionary
0
DICTIONARY
5
17
100
AcDbDictionary
0
ENDSEC
0
EOF
