0
SECTION
2
HEADER
9
$INSUNITS
70
4
9
$ACADVER
1
AC1014
9
$HANDSEED
5
FFFF
0
ENDSEC
0
SECTION
2
TABLES
0
TABLE
2
VPORT
5
8
100
AcDbSymbolTable
0
ENDTAB
0
TABLE
2
LTYPE
5
5
100
AcDbSymbolTable
0
LTYPE
5
14
100
AcDbSymbolTableRecord
100
AcDbLinetypeTableRecord
2
BYBLOCK
70
0
0
LTYPE
5
15
100
AcDbSymbolTableRecord
100
AcDbLinetypeTableRecord
2
BYLAYER
70
0
0
ENDTAB
0
TABLE
2
LAYER
5
2
100
AcDbSymbolTable
70
2
0
LAYER
5
50
100
AcDbSymbolTableRecord
100
AcDbLayerTableRecord
2
0
70
0
6
CONTINUOUS
0
ENDTAB
0
TABLE
2
STYLE
5
3
100
AcDbSymbolTable
70
1
0
STYLE
5
11
100
AcDbSymbolTableRecord
100
AcDbTextStyleTableRecord
2
STANDARD
70
0
0
ENDTAB
0
TABLE
2
VIEW
5
6
100
AcDbSymbolTable
70
0
0
ENDTAB
0
TABLE
2
UCS
5
7
100
AcDbSymbolTable
70
0
0
ENDTAB
0
TABLE
2
APPID
5
9
100
AcDbSymbolTable
70
2
0
APPID
5
12
100
AcDbSymbolTableRecord
100
AcDbRegAppTableRecord
2
ACAD
70
0
0
ENDTAB
0
TABLE
2
DIMSTYLE
5
A
100
AcDbSymbolTable
70
1
0
ENDTAB
0
TABLE
2
BLOCK_RECORD
5
1
100
AcDbSymbolTable
70
1
0
BLOCK_RECORD
5
1F
100
AcDbSymbolTableRecord
100
AcDbBlockTableRecord
2
*MODEL_SPACE
0
BLOCK_RECORD
5
1B
100
AcDbSymbolTableRecord
100
AcDbBlockTableRecord
2
*PAPER_SPACE
0
ENDTAB
0
ENDSEC
0
SECTION
2
BLOCKS
0
BLOCK
5
20
100
AcDbEntity
100
AcDbBlockBegin
2
*MODEL_SPACE
0
ENDBLK
5
21
100
AcDbEntity
100
AcDbBlockEnd
0
BLOCK
5
1C
100
AcDbEntity
100
AcDbBlockBegin
2
*PAPER_SPACE
0
ENDBLK
5
1D
100
AcDbEntity
100
AcDbBlockEnd
0
ENDSEC
0
SECTION
2
ENTITIES
0
LWPOLYLINE
5
100
100
AcDbEntity
8
0
100
AcDbPolyline
90
4
70
1
43
0.0
10
-432.54937890936776
20
24.488423550195606
42
-0.99999999999999989
10
-430.54937890936787
20
27.952525165333419
42
0.26794919243112214
10
-372.54937890936793
20
27.952525165334055
42
-0.99999999999999989
10
-370.54937890936799
20
24.488423550196167
42
-0.26794919243112225
0
CIRCLE
5
101
100
AcDbEntity
8
0
100
AcDbCircle
10
-401.54937890936833
20
78.181998584830964
30
0
40
1.9999999999999929
210
0
220
-0
230
1
0
LWPOLYLINE
5
102
100
AcDbEntity
8
0
100
AcDbPolyline
90
18
70
1
43
0.0
10
-332.40724173437121
20
-81.818000378650936
42
-0.19891236737965706
10
-339.47830954620849
20
-78.889068190528064
10
-343.62044517064601
20
-74.746932566090493
42
0.19891236738335888
10
-350.69151298272561
20
-71.818000377926282
10
-452.40723966193013
20
-71.818000379374865
42
0.19891236737966236
10
-459.47830747383171
20
-74.74693256764229
10
-463.62044516986361
20
-78.88907026379168
42
-0.19891236348608768
10
-470.69151283182418
20
-81.818002452006994
10
-481.549377208127
20
-81.81800261482914
42
-0.41421356676525023
10
-491.54937735808437
20
-71.818002614829282
10
-491.54937735808414
20
-21.818002614813139
42
-0.14968835277724252
10
-488.11973596546363
20
-10.618751913457505
10
-419.77677339527668
20
90.501174298007527
42
-0.53111398406570476
10
-383.32198480767033
20
90.501174866483325
10
-314.97901908375559
20
-10.618749213501841
42
-0.14968836074894415
10
-311.54937735808437
20
-21.818000378650968
10
-311.54937735808437
20
-71.818000378666952
42
-0.41421356237309503
10
-321.5493773580684
20
-81.818000378650964
0
LWPOLYLINE
5
103
100
AcDbEntity
8
0
100
AcDbPolyline
90
4
70
1
43
0.0
10
-426.54937890549519
20
-57.618000378019339
10
-451.54937890550087
20
-57.618000378041614
10
-451.54937890532426
20
-63.818000378040701
10
-426.54937890546961
20
-63.818000378018482
0
LWPOLYLINE
5
104
100
AcDbEntity
8
0
100
AcDbPolyline
90
4
70
1
43
0.0
10
-376.54937890546967
20
-63.818000377974037
10
-351.54937890550048
20
-63.818000377951762
10
-351.54937890550087
20
-57.618000377952271
10
-376.54937890550229
20
-57.618000377974631
0
LWPOLYLINE
5
105
100
AcDbEntity
8
0
100
AcDbPolyline
90
4
70
1
43
0.0
10
-404.64937890524243
20
-57.618000377999579
10
-398.44937890575943
20
-57.618000378005206
10
-398.44937890575136
20
-48.618000378005135
10
-404.64937890525044
20
-48.618000377999557
0
ENDSEC
0
SECTION
2
OBJECTS
0
DICTIONARY
5
C
100
AcDbDictionary
3
ACAD_GROUP
350
D
3
ACAD_MLINESTYLE
350
17
0
DICTIONARY
5
D
100
AcDbDictionary
0
DICTIONARY
5
1A
330
C
100
AcDbDictionary
0
DICTIONARY
5
17
100
AcDbDictionary
0
ENDSEC
0
EOF
