0
SECTION
2
HEADER
9
$INSUNITS
70
4
9
$ACADVER
1
AC1014
9
$HANDSEED
5
FFFF
0
ENDSEC
0
SECTION
2
TABLES
0
TABLE
2
VPORT
5
8
100
AcDbSymbolTable
0
ENDTAB
0
TABLE
2
LTYPE
5
5
100
AcDbSymbolTable
0
LTYPE
5
14
100
AcDbSymbolTableRecord
100
AcDbLinetypeTableRecord
2
BYBLOCK
70
0
0
LTYPE
5
15
100
AcDbSymbolTableRecord
100
AcDbLinetypeTableRecord
2
BYLAYER
70
0
0
ENDTAB
0
TABLE
2
LAYER
5
2
100
AcDbSymbolTable
70
2
0
LAYER
5
50
100
AcDbSymbolTableRecord
100
AcDbLayerTableRecord
2
0
70
0
6
CONTINUOUS
0
ENDTAB
0
TABLE
2
STYLE
5
3
100
AcDbSymbolTable
70
1
0
STYLE
5
11
100
AcDbSymbolTableRecord
100
AcDbTextStyleTableRecord
2
STANDARD
70
0
0
ENDTAB
0
TABLE
2
VIEW
5
6
100
AcDbSymbolTable
70
0
0
ENDTAB
0
TABLE
2
UCS
5
7
100
AcDbSymbolTable
70
0
0
ENDTAB
0
TABLE
2
APPID
5
9
100
AcDbSymbolTable
70
2
0
APPID
5
12
100
AcDbSymbolTableRecord
100
AcDbRegAppTableRecord
2
ACAD
70
0
0
ENDTAB
0
TABLE
2
DIMSTYLE
5
A
100
AcDbSymbolTable
70
1
0
ENDTAB
0
TABLE
2
BLOCK_RECORD
5
1
100
AcDbSymbolTable
70
1
0
BLOCK_RECORD
5
1F
100
AcDbSymbolTableRecord
100
AcDbBlockTableRecord
2
*MODEL_SPACE
0
BLOCK_RECORD
5
1B
100
AcDbSymbolTableRecord
100
AcDbBlockTableRecord
2
*PAPER_SPACE
0
ENDTAB
0
ENDSEC
0
SECTION
2
BLOCKS
0
BLOCK
5
20
100
AcDbEntity
100
AcDbBlockBegin
2
*MODEL_SPACE
0
ENDBLK
5
21
100
AcDbEntity
100
AcDbBlockEnd
0
BLOCK
5
1C
100
AcDbEntity
100
AcDbBlockBegin
2
*PAPER_SPACE
0
ENDBLK
5
1D
100
AcDbEntity
100
AcDbBlockEnd
0
ENDSEC
0
SECTION
2
ENTITIES
0
LWPOLYLINE
5
100
100
AcDbEntity
8
0
100
AcDbPolyline
90
12
70
1
43
0.0
10
-451.54938156454125
20
-6.1999999999999922
10
-451.54938156454125
20
152.39999999999998
10
-426.54938156471223
20
152.39999999999998
10
-426.54938156471223
20
146.20000000000002
10
-376.54938156468677
20
146.20000000000002
10
-376.54938156471388
20
152.40000000000003
10
-351.54938156474839
20
152.40000000000003
10
-351.54938156471752
20
-6.1999999999999922
10
-376.54938156468677
20
-6.1999999999999922
10
-376.54938156468677
20
-4.6653439500126249e-46
10
-426.54938156468677
20
0
10
-426.54938156468683
20
-6.1999999999999922
0
LWPOLYLINE
5
101
100
AcDbEntity
8
0
100
AcDbPolyline
90
4
70
1
43
0.0
10
-398.44938156456806
20
63.100000000000009
10
-398.44938156456806
20
83.099999999999994
10
-404.64938156456805
20
83.100000000000009
10
-404.64938156456805
20
63.100000000000009
0
LWPOLYLINE
5
102
100
AcDbEntity
8
0
100
AcDbPolyline
90
4
70
1
43
0.0
10
-397.55016393507356
20
17.24749763276489
10
-397.37216901691977
20
69.516441643098602
10
-406.4522686293077
20
69.547362711391429
10
-406.6302635474616
20
17.278418701058133
0
LINE
5
103
100
AcDbEntity
8
0
100
AcDbLine
10
-400.44770616048817
20
59.108465480638486
30
0
11
-403.44768888506513
21
59.11868152172449
31
0
0
LINE
5
104
100
AcDbEntity
8
0
100
AcDbLine
10
-403.44768888506513
20
59.11868152172449
30
0
11
-403.45152164021738
21
57.993177116658821
31
0
0
SPLINE
5
105
100
AcDbEntity
8
0
100
AcDbSpline
70
0
71
2
72
6
73
3
74
0
42
0.000000001
43
0.0000000001
44
0.0000000001
40
0
40
0
40
0
40
1
40
1
40
1
10
-403.45152164021738
20
57.993177116658821
30
0
10
-403.45269237272981
20
57.649386671532682
30
0
10
-403.36233594787848
20
57.441368696409619
30
0
0
SPLINE
5
106
100
AcDbEntity
8
0
100
AcDbSpline
70
0
71
2
72
6
73
3
74
0
42
0.000000001
43
0.0000000001
44
0.0000000001
40
0
40
0
40
0
40
1
40
1
40
1
10
-403.36233594787848
20
57.441368696409619
30
0
10
-403.27197981698924
20
57.233351914387413
30
0
10
-403.08309096780187
20
57.115041274997651
30
0
0
SPLINE
5
107
100
AcDbEntity
8
0
100
AcDbSpline
70
0
71
2
72
6
73
3
74
0
42
0.000000001
43
0.0000000001
44
0.0000000001
40
0
40
0
40
0
40
1
40
1
40
1
10
-403.08309096780187
20
57.115041274997651
30
0
10
-402.89420212267396
20
56.996729443521907
30
0
10
-402.68751855287582
20
56.996025610188624
30
0
0
SPLINE
5
108
100
AcDbEntity
8
0
100
AcDbSpline
70
0
71
2
72
6
73
3
74
0
42
0.000000001
43
0.0000000001
44
0.0000000001
40
0
40
0
40
0
40
1
40
1
40
1
10
-402.68751855287582
20
56.996025610188624
30
0
10
-402.49515938627701
20
56.995370556700095
30
0
10
-402.32495497502873
20
57.099158094327827
30
0
0
SPLINE
5
109
100
AcDbEntity
8
0
100
AcDbSpline
70
0
71
2
72
6
73
3
74
0
42
0.000000001
43
0.0000000001
44
0.0000000001
40
0
40
0
40
0
40
1
40
1
40
1
10
-402.32495497502873
20
57.099158094327827
30
0
10
-402.15475056783998
20
57.202944439869569
30
0
10
-402.04966805357964
20
57.413365338654181
30
0
0
SPLINE
5
110
100
AcDbEntity
8
0
100
AcDbSpline
70
0
71
2
72
6
73
3
74
0
42
0.000000001
43
0.0000000001
44
0.0000000001
40
0
40
0
40
0
40
1
40
1
40
1
10
-402.04966805357964
20
57.413365338654181
30
0
10
-401.9707859193141
20
57.14092602480364
30
0
10
-401.77892560648149
20
56.993955531815779
30
0
0
SPLINE
5
111
100
AcDbEntity
8
0
100
AcDbSpline
70
0
71
2
72
6
73
3
74
0
42
0.000000001
43
0.0000000001
44
0.0000000001
40
0
40
0
40
0
40
1
40
1
40
1
10
-401.77892560648149
20
56.993955531815779
30
0
10
-401.5870646976058
20
56.846985036798181
30
0
10
-401.32512883653692
20
56.846093049155499
30
0
0
SPLINE
5
112
100
AcDbEntity
8
0
100
AcDbSpline
70
0
71
2
72
6
73
3
74
0
42
0.000000001
43
0.0000000001
44
0.0000000001
40
0
40
0
40
0
40
1
40
1
40
1
10
-401.32512883653692
20
56.846093049155499
30
0
10
-401.11435253753592
20
56.845375278578715
30
0
10
-400.93294531646558
20
56.933775189409566
30
0
0
SPLINE
5
113
100
AcDbEntity
8
0
100
AcDbSpline
70
0
71
2
72
6
73
3
74
0
42
0.000000001
43
0.0000000001
44
0.0000000001
40
0
40
0
40
0
40
1
40
1
40
1
10
-400.93294531646558
20
56.933775189409566
30
0
10
-400.75153809133576
20
57.022176292326392
30
0
10
-400.65286659867559
20
57.152809132974184
30
0
0
SPLINE
5
114
100
AcDbEntity
8
0
100
AcDbSpline
70
0
71
2
72
6
73
3
74
0
42
0.000000001
43
0.0000000001
44
0.0000000001
40
0
40
0
40
0
40
1
40
1
40
1
10
-400.65286659867559
20
57.152809132974184
30
0
10
-400.55419450591285
20
57.283443163678214
30
0
10
-400.50338587893208
20
57.480746243195419
30
0
0
SPLINE
5
115
100
AcDbEntity
8
0
100
AcDbSpline
70
0
71
2
72
6
73
3
74
0
42
0.000000001
43
0.0000000001
44
0.0000000001
40
0
40
0
40
0
40
1
40
1
40
1
10
-400.50338587893208
20
57.480746243195419
30
0
10
-400.45257724383225
20
57.678051706884588
30
0
10
-400.45160163475839
20
57.964543347127709
30
0
0
LINE
5
116
100
AcDbEntity
8
0
100
AcDbLine
10
-400.45160163475839
20
57.964543347127709
30
0
11
-400.44770616048817
21
59.108465480638486
31
0
0
LINE
5
117
100
AcDbEntity
8
0
100
AcDbLine
10
-402.18847484186051
20
58.717393205720882
30
0
11
-402.1906839066242
21
58.068692199820532
31
0
0
SPLINE
5
118
100
AcDbEntity
8
0
100
AcDbSpline
70
0
71
2
72
6
73
3
74
0
42
0.000000001
43
0.0000000001
44
0.0000000001
40
0
40
0
40
0
40
1
40
1
40
1
10
-402.1906839066242
20
58.068692199820518
30
0
10
-402.19158286035145
20
57.804710719203875
30
0
10
-402.22676175248517
20
57.690231577529786
30
0
0
SPLINE
5
119
100
AcDbEntity
8
0
100
AcDbSpline
70
0
71
2
72
6
73
3
74
0
42
0.000000001
43
0.0000000001
44
0.0000000001
40
0
40
0
40
0
40
1
40
1
40
1
10
-402.22676175248517
20
57.690231577529786
30
0
10
-402.27229774873223
20
57.538954205738733
30
0
10
-402.37692381801475
20
57.462570262853127
30
0
0
SPLINE
5
120
100
AcDbEntity
8
0
100
AcDbSpline
70
0
71
2
72
6
73
3
74
0
42
0.000000001
43
0.0000000001
44
0.0000000001
40
0
40
0
40
0
40
1
40
1
40
1
10
-402.37692381801475
20
57.462570262853127
30
0
10
-402.48155018531872
20
57.386186320982389
30
0
10
-402.63912100468252
20
57.386722907393839
30
0
0
SPLINE
5
121
100
AcDbEntity
8
0
100
AcDbSpline
70
0
71
2
72
6
73
3
74
0
42
0.000000001
43
0.0000000001
44
0.0000000001
40
0
40
0
40
0
40
1
40
1
40
1
10
-402.63912100468252
20
57.386722907393839
30
0
10
-402.78850606761915
20
57.387231618303431
30
0
10
-402.90183577325683
20
57.459241288139573
30
0
0
SPLINE
5
122
100
AcDbEntity
8
0
100
AcDbSpline
70
0
71
2
72
6
73
3
74
0
42
0.000000001
43
0.0000000001
44
0.0000000001
40
0
40
0
40
0
40
1
40
1
40
1
10
-402.90183577325683
20
57.459241288139573
30
0
10
-403.01516577285662
20
57.531252151076579
30
0
10
-403.05666351282588
20
57.664407962622654
30
0
0
SPLINE
5
123
100
AcDbEntity
8
0
100
AcDbSpline
70
0
71
2
72
6
73
3
74
0
42
0.000000001
43
0.0000000001
44
0.0000000001
40
0
40
0
40
0
40
1
40
1
40
1
10
-403.05666351282588
20
57.664407962622654
30
0
10
-403.09816094665473
20
57.797566157325832
30
0
10
-403.09705989934486
20
58.120893254459169
30
0
0
LINE
5
124
100
AcDbEntity
8
0
100
AcDbLine
10
-403.09705989934486
20
58.120893254459169
30
0
11
-403.0950180855624
21
58.720480317839225
31
0
0
LINE
5
125
100
AcDbEntity
8
0
100
AcDbLine
10
-403.0950180855624
20
58.720480317839225
30
0
11
-402.18847484186051
21
58.717393205720882
31
0
0
LINE
5
126
100
AcDbEntity
8
0
100
AcDbLine
10
-400.80308079131657
20
58.712675431040125
30
0
11
-400.80562434992402
21
57.965748924271161
31
0
0
SPLINE
5
127
100
AcDbEntity
8
0
100
AcDbSpline
70
0
71
2
72
6
73
3
74
0
42
0.000000001
43
0.0000000001
44
0.0000000001
40
0
40
0
40
0
40
1
40
1
40
1
10
-400.80562434992396
20
57.965748924271168
30
0
10
-400.80627940138271
20
57.773390353715293
30
0
10
-400.82086891124459
20
57.695676981699123
30
0
0
SPLINE
5
128
100
AcDbEntity
8
0
100
AcDbSpline
70
0
71
2
72
6
73
3
74
0
42
0.000000001
43
0.0000000001
44
0.0000000001
40
0
40
0
40
0
40
1
40
1
40
1
10
-400.82086891124459
20
57.695676981699123
30
0
10
-400.84589218868553
20
57.558652835767532
30
0
10
-400.90350398499658
20
57.466761699122777
30
0
0
SPLINE
5
129
100
AcDbEntity
8
0
100
AcDbSpline
70
0
71
2
72
6
73
3
74
0
42
0.000000001
43
0.0000000001
44
0.0000000001
40
0
40
0
40
0
40
1
40
1
40
1
10
-400.90350398499658
20
57.466761699122777
30
0
10
-400.96111578536716
20
57.374869370392041
30
0
10
-401.07079905161504
20
57.315897769508084
30
0
0
SPLINE
5
130
100
AcDbEntity
8
0
100
AcDbSpline
70
0
71
2
72
6
73
3
74
0
42
0.000000001
43
0.0000000001
44
0.0000000001
40
0
40
0
40
0
40
1
40
1
40
1
10
-401.07079905161504
20
57.315897769508084
30
0
10
-401.18048231786304
20
57.256926168624119
30
0
10
-401.32372813798463
20
57.257413973161057
30
0
0
SPLINE
5
131
100
AcDbEntity
8
0
100
AcDbSpline
70
0
71
2
72
6
73
3
74
0
42
0.000000001
43
0.0000000001
44
0.0000000001
40
0
40
0
40
0
40
1
40
1
40
1
10
-401.32372813798463
20
57.257413973161057
30
0
10
-401.49153092936626
20
57.257985403188655
30
0
10
-401.61504353017057
20
57.344354020803848
30
0
0
SPLINE
5
132
100
AcDbEntity
8
0
100
AcDbSpline
70
0
71
2
72
6
73
3
74
0
42
0.000000001
43
0.0000000001
44
0.0000000001
40
0
40
0
40
0
40
1
40
1
40
1
10
-401.61504353017057
20
57.344354020803848
30
0
10
-401.73855672295826
20
57.430723832534767
30
0
10
-401.78817371511354
20
57.583349248872757
30
0
0
SPLINE
5
133
100
AcDbEntity
8
0
100
AcDbSpline
70
0
71
2
72
6
73
3
74
0
42
0.000000001
43
0.0000000001
44
0.0000000001
40
0
40
0
40
0
40
1
40
1
40
1
10
-401.78817371511354
20
57.583349248872757
30
0
10
-401.83779070726877
20
57.735974665210748
30
0
10
-401.83681509819496
20
58.022466305453868
30
0
0
LINE
5
134
100
AcDbEntity
8
0
100
AcDbLine
10
-401.83681509819496
20
58.022466305453868
30
0
11
-401.83445272273792
21
58.716187630607166
31
0
0
LINE
5
135
100
AcDbEntity
8
0
100
AcDbLine
10
-401.83445272273792
20
58.716187630607166
30
0
11
-400.80308079131657
21
58.712675431040125
31
0
0
SPLINE
5
136
100
AcDbEntity
8
0
100
AcDbSpline
70
0
71
2
72
6
73
3
74
0
42
0.000000001
43
0.0000000001
44
0.0000000001
40
0
40
0
40
0
40
1
40
1
40
1
10
-400.73002518201912
20
54.92659303617117
30
0
10
-400.55538628361825
20
55.13063775595684
30
0
10
-400.48311877528505
20
55.319682802836724
30
0
0
SPLINE
5
137
100
AcDbEntity
8
0
100
AcDbSpline
70
0
71
2
72
6
73
3
74
0
42
0.000000001
43
0.0000000001
44
0.0000000001
40
0
40
0
40
0
40
1
40
1
40
1
10
-400.48311877528505
20
55.319682802836724
30
0
10
-400.41085126289232
20
55.508729041802596
30
0
10
-400.41011259000243
20
55.725643391532628
30
0
0
SPLINE
5
138
100
AcDbEntity
8
0
100
AcDbSpline
70
0
71
2
72
6
73
3
74
0
42
0.000000001
43
0.0000000001
44
0.0000000001
40
0
40
0
40
0
40
1
40
1
40
1
10
-400.41011259000243
20
55.725643391532628
30
0
10
-400.40889307460066
20
56.083759133922513
30
0
10
-400.58320286711245
20
56.276713523920925
30
0
0
SPLINE
5
139
100
AcDbEntity
8
0
100
AcDbSpline
70
0
71
2
72
6
73
3
74
0
42
0.000000001
43
0.0000000001
44
0.0000000001
40
0
40
0
40
0
40
1
40
1
40
1
10
-400.58320286711245
20
56.276713523920925
30
0
10
-400.75751265556477
20
56.469669106005327
30
0
10
-401.02968019063013
20
56.470595936249296
30
0
0
SPLINE
5
140
100
AcDbEntity
8
0
100
AcDbSpline
70
0
71
2
72
6
73
3
74
0
42
0.000000001
43
0.0000000001
44
0.0000000001
40
0
40
0
40
0
40
1
40
1
40
1
10
-401.02968019063013
20
56.470595936249296
30
0
10
-401.18929692756308
20
56.471139489760169
30
0
10
-401.32153564922521
20
56.39894324881891
30
0
0
SPLINE
5
141
100
AcDbEntity
8
0
100
AcDbSpline
70
0
71
2
72
6
73
3
74
0
42
0.000000001
43
0.0000000001
44
0.0000000001
40
0
40
0
40
0
40
1
40
1
40
1
10
-401.32153564922521
20
56.39894324881891
30
0
10
-401.45377437494676
20
56.326745815791668
30
0
10
-401.53398343941717
20
56.209351553459541
30
0
0
SPLINE
5
142
100
AcDbEntity
8
0
100
AcDbSpline
70
0
71
2
72
6
73
3
74
0
42
0.000000001
43
0.0000000001
44
0.0000000001
40
0
40
0
40
0
40
1
40
1
40
1
10
-401.53398343941717
20
56.209351553459541
30
0
10
-401.61419250794717
20
56.091956099041425
30
0
10
-401.65562154074121
20
55.944757220173372
30
0
0
SPLINE
5
143
100
AcDbEntity
8
0
100
AcDbSpline
70
0
71
2
72
6
73
3
74
0
42
0.000000001
43
0.0000000001
44
0.0000000001
40
0
40
0
40
0
40
1
40
1
40
1
10
-401.65562154074121
20
55.944757220173372
30
0
10
-401.68464027962779
20
55.836397607027649
30
0
10
-401.71198911357209
20
55.617525847182932
30
0
0
SPLINE
5
144
100
AcDbEntity
8
0
100
AcDbSpline
70
0
71
2
72
6
73
3
74
0
42
0.000000001
43
0.0000000001
44
0.0000000001
40
0
40
0
40
0
40
1
40
1
40
1
10
-401.71198911357209
20
55.617525847182932
30
0
10
-401.7667134618319
20
55.171597461071293
30
0
10
-401.84110095410318
20
54.961072034482832
30
0
0
SPLINE
5
145
100
AcDbEntity
8
0
100
AcDbSpline
70
0
71
2
72
6
73
3
74
0
42
0.000000001
43
0.0000000001
44
0.0000000001
40
0
40
0
40
0
40
1
40
1
40
1
10
-401.84110095410318
20
54.961072034482832
30
0
10
-401.91682386153229
20
54.959283063375977
30
0
10
-401.93728720952515
20
54.959352748578553
30
0
0
SPLINE
5
146
100
AcDbEntity
8
0
100
AcDbSpline
70
0
71
2
72
6
73
3
74
0
42
0.000000001
43
0.0000000001
44
0.0000000001
40
0
40
0
40
0
40
1
40
1
40
1
10
-401.93728720952515
20
54.959352748578553
30
0
10
-402.16238820974689
20
54.960119300014973
30
0
10
-402.25411966362714
20
55.064797633199404
30
0
0
SPLINE
5
147
100
AcDbEntity
8
0
100
AcDbSpline
70
0
71
2
72
6
73
3
74
0
42
0.000000001
43
0.0000000001
44
0.0000000001
40
0
40
0
40
0
40
1
40
1
40
1
10
-402.25411966362714
20
55.064797633199404
30
0
10
-402.37846751289419
20
55.206422921221943
30
0
10
-402.37751977627761
20
55.484729699102346
30
0
0
SPLINE
5
148
100
AcDbEntity
8
0
100
AcDbSpline
70
0
71
2
72
6
73
3
74
0
42
0.000000001
43
0.0000000001
44
0.0000000001
40
0
40
0
40
0
40
1
40
1
40
1
10
-402.37751977627761
20
55.484729699102346
30
0
10
-402.37663475877895
20
55.744618748537619
30
0
10
-402.28514970812256
20
55.868113926011489
30
0
0
SPLINE
5
149
100
AcDbEntity
8
0
100
AcDbSpline
70
0
71
2
72
6
73
3
74
0
42
0.000000001
43
0.0000000001
44
0.0000000001
40
0
40
0
40
0
40
1
40
1
40
1
10
-402.28514970812256
20
55.868113926011489
30
0
10
-402.1936646534067
20
55.99161029557132
30
0
10
-401.96222232084676
20
56.050167262192943
30
0
0
LINE
5
150
100
AcDbEntity
8
0
100
AcDbLine
10
-401.96222232084676
20
56.050167262192943
30
0
11
-402.01010918583779
21
56.410495873082112
31
0
0
SPLINE
5
151
100
AcDbEntity
8
0
100
AcDbSpline
70
0
71
2
72
6
73
3
74
0
42
0.000000001
43
0.0000000001
44
0.0000000001
40
0
40
0
40
0
40
1
40
1
40
1
10
-402.01010918583779
20
56.410495873082112
30
0
10
-402.24151607975335
20
56.362170578427147
30
0
10
-402.38412236683416
20
56.250104101789432
30
0
0
SPLINE
5
152
100
AcDbEntity
8
0
100
AcDbSpline
70
0
71
2
72
6
73
3
74
0
42
0.000000001
43
0.0000000001
44
0.0000000001
40
0
40
0
40
0
40
1
40
1
40
1
10
-402.38412236683416
20
56.250104101789432
30
0
10
-402.5267286498555
20
56.1380388172377
30
0
10
-402.60419213763527
20
55.925477030172161
30
0
0
SPLINE
5
153
100
AcDbEntity
8
0
100
AcDbSpline
70
0
71
2
72
6
73
3
74
0
42
0.000000001
43
0.0000000001
44
0.0000000001
40
0
40
0
40
0
40
1
40
1
40
1
10
-402.60419213763527
20
55.925477030172161
30
0
10
-402.68165622145807
20
55.712915245136358
30
0
10
-402.68261092415923
20
55.432562847708276
30
0
0
SPLINE
5
154
100
AcDbEntity
8
0
100
AcDbSpline
70
0
71
2
72
6
73
3
74
0
42
0.000000001
43
0.0000000001
44
0.0000000001
40
0
40
0
40
0
40
1
40
1
40
1
10
-402.68261092415923
20
55.432562847708276
30
0
10
-402.68355866077582
20
55.154256069827881
30
0
10
-402.61866673388738
20
54.980091037705598
30
0
0
SPLINE
5
155
100
AcDbEntity
8
0
100
AcDbSpline
70
0
71
2
72
6
73
3
74
0
42
0.000000001
43
0.0000000001
44
0.0000000001
40
0
40
0
40
0
40
1
40
1
40
1
10
-402.61866673388738
20
54.980091037705598
30
0
10
-402.55377540304187
20
54.805926007613053
30
0
10
-402.45480494320469
20
54.723733443625278
30
0
0
SPLINE
5
156
100
AcDbEntity
8
0
100
AcDbSpline
70
0
71
2
72
6
73
3
74
0
42
0.000000001
43
0.0000000001
44
0.0000000001
40
0
40
0
40
0
40
1
40
1
40
1
10
-402.45480494320469
20
54.723733443625278
30
0
10
-402.35583448336746
20
54.641540879637503
30
0
10
-402.20451470278812
20
54.608283366990726
30
0
0
SPLINE
5
157
100
AcDbEntity
8
0
100
AcDbSpline
70
0
71
2
72
6
73
3
74
0
42
0.000000001
43
0.0000000001
44
0.0000000001
40
0
40
0
40
0
40
1
40
1
40
1
10
-402.20451470278812
20
54.608283366990726
30
0
10
-402.11044435221885
20
54.589545080930534
30
0
10
-401.86487940796133
20
54.588708842261802
30
0
0
LINE
5
158
100
AcDbEntity
8
0
100
AcDbLine
10
-401.86487940796133
20
54.588708842261802
30
0
11
-401.37374951944628
21
54.587036364924337
31
0
0
SPLINE
5
159
100
AcDbEntity
8
0
100
AcDbSpline
70
0
71
2
72
6
73
3
74
0
42
0.000000001
43
0.0000000001
44
0.0000000001
40
0
40
0
40
0
40
1
40
1
40
1
10
-401.37374951944628
20
54.587036364924337
30
0
10
-400.86011006734782
20
54.585287234270005
30
0
10
-400.72410643820399
20
54.561290849747706
30
0
0
SPLINE
5
160
100
AcDbEntity
8
0
100
AcDbSpline
70
0
71
2
72
6
73
3
74
0
42
0.000000001
43
0.0000000001
44
0.0000000001
40
0
40
0
40
0
40
1
40
1
40
1
10
-400.72410643820399
20
54.561290849747706
30
0
10
-400.58810280906022
20
54.537294465225408
30
0
10
-400.46351105752467
20
54.467292087263644
30
0
0
LINE
5
161
100
AcDbEntity
8
0
100
AcDbLine
10
-400.46351105752473
20
54.467292087263658
30
0
11
-400.46220095054764
21
54.852010420461362
31
0
0
SPLINE
5
162
100
AcDbEntity
8
0
100
AcDbSpline
70
0
71
2
72
6
73
3
74
0
42
0.000000001
43
0.0000000001
44
0.0000000001
40
0
40
0
40
0
40
1
40
1
40
1
10
-400.46220095054764
20
54.852010420461362
30
0
10
-400.57660284489157
20
54.909698278105793
30
0
10
-400.73002518201912
20
54.92659303617117
30
0
0
SPLINE
5
163
100
AcDbEntity
8
0
100
AcDbSpline
70
0
71
2
72
6
73
3
74
0
42
0.000000001
43
0.0000000001
44
0.0000000001
40
0
40
0
40
0
40
1
40
1
40
1
10
-401.55256250222635
20
54.960089455264921
30
0
10
-401.4700243941507
20
55.160355333370006
30
0
10
-401.4113603293597
20
55.561249461970341
30
0
0
SPLINE
5
164
100
AcDbEntity
8
0
100
AcDbSpline
70
0
71
2
72
6
73
3
74
0
42
0.000000001
43
0.0000000001
44
0.0000000001
40
0
40
0
40
0
40
1
40
1
40
1
10
-401.4113603293597
20
55.561249461970341
30
0
10
-401.37784497618611
20
55.788285179834858
30
0
10
-401.33659653049949
20
55.882278875057487
30
0
0
SPLINE
5
165
100
AcDbEntity
8
0
100
AcDbSpline
70
0
71
2
72
6
73
3
74
0
42
0.000000001
43
0.0000000001
44
0.0000000001
40
0
40
0
40
0
40
1
40
1
40
1
10
-401.33659653049949
20
55.882278875057487
30
0
10
-401.2953486808558
20
55.976272572309867
30
0
10
-401.21638890509723
20
56.027163840664691
30
0
0
SPLINE
5
166
100
AcDbEntity
8
0
100
AcDbSpline
70
0
71
2
72
6
73
3
74
0
42
0.000000001
43
0.0000000001
44
0.0000000001
40
0
40
0
40
0
40
1
40
1
40
1
10
-401.21638890509723
20
56.027163840664691
30
0
10
-401.13742972538171
20
56.078055111049267
30
0
10
-401.04124984406076
20
56.077727583290127
30
0
0
SPLINE
5
167
100
AcDbEntity
8
0
100
AcDbSpline
70
0
71
2
72
6
73
3
74
0
42
0.000000001
43
0.0000000001
44
0.0000000001
40
0
40
0
40
0
40
1
40
1
40
1
10
-401.04124984406076
20
56.077727583290127
30
0
10
-400.89391099671491
20
56.077225840494833
30
0
10
-400.79606528953707
20
55.965363358292628
30
0
0
SPLINE
5
168
100
AcDbEntity
8
0
100
AcDbSpline
70
0
71
2
72
6
73
3
74
0
42
0.000000001
43
0.0000000001
44
0.0000000001
40
0
40
0
40
0
40
1
40
1
40
1
10
-400.79606528953707
20
55.965363358292628
30
0
10
-400.69821898225666
20
55.853502066146646
30
0
10
-400.69895068906214
20
55.638633335964307
30
0
0
SPLINE
5
169
100
AcDbEntity
8
0
100
AcDbSpline
70
0
71
2
72
6
73
3
74
0
42
0.000000001
43
0.0000000001
44
0.0000000001
40
0
40
0
40
0
40
1
40
1
40
1
10
-400.69895068906214
20
55.638633335964307
30
0
10
-400.69967542978293
20
55.425810225329656
30
0
10
-400.79334955759634
20
55.260370126038694
30
0
0
SPLINE
5
170
100
AcDbEntity
8
0
100
AcDbSpline
70
0
71
2
72
6
73
3
74
0
42
0.000000001
43
0.0000000001
44
0.0000000001
40
0
40
0
40
0
40
1
40
1
40
1
10
-400.79334955759634
20
55.260370126038694
30
0
10
-400.88702427333379
20
55.09493241294944
30
0
10
-401.04895263460116
20
55.017719591642575
30
0
0
SPLINE
5
171
100
AcDbEntity
8
0
100
AcDbSpline
70
0
71
2
72
6
73
3
74
0
42
0.000000001
43
0.0000000001
44
0.0000000001
40
0
40
0
40
0
40
1
40
1
40
1
10
-401.04895263460116
20
55.017719591642575
30
0
10
-401.17398341184366
20
54.958800254660538
30
0
10
-401.41750154446754
20
54.959629523185221
30
0
0
LINE
5
172
100
AcDbEntity
8
0
100
AcDbLine
10
-401.41750154446748
20
54.959629523185214
30
0
11
-401.55256250222635
21
54.960089455264921
31
0
0
LINE
5
173
100
AcDbEntity
8
0
100
AcDbLine
10
-401.11325676571789
20
54.162544969675778
30
0
11
-401.17179539633236
21
53.798485105879678
31
0
0
SPLINE
5
174
100
AcDbEntity
8
0
100
AcDbSpline
70
0
71
2
72
6
73
3
74
0
42
0.000000001
43
0.0000000001
44
0.0000000001
40
0
40
0
40
0
40
1
40
1
40
1
10
-401.17179539633241
20
53.798485105879678
30
0
10
-400.95293816672955
20
53.767044438826723
30
0
10
-400.83677228876638
20
53.626471027150984
30
0
0
SPLINE
5
175
100
AcDbEntity
8
0
100
AcDbSpline
70
0
71
2
72
6
73
3
74
0
42
0.000000001
43
0.0000000001
44
0.0000000001
40
0
40
0
40
0
40
1
40
1
40
1
10
-400.83677228876638
20
53.626471027150984
30
0
10
-400.72060641486274
20
53.485896423389256
30
0
10
-400.72146355584465
20
53.234193428402676
30
0
0
SPLINE
5
176
100
AcDbEntity
8
0
100
AcDbSpline
70
0
71
2
72
6
73
3
74
0
42
0.000000001
43
0.0000000001
44
0.0000000001
40
0
40
0
40
0
40
1
40
1
40
1
10
-400.72146355584465
20
53.234193428402676
30
0
10
-400.72232767103009
20
52.980442429696453
30
0
10
-400.82608772427426
20
52.85801187474177
30
0
0
SPLINE
5
177
100
AcDbEntity
8
0
100
AcDbSpline
70
0
71
2
72
6
73
3
74
0
42
0.000000001
43
0.0000000001
44
0.0000000001
40
0
40
0
40
0
40
1
40
1
40
1
10
-400.82608772427426
20
52.85801187474177
30
0
10
-400.92984718147545
20
52.735581317757351
30
0
10
-401.06900057041565
20
52.736055186065656
30
0
0
SPLINE
5
178
100
AcDbEntity
8
0
100
AcDbSpline
70
0
71
2
72
6
73
3
74
0
42
0.000000001
43
0.0000000001
44
0.0000000001
40
0
40
0
40
0
40
1
40
1
40
1
10
-401.06900057041565
20
52.736055186065656
30
0
10
-401.19382925813511
20
52.736480273514339
30
0
10
-401.26508342373438
20
52.845182544763539
30
0
0
SPLINE
5
179
100
AcDbEntity
8
0
100
AcDbSpline
70
0
71
2
72
6
73
3
74
0
42
0.000000001
43
0.0000000001
44
0.0000000001
40
0
40
0
40
0
40
1
40
1
40
1
10
-401.26508342373438
20
52.845182544763539
30
0
10
-401.31393833161212
20
52.92106632501352
30
0
10
-401.38862988099356
20
53.222139910961218
30
0
0
SPLINE
5
180
100
AcDbEntity
8
0
100
AcDbSpline
70
0
71
2
72
6
73
3
74
0
42
0.000000001
43
0.0000000001
44
0.0000000001
40
0
40
0
40
0
40
1
40
1
40
1
10
-401.38862988099356
20
53.222139910961218
30
0
10
-401.48956861284745
20
53.627671216339792
30
0
10
-401.5637280439912
20
53.784472687320068
30
0
0
SPLINE
5
181
100
AcDbEntity
8
0
100
AcDbSpline
70
0
71
2
72
6
73
3
74
0
42
0.000000001
43
0.0000000001
44
0.0000000001
40
0
40
0
40
0
40
1
40
1
40
1
10
-401.5637280439912
20
53.784472687320068
30
0
10
-401.6378874751349
20
53.941274158300345
30
0
10
-401.76960354965877
20
54.022555411477043
30
0
0
SPLINE
5
182
100
AcDbEntity
8
0
100
AcDbSpline
70
0
71
2
72
6
73
3
74
0
42
0.000000001
43
0.0000000001
44
0.0000000001
40
0
40
0
40
0
40
1
40
1
40
1
10
-401.76960354965877
20
54.022555411477043
30
0
10
-401.90131902813965
20
54.103836662624005
30
0
10
-402.06093636111569
20
54.104380218164621
30
0
0
SPLINE
5
183
100
AcDbEntity
8
0
100
AcDbSpline
70
0
71
2
72
6
73
3
74
0
42
0.000000001
43
0.0000000001
44
0.0000000001
40
0
40
0
40
0
40
1
40
1
40
1
10
-402.06093636111569
20
54.104380218164621
30
0
10
-402.20622899287088
20
54.104874992845602
30
0
10
-402.33026075371157
20
54.038790118202662
30
0
0
SPLINE
5
184
100
AcDbEntity
8
0
100
AcDbSpline
70
0
71
2
72
6
73
3
74
0
42
0.000000001
43
0.0000000001
44
0.0000000001
40
0
40
0
40
0
40
1
40
1
40
1
10
-402.33026075371157
20
54.038790118202662
30
0
10
-402.4542928166332
20
53.972704052488609
30
0
10
-402.53653794152956
20
53.858386380693176
30
0
0
SPLINE
5
185
100
AcDbEntity
8
0
100
AcDbSpline
70
0
71
2
72
6
73
3
74
0
42
0.000000001
43
0.0000000001
44
0.0000000001
40
0
40
0
40
0
40
1
40
1
40
1
10
-402.53653794152956
20
53.858386380693176
30
0
10
-402.60026807834242
20
53.772654201150146
30
0
10
-402.64477051766738
20
53.62444177462347
30
0
0
SPLINE
5
186
100
AcDbEntity
8
0
100
AcDbSpline
70
0
71
2
72
6
73
3
74
0
42
0.000000001
43
0.0000000001
44
0.0000000001
40
0
40
0
40
0
40
1
40
1
40
1
10
-402.64477051766738
20
53.62444177462347
30
0
10
-402.68927295293281
20
53.476230540182783
30
0
10
-402.68985135310447
20
53.306380937167404
30
0
0
SPLINE
5
187
100
AcDbEntity
8
0
100
AcDbSpline
70
0
71
2
72
6
73
3
74
0
42
0.000000001
43
0.0000000001
44
0.0000000001
40
0
40
0
40
0
40
1
40
1
40
1
10
-402.68985135310447
20
53.306380937167404
30
0
10
-402.69072243437444
20
53.050584318913479
30
0
10
-402.61771125124051
20
52.856950874085271
30
0
0
SPLINE
5
188
100
AcDbEntity
8
0
100
AcDbSpline
70
0
71
2
72
6
73
3
74
0
42
0.000000001
43
0.0000000001
44
0.0000000001
40
0
40
0
40
0
40
1
40
1
40
1
10
-402.61771125124051
20
52.856950874085271
30
0
10
-402.54470066414962
20
52.663317431286799
30
0
10
-402.41916215808436
20
52.570802600712518
30
0
0
SPLINE
5
189
100
AcDbEntity
8
0
100
AcDbSpline
70
0
71
2
72
6
73
3
74
0
42
0.000000001
43
0.0000000001
44
0.0000000001
40
0
40
0
40
0
40
1
40
1
40
1
10
-402.41916215808436
20
52.570802600712518
30
0
10
-402.29362365201905
20
52.478287770138238
30
0
10
-402.08296582111007
20
52.442781354304913
30
0
0
LINE
5
190
100
AcDbEntity
8
0
100
AcDbLine
10
-402.08296582111007
20
52.442781354304913
30
0
11
-402.03262658918936
21
52.802775469320636
31
0
0
SPLINE
5
191
100
AcDbEntity
8
0
100
AcDbSpline
70
0
71
2
72
6
73
3
74
0
42
0.000000001
43
0.0000000001
44
0.0000000001
40
0
40
0
40
0
40
1
40
1
40
1
10
-402.03262658918936
20
52.802775469320636
30
0
10
-402.2003451590374
20
52.82790386857863
30
0
10
-402.29407812876377
20
52.945890467311038
30
0
0
SPLINE
5
192
100
AcDbEntity
8
0
100
AcDbSpline
70
0
71
2
72
6
73
3
74
0
42
0.000000001
43
0.0000000001
44
0.0000000001
40
0
40
0
40
0
40
1
40
1
40
1
10
-402.29407812876377
20
52.945890467311038
30
0
10
-402.387810502447
20
53.063877064013681
30
0
10
-402.3870787915821
20
53.278746986282009
30
0
0
SPLINE
5
193
100
AcDbEntity
8
0
100
AcDbSpline
70
0
71
2
72
6
73
3
74
0
42
0.000000001
43
0.0000000001
44
0.0000000001
40
0
40
0
40
0
40
1
40
1
40
1
10
-402.3870787915821
20
53.278746986282009
30
0
10
-402.38621468045613
20
53.532496792902258
30
0
10
-402.30194394832034
20
53.640668252753478
30
0
0
SPLINE
5
194
100
AcDbEntity
8
0
100
AcDbSpline
70
0
71
2
72
6
73
3
74
0
42
0.000000001
43
0.0000000001
44
0.0000000001
40
0
40
0
40
0
40
1
40
1
40
1
10
-402.30194394832034
20
53.640668252753478
30
0
10
-402.21767321212502
20
53.748840904690674
30
0
10
-402.10512241399266
20
53.748457627957592
30
0
0
SPLINE
5
195
100
AcDbEntity
8
0
100
AcDbSpline
70
0
71
2
72
6
73
3
74
0
42
0.000000001
43
0.0000000001
44
0.0000000001
40
0
40
0
40
0
40
1
40
1
40
1
10
-402.10512241399266
20
53.748457627957592
30
0
10
-402.03349950393192
20
53.748213725689133
30
0
10
-401.9763546057851
20
53.702998285027363
30
0
0
SPLINE
5
196
100
AcDbEntity
8
0
100
AcDbSpline
70
0
71
2
72
6
73
3
74
0
42
0.000000001
43
0.0000000001
44
0.0000000001
40
0
40
0
40
0
40
1
40
1
40
1
10
-401.9763546057851
20
53.702998285027363
30
0
10
-401.91716289600464
20
53.657775874221542
30
0
10
-401.87860934732583
20
53.561463588580047
30
0
0
SPLINE
5
197
100
AcDbEntity
8
0
100
AcDbSpline
70
0
71
2
72
6
73
3
74
0
42
0.000000001
43
0.0000000001
44
0.0000000001
40
0
40
0
40
0
40
1
40
1
40
1
10
-401.87860934732583
20
53.561463588580047
30
0
10
-401.85833414856808
20
53.506143102214125
30
0
10
-401.78558429103299
20
53.235770314283933
30
0
0
SPLINE
5
198
100
AcDbEntity
8
0
100
AcDbSpline
70
0
71
2
72
6
73
3
74
0
42
0.000000001
43
0.0000000001
44
0.0000000001
40
0
40
0
40
0
40
1
40
1
40
1
10
-401.78558429103299
20
53.235770314283933
30
0
10
-401.68254996059659
20
52.844558528111058
30
0
10
-401.61656902177401
20
52.689830551165443
30
0
0
SPLINE
5
199
100
AcDbEntity
8
0
100
AcDbSpline
70
0
71
2
72
6
73
3
74
0
42
0.000000001
43
0.0000000001
44
0.0000000001
40
0
40
0
40
0
40
1
40
1
40
1
10
-401.61656902177401
20
52.689830551165443
30
0
10
-401.55058808295138
20
52.535102574219827
30
0
10
-401.42401283088361
20
52.446676691784631
30
0
0
SPLINE
5
200
100
AcDbEntity
8
0
100
AcDbSpline
70
0
71
2
72
6
73
3
74
0
42
0.000000001
43
0.0000000001
44
0.0000000001
40
0
40
0
40
0
40
1
40
1
40
1
10
-401.42401283088361
20
52.446676691784631
30
0
10
-401.2974375788159
20
52.358250809349435
30
0
10
-401.10917084339837
20
52.357609692089532
30
0
0
SPLINE
5
201
100
AcDbEntity
8
0
100
AcDbSpline
70
0
71
2
72
6
73
3
74
0
42
0.000000001
43
0.0000000001
44
0.0000000001
40
0
40
0
40
0
40
1
40
1
40
1
10
-401.10917084339837
20
52.357609692089532
30
0
10
-400.92499773124825
20
52.356982515117721
30
0
10
-400.76194492346201
20
52.463862871481936
30
0
0
SPLINE
5
202
100
AcDbEntity
8
0
100
AcDbSpline
70
0
71
2
72
6
73
3
74
0
42
0.000000001
43
0.0000000001
44
0.0000000001
40
0
40
0
40
0
40
1
40
1
40
1
10
-400.76194492346201
20
52.463862871481936
30
0
10
-400.5988927117188
20
52.570743229875902
30
0
10
-400.50918558496971
20
52.77303033811372
30
0
0
SPLINE
5
203
100
AcDbEntity
8
0
100
AcDbSpline
70
0
71
2
72
6
73
3
74
0
42
0.000000001
43
0.0000000001
44
0.0000000001
40
0
40
0
40
0
40
1
40
1
40
1
10
-400.50918558496971
20
52.77303033811372
30
0
10
-400.41947845416121
20
52.975318638437528
30
0
10
-400.41860737289119
20
53.231115256691453
30
0
0
SPLINE
5
204
100
AcDbEntity
8
0
100
AcDbSpline
70
0
71
2
72
6
73
3
74
0
42
0.000000001
43
0.0000000001
44
0.0000000001
40
0
40
0
40
0
40
1
40
1
40
1
10
-400.41860737289119
20
53.231115256691453
30
0
10
-400.41716486159362
20
53.654714666327081
30
0
10
-400.5923964150582
20
53.877345943669113
30
0
0
SPLINE
5
205
100
AcDbEntity
8
0
100
AcDbSpline
70
0
71
2
72
6
73
3
74
0
42
0.000000001
43
0.0000000001
44
0.0000000001
40
0
40
0
40
0
40
1
40
1
40
1
10
-400.5923964150582
20
53.877345943669113
30
0
10
-400.7676285686253
20
54.099976030954913
30
0
10
-401.11325676571789
20
54.162544969675778
30
0
0
LINE
5
206
100
AcDbEntity
8
0
100
AcDbLine
10
-401.17711958043253
20
50.43218146622042
30
0
11
-401.13134921227783
21
50.051396477482506
31
0
0
SPLINE
5
207
100
AcDbEntity
8
0
100
AcDbSpline
70
0
71
2
72
6
73
3
74
0
42
0.000000001
43
0.0000000001
44
0.0000000001
40
0
40
0
40
0
40
1
40
1
40
1
10
-401.13134921227783
20
50.051396477482506
30
0
10
-400.79748381976162
20
50.140301226077248
30
0
10
-400.61248084304384
20
50.383192179699549
30
0
0
SPLINE
5
208
100
AcDbEntity
8
0
100
AcDbSpline
70
0
71
2
72
6
73
3
74
0
42
0.000000001
43
0.0000000001
44
0.0000000001
40
0
40
0
40
0
40
1
40
1
40
1
10
-400.61248084304384
20
50.383192179699549
30
0
10
-400.42747846236898
20
50.626083135351593
30
0
10
-400.42618926176459
20
51.004662225734272
30
0
0
SPLINE
5
209
100
AcDbEntity
8
0
100
AcDbSpline
70
0
71
2
72
6
73
3
74
0
42
0.000000001
43
0.0000000001
44
0.0000000001
40
0
40
0
40
0
40
1
40
1
40
1
10
-400.42618926176459
20
51.004662225734272
30
0
10
-400.42456556731656
20
51.481466816985574
30
0
10
-400.71726863653271
20
51.761796405158371
30
0
0
SPLINE
5
210
100
AcDbEntity
8
0
100
AcDbSpline
70
0
71
2
72
6
73
3
74
0
42
0.000000001
43
0.0000000001
44
0.0000000001
40
0
40
0
40
0
40
1
40
1
40
1
10
-400.71726863653271
20
51.761796405158371
30
0
10
-401.0099717057488
20
52.042125993331169
30
0
10
-401.5399826707017
20
52.043930874989201
30
0
0
SPLINE
5
211
100
AcDbEntity
8
0
100
AcDbSpline
70
0
71
2
72
6
73
3
74
0
42
0.000000001
43
0.0000000001
44
0.0000000001
40
0
40
0
40
0
40
1
40
1
40
1
10
-401.5399826707017
20
52.043930874989201
30
0
10
-402.08841017201382
20
52.045798471705737
30
0
10
-402.39223558994007
20
51.764431816837259
30
0
0
SPLINE
5
212
100
AcDbEntity
8
0
100
AcDbSpline
70
0
71
2
72
6
73
3
74
0
42
0.000000001
43
0.0000000001
44
0.0000000001
40
0
40
0
40
0
40
1
40
1
40
1
10
-402.39223558994007
20
51.764431816837259
30
0
10
-402.69606041994234
20
51.483062775767074
30
0
10
-402.69759352281517
20
51.032860775323606
30
0
0
SPLINE
5
213
100
AcDbEntity
8
0
100
AcDbSpline
70
0
71
2
72
6
73
3
74
0
42
0.000000001
43
0.0000000001
44
0.0000000001
40
0
40
0
40
0
40
1
40
1
40
1
10
-402.69759352281517
20
51.032860775323606
30
0
10
-402.69907784685807
20
50.596982880057908
30
0
10
-402.4032944050266
20
50.31971245909142
30
0
0
SPLINE
5
214
100
AcDbEntity
8
0
100
AcDbSpline
70
0
71
2
72
6
73
3
74
0
42
0.000000001
43
0.0000000001
44
0.0000000001
40
0
40
0
40
0
40
1
40
1
40
1
10
-402.4032944050266
20
50.31971245909142
30
0
10
-402.10751096319518
20
50.042442038124939
30
0
10
-401.56931513587949
20
50.040609284009683
30
0
0
SPLINE
5
215
100
AcDbEntity
8
0
100
AcDbSpline
70
0
71
2
72
6
73
3
74
0
42
0.000000001
43
0.0000000001
44
0.0000000001
40
0
40
0
40
0
40
1
40
1
40
1
10
-401.56931513587949
20
50.040609284009683
30
0
10
-401.53657270621363
20
50.040497784032041
30
0
10
-401.47108207288335
20
50.042320407683931
30
0
0
LINE
5
216
100
AcDbEntity
8
0
100
AcDbLine
10
-401.47108207288335
20
50.042320407683931
30
0
11
-401.46556290010551
21
51.663048324531992
31
0
0
SPLINE
5
217
100
AcDbEntity
8
0
100
AcDbSpline
70
0
71
2
72
6
73
3
74
0
42
0.000000001
43
0.0000000001
44
0.0000000001
40
0
40
0
40
0
40
1
40
1
40
1
10
-401.46556290010551
20
51.663048324531999
30
0
10
-401.10751744302064
20
51.641364271081144
30
0
10
-400.91782470086997
20
51.458589289147454
30
0
0
SPLINE
5
218
100
AcDbEntity
8
0
100
AcDbSpline
70
0
71
2
72
6
73
3
74
0
42
0.000000001
43
0.0000000001
44
0.0000000001
40
0
40
0
40
0
40
1
40
1
40
1
10
-400.91782470086997
20
51.458589289147454
30
0
10
-400.72813255476228
20
51.275814309243515
30
0
10
-400.72905938500617
20
51.003646774178158
30
0
0
SPLINE
5
219
100
AcDbEntity
8
0
100
AcDbSpline
70
0
71
2
72
6
73
3
74
0
42
0.000000001
43
0.0000000001
44
0.0000000001
40
0
40
0
40
0
40
1
40
1
40
1
10
-400.72905938500617
20
51.003646774178158
30
0
10
-400.72974927906625
20
50.801056529625882
30
0
10
-400.83664804287753
20
50.658173077835002
30
0
0
SPLINE
5
220
100
AcDbEntity
8
0
100
AcDbSpline
70
0
71
2
72
6
73
3
74
0
42
0.000000001
43
0.0000000001
44
0.0000000001
40
0
40
0
40
0
40
1
40
1
40
1
10
-400.83664804287753
20
50.658173077835002
30
0
10
-400.94354740679125
20
50.515288435987877
30
0
10
-401.17711958043253
20
50.43218146622042
30
0
0
LINE
5
221
100
AcDbEntity
8
0
100
AcDbLine
10
-401.76849574246512
20
51.64361514453077
30
0
11
-401.77262814885984
21
50.430116912592887
31
0
0
SPLINE
5
222
100
AcDbEntity
8
0
100
AcDbSpline
70
0
71
2
72
6
73
3
74
0
42
0.000000001
43
0.0000000001
44
0.0000000001
40
0
40
0
40
0
40
1
40
1
40
1
10
-401.77262814885978
20
50.430116912592879
30
0
10
-402.04675887006817
20
50.455607684241038
30
0
10
-402.18347520455711
20
50.570671000085355
30
0
0
SPLINE
5
223
100
AcDbEntity
8
0
100
AcDbSpline
70
0
71
2
72
6
73
3
74
0
42
0.000000001
43
0.0000000001
44
0.0000000001
40
0
40
0
40
0
40
1
40
1
40
1
10
-402.18347520455711
20
50.570671000085355
30
0
10
-402.39569901270693
20
50.747383394550624
30
0
10
-402.39474430594618
20
51.027736984064688
30
0
0
SPLINE
5
224
100
AcDbEntity
8
0
100
AcDbSpline
70
0
71
2
72
6
73
3
74
0
42
0.000000001
43
0.0000000001
44
0.0000000001
40
0
40
0
40
0
40
1
40
1
40
1
10
-402.39474430594618
20
51.027736984064688
30
0
10
-402.39388019482027
20
51.281486790684937
30
0
10
-402.22344233448996
20
51.453827616965938
30
0
0
SPLINE
5
225
100
AcDbEntity
8
0
100
AcDbSpline
70
0
71
2
72
6
73
3
74
0
42
0.000000001
43
0.0000000001
44
0.0000000001
40
0
40
0
40
0
40
1
40
1
40
1
10
-402.22344233448996
20
51.453827616965938
30
0
10
-402.05300447821907
20
51.626167251160936
30
0
10
-401.76849574246512
20
51.64361514453077
30
0
0
LWPOLYLINE
5
226
100
AcDbEntity
8
0
100
AcDbPolyline
90
4
70
1
43
0.0
10
-401.75440627465713
20
48.569880862927384
10
-401.38401264268009
20
48.568619536809983
10
-401.38786630826451
20
47.436974696843293
10
-401.75825994024149
20
47.438236022960709
0
LINE
5
227
100
AcDbEntity
8
0
100
AcDbLine
10
-401.29368276509524
20
44.446867650003369
30
0
11
-401.24784908583905
21
44.084499195594837
31
0
0
SPLINE
5
228
100
AcDbEntity
8
0
100
AcDbSpline
70
0
71
2
72
6
73
3
74
0
42
0.000000001
43
0.0000000001
44
0.0000000001
40
0
40
0
40
0
40
1
40
1
40
1
10
-401.24784908583905
20
44.08449919559483
30
0
10
-400.87316093315758
20
44.142568357679522
30
0
10
-400.66052847271328
20
44.38638923651439
30
0
0
SPLINE
5
229
100
AcDbEntity
8
0
100
AcDbSpline
70
0
71
2
72
6
73
3
74
0
42
0.000000001
43
0.0000000001
44
0.0000000001
40
0
40
0
40
0
40
1
40
1
40
1
10
-400.66052847271328
20
44.38638923651439
30
0
10
-400.44789660831208
20
44.630210117379008
30
0
10
-400.44668406305436
20
44.986279048135216
30
0
0
SPLINE
5
230
100
AcDbEntity
8
0
100
AcDbSpline
70
0
71
2
72
6
73
3
74
0
42
0.000000001
43
0.0000000001
44
0.0000000001
40
0
40
0
40
0
40
1
40
1
40
1
10
-400.44668406305436
20
44.986279048135216
30
0
10
-400.44516489641012
20
45.432388617397322
30
0
10
-400.73584963061171
20
45.704523990921118
30
0
0
SPLINE
5
231
100
AcDbEntity
8
0
100
AcDbSpline
70
0
71
2
72
6
73
3
74
0
42
0.000000001
43
0.0000000001
44
0.0000000001
40
0
40
0
40
0
40
1
40
1
40
1
10
-400.73584963061171
20
45.704523990921118
30
0
10
-401.02653434857535
20
45.976664132788841
30
0
10
-401.57086941870608
20
45.978517793276765
30
0
0
SPLINE
5
232
100
AcDbEntity
8
0
100
AcDbSpline
70
0
71
2
72
6
73
3
74
0
42
0.000000001
43
0.0000000001
44
0.0000000001
40
0
40
0
40
0
40
1
40
1
40
1
10
-401.57086941870608
20
45.978517793276765
30
0
10
-401.92284591828098
20
45.979716402305911
30
0
10
-402.18722461185934
20
45.863972126719432
30
0
0
SPLINE
5
233
100
AcDbEntity
8
0
100
AcDbSpline
70
0
71
2
72
6
73
3
74
0
42
0.000000001
43
0.0000000001
44
0.0000000001
40
0
40
0
40
0
40
1
40
1
40
1
10
-402.18722461185934
20
45.863972126719432
30
0
10
-402.45160449752359
20
45.74822785519244
30
0
10
-402.58440708708571
20
45.51027444038742
30
0
0
SPLINE
5
234
100
AcDbEntity
8
0
100
AcDbSpline
70
0
71
2
72
6
73
3
74
0
42
0.000000001
43
0.0000000001
44
0.0000000001
40
0
40
0
40
0
40
1
40
1
40
1
10
-402.58440708708571
20
45.51027444038742
30
0
10
-402.71721027269081
20
45.272321027612143
30
0
10
-402.71816498351097
20
44.991966246012097
30
0
0
SPLINE
5
235
100
AcDbEntity
8
0
100
AcDbSpline
70
0
71
2
72
6
73
3
74
0
42
0.000000001
43
0.0000000001
44
0.0000000001
40
0
40
0
40
0
40
1
40
1
40
1
10
-402.71816498351097
20
44.991966246012097
30
0
10
-402.71937055456522
20
44.63794531897554
30
0
10
-402.54107923683642
20
44.412233965009911
30
0
0
SPLINE
5
236
100
AcDbEntity
8
0
100
AcDbSpline
70
0
71
2
72
6
73
3
74
0
42
0.000000001
43
0.0000000001
44
0.0000000001
40
0
40
0
40
0
40
1
40
1
40
1
10
-402.54107923683642
20
44.412233965009911
30
0
10
-402.36278821712909
20
44.18652261205915
30
0
10
-402.03353820501343
20
44.121962611693434
30
0
0
LINE
5
237
100
AcDbEntity
8
0
100
AcDbLine
10
-402.03353820501331
20
44.121962611693434
30
0
11
-401.9770666923028
21
44.479891392874791
31
0
0
SPLINE
5
238
100
AcDbEntity
8
0
100
AcDbSpline
70
0
71
2
72
6
73
3
74
0
42
0.000000001
43
0.0000000001
44
0.0000000001
40
0
40
0
40
0
40
1
40
1
40
1
10
-401.9770666923028
20
44.479891392874791
30
0
10
-402.19585423264363
20
44.531796600006516
30
0
10
-402.30591630643602
20
44.662117433342949
30
0
0
SPLINE
5
239
100
AcDbEntity
8
0
100
AcDbSpline
70
0
71
2
72
6
73
3
74
0
42
0.000000001
43
0.0000000001
44
0.0000000001
40
0
40
0
40
0
40
1
40
1
40
1
10
-402.30591630643602
20
44.662117433342949
30
0
10
-402.41597778418537
20
44.792438264649626
30
0
10
-402.41535060924332
20
44.976610780756786
30
0
0
SPLINE
5
240
100
AcDbEntity
8
0
100
AcDbSpline
70
0
71
2
72
6
73
3
74
0
42
0.000000001
43
0.0000000001
44
0.0000000001
40
0
40
0
40
0
40
1
40
1
40
1
10
-402.41535060924332
20
44.976610780756786
30
0
10
-402.41440286450774
20
45.254919942809138
30
0
10
-402.21428872099574
20
45.428180147900704
30
0
0
SPLINE
5
241
100
AcDbEntity
8
0
100
AcDbSpline
70
0
71
2
72
6
73
3
74
0
42
0.000000001
43
0.0000000001
44
0.0000000001
40
0
40
0
40
0
40
1
40
1
40
1
10
-402.21428872099574
20
45.428180147900704
30
0
10
-402.01417516540772
20
45.601442739193971
30
0
10
-401.58239029736637
20
45.599972353409377
30
0
0
SPLINE
5
242
100
AcDbEntity
8
0
100
AcDbSpline
70
0
71
2
72
6
73
3
74
0
42
0.000000001
43
0.0000000001
44
0.0000000001
40
0
40
0
40
0
40
1
40
1
40
1
10
-401.58239029736637
20
45.599972353409377
30
0
10
-401.14446678255297
20
45.598481063281881
30
0
10
-400.94653980316662
20
45.43000231203898
30
0
0
SPLINE
5
243
100
AcDbEntity
8
0
100
AcDbSpline
70
0
71
2
72
6
73
3
74
0
42
0.000000001
43
0.0000000001
44
0.0000000001
40
0
40
0
40
0
40
1
40
1
40
1
10
-400.94653980316662
20
45.43000231203898
30
0
10
-400.74861341982336
20
45.261523562825815
30
0
10
-400.74953327586377
20
44.991404031480116
30
0
0
SPLINE
5
244
100
AcDbEntity
8
0
100
AcDbSpline
70
0
71
2
72
6
73
3
74
0
42
0.000000001
43
0.0000000001
44
0.0000000001
40
0
40
0
40
0
40
1
40
1
40
1
10
-400.74953327586377
20
44.991404031480116
30
0
10
-400.75027195687267
20
44.774487297578119
30
0
10
-400.88378087361934
20
44.629648819844519
30
0
0
SPLINE
5
245
100
AcDbEntity
8
0
100
AcDbSpline
70
0
71
2
72
6
73
3
74
0
42
0.000000001
43
0.0000000001
44
0.0000000001
40
0
40
0
40
0
40
1
40
1
40
1
10
-400.88378087361934
20
44.629648819844519
30
0
10
-401.01728979848497
20
44.484807957938948
30
0
10
-401.29368276509524
20
44.446867650003369
30
0
0
SPLINE
5
246
100
AcDbEntity
8
0
100
AcDbSpline
70
0
71
2
72
6
73
3
74
0
42
0.000000001
43
0.0000000001
44
0.0000000001
40
0
40
0
40
0
40
1
40
1
40
1
10
-401.58610715276257
20
43.907615750472218
30
0
10
-402.18978724336694
20
43.909671502513021
30
0
10
-402.48151506891105
20
43.575055468096693
30
0
0
SPLINE
5
247
100
AcDbEntity
8
0
100
AcDbSpline
70
0
71
2
72
6
73
3
74
0
42
0.000000001
43
0.0000000001
44
0.0000000001
40
0
40
0
40
0
40
1
40
1
40
1
10
-402.48151506891105
20
43.575055468096693
30
0
10
-402.72394198666689
20
43.295525372093863
30
0
10
-402.72531481682142
20
42.892388118365048
30
0
0
SPLINE
5
248
100
AcDbEntity
8
0
100
AcDbSpline
70
0
71
2
72
6
73
3
74
0
42
0.000000001
43
0.0000000001
44
0.0000000001
40
0
40
0
40
0
40
1
40
1
40
1
10
-402.72531481682142
20
42.892388118365048
30
0
10
-402.72684094143125
20
42.444235313727212
30
0
10
-402.43415469950253
20
42.158789290483497
30
0
0
SPLINE
5
249
100
AcDbEntity
8
0
100
AcDbSpline
70
0
71
2
72
6
73
3
74
0
42
0.000000001
43
0.0000000001
44
0.0000000001
40
0
40
0
40
0
40
1
40
1
40
1
10
-402.43415469950253
20
42.158789290483497
30
0
10
-402.14146905361679
20
41.873343269269505
30
0
10
-401.6237365742939
20
41.87158020035681
30
0
0
SPLINE
5
250
100
AcDbEntity
8
0
100
AcDbSpline
70
0
71
2
72
6
73
3
74
0
42
0.000000001
43
0.0000000001
44
0.0000000001
40
0
40
0
40
0
40
1
40
1
40
1
10
-401.6237365742939
20
41.87158020035681
30
0
10
-401.20423019188263
20
41.870151627317554
30
0
10
-400.9633525161621
20
41.995183711399768
30
0
0
SPLINE
5
251
100
AcDbEntity
8
0
100
AcDbSpline
70
0
71
2
72
6
73
3
74
0
42
0.000000001
43
0.0000000001
44
0.0000000001
40
0
40
0
40
0
40
1
40
1
40
1
10
-400.9633525161621
20
41.995183711399768
30
0
10
-400.72247543648461
20
42.120215797511719
30
0
10
-400.58864247502106
20
42.360211346792397
30
0
0
SPLINE
5
252
100
AcDbEntity
8
0
100
AcDbSpline
70
0
71
2
72
6
73
3
74
0
42
0.000000001
43
0.0000000001
44
0.0000000001
40
0
40
0
40
0
40
1
40
1
40
1
10
-400.58864247502106
20
42.360211346792397
30
0
10
-400.45480950543862
20
42.600209280245039
30
0
10
-400.45384087056834
20
42.884652916768509
30
0
0
SPLINE
5
253
100
AcDbEntity
8
0
100
AcDbSpline
70
0
71
2
72
6
73
3
74
0
42
0.000000001
43
0.0000000001
44
0.0000000001
40
0
40
0
40
0
40
1
40
1
40
1
10
-400.45384087056834
20
42.884652916768509
30
0
10
-400.45228685726335
20
43.340995352112998
30
0
10
-400.74395954645911
20
43.623369458933425
30
0
0
SPLINE
5
254
100
AcDbEntity
8
0
100
AcDbSpline
70
0
71
2
72
6
73
3
74
0
42
0.000000001
43
0.0000000001
44
0.0000000001
40
0
40
0
40
0
40
1
40
1
40
1
10
-400.74395954645911
20
43.623369458933425
30
0
10
-401.0356328398168
20
43.905741183611617
30
0
10
-401.58610715276257
20
43.907615750472218
30
0
0
SPLINE
5
255
100
AcDbEntity
8
0
100
AcDbSpline
70
0
71
2
72
6
73
3
74
0
42
0.000000001
43
0.0000000001
44
0.0000000001
40
0
40
0
40
0
40
1
40
1
40
1
10
-401.58739634930737
20
43.52903785217552
30
0
10
-401.16993618248677
20
43.527616247250563
30
0
10
-400.96284971375087
20
43.344782033300653
30
0
0
SPLINE
5
256
100
AcDbEntity
8
0
100
AcDbSpline
70
0
71
2
72
6
73
3
74
0
42
0.000000001
43
0.0000000001
44
0.0000000001
40
0
40
0
40
0
40
1
40
1
40
1
10
-400.96284971375087
20
43.344782033300653
30
0
10
-400.7557632450148
20
43.161947819350743
30
0
10
-400.75670402366592
20
42.885684276846064
30
0
0
SPLINE
5
257
100
AcDbEntity
8
0
100
AcDbSpline
70
0
71
2
72
6
73
3
74
0
42
0.000000001
43
0.0000000001
44
0.0000000001
40
0
40
0
40
0
40
1
40
1
40
1
10
-400.75670402366592
20
42.885684276846064
30
0
10
-400.75763781999444
20
42.61147112223302
30
0
10
-400.96698811226219
20
42.430055028136024
30
0
0
SPLINE
5
258
100
AcDbEntity
8
0
100
AcDbSpline
70
0
71
2
72
6
73
3
74
0
42
0.000000001
43
0.0000000001
44
0.0000000001
40
0
40
0
40
0
40
1
40
1
40
1
10
-400.96698811226219
20
42.430055028136024
30
0
10
-401.17633780848701
20
42.248638932009271
30
0
10
-401.60403024534696
20
42.250095381565259
30
0
0
SPLINE
5
259
100
AcDbEntity
8
0
100
AcDbSpline
70
0
71
2
72
6
73
3
74
0
42
0.000000001
43
0.0000000001
44
0.0000000001
40
0
40
0
40
0
40
1
40
1
40
1
10
-401.60403024534696
20
42.250095381565259
30
0
10
-402.00716571094682
20
42.251468205630552
30
0
10
-402.21424868852148
20
42.43532761352629
30
0
0
SPLINE
5
260
100
AcDbEntity
8
0
100
AcDbSpline
70
0
71
2
72
6
73
3
74
0
42
0.000000001
43
0.0000000001
44
0.0000000001
40
0
40
0
40
0
40
1
40
1
40
1
10
-402.21424868852148
20
42.43532761352629
30
0
10
-402.42133168233414
20
42.61918225307808
30
0
10
-402.42040485209026
20
42.891349788143444
30
0
0
SPLINE
5
261
100
AcDbEntity
8
0
100
AcDbSpline
70
0
71
2
72
6
73
3
74
0
42
0.000000001
43
0.0000000001
44
0.0000000001
40
0
40
0
40
0
40
1
40
1
40
1
10
-402.42040485209026
20
42.891349788143444
30
0
10
-402.41946407343914
20
43.167613330648109
30
0
10
-402.21216059280505
20
43.349036394889154
30
0
0
SPLINE
5
262
100
AcDbEntity
8
0
100
AcDbSpline
70
0
71
2
72
6
73
3
74
0
42
0.000000001
43
0.0000000001
44
0.0000000001
40
0
40
0
40
0
40
1
40
1
40
1
10
-402.21216059280505
20
43.349036394889154
30
0
10
-402.00485651612792
20
43.530459457100463
30
0
10
-401.58739634930737
20
43.52903785217552
30
0
0
LINE
5
263
100
AcDbEntity
8
0
100
AcDbLine
10
-400.50788741940528
20
41.43598985357734
30
0
11
-402.6811352687468
21
41.443390559300433
31
0
0
LINE
5
264
100
AcDbEntity
8
0
100
AcDbLine
10
-402.6811352687468
20
41.443390559300433
30
0
11
-402.68226418851384
21
41.111878599804356
31
0
0
LINE
5
265
100
AcDbEntity
8
0
100
AcDbLine
10
-402.68226418851384
20
41.111878599804356
30
0
11
-402.3732620906228
21
41.110826334369008
31
0
0
SPLINE
5
266
100
AcDbEntity
8
0
100
AcDbSpline
70
0
71
2
72
6
73
3
74
0
42
0.000000001
43
0.0000000001
44
0.0000000001
40
0
40
0
40
0
40
1
40
1
40
1
10
-402.3732620906228
20
41.110826334369008
30
0
10
-402.73219256926575
20
40.872620146298587
30
0
10
-402.73373264228263
20
40.42037133422145
30
0
0
SPLINE
5
267
100
AcDbEntity
8
0
100
AcDbSpline
70
0
71
2
72
6
73
3
74
0
42
0.000000001
43
0.0000000001
44
0.0000000001
40
0
40
0
40
0
40
1
40
1
40
1
10
-402.73373264228263
20
40.42037133422145
30
0
10
-402.73440163808903
20
40.223917948312256
30
0
10
-402.66436280860535
20
40.058945552212741
30
0
0
SPLINE
5
268
100
AcDbEntity
8
0
100
AcDbSpline
70
0
71
2
72
6
73
3
74
0
42
0.000000001
43
0.0000000001
44
0.0000000001
40
0
40
0
40
0
40
1
40
1
40
1
10
-402.66436280860535
20
40.058945552212741
30
0
10
-402.59432397912167
20
39.893973156113219
30
0
10
-402.48000571432783
20
39.811727135122666
30
0
0
SPLINE
5
269
100
AcDbEntity
8
0
100
AcDbSpline
70
0
71
2
72
6
73
3
74
0
42
0.000000001
43
0.0000000001
44
0.0000000001
40
0
40
0
40
0
40
1
40
1
40
1
10
-402.48000571432783
20
39.811727135122666
30
0
10
-402.36568774755546
20
39.729481115146982
30
0
10
-402.20822811999909
20
39.696205078269763
30
0
0
SPLINE
5
270
100
AcDbEntity
8
0
100
AcDbSpline
70
0
71
2
72
6
73
3
74
0
42
0.000000001
43
0.0000000001
44
0.0000000001
40
0
40
0
40
0
40
1
40
1
40
1
10
-402.20822811999909
20
39.696205078269763
30
0
10
-402.10597928522765
20
39.675390914002939
30
0
10
-401.85018266697375
20
39.674519832732926
30
0
0
LINE
5
271
100
AcDbEntity
8
0
100
AcDbLine
10
-401.85018266697375
20
39.674519832732926
30
0
11
-400.51390136686416
21
39.669969304974032
31
0
0
LINE
5
272
100
AcDbEntity
8
0
100
AcDbLine
10
-400.51390136686416
20
39.669969304974032
30
0
11
-400.51264700886111
21
40.038316721360317
31
0
0
LINE
5
273
100
AcDbEntity
8
0
100
AcDbLine
10
-400.51264700886111
20
40.038316721360317
30
0
11
-401.83460360774995
21
40.042818468259568
31
0
0
SPLINE
5
274
100
AcDbEntity
8
0
100
AcDbSpline
70
0
71
2
72
6
73
3
74
0
42
0.000000001
43
0.0000000001
44
0.0000000001
40
0
40
0
40
0
40
1
40
1
40
1
10
-401.83460360774995
20
40.042818468259576
30
0
10
-402.05970520401468
20
40.043585021725733
30
0
10
-402.17108565567855
20
40.086939511062305
30
0
0
SPLINE
5
275
100
AcDbEntity
8
0
100
AcDbSpline
70
0
71
2
72
6
73
3
74
0
42
0.000000001
43
0.0000000001
44
0.0000000001
40
0
40
0
40
0
40
1
40
1
40
1
10
-402.17108565567855
20
40.086939511062305
30
0
10
-402.28246671150436
20
40.130291618256649
30
0
10
-402.34860096102017
20
40.239999275949323
30
0
0
SPLINE
5
276
100
AcDbEntity
8
0
100
AcDbSpline
70
0
71
2
72
6
73
3
74
0
42
0.000000001
43
0.0000000001
44
0.0000000001
40
0
40
0
40
0
40
1
40
1
40
1
10
-402.34860096102017
20
40.239999275949323
30
0
10
-402.4147355085575
20
40.349706934656865
30
0
10
-402.41423376373245
20
40.497046378045766
30
0
0
SPLINE
5
277
100
AcDbEntity
8
0
100
AcDbSpline
70
0
71
2
72
6
73
3
74
0
42
0.000000001
43
0.0000000001
44
0.0000000001
40
0
40
0
40
0
40
1
40
1
40
1
10
-402.41423376373245
20
40.497046378045766
30
0
10
-402.41343236360558
20
40.732380840392878
30
0
10
-402.26346513161207
20
40.90274096499968
30
0
0
SPLINE
5
278
100
AcDbEntity
8
0
100
AcDbSpline
70
0
71
2
72
6
73
3
74
0
42
0.000000001
43
0.0000000001
44
0.0000000001
40
0
40
0
40
0
40
1
40
1
40
1
10
-402.26346513161207
20
40.90274096499968
30
0
10
-402.11349818140201
20
41.073105858965292
30
0
10
-401.69603801458146
20
41.071684254040342
30
0
0
LINE
5
279
100
AcDbEntity
8
0
100
AcDbLine
10
-401.69603801458146
20
41.071684254040342
30
0
11
-400.50914177740844
21
41.067642437191054
31
0
0
LINE
5
280
100
AcDbEntity
8
0
100
AcDbLine
10
-400.50914177740844
20
41.067642437191054
30
0
11
-400.50788741940528
21
41.43598985357734
31
0
0
LINE
5
281
100
AcDbEntity
8
0
100
AcDbLine
10
-400.5158247125546
20
39.105170886850523
30
0
11
-402.68907256189607
21
39.112571592573609
31
0
0
LINE
5
282
100
AcDbEntity
8
0
100
AcDbLine
10
-402.68907256189607
20
39.112571592573609
30
0
11
-402.69020148166311
21
38.781059633077547
31
0
0
LINE
5
283
100
AcDbEntity
8
0
100
AcDbLine
10
-402.69020148166311
20
38.781059633077547
30
0
11
-402.38119938377213
21
38.780007367642192
31
0
0
SPLINE
5
284
100
AcDbEntity
8
0
100
AcDbSpline
70
0
71
2
72
6
73
3
74
0
42
0.000000001
43
0.0000000001
44
0.0000000001
40
0
40
0
40
0
40
1
40
1
40
1
10
-402.38119938377213
20
38.780007367642199
30
0
10
-402.74012986241502
20
38.541801179571777
30
0
10
-402.7416699354319
20
38.08955236749464
30
0
0
SPLINE
5
285
100
AcDbEntity
8
0
100
AcDbSpline
70
0
71
2
72
6
73
3
74
0
42
0.000000001
43
0.0000000001
44
0.0000000001
40
0
40
0
40
0
40
1
40
1
40
1
10
-402.7416699354319
20
38.08955236749464
30
0
10
-402.74233892311929
20
37.89310136575741
30
0
10
-402.67230010175462
20
37.728126585485924
30
0
0
SPLINE
5
286
100
AcDbEntity
8
0
100
AcDbSpline
70
0
71
2
72
6
73
3
74
0
42
0.000000001
43
0.0000000001
44
0.0000000001
40
0
40
0
40
0
40
1
40
1
40
1
10
-402.67230010175462
20
37.728126585485924
30
0
10
-402.60226127227094
20
37.563154189386402
30
0
10
-402.4879430074771
20
37.480908168395857
30
0
0
SPLINE
5
287
100
AcDbEntity
8
0
100
AcDbSpline
70
0
71
2
72
6
73
3
74
0
42
0.000000001
43
0.0000000001
44
0.0000000001
40
0
40
0
40
0
40
1
40
1
40
1
10
-402.4879430074771
20
37.480908168395857
30
0
10
-402.37362503258578
20
37.398664532592136
30
0
10
-402.21616542126742
20
37.365383727370983
30
0
0
SPLINE
5
288
100
AcDbEntity
8
0
100
AcDbSpline
70
0
71
2
72
6
73
3
74
0
42
0.000000001
43
0.0000000001
44
0.0000000001
40
0
40
0
40
0
40
1
40
1
40
1
10
-402.21616542126742
20
37.365383727370983
30
0
10
-402.11391657837692
20
37.344571947276123
30
0
10
-401.85811996012308
20
37.343700866006117
30
0
0
LINE
5
289
100
AcDbEntity
8
0
100
AcDbLine
10
-401.85811996012308
20
37.343700866006117
30
0
11
-400.52183866001343
21
37.339150338247222
31
0
0
LINE
5
290
100
AcDbEntity
8
0
100
AcDbLine
10
-400.52183866001343
20
37.339150338247222
30
0
11
-400.52058430201038
21
37.707497754633508
31
0
0
LINE
5
291
100
AcDbEntity
8
0
100
AcDbLine
10
-400.52058430201038
20
37.707497754633508
30
0
11
-401.84254090089922
21
37.711999501532759
31
0
0
SPLINE
5
292
100
AcDbEntity
8
0
100
AcDbSpline
70
0
71
2
72
6
73
3
74
0
42
0.000000001
43
0.0000000001
44
0.0000000001
40
0
40
0
40
0
40
1
40
1
40
1
10
-401.84254090089922
20
37.711999501532759
30
0
10
-402.06764249716394
20
37.712766054998923
30
0
10
-402.17902294882782
20
37.756120544335488
30
0
0
SPLINE
5
293
100
AcDbEntity
8
0
100
AcDbSpline
70
0
71
2
72
6
73
3
74
0
42
0.000000001
43
0.0000000001
44
0.0000000001
40
0
40
0
40
0
40
1
40
1
40
1
10
-402.17902294882782
20
37.756120544335488
30
0
10
-402.29040400465362
20
37.79947265152984
30
0
10
-402.35653825416944
20
37.909180309222506
30
0
0
SPLINE
5
294
100
AcDbEntity
8
0
100
AcDbSpline
70
0
71
2
72
6
73
3
74
0
42
0.000000001
43
0.0000000001
44
0.0000000001
40
0
40
0
40
0
40
1
40
1
40
1
10
-402.35653825416944
20
37.909180309222506
30
0
10
-402.42267280170677
20
38.018887967930048
30
0
10
-402.42217105688178
20
38.16622741131895
30
0
0
SPLINE
5
295
100
AcDbEntity
8
0
100
AcDbSpline
70
0
71
2
72
6
73
3
74
0
42
0.000000001
43
0.0000000001
44
0.0000000001
40
0
40
0
40
0
40
1
40
1
40
1
10
-402.42217105688178
20
38.16622741131895
30
0
10
-402.42136966487385
20
38.401559489494097
30
0
10
-402.27140241664233
20
38.571924382444834
30
0
0
SPLINE
5
296
100
AcDbEntity
8
0
100
AcDbSpline
70
0
71
2
72
6
73
3
74
0
42
0.000000001
43
0.0000000001
44
0.0000000001
40
0
40
0
40
0
40
1
40
1
40
1
10
-402.27140241664233
20
38.571924382444834
30
0
10
-402.12143547455128
20
38.742286892238475
30
0
10
-401.70397530773073
20
38.740865287313532
30
0
0
LINE
5
297
100
AcDbEntity
8
0
100
AcDbLine
10
-401.70397530773073
20
38.740865287313532
30
0
11
-400.51707907055771
21
38.736823470464238
31
0
0
LINE
5
298
100
AcDbEntity
8
0
100
AcDbLine
10
-400.51707907055771
20
38.736823470464238
30
0
11
-400.5158247125546
21
39.105170886850523
31
0
0
LINE
5
299
100
AcDbEntity
8
0
100
AcDbLine
10
-401.2286875924284
20
35.289021427171001
30
0
11
-401.18291722021422
21
34.908237630519068
31
0
0
SPLINE
5
300
100
AcDbEntity
8
0
100
AcDbSpline
70
0
71
2
72
6
73
3
74
0
42
0.000000001
43
0.0000000001
44
0.0000000001
40
0
40
0
40
0
40
1
40
1
40
1
10
-401.18291722021422
20
34.908237630519068
30
0
10
-400.84905182769802
20
34.997142379113811
30
0
10
-400.66404885503971
20
35.240032140650129
30
0
0
SPLINE
5
301
100
AcDbEntity
8
0
100
AcDbSpline
70
0
71
2
72
6
73
3
74
0
42
0.000000001
43
0.0000000001
44
0.0000000001
40
0
40
0
40
0
40
1
40
1
40
1
10
-400.66404885503971
20
35.240032140650129
30
0
10
-400.47904647030543
20
35.482924288388155
30
0
10
-400.47775727376057
20
35.861502186684852
30
0
0
SPLINE
5
302
100
AcDbEntity
8
0
100
AcDbSpline
70
0
71
2
72
6
73
3
74
0
42
0.000000001
43
0.0000000001
44
0.0000000001
40
0
40
0
40
0
40
1
40
1
40
1
10
-400.47775727376057
20
35.861502186684852
30
0
10
-400.47613357525302
20
36.338307970022143
30
0
10
-400.7688366444691
20
36.618637558194933
30
0
0
SPLINE
5
303
100
AcDbEntity
8
0
100
AcDbSpline
70
0
71
2
72
6
73
3
74
0
42
0.000000001
43
0.0000000001
44
0.0000000001
40
0
40
0
40
0
40
1
40
1
40
1
10
-400.7688366444691
20
36.618637558194933
30
0
10
-401.06153971368519
20
36.898967146367724
30
0
10
-401.59155067863816
20
36.900772028025756
30
0
0
SPLINE
5
304
100
AcDbEntity
8
0
100
AcDbSpline
70
0
71
2
72
6
73
3
74
0
42
0.000000001
43
0.0000000001
44
0.0000000001
40
0
40
0
40
0
40
1
40
1
40
1
10
-401.59155067863816
20
36.900772028025756
30
0
10
-402.13997817995022
20
36.902639624742292
30
0
10
-402.44380360599553
20
36.621270585701858
30
0
0
SPLINE
5
305
100
AcDbEntity
8
0
100
AcDbSpline
70
0
71
2
72
6
73
3
74
0
42
0.000000001
43
0.0000000001
44
0.0000000001
40
0
40
0
40
0
40
1
40
1
40
1
10
-402.44380360599553
20
36.621270585701858
30
0
10
-402.74762842787879
20
36.339903928803636
30
0
10
-402.74916153481109
20
35.889700736274186
30
0
0
SPLINE
5
306
100
AcDbEntity
8
0
100
AcDbSpline
70
0
71
2
72
6
73
3
74
0
42
0.000000001
43
0.0000000001
44
0.0000000001
40
0
40
0
40
0
40
1
40
1
40
1
10
-402.74916153481109
20
35.889700736274186
30
0
10
-402.75064585479458
20
35.45382403309447
30
0
10
-402.45486241702258
20
35.176552420042007
30
0
0
SPLINE
5
307
100
AcDbEntity
8
0
100
AcDbSpline
70
0
71
2
72
6
73
3
74
0
42
0.000000001
43
0.0000000001
44
0.0000000001
40
0
40
0
40
0
40
1
40
1
40
1
10
-402.45486241702258
20
35.176552420042007
30
0
10
-402.15907897113163
20
34.899283191161501
30
0
10
-401.620883143816
20
34.897450437046245
30
0
0
SPLINE
5
308
100
AcDbEntity
8
0
100
AcDbSpline
70
0
71
2
72
6
73
3
74
0
42
0.000000001
43
0.0000000001
44
0.0000000001
40
0
40
0
40
0
40
1
40
1
40
1
10
-401.620883143816
20
34.897450437046245
30
0
10
-401.58814071415009
20
34.897338937068604
30
0
10
-401.52265008081974
20
34.899161560720493
30
0
0
LINE
5
309
100
AcDbEntity
8
0
100
AcDbLine
10
-401.52265008081974
20
34.899161560720493
30
0
11
-401.51713091210138
21
36.519888285482573
31
0
0
SPLINE
5
310
100
AcDbEntity
8
0
100
AcDbSpline
70
0
71
2
72
6
73
3
74
0
42
0.000000001
43
0.0000000001
44
0.0000000001
40
0
40
0
40
0
40
1
40
1
40
1
10
-401.51713091210138
20
36.519888285482573
30
0
10
-401.15908545095704
20
36.498205424117707
30
0
10
-400.96939270880637
20
36.315430442184024
30
0
0
SPLINE
5
311
100
AcDbEntity
8
0
100
AcDbSpline
70
0
71
2
72
6
73
3
74
0
42
0.000000001
43
0.0000000001
44
0.0000000001
40
0
40
0
40
0
40
1
40
1
40
1
10
-400.96939270880637
20
36.315430442184024
30
0
10
-400.77970056269868
20
36.132655462280077
30
0
10
-400.78062739294268
20
35.86048792721472
30
0
0
SPLINE
5
312
100
AcDbEntity
8
0
100
AcDbSpline
70
0
71
2
72
6
73
3
74
0
42
0.000000001
43
0.0000000001
44
0.0000000001
40
0
40
0
40
0
40
1
40
1
40
1
10
-400.78062739294268
20
35.86048792721472
30
0
10
-400.78131728700271
20
35.657897682662451
30
0
10
-400.88821605893293
20
35.515011846699593
30
0
0
SPLINE
5
313
100
AcDbEntity
8
0
100
AcDbSpline
70
0
71
2
72
6
73
3
74
0
42
0.000000001
43
0.0000000001
44
0.0000000001
40
0
40
0
40
0
40
1
40
1
40
1
10
-400.88821605893293
20
35.515011846699593
30
0
10
-400.99511541878718
20
35.37212839693845
30
0
10
-401.2286875924284
20
35.289021427171001
30
0
0
LINE
5
314
100
AcDbEntity
8
0
100
AcDbLine
10
-401.82006375040152
20
36.500456297567332
30
0
11
-401.82419615679629
21
35.286958065629442
31
0
0
SPLINE
5
315
100
AcDbEntity
8
0
100
AcDbSpline
70
0
71
2
72
6
73
3
74
0
42
0.000000001
43
0.0000000001
44
0.0000000001
40
0
40
0
40
0
40
1
40
1
40
1
10
-401.82419615679629
20
35.286958065629442
30
0
10
-402.09832687800463
20
35.3124488372776
30
0
10
-402.23504321655298
20
35.427510961035935
30
0
0
SPLINE
5
316
100
AcDbEntity
8
0
100
AcDbSpline
70
0
71
2
72
6
73
3
74
0
42
0.000000001
43
0.0000000001
44
0.0000000001
40
0
40
0
40
0
40
1
40
1
40
1
10
-402.23504321655298
20
35.427510961035935
30
0
10
-402.4472670247028
20
35.604223355501205
30
0
10
-402.44631231388269
20
35.884578137101258
30
0
0
SPLINE
5
317
100
AcDbEntity
8
0
100
AcDbSpline
70
0
71
2
72
6
73
3
74
0
42
0.000000001
43
0.0000000001
44
0.0000000001
40
0
40
0
40
0
40
1
40
1
40
1
10
-402.44631231388269
20
35.884578137101258
30
0
10
-402.44544820275672
20
36.138327943721499
30
0
10
-402.27501034242636
20
36.310668770002493
30
0
0
SPLINE
5
318
100
AcDbEntity
8
0
100
AcDbSpline
70
0
71
2
72
6
73
3
74
0
42
0.000000001
43
0.0000000001
44
0.0000000001
40
0
40
0
40
0
40
1
40
1
40
1
10
-402.27501034242636
20
36.310668770002493
30
0
10
-402.10457249021493
20
36.483007212111517
30
0
10
-401.82006375040152
20
36.500456297567332
30
0
0
LINE
5
319
100
AcDbEntity
8
0
100
AcDbLine
10
-401.33256782259582
20
33.028109662888376
30
0
11
-401.28673414333957
21
32.665741208479837
31
0
0
SPLINE
5
320
100
AcDbEntity
8
0
100
AcDbSpline
70
0
71
2
72
6
73
3
74
0
42
0.000000001
43
0.0000000001
44
0.0000000001
40
0
40
0
40
0
40
1
40
1
40
1
10
-401.28673414333952
20
32.665741208479837
30
0
10
-400.9120459906581
20
32.723810370564536
30
0
10
-400.69941353021386
20
32.967631249399396
30
0
0
SPLINE
5
321
100
AcDbEntity
8
0
100
AcDbSpline
70
0
71
2
72
6
73
3
74
0
42
0.000000001
43
0.0000000001
44
0.0000000001
40
0
40
0
40
0
40
1
40
1
40
1
10
-400.69941353021386
20
32.967631249399396
30
0
10
-400.48678167393155
20
33.21144974609205
30
0
10
-400.48556912867383
20
33.567518676848266
30
0
0
SPLINE
5
322
100
AcDbEntity
8
0
100
AcDbSpline
70
0
71
2
72
6
73
3
74
0
42
0.000000001
43
0.0000000001
44
0.0000000001
40
0
40
0
40
0
40
1
40
1
40
1
10
-400.48556912867383
20
33.567518676848266
30
0
10
-400.48404996202964
20
34.013628246110358
30
0
10
-400.77473468811229
20
34.285766003806124
30
0
0
SPLINE
5
323
100
AcDbEntity
8
0
100
AcDbSpline
70
0
71
2
72
6
73
3
74
0
42
0.000000001
43
0.0000000001
44
0.0000000001
40
0
40
0
40
0
40
1
40
1
40
1
10
-400.77473468811229
20
34.285766003806124
30
0
10
-401.06541941419493
20
34.557903761501883
30
0
10
-401.60975448432566
20
34.559757421989808
30
0
0
SPLINE
5
324
100
AcDbEntity
8
0
100
AcDbSpline
70
0
71
2
72
6
73
3
74
0
42
0.000000001
43
0.0000000001
44
0.0000000001
40
0
40
0
40
0
40
1
40
1
40
1
10
-401.60975448432566
20
34.559757421989808
30
0
10
-401.96173098390045
20
34.560956031018961
30
0
10
-402.2261096774788
20
34.445211755432474
30
0
0
SPLINE
5
325
100
AcDbEntity
8
0
100
AcDbSpline
70
0
71
2
72
6
73
3
74
0
42
0.000000001
43
0.0000000001
44
0.0000000001
40
0
40
0
40
0
40
1
40
1
40
1
10
-402.2261096774788
20
34.445211755432474
30
0
10
-402.49048956314311
20
34.329467483905482
30
0
10
-402.62329215270529
20
34.091514069100462
30
0
0
SPLINE
5
326
100
AcDbEntity
8
0
100
AcDbSpline
70
0
71
2
72
6
73
3
74
0
42
0.000000001
43
0.0000000001
44
0.0000000001
40
0
40
0
40
0
40
1
40
1
40
1
10
-402.62329215270529
20
34.091514069100462
30
0
10
-402.75609533831027
20
33.853560656325186
30
0
10
-402.7570500410115
20
33.573208258897104
30
0
0
SPLINE
5
327
100
AcDbEntity
8
0
100
AcDbSpline
70
0
71
2
72
6
73
3
74
0
42
0.000000001
43
0.0000000001
44
0.0000000001
40
0
40
0
40
0
40
1
40
1
40
1
10
-402.7570500410115
20
33.573208258897104
30
0
10
-402.75825562018468
20
33.219184947688582
30
0
10
-402.57996429433689
20
32.993475977894917
30
0
0
SPLINE
5
328
100
AcDbEntity
8
0
100
AcDbSpline
70
0
71
2
72
6
73
3
74
0
42
0.000000001
43
0.0000000001
44
0.0000000001
40
0
40
0
40
0
40
1
40
1
40
1
10
-402.57996429433689
20
32.993475977894917
30
0
10
-402.40167327462962
20
32.767764624944164
30
0
10
-402.07242326251395
20
32.703204624578447
30
0
0
LINE
5
329
100
AcDbEntity
8
0
100
AcDbLine
10
-402.07242326251389
20
32.703204624578447
30
0
11
-402.01595175792227
21
33.061131021587833
31
0
0
SPLINE
5
330
100
AcDbEntity
8
0
100
AcDbSpline
70
0
71
2
72
6
73
3
74
0
42
0.000000001
43
0.0000000001
44
0.0000000001
40
0
40
0
40
0
40
1
40
1
40
1
10
-402.01595175792238
20
33.061131021587833
30
0
10
-402.23473929826309
20
33.113036228719565
30
0
10
-402.34480137205549
20
33.243357062055985
30
0
0
SPLINE
5
331
100
AcDbEntity
8
0
100
AcDbSpline
70
0
71
2
72
6
73
3
74
0
42
0.000000001
43
0.0000000001
44
0.0000000001
40
0
40
0
40
0
40
1
40
1
40
1
10
-402.34480137205549
20
33.243357062055985
30
0
10
-402.45486284980484
20
33.373677893362661
30
0
10
-402.45423566674384
20
33.557852793641786
30
0
0
SPLINE
5
332
100
AcDbEntity
8
0
100
AcDbSpline
70
0
71
2
72
6
73
3
74
0
42
0.000000001
43
0.0000000001
44
0.0000000001
40
0
40
0
40
0
40
1
40
1
40
1
10
-402.45423566674384
20
33.557852793641786
30
0
10
-402.45328793012726
20
33.836159571522181
30
0
10
-402.25317377849626
20
34.009422160785704
30
0
0
SPLINE
5
333
100
AcDbEntity
8
0
100
AcDbSpline
70
0
71
2
72
6
73
3
74
0
42
0.000000001
43
0.0000000001
44
0.0000000001
40
0
40
0
40
0
40
1
40
1
40
1
10
-402.25317377849626
20
34.009422160785704
30
0
10
-402.05306022290824
20
34.182684752078977
30
0
10
-401.6212753548669
20
34.181214366294398
30
0
0
SPLINE
5
334
100
AcDbEntity
8
0
100
AcDbSpline
70
0
71
2
72
6
73
3
74
0
42
0.000000001
43
0.0000000001
44
0.0000000001
40
0
40
0
40
0
40
1
40
1
40
1
10
-401.6212753548669
20
34.181214366294398
30
0
10
-401.18335184005355
20
34.17972307616688
30
0
10
-400.98542486066719
20
34.011244324923986
30
0
0
SPLINE
5
335
100
AcDbEntity
8
0
100
AcDbSpline
70
0
71
2
72
6
73
3
74
0
42
0.000000001
43
0.0000000001
44
0.0000000001
40
0
40
0
40
0
40
1
40
1
40
1
10
-400.98542486066719
20
34.011244324923986
30
0
10
-400.78749847732388
20
33.842765575710828
30
0
10
-400.78841834148329
20
33.572643660193165
30
0
0
SPLINE
5
336
100
AcDbEntity
8
0
100
AcDbSpline
70
0
71
2
72
6
73
3
74
0
42
0.000000001
43
0.0000000001
44
0.0000000001
40
0
40
0
40
0
40
1
40
1
40
1
10
-400.78841834148329
20
33.572643660193165
30
0
10
-400.78915701437325
20
33.355729310463133
30
0
10
-400.92266593923881
20
33.210888448557562
30
0
0
SPLINE
5
337
100
AcDbEntity
8
0
100
AcDbSpline
70
0
71
2
72
6
73
3
74
0
42
0.000000001
43
0.0000000001
44
0.0000000001
40
0
40
0
40
0
40
1
40
1
40
1
10
-400.92266593923881
20
33.210888448557562
30
0
10
-401.05617485598549
20
33.066049970823961
30
0
10
-401.33256782259582
20
33.028109662888376
30
0
0
LINE
5
338
100
AcDbEntity
8
0
100
AcDbLine
10
-400.87104020981042
20
31.544946283133719
30
0
11
-400.54584808835585
21
31.490630701921908
31
0
0
SPLINE
5
339
100
AcDbEntity
8
0
100
AcDbSpline
70
0
71
2
72
6
73
3
74
0
42
0.000000001
43
0.0000000001
44
0.0000000001
40
0
40
0
40
0
40
1
40
1
40
1
10
-400.54584808835585
20
31.490630701921908
30
0
10
-400.51257604140773
20
31.646043507695897
30
0
10
-400.51215792207336
20
31.768825979824658
30
0
0
SPLINE
5
340
100
AcDbEntity
8
0
100
AcDbSpline
70
0
71
2
72
6
73
3
74
0
42
0.000000001
43
0.0000000001
44
0.0000000001
40
0
40
0
40
0
40
1
40
1
40
1
10
-400.51215792207336
20
31.768825979824658
30
0
10
-400.51147499409785
20
31.969370604829233
30
0
10
-400.57453613916385
20
32.080090619109413
30
0
0
SPLINE
5
341
100
AcDbEntity
8
0
100
AcDbSpline
70
0
71
2
72
6
73
3
74
0
42
0.000000001
43
0.0000000001
44
0.0000000001
40
0
40
0
40
0
40
1
40
1
40
1
10
-400.57453613916385
20
32.080090619109413
30
0
10
-400.63759788027289
20
32.190810635419339
30
0
10
-400.74078590744648
20
32.236182869816624
30
0
0
SPLINE
5
342
100
AcDbEntity
8
0
100
AcDbSpline
70
0
71
2
72
6
73
3
74
0
42
0.000000001
43
0.0000000001
44
0.0000000001
40
0
40
0
40
0
40
1
40
1
40
1
10
-400.74078590744648
20
32.236182869816624
30
0
10
-400.8439745306631
20
32.281555106243651
30
0
10
-401.17548708620211
20
32.282684028040485
30
0
0
LINE
5
343
100
AcDbEntity
8
0
100
AcDbLine
10
-401.17548708620205
20
32.282684028040485
30
0
11
-402.42582077503022
21
32.286941872671271
31
0
0
LINE
5
344
100
AcDbEntity
8
0
100
AcDbLine
10
-402.42582077503022
20
32.286941872671271
30
0
11
-402.42490091087086
21
32.557063788188941
31
0
0
LINE
5
345
100
AcDbEntity
8
0
100
AcDbLine
10
-402.42490091087086
20
32.557063788188941
30
0
11
-402.71139314715697
21
32.558039399292547
31
0
0
LINE
5
346
100
AcDbEntity
8
0
100
AcDbLine
10
-402.71139314715697
20
32.558039399292547
30
0
11
-402.71231301131638
21
32.287917483774876
31
0
0
LINE
5
347
100
AcDbEntity
8
0
100
AcDbLine
10
-402.71231301131638
20
32.287917483774876
30
0
11
-403.250509434675
21
32.289750239919883
31
0
0
LINE
5
348
100
AcDbEntity
8
0
100
AcDbLine
10
-403.250509434675
20
32.289750239919883
30
0
11
-403.47276508949341
21
31.924203441446188
31
0
0
LINE
5
349
100
AcDbEntity
8
0
100
AcDbLine
10
-403.47276508949341
20
31.924203441446188
30
0
11
-402.71356039511591
21
31.921618071108249
31
0
0
LINE
5
350
100
AcDbEntity
8
0
100
AcDbLine
10
-402.71356039511591
20
31.921618071108249
30
0
11
-402.71482171920354
21
31.551225035174273
31
0
0
LINE
5
351
100
AcDbEntity
8
0
100
AcDbLine
10
-402.71482171920354
20
31.551225035174273
30
0
11
-402.42832948291743
21
31.550249424070667
31
0
0
LINE
5
352
100
AcDbEntity
8
0
100
AcDbLine
10
-402.42832948291743
20
31.550249424070667
30
0
11
-402.42706815882974
21
31.920642460004643
31
0
0
LINE
5
353
100
AcDbEntity
8
0
100
AcDbLine
10
-402.42706815882974
20
31.920642460004643
30
0
11
-401.15627052596585
21
31.916314928141549
31
0
0
SPLINE
5
354
100
AcDbEntity
8
0
100
AcDbSpline
70
0
71
2
72
6
73
3
74
0
42
0.000000001
43
0.0000000001
44
0.0000000001
40
0
40
0
40
0
40
1
40
1
40
1
10
-401.15627052596585
20
31.916314928141549
30
0
10
-400.99870000462363
20
31.915778342744979
30
0
10
-400.95374588753089
20
31.896184493832791
30
0
0
SPLINE
5
355
100
AcDbEntity
8
0
100
AcDbSpline
70
0
71
2
72
6
73
3
74
0
42
0.000000001
43
0.0000000001
44
0.0000000001
40
0
40
0
40
0
40
1
40
1
40
1
10
-400.95374588753089
20
31.896184493832791
30
0
10
-400.90879236648118
20
31.876590646950348
30
0
10
-400.88233900728136
20
31.832502543866269
30
0
0
SPLINE
5
356
100
AcDbEntity
8
0
100
AcDbSpline
70
0
71
2
72
6
73
3
74
0
42
0.000000001
43
0.0000000001
44
0.0000000001
40
0
40
0
40
0
40
1
40
1
40
1
10
-400.88233900728136
20
31.832502543866269
30
0
10
-400.85588624412446
20
31.788414442811938
30
0
10
-400.85616498493471
20
31.70656105084074
30
0
0
SPLINE
5
357
100
AcDbEntity
8
0
100
AcDbSpline
70
0
71
2
72
6
73
3
74
0
42
0.000000001
43
0.0000000001
44
0.0000000001
40
0
40
0
40
0
40
1
40
1
40
1
10
-400.85616498493471
20
31.70656105084074
30
0
10
-400.85637404866139
20
31.645168622690377
30
0
10
-400.87104020981042
20
31.544946283133719
30
0
0
SPLINE
5
358
100
AcDbEntity
8
0
100
AcDbSpline
70
0
71
2
72
6
73
3
74
0
42
0.000000001
43
0.0000000001
44
0.0000000001
40
0
40
0
40
0
40
1
40
1
40
1
10
-401.62895738191435
20
31.324468705595695
30
0
10
-402.23263747251877
20
31.326524457636499
30
0
10
-402.52436529806295
20
30.991908423220174
30
0
0
SPLINE
5
359
100
AcDbEntity
8
0
100
AcDbSpline
70
0
71
2
72
6
73
3
74
0
42
0.000000001
43
0.0000000001
44
0.0000000001
40
0
40
0
40
0
40
1
40
1
40
1
10
-402.52436529806295
20
30.991908423220174
30
0
10
-402.76679221581878
20
30.712378327217337
30
0
10
-402.76816503785432
20
30.309243457660489
30
0
0
SPLINE
5
360
100
AcDbEntity
8
0
100
AcDbSpline
70
0
71
2
72
6
73
3
74
0
42
0.000000001
43
0.0000000001
44
0.0000000001
40
0
40
0
40
0
40
1
40
1
40
1
10
-402.76816503785432
20
30.309243457660489
30
0
10
-402.76969117870209
20
29.861085884678733
30
0
10
-402.47700493677337
20
29.575639861435008
30
0
0
SPLINE
5
361
100
AcDbEntity
8
0
100
AcDbSpline
70
0
71
2
72
6
73
3
74
0
42
0.000000001
43
0.0000000001
44
0.0000000001
40
0
40
0
40
0
40
1
40
1
40
1
10
-402.47700493677337
20
29.575639861435008
30
0
10
-402.18431927464968
20
29.290198608564957
30
0
10
-401.66658679532679
20
29.288435539652262
30
0
0
SPLINE
5
362
100
AcDbEntity
8
0
100
AcDbSpline
70
0
71
2
72
6
73
3
74
0
42
0.000000001
43
0.0000000001
44
0.0000000001
40
0
40
0
40
0
40
1
40
1
40
1
10
-401.66658679532679
20
29.288435539652262
30
0
10
-401.24708041291558
20
29.287006966613003
30
0
10
-401.00620275343294
20
29.412034282351271
30
0
0
SPLINE
5
363
100
AcDbEntity
8
0
100
AcDbSpline
70
0
71
2
72
6
73
3
74
0
42
0.000000001
43
0.0000000001
44
0.0000000001
40
0
40
0
40
0
40
1
40
1
40
1
10
-401.00620275343294
20
29.412034282351271
30
0
10
-400.76532565751745
20
29.53707113680715
30
0
10
-400.63149269605395
20
29.777066686087849
30
0
0
SPLINE
5
364
100
AcDbEntity
8
0
100
AcDbSpline
70
0
71
2
72
6
73
3
74
0
42
0.000000001
43
0.0000000001
44
0.0000000001
40
0
40
0
40
0
40
1
40
1
40
1
10
-400.63149269605395
20
29.777066686087849
30
0
10
-400.49765973459051
20
30.017062235368527
30
0
10
-400.49669109160118
20
30.301508256063954
30
0
0
SPLINE
5
365
100
AcDbEntity
8
0
100
AcDbSpline
70
0
71
2
72
6
73
3
74
0
42
0.000000001
43
0.0000000001
44
0.0000000001
40
0
40
0
40
0
40
1
40
1
40
1
10
-400.49669109160118
20
30.301508256063954
30
0
10
-400.49513708641518
20
30.757848307236472
30
0
10
-400.78680977561089
20
31.040222414056903
30
0
0
SPLINE
5
366
100
AcDbEntity
8
0
100
AcDbSpline
70
0
71
2
72
6
73
3
74
0
42
0.000000001
43
0.0000000001
44
0.0000000001
40
0
40
0
40
0
40
1
40
1
40
1
10
-400.78680977561089
20
31.040222414056903
30
0
10
-401.07848306896864
20
31.322594138735099
30
0
10
-401.62895738191435
20
31.324468705595695
30
0
0
SPLINE
5
367
100
AcDbEntity
8
0
100
AcDbSpline
70
0
71
2
72
6
73
3
74
0
42
0.000000001
43
0.0000000001
44
0.0000000001
40
0
40
0
40
0
40
1
40
1
40
1
10
-401.63024657845926
20
30.945890807298998
30
0
10
-401.21278641163872
20
30.944469202374052
30
0
10
-401.00569995102171
20
30.761632604252167
30
0
0
SPLINE
5
368
100
AcDbEntity
8
0
100
AcDbSpline
70
0
71
2
72
6
73
3
74
0
42
0.000000001
43
0.0000000001
44
0.0000000001
40
0
40
0
40
0
40
1
40
1
40
1
10
-401.00569995102171
20
30.761632604252167
30
0
10
-400.7986134822857
20
30.57879839030225
30
0
10
-400.79955424469881
20
30.302539616141509
30
0
0
SPLINE
5
369
100
AcDbEntity
8
0
100
AcDbSpline
70
0
71
2
72
6
73
3
74
0
42
0.000000001
43
0.0000000001
44
0.0000000001
40
0
40
0
40
0
40
1
40
1
40
1
10
-400.79955424469881
20
30.302539616141509
30
0
10
-400.80048804914622
20
30.028324077356494
30
0
10
-401.00983834141402
20
29.846907983259499
30
0
0
SPLINE
5
370
100
AcDbEntity
8
0
100
AcDbSpline
70
0
71
2
72
6
73
3
74
0
42
0.000000001
43
0.0000000001
44
0.0000000001
40
0
40
0
40
0
40
1
40
1
40
1
10
-401.00983834141402
20
29.846907983259499
30
0
10
-401.2191880295199
20
29.66549427130473
30
0
10
-401.64688046637986
20
29.666950720860701
30
0
0
SPLINE
5
371
100
AcDbEntity
8
0
100
AcDbSpline
70
0
71
2
72
6
73
3
74
0
42
0.000000001
43
0.0000000001
44
0.0000000001
40
0
40
0
40
0
40
1
40
1
40
1
10
-401.64688046637986
20
29.666950720860701
30
0
10
-402.05001593197971
20
29.668323544926007
30
0
10
-402.25709892579232
20
29.852178184477793
30
0
0
SPLINE
5
372
100
AcDbEntity
8
0
100
AcDbSpline
70
0
71
2
72
6
73
3
74
0
42
0.000000001
43
0.0000000001
44
0.0000000001
40
0
40
0
40
0
40
1
40
1
40
1
10
-402.25709892579232
20
29.852178184477793
30
0
10
-402.46418190336703
20
30.036037592373521
30
0
10
-402.46325507312315
20
30.308205127438882
30
0
0
SPLINE
5
373
100
AcDbEntity
8
0
100
AcDbSpline
70
0
71
2
72
6
73
3
74
0
42
0.000000001
43
0.0000000001
44
0.0000000001
40
0
40
0
40
0
40
1
40
1
40
1
10
-402.46325507312315
20
30.308205127438882
30
0
10
-402.46231431071004
20
30.584463901599619
30
0
10
-402.25501083007595
20
30.765886965840672
30
0
0
SPLINE
5
374
100
AcDbEntity
8
0
100
AcDbSpline
70
0
71
2
72
6
73
3
74
0
42
0.000000001
43
0.0000000001
44
0.0000000001
40
0
40
0
40
0
40
1
40
1
40
1
10
-402.25501083007595
20
30.765886965840672
30
0
10
-402.04770674527987
20
30.94731241222394
30
0
10
-401.63024657845926
20
30.945890807298998
30
0
0
LINE
5
375
100
AcDbEntity
8
0
100
AcDbLine
10
-400.55072370015012
20
28.856938816140119
30
0
11
-402.72397154949158
21
28.864339521863208
31
0
0
LINE
5
376
100
AcDbEntity
8
0
100
AcDbLine
10
-402.72397154949158
20
28.864339521863208
30
0
11
-402.72510047737768
21
28.532825178195182
31
0
0
LINE
5
377
100
AcDbEntity
8
0
100
AcDbLine
10
-402.72510047737768
20
28.532825178195182
30
0
11
-402.39563473347232
21
28.531703226542394
31
0
0
SPLINE
5
378
100
AcDbEntity
8
0
100
AcDbSpline
70
0
71
2
72
6
73
3
74
0
42
0.000000001
43
0.0000000001
44
0.0000000001
40
0
40
0
40
0
40
1
40
1
40
1
10
-402.39563473347226
20
28.531703226542398
30
0
10
-402.62730673811001
20
28.405614587940509
30
0
10
-402.7013420030072
20
28.298434670504939
30
0
0
SPLINE
5
379
100
AcDbEntity
8
0
100
AcDbSpline
70
0
71
2
72
6
73
3
74
0
42
0.000000001
43
0.0000000001
44
0.0000000001
40
0
40
0
40
0
40
1
40
1
40
1
10
-402.7013420030072
20
28.298434670504939
30
0
10
-402.77537730038028
20
28.191245216381482
30
0
10
-402.77581630984935
20
28.06232826978162
30
0
0
SPLINE
5
380
100
AcDbEntity
8
0
100
AcDbSpline
70
0
71
2
72
6
73
3
74
0
42
0.000000001
43
0.0000000001
44
0.0000000001
40
0
40
0
40
0
40
1
40
1
40
1
10
-402.77581630984935
20
28.06232826978162
30
0
10
-402.77645046711393
20
27.876105365782841
30
0
10
-402.65841576346827
20
27.683346189394051
30
0
0
LINE
5
381
100
AcDbEntity
8
0
100
AcDbLine
10
-402.65841576346827
20
27.683346189394051
30
0
11
-402.31623949054836
21
27.809053752048101
31
0
0
SPLINE
5
382
100
AcDbEntity
8
0
100
AcDbSpline
70
0
71
2
72
6
73
3
74
0
42
0.000000001
43
0.0000000001
44
0.0000000001
40
0
40
0
40
0
40
1
40
1
40
1
10
-402.31623949054836
20
27.809053752048101
30
0
10
-402.39558821683767
20
27.944388871749204
30
0
10
-402.39512829287696
20
28.079447445336079
30
0
0
SPLINE
5
383
100
AcDbEntity
8
0
100
AcDbSpline
70
0
71
2
72
6
73
3
74
0
42
0.000000001
43
0.0000000001
44
0.0000000001
40
0
40
0
40
0
40
1
40
1
40
1
10
-402.39512829287696
20
28.079447445336079
30
0
10
-402.39471714774618
20
28.200181913745183
30
0
10
-402.32174361024988
20
28.296112024568522
30
0
0
SPLINE
5
384
100
AcDbEntity
8
0
100
AcDbSpline
70
0
71
2
72
6
73
3
74
0
42
0.000000001
43
0.0000000001
44
0.0000000001
40
0
40
0
40
0
40
1
40
1
40
1
10
-402.32174361024988
20
28.296112024568522
30
0
10
-402.24876975849412
20
28.392046902720924
30
0
10
-402.11970867314517
20
28.432534572999486
30
0
0
SPLINE
5
385
100
AcDbEntity
8
0
100
AcDbSpline
70
0
71
2
72
6
73
3
74
0
42
0.000000001
43
0.0000000001
44
0.0000000001
40
0
40
0
40
0
40
1
40
1
40
1
10
-402.11970867314517
20
28.432534572999486
30
0
10
-401.92304801163834
20
28.493258011432722
30
0
10
-401.6897615530109
20
28.49246358550932
30
0
0
LINE
5
386
100
AcDbEntity
8
0
100
AcDbLine
10
-401.68976155301095
20
28.49246358550932
30
0
11
-400.55197806627211
21
28.488589015581876
31
0
0
LINE
5
387
100
AcDbEntity
8
0
100
AcDbLine
10
-400.55197806627211
20
28.488589015581876
30
0
11
-400.55072370015012
21
28.856938816140119
31
0
0
ENDSEC
0
SECTION
2
OBJECTS
0
DICTIONARY
5
C
100
AcDbDictionary
3
ACAD_GROUP
350
D
3
ACAD_MLINESTYLE
350
17
0
DICTIONARY
5
D
100
AcDbDictionary
0
DICTIONARY
5
1A
330
C
100
AcDbDictionary
0
DICTIONARY
5
17
100
AcDbDictionary
0
ENDSEC
0
EOF
