0
SECTION
2
HEADER
9
$INSUNITS
70
4
9
$ACADVER
1
AC1014
9
$HANDSEED
5
FFFF
0
ENDSEC
0
SECTION
2
TABLES
0
TABLE
2
VPORT
5
8
100
AcDbSymbolTable
0
ENDTAB
0
TABLE
2
LTYPE
5
5
100
AcDbSymbolTable
0
LTYPE
5
14
100
AcDbSymbolTableRecord
100
AcDbLinetypeTableRecord
2
BYBLOCK
70
0
0
LTYPE
5
15
100
AcDbSymbolTableRecord
100
AcDbLinetypeTableRecord
2
BYLAYER
70
0
0
ENDTAB
0
TABLE
2
LAYER
5
2
100
AcDbSymbolTable
70
2
0
LAYER
5
50
100
AcDbSymbolTableRecord
100
AcDbLayerTableRecord
2
0
70
0
6
CONTINUOUS
0
ENDTAB
0
TABLE
2
STYLE
5
3
100
AcDbSymbolTable
70
1
0
STYLE
5
11
100
AcDbSymbolTableRecord
100
AcDbTextStyleTableRecord
2
STANDARD
70
0
0
ENDTAB
0
TABLE
2
VIEW
5
6
100
AcDbSymbolTable
70
0
0
ENDTAB
0
TABLE
2
UCS
5
7
100
AcDbSymbolTable
70
0
0
ENDTAB
0
TABLE
2
APPID
5
9
100
AcDbSymbolTable
70
2
0
APPID
5
12
100
AcDbSymbolTableRecord
100
AcDbRegAppTableRecord
2
ACAD
70
0
0
ENDTAB
0
TABLE
2
DIMSTYLE
5
A
100
AcDbSymbolTable
70
1
0
ENDTAB
0
TABLE
2
BLOCK_RECORD
5
1
100
AcDbSymbolTable
70
1
0
BLOCK_RECORD
5
1F
100
AcDbSymbolTableRecord
100
AcDbBlockTableRecord
2
*MODEL_SPACE
0
BLOCK_RECORD
5
1B
100
AcDbSymbolTableRecord
100
AcDbBlockTableRecord
2
*PAPER_SPACE
0
ENDTAB
0
ENDSEC
0
SECTION
2
BLOCKS
0
BLOCK
5
20
100
AcDbEntity
100
AcDbBlockBegin
2
*MODEL_SPACE
0
ENDBLK
5
21
100
AcDbEntity
100
AcDbBlockEnd
0
BLOCK
5
1C
100
AcDbEntity
100
AcDbBlockBegin
2
*PAPER_SPACE
0
ENDBLK
5
1D
100
AcDbEntity
100
AcDbBlockEnd
0
ENDSEC
0
SECTION
2
ENTITIES
0
LWPOLYLINE
5
100
100
AcDbEntity
8
0
100
AcDbPolyline
90
4
70
1
43
0.0
10
-411.54938156851449
20
27.818001141930921
10
-417.74938156851448
20
27.818001141930981
10
-417.74938156851448
20
7.8180011419309281
10
-411.54938156851449
20
7.8180011419309459
0
LWPOLYLINE
5
101
100
AcDbEntity
8
0
100
AcDbPolyline
90
4
70
1
43
0.0
10
-527.67499957896962
20
-117.63235936363778
10
-534.01427348380241
20
-131.22697617911302
10
-528.3951652000793
20
-133.84720939312081
10
-522.0558912952107
20
-120.25259257765745
0
LWPOLYLINE
5
102
100
AcDbEntity
8
0
100
AcDbPolyline
90
4
70
1
43
0.0
10
-438.94938156851345
20
-15.381998858069061
10
-438.94938156851367
20
-35.381998858069053
10
-432.74938156851448
20
-35.381998858069053
10
-432.74938156851448
20
-15.381998858069057
0
LWPOLYLINE
5
103
100
AcDbEntity
8
0
100
AcDbPolyline
90
4
70
1
43
0.0
10
-438.94938156851418
20
-85.381998858069053
10
-438.94938156851447
20
-105.38199885806905
10
-432.74938156851448
20
-105.38199885806905
10
-432.74938156851448
20
-85.381998858069053
0
LWPOLYLINE
5
104
100
AcDbEntity
8
0
100
AcDbPolyline
90
4
70
1
43
0.0
10
-429.69938156851305
20
6.8180011419309308
10
-429.69938156851231
20
13.018001141930933
10
-449.69938156851515
20
13.018001141930927
10
-449.69938156851589
20
6.8180011419307647
0
LWPOLYLINE
5
105
100
AcDbEntity
8
0
100
AcDbPolyline
90
4
70
1
43
0.0
10
-411.54938156851449
20
-85.381998858069053
10
-417.74938156851448
20
-85.381998858069053
10
-417.74938156851448
20
-105.38199885806905
10
-411.54938156851449
20
-105.38199885806905
0
LWPOLYLINE
5
106
100
AcDbEntity
8
0
100
AcDbPolyline
90
39
70
1
43
0.0
10
-574.9660704794145
20
-134.84935498590119
10
-577.58630369153377
20
-140.46846326560356
10
-586.64938156851417
20
-136.2422806623803
10
-577.69018257181142
20
-117.02921633321658
42
-0.15525702210248429
10
-557.14738343443969
20
-94.728357897079036
42
0.27916707168792038
10
-491.6427198809393
20
22.938611046166212
42
-0.27775444578448616
10
-486.64938156851451
20
31.963816081174386
10
-467.84938156851445
20
42.818001141930928
10
-443.00938156851481
20
42.818001141930928
10
-443.00938156851396
20
36.618001141931195
10
-424.36938156851681
20
36.618001141931359
10
-424.36938156851448
20
42.818001141930928
10
-405.7293815685145
20
42.818001141930928
10
-405.72938156851473
20
36.618001141931146
10
-387.08938156850945
20
36.618001141930925
10
-387.08938156851445
20
42.818001141930928
10
-368.44938156851447
20
42.818001141930949
10
-368.44938156851447
20
-120.38199885806905
10
-387.08938156838838
20
-120.38199885806905
10
-387.08938156838838
20
-114.18199885806906
10
-405.72938156859288
20
-114.18199885806919
10
-405.72938156859607
20
-120.38199885806905
10
-424.36938156857445
20
-120.38199885806905
10
-424.36938156857218
20
-114.18199885806931
10
-443.00938156849963
20
-114.18199885806931
10
-443.00938156849895
20
-120.38199885806905
10
-461.64938156851451
20
-120.38199885806905
10
-480.44323398423927
20
-127.22240172456402
10
-482.56376033269538
20
-121.39630349319718
10
-501.35761129768935
20
-128.23671034554229
10
-499.23708639996426
20
-134.06280459105901
10
-519.19370051410715
20
-141.32641810532186
10
-521.3142253743182
20
-135.50032396287577
10
-540.10807780546759
20
-142.34072678699141
10
-537.98755292983196
20
-148.16682097181675
10
-550.95529502664749
20
-152.886706502989
10
-558.90193020135678
20
-149.18112967960099
10
-558.93081968404886
20
-149.16765829263161
10
-556.3105864706655
20
-143.54855001021863
0
LWPOLYLINE
5
107
100
AcDbEntity
8
0
100
AcDbPolyline
90
4
70
1
43
0.0
10
-407.95366609880273
20
-66.367174025691526
10
-407.95366609880273
20
-3.9035928477948216
10
-420.91066955991505
20
-3.9035928477947834
10
-420.91066955991522
20
-66.36717402569154
0
LWPOLYLINE
5
108
100
AcDbEntity
8
0
100
AcDbPolyline
90
4
70
1
43
0.0
10
-411.83501343179677
20
38.644082656226786
10
-411.83501343179682
20
23.575220270565751
10
-417.4411119622963
20
23.575220270565893
10
-417.44111196229625
20
38.644082656226644
0
LWPOLYLINE
5
109
100
AcDbEntity
8
0
100
AcDbPolyline
90
4
70
1
43
0.0
10
-411.67363075506046
20
-74.211183300777847
10
-411.67363075506051
20
-89.280045686438783
10
-417.27972928555994
20
-89.28004568643864
10
-417.27972928555982
20
-74.211183300777989
0
LWPOLYLINE
5
110
100
AcDbEntity
8
0
100
AcDbPolyline
90
4
70
1
43
0.0
10
-411.83501343179677
20
38.644082656226786
10
-411.83501343179682
20
23.575220270565751
10
-417.4411119622963
20
23.575220270565893
10
-417.44111196229625
20
38.644082656226644
0
LWPOLYLINE
5
111
100
AcDbEntity
8
0
100
AcDbPolyline
90
4
70
1
43
0.0
10
-433.22984981233282
20
-4.937991452274928
10
-433.22984981233287
20
-20.006853837935928
10
-438.83594834283235
20
-20.006853837935786
10
-438.8359483428323
20
-4.9379914522750701
0
LWPOLYLINE
5
112
100
AcDbEntity
8
0
100
AcDbPolyline
90
4
70
1
43
0.0
10
-433.2298498123323
20
-74.933443808353417
10
-433.22984981233242
20
-90.002306194014409
10
-438.8359483428319
20
-90.002306194014267
10
-438.83594834283178
20
-74.933443808353559
0
LWPOLYLINE
5
113
100
AcDbEntity
8
0
100
AcDbPolyline
90
4
70
1
43
0.0
10
-537.74030362931637
20
-139.88200207739186
10
-531.37192722285522
20
-126.22497474551551
10
-526.29107646606053
20
-128.59421435366954
10
-532.65945287252157
20
-142.25124168554561
0
LWPOLYLINE
5
114
100
AcDbEntity
8
0
100
AcDbPolyline
90
4
70
1
43
0.0
10
-396.54938156851449
20
-83.181998858069065
10
-396.54938156851449
20
-73.181998858069051
10
-406.54938156851449
20
-73.181998858069051
10
-406.54938156851449
20
-83.181998858069065
0
LWPOLYLINE
5
115
100
AcDbEntity
8
0
100
AcDbPolyline
90
4
70
1
43
0.0
10
-396.54938156851449
20
-23.181998858069068
10
-396.54938156851449
20
-13.18199885806907
10
-406.54938156851449
20
-13.18199885806907
10
-406.54938156851449
20
-23.181998858069068
0
LWPOLYLINE
5
116
100
AcDbEntity
8
0
100
AcDbPolyline
90
12
70
1
43
0.0
10
-415.93216746516958
20
-49.069217864490533
10
-412.93216734596029
20
-49.069217864490533
10
-412.93216734596029
20
-48.672219935871148
10
-414.34621899791495
20
-48.672219935871148
10
-414.34621899791495
20
-47.112874213672661
10
-412.93216734596029
20
-47.112874213672661
10
-412.93216734596029
20
-46.715875092960381
10
-415.93216746516958
20
-46.715875092960381
10
-415.93216746516958
20
-47.112874213672661
10
-414.70024376579062
20
-47.112874213672661
10
-414.70024376579062
20
-48.672219935871148
10
-415.93216746516958
20
-48.672219935871148
0
SPLINE
5
117
100
AcDbEntity
8
0
100
AcDbSpline
70
0
71
2
72
6
73
3
74
0
42
0.000000001
43
0.0000000001
44
0.0000000001
40
0
40
0
40
0
40
1
40
1
40
1
10
-414.01879757114187
20
-46.239068929172539
30
-1.3598092897042517e-15
10
-414.62248116203085
20
-46.239068929172539
30
-1.3598092897042517e-15
10
-414.91306811042563
20
-45.903461400486016
30
-1.318709221126681e-15
0
SPLINE
5
118
100
AcDbEntity
8
0
100
AcDbSpline
70
0
71
2
72
6
73
3
74
0
42
0.000000001
43
0.0000000001
44
0.0000000001
40
0
40
0
40
0
40
1
40
1
40
1
10
-414.91306811042563
20
-45.903461400486016
30
-1.318709221126681e-15
10
-415.15454142757193
20
-45.62310737750628
30
-1.2843757554396595e-15
10
-415.15454142757193
20
-45.219967786289239
30
-1.2350053944403075e-15
0
SPLINE
5
119
100
AcDbEntity
8
0
100
AcDbSpline
70
0
71
2
72
6
73
3
74
0
42
0.000000001
43
0.0000000001
44
0.0000000001
40
0
40
0
40
0
40
1
40
1
40
1
10
-415.15454142757193
20
-45.219967786289239
30
-1.2350053944403075e-15
10
-415.15454142757193
20
-44.771809998966241
30
-1.1801218944645001e-15
10
-414.86088483997122
20
-44.48736232898333
30
-1.1452871016075511e-15
0
SPLINE
5
120
100
AcDbEntity
8
0
100
AcDbSpline
70
0
71
2
72
6
73
3
74
0
42
0.000000001
43
0.0000000001
44
0.0000000001
40
0
40
0
40
0
40
1
40
1
40
1
10
-414.86088483997122
20
-44.48736232898333
30
-1.1452871016075511e-15
10
-414.56722884841696
20
-44.20291465900042
30
-1.1104523087506014e-15
10
-414.04949336715475
20
-44.20291465900042
30
-1.1104523087506014e-15
0
SPLINE
5
121
100
AcDbEntity
8
0
100
AcDbSpline
70
0
71
2
72
6
73
3
74
0
42
0.000000001
43
0.0000000001
44
0.0000000001
40
0
40
0
40
0
40
1
40
1
40
1
10
-414.04949336715475
20
-44.20291465900042
30
-1.1104523087506014e-15
10
-413.62998455234305
20
-44.20291465900042
30
-1.1104523087506014e-15
10
-413.38953405090109
20
-44.328768674350755
30
-1.1258649804564653e-15
0
SPLINE
5
122
100
AcDbEntity
8
0
100
AcDbSpline
70
0
71
2
72
6
73
3
74
0
42
0.000000001
43
0.0000000001
44
0.0000000001
40
0
40
0
40
0
40
1
40
1
40
1
10
-413.38953405090109
20
-44.328768674350755
30
-1.1258649804564653e-15
10
-413.14908414550558
20
-44.454620305515306
30
-1.1412773601837793e-15
10
-413.01606922813193
20
-44.695070210910814
30
-1.1707239808835687e-15
0
SPLINE
5
123
100
AcDbEntity
8
0
100
AcDbSpline
70
0
71
2
72
6
73
3
74
0
42
0.000000001
43
0.0000000001
44
0.0000000001
40
0
40
0
40
0
40
1
40
1
40
1
10
-413.01606922813193
20
-44.695070210910814
30
-1.1707239808835687e-15
10
-412.88305431075827
20
-44.935520116306321
30
-1.2001706015833579e-15
10
-412.88305431075827
20
-45.219967786289232
30
-1.2350053944403075e-15
0
SPLINE
5
124
100
AcDbEntity
8
0
100
AcDbSpline
70
0
71
2
72
6
73
3
74
0
42
0.000000001
43
0.0000000001
44
0.0000000001
40
0
40
0
40
0
40
1
40
1
40
1
10
-412.88305431075827
20
-45.219967786289232
30
-1.2350053944403075e-15
10
-412.88305431075827
20
-45.676312867618577
30
-1.2908915487559692e-15
10
-413.17568689056174
20
-45.957689706302659
30
-1.3253502732408355e-15
0
SPLINE
5
125
100
AcDbEntity
8
0
100
AcDbSpline
70
0
71
2
72
6
73
3
74
0
42
0.000000001
43
0.0000000001
44
0.0000000001
40
0
40
0
40
0
40
1
40
1
40
1
10
-413.17568689056174
20
-45.957689706302659
30
-1.3253502732408355e-15
10
-413.46832006641165
20
-46.239068929172532
30
-1.3598092897042517e-15
10
-414.01879757114187
20
-46.239068929172539
30
-1.3598092897042517e-15
0
SPLINE
5
126
100
AcDbEntity
8
0
100
AcDbSpline
70
0
71
2
72
6
73
3
74
0
42
0.000000001
43
0.0000000001
44
0.0000000001
40
0
40
0
40
0
40
1
40
1
40
1
10
-414.01879757114187
20
-45.860486451602959
30
-1.3134463077673654e-15
10
-413.60133498378531
20
-45.860486451602952
30
-1.3134463077673654e-15
10
-413.39362710185782
20
-45.678358499027269
30
-1.2911420663516585e-15
0
SPLINE
5
127
100
AcDbEntity
8
0
100
AcDbSpline
70
0
71
2
72
6
73
3
74
0
42
0.000000001
43
0.0000000001
44
0.0000000001
40
0
40
0
40
0
40
1
40
1
40
1
10
-413.39362710185782
20
-45.678358499027269
30
-1.2911420663516585e-15
10
-413.18591921993033
20
-45.496230546451585
30
-1.2688378249359511e-15
10
-413.18591921993033
20
-45.219967786289232
30
-1.2350053944403075e-15
0
SPLINE
5
128
100
AcDbEntity
8
0
100
AcDbSpline
70
0
71
2
72
6
73
3
74
0
42
0.000000001
43
0.0000000001
44
0.0000000001
40
0
40
0
40
0
40
1
40
1
40
1
10
-413.18591921993033
20
-45.219967786289232
30
-1.2350053944403075e-15
10
-413.18591921993033
20
-44.94575304172136
30
-1.201423773518902e-15
10
-413.39465051360861
20
-44.763625089145677
30
-1.1791195321031947e-15
0
SPLINE
5
129
100
AcDbEntity
8
0
100
AcDbSpline
70
0
71
2
72
6
73
3
74
0
42
0.000000001
43
0.0000000001
44
0.0000000001
40
0
40
0
40
0
40
1
40
1
40
1
10
-413.39465051360861
20
-44.763625089145677
30
-1.1791195321031947e-15
10
-413.60338121124045
20
-44.581497136569993
30
-1.1568152906874877e-15
10
-414.0310761279656
20
-44.58149713657
30
-1.1568152906874877e-15
0
SPLINE
5
130
100
AcDbEntity
8
0
100
AcDbSpline
70
0
71
2
72
6
73
3
74
0
42
0.000000001
43
0.0000000001
44
0.0000000001
40
0
40
0
40
0
40
1
40
1
40
1
10
-414.0310761279656
20
-44.58149713657
30
-1.1568152906874877e-15
10
-414.4342139310433
20
-44.58149713657
30
-1.1568152906874877e-15
10
-414.64192181297079
20
-44.76464790485003
30
-1.179244790901039e-15
0
SPLINE
5
131
100
AcDbEntity
8
0
100
AcDbSpline
70
0
71
2
72
6
73
3
74
0
42
0.000000001
43
0.0000000001
44
0.0000000001
40
0
40
0
40
0
40
1
40
1
40
1
10
-414.64192181297079
20
-44.76464790485003
30
-1.179244790901039e-15
10
-414.84962969489828
20
-44.947798673130059
30
-1.2016742911145907e-15
10
-414.84962969489828
20
-45.219967786289239
30
-1.2350053944403075e-15
0
SPLINE
5
132
100
AcDbEntity
8
0
100
AcDbSpline
70
0
71
2
72
6
73
3
74
0
42
0.000000001
43
0.0000000001
44
0.0000000001
40
0
40
0
40
0
40
1
40
1
40
1
10
-414.84962969489828
20
-45.219967786289239
30
-1.2350053944403075e-15
10
-414.84962969489828
20
-45.496230546451592
30
-1.2688378249359511e-15
10
-414.64294522472159
20
-45.678358499027276
30
-1.2911420663516585e-15
0
SPLINE
5
133
100
AcDbEntity
8
0
100
AcDbSpline
70
0
71
2
72
6
73
3
74
0
42
0.000000001
43
0.0000000001
44
0.0000000001
40
0
40
0
40
0
40
1
40
1
40
1
10
-414.64294522472159
20
-45.678358499027276
30
-1.2911420663516585e-15
10
-414.43626015849844
20
-45.860486451602959
30
-1.3134463077673654e-15
10
-414.01879757114187
20
-45.860486451602959
30
-1.3134463077673654e-15
0
LINE
5
134
100
AcDbEntity
8
0
100
AcDbLine
10
-412.93216734596029
20
-42.346845094181077
30
-8.8314934359551932e-16
11
-413.25140326686636
21
-42.346845094181077
31
-8.8314934359551932e-16
0
SPLINE
5
135
100
AcDbEntity
8
0
100
AcDbSpline
70
0
71
2
72
6
73
3
74
0
42
0.000000001
43
0.0000000001
44
0.0000000001
40
0
40
0
40
0
40
1
40
1
40
1
10
-413.25140326686636
20
-42.346845094181077
30
-8.8314934359551932e-16
10
-412.88305431075827
20
-42.600596372104661
30
-9.142249126243862e-16
10
-412.88305431075827
20
-43.036475602603929
30
-9.6760472306896013e-16
0
SPLINE
5
136
100
AcDbEntity
8
0
100
AcDbSpline
70
0
71
2
72
6
73
3
74
0
42
0.000000001
43
0.0000000001
44
0.0000000001
40
0
40
0
40
0
40
1
40
1
40
1
10
-412.88305431075827
20
-43.036475602603929
30
-9.6760472306896013e-16
10
-412.88305431075827
20
-43.228836480594651
30
-9.9116213642021126e-16
10
-412.95672386356131
20
-43.395615045047776
30
-1.0115866199326026e-15
0
SPLINE
5
137
100
AcDbEntity
8
0
100
AcDbSpline
70
0
71
2
72
6
73
3
74
0
42
0.000000001
43
0.0000000001
44
0.0000000001
40
0
40
0
40
0
40
1
40
1
40
1
10
-412.95672386356131
20
-43.395615045047776
30
-1.0115866199326026e-15
10
-413.0303940124108
20
-43.562395993686692
30
-1.0320113954235435e-15
10
-413.14192205138937
20
-43.643229428745286
30
-1.0419106361744024e-15
0
SPLINE
5
138
100
AcDbEntity
8
0
100
AcDbSpline
70
0
71
2
72
6
73
3
74
0
42
0.000000001
43
0.0000000001
44
0.0000000001
40
0
40
0
40
0
40
1
40
1
40
1
10
-413.14192205138937
20
-43.643229428745286
30
-1.0419106361744024e-15
10
-413.2534494943215
20
-43.724060479618089
30
-1.0518095849467122e-15
10
-413.4151139802529
20
-43.756802503086107
30
-1.0558193263704833e-15
0
SPLINE
5
139
100
AcDbEntity
8
0
100
AcDbSpline
70
0
71
2
72
6
73
3
74
0
42
0.000000001
43
0.0000000001
44
0.0000000001
40
0
40
0
40
0
40
1
40
1
40
1
10
-413.4151139802529
20
-43.756802503086107
30
-1.0558193263704833e-15
10
-413.52357238002554
20
-43.779313985324876
30
-1.0585761878372607e-15
10
-413.75890701480643
20
-43.779313985324883
30
-1.0585761878372607e-15
0
LINE
5
140
100
AcDbEntity
8
0
100
AcDbLine
10
-413.75890701480643
20
-43.779313985324883
30
-1.0585761878372607e-15
11
-415.10542779632345
21
-43.779313985324883
31
-1.0585761878372607e-15
0
LINE
5
141
100
AcDbEntity
8
0
100
AcDbLine
10
-415.10542779632345
20
-43.779313985324883
30
-1.0585761878372607e-15
11
-415.10542779632345
21
-43.410964433170342
31
-1.0134663778359188e-15
0
LINE
5
142
100
AcDbEntity
8
0
100
AcDbLine
10
-415.10542779632345
20
-43.410964433170342
30
-1.0134663778359188e-15
11
-413.90010743804709
21
-43.410964433170342
31
-1.0134663778359188e-15
0
SPLINE
5
143
100
AcDbEntity
8
0
100
AcDbSpline
70
0
71
2
72
6
73
3
74
0
42
0.000000001
43
0.0000000001
44
0.0000000001
40
0
40
0
40
0
40
1
40
1
40
1
10
-413.90010743804709
20
-43.410964433170342
30
-1.0134663778359188e-15
10
-413.6115673131539
20
-43.410964433170342
30
-1.0134663778359188e-15
10
-413.51129441924826
20
-43.388452950931566
30
-1.0107095163691414e-15
0
SPLINE
5
144
100
AcDbEntity
8
0
100
AcDbSpline
70
0
71
2
72
6
73
3
74
0
42
0.000000001
43
0.0000000001
44
0.0000000001
40
0
40
0
40
0
40
1
40
1
40
1
10
-413.51129441924826
20
-43.388452950931566
30
-1.0107095163691414e-15
10
-413.36600094505087
20
-43.353665296054857
30
-1.0064492573496809e-15
10
-413.28312247463003
20
-43.241115037418382
30
-9.9266582595144472e-16
0
SPLINE
5
145
100
AcDbEntity
8
0
100
AcDbSpline
70
0
71
2
72
6
73
3
74
0
42
0.000000001
43
0.0000000001
44
0.0000000001
40
0
40
0
40
0
40
1
40
1
40
1
10
-413.28312247463003
20
-43.241115037418382
30
-9.9266582595144472e-16
10
-413.2002440042092
20
-43.128562394596116
30
-9.7888210257465845e-16
10
-413.2002440042092
20
-42.962806645847337
30
-9.5858287786011201e-16
0
SPLINE
5
146
100
AcDbEntity
8
0
100
AcDbSpline
70
0
71
2
72
6
73
3
74
0
42
0.000000001
43
0.0000000001
44
0.0000000001
40
0
40
0
40
0
40
1
40
1
40
1
10
-413.2002440042092
20
-42.962806645847337
30
-9.5858287786011201e-16
10
-413.2002440042092
20
-42.797048512912767
30
-9.382833611670153e-16
10
-413.28516870208517
20
-42.651756230808274
30
-9.2049018834500735e-16
0
SPLINE
5
147
100
AcDbEntity
8
0
100
AcDbSpline
70
0
71
2
72
6
73
3
74
0
42
0.000000001
43
0.0000000001
44
0.0000000001
40
0
40
0
40
0
40
1
40
1
40
1
10
-413.28516870208517
20
-42.651756230808274
30
-9.2049018834500735e-16
10
-413.37009339996115
20
-42.506461564517991
30
-9.0269672354444953e-16
10
-413.51641028590933
20
-42.446093980289476
30
-8.9530382666467861e-16
0
SPLINE
5
148
100
AcDbEntity
8
0
100
AcDbSpline
70
0
71
2
72
6
73
3
74
0
42
0.000000001
43
0.0000000001
44
0.0000000001
40
0
40
0
40
0
40
1
40
1
40
1
10
-413.51641028590933
20
-42.446093980289476
30
-8.9530382666467861e-16
10
-413.66272657581106
20
-42.385726396060967
30
-8.8791092978490741e-16
10
-413.94103496738211
20
-42.385726396060967
30
-8.8791092978490741e-16
0
LINE
5
149
100
AcDbEntity
8
0
100
AcDbLine
10
-413.94103496738211
20
-42.385726396060967
30
-8.8791092978490741e-16
11
-415.10542779632345
21
-42.385726396060967
31
-8.8791092978490741e-16
0
LINE
5
150
100
AcDbEntity
8
0
100
AcDbLine
10
-415.10542779632345
20
-42.385726396060967
30
-8.8791092978490741e-16
11
-415.10542779632345
21
-42.017376843906426
31
-8.4280111978356546e-16
0
LINE
5
151
100
AcDbEntity
8
0
100
AcDbLine
10
-415.10542779632345
20
-42.017376843906426
30
-8.4280111978356546e-16
11
-412.93216734596029
21
-42.017376843906426
31
-8.4280111978356546e-16
0
LINE
5
152
100
AcDbEntity
8
0
100
AcDbLine
10
-412.93216734596029
20
-42.017376843906426
30
-8.4280111978356546e-16
11
-412.93216734596029
21
-42.346845094181077
31
-8.8314934359551932e-16
0
LINE
5
153
100
AcDbEntity
8
0
100
AcDbLine
10
-413.58087151714102
20
-41.587634507633226
30
-7.9017286212605819e-16
11
-413.63817005821005
21
-41.223378602481858
31
-7.455643792946438e-16
0
SPLINE
5
154
100
AcDbEntity
8
0
100
AcDbSpline
70
0
71
2
72
6
73
3
74
0
42
0.000000001
43
0.0000000001
44
0.0000000001
40
0
40
0
40
0
40
1
40
1
40
1
10
-413.63817005821005
20
-41.223378602481866
30
-7.455643792946438e-16
10
-413.41920703120962
20
-41.192682210422532
30
-7.4180515546656163e-16
10
-413.30256312556997
20
-41.052504006839769
30
-7.2463827663377579e-16
0
SPLINE
5
155
100
AcDbEntity
8
0
100
AcDbSpline
70
0
71
2
72
6
73
3
74
0
42
0.000000001
43
0.0000000001
44
0.0000000001
40
0
40
0
40
0
40
1
40
1
40
1
10
-413.30256312556997
20
-41.052504006839769
30
-7.2463827663377579e-16
10
-413.18591921993033
20
-40.912328187442796
30
-7.0747168977953963e-16
10
-413.18591921993033
20
-40.660622540927903
30
-6.7664663834636194e-16
0
SPLINE
5
156
100
AcDbEntity
8
0
100
AcDbSpline
70
0
71
2
72
6
73
3
74
0
42
0.000000001
43
0.0000000001
44
0.0000000001
40
0
40
0
40
0
40
1
40
1
40
1
10
-413.18591921993033
20
-40.660622540927903
30
-6.7664663834636194e-16
10
-413.18591921993033
20
-40.406871263004319
30
-6.4557106931749506e-16
10
-413.2892617530419
20
-40.284088078952806
30
-6.3053446598371457e-16
0
SPLINE
5
157
100
AcDbEntity
8
0
100
AcDbSpline
70
0
71
2
72
6
73
3
74
0
42
0.000000001
43
0.0000000001
44
0.0000000001
40
0
40
0
40
0
40
1
40
1
40
1
10
-413.2892617530419
20
-40.284088078952806
30
-6.3053446598371457e-16
10
-413.39260369010702
20
-40.161304894901292
30
-6.154978626499336e-16
10
-413.53175788589255
20
-40.161304894901292
30
-6.154978626499336e-16
0
SPLINE
5
158
100
AcDbEntity
8
0
100
AcDbSpline
70
0
71
2
72
6
73
3
74
0
42
0.000000001
43
0.0000000001
44
0.0000000001
40
0
40
0
40
0
40
1
40
1
40
1
10
-413.53175788589255
20
-40.161304894901292
30
-6.154978626499336e-16
10
-413.6565872973992
20
-40.161304894901299
30
-6.154978626499336e-16
10
-413.72821121879355
20
-40.269763890720391
30
-6.2878025885679243e-16
0
SPLINE
5
159
100
AcDbEntity
8
0
100
AcDbSpline
70
0
71
2
72
6
73
3
74
0
42
0.000000001
43
0.0000000001
44
0.0000000001
40
0
40
0
40
0
40
1
40
1
40
1
10
-413.72821121879355
20
-40.269763890720391
30
-6.2878025885679243e-16
10
-413.77732425399557
20
-40.345478478885674
30
-6.3805262166132973e-16
10
-413.8530406303002
20
-40.646298352695489
30
-6.7489243121943979e-16
0
SPLINE
5
160
100
AcDbEntity
8
0
100
AcDbSpline
70
0
71
2
72
6
73
3
74
0
42
0.000000001
43
0.0000000001
44
0.0000000001
40
0
40
0
40
0
40
1
40
1
40
1
10
-413.8530406303002
20
-40.646298352695489
30
-6.7489243121943979e-16
10
-413.95535975166098
20
-41.051483575321221
30
-7.2451330981448112e-16
10
-414.03005271621481
20
-41.208031598545098
30
-7.436849133698778e-16
0
SPLINE
5
161
100
AcDbEntity
8
0
100
AcDbSpline
70
0
71
2
72
6
73
3
74
0
42
0.000000001
43
0.0000000001
44
0.0000000001
40
0
40
0
40
0
40
1
40
1
40
1
10
-414.03005271621481
20
-41.208031598545098
30
-7.436849133698778e-16
10
-414.10474568076864
20
-41.364579621768975
30
-7.6285651692527398e-16
10
-414.23673778243796
20
-41.445410672641778
30
-7.7275546569758367e-16
0
SPLINE
5
162
100
AcDbEntity
8
0
100
AcDbSpline
70
0
71
2
72
6
73
3
74
0
42
0.000000001
43
0.0000000001
44
0.0000000001
40
0
40
0
40
0
40
1
40
1
40
1
10
-414.23673778243796
20
-41.445410672641778
30
-7.7275546569758367e-16
10
-414.36872928806082
20
-41.526244107700371
30
-7.8265470644844304e-16
10
-414.52834754653708
20
-41.526244107700371
30
-7.8265470644844304e-16
0
SPLINE
5
163
100
AcDbEntity
8
0
100
AcDbSpline
70
0
71
2
72
6
73
3
74
0
42
0.000000001
43
0.0000000001
44
0.0000000001
40
0
40
0
40
0
40
1
40
1
40
1
10
-414.52834754653708
20
-41.526244107700371
30
-7.8265470644844304e-16
10
-414.67364102073446
20
-41.526244107700371
30
-7.8265470644844304e-16
10
-414.79744702049032
20
-41.459737245059991
30
-7.7450996480305549e-16
0
SPLINE
5
164
100
AcDbEntity
8
0
100
AcDbSpline
70
0
71
2
72
6
73
3
74
0
42
0.000000001
43
0.0000000001
44
0.0000000001
40
0
40
0
40
0
40
1
40
1
40
1
10
-414.79744702049032
20
-41.459737245059991
30
-7.7450996480305549e-16
10
-414.92125302024618
20
-41.393227998233819
30
-7.6636493117911828e-16
10
-415.00310867496268
20
-41.278629724002862
30
-7.5233069020664272e-16
0
SPLINE
5
165
100
AcDbEntity
8
0
100
AcDbSpline
70
0
71
2
72
6
73
3
74
0
42
0.000000001
43
0.0000000001
44
0.0000000001
40
0
40
0
40
0
40
1
40
1
40
1
10
-415.00310867496268
20
-41.278629724002862
30
-7.5233069020664272e-16
10
-415.06654649444357
20
-41.192682210422539
30
-7.4180515546656163e-16
10
-415.11054425903097
20
-41.044319097019219
30
-7.2363591427247037e-16
0
SPLINE
5
166
100
AcDbEntity
8
0
100
AcDbSpline
70
0
71
2
72
6
73
3
74
0
42
0.000000001
43
0.0000000001
44
0.0000000001
40
0
40
0
40
0
40
1
40
1
40
1
10
-415.11054425903097
20
-41.044319097019219
30
-7.2363591427247037e-16
10
-415.15454142757193
20
-40.89595836780169
30
-7.054669650569288e-16
10
-415.15454142757193
20
-40.726106587863946
30
-6.8466612119390464e-16
0
SPLINE
5
167
100
AcDbEntity
8
0
100
AcDbSpline
70
0
71
2
72
6
73
3
74
0
42
0.000000001
43
0.0000000001
44
0.0000000001
40
0
40
0
40
0
40
1
40
1
40
1
10
-415.15454142757193
20
-40.726106587863946
30
-6.8466612119390464e-16
10
-415.15454142757193
20
-40.47030967853167
30
-6.5334003456934907e-16
10
-415.08087127872244
20
-40.276925984836602
30
-6.296573624202535e-16
0
SPLINE
5
168
100
AcDbEntity
8
0
100
AcDbSpline
70
0
71
2
72
6
73
3
74
0
42
0.000000001
43
0.0000000001
44
0.0000000001
40
0
40
0
40
0
40
1
40
1
40
1
10
-415.08087127872244
20
-40.276925984836602
30
-6.296573624202535e-16
10
-415.0072017259194
20
-40.083542291141534
30
-6.0597469027115743e-16
10
-414.88134890266195
20
-39.991455499149346
30
-5.9469731076545961e-16
0
SPLINE
5
169
100
AcDbEntity
8
0
100
AcDbSpline
70
0
71
2
72
6
73
3
74
0
42
0.000000001
43
0.0000000001
44
0.0000000001
40
0
40
0
40
0
40
1
40
1
40
1
10
-414.88134890266195
20
-39.991455499149346
30
-5.9469731076545961e-16
10
-414.75549607940451
20
-39.899368707157159
30
-5.834199312597613e-16
10
-414.54471855827109
20
-39.864578668094659
30
-5.7915938026175158e-16
0
LINE
5
170
100
AcDbEntity
8
0
100
AcDbLine
10
-414.54471855827103
20
-39.864578668094659
30
-5.7915938026175158e-16
11
-414.49560552306906
21
-40.224743310428643
31
-6.2326682790178811e-16
0
SPLINE
5
171
100
AcDbEntity
8
0
100
AcDbSpline
70
0
71
2
72
6
73
3
74
0
42
0.000000001
43
0.0000000001
44
0.0000000001
40
0
40
0
40
0
40
1
40
1
40
1
10
-414.49560552306906
20
-40.224743310428643
30
-6.2326682790178811e-16
10
-414.66340869136587
20
-40.249300424076104
30
-6.2627420696425404e-16
10
-414.7575429029061
20
-40.366967145420098
30
-6.4068422433026263e-16
0
SPLINE
5
172
100
AcDbEntity
8
0
100
AcDbSpline
70
0
71
2
72
6
73
3
74
0
42
0.000000001
43
0.0000000001
44
0.0000000001
40
0
40
0
40
0
40
1
40
1
40
1
10
-414.7575429029061
20
-40.366967145420098
30
-6.4068422433026263e-16
10
-414.85167651839987
20
-40.484633866764092
30
-6.5509424169627122e-16
10
-414.85167651839987
20
-40.699503842807793
30
-6.8140822453575002e-16
0
SPLINE
5
173
100
AcDbEntity
8
0
100
AcDbSpline
70
0
71
2
72
6
73
3
74
0
42
0.000000001
43
0.0000000001
44
0.0000000001
40
0
40
0
40
0
40
1
40
1
40
1
10
-414.85167651839987
20
-40.699503842807793
30
-6.8140822453575002e-16
10
-414.85167651839987
20
-40.953255120731377
30
-7.1248379356461641e-16
10
-414.76777463622824
20
-41.061714116550469
30
-7.2576618977147523e-16
0
SPLINE
5
174
100
AcDbEntity
8
0
100
AcDbSpline
70
0
71
2
72
6
73
3
74
0
42
0.000000001
43
0.0000000001
44
0.0000000001
40
0
40
0
40
0
40
1
40
1
40
1
10
-414.76777463622824
20
-41.061714116550469
30
-7.2576618977147523e-16
10
-414.68387275405661
20
-41.170173112369561
30
-7.3904858597833406e-16
10
-414.57132130332724
20
-41.170173112369561
30
-7.3904858597833406e-16
0
SPLINE
5
175
100
AcDbEntity
8
0
100
AcDbSpline
70
0
71
2
72
6
73
3
74
0
42
0.000000001
43
0.0000000001
44
0.0000000001
40
0
40
0
40
0
40
1
40
1
40
1
10
-414.57132130332724
20
-41.170173112369561
30
-7.3904858597833406e-16
10
-414.49969797797934
20
-41.170173112369561
30
-7.3904858597833406e-16
10
-414.44239943691031
20
-41.125152532077813
30
-7.3353515502332925e-16
0
SPLINE
5
176
100
AcDbEntity
8
0
100
AcDbSpline
70
0
71
2
72
6
73
3
74
0
42
0.000000001
43
0.0000000001
44
0.0000000001
40
0
40
0
40
0
40
1
40
1
40
1
10
-414.44239943691031
20
-41.125152532077813
30
-7.3353515502332925e-16
10
-414.38305407233969
20
-41.080131951786065
30
-7.2802172406832493e-16
10
-414.34417277045981
20
-40.983951512790703
30
-7.1624301739269907e-16
0
SPLINE
5
177
100
AcDbEntity
8
0
100
AcDbSpline
70
0
71
2
72
6
73
3
74
0
42
0.000000001
43
0.0000000001
44
0.0000000001
40
0
40
0
40
0
40
1
40
1
40
1
10
-414.34417277045981
20
-40.983951512790703
30
-7.1624301739269907e-16
10
-414.32370930381552
20
-40.928698007083916
30
-7.0947641450215047e-16
10
-414.25003915496603
20
-40.658576909519219
30
-6.7639612075067275e-16
0
SPLINE
5
178
100
AcDbEntity
8
0
100
AcDbSpline
70
0
71
2
72
6
73
3
74
0
42
0.000000001
43
0.0000000001
44
0.0000000001
40
0
40
0
40
0
40
1
40
1
40
1
10
-414.25003915496603
20
-40.658576909519219
30
-6.7639612075067275e-16
10
-414.14567321010367
20
-40.267715875125909
30
-6.2852944928255357e-16
10
-414.07916575141684
20
-40.113215867496514
30
-6.0960865530139575e-16
0
SPLINE
5
179
100
AcDbEntity
8
0
100
AcDbSpline
70
0
71
2
72
6
73
3
74
0
42
0.000000001
43
0.0000000001
44
0.0000000001
40
0
40
0
40
0
40
1
40
1
40
1
10
-414.07916575141684
20
-40.113215867496514
30
-6.0960865530139575e-16
10
-414.01265829273001
20
-39.958713475681328
30
-5.9068756934168826e-16
10
-413.88578265376822
20
-39.870717946506524
30
-5.7991122502736782e-16
0
SPLINE
5
180
100
AcDbEntity
8
0
100
AcDbSpline
70
0
71
2
72
6
73
3
74
0
42
0.000000001
43
0.0000000001
44
0.0000000001
40
0
40
0
40
0
40
1
40
1
40
1
10
-413.88578265376822
20
-39.870717946506524
30
-5.7991122502736782e-16
10
-413.75890701480643
20
-39.78272480151751
30
-5.6913517269159755e-16
10
-413.57063918777243
20
-39.782724801517503
30
-5.6913517269159755e-16
0
SPLINE
5
181
100
AcDbEntity
8
0
100
AcDbSpline
70
0
71
2
72
6
73
3
74
0
42
0.000000001
43
0.0000000001
44
0.0000000001
40
0
40
0
40
0
40
1
40
1
40
1
10
-413.57063918777243
20
-39.782724801517503
30
-5.6913517269159755e-16
10
-413.38646500774161
20
-39.782724801517503
30
-5.6913517269159755e-16
10
-413.22377711005942
20
-39.890158597446458
30
-5.8229201812206186e-16
0
SPLINE
5
182
100
AcDbEntity
8
0
100
AcDbSpline
70
0
71
2
72
6
73
3
74
0
42
0.000000001
43
0.0000000001
44
0.0000000001
40
0
40
0
40
0
40
1
40
1
40
1
10
-413.22377711005942
20
-39.890158597446458
30
-5.8229201812206186e-16
10
-413.06108980842367
20
-39.997594777561204
30
-5.9544915553107634e-16
10
-412.97207205959097
20
-40.200186196781175
30
-6.2025944883932168e-16
0
SPLINE
5
183
100
AcDbEntity
8
0
100
AcDbSpline
70
0
71
2
72
6
73
3
74
0
42
0.000000001
43
0.0000000001
44
0.0000000001
40
0
40
0
40
0
40
1
40
1
40
1
10
-412.97207205959097
20
-40.200186196781175
30
-6.2025944883932168e-16
10
-412.88305431075827
20
-40.402777616001146
30
-6.4506974214756751e-16
10
-412.88305431075827
20
-40.658576909519212
30
-6.7639612075067275e-16
0
SPLINE
5
184
100
AcDbEntity
8
0
100
AcDbSpline
70
0
71
2
72
6
73
3
74
0
42
0.000000001
43
0.0000000001
44
0.0000000001
40
0
40
0
40
0
40
1
40
1
40
1
10
-412.88305431075827
20
-40.658576909519212
30
-6.7639612075067275e-16
10
-412.88305431075827
20
-41.082177583194749
30
-7.2827224166401362e-16
10
-413.05904298492209
20
-41.304212037540452
30
-7.5546362004550317e-16
0
SPLINE
5
185
100
AcDbEntity
8
0
100
AcDbSpline
70
0
71
2
72
6
73
3
74
0
42
0.000000001
43
0.0000000001
44
0.0000000001
40
0
40
0
40
0
40
1
40
1
40
1
10
-413.05904298492209
20
-41.304212037540452
30
-7.5546362004550317e-16
10
-413.23503225513235
20
-41.526244107700364
30
-7.8265470644844304e-16
10
-413.58087151714102
20
-41.587634507633226
30
-7.9017286212605819e-16
0
LWPOLYLINE
5
186
100
AcDbEntity
8
0
100
AcDbPolyline
90
4
70
1
43
0.0
10
-415.93216746516958
20
-39.342751924015069
10
-415.5085661954476
20
-39.342751924015069
10
-415.5085661954476
20
-38.974402371860528
10
-415.93216746516958
20
-38.974402371860528
0
LWPOLYLINE
5
187
100
AcDbEntity
8
0
100
AcDbPolyline
90
4
70
1
43
0.0
10
-415.10542779632345
20
-39.342751924015069
10
-412.93216734596029
20
-39.342751924015062
10
-412.93216734596029
20
-38.974402371860521
10
-415.10542779632345
20
-38.974402371860528
0
LINE
5
188
100
AcDbEntity
8
0
100
AcDbLine
10
-412.93216734596029
20
-38.413691941715257
30
-4.0147700172316056e-16
11
-415.10542779632345
21
-38.413691941715264
31
-4.0147700172316056e-16
0
LINE
5
189
100
AcDbEntity
8
0
100
AcDbLine
10
-415.10542779632345
20
-38.413691941715264
30
-4.0147700172316056e-16
11
-415.10542779632345
21
-38.082180444217705
31
-3.6087855229406744e-16
0
LINE
5
190
100
AcDbEntity
8
0
100
AcDbLine
10
-415.10542779632345
20
-38.082180444217705
30
-3.6087855229406744e-16
11
-414.79642420478598
21
-38.082180444217705
31
-3.6087855229406769e-16
0
SPLINE
5
191
100
AcDbEntity
8
0
100
AcDbSpline
70
0
71
2
72
6
73
3
74
0
42
0.000000001
43
0.0000000001
44
0.0000000001
40
0
40
0
40
0
40
1
40
1
40
1
10
-414.79642420478598
20
-38.082180444217705
30
-3.6087855229406769e-16
10
-415.15454083152548
20
-37.842750970340752
30
-3.3155689841357279e-16
10
-415.15454083152548
20
-37.39049953601458
30
-2.7617207126783844e-16
0
SPLINE
5
192
100
AcDbEntity
8
0
100
AcDbSpline
70
0
71
2
72
6
73
3
74
0
42
0.000000001
43
0.0000000001
44
0.0000000001
40
0
40
0
40
0
40
1
40
1
40
1
10
-415.15454083152548
20
-37.39049953601458
30
-2.7617207126783844e-16
10
-415.15454083152548
20
-37.194047395206475
30
-2.5211362272520934e-16
10
-415.08394091792837
20
-37.029314462162041
30
-2.3193965680850725e-16
0
SPLINE
5
193
100
AcDbEntity
8
0
100
AcDbSpline
70
0
71
2
72
6
73
3
74
0
42
0.000000001
43
0.0000000001
44
0.0000000001
40
0
40
0
40
0
40
1
40
1
40
1
10
-415.08394091792837
20
-37.029314462162041
30
-2.3193965680850725e-16
10
-415.01334100433127
20
-36.864581529117608
30
-2.1176569089180516e-16
10
-414.89874273010031
20
-36.782722894168877
30
-2.0174089936455177e-16
0
SPLINE
5
194
100
AcDbEntity
8
0
100
AcDbSpline
70
0
71
2
72
6
73
3
74
0
42
0.000000001
43
0.0000000001
44
0.0000000001
40
0
40
0
40
0
40
1
40
1
40
1
10
-414.89874273010031
20
-36.782722894168877
30
-2.0174089936455177e-16
10
-414.78414564796225
20
-36.700869027591729
30
-1.9171669179439773e-16
10
-414.62657361694113
20
-36.668127004123711
30
-1.8770695037062638e-16
0
SPLINE
5
195
100
AcDbEntity
8
0
100
AcDbSpline
70
0
71
2
72
6
73
3
74
0
42
0.000000001
43
0.0000000001
44
0.0000000001
40
0
40
0
40
0
40
1
40
1
40
1
10
-414.62657361694113
20
-36.668127004123711
30
-1.8770695037062638e-16
10
-414.52425449558035
20
-36.647663537479424
30
-1.852008984780875e-16
10
-414.26845639415518
20
-36.647663537479424
30
-1.852008984780875e-16
0
LINE
5
196
100
AcDbEntity
8
0
100
AcDbLine
10
-414.26845639415518
20
-36.647663537479424
30
-1.852008984780875e-16
11
-412.93216734596029
21
-36.647663537479424
31
-1.852008984780875e-16
0
LINE
5
197
100
AcDbEntity
8
0
100
AcDbLine
10
-412.93216734596029
20
-36.647663537479424
30
-1.852008984780875e-16
11
-412.93216734596029
21
-37.016010705448167
31
-2.3031041650087972e-16
0
LINE
5
198
100
AcDbEntity
8
0
100
AcDbLine
10
-412.93216734596029
20
-37.016010705448167
30
-2.3031041650087972e-16
11
-414.25413160987631
21
-37.016010705448167
31
-2.3031041650087977e-16
0
SPLINE
5
199
100
AcDbEntity
8
0
100
AcDbSpline
70
0
71
2
72
6
73
3
74
0
42
0.000000001
43
0.0000000001
44
0.0000000001
40
0
40
0
40
0
40
1
40
1
40
1
10
-414.25413160987631
20
-37.016010705448174
30
-2.3031041650087977e-16
10
-414.47923451133505
20
-37.016010705448174
30
-2.3031041650087977e-16
10
-414.59076195426718
20
-37.058988038517022
30
-2.3557362183874508e-16
0
SPLINE
5
200
100
AcDbEntity
8
0
100
AcDbSpline
70
0
71
2
72
6
73
3
74
0
42
0.000000001
43
0.0000000001
44
0.0000000001
40
0
40
0
40
0
40
1
40
1
40
1
10
-414.59076195426718
20
-37.058988038517022
30
-2.3557362183874508e-16
10
-414.70228999324576
20
-37.101960603214287
30
-2.4083624321951103e-16
10
-414.76879745193258
20
-37.211442414737725
30
-2.542438982242142e-16
0
SPLINE
5
201
100
AcDbEntity
8
0
100
AcDbSpline
70
0
71
2
72
6
73
3
74
0
42
0.000000001
43
0.0000000001
44
0.0000000001
40
0
40
0
40
0
40
1
40
1
40
1
10
-414.76879745193258
20
-37.211442414737725
30
-2.542438982242142e-16
10
-414.83530550666586
20
-37.320924226261162
30
-2.6765155322891737e-16
10
-414.83530550666586
20
-37.468262139774346
30
-2.8569524364661461e-16
0
SPLINE
5
202
100
AcDbEntity
8
0
100
AcDbSpline
70
0
71
2
72
6
73
3
74
0
42
0.000000001
43
0.0000000001
44
0.0000000001
40
0
40
0
40
0
40
1
40
1
40
1
10
-414.83530550666586
20
-37.468262139774346
30
-2.8569524364661461e-16
10
-414.83530550666586
20
-37.703597966648125
30
-3.1451557035718147e-16
10
-414.68591898151175
20
-37.874470178104424
30
-3.3544138103950029e-16
0
SPLINE
5
203
100
AcDbEntity
8
0
100
AcDbSpline
70
0
71
2
72
6
73
3
74
0
42
0.000000001
43
0.0000000001
44
0.0000000001
40
0
40
0
40
0
40
1
40
1
40
1
10
-414.68591898151175
20
-37.874470178104424
30
-3.3544138103950029e-16
10
-414.53653305240408
20
-38.045344773746514
30
-3.5636748370036829e-16
10
-414.11907046504751
20
-38.045344773746514
30
-3.5636748370036829e-16
0
LINE
5
204
100
AcDbEntity
8
0
100
AcDbLine
10
-414.11907046504751
20
-38.045344773746514
30
-3.5636748370036829e-16
11
-412.93216734596029
21
-38.045344773746514
31
-3.5636748370036829e-16
0
LINE
5
205
100
AcDbEntity
8
0
100
AcDbLine
10
-412.93216734596029
20
-38.045344773746514
30
-3.5636748370036829e-16
11
-412.93216734596029
21
-38.413691941715257
31
-4.0147700172316056e-16
0
LINE
5
206
100
AcDbEntity
8
0
100
AcDbLine
10
-412.75208562083975
20
-36.150389138675706
30
-1.2430234839879867e-16
11
-412.698879534681
21
-35.792274896121995
31
-8.044600231155057e-17
0
SPLINE
5
207
100
AcDbEntity
8
0
100
AcDbSpline
70
0
71
2
72
6
73
3
74
0
42
0.000000001
43
0.0000000001
44
0.0000000001
40
0
40
0
40
0
40
1
40
1
40
1
10
-412.698879534681
20
-35.792274896121995
30
-8.044600231155068e-17
10
-412.53312259383932
20
-35.769763413883226
30
-7.7689140844773437e-17
10
-412.4574062175347
20
-35.667443696475999
30
-6.5158589403531339e-17
0
SPLINE
5
208
100
AcDbEntity
8
0
100
AcDbSpline
70
0
71
2
72
6
73
3
74
0
42
0.000000001
43
0.0000000001
44
0.0000000001
40
0
40
0
40
0
40
1
40
1
40
1
10
-412.4574062175347
20
-35.667443696475999
30
-6.5158589403531339e-17
10
-412.35508709617392
20
-35.530336324192064
30
-4.8367778942828707e-17
10
-412.35508709617392
20
-35.292954865909593
30
-1.9296934636572666e-17
0
SPLINE
5
209
100
AcDbEntity
8
0
100
AcDbSpline
70
0
71
2
72
6
73
3
74
0
42
0.000000001
43
0.0000000001
44
0.0000000001
40
0
40
0
40
0
40
1
40
1
40
1
10
-412.35508709617392
20
-35.292954865909593
30
-1.9296934636572666e-17
10
-412.35508709617392
20
-35.037155572391526
30
1.2029443966532578e-17
10
-412.4574062175347
20
-34.898004952884691
30
2.9070480044374224e-17
0
SPLINE
5
210
100
AcDbEntity
8
0
100
AcDbSpline
70
0
71
2
72
6
73
3
74
0
42
0.000000001
43
0.0000000001
44
0.0000000001
40
0
40
0
40
0
40
1
40
1
40
1
10
-412.4574062175347
20
-34.898004952884691
30
2.9070480044374224e-17
10
-412.55972533889548
20
-34.758849565006273
30
4.6112100079315714e-17
10
-412.74390011497275
20
-34.709735337711351
30
5.2126858204247581e-17
0
SPLINE
5
211
100
AcDbEntity
8
0
100
AcDbSpline
70
0
71
2
72
6
73
3
74
0
42
0.000000001
43
0.0000000001
44
0.0000000001
40
0
40
0
40
0
40
1
40
1
40
1
10
-412.74390011497275
20
-34.709735337711351
30
5.2126858204247581e-17
10
-412.85645096965567
20
-34.681086961246507
30
5.5635272458091879e-17
10
-413.2166150159432
20
-34.683132592655198
30
5.5384754862402696e-17
0
SPLINE
5
212
100
AcDbEntity
8
0
100
AcDbSpline
70
0
71
2
72
6
73
3
74
0
42
0.000000001
43
0.0000000001
44
0.0000000001
40
0
40
0
40
0
40
1
40
1
40
1
10
-413.2166150159432
20
-34.683132592655198
30
5.5384754862402696e-17
10
-412.93216734596029
20
-34.924607697940843
30
2.5812583386219108e-17
10
-412.93216734596029
20
-35.284769956089036
30
-1.8294572275267247e-17
0
SPLINE
5
213
100
AcDbEntity
8
0
100
AcDbSpline
70
0
71
2
72
6
73
3
74
0
42
0.000000001
43
0.0000000001
44
0.0000000001
40
0
40
0
40
0
40
1
40
1
40
1
10
-412.93216734596029
20
-35.284769956089036
30
-1.8294572275267247e-17
10
-412.93216734596029
20
-35.732927743412034
30
-7.3178072251074537e-17
10
-413.25549631782309
20
-35.978494111515062
30
-1.032512789186355e-16
0
SPLINE
5
214
100
AcDbEntity
8
0
100
AcDbSpline
70
0
71
2
72
6
73
3
74
0
42
0.000000001
43
0.0000000001
44
0.0000000001
40
0
40
0
40
0
40
1
40
1
40
1
10
-413.25549631782309
20
-35.978494111515062
30
-1.032512789186355e-16
10
-413.57882528968588
20
-36.224060479618089
30
-1.3332448558619696e-16
10
-414.0310761279656
20
-36.224060479618096
30
-1.3332448558619696e-16
0
SPLINE
5
215
100
AcDbEntity
8
0
100
AcDbSpline
70
0
71
2
72
6
73
3
74
0
42
0.000000001
43
0.0000000001
44
0.0000000001
40
0
40
0
40
0
40
1
40
1
40
1
10
-414.0310761279656
20
-36.224060479618096
30
-1.3332448558619696e-16
10
-414.34212654300467
20
-36.224060479618096
30
-1.3332448558619696e-16
10
-414.60508673854605
20
-36.11150783679583
30
-1.1954076220941059e-16
0
SPLINE
5
216
100
AcDbEntity
8
0
100
AcDbSpline
70
0
71
2
72
6
73
3
74
0
42
0.000000001
43
0.0000000001
44
0.0000000001
40
0
40
0
40
0
40
1
40
1
40
1
10
-414.60508673854605
20
-36.11150783679583
30
-1.1954076220941059e-16
10
-414.86804753013388
20
-35.998957578159356
30
-1.0575733081117438e-16
10
-415.01129418082968
20
-35.78511041782
30
-7.956860676953993e-17
0
SPLINE
5
217
100
AcDbEntity
8
0
100
AcDbSpline
70
0
71
2
72
6
73
3
74
0
42
0.000000001
43
0.0000000001
44
0.0000000001
40
0
40
0
40
0
40
1
40
1
40
1
10
-415.01129418082968
20
-35.78511041782
30
-7.956860676953993e-17
10
-415.15454142757193
20
-35.571263257480645
30
-5.3379882727905478e-17
10
-415.15454142757193
20
-35.282721940494561
30
-1.8043762701028882e-17
0
SPLINE
5
218
100
AcDbEntity
8
0
100
AcDbSpline
70
0
71
2
72
6
73
3
74
0
42
0.000000001
43
0.0000000001
44
0.0000000001
40
0
40
0
40
0
40
1
40
1
40
1
10
-415.15454142757193
20
-35.282721940494561
30
-1.8043762701028882e-17
10
-415.15454142757193
20
-34.898004952884698
30
2.9070480044374224e-17
10
-414.84349041648642
20
-34.648342553592705
30
5.9645305860412907e-17
0
LINE
5
219
100
AcDbEntity
8
0
100
AcDbLine
10
-414.84349041648642
20
-34.648342553592705
30
5.9645305860412919e-17
11
-415.10542779632345
21
-34.648342553592705
31
5.9645305860412907e-17
0
LINE
5
220
100
AcDbEntity
8
0
100
AcDbLine
10
-415.10542779632345
20
-34.648342553592705
30
5.9645305860412907e-17
11
-415.10542779632345
21
-34.308643762088799
31
1.0124640962936118e-16
0
LINE
5
221
100
AcDbEntity
8
0
100
AcDbLine
10
-415.10542779632345
20
-34.308643762088799
30
1.0124640962936118e-16
11
-413.22684674926535
21
-34.308643762088792
31
1.0124640962936137e-16
0
SPLINE
5
222
100
AcDbEntity
8
0
100
AcDbSpline
70
0
71
2
72
6
73
3
74
0
42
0.000000001
43
0.0000000001
44
0.0000000001
40
0
40
0
40
0
40
1
40
1
40
1
10
-413.22684674926535
20
-34.308643762088792
30
1.0124640962936137e-16
10
-412.71934300132529
20
-34.308643762088792
30
1.0124640962936137e-16
10
-412.50754266448752
20
-34.411986295200364
30
8.8590599390274434e-17
0
SPLINE
5
223
100
AcDbEntity
8
0
100
AcDbSpline
70
0
71
2
72
6
73
3
74
0
42
0.000000001
43
0.0000000001
44
0.0000000001
40
0
40
0
40
0
40
1
40
1
40
1
10
-412.50754266448752
20
-34.411986295200364
30
8.8590599390274434e-17
10
-412.2957417316033
20
-34.515328828311937
30
7.5934789151187992e-17
10
-412.17295854755179
20
-34.739408914066331
30
4.8492893174009756e-17
0
SPLINE
5
224
100
AcDbEntity
8
0
100
AcDbSpline
70
0
71
2
72
6
73
3
74
0
42
0.000000001
43
0.0000000001
44
0.0000000001
40
0
40
0
40
0
40
1
40
1
40
1
10
-412.17295854755179
20
-34.739408914066331
30
4.8492893174009756e-17
10
-412.05017536350027
20
-34.963488999820726
30
2.1050997196831519e-17
10
-412.05017536350027
20
-35.290909234500901
30
-1.9046417040883977e-17
0
SPLINE
5
225
100
AcDbEntity
8
0
100
AcDbSpline
70
0
71
2
72
6
73
3
74
0
42
0.000000001
43
0.0000000001
44
0.0000000001
40
0
40
0
40
0
40
1
40
1
40
1
10
-412.05017536350027
20
-35.290909234500901
30
-1.9046417040883977e-17
10
-412.05017536350027
20
-35.67972225329973
30
-6.6662278934764306e-17
10
-412.22514122195975
20
-35.919149342990892
30
-9.5983640836709036e-17
0
SPLINE
5
226
100
AcDbEntity
8
0
100
AcDbSpline
70
0
71
2
72
6
73
3
74
0
42
0.000000001
43
0.0000000001
44
0.0000000001
40
0
40
0
40
0
40
1
40
1
40
1
10
-412.22514122195975
20
-35.919149342990892
30
-9.5983640836709036e-17
10
-412.40010708041922
20
-36.158576432682054
30
-1.2530500273865377e-16
10
-412.75208562083975
20
-36.150389138675706
30
-1.2430234839879867e-16
0
SPLINE
5
227
100
AcDbEntity
8
0
100
AcDbSpline
70
0
71
2
72
6
73
3
74
0
42
0.000000001
43
0.0000000001
44
0.0000000001
40
0
40
0
40
0
40
1
40
1
40
1
10
-414.05767887302176
20
-35.845480386234307
30
-8.6961795627860912e-17
10
-413.62998455234305
20
-35.845480386234307
30
-8.6961795627860912e-17
10
-413.43353181548849
20
-35.675630990482347
30
-6.6161243743386434e-17
0
SPLINE
5
228
100
AcDbEntity
8
0
100
AcDbSpline
70
0
71
2
72
6
73
3
74
0
42
0.000000001
43
0.0000000001
44
0.0000000001
40
0
40
0
40
0
40
1
40
1
40
1
10
-413.43353181548849
20
-35.675630990482347
30
-6.6161243743386434e-17
10
-413.23707848258749
20
-35.505779210544603
30
-4.5360399880362774e-17
10
-413.23707848258749
20
-35.249982301212327
30
-1.4034313255807205e-17
0
SPLINE
5
229
100
AcDbEntity
8
0
100
AcDbSpline
70
0
71
2
72
6
73
3
74
0
42
0.000000001
43
0.0000000001
44
0.0000000001
40
0
40
0
40
0
40
1
40
1
40
1
10
-413.23707848258749
20
-35.249982301212327
30
-1.4034313255807205e-17
10
-413.23707848258749
20
-34.996228639102952
30
1.7041547751609349e-17
10
-413.4325084037377
20
-34.824333611942308
30
3.8092617231772517e-17
0
SPLINE
5
230
100
AcDbEntity
8
0
100
AcDbSpline
70
0
71
2
72
6
73
3
74
0
42
0.000000001
43
0.0000000001
44
0.0000000001
40
0
40
0
40
0
40
1
40
1
40
1
10
-413.4325084037377
20
-34.824333611942308
30
3.8092617231772517e-17
10
-413.62793832488791
20
-34.65243858478167
30
5.9143686711935684e-17
10
-414.04540091224447
20
-34.65243858478167
30
5.9143686711935684e-17
0
SPLINE
5
231
100
AcDbEntity
8
0
100
AcDbSpline
70
0
71
2
72
6
73
3
74
0
42
0.000000001
43
0.0000000001
44
0.0000000001
40
0
40
0
40
0
40
1
40
1
40
1
10
-414.04540091224447
20
-34.65243858478167
30
5.9143686711935684e-17
10
-414.44444566436545
20
-34.65243858478167
30
5.9143686711935684e-17
10
-414.64703767963186
20
-34.829450074649834
30
3.7466031264000625e-17
0
SPLINE
5
232
100
AcDbEntity
8
0
100
AcDbSpline
70
0
71
2
72
6
73
3
74
0
42
0.000000001
43
0.0000000001
44
0.0000000001
40
0
40
0
40
0
40
1
40
1
40
1
10
-414.64703767963186
20
-34.829450074649834
30
3.7466031264000625e-17
10
-414.84962969489828
20
-35.006461564517998
30
1.5788375816065565e-17
10
-414.84962969489828
20
-35.256119195438409
30
-1.4785866042873766e-17
0
SPLINE
5
233
100
AcDbEntity
8
0
100
AcDbSpline
70
0
71
2
72
6
73
3
74
0
42
0.000000001
43
0.0000000001
44
0.0000000001
40
0
40
0
40
0
40
1
40
1
40
1
10
-414.84962969489828
20
-35.256119195438409
30
-1.4785866042873766e-17
10
-414.84962969489828
20
-35.501685563541436
30
-4.4859072710435226e-17
10
-414.6501073188378
20
-35.673582974887871
30
-6.5910434169148069e-17
0
SPLINE
5
234
100
AcDbEntity
8
0
100
AcDbSpline
70
0
71
2
72
6
73
3
74
0
42
0.000000001
43
0.0000000001
44
0.0000000001
40
0
40
0
40
0
40
1
40
1
40
1
10
-414.6501073188378
20
-35.673582974887871
30
-6.5910434169148069e-17
10
-414.45058494277731
20
-35.845480386234307
30
-8.6961795627860912e-17
10
-414.05767887302176
20
-35.845480386234307
30
-8.6961795627860912e-17
0
LINE
5
235
100
AcDbEntity
8
0
100
AcDbLine
10
-413.89601438709036
20
-32.675629083133721
30
3.0123302958365934e-16
11
-413.92875700660483
21
-32.301140252567315
31
3.4709468435061782e-16
0
SPLINE
5
236
100
AcDbEntity
8
0
100
AcDbSpline
70
0
71
2
72
6
73
3
74
0
42
0.000000001
43
0.0000000001
44
0.0000000001
40
0
40
0
40
0
40
1
40
1
40
1
10
-413.92875700660483
20
-32.301140252567315
30
3.4709468435061752e-16
10
-413.70365410514609
20
-32.274537507511162
30
3.5035258100877264e-16
10
-413.55938404269949
20
-32.177334252811448
30
3.6225654648224284e-16
0
SPLINE
5
237
100
AcDbEntity
8
0
100
AcDbSpline
70
0
71
2
72
6
73
3
74
0
42
0.000000001
43
0.0000000001
44
0.0000000001
40
0
40
0
40
0
40
1
40
1
40
1
10
-413.55938404269949
20
-32.177334252811448
30
3.6225654648224284e-16
10
-413.4151139802529
20
-32.080130998111741
30
3.7416051195571305e-16
10
-413.32609623142019
20
-31.875493947483079
30
3.9922132285964757e-16
0
SPLINE
5
238
100
AcDbEntity
8
0
100
AcDbSpline
70
0
71
2
72
6
73
3
74
0
42
0.000000001
43
0.0000000001
44
0.0000000001
40
0
40
0
40
0
40
1
40
1
40
1
10
-413.32609623142019
20
-31.875493947483079
30
3.9922132285964757e-16
10
-413.23707848258749
20
-31.670856896854417
30
4.2428213376358209e-16
10
-413.23707848258749
20
-31.415057603336351
30
4.5560851236668733e-16
0
SPLINE
5
239
100
AcDbEntity
8
0
100
AcDbSpline
70
0
71
2
72
6
73
3
74
0
42
0.000000001
43
0.0000000001
44
0.0000000001
40
0
40
0
40
0
40
1
40
1
40
1
10
-413.23707848258749
20
-31.415057603336351
30
4.5560851236668733e-16
10
-413.23707848258749
20
-31.187909070468919
30
4.834261847373991e-16
10
-413.30460935302511
20
-31.013966027713792
30
5.0472806379180112e-16
0
SPLINE
5
240
100
AcDbEntity
8
0
100
AcDbSpline
70
0
71
2
72
6
73
3
74
0
42
0.000000001
43
0.0000000001
44
0.0000000001
40
0
40
0
40
0
40
1
40
1
40
1
10
-413.30460935302511
20
-31.013966027713792
30
5.0472806379180112e-16
10
-413.37214022346274
20
-30.840022984958665
30
5.2602994284620265e-16
10
-413.48980694480673
20
-30.755098287082689
30
5.3643021878843989e-16
0
SPLINE
5
241
100
AcDbEntity
8
0
100
AcDbSpline
70
0
71
2
72
6
73
3
74
0
42
0.000000001
43
0.0000000001
44
0.0000000001
40
0
40
0
40
0
40
1
40
1
40
1
10
-413.48980694480673
20
-30.755098287082689
30
5.3643021878843989e-16
10
-413.60747426219717
20
-30.670173589206719
30
5.4683049473067713e-16
10
-413.74662845798269
20
-30.670173589206719
30
5.4683049473067713e-16
0
SPLINE
5
242
100
AcDbEntity
8
0
100
AcDbSpline
70
0
71
2
72
6
73
3
74
0
42
0.000000001
43
0.0000000001
44
0.0000000001
40
0
40
0
40
0
40
1
40
1
40
1
10
-413.74662845798269
20
-30.670173589206719
30
5.4683049473067713e-16
10
-413.88782888122336
20
-30.670173589206719
30
5.4683049473067713e-16
10
-413.99321764179007
20
-30.752029839969659
30
5.3680599518197342e-16
0
SPLINE
5
243
100
AcDbEntity
8
0
100
AcDbSpline
70
0
71
2
72
6
73
3
74
0
42
0.000000001
43
0.0000000001
44
0.0000000001
40
0
40
0
40
0
40
1
40
1
40
1
10
-413.99321764179007
20
-30.752029839969659
30
5.3680599518197342e-16
10
-414.09860640235678
20
-30.833883706546807
30
5.2678178761181938e-16
10
-414.17023032375113
20
-31.022150937534356
30
5.037257014304957e-16
0
SPLINE
5
244
100
AcDbEntity
8
0
100
AcDbSpline
70
0
71
2
72
6
73
3
74
0
42
0.000000001
43
0.0000000001
44
0.0000000001
40
0
40
0
40
0
40
1
40
1
40
1
10
-414.17023032375113
20
-31.022150937534356
30
5.037257014304957e-16
10
-414.21729713149801
20
-31.142888490177178
30
4.8893961569240391e-16
10
-414.31654661365286
20
-31.556258622623467
30
4.3831637473605715e-16
0
SPLINE
5
245
100
AcDbEntity
8
0
100
AcDbSpline
70
0
71
2
72
6
73
3
74
0
42
0.000000001
43
0.0000000001
44
0.0000000001
40
0
40
0
40
0
40
1
40
1
40
1
10
-414.31654661365286
20
-31.556258622623467
30
4.3831637473605715e-16
10
-414.41579609580771
20
-31.969628755069756
30
3.8769313377971089e-16
10
-414.50379102893606
20
-32.135384503818536
30
3.6739390906516445e-16
0
SPLINE
5
246
100
AcDbEntity
8
0
100
AcDbSpline
70
0
71
2
72
6
73
3
74
0
42
0.000000001
43
0.0000000001
44
0.0000000001
40
0
40
0
40
0
40
1
40
1
40
1
10
-414.50379102893606
20
-32.135384503818536
30
3.6739390906516445e-16
10
-414.61634188361899
20
-32.350254479862237
30
3.4107992622568566e-16
10
-414.78312223621145
20
-32.455645028568291
30
3.2817330641236036e-16
0
SPLINE
5
247
100
AcDbEntity
8
0
100
AcDbSpline
70
0
71
2
72
6
73
3
74
0
42
0.000000001
43
0.0000000001
44
0.0000000001
40
0
40
0
40
0
40
1
40
1
40
1
10
-414.78312223621145
20
-32.455645028568291
30
3.2817330641236036e-16
10
-414.94990258880392
20
-32.561033193088555
30
3.1526697857758473e-16
10
-415.15658765502707
20
-32.561033193088555
30
3.1526697857758473e-16
0
SPLINE
5
248
100
AcDbEntity
8
0
100
AcDbSpline
70
0
71
2
72
6
73
3
74
0
42
0.000000001
43
0.0000000001
44
0.0000000001
40
0
40
0
40
0
40
1
40
1
40
1
10
-415.15658765502707
20
-32.561033193088555
30
3.1526697857758473e-16
10
-415.3837361878945
20
-32.561033193088555
30
3.1526697857758473e-16
10
-415.58121233649985
20
-32.432110730625176
30
3.3105542667698194e-16
0
SPLINE
5
249
100
AcDbEntity
8
0
100
AcDbSpline
70
0
71
2
72
6
73
3
74
0
42
0.000000001
43
0.0000000001
44
0.0000000001
40
0
40
0
40
0
40
1
40
1
40
1
10
-415.58121233649985
20
-32.432110730625176
30
3.3105542667698194e-16
10
-415.77868848510519
20
-32.303188268161797
30
3.4684387477637916e-16
10
-415.88100820251242
20
-32.055576268650078
30
3.7716759903962931e-16
0
SPLINE
5
250
100
AcDbEntity
8
0
100
AcDbSpline
70
0
71
2
72
6
73
3
74
0
42
0.000000001
43
0.0000000001
44
0.0000000001
40
0
40
0
40
0
40
1
40
1
40
1
10
-415.88100820251242
20
-32.055576268650078
30
3.7716759903962931e-16
10
-415.98332672782675
20
-31.807961884952569
30
4.0749161528142913e-16
10
-415.98332672782675
20
-31.505098763919854
30
4.445816504566782e-16
0
SPLINE
5
251
100
AcDbEntity
8
0
100
AcDbSpline
70
0
71
2
72
6
73
3
74
0
42
0.000000001
43
0.0000000001
44
0.0000000001
40
0
40
0
40
0
40
1
40
1
40
1
10
-415.98332672782675
20
-31.505098763919854
30
4.445816504566782e-16
10
-415.98332672782675
20
-31.171536866642022
30
4.854312014385601e-16
10
-415.8758917398049
20
-30.916762773014092
30
5.1663202926527133e-16
0
SPLINE
5
252
100
AcDbEntity
8
0
100
AcDbSpline
70
0
71
2
72
6
73
3
74
0
42
0.000000001
43
0.0000000001
44
0.0000000001
40
0
40
0
40
0
40
1
40
1
40
1
10
-415.8758917398049
20
-30.916762773014092
30
5.1663202926527133e-16
10
-415.76845675178305
20
-30.661988679386162
30
5.4783285709198255e-16
10
-415.55972545810477
20
-30.524878922916436
30
5.6462395953123486e-16
0
SPLINE
5
253
100
AcDbEntity
8
0
100
AcDbSpline
70
0
71
2
72
6
73
3
74
0
42
0.000000001
43
0.0000000001
44
0.0000000001
40
0
40
0
40
0
40
1
40
1
40
1
10
-415.55972545810477
20
-30.524878922916436
30
5.6462395953123486e-16
10
-415.35099416442648
20
-30.387773934818291
30
5.8141447801338781e-16
10
-415.08701055713431
20
-30.377541009403252
30
5.826676499489316e-16
0
LINE
5
254
100
AcDbEntity
8
0
100
AcDbLine
10
-415.08701055713425
20
-30.377541009403252
30
5.826676499489316e-16
11
-415.05836098857657
21
-30.758166734195733
31
5.3605444239490636e-16
0
SPLINE
5
255
100
AcDbEntity
8
0
100
AcDbSpline
70
0
71
2
72
6
73
3
74
0
42
0.000000001
43
0.0000000001
44
0.0000000001
40
0
40
0
40
0
40
1
40
1
40
1
10
-415.05836098857657
20
-30.758166734195733
30
5.3605444239490636e-16
10
-415.34280865855948
20
-30.788863126255059
30
5.322952185668237e-16
10
-415.48810153671042
20
-30.965877000309014
30
5.1061727114033897e-16
0
SPLINE
5
256
100
AcDbEntity
8
0
100
AcDbSpline
70
0
71
2
72
6
73
3
74
0
42
0.000000001
43
0.0000000001
44
0.0000000001
40
0
40
0
40
0
40
1
40
1
40
1
10
-415.48810153671042
20
-30.965877000309014
30
5.1061727114033897e-16
10
-415.6333950109078
20
-31.142888490177178
30
4.8893961569240391e-16
10
-415.6333950109078
20
-31.48872656009295
30
4.4658666715783921e-16
0
SPLINE
5
257
100
AcDbEntity
8
0
100
AcDbSpline
70
0
71
2
72
6
73
3
74
0
42
0.000000001
43
0.0000000001
44
0.0000000001
40
0
40
0
40
0
40
1
40
1
40
1
10
-415.6333950109078
20
-31.48872656009295
30
4.4658666715783921e-16
10
-415.6333950109078
20
-31.848891202426934
30
4.0247921951780268e-16
10
-415.50140350528494
20
-32.013626519657159
30
3.8230496162255092e-16
0
SPLINE
5
258
100
AcDbEntity
8
0
100
AcDbSpline
70
0
71
2
72
6
73
3
74
0
42
0.000000001
43
0.0000000001
44
0.0000000001
40
0
40
0
40
0
40
1
40
1
40
1
10
-415.50140350528494
20
-32.013626519657159
30
3.8230496162255092e-16
10
-415.36941199966208
20
-32.178359452701592
30
3.6213099570584882e-16
10
-415.18319040008322
20
-32.178359452701592
30
3.6213099570584882e-16
0
SPLINE
5
259
100
AcDbEntity
8
0
100
AcDbSpline
70
0
71
2
72
6
73
3
74
0
42
0.000000001
43
0.0000000001
44
0.0000000001
40
0
40
0
40
0
40
1
40
1
40
1
10
-415.18319040008322
20
-32.178359452701592
30
3.6213099570584882e-16
10
-415.02152591415182
20
-32.178359452701592
30
3.6213099570584882e-16
10
-414.91716056533591
20
-32.061715547061944
30
3.7641575427401258e-16
0
SPLINE
5
260
100
AcDbEntity
8
0
100
AcDbSpline
70
0
71
2
72
6
73
3
74
0
42
0.000000001
43
0.0000000001
44
0.0000000001
40
0
40
0
40
0
40
1
40
1
40
1
10
-414.91716056533591
20
-32.061715547061944
30
3.7641575427401258e-16
10
-414.81279521651999
20
-31.947117272830987
30
3.9044999524648813e-16
10
-414.70331340499655
20
-31.463146630741143
30
4.4971930501814949e-16
0
SPLINE
5
261
100
AcDbEntity
8
0
100
AcDbSpline
70
0
71
2
72
6
73
3
74
0
42
0.000000001
43
0.0000000001
44
0.0000000001
40
0
40
0
40
0
40
1
40
1
40
1
10
-414.70331340499655
20
-31.463146630741143
30
4.4971930501814949e-16
10
-414.59383159347311
20
-30.979175988651299
30
5.0898861478981133e-16
10
-414.51197653480307
20
-30.799093667484307
30
5.3104233860982959e-16
0
SPLINE
5
262
100
AcDbEntity
8
0
100
AcDbSpline
70
0
71
2
72
6
73
3
74
0
42
0.000000001
43
0.0000000001
44
0.0000000001
40
0
40
0
40
0
40
1
40
1
40
1
10
-414.51197653480307
20
-30.799093667484307
30
5.3104233860982959e-16
10
-414.39123957820669
20
-30.537157479740166
30
5.6312027000000189e-16
10
-414.20604198642508
20
-30.412328664279961
30
5.7840739092947156e-16
0
SPLINE
5
263
100
AcDbEntity
8
0
100
AcDbSpline
70
0
71
2
72
6
73
3
74
0
42
0.000000001
43
0.0000000001
44
0.0000000001
40
0
40
0
40
0
40
1
40
1
40
1
10
-414.20604198642508
20
-30.412328664279961
30
5.7840739092947156e-16
10
-414.02084379859701
20
-30.287499848819756
30
5.9369451185894122e-16
10
-413.77937048145071
20
-30.287499848819756
30
5.9369451185894122e-16
0
SPLINE
5
264
100
AcDbEntity
8
0
100
AcDbSpline
70
0
71
2
72
6
73
3
74
0
42
0.000000001
43
0.0000000001
44
0.0000000001
40
0
40
0
40
0
40
1
40
1
40
1
10
-413.77937048145071
20
-30.287499848819756
30
5.9369451185894122e-16
10
-413.53994339175955
20
-30.287499848819749
30
5.9369451185894122e-16
10
-413.32814305492178
20
-30.424607221103685
30
5.769037013982381e-16
0
SPLINE
5
265
100
AcDbEntity
8
0
100
AcDbSpline
70
0
71
2
72
6
73
3
74
0
42
0.000000001
43
0.0000000001
44
0.0000000001
40
0
40
0
40
0
40
1
40
1
40
1
10
-413.32814305492178
20
-30.424607221103685
30
5.769037013982381e-16
10
-413.11634212203757
20
-30.56171459338762
30
5.6011289093753547e-16
10
-412.99867480464712
20
-30.818534318424241
30
5.2866154551513555e-16
0
SPLINE
5
266
100
AcDbEntity
8
0
100
AcDbSpline
70
0
71
2
72
6
73
3
74
0
42
0.000000001
43
0.0000000001
44
0.0000000001
40
0
40
0
40
0
40
1
40
1
40
1
10
-412.99867480464712
20
-30.818534318424241
30
5.2866154551513555e-16
10
-412.88100748725668
20
-31.075358811832444
30
4.9720961613563579e-16
10
-412.88100748725668
20
-31.396639768100755
30
4.5786404666353703e-16
0
SPLINE
5
267
100
AcDbEntity
8
0
100
AcDbSpline
70
0
71
2
72
6
73
3
74
0
42
0.000000001
43
0.0000000001
44
0.0000000001
40
0
40
0
40
0
40
1
40
1
40
1
10
-412.88100748725668
20
-31.396639768100755
30
4.5786404666353703e-16
10
-412.88100748725668
20
-31.803870622135179
30
4.07992650472807e-16
10
-412.99969821639792
20
-32.079110566593187
30
3.7428547877500772e-16
0
SPLINE
5
268
100
AcDbEntity
8
0
100
AcDbSpline
70
0
71
2
72
6
73
3
74
0
42
0.000000001
43
0.0000000001
44
0.0000000001
40
0
40
0
40
0
40
1
40
1
40
1
10
-412.99969821639792
20
-32.079110566593187
30
3.7428547877500772e-16
10
-413.1183883494927
20
-32.354348126865403
30
3.4057859905575811e-16
10
-413.35679202743307
20
-32.51089615008928
30
3.2140699550036144e-16
0
SPLINE
5
269
100
AcDbEntity
8
0
100
AcDbSpline
70
0
71
2
72
6
73
3
74
0
42
0.000000001
43
0.0000000001
44
0.0000000001
40
0
40
0
40
0
40
1
40
1
40
1
10
-413.35679202743307
20
-32.51089615008928
30
3.2140699550036144e-16
10
-413.59519630141989
20
-32.667444173313157
30
3.0223539194496476e-16
10
-413.89601438709036
20
-32.675629083133721
30
3.0123302958365934e-16
0
LWPOLYLINE
5
270
100
AcDbEntity
8
0
100
AcDbPolyline
90
4
70
1
43
0.0
10
-415.93216746516958
20
-29.790227834201836
10
-415.5085661954476
20
-29.790227834201836
10
-415.5085661954476
20
-29.421878282047295
10
-415.93216746516958
20
-29.421878282047295
0
LWPOLYLINE
5
271
100
AcDbEntity
8
0
100
AcDbPolyline
90
4
70
1
43
0.0
10
-415.10542779632345
20
-29.790227834201836
10
-412.93216734596029
20
-29.790227834201829
10
-412.93216734596029
20
-29.421878282047288
10
-415.10542779632345
20
-29.421878282047295
0
LINE
5
272
100
AcDbEntity
8
0
100
AcDbLine
10
-412.93216734596029
20
-27.451210442996995
30
9.4103978608857958e-16
11
-413.20638268657461
21
-27.451210442996995
31
9.4103978608857958e-16
0
SPLINE
5
273
100
AcDbEntity
8
0
100
AcDbSpline
70
0
71
2
72
6
73
3
74
0
42
0.000000001
43
0.0000000001
44
0.0000000001
40
0
40
0
40
0
40
1
40
1
40
1
10
-413.20638268657461
20
-27.451210442996995
30
9.4103978608857958e-16
10
-412.88305431075827
20
-27.65789550922014
30
9.1572816561040571e-16
10
-412.88305431075827
20
-28.058987084842698
30
8.6660861418529241e-16
0
SPLINE
5
274
100
AcDbEntity
8
0
100
AcDbSpline
70
0
71
2
72
6
73
3
74
0
42
0.000000001
43
0.0000000001
44
0.0000000001
40
0
40
0
40
0
40
1
40
1
40
1
10
-412.88305431075827
20
-28.058987084842698
30
8.6660861418529241e-16
10
-412.88305431075827
20
-28.318877641178148
30
8.3478120039080929e-16
10
-413.02630096145407
20
-28.536816064334886
30
8.0809144115779697e-16
0
SPLINE
5
275
100
AcDbEntity
8
0
100
AcDbSpline
70
0
71
2
72
6
73
3
74
0
42
0.000000001
43
0.0000000001
44
0.0000000001
40
0
40
0
40
0
40
1
40
1
40
1
10
-413.02630096145407
20
-28.536816064334886
30
8.0809144115779697e-16
10
-413.16954820819632
20
-28.754759255863206
30
7.814010979676853e-16
10
-413.42636912532583
20
-28.874473992801683
30
7.6674027102743834e-16
0
SPLINE
5
276
100
AcDbEntity
8
0
100
AcDbSpline
70
0
71
2
72
6
73
3
74
0
42
0.000000001
43
0.0000000001
44
0.0000000001
40
0
40
0
40
0
40
1
40
1
40
1
10
-413.42636912532583
20
-28.874473992801683
30
7.6674027102743834e-16
10
-413.6831906385018
20
-28.994183961368584
30
7.5208002804429073e-16
10
-414.01675134368674
20
-28.994183961368584
30
7.5208002804429073e-16
0
SPLINE
5
277
100
AcDbEntity
8
0
100
AcDbSpline
70
0
71
2
72
6
73
3
74
0
42
0.000000001
43
0.0000000001
44
0.0000000001
40
0
40
0
40
0
40
1
40
1
40
1
10
-414.01675134368674
20
-28.994183961368584
30
7.5208002804429073e-16
10
-414.34212654300467
20
-28.994183961368584
30
7.5208002804429073e-16
10
-414.60713296600119
20
-28.885727349735284
30
7.6536213227259989e-16
0
SPLINE
5
278
100
AcDbEntity
8
0
100
AcDbSpline
70
0
71
2
72
6
73
3
74
0
42
0.000000001
43
0.0000000001
44
0.0000000001
40
0
40
0
40
0
40
1
40
1
40
1
10
-414.60713296600119
20
-28.885727349735284
30
7.6536213227259989e-16
10
-414.87213998504416
20
-28.777270738101983
30
7.7864423650090805e-16
10
-415.01334040828482
20
-28.560352746463799
30
8.0520902891462571e-16
0
SPLINE
5
279
100
AcDbEntity
8
0
100
AcDbSpline
70
0
71
2
72
6
73
3
74
0
42
0.000000001
43
0.0000000001
44
0.0000000001
40
0
40
0
40
0
40
1
40
1
40
1
10
-415.01334040828482
20
-28.560352746463799
30
8.0520902891462571e-16
10
-415.15454083152548
20
-28.343434754825616
30
8.3177382132834336e-16
10
-415.15454083152548
20
-28.075356904483819
30
8.6460388946268157e-16
0
SPLINE
5
280
100
AcDbEntity
8
0
100
AcDbSpline
70
0
71
2
72
6
73
3
74
0
42
0.000000001
43
0.0000000001
44
0.0000000001
40
0
40
0
40
0
40
1
40
1
40
1
10
-415.15454083152548
20
-28.075356904483819
30
8.6460388946268157e-16
10
-415.15454083152548
20
-27.878904763675713
30
8.8866233800531067e-16
10
-415.07166236110464
20
-27.725425187564873
30
9.0745816516717431e-16
0
SPLINE
5
281
100
AcDbEntity
8
0
100
AcDbSpline
70
0
71
2
72
6
73
3
74
0
42
0.000000001
43
0.0000000001
44
0.0000000001
40
0
40
0
40
0
40
1
40
1
40
1
10
-415.07166236110464
20
-27.725425187564873
30
9.0745816516717431e-16
10
-414.98878389068381
20
-27.571945611454034
30
9.2625399232903696e-16
10
-414.85576897331015
20
-27.475767556644463
30
9.3803240702611364e-16
0
LINE
5
282
100
AcDbEntity
8
0
100
AcDbLine
10
-414.85576897331015
20
-27.475767556644463
30
9.3803240702611364e-16
11
-415.93216686912314
21
-27.475767556644463
31
9.3803240702611364e-16
0
LINE
5
283
100
AcDbEntity
8
0
100
AcDbLine
10
-415.93216686912314
20
-27.475767556644463
30
9.3803240702611364e-16
11
-415.93216686912314
21
-27.109466020084405
31
9.8289140745321702e-16
0
LINE
5
284
100
AcDbEntity
8
0
100
AcDbLine
10
-415.93216686912314
20
-27.109466020084405
30
9.8289140745321702e-16
11
-412.93216734596029
21
-27.109466020084398
31
9.8289140745321624e-16
0
LINE
5
285
100
AcDbEntity
8
0
100
AcDbLine
10
-412.93216734596029
20
-27.109466020084398
30
9.8289140745321624e-16
11
-412.93216734596029
21
-27.451210442996995
31
9.4103978608857958e-16
0
SPLINE
5
286
100
AcDbEntity
8
0
100
AcDbSpline
70
0
71
2
72
6
73
3
74
0
42
0.000000001
43
0.0000000001
44
0.0000000001
40
0
40
0
40
0
40
1
40
1
40
1
10
-414.01675134368674
20
-28.615603867984795
30
7.9844271800262679e-16
10
-413.59928875633017
20
-28.615603867984788
30
7.9844271800262679e-16
10
-413.39260369010702
20
-28.439612809635179
30
8.1999540663126767e-16
0
SPLINE
5
287
100
AcDbEntity
8
0
100
AcDbSpline
70
0
71
2
72
6
73
3
74
0
42
0.000000001
43
0.0000000001
44
0.0000000001
40
0
40
0
40
0
40
1
40
1
40
1
10
-413.39260369010702
20
-28.439612809635179
30
8.1999540663126767e-16
10
-413.18591921993033
20
-28.263626519657151
30
8.4154751130280821e-16
10
-413.18591921993033
20
-28.024197045780198
30
8.7086916518330311e-16
0
SPLINE
5
288
100
AcDbEntity
8
0
100
AcDbSpline
70
0
71
2
72
6
73
3
74
0
42
0.000000001
43
0.0000000001
44
0.0000000001
40
0
40
0
40
0
40
1
40
1
40
1
10
-413.18591921993033
20
-28.024197045780198
30
8.7086916518330311e-16
10
-413.18591921993033
20
-27.782726708866136
30
9.0044075270238636e-16
10
-413.38339536853567
20
-27.613897744632737
30
9.2111633776756617e-16
0
SPLINE
5
289
100
AcDbEntity
8
0
100
AcDbSpline
70
0
71
2
72
6
73
3
74
0
42
0.000000001
43
0.0000000001
44
0.0000000001
40
0
40
0
40
0
40
1
40
1
40
1
10
-413.38339536853567
20
-27.613897744632737
30
9.2111633776756617e-16
10
-413.58087092109457
20
-27.445073548770921
30
9.4179133887564564e-16
10
-413.98605554767386
20
-27.445073548770928
30
9.4179133887564564e-16
0
SPLINE
5
290
100
AcDbEntity
8
0
100
AcDbSpline
70
0
71
2
72
6
73
3
74
0
42
0.000000001
43
0.0000000001
44
0.0000000001
40
0
40
0
40
0
40
1
40
1
40
1
10
-413.98605554767386
20
-27.445073548770928
30
9.4179133887564564e-16
10
-414.43216710754172
20
-27.445073548770928
30
9.4179133887564564e-16
10
-414.64089840122
20
-27.616968575931573
30
9.2074026939548248e-16
0
SPLINE
5
291
100
AcDbEntity
8
0
100
AcDbSpline
70
0
71
2
72
6
73
3
74
0
42
0.000000001
43
0.0000000001
44
0.0000000001
40
0
40
0
40
0
40
1
40
1
40
1
10
-414.64089840122
20
-27.616968575931573
30
9.2074026939548248e-16
10
-414.84962969489828
20
-27.788863603092217
30
8.996891999153203e-16
10
-414.84962969489828
20
-28.040571633792901
30
8.6886385650359194e-16
0
SPLINE
5
292
100
AcDbEntity
8
0
100
AcDbSpline
70
0
71
2
72
6
73
3
74
0
42
0.000000001
43
0.0000000001
44
0.0000000001
40
0
40
0
40
0
40
1
40
1
40
1
10
-414.84962969489828
20
-28.040571633792901
30
8.6886385650359194e-16
10
-414.84962969489828
20
-28.286138001895928
30
8.3879064983603097e-16
10
-414.649083907087
20
-28.450870934940362
30
8.1861668391932888e-16
0
SPLINE
5
293
100
AcDbEntity
8
0
100
AcDbSpline
70
0
71
2
72
6
73
3
74
0
42
0.000000001
43
0.0000000001
44
0.0000000001
40
0
40
0
40
0
40
1
40
1
40
1
10
-414.649083907087
20
-28.450870934940362
30
8.1861668391932888e-16
10
-414.44853811927572
20
-28.615603867984795
30
7.9844271800262679e-16
10
-414.01675134368674
20
-28.615603867984795
30
7.9844271800262679e-16
0
LINE
5
294
100
AcDbEntity
8
0
100
AcDbLine
10
-413.63203077979819
20
-25.042615357852959
30
1.236007612234949e-15
11
-413.5849639720513
21
-24.661989633060479
31
1.2826208197889744e-15
0
SPLINE
5
295
100
AcDbEntity
8
0
100
AcDbSpline
70
0
71
2
72
6
73
3
74
0
42
0.000000001
43
0.0000000001
44
0.0000000001
40
0
40
0
40
0
40
1
40
1
40
1
10
-413.5849639720513
20
-24.661989633060479
30
1.2826208197889748e-15
10
-413.25140326686636
20
-24.752030793643975
30
1.2715939578789651e-15
10
-413.06722849078909
20
-24.995546761966729
30
1.2417718527641922e-15
0
SPLINE
5
296
100
AcDbEntity
8
0
100
AcDbSpline
70
0
71
2
72
6
73
3
74
0
42
0.000000001
43
0.0000000001
44
0.0000000001
40
0
40
0
40
0
40
1
40
1
40
1
10
-413.06722849078909
20
-24.995546761966729
30
1.2417718527641922e-15
10
-412.88305431075827
20
-25.239067498661065
30
1.2119491636923199e-15
10
-412.88305431075827
20
-25.617647592044854
30
1.1655864737339839e-15
0
SPLINE
5
297
100
AcDbEntity
8
0
100
AcDbSpline
70
0
71
2
72
6
73
3
74
0
42
0.000000001
43
0.0000000001
44
0.0000000001
40
0
40
0
40
0
40
1
40
1
40
1
10
-412.88305431075827
20
-25.617647592044854
30
1.1655864737339839e-15
10
-412.88305431075827
20
-26.094456140018487
30
1.1071942675257831e-15
10
-413.17671030231253
20
-26.373787347293877
30
1.0729860606366055e-15
0
SPLINE
5
298
100
AcDbEntity
8
0
100
AcDbSpline
70
0
71
2
72
6
73
3
74
0
42
0.000000001
43
0.0000000001
44
0.0000000001
40
0
40
0
40
0
40
1
40
1
40
1
10
-413.17671030231253
20
-26.373787347293877
30
1.0729860606366055e-15
10
-413.47036629386679
20
-26.653118554569268
30
1.0387778537474288e-15
10
-414.00038033195273
20
-26.653118554569268
30
1.0387778537474288e-15
0
SPLINE
5
299
100
AcDbEntity
8
0
100
AcDbSpline
70
0
71
2
72
6
73
3
74
0
42
0.000000001
43
0.0000000001
44
0.0000000001
40
0
40
0
40
0
40
1
40
1
40
1
10
-414.00038033195273
20
-26.653118554569268
30
1.0387778537474288e-15
10
-414.54881101318136
20
-26.653118554569268
30
1.0387778537474288e-15
10
-414.85167651839987
20
-26.370716515995049
30
1.0733621290086891e-15
0
SPLINE
5
300
100
AcDbEntity
8
0
100
AcDbSpline
70
0
71
2
72
6
73
3
74
0
42
0.000000001
43
0.0000000001
44
0.0000000001
40
0
40
0
40
0
40
1
40
1
40
1
10
-414.85167651839987
20
-26.370716515995049
30
1.0733621290086891e-15
10
-415.15454142757193
20
-26.088319245792412
30
1.1079458203128502e-15
10
-415.15454142757193
20
-25.638113442874932
30
1.1630801298628953e-15
0
SPLINE
5
301
100
AcDbEntity
8
0
100
AcDbSpline
70
0
71
2
72
6
73
3
74
0
42
0.000000001
43
0.0000000001
44
0.0000000001
40
0
40
0
40
0
40
1
40
1
40
1
10
-415.15454142757193
20
-25.638113442874932
30
1.1630801298628953e-15
10
-415.15454142757193
20
-25.202231828189873
30
1.2164602322860193e-15
10
-414.85781579681174
20
-24.925971452213311
30
1.2502923708031133e-15
0
SPLINE
5
302
100
AcDbEntity
8
0
100
AcDbSpline
70
0
71
2
72
6
73
3
74
0
42
0.000000001
43
0.0000000001
44
0.0000000001
40
0
40
0
40
0
40
1
40
1
40
1
10
-414.85781579681174
20
-24.925971452213311
30
1.2502923708031133e-15
10
-414.56108957000509
20
-24.649711076236748
30
1.2841245093202072e-15
10
-414.0228906220986
20
-24.649711076236748
30
1.2841245093202072e-15
0
SPLINE
5
303
100
AcDbEntity
8
0
100
AcDbSpline
70
0
71
2
72
6
73
3
74
0
42
0.000000001
43
0.0000000001
44
0.0000000001
40
0
40
0
40
0
40
1
40
1
40
1
10
-414.0228906220986
20
-24.649711076236748
30
1.2841245093202072e-15
10
-413.99014800258414
20
-24.649711076236748
30
1.2841245093202072e-15
10
-413.9246639556481
20
-24.65175670764544
30
1.2838739917245185e-15
0
LINE
5
304
100
AcDbEntity
8
0
100
AcDbLine
10
-413.9246639556481
20
-24.65175670764544
30
1.2838739917245185e-15
11
-413.9246639556481
21
-26.272492829776787
31
1.0853910613014537e-15
0
SPLINE
5
305
100
AcDbEntity
8
0
100
AcDbSpline
70
0
71
2
72
6
73
3
74
0
42
0.000000001
43
0.0000000001
44
0.0000000001
40
0
40
0
40
0
40
1
40
1
40
1
10
-413.9246639556481
20
-26.272492829776787
30
1.0853910613014535e-15
10
-413.56654673286215
20
-26.252026978946709
30
1.0878974051725421e-15
10
-413.37623267837301
20
-26.069899026371026
30
1.110201646588249e-15
0
SPLINE
5
306
100
AcDbEntity
8
0
100
AcDbSpline
70
0
71
2
72
6
73
3
74
0
42
0.000000001
43
0.0000000001
44
0.0000000001
40
0
40
0
40
0
40
1
40
1
40
1
10
-413.37623267837301
20
-26.069899026371026
30
1.110201646588249e-15
10
-413.18591921993033
20
-25.887771073795342
30
1.132505888003956e-15
10
-413.18591921993033
20
-25.615601960636162
30
1.1658369913296726e-15
0
SPLINE
5
307
100
AcDbEntity
8
0
100
AcDbSpline
70
0
71
2
72
6
73
3
74
0
42
0.000000001
43
0.0000000001
44
0.0000000001
40
0
40
0
40
0
40
1
40
1
40
1
10
-413.18591921993033
20
-25.615601960636162
30
1.1658369913296726e-15
10
-413.18591921993033
20
-25.413012925601983
30
1.1906469926593687e-15
10
-413.29233079620138
20
-25.2697615065346
30
1.2081902318427869e-15
0
SPLINE
5
308
100
AcDbEntity
8
0
100
AcDbSpline
70
0
71
2
72
6
73
3
74
0
42
0.000000001
43
0.0000000001
44
0.0000000001
40
0
40
0
40
0
40
1
40
1
40
1
10
-413.29233079620138
20
-25.2697615065346
30
1.2081902318427869e-15
10
-413.39874296851889
20
-25.126514855838799
30
1.2257328870691058e-15
10
-413.63203077979819
20
-25.042615357852959
30
1.236007612234949e-15
0
LINE
5
309
100
AcDbEntity
8
0
100
AcDbLine
10
-414.22752886482016
20
-26.252026978946709
30
1.0878974051725421e-15
11
-414.22752886482016
21
-25.038524095035577
31
1.2365086474263272e-15
0
SPLINE
5
310
100
AcDbEntity
8
0
100
AcDbSpline
70
0
71
2
72
6
73
3
74
0
42
0.000000001
43
0.0000000001
44
0.0000000001
40
0
40
0
40
0
40
1
40
1
40
1
10
-414.22752886482016
20
-25.038524095035577
30
1.2365086474263274e-15
10
-414.50174480148092
20
-25.063081208683037
30
1.2335012683638605e-15
10
-414.63885217376486
20
-25.177674714542412
30
1.2194676113484853e-15
0
SPLINE
5
311
100
AcDbEntity
8
0
100
AcDbSpline
70
0
71
2
72
6
73
3
74
0
42
0.000000001
43
0.0000000001
44
0.0000000001
40
0
40
0
40
0
40
1
40
1
40
1
10
-414.63885217376486
20
-25.177674714542412
30
1.2194676113484853e-15
10
-414.85167651839987
20
-25.353665772892022
30
1.1979149227198444e-15
10
-414.85167651839987
20
-25.634022180057549
30
1.1635811650542737e-15
0
SPLINE
5
312
100
AcDbEntity
8
0
100
AcDbSpline
70
0
71
2
72
6
73
3
74
0
42
0.000000001
43
0.0000000001
44
0.0000000001
40
0
40
0
40
0
40
1
40
1
40
1
10
-414.85167651839987
20
-25.634022180057549
30
1.1635811650542737e-15
10
-414.85167651839987
20
-25.887771073795342
30
1.132505888003956e-15
10
-414.68182652660147
20
-26.060691300846123
30
1.1113292677473988e-15
0
SPLINE
5
313
100
AcDbEntity
8
0
100
AcDbSpline
70
0
71
2
72
6
73
3
74
0
42
0.000000001
43
0.0000000001
44
0.0000000001
40
0
40
0
40
0
40
1
40
1
40
1
10
-414.68182652660147
20
-26.060691300846123
30
1.1113292677473988e-15
10
-414.51197653480307
20
-26.233611527896905
30
1.0901526474908416e-15
10
-414.22752886482016
20
-26.252026978946709
30
1.0878974051725421e-15
0
LINE
5
314
100
AcDbEntity
8
0
100
AcDbLine
10
-413.28619211383597
20
-21.201548997379327
30
1.7064025746016095e-15
11
-412.93216734596029
21
-21.201548997379327
31
1.7064025746016095e-15
0
LINE
5
315
100
AcDbEntity
8
0
100
AcDbLine
10
-412.93216734596029
20
-21.201548997379327
30
1.7064025746016095e-15
11
-412.93216734596029
21
-23.18449539325335
31
1.4635616789428193e-15
0
SPLINE
5
316
100
AcDbEntity
8
0
100
AcDbSpline
70
0
71
2
72
6
73
3
74
0
42
0.000000001
43
0.0000000001
44
0.0000000001
40
0
40
0
40
0
40
1
40
1
40
1
10
-412.93216734596029
20
-23.18449539325335
30
1.4635616789428193e-15
10
-413.06518226333395
20
-23.188591424442315
30
1.4630600597943425e-15
10
-413.18796544738547
20
-23.141522828556084
30
1.4688243003235857e-15
0
SPLINE
5
317
100
AcDbEntity
8
0
100
AcDbSpline
70
0
71
2
72
6
73
3
74
0
42
0.000000001
43
0.0000000001
44
0.0000000001
40
0
40
0
40
0
40
1
40
1
40
1
10
-413.18796544738547
20
-23.141522828556084
30
1.4688243003235857e-15
10
-413.39055746265188
20
-23.06580585620501
30
1.4780969551066722e-15
10
-413.58701019950644
20
-22.899027291751885
30
1.498521438619064e-15
0
SPLINE
5
318
100
AcDbEntity
8
0
100
AcDbSpline
70
0
71
2
72
6
73
3
74
0
42
0.000000001
43
0.0000000001
44
0.0000000001
40
0
40
0
40
0
40
1
40
1
40
1
10
-413.58701019950644
20
-22.899027291751885
30
1.498521438619064e-15
10
-413.78346353240744
20
-22.73224872729876
30
1.5189459221314547e-15
10
-414.04130786128775
20
-22.417102281070733
30
1.5575402307950361e-15
0
SPLINE
5
319
100
AcDbEntity
8
0
100
AcDbSpline
70
0
71
2
72
6
73
3
74
0
42
0.000000001
43
0.0000000001
44
0.0000000001
40
0
40
0
40
0
40
1
40
1
40
1
10
-414.04130786128775
20
-22.417102281070733
30
1.5575402307950361e-15
10
-414.44239943691031
20
-21.928015176273369
30
1.6174361265344704e-15
10
-414.6767106599404
20
-21.756120149112725
30
1.6384871960146335e-15
0
SPLINE
5
320
100
AcDbEntity
8
0
100
AcDbSpline
70
0
71
2
72
6
73
3
74
0
42
0.000000001
43
0.0000000001
44
0.0000000001
40
0
40
0
40
0
40
1
40
1
40
1
10
-414.6767106599404
20
-21.756120149112725
30
1.6384871960146335e-15
10
-414.91102128692404
20
-21.58422512195208
30
1.6595382654947967e-15
10
-415.11975258060232
20
-21.58422512195208
30
1.6595382654947967e-15
0
SPLINE
5
321
100
AcDbEntity
8
0
100
AcDbSpline
70
0
71
2
72
6
73
3
74
0
42
0.000000001
43
0.0000000001
44
0.0000000001
40
0
40
0
40
0
40
1
40
1
40
1
10
-415.11975258060232
20
-21.58422512195208
30
1.6595382654947967e-15
10
-415.33871560760275
20
-21.58422512195208
30
1.6595382654947967e-15
10
-415.48912554450766
20
-21.740770760990166
30
1.6403669539179497e-15
0
SPLINE
5
322
100
AcDbEntity
8
0
100
AcDbSpline
70
0
71
2
72
6
73
3
74
0
42
0.000000001
43
0.0000000001
44
0.0000000001
40
0
40
0
40
0
40
1
40
1
40
1
10
-415.48912554450766
20
-21.740770760990166
30
1.6403669539179497e-15
10
-415.63953428931967
20
-21.897321168399834
30
1.6211950583840033e-15
10
-415.63953428931967
20
-22.149024430728936
30
1.5903702989293753e-15
0
SPLINE
5
323
100
AcDbEntity
8
0
100
AcDbSpline
70
0
71
2
72
6
73
3
74
0
42
0.000000001
43
0.0000000001
44
0.0000000001
40
0
40
0
40
0
40
1
40
1
40
1
10
-415.63953428931967
20
-22.149024430728936
30
1.5903702989293753e-15
10
-415.63953428931967
20
-22.415056649662041
30
1.5577907483907258e-15
10
-415.47991662688986
20
-22.574673119998955
30
1.5382433684417951e-15
0
SPLINE
5
324
100
AcDbEntity
8
0
100
AcDbSpline
70
0
71
2
72
6
73
3
74
0
42
0.000000001
43
0.0000000001
44
0.0000000001
40
0
40
0
40
0
40
1
40
1
40
1
10
-415.47991662688986
20
-22.574673119998955
30
1.5382433684417951e-15
10
-415.3202983684136
20
-22.734294358707452
30
1.5186954045357661e-15
10
-415.03789692588583
20
-22.736339990116143
30
1.5184448869400764e-15
0
LINE
5
325
100
AcDbEntity
8
0
100
AcDbLine
10
-415.03789692588583
20
-22.736339990116143
30
1.5184448869400766e-15
11
-415.07677822776571
21
-23.114920083499932
31
1.4720821969817401e-15
0
SPLINE
5
326
100
AcDbEntity
8
0
100
AcDbSpline
70
0
71
2
72
6
73
3
74
0
42
0.000000001
43
0.0000000001
44
0.0000000001
40
0
40
0
40
0
40
1
40
1
40
1
10
-415.07677822776571
20
-23.114920083499932
30
1.4720821969817403e-15
10
-415.50038009353415
20
-23.076038781620049
30
1.4768437831711284e-15
10
-415.72241335578695
20
-22.822285119510674
30
1.5079196441785455e-15
0
SPLINE
5
327
100
AcDbEntity
8
0
100
AcDbSpline
70
0
71
2
72
6
73
3
74
0
42
0.000000001
43
0.0000000001
44
0.0000000001
40
0
40
0
40
0
40
1
40
1
40
1
10
-415.72241335578695
20
-22.822285119510674
30
1.5079196441785455e-15
10
-415.94444542594687
20
-22.568536225772881
30
1.5389949212288622e-15
10
-415.94444542594687
20
-22.14084190509417
30
1.5913723693121301e-15
0
SPLINE
5
328
100
AcDbEntity
8
0
100
AcDbSpline
70
0
71
2
72
6
73
3
74
0
42
0.000000001
43
0.0000000001
44
0.0000000001
40
0
40
0
40
0
40
1
40
1
40
1
10
-415.94444542594687
20
-22.14084190509417
30
1.5913723693121301e-15
10
-415.94444542594687
20
-21.709056321598077
30
1.6442508525867774e-15
10
-415.7050183362557
20
-21.457348290897393
30
1.6750761959985047e-15
0
SPLINE
5
329
100
AcDbEntity
8
0
100
AcDbSpline
70
0
71
2
72
6
73
3
74
0
42
0.000000001
43
0.0000000001
44
0.0000000001
40
0
40
0
40
0
40
1
40
1
40
1
10
-415.7050183362557
20
-21.457348290897393
30
1.6750761959985047e-15
10
-415.46559124656454
20
-21.205645028568291
30
1.7059009554531327e-15
10
-415.11156707473532
20
-21.205645028568291
30
1.7059009554531327e-15
0
SPLINE
5
330
100
AcDbEntity
8
0
100
AcDbSpline
70
0
71
2
72
6
73
3
74
0
42
0.000000001
43
0.0000000001
44
0.0000000001
40
0
40
0
40
0
40
1
40
1
40
1
10
-415.11156707473532
20
-21.205645028568291
30
1.7059009554531327e-15
10
-414.93148534961477
20
-21.205645028568291
30
1.7059009554531327e-15
10
-414.7575429029061
20
-21.279311601139092
30
1.6968794022228343e-15
0
SPLINE
5
331
100
AcDbEntity
8
0
100
AcDbSpline
70
0
71
2
72
6
73
3
74
0
42
0.000000001
43
0.0000000001
44
0.0000000001
40
0
40
0
40
0
40
1
40
1
40
1
10
-414.7575429029061
20
-21.279311601139092
30
1.6968794022228343e-15
10
-414.58359986015097
20
-21.352982942081475
30
1.6878572650354355e-15
10
-414.39123957820669
20
-21.523857537723565
30
1.666931162374567e-15
0
SPLINE
5
332
100
AcDbEntity
8
0
100
AcDbSpline
70
0
71
2
72
6
73
3
74
0
42
0.000000001
43
0.0000000001
44
0.0000000001
40
0
40
0
40
0
40
1
40
1
40
1
10
-414.39123957820669
20
-21.523857537723565
30
1.666931162374567e-15
10
-414.19887929626242
20
-21.694727364994073
30
1.6460056436707989e-15
10
-413.86327236362234
20
-22.091727677799248
30
1.5973871274370629e-15
0
SPLINE
5
333
100
AcDbEntity
8
0
100
AcDbSpline
70
0
71
2
72
6
73
3
74
0
42
0.000000001
43
0.0000000001
44
0.0000000001
40
0
40
0
40
0
40
1
40
1
40
1
10
-413.86327236362234
20
-22.091727677799248
30
1.5973871274370629e-15
10
-413.5849639720513
20
-22.423243943668389
30
1.5567880940508697e-15
10
-413.48571448989645
20
-22.517376367069268
30
1.5452601969494827e-15
0
SPLINE
5
334
100
AcDbEntity
8
0
100
AcDbSpline
70
0
71
2
72
6
73
3
74
0
42
0.000000001
43
0.0000000001
44
0.0000000001
40
0
40
0
40
0
40
1
40
1
40
1
10
-413.48571448989645
20
-22.517376367069268
30
1.5452601969494827e-15
10
-413.38646500774161
20
-22.611508790470147
30
1.5337322998480957e-15
10
-413.28619211383597
20
-22.672901574588799
30
1.5262138521919314e-15
0
LINE
5
335
100
AcDbEntity
8
0
100
AcDbLine
10
-413.28619211383597
20
-22.672901574588803
30
1.5262138521919314e-15
11
-413.28619211383597
21
-21.201548997379327
31
1.7064025746016095e-15
0
LWPOLYLINE
5
336
100
AcDbEntity
8
0
100
AcDbPolyline
90
8
70
1
43
0.0
10
-416.13806233833009
20
30.85794631521583
10
-413.1380622191208
20
29.705831447051843
10
-413.1380622191208
20
30.127387085365136
10
-414.04665694663692
20
30.456854739593325
10
-414.04665694663692
20
31.711288729118166
10
-413.13806221912074
20
32.061220446037133
10
-413.13806221912074
20
32.513471284316857
10
-416.13806233833009
20
31.285640635894541
0
LINE
5
337
100
AcDbEntity
8
0
100
AcDbLine
10
-414.36998591849976
20
30.571452417777824
30
0
11
-414.36998591849976
21
31.588505545066642
31
0
0
LINE
5
338
100
AcDbEntity
8
0
100
AcDbLine
10
-414.36998591849976
20
31.588505545066642
30
0
11
-415.20081804225612
21
31.275408902572419
31
0
0
SPLINE
5
339
100
AcDbEntity
8
0
100
AcDbSpline
70
0
71
2
72
6
73
3
74
0
42
0.000000001
43
0.0000000001
44
0.0000000001
40
0
40
0
40
0
40
1
40
1
40
1
10
-415.20081804225612
20
31.275408902572419
30
0
10
-415.5793993277328
20
31.13216165583016
30
0
10
-415.82291917035752
20
31.062584557937395
30
0
0
SPLINE
5
340
100
AcDbEntity
8
0
100
AcDbSpline
70
0
71
2
72
6
73
3
74
0
42
0.000000001
43
0.0000000001
44
0.0000000001
40
0
40
0
40
0
40
1
40
1
40
1
10
-415.82291917035752
20
31.062584557937395
30
0
10
-415.53437874744111
20
31.005286016868368
30
0
10
-415.2499310774582
20
30.900920072006013
30
0
0
LINE
5
341
100
AcDbEntity
8
0
100
AcDbLine
10
-415.24993107745814
20
30.900920072006016
30
0
11
-414.36998591849976
21
30.571452417777824
31
0
0
LINE
5
342
100
AcDbEntity
8
0
100
AcDbLine
10
-412.97667954238443
20
-82.878287846371677
30
0
11
-415.97667966159372
21
-82.878287846371734
31
0
0
LINE
5
343
100
AcDbEntity
8
0
100
AcDbLine
10
-415.97667966159372
20
-82.878287846371734
30
0
11
-415.97667966159372
21
-81.752776319310271
31
0
0
SPLINE
5
344
100
AcDbEntity
8
0
100
AcDbSpline
70
0
71
2
72
6
73
3
74
0
42
0.000000001
43
0.0000000001
44
0.0000000001
40
0
40
0
40
0
40
1
40
1
40
1
10
-415.97667966159361
20
-81.752776319310271
30
0
10
-415.97667966159361
20
-81.408983880803191
30
0
10
-415.88561538728254
20
-81.201275998875701
30
0
0
SPLINE
5
345
100
AcDbEntity
8
0
100
AcDbSpline
70
0
71
2
72
6
73
3
74
0
42
0.000000001
43
0.0000000001
44
0.0000000001
40
0
40
0
40
0
40
1
40
1
40
1
10
-415.88561538728254
20
-81.201275998875701
30
0
10
-415.7945514109947
20
-80.993568116948211
30
0
10
-415.60526076825636
20
-80.875900799557769
30
0
0
SPLINE
5
346
100
AcDbEntity
8
0
100
AcDbSpline
70
0
71
2
72
6
73
3
74
0
42
0.000000001
43
0.0000000001
44
0.0000000001
40
0
40
0
40
0
40
1
40
1
40
1
10
-415.60526076825636
20
-80.875900799557769
30
0
10
-415.41597012551802
20
-80.758233482167313
30
0
10
-415.20928535731809
20
-80.758233482167313
30
0
0
SPLINE
5
347
100
AcDbEntity
8
0
100
AcDbSpline
70
0
71
2
72
6
73
3
74
0
42
0.000000001
43
0.0000000001
44
0.0000000001
40
0
40
0
40
0
40
1
40
1
40
1
10
-415.20928535731809
20
-80.758233482167313
30
0
10
-415.01692507537382
20
-80.758233482167313
30
0
10
-414.84707508357542
20
-80.862598830983217
30
0
0
SPLINE
5
348
100
AcDbEntity
8
0
100
AcDbSpline
70
0
71
2
72
6
73
3
74
0
42
0.000000001
43
0.0000000001
44
0.0000000001
40
0
40
0
40
0
40
1
40
1
40
1
10
-414.84707508357542
20
-80.862598830983217
30
0
10
-414.67722509177702
20
-80.966964775845582
30
0
10
-414.5728597429611
20
-81.177742296979005
30
0
0
SPLINE
5
349
100
AcDbEntity
8
0
100
AcDbSpline
70
0
71
2
72
6
73
3
74
0
42
0.000000001
43
0.0000000001
44
0.0000000001
40
0
40
0
40
0
40
1
40
1
40
1
10
-414.5728597429611
20
-81.177742296979005
30
0
10
-414.49305061372297
20
-80.905573183819826
30
0
10
-414.30069062980192
20
-80.759256893918092
30
0
0
SPLINE
5
350
100
AcDbEntity
8
0
100
AcDbSpline
70
0
71
2
72
6
73
3
74
0
42
0.000000001
43
0.0000000001
44
0.0000000001
40
0
40
0
40
0
40
1
40
1
40
1
10
-414.30069062980192
20
-80.759256893918092
30
0
10
-414.10833034785765
20
-80.612940007969897
30
0
10
-413.84639296802061
20
-80.612940007969897
30
0
0
SPLINE
5
351
100
AcDbEntity
8
0
100
AcDbSpline
70
0
71
2
72
6
73
3
74
0
42
0.000000001
43
0.0000000001
44
0.0000000001
40
0
40
0
40
0
40
1
40
1
40
1
10
-413.84639296802061
20
-80.612940007969897
30
0
10
-413.63561544688719
20
-80.612940007969897
30
0
10
-413.45451031001585
20
-80.701957756802585
30
0
0
SPLINE
5
352
100
AcDbEntity
8
0
100
AcDbSpline
70
0
71
2
72
6
73
3
74
0
42
0.000000001
43
0.0000000001
44
0.0000000001
40
0
40
0
40
0
40
1
40
1
40
1
10
-413.45451031001585
20
-80.701957756802585
30
0
10
-413.27340547116773
20
-80.790975505635288
30
0
10
-413.17517880471723
20
-80.921944195553806
30
0
0
SPLINE
5
353
100
AcDbEntity
8
0
100
AcDbSpline
70
0
71
2
72
6
73
3
74
0
42
0.000000001
43
0.0000000001
44
0.0000000001
40
0
40
0
40
0
40
1
40
1
40
1
10
-413.17517880471723
20
-80.921944195553806
30
0
10
-413.07695243628996
20
-81.052912885472324
30
0
10
-413.02681598933714
20
-81.250389034077671
30
0
0
SPLINE
5
354
100
AcDbEntity
8
0
100
AcDbSpline
70
0
71
2
72
6
73
3
74
0
42
0.000000001
43
0.0000000001
44
0.0000000001
40
0
40
0
40
0
40
1
40
1
40
1
10
-413.02681598933714
20
-81.250389034077671
30
0
10
-412.97667954238432
20
-81.447865182683017
30
0
10
-412.97667954238432
20
-81.734359080121067
30
0
0
LINE
5
355
100
AcDbEntity
8
0
100
AcDbLine
10
-412.97667954238432
20
-81.734359080121067
30
0
11
-412.97667954238443
21
-82.878287846371677
31
0
0
LINE
5
356
100
AcDbEntity
8
0
100
AcDbLine
10
-414.71610639365701
20
-82.481289321705873
30
0
11
-414.71610639365701
21
-81.832585746571596
31
0
0
SPLINE
5
357
100
AcDbEntity
8
0
100
AcDbSpline
70
0
71
2
72
6
73
3
74
0
42
0.000000001
43
0.0000000001
44
0.0000000001
40
0
40
0
40
0
40
1
40
1
40
1
10
-414.7161063936569
20
-81.832585746571596
30
0
10
-414.7161063936569
20
-81.568601543232973
30
0
10
-414.75089524062651
20
-81.454004461094911
30
0
0
SPLINE
5
358
100
AcDbEntity
8
0
100
AcDbSpline
70
0
71
2
72
6
73
3
74
0
42
0.000000001
43
0.0000000001
44
0.0000000001
40
0
40
0
40
0
40
1
40
1
40
1
10
-414.75089524062651
20
-81.454004461094911
30
0
10
-414.79591552289503
20
-81.302571708485658
30
0
10
-414.90028116973417
20
-81.225832516476686
30
0
0
SPLINE
5
359
100
AcDbEntity
8
0
100
AcDbSpline
70
0
71
2
72
6
73
3
74
0
42
0.000000001
43
0.0000000001
44
0.0000000001
40
0
40
0
40
0
40
1
40
1
40
1
10
-414.90028116973417
20
-81.225832516476686
30
0
10
-415.00464681657331
20
-81.149093324467728
30
0
10
-415.16221854957121
20
-81.149093324467728
30
0
0
SPLINE
5
360
100
AcDbEntity
8
0
100
AcDbSpline
70
0
71
2
72
6
73
3
74
0
42
0.000000001
43
0.0000000001
44
0.0000000001
40
0
40
0
40
0
40
1
40
1
40
1
10
-415.16221854957121
20
-81.149093324467728
30
0
10
-415.31160447867887
20
-81.149093324467728
30
0
10
-415.42517874511259
20
-81.220716649815628
30
0
0
SPLINE
5
361
100
AcDbEntity
8
0
100
AcDbSpline
70
0
71
2
72
6
73
3
74
0
42
0.000000001
43
0.0000000001
44
0.0000000001
40
0
40
0
40
0
40
1
40
1
40
1
10
-415.42517874511259
20
-81.220716649815628
30
0
10
-415.53875330956953
20
-81.292339975163529
30
0
10
-415.58070425065534
20
-81.425354892537186
30
0
0
SPLINE
5
362
100
AcDbEntity
8
0
100
AcDbSpline
70
0
71
2
72
6
73
3
74
0
42
0.000000001
43
0.0000000001
44
0.0000000001
40
0
40
0
40
0
40
1
40
1
40
1
10
-415.58070425065534
20
-81.425354892537186
30
0
10
-415.62265489371794
20
-81.558369809910857
30
0
10
-415.62265489371794
20
-81.88169878177365
30
0
0
LINE
5
363
100
AcDbEntity
8
0
100
AcDbLine
10
-415.62265489371794
20
-81.88169878177365
30
0
11
-415.62265489371794
21
-82.481289321705901
31
0
0
LINE
5
364
100
AcDbEntity
8
0
100
AcDbLine
10
-415.62265489371794
20
-82.481289321705901
30
0
11
-414.71610639365701
21
-82.481289321705873
31
0
0
LINE
5
365
100
AcDbEntity
8
0
100
AcDbLine
10
-413.33070401223688
20
-82.481289321705844
30
0
11
-413.33070401223688
21
-81.734359080121067
31
0
0
SPLINE
5
366
100
AcDbEntity
8
0
100
AcDbSpline
70
0
71
2
72
6
73
3
74
0
42
0.000000001
43
0.0000000001
44
0.0000000001
40
0
40
0
40
0
40
1
40
1
40
1
10
-413.33070401223677
20
-81.734359080121067
30
0
10
-413.33070401223677
20
-81.541998798176792
30
0
10
-413.34502879651563
20
-81.464236194417026
30
0
0
SPLINE
5
367
100
AcDbEntity
8
0
100
AcDbSpline
70
0
71
2
72
6
73
3
74
0
42
0.000000001
43
0.0000000001
44
0.0000000001
40
0
40
0
40
0
40
1
40
1
40
1
10
-413.34502879651563
20
-81.464236194417026
30
0
10
-413.36958531411665
20
-81.327128822133091
30
0
10
-413.4268841532089
20
-81.235040838048008
30
0
0
SPLINE
5
368
100
AcDbEntity
8
0
100
AcDbSpline
70
0
71
2
72
6
73
3
74
0
42
0.000000001
43
0.0000000001
44
0.0000000001
40
0
40
0
40
0
40
1
40
1
40
1
10
-413.4268841532089
20
-81.235040838048008
30
0
10
-413.48418299230116
20
-81.14295404605582
30
0
10
-413.59366450580137
20
-81.083608681485217
30
0
0
SPLINE
5
369
100
AcDbEntity
8
0
100
AcDbSpline
70
0
71
2
72
6
73
3
74
0
42
0.000000001
43
0.0000000001
44
0.0000000001
40
0
40
0
40
0
40
1
40
1
40
1
10
-413.59366450580137
20
-81.083608681485217
30
0
10
-413.70314631732481
20
-81.024263316914599
30
0
10
-413.84639296802061
20
-81.024263316914599
30
0
0
SPLINE
5
370
100
AcDbEntity
8
0
100
AcDbSpline
70
0
71
2
72
6
73
3
74
0
42
0.000000001
43
0.0000000001
44
0.0000000001
40
0
40
0
40
0
40
1
40
1
40
1
10
-413.84639296802061
20
-81.024263316914599
30
0
10
-414.01419673236387
20
-81.024263316914599
30
0
10
-414.13800273211973
20
-81.110212022587817
30
0
0
SPLINE
5
371
100
AcDbEntity
8
0
100
AcDbSpline
70
0
71
2
72
6
73
3
74
0
42
0.000000001
43
0.0000000001
44
0.0000000001
40
0
40
0
40
0
40
1
40
1
40
1
10
-414.13800273211973
20
-81.110212022587817
30
0
10
-414.26180932792204
20
-81.196159536168153
30
0
10
-414.31194577487486
20
-81.3486157005282
30
0
0
SPLINE
5
372
100
AcDbEntity
8
0
100
AcDbSpline
70
0
71
2
72
6
73
3
74
0
42
0.000000001
43
0.0000000001
44
0.0000000001
40
0
40
0
40
0
40
1
40
1
40
1
10
-414.31194577487486
20
-81.3486157005282
30
0
10
-414.36208222182768
20
-81.501071268841798
30
0
10
-414.36208222182768
20
-81.787565166279848
30
0
0
LINE
5
373
100
AcDbEntity
8
0
100
AcDbLine
10
-414.36208222182768
20
-81.787565166279833
30
0
11
-414.36208222182768
21
-82.481289321705873
31
0
0
LINE
5
374
100
AcDbEntity
8
0
100
AcDbLine
10
-414.36208222182768
20
-82.481289321705873
30
0
11
-413.33070401223688
21
-82.481289321705844
31
0
0
LINE
5
375
100
AcDbEntity
8
0
100
AcDbLine
10
-413.1380622191208
20
29.705831447051843
30
0
11
-416.13806233833009
21
30.85794631521583
31
0
0
LINE
5
376
100
AcDbEntity
8
0
100
AcDbLine
10
-416.13806233833009
20
30.85794631521583
30
0
11
-416.13806233833009
21
31.285640635894541
31
0
0
LINE
5
377
100
AcDbEntity
8
0
100
AcDbLine
10
-416.13806233833009
20
31.285640635894541
30
0
11
-413.13806221912074
21
32.513471284316857
31
0
0
LINE
5
378
100
AcDbEntity
8
0
100
AcDbLine
10
-413.13806221912074
20
32.513471284316857
30
0
11
-413.13806221912074
21
32.061220446037133
31
0
0
LINE
5
379
100
AcDbEntity
8
0
100
AcDbLine
10
-413.13806221912074
20
32.061220446037133
30
0
11
-414.04665694663692
21
31.711288729118166
31
0
0
LINE
5
380
100
AcDbEntity
8
0
100
AcDbLine
10
-414.04665694663692
20
31.711288729118166
30
0
11
-414.04665694663692
21
30.456854739593325
31
0
0
LINE
5
381
100
AcDbEntity
8
0
100
AcDbLine
10
-414.04665694663692
20
30.456854739593325
30
0
11
-413.1380622191208
21
30.127387085365136
31
0
0
LINE
5
382
100
AcDbEntity
8
0
100
AcDbLine
10
-413.1380622191208
20
30.127387085365136
30
0
11
-413.1380622191208
21
29.705831447051843
31
0
0
LINE
5
383
100
AcDbEntity
8
0
100
AcDbLine
10
-414.36998591849976
20
30.571452417777824
30
0
11
-414.36998591849976
21
31.588505545066642
31
0
0
LINE
5
384
100
AcDbEntity
8
0
100
AcDbLine
10
-414.36998591849976
20
31.588505545066642
30
0
11
-415.20081804225612
21
31.275408902572419
31
0
0
SPLINE
5
385
100
AcDbEntity
8
0
100
AcDbSpline
70
0
71
2
72
6
73
3
74
0
42
0.000000001
43
0.0000000001
44
0.0000000001
40
0
40
0
40
0
40
1
40
1
40
1
10
-415.20081804225612
20
31.275408902572419
30
0
10
-415.5793993277328
20
31.13216165583016
30
0
10
-415.82291917035752
20
31.062584557937395
30
0
0
SPLINE
5
386
100
AcDbEntity
8
0
100
AcDbSpline
70
0
71
2
72
6
73
3
74
0
42
0.000000001
43
0.0000000001
44
0.0000000001
40
0
40
0
40
0
40
1
40
1
40
1
10
-415.82291917035752
20
31.062584557937395
30
0
10
-415.53437874744111
20
31.005286016868368
30
0
10
-415.2499310774582
20
30.900920072006013
30
0
0
LINE
5
387
100
AcDbEntity
8
0
100
AcDbLine
10
-415.24993107745814
20
30.900920072006016
30
0
11
-414.36998591849976
21
30.571452417777824
31
0
0
LINE
5
388
100
AcDbEntity
8
0
100
AcDbLine
10
-435.58474027589199
20
-11.543363772748773
30
0
11
-435.48446768000957
21
-11.146365248082938
31
0
0
SPLINE
5
389
100
AcDbEntity
8
0
100
AcDbSpline
70
0
71
2
72
6
73
3
74
0
42
0.000000001
43
0.0000000001
44
0.0000000001
40
0
40
0
40
0
40
1
40
1
40
1
10
-435.48446768000957
20
-11.146365248082937
30
0
10
-434.99538146928188
20
-11.271194659589579
30
0
10
-434.73856025412914
20
-11.595547043203158
30
0
0
SPLINE
5
390
100
AcDbEntity
8
0
100
AcDbSpline
70
0
71
2
72
6
73
3
74
0
42
0.000000001
43
0.0000000001
44
0.0000000001
40
0
40
0
40
0
40
1
40
1
40
1
10
-434.73856025412914
20
-11.595547043203158
30
0
10
-434.48173874095318
20
-11.91989883077029
30
0
10
-434.48173874095318
20
-12.388520680784023
30
0
0
SPLINE
5
391
100
AcDbEntity
8
0
100
AcDbSpline
70
0
71
2
72
6
73
3
74
0
42
0.000000001
43
0.0000000001
44
0.0000000001
40
0
40
0
40
0
40
1
40
1
40
1
10
-434.48173874095318
20
-12.388520680784023
30
0
10
-434.48173874095323
20
-12.873514138578212
30
0
10
-434.6792151875818
20
-13.177401863454623
30
0
0
SPLINE
5
392
100
AcDbEntity
8
0
100
AcDbSpline
70
0
71
2
72
6
73
3
74
0
42
0.000000001
43
0.0000000001
44
0.0000000001
40
0
40
0
40
0
40
1
40
1
40
1
10
-434.6792151875818
20
-13.177401863454623
30
0
10
-434.87669133618715
20
-13.481290184377478
30
0
10
-435.25117957070711
20
-13.639885031102953
30
0
0
SPLINE
5
393
100
AcDbEntity
8
0
100
AcDbSpline
70
0
71
2
72
6
73
3
74
0
42
0.000000001
43
0.0000000001
44
0.0000000001
40
0
40
0
40
0
40
1
40
1
40
1
10
-435.25117957070711
20
-13.639885031102953
30
0
10
-435.62566810325029
20
-13.798479877828424
30
0
10
-436.05540894940737
20
-13.798479877828436
30
0
0
SPLINE
5
394
100
AcDbEntity
8
0
100
AcDbSpline
70
0
71
2
72
6
73
3
74
0
42
0.000000001
43
0.0000000001
44
0.0000000001
40
0
40
0
40
0
40
1
40
1
40
1
10
-436.05540894940737
20
-13.798479877828436
30
0
10
-436.52403109744432
20
-13.798479877828447
30
0
10
-436.8729397006357
20
-13.619421564458705
30
0
0
SPLINE
5
395
100
AcDbEntity
8
0
100
AcDbSpline
70
0
71
2
72
6
73
3
74
0
42
0.000000001
43
0.0000000001
44
0.0000000001
40
0
40
0
40
0
40
1
40
1
40
1
10
-436.8729397006357
20
-13.619421564458705
30
0
10
-437.22184830382707
20
-13.440362655042515
30
0
10
-437.40295314267519
20
-13.109871589063516
30
0
0
SPLINE
5
396
100
AcDbEntity
8
0
100
AcDbSpline
70
0
71
2
72
6
73
3
74
0
42
0.000000001
43
0.0000000001
44
0.0000000001
40
0
40
0
40
0
40
1
40
1
40
1
10
-437.40295314267519
20
-13.109871589063516
30
0
10
-437.58405827954653
20
-12.779380523084516
30
0
10
-437.58405827954647
20
-12.382381402372236
30
0
0
SPLINE
5
397
100
AcDbEntity
8
0
100
AcDbSpline
70
0
71
2
72
6
73
3
74
0
42
0.000000001
43
0.0000000001
44
0.0000000001
40
0
40
0
40
0
40
1
40
1
40
1
10
-437.58405827954647
20
-12.382381402372236
30
0
10
-437.58405827954647
20
-11.932176791547651
30
0
10
-437.35486322120067
20
-11.625219427465311
30
0
0
SPLINE
5
398
100
AcDbEntity
8
0
100
AcDbSpline
70
0
71
2
72
6
73
3
74
0
42
0.000000001
43
0.0000000001
44
0.0000000001
40
0
40
0
40
0
40
1
40
1
40
1
10
-437.35486322120067
20
-11.625219427465311
30
0
10
-437.12566816285488
20
-11.318261467336521
30
0
10
-436.71025210097667
20
-11.197525106786582
30
0
0
LINE
5
399
100
AcDbEntity
8
0
100
AcDbLine
10
-436.71025210097667
20
-11.197525106786584
30
0
11
-436.61816471293804
21
-11.588384353040546
31
0
0
SPLINE
5
400
100
AcDbEntity
8
0
100
AcDbSpline
70
0
71
2
72
6
73
3
74
0
42
0.000000001
43
0.0000000001
44
0.0000000001
40
0
40
0
40
0
40
1
40
1
40
1
10
-436.61816471293804
20
-11.588384353040549
30
0
10
-436.94558613971111
20
-11.692750297902922
30
0
10
-437.094972366842
20
-11.891249262212618
30
0
0
SPLINE
5
401
100
AcDbEntity
8
0
100
AcDbSpline
70
0
71
2
72
6
73
3
74
0
42
0.000000001
43
0.0000000001
44
0.0000000001
40
0
40
0
40
0
40
1
40
1
40
1
10
-437.094972366842
20
-11.891249262212618
30
0
10
-437.24435859397289
20
-12.089748822568762
30
0
10
-437.24435859397289
20
-12.390566908239233
30
0
0
SPLINE
5
402
100
AcDbEntity
8
0
100
AcDbSpline
70
0
71
2
72
6
73
3
74
0
42
0.000000001
43
0.0000000001
44
0.0000000001
40
0
40
0
40
0
40
1
40
1
40
1
10
-437.24435859397289
20
-12.390566908239233
30
0
10
-437.24435859397295
20
-12.7364061702479
30
0
10
-437.07860135510805
20
-12.968671165822848
30
0
0
SPLINE
5
403
100
AcDbEntity
8
0
100
AcDbSpline
70
0
71
2
72
6
73
3
74
0
42
0.000000001
43
0.0000000001
44
0.0000000001
40
0
40
0
40
0
40
1
40
1
40
1
10
-437.07860135510805
20
-12.968671165822848
30
0
10
-436.91284411624315
20
-13.200935565351346
30
0
10
-436.63351261094454
20
-13.295069180845115
30
0
0
SPLINE
5
404
100
AcDbEntity
8
0
100
AcDbSpline
70
0
71
2
72
6
73
3
74
0
42
0.000000001
43
0.0000000001
44
0.0000000001
40
0
40
0
40
0
40
1
40
1
40
1
10
-436.63351261094454
20
-13.295069180845115
30
0
10
-436.35418110564592
20
-13.389202796338878
30
0
10
-436.05745547488573
20
-13.389202796338873
30
0
0
SPLINE
5
405
100
AcDbEntity
8
0
100
AcDbSpline
70
0
71
2
72
6
73
3
74
0
42
0.000000001
43
0.0000000001
44
0.0000000001
40
0
40
0
40
0
40
1
40
1
40
1
10
-436.05745547488573
20
-13.389202796338873
30
0
10
-435.67478113845232
20
-13.389202796338864
30
0
10
-435.38931065276506
20
-13.27767475736028
30
0
0
SPLINE
5
406
100
AcDbEntity
8
0
100
AcDbSpline
70
0
71
2
72
6
73
3
74
0
42
0.000000001
43
0.0000000001
44
0.0000000001
40
0
40
0
40
0
40
1
40
1
40
1
10
-435.38931065276506
20
-13.27767475736028
30
0
10
-435.10383986905458
20
-13.166147314428143
30
0
10
-434.96263944581392
20
-12.930812679647254
30
0
0
SPLINE
5
407
100
AcDbEntity
8
0
100
AcDbSpline
70
0
71
2
72
6
73
3
74
0
42
0.000000001
43
0.0000000001
44
0.0000000001
40
0
40
0
40
0
40
1
40
1
40
1
10
-434.96263944581392
20
-12.930812679647254
30
0
10
-434.82143872454998
20
-12.695478640912816
30
0
10
-434.82143872454998
20
-12.421263300298497
30
0
0
SPLINE
5
408
100
AcDbEntity
8
0
100
AcDbSpline
70
0
71
2
72
6
73
3
74
0
42
0.000000001
43
0.0000000001
44
0.0000000001
40
0
40
0
40
0
40
1
40
1
40
1
10
-434.82143872454998
20
-12.421263300298497
30
0
10
-434.82143872454998
20
-12.087701999067113
30
0
10
-435.01379900649425
20
-11.856460415242962
30
0
0
SPLINE
5
409
100
AcDbEntity
8
0
100
AcDbSpline
70
0
71
2
72
6
73
3
74
0
42
0.000000001
43
0.0000000001
44
0.0000000001
40
0
40
0
40
0
40
1
40
1
40
1
10
-435.01379900649425
20
-11.856460415242962
30
0
10
-435.20615928843853
20
-11.625219427465257
30
0
10
-435.58474027589199
20
-11.543363772748773
30
0
0
LINE
5
410
100
AcDbEntity
8
0
100
AcDbLine
10
-434.53289859965639
20
-83.707983993894942
30
0
11
-437.53289871886568
21
-83.707983993895013
31
0
0
LINE
5
411
100
AcDbEntity
8
0
100
AcDbLine
10
-437.53289871886568
20
-83.707983993895013
30
0
11
-437.53289871886568
21
-82.674559854872186
31
0
0
SPLINE
5
412
100
AcDbEntity
8
0
100
AcDbSpline
70
0
71
2
72
6
73
3
74
0
42
0.000000001
43
0.0000000001
44
0.0000000001
40
0
40
0
40
0
40
1
40
1
40
1
10
-437.53289871886557
20
-82.674559854872186
30
0
10
-437.53289871886557
20
-82.324628137953241
30
0
10
-437.48992466405218
20
-82.14045336187597
30
0
0
SPLINE
5
413
100
AcDbEntity
8
0
100
AcDbSpline
70
0
71
2
72
6
73
3
74
0
42
0.000000001
43
0.0000000001
44
0.0000000001
40
0
40
0
40
0
40
1
40
1
40
1
10
-437.48992466405218
20
-82.14045336187597
30
0
10
-437.43057929948156
20
-81.88260903299566
30
0
10
-437.27505409196203
20
-81.700480484373529
30
0
0
SPLINE
5
414
100
AcDbEntity
8
0
100
AcDbSpline
70
0
71
2
72
6
73
3
74
0
42
0.000000001
43
0.0000000001
44
0.0000000001
40
0
40
0
40
0
40
1
40
1
40
1
10
-437.27505409196203
20
-81.700480484373529
30
0
10
-437.07450860217398
20
-81.463100218183939
30
0
10
-436.76243477538412
20
-81.345432900793497
30
0
0
SPLINE
5
415
100
AcDbEntity
8
0
100
AcDbSpline
70
0
71
2
72
6
73
3
74
0
42
0.000000001
43
0.0000000001
44
0.0000000001
40
0
40
0
40
0
40
1
40
1
40
1
10
-436.76243477538412
20
-81.345432900793497
30
0
10
-436.45036094859427
20
-81.227765583403041
30
0
10
-436.04926967099493
20
-81.227765583403041
30
0
0
SPLINE
5
416
100
AcDbEntity
8
0
100
AcDbSpline
70
0
71
2
72
6
73
3
74
0
42
0.000000001
43
0.0000000001
44
0.0000000001
40
0
40
0
40
0
40
1
40
1
40
1
10
-436.04926967099493
20
-81.227765583403041
30
0
10
-435.70752345994299
20
-81.227765583403027
30
0
10
-435.44353985265082
20
-81.30757501066438
30
0
0
SPLINE
5
417
100
AcDbEntity
8
0
100
AcDbSpline
70
0
71
2
72
6
73
3
74
0
42
0.000000001
43
0.0000000001
44
0.0000000001
40
0
40
0
40
0
40
1
40
1
40
1
10
-435.44353985265082
20
-81.30757501066438
30
0
10
-435.17955624535864
20
-81.387383841879284
30
0
10
-435.00663661435431
20
-81.512213253385909
30
0
0
SPLINE
5
418
100
AcDbEntity
8
0
100
AcDbSpline
70
0
71
2
72
6
73
3
74
0
42
0.000000001
43
0.0000000001
44
0.0000000001
40
0
40
0
40
0
40
1
40
1
40
1
10
-435.00663661435431
20
-81.512213253385909
30
0
10
-434.8337172813732
20
-81.637042664892562
30
0
10
-434.73446750119513
20
-81.785405778295882
30
0
0
SPLINE
5
419
100
AcDbEntity
8
0
100
AcDbSpline
70
0
71
2
72
6
73
3
74
0
42
0.000000001
43
0.0000000001
44
0.0000000001
40
0
40
0
40
0
40
1
40
1
40
1
10
-434.73446750119513
20
-81.785405778295882
30
0
10
-434.63521772101706
20
-81.933768295652754
30
0
10
-434.58405845835989
20
-82.143523001081832
30
0
0
SPLINE
5
420
100
AcDbEntity
8
0
100
AcDbSpline
70
0
71
2
72
6
73
3
74
0
42
0.000000001
43
0.0000000001
44
0.0000000001
40
0
40
0
40
0
40
1
40
1
40
1
10
-434.58405845835989
20
-82.143523001081832
30
0
10
-434.53289859965628
20
-82.353277706510909
30
0
10
-434.53289859965628
20
-82.625446819670088
30
0
0
LINE
5
421
100
AcDbEntity
8
0
100
AcDbLine
10
-434.53289859965628
20
-82.625446819670088
30
0
11
-434.53289859965639
21
-83.707983993894942
31
0
0
LINE
5
422
100
AcDbEntity
8
0
100
AcDbLine
10
-434.88692306950884
20
-83.310985469229109
30
0
11
-434.88692306950884
21
-82.670467399961836
31
0
0
SPLINE
5
423
100
AcDbEntity
8
0
100
AcDbSpline
70
0
71
2
72
6
73
3
74
0
42
0.000000001
43
0.0000000001
44
0.0000000001
40
0
40
0
40
0
40
1
40
1
40
1
10
-434.88692306950873
20
-82.670467399961836
30
0
10
-434.88692306950873
20
-82.373741173155196
30
0
10
-434.94217568114584
20
-82.204914593107588
30
0
0
SPLINE
5
424
100
AcDbEntity
8
0
100
AcDbSpline
70
0
71
2
72
6
73
3
74
0
42
0.000000001
43
0.0000000001
44
0.0000000001
40
0
40
0
40
0
40
1
40
1
40
1
10
-434.94217568114584
20
-82.204914593107588
30
0
10
-434.99742799475973
20
-82.036088013059981
30
0
10
-435.09770088866537
20
-81.93581511915437
30
0
0
SPLINE
5
425
100
AcDbEntity
8
0
100
AcDbSpline
70
0
71
2
72
6
73
3
74
0
42
0.000000001
43
0.0000000001
44
0.0000000001
40
0
40
0
40
0
40
1
40
1
40
1
10
-435.09770088866537
20
-81.93581511915437
30
0
10
-435.23890131190603
20
-81.79461409986726
30
0
10
-435.4773049898464
20
-81.715828680403149
30
0
0
SPLINE
5
426
100
AcDbEntity
8
0
100
AcDbSpline
70
0
71
2
72
6
73
3
74
0
42
0.000000001
43
0.0000000001
44
0.0000000001
40
0
40
0
40
0
40
1
40
1
40
1
10
-435.4773049898464
20
-81.715828680403149
30
0
10
-435.71570896580999
20
-81.63704266489259
30
0
10
-436.05540865138357
20
-81.637042664892604
30
0
0
SPLINE
5
427
100
AcDbEntity
8
0
100
AcDbSpline
70
0
71
2
72
6
73
3
74
0
42
0.000000001
43
0.0000000001
44
0.0000000001
40
0
40
0
40
0
40
1
40
1
40
1
10
-436.05540865138357
20
-81.637042664892604
30
0
10
-436.52607732489889
20
-81.637042664892618
30
0
10
-436.77880578711813
20
-81.791544460661356
30
0
0
SPLINE
5
428
100
AcDbEntity
8
0
100
AcDbSpline
70
0
71
2
72
6
73
3
74
0
42
0.000000001
43
0.0000000001
44
0.0000000001
40
0
40
0
40
0
40
1
40
1
40
1
10
-436.77880578711813
20
-81.791544460661356
30
0
10
-437.03153424933737
20
-81.946046852476542
30
0
10
-437.11748265698736
20
-82.167056106932108
30
0
0
SPLINE
5
429
100
AcDbEntity
8
0
100
AcDbSpline
70
0
71
2
72
6
73
3
74
0
42
0.000000001
43
0.0000000001
44
0.0000000001
40
0
40
0
40
0
40
1
40
1
40
1
10
-437.11748265698736
20
-82.167056106932108
30
0
10
-437.1788739509899
20
-82.326674365408365
30
0
10
-437.1788739509899
20
-82.680699133284037
30
0
0
LINE
5
430
100
AcDbEntity
8
0
100
AcDbLine
10
-437.1788739509899
20
-82.680699133284037
30
0
11
-437.1788739509899
21
-83.310985469229166
31
0
0
LINE
5
431
100
AcDbEntity
8
0
100
AcDbLine
10
-437.1788739509899
20
-83.310985469229166
30
0
11
-434.88692306950884
21
-83.310985469229109
31
0
0
LWPOLYLINE
5
432
100
AcDbEntity
8
0
100
AcDbPolyline
90
12
70
1
43
0.0
10
-530.18316161294911
20
-133.85753982698867
10
-532.90208508408386
20
-132.58968499564244
10
-533.84821938883817
20
-134.6186765682111
10
-533.52736425477519
20
-134.7682937737716
10
-532.7490087758656
20
-133.09910505581226
10
-531.82353631224419
20
-133.53065995124689
10
-532.52492119268027
20
-135.03478468742932
10
-532.2059203003945
20
-135.18353724585256
10
-531.50453541995853
20
-133.6794125096701
10
-530.67179584295764
20
-134.06772535008747
10
-531.42074702169748
20
-135.6738563425827
10
-531.09989161753379
20
-135.82347367409324
0
ENDSEC
0
SECTION
2
OBJECTS
0
DICTIONARY
5
C
100
AcDbDictionary
3
ACAD_GROUP
350
D
3
ACAD_MLINESTYLE
350
17
0
DICTIONARY
5
D
100
AcDbDictionary
0
DICTIONARY
5
1A
330
C
100
AcDbDictionary
0
DICTIONARY
5
17
100
AcDbDictionary
0
ENDSEC
0
EOF
