0
SECTION
2
HEADER
9
$INSUNITS
70
4
9
$ACADVER
1
AC1014
9
$HANDSEED
5
FFFF
0
ENDSEC
0
SECTION
2
TABLES
0
TABLE
2
VPORT
5
8
100
AcDbSymbolTable
0
ENDTAB
0
TABLE
2
LTYPE
5
5
100
AcDbSymbolTable
0
LTYPE
5
14
100
AcDbSymbolTableRecord
100
AcDbLinetypeTableRecord
2
BYBLOCK
70
0
0
LTYPE
5
15
100
AcDbSymbolTableRecord
100
AcDbLinetypeTableRecord
2
BYLAYER
70
0
0
ENDTAB
0
TABLE
2
LAYER
5
2
100
AcDbSymbolTable
70
2
0
LAYER
5
50
100
AcDbSymbolTableRecord
100
AcDbLayerTableRecord
2
0
70
0
6
CONTINUOUS
0
ENDTAB
0
TABLE
2
STYLE
5
3
100
AcDbSymbolTable
70
1
0
STYLE
5
11
100
AcDbSymbolTableRecord
100
AcDbTextStyleTableRecord
2
STANDARD
70
0
0
ENDTAB
0
TABLE
2
VIEW
5
6
100
AcDbSymbolTable
70
0
0
ENDTAB
0
TABLE
2
UCS
5
7
100
AcDbSymbolTable
70
0
0
ENDTAB
0
TABLE
2
APPID
5
9
100
AcDbSymbolTable
70
2
0
APPID
5
12
100
AcDbSymbolTableRecord
100
AcDbRegAppTableRecord
2
ACAD
70
0
0
ENDTAB
0
TABLE
2
DIMSTYLE
5
A
100
AcDbSymbolTable
70
1
0
ENDTAB
0
TABLE
2
BLOCK_RECORD
5
1
100
AcDbSymbolTable
70
1
0
BLOCK_RECORD
5
1F
100
AcDbSymbolTableRecord
100
AcDbBlockTableRecord
2
*MODEL_SPACE
0
BLOCK_RECORD
5
1B
100
AcDbSymbolTableRecord
100
AcDbBlockTableRecord
2
*PAPER_SPACE
0
ENDTAB
0
ENDSEC
0
SECTION
2
BLOCKS
0
BLOCK
5
20
100
AcDbEntity
100
AcDbBlockBegin
2
*MODEL_SPACE
0
ENDBLK
5
21
100
AcDbEntity
100
AcDbBlockEnd
0
BLOCK
5
1C
100
AcDbEntity
100
AcDbBlockBegin
2
*PAPER_SPACE
0
ENDBLK
5
1D
100
AcDbEntity
100
AcDbBlockEnd
0
ENDSEC
0
SECTION
2
ENTITIES
0
LWPOLYLINE
5
100
100
AcDbEntity
8
0
100
AcDbPolyline
90
8
70
1
43
0.0
10
-93.181998858055294
20
17.978235872265845
10
-13.181998858083846
20
17.978235872267973
42
0.41421356237301521
10
1.8180011419264375
20
32.978235872282355
10
1.8180011419263931
20
112.97823587222584
42
0.41421356237309437
10
-13.181998858075357
20
127.9782358722276
10
-93.181998858041467
20
127.97823587223318
42
0.41421356237309576
10
-108.18199885804022
20
112.97823587223442
10
-108.18199885804938
20
32.978235872263625
42
0.41421356237300566
0
LWPOLYLINE
5
101
100
AcDbEntity
8
0
100
AcDbPolyline
90
36
70
1
43
0.0
10
-105.38199885800967
20
134.75647174437981
10
-105.38199885800411
20
146.20000000000005
10
-85.381998858087712
20
146.19999999999999
10
-85.381998858087144
20
139.75647174437026
10
-35.381998858072699
20
139.75647174437063
10
-35.381998858072585
20
146.20000000000002
10
-15.381998853276034
20
146.20000000000002
10
-15.381998853276006
20
139.75647174439064
10
6.8179932362046625
20
139.75647174439081
10
6.8180011419264561
20
124.75647174435161
10
13.018001141927275
20
124.7564717443516
10
13.018001141930441
20
104.75647174435161
10
6.8180011419264419
20
104.75647174435164
10
6.8180011419264011
20
41.200000000857514
10
13.018001141940601
20
41.200000000857514
10
13.018001141934231
20
21.200000000857511
10
6.818001141926386
20
21.200000000857528
10
6.8180011419263771
20
6.2000000008162539
10
-15.381998857862367
20
6.2000000015783456
10
-15.381998858075207
20
0
10
-35.381998858075207
20
6.9567906990641859e-10
10
-35.381998857862371
20
6.2000000004046036
10
-85.381998858075278
20
6.2000000000000011
10
-85.381998858075292
20
0
10
-105.38199885807529
20
0
10
-105.38199885807528
20
6.2000000000000011
10
-114.18199885807326
20
6.2000000000000171
10
-114.18199885807309
20
21.200000000857891
10
-120.38199885807423
20
21.200000000857912
10
-120.38199885807416
20
41.200000000857138
10
-114.18199885807329
20
41.200000000857159
10
-114.18199885807395
20
104.75647174435161
10
-120.38199885807387
20
104.75647174435274
10
-120.38199885807386
20
124.75647174434492
10
-114.18199885807417
20
124.75647174434512
10
-114.18199885807434
20
134.75647174438063
0
ENDSEC
0
SECTION
2
OBJECTS
0
DICTIONARY
5
C
100
AcDbDictionary
3
ACAD_GROUP
350
D
3
ACAD_MLINESTYLE
350
17
0
DICTIONARY
5
D
100
AcDbDictionary
0
DICTIONARY
5
1A
330
C
100
AcDbDictionary
0
DICTIONARY
5
17
100
AcDbDictionary
0
ENDSEC
0
EOF
