0
SECTION
2
HEADER
9
$INSUNITS
70
4
9
$ACADVER
1
AC1014
9
$HANDSEED
5
FFFF
0
ENDSEC
0
SECTION
2
TABLES
0
TABLE
2
VPORT
5
8
100
AcDbSymbolTable
0
ENDTAB
0
TABLE
2
LTYPE
5
5
100
AcDbSymbolTable
0
LTYPE
5
14
100
AcDbSymbolTableRecord
100
AcDbLinetypeTableRecord
2
BYBLOCK
70
0
0
LTYPE
5
15
100
AcDbSymbolTableRecord
100
AcDbLinetypeTableRecord
2
BYLAYER
70
0
0
ENDTAB
0
TABLE
2
LAYER
5
2
100
AcDbSymbolTable
70
2
0
LAYER
5
50
100
AcDbSymbolTableRecord
100
AcDbLayerTableRecord
2
0
70
0
6
CONTINUOUS
0
ENDTAB
0
TABLE
2
STYLE
5
3
100
AcDbSymbolTable
70
1
0
STYLE
5
11
100
AcDbSymbolTableRecord
100
AcDbTextStyleTableRecord
2
STANDARD
70
0
0
ENDTAB
0
TABLE
2
VIEW
5
6
100
AcDbSymbolTable
70
0
0
ENDTAB
0
TABLE
2
UCS
5
7
100
AcDbSymbolTable
70
0
0
ENDTAB
0
TABLE
2
APPID
5
9
100
AcDbSymbolTable
70
2
0
APPID
5
12
100
AcDbSymbolTableRecord
100
AcDbRegAppTableRecord
2
ACAD
70
0
0
ENDTAB
0
TABLE
2
DIMSTYLE
5
A
100
AcDbSymbolTable
70
1
0
ENDTAB
0
TABLE
2
BLOCK_RECORD
5
1
100
AcDbSymbolTable
70
1
0
BLOCK_RECORD
5
1F
100
AcDbSymbolTableRecord
100
AcDbBlockTableRecord
2
*MODEL_SPACE
0
BLOCK_RECORD
5
1B
100
AcDbSymbolTableRecord
100
AcDbBlockTableRecord
2
*PAPER_SPACE
0
ENDTAB
0
ENDSEC
0
SECTION
2
BLOCKS
0
BLOCK
5
20
100
AcDbEntity
100
AcDbBlockBegin
2
*MODEL_SPACE
0
ENDBLK
5
21
100
AcDbEntity
100
AcDbBlockEnd
0
BLOCK
5
1C
100
AcDbEntity
100
AcDbBlockBegin
2
*PAPER_SPACE
0
ENDBLK
5
1D
100
AcDbEntity
100
AcDbBlockEnd
0
ENDSEC
0
SECTION
2
ENTITIES
0
LWPOLYLINE
5
100
100
AcDbEntity
8
0
100
AcDbPolyline
90
4
70
1
43
0.0
10
417.74938156851448
20
27.818001141930981
10
411.54938156851449
20
27.818001141930921
10
411.54938156851449
20
7.8180011419309459
10
417.74938156851448
20
7.8180011419309281
0
LWPOLYLINE
5
101
100
AcDbEntity
8
0
100
AcDbPolyline
90
4
70
1
43
0.0
10
534.01427348380241
20
-131.226976179113
10
527.67499957896962
20
-117.63235936363778
10
522.0558912952107
20
-120.25259257765742
10
528.3951652000793
20
-133.84720939312081
0
LWPOLYLINE
5
102
100
AcDbEntity
8
0
100
AcDbPolyline
90
4
70
1
43
0.0
10
429.69938156851231
20
13.018001141930933
10
429.69938156851305
20
6.8180011419309317
10
449.69938156851589
20
6.8180011419307629
10
449.69938156851515
20
13.018001141930927
0
LWPOLYLINE
5
103
100
AcDbEntity
8
0
100
AcDbPolyline
90
4
70
1
43
0.0
10
438.94938156851447
20
-105.38199885806904
10
438.94938156851418
20
-85.381998858069039
10
432.74938156851448
20
-85.381998858069039
10
432.74938156851448
20
-105.38199885806904
0
LWPOLYLINE
5
104
100
AcDbEntity
8
0
100
AcDbPolyline
90
4
70
1
43
0.0
10
438.94938156851367
20
-35.381998858069053
10
438.94938156851345
20
-15.381998858069066
10
432.74938156851448
20
-15.381998858069057
10
432.74938156851448
20
-35.381998858069053
0
LWPOLYLINE
5
105
100
AcDbEntity
8
0
100
AcDbPolyline
90
4
70
1
43
0.0
10
417.74938156851448
20
-85.381998858069039
10
411.54938156851449
20
-85.381998858069039
10
411.54938156851449
20
-105.38199885806904
10
417.74938156851448
20
-105.38199885806904
0
LWPOLYLINE
5
106
100
AcDbEntity
8
0
100
AcDbPolyline
90
39
70
1
43
0.0
10
577.58630369153377
20
-140.46846326560356
10
574.9660704794145
20
-134.84935498590119
10
556.3105864706655
20
-143.54855001021861
10
558.93081968404886
20
-149.16765829263159
10
558.90193020135678
20
-149.18112967960099
10
550.95529502664749
20
-152.886706502989
10
537.98755292983196
20
-148.16682097181672
10
540.10807780546759
20
-142.34072678699138
10
521.3142253743182
20
-135.50032396287577
10
519.19370051410715
20
-141.32641810532186
10
499.23708639996426
20
-134.06280459105901
10
501.35761129768935
20
-128.23671034554229
10
482.56376033269538
20
-121.39630349319717
10
480.44323398423927
20
-127.22240172456402
10
461.64938156851451
20
-120.38199885806904
10
443.00938156849895
20
-120.38199885806904
10
443.00938156849963
20
-114.18199885806931
10
424.36938156857218
20
-114.18199885806931
10
424.36938156857445
20
-120.38199885806904
10
405.72938156859607
20
-120.38199885806904
10
405.72938156859288
20
-114.18199885806916
10
387.08938156838838
20
-114.18199885806906
10
387.08938156838838
20
-120.38199885806904
10
368.44938156851447
20
-120.38199885806904
10
368.44938156851447
20
42.818001141930928
10
387.08938156851445
20
42.818001141930928
10
387.08938156850945
20
36.618001141930925
10
405.72938156851473
20
36.618001141931146
10
405.7293815685145
20
42.818001141930928
10
424.36938156851448
20
42.818001141930928
10
424.36938156851681
20
36.618001141931359
10
443.00938156851396
20
36.618001141931195
10
443.00938156851481
20
42.818001141930928
10
467.84938156851445
20
42.818001141930928
10
486.64938156894641
20
31.963816081922509
42
-0.27775444578447983
10
491.64271988180258
20
22.938611046134739
42
0.27916707168791999
10
557.1473834344398
20
-94.728357897078709
42
-0.15525702210248429
10
577.69018257181165
20
-117.02921633321648
10
586.64938156851417
20
-136.2422806623803
0
LWPOLYLINE
5
107
100
AcDbEntity
8
0
100
AcDbPolyline
90
4
70
1
43
0.0
10
415.06459349407874
20
-14.266519383085132
10
415.0056898591194
20
-60.995184018870304
10
415.0057901161577
20
-60.995184145248928
10
415.06469375111715
20
-14.266519509463752
0
LWPOLYLINE
5
108
100
AcDbEntity
8
0
100
AcDbPolyline
90
4
70
1
43
0.0
10
396.54938156851449
20
-73.181998858069065
10
396.54938156851449
20
-83.181998858069051
10
406.54938156851449
20
-83.181998858069051
10
406.54938156851449
20
-73.181998858069065
0
LWPOLYLINE
5
109
100
AcDbEntity
8
0
100
AcDbPolyline
90
4
70
1
43
0.0
10
396.54938156851449
20
-13.181998858069068
10
396.54938156851449
20
-23.181998858069068
10
406.54938156851449
20
-23.181998858069068
10
406.54938156851449
20
-13.181998858069068
0
LWPOLYLINE
5
110
100
AcDbEntity
8
0
100
AcDbPolyline
90
12
70
1
43
0.0
10
415.04022724705749
20
-33.67596790428307
10
412.04022951131003
20
-33.672186268971124
10
412.03972907752552
20
-34.06918388218071
10
413.45377975504567
20
-34.070966358184364
10
413.45181412947227
20
-35.630310841502542
10
412.03776345195206
20
-35.62852836549888
10
412.03726301816766
20
-36.025525978708473
10
415.03726075391512
20
-36.029307614020418
10
415.03776118769957
20
-35.632310000810833
10
413.80583846706833
20
-35.630757105484804
10
413.80780409264173
20
-34.071412622166633
10
415.03972681327303
20
-34.072965517492655
0
SPLINE
5
111
100
AcDbEntity
8
0
100
AcDbSpline
70
0
71
2
72
6
73
3
74
0
42
0.000000001
43
0.0000000001
44
0.0000000001
40
0
40
0
40
0
40
1
40
1
40
1
10
413.12329134136752
20
-36.503703894219548
30
-1.3774054907225456e-16
10
413.72697445263759
20
-36.504464864584158
30
-1.3774054907225456e-16
10
414.01713782372371
20
-36.840438424199633
30
-9.6640480494683966e-17
0
SPLINE
5
112
100
AcDbEntity
8
0
100
AcDbSpline
70
0
71
2
72
6
73
3
74
0
42
0.000000001
43
0.0000000001
44
0.0000000001
40
0
40
0
40
0
40
1
40
1
40
1
10
414.01713782372371
20
-36.840438424199633
30
-9.6640480494683966e-17
10
414.25825769915048
20
-37.121096612625081
30
-6.2307014807662464e-17
10
414.25774952652887
20
-37.524233499368961
30
-1.2936945786859986e-17
0
SPLINE
5
113
100
AcDbEntity
8
0
100
AcDbSpline
70
0
71
2
72
6
73
3
74
0
42
0.000000001
43
0.0000000001
44
0.0000000001
40
0
40
0
40
0
40
1
40
1
40
1
10
414.25774952652887
20
-37.524233499368961
30
-1.2936945786859986e-17
10
414.25718460343631
20
-37.972390930636301
30
4.1946554188946811e-17
10
413.96316998805497
20
-38.256468207645788
30
7.6781347045896353e-17
0
SPLINE
5
114
100
AcDbEntity
8
0
100
AcDbSpline
70
0
71
2
72
6
73
3
74
0
42
0.000000001
43
0.0000000001
44
0.0000000001
40
0
40
0
40
0
40
1
40
1
40
1
10
413.96316998805497
20
-38.256468207645788
30
7.6781347045896353e-17
10
413.66915552168507
20
-38.540545484843115
30
1.1161613990284589e-16
10
413.15142045175713
20
-38.539892855942981
30
1.1161613990284589e-16
0
SPLINE
5
115
100
AcDbEntity
8
0
100
AcDbSpline
70
0
71
2
72
6
73
3
74
0
42
0.000000001
43
0.0000000001
44
0.0000000001
40
0
40
0
40
0
40
1
40
1
40
1
10
413.15142045175713
20
-38.539892855942981
30
1.1161613990284589e-16
10
412.73191197023976
20
-38.539364046181404
30
1.1161613990284589e-16
10
412.49162059950976
20
-38.413209416689746
30
9.6203760175531884e-17
0
SPLINE
5
116
100
AcDbEntity
8
0
100
AcDbSpline
70
0
71
2
72
6
73
3
74
0
42
0.000000001
43
0.0000000001
44
0.0000000001
40
0
40
0
40
0
40
1
40
1
40
1
10
412.49162059950976
20
-38.413209416689746
30
9.6203760175531884e-17
10
412.25132922877975
20
-38.287054787198088
30
8.0791380448217874e-17
10
412.11861751803463
20
-38.046435017356885
30
5.134446776987863e-17
0
SPLINE
5
117
100
AcDbEntity
8
0
100
AcDbSpline
70
0
71
2
72
6
73
3
74
0
42
0.000000001
43
0.0000000001
44
0.0000000001
40
0
40
0
40
0
40
1
40
1
40
1
10
412.11861751803463
20
-38.046435017356885
30
5.134446776987863e-17
10
411.98590550626113
20
-37.805817631323897
30
2.1897847070089556e-17
10
411.98626406537124
20
-37.521370187331037
30
-1.2936945786859986e-17
0
SPLINE
5
118
100
AcDbEntity
8
0
100
AcDbSpline
70
0
71
2
72
6
73
3
74
0
42
0.000000001
43
0.0000000001
44
0.0000000001
40
0
40
0
40
0
40
1
40
1
40
1
10
411.98626406537124
20
-37.521370187331037
30
-1.2936945786859986e-17
10
411.98683930591153
20
-37.065027852745942
30
-6.8822808123972202e-17
10
412.27982694046227
20
-36.784017730730703
30
-1.0328182458738822e-16
0
SPLINE
5
119
100
AcDbEntity
8
0
100
AcDbSpline
70
0
71
2
72
6
73
3
74
0
42
0.000000001
43
0.0000000001
44
0.0000000001
40
0
40
0
40
0
40
1
40
1
40
1
10
412.27982694046227
20
-36.784017730730703
30
-1.0328182458738822e-16
10
412.5728142739847
20
-36.50300999252368
30
-1.3774054907225456e-16
10
413.12329134136752
20
-36.503703894219548
30
-1.3774054907225456e-16
0
SPLINE
5
120
100
AcDbEntity
8
0
100
AcDbSpline
70
0
71
2
72
6
73
3
74
0
42
0.000000001
43
0.0000000001
44
0.0000000001
40
0
40
0
40
0
40
1
40
1
40
1
10
413.12281412409453
20
-36.882283686826277
30
-9.1377859113918012e-17
10
412.70535216642969
20
-36.881757456802269
30
-9.1377859113918012e-17
10
412.49741457100646
20
-37.063623439160722
30
-6.907361769821106e-17
0
SPLINE
5
121
100
AcDbEntity
8
0
100
AcDbSpline
70
0
71
2
72
6
73
3
74
0
42
0.000000001
43
0.0000000001
44
0.0000000001
40
0
40
0
40
0
40
1
40
1
40
1
10
412.49741457100646
20
-37.063623439160722
30
-6.907361769821106e-17
10
412.28947697558328
20
-37.245489421519181
30
-4.6769376282503616e-17
10
412.28912873392096
20
-37.521751962194294
30
-1.2936945786859986e-17
0
SPLINE
5
122
100
AcDbEntity
8
0
100
AcDbSpline
70
0
71
2
72
6
73
3
74
0
42
0.000000001
43
0.0000000001
44
0.0000000001
40
0
40
0
40
0
40
1
40
1
40
1
10
412.28912873392096
20
-37.521751962194294
30
-1.2936945786859986e-17
10
412.28878307086927
20
-37.79596887308594
30
2.0644967113094954e-17
10
412.49728461821923
20
-37.978359796163119
30
4.2949208528802399e-17
0
SPLINE
5
123
100
AcDbEntity
8
0
100
AcDbSpline
70
0
71
2
72
6
73
3
74
0
42
0.000000001
43
0.0000000001
44
0.0000000001
40
0
40
0
40
0
40
1
40
1
40
1
10
412.49728461821923
20
-37.978359796163119
30
4.2949208528802399e-17
10
412.70578616556918
20
-38.160750719240312
30
6.525344994450935e-17
10
413.13348014645015
20
-38.16128984720082
30
6.525344994450935e-17
0
SPLINE
5
124
100
AcDbEntity
8
0
100
AcDbSpline
70
0
71
2
72
6
73
3
74
0
42
0.000000001
43
0.0000000001
44
0.0000000001
40
0
40
0
40
0
40
1
40
1
40
1
10
413.13348014645015
20
-38.16128984720082
30
6.525344994450935e-17
10
413.53661777825153
20
-38.161798020752357
30
6.525344994450935e-17
10
413.74455651697394
20
-37.978906839130445
30
4.2823657752407885e-17
0
SPLINE
5
125
100
AcDbEntity
8
0
100
AcDbSpline
70
0
71
2
72
6
73
3
74
0
42
0.000000001
43
0.0000000001
44
0.0000000001
40
0
40
0
40
0
40
1
40
1
40
1
10
413.74455651697394
20
-37.978906839130445
30
4.2823657752407885e-17
10
413.95249525269094
20
-37.796018041692413
30
2.0394157538856589e-17
10
413.95283833412668
20
-37.523849144768128
30
-1.2936945786859986e-17
0
SPLINE
5
126
100
AcDbEntity
8
0
100
AcDbSpline
70
0
71
2
72
6
73
3
74
0
42
0.000000001
43
0.0000000001
44
0.0000000001
40
0
40
0
40
0
40
1
40
1
40
1
10
413.95283833412668
20
-37.523849144768128
30
-1.2936945786859986e-17
10
413.953186575789
20
-37.247586604093016
30
-4.6769376282503616e-17
10
413.74673155229146
20
-37.065198260753405
30
-6.907361769821106e-17
0
SPLINE
5
127
100
AcDbEntity
8
0
100
AcDbSpline
70
0
71
2
72
6
73
3
74
0
42
0.000000001
43
0.0000000001
44
0.0000000001
40
0
40
0
40
0
40
1
40
1
40
1
10
413.74673155229146
20
-37.065198260753405
30
-6.907361769821106e-17
10
413.54027637978243
20
-36.882809917225956
30
-9.1377859113918012e-17
10
413.12281412409453
20
-36.882283686826277
30
-9.1377859113918012e-17
0
LINE
5
128
100
AcDbEntity
8
0
100
AcDbLine
10
412.03175565590607
20
-40.394554890532994
30
3.3891939703647727e-16
11
412.35099132318328
21
-40.394957301794115
31
3.3891939703647727e-16
0
SPLINE
5
129
100
AcDbEntity
8
0
100
AcDbSpline
70
0
71
2
72
6
73
3
74
0
42
0.000000001
43
0.0000000001
44
0.0000000001
40
0
40
0
40
0
40
1
40
1
40
1
10
412.35099132318328
20
-40.394957301794108
30
3.3891939703647727e-16
10
411.98296222662486
20
-40.140741904642283
30
3.0784382800761088e-16
10
411.98351167504836
20
-39.704860636259617
30
2.5446372558448688e-16
0
SPLINE
5
130
100
AcDbEntity
8
0
100
AcDbSpline
70
0
71
2
72
6
73
3
74
0
42
0.000000001
43
0.0000000001
44
0.0000000001
40
0
40
0
40
0
40
1
40
1
40
1
10
411.98351167504836
20
-39.704860636259617
30
2.5446372558448688e-16
10
411.98375415160081
20
-39.512502295281053
30
2.3090660421178533e-16
10
412.0576341788011
20
-39.345814343313556
30
2.1048182872084487e-16
0
SPLINE
5
131
100
AcDbEntity
8
0
100
AcDbSpline
70
0
71
2
72
6
73
3
74
0
42
0.000000001
43
0.0000000001
44
0.0000000001
40
0
40
0
40
0
40
1
40
1
40
1
10
412.0576341788011
20
-39.345814343313556
30
2.1048182872084487e-16
10
412.13151420600127
20
-39.179126391346067
30
1.9005705322990392e-16
10
412.24314404755552
20
-39.098435990810401
30
1.8015810445759472e-16
0
SPLINE
5
132
100
AcDbEntity
8
0
100
AcDbSpline
70
0
71
2
72
6
73
3
74
0
42
0.000000001
43
0.0000000001
44
0.0000000001
40
0
40
0
40
0
40
1
40
1
40
1
10
412.24314404755552
20
-39.098435990810401
30
1.8015810445759472e-16
10
412.35477389211508
20
-39.017743206090849
30
1.7025886370673535e-16
10
412.51647952240262
20
-38.985204994004079
30
1.66249122282964e-16
0
SPLINE
5
133
100
AcDbEntity
8
0
100
AcDbSpline
70
0
71
2
72
6
73
3
74
0
42
0.000000001
43
0.0000000001
44
0.0000000001
40
0
40
0
40
0
40
1
40
1
40
1
10
412.51647952240262
20
-38.985204994004079
30
1.66249122282964e-16
10
412.62496620973923
20
-38.962832630533683
30
1.6349255279473643e-16
10
412.86030006150378
20
-38.963129279692225
30
1.6349255279473643e-16
0
LINE
5
134
100
AcDbEntity
8
0
100
AcDbLine
10
412.86030006150384
20
-38.963129279692225
30
1.6349255279473643e-16
11
414.2068202202617
21
-38.964826630366836
31
1.6349255279473643e-16
0
LINE
5
135
100
AcDbEntity
8
0
100
AcDbLine
10
414.2068202202617
20
-38.964826630366836
30
1.6349255279473643e-16
11
414.20635590205251
21
-39.33317350568845
31
2.0860207081752865e-16
0
LINE
5
136
100
AcDbEntity
8
0
100
AcDbLine
10
414.20635590205251
20
-39.33317350568845
30
2.0860207081752865e-16
11
413.00103605435322
21
-39.33165414450896
31
2.086020708175287e-16
0
SPLINE
5
137
100
AcDbEntity
8
0
100
AcDbSpline
70
0
71
2
72
6
73
3
74
0
42
0.000000001
43
0.0000000001
44
0.0000000001
40
0
40
0
40
0
40
1
40
1
40
1
10
413.00103605435322
20
-39.331654144508967
30
2.086020708175287e-16
10
412.71249615870153
20
-39.331290426681683
30
2.086020708175287e-16
10
412.61219496772327
20
-39.353675492534911
30
2.1135893228430595e-16
0
SPLINE
5
138
100
AcDbEntity
8
0
100
AcDbSpline
70
0
71
2
72
6
73
3
74
0
42
0.000000001
43
0.0000000001
44
0.0000000001
40
0
40
0
40
0
40
1
40
1
40
1
10
412.61219496772327
20
-39.353675492534911
30
2.1135893228430595e-16
10
412.46685805257022
20
-39.388282355362577
30
2.1561948328231616e-16
10
412.38383777332081
20
-39.50072805253334
30
2.2940291468055236e-16
0
SPLINE
5
139
100
AcDbEntity
8
0
100
AcDbSpline
70
0
71
2
72
6
73
3
74
0
42
0.000000001
43
0.0000000001
44
0.0000000001
40
0
40
0
40
0
40
1
40
1
40
1
10
412.38383777332081
20
-39.50072805253334
30
2.2940291468055236e-16
10
412.30081719604846
20
-39.613173749328439
30
2.4318634607878906e-16
10
412.30060825045001
20
-39.77893175057028
30
2.6348586277188517e-16
0
SPLINE
5
140
100
AcDbEntity
8
0
100
AcDbSpline
70
0
71
2
72
6
73
3
74
0
42
0.000000001
43
0.0000000001
44
0.0000000001
40
0
40
0
40
0
40
1
40
1
40
1
10
412.30060825045001
20
-39.77893175057028
30
2.6348586277188517e-16
10
412.30039930485157
20
-39.944689751812128
30
2.8378537946498178e-16
10
412.38514108580802
20
-40.090088970267281
30
3.0157855228698983e-16
0
SPLINE
5
141
100
AcDbEntity
8
0
100
AcDbSpline
70
0
71
2
72
6
73
3
74
0
42
0.000000001
43
0.0000000001
44
0.0000000001
40
0
40
0
40
0
40
1
40
1
40
1
10
412.38514108580802
20
-40.090088970267281
30
3.0157855228698983e-16
10
412.46988286676446
20
-40.235488188722442
30
3.1937172510899788e-16
10
412.61612324238166
20
-40.296040163640896
30
3.267646219887687e-16
0
SPLINE
5
142
100
AcDbEntity
8
0
100
AcDbSpline
70
0
71
2
72
6
73
3
74
0
42
0.000000001
43
0.0000000001
44
0.0000000001
40
0
40
0
40
0
40
1
40
1
40
1
10
412.61612324238166
20
-40.296040163640896
30
3.267646219887687e-16
10
412.76236331697049
20
-40.356594522367573
30
3.3415781084708968e-16
10
413.04067148742911
20
-40.35694534263402
30
3.3415781084708968e-16
0
LINE
5
143
100
AcDbEntity
8
0
100
AcDbLine
10
413.04067148742917
20
-40.35694534263402
30
3.3415781084708968e-16
11
414.20506354028669
21
-40.358413112443159
31
3.3415781084708968e-16
0
LINE
5
144
100
AcDbEntity
8
0
100
AcDbLine
10
414.20506354028669
20
-40.358413112443159
30
3.3415781084708968e-16
11
414.20459921907207
21
-40.726762371948688
31
3.7926762084843162e-16
0
LINE
5
145
100
AcDbEntity
8
0
100
AcDbLine
10
414.20459921907207
20
-40.726762371948688
30
3.7926762084843162e-16
11
412.03134034632512
21
-40.724022879049315
31
3.7926762084843162e-16
0
LINE
5
146
100
AcDbEntity
8
0
100
AcDbLine
10
412.03134034632512
20
-40.724022879049315
30
3.7926762084843162e-16
11
412.03175565590607
21
-40.394554890532994
31
3.3891939703647727e-16
0
LINE
5
147
100
AcDbEntity
8
0
100
AcDbLine
10
412.67950199751465
20
-41.154580210172554
30
4.3189558652738872e-16
11
412.73634163009575
21
-41.518908053695462
31
4.7650406935880312e-16
0
SPLINE
5
148
100
AcDbEntity
8
0
100
AcDbSpline
70
0
71
2
72
6
73
3
74
0
42
0.000000001
43
0.0000000001
44
0.0000000001
40
0
40
0
40
0
40
1
40
1
40
1
10
412.73634163009575
20
-41.518908053695455
30
4.7650406935880312e-16
10
412.51734008287269
20
-41.549328408606215
30
4.8026329318688578e-16
10
412.40051956896076
20
-41.689359465920859
30
4.9743017201967161e-16
0
SPLINE
5
149
100
AcDbEntity
8
0
100
AcDbSpline
70
0
71
2
72
6
73
3
74
0
42
0.000000001
43
0.0000000001
44
0.0000000001
40
0
40
0
40
0
40
1
40
1
40
1
10
412.40051956896076
20
-41.689359465920859
30
4.9743017201967161e-16
10
412.28369876003114
20
-41.829388138675938
30
5.1459675887390777e-16
10
412.28338147071219
20
-42.081095969397794
30
5.4542210228563515e-16
0
SPLINE
5
150
100
AcDbEntity
8
0
100
AcDbSpline
70
0
71
2
72
6
73
3
74
0
42
0.000000001
43
0.0000000001
44
0.0000000001
40
0
40
0
40
0
40
1
40
1
40
1
10
412.28338147071219
20
-42.081095969397794
30
5.4542210228563515e-16
10
412.28306160879345
20
-42.334844661535328
30
5.7649737933595235e-16
10
412.38624928305711
20
-42.457760400140032
30
5.9153427464828251e-16
0
SPLINE
5
151
100
AcDbEntity
8
0
100
AcDbSpline
70
0
71
2
72
6
73
3
74
0
42
0.000000001
43
0.0000000001
44
0.0000000001
40
0
40
0
40
0
40
1
40
1
40
1
10
412.38624928305711
20
-42.457760400140032
30
5.9153427464828251e-16
10
412.48943696333157
20
-42.580671370376947
30
6.0657058600351332e-16
10
412.62859104856085
20
-42.580846780510171
30
6.0657058600351332e-16
0
SPLINE
5
152
100
AcDbEntity
8
0
100
AcDbSpline
70
0
71
2
72
6
73
3
74
0
42
0.000000001
43
0.0000000001
44
0.0000000001
40
0
40
0
40
0
40
1
40
1
40
1
10
412.62859104856085
20
-42.580846780510171
30
6.0657058600351332e-16
10
412.75342036089216
20
-42.581004133607429
30
6.0657058600351332e-16
10
412.82518034378404
20
-42.472637892570035
30
5.9328848177520466e-16
0
SPLINE
5
153
100
AcDbEntity
8
0
100
AcDbSpline
70
0
71
2
72
6
73
3
74
0
42
0.000000001
43
0.0000000001
44
0.0000000001
40
0
40
0
40
0
40
1
40
1
40
1
10
412.82518034378404
20
-42.472637892570035
30
5.9328848177520466e-16
10
412.87438908264613
20
-42.396982889944404
30
5.8401582699211718e-16
10
412.95048429477765
20
-42.096261082844023
30
5.471763094125573e-16
0
SPLINE
5
154
100
AcDbEntity
8
0
100
AcDbSpline
70
0
71
2
72
6
73
3
74
0
42
0.000000001
43
0.0000000001
44
0.0000000001
40
0
40
0
40
0
40
1
40
1
40
1
10
412.95048429477765
20
-42.096261082844023
30
5.471763094125573e-16
10
413.05331438710789
20
-41.691205160370814
30
4.9755543081751596e-16
10
413.1282046281591
20
-41.534751415369371
30
4.7838382726211929e-16
0
SPLINE
5
155
100
AcDbEntity
8
0
100
AcDbSpline
70
0
71
2
72
6
73
3
74
0
42
0.000000001
43
0.0000000001
44
0.0000000001
40
0
40
0
40
0
40
1
40
1
40
1
10
413.1282046281591
20
-41.534751415369371
30
4.7838382726211929e-16
10
413.2030948692103
20
-41.378297670367928
30
4.5921222370672261e-16
10
413.33518861119069
20
-41.297630681333558
30
4.4931298295586374e-16
0
SPLINE
5
156
100
AcDbEntity
8
0
100
AcDbSpline
70
0
71
2
72
6
73
3
74
0
42
0.000000001
43
0.0000000001
44
0.0000000001
40
0
40
0
40
0
40
1
40
1
40
1
10
413.33518861119069
20
-41.297630681333558
30
4.4931298295586374e-16
10
413.46728220115426
20
-41.216966076295236
30
4.3941403418355405e-16
10
413.62690018380431
20
-41.217167282113621
30
4.3941403418355405e-16
0
SPLINE
5
157
100
AcDbEntity
8
0
100
AcDbSpline
70
0
71
2
72
6
73
3
74
0
42
0.000000001
43
0.0000000001
44
0.0000000001
40
0
40
0
40
0
40
1
40
1
40
1
10
413.62690018380431
20
-41.217167282113621
30
4.3941403418355405e-16
10
413.77219339355639
20
-41.217350430896062
30
4.3941403418355405e-16
10
413.89591575807469
20
-41.284013304113891
30
4.4755877582894159e-16
0
SPLINE
5
158
100
AcDbEntity
8
0
100
AcDbSpline
70
0
71
2
72
6
73
3
74
0
42
0.000000001
43
0.0000000001
44
0.0000000001
40
0
40
0
40
0
40
1
40
1
40
1
10
413.89591575807469
20
-41.284013304113891
30
4.4755877582894159e-16
10
414.0196379735815
20
-41.350676177143882
30
4.5570351747432913e-16
10
414.10134895796273
20
-41.465377542880823
30
4.697377584468042e-16
0
SPLINE
5
159
100
AcDbEntity
8
0
100
AcDbSpline
70
0
71
2
72
6
73
3
74
0
42
0.000000001
43
0.0000000001
44
0.0000000001
40
0
40
0
40
0
40
1
40
1
40
1
10
414.10134895796273
20
-41.465377542880823
30
4.697377584468042e-16
10
414.16467838632803
20
-41.551404954406514
30
4.8026329318688578e-16
10
414.20848865053307
20
-41.699823410538258
30
4.9843253438097703e-16
0
SPLINE
5
160
100
AcDbEntity
8
0
100
AcDbSpline
70
0
71
2
72
6
73
3
74
0
42
0.000000001
43
0.0000000001
44
0.0000000001
40
0
40
0
40
0
40
1
40
1
40
1
10
414.20848865053307
20
-41.699823410538258
30
4.9843253438097703e-16
10
414.25229891473811
20
-41.848241866670001
30
5.1660177557506829e-16
10
414.25208481191845
20
-42.018091127478776
30
5.3740232745954227e-16
0
SPLINE
5
161
100
AcDbEntity
8
0
100
AcDbSpline
70
0
71
2
72
6
73
3
74
0
42
0.000000001
43
0.0000000001
44
0.0000000001
40
0
40
0
40
0
40
1
40
1
40
1
10
414.25208481191845
20
-42.018091127478776
30
5.3740232745954227e-16
10
414.25176236537828
20
-42.273890217767558
30
5.6872870606264752e-16
10
414.1778488042188
20
-42.467180893655666
30
5.9241137821174358e-16
0
SPLINE
5
162
100
AcDbEntity
8
0
100
AcDbSpline
70
0
71
2
72
6
73
3
74
0
42
0.000000001
43
0.0000000001
44
0.0000000001
40
0
40
0
40
0
40
1
40
1
40
1
10
414.1778488042188
20
-42.467180893655666
30
5.9241137821174358e-16
10
414.10393524606457
20
-42.660469185359879
30
6.1609375838228948e-16
10
413.97796658924938
20
-42.752399645408133
30
6.2737142986653747e-16
0
SPLINE
5
163
100
AcDbEntity
8
0
100
AcDbSpline
70
0
71
2
72
6
73
3
74
0
42
0.000000001
43
0.0000000001
44
0.0000000001
40
0
40
0
40
0
40
1
40
1
40
1
10
413.97796658924938
20
-42.752399645408133
30
6.2737142986653747e-16
10
413.85199793543961
20
-42.844327721272499
30
6.3864880937223529e-16
10
413.64117658134768
20
-42.878849653761293
30
6.4290906839169583e-16
0
LINE
5
164
100
AcDbEntity
8
0
100
AcDbLine
10
413.64117658134768
20
-42.878849653761286
30
6.4290906839169583e-16
11
413.59251743691522
21
-42.518625772375984
31
5.9880191273020908e-16
0
SPLINE
5
165
100
AcDbEntity
8
0
100
AcDbSpline
70
0
71
2
72
6
73
3
74
0
42
0.000000001
43
0.0000000001
44
0.0000000001
40
0
40
0
40
0
40
1
40
1
40
1
10
413.59251743691522
20
-42.51862577237597
30
5.9880191273020898e-16
10
413.76035172526628
20
-42.494280202068339
30
5.9579453366774304e-16
10
413.85463373918986
20
-42.376732234060299
30
5.8138451630173445e-16
0
SPLINE
5
166
100
AcDbEntity
8
0
100
AcDbSpline
70
0
71
2
72
6
73
3
74
0
42
0.000000001
43
0.0000000001
44
0.0000000001
40
0
40
0
40
0
40
1
40
1
40
1
10
413.85463373918986
20
-42.376732234060299
30
5.8138451630173445e-16
10
413.94891575611894
20
-42.259181881868372
30
5.6697420695717619e-16
10
413.949186606404
20
-42.044314460720017
30
5.4066051609624706e-16
0
SPLINE
5
167
100
AcDbEntity
8
0
100
AcDbSpline
70
0
71
2
72
6
73
3
74
0
42
0.000000001
43
0.0000000001
44
0.0000000001
40
0
40
0
40
0
40
1
40
1
40
1
10
413.949186606404
20
-42.044314460720017
30
5.4066051609624706e-16
10
413.94950647433353
20
-41.790561000214694
30
5.0958465508883051e-16
10
413.86574137326875
20
-41.681998712646205
30
4.9630255086052185e-16
0
SPLINE
5
168
100
AcDbEntity
8
0
100
AcDbSpline
70
0
71
2
72
6
73
3
74
0
42
0.000000001
43
0.0000000001
44
0.0000000001
40
0
40
0
40
0
40
1
40
1
40
1
10
413.86574137326875
20
-41.681998712646205
30
4.9630255086052185e-16
10
413.78197642422089
20
-41.573434041081669
30
4.8302015465366302e-16
10
413.66942536093518
20
-41.573292165282808
30
4.8302015465366302e-16
0
SPLINE
5
169
100
AcDbEntity
8
0
100
AcDbSpline
70
0
71
2
72
6
73
3
74
0
42
0.000000001
43
0.0000000001
44
0.0000000001
40
0
40
0
40
0
40
1
40
1
40
1
10
413.66942536093518
20
-41.573292165282808
30
4.8302015465366302e-16
10
413.59780194347957
20
-41.57320188066646
30
4.8302015465366302e-16
10
413.54044639943965
20
-41.61815019742172
30
4.8853358560866734e-16
0
SPLINE
5
170
100
AcDbEntity
8
0
100
AcDbSpline
70
0
71
2
72
6
73
3
74
0
42
0.000000001
43
0.0000000001
44
0.0000000001
40
0
40
0
40
0
40
1
40
1
40
1
10
413.54044639943965
20
-41.61815019742172
30
4.8853358560866734e-16
10
413.48104463257573
20
-41.663093550631189
30
4.9404672458512248e-16
10
413.44204211880225
20
-41.759227285763536
30
5.0582572323929752e-16
0
SPLINE
5
171
100
AcDbEntity
8
0
100
AcDbSpline
70
0
71
2
72
6
73
3
74
0
42
0.000000001
43
0.0000000001
44
0.0000000001
40
0
40
0
40
0
40
1
40
1
40
1
10
413.44204211880225
20
-41.759227285763536
30
5.0582572323929752e-16
10
413.42150857485223
20
-41.814452567703043
30
5.1259203415129644e-16
10
413.34749827973064
20
-42.08448297067779
30
5.4567261988132384e-16
0
SPLINE
5
172
100
AcDbEntity
8
0
100
AcDbSpline
70
0
71
2
72
6
73
3
74
0
42
0.000000001
43
0.0000000001
44
0.0000000001
40
0
40
0
40
0
40
1
40
1
40
1
10
413.34749827973064
20
-42.08448297067779
30
5.4567261988132384e-16
10
413.2426400208613
20
-42.47520975275318
30
5.9353899937089335e-16
10
413.17593785778445
20
-42.629628186170088
30
6.1246008533060133e-16
0
SPLINE
5
173
100
AcDbEntity
8
0
100
AcDbSpline
70
0
71
2
72
6
73
3
74
0
42
0.000000001
43
0.0000000001
44
0.0000000001
40
0
40
0
40
0
40
1
40
1
40
1
10
413.17593785778445
20
-42.629628186170088
30
6.1246008533060133e-16
10
413.10923569470754
20
-42.784046619586995
30
6.3138117129030882e-16
10
412.98224893619278
20
-42.871882146015643
30
6.4215751560462926e-16
0
SPLINE
5
174
100
AcDbEntity
8
0
100
AcDbSpline
70
0
71
2
72
6
73
3
74
0
42
0.000000001
43
0.0000000001
44
0.0000000001
40
0
40
0
40
0
40
1
40
1
40
1
10
412.98224893619278
20
-42.871882146015643
30
6.4215751560462926e-16
10
412.85526218068333
20
-42.959715288260405
30
6.5293356794039954e-16
10
412.66699509927173
20
-42.95947796893357
30
6.5293356794039954e-16
0
SPLINE
5
175
100
AcDbEntity
8
0
100
AcDbSpline
70
0
71
2
72
6
73
3
74
0
42
0.000000001
43
0.0000000001
44
0.0000000001
40
0
40
0
40
0
40
1
40
1
40
1
10
412.66699509927173
20
-42.95947796893357
30
6.5293356794039954e-16
10
412.48282046951891
20
-42.959245808330536
30
6.5293356794039954e-16
10
412.32026842425574
20
-42.851607022707285
30
6.3977672250993522e-16
0
SPLINE
5
176
100
AcDbEntity
8
0
100
AcDbSpline
70
0
71
2
72
6
73
3
74
0
42
0.000000001
43
0.0000000001
44
0.0000000001
40
0
40
0
40
0
40
1
40
1
40
1
10
412.32026842425574
20
-42.851607022707285
30
6.3977672250993522e-16
10
412.15771638199789
20
-42.743965852900132
30
6.2661958510092074e-16
10
412.06895408251023
20
-42.541259999569562
30
6.0180899981412523e-16
0
SPLINE
5
177
100
AcDbEntity
8
0
100
AcDbSpline
70
0
71
2
72
6
73
3
74
0
42
0.000000001
43
0.0000000001
44
0.0000000001
40
0
40
0
40
0
40
1
40
1
40
1
10
412.06895408251023
20
-42.541259999569562
30
6.0180899981412523e-16
10
411.98019178001709
20
-42.338556530422899
30
5.769987065058799e-16
10
411.98051422355184
20
-42.082759824318003
30
5.4567261988132384e-16
0
SPLINE
5
178
100
AcDbEntity
8
0
100
AcDbSpline
70
0
71
2
72
6
73
3
74
0
42
0.000000001
43
0.0000000001
44
0.0000000001
40
0
40
0
40
0
40
1
40
1
40
1
10
411.98051422355184
20
-42.082759824318003
30
5.4567261988132384e-16
10
411.98104819430108
20
-41.659157103003906
30
4.937962069894333e-16
10
412.15731720612303
20
-41.437347051649752
30
4.6660512058649392e-16
0
SPLINE
5
179
100
AcDbEntity
8
0
100
AcDbSpline
70
0
71
2
72
6
73
3
74
0
42
0.000000001
43
0.0000000001
44
0.0000000001
40
0
40
0
40
0
40
1
40
1
40
1
10
412.15731720612303
20
-41.437347051649752
30
4.6660512058649392e-16
10
412.33358591992209
20
-41.215536999919919
30
4.3941403418355405e-16
10
412.67950199751465
20
-41.154580210172554
30
4.3189558652738872e-16
0
LWPOLYLINE
5
180
100
AcDbEntity
8
0
100
AcDbPolyline
90
4
70
1
43
0.0
10
415.02796659980243
20
-43.402424925113294
10
414.60436536860323
20
-43.401890956252259
10
414.60390104438324
20
-43.770242599941668
10
415.02750227558244
20
-43.77077656880271
0
LWPOLYLINE
5
181
100
AcDbEntity
8
0
100
AcDbPolyline
90
4
70
1
43
0.0
10
414.20122773680191
20
-43.401382782700715
10
412.02796886405497
20
-43.398643289801349
10
412.02750453983498
20
-43.766994933490757
10
414.20076341258198
20
-43.76973442639013
0
LINE
5
182
100
AcDbEntity
8
0
100
AcDbLine
10
412.02679774206797
20
-44.327702533974843
30
8.2059144693028635e-16
11
414.20005661481497
21
-44.330442026874202
31
8.2059144693028635e-16
0
LINE
5
183
100
AcDbEntity
8
0
100
AcDbLine
10
414.20005661481497
20
-44.330442026874202
30
8.2059144693028635e-16
11
414.19963872662345
21
-44.66195564517399
31
8.611901883379291e-16
0
LINE
5
184
100
AcDbEntity
8
0
100
AcDbLine
10
414.19963872662345
20
-44.66195564517399
30
8.611901883379291e-16
11
413.89063493355087
21
-44.66156613166153
31
8.611901883379294e-16
0
SPLINE
5
185
100
AcDbEntity
8
0
100
AcDbSpline
70
0
71
2
72
6
73
3
74
0
42
0.000000001
43
0.0000000001
44
0.0000000001
40
0
40
0
40
0
40
1
40
1
40
1
10
413.89063493355087
20
-44.661566131661544
30
8.611901883379294e-16
10
414.2484500631781
20
-44.901444454024819
30
8.9051155023987413e-16
10
414.24787997985896
20
-45.353695529042994
30
9.4589637738560857e-16
0
SPLINE
5
186
100
AcDbEntity
8
0
100
AcDbSpline
70
0
71
2
72
6
73
3
74
0
42
0.000000001
43
0.0000000001
44
0.0000000001
40
0
40
0
40
0
40
1
40
1
40
1
10
414.24787997985896
20
-45.353695529042994
30
9.4589637738560857e-16
10
414.24763234308
20
-45.550147513772373
30
9.6995482592823807e-16
10
414.17682453125747
20
-45.714793705374923
30
9.9012908382348983e-16
0
SPLINE
5
187
100
AcDbEntity
8
0
100
AcDbSpline
70
0
71
2
72
6
73
3
74
0
42
0.000000001
43
0.0000000001
44
0.0000000001
40
0
40
0
40
0
40
1
40
1
40
1
10
414.17682453125747
20
-45.714793705374923
30
9.9012908382348983e-16
10
414.10601672244042
20
-45.879437512793579
30
1.0103030497401919e-15
10
413.99131595180836
20
-45.961149242986338
30
1.0203275492888957e-15
0
SPLINE
5
188
100
AcDbEntity
8
0
100
AcDbSpline
70
0
71
2
72
6
73
3
74
0
42
0.000000001
43
0.0000000001
44
0.0000000001
40
0
40
0
40
0
40
1
40
1
40
1
10
413.99131595180836
20
-45.961149242986338
30
1.0203275492888957e-15
10
413.87661533319317
20
-46.042858589183055
30
1.0303517568590493e-15
10
413.71900259859365
20
-46.075404344741017
30
1.0343617902613707e-15
0
SPLINE
5
189
100
AcDbEntity
8
0
100
AcDbSpline
70
0
71
2
72
6
73
3
74
0
42
0.000000001
43
0.0000000001
44
0.0000000001
40
0
40
0
40
0
40
1
40
1
40
1
10
413.71900259859365
20
-46.075404344741017
30
1.0343617902613707e-15
10
413.61665761739579
20
-46.095736432893261
30
1.0368675501753593e-15
10
413.36085971919897
20
-46.095413987861711
30
1.0368675501753593e-15
0
LINE
5
190
100
AcDbEntity
8
0
100
AcDbLine
10
413.36085971919897
20
-46.095413987861711
30
1.0368675501753593e-15
11
412.02457158365718
21
-46.0937295351236
31
1.0368675501753593e-15
0
LINE
5
191
100
AcDbEntity
8
0
100
AcDbLine
10
412.02457158365718
20
-46.0937295351236
30
1.0368675501753593e-15
11
412.02503590186637
21
-45.725382659801994
31
9.9175803215256724e-16
0
LINE
5
192
100
AcDbEntity
8
0
100
AcDbLine
10
412.02503590186637
20
-45.725382659801994
30
9.9175803215256724e-16
11
413.34699941352164
21
-45.727049055691971
31
9.9175803215256724e-16
0
SPLINE
5
193
100
AcDbEntity
8
0
100
AcDbSpline
70
0
71
2
72
6
73
3
74
0
42
0.000000001
43
0.0000000001
44
0.0000000001
40
0
40
0
40
0
40
1
40
1
40
1
10
413.3469994135217
20
-45.727049055691964
30
9.9175803215256724e-16
10
413.57210154009306
20
-45.72733280728967
30
9.9175803215256724e-16
10
413.68368366232431
20
-45.684498478667564
30
9.8649511879325152e-16
0
SPLINE
5
194
100
AcDbEntity
8
0
100
AcDbSpline
70
0
71
2
72
6
73
3
74
0
42
0.000000001
43
0.0000000001
44
0.0000000001
40
0
40
0
40
0
40
1
40
1
40
1
10
413.68368366232431
20
-45.684498478667564
30
9.8649511879325152e-16
10
413.79526563554401
20
-45.641664149857633
30
9.8123220543393579e-16
10
413.86191104815003
20
-45.532266260964192
30
9.6782455042923262e-16
0
SPLINE
5
195
100
AcDbEntity
8
0
100
AcDbSpline
70
0
71
2
72
6
73
3
74
0
42
0.000000001
43
0.0000000001
44
0.0000000001
40
0
40
0
40
0
40
1
40
1
40
1
10
413.86191104815003
20
-45.532266260964192
30
9.6782455042923262e-16
10
413.92855660976755
20
-45.422868372258591
30
9.5441689542452944e-16
10
413.92874233584911
20
-45.275530575803501
30
9.363732050068328e-16
0
SPLINE
5
196
100
AcDbEntity
8
0
100
AcDbSpline
70
0
71
2
72
6
73
3
74
0
42
0.000000001
43
0.0000000001
44
0.0000000001
40
0
40
0
40
0
40
1
40
1
40
1
10
413.92874233584911
20
-45.275530575803501
30
9.363732050068328e-16
10
413.92903898426175
20
-45.040197320084935
30
9.0755317027481562e-16
10
413.77986841995812
20
-44.869134552318641
30
8.8662706761394712e-16
0
SPLINE
5
197
100
AcDbEntity
8
0
100
AcDbSpline
70
0
71
2
72
6
73
3
74
0
42
0.000000001
43
0.0000000001
44
0.0000000001
40
0
40
0
40
0
40
1
40
1
40
1
10
413.77986841995812
20
-44.869134552318641
30
8.8662706761394712e-16
10
413.63069785264912
20
-44.698074168736248
30
8.657012569316283e-16
10
413.21323559696123
20
-44.697547938336569
30
8.657012569316283e-16
0
LINE
5
198
100
AcDbEntity
8
0
100
AcDbLine
10
413.21323559696123
20
-44.697547938336569
30
8.657012569316283e-16
11
412.0263334208534
21
-44.696051793480351
31
8.657012569316283e-16
0
LINE
5
199
100
AcDbEntity
8
0
100
AcDbLine
10
412.0263334208534
20
-44.696051793480351
30
8.657012569316283e-16
11
412.02679774206797
21
-44.327702533974843
31
8.2059144693028635e-16
0
LINE
5
200
100
AcDbEntity
8
0
100
AcDbLine
10
411.84386286679103
20
-46.590776537345569
30
1.0977661002546482e-15
11
411.79020569877594
21
-46.948825811272897
31
1.1416227383204462e-15
0
SPLINE
5
201
100
AcDbEntity
8
0
100
AcDbSpline
70
0
71
2
72
6
73
3
74
0
42
0.000000001
43
0.0000000001
44
0.0000000001
40
0
40
0
40
0
40
1
40
1
40
1
10
411.79020569877594
20
-46.948825811272897
30
1.1416227383204458e-15
10
411.62442021787029
20
-46.971125946975093
30
1.1443793078086734e-15
10
411.54857492310532
20
-47.07335013918695
30
1.1569098592499157e-15
0
SPLINE
5
202
100
AcDbEntity
8
0
100
AcDbSpline
70
0
71
2
72
6
73
3
74
0
42
0.000000001
43
0.0000000001
44
0.0000000001
40
0
40
0
40
0
40
1
40
1
40
1
10
411.54857492310532
20
-47.07335013918695
30
1.1569098592499157e-15
10
411.44608305000725
20
-47.210330808862373
30
1.1737009616891679e-15
10
411.44578382298397
20
-47.447709694364406
30
1.2027715140168743e-15
0
SPLINE
5
203
100
AcDbEntity
8
0
100
AcDbSpline
70
0
71
2
72
6
73
3
74
0
42
0.000000001
43
0.0000000001
44
0.0000000001
40
0
40
0
40
0
40
1
40
1
40
1
10
411.44578382298397
20
-47.447709694364406
30
1.2027715140168743e-15
10
411.44546137644392
20
-47.703508784653188
30
1.2340978926199795e-15
10
411.54760500787967
20
-47.842790655652877
30
1.2511392206763713e-15
0
SPLINE
5
204
100
AcDbEntity
8
0
100
AcDbSpline
70
0
71
2
72
6
73
3
74
0
42
0.000000001
43
0.0000000001
44
0.0000000001
40
0
40
0
40
0
40
1
40
1
40
1
10
411.54760500787967
20
-47.842790655652877
30
1.2511392206763713e-15
10
411.64974893433305
20
-47.982074911212138
30
1.2681808407113122e-15
10
411.83386135837077
20
-48.031418875529894
30
1.274195306857695e-15
0
SPLINE
5
205
100
AcDbEntity
8
0
100
AcDbSpline
70
0
71
2
72
6
73
3
74
0
42
0.000000001
43
0.0000000001
44
0.0000000001
40
0
40
0
40
0
40
1
40
1
40
1
10
411.83386135837077
20
-48.031418875529894
30
1.274195306857695e-15
10
411.94637660410416
20
-48.06021148959239
30
1.2777040130900884e-15
10
412.30654234981603
20
-48.05861747788083
30
1.2774532035158496e-15
0
SPLINE
5
206
100
AcDbEntity
8
0
100
AcDbSpline
70
0
71
2
72
6
73
3
74
0
42
0.000000001
43
0.0000000001
44
0.0000000001
40
0
40
0
40
0
40
1
40
1
40
1
10
412.30654234981603
20
-48.05861747788083
30
1.2774532035158496e-15
10
412.0223995910959
20
-47.816786389900159
30
1.2478813240182163e-15
10
412.02285359185737
20
-47.4566244178963
30
1.2037741683567292e-15
0
SPLINE
5
207
100
AcDbEntity
8
0
100
AcDbSpline
70
0
71
2
72
6
73
3
74
0
42
0.000000001
43
0.0000000001
44
0.0000000001
40
0
40
0
40
0
40
1
40
1
40
1
10
412.02285359185737
20
-47.4566244178963
30
1.2037741683567292e-15
10
412.02341851795524
20
-47.008464602445052
30
1.148890376402373e-15
10
412.34705648239071
20
-46.763305999801972
30
1.1188171697348114e-15
0
SPLINE
5
208
100
AcDbEntity
8
0
100
AcDbSpline
70
0
71
2
72
6
73
3
74
0
42
0.000000001
43
0.0000000001
44
0.0000000001
40
0
40
0
40
0
40
1
40
1
40
1
10
412.34705648239071
20
-46.763305999801972
30
1.1188171697348114e-15
10
412.67069474484913
20
-46.518147397534548
30
1.0887439630672499e-15
10
413.12294522382132
20
-46.518717480091865
30
1.0887439630672499e-15
0
SPLINE
5
209
100
AcDbEntity
8
0
100
AcDbSpline
70
0
71
2
72
6
73
3
74
0
42
0.000000001
43
0.0000000001
44
0.0000000001
40
0
40
0
40
0
40
1
40
1
40
1
10
413.12294522382132
20
-46.518717480091865
30
1.0887439630672499e-15
10
413.43399554074631
20
-46.519109573341886
30
1.0887439630672499e-15
10
413.69681394771237
20
-46.631993600292049
30
1.1025276864440363e-15
0
SPLINE
5
210
100
AcDbEntity
8
0
100
AcDbSpline
70
0
71
2
72
6
73
3
74
0
42
0.000000001
43
0.0000000001
44
0.0000000001
40
0
40
0
40
0
40
1
40
1
40
1
10
413.69681394771237
20
-46.631993600292049
30
1.1025276864440363e-15
10
413.95963235467838
20
-46.744877627242204
30
1.1163114098208228e-15
10
414.10260962560437
20
-46.958905186915402
30
1.1425001338624566e-15
0
SPLINE
5
211
100
AcDbEntity
8
0
100
AcDbSpline
70
0
71
2
72
6
73
3
74
0
42
0.000000001
43
0.0000000001
44
0.0000000001
40
0
40
0
40
0
40
1
40
1
40
1
10
414.10260962560437
20
-46.958905186915402
30
1.1425001338624566e-15
10
414.24558689653031
20
-47.172932746588607
30
1.1686888579040911e-15
10
414.24522318019905
20
-47.461471450148395
30
1.2040246859524185e-15
0
SPLINE
5
212
100
AcDbEntity
8
0
100
AcDbSpline
70
0
71
2
72
6
73
3
74
0
42
0.000000001
43
0.0000000001
44
0.0000000001
40
0
40
0
40
0
40
1
40
1
40
1
10
414.24522318019905
20
-47.461471450148395
30
1.2040246859524185e-15
10
414.24473822408891
20
-47.846190516289411
30
1.2511392206763713e-15
10
413.93337305044946
20
-48.095458239606046
30
1.2817137545138599e-15
0
LINE
5
213
100
AcDbEntity
8
0
100
AcDbLine
10
413.9333730504494
20
-48.095458239606046
30
1.2817137545138599e-15
11
414.19531022218058
21
-48.09578842347463
31
1.2817137545138599e-15
0
LINE
5
214
100
AcDbEntity
8
0
100
AcDbLine
10
414.19531022218058
20
-48.09578842347463
30
1.2817137545138599e-15
11
414.19488201654133
21
-48.435486945092173
31
1.3233148582828081e-15
0
LINE
5
215
100
AcDbEntity
8
0
100
AcDbLine
10
414.19488201654133
20
-48.435486945092173
30
1.3233148582828081e-15
11
412.31630231298038
21
-48.433118908857139
31
1.3233148582828083e-15
0
SPLINE
5
216
100
AcDbEntity
8
0
100
AcDbSpline
70
0
71
2
72
6
73
3
74
0
42
0.000000001
43
0.0000000001
44
0.0000000001
40
0
40
0
40
0
40
1
40
1
40
1
10
412.31630231298033
20
-48.433118908857139
30
1.3233148582828083e-15
10
411.80879926626852
20
-48.432479177893498
30
1.3233148582828083e-15
10
411.59712876657346
20
-48.328872126451799
30
1.3106593400222715e-15
0
SPLINE
5
217
100
AcDbEntity
8
0
100
AcDbSpline
70
0
71
2
72
6
73
3
74
0
42
0.000000001
43
0.0000000001
44
0.0000000001
40
0
40
0
40
0
40
1
40
1
40
1
10
411.59712876657346
20
-48.328872126451799
30
1.3106593400222715e-15
10
411.38545857091208
20
-48.225260307017962
30
1.2980032378046348e-15
10
411.26295794445383
20
-48.001028009740892
30
1.2705616338060063e-15
0
SPLINE
5
218
100
AcDbEntity
8
0
100
AcDbSpline
70
0
71
2
72
6
73
3
74
0
42
0.000000001
43
0.0000000001
44
0.0000000001
40
0
40
0
40
0
40
1
40
1
40
1
10
411.26295794445383
20
-48.001028009740892
30
1.2705616338060063e-15
10
411.14045761902389
20
-47.776793328655586
30
1.243119737828828e-15
10
411.1408703499942
20
-47.449370969922725
30
1.203022031612563e-15
0
SPLINE
5
219
100
AcDbEntity
8
0
100
AcDbSpline
70
0
71
2
72
6
73
3
74
0
42
0.000000001
43
0.0000000001
44
0.0000000001
40
0
40
0
40
0
40
1
40
1
40
1
10
411.1408703499942
20
-47.449370969922725
30
1.203022031612563e-15
10
411.14136046633092
20
-47.060558260030881
30
1.1554061697186826e-15
10
411.31662799141611
20
-46.821354297092867
30
1.1260850997952877e-15
0
SPLINE
5
220
100
AcDbEntity
8
0
100
AcDbSpline
70
0
71
2
72
6
73
3
74
0
42
0.000000001
43
0.0000000001
44
0.0000000001
40
0
40
0
40
0
40
1
40
1
40
1
10
411.31662799141611
20
-46.821354297092867
30
1.1260850997952877e-15
10
411.49189552251198
20
-46.582145565787059
30
1.0967634459147931e-15
10
411.84386286679103
20
-46.590776537345569
30
1.0977661002546482e-15
0
SPLINE
5
221
100
AcDbEntity
8
0
100
AcDbSpline
70
0
71
2
72
6
73
3
74
0
42
0.000000001
43
0.0000000001
44
0.0000000001
40
0
40
0
40
0
40
1
40
1
40
1
10
413.14907132350959
20
-46.89733319159253
30
1.1351069450041362e-15
10
412.72137704460556
20
-46.896794063256344
30
1.1351069450041362e-15
10
412.52471006298754
20
-47.066395686163681
30
1.1559074968886103e-15
0
SPLINE
5
222
100
AcDbEntity
8
0
100
AcDbSpline
70
0
71
2
72
6
73
3
74
0
42
0.000000001
43
0.0000000001
44
0.0000000001
40
0
40
0
40
0
40
1
40
1
40
1
10
412.52471006298754
20
-47.066395686163681
30
1.1559074968886103e-15
10
412.3280433763872
20
-47.235999693630589
30
1.1767083407516342e-15
10
412.3277209328524
20
-47.491796399735478
30
1.2080344273761899e-15
0
SPLINE
5
223
100
AcDbEntity
8
0
100
AcDbSpline
70
0
71
2
72
6
73
3
74
0
42
0.000000001
43
0.0000000001
44
0.0000000001
40
0
40
0
40
0
40
1
40
1
40
1
10
412.3277209328524
20
-47.491796399735478
30
1.2080344273761899e-15
10
412.32740106792824
20
-47.745547476056906
30
1.2391099964050569e-15
10
412.52261385435867
20
-47.917688714493956
30
1.2601610658852194e-15
0
SPLINE
5
224
100
AcDbEntity
8
0
100
AcDbSpline
70
0
71
2
72
6
73
3
74
0
42
0.000000001
43
0.0000000001
44
0.0000000001
40
0
40
0
40
0
40
1
40
1
40
1
10
412.52261385435867
20
-47.917688714493956
30
1.2601610658852194e-15
10
412.71782663778367
20
-48.089832337114906
30
1.2812124273439323e-15
10
413.13528889347151
20
-48.090358567514578
30
1.2812124273439323e-15
0
SPLINE
5
225
100
AcDbEntity
8
0
100
AcDbSpline
70
0
71
2
72
6
73
3
74
0
42
0.000000001
43
0.0000000001
44
0.0000000001
40
0
40
0
40
0
40
1
40
1
40
1
10
413.13528889347151
20
-48.090358567514578
30
1.2812124273439323e-15
10
413.5343336265795
20
-48.090861581778825
30
1.2812124273439323e-15
10
413.73714876086285
20
-47.914105609094676
30
1.2595347718959973e-15
0
SPLINE
5
226
100
AcDbEntity
8
0
100
AcDbSpline
70
0
71
2
72
6
73
3
74
0
42
0.000000001
43
0.0000000001
44
0.0000000001
40
0
40
0
40
0
40
1
40
1
40
1
10
413.73714876086285
20
-47.914105609094676
30
1.2595347718959973e-15
10
413.93996374913996
20
-47.737347252038788
30
1.2378568244695125e-15
10
413.94027845383755
20
-47.48768981946818
30
1.2072825826105731e-15
0
SPLINE
5
227
100
AcDbEntity
8
0
100
AcDbSpline
70
0
71
2
72
6
73
3
74
0
42
0.000000001
43
0.0000000001
44
0.0000000001
40
0
40
0
40
0
40
1
40
1
40
1
10
413.94027845383755
20
-47.48768981946818
30
1.2072825826105731e-15
10
413.94058800131398
20
-47.242123646464506
30
1.1772093759430122e-15
10
413.74128246520166
20
-47.069977248927984
30
1.156158306462849e-15
0
SPLINE
5
228
100
AcDbEntity
8
0
100
AcDbSpline
70
0
71
2
72
6
73
3
74
0
42
0.000000001
43
0.0000000001
44
0.0000000001
40
0
40
0
40
0
40
1
40
1
40
1
10
413.74128246520166
20
-47.069977248927984
30
1.156158306462849e-15
10
413.54197663407177
20
-46.897828466831903
30
1.1351069450041362e-15
10
413.14907132350959
20
-46.89733319159253
30
1.1351069450041362e-15
0
LINE
5
229
100
AcDbEntity
8
0
100
AcDbLine
10
412.98341122856903
20
-50.066975806734611
30
1.5233014782371064e-15
11
413.01568116597218
21
-50.441505612570154
31
1.5691631330040646e-15
0
SPLINE
5
230
100
AcDbEntity
8
0
100
AcDbSpline
70
0
71
2
72
6
73
3
74
0
42
0.000000001
43
0.0000000001
44
0.0000000001
40
0
40
0
40
0
40
1
40
1
40
1
10
413.01568116597218
20
-50.44150561257014
30
1.5691631330040644e-15
10
412.79054550544146
20
-50.467824584893052
30
1.57242102966222e-15
10
412.64615302853139
20
-50.564845903452365
30
1.5843249951356898e-15
0
SPLINE
5
231
100
AcDbEntity
8
0
100
AcDbSpline
70
0
71
2
72
6
73
3
74
0
42
0.000000001
43
0.0000000001
44
0.0000000001
40
0
40
0
40
0
40
1
40
1
40
1
10
412.64615302853139
20
-50.564845903452365
30
1.5843249951356898e-15
10
412.50176055162137
20
-50.661867222011679
30
1.5962289606091595e-15
10
412.41248491627999
20
-50.86639428335971
30
1.6212900634916447e-15
0
SPLINE
5
232
100
AcDbEntity
8
0
100
AcDbSpline
70
0
71
2
72
6
73
3
74
0
42
0.000000001
43
0.0000000001
44
0.0000000001
40
0
40
0
40
0
40
1
40
1
40
1
10
412.41248491627999
20
-50.86639428335971
30
1.6212900634916447e-15
10
412.32320928394404
20
-51.070918960523848
30
1.6463508743955792e-15
10
412.32288684040924
20
-51.326715666628729
30
1.6776769610201342e-15
0
SPLINE
5
233
100
AcDbEntity
8
0
100
AcDbSpline
70
0
71
2
72
6
73
3
74
0
42
0.000000001
43
0.0000000001
44
0.0000000001
40
0
40
0
40
0
40
1
40
1
40
1
10
412.32288684040924
20
-51.326715666628729
30
1.6776769610201342e-15
10
412.32260050643902
20
-51.553866403213448
30
1.7054949253693957e-15
10
412.38991176516038
20
-51.727892048918193
30
1.7267965124452475e-15
0
SPLINE
5
234
100
AcDbEntity
8
0
100
AcDbSpline
70
0
71
2
72
6
73
3
74
0
42
0.000000001
43
0.0000000001
44
0.0000000001
40
0
40
0
40
0
40
1
40
1
40
1
10
412.38991176516038
20
-51.727892048918193
30
1.7267965124452475e-15
10
412.45722301787106
20
-51.901922462990733
30
1.7480986834781997e-15
10
412.57478319036642
20
-51.986995418350048
30
1.758498959420437e-15
0
SPLINE
5
235
100
AcDbEntity
8
0
100
AcDbSpline
70
0
71
2
72
6
73
3
74
0
42
0.000000001
43
0.0000000001
44
0.0000000001
40
0
40
0
40
0
40
1
40
1
40
1
10
412.57478319036642
20
-51.986995418350048
30
1.758498959420437e-15
10
412.69234306483889
20
-52.072068373333721
30
1.7688992353626732e-15
10
412.83149715006823
20
-52.072243783466938
30
1.7688992353626732e-15
0
SPLINE
5
236
100
AcDbEntity
8
0
100
AcDbSpline
70
0
71
2
72
6
73
3
74
0
42
0.000000001
43
0.0000000001
44
0.0000000001
40
0
40
0
40
0
40
1
40
1
40
1
10
412.83149715006823
20
-52.072243783466938
30
1.7688992353626732e-15
10
412.97269775914992
20
-52.072421773337737
30
1.7688992353626732e-15
10
413.0781896194805
20
-51.99069843488941
30
1.75887473581397e-15
0
SPLINE
5
237
100
AcDbEntity
8
0
100
AcDbSpline
70
0
71
2
72
6
73
3
74
0
42
0.000000001
43
0.0000000001
44
0.0000000001
40
0
40
0
40
0
40
1
40
1
40
1
10
413.0781896194805
20
-51.99069843488941
30
1.75887473581397e-15
10
413.18368147981113
20
-51.908975096441083
30
1.7488502362652658e-15
10
413.25554206458099
20
-51.720800683641869
30
1.7257944420624918e-15
0
SPLINE
5
238
100
AcDbEntity
8
0
100
AcDbSpline
70
0
71
2
72
6
73
3
74
0
42
0.000000001
43
0.0000000001
44
0.0000000001
40
0
40
0
40
0
40
1
40
1
40
1
10
413.25554206458099
20
-51.720800683641869
30
1.7257944420624918e-15
10
413.30276103306687
20
-51.600120172571302
30
1.7110080643458508e-15
10
413.40253195208385
20
-51.186877861733549
30
1.6603851153680537e-15
0
SPLINE
5
239
100
AcDbEntity
8
0
100
AcDbSpline
70
0
71
2
72
6
73
3
74
0
42
0.000000001
43
0.0000000001
44
0.0000000001
40
0
40
0
40
0
40
1
40
1
40
1
10
413.40253195208385
20
-51.186877861733549
30
1.6603851153680537e-15
10
413.50230257608314
20
-50.773633166336232
30
1.609761874411708e-15
10
413.59050593485927
20
-50.607988470292504
30
1.5894626496971606e-15
0
SPLINE
5
240
100
AcDbEntity
8
0
100
AcDbSpline
70
0
71
2
72
6
73
3
74
0
42
0.000000001
43
0.0000000001
44
0.0000000001
40
0
40
0
40
0
40
1
40
1
40
1
10
413.59050593485927
20
-50.607988470292504
30
1.5894626496971606e-15
10
413.70332785444077
20
-50.393258156575207
30
1.5631483748791326e-15
10
413.87024092106037
20
-50.288080309933051
30
1.5502420470443574e-15
0
SPLINE
5
241
100
AcDbEntity
8
0
100
AcDbSpline
70
0
71
2
72
6
73
3
74
0
42
0.000000001
43
0.0000000001
44
0.0000000001
40
0
40
0
40
0
40
1
40
1
40
1
10
413.87024092106037
20
-50.288080309933051
30
1.5502420470443574e-15
10
414.03715398767991
20
-50.182902463290887
30
1.5373357192095813e-15
10
414.24383874068297
20
-50.183162998940993
30
1.5373357192095813e-15
0
SPLINE
5
242
100
AcDbEntity
8
0
100
AcDbSpline
70
0
71
2
72
6
73
3
74
0
42
0.000000001
43
0.0000000001
44
0.0000000001
40
0
40
0
40
0
40
1
40
1
40
1
10
414.24383874068297
20
-50.183162998940993
30
1.5373357192095813e-15
10
414.4709873911068
20
-50.183449330276268
30
1.5373357192095813e-15
10
414.66830057222148
20
-50.312620617519109
30
1.553124167308979e-15
0
SPLINE
5
243
100
AcDbEntity
8
0
100
AcDbSpline
70
0
71
2
72
6
73
3
74
0
42
0.000000001
43
0.0000000001
44
0.0000000001
40
0
40
0
40
0
40
1
40
1
40
1
10
414.66830057222148
20
-50.312620617519109
30
1.553124167308979e-15
10
414.86561405135916
20
-50.44179190513762
30
1.5689126154083757e-15
10
414.96762126336472
20
-50.689532686162778
30
1.5992363396716264e-15
0
SPLINE
5
244
100
AcDbEntity
8
0
100
AcDbSpline
70
0
71
2
72
6
73
3
74
0
42
0.000000001
43
0.0000000001
44
0.0000000001
40
0
40
0
40
0
40
1
40
1
40
1
10
414.96762126336472
20
-50.689532686162778
30
1.5992363396716264e-15
10
415.06962817734723
20
-50.937273466812272
30
1.629560063934876e-15
10
415.06924640172565
20
-51.240138731407981
30
1.6666503910886753e-15
0
SPLINE
5
245
100
AcDbEntity
8
0
100
AcDbSpline
70
0
71
2
72
6
73
3
74
0
42
0.000000001
43
0.0000000001
44
0.0000000001
40
0
40
0
40
0
40
1
40
1
40
1
10
415.06924640172565
20
-51.240138731407981
30
1.6666503910886753e-15
10
415.06882593492355
20
-51.573697979491243
30
1.7074996500920065e-15
10
414.96106958000496
20
-51.828336443685963
30
1.7387004779187182e-15
0
SPLINE
5
246
100
AcDbEntity
8
0
100
AcDbSpline
70
0
71
2
72
6
73
3
74
0
42
0.000000001
43
0.0000000001
44
0.0000000001
40
0
40
0
40
0
40
1
40
1
40
1
10
414.96106958000496
20
-51.828336443685963
30
1.7387004779187182e-15
10
414.853313520104
20
-52.082977292440262
30
1.7699015977239786e-15
10
414.64440956223689
20
-52.219821440594302
30
1.7866924081846818e-15
0
SPLINE
5
247
100
AcDbEntity
8
0
100
AcDbSpline
70
0
71
2
72
6
73
3
74
0
42
0.000000001
43
0.0000000001
44
0.0000000001
40
0
40
0
40
0
40
1
40
1
40
1
10
414.64440956223689
20
-52.219821440594302
30
1.7866924081846818e-15
10
414.43550560436984
20
-52.356665588748328
30
1.8034832186453839e-15
10
414.17150930774545
20
-52.366565742802962
30
1.8047363905809287e-15
0
LINE
5
248
100
AcDbEntity
8
0
100
AcDbLine
10
414.17150930774551
20
-52.366565742802962
30
1.8047363905809287e-15
11
414.1433397098499
21
-51.985901822344765
31
1.7581228910483537e-15
0
SPLINE
5
249
100
AcDbEntity
8
0
100
AcDbSpline
70
0
71
2
72
6
73
3
74
0
42
0.000000001
43
0.0000000001
44
0.0000000001
40
0
40
0
40
0
40
1
40
1
40
1
10
414.1433397098499
20
-51.985901822344765
30
1.7581228910483533e-15
10
414.42782569601178
20
-51.955566397772877
30
1.7543639591988203e-15
10
414.57334189071986
20
-51.778735812948788
30
1.7326860117723361e-15
0
SPLINE
5
250
100
AcDbEntity
8
0
100
AcDbSpline
70
0
71
2
72
6
73
3
74
0
42
0.000000001
43
0.0000000001
44
0.0000000001
40
0
40
0
40
0
40
1
40
1
40
1
10
414.57334189071986
20
-51.778735812948788
30
1.7326860117723361e-15
10
414.71885838345094
20
-51.601905228500364
30
1.7110080643458508e-15
10
414.71929432492203
20
-51.256069817532428
30
1.6686554077898358e-15
0
SPLINE
5
251
100
AcDbEntity
8
0
100
AcDbSpline
70
0
71
2
72
6
73
3
74
0
42
0.000000001
43
0.0000000001
44
0.0000000001
40
0
40
0
40
0
40
1
40
1
40
1
10
414.71929432492203
20
-51.256069817532428
30
1.6686554077898358e-15
10
414.71974832868887
20
-50.895905461344668
30
1.6245479601497993e-15
10
414.58796428620178
20
-50.731003893379309
30
1.6043737022545475e-15
0
SPLINE
5
252
100
AcDbEntity
8
0
100
AcDbSpline
70
0
71
2
72
6
73
3
74
0
42
0.000000001
43
0.0000000001
44
0.0000000001
40
0
40
0
40
0
40
1
40
1
40
1
10
414.58796428620178
20
-50.731003893379309
30
1.6043737022545475e-15
10
414.45618024070916
20
-50.566104709597852
30
1.5841997363378454e-15
10
414.26995938512704
20
-50.565869969632914
30
1.5841997363378454e-15
0
SPLINE
5
253
100
AcDbEntity
8
0
100
AcDbSpline
70
0
71
2
72
6
73
3
74
0
42
0.000000001
43
0.0000000001
44
0.0000000001
40
0
40
0
40
0
40
1
40
1
40
1
10
414.26995938512704
20
-50.565869969632914
30
1.5841997363378454e-15
10
414.10829502763596
20
-50.565666184264785
30
1.5841997363378454e-15
10
414.003782428813
20
-50.682178439632409
30
1.5984844949060097e-15
0
SPLINE
5
254
100
AcDbEntity
8
0
100
AcDbSpline
70
0
71
2
72
6
73
3
74
0
42
0.000000001
43
0.0000000001
44
0.0000000001
40
0
40
0
40
0
40
1
40
1
40
1
10
414.003782428813
20
-50.682178439632409
30
1.5984844949060097e-15
10
413.89927256061748
20
-50.796642681220519
30
1.6125184438999346e-15
10
413.78918091827711
20
-51.280474932233687
30
1.6717877536715964e-15
0
SPLINE
5
255
100
AcDbEntity
8
0
100
AcDbSpline
70
0
71
2
72
6
73
3
74
0
42
0.000000001
43
0.0000000001
44
0.0000000001
40
0
40
0
40
0
40
1
40
1
40
1
10
413.78918091827711
20
-51.280474932233687
30
1.6717877536715964e-15
10
413.6790894249483
20
-51.764307183434681
30
1.7310570634432582e-15
10
413.59700698239317
20
-51.944286178975716
30
1.7531107872632765e-15
0
SPLINE
5
256
100
AcDbEntity
8
0
100
AcDbSpline
70
0
71
2
72
6
73
3
74
0
42
0.000000001
43
0.0000000001
44
0.0000000001
40
0
40
0
40
0
40
1
40
1
40
1
10
413.59700698239317
20
-51.944286178975716
30
1.7531107872632765e-15
10
413.47594023737179
20
-52.206069964617107
30
1.7851887186534483e-15
10
413.29058528836163
20
-52.330667614990162
30
1.8004761315614677e-15
0
SPLINE
5
257
100
AcDbEntity
8
0
100
AcDbSpline
70
0
71
2
72
6
73
3
74
0
42
0.000000001
43
0.0000000001
44
0.0000000001
40
0
40
0
40
0
40
1
40
1
40
1
10
413.29058528836163
20
-52.330667614990162
30
1.8004761315614677e-15
10
413.10523019334539
20
-52.455262880991469
30
1.8157632524909375e-15
10
412.86375706804654
20
-52.454958492995885
30
1.8157632524909375e-15
0
SPLINE
5
258
100
AcDbEntity
8
0
100
AcDbSpline
70
0
71
2
72
6
73
3
74
0
42
0.000000001
43
0.0000000001
44
0.0000000001
40
0
40
0
40
0
40
1
40
1
40
1
10
412.86375706804654
20
-52.454958492995885
30
1.8157632524909375e-15
10
412.6243301685771
20
-52.454656684362213
30
1.8157632524909375e-15
10
412.41270223398919
20
-52.317282436389981
30
1.798972442030235e-15
0
SPLINE
5
259
100
AcDbEntity
8
0
100
AcDbSpline
70
0
71
2
72
6
73
3
74
0
42
0.000000001
43
0.0000000001
44
0.0000000001
40
0
40
0
40
0
40
1
40
1
40
1
10
412.41270223398919
20
-52.317282436389981
30
1.798972442030235e-15
10
412.20107430240665
20
-52.179905804233861
30
1.7821813395909826e-15
10
412.08373110936441
20
-51.922937958657968
30
1.750729994168582e-15
0
SPLINE
5
260
100
AcDbEntity
8
0
100
AcDbSpline
70
0
71
2
72
6
73
3
74
0
42
0.000000001
43
0.0000000001
44
0.0000000001
40
0
40
0
40
0
40
1
40
1
40
1
10
412.08373110936441
20
-51.922937958657968
30
1.750729994168582e-15
10
411.96638791932764
20
-51.665967728898181
30
1.7192783567676329e-15
10
411.96679290845537
20
-51.344687027883495
30
1.6799327872955341e-15
0
SPLINE
5
261
100
AcDbEntity
8
0
100
AcDbSpline
70
0
71
2
72
6
73
3
74
0
42
0.000000001
43
0.0000000001
44
0.0000000001
40
0
40
0
40
0
40
1
40
1
40
1
10
411.96679290845537
20
-51.344687027883495
30
1.6799327872955341e-15
10
411.96730624430899
20
-50.9374541132049
30
1.6300610991262544e-15
10
412.08634323245758
20
-50.662366385865639
30
1.5963542194070048e-15
0
SPLINE
5
262
100
AcDbEntity
8
0
100
AcDbSpline
70
0
71
2
72
6
73
3
74
0
42
0.000000001
43
0.0000000001
44
0.0000000001
40
0
40
0
40
0
40
1
40
1
40
1
10
412.08634323245758
20
-50.662366385865639
30
1.5963542194070048e-15
10
412.20538051862917
20
-50.387278658902048
30
1.5626473396877542e-15
10
412.44398164402924
20
-50.231028894822401
30
1.5434754441538079e-15
0
SPLINE
5
263
100
AcDbEntity
8
0
100
AcDbSpline
70
0
71
2
72
6
73
3
74
0
42
0.000000001
43
0.0000000001
44
0.0000000001
40
0
40
0
40
0
40
1
40
1
40
1
10
412.44398164402924
20
-50.231028894822401
30
1.5434754441538079e-15
10
412.68258246539551
20
-50.0747838987349
30
1.5243041325769613e-15
10
412.98341122856903
20
-50.066975806734611
30
1.5233014782371064e-15
0
LWPOLYLINE
5
264
100
AcDbEntity
8
0
100
AcDbPolyline
90
4
70
1
43
0.0
10
415.01592520958275
20
-52.954943809751725
10
414.59232397838355
20
-52.95440984089069
10
414.59185966017435
20
-53.322756716212311
10
415.01546089137355
20
-53.323290685073346
0
LWPOLYLINE
5
265
100
AcDbEntity
8
0
100
AcDbPolyline
90
4
70
1
43
0.0
10
414.18918634658218
20
-52.953901667339139
10
412.01592747383523
20
-52.951162174439773
10
412.01546315562604
20
-53.319509049761393
10
414.18872202837298
20
-53.322248542660759
0
LINE
5
266
100
AcDbEntity
8
0
100
AcDbLine
10
412.01297903998318
20
-55.290175323141199
30
2.163108234742026e-15
11
412.28719446075985
21
-55.290520984308181
31
2.163108234742026e-15
0
SPLINE
5
267
100
AcDbEntity
8
0
100
AcDbSpline
70
0
71
2
72
6
73
3
74
0
42
0.000000001
43
0.0000000001
44
0.0000000001
40
0
40
0
40
0
40
1
40
1
40
1
10
412.28719446075985
20
-55.290520984308174
30
2.163108234742026e-15
10
411.96412628162051
20
-55.083428511557429
30
2.1377966142638531e-15
10
411.9646318756316
20
-54.682337254597016
30
2.08867706283874e-15
0
SPLINE
5
268
100
AcDbEntity
8
0
100
AcDbSpline
70
0
71
2
72
6
73
3
74
0
42
0.000000001
43
0.0000000001
44
0.0000000001
40
0
40
0
40
0
40
1
40
1
40
1
10
411.9646318756316
20
-54.682337254597016
30
2.08867706283874e-15
10
411.96495947939297
20
-54.4224469047413
30
2.0568496490442559e-15
10
412.10848103551052
20
-54.204689223966554
30
2.0301598898112444e-15
0
SPLINE
5
269
100
AcDbEntity
8
0
100
AcDbSpline
70
0
71
2
72
6
73
3
74
0
42
0.000000001
43
0.0000000001
44
0.0000000001
40
0
40
0
40
0
40
1
40
1
40
1
10
412.10848103551052
20
-54.204689223966554
30
2.0301598898112444e-15
10
412.25200259763881
20
-53.986926774824013
30
2.0034695466211327e-15
10
412.50897451156726
20
-53.86753825189377
30
1.9888090116594346e-15
0
SPLINE
5
270
100
AcDbEntity
8
0
100
AcDbSpline
70
0
71
2
72
6
73
3
74
0
42
0.000000001
43
0.0000000001
44
0.0000000001
40
0
40
0
40
0
40
1
40
1
40
1
10
412.50897451156726
20
-53.86753825189377
30
1.9888090116594346e-15
10
412.76594642549577
20
-53.748149728963512
30
1.974148476697737e-15
10
413.099506865671
20
-53.748570197260612
30
1.974148476697737e-15
0
SPLINE
5
271
100
AcDbEntity
8
0
100
AcDbSpline
70
0
71
2
72
6
73
3
74
0
42
0.000000001
43
0.0000000001
44
0.0000000001
40
0
40
0
40
0
40
1
40
1
40
1
10
413.099506865671
20
-53.748570197260612
30
1.974148476697737e-15
10
413.4248819554939
20
-53.748980347546606
30
1.974148476697737e-15
10
413.68975189752751
20
-53.85777331029567
30
1.987430872904596e-15
0
SPLINE
5
272
100
AcDbEntity
8
0
100
AcDbSpline
70
0
71
2
72
6
73
3
74
0
42
0.000000001
43
0.0000000001
44
0.0000000001
40
0
40
0
40
0
40
1
40
1
40
1
10
413.68975189752751
20
-53.85777331029567
30
1.987430872904596e-15
10
413.95462169054957
20
-53.966566272856902
30
2.000713269111455e-15
10
414.09554872172407
20
-54.18365731347167
30
2.0272774775680721e-15
0
SPLINE
5
273
100
AcDbEntity
8
0
100
AcDbSpline
70
0
71
2
72
6
73
3
74
0
42
0.000000001
43
0.0000000001
44
0.0000000001
40
0
40
0
40
0
40
1
40
1
40
1
10
414.09554872172407
20
-54.18365731347167
30
2.0272774775680721e-15
10
414.23647574688778
20
-54.400753122454233
30
2.0538422699817898e-15
10
414.2361378226733
20
-54.668830759811591
30
2.086672338116128e-15
0
SPLINE
5
274
100
AcDbEntity
8
0
100
AcDbSpline
70
0
71
2
72
6
73
3
74
0
42
0.000000001
43
0.0000000001
44
0.0000000001
40
0
40
0
40
0
40
1
40
1
40
1
10
414.2361378226733
20
-54.668830759811591
30
2.086672338116128e-15
10
414.23589018589433
20
-54.865282744540977
30
2.1107307866587581e-15
10
414.1528181643838
20
-55.018657726480448
30
2.1295266138206209e-15
0
SPLINE
5
275
100
AcDbEntity
8
0
100
AcDbSpline
70
0
71
2
72
6
73
3
74
0
42
0.000000001
43
0.0000000001
44
0.0000000001
40
0
40
0
40
0
40
1
40
1
40
1
10
414.1528181643838
20
-55.018657726480448
30
2.1295266138206209e-15
10
414.06974614287327
20
-55.17203270841992
30
2.1483224409824842e-15
10
413.93661009440478
20
-55.268043015521059
30
2.1601008556795599e-15
0
LINE
5
276
100
AcDbEntity
8
0
100
AcDbLine
10
413.93661009440478
20
-55.268043015521059
30
2.1601008556795603e-15
11
415.01300743305637
21
-55.269399863940322
31
2.1601008556795599e-15
0
LINE
5
277
100
AcDbEntity
8
0
100
AcDbLine
10
415.01300743305637
20
-55.269399863940322
30
2.1601008556795599e-15
11
415.01254568744696
21
-55.635705877846263
31
2.2049604400637626e-15
0
LINE
5
278
100
AcDbEntity
8
0
100
AcDbLine
10
415.01254568744696
20
-55.635705877846263
30
2.2049604400637626e-15
11
412.01254824972244
21
-55.631924242909989
31
2.204960440063763e-15
0
LINE
5
279
100
AcDbEntity
8
0
100
AcDbLine
10
412.01254824972244
20
-55.631924242909989
30
2.204960440063763e-15
11
412.01297903998318
21
-55.290175323141199
31
2.163108234742026e-15
0
SPLINE
5
280
100
AcDbEntity
8
0
100
AcDbSpline
70
0
71
2
72
6
73
3
74
0
42
0.000000001
43
0.0000000001
44
0.0000000001
40
0
40
0
40
0
40
1
40
1
40
1
10
413.09902964839802
20
-54.127149989867334
30
2.020511166656073e-15
10
412.68156769073312
20
-54.126623759843326
30
2.020511166656073e-15
10
412.47466124207938
20
-54.302354142908023
30
2.0420638552847141e-15
0
SPLINE
5
281
100
AcDbEntity
8
0
100
AcDbSpline
70
0
71
2
72
6
73
3
74
0
42
0.000000001
43
0.0000000001
44
0.0000000001
40
0
40
0
40
0
40
1
40
1
40
1
10
412.47466124207938
20
-54.302354142908023
30
2.0420638552847141e-15
10
412.26775450141349
20
-54.478079757229239
30
2.0636159599562546e-15
10
412.26745268976885
20
-54.717509040882526
30
2.0929376138367497e-15
0
SPLINE
5
282
100
AcDbEntity
8
0
100
AcDbSpline
70
0
71
2
72
6
73
3
74
0
42
0.000000001
43
0.0000000001
44
0.0000000001
40
0
40
0
40
0
40
1
40
1
40
1
10
412.26745268976885
20
-54.717509040882526
30
2.0929376138367497e-15
10
412.26714830552447
20
-54.958979185951478
30
2.1225092013558338e-15
10
412.46441148071779
20
-55.128056943634803
30
2.1431847864210124e-15
0
SPLINE
5
283
100
AcDbEntity
8
0
100
AcDbSpline
70
0
71
2
72
6
73
3
74
0
42
0.000000001
43
0.0000000001
44
0.0000000001
40
0
40
0
40
0
40
1
40
1
40
1
10
412.46441148071779
20
-55.128056943634803
30
2.1431847864210124e-15
10
412.66167465591116
20
-55.297134701318129
30
2.1638603714861922e-15
10
413.06685836453039
20
-55.297645454043732
30
2.1638603714861922e-15
0
SPLINE
5
284
100
AcDbEntity
8
0
100
AcDbSpline
70
0
71
2
72
6
73
3
74
0
42
0.000000001
43
0.0000000001
44
0.0000000001
40
0
40
0
40
0
40
1
40
1
40
1
10
413.06685836453039
20
-55.297645454043732
30
2.1638603714861922e-15
10
413.51297001700283
20
-55.29820779832751
30
2.1638603714861922e-15
10
413.72191783228777
20
-55.126571254567331
30
2.1428087180489301e-15
0
SPLINE
5
285
100
AcDbEntity
8
0
100
AcDbSpline
70
0
71
2
72
6
73
3
74
0
42
0.000000001
43
0.0000000001
44
0.0000000001
40
0
40
0
40
0
40
1
40
1
40
1
10
413.72191783228777
20
-55.126571254567331
30
2.1428087180489301e-15
10
413.93086564156192
20
-54.954939479174939
30
2.1217576485687669e-15
10
413.93118293088088
20
-54.703231648453077
30
2.0909323051570391e-15
0
SPLINE
5
286
100
AcDbEntity
8
0
100
AcDbSpline
70
0
71
2
72
6
73
3
74
0
42
0.000000001
43
0.0000000001
44
0.0000000001
40
0
40
0
40
0
40
1
40
1
40
1
10
413.93118293088088
20
-54.703231648453077
30
2.0909323051570391e-15
10
413.93149247234652
20
-54.457670243817191
30
2.0608596824465777e-15
10
413.73115450316482
20
-54.292679876282278
30
2.0406851325727753e-15
0
SPLINE
5
287
100
AcDbEntity
8
0
100
AcDbSpline
70
0
71
2
72
6
73
3
74
0
42
0.000000001
43
0.0000000001
44
0.0000000001
40
0
40
0
40
0
40
1
40
1
40
1
10
413.73115450316482
20
-54.292679876282278
30
2.0406851325727753e-15
10
413.53081667698393
20
-54.127694277302979
30
2.020511166656073e-15
10
413.09902964839802
20
-54.127149989867334
30
2.020511166656073e-15
0
LINE
5
288
100
AcDbEntity
8
0
100
AcDbLine
10
412.70980606712362
20
-57.699655472820517
30
2.4580766448454958e-15
11
412.66225920887496
21
-58.080216796635533
31
2.5046892684424216e-15
0
SPLINE
5
289
100
AcDbEntity
8
0
100
AcDbSpline
70
0
71
2
72
6
73
3
74
0
42
0.000000001
43
0.0000000001
44
0.0000000001
40
0
40
0
40
0
40
1
40
1
40
1
10
412.66225920887496
20
-58.080216796635533
30
2.5046892684424212e-15
10
412.32881226363071
20
-57.989760007659292
30
2.4936629904895117e-15
10
412.14494490076669
20
-57.746007304211716
30
2.4638403014176396e-15
0
SPLINE
5
290
100
AcDbEntity
8
0
100
AcDbSpline
70
0
71
2
72
6
73
3
74
0
42
0.000000001
43
0.0000000001
44
0.0000000001
40
0
40
0
40
0
40
1
40
1
40
1
10
412.14494490076669
20
-57.746007304211716
30
2.4638403014176396e-15
10
411.96107723987973
20
-57.502254600388468
30
2.4340176123457663e-15
10
411.96155445715272
20
-57.12367480778174
30
2.3876549223874303e-15
0
SPLINE
5
291
100
AcDbEntity
8
0
100
AcDbSpline
70
0
71
2
72
6
73
3
74
0
42
0.000000001
43
0.0000000001
44
0.0000000001
40
0
40
0
40
0
40
1
40
1
40
1
10
411.96155445715272
20
-57.12367480778174
30
2.3876549223874303e-15
10
411.96215549582053
20
-56.646866638626427
30
2.3292627161792293e-15
10
412.25616366166997
20
-56.367905820259487
30
2.2950545092900529e-15
0
SPLINE
5
292
100
AcDbEntity
8
0
100
AcDbSpline
70
0
71
2
72
6
73
3
74
0
42
0.000000001
43
0.0000000001
44
0.0000000001
40
0
40
0
40
0
40
1
40
1
40
1
10
412.25616366166997
20
-56.367905820259487
30
2.2950545092900529e-15
10
412.55017182751948
20
-56.088945001892547
30
2.2608463024008752e-15
10
413.08018484847003
20
-56.089613107715408
30
2.2608463024008752e-15
0
SPLINE
5
293
100
AcDbEntity
8
0
100
AcDbSpline
70
0
71
2
72
6
73
3
74
0
42
0.000000001
43
0.0000000001
44
0.0000000001
40
0
40
0
40
0
40
1
40
1
40
1
10
413.08018484847003
20
-56.089613107715408
30
2.2608463024008752e-15
10
413.62861569002348
20
-56.090304430049386
30
2.2608463024008752e-15
10
413.93112452708527
20
-56.373088019309876
30
2.2954305776621356e-15
0
SPLINE
5
294
100
AcDbEntity
8
0
100
AcDbSpline
70
0
71
2
72
6
73
3
74
0
42
0.000000001
43
0.0000000001
44
0.0000000001
40
0
40
0
40
0
40
1
40
1
40
1
10
413.93112452708527
20
-56.373088019309876
30
2.2954305776621356e-15
10
414.23363321513557
20
-56.655871608382526
30
2.3300148529233959e-15
10
414.23306571643786
20
-57.106072285249432
30
2.3851485785163419e-15
0
SPLINE
5
295
100
AcDbEntity
8
0
100
AcDbSpline
70
0
71
2
72
6
73
3
74
0
42
0.000000001
43
0.0000000001
44
0.0000000001
40
0
40
0
40
0
40
1
40
1
40
1
10
414.23306571643786
20
-57.106072285249432
30
2.3851485785163419e-15
10
414.23251626801431
20
-57.541953553632098
30
2.4385286809394655e-15
10
413.9354424793197
20
-57.81784444227705
30
2.4723614034136602e-15
0
SPLINE
5
296
100
AcDbEntity
8
0
100
AcDbSpline
70
0
71
2
72
6
73
3
74
0
42
0.000000001
43
0.0000000001
44
0.0000000001
40
0
40
0
40
0
40
1
40
1
40
1
10
413.9354424793197
20
-57.81784444227705
30
2.4723614034136602e-15
10
413.63836869663578
20
-58.093730562554214
30
2.506193541930754e-15
10
413.10016972928702
20
-58.093052137968911
30
2.506193541930754e-15
0
SPLINE
5
297
100
AcDbEntity
8
0
100
AcDbSpline
70
0
71
2
72
6
73
3
74
0
42
0.000000001
43
0.0000000001
44
0.0000000001
40
0
40
0
40
0
40
1
40
1
40
1
10
413.10016972928702
20
-58.093052137968911
30
2.506193541930754e-15
10
413.06742773183208
20
-58.09301086517317
30
2.506193541930754e-15
10
413.0019460235207
20
-58.090877921054769
30
2.5059424403779648e-15
0
LINE
5
298
100
AcDbEntity
8
0
100
AcDbLine
10
413.0019460235207
20
-58.090877921054762
30
2.5059424403779648e-15
11
413.00398902844984
21
-56.470147854945417
31
2.3074600939119997e-15
0
SPLINE
5
299
100
AcDbEntity
8
0
100
AcDbSpline
70
0
71
2
72
6
73
3
74
0
42
0.000000001
43
0.0000000001
44
0.0000000001
40
0
40
0
40
0
40
1
40
1
40
1
10
413.00398902844984
20
-56.470147854945417
30
2.3074600939120005e-15
10
412.64584600004366
20
-56.490157497878279
30
2.3099658538259887e-15
10
412.45530311230857
20
-56.672045407066904
30
2.3322700952416955e-15
0
SPLINE
5
300
100
AcDbEntity
8
0
100
AcDbSpline
70
0
71
2
72
6
73
3
74
0
42
0.000000001
43
0.0000000001
44
0.0000000001
40
0
40
0
40
0
40
1
40
1
40
1
10
412.45530311230857
20
-56.672045407066904
30
2.3322700952416955e-15
10
412.26475962852754
20
-56.853933315504165
30
2.3545743366574034e-15
10
412.26441654709186
20
-57.126102212428464
30
2.387905439983119e-15
0
SPLINE
5
301
100
AcDbEntity
8
0
100
AcDbSpline
70
0
71
2
72
6
73
3
74
0
42
0.000000001
43
0.0000000001
44
0.0000000001
40
0
40
0
40
0
40
1
40
1
40
1
10
412.26441654709186
20
-57.126102212428464
30
2.387905439983119e-15
10
412.26416116847031
20
-57.328695854876024
30
2.4127160252699145e-15
10
412.37039268738437
20
-57.47207652910167
30
2.4302586804962341e-15
0
SPLINE
5
302
100
AcDbEntity
8
0
100
AcDbSpline
70
0
71
2
72
6
73
3
74
0
42
0.000000001
43
0.0000000001
44
0.0000000001
40
0
40
0
40
0
40
1
40
1
40
1
10
412.37039268738437
20
-57.47207652910167
30
2.4302586804962341e-15
10
412.47662390827543
20
-57.61545720295166
30
2.447801335722553e-15
10
412.70980606712362
20
-57.699655472820517
30
2.4580766448454958e-15
0
LINE
5
303
100
AcDbEntity
8
0
100
AcDbLine
10
413.30682805389426
20
-56.490990696198935
30
2.3099658538259887e-15
11
413.30529837279732
21
-57.704497384365283
31
2.4585776800368732e-15
0
SPLINE
5
304
100
AcDbEntity
8
0
100
AcDbSpline
70
0
71
2
72
6
73
3
74
0
42
0.000000001
43
0.0000000001
44
0.0000000001
40
0
40
0
40
0
40
1
40
1
40
1
10
413.30529837279732
20
-57.704497384365283
30
2.4585776800368732e-15
10
413.57954459991129
20
-57.680285951207281
30
2.455570300974407e-15
10
413.71679676658999
20
-57.56586059860669
30
2.4415360600019317e-15
0
SPLINE
5
305
100
AcDbEntity
8
0
100
AcDbSpline
70
0
71
2
72
6
73
3
74
0
42
0.000000001
43
0.0000000001
44
0.0000000001
40
0
40
0
40
0
40
1
40
1
40
1
10
413.71679676658999
20
-57.56586059860669
30
2.4415360600019317e-15
10
413.92984248276724
20
-57.390142722746837
30
2.4199839553303911e-15
10
413.93019589066688
20
-57.109781769953109
30
2.3856496137077201e-15
0
SPLINE
5
306
100
AcDbEntity
8
0
100
AcDbSpline
70
0
71
2
72
6
73
3
74
0
42
0.000000001
43
0.0000000001
44
0.0000000001
40
0
40
0
40
0
40
1
40
1
40
1
10
413.93019589066688
20
-57.109781769953109
30
2.3856496137077201e-15
10
413.93051575258568
20
-56.856033077815582
30
2.3545743366574034e-15
10
413.7608838694718
20
-56.682898884580652
30
2.3333977164008462e-15
0
SPLINE
5
307
100
AcDbEntity
8
0
100
AcDbSpline
70
0
71
2
72
6
73
3
74
0
42
0.000000001
43
0.0000000001
44
0.0000000001
40
0
40
0
40
0
40
1
40
1
40
1
10
413.7608838694718
20
-56.682898884580652
30
2.3333977164008462e-15
10
413.59125198034724
20
-56.50976945971351
30
2.3122216801013884e-15
10
413.30682805389426
20
-56.490990696198935
30
2.3099658538259887e-15
0
LINE
5
308
100
AcDbEntity
8
0
100
AcDbLine
10
412.0057923861184
20
-60.991397981699166
30
2.861307197455147e-15
11
412.0062567043276
21
-60.623051106377552
31
2.8161976794323545e-15
0
LINE
5
309
100
AcDbEntity
8
0
100
AcDbLine
10
412.0062567043276
20
-60.623051106377552
30
2.8161976794323545e-15
11
414.35345818361111
21
-60.626009861943444
31
2.8161976794323545e-15
0
SPLINE
5
310
100
AcDbEntity
8
0
100
AcDbSpline
70
0
71
2
72
6
73
3
74
0
42
0.000000001
43
0.0000000001
44
0.0000000001
40
0
40
0
40
0
40
1
40
1
40
1
10
414.35345818361111
20
-60.626009861943444
30
2.8161976794323545e-15
10
414.22675002323473
20
-60.492831541137775
30
2.7999076121844803e-15
10
414.10014647865836
20
-60.276778988266813
30
2.7734683705471567e-15
0
SPLINE
5
311
100
AcDbEntity
8
0
100
AcDbSpline
70
0
71
2
72
6
73
3
74
0
42
0.000000001
43
0.0000000001
44
0.0000000001
40
0
40
0
40
0
40
1
40
1
40
1
10
414.10014647865836
20
-60.276778988266813
30
2.7734683705471567e-15
10
413.97354278507044
20
-60.060726435208018
30
2.7470291289098338e-15
10
413.91032169742033
20
-59.888751578386206
30
2.7259780594296707e-15
0
LINE
5
312
100
AcDbEntity
8
0
100
AcDbLine
10
413.91032169742033
20
-59.888751578386206
30
2.7259780594296707e-15
11
414.26639226084581
21
-59.889200421730365
31
2.7259780594296707e-15
0
SPLINE
5
313
100
AcDbEntity
8
0
100
AcDbSpline
70
0
71
2
72
6
73
3
74
0
42
0.000000001
43
0.0000000001
44
0.0000000001
40
0
40
0
40
0
40
1
40
1
40
1
10
414.26639226084575
20
-59.889200421730365
30
2.7259780594296707e-15
10
414.4112959561391
20
-60.198388108642803
30
2.7638202313490858e-15
10
414.6176893729729
20
-60.429885872264592
30
2.7921386469326263e-15
0
SPLINE
5
314
100
AcDbEntity
8
0
100
AcDbSpline
70
0
71
2
72
6
73
3
74
0
42
0.000000001
43
0.0000000001
44
0.0000000001
40
0
40
0
40
0
40
1
40
1
40
1
10
414.6176893729729
20
-60.429885872264592
30
2.7921386469326263e-15
10
414.82408247976224
20
-60.661393172246292
30
2.8204582304303643e-15
10
415.01836759793463
20
-60.757816208807483
30
2.8322366451274399e-15
0
LINE
5
315
100
AcDbEntity
8
0
100
AcDbLine
10
415.01836759793463
20
-60.757816208807483
30
2.8322366451274399e-15
11
415.01806837091135
21
-60.995195094309516
31
2.8613071974551462e-15
0
LINE
5
316
100
AcDbEntity
8
0
100
AcDbLine
10
415.01806837091135
20
-60.995195094309516
30
2.8613071974551462e-15
11
412.0057923861184
21
-60.991397981699166
31
2.861307197455147e-15
0
ENDSEC
0
SECTION
2
OBJECTS
0
DICTIONARY
5
C
100
AcDbDictionary
3
ACAD_GROUP
350
D
3
ACAD_MLINESTYLE
350
17
0
DICTIONARY
5
D
100
AcDbDictionary
0
DICTIONARY
5
1A
330
C
100
AcDbDictionary
0
DICTIONARY
5
17
100
AcDbDictionary
0
ENDSEC
0
EOF
