0
SECTION
2
HEADER
9
$INSUNITS
70
4
9
$ACADVER
1
AC1014
9
$HANDSEED
5
FFFF
0
ENDSEC
0
SECTION
2
TABLES
0
TABLE
2
VPORT
5
8
100
AcDbSymbolTable
0
ENDTAB
0
TABLE
2
LTYPE
5
5
100
AcDbSymbolTable
0
LTYPE
5
14
100
AcDbSymbolTableRecord
100
AcDbLinetypeTableRecord
2
BYBLOCK
70
0
0
LTYPE
5
15
100
AcDbSymbolTableRecord
100
AcDbLinetypeTableRecord
2
BYLAYER
70
0
0
ENDTAB
0
TABLE
2
LAYER
5
2
100
AcDbSymbolTable
70
2
0
LAYER
5
50
100
AcDbSymbolTableRecord
100
AcDbLayerTableRecord
2
0
70
0
6
CONTINUOUS
0
ENDTAB
0
TABLE
2
STYLE
5
3
100
AcDbSymbolTable
70
1
0
STYLE
5
11
100
AcDbSymbolTableRecord
100
AcDbTextStyleTableRecord
2
STANDARD
70
0
0
ENDTAB
0
TABLE
2
VIEW
5
6
100
AcDbSymbolTable
70
0
0
ENDTAB
0
TABLE
2
UCS
5
7
100
AcDbSymbolTable
70
0
0
ENDTAB
0
TABLE
2
APPID
5
9
100
AcDbSymbolTable
70
2
0
APPID
5
12
100
AcDbSymbolTableRecord
100
AcDbRegAppTableRecord
2
ACAD
70
0
0
ENDTAB
0
TABLE
2
DIMSTYLE
5
A
100
AcDbSymbolTable
70
1
0
ENDTAB
0
TABLE
2
BLOCK_RECORD
5
1
100
AcDbSymbolTable
70
1
0
BLOCK_RECORD
5
1F
100
AcDbSymbolTableRecord
100
AcDbBlockTableRecord
2
*MODEL_SPACE
0
BLOCK_RECORD
5
1B
100
AcDbSymbolTableRecord
100
AcDbBlockTableRecord
2
*PAPER_SPACE
0
ENDTAB
0
ENDSEC
0
SECTION
2
BLOCKS
0
BLOCK
5
20
100
AcDbEntity
100
AcDbBlockBegin
2
*MODEL_SPACE
0
ENDBLK
5
21
100
AcDbEntity
100
AcDbBlockEnd
0
BLOCK
5
1C
100
AcDbEntity
100
AcDbBlockBegin
2
*PAPER_SPACE
0
ENDBLK
5
1D
100
AcDbEntity
100
AcDbBlockEnd
0
ENDSEC
0
SECTION
2
ENTITIES
0
LWPOLYLINE
5
100
100
AcDbEntity
8
0
100
AcDbPolyline
90
4
70
1
43
0.0
10
432.74938156851471
20
21.200000000857912
10
438.9493815685147
20
21.200000000857912
10
438.9493815685147
20
41.200000000857138
10
432.74938156851471
20
41.200000000857138
0
LWPOLYLINE
5
101
100
AcDbEntity
8
0
100
AcDbPolyline
90
4
70
1
43
0.0
10
432.74938156851471
20
104.75647174435274
10
438.9493815685147
20
104.75647174435274
10
438.9493815685147
20
124.75647174434492
10
432.74938156851471
20
124.75647174434492
0
LWPOLYLINE
5
102
100
AcDbEntity
8
0
100
AcDbPolyline
90
4
70
1
43
0.0
10
411.54938156851449
20
21.200000000004469
10
417.74938156851448
20
21.200000000004472
10
417.74938156851448
20
41.200000000004465
10
411.54938156851449
20
41.200000000004465
0
LWPOLYLINE
5
103
100
AcDbEntity
8
0
100
AcDbPolyline
90
4
70
1
43
0.0
10
411.54938156851449
20
105
10
417.74938156851448
20
105
10
417.74938156851448
20
125
10
411.54938156851449
20
125
0
LWPOLYLINE
5
104
100
AcDbEntity
8
0
100
AcDbPolyline
90
20
70
1
43
0.0
10
368.44938156851447
20
140.00000000000003
10
387.0893815685144
20
140
10
387.0893815683832
20
146.20000000000002
10
405.72938156851819
20
146.20000000000002
10
405.7293815685145
20
140
10
424.36938156851448
20
140
10
424.36938156857445
20
146.20000000000002
10
443.00938156849895
20
146.20000000000002
10
443.00938156851453
20
140
10
461.64938156851457
20
139.99999999999997
10
461.64938156851451
20
6.2000000000000011
10
443.00938156849895
20
6.2000000000000011
10
443.00938156851453
20
0
10
424.36938156851448
20
0
10
424.36938156857445
20
6.2000000000000011
10
405.72938156851819
20
6.2000000000000011
10
405.7293815685145
20
0
10
387.0893815685144
20
0
10
387.0893815683832
20
6.2000000000000011
10
368.44938156851447
20
6.1999999999999922
0
LWPOLYLINE
5
105
100
AcDbEntity
8
0
100
AcDbPolyline
90
4
70
1
43
0.0
10
419.83618406518184
20
114.98515295177846
10
419.83618406518184
20
26.064719296170431
10
432.18624429512738
20
26.064719296170438
10
432.18624429512738
20
114.98515295177846
0
LWPOLYLINE
5
106
100
AcDbEntity
8
0
100
AcDbPolyline
90
12
70
1
43
0.0
10
429.85227869559048
20
58.43489282682355
10
426.8522785763812
20
58.43489282682355
10
426.8522785763812
20
58.831890755442934
10
428.26633022833585
20
58.831890755442934
10
428.26633022833585
20
60.391236477641421
10
426.8522785763812
20
60.391236477641421
10
426.8522785763812
20
60.788234406260806
10
429.85227869559048
20
60.788234406260806
10
429.85227869559048
20
60.391236477641421
10
428.62035499621152
20
60.391236477641421
10
428.62035499621152
20
58.831890755442934
10
429.85227869559048
20
58.831890755442934
0
SPLINE
5
107
100
AcDbEntity
8
0
100
AcDbSpline
70
0
71
2
72
6
73
3
74
0
42
0.000000001
43
0.0000000001
44
0.0000000001
40
0
40
0
40
0
40
1
40
1
40
1
10
427.93890880156277
20
61.265042954234438
30
0
10
428.54259239245175
20
61.265042954234438
30
0
10
428.8331790428233
20
61.600650482920962
30
0
0
SPLINE
5
108
100
AcDbEntity
8
0
100
AcDbSpline
70
0
71
2
72
6
73
3
74
0
42
0.000000001
43
0.0000000001
44
0.0000000001
40
0
40
0
40
0
40
1
40
1
40
1
10
428.8331790428233
20
61.600650482920962
30
0
10
429.07465265799283
20
61.881004505900698
30
0
10
429.07465265799283
20
62.284141712931948
30
0
0
SPLINE
5
109
100
AcDbEntity
8
0
100
AcDbSpline
70
0
71
2
72
6
73
3
74
0
42
0.000000001
43
0.0000000001
44
0.0000000001
40
0
40
0
40
0
40
1
40
1
40
1
10
429.07465265799283
20
62.284141712931948
30
0
10
429.07465265799283
20
62.732301884440737
30
0
10
428.78099607039212
20
63.016747170237856
30
0
0
SPLINE
5
110
100
AcDbEntity
8
0
100
AcDbSpline
70
0
71
2
72
6
73
3
74
0
42
0.000000001
43
0.0000000001
44
0.0000000001
40
0
40
0
40
0
40
1
40
1
40
1
10
428.78099607039212
20
63.016747170237856
30
0
10
428.48734007883786
20
63.301194840220766
30
0
10
427.96960459757565
20
63.301194840220766
30
0
0
SPLINE
5
111
100
AcDbEntity
8
0
100
AcDbSpline
70
0
71
2
72
6
73
3
74
0
42
0.000000001
43
0.0000000001
44
0.0000000001
40
0
40
0
40
0
40
1
40
1
40
1
10
427.96960459757565
20
63.301194840220766
30
0
10
427.55009578276395
20
63.301194840220766
30
0
10
427.30964528132199
20
63.175343209056216
30
0
0
SPLINE
5
112
100
AcDbEntity
8
0
100
AcDbSpline
70
0
71
2
72
6
73
3
74
0
42
0.000000001
43
0.0000000001
44
0.0000000001
40
0
40
0
40
0
40
1
40
1
40
1
10
427.30964528132199
20
63.175343209056216
30
0
10
427.06919537592648
20
63.049489193705874
30
0
10
426.93618045855283
20
62.809039288310366
30
0
0
SPLINE
5
113
100
AcDbEntity
8
0
100
AcDbSpline
70
0
71
2
72
6
73
3
74
0
42
0.000000001
43
0.0000000001
44
0.0000000001
40
0
40
0
40
0
40
1
40
1
40
1
10
426.93618045855283
20
62.809039288310366
30
0
10
426.80316554117917
20
62.568589382914858
30
0
10
426.80316554117917
20
62.284141712931948
30
0
0
SPLINE
5
114
100
AcDbEntity
8
0
100
AcDbSpline
70
0
71
2
72
6
73
3
74
0
42
0.000000001
43
0.0000000001
44
0.0000000001
40
0
40
0
40
0
40
1
40
1
40
1
10
426.80316554117917
20
62.284141712931948
30
0
10
426.80316554117917
20
61.827799015788393
30
0
10
427.09579812098264
20
61.54641979291852
30
0
0
SPLINE
5
115
100
AcDbEntity
8
0
100
AcDbSpline
70
0
71
2
72
6
73
3
74
0
42
0.000000001
43
0.0000000001
44
0.0000000001
40
0
40
0
40
0
40
1
40
1
40
1
10
427.09579812098264
20
61.54641979291852
30
0
10
427.38843129683255
20
61.265042954234438
30
0
10
427.93890880156277
20
61.265042954234438
30
0
0
SPLINE
5
116
100
AcDbEntity
8
0
100
AcDbSpline
70
0
71
2
72
6
73
3
74
0
42
0.000000001
43
0.0000000001
44
0.0000000001
40
0
40
0
40
0
40
1
40
1
40
1
10
427.93890880156277
20
61.643623047618227
30
0
10
427.52144621420621
20
61.643623047618227
30
0
10
427.31373833227872
20
61.825753384379702
30
0
0
SPLINE
5
117
100
AcDbEntity
8
0
100
AcDbSpline
70
0
71
2
72
6
73
3
74
0
42
0.000000001
43
0.0000000001
44
0.0000000001
40
0
40
0
40
0
40
1
40
1
40
1
10
427.31373833227872
20
61.825753384379702
30
0
10
427.10603045035123
20
62.007881336955386
30
0
10
427.10603045035123
20
62.284141712931948
30
0
0
SPLINE
5
118
100
AcDbEntity
8
0
100
AcDbSpline
70
0
71
2
72
6
73
3
74
0
42
0.000000001
43
0.0000000001
44
0.0000000001
40
0
40
0
40
0
40
1
40
1
40
1
10
427.10603045035123
20
62.284141712931948
30
0
10
427.10603045035123
20
62.558356457499819
30
0
10
427.31476174402951
20
62.740486794261294
30
0
0
SPLINE
5
119
100
AcDbEntity
8
0
100
AcDbSpline
70
0
71
2
72
6
73
3
74
0
42
0.000000001
43
0.0000000001
44
0.0000000001
40
0
40
0
40
0
40
1
40
1
40
1
10
427.31476174402951
20
62.740486794261294
30
0
10
427.52349244166135
20
62.922614746836977
30
0
10
427.95118735838651
20
62.922614746836977
30
0
0
SPLINE
5
120
100
AcDbEntity
8
0
100
AcDbSpline
70
0
71
2
72
6
73
3
74
0
42
0.000000001
43
0.0000000001
44
0.0000000001
40
0
40
0
40
0
40
1
40
1
40
1
10
427.95118735838651
20
62.922614746836977
30
0
10
428.3543251614642
20
62.922614746836977
30
0
10
428.56203304339169
20
62.739463978556948
30
0
0
SPLINE
5
121
100
AcDbEntity
8
0
100
AcDbSpline
70
0
71
2
72
6
73
3
74
0
42
0.000000001
43
0.0000000001
44
0.0000000001
40
0
40
0
40
0
40
1
40
1
40
1
10
428.56203304339169
20
62.739463978556948
30
0
10
428.76974092531918
20
62.556310826091128
30
0
10
428.76974092531918
20
62.284141712931948
30
0
0
SPLINE
5
122
100
AcDbEntity
8
0
100
AcDbSpline
70
0
71
2
72
6
73
3
74
0
42
0.000000001
43
0.0000000001
44
0.0000000001
40
0
40
0
40
0
40
1
40
1
40
1
10
428.76974092531918
20
62.284141712931948
30
0
10
428.76974092531918
20
62.007881336955386
30
0
10
428.56305645514249
20
61.825753384379702
30
0
0
SPLINE
5
123
100
AcDbEntity
8
0
100
AcDbSpline
70
0
71
2
72
6
73
3
74
0
42
0.000000001
43
0.0000000001
44
0.0000000001
40
0
40
0
40
0
40
1
40
1
40
1
10
428.56305645514249
20
61.825753384379702
30
0
10
428.35637138891934
20
61.643623047618227
30
0
10
427.93890880156277
20
61.643623047618227
30
0
0
LINE
5
124
100
AcDbEntity
8
0
100
AcDbLine
10
426.8522785763812
20
65.157266789225886
30
0
11
427.17151449728726
21
65.157266789225886
31
0
0
SPLINE
5
125
100
AcDbEntity
8
0
100
AcDbSpline
70
0
71
2
72
6
73
3
74
0
42
0.000000001
43
0.0000000001
44
0.0000000001
40
0
40
0
40
0
40
1
40
1
40
1
10
427.17151449728726
20
65.157266789225886
30
0
10
426.80316554117917
20
64.903515511302302
30
0
10
426.80316554117917
20
64.467636280803035
30
0
0
SPLINE
5
126
100
AcDbEntity
8
0
100
AcDbSpline
70
0
71
2
72
6
73
3
74
0
42
0.000000001
43
0.0000000001
44
0.0000000001
40
0
40
0
40
0
40
1
40
1
40
1
10
426.80316554117917
20
64.467636280803035
30
0
10
426.80316554117917
20
64.275275402812312
30
0
10
426.87683509398221
20
64.108494454173396
30
0
0
SPLINE
5
127
100
AcDbEntity
8
0
100
AcDbSpline
70
0
71
2
72
6
73
3
74
0
42
0.000000001
43
0.0000000001
44
0.0000000001
40
0
40
0
40
0
40
1
40
1
40
1
10
426.87683509398221
20
64.108494454173396
30
0
10
426.9505052428317
20
63.941713505534487
30
0
10
427.06203328181027
20
63.860882454661684
30
0
0
SPLINE
5
128
100
AcDbEntity
8
0
100
AcDbSpline
70
0
71
2
72
6
73
3
74
0
42
0.000000001
43
0.0000000001
44
0.0000000001
40
0
40
0
40
0
40
1
40
1
40
1
10
427.06203328181027
20
63.860882454661684
30
0
10
427.1735607247424
20
63.780049019603091
30
0
10
427.3352252106738
20
63.747306996135073
30
0
0
SPLINE
5
129
100
AcDbEntity
8
0
100
AcDbSpline
70
0
71
2
72
6
73
3
74
0
42
0.000000001
43
0.0000000001
44
0.0000000001
40
0
40
0
40
0
40
1
40
1
40
1
10
427.3352252106738
20
63.747306996135073
30
0
10
427.44368361044644
20
63.724797898082095
30
0
10
427.67901824522733
20
63.724797898082095
30
0
0
LINE
5
130
100
AcDbEntity
8
0
100
AcDbLine
10
427.67901824522733
20
63.724797898082095
30
0
11
429.02553902674435
21
63.724797898082095
31
0
0
LINE
5
131
100
AcDbEntity
8
0
100
AcDbLine
10
429.02553902674435
20
63.724797898082095
30
0
11
429.02553902674435
21
64.093147450236629
31
0
0
LINE
5
132
100
AcDbEntity
8
0
100
AcDbLine
10
429.02553902674435
20
64.093147450236629
30
0
11
427.82021866846799
21
64.093147450236629
31
0
0
SPLINE
5
133
100
AcDbEntity
8
0
100
AcDbSpline
70
0
71
2
72
6
73
3
74
0
42
0.000000001
43
0.0000000001
44
0.0000000001
40
0
40
0
40
0
40
1
40
1
40
1
10
427.82021866846799
20
64.093147450236629
30
0
10
427.5316785435748
20
64.093147450236629
30
0
10
427.43140564966916
20
64.115656548289607
30
0
0
SPLINE
5
134
100
AcDbEntity
8
0
100
AcDbSpline
70
0
71
2
72
6
73
3
74
0
42
0.000000001
43
0.0000000001
44
0.0000000001
40
0
40
0
40
0
40
1
40
1
40
1
10
427.43140564966916
20
64.115656548289607
30
0
10
427.28611217547177
20
64.150444203166316
30
0
10
427.20323370505093
20
64.262996845988582
30
0
0
SPLINE
5
135
100
AcDbEntity
8
0
100
AcDbSpline
70
0
71
2
72
6
73
3
74
0
42
0.000000001
43
0.0000000001
44
0.0000000001
40
0
40
0
40
0
40
1
40
1
40
1
10
427.20323370505093
20
64.262996845988582
30
0
10
427.1203552346301
20
64.375547104625056
30
0
10
427.1203552346301
20
64.541305237559627
30
0
0
SPLINE
5
136
100
AcDbEntity
8
0
100
AcDbSpline
70
0
71
2
72
6
73
3
74
0
42
0.000000001
43
0.0000000001
44
0.0000000001
40
0
40
0
40
0
40
1
40
1
40
1
10
427.1203552346301
20
64.541305237559627
30
0
10
427.1203552346301
20
64.707060986308406
30
0
10
427.20527993250607
20
64.852355652598689
30
0
0
SPLINE
5
137
100
AcDbEntity
8
0
100
AcDbSpline
70
0
71
2
72
6
73
3
74
0
42
0.000000001
43
0.0000000001
44
0.0000000001
40
0
40
0
40
0
40
1
40
1
40
1
10
427.20527993250607
20
64.852355652598689
30
0
10
427.29020463038205
20
64.997647934703181
30
0
10
427.43652151633023
20
65.058017903117488
30
0
0
SPLINE
5
138
100
AcDbEntity
8
0
100
AcDbSpline
70
0
71
2
72
6
73
3
74
0
42
0.000000001
43
0.0000000001
44
0.0000000001
40
0
40
0
40
0
40
1
40
1
40
1
10
427.43652151633023
20
65.058017903117488
30
0
10
427.58283780623196
20
65.118385487346004
30
0
10
427.86114619780301
20
65.118385487346004
30
0
0
LINE
5
139
100
AcDbEntity
8
0
100
AcDbLine
10
427.86114619780301
20
65.118385487346004
30
0
11
429.02553902674435
21
65.118385487346004
31
0
0
LINE
5
140
100
AcDbEntity
8
0
100
AcDbLine
10
429.02553902674435
20
65.118385487346004
30
0
11
429.02553902674435
21
65.486735039500545
31
0
0
LINE
5
141
100
AcDbEntity
8
0
100
AcDbLine
10
429.02553902674435
20
65.486735039500545
30
0
11
426.8522785763812
21
65.486735039500545
31
0
0
LINE
5
142
100
AcDbEntity
8
0
100
AcDbLine
10
426.8522785763812
20
65.486735039500545
30
0
11
426.8522785763812
21
65.157266789225886
31
0
0
LINE
5
143
100
AcDbEntity
8
0
100
AcDbLine
10
427.50098274756192
20
65.916474991587947
30
0
11
427.55828128863095
21
66.280733280925105
31
0
0
SPLINE
5
144
100
AcDbEntity
8
0
100
AcDbSpline
70
0
71
2
72
6
73
3
74
0
42
0.000000001
43
0.0000000001
44
0.0000000001
40
0
40
0
40
0
40
1
40
1
40
1
10
427.55828128863095
20
66.280733280925105
30
0
10
427.33931826163052
20
66.31142728879864
30
0
10
427.22267435599088
20
66.451607876567195
30
0
0
SPLINE
5
145
100
AcDbEntity
8
0
100
AcDbSpline
70
0
71
2
72
6
73
3
74
0
42
0.000000001
43
0.0000000001
44
0.0000000001
40
0
40
0
40
0
40
1
40
1
40
1
10
427.22267435599088
20
66.451607876567195
30
0
10
427.10603045035123
20
66.591783695964168
30
0
10
427.10603045035123
20
66.843486958293269
30
0
0
SPLINE
5
146
100
AcDbEntity
8
0
100
AcDbSpline
70
0
71
2
72
6
73
3
74
0
42
0.000000001
43
0.0000000001
44
0.0000000001
40
0
40
0
40
0
40
1
40
1
40
1
10
427.10603045035123
20
66.843486958293269
30
0
10
427.10603045035123
20
67.097240620402644
30
0
10
427.2093729834628
20
67.220021420268367
30
0
0
SPLINE
5
147
100
AcDbEntity
8
0
100
AcDbSpline
70
0
71
2
72
6
73
3
74
0
42
0.000000001
43
0.0000000001
44
0.0000000001
40
0
40
0
40
0
40
1
40
1
40
1
10
427.2093729834628
20
67.220021420268367
30
0
10
427.31271492052792
20
67.342806988505671
30
0
10
427.45186911631345
20
67.342806988505671
30
0
0
SPLINE
5
148
100
AcDbEntity
8
0
100
AcDbSpline
70
0
71
2
72
6
73
3
74
0
42
0.000000001
43
0.0000000001
44
0.0000000001
40
0
40
0
40
0
40
1
40
1
40
1
10
427.45186911631345
20
67.342806988505671
30
0
10
427.5766985278201
20
67.342806988505671
30
0
10
427.64832244921445
20
67.234345608500789
30
0
0
SPLINE
5
149
100
AcDbEntity
8
0
100
AcDbSpline
70
0
71
2
72
6
73
3
74
0
42
0.000000001
43
0.0000000001
44
0.0000000001
40
0
40
0
40
0
40
1
40
1
40
1
10
427.64832244921445
20
67.234345608500789
30
0
10
427.69743548441647
20
67.158633404521296
30
0
10
427.7731518607211
20
66.857811146525691
30
0
0
SPLINE
5
150
100
AcDbEntity
8
0
100
AcDbSpline
70
0
71
2
72
6
73
3
74
0
42
0.000000001
43
0.0000000001
44
0.0000000001
40
0
40
0
40
0
40
1
40
1
40
1
10
427.7731518607211
20
66.857811146525691
30
0
10
427.87547098208188
20
66.45262830808575
30
0
10
427.95016394663571
20
66.296077900676082
30
0
0
SPLINE
5
151
100
AcDbEntity
8
0
100
AcDbSpline
70
0
71
2
72
6
73
3
74
0
42
0.000000001
43
0.0000000001
44
0.0000000001
40
0
40
0
40
0
40
1
40
1
40
1
10
427.95016394663571
20
66.296077900676082
30
0
10
428.02485691118954
20
66.139532261637996
30
0
10
428.15684901285886
20
66.058698826579402
30
0
0
SPLINE
5
152
100
AcDbEntity
8
0
100
AcDbSpline
70
0
71
2
72
6
73
3
74
0
42
0.000000001
43
0.0000000001
44
0.0000000001
40
0
40
0
40
0
40
1
40
1
40
1
10
428.15684901285886
20
66.058698826579402
30
0
10
428.28884051848172
20
65.977865391520808
30
0
10
428.44845877695798
20
65.977865391520808
30
0
0
SPLINE
5
153
100
AcDbEntity
8
0
100
AcDbSpline
70
0
71
2
72
6
73
3
74
0
42
0.000000001
43
0.0000000001
44
0.0000000001
40
0
40
0
40
0
40
1
40
1
40
1
10
428.44845877695798
20
65.977865391520808
30
0
10
428.59375225115537
20
65.977865391520808
30
0
10
428.71755825091122
20
66.04437463834698
30
0
0
SPLINE
5
154
100
AcDbEntity
8
0
100
AcDbSpline
70
0
71
2
72
6
73
3
74
0
42
0.000000001
43
0.0000000001
44
0.0000000001
40
0
40
0
40
0
40
1
40
1
40
1
10
428.71755825091122
20
66.04437463834698
30
0
10
428.84136454869031
20
66.110883885173152
30
0
10
428.92321990538358
20
66.225482159404109
30
0
0
SPLINE
5
155
100
AcDbEntity
8
0
100
AcDbSpline
70
0
71
2
72
6
73
3
74
0
42
0.000000001
43
0.0000000001
44
0.0000000001
40
0
40
0
40
0
40
1
40
1
40
1
10
428.92321990538358
20
66.225482159404109
30
0
10
428.98665772486447
20
66.31142728879864
30
0
10
429.03065519142865
20
66.459790402201961
30
0
0
SPLINE
5
156
100
AcDbEntity
8
0
100
AcDbSpline
70
0
71
2
72
6
73
3
74
0
42
0.000000001
43
0.0000000001
44
0.0000000001
40
0
40
0
40
0
40
1
40
1
40
1
10
429.03065519142865
20
66.459790402201961
30
0
10
429.07465265799283
20
66.608153515605281
30
0
10
429.07465265799283
20
66.778002911357234
30
0
0
SPLINE
5
157
100
AcDbEntity
8
0
100
AcDbSpline
70
0
71
2
72
6
73
3
74
0
42
0.000000001
43
0.0000000001
44
0.0000000001
40
0
40
0
40
0
40
1
40
1
40
1
10
429.07465265799283
20
66.778002911357234
30
0
10
429.07465265799283
20
67.0338022048753
30
0
10
429.00098250914334
20
67.227183514384578
30
0
0
SPLINE
5
158
100
AcDbEntity
8
0
100
AcDbSpline
70
0
71
2
72
6
73
3
74
0
42
0.000000001
43
0.0000000001
44
0.0000000001
40
0
40
0
40
0
40
1
40
1
40
1
10
429.00098250914334
20
67.227183514384578
30
0
10
428.9273129563403
20
67.420569592265437
30
0
10
428.80146013308286
20
67.512656384257625
30
0
0
SPLINE
5
159
100
AcDbEntity
8
0
100
AcDbSpline
70
0
71
2
72
6
73
3
74
0
42
0.000000001
43
0.0000000001
44
0.0000000001
40
0
40
0
40
0
40
1
40
1
40
1
10
428.80146013308286
20
67.512656384257625
30
0
10
428.67560730982541
20
67.604743176249812
30
0
10
428.46482978869199
20
67.639533215312312
30
0
0
LINE
5
160
100
AcDbEntity
8
0
100
AcDbLine
10
428.46482978869187
20
67.639533215312312
30
0
11
428.41571675348996
21
67.279368572978328
31
0
0
SPLINE
5
161
100
AcDbEntity
8
0
100
AcDbSpline
70
0
71
2
72
6
73
3
74
0
42
0.000000001
43
0.0000000001
44
0.0000000001
40
0
40
0
40
0
40
1
40
1
40
1
10
428.41571675348996
20
67.279368572978328
30
0
10
428.58351992178677
20
67.254811459330867
30
0
10
428.67765383530377
20
67.137142353801082
30
0
0
SPLINE
5
162
100
AcDbEntity
8
0
100
AcDbSpline
70
0
71
2
72
6
73
3
74
0
42
0.000000001
43
0.0000000001
44
0.0000000001
40
0
40
0
40
0
40
1
40
1
40
1
10
428.67765383530377
20
67.137142353801082
30
0
10
428.77178774882077
20
67.019478016642879
30
0
10
428.77178774882077
20
66.804605656413386
30
0
0
SPLINE
5
163
100
AcDbEntity
8
0
100
AcDbSpline
70
0
71
2
72
6
73
3
74
0
42
0.000000001
43
0.0000000001
44
0.0000000001
40
0
40
0
40
0
40
1
40
1
40
1
10
428.77178774882077
20
66.804605656413386
30
0
10
428.77178774882077
20
66.550856762675593
30
0
10
428.68788586664914
20
66.442395382670711
30
0
0
SPLINE
5
164
100
AcDbEntity
8
0
100
AcDbSpline
70
0
71
2
72
6
73
3
74
0
42
0.000000001
43
0.0000000001
44
0.0000000001
40
0
40
0
40
0
40
1
40
1
40
1
10
428.68788586664914
20
66.442395382670711
30
0
10
428.60398398447751
20
66.33393877103741
30
0
10
428.49143283177136
20
66.33393877103741
30
0
0
SPLINE
5
165
100
AcDbEntity
8
0
100
AcDbSpline
70
0
71
2
72
6
73
3
74
0
42
0.000000001
43
0.0000000001
44
0.0000000001
40
0
40
0
40
0
40
1
40
1
40
1
10
428.49143283177136
20
66.33393877103741
30
0
10
428.41980920840024
20
66.33393877103741
30
0
10
428.36251066733121
20
66.378956967143367
30
0
0
SPLINE
5
166
100
AcDbEntity
8
0
100
AcDbSpline
70
0
71
2
72
6
73
3
74
0
42
0.000000001
43
0.0000000001
44
0.0000000001
40
0
40
0
40
0
40
1
40
1
40
1
10
428.36251066733121
20
66.378956967143367
30
0
10
428.30316530276059
20
66.423979931620906
30
0
10
428.26428400088071
20
66.520157986430476
30
0
0
SPLINE
5
167
100
AcDbEntity
8
0
100
AcDbSpline
70
0
71
2
72
6
73
3
74
0
42
0.000000001
43
0.0000000001
44
0.0000000001
40
0
40
0
40
0
40
1
40
1
40
1
10
428.26428400088071
20
66.520157986430476
30
0
10
428.2438202362132
20
66.575413876323054
30
0
10
428.17015038538693
20
66.845532589701961
30
0
0
SPLINE
5
168
100
AcDbEntity
8
0
100
AcDbSpline
70
0
71
2
72
6
73
3
74
0
42
0.000000001
43
0.0000000001
44
0.0000000001
40
0
40
0
40
0
40
1
40
1
40
1
10
428.17015038538693
20
66.845532589701961
30
0
10
428.06578473854779
20
67.236396008281062
30
0
10
427.99927727986096
20
67.390896015910457
30
0
0
SPLINE
5
169
100
AcDbEntity
8
0
100
AcDbSpline
70
0
71
2
72
6
73
3
74
0
42
0.000000001
43
0.0000000001
44
0.0000000001
40
0
40
0
40
0
40
1
40
1
40
1
10
427.99927727986096
20
67.390896015910457
30
0
10
427.93276952315091
20
67.545396023539851
30
0
10
427.80589388418912
20
67.633391552714656
30
0
0
SPLINE
5
170
100
AcDbEntity
8
0
100
AcDbSpline
70
0
71
2
72
6
73
3
74
0
42
0.000000001
43
0.0000000001
44
0.0000000001
40
0
40
0
40
0
40
1
40
1
40
1
10
427.80589388418912
20
67.633391552714656
30
0
10
427.67901824522733
20
67.721387081889461
30
0
10
427.49075041819333
20
67.721387081889461
30
0
0
SPLINE
5
171
100
AcDbEntity
8
0
100
AcDbSpline
70
0
71
2
72
6
73
3
74
0
42
0.000000001
43
0.0000000001
44
0.0000000001
40
0
40
0
40
0
40
1
40
1
40
1
10
427.49075041819333
20
67.721387081889461
30
0
10
427.30657623816251
20
67.721387081889461
30
0
10
427.14388834048032
20
67.613950901774714
30
0
0
SPLINE
5
172
100
AcDbEntity
8
0
100
AcDbSpline
70
0
71
2
72
6
73
3
74
0
42
0.000000001
43
0.0000000001
44
0.0000000001
40
0
40
0
40
0
40
1
40
1
40
1
10
427.14388834048032
20
67.613950901774714
30
0
10
426.98120103884457
20
67.506514721659968
30
0
10
426.89218329001187
20
67.303925686625789
30
0
0
SPLINE
5
173
100
AcDbEntity
8
0
100
AcDbSpline
70
0
71
2
72
6
73
3
74
0
42
0.000000001
43
0.0000000001
44
0.0000000001
40
0
40
0
40
0
40
1
40
1
40
1
10
426.89218329001187
20
67.303925686625789
30
0
10
426.80316554117917
20
67.101331883220027
30
0
10
426.80316554117917
20
66.845532589701961
30
0
0
SPLINE
5
174
100
AcDbEntity
8
0
100
AcDbSpline
70
0
71
2
72
6
73
3
74
0
42
0.000000001
43
0.0000000001
44
0.0000000001
40
0
40
0
40
0
40
1
40
1
40
1
10
426.80316554117917
20
66.845532589701961
30
0
10
426.80316554117917
20
66.421934300212214
30
0
10
426.97915421534299
20
66.199899845866511
30
0
0
SPLINE
5
175
100
AcDbEntity
8
0
100
AcDbSpline
70
0
71
2
72
6
73
3
74
0
42
0.000000001
43
0.0000000001
44
0.0000000001
40
0
40
0
40
0
40
1
40
1
40
1
10
426.97915421534299
20
66.199899845866511
30
0
10
427.15514348555325
20
65.977865391520808
30
0
10
427.50098274756192
20
65.916474991587947
30
0
0
LWPOLYLINE
5
176
100
AcDbEntity
8
0
100
AcDbPolyline
90
4
70
1
43
0.0
10
429.85227869559048
20
68.161359959391902
10
429.42867712784528
20
68.161359959391902
10
429.42867712784528
20
68.529707127360652
10
429.85227869559048
20
68.529707127360652
0
LWPOLYLINE
5
177
100
AcDbEntity
8
0
100
AcDbPolyline
90
4
70
1
43
0.0
10
429.02553902674435
20
68.161359959391902
10
426.8522785763812
20
68.161359959391902
10
426.8522785763812
20
68.529707127360652
10
429.02553902674435
20
68.529707127360652
0
LINE
5
178
100
AcDbEntity
8
0
100
AcDbLine
10
426.8522785763812
20
69.090415173320125
30
0
11
429.02553902674435
21
69.090415173320125
31
0
0
LINE
5
179
100
AcDbEntity
8
0
100
AcDbLine
10
429.02553902674435
20
69.090415173320125
30
0
11
429.02553902674435
21
69.421931439189265
31
0
0
LINE
5
180
100
AcDbEntity
8
0
100
AcDbLine
10
429.02553902674435
20
69.421931439189265
30
0
11
428.71653513718366
21
69.421931439189265
31
0
0
SPLINE
5
181
100
AcDbEntity
8
0
100
AcDbSpline
70
0
71
2
72
6
73
3
74
0
42
0.000000001
43
0.0000000001
44
0.0000000001
40
0
40
0
40
0
40
1
40
1
40
1
10
428.71653513718366
20
69.421931439189265
30
0
10
429.0746523599696
20
69.661360913066218
30
0
10
429.0746523599696
20
70.11361234739239
30
0
0
SPLINE
5
182
100
AcDbEntity
8
0
100
AcDbSpline
70
0
71
2
72
6
73
3
74
0
42
0.000000001
43
0.0000000001
44
0.0000000001
40
0
40
0
40
0
40
1
40
1
40
1
10
429.0746523599696
20
70.11361234739239
30
0
10
429.0746523599696
20
70.310064488200496
30
0
10
429.00405214834927
20
70.474797421244929
30
0
0
SPLINE
5
183
100
AcDbEntity
8
0
100
AcDbSpline
70
0
71
2
72
6
73
3
74
0
42
0.000000001
43
0.0000000001
44
0.0000000001
40
0
40
0
40
0
40
1
40
1
40
1
10
429.00405214834927
20
70.474797421244929
30
0
10
428.93345193672894
20
70.639530354289363
30
0
10
428.81885425854443
20
70.721388989238093
30
0
0
SPLINE
5
184
100
AcDbEntity
8
0
100
AcDbSpline
70
0
71
2
72
6
73
3
74
0
42
0.000000001
43
0.0000000001
44
0.0000000001
40
0
40
0
40
0
40
1
40
1
40
1
10
428.81885425854443
20
70.721388989238093
30
0
10
428.70425687838315
20
70.803242855815242
30
0
10
428.54668514538525
20
70.835982495097468
30
0
0
SPLINE
5
185
100
AcDbEntity
8
0
100
AcDbSpline
70
0
71
2
72
6
73
3
74
0
42
0.000000001
43
0.0000000001
44
0.0000000001
40
0
40
0
40
0
40
1
40
1
40
1
10
428.54668514538525
20
70.835982495097468
30
0
10
428.44436572600125
20
70.856448345927546
30
0
10
428.18856762457608
20
70.856448345927546
30
0
0
LINE
5
186
100
AcDbEntity
8
0
100
AcDbLine
10
428.18856762457608
20
70.856448345927546
30
0
11
426.8522785763812
21
70.856448345927546
31
0
0
LINE
5
187
100
AcDbEntity
8
0
100
AcDbLine
10
426.8522785763812
20
70.856448345927546
30
0
11
426.8522785763812
21
70.488101177958796
31
0
0
LINE
5
188
100
AcDbEntity
8
0
100
AcDbLine
10
426.8522785763812
20
70.488101177958796
30
0
11
428.17424313832043
21
70.488101177958796
31
0
0
SPLINE
5
189
100
AcDbEntity
8
0
100
AcDbSpline
70
0
71
2
72
6
73
3
74
0
42
0.000000001
43
0.0000000001
44
0.0000000001
40
0
40
0
40
0
40
1
40
1
40
1
10
428.17424313832043
20
70.488101177958796
30
0
10
428.39934544373273
20
70.488101177958796
30
0
10
428.5108734827113
20
70.445123844889949
30
0
0
SPLINE
5
190
100
AcDbEntity
8
0
100
AcDbSpline
70
0
71
2
72
6
73
3
74
0
42
0.000000001
43
0.0000000001
44
0.0000000001
40
0
40
0
40
0
40
1
40
1
40
1
10
428.5108734827113
20
70.445123844889949
30
0
10
428.62240122366666
20
70.402151280192683
30
0
10
428.68890868235349
20
70.292669468669246
30
0
0
SPLINE
5
191
100
AcDbEntity
8
0
100
AcDbSpline
70
0
71
2
72
6
73
3
74
0
42
0.000000001
43
0.0000000001
44
0.0000000001
40
0
40
0
40
0
40
1
40
1
40
1
10
428.68890868235349
20
70.292669468669246
30
0
10
428.75541643906354
20
70.183187657145808
30
0
10
428.75541643906354
20
70.035849743632625
30
0
0
SPLINE
5
192
100
AcDbEntity
8
0
100
AcDbSpline
70
0
71
2
72
6
73
3
74
0
42
0.000000001
43
0.0000000001
44
0.0000000001
40
0
40
0
40
0
40
1
40
1
40
1
10
428.75541643906354
20
70.035849743632625
30
0
10
428.75541643906354
20
69.800511532573054
30
0
10
428.60603021193265
20
69.629641705302546
30
0
0
SPLINE
5
193
100
AcDbEntity
8
0
100
AcDbSpline
70
0
71
2
72
6
73
3
74
0
42
0.000000001
43
0.0000000001
44
0.0000000001
40
0
40
0
40
0
40
1
40
1
40
1
10
428.60603021193265
20
69.629641705302546
30
0
10
428.45664428282498
20
69.458767109660457
30
0
10
428.03918169546841
20
69.458767109660457
30
0
0
LINE
5
194
100
AcDbEntity
8
0
100
AcDbLine
10
428.03918169546841
20
69.458767109660457
30
0
11
426.8522785763812
21
69.458767109660457
31
0
0
LINE
5
195
100
AcDbEntity
8
0
100
AcDbLine
10
426.8522785763812
20
69.458767109660457
30
0
11
426.8522785763812
21
69.090415173320125
31
0
0
LINE
5
196
100
AcDbEntity
8
0
100
AcDbLine
10
426.67219685126065
20
71.353722744731257
30
0
11
426.6189907651019
21
71.711836987284968
31
0
0
SPLINE
5
197
100
AcDbEntity
8
0
100
AcDbSpline
70
0
71
2
72
6
73
3
74
0
42
0.000000001
43
0.0000000001
44
0.0000000001
40
0
40
0
40
0
40
1
40
1
40
1
10
426.6189907651019
20
71.711836987284968
30
0
10
426.45323382426022
20
71.734348469523738
30
0
10
426.3775174479556
20
71.836668186930964
30
0
0
SPLINE
5
198
100
AcDbEntity
8
0
100
AcDbSpline
70
0
71
2
72
6
73
3
74
0
42
0.000000001
43
0.0000000001
44
0.0000000001
40
0
40
0
40
0
40
1
40
1
40
1
10
426.3775174479556
20
71.836668186930964
30
0
10
426.27519832659482
20
71.973773175029109
30
0
10
426.27519832659482
20
72.211157017497371
30
0
0
SPLINE
5
199
100
AcDbEntity
8
0
100
AcDbSpline
70
0
71
2
72
6
73
3
74
0
42
0.000000001
43
0.0000000001
44
0.0000000001
40
0
40
0
40
0
40
1
40
1
40
1
10
426.27519832659482
20
72.211157017497371
30
0
10
426.27519832659482
20
72.466956311015437
30
0
10
426.3775174479556
20
72.606106930522273
30
0
0
SPLINE
5
200
100
AcDbEntity
8
0
100
AcDbSpline
70
0
71
2
72
6
73
3
74
0
42
0.000000001
43
0.0000000001
44
0.0000000001
40
0
40
0
40
0
40
1
40
1
40
1
10
426.3775174479556
20
72.606106930522273
30
0
10
426.47983656931638
20
72.745262318400691
30
0
10
426.66401134539365
20
72.794376545695613
30
0
0
SPLINE
5
201
100
AcDbEntity
8
0
100
AcDbSpline
70
0
71
2
72
6
73
3
74
0
42
0.000000001
43
0.0000000001
44
0.0000000001
40
0
40
0
40
0
40
1
40
1
40
1
10
426.66401134539365
20
72.794376545695613
30
0
10
426.77656220007657
20
72.823024922160457
30
0
10
427.13672624636411
20
72.820979290751765
30
0
0
SPLINE
5
202
100
AcDbEntity
8
0
100
AcDbSpline
70
0
71
2
72
6
73
3
74
0
42
0.000000001
43
0.0000000001
44
0.0000000001
40
0
40
0
40
0
40
1
40
1
40
1
10
427.13672624636411
20
72.820979290751765
30
0
10
426.8522785763812
20
72.579504185466121
30
0
10
426.8522785763812
20
72.219339543132136
30
0
0
SPLINE
5
203
100
AcDbEntity
8
0
100
AcDbSpline
70
0
71
2
72
6
73
3
74
0
42
0.000000001
43
0.0000000001
44
0.0000000001
40
0
40
0
40
0
40
1
40
1
40
1
10
426.8522785763812
20
72.219339543132136
30
0
10
426.8522785763812
20
71.771184139994929
30
0
10
427.17560754824399
20
71.525617771891902
30
0
0
SPLINE
5
204
100
AcDbEntity
8
0
100
AcDbSpline
70
0
71
2
72
6
73
3
74
0
42
0.000000001
43
0.0000000001
44
0.0000000001
40
0
40
0
40
0
40
1
40
1
40
1
10
427.17560754824399
20
71.525617771891902
30
0
10
427.49893652010678
20
71.280051403788875
30
0
10
427.95118735838651
20
71.280051403788875
30
0
0
SPLINE
5
205
100
AcDbEntity
8
0
100
AcDbSpline
70
0
71
2
72
6
73
3
74
0
42
0.000000001
43
0.0000000001
44
0.0000000001
40
0
40
0
40
0
40
1
40
1
40
1
10
427.95118735838651
20
71.280051403788875
30
0
10
428.26223777342557
20
71.280051403788875
30
0
10
428.52519796896695
20
71.39260404661114
30
0
0
SPLINE
5
206
100
AcDbEntity
8
0
100
AcDbSpline
70
0
71
2
72
6
73
3
74
0
42
0.000000001
43
0.0000000001
44
0.0000000001
40
0
40
0
40
0
40
1
40
1
40
1
10
428.52519796896695
20
71.39260404661114
30
0
10
428.78815876055478
20
71.505151921061824
30
0
10
428.93140541125058
20
71.718999081401179
30
0
0
SPLINE
5
207
100
AcDbEntity
8
0
100
AcDbSpline
70
0
71
2
72
6
73
3
74
0
42
0.000000001
43
0.0000000001
44
0.0000000001
40
0
40
0
40
0
40
1
40
1
40
1
10
428.93140541125058
20
71.718999081401179
30
0
10
429.07465265799283
20
71.932846241740535
30
0
10
429.07465265799283
20
72.221385174540828
30
0
0
SPLINE
5
208
100
AcDbEntity
8
0
100
AcDbSpline
70
0
71
2
72
6
73
3
74
0
42
0.000000001
43
0.0000000001
44
0.0000000001
40
0
40
0
40
0
40
1
40
1
40
1
10
429.07465265799283
20
72.221385174540828
30
0
10
429.07465265799283
20
72.606106930522273
30
0
10
428.76360164690732
20
72.855769329814265
30
0
0
LINE
5
209
100
AcDbEntity
8
0
100
AcDbLine
10
428.76360164690732
20
72.855769329814265
30
0
11
429.02553902674435
21
72.855769329814265
31
0
0
LINE
5
210
100
AcDbEntity
8
0
100
AcDbLine
10
429.02553902674435
20
72.855769329814265
30
0
11
429.02553902674435
21
73.195468121318171
31
0
0
LINE
5
211
100
AcDbEntity
8
0
100
AcDbLine
10
429.02553902674435
20
73.195468121318171
30
0
11
427.14695797968625
21
73.195468121318171
31
0
0
SPLINE
5
212
100
AcDbEntity
8
0
100
AcDbSpline
70
0
71
2
72
6
73
3
74
0
42
0.000000001
43
0.0000000001
44
0.0000000001
40
0
40
0
40
0
40
1
40
1
40
1
10
427.14695797968625
20
73.195468121318171
30
0
10
426.63945423174619
20
73.195468121318171
30
0
10
426.42765389490842
20
73.092123204020808
30
0
0
SPLINE
5
213
100
AcDbEntity
8
0
100
AcDbSpline
70
0
71
2
72
6
73
3
74
0
42
0.000000001
43
0.0000000001
44
0.0000000001
40
0
40
0
40
0
40
1
40
1
40
1
10
426.42765389490842
20
73.092123204020808
30
0
10
426.2158529620242
20
72.988783055095027
30
0
10
426.09306977797269
20
72.764702969340632
30
0
0
SPLINE
5
214
100
AcDbEntity
8
0
100
AcDbSpline
70
0
71
2
72
6
73
3
74
0
42
0.000000001
43
0.0000000001
44
0.0000000001
40
0
40
0
40
0
40
1
40
1
40
1
10
426.09306977797269
20
72.764702969340632
30
0
10
425.97028659392117
20
72.540622883586238
30
0
10
425.97028659392117
20
72.213202648906062
30
0
0
SPLINE
5
215
100
AcDbEntity
8
0
100
AcDbSpline
70
0
71
2
72
6
73
3
74
0
42
0.000000001
43
0.0000000001
44
0.0000000001
40
0
40
0
40
0
40
1
40
1
40
1
10
425.97028659392117
20
72.213202648906062
30
0
10
425.97028659392117
20
71.824389630107234
30
0
10
426.14525245238065
20
71.584960156230281
30
0
0
SPLINE
5
216
100
AcDbEntity
8
0
100
AcDbSpline
70
0
71
2
72
6
73
3
74
0
42
0.000000001
43
0.0000000001
44
0.0000000001
40
0
40
0
40
0
40
1
40
1
40
1
10
426.14525245238065
20
71.584960156230281
30
0
10
426.32021831084012
20
71.34553545072491
30
0
10
426.67219685126065
20
71.353722744731257
30
0
0
SPLINE
5
217
100
AcDbEntity
8
0
100
AcDbSpline
70
0
71
2
72
6
73
3
74
0
42
0.000000001
43
0.0000000001
44
0.0000000001
40
0
40
0
40
0
40
1
40
1
40
1
10
427.97779010344266
20
71.658631497172664
30
0
10
427.55009578276395
20
71.658631497172664
30
0
10
427.35364304590939
20
71.828480892924617
30
0
0
SPLINE
5
218
100
AcDbEntity
8
0
100
AcDbSpline
70
0
71
2
72
6
73
3
74
0
42
0.000000001
43
0.0000000001
44
0.0000000001
40
0
40
0
40
0
40
1
40
1
40
1
10
427.35364304590939
20
71.828480892924617
30
0
10
427.15718971300839
20
71.99833028867657
30
0
10
427.15718971300839
20
72.254129582194636
30
0
0
SPLINE
5
219
100
AcDbEntity
8
0
100
AcDbSpline
70
0
71
2
72
6
73
3
74
0
42
0.000000001
43
0.0000000001
44
0.0000000001
40
0
40
0
40
0
40
1
40
1
40
1
10
427.15718971300839
20
72.254129582194636
30
0
10
427.15718971300839
20
72.507878475932429
30
0
10
427.3526196341586
20
72.679778271464656
30
0
0
SPLINE
5
220
100
AcDbEntity
8
0
100
AcDbSpline
70
0
71
2
72
6
73
3
74
0
42
0.000000001
43
0.0000000001
44
0.0000000001
40
0
40
0
40
0
40
1
40
1
40
1
10
427.3526196341586
20
72.679778271464656
30
0
10
427.54804955530881
20
72.8516732986253
30
0
10
427.96551214266537
20
72.8516732986253
30
0
0
SPLINE
5
221
100
AcDbEntity
8
0
100
AcDbSpline
70
0
71
2
72
6
73
3
74
0
42
0.000000001
43
0.0000000001
44
0.0000000001
40
0
40
0
40
0
40
1
40
1
40
1
10
427.96551214266537
20
72.8516732986253
30
0
10
428.36455689478635
20
72.8516732986253
30
0
10
428.56714891005277
20
72.674661808757136
30
0
0
SPLINE
5
222
100
AcDbEntity
8
0
100
AcDbSpline
70
0
71
2
72
6
73
3
74
0
42
0.000000001
43
0.0000000001
44
0.0000000001
40
0
40
0
40
0
40
1
40
1
40
1
10
428.56714891005277
20
72.674661808757136
30
0
10
428.76974092531918
20
72.497650318888972
30
0
10
428.76974092531918
20
72.247992687968562
30
0
0
SPLINE
5
223
100
AcDbEntity
8
0
100
AcDbSpline
70
0
71
2
72
6
73
3
74
0
42
0.000000001
43
0.0000000001
44
0.0000000001
40
0
40
0
40
0
40
1
40
1
40
1
10
428.76974092531918
20
72.247992687968562
30
0
10
428.76974092531918
20
72.002421551493953
30
0
10
428.5702185492587
20
71.830526524333308
30
0
0
SPLINE
5
224
100
AcDbEntity
8
0
100
AcDbSpline
70
0
71
2
72
6
73
3
74
0
42
0.000000001
43
0.0000000001
44
0.0000000001
40
0
40
0
40
0
40
1
40
1
40
1
10
428.5702185492587
20
71.830526524333308
30
0
10
428.37069617319821
20
71.658631497172664
30
0
10
427.97779010344266
20
71.658631497172664
30
0
0
LWPOLYLINE
5
225
100
AcDbEntity
8
0
100
AcDbPolyline
90
4
70
1
43
0.0
10
428.12308357764005
20
74.773226910380671
10
427.75268779803037
20
74.773226910380671
10
427.75268779803037
20
75.904875927714656
10
428.12308357764005
20
75.904875927714656
0
LINE
5
226
100
AcDbEntity
8
0
100
AcDbLine
10
427.18174682665585
20
78.280731373576472
30
0
11
426.85637162733792
21
78.333941632060359
31
0
0
SPLINE
5
227
100
AcDbEntity
8
0
100
AcDbSpline
70
0
71
2
72
6
73
3
74
0
42
0.000000001
43
0.0000000001
44
0.0000000001
40
0
40
0
40
0
40
1
40
1
40
1
10
426.85637162733792
20
78.333941632060359
30
0
10
426.82362900782346
20
78.178416424540828
30
0
10
426.82362900782346
20
78.055630856303523
30
0
0
SPLINE
5
228
100
AcDbEntity
8
0
100
AcDbSpline
70
0
71
2
72
6
73
3
74
0
42
0.000000001
43
0.0000000001
44
0.0000000001
40
0
40
0
40
0
40
1
40
1
40
1
10
426.82362900782346
20
78.055630856303523
30
0
10
426.82362900782346
20
77.855082684306453
30
0
10
426.88706682730435
20
77.744580441264461
30
0
0
SPLINE
5
229
100
AcDbEntity
8
0
100
AcDbSpline
70
0
71
2
72
6
73
3
74
0
42
0.000000001
43
0.0000000001
44
0.0000000001
40
0
40
0
40
0
40
1
40
1
40
1
10
426.88706682730435
20
77.744580441264461
30
0
10
426.9505052428317
20
77.634073429850886
30
0
10
427.05384717989682
20
77.589055233744929
30
0
0
SPLINE
5
230
100
AcDbEntity
8
0
100
AcDbSpline
70
0
71
2
72
6
73
3
74
0
42
0.000000001
43
0.0000000001
44
0.0000000001
40
0
40
0
40
0
40
1
40
1
40
1
10
427.05384717989682
20
77.589055233744929
30
0
10
427.15718971300839
20
77.54403226926739
30
0
10
427.48870419073819
20
77.54403226926739
30
0
0
LINE
5
231
100
AcDbEntity
8
0
100
AcDbLine
10
427.48870419073819
20
77.54403226926739
30
0
11
428.73904512930631
21
77.54403226926739
31
0
0
LINE
5
232
100
AcDbEntity
8
0
100
AcDbLine
10
428.73904512930631
20
77.54403226926739
30
0
11
428.73904512930631
21
77.273913555888484
31
0
0
LINE
5
233
100
AcDbEntity
8
0
100
AcDbLine
10
428.73904512930631
20
77.273913555888484
30
0
11
429.02553902674435
21
77.273913555888484
31
0
0
LINE
5
234
100
AcDbEntity
8
0
100
AcDbLine
10
429.02553902674435
20
77.273913555888484
30
0
11
429.02553902674435
21
77.54403226926739
31
0
0
LINE
5
235
100
AcDbEntity
8
0
100
AcDbLine
10
429.02553902674435
20
77.54403226926739
30
0
11
429.5637385706973
21
77.54403226926739
31
0
0
LINE
5
236
100
AcDbEntity
8
0
100
AcDbLine
10
429.5637385706973
20
77.54403226926739
30
0
11
429.78474812317609
21
77.910338574199031
31
0
0
LINE
5
237
100
AcDbEntity
8
0
100
AcDbLine
10
429.78474812317609
20
77.910338574199031
30
0
11
429.02553902674435
21
77.910338574199031
31
0
0
LINE
5
238
100
AcDbEntity
8
0
100
AcDbLine
10
429.02553902674435
20
77.910338574199031
30
0
11
429.02553902674435
21
78.280731373576472
31
0
0
LINE
5
239
100
AcDbEntity
8
0
100
AcDbLine
10
429.02553902674435
20
78.280731373576472
30
0
11
428.73904512930631
21
78.280731373576472
31
0
0
LINE
5
240
100
AcDbEntity
8
0
100
AcDbLine
10
428.73904512930631
20
78.280731373576472
30
0
11
428.73904512930631
21
77.910338574199031
31
0
0
LINE
5
241
100
AcDbEntity
8
0
100
AcDbLine
10
428.73904512930631
20
77.910338574199031
30
0
11
427.46824012804746
21
77.910338574199031
31
0
0
SPLINE
5
242
100
AcDbEntity
8
0
100
AcDbSpline
70
0
71
2
72
6
73
3
74
0
42
0.000000001
43
0.0000000001
44
0.0000000001
40
0
40
0
40
0
40
1
40
1
40
1
10
427.46824012804746
20
77.910338574199031
30
0
10
427.31066869307278
20
77.910338574199031
30
0
10
427.26564811278104
20
77.929779225138972
30
0
0
SPLINE
5
243
100
AcDbEntity
8
0
100
AcDbSpline
70
0
71
2
72
6
73
3
74
0
42
0.000000001
43
0.0000000001
44
0.0000000001
40
0
40
0
40
0
40
1
40
1
40
1
10
427.26564811278104
20
77.929779225138972
30
0
10
427.22062812853574
20
77.949219876078914
30
0
10
427.19402478743314
20
77.993212872294734
30
0
0
SPLINE
5
244
100
AcDbEntity
8
0
100
AcDbSpline
70
0
71
2
72
6
73
3
74
0
42
0.000000001
43
0.0000000001
44
0.0000000001
40
0
40
0
40
0
40
1
40
1
40
1
10
427.19402478743314
20
77.993212872294734
30
0
10
427.16742204237698
20
78.037215405253718
30
0
10
427.16742204237698
20
78.119069271830867
30
0
0
SPLINE
5
245
100
AcDbEntity
8
0
100
AcDbSpline
70
0
71
2
72
6
73
3
74
0
42
0.000000001
43
0.0000000001
44
0.0000000001
40
0
40
0
40
0
40
1
40
1
40
1
10
427.16742204237698
20
78.119069271830867
30
0
10
427.16742204237698
20
78.180457287577937
30
0
10
427.18174682665585
20
78.280731373576472
30
0
0
SPLINE
5
246
100
AcDbEntity
8
0
100
AcDbSpline
70
0
71
2
72
6
73
3
74
0
42
0.000000001
43
0.0000000001
44
0.0000000001
40
0
40
0
40
0
40
1
40
1
40
1
10
427.93890880156277
20
78.50378625944073
30
0
10
428.54259239245175
20
78.50378625944073
30
0
10
428.8331790428233
20
78.839393788127254
30
0
0
SPLINE
5
247
100
AcDbEntity
8
0
100
AcDbSpline
70
0
71
2
72
6
73
3
74
0
42
0.000000001
43
0.0000000001
44
0.0000000001
40
0
40
0
40
0
40
1
40
1
40
1
10
428.8331790428233
20
78.839393788127254
30
0
10
429.07465265799283
20
79.119750195292781
30
0
10
429.07465265799283
20
79.522887402324031
30
0
0
SPLINE
5
248
100
AcDbEntity
8
0
100
AcDbSpline
70
0
71
2
72
6
73
3
74
0
42
0.000000001
43
0.0000000001
44
0.0000000001
40
0
40
0
40
0
40
1
40
1
40
1
10
429.07465265799283
20
79.522887402324031
30
0
10
429.07465265799283
20
79.97104757383282
30
0
10
428.78099607039212
20
80.255490475444162
30
0
0
SPLINE
5
249
100
AcDbEntity
8
0
100
AcDbSpline
70
0
71
2
72
6
73
3
74
0
42
0.000000001
43
0.0000000001
44
0.0000000001
40
0
40
0
40
0
40
1
40
1
40
1
10
428.78099607039212
20
80.255490475444162
30
0
10
428.48734007883786
20
80.539938145427072
30
0
10
427.96960459757565
20
80.539938145427072
30
0
0
SPLINE
5
250
100
AcDbEntity
8
0
100
AcDbSpline
70
0
71
2
72
6
73
3
74
0
42
0.000000001
43
0.0000000001
44
0.0000000001
40
0
40
0
40
0
40
1
40
1
40
1
10
427.96960459757565
20
80.539938145427072
30
0
10
427.55009578276395
20
80.539938145427072
30
0
10
427.30964528132199
20
80.414086514262522
30
0
0
SPLINE
5
251
100
AcDbEntity
8
0
100
AcDbSpline
70
0
71
2
72
6
73
3
74
0
42
0.000000001
43
0.0000000001
44
0.0000000001
40
0
40
0
40
0
40
1
40
1
40
1
10
427.30964528132199
20
80.414086514262522
30
0
10
427.06919537592648
20
80.288234883097971
30
0
10
426.93618045855283
20
80.047780209330881
30
0
0
SPLINE
5
252
100
AcDbEntity
8
0
100
AcDbSpline
70
0
71
2
72
6
73
3
74
0
42
0.000000001
43
0.0000000001
44
0.0000000001
40
0
40
0
40
0
40
1
40
1
40
1
10
426.93618045855283
20
80.047780209330881
30
0
10
426.80316554117917
20
79.807330303935359
30
0
10
426.80316554117917
20
79.522887402324031
30
0
0
SPLINE
5
253
100
AcDbEntity
8
0
100
AcDbSpline
70
0
71
2
72
6
73
3
74
0
42
0.000000001
43
0.0000000001
44
0.0000000001
40
0
40
0
40
0
40
1
40
1
40
1
10
426.80316554117917
20
79.522887402324031
30
0
10
426.80316554117917
20
79.066544705180476
30
0
10
427.09579812098264
20
78.785163098124812
30
0
0
SPLINE
5
254
100
AcDbEntity
8
0
100
AcDbSpline
70
0
71
2
72
6
73
3
74
0
42
0.000000001
43
0.0000000001
44
0.0000000001
40
0
40
0
40
0
40
1
40
1
40
1
10
427.09579812098264
20
78.785163098124812
30
0
10
427.38843129683255
20
78.50378625944073
30
0
10
427.93890880156277
20
78.50378625944073
30
0
0
SPLINE
5
255
100
AcDbEntity
8
0
100
AcDbSpline
70
0
71
2
72
6
73
3
74
0
42
0.000000001
43
0.0000000001
44
0.0000000001
40
0
40
0
40
0
40
1
40
1
40
1
10
427.93890880156277
20
78.882366352824519
30
0
10
427.52144621420621
20
78.882366352824519
30
0
10
427.31373833227872
20
79.064494305400203
30
0
0
SPLINE
5
256
100
AcDbEntity
8
0
100
AcDbSpline
70
0
71
2
72
6
73
3
74
0
42
0.000000001
43
0.0000000001
44
0.0000000001
40
0
40
0
40
0
40
1
40
1
40
1
10
427.31373833227872
20
79.064494305400203
30
0
10
427.10603045035123
20
79.246627026347468
30
0
10
427.10603045035123
20
79.522887402324031
30
0
0
SPLINE
5
257
100
AcDbEntity
8
0
100
AcDbSpline
70
0
71
2
72
6
73
3
74
0
42
0.000000001
43
0.0000000001
44
0.0000000001
40
0
40
0
40
0
40
1
40
1
40
1
10
427.10603045035123
20
79.522887402324031
30
0
10
427.10603045035123
20
79.797102146891902
30
0
10
427.31476174402951
20
79.979230099467586
30
0
0
SPLINE
5
258
100
AcDbEntity
8
0
100
AcDbSpline
70
0
71
2
72
6
73
3
74
0
42
0.000000001
43
0.0000000001
44
0.0000000001
40
0
40
0
40
0
40
1
40
1
40
1
10
427.31476174402951
20
79.979230099467586
30
0
10
427.52349244166135
20
80.161358052043283
30
0
10
427.95118735838651
20
80.161358052043283
30
0
0
SPLINE
5
259
100
AcDbEntity
8
0
100
AcDbSpline
70
0
71
2
72
6
73
3
74
0
42
0.000000001
43
0.0000000001
44
0.0000000001
40
0
40
0
40
0
40
1
40
1
40
1
10
427.95118735838651
20
80.161358052043283
30
0
10
428.3543251614642
20
80.161358052043283
30
0
10
428.56203304339169
20
79.978209667949031
30
0
0
SPLINE
5
260
100
AcDbEntity
8
0
100
AcDbSpline
70
0
71
2
72
6
73
3
74
0
42
0.000000001
43
0.0000000001
44
0.0000000001
40
0
40
0
40
0
40
1
40
1
40
1
10
428.56203304339169
20
79.978209667949031
30
0
10
428.76974092531918
20
79.795056515483211
30
0
10
428.76974092531918
20
79.522887402324031
30
0
0
SPLINE
5
261
100
AcDbEntity
8
0
100
AcDbSpline
70
0
71
2
72
6
73
3
74
0
42
0.000000001
43
0.0000000001
44
0.0000000001
40
0
40
0
40
0
40
1
40
1
40
1
10
428.76974092531918
20
79.522887402324031
30
0
10
428.76974092531918
20
79.246627026347468
30
0
10
428.56305645514249
20
79.064494305400203
30
0
0
SPLINE
5
262
100
AcDbEntity
8
0
100
AcDbSpline
70
0
71
2
72
6
73
3
74
0
42
0.000000001
43
0.0000000001
44
0.0000000001
40
0
40
0
40
0
40
1
40
1
40
1
10
428.56305645514249
20
79.064494305400203
30
0
10
428.35637138891934
20
78.882366352824519
30
0
10
427.93890880156277
20
78.882366352824519
30
0
0
LINE
5
263
100
AcDbEntity
8
0
100
AcDbLine
10
426.01940022516965
20
80.971728497294748
30
0
11
429.02553902674435
21
80.971728497294748
31
0
0
LINE
5
264
100
AcDbEntity
8
0
100
AcDbLine
10
429.02553902674435
20
80.971728497294748
30
0
11
429.02553902674435
21
81.307336025981272
31
0
0
LINE
5
265
100
AcDbEntity
8
0
100
AcDbLine
10
429.02553902674435
20
81.307336025981272
30
0
11
428.74313818026303
21
81.307336025981272
31
0
0
SPLINE
5
266
100
AcDbEntity
8
0
100
AcDbSpline
70
0
71
2
72
6
73
3
74
0
42
0.000000001
43
0.0000000001
44
0.0000000001
40
0
40
0
40
0
40
1
40
1
40
1
10
428.74313818026303
20
81.307336025981272
30
0
10
428.90889512110471
20
81.426025563029611
30
0
10
428.99177388954877
20
81.575413876323069
30
0
0
SPLINE
5
267
100
AcDbEntity
8
0
100
AcDbSpline
70
0
71
2
72
6
73
3
74
0
42
0.000000001
43
0.0000000001
44
0.0000000001
40
0
40
0
40
0
40
1
40
1
40
1
10
428.99177388954877
20
81.575413876323069
30
0
10
429.0746523599696
20
81.724797421244944
30
0
10
429.0746523599696
20
81.937619381694162
30
0
0
SPLINE
5
268
100
AcDbEntity
8
0
100
AcDbSpline
70
0
71
2
72
6
73
3
74
0
42
0.000000001
43
0.0000000001
44
0.0000000001
40
0
40
0
40
0
40
1
40
1
40
1
10
429.0746523599696
20
81.937619381694162
30
0
10
429.0746523599696
20
82.215930157450998
30
0
10
428.93140541125058
20
82.428752117900217
30
0
0
SPLINE
5
269
100
AcDbEntity
8
0
100
AcDbSpline
70
0
71
2
72
6
73
3
74
0
42
0.000000001
43
0.0000000001
44
0.0000000001
40
0
40
0
40
0
40
1
40
1
40
1
10
428.93140541125058
20
82.428752117900217
30
0
10
428.78815846253156
20
82.641578846721018
30
0
10
428.52724449444531
20
82.750035458354319
30
0
0
SPLINE
5
270
100
AcDbEntity
8
0
100
AcDbSpline
70
0
71
2
72
6
73
3
74
0
42
0.000000001
43
0.0000000001
44
0.0000000001
40
0
40
0
40
0
40
1
40
1
40
1
10
428.52724449444531
20
82.750035458354319
30
0
10
428.26633052635907
20
82.858496838359201
30
0
10
427.95527981329678
20
82.858496838359201
30
0
0
SPLINE
5
271
100
AcDbEntity
8
0
100
AcDbSpline
70
0
71
2
72
6
73
3
74
0
42
0.000000001
43
0.0000000001
44
0.0000000001
40
0
40
0
40
0
40
1
40
1
40
1
10
427.95527981329678
20
82.858496838359201
30
0
10
427.62171910811185
20
82.858496838359201
30
0
10
427.35466586161374
20
82.738782101420725
30
0
0
SPLINE
5
272
100
AcDbEntity
8
0
100
AcDbSpline
70
0
71
2
72
6
73
3
74
0
42
0.000000001
43
0.0000000001
44
0.0000000001
40
0
40
0
40
0
40
1
40
1
40
1
10
427.35466586161374
20
82.738782101420725
30
0
10
427.08761261511563
20
82.619067364482248
30
0
10
426.94538937617062
20
82.390896015910471
30
0
0
SPLINE
5
273
100
AcDbEntity
8
0
100
AcDbSpline
70
0
71
2
72
6
73
3
74
0
42
0.000000001
43
0.0000000001
44
0.0000000001
40
0
40
0
40
0
40
1
40
1
40
1
10
426.94538937617062
20
82.390896015910471
30
0
10
426.80316554117917
20
82.162724667338694
30
0
10
426.80316554117917
20
81.911021405009592
30
0
0
SPLINE
5
274
100
AcDbEntity
8
0
100
AcDbSpline
70
0
71
2
72
6
73
3
74
0
42
0.000000001
43
0.0000000001
44
0.0000000001
40
0
40
0
40
0
40
1
40
1
40
1
10
426.80316554117917
20
81.911021405009592
30
0
10
426.80316554117917
20
81.726847821025217
30
0
10
426.88092814493893
20
81.580525570659006
30
0
0
SPLINE
5
275
100
AcDbEntity
8
0
100
AcDbSpline
70
0
71
2
72
6
73
3
74
0
42
0.000000001
43
0.0000000001
44
0.0000000001
40
0
40
0
40
0
40
1
40
1
40
1
10
426.88092814493893
20
81.580525570659006
30
0
10
426.9586907486987
20
81.434212857035959
30
0
10
427.07738088179349
20
81.340075665263498
30
0
0
LINE
5
276
100
AcDbEntity
8
0
100
AcDbLine
10
427.07738088179349
20
81.340075665263498
30
0
11
426.01940022516965
21
81.340075665263498
31
0
0
LINE
5
277
100
AcDbEntity
8
0
100
AcDbLine
10
426.01940022516965
20
81.340075665263498
30
0
11
426.01940022516965
21
80.971728497294748
31
0
0
SPLINE
5
278
100
AcDbEntity
8
0
100
AcDbSpline
70
0
71
2
72
6
73
3
74
0
42
0.000000001
43
0.0000000001
44
0.0000000001
40
0
40
0
40
0
40
1
40
1
40
1
10
427.92663084078549
20
81.30529039457258
30
0
10
427.50712142992734
20
81.30529039457258
30
0
10
427.30657623816251
20
81.475139790324533
30
0
0
SPLINE
5
279
100
AcDbEntity
8
0
100
AcDbSpline
70
0
71
2
72
6
73
3
74
0
42
0.000000001
43
0.0000000001
44
0.0000000001
40
0
40
0
40
0
40
1
40
1
40
1
10
427.30657623816251
20
81.475139790324533
30
0
10
427.10603045035123
20
81.644989186076486
30
0
10
427.10603045035123
20
81.886464291362131
30
0
0
SPLINE
5
280
100
AcDbEntity
8
0
100
AcDbSpline
70
0
71
2
72
6
73
3
74
0
42
0.000000001
43
0.0000000001
44
0.0000000001
40
0
40
0
40
0
40
1
40
1
40
1
10
427.10603045035123
20
81.886464291362131
30
0
10
427.10603045035123
20
82.132025891093576
30
0
10
427.31373833227872
20
82.306996517924631
30
0
0
SPLINE
5
281
100
AcDbEntity
8
0
100
AcDbSpline
70
0
71
2
72
6
73
3
74
0
42
0.000000001
43
0.0000000001
44
0.0000000001
40
0
40
0
40
0
40
1
40
1
40
1
10
427.31373833227872
20
82.306996517924631
30
0
10
427.52144621420621
20
82.481957608012522
30
0
10
427.95732663679837
20
82.481957608012522
30
0
0
SPLINE
5
282
100
AcDbEntity
8
0
100
AcDbSpline
70
0
71
2
72
6
73
3
74
0
42
0.000000001
43
0.0000000001
44
0.0000000001
40
0
40
0
40
0
40
1
40
1
40
1
10
427.95732663679837
20
82.481957608012522
30
0
10
428.37274240065335
20
82.481957608012522
30
0
10
428.57942716885327
20
82.311087780742014
30
0
0
SPLINE
5
283
100
AcDbEntity
8
0
100
AcDbSpline
70
0
71
2
72
6
73
3
74
0
42
0.000000001
43
0.0000000001
44
0.0000000001
40
0
40
0
40
0
40
1
40
1
40
1
10
428.57942716885327
20
82.311087780742014
30
0
10
428.78611223507642
20
82.140213185099924
30
0
10
428.78611223507642
20
81.902834111003244
30
0
0
SPLINE
5
284
100
AcDbEntity
8
0
100
AcDbSpline
70
0
71
2
72
6
73
3
74
0
42
0.000000001
43
0.0000000001
44
0.0000000001
40
0
40
0
40
0
40
1
40
1
40
1
10
428.78611223507642
20
81.902834111003244
30
0
10
428.78611223507642
20
81.667500668315256
30
0
10
428.5661257963252
20
81.486393147258127
30
0
0
SPLINE
5
285
100
AcDbEntity
8
0
100
AcDbSpline
70
0
71
2
72
6
73
3
74
0
42
0.000000001
43
0.0000000001
44
0.0000000001
40
0
40
0
40
0
40
1
40
1
40
1
10
428.5661257963252
20
81.486393147258127
30
0
10
428.34613935757397
20
81.30529039457258
30
0
10
427.92663084078549
20
81.30529039457258
30
0
0
LWPOLYLINE
5
286
100
AcDbEntity
8
0
100
AcDbPolyline
90
8
70
1
43
0.0
10
424.81612549830197
20
57.207063370494204
10
422.17015014696835
20
57.207063370494204
10
422.17015014696835
20
57.604061299113589
10
424.81612549830197
20
57.604061299113589
10
424.81612549830197
20
58.596557312754946
10
425.17015026617764
20
58.596557312754946
10
425.17015026617764
20
56.218658619670229
10
424.81612549830197
20
56.218658619670229
0
LINE
5
287
100
AcDbEntity
8
0
100
AcDbLine
10
422.17015014696835
20
58.956721955088931
30
0
11
425.17015026617764
21
58.956721955088931
31
0
0
LINE
5
288
100
AcDbEntity
8
0
100
AcDbLine
10
425.17015026617764
20
58.956721955088931
30
0
11
425.17015026617764
21
59.325071507243472
31
0
0
LINE
5
289
100
AcDbEntity
8
0
100
AcDbLine
10
425.17015026617764
20
59.325071507243472
30
0
11
424.09375177431821
21
59.325071507243472
31
0
0
SPLINE
5
290
100
AcDbEntity
8
0
100
AcDbSpline
70
0
71
2
72
6
73
3
74
0
42
0.000000001
43
0.0000000001
44
0.0000000001
40
0
40
0
40
0
40
1
40
1
40
1
10
424.09375177431821
20
59.325071507243472
30
0
10
424.39252363253354
20
59.582916432170229
30
0
10
424.39252363253354
20
59.97582071378644
30
0
0
SPLINE
5
291
100
AcDbEntity
8
0
100
AcDbSpline
70
0
71
2
72
6
73
3
74
0
42
0.000000001
43
0.0000000001
44
0.0000000001
40
0
40
0
40
0
40
1
40
1
40
1
10
424.39252363253354
20
59.97582071378644
30
0
10
424.39252363253354
20
60.217295819072085
30
0
10
424.29736720133542
20
60.395330124644595
30
0
0
SPLINE
5
292
100
AcDbEntity
8
0
100
AcDbSpline
70
0
71
2
72
6
73
3
74
0
42
0.000000001
43
0.0000000001
44
0.0000000001
40
0
40
0
40
0
40
1
40
1
40
1
10
424.29736720133542
20
60.395330124644595
30
0
10
424.20221017409085
20
60.573364430217104
30
0
10
424.03440700579404
20
60.650104218272524
30
0
0
SPLINE
5
293
100
AcDbEntity
8
0
100
AcDbSpline
70
0
71
2
72
6
73
3
74
0
42
0.000000001
43
0.0000000001
44
0.0000000001
40
0
40
0
40
0
40
1
40
1
40
1
10
424.03440700579404
20
60.650104218272524
30
0
10
423.86660324145078
20
60.726844006327944
30
0
10
423.54736672449826
20
60.726844006327944
30
0
0
LINE
5
294
100
AcDbEntity
8
0
100
AcDbLine
10
423.54736672449826
20
60.726844006327944
30
0
11
422.17015014696835
21
60.726844006327944
31
0
0
LINE
5
295
100
AcDbEntity
8
0
100
AcDbLine
10
422.17015014696835
20
60.726844006327944
30
0
11
422.17015014696835
21
60.358494454173403
31
0
0
LINE
5
296
100
AcDbEntity
8
0
100
AcDbLine
10
422.17015014696835
20
60.358494454173403
30
0
11
423.54736672449826
21
60.358494454173403
31
0
0
SPLINE
5
297
100
AcDbEntity
8
0
100
AcDbSpline
70
0
71
2
72
6
73
3
74
0
42
0.000000001
43
0.0000000001
44
0.0000000001
40
0
40
0
40
0
40
1
40
1
40
1
10
423.54736672449826
20
60.358494454173403
30
0
10
423.82362888861417
20
60.358494454173403
30
0
10
423.94948171187161
20
60.238782101420718
30
0
0
SPLINE
5
298
100
AcDbEntity
8
0
100
AcDbSpline
70
0
71
2
72
6
73
3
74
0
42
0.000000001
43
0.0000000001
44
0.0000000001
40
0
40
0
40
0
40
1
40
1
40
1
10
423.94948171187161
20
60.238782101420718
30
0
10
424.07533453512906
20
60.119067364482241
30
0
10
424.07533453512906
20
59.900103741435366
30
0
0
SPLINE
5
299
100
AcDbEntity
8
0
100
AcDbSpline
70
0
71
2
72
6
73
3
74
0
42
0.000000001
43
0.0000000001
44
0.0000000001
40
0
40
0
40
0
40
1
40
1
40
1
10
424.07533453512906
20
59.900103741435366
30
0
10
424.07533453512906
20
59.736393624095278
30
0
10
423.99040924120663
20
59.592124157695132
30
0
0
SPLINE
5
300
100
AcDbEntity
8
0
100
AcDbSpline
70
0
71
2
72
6
73
3
74
0
42
0.000000001
43
0.0000000001
44
0.0000000001
40
0
40
0
40
0
40
1
40
1
40
1
10
423.99040924120663
20
59.592124157695132
30
0
10
423.90548454333066
20
59.447854691294985
30
0
10
423.76019106913327
20
59.386461907176333
30
0
0
SPLINE
5
301
100
AcDbEntity
8
0
100
AcDbSpline
70
0
71
2
72
6
73
3
74
0
42
0.000000001
43
0.0000000001
44
0.0000000001
40
0
40
0
40
0
40
1
40
1
40
1
10
423.76019106913327
20
59.386461907176333
30
0
10
423.61489759493588
20
59.325071507243472
30
0
10
423.35909949351071
20
59.325071507243472
30
0
0
LINE
5
302
100
AcDbEntity
8
0
100
AcDbLine
10
423.35909949351071
20
59.325071507243472
30
0
11
422.17015014696835
21
59.325071507243472
31
0
0
LINE
5
303
100
AcDbEntity
8
0
100
AcDbLine
10
422.17015014696835
20
59.325071507243472
30
0
11
422.17015014696835
21
58.956721955088931
31
0
0
LWPOLYLINE
5
304
100
AcDbEntity
8
0
100
AcDbPolyline
90
4
70
1
43
0.0
10
425.17015026617764
20
61.289600067881899
10
424.74654899645566
20
61.289600067881899
10
424.74654899645566
20
61.65794962003644
10
425.17015026617764
20
61.65794962003644
0
LWPOLYLINE
5
305
100
AcDbEntity
8
0
100
AcDbPolyline
90
4
70
1
43
0.0
10
424.34341059733151
20
61.289600067881899
10
422.17015014696835
20
61.289600067881899
10
422.17015014696835
20
61.65794962003644
10
424.34341059733151
20
61.65794962003644
0
LINE
5
306
100
AcDbEntity
8
0
100
AcDbLine
10
422.81885372210263
20
62.071319752482729
30
0
11
422.87615285921811
21
62.435575657634097
31
0
0
SPLINE
5
307
100
AcDbEntity
8
0
100
AcDbSpline
70
0
71
2
72
6
73
3
74
0
42
0.000000001
43
0.0000000001
44
0.0000000001
40
0
40
0
40
0
40
1
40
1
40
1
10
422.87615285921811
20
62.435575657634097
30
0
10
422.65718923617123
20
62.466272049693423
30
0
10
422.54054533053159
20
62.606450253276186
30
0
0
SPLINE
5
308
100
AcDbEntity
8
0
100
AcDbSpline
70
0
71
2
72
6
73
3
74
0
42
0.000000001
43
0.0000000001
44
0.0000000001
40
0
40
0
40
0
40
1
40
1
40
1
10
422.54054533053159
20
62.606450253276186
30
0
10
422.42390142489194
20
62.746626072673159
30
0
10
422.42390142489194
20
62.998331719188052
30
0
0
SPLINE
5
309
100
AcDbEntity
8
0
100
AcDbSpline
70
0
71
2
72
6
73
3
74
0
42
0.000000001
43
0.0000000001
44
0.0000000001
40
0
40
0
40
0
40
1
40
1
40
1
10
422.42390142489194
20
62.998331719188052
30
0
10
422.42390142489194
20
63.252082997111636
30
0
10
422.52724395800351
20
63.374866181163149
30
0
0
SPLINE
5
310
100
AcDbEntity
8
0
100
AcDbSpline
70
0
71
2
72
6
73
3
74
0
42
0.000000001
43
0.0000000001
44
0.0000000001
40
0
40
0
40
0
40
1
40
1
40
1
10
422.52724395800351
20
63.374866181163149
30
0
10
422.63058649111508
20
63.497649365214663
30
0
10
422.7697406869006
20
63.497649365214663
30
0
0
SPLINE
5
311
100
AcDbEntity
8
0
100
AcDbSpline
70
0
71
2
72
6
73
3
74
0
42
0.000000001
43
0.0000000001
44
0.0000000001
40
0
40
0
40
0
40
1
40
1
40
1
10
422.7697406869006
20
63.497649365214663
30
0
10
422.89457069445371
20
63.497649365214663
30
0
10
422.96619401980161
20
63.389192753581362
30
0
0
SPLINE
5
312
100
AcDbEntity
8
0
100
AcDbSpline
70
0
71
2
72
6
73
3
74
0
42
0.000000001
43
0.0000000001
44
0.0000000001
40
0
40
0
40
0
40
1
40
1
40
1
10
422.96619401980161
20
63.389192753581362
30
0
10
423.01530705500363
20
63.313475781230288
30
0
10
423.09102343130826
20
63.012655907420474
30
0
0
SPLINE
5
313
100
AcDbEntity
8
0
100
AcDbSpline
70
0
71
2
72
6
73
3
74
0
42
0.000000001
43
0.0000000001
44
0.0000000001
40
0
40
0
40
0
40
1
40
1
40
1
10
423.09102343130826
20
63.012655907420474
30
0
10
423.19334255266904
20
62.607473068980532
30
0
10
423.26803551722287
20
62.450925045756655
30
0
0
SPLINE
5
314
100
AcDbEntity
8
0
100
AcDbSpline
70
0
71
2
72
6
73
3
74
0
42
0.000000001
43
0.0000000001
44
0.0000000001
40
0
40
0
40
0
40
1
40
1
40
1
10
423.26803551722287
20
62.450925045756655
30
0
10
423.3427284817767
20
62.294374638346987
30
0
10
423.47472058344601
20
62.213543587474184
30
0
0
SPLINE
5
315
100
AcDbEntity
8
0
100
AcDbSpline
70
0
71
2
72
6
73
3
74
0
42
0.000000001
43
0.0000000001
44
0.0000000001
40
0
40
0
40
0
40
1
40
1
40
1
10
423.47472058344601
20
62.213543587474184
30
0
10
423.60671208906888
20
62.132712536601382
30
0
10
423.76633034754514
20
62.132712536601382
30
0
0
SPLINE
5
316
100
AcDbEntity
8
0
100
AcDbSpline
70
0
71
2
72
6
73
3
74
0
42
0.000000001
43
0.0000000001
44
0.0000000001
40
0
40
0
40
0
40
1
40
1
40
1
10
423.76633034754514
20
62.132712536601382
30
0
10
423.91162382174252
20
62.132712536601382
30
0
10
424.03542982149838
20
62.199219399241763
30
0
0
SPLINE
5
317
100
AcDbEntity
8
0
100
AcDbSpline
70
0
71
2
72
6
73
3
74
0
42
0.000000001
43
0.0000000001
44
0.0000000001
40
0
40
0
40
0
40
1
40
1
40
1
10
424.03542982149838
20
62.199219399241763
30
0
10
424.15923582125424
20
62.265726261882143
30
0
10
424.24109147597073
20
62.3803245361131
30
0
0
SPLINE
5
318
100
AcDbEntity
8
0
100
AcDbSpline
70
0
71
2
72
6
73
3
74
0
42
0.000000001
43
0.0000000001
44
0.0000000001
40
0
40
0
40
0
40
1
40
1
40
1
10
424.24109147597073
20
62.3803245361131
30
0
10
424.30452929545163
20
62.466272049693423
30
0
10
424.34852706003903
20
62.614635163096743
30
0
0
SPLINE
5
319
100
AcDbEntity
8
0
100
AcDbSpline
70
0
71
2
72
6
73
3
74
0
42
0.000000001
43
0.0000000001
44
0.0000000001
40
0
40
0
40
0
40
1
40
1
40
1
10
424.34852706003903
20
62.614635163096743
30
0
10
424.39252422857999
20
62.762998276500063
30
0
10
424.39252422857999
20
62.932847672252016
30
0
0
SPLINE
5
320
100
AcDbEntity
8
0
100
AcDbSpline
70
0
71
2
72
6
73
3
74
0
42
0.000000001
43
0.0000000001
44
0.0000000001
40
0
40
0
40
0
40
1
40
1
40
1
10
424.39252422857999
20
62.932847672252016
30
0
10
424.39252422857999
20
63.188644581584292
30
0
10
424.3188540797305
20
63.382030659465151
30
0
0
SPLINE
5
321
100
AcDbEntity
8
0
100
AcDbSpline
70
0
71
2
72
6
73
3
74
0
42
0.000000001
43
0.0000000001
44
0.0000000001
40
0
40
0
40
0
40
1
40
1
40
1
10
424.3188540797305
20
63.382030659465151
30
0
10
424.24518452692746
20
63.575411968974429
30
0
10
424.11933170367001
20
63.667498760966616
30
0
0
SPLINE
5
322
100
AcDbEntity
8
0
100
AcDbSpline
70
0
71
2
72
6
73
3
74
0
42
0.000000001
43
0.0000000001
44
0.0000000001
40
0
40
0
40
0
40
1
40
1
40
1
10
424.11933170367001
20
63.667498760966616
30
0
10
423.99347888041257
20
63.759587937144595
30
0
10
423.78270135927914
20
63.794375592021304
30
0
0
LINE
5
323
100
AcDbEntity
8
0
100
AcDbLine
10
423.78270135927903
20
63.794375592021304
30
0
11
423.73358832407712
21
63.434210949687319
31
0
0
SPLINE
5
324
100
AcDbEntity
8
0
100
AcDbSpline
70
0
71
2
72
6
73
3
74
0
42
0.000000001
43
0.0000000001
44
0.0000000001
40
0
40
0
40
0
40
1
40
1
40
1
10
423.73358832407712
20
63.434210949687319
30
0
10
423.90139149237393
20
63.409653836039858
30
0
10
423.99552570391415
20
63.291989498881655
30
0
0
SPLINE
5
325
100
AcDbEntity
8
0
100
AcDbSpline
70
0
71
2
72
6
73
3
74
0
42
0.000000001
43
0.0000000001
44
0.0000000001
40
0
40
0
40
0
40
1
40
1
40
1
10
423.99552570391415
20
63.291989498881655
30
0
10
424.08965931940793
20
63.17432039335187
30
0
10
424.08965931940793
20
62.959450417308169
30
0
0
SPLINE
5
326
100
AcDbEntity
8
0
100
AcDbSpline
70
0
71
2
72
6
73
3
74
0
42
0.000000001
43
0.0000000001
44
0.0000000001
40
0
40
0
40
0
40
1
40
1
40
1
10
424.08965931940793
20
62.959450417308169
30
0
10
424.08965931940793
20
62.705699139384585
30
0
10
424.0057574372363
20
62.597240143565493
30
0
0
SPLINE
5
327
100
AcDbEntity
8
0
100
AcDbSpline
70
0
71
2
72
6
73
3
74
0
42
0.000000001
43
0.0000000001
44
0.0000000001
40
0
40
0
40
0
40
1
40
1
40
1
10
424.0057574372363
20
62.597240143565493
30
0
10
423.92185555506467
20
62.488781147746401
30
0
10
423.8093041043353
20
62.488781147746401
30
0
0
SPLINE
5
328
100
AcDbEntity
8
0
100
AcDbSpline
70
0
71
2
72
6
73
3
74
0
42
0.000000001
43
0.0000000001
44
0.0000000001
40
0
40
0
40
0
40
1
40
1
40
1
10
423.8093041043353
20
62.488781147746401
30
0
10
423.7376807789874
20
62.488781147746401
30
0
10
423.68038223791837
20
62.53380411222394
30
0
0
SPLINE
5
329
100
AcDbEntity
8
0
100
AcDbSpline
70
0
71
2
72
6
73
3
74
0
42
0.000000001
43
0.0000000001
44
0.0000000001
40
0
40
0
40
0
40
1
40
1
40
1
10
423.68038223791837
20
62.53380411222394
30
0
10
423.62103687334775
20
62.578822308329897
30
0
10
423.58215557146787
20
62.675002747325259
30
0
0
SPLINE
5
330
100
AcDbEntity
8
0
100
AcDbSpline
70
0
71
2
72
6
73
3
74
0
42
0.000000001
43
0.0000000001
44
0.0000000001
40
0
40
0
40
0
40
1
40
1
40
1
10
423.58215557146787
20
62.675002747325259
30
0
10
423.56169210482358
20
62.730256253032046
30
0
10
423.48802195597409
20
63.000379734782534
30
0
0
SPLINE
5
331
100
AcDbEntity
8
0
100
AcDbSpline
70
0
71
2
72
6
73
3
74
0
42
0.000000001
43
0.0000000001
44
0.0000000001
40
0
40
0
40
0
40
1
40
1
40
1
10
423.48802195597409
20
63.000379734782534
30
0
10
423.38365601111173
20
63.391238384990054
30
0
10
423.3171485524249
20
63.545740776805239
30
0
0
SPLINE
5
332
100
AcDbEntity
8
0
100
AcDbSpline
70
0
71
2
72
6
73
3
74
0
42
0.000000001
43
0.0000000001
44
0.0000000001
40
0
40
0
40
0
40
1
40
1
40
1
10
423.3171485524249
20
63.545740776805239
30
0
10
423.25064109373807
20
63.700243168620425
30
0
10
423.12376545477628
20
63.788236313609438
30
0
0
SPLINE
5
333
100
AcDbEntity
8
0
100
AcDbSpline
70
0
71
2
72
6
73
3
74
0
42
0.000000001
43
0.0000000001
44
0.0000000001
40
0
40
0
40
0
40
1
40
1
40
1
10
423.12376545477628
20
63.788236313609438
30
0
10
422.99688981581448
20
63.876231842784243
30
0
10
422.80862198878049
20
63.876231842784243
30
0
0
SPLINE
5
334
100
AcDbEntity
8
0
100
AcDbSpline
70
0
71
2
72
6
73
3
74
0
42
0.000000001
43
0.0000000001
44
0.0000000001
40
0
40
0
40
0
40
1
40
1
40
1
10
422.80862198878049
20
63.876231842784243
30
0
10
422.62444721270322
20
63.876231842784243
30
0
10
422.46175991106747
20
63.768795662669497
30
0
0
SPLINE
5
335
100
AcDbEntity
8
0
100
AcDbSpline
70
0
71
2
72
6
73
3
74
0
42
0.000000001
43
0.0000000001
44
0.0000000001
40
0
40
0
40
0
40
1
40
1
40
1
10
422.46175991106747
20
63.768795662669497
30
0
10
422.29907260943173
20
63.661361866740542
30
0
10
422.21005426455258
20
63.45876806333478
30
0
0
SPLINE
5
336
100
AcDbEntity
8
0
100
AcDbSpline
70
0
71
2
72
6
73
3
74
0
42
0.000000001
43
0.0000000001
44
0.0000000001
40
0
40
0
40
0
40
1
40
1
40
1
10
422.21005426455258
20
63.45876806333478
30
0
10
422.12103711176633
20
63.256176644114809
30
0
10
422.12103711176633
20
63.000379734782534
30
0
0
SPLINE
5
337
100
AcDbEntity
8
0
100
AcDbSpline
70
0
71
2
72
6
73
3
74
0
42
0.000000001
43
0.0000000001
44
0.0000000001
40
0
40
0
40
0
40
1
40
1
40
1
10
422.12103711176633
20
63.000379734782534
30
0
10
422.12103711176633
20
62.576776676921206
30
0
10
422.29702578593015
20
62.354744606761294
30
0
0
SPLINE
5
338
100
AcDbEntity
8
0
100
AcDbSpline
70
0
71
2
72
6
73
3
74
0
42
0.000000001
43
0.0000000001
44
0.0000000001
40
0
40
0
40
0
40
1
40
1
40
1
10
422.29702578593015
20
62.354744606761294
30
0
10
422.47301565218686
20
62.132712536601382
30
0
10
422.81885372210263
20
62.071319752482729
30
0
0
LINE
5
339
100
AcDbEntity
8
0
100
AcDbLine
10
422.81885372210263
20
65.331209831981013
30
0
11
422.87615285921811
21
65.695468121318171
31
0
0
SPLINE
5
340
100
AcDbEntity
8
0
100
AcDbSpline
70
0
71
2
72
6
73
3
74
0
42
0.000000001
43
0.0000000001
44
0.0000000001
40
0
40
0
40
0
40
1
40
1
40
1
10
422.87615285921811
20
65.695468121318171
30
0
10
422.65718923617123
20
65.726162129191707
30
0
10
422.54054533053159
20
65.86634033277447
30
0
0
SPLINE
5
341
100
AcDbEntity
8
0
100
AcDbSpline
70
0
71
2
72
6
73
3
74
0
42
0.000000001
43
0.0000000001
44
0.0000000001
40
0
40
0
40
0
40
1
40
1
40
1
10
422.54054533053159
20
65.86634033277447
30
0
10
422.42390142489194
20
66.006518536357234
30
0
10
422.42390142489194
20
66.258221798686336
30
0
0
SPLINE
5
342
100
AcDbEntity
8
0
100
AcDbSpline
70
0
71
2
72
6
73
3
74
0
42
0.000000001
43
0.0000000001
44
0.0000000001
40
0
40
0
40
0
40
1
40
1
40
1
10
422.42390142489194
20
66.258221798686336
30
0
10
422.42390142489194
20
66.511975460795711
30
0
10
422.52724395800351
20
66.634756260661433
30
0
0
SPLINE
5
343
100
AcDbEntity
8
0
100
AcDbSpline
70
0
71
2
72
6
73
3
74
0
42
0.000000001
43
0.0000000001
44
0.0000000001
40
0
40
0
40
0
40
1
40
1
40
1
10
422.52724395800351
20
66.634756260661433
30
0
10
422.63058649111508
20
66.757541828898738
30
0
10
422.7697406869006
20
66.757541828898738
30
0
0
SPLINE
5
344
100
AcDbEntity
8
0
100
AcDbSpline
70
0
71
2
72
6
73
3
74
0
42
0.000000001
43
0.0000000001
44
0.0000000001
40
0
40
0
40
0
40
1
40
1
40
1
10
422.7697406869006
20
66.757541828898738
30
0
10
422.89457069445371
20
66.757541828898738
30
0
10
422.96619401980161
20
66.649085217265437
30
0
0
SPLINE
5
345
100
AcDbEntity
8
0
100
AcDbSpline
70
0
71
2
72
6
73
3
74
0
42
0.000000001
43
0.0000000001
44
0.0000000001
40
0
40
0
40
0
40
1
40
1
40
1
10
422.96619401980161
20
66.649085217265437
30
0
10
423.01530705500363
20
66.573363476542781
30
0
10
423.09102343130826
20
66.272545986918757
30
0
0
SPLINE
5
346
100
AcDbEntity
8
0
100
AcDbSpline
70
0
71
2
72
6
73
3
74
0
42
0.000000001
43
0.0000000001
44
0.0000000001
40
0
40
0
40
0
40
1
40
1
40
1
10
423.09102343130826
20
66.272545986918757
30
0
10
423.19334255266904
20
65.867363148478816
30
0
10
423.26803551722287
20
65.710815125254939
30
0
0
SPLINE
5
347
100
AcDbEntity
8
0
100
AcDbSpline
70
0
71
2
72
6
73
3
74
0
42
0.000000001
43
0.0000000001
44
0.0000000001
40
0
40
0
40
0
40
1
40
1
40
1
10
423.26803551722287
20
65.710815125254939
30
0
10
423.3427284817767
20
65.554267102031062
30
0
10
423.47472058344601
20
65.473433666972468
30
0
0
SPLINE
5
348
100
AcDbEntity
8
0
100
AcDbSpline
70
0
71
2
72
6
73
3
74
0
42
0.000000001
43
0.0000000001
44
0.0000000001
40
0
40
0
40
0
40
1
40
1
40
1
10
423.47472058344601
20
65.473433666972468
30
0
10
423.60671208906888
20
65.392602616099666
30
0
10
423.76633034754514
20
65.392602616099666
30
0
0
SPLINE
5
349
100
AcDbEntity
8
0
100
AcDbSpline
70
0
71
2
72
6
73
3
74
0
42
0.000000001
43
0.0000000001
44
0.0000000001
40
0
40
0
40
0
40
1
40
1
40
1
10
423.76633034754514
20
65.392602616099666
30
0
10
423.91162382174252
20
65.392602616099666
30
0
10
424.03542982149838
20
65.459109478740046
30
0
0
SPLINE
5
350
100
AcDbEntity
8
0
100
AcDbSpline
70
0
71
2
72
6
73
3
74
0
42
0.000000001
43
0.0000000001
44
0.0000000001
40
0
40
0
40
0
40
1
40
1
40
1
10
424.03542982149838
20
65.459109478740046
30
0
10
424.15923582125424
20
65.525616341380427
30
0
10
424.24109147597073
20
65.640214615611384
30
0
0
SPLINE
5
351
100
AcDbEntity
8
0
100
AcDbSpline
70
0
71
2
72
6
73
3
74
0
42
0.000000001
43
0.0000000001
44
0.0000000001
40
0
40
0
40
0
40
1
40
1
40
1
10
424.24109147597073
20
65.640214615611384
30
0
10
424.30452929545163
20
65.726162129191707
30
0
10
424.34852706003903
20
65.874525242595027
30
0
0
SPLINE
5
352
100
AcDbEntity
8
0
100
AcDbSpline
70
0
71
2
72
6
73
3
74
0
42
0.000000001
43
0.0000000001
44
0.0000000001
40
0
40
0
40
0
40
1
40
1
40
1
10
424.34852706003903
20
65.874525242595027
30
0
10
424.39252422857999
20
66.022888355998347
30
0
10
424.39252422857999
20
66.1927377517503
30
0
0
SPLINE
5
353
100
AcDbEntity
8
0
100
AcDbSpline
70
0
71
2
72
6
73
3
74
0
42
0.000000001
43
0.0000000001
44
0.0000000001
40
0
40
0
40
0
40
1
40
1
40
1
10
424.39252422857999
20
66.1927377517503
30
0
10
424.39252422857999
20
66.448537045268367
30
0
10
424.3188540797305
20
66.641918354777644
30
0
0
SPLINE
5
354
100
AcDbEntity
8
0
100
AcDbSpline
70
0
71
2
72
6
73
3
74
0
42
0.000000001
43
0.0000000001
44
0.0000000001
40
0
40
0
40
0
40
1
40
1
40
1
10
424.3188540797305
20
66.641918354777644
30
0
10
424.24518452692746
20
66.835304432658504
30
0
10
424.11933170367001
20
66.927391224650691
30
0
0
SPLINE
5
355
100
AcDbEntity
8
0
100
AcDbSpline
70
0
71
2
72
6
73
3
74
0
42
0.000000001
43
0.0000000001
44
0.0000000001
40
0
40
0
40
0
40
1
40
1
40
1
10
424.11933170367001
20
66.927391224650691
30
0
10
423.99347888041257
20
67.019478016642879
30
0
10
423.78270135927914
20
67.054268055705379
30
0
0
LINE
5
356
100
AcDbEntity
8
0
100
AcDbLine
10
423.78270135927903
20
67.054268055705379
30
0
11
423.73358832407712
21
66.694103413371394
31
0
0
SPLINE
5
357
100
AcDbEntity
8
0
100
AcDbSpline
70
0
71
2
72
6
73
3
74
0
42
0.000000001
43
0.0000000001
44
0.0000000001
40
0
40
0
40
0
40
1
40
1
40
1
10
423.73358832407712
20
66.694103413371394
30
0
10
423.90139149237393
20
66.669546299723933
30
0
10
423.99552570391415
20
66.551877194194148
30
0
0
SPLINE
5
358
100
AcDbEntity
8
0
100
AcDbSpline
70
0
71
2
72
6
73
3
74
0
42
0.000000001
43
0.0000000001
44
0.0000000001
40
0
40
0
40
0
40
1
40
1
40
1
10
423.99552570391415
20
66.551877194194148
30
0
10
424.08965931940793
20
66.434212857035945
30
0
10
424.08965931940793
20
66.219340496806453
30
0
0
SPLINE
5
359
100
AcDbEntity
8
0
100
AcDbSpline
70
0
71
2
72
6
73
3
74
0
42
0.000000001
43
0.0000000001
44
0.0000000001
40
0
40
0
40
0
40
1
40
1
40
1
10
424.08965931940793
20
66.219340496806453
30
0
10
424.08965931940793
20
65.965589218882869
30
0
10
424.0057574372363
20
65.857130223063777
30
0
0
SPLINE
5
360
100
AcDbEntity
8
0
100
AcDbSpline
70
0
71
2
72
6
73
3
74
0
42
0.000000001
43
0.0000000001
44
0.0000000001
40
0
40
0
40
0
40
1
40
1
40
1
10
424.0057574372363
20
65.857130223063777
30
0
10
423.92185555506467
20
65.748673611430476
30
0
10
423.8093041043353
20
65.748673611430476
30
0
0
SPLINE
5
361
100
AcDbEntity
8
0
100
AcDbSpline
70
0
71
2
72
6
73
3
74
0
42
0.000000001
43
0.0000000001
44
0.0000000001
40
0
40
0
40
0
40
1
40
1
40
1
10
423.8093041043353
20
65.748673611430476
30
0
10
423.7376807789874
20
65.748673611430476
30
0
10
423.68038223791837
20
65.793694191722224
30
0
0
SPLINE
5
362
100
AcDbEntity
8
0
100
AcDbSpline
70
0
71
2
72
6
73
3
74
0
42
0.000000001
43
0.0000000001
44
0.0000000001
40
0
40
0
40
0
40
1
40
1
40
1
10
423.68038223791837
20
65.793694191722224
30
0
10
423.62103687334775
20
65.838714772013972
30
0
10
423.58215557146787
20
65.934892826823543
30
0
0
SPLINE
5
363
100
AcDbEntity
8
0
100
AcDbSpline
70
0
71
2
72
6
73
3
74
0
42
0.000000001
43
0.0000000001
44
0.0000000001
40
0
40
0
40
0
40
1
40
1
40
1
10
423.58215557146787
20
65.934892826823543
30
0
10
423.56169210482358
20
65.990143948344539
30
0
10
423.48802195597409
20
66.260267430095027
30
0
0
SPLINE
5
364
100
AcDbEntity
8
0
100
AcDbSpline
70
0
71
2
72
6
73
3
74
0
42
0.000000001
43
0.0000000001
44
0.0000000001
40
0
40
0
40
0
40
1
40
1
40
1
10
423.48802195597409
20
66.260267430095027
30
0
10
423.38365601111173
20
66.651126080302546
30
0
10
423.3171485524249
20
66.805630856303523
30
0
0
SPLINE
5
365
100
AcDbEntity
8
0
100
AcDbSpline
70
0
71
2
72
6
73
3
74
0
42
0.000000001
43
0.0000000001
44
0.0000000001
40
0
40
0
40
0
40
1
40
1
40
1
10
423.3171485524249
20
66.805630856303523
30
0
10
423.25064109373807
20
66.9601356323045
30
0
10
423.12376545477628
20
67.048126393107722
30
0
0
SPLINE
5
366
100
AcDbEntity
8
0
100
AcDbSpline
70
0
71
2
72
6
73
3
74
0
42
0.000000001
43
0.0000000001
44
0.0000000001
40
0
40
0
40
0
40
1
40
1
40
1
10
423.12376545477628
20
67.048126393107722
30
0
10
422.99688981581448
20
67.136121922282527
30
0
10
422.80862198878049
20
67.136121922282527
30
0
0
SPLINE
5
367
100
AcDbEntity
8
0
100
AcDbSpline
70
0
71
2
72
6
73
3
74
0
42
0.000000001
43
0.0000000001
44
0.0000000001
40
0
40
0
40
0
40
1
40
1
40
1
10
422.80862198878049
20
67.136121922282527
30
0
10
422.62444721270322
20
67.136121922282527
30
0
10
422.46175991106747
20
67.028685742167781
30
0
0
SPLINE
5
368
100
AcDbEntity
8
0
100
AcDbSpline
70
0
71
2
72
6
73
3
74
0
42
0.000000001
43
0.0000000001
44
0.0000000001
40
0
40
0
40
0
40
1
40
1
40
1
10
422.46175991106747
20
67.028685742167781
30
0
10
422.29907260943173
20
66.921254330424617
30
0
10
422.21005426455258
20
66.718660527018855
30
0
0
SPLINE
5
369
100
AcDbEntity
8
0
100
AcDbSpline
70
0
71
2
72
6
73
3
74
0
42
0.000000001
43
0.0000000001
44
0.0000000001
40
0
40
0
40
0
40
1
40
1
40
1
10
422.21005426455258
20
66.718660527018855
30
0
10
422.12103711176633
20
66.516066723613093
30
0
10
422.12103711176633
20
66.260267430095027
30
0
0
SPLINE
5
370
100
AcDbEntity
8
0
100
AcDbSpline
70
0
71
2
72
6
73
3
74
0
42
0.000000001
43
0.0000000001
44
0.0000000001
40
0
40
0
40
0
40
1
40
1
40
1
10
422.12103711176633
20
66.260267430095027
30
0
10
422.12103711176633
20
65.83666675641949
30
0
10
422.29702578593015
20
65.614634686259578
30
0
0
SPLINE
5
371
100
AcDbEntity
8
0
100
AcDbSpline
70
0
71
2
72
6
73
3
74
0
42
0.000000001
43
0.0000000001
44
0.0000000001
40
0
40
0
40
0
40
1
40
1
40
1
10
422.29702578593015
20
65.614634686259578
30
0
10
422.47301565218686
20
65.392602616099666
30
0
10
422.81885372210263
20
65.331209831981013
30
0
0
LWPOLYLINE
5
372
100
AcDbEntity
8
0
100
AcDbPolyline
90
4
70
1
43
0.0
10
425.17015026617764
20
67.576094799784968
10
424.74654899645566
20
67.576094799784968
10
424.74654899645566
20
67.944441967753718
10
425.17015026617764
20
67.944441967753718
0
LWPOLYLINE
5
373
100
AcDbEntity
8
0
100
AcDbPolyline
90
4
70
1
43
0.0
10
424.34341059733151
20
67.576094799784968
10
422.17015014696835
20
67.576094799784968
10
422.17015014696835
20
67.944441967753718
10
424.34341059733151
20
67.944441967753718
0
LINE
5
374
100
AcDbEntity
8
0
100
AcDbLine
10
422.17015014696835
20
69.915114575175593
30
0
11
422.44436608362912
21
69.915114575175593
31
0
0
SPLINE
5
375
100
AcDbEntity
8
0
100
AcDbSpline
70
0
71
2
72
6
73
3
74
0
42
0.000000001
43
0.0000000001
44
0.0000000001
40
0
40
0
40
0
40
1
40
1
40
1
10
422.44436608362912
20
69.915114575175593
30
0
10
422.12103711176633
20
69.708424740580867
30
0
10
422.12103711176633
20
69.30733793332989
30
0
0
SPLINE
5
376
100
AcDbEntity
8
0
100
AcDbSpline
70
0
71
2
72
6
73
3
74
0
42
0.000000001
43
0.0000000001
44
0.0000000001
40
0
40
0
40
0
40
1
40
1
40
1
10
422.12103711176633
20
69.30733793332989
30
0
10
422.12103711176633
20
69.047442608622859
30
0
10
422.26428376246213
20
68.829504185466121
30
0
0
SPLINE
5
377
100
AcDbEntity
8
0
100
AcDbSpline
70
0
71
2
72
6
73
3
74
0
42
0.000000001
43
0.0000000001
44
0.0000000001
40
0
40
0
40
0
40
1
40
1
40
1
10
422.26428376246213
20
68.829504185466121
30
0
10
422.40753041315793
20
68.611565762309382
30
0
10
422.66435252238034
20
68.491851025370906
30
0
0
SPLINE
5
378
100
AcDbEntity
8
0
100
AcDbSpline
70
0
71
2
72
6
73
3
74
0
42
0.000000001
43
0.0000000001
44
0.0000000001
40
0
40
0
40
0
40
1
40
1
40
1
10
422.66435252238034
20
68.491851025370906
30
0
10
422.92117343950986
20
68.372136288432429
30
0
10
423.25473414469479
20
68.372136288432429
30
0
0
SPLINE
5
379
100
AcDbEntity
8
0
100
AcDbSpline
70
0
71
2
72
6
73
3
74
0
42
0.000000001
43
0.0000000001
44
0.0000000001
40
0
40
0
40
0
40
1
40
1
40
1
10
423.25473414469479
20
68.372136288432429
30
0
10
423.58010934401273
20
68.372136288432429
30
0
10
423.84511576700925
20
68.480597668437312
30
0
0
SPLINE
5
380
100
AcDbEntity
8
0
100
AcDbSpline
70
0
71
2
72
6
73
3
74
0
42
0.000000001
43
0.0000000001
44
0.0000000001
40
0
40
0
40
0
40
1
40
1
40
1
10
423.84511576700925
20
68.480597668437312
30
0
10
424.11012278605222
20
68.589054280070613
30
0
10
424.25132320929288
20
68.805972271708796
30
0
0
SPLINE
5
381
100
AcDbEntity
8
0
100
AcDbSpline
70
0
71
2
72
6
73
3
74
0
42
0.000000001
43
0.0000000001
44
0.0000000001
40
0
40
0
40
0
40
1
40
1
40
1
10
424.25132320929288
20
68.805972271708796
30
0
10
424.39252363253354
20
69.022885494975398
30
0
10
424.39252363253354
20
69.290963345317195
30
0
0
SPLINE
5
382
100
AcDbEntity
8
0
100
AcDbSpline
70
0
71
2
72
6
73
3
74
0
42
0.000000001
43
0.0000000001
44
0.0000000001
40
0
40
0
40
0
40
1
40
1
40
1
10
424.39252363253354
20
69.290963345317195
30
0
10
424.39252363253354
20
69.4874154861253
30
0
10
424.3096451621127
20
69.64089506223614
30
0
0
SPLINE
5
383
100
AcDbEntity
8
0
100
AcDbSpline
70
0
71
2
72
6
73
3
74
0
42
0.000000001
43
0.0000000001
44
0.0000000001
40
0
40
0
40
0
40
1
40
1
40
1
10
424.3096451621127
20
69.64089506223614
30
0
10
424.22676669169186
20
69.79437463834698
30
0
10
424.09375177431821
20
69.890557461528132
30
0
0
LINE
5
384
100
AcDbEntity
8
0
100
AcDbLine
10
424.09375177431821
20
69.890557461528132
30
0
11
425.1701496701312
21
69.890557461528132
31
0
0
LINE
5
385
100
AcDbEntity
8
0
100
AcDbLine
10
425.1701496701312
20
69.890557461528132
30
0
11
425.1701496701312
21
70.256858998088191
31
0
0
LINE
5
386
100
AcDbEntity
8
0
100
AcDbLine
10
425.1701496701312
20
70.256858998088191
30
0
11
422.17015014696835
21
70.256858998088191
31
0
0
LINE
5
387
100
AcDbEntity
8
0
100
AcDbLine
10
422.17015014696835
20
70.256858998088191
30
0
11
422.17015014696835
21
69.915114575175593
31
0
0
SPLINE
5
388
100
AcDbEntity
8
0
100
AcDbSpline
70
0
71
2
72
6
73
3
74
0
42
0.000000001
43
0.0000000001
44
0.0000000001
40
0
40
0
40
0
40
1
40
1
40
1
10
423.25473414469479
20
68.750716381816218
30
0
10
422.83727155733823
20
68.750716381816218
30
0
10
422.63058649111508
20
68.926707440165828
30
0
0
SPLINE
5
389
100
AcDbEntity
8
0
100
AcDbSpline
70
0
71
2
72
6
73
3
74
0
42
0.000000001
43
0.0000000001
44
0.0000000001
40
0
40
0
40
0
40
1
40
1
40
1
10
422.63058649111508
20
68.926707440165828
30
0
10
422.42390142489194
20
69.102698498515437
30
0
10
422.42390142489194
20
69.342123204020808
30
0
0
SPLINE
5
390
100
AcDbEntity
8
0
100
AcDbSpline
70
0
71
2
72
6
73
3
74
0
42
0.000000001
43
0.0000000001
44
0.0000000001
40
0
40
0
40
0
40
1
40
1
40
1
10
422.42390142489194
20
69.342123204020808
30
0
10
422.42390142489194
20
69.583598309306453
30
0
10
422.62137757349728
20
69.752422505168269
30
0
0
SPLINE
5
391
100
AcDbEntity
8
0
100
AcDbSpline
70
0
71
2
72
6
73
3
74
0
42
0.000000001
43
0.0000000001
44
0.0000000001
40
0
40
0
40
0
40
1
40
1
40
1
10
422.62137757349728
20
69.752422505168269
30
0
10
422.81885372210263
20
69.921251469401668
30
0
10
423.22403834868192
20
69.921251469401668
30
0
0
SPLINE
5
392
100
AcDbEntity
8
0
100
AcDbSpline
70
0
71
2
72
6
73
3
74
0
42
0.000000001
43
0.0000000001
44
0.0000000001
40
0
40
0
40
0
40
1
40
1
40
1
10
423.22403834868192
20
69.921251469401668
30
0
10
423.67014990854977
20
69.921251469401668
30
0
10
423.87888120222806
20
69.749356442241023
30
0
0
SPLINE
5
393
100
AcDbEntity
8
0
100
AcDbSpline
70
0
71
2
72
6
73
3
74
0
42
0.000000001
43
0.0000000001
44
0.0000000001
40
0
40
0
40
0
40
1
40
1
40
1
10
423.87888120222806
20
69.749356442241023
30
0
10
424.08761249590634
20
69.577456646708796
30
0
10
424.08761249590634
20
69.325753384379695
30
0
0
SPLINE
5
394
100
AcDbEntity
8
0
100
AcDbSpline
70
0
71
2
72
6
73
3
74
0
42
0.000000001
43
0.0000000001
44
0.0000000001
40
0
40
0
40
0
40
1
40
1
40
1
10
424.08761249590634
20
69.325753384379695
30
0
10
424.08761249590634
20
69.080187016276668
30
0
10
423.88706670809506
20
68.915454083232234
30
0
0
SPLINE
5
395
100
AcDbEntity
8
0
100
AcDbSpline
70
0
71
2
72
6
73
3
74
0
42
0.000000001
43
0.0000000001
44
0.0000000001
40
0
40
0
40
0
40
1
40
1
40
1
10
423.88706670809506
20
68.915454083232234
30
0
10
423.68652092028378
20
68.750716381816218
30
0
10
423.25473414469479
20
68.750716381816218
30
0
0
LINE
5
396
100
AcDbEntity
8
0
100
AcDbLine
10
422.87001358080624
20
72.323704891948054
30
0
11
422.8229473691058
21
72.704335385112117
31
0
0
SPLINE
5
397
100
AcDbEntity
8
0
100
AcDbSpline
70
0
71
2
72
6
73
3
74
0
42
0.000000001
43
0.0000000001
44
0.0000000001
40
0
40
0
40
0
40
1
40
1
40
1
10
422.8229473691058
20
72.704335385112117
30
0
10
422.48938666392087
20
72.614294224528621
30
0
10
422.3052118878436
20
72.370773487834285
30
0
0
SPLINE
5
398
100
AcDbEntity
8
0
100
AcDbSpline
70
0
71
2
72
6
73
3
74
0
42
0.000000001
43
0.0000000001
44
0.0000000001
40
0
40
0
40
0
40
1
40
1
40
1
10
422.3052118878436
20
72.370773487834285
30
0
10
422.12103711176633
20
72.127252751139949
30
0
10
422.12103711176633
20
71.74867265775616
30
0
0
SPLINE
5
399
100
AcDbEntity
8
0
100
AcDbSpline
70
0
71
2
72
6
73
3
74
0
42
0.000000001
43
0.0000000001
44
0.0000000001
40
0
40
0
40
0
40
1
40
1
40
1
10
422.12103711176633
20
71.74867265775616
30
0
10
422.12103711176633
20
71.271864109782527
30
0
10
422.41469369936704
20
70.992532902507136
30
0
0
SPLINE
5
400
100
AcDbEntity
8
0
100
AcDbSpline
70
0
71
2
72
6
73
3
74
0
42
0.000000001
43
0.0000000001
44
0.0000000001
40
0
40
0
40
0
40
1
40
1
40
1
10
422.41469369936704
20
70.992532902507136
30
0
10
422.70834909487485
20
70.713201695231746
30
0
10
423.23836313296079
20
70.713201695231746
30
0
0
SPLINE
5
401
100
AcDbEntity
8
0
100
AcDbSpline
70
0
71
2
72
6
73
3
74
0
42
0.000000001
43
0.0000000001
44
0.0000000001
40
0
40
0
40
0
40
1
40
1
40
1
10
423.23836313296079
20
70.713201695231746
30
0
10
423.78679381418942
20
70.713201695231746
30
0
10
424.08965931940793
20
70.995603733805964
30
0
0
SPLINE
5
402
100
AcDbEntity
8
0
100
AcDbSpline
70
0
71
2
72
6
73
3
74
0
42
0.000000001
43
0.0000000001
44
0.0000000001
40
0
40
0
40
0
40
1
40
1
40
1
10
424.08965931940793
20
70.995603733805964
30
0
10
424.39252422857999
20
71.278001004008601
30
0
10
424.39252422857999
20
71.728206806926082
30
0
0
SPLINE
5
403
100
AcDbEntity
8
0
100
AcDbSpline
70
0
71
2
72
6
73
3
74
0
42
0.000000001
43
0.0000000001
44
0.0000000001
40
0
40
0
40
0
40
1
40
1
40
1
10
424.39252422857999
20
71.728206806926082
30
0
10
424.39252422857999
20
72.16408842161114
30
0
10
424.09579859781979
20
72.440348797587703
30
0
0
SPLINE
5
404
100
AcDbEntity
8
0
100
AcDbSpline
70
0
71
2
72
6
73
3
74
0
42
0.000000001
43
0.0000000001
44
0.0000000001
40
0
40
0
40
0
40
1
40
1
40
1
10
424.09579859781979
20
72.440348797587703
30
0
10
423.79907237101315
20
72.716613941935847
30
0
10
423.26087342310666
20
72.716613941935847
30
0
0
SPLINE
5
405
100
AcDbEntity
8
0
100
AcDbSpline
70
0
71
2
72
6
73
3
74
0
42
0.000000001
43
0.0000000001
44
0.0000000001
40
0
40
0
40
0
40
1
40
1
40
1
10
423.26087342310666
20
72.716613941935847
30
0
10
423.22813080359219
20
72.716613941935847
30
0
10
423.16264675665616
20
72.714568310527156
30
0
0
LINE
5
406
100
AcDbEntity
8
0
100
AcDbLine
10
423.16264675665616
20
72.714568310527156
30
0
11
423.16264675665616
21
71.093827420024226
31
0
0
SPLINE
5
407
100
AcDbEntity
8
0
100
AcDbSpline
70
0
71
2
72
6
73
3
74
0
42
0.000000001
43
0.0000000001
44
0.0000000001
40
0
40
0
40
0
40
1
40
1
40
1
10
423.16264675665616
20
71.093827420024226
30
0
10
422.80452953387021
20
71.114293270854304
30
0
10
422.61421547938107
20
71.296421223429988
30
0
0
SPLINE
5
408
100
AcDbEntity
8
0
100
AcDbSpline
70
0
71
2
72
6
73
3
74
0
42
0.000000001
43
0.0000000001
44
0.0000000001
40
0
40
0
40
0
40
1
40
1
40
1
10
422.61421547938107
20
71.296421223429988
30
0
10
422.42390142489194
20
71.478549176005671
30
0
10
422.42390142489194
20
71.750718289164851
30
0
0
SPLINE
5
409
100
AcDbEntity
8
0
100
AcDbSpline
70
0
71
2
72
6
73
3
74
0
42
0.000000001
43
0.0000000001
44
0.0000000001
40
0
40
0
40
0
40
1
40
1
40
1
10
422.42390142489194
20
71.750718289164851
30
0
10
422.42390142489194
20
71.953312092570613
30
0
10
422.53031359720944
20
72.096558743266414
30
0
0
SPLINE
5
410
100
AcDbEntity
8
0
100
AcDbSpline
70
0
71
2
72
6
73
3
74
0
42
0.000000001
43
0.0000000001
44
0.0000000001
40
0
40
0
40
0
40
1
40
1
40
1
10
422.53031359720944
20
72.096558743266414
30
0
10
422.63672576952695
20
72.239805393962214
30
0
10
422.87001358080624
20
72.323704891948054
30
0
0
LINE
5
411
100
AcDbEntity
8
0
100
AcDbLine
10
423.46551166582822
20
71.114293270854304
30
0
11
423.46551166582822
21
72.327796154765437
31
0
0
SPLINE
5
412
100
AcDbEntity
8
0
100
AcDbSpline
70
0
71
2
72
6
73
3
74
0
42
0.000000001
43
0.0000000001
44
0.0000000001
40
0
40
0
40
0
40
1
40
1
40
1
10
423.46551166582822
20
72.327796154765437
30
0
10
423.73972760248898
20
72.303243809489558
30
0
10
423.87683497477292
20
72.188645535258601
30
0
0
SPLINE
5
413
100
AcDbEntity
8
0
100
AcDbSpline
70
0
71
2
72
6
73
3
74
0
42
0.000000001
43
0.0000000001
44
0.0000000001
40
0
40
0
40
0
40
1
40
1
40
1
10
423.87683497477292
20
72.188645535258601
30
0
10
424.08965931940793
20
72.012654476908992
30
0
10
424.08965931940793
20
71.732302838115046
30
0
0
SPLINE
5
414
100
AcDbEntity
8
0
100
AcDbSpline
70
0
71
2
72
6
73
3
74
0
42
0.000000001
43
0.0000000001
44
0.0000000001
40
0
40
0
40
0
40
1
40
1
40
1
10
424.08965931940793
20
71.732302838115046
30
0
10
424.08965931940793
20
71.478549176005671
30
0
10
423.91980932760953
20
71.30562894895489
30
0
0
SPLINE
5
415
100
AcDbEntity
8
0
100
AcDbSpline
70
0
71
2
72
6
73
3
74
0
42
0.000000001
43
0.0000000001
44
0.0000000001
40
0
40
0
40
0
40
1
40
1
40
1
10
423.91980932760953
20
71.30562894895489
30
0
10
423.74995933581113
20
71.132708721904109
30
0
10
423.46551166582822
20
71.114293270854304
30
0
0
LWPOLYLINE
5
416
100
AcDbEntity
8
0
100
AcDbPolyline
90
4
70
1
43
0.0
10
425.17015026617764
20
74.333258801249812
10
424.74654899645566
20
74.333258801249812
10
424.74654899645566
20
74.701605969218562
10
425.17015026617764
20
74.701605969218562
0
LWPOLYLINE
5
417
100
AcDbEntity
8
0
100
AcDbPolyline
90
4
70
1
43
0.0
10
424.34341059733151
20
74.333258801249812
10
422.17015014696835
20
74.333258801249812
10
422.17015014696835
20
74.701605969218562
10
424.34341059733151
20
74.701605969218562
0
LINE
5
418
100
AcDbEntity
8
0
100
AcDbLine
10
422.17015014696835
20
75.262314015178035
30
0
11
424.34341059733151
21
75.262314015178035
31
0
0
LINE
5
419
100
AcDbEntity
8
0
100
AcDbLine
10
424.34341059733151
20
75.262314015178035
30
0
11
424.34341059733151
21
75.593830281047175
31
0
0
LINE
5
420
100
AcDbEntity
8
0
100
AcDbLine
10
424.34341059733151
20
75.593830281047175
30
0
11
424.03440700579404
21
75.593830281047175
31
0
0
SPLINE
5
421
100
AcDbEntity
8
0
100
AcDbSpline
70
0
71
2
72
6
73
3
74
0
42
0.000000001
43
0.0000000001
44
0.0000000001
40
0
40
0
40
0
40
1
40
1
40
1
10
424.03440700579404
20
75.593830281047175
30
0
10
424.39252363253354
20
75.833254986552546
30
0
10
424.39252363253354
20
76.285506420878718
30
0
0
SPLINE
5
422
100
AcDbEntity
8
0
100
AcDbSpline
70
0
71
2
72
6
73
3
74
0
42
0.000000001
43
0.0000000001
44
0.0000000001
40
0
40
0
40
0
40
1
40
1
40
1
10
424.39252363253354
20
76.285506420878718
30
0
10
424.39252363253354
20
76.481963330058406
30
0
10
424.32192371893643
20
76.646691494731257
30
0
0
SPLINE
5
423
100
AcDbEntity
8
0
100
AcDbSpline
70
0
71
2
72
6
73
3
74
0
42
0.000000001
43
0.0000000001
44
0.0000000001
40
0
40
0
40
0
40
1
40
1
40
1
10
424.32192371893643
20
76.646691494731257
30
0
10
424.25132380533933
20
76.811429196147273
30
0
10
424.13672553110837
20
76.893283062724421
30
0
0
SPLINE
5
424
100
AcDbEntity
8
0
100
AcDbSpline
70
0
71
2
72
6
73
3
74
0
42
0.000000001
43
0.0000000001
44
0.0000000001
40
0
40
0
40
0
40
1
40
1
40
1
10
424.13672553110837
20
76.893283062724421
30
0
10
424.02212844897031
20
76.97513692930157
30
0
10
423.86455641794919
20
77.007881336955379
30
0
0
SPLINE
5
425
100
AcDbEntity
8
0
100
AcDbSpline
70
0
71
2
72
6
73
3
74
0
42
0.000000001
43
0.0000000001
44
0.0000000001
40
0
40
0
40
0
40
1
40
1
40
1
10
423.86455641794919
20
77.007881336955379
30
0
10
423.76223729658841
20
77.028342419413875
30
0
10
423.50643919516324
20
77.028342419413875
30
0
0
LINE
5
426
100
AcDbEntity
8
0
100
AcDbLine
10
423.50643919516324
20
77.028342419413875
30
0
11
422.17015014696835
21
77.028342419413875
31
0
0
LINE
5
427
100
AcDbEntity
8
0
100
AcDbLine
10
422.17015014696835
20
77.028342419413875
30
0
11
422.17015014696835
21
76.659995251445125
31
0
0
LINE
5
428
100
AcDbEntity
8
0
100
AcDbLine
10
422.17015014696835
20
76.659995251445125
30
0
11
423.49211441088437
21
76.659995251445125
31
0
0
SPLINE
5
429
100
AcDbEntity
8
0
100
AcDbSpline
70
0
71
2
72
6
73
3
74
0
42
0.000000001
43
0.0000000001
44
0.0000000001
40
0
40
0
40
0
40
1
40
1
40
1
10
423.49211441088437
20
76.659995251445125
30
0
10
423.71721731234311
20
76.659995251445125
30
0
10
423.82874475527524
20
76.617022686747859
30
0
0
SPLINE
5
430
100
AcDbEntity
8
0
100
AcDbSpline
70
0
71
2
72
6
73
3
74
0
42
0.000000001
43
0.0000000001
44
0.0000000001
40
0
40
0
40
0
40
1
40
1
40
1
10
423.82874475527524
20
76.617022686747859
30
0
10
423.94027279425381
20
76.574050122050593
30
0
10
424.00678025294064
20
76.464568310527156
30
0
0
SPLINE
5
431
100
AcDbEntity
8
0
100
AcDbSpline
70
0
71
2
72
6
73
3
74
0
42
0.000000001
43
0.0000000001
44
0.0000000001
40
0
40
0
40
0
40
1
40
1
40
1
10
424.00678025294064
20
76.464568310527156
30
0
10
424.07328830767392
20
76.355086499003718
30
0
10
424.07328830767392
20
76.207743817118953
30
0
0
SPLINE
5
432
100
AcDbEntity
8
0
100
AcDbSpline
70
0
71
2
72
6
73
3
74
0
42
0.000000001
43
0.0000000001
44
0.0000000001
40
0
40
0
40
0
40
1
40
1
40
1
10
424.07328830767392
20
76.207743817118953
30
0
10
424.07328830767392
20
75.972410374430964
30
0
10
423.92390178251981
20
75.801535778788875
30
0
0
SPLINE
5
433
100
AcDbEntity
8
0
100
AcDbSpline
70
0
71
2
72
6
73
3
74
0
42
0.000000001
43
0.0000000001
44
0.0000000001
40
0
40
0
40
0
40
1
40
1
40
1
10
423.92390178251981
20
75.801535778788875
30
0
10
423.77451585341214
20
75.630665951518367
30
0
10
423.35705326605557
20
75.630665951518367
30
0
0
LINE
5
434
100
AcDbEntity
8
0
100
AcDbLine
10
423.35705326605557
20
75.630665951518367
30
0
11
422.17015014696835
21
75.630665951518367
31
0
0
LINE
5
435
100
AcDbEntity
8
0
100
AcDbLine
10
422.17015014696835
20
75.630665951518367
30
0
11
422.17015014696835
21
75.262314015178035
31
0
0
LINE
5
436
100
AcDbEntity
8
0
100
AcDbLine
10
422.81885372210263
20
77.445808583049129
30
0
11
422.87615285921811
21
77.810064488200496
31
0
0
SPLINE
5
437
100
AcDbEntity
8
0
100
AcDbSpline
70
0
71
2
72
6
73
3
74
0
42
0.000000001
43
0.0000000001
44
0.0000000001
40
0
40
0
40
0
40
1
40
1
40
1
10
422.87615285921811
20
77.810064488200496
30
0
10
422.65718923617123
20
77.840758496074031
30
0
10
422.54054533053159
20
77.980939083842586
30
0
0
SPLINE
5
438
100
AcDbEntity
8
0
100
AcDbSpline
70
0
71
2
72
6
73
3
74
0
42
0.000000001
43
0.0000000001
44
0.0000000001
40
0
40
0
40
0
40
1
40
1
40
1
10
422.54054533053159
20
77.980939083842586
30
0
10
422.42390142489194
20
78.121114903239558
30
0
10
422.42390142489194
20
78.372822933940242
30
0
0
SPLINE
5
439
100
AcDbEntity
8
0
100
AcDbSpline
70
0
71
2
72
6
73
3
74
0
42
0.000000001
43
0.0000000001
44
0.0000000001
40
0
40
0
40
0
40
1
40
1
40
1
10
422.42390142489194
20
78.372822933940242
30
0
10
422.42390142489194
20
78.626571827678035
30
0
10
422.52724395800351
20
78.749352627543757
30
0
0
SPLINE
5
440
100
AcDbEntity
8
0
100
AcDbSpline
70
0
71
2
72
6
73
3
74
0
42
0.000000001
43
0.0000000001
44
0.0000000001
40
0
40
0
40
0
40
1
40
1
40
1
10
422.52724395800351
20
78.749352627543757
30
0
10
422.63058649111508
20
78.872138195781062
30
0
10
422.7697406869006
20
78.872138195781062
30
0
0
SPLINE
5
441
100
AcDbEntity
8
0
100
AcDbSpline
70
0
71
2
72
6
73
3
74
0
42
0.000000001
43
0.0000000001
44
0.0000000001
40
0
40
0
40
0
40
1
40
1
40
1
10
422.7697406869006
20
78.872138195781062
30
0
10
422.89457069445371
20
78.872138195781062
30
0
10
422.96619401980161
20
78.763676815776179
30
0
0
SPLINE
5
442
100
AcDbEntity
8
0
100
AcDbSpline
70
0
71
2
72
6
73
3
74
0
42
0.000000001
43
0.0000000001
44
0.0000000001
40
0
40
0
40
0
40
1
40
1
40
1
10
422.96619401980161
20
78.763676815776179
30
0
10
423.01530705500363
20
78.687964611796687
30
0
10
423.09102343130826
20
78.387147122172664
30
0
0
SPLINE
5
443
100
AcDbEntity
8
0
100
AcDbSpline
70
0
71
2
72
6
73
3
74
0
42
0.000000001
43
0.0000000001
44
0.0000000001
40
0
40
0
40
0
40
1
40
1
40
1
10
423.09102343130826
20
78.387147122172664
30
0
10
423.19334255266904
20
77.98195951536114
30
0
10
423.26803551722287
20
77.825413876323054
30
0
0
SPLINE
5
444
100
AcDbEntity
8
0
100
AcDbSpline
70
0
71
2
72
6
73
3
74
0
42
0.000000001
43
0.0000000001
44
0.0000000001
40
0
40
0
40
0
40
1
40
1
40
1
10
423.26803551722287
20
77.825413876323054
30
0
10
423.3427284817767
20
77.668863468913386
30
0
10
423.47472058344601
20
77.588034802226375
30
0
0
SPLINE
5
445
100
AcDbEntity
8
0
100
AcDbSpline
70
0
71
2
72
6
73
3
74
0
42
0.000000001
43
0.0000000001
44
0.0000000001
40
0
40
0
40
0
40
1
40
1
40
1
10
423.47472058344601
20
77.588034802226375
30
0
10
423.60671208906888
20
77.507201367167781
30
0
10
423.76633034754514
20
77.507201367167781
30
0
0
SPLINE
5
446
100
AcDbEntity
8
0
100
AcDbSpline
70
0
71
2
72
6
73
3
74
0
42
0.000000001
43
0.0000000001
44
0.0000000001
40
0
40
0
40
0
40
1
40
1
40
1
10
423.76633034754514
20
77.507201367167781
30
0
10
423.91162382174252
20
77.507201367167781
30
0
10
424.03542982149838
20
77.573710613993953
30
0
0
SPLINE
5
447
100
AcDbEntity
8
0
100
AcDbSpline
70
0
71
2
72
6
73
3
74
0
42
0.000000001
43
0.0000000001
44
0.0000000001
40
0
40
0
40
0
40
1
40
1
40
1
10
424.03542982149838
20
77.573710613993953
30
0
10
424.15923582125424
20
77.640215092448543
30
0
10
424.24109147597073
20
77.7548133666795
30
0
0
SPLINE
5
448
100
AcDbEntity
8
0
100
AcDbSpline
70
0
71
2
72
6
73
3
74
0
42
0.000000001
43
0.0000000001
44
0.0000000001
40
0
40
0
40
0
40
1
40
1
40
1
10
424.24109147597073
20
77.7548133666795
30
0
10
424.30452929545163
20
77.840758496074031
30
0
10
424.34852706003903
20
77.989121609477351
30
0
0
SPLINE
5
449
100
AcDbEntity
8
0
100
AcDbSpline
70
0
71
2
72
6
73
3
74
0
42
0.000000001
43
0.0000000001
44
0.0000000001
40
0
40
0
40
0
40
1
40
1
40
1
10
424.34852706003903
20
77.989121609477351
30
0
10
424.39252422857999
20
78.137484722880671
30
0
10
424.39252422857999
20
78.307334118632625
30
0
0
SPLINE
5
450
100
AcDbEntity
8
0
100
AcDbSpline
70
0
71
2
72
6
73
3
74
0
42
0.000000001
43
0.0000000001
44
0.0000000001
40
0
40
0
40
0
40
1
40
1
40
1
10
424.39252422857999
20
78.307334118632625
30
0
10
424.39252422857999
20
78.563138180522273
30
0
10
424.3188540797305
20
78.756514721659968
30
0
0
SPLINE
5
451
100
AcDbEntity
8
0
100
AcDbSpline
70
0
71
2
72
6
73
3
74
0
42
0.000000001
43
0.0000000001
44
0.0000000001
40
0
40
0
40
0
40
1
40
1
40
1
10
424.3188540797305
20
78.756514721659968
30
0
10
424.24518452692746
20
78.949900799540828
30
0
10
424.11933170367001
20
79.041987591533015
30
0
0
SPLINE
5
452
100
AcDbEntity
8
0
100
AcDbSpline
70
0
71
2
72
6
73
3
74
0
42
0.000000001
43
0.0000000001
44
0.0000000001
40
0
40
0
40
0
40
1
40
1
40
1
10
424.11933170367001
20
79.041987591533015
30
0
10
423.99347888041257
20
79.134074383525203
30
0
10
423.78270135927914
20
79.168864422587703
30
0
0
LINE
5
453
100
AcDbEntity
8
0
100
AcDbLine
10
423.78270135927903
20
79.168864422587703
30
0
11
423.73358832407712
21
78.808699780253718
31
0
0
SPLINE
5
454
100
AcDbEntity
8
0
100
AcDbSpline
70
0
71
2
72
6
73
3
74
0
42
0.000000001
43
0.0000000001
44
0.0000000001
40
0
40
0
40
0
40
1
40
1
40
1
10
423.73358832407712
20
78.808699780253718
30
0
10
423.90139149237393
20
78.784142666606257
30
0
10
423.99552570391415
20
78.666478329448054
30
0
0
SPLINE
5
455
100
AcDbEntity
8
0
100
AcDbSpline
70
0
71
2
72
6
73
3
74
0
42
0.000000001
43
0.0000000001
44
0.0000000001
40
0
40
0
40
0
40
1
40
1
40
1
10
423.99552570391415
20
78.666478329448054
30
0
10
424.08965931940793
20
78.548809223918269
30
0
10
424.08965931940793
20
78.333941632060359
30
0
0
SPLINE
5
456
100
AcDbEntity
8
0
100
AcDbSpline
70
0
71
2
72
6
73
3
74
0
42
0.000000001
43
0.0000000001
44
0.0000000001
40
0
40
0
40
0
40
1
40
1
40
1
10
424.08965931940793
20
78.333941632060359
30
0
10
424.08965931940793
20
78.080187969950984
30
0
10
424.0057574372363
20
77.971726589946101
30
0
0
SPLINE
5
457
100
AcDbEntity
8
0
100
AcDbSpline
70
0
71
2
72
6
73
3
74
0
42
0.000000001
43
0.0000000001
44
0.0000000001
40
0
40
0
40
0
40
1
40
1
40
1
10
424.0057574372363
20
77.971726589946101
30
0
10
423.92185555506467
20
77.8632699783128
30
0
10
423.8093041043353
20
77.8632699783128
30
0
0
SPLINE
5
458
100
AcDbEntity
8
0
100
AcDbSpline
70
0
71
2
72
6
73
3
74
0
42
0.000000001
43
0.0000000001
44
0.0000000001
40
0
40
0
40
0
40
1
40
1
40
1
10
423.8093041043353
20
77.8632699783128
30
0
10
423.7376807789874
20
77.8632699783128
30
0
10
423.68038223791837
20
77.908288174418757
30
0
0
SPLINE
5
459
100
AcDbEntity
8
0
100
AcDbSpline
70
0
71
2
72
6
73
3
74
0
42
0.000000001
43
0.0000000001
44
0.0000000001
40
0
40
0
40
0
40
1
40
1
40
1
10
423.68038223791837
20
77.908288174418757
30
0
10
423.62103687334775
20
77.953311138896296
30
0
10
423.58215557146787
20
78.049489193705867
30
0
0
SPLINE
5
460
100
AcDbEntity
8
0
100
AcDbSpline
70
0
71
2
72
6
73
3
74
0
42
0.000000001
43
0.0000000001
44
0.0000000001
40
0
40
0
40
0
40
1
40
1
40
1
10
423.58215557146787
20
78.049489193705867
30
0
10
423.56169210482358
20
78.104745083598445
30
0
10
423.48802195597409
20
78.374863796977351
30
0
0
SPLINE
5
461
100
AcDbEntity
8
0
100
AcDbSpline
70
0
71
2
72
6
73
3
74
0
42
0.000000001
43
0.0000000001
44
0.0000000001
40
0
40
0
40
0
40
1
40
1
40
1
10
423.48802195597409
20
78.374863796977351
30
0
10
423.38365601111173
20
78.765727215556453
30
0
10
423.3171485524249
20
78.920231991557429
30
0
0
SPLINE
5
462
100
AcDbEntity
8
0
100
AcDbSpline
70
0
71
2
72
6
73
3
74
0
42
0.000000001
43
0.0000000001
44
0.0000000001
40
0
40
0
40
0
40
1
40
1
40
1
10
423.3171485524249
20
78.920231991557429
30
0
10
423.25064109373807
20
79.074727230815242
30
0
10
423.12376545477628
20
79.162722759990046
30
0
0
SPLINE
5
463
100
AcDbEntity
8
0
100
AcDbSpline
70
0
71
2
72
6
73
3
74
0
42
0.000000001
43
0.0000000001
44
0.0000000001
40
0
40
0
40
0
40
1
40
1
40
1
10
423.12376545477628
20
79.162722759990046
30
0
10
422.99688981581448
20
79.250718289164851
30
0
10
422.80862198878049
20
79.250718289164851
30
0
0
SPLINE
5
464
100
AcDbEntity
8
0
100
AcDbSpline
70
0
71
2
72
6
73
3
74
0
42
0.000000001
43
0.0000000001
44
0.0000000001
40
0
40
0
40
0
40
1
40
1
40
1
10
422.80862198878049
20
79.250718289164851
30
0
10
422.62444721270322
20
79.250718289164851
30
0
10
422.46175991106747
20
79.143286877421687
30
0
0
SPLINE
5
465
100
AcDbEntity
8
0
100
AcDbSpline
70
0
71
2
72
6
73
3
74
0
42
0.000000001
43
0.0000000001
44
0.0000000001
40
0
40
0
40
0
40
1
40
1
40
1
10
422.46175991106747
20
79.143286877421687
30
0
10
422.29907260943173
20
79.035845928935359
30
0
10
422.21005426455258
20
78.833256893901179
30
0
0
SPLINE
5
466
100
AcDbEntity
8
0
100
AcDbSpline
70
0
71
2
72
6
73
3
74
0
42
0.000000001
43
0.0000000001
44
0.0000000001
40
0
40
0
40
0
40
1
40
1
40
1
10
422.21005426455258
20
78.833256893901179
30
0
10
422.12103711176633
20
78.630667858867
30
0
10
422.12103711176633
20
78.374863796977351
30
0
0
SPLINE
5
467
100
AcDbEntity
8
0
100
AcDbSpline
70
0
71
2
72
6
73
3
74
0
42
0.000000001
43
0.0000000001
44
0.0000000001
40
0
40
0
40
0
40
1
40
1
40
1
10
422.12103711176633
20
78.374863796977351
30
0
10
422.12103711176633
20
77.951265507487605
30
0
10
422.29702578593015
20
77.729235821513484
30
0
0
SPLINE
5
468
100
AcDbEntity
8
0
100
AcDbSpline
70
0
71
2
72
6
73
3
74
0
42
0.000000001
43
0.0000000001
44
0.0000000001
40
0
40
0
40
0
40
1
40
1
40
1
10
422.29702578593015
20
77.729235821513484
30
0
10
422.47301565218686
20
77.507201367167781
30
0
10
422.81885372210263
20
77.445808583049129
30
0
0
LWPOLYLINE
5
469
100
AcDbEntity
8
0
100
AcDbPolyline
90
4
70
1
43
0.0
10
425.17015026617764
20
79.690691166667293
10
424.74654899645566
20
79.690691166667293
10
424.74654899645566
20
80.059043103007639
10
425.17015026617764
20
80.059043103007639
0
LWPOLYLINE
5
470
100
AcDbEntity
8
0
100
AcDbPolyline
90
4
70
1
43
0.0
10
424.34341059733151
20
79.690691166667293
10
422.17015014696835
20
79.690691166667293
10
422.17015014696835
20
80.059043103007639
10
424.34341059733151
20
80.059043103007639
0
LINE
5
471
100
AcDbEntity
8
0
100
AcDbLine
10
422.17015014696835
20
82.02970617368635
30
0
11
422.44436608362912
21
82.02970617368635
31
0
0
SPLINE
5
472
100
AcDbEntity
8
0
100
AcDbSpline
70
0
71
2
72
6
73
3
74
0
42
0.000000001
43
0.0000000001
44
0.0000000001
40
0
40
0
40
0
40
1
40
1
40
1
10
422.44436608362912
20
82.02970617368635
30
0
10
422.12103711176633
20
81.823025875834787
30
0
10
422.12103711176633
20
81.421929531840647
30
0
0
SPLINE
5
473
100
AcDbEntity
8
0
100
AcDbSpline
70
0
71
2
72
6
73
3
74
0
42
0.000000001
43
0.0000000001
44
0.0000000001
40
0
40
0
40
0
40
1
40
1
40
1
10
422.12103711176633
20
81.421929531840647
30
0
10
422.12103711176633
20
81.162043743876779
30
0
10
422.26428376246213
20
80.944100552348459
30
0
0
SPLINE
5
474
100
AcDbEntity
8
0
100
AcDbSpline
70
0
71
2
72
6
73
3
74
0
42
0.000000001
43
0.0000000001
44
0.0000000001
40
0
40
0
40
0
40
1
40
1
40
1
10
422.26428376246213
20
80.944100552348459
30
0
10
422.40753041315793
20
80.726162129191721
30
0
10
422.66435252238034
20
80.606447392253244
30
0
0
SPLINE
5
475
100
AcDbEntity
8
0
100
AcDbSpline
70
0
71
2
72
6
73
3
74
0
42
0.000000001
43
0.0000000001
44
0.0000000001
40
0
40
0
40
0
40
1
40
1
40
1
10
422.66435252238034
20
80.606447392253244
30
0
10
422.92117343950986
20
80.48673742368635
30
0
10
423.25473414469479
20
80.48673742368635
30
0
0
SPLINE
5
476
100
AcDbEntity
8
0
100
AcDbSpline
70
0
71
2
72
6
73
3
74
0
42
0.000000001
43
0.0000000001
44
0.0000000001
40
0
40
0
40
0
40
1
40
1
40
1
10
423.25473414469479
20
80.48673742368635
30
0
10
423.58010934401273
20
80.48673742368635
30
0
10
423.84511576700925
20
80.595194035319651
30
0
0
SPLINE
5
477
100
AcDbEntity
8
0
100
AcDbSpline
70
0
71
2
72
6
73
3
74
0
42
0.000000001
43
0.0000000001
44
0.0000000001
40
0
40
0
40
0
40
1
40
1
40
1
10
423.84511576700925
20
80.595194035319651
30
0
10
424.11012278605222
20
80.703650646952951
30
0
10
424.25132320929288
20
80.920568638591135
30
0
0
SPLINE
5
478
100
AcDbEntity
8
0
100
AcDbSpline
70
0
71
2
72
6
73
3
74
0
42
0.000000001
43
0.0000000001
44
0.0000000001
40
0
40
0
40
0
40
1
40
1
40
1
10
424.25132320929288
20
80.920568638591135
30
0
10
424.39252363253354
20
81.137486630229319
30
0
10
424.39252363253354
20
81.405564480571115
30
0
0
SPLINE
5
479
100
AcDbEntity
8
0
100
AcDbSpline
70
0
71
2
72
6
73
3
74
0
42
0.000000001
43
0.0000000001
44
0.0000000001
40
0
40
0
40
0
40
1
40
1
40
1
10
424.39252363253354
20
81.405564480571115
30
0
10
424.39252363253354
20
81.602011853007639
30
0
10
424.3096451621127
20
81.755496197490061
30
0
0
SPLINE
5
480
100
AcDbEntity
8
0
100
AcDbSpline
70
0
71
2
72
6
73
3
74
0
42
0.000000001
43
0.0000000001
44
0.0000000001
40
0
40
0
40
0
40
1
40
1
40
1
10
424.3096451621127
20
81.755496197490061
30
0
10
424.22676669169186
20
81.908971005229319
30
0
10
424.09375177431821
20
82.005149060038889
30
0
0
LINE
5
481
100
AcDbEntity
8
0
100
AcDbLine
10
424.09375177431821
20
82.005149060038889
30
0
11
425.1701496701312
21
82.005149060038889
31
0
0
LINE
5
482
100
AcDbEntity
8
0
100
AcDbLine
10
425.1701496701312
20
82.005149060038889
30
0
11
425.1701496701312
21
82.371455364970529
31
0
0
LINE
5
483
100
AcDbEntity
8
0
100
AcDbLine
10
425.1701496701312
20
82.371455364970529
30
0
11
422.17015014696835
21
82.371455364970529
31
0
0
LINE
5
484
100
AcDbEntity
8
0
100
AcDbLine
10
422.17015014696835
20
82.371455364970529
30
0
11
422.17015014696835
21
82.02970617368635
31
0
0
SPLINE
5
485
100
AcDbEntity
8
0
100
AcDbSpline
70
0
71
2
72
6
73
3
74
0
42
0.000000001
43
0.0000000001
44
0.0000000001
40
0
40
0
40
0
40
1
40
1
40
1
10
423.25473414469479
20
80.865317517070139
30
0
10
422.83727155733823
20
80.865317517070139
30
0
10
422.63058649111508
20
81.041308575419748
30
0
0
SPLINE
5
486
100
AcDbEntity
8
0
100
AcDbSpline
70
0
71
2
72
6
73
3
74
0
42
0.000000001
43
0.0000000001
44
0.0000000001
40
0
40
0
40
0
40
1
40
1
40
1
10
422.63058649111508
20
81.041308575419748
30
0
10
422.42390142489194
20
81.217294865397776
30
0
10
422.42390142489194
20
81.456719570903147
30
0
0
SPLINE
5
487
100
AcDbEntity
8
0
100
AcDbSpline
70
0
71
2
72
6
73
3
74
0
42
0.000000001
43
0.0000000001
44
0.0000000001
40
0
40
0
40
0
40
1
40
1
40
1
10
422.42390142489194
20
81.456719570903147
30
0
10
422.42390142489194
20
81.698194676188791
30
0
10
422.62137757349728
20
81.867018872050608
30
0
0
SPLINE
5
488
100
AcDbEntity
8
0
100
AcDbSpline
70
0
71
2
72
6
73
3
74
0
42
0.000000001
43
0.0000000001
44
0.0000000001
40
0
40
0
40
0
40
1
40
1
40
1
10
422.62137757349728
20
81.867018872050608
30
0
10
422.81885372210263
20
82.035847836284006
30
0
10
423.22403834868192
20
82.035847836284006
30
0
0
SPLINE
5
489
100
AcDbEntity
8
0
100
AcDbSpline
70
0
71
2
72
6
73
3
74
0
42
0.000000001
43
0.0000000001
44
0.0000000001
40
0
40
0
40
0
40
1
40
1
40
1
10
423.22403834868192
20
82.035847836284006
30
0
10
423.67014990854977
20
82.035847836284006
30
0
10
423.87888120222806
20
81.863952809123361
30
0
0
SPLINE
5
490
100
AcDbEntity
8
0
100
AcDbSpline
70
0
71
2
72
6
73
3
74
0
42
0.000000001
43
0.0000000001
44
0.0000000001
40
0
40
0
40
0
40
1
40
1
40
1
10
423.87888120222806
20
81.863952809123361
30
0
10
424.08761249590634
20
81.692057781962717
30
0
10
424.08761249590634
20
81.440349751262033
30
0
0
SPLINE
5
491
100
AcDbEntity
8
0
100
AcDbSpline
70
0
71
2
72
6
73
3
74
0
42
0.000000001
43
0.0000000001
44
0.0000000001
40
0
40
0
40
0
40
1
40
1
40
1
10
424.08761249590634
20
81.440349751262033
30
0
10
424.08761249590634
20
81.194783383159006
30
0
10
423.88706670809506
20
81.030050450114572
30
0
0
SPLINE
5
492
100
AcDbEntity
8
0
100
AcDbSpline
70
0
71
2
72
6
73
3
74
0
42
0.000000001
43
0.0000000001
44
0.0000000001
40
0
40
0
40
0
40
1
40
1
40
1
10
423.88706670809506
20
81.030050450114572
30
0
10
423.68652092028378
20
80.865317517070139
30
0
10
423.25473414469479
20
80.865317517070139
30
0
0
LINE
5
493
100
AcDbEntity
8
0
100
AcDbLine
10
422.87001358080624
20
84.438306027201975
30
0
11
422.8229473691058
21
84.818931751994455
31
0
0
SPLINE
5
494
100
AcDbEntity
8
0
100
AcDbSpline
70
0
71
2
72
6
73
3
74
0
42
0.000000001
43
0.0000000001
44
0.0000000001
40
0
40
0
40
0
40
1
40
1
40
1
10
422.8229473691058
20
84.818931751994455
30
0
10
422.48938666392087
20
84.728890591410959
30
0
10
422.3052118878436
20
84.485369854716623
30
0
0
SPLINE
5
495
100
AcDbEntity
8
0
100
AcDbSpline
70
0
71
2
72
6
73
3
74
0
42
0.000000001
43
0.0000000001
44
0.0000000001
40
0
40
0
40
0
40
1
40
1
40
1
10
422.3052118878436
20
84.485369854716623
30
0
10
422.12103711176633
20
84.241849118022287
30
0
10
422.12103711176633
20
83.863269024638498
30
0
0
SPLINE
5
496
100
AcDbEntity
8
0
100
AcDbSpline
70
0
71
2
72
6
73
3
74
0
42
0.000000001
43
0.0000000001
44
0.0000000001
40
0
40
0
40
0
40
1
40
1
40
1
10
422.12103711176633
20
83.863269024638498
30
0
10
422.12103711176633
20
83.386460476664865
30
0
10
422.41469369936704
20
83.107129269389475
30
0
0
SPLINE
5
497
100
AcDbEntity
8
0
100
AcDbSpline
70
0
71
2
72
6
73
3
74
0
42
0.000000001
43
0.0000000001
44
0.0000000001
40
0
40
0
40
0
40
1
40
1
40
1
10
422.41469369936704
20
83.107129269389475
30
0
10
422.70834909487485
20
82.827798062114084
30
0
10
423.23836313296079
20
82.827798062114084
30
0
0
SPLINE
5
498
100
AcDbEntity
8
0
100
AcDbSpline
70
0
71
2
72
6
73
3
74
0
42
0.000000001
43
0.0000000001
44
0.0000000001
40
0
40
0
40
0
40
1
40
1
40
1
10
423.23836313296079
20
82.827798062114084
30
0
10
423.78679381418942
20
82.827798062114084
30
0
10
424.08965931940793
20
83.110200100688303
30
0
0
SPLINE
5
499
100
AcDbEntity
8
0
100
AcDbSpline
70
0
71
2
72
6
73
3
74
0
42
0.000000001
43
0.0000000001
44
0.0000000001
40
0
40
0
40
0
40
1
40
1
40
1
10
424.08965931940793
20
83.110200100688303
30
0
10
424.39252422857999
20
83.392602139262522
30
0
10
424.39252422857999
20
83.842807942180002
30
0
0
SPLINE
5
500
100
AcDbEntity
8
0
100
AcDbSpline
70
0
71
2
72
6
73
3
74
0
42
0.000000001
43
0.0000000001
44
0.0000000001
40
0
40
0
40
0
40
1
40
1
40
1
10
424.39252422857999
20
83.842807942180002
30
0
10
424.39252422857999
20
84.278689556865061
30
0
10
424.09579859781979
20
84.554949932841623
30
0
0
SPLINE
5
501
100
AcDbEntity
8
0
100
AcDbSpline
70
0
71
2
72
6
73
3
74
0
42
0.000000001
43
0.0000000001
44
0.0000000001
40
0
40
0
40
0
40
1
40
1
40
1
10
424.09579859781979
20
84.554949932841623
30
0
10
423.79907237101315
20
84.831210308818186
30
0
10
423.26087342310666
20
84.831210308818186
30
0
0
SPLINE
5
502
100
AcDbEntity
8
0
100
AcDbSpline
70
0
71
2
72
6
73
3
74
0
42
0.000000001
43
0.0000000001
44
0.0000000001
40
0
40
0
40
0
40
1
40
1
40
1
10
423.26087342310666
20
84.831210308818186
30
0
10
423.22813080359219
20
84.831210308818186
30
0
10
423.16264675665616
20
84.829164677409494
30
0
0
LINE
5
503
100
AcDbEntity
8
0
100
AcDbLine
10
423.16264675665616
20
84.829164677409494
30
0
11
423.16264675665616
21
83.208428555278147
31
0
0
SPLINE
5
504
100
AcDbEntity
8
0
100
AcDbSpline
70
0
71
2
72
6
73
3
74
0
42
0.000000001
43
0.0000000001
44
0.0000000001
40
0
40
0
40
0
40
1
40
1
40
1
10
423.16264675665616
20
83.208428555278147
30
0
10
422.80452953387021
20
83.228894406108225
30
0
10
422.61421547938107
20
83.411017590312326
30
0
0
SPLINE
5
505
100
AcDbEntity
8
0
100
AcDbSpline
70
0
71
2
72
6
73
3
74
0
42
0.000000001
43
0.0000000001
44
0.0000000001
40
0
40
0
40
0
40
1
40
1
40
1
10
422.61421547938107
20
83.411017590312326
30
0
10
422.42390142489194
20
83.593150311259592
30
0
10
422.42390142489194
20
83.865319424418772
30
0
0
SPLINE
5
506
100
AcDbEntity
8
0
100
AcDbSpline
70
0
71
2
72
6
73
3
74
0
42
0.000000001
43
0.0000000001
44
0.0000000001
40
0
40
0
40
0
40
1
40
1
40
1
10
422.42390142489194
20
83.865319424418772
30
0
10
422.42390142489194
20
84.067908459452951
30
0
10
422.53031359720944
20
84.211159878520334
30
0
0
SPLINE
5
507
100
AcDbEntity
8
0
100
AcDbSpline
70
0
71
2
72
6
73
3
74
0
42
0.000000001
43
0.0000000001
44
0.0000000001
40
0
40
0
40
0
40
1
40
1
40
1
10
422.53031359720944
20
84.211159878520334
30
0
10
422.63672576952695
20
84.354401760844553
30
0
10
422.87001358080624
20
84.438306027201975
30
0
0
LINE
5
508
100
AcDbEntity
8
0
100
AcDbLine
10
423.46551166582822
20
83.228894406108225
30
0
11
423.46551166582822
21
84.442397290019358
31
0
0
SPLINE
5
509
100
AcDbEntity
8
0
100
AcDbSpline
70
0
71
2
72
6
73
3
74
0
42
0.000000001
43
0.0000000001
44
0.0000000001
40
0
40
0
40
0
40
1
40
1
40
1
10
423.46551166582822
20
84.442397290019358
30
0
10
423.73972760248898
20
84.417840176371897
30
0
10
423.87683497477292
20
84.303246670512522
30
0
0
SPLINE
5
510
100
AcDbEntity
8
0
100
AcDbSpline
70
0
71
2
72
6
73
3
74
0
42
0.000000001
43
0.0000000001
44
0.0000000001
40
0
40
0
40
0
40
1
40
1
40
1
10
423.87683497477292
20
84.303246670512522
30
0
10
424.08965931940793
20
84.127255612162912
30
0
10
424.08965931940793
20
83.846899204997385
30
0
0
SPLINE
5
511
100
AcDbEntity
8
0
100
AcDbSpline
70
0
71
2
72
6
73
3
74
0
42
0.000000001
43
0.0000000001
44
0.0000000001
40
0
40
0
40
0
40
1
40
1
40
1
10
424.08965931940793
20
83.846899204997385
30
0
10
424.08965931940793
20
83.593150311259592
30
0
10
423.91980932760953
20
83.420230084208811
30
0
0
SPLINE
5
512
100
AcDbEntity
8
0
100
AcDbSpline
70
0
71
2
72
6
73
3
74
0
42
0.000000001
43
0.0000000001
44
0.0000000001
40
0
40
0
40
0
40
1
40
1
40
1
10
423.91980932760953
20
83.420230084208811
30
0
10
423.74995933581113
20
83.247309857158029
30
0
10
423.46551166582822
20
83.228894406108225
30
0
0
ENDSEC
0
SECTION
2
OBJECTS
0
DICTIONARY
5
C
100
AcDbDictionary
3
ACAD_GROUP
350
D
3
ACAD_MLINESTYLE
350
17
0
DICTIONARY
5
D
100
AcDbDictionary
0
DICTIONARY
5
1A
330
C
100
AcDbDictionary
0
DICTIONARY
5
17
100
AcDbDictionary
0
ENDSEC
0
EOF
