0
SECTION
2
HEADER
9
$INSUNITS
70
4
9
$ACADVER
1
AC1014
9
$HANDSEED
5
FFFF
0
ENDSEC
0
SECTION
2
TABLES
0
TABLE
2
VPORT
5
8
100
AcDbSymbolTable
0
ENDTAB
0
TABLE
2
LTYPE
5
5
100
AcDbSymbolTable
0
LTYPE
5
14
100
AcDbSymbolTableRecord
100
AcDbLinetypeTableRecord
2
BYBLOCK
70
0
0
LTYPE
5
15
100
AcDbSymbolTableRecord
100
AcDbLinetypeTableRecord
2
BYLAYER
70
0
0
ENDTAB
0
TABLE
2
LAYER
5
2
100
AcDbSymbolTable
70
2
0
LAYER
5
50
100
AcDbSymbolTableRecord
100
AcDbLayerTableRecord
2
0
70
0
6
CONTINUOUS
0
ENDTAB
0
TABLE
2
STYLE
5
3
100
AcDbSymbolTable
70
1
0
STYLE
5
11
100
AcDbSymbolTableRecord
100
AcDbTextStyleTableRecord
2
STANDARD
70
0
0
ENDTAB
0
TABLE
2
VIEW
5
6
100
AcDbSymbolTable
70
0
0
ENDTAB
0
TABLE
2
UCS
5
7
100
AcDbSymbolTable
70
0
0
ENDTAB
0
TABLE
2
APPID
5
9
100
AcDbSymbolTable
70
2
0
APPID
5
12
100
AcDbSymbolTableRecord
100
AcDbRegAppTableRecord
2
ACAD
70
0
0
ENDTAB
0
TABLE
2
DIMSTYLE
5
A
100
AcDbSymbolTable
70
1
0
ENDTAB
0
TABLE
2
BLOCK_RECORD
5
1
100
AcDbSymbolTable
70
1
0
BLOCK_RECORD
5
1F
100
AcDbSymbolTableRecord
100
AcDbBlockTableRecord
2
*MODEL_SPACE
0
BLOCK_RECORD
5
1B
100
AcDbSymbolTableRecord
100
AcDbBlockTableRecord
2
*PAPER_SPACE
0
ENDTAB
0
ENDSEC
0
SECTION
2
BLOCKS
0
BLOCK
5
20
100
AcDbEntity
100
AcDbBlockBegin
2
*MODEL_SPACE
0
ENDBLK
5
21
100
AcDbEntity
100
AcDbBlockEnd
0
BLOCK
5
1C
100
AcDbEntity
100
AcDbBlockBegin
2
*PAPER_SPACE
0
ENDBLK
5
1D
100
AcDbEntity
100
AcDbBlockEnd
0
ENDSEC
0
SECTION
2
ENTITIES
0
LWPOLYLINE
5
100
100
AcDbEntity
8
0
100
AcDbPolyline
90
4
70
1
43
0.0
10
-417.74938156851448
20
-27.818001141930981
10
-411.54938156851449
20
-27.818001141930921
10
-411.54938156851449
20
-7.8180011419309459
10
-417.74938156851448
20
-7.8180011419309281
0
LWPOLYLINE
5
101
100
AcDbEntity
8
0
100
AcDbPolyline
90
4
70
1
43
0.0
10
-528.44543337022162
20
119.28456008901196
10
-522.10615944282233
20
105.68994328395071
10
-516.4870511634366
20
108.31017650725752
10
-522.82632509083601
20
121.90479331232019
0
LWPOLYLINE
5
102
100
AcDbEntity
8
0
100
AcDbPolyline
90
4
70
1
43
0.0
10
-438.94938156851367
20
35.381998858069053
10
-438.94938156851345
20
15.381998858069066
10
-432.74938156851448
20
15.381998858069057
10
-432.74938156851448
20
35.381998858069053
0
LWPOLYLINE
5
103
100
AcDbEntity
8
0
100
AcDbPolyline
90
4
70
1
43
0.0
10
-438.94938156851447
20
105.38199885806904
10
-438.94938156851418
20
85.381998858069039
10
-432.74938156851448
20
85.381998858069039
10
-432.74938156851448
20
105.38199885806904
0
LWPOLYLINE
5
104
100
AcDbEntity
8
0
100
AcDbPolyline
90
4
70
1
43
0.0
10
-417.74938156851448
20
85.381998858069039
10
-411.54938156851449
20
85.381998858069039
10
-411.54938156851449
20
105.38199885806904
10
-417.74938156851448
20
105.38199885806904
0
CIRCLE
5
105
100
AcDbEntity
8
0
100
AcDbCircle
10
-401.54938156851449
20
18.181998858069072
30
0
40
2.0000000000000284
210
0
220
-0
230
1
0
CIRCLE
5
106
100
AcDbEntity
8
0
100
AcDbCircle
10
-401.54938156851449
20
78.181998858069065
30
0
40
2.0000000000000284
210
0
220
-0
230
1
0
LINE
5
107
100
AcDbEntity
8
0
100
AcDbLine
10
-574.96607047531415
20
134.84935492795006
30
0
11
-577.58630369853176
21
140.46846320714448
31
0
0
LINE
5
108
100
AcDbEntity
8
0
100
AcDbLine
10
-577.58630369853176
20
140.46846320714448
30
0
11
-586.64938156851451
21
136.24228058889486
31
0
0
LINE
5
109
100
AcDbEntity
8
0
100
AcDbLine
10
-586.64938156851451
20
136.24228058889486
30
0
11
-577.68987441794184
21
117.02855550474095
31
0
0
ARC
5
110
100
AcDbEntity
8
0
100
AcDbCircle
10
-532.37448511475952
20
138.15946857415031
30
0
40
49.999999948459013
210
0
220
0
230
1
100
AcDbArc
50
205.0000000052554
51
240.30033348198859
0
ARC
5
111
100
AcDbEntity
8
0
100
AcDbCircle
10
-621.55613536356771
20
-18.194723038612189
30
0
40
129.99999998482218
210
0
220
0
230
1
100
AcDbArc
50
-2.0912851310857619
51
60.300333481988723
0
ARC
5
112
100
AcDbEntity
8
0
100
AcDbCircle
10
-481.64938157625045
20
-23.303562056729099
30
0
40
9.9999999845280421
210
0
220
0
230
1
100
AcDbArc
50
177.90871486891461
51
239.99999999999972
0
LINE
5
113
100
AcDbEntity
8
0
100
AcDbLine
10
-486.64938156851451
20
-31.963816081174386
30
0
11
-467.84938156851445
21
-42.818001141930928
31
0
0
LINE
5
114
100
AcDbEntity
8
0
100
AcDbLine
10
-467.84938156851445
20
-42.818001141930928
30
0
11
-443.00938156851453
21
-42.818001141930928
31
0
0
LINE
5
115
100
AcDbEntity
8
0
100
AcDbLine
10
-443.00938156851453
20
-42.818001141930928
30
0
11
-443.00938156851396
21
-36.618001141931195
31
0
0
LINE
5
116
100
AcDbEntity
8
0
100
AcDbLine
10
-443.00938156851396
20
-36.618001141931195
30
0
11
-424.36938156851681
21
-36.618001141931359
31
0
0
LINE
5
117
100
AcDbEntity
8
0
100
AcDbLine
10
-424.36938156851681
20
-36.618001141931359
30
0
11
-424.36938156851448
21
-42.818001141930928
31
0
0
LINE
5
118
100
AcDbEntity
8
0
100
AcDbLine
10
-424.36938156851448
20
-42.818001141930928
30
0
11
-405.7293815685145
21
-42.818001141930928
31
0
0
LINE
5
119
100
AcDbEntity
8
0
100
AcDbLine
10
-405.7293815685145
20
-42.818001141930928
30
0
11
-405.72938156851473
21
-36.618001141931146
31
0
0
LINE
5
120
100
AcDbEntity
8
0
100
AcDbLine
10
-405.72938156851473
20
-36.618001141931146
30
0
11
-387.08938156850945
21
-36.618001141930925
31
0
0
LINE
5
121
100
AcDbEntity
8
0
100
AcDbLine
10
-387.08938156850945
20
-36.618001141930925
30
0
11
-387.08938156851445
21
-42.818001141930928
31
0
0
LINE
5
122
100
AcDbEntity
8
0
100
AcDbLine
10
-387.08938156851445
20
-42.818001141930928
30
0
11
-368.44938156851447
21
-42.818001141930928
31
0
0
LINE
5
123
100
AcDbEntity
8
0
100
AcDbLine
10
-368.44938156851447
20
-42.818001141930928
30
0
11
-368.44938156851447
21
120.38199885806904
31
0
0
LINE
5
124
100
AcDbEntity
8
0
100
AcDbLine
10
-368.44938156851447
20
120.38199885806904
30
0
11
-387.0893815683832
21
120.38199885806904
31
0
0
LINE
5
125
100
AcDbEntity
8
0
100
AcDbLine
10
-387.0893815683832
20
120.38199885806904
30
0
11
-387.0893815685144
21
114.18199885806916
31
0
0
LINE
5
126
100
AcDbEntity
8
0
100
AcDbLine
10
-387.0893815685144
20
114.18199885806916
30
0
11
-405.7293815685033
21
114.18199885806916
31
0
0
LINE
5
127
100
AcDbEntity
8
0
100
AcDbLine
10
-405.7293815685033
20
114.18199885806916
30
0
11
-405.72938156851819
21
120.38199885806904
31
0
0
LINE
5
128
100
AcDbEntity
8
0
100
AcDbLine
10
-405.72938156851819
20
120.38199885806904
30
0
11
-424.36938156857445
21
120.38199885806904
31
0
0
LINE
5
129
100
AcDbEntity
8
0
100
AcDbLine
10
-424.36938156857445
20
120.38199885806904
30
0
11
-424.36938156851227
21
114.18199885806906
31
0
0
LINE
5
130
100
AcDbEntity
8
0
100
AcDbLine
10
-424.36938156851227
20
114.18199885806906
30
0
11
-443.00938156851453
21
114.18199885806906
31
0
0
LINE
5
131
100
AcDbEntity
8
0
100
AcDbLine
10
-443.00938156851453
20
114.18199885806906
30
0
11
-443.00938156849895
21
120.38199885806904
31
0
0
LINE
5
132
100
AcDbEntity
8
0
100
AcDbLine
10
-443.00938156849895
20
120.38199885806904
30
0
11
-461.64938156851451
21
120.38199885806904
31
0
0
LINE
5
133
100
AcDbEntity
8
0
100
AcDbLine
10
-461.64938156851451
20
120.38199885806904
30
0
11
-480.44323398423262
21
127.22240172458243
31
0
0
LINE
5
134
100
AcDbEntity
8
0
100
AcDbLine
10
-480.44323398423262
20
127.22240172458243
30
0
11
-482.56376032014936
21
121.39630349762999
31
0
0
LINE
5
135
100
AcDbEntity
8
0
100
AcDbLine
10
-482.56376032014936
20
121.39630349762999
30
0
11
-501.3576112830666
21
128.23671035568054
31
0
0
LINE
5
136
100
AcDbEntity
8
0
100
AcDbLine
10
-501.3576112830666
20
128.23671035568054
30
0
11
-499.23708639995073
21
134.06280459109584
31
0
0
LINE
5
137
100
AcDbEntity
8
0
100
AcDbLine
10
-499.23708639995073
20
134.06280459109584
30
0
11
-519.19370057074264
21
141.32641812599928
31
0
0
LINE
5
138
100
AcDbEntity
8
0
100
AcDbLine
10
-519.19370057074264
20
141.32641812599928
30
0
11
-521.31422545549083
21
135.50032388609921
31
0
0
LINE
5
139
100
AcDbEntity
8
0
100
AcDbLine
10
-521.31422545549083
20
135.50032388609921
30
0
11
-540.108077873865
21
142.34072675354253
31
0
0
LINE
5
140
100
AcDbEntity
8
0
100
AcDbLine
10
-540.108077873865
20
142.34072675354253
30
0
11
-537.9875529864604
21
148.16682099251256
31
0
0
LINE
5
141
100
AcDbEntity
8
0
100
AcDbLine
10
-537.9875529864604
20
148.16682099251256
30
0
11
-550.9552950154914
21
152.88670650343204
31
0
0
LINE
5
142
100
AcDbEntity
8
0
100
AcDbLine
10
-550.9552950154914
20
152.88670650343204
30
0
11
-558.93081968953481
21
149.16765826923114
31
0
0
LINE
5
143
100
AcDbEntity
8
0
100
AcDbLine
10
-558.93081968953481
20
149.16765826923114
30
0
11
-556.31058646630981
21
143.54854999001981
31
0
0
LINE
5
144
100
AcDbEntity
8
0
100
AcDbLine
10
-556.31058646630981
20
143.54854999001981
30
0
11
-574.96607047531415
21
134.84935492795006
31
0
0
LWPOLYLINE
5
145
100
AcDbEntity
8
0
100
AcDbPolyline
90
4
70
1
43
0.0
10
-449.69938156851515
20
-13.018001141930927
10
-429.69938156851231
20
-13.018001141930933
10
-429.69938156851305
20
-6.8180011419309317
10
-449.69938156851589
20
-6.8180011419307629
0
ENDSEC
0
SECTION
2
OBJECTS
0
DICTIONARY
5
C
100
AcDbDictionary
3
ACAD_GROUP
350
D
3
ACAD_MLINESTYLE
350
17
0
DICTIONARY
5
D
100
AcDbDictionary
0
DICTIONARY
5
1A
330
C
100
AcDbDictionary
0
DICTIONARY
5
17
100
AcDbDictionary
0
ENDSEC
0
EOF
