0
SECTION
2
HEADER
9
$INSUNITS
70
4
9
$ACADVER
1
AC1014
9
$HANDSEED
5
FFFF
0
ENDSEC
0
SECTION
2
TABLES
0
TABLE
2
VPORT
5
8
100
AcDbSymbolTable
0
ENDTAB
0
TABLE
2
LTYPE
5
5
100
AcDbSymbolTable
0
LTYPE
5
14
100
AcDbSymbolTableRecord
100
AcDbLinetypeTableRecord
2
BYBLOCK
70
0
0
LTYPE
5
15
100
AcDbSymbolTableRecord
100
AcDbLinetypeTableRecord
2
BYLAYER
70
0
0
ENDTAB
0
TABLE
2
LAYER
5
2
100
AcDbSymbolTable
70
2
0
LAYER
5
50
100
AcDbSymbolTableRecord
100
AcDbLayerTableRecord
2
0
70
0
6
CONTINUOUS
0
ENDTAB
0
TABLE
2
STYLE
5
3
100
AcDbSymbolTable
70
1
0
STYLE
5
11
100
AcDbSymbolTableRecord
100
AcDbTextStyleTableRecord
2
STANDARD
70
0
0
ENDTAB
0
TABLE
2
VIEW
5
6
100
AcDbSymbolTable
70
0
0
ENDTAB
0
TABLE
2
UCS
5
7
100
AcDbSymbolTable
70
0
0
ENDTAB
0
TABLE
2
APPID
5
9
100
AcDbSymbolTable
70
2
0
APPID
5
12
100
AcDbSymbolTableRecord
100
AcDbRegAppTableRecord
2
ACAD
70
0
0
ENDTAB
0
TABLE
2
DIMSTYLE
5
A
100
AcDbSymbolTable
70
1
0
ENDTAB
0
TABLE
2
BLOCK_RECORD
5
1
100
AcDbSymbolTable
70
1
0
BLOCK_RECORD
5
1F
100
AcDbSymbolTableRecord
100
AcDbBlockTableRecord
2
*MODEL_SPACE
0
BLOCK_RECORD
5
1B
100
AcDbSymbolTableRecord
100
AcDbBlockTableRecord
2
*PAPER_SPACE
0
ENDTAB
0
ENDSEC
0
SECTION
2
BLOCKS
0
BLOCK
5
20
100
AcDbEntity
100
AcDbBlockBegin
2
*MODEL_SPACE
0
ENDBLK
5
21
100
AcDbEntity
100
AcDbBlockEnd
0
BLOCK
5
1C
100
AcDbEntity
100
AcDbBlockBegin
2
*PAPER_SPACE
0
ENDBLK
5
1D
100
AcDbEntity
100
AcDbBlockEnd
0
ENDSEC
0
SECTION
2
ENTITIES
0
LWPOLYLINE
5
100
100
AcDbEntity
8
0
100
AcDbPolyline
90
8
70
1
43
0.0
10
-93.181998858055294
20
17.978235872265845
10
-13.181998858083846
20
17.978235872267973
42
0.41421356237301521
10
1.8180011419264375
20
32.978235872282355
10
1.8180011419263931
20
112.97823587222584
42
0.41421356237309437
10
-13.181998858075357
20
127.9782358722276
10
-93.181998858041467
20
127.97823587223318
42
0.41421356237309576
10
-108.18199885804022
20
112.97823587223442
10
-108.18199885804938
20
32.978235872263625
42
0.41421356237300566
0
LWPOLYLINE
5
101
100
AcDbEntity
8
0
100
AcDbPolyline
90
36
70
1
43
0.0
10
-105.38199885800967
20
134.75647174437981
10
-105.38199885800411
20
146.20000000000005
10
-85.381998858087712
20
146.19999999999999
10
-85.381998858087144
20
139.75647174437026
10
-35.381998858072699
20
139.75647174437063
10
-35.381998858072585
20
146.20000000000002
10
-15.381998853276034
20
146.20000000000002
10
-15.381998853276006
20
139.75647174439064
10
6.8179932362046625
20
139.75647174439081
10
6.8180011419264561
20
124.75647174435161
10
13.018001141927275
20
124.7564717443516
10
13.018001141930441
20
104.75647174435161
10
6.8180011419264419
20
104.75647174435164
10
6.8180011419264011
20
41.200000000857514
10
13.018001141940601
20
41.200000000857514
10
13.018001141934231
20
21.200000000857511
10
6.818001141926386
20
21.200000000857528
10
6.8180011419263771
20
6.2000000008162539
10
-15.381998857862367
20
6.2000000015783456
10
-15.381998858075207
20
0
10
-35.381998858075207
20
6.9567906990641859e-10
10
-35.381998857862371
20
6.2000000004046036
10
-85.381998858075278
20
6.2000000000000011
10
-85.381998858075292
20
0
10
-105.38199885807529
20
0
10
-105.38199885807528
20
6.2000000000000011
10
-114.18199885807326
20
6.2000000000000171
10
-114.18199885807309
20
21.200000000857891
10
-120.38199885807423
20
21.200000000857912
10
-120.38199885807416
20
41.200000000857138
10
-114.18199885807329
20
41.200000000857159
10
-114.18199885807395
20
104.75647174435161
10
-120.38199885807387
20
104.75647174435274
10
-120.38199885807386
20
124.75647174434492
10
-114.18199885807417
20
124.75647174434512
10
-114.18199885807434
20
134.75647174438063
0
LWPOLYLINE
5
102
100
AcDbEntity
8
0
100
AcDbPolyline
90
4
70
1
43
0.0
10
-106.21027430992612
20
25.409277015315865
10
-106.21027430992612
20
124.38037429069801
10
-116.17788766150201
20
124.38037429069801
10
-116.17788766150201
20
25.409277015315865
0
LWPOLYLINE
5
103
100
AcDbEntity
8
0
100
AcDbPolyline
90
4
70
1
43
0.0
10
-23.873437172408259
20
138.7093959032639
10
-23.869066818307726
20
148.12330660518552
10
-29.169238888419187
20
148.12576717969844
10
-29.173609242519717
20
138.71185647777682
0
LWPOLYLINE
5
104
100
AcDbEntity
8
0
100
AcDbPolyline
90
4
70
1
43
0.0
10
-94.163216789698296
20
138.68279172141018
10
-94.158846435597781
20
148.09670242333172
10
-99.459018505709182
20
148.09916299784464
10
-99.463388859809712
20
138.68525229592311
0
LWPOLYLINE
5
105
100
AcDbEntity
8
0
100
AcDbPolyline
90
4
70
1
43
0.0
10
8.9654417775925843
20
25.409277015315741
10
8.9654417775925843
20
124.38037429069746
10
-1.0021715739832615
20
124.38037429069746
10
-1.0021715739832615
20
25.409277015315745
0
LWPOLYLINE
5
106
100
AcDbEntity
8
0
100
AcDbPolyline
90
4
70
1
43
0.0
10
12.390345087892793
20
110.39499694370431
10
12.394715441993313
20
119.80890764562591
10
7.0945433718818585
20
119.81136822013883
10
7.0901730177813427
20
110.39745751821724
0
LWPOLYLINE
5
107
100
AcDbEntity
8
0
100
AcDbPolyline
90
4
70
1
43
0.0
10
12.285237776211684
20
27.67554265073473
10
12.289608130312201
20
37.089453352656307
10
6.9894360602007737
20
37.09191392716923
10
6.9850657061002579
20
27.678003225247654
0
LWPOLYLINE
5
108
100
AcDbEntity
8
0
100
AcDbPolyline
90
12
70
1
43
0.0
10
-112.69408051495279
20
98.054785654597723
10
-109.6940803957435
20
98.054785654597723
10
-109.6940803957435
20
97.657787725978338
10
-111.10813204769815
20
97.657787725978338
10
-111.10813204769815
20
96.098442003779851
10
-109.6940803957435
20
96.098442003779851
10
-109.6940803957435
20
95.701444075160467
10
-112.69408051495279
20
95.701444075160467
10
-112.69408051495279
20
96.098442003779851
10
-111.46215681557382
20
96.098442003779851
10
-111.46215681557382
20
97.657787725978338
10
-112.69408051495279
20
97.657787725978338
0
SPLINE
5
109
100
AcDbEntity
8
0
100
AcDbSpline
70
0
71
2
72
6
73
3
74
0
42
0.000000001
43
0.0000000001
44
0.0000000001
40
0
40
0
40
0
40
1
40
1
40
1
10
-110.78071062092508
20
95.224635527186834
30
0
10
-111.38439421181405
20
95.224635527186834
30
0
10
-111.67498116020883
20
94.88902799850031
30
0
0
SPLINE
5
110
100
AcDbEntity
8
0
100
AcDbSpline
70
0
71
2
72
6
73
3
74
0
42
0.000000001
43
0.0000000001
44
0.0000000001
40
0
40
0
40
0
40
1
40
1
40
1
10
-111.67498116020883
20
94.88902799850031
30
0
10
-111.91645447735513
20
94.608673975520574
30
0
10
-111.91645447735513
20
94.205536768489324
30
0
0
SPLINE
5
111
100
AcDbEntity
8
0
100
AcDbSpline
70
0
71
2
72
6
73
3
74
0
42
0.000000001
43
0.0000000001
44
0.0000000001
40
0
40
0
40
0
40
1
40
1
40
1
10
-111.91645447735513
20
94.205536768489324
30
0
10
-111.91645447735513
20
93.757376596980535
30
0
10
-111.62279788975442
20
93.472931311183416
30
0
0
SPLINE
5
112
100
AcDbEntity
8
0
100
AcDbSpline
70
0
71
2
72
6
73
3
74
0
42
0.000000001
43
0.0000000001
44
0.0000000001
40
0
40
0
40
0
40
1
40
1
40
1
10
-111.62279788975442
20
93.472931311183416
30
0
10
-111.32914189820016
20
93.188483641200506
30
0
10
-110.81140641693796
20
93.188483641200506
30
0
0
SPLINE
5
113
100
AcDbEntity
8
0
100
AcDbSpline
70
0
71
2
72
6
73
3
74
0
42
0.000000001
43
0.0000000001
44
0.0000000001
40
0
40
0
40
0
40
1
40
1
40
1
10
-110.81140641693796
20
93.188483641200506
30
0
10
-110.39189760212625
20
93.188483641200506
30
0
10
-110.15144710068429
20
93.314335272365057
30
0
0
SPLINE
5
114
100
AcDbEntity
8
0
100
AcDbSpline
70
0
71
2
72
6
73
3
74
0
42
0.000000001
43
0.0000000001
44
0.0000000001
40
0
40
0
40
0
40
1
40
1
40
1
10
-110.15144710068429
20
93.314335272365057
30
0
10
-109.91099719528879
20
93.440189287715398
30
0
10
-109.77798227791513
20
93.680639193110906
30
0
0
SPLINE
5
115
100
AcDbEntity
8
0
100
AcDbSpline
70
0
71
2
72
6
73
3
74
0
42
0.000000001
43
0.0000000001
44
0.0000000001
40
0
40
0
40
0
40
1
40
1
40
1
10
-109.77798227791513
20
93.680639193110906
30
0
10
-109.64496736054147
20
93.921089098506414
30
0
10
-109.64496736054147
20
94.205536768489324
30
0
0
SPLINE
5
116
100
AcDbEntity
8
0
100
AcDbSpline
70
0
71
2
72
6
73
3
74
0
42
0.000000001
43
0.0000000001
44
0.0000000001
40
0
40
0
40
0
40
1
40
1
40
1
10
-109.64496736054147
20
94.205536768489324
30
0
10
-109.64496736054147
20
94.661879465632879
30
0
10
-109.93759994034494
20
94.943258688502752
30
0
0
SPLINE
5
117
100
AcDbEntity
8
0
100
AcDbSpline
70
0
71
2
72
6
73
3
74
0
42
0.000000001
43
0.0000000001
44
0.0000000001
40
0
40
0
40
0
40
1
40
1
40
1
10
-109.93759994034494
20
94.943258688502752
30
0
10
-110.23023311619485
20
95.224635527186834
30
0
10
-110.78071062092508
20
95.224635527186834
30
0
0
SPLINE
5
118
100
AcDbEntity
8
0
100
AcDbSpline
70
0
71
2
72
6
73
3
74
0
42
0.000000001
43
0.0000000001
44
0.0000000001
40
0
40
0
40
0
40
1
40
1
40
1
10
-110.78071062092508
20
94.846055433803045
30
0
10
-110.36324803356851
20
94.846055433803045
30
0
10
-110.15554015164102
20
94.66392509704157
30
0
0
SPLINE
5
119
100
AcDbEntity
8
0
100
AcDbSpline
70
0
71
2
72
6
73
3
74
0
42
0.000000001
43
0.0000000001
44
0.0000000001
40
0
40
0
40
0
40
1
40
1
40
1
10
-110.15554015164102
20
94.66392509704157
30
0
10
-109.94783226971353
20
94.481797144465887
30
0
10
-109.94783226971353
20
94.205536768489324
30
0
0
SPLINE
5
120
100
AcDbEntity
8
0
100
AcDbSpline
70
0
71
2
72
6
73
3
74
0
42
0.000000001
43
0.0000000001
44
0.0000000001
40
0
40
0
40
0
40
1
40
1
40
1
10
-109.94783226971353
20
94.205536768489324
30
0
10
-109.94783226971353
20
93.931322023921453
30
0
10
-110.15656356339181
20
93.749191687159978
30
0
0
SPLINE
5
121
100
AcDbEntity
8
0
100
AcDbSpline
70
0
71
2
72
6
73
3
74
0
42
0.000000001
43
0.0000000001
44
0.0000000001
40
0
40
0
40
0
40
1
40
1
40
1
10
-110.15656356339181
20
93.749191687159978
30
0
10
-110.36529426102365
20
93.567063734584295
30
0
10
-110.79298917774881
20
93.567063734584295
30
0
0
SPLINE
5
122
100
AcDbEntity
8
0
100
AcDbSpline
70
0
71
2
72
6
73
3
74
0
42
0.000000001
43
0.0000000001
44
0.0000000001
40
0
40
0
40
0
40
1
40
1
40
1
10
-110.79298917774881
20
93.567063734584295
30
0
10
-111.19612698082651
20
93.567063734584295
30
0
10
-111.403834862754
20
93.750214502864324
30
0
0
SPLINE
5
123
100
AcDbEntity
8
0
100
AcDbSpline
70
0
71
2
72
6
73
3
74
0
42
0.000000001
43
0.0000000001
44
0.0000000001
40
0
40
0
40
0
40
1
40
1
40
1
10
-111.403834862754
20
93.750214502864324
30
0
10
-111.61154274468149
20
93.933367655330144
30
0
10
-111.61154274468149
20
94.205536768489324
30
0
0
SPLINE
5
124
100
AcDbEntity
8
0
100
AcDbSpline
70
0
71
2
72
6
73
3
74
0
42
0.000000001
43
0.0000000001
44
0.0000000001
40
0
40
0
40
0
40
1
40
1
40
1
10
-111.61154274468149
20
94.205536768489324
30
0
10
-111.61154274468149
20
94.481797144465887
30
0
10
-111.40485827450479
20
94.66392509704157
30
0
0
SPLINE
5
125
100
AcDbEntity
8
0
100
AcDbSpline
70
0
71
2
72
6
73
3
74
0
42
0.000000001
43
0.0000000001
44
0.0000000001
40
0
40
0
40
0
40
1
40
1
40
1
10
-111.40485827450479
20
94.66392509704157
30
0
10
-111.19817320828164
20
94.846055433803045
30
0
10
-110.78071062092508
20
94.846055433803045
30
0
0
LINE
5
126
100
AcDbEntity
8
0
100
AcDbLine
10
-109.6940803957435
20
91.332411692195379
30
0
11
-110.01331631664956
21
91.332411692195379
31
0
0
SPLINE
5
127
100
AcDbEntity
8
0
100
AcDbSpline
70
0
71
2
72
6
73
3
74
0
42
0.000000001
43
0.0000000001
44
0.0000000001
40
0
40
0
40
0
40
1
40
1
40
1
10
-110.01331631664956
20
91.332411692195379
30
0
10
-109.64496736054147
20
91.586162970118963
30
0
10
-109.64496736054147
20
92.02204220061823
30
0
0
SPLINE
5
128
100
AcDbEntity
8
0
100
AcDbSpline
70
0
71
2
72
6
73
3
74
0
42
0.000000001
43
0.0000000001
44
0.0000000001
40
0
40
0
40
0
40
1
40
1
40
1
10
-109.64496736054147
20
92.02204220061823
30
0
10
-109.64496736054147
20
92.214403078608953
30
0
10
-109.71863691334451
20
92.381184027247869
30
0
0
SPLINE
5
129
100
AcDbEntity
8
0
100
AcDbSpline
70
0
71
2
72
6
73
3
74
0
42
0.000000001
43
0.0000000001
44
0.0000000001
40
0
40
0
40
0
40
1
40
1
40
1
10
-109.71863691334451
20
92.381184027247869
30
0
10
-109.792307062194
20
92.547964975886785
30
0
10
-109.90383510117258
20
92.628796026759588
30
0
0
SPLINE
5
130
100
AcDbEntity
8
0
100
AcDbSpline
70
0
71
2
72
6
73
3
74
0
42
0.000000001
43
0.0000000001
44
0.0000000001
40
0
40
0
40
0
40
1
40
1
40
1
10
-109.90383510117258
20
92.628796026759588
30
0
10
-110.0153625441047
20
92.709629461818182
30
0
10
-110.1770270300361
20
92.742371485286199
30
0
0
SPLINE
5
131
100
AcDbEntity
8
0
100
AcDbSpline
70
0
71
2
72
6
73
3
74
0
42
0.000000001
43
0.0000000001
44
0.0000000001
40
0
40
0
40
0
40
1
40
1
40
1
10
-110.1770270300361
20
92.742371485286199
30
0
10
-110.28548542980874
20
92.764880583339178
30
0
10
-110.52082006458963
20
92.764880583339178
30
0
0
LINE
5
132
100
AcDbEntity
8
0
100
AcDbLine
10
-110.52082006458961
20
92.764880583339178
30
0
11
-111.86734084610666
21
92.764880583339178
31
0
0
LINE
5
133
100
AcDbEntity
8
0
100
AcDbLine
10
-111.86734084610666
20
92.764880583339178
30
0
11
-111.86734084610666
21
92.396531031184637
31
0
0
LINE
5
134
100
AcDbEntity
8
0
100
AcDbLine
10
-111.86734084610666
20
92.396531031184637
30
0
11
-110.66202048783029
21
92.396531031184637
31
0
0
SPLINE
5
135
100
AcDbEntity
8
0
100
AcDbSpline
70
0
71
2
72
6
73
3
74
0
42
0.000000001
43
0.0000000001
44
0.0000000001
40
0
40
0
40
0
40
1
40
1
40
1
10
-110.66202048783029
20
92.396531031184637
30
0
10
-110.3734803629371
20
92.396531031184637
30
0
10
-110.27320746903146
20
92.374021933131658
30
0
0
SPLINE
5
136
100
AcDbEntity
8
0
100
AcDbSpline
70
0
71
2
72
6
73
3
74
0
42
0.000000001
43
0.0000000001
44
0.0000000001
40
0
40
0
40
0
40
1
40
1
40
1
10
-110.27320746903146
20
92.374021933131658
30
0
10
-110.12791399483407
20
92.339234278254949
30
0
10
-110.04503552441324
20
92.226681635432683
30
0
0
SPLINE
5
137
100
AcDbEntity
8
0
100
AcDbSpline
70
0
71
2
72
6
73
3
74
0
42
0.000000001
43
0.0000000001
44
0.0000000001
40
0
40
0
40
0
40
1
40
1
40
1
10
-110.04503552441324
20
92.226681635432683
30
0
10
-109.9621570539924
20
92.114131376796209
30
0
10
-109.9621570539924
20
91.948373243861639
30
0
0
SPLINE
5
138
100
AcDbEntity
8
0
100
AcDbSpline
70
0
71
2
72
6
73
3
74
0
42
0.000000001
43
0.0000000001
44
0.0000000001
40
0
40
0
40
0
40
1
40
1
40
1
10
-109.9621570539924
20
91.948373243861639
30
0
10
-109.9621570539924
20
91.782617495112859
30
0
10
-110.04708175186838
20
91.637322828822576
30
0
0
SPLINE
5
139
100
AcDbEntity
8
0
100
AcDbSpline
70
0
71
2
72
6
73
3
74
0
42
0.000000001
43
0.0000000001
44
0.0000000001
40
0
40
0
40
0
40
1
40
1
40
1
10
-110.04708175186838
20
91.637322828822576
30
0
10
-110.13200644974435
20
91.492030546718084
30
0
10
-110.27832333569253
20
91.431660578303777
30
0
0
SPLINE
5
140
100
AcDbEntity
8
0
100
AcDbSpline
70
0
71
2
72
6
73
3
74
0
42
0.000000001
43
0.0000000001
44
0.0000000001
40
0
40
0
40
0
40
1
40
1
40
1
10
-110.27832333569253
20
91.431660578303777
30
0
10
-110.42463962559427
20
91.371292994075262
30
0
10
-110.70294801716531
20
91.371292994075262
30
0
0
LINE
5
141
100
AcDbEntity
8
0
100
AcDbLine
10
-110.7029480171653
20
91.371292994075262
30
0
11
-111.86734084610666
21
91.371292994075262
31
0
0
LINE
5
142
100
AcDbEntity
8
0
100
AcDbLine
10
-111.86734084610666
20
91.371292994075262
30
0
11
-111.86734084610666
21
91.002943441920721
31
0
0
LINE
5
143
100
AcDbEntity
8
0
100
AcDbLine
10
-111.86734084610666
20
91.002943441920721
30
0
11
-109.6940803957435
21
91.002943441920721
31
0
0
LINE
5
144
100
AcDbEntity
8
0
100
AcDbLine
10
-109.6940803957435
20
91.002943441920721
30
0
11
-109.6940803957435
21
91.332411692195379
31
0
0
LINE
5
145
100
AcDbEntity
8
0
100
AcDbLine
10
-110.34278456692422
20
90.573203489833318
30
0
11
-110.40008310799325
21
90.20894520049616
31
0
0
SPLINE
5
146
100
AcDbEntity
8
0
100
AcDbSpline
70
0
71
2
72
6
73
3
74
0
42
0.000000001
43
0.0000000001
44
0.0000000001
40
0
40
0
40
0
40
1
40
1
40
1
10
-110.40008310799325
20
90.20894520049616
30
0
10
-110.18112008099283
20
90.178251192622625
30
0
10
-110.06447617535318
20
90.038072989039861
30
0
0
SPLINE
5
147
100
AcDbEntity
8
0
100
AcDbSpline
70
0
71
2
72
6
73
3
74
0
42
0.000000001
43
0.0000000001
44
0.0000000001
40
0
40
0
40
0
40
1
40
1
40
1
10
-110.06447617535318
20
90.038072989039861
30
0
10
-109.94783226971353
20
89.897894785457098
30
0
10
-109.94783226971353
20
89.646191523127996
30
0
0
SPLINE
5
148
100
AcDbEntity
8
0
100
AcDbSpline
70
0
71
2
72
6
73
3
74
0
42
0.000000001
43
0.0000000001
44
0.0000000001
40
0
40
0
40
0
40
1
40
1
40
1
10
-109.94783226971353
20
89.646191523127996
30
0
10
-109.94783226971353
20
89.392437861018621
30
0
10
-110.0511748028251
20
89.269657061152898
30
0
0
SPLINE
5
149
100
AcDbEntity
8
0
100
AcDbSpline
70
0
71
2
72
6
73
3
74
0
42
0.000000001
43
0.0000000001
44
0.0000000001
40
0
40
0
40
0
40
1
40
1
40
1
10
-110.0511748028251
20
89.269657061152898
30
0
10
-110.15451673989023
20
89.146871492915594
30
0
10
-110.29367093567575
20
89.146871492915594
30
0
0
SPLINE
5
150
100
AcDbEntity
8
0
100
AcDbSpline
70
0
71
2
72
6
73
3
74
0
42
0.000000001
43
0.0000000001
44
0.0000000001
40
0
40
0
40
0
40
1
40
1
40
1
10
-110.29367093567575
20
89.146871492915594
30
0
10
-110.4185003471824
20
89.146871492915594
30
0
10
-110.49012426857675
20
89.255330488734685
30
0
0
SPLINE
5
151
100
AcDbEntity
8
0
100
AcDbSpline
70
0
71
2
72
6
73
3
74
0
42
0.000000001
43
0.0000000001
44
0.0000000001
40
0
40
0
40
0
40
1
40
1
40
1
10
-110.49012426857675
20
89.255330488734685
30
0
10
-110.53923730377878
20
89.33104746108576
30
0
10
-110.6149536800834
20
89.631867334895574
30
0
0
SPLINE
5
152
100
AcDbEntity
8
0
100
AcDbSpline
70
0
71
2
72
6
73
3
74
0
42
0.000000001
43
0.0000000001
44
0.0000000001
40
0
40
0
40
0
40
1
40
1
40
1
10
-110.6149536800834
20
89.631867334895574
30
0
10
-110.71727280144418
20
90.037050173335516
30
0
10
-110.79196576599801
20
90.193598196559392
30
0
0
SPLINE
5
153
100
AcDbEntity
8
0
100
AcDbSpline
70
0
71
2
72
6
73
3
74
0
42
0.000000001
43
0.0000000001
44
0.0000000001
40
0
40
0
40
0
40
1
40
1
40
1
10
-110.79196576599801
20
90.193598196559392
30
0
10
-110.86665873055185
20
90.350146219783269
30
0
10
-110.99865083222116
20
90.430979654841863
30
0
0
SPLINE
5
154
100
AcDbEntity
8
0
100
AcDbSpline
70
0
71
2
72
6
73
3
74
0
42
0.000000001
43
0.0000000001
44
0.0000000001
40
0
40
0
40
0
40
1
40
1
40
1
10
-110.99865083222116
20
90.430979654841863
30
0
10
-111.13064233784402
20
90.511810705714666
30
0
10
-111.29026059632028
20
90.511810705714666
30
0
0
SPLINE
5
155
100
AcDbEntity
8
0
100
AcDbSpline
70
0
71
2
72
6
73
3
74
0
42
0.000000001
43
0.0000000001
44
0.0000000001
40
0
40
0
40
0
40
1
40
1
40
1
10
-111.29026059632028
20
90.511810705714666
30
0
10
-111.43555407051767
20
90.511810705714666
30
0
10
-111.55936007027353
20
90.445303843074285
30
0
0
SPLINE
5
156
100
AcDbEntity
8
0
100
AcDbSpline
70
0
71
2
72
6
73
3
74
0
42
0.000000001
43
0.0000000001
44
0.0000000001
40
0
40
0
40
0
40
1
40
1
40
1
10
-111.55936007027353
20
90.445303843074285
30
0
10
-111.68316607002939
20
90.378796980433904
30
0
10
-111.76502172474588
20
90.264198706202947
30
0
0
SPLINE
5
157
100
AcDbEntity
8
0
100
AcDbSpline
70
0
71
2
72
6
73
3
74
0
42
0.000000001
43
0.0000000001
44
0.0000000001
40
0
40
0
40
0
40
1
40
1
40
1
10
-111.76502172474588
20
90.264198706202947
30
0
10
-111.82845954422677
20
90.178251192622625
30
0
10
-111.87245730881418
20
90.029888079219305
30
0
0
SPLINE
5
158
100
AcDbEntity
8
0
100
AcDbSpline
70
0
71
2
72
6
73
3
74
0
42
0.000000001
43
0.0000000001
44
0.0000000001
40
0
40
0
40
0
40
1
40
1
40
1
10
-111.87245730881418
20
90.029888079219305
30
0
10
-111.91645447735513
20
89.881524965815984
30
0
10
-111.91645447735513
20
89.711675570064031
30
0
0
SPLINE
5
159
100
AcDbEntity
8
0
100
AcDbSpline
70
0
71
2
72
6
73
3
74
0
42
0.000000001
43
0.0000000001
44
0.0000000001
40
0
40
0
40
0
40
1
40
1
40
1
10
-111.91645447735513
20
89.711675570064031
30
0
10
-111.91645447735513
20
89.455876276545965
30
0
10
-111.84278432850564
20
89.262494967036687
30
0
0
SPLINE
5
160
100
AcDbEntity
8
0
100
AcDbSpline
70
0
71
2
72
6
73
3
74
0
42
0.000000001
43
0.0000000001
44
0.0000000001
40
0
40
0
40
0
40
1
40
1
40
1
10
-111.84278432850564
20
89.262494967036687
30
0
10
-111.7691147757026
20
89.069108889155828
30
0
10
-111.64326195244516
20
88.977022097163641
30
0
0
SPLINE
5
161
100
AcDbEntity
8
0
100
AcDbSpline
70
0
71
2
72
6
73
3
74
0
42
0.000000001
43
0.0000000001
44
0.0000000001
40
0
40
0
40
0
40
1
40
1
40
1
10
-111.64326195244516
20
88.977022097163641
30
0
10
-111.51740912918771
20
88.884935305171453
30
0
10
-111.30663160805429
20
88.850147650294744
30
0
0
LINE
5
162
100
AcDbEntity
8
0
100
AcDbLine
10
-111.30663160805432
20
88.850147650294744
30
0
11
-111.25751857285226
21
89.210309908442937
31
0
0
SPLINE
5
163
100
AcDbEntity
8
0
100
AcDbSpline
70
0
71
2
72
6
73
3
74
0
42
0.000000001
43
0.0000000001
44
0.0000000001
40
0
40
0
40
0
40
1
40
1
40
1
10
-111.25751857285226
20
89.210309908442937
30
0
10
-111.42532174114908
20
89.234867022090398
30
0
10
-111.5194559526893
20
89.352533743434392
30
0
0
SPLINE
5
164
100
AcDbEntity
8
0
100
AcDbSpline
70
0
71
2
72
6
73
3
74
0
42
0.000000001
43
0.0000000001
44
0.0000000001
40
0
40
0
40
0
40
1
40
1
40
1
10
-111.5194559526893
20
89.352533743434392
30
0
10
-111.61358956818307
20
89.470200464778387
30
0
10
-111.61358956818307
20
89.685072825007879
30
0
0
SPLINE
5
165
100
AcDbEntity
8
0
100
AcDbSpline
70
0
71
2
72
6
73
3
74
0
42
0.000000001
43
0.0000000001
44
0.0000000001
40
0
40
0
40
0
40
1
40
1
40
1
10
-111.61358956818307
20
89.685072825007879
30
0
10
-111.61358956818307
20
89.938824102931463
30
0
10
-111.52968768601144
20
90.047283098750555
30
0
0
SPLINE
5
166
100
AcDbEntity
8
0
100
AcDbSpline
70
0
71
2
72
6
73
3
74
0
42
0.000000001
43
0.0000000001
44
0.0000000001
40
0
40
0
40
0
40
1
40
1
40
1
10
-111.52968768601144
20
90.047283098750555
30
0
10
-111.44578580383981
20
90.155739710383855
30
0
10
-111.33323435311044
20
90.155739710383855
30
0
0
SPLINE
5
167
100
AcDbEntity
8
0
100
AcDbSpline
70
0
71
2
72
6
73
3
74
0
42
0.000000001
43
0.0000000001
44
0.0000000001
40
0
40
0
40
0
40
1
40
1
40
1
10
-111.33323435311044
20
90.155739710383855
30
0
10
-111.26161102776254
20
90.155739710383855
30
0
10
-111.20431248669351
20
90.110719130092107
30
0
0
SPLINE
5
168
100
AcDbEntity
8
0
100
AcDbSpline
70
0
71
2
72
6
73
3
74
0
42
0.000000001
43
0.0000000001
44
0.0000000001
40
0
40
0
40
0
40
1
40
1
40
1
10
-111.20431248669351
20
90.110719130092107
30
0
10
-111.14496712212289
20
90.065698549800359
30
0
10
-111.10608582024301
20
89.969520494990789
30
0
0
SPLINE
5
169
100
AcDbEntity
8
0
100
AcDbSpline
70
0
71
2
72
6
73
3
74
0
42
0.000000001
43
0.0000000001
44
0.0000000001
40
0
40
0
40
0
40
1
40
1
40
1
10
-111.10608582024301
20
89.969520494990789
30
0
10
-111.08562235359872
20
89.914266989284002
30
0
10
-111.01195220474924
20
89.644143507533514
30
0
0
SPLINE
5
170
100
AcDbEntity
8
0
100
AcDbSpline
70
0
71
2
72
6
73
3
74
0
42
0.000000001
43
0.0000000001
44
0.0000000001
40
0
40
0
40
0
40
1
40
1
40
1
10
-111.01195220474924
20
89.644143507533514
30
0
10
-110.90758625988687
20
89.253284857325994
30
0
10
-110.84107880120004
20
89.098782465510808
30
0
0
SPLINE
5
171
100
AcDbEntity
8
0
100
AcDbSpline
70
0
71
2
72
6
73
3
74
0
42
0.000000001
43
0.0000000001
44
0.0000000001
40
0
40
0
40
0
40
1
40
1
40
1
10
-110.84107880120004
20
89.098782465510808
30
0
10
-110.77457134251321
20
88.944280073695623
30
0
10
-110.64769570355142
20
88.856286928706609
30
0
0
SPLINE
5
172
100
AcDbEntity
8
0
100
AcDbSpline
70
0
71
2
72
6
73
3
74
0
42
0.000000001
43
0.0000000001
44
0.0000000001
40
0
40
0
40
0
40
1
40
1
40
1
10
-110.64769570355142
20
88.856286928706609
30
0
10
-110.52082006458963
20
88.768291399531805
30
0
10
-110.33255223755563
20
88.768291399531805
30
0
0
SPLINE
5
173
100
AcDbEntity
8
0
100
AcDbSpline
70
0
71
2
72
6
73
3
74
0
42
0.000000001
43
0.0000000001
44
0.0000000001
40
0
40
0
40
0
40
1
40
1
40
1
10
-110.33255223755563
20
88.768291399531805
30
0
10
-110.14837805752481
20
88.768291399531805
30
0
10
-109.98569015984262
20
88.875727579646551
30
0
0
SPLINE
5
174
100
AcDbEntity
8
0
100
AcDbSpline
70
0
71
2
72
6
73
3
74
0
42
0.000000001
43
0.0000000001
44
0.0000000001
40
0
40
0
40
0
40
1
40
1
40
1
10
-109.98569015984262
20
88.875727579646551
30
0
10
-109.82300285820688
20
88.983161375575506
30
0
10
-109.73398510937417
20
89.185752794795476
30
0
0
SPLINE
5
175
100
AcDbEntity
8
0
100
AcDbSpline
70
0
71
2
72
6
73
3
74
0
42
0.000000001
43
0.0000000001
44
0.0000000001
40
0
40
0
40
0
40
1
40
1
40
1
10
-109.73398510937417
20
89.185752794795476
30
0
10
-109.64496736054147
20
89.388346598201238
30
0
10
-109.64496736054147
20
89.644143507533514
30
0
0
SPLINE
5
176
100
AcDbEntity
8
0
100
AcDbSpline
70
0
71
2
72
6
73
3
74
0
42
0.000000001
43
0.0000000001
44
0.0000000001
40
0
40
0
40
0
40
1
40
1
40
1
10
-109.64496736054147
20
89.644143507533514
30
0
10
-109.64496736054147
20
90.067746565394842
30
0
10
-109.82095603470529
20
90.289778635554754
30
0
0
SPLINE
5
177
100
AcDbEntity
8
0
100
AcDbSpline
70
0
71
2
72
6
73
3
74
0
42
0.000000001
43
0.0000000001
44
0.0000000001
40
0
40
0
40
0
40
1
40
1
40
1
10
-109.82095603470529
20
90.289778635554754
30
0
10
-109.99694530491556
20
90.511810705714666
30
0
10
-110.34278456692422
20
90.573203489833318
30
0
0
LWPOLYLINE
5
178
100
AcDbEntity
8
0
100
AcDbPolyline
90
4
70
1
43
0.0
10
-112.69408051495279
20
88.328318522029363
10
-112.27047894720758
20
88.328318522029363
10
-112.27047894720758
20
87.959971354060613
10
-112.69408051495279
20
87.959971354060613
0
LWPOLYLINE
5
179
100
AcDbEntity
8
0
100
AcDbPolyline
90
4
70
1
43
0.0
10
-111.86734084610666
20
88.328318522029363
10
-109.6940803957435
20
88.328318522029363
10
-109.6940803957435
20
87.959971354060613
10
-111.86734084610666
20
87.959971354060613
0
LINE
5
180
100
AcDbEntity
8
0
100
AcDbLine
10
-109.6940803957435
20
87.39926092391535
30
0
11
-111.86734084610666
21
87.39926092391535
31
0
0
LINE
5
181
100
AcDbEntity
8
0
100
AcDbLine
10
-111.86734084610666
20
87.39926092391535
30
0
11
-111.86734084610666
21
87.067747042232
31
0
0
LINE
5
182
100
AcDbEntity
8
0
100
AcDbLine
10
-111.86734084610666
20
87.067747042232
30
0
11
-111.55833725456918
21
87.067747042232
31
0
0
SPLINE
5
183
100
AcDbEntity
8
0
100
AcDbSpline
70
0
71
2
72
6
73
3
74
0
42
0.000000001
43
0.0000000001
44
0.0000000001
40
0
40
0
40
0
40
1
40
1
40
1
10
-111.55833725456918
20
87.067747042232
30
0
10
-111.91645388130868
20
86.828319952540838
30
0
10
-111.91645388130868
20
86.376068518214666
30
0
0
SPLINE
5
184
100
AcDbEntity
8
0
100
AcDbSpline
70
0
71
2
72
6
73
3
74
0
42
0.000000001
43
0.0000000001
44
0.0000000001
40
0
40
0
40
0
40
1
40
1
40
1
10
-111.91645388130868
20
86.376068518214666
30
0
10
-111.91645388130868
20
86.179613993220769
30
0
10
-111.84585396771158
20
86.014881060176336
30
0
0
SPLINE
5
185
100
AcDbEntity
8
0
100
AcDbSpline
70
0
71
2
72
6
73
3
74
0
42
0.000000001
43
0.0000000001
44
0.0000000001
40
0
40
0
40
0
40
1
40
1
40
1
10
-111.84585396771158
20
86.014881060176336
30
0
10
-111.77525405411447
20
85.850148127131902
30
0
10
-111.66065577988351
20
85.768291876368963
30
0
0
SPLINE
5
186
100
AcDbEntity
8
0
100
AcDbSpline
70
0
71
2
72
6
73
3
74
0
42
0.000000001
43
0.0000000001
44
0.0000000001
40
0
40
0
40
0
40
1
40
1
40
1
10
-111.66065577988351
20
85.768291876368963
30
0
10
-111.54605869774545
20
85.686435625606023
30
0
10
-111.38848666672433
20
85.653695986323797
30
0
0
SPLINE
5
187
100
AcDbEntity
8
0
100
AcDbSpline
70
0
71
2
72
6
73
3
74
0
42
0.000000001
43
0.0000000001
44
0.0000000001
40
0
40
0
40
0
40
1
40
1
40
1
10
-111.38848666672433
20
85.653695986323797
30
0
10
-111.28616754536355
20
85.633230135493719
30
0
10
-111.03036944393838
20
85.633230135493719
30
0
0
LINE
5
188
100
AcDbEntity
8
0
100
AcDbLine
10
-111.03036944393841
20
85.633230135493719
30
0
11
-109.6940803957435
21
85.633230135493719
31
0
0
LINE
5
189
100
AcDbEntity
8
0
100
AcDbLine
10
-109.6940803957435
20
85.633230135493719
30
0
11
-109.6940803957435
21
86.00157968764826
31
0
0
LINE
5
190
100
AcDbEntity
8
0
100
AcDbLine
10
-109.6940803957435
20
86.00157968764826
30
0
11
-111.01604465965951
21
86.00157968764826
31
0
0
SPLINE
5
191
100
AcDbEntity
8
0
100
AcDbSpline
70
0
71
2
72
6
73
3
74
0
42
0.000000001
43
0.0000000001
44
0.0000000001
40
0
40
0
40
0
40
1
40
1
40
1
10
-111.01604465965951
20
86.00157968764826
30
0
10
-111.24114756111825
20
86.00157968764826
30
0
10
-111.35267500405038
20
86.044554636531316
30
0
0
SPLINE
5
192
100
AcDbEntity
8
0
100
AcDbSpline
70
0
71
2
72
6
73
3
74
0
42
0.000000001
43
0.0000000001
44
0.0000000001
40
0
40
0
40
0
40
1
40
1
40
1
10
-111.35267500405038
20
86.044554636531316
30
0
10
-111.46420304302896
20
86.087527201228582
30
0
10
-111.53071050171579
20
86.197009012752019
30
0
0
SPLINE
5
193
100
AcDbEntity
8
0
100
AcDbSpline
70
0
71
2
72
6
73
3
74
0
42
0.000000001
43
0.0000000001
44
0.0000000001
40
0
40
0
40
0
40
1
40
1
40
1
10
-111.53071050171579
20
86.197009012752019
30
0
10
-111.59721855644906
20
86.306490824275457
30
0
10
-111.59721855644906
20
86.453831121974432
30
0
0
SPLINE
5
194
100
AcDbEntity
8
0
100
AcDbSpline
70
0
71
2
72
6
73
3
74
0
42
0.000000001
43
0.0000000001
44
0.0000000001
40
0
40
0
40
0
40
1
40
1
40
1
10
-111.59721855644906
20
86.453831121974432
30
0
10
-111.59721855644906
20
86.689166948848211
30
0
10
-111.44783203129495
20
86.860036776118719
30
0
0
SPLINE
5
195
100
AcDbEntity
8
0
100
AcDbSpline
70
0
71
2
72
6
73
3
74
0
42
0.000000001
43
0.0000000001
44
0.0000000001
40
0
40
0
40
0
40
1
40
1
40
1
10
-111.44783203129495
20
86.860036776118719
30
0
10
-111.29844610218728
20
87.030911371760808
30
0
10
-110.88098351483072
20
87.030911371760808
30
0
0
LINE
5
196
100
AcDbEntity
8
0
100
AcDbLine
10
-110.88098351483072
20
87.030911371760808
30
0
11
-109.6940803957435
21
87.030911371760808
31
0
0
LINE
5
197
100
AcDbEntity
8
0
100
AcDbLine
10
-109.6940803957435
20
87.030911371760808
30
0
11
-109.6940803957435
21
87.39926092391535
31
0
0
LINE
5
198
100
AcDbEntity
8
0
100
AcDbLine
10
-109.51399867062295
20
85.135958120875799
30
0
11
-109.4607925844642
21
84.777841494136297
31
0
0
SPLINE
5
199
100
AcDbEntity
8
0
100
AcDbSpline
70
0
71
2
72
6
73
3
74
0
42
0.000000001
43
0.0000000001
44
0.0000000001
40
0
40
0
40
0
40
1
40
1
40
1
10
-109.4607925844642
20
84.777841494136297
30
0
10
-109.29503564362253
20
84.755330011897527
30
0
10
-109.2193192673179
20
84.653010294490301
30
0
0
SPLINE
5
200
100
AcDbEntity
8
0
100
AcDbSpline
70
0
71
2
72
6
73
3
74
0
42
0.000000001
43
0.0000000001
44
0.0000000001
40
0
40
0
40
0
40
1
40
1
40
1
10
-109.2193192673179
20
84.653010294490301
30
0
10
-109.11700014595712
20
84.515905306392156
30
0
10
-109.11700014595712
20
84.278521463923894
30
0
0
SPLINE
5
201
100
AcDbEntity
8
0
100
AcDbSpline
70
0
71
2
72
6
73
3
74
0
42
0.000000001
43
0.0000000001
44
0.0000000001
40
0
40
0
40
0
40
1
40
1
40
1
10
-109.11700014595712
20
84.278521463923894
30
0
10
-109.11700014595712
20
84.02272693877741
30
0
10
-109.2193192673179
20
83.883571550898992
30
0
0
SPLINE
5
202
100
AcDbEntity
8
0
100
AcDbSpline
70
0
71
2
72
6
73
3
74
0
42
0.000000001
43
0.0000000001
44
0.0000000001
40
0
40
0
40
0
40
1
40
1
40
1
10
-109.2193192673179
20
83.883571550898992
30
0
10
-109.32163838867868
20
83.744416163020574
30
0
10
-109.50581316475595
20
83.695301935725652
30
0
0
SPLINE
5
203
100
AcDbEntity
8
0
100
AcDbSpline
70
0
71
2
72
6
73
3
74
0
42
0.000000001
43
0.0000000001
44
0.0000000001
40
0
40
0
40
0
40
1
40
1
40
1
10
-109.50581316475595
20
83.695301935725652
30
0
10
-109.61836401943887
20
83.666653559260808
30
0
10
-109.97852806572641
20
83.6686991906695
30
0
0
SPLINE
5
204
100
AcDbEntity
8
0
100
AcDbSpline
70
0
71
2
72
6
73
3
74
0
42
0.000000001
43
0.0000000001
44
0.0000000001
40
0
40
0
40
0
40
1
40
1
40
1
10
-109.97852806572641
20
83.6686991906695
30
0
10
-109.6940803957435
20
83.910174295955144
30
0
10
-109.6940803957435
20
84.270338938289129
30
0
0
SPLINE
5
205
100
AcDbEntity
8
0
100
AcDbSpline
70
0
71
2
72
6
73
3
74
0
42
0.000000001
43
0.0000000001
44
0.0000000001
40
0
40
0
40
0
40
1
40
1
40
1
10
-109.6940803957435
20
84.270338938289129
30
0
10
-109.6940803957435
20
84.718494341426336
30
0
10
-110.01740936760629
20
84.964060709529363
30
0
0
SPLINE
5
206
100
AcDbEntity
8
0
100
AcDbSpline
70
0
71
2
72
6
73
3
74
0
42
0.000000001
43
0.0000000001
44
0.0000000001
40
0
40
0
40
0
40
1
40
1
40
1
10
-110.01740936760629
20
84.964060709529363
30
0
10
-110.34073833946908
20
85.209627077632391
30
0
10
-110.79298917774881
20
85.209627077632391
30
0
0
SPLINE
5
207
100
AcDbEntity
8
0
100
AcDbSpline
70
0
71
2
72
6
73
3
74
0
42
0.000000001
43
0.0000000001
44
0.0000000001
40
0
40
0
40
0
40
1
40
1
40
1
10
-110.79298917774881
20
85.209627077632391
30
0
10
-111.10403959278787
20
85.209627077632391
30
0
10
-111.36699978832925
20
85.097076818995916
30
0
0
SPLINE
5
208
100
AcDbEntity
8
0
100
AcDbSpline
70
0
71
2
72
6
73
3
74
0
42
0.000000001
43
0.0000000001
44
0.0000000001
40
0
40
0
40
0
40
1
40
1
40
1
10
-111.36699978832925
20
85.097076818995916
30
0
10
-111.62996057991708
20
84.984526560359441
30
0
10
-111.77320723061288
20
84.770679400020086
30
0
0
SPLINE
5
209
100
AcDbEntity
8
0
100
AcDbSpline
70
0
71
2
72
6
73
3
74
0
42
0.000000001
43
0.0000000001
44
0.0000000001
40
0
40
0
40
0
40
1
40
1
40
1
10
-111.77320723061288
20
84.770679400020086
30
0
10
-111.91645447735513
20
84.55683223968073
30
0
10
-111.91645447735513
20
84.268288538508855
30
0
0
SPLINE
5
210
100
AcDbEntity
8
0
100
AcDbSpline
70
0
71
2
72
6
73
3
74
0
42
0.000000001
43
0.0000000001
44
0.0000000001
40
0
40
0
40
0
40
1
40
1
40
1
10
-111.91645447735513
20
84.268288538508855
30
0
10
-111.91645447735513
20
83.883571550898992
30
0
10
-111.60540346626962
20
83.633913919978582
30
0
0
LINE
5
211
100
AcDbEntity
8
0
100
AcDbLine
10
-111.60540346626962
20
83.633913919978568
30
0
11
-111.86734084610666
21
83.633913919978582
31
0
0
LINE
5
212
100
AcDbEntity
8
0
100
AcDbLine
10
-111.86734084610666
20
83.633913919978582
30
0
11
-111.86734084610666
21
83.294215128474676
31
0
0
LINE
5
213
100
AcDbEntity
8
0
100
AcDbLine
10
-111.86734084610666
20
83.294215128474676
30
0
11
-109.98875979904855
21
83.294215128474676
31
0
0
SPLINE
5
214
100
AcDbEntity
8
0
100
AcDbSpline
70
0
71
2
72
6
73
3
74
0
42
0.000000001
43
0.0000000001
44
0.0000000001
40
0
40
0
40
0
40
1
40
1
40
1
10
-109.98875979904855
20
83.294215128474676
30
0
10
-109.48125605110849
20
83.294215128474676
30
0
10
-109.26945571427072
20
83.397555277400457
30
0
0
SPLINE
5
215
100
AcDbEntity
8
0
100
AcDbSpline
70
0
71
2
72
6
73
3
74
0
42
0.000000001
43
0.0000000001
44
0.0000000001
40
0
40
0
40
0
40
1
40
1
40
1
10
-109.26945571427072
20
83.397555277400457
30
0
10
-109.0576547813865
20
83.500895426326238
30
0
10
-108.93487159733499
20
83.724975512080633
30
0
0
SPLINE
5
216
100
AcDbEntity
8
0
100
AcDbSpline
70
0
71
2
72
6
73
3
74
0
42
0.000000001
43
0.0000000001
44
0.0000000001
40
0
40
0
40
0
40
1
40
1
40
1
10
-108.93487159733499
20
83.724975512080633
30
0
10
-108.81208841328348
20
83.949055597835027
30
0
10
-108.81208841328348
20
84.276475832515203
30
0
0
SPLINE
5
217
100
AcDbEntity
8
0
100
AcDbSpline
70
0
71
2
72
6
73
3
74
0
42
0.000000001
43
0.0000000001
44
0.0000000001
40
0
40
0
40
0
40
1
40
1
40
1
10
-108.81208841328348
20
84.276475832515203
30
0
10
-108.81208841328348
20
84.665288851314031
30
0
10
-108.98705427174295
20
84.904718325190984
30
0
0
SPLINE
5
218
100
AcDbEntity
8
0
100
AcDbSpline
70
0
71
2
72
6
73
3
74
0
42
0.000000001
43
0.0000000001
44
0.0000000001
40
0
40
0
40
0
40
1
40
1
40
1
10
-108.98705427174295
20
84.904718325190984
30
0
10
-109.16202013020242
20
85.144143030696355
30
0
10
-109.51399867062295
20
85.135958120875799
30
0
0
SPLINE
5
219
100
AcDbEntity
8
0
100
AcDbSpline
70
0
71
2
72
6
73
3
74
0
42
0.000000001
43
0.0000000001
44
0.0000000001
40
0
40
0
40
0
40
1
40
1
40
1
10
-110.81959192280496
20
84.831046984248601
30
0
10
-110.39189760212625
20
84.831046984248601
30
0
10
-110.1954448652717
20
84.661197588496648
30
0
0
SPLINE
5
220
100
AcDbEntity
8
0
100
AcDbSpline
70
0
71
2
72
6
73
3
74
0
42
0.000000001
43
0.0000000001
44
0.0000000001
40
0
40
0
40
0
40
1
40
1
40
1
10
-110.1954448652717
20
84.661197588496648
30
0
10
-109.9989915323707
20
84.491348192744695
30
0
10
-109.9989915323707
20
84.235548899226629
30
0
0
SPLINE
5
221
100
AcDbEntity
8
0
100
AcDbSpline
70
0
71
2
72
6
73
3
74
0
42
0.000000001
43
0.0000000001
44
0.0000000001
40
0
40
0
40
0
40
1
40
1
40
1
10
-109.9989915323707
20
84.235548899226629
30
0
10
-109.9989915323707
20
83.981795237117254
30
0
10
-110.1944214535209
20
83.809900209956609
30
0
0
SPLINE
5
222
100
AcDbEntity
8
0
100
AcDbSpline
70
0
71
2
72
6
73
3
74
0
42
0.000000001
43
0.0000000001
44
0.0000000001
40
0
40
0
40
0
40
1
40
1
40
1
10
-110.1944214535209
20
83.809900209956609
30
0
10
-110.38985137467111
20
83.638005182795965
30
0
10
-110.80731396202768
20
83.638005182795965
30
0
0
SPLINE
5
223
100
AcDbEntity
8
0
100
AcDbSpline
70
0
71
2
72
6
73
3
74
0
42
0.000000001
43
0.0000000001
44
0.0000000001
40
0
40
0
40
0
40
1
40
1
40
1
10
-110.80731396202768
20
83.638005182795965
30
0
10
-111.20635871414865
20
83.638005182795965
30
0
10
-111.40895072941507
20
83.815016672664129
30
0
0
SPLINE
5
224
100
AcDbEntity
8
0
100
AcDbSpline
70
0
71
2
72
6
73
3
74
0
42
0.000000001
43
0.0000000001
44
0.0000000001
40
0
40
0
40
0
40
1
40
1
40
1
10
-111.40895072941507
20
83.815016672664129
30
0
10
-111.61154274468149
20
83.992028162532293
30
0
10
-111.61154274468149
20
84.241690561824285
30
0
0
SPLINE
5
225
100
AcDbEntity
8
0
100
AcDbSpline
70
0
71
2
72
6
73
3
74
0
42
0.000000001
43
0.0000000001
44
0.0000000001
40
0
40
0
40
0
40
1
40
1
40
1
10
-111.61154274468149
20
84.241690561824285
30
0
10
-111.61154274468149
20
84.48725216155573
30
0
10
-111.412020368621
20
84.659151957087957
30
0
0
SPLINE
5
226
100
AcDbEntity
8
0
100
AcDbSpline
70
0
71
2
72
6
73
3
74
0
42
0.000000001
43
0.0000000001
44
0.0000000001
40
0
40
0
40
0
40
1
40
1
40
1
10
-111.412020368621
20
84.659151957087957
30
0
10
-111.21249799256051
20
84.831046984248601
30
0
10
-110.81959192280496
20
84.831046984248601
30
0
0
LWPOLYLINE
5
227
100
AcDbEntity
8
0
100
AcDbPolyline
90
4
70
1
43
0.0
10
-110.96488539700235
20
81.716451571040594
10
-110.59448961739267
20
81.716451571040594
10
-110.59448961739267
20
80.584797785335027
10
-110.96488539700235
20
80.584797785335027
0
LINE
5
228
100
AcDbEntity
8
0
100
AcDbLine
10
-109.6940803957435
20
78.925180361323797
30
0
11
-111.58084694866861
21
78.925180361323797
31
0
0
LINE
5
229
100
AcDbEntity
8
0
100
AcDbLine
10
-111.58084694866861
20
78.925180361323797
30
0
11
-111.58084694866861
21
79.250554964595281
31
0
0
LINE
5
230
100
AcDbEntity
8
0
100
AcDbLine
10
-111.58084694866861
20
79.250554964595281
30
0
11
-111.86734084610666
21
79.250554964595281
31
0
0
LINE
5
231
100
AcDbEntity
8
0
100
AcDbLine
10
-111.86734084610666
20
79.250554964595281
30
0
11
-111.86734084610666
21
78.925180361323797
31
0
0
LINE
5
232
100
AcDbEntity
8
0
100
AcDbLine
10
-111.86734084610666
20
78.925180361323797
30
0
11
-112.09858242993081
21
78.925180361323797
31
0
0
SPLINE
5
233
100
AcDbEntity
8
0
100
AcDbSpline
70
0
71
2
72
6
73
3
74
0
42
0.000000001
43
0.0000000001
44
0.0000000001
40
0
40
0
40
0
40
1
40
1
40
1
10
-112.09858242993081
20
78.925180361323797
30
0
10
-112.31754575495447
20
78.925180361323797
30
0
10
-112.42395762924875
20
78.886299059443914
30
0
0
SPLINE
5
234
100
AcDbEntity
8
0
100
AcDbSpline
70
0
71
2
72
6
73
3
74
0
42
0.000000001
43
0.0000000001
44
0.0000000001
40
0
40
0
40
0
40
1
40
1
40
1
10
-112.42395762924875
20
78.886299059443914
30
0
10
-112.56720457796777
20
78.833093569331609
30
0
10
-112.65622232680047
20
78.699054644160711
30
0
0
SPLINE
5
235
100
AcDbEntity
8
0
100
AcDbSpline
70
0
71
2
72
6
73
3
74
0
42
0.000000001
43
0.0000000001
44
0.0000000001
40
0
40
0
40
0
40
1
40
1
40
1
10
-112.65622232680047
20
78.699054644160711
30
0
10
-112.74524007563318
20
78.565015718989812
30
0
10
-112.74524007563318
20
78.323540613704168
30
0
0
SPLINE
5
236
100
AcDbEntity
8
0
100
AcDbSpline
70
0
71
2
72
6
73
3
74
0
42
0.000000001
43
0.0000000001
44
0.0000000001
40
0
40
0
40
0
40
1
40
1
40
1
10
-112.74524007563318
20
78.323540613704168
30
0
10
-112.74524007563318
20
78.168015406184637
30
0
10
-112.70840500120843
20
77.979750559382879
30
0
0
LINE
5
237
100
AcDbEntity
8
0
100
AcDbLine
10
-112.70840500120843
20
77.979750559382879
30
0
11
-112.38712285284723
21
78.035006449275457
31
0
0
SPLINE
5
238
100
AcDbEntity
8
0
100
AcDbSpline
70
0
71
2
72
6
73
3
74
0
42
0.000000001
43
0.0000000001
44
0.0000000001
40
0
40
0
40
0
40
1
40
1
40
1
10
-112.38712285284723
20
78.035006449275457
30
0
10
-112.40758661751474
20
78.149599955134832
30
0
10
-112.40758661751474
20
78.251919672542058
30
0
0
SPLINE
5
239
100
AcDbEntity
8
0
100
AcDbSpline
70
0
71
2
72
6
73
3
74
0
42
0.000000001
43
0.0000000001
44
0.0000000001
40
0
40
0
40
0
40
1
40
1
40
1
10
-112.40758661751474
20
78.251919672542058
30
0
10
-112.40758661751474
20
78.41972343688532
30
0
10
-112.33596299414361
20
78.489298746638738
30
0
0
SPLINE
5
240
100
AcDbEntity
8
0
100
AcDbSpline
70
0
71
2
72
6
73
3
74
0
42
0.000000001
43
0.0000000001
44
0.0000000001
40
0
40
0
40
0
40
1
40
1
40
1
10
-112.33596299414361
20
78.489298746638738
30
0
10
-112.26433966879571
20
78.558878824763738
30
0
10
-112.06788663391794
20
78.558878824763738
30
0
0
LINE
5
241
100
AcDbEntity
8
0
100
AcDbLine
10
-112.06788663391794
20
78.558878824763738
30
0
11
-111.86734084610666
21
78.558878824763738
31
0
0
LINE
5
242
100
AcDbEntity
8
0
100
AcDbLine
10
-111.86734084610666
20
78.558878824763738
30
0
11
-111.86734084610666
21
78.13527576690241
31
0
0
LINE
5
243
100
AcDbEntity
8
0
100
AcDbLine
10
-111.86734084610666
20
78.13527576690241
30
0
11
-111.58084694866861
21
78.13527576690241
31
0
0
LINE
5
244
100
AcDbEntity
8
0
100
AcDbLine
10
-111.58084694866861
20
78.13527576690241
30
0
11
-111.58084694866861
21
78.558878824763738
31
0
0
LINE
5
245
100
AcDbEntity
8
0
100
AcDbLine
10
-111.58084694866861
20
78.558878824763738
30
0
11
-109.6940803957435
21
78.558878824763738
31
0
0
LINE
5
246
100
AcDbEntity
8
0
100
AcDbLine
10
-109.6940803957435
20
78.558878824763738
30
0
11
-109.6940803957435
21
78.925180361323797
31
0
0
LWPOLYLINE
5
247
100
AcDbEntity
8
0
100
AcDbPolyline
90
4
70
1
43
0.0
10
-112.69408051495279
20
77.846736834102117
10
-112.27047894720758
20
77.846736834102117
10
-112.27047894720758
20
77.478384897761785
10
-112.69408051495279
20
77.478384897761785
0
LWPOLYLINE
5
248
100
AcDbEntity
8
0
100
AcDbPolyline
90
4
70
1
43
0.0
10
-111.86734084610666
20
77.846736834102117
10
-109.6940803957435
20
77.846736834102117
10
-109.6940803957435
20
77.478384897761785
10
-111.86734084610666
20
77.478384897761785
0
LWPOLYLINE
5
249
100
AcDbEntity
8
0
100
AcDbPolyline
90
4
70
1
43
0.0
10
-112.69408051495279
20
76.92586414580866
10
-109.6940803957435
20
76.92586414580866
10
-109.6940803957435
20
76.55751697783991
10
-112.69408051495279
20
76.55751697783991
0
LINE
5
250
100
AcDbEntity
8
0
100
AcDbLine
10
-110.02354864601816
20
75.18234722381159
30
0
11
-109.69817344670022
21
75.129136965327703
31
0
0
SPLINE
5
251
100
AcDbEntity
8
0
100
AcDbSpline
70
0
71
2
72
6
73
3
74
0
42
0.000000001
43
0.0000000001
44
0.0000000001
40
0
40
0
40
0
40
1
40
1
40
1
10
-109.69817344670022
20
75.129136965327703
30
0
10
-109.66543082718576
20
75.284662172847234
30
0
10
-109.66543082718576
20
75.407442972712957
30
0
0
SPLINE
5
252
100
AcDbEntity
8
0
100
AcDbSpline
70
0
71
2
72
6
73
3
74
0
42
0.000000001
43
0.0000000001
44
0.0000000001
40
0
40
0
40
0
40
1
40
1
40
1
10
-109.66543082718576
20
75.407442972712957
30
0
10
-109.66543082718576
20
75.607991144710027
30
0
10
-109.72886864666665
20
75.718493387752019
30
0
0
SPLINE
5
253
100
AcDbEntity
8
0
100
AcDbSpline
70
0
71
2
72
6
73
3
74
0
42
0.000000001
43
0.0000000001
44
0.0000000001
40
0
40
0
40
0
40
1
40
1
40
1
10
-109.72886864666665
20
75.718493387752019
30
0
10
-109.792307062194
20
75.829000399165594
30
0
10
-109.89564899925912
20
75.874018595271551
30
0
0
SPLINE
5
254
100
AcDbEntity
8
0
100
AcDbSpline
70
0
71
2
72
6
73
3
74
0
42
0.000000001
43
0.0000000001
44
0.0000000001
40
0
40
0
40
0
40
1
40
1
40
1
10
-109.89564899925912
20
75.874018595271551
30
0
10
-109.9989915323707
20
75.91904155974909
30
0
10
-110.33050601010049
20
75.91904155974909
30
0
0
LINE
5
255
100
AcDbEntity
8
0
100
AcDbLine
10
-110.33050601010049
20
75.91904155974909
30
0
11
-111.58084694866861
21
75.91904155974909
31
0
0
LINE
5
256
100
AcDbEntity
8
0
100
AcDbLine
10
-111.58084694866861
20
75.91904155974909
30
0
11
-111.58084694866861
21
76.189165041499578
31
0
0
LINE
5
257
100
AcDbEntity
8
0
100
AcDbLine
10
-111.58084694866861
20
76.189165041499578
30
0
11
-111.86734084610666
21
76.189165041499578
31
0
0
LINE
5
258
100
AcDbEntity
8
0
100
AcDbLine
10
-111.86734084610666
20
76.189165041499578
30
0
11
-111.86734084610666
21
75.91904155974909
31
0
0
LINE
5
259
100
AcDbEntity
8
0
100
AcDbLine
10
-111.86734084610666
20
75.91904155974909
30
0
11
-112.4055403900596
21
75.91904155974909
31
0
0
LINE
5
260
100
AcDbEntity
8
0
100
AcDbLine
10
-112.4055403900596
20
75.91904155974909
30
0
11
-112.62654994253839
21
75.552740023189031
31
0
0
LINE
5
261
100
AcDbEntity
8
0
100
AcDbLine
10
-112.62654994253839
20
75.552740023189031
30
0
11
-111.86734084610666
21
75.552740023189031
31
0
0
LINE
5
262
100
AcDbEntity
8
0
100
AcDbLine
10
-111.86734084610666
20
75.552740023189031
30
0
11
-111.86734084610666
21
75.18234722381159
31
0
0
LINE
5
263
100
AcDbEntity
8
0
100
AcDbLine
10
-111.86734084610666
20
75.18234722381159
30
0
11
-111.58084694866861
21
75.18234722381159
31
0
0
LINE
5
264
100
AcDbEntity
8
0
100
AcDbLine
10
-111.58084694866861
20
75.18234722381159
30
0
11
-111.58084694866861
21
75.552740023189031
31
0
0
LINE
5
265
100
AcDbEntity
8
0
100
AcDbLine
10
-111.58084694866861
20
75.552740023189031
30
0
11
-110.31004194740976
21
75.552740023189031
31
0
0
SPLINE
5
266
100
AcDbEntity
8
0
100
AcDbSpline
70
0
71
2
72
6
73
3
74
0
42
0.000000001
43
0.0000000001
44
0.0000000001
40
0
40
0
40
0
40
1
40
1
40
1
10
-110.31004194740976
20
75.552740023189031
30
0
10
-110.15247051243509
20
75.552740023189031
30
0
10
-110.10744993214334
20
75.53329937224909
30
0
0
SPLINE
5
267
100
AcDbEntity
8
0
100
AcDbSpline
70
0
71
2
72
6
73
3
74
0
42
0.000000001
43
0.0000000001
44
0.0000000001
40
0
40
0
40
0
40
1
40
1
40
1
10
-110.10744993214334
20
75.53329937224909
30
0
10
-110.06242994789804
20
75.513858721309148
30
0
10
-110.03582660679544
20
75.469860956721746
30
0
0
SPLINE
5
268
100
AcDbEntity
8
0
100
AcDbSpline
70
0
71
2
72
6
73
3
74
0
42
0.000000001
43
0.0000000001
44
0.0000000001
40
0
40
0
40
0
40
1
40
1
40
1
10
-110.03582660679544
20
75.469860956721746
30
0
10
-110.00922386173929
20
75.425863192134344
30
0
10
-110.00922386173929
20
75.344009325557195
30
0
0
SPLINE
5
269
100
AcDbEntity
8
0
100
AcDbSpline
70
0
71
2
72
6
73
3
74
0
42
0.000000001
43
0.0000000001
44
0.0000000001
40
0
40
0
40
0
40
1
40
1
40
1
10
-110.00922386173929
20
75.344009325557195
30
0
10
-110.00922386173929
20
75.282616541438543
30
0
10
-110.02354864601816
20
75.18234722381159
30
0
0
LINE
5
270
100
AcDbEntity
8
0
100
AcDbLine
10
-110.39394382958139
20
73.334460184627019
30
0
11
-110.3468770218345
21
72.953829691462957
31
0
0
SPLINE
5
271
100
AcDbEntity
8
0
100
AcDbSpline
70
0
71
2
72
6
73
3
74
0
42
0.000000001
43
0.0000000001
44
0.0000000001
40
0
40
0
40
0
40
1
40
1
40
1
10
-110.3468770218345
20
72.953829691462957
30
0
10
-110.01331631664956
20
73.043870852046453
30
0
10
-109.82914154057229
20
73.287391588740789
30
0
0
SPLINE
5
272
100
AcDbEntity
8
0
100
AcDbSpline
70
0
71
2
72
6
73
3
74
0
42
0.000000001
43
0.0000000001
44
0.0000000001
40
0
40
0
40
0
40
1
40
1
40
1
10
-109.82914154057229
20
73.287391588740789
30
0
10
-109.64496736054147
20
73.530912325435125
30
0
10
-109.64496736054147
20
73.909492418818914
30
0
0
SPLINE
5
273
100
AcDbEntity
8
0
100
AcDbSpline
70
0
71
2
72
6
73
3
74
0
42
0.000000001
43
0.0000000001
44
0.0000000001
40
0
40
0
40
0
40
1
40
1
40
1
10
-109.64496736054147
20
73.909492418818914
30
0
10
-109.64496736054147
20
74.386300966792547
30
0
10
-109.93862335209573
20
74.665632174067937
30
0
0
SPLINE
5
274
100
AcDbEntity
8
0
100
AcDbSpline
70
0
71
2
72
6
73
3
74
0
42
0.000000001
43
0.0000000001
44
0.0000000001
40
0
40
0
40
0
40
1
40
1
40
1
10
-109.93862335209573
20
74.665632174067937
30
0
10
-110.23227934364999
20
74.944963381343328
30
0
10
-110.76229338173593
20
74.944963381343328
30
0
0
SPLINE
5
275
100
AcDbEntity
8
0
100
AcDbSpline
70
0
71
2
72
6
73
3
74
0
42
0.000000001
43
0.0000000001
44
0.0000000001
40
0
40
0
40
0
40
1
40
1
40
1
10
-110.76229338173593
20
74.944963381343328
30
0
10
-111.31072406296457
20
74.944963381343328
30
0
10
-111.61358956818307
20
74.662561342769109
30
0
0
SPLINE
5
276
100
AcDbEntity
8
0
100
AcDbSpline
70
0
71
2
72
6
73
3
74
0
42
0.000000001
43
0.0000000001
44
0.0000000001
40
0
40
0
40
0
40
1
40
1
40
1
10
-111.61358956818307
20
74.662561342769109
30
0
10
-111.91645447735513
20
74.380164072566473
30
0
10
-111.91645447735513
20
73.92995350127741
30
0
0
SPLINE
5
277
100
AcDbEntity
8
0
100
AcDbSpline
70
0
71
2
72
6
73
3
74
0
42
0.000000001
43
0.0000000001
44
0.0000000001
40
0
40
0
40
0
40
1
40
1
40
1
10
-111.91645447735513
20
73.92995350127741
30
0
10
-111.91645447735513
20
73.494076654963933
30
0
10
-111.61972884659494
20
73.217816278987371
30
0
0
SPLINE
5
278
100
AcDbEntity
8
0
100
AcDbSpline
70
0
71
2
72
6
73
3
74
0
42
0.000000001
43
0.0000000001
44
0.0000000001
40
0
40
0
40
0
40
1
40
1
40
1
10
-111.61972884659494
20
73.217816278987371
30
0
10
-111.3230026197883
20
72.941555903010808
30
0
10
-110.7848036718818
20
72.941555903010808
30
0
0
SPLINE
5
279
100
AcDbEntity
8
0
100
AcDbSpline
70
0
71
2
72
6
73
3
74
0
42
0.000000001
43
0.0000000001
44
0.0000000001
40
0
40
0
40
0
40
1
40
1
40
1
10
-110.7848036718818
20
72.941555903010808
30
0
10
-110.75206105236734
20
72.941555903010808
30
0
10
-110.6865770054313
20
72.943596766047918
30
0
0
LINE
5
280
100
AcDbEntity
8
0
100
AcDbLine
10
-110.6865770054313
20
72.943596766047918
30
0
11
-110.6865770054313
21
74.564337656550848
31
0
0
SPLINE
5
281
100
AcDbEntity
8
0
100
AcDbSpline
70
0
71
2
72
6
73
3
74
0
42
0.000000001
43
0.0000000001
44
0.0000000001
40
0
40
0
40
0
40
1
40
1
40
1
10
-110.6865770054313
20
74.564337656550848
30
0
10
-110.32845978264535
20
74.543871805720769
30
0
10
-110.13814572815622
20
74.361743853145086
30
0
0
SPLINE
5
282
100
AcDbEntity
8
0
100
AcDbSpline
70
0
71
2
72
6
73
3
74
0
42
0.000000001
43
0.0000000001
44
0.0000000001
40
0
40
0
40
0
40
1
40
1
40
1
10
-110.13814572815622
20
74.361743853145086
30
0
10
-109.94783226971353
20
74.179615900569402
30
0
10
-109.94783226971353
20
73.907446787410223
30
0
0
SPLINE
5
283
100
AcDbEntity
8
0
100
AcDbSpline
70
0
71
2
72
6
73
3
74
0
42
0.000000001
43
0.0000000001
44
0.0000000001
40
0
40
0
40
0
40
1
40
1
40
1
10
-109.94783226971353
20
73.907446787410223
30
0
10
-109.94783226971353
20
73.704857752376043
30
0
10
-110.05424384598459
20
73.56160633330866
30
0
0
SPLINE
5
284
100
AcDbEntity
8
0
100
AcDbSpline
70
0
71
2
72
6
73
3
74
0
42
0.000000001
43
0.0000000001
44
0.0000000001
40
0
40
0
40
0
40
1
40
1
40
1
10
-110.05424384598459
20
73.56160633330866
30
0
10
-110.16065601830209
20
73.418359682612859
30
0
10
-110.39394382958139
20
73.334460184627019
30
0
0
LINE
5
285
100
AcDbEntity
8
0
100
AcDbLine
10
-110.98944191460336
20
74.543871805720769
30
0
11
-110.98944191460336
21
73.330368921809637
31
0
0
SPLINE
5
286
100
AcDbEntity
8
0
100
AcDbSpline
70
0
71
2
72
6
73
3
74
0
42
0.000000001
43
0.0000000001
44
0.0000000001
40
0
40
0
40
0
40
1
40
1
40
1
10
-110.98944191460336
20
73.330368921809637
30
0
10
-111.26365785126413
20
73.354926035457098
30
0
10
-111.40076522354806
20
73.469519541316473
30
0
0
SPLINE
5
287
100
AcDbEntity
8
0
100
AcDbSpline
70
0
71
2
72
6
73
3
74
0
42
0.000000001
43
0.0000000001
44
0.0000000001
40
0
40
0
40
0
40
1
40
1
40
1
10
-111.40076522354806
20
73.469519541316473
30
0
10
-111.61358956818307
20
73.645510599666082
30
0
10
-111.61358956818307
20
73.925862238460027
30
0
0
SPLINE
5
288
100
AcDbEntity
8
0
100
AcDbSpline
70
0
71
2
72
6
73
3
74
0
42
0.000000001
43
0.0000000001
44
0.0000000001
40
0
40
0
40
0
40
1
40
1
40
1
10
-111.61358956818307
20
73.925862238460027
30
0
10
-111.61358956818307
20
74.179615900569402
30
0
10
-111.44373957638467
20
74.352536127620183
30
0
0
SPLINE
5
289
100
AcDbEntity
8
0
100
AcDbSpline
70
0
71
2
72
6
73
3
74
0
42
0.000000001
43
0.0000000001
44
0.0000000001
40
0
40
0
40
0
40
1
40
1
40
1
10
-111.44373957638467
20
74.352536127620183
30
0
10
-111.27388958458627
20
74.525456354670965
30
0
10
-110.98944191460336
20
74.543871805720769
30
0
0
LINE
5
290
100
AcDbEntity
8
0
100
AcDbLine
10
-109.6940803957435
20
72.495441362910711
30
0
11
-111.86734084610666
21
72.495441362910711
31
0
0
LINE
5
291
100
AcDbEntity
8
0
100
AcDbLine
10
-111.86734084610666
20
72.495441362910711
30
0
11
-111.86734084610666
21
72.163929865413152
31
0
0
LINE
5
292
100
AcDbEntity
8
0
100
AcDbLine
10
-111.86734084610666
20
72.163929865413152
30
0
11
-111.53787319187845
21
72.163929865413152
31
0
0
SPLINE
5
293
100
AcDbEntity
8
0
100
AcDbSpline
70
0
71
2
72
6
73
3
74
0
42
0.000000001
43
0.0000000001
44
0.0000000001
40
0
40
0
40
0
40
1
40
1
40
1
10
-111.53787319187845
20
72.163929865413152
30
0
10
-111.7691147757026
20
72.037053034358465
30
0
10
-111.84278432850564
20
71.929616854243719
30
0
0
SPLINE
5
294
100
AcDbEntity
8
0
100
AcDbSpline
70
0
71
2
72
6
73
3
74
0
42
0.000000001
43
0.0000000001
44
0.0000000001
40
0
40
0
40
0
40
1
40
1
40
1
10
-111.84278432850564
20
71.929616854243719
30
0
10
-111.91645388130868
20
71.822180674128973
30
0
10
-111.91645388130868
20
71.693258211665594
30
0
0
SPLINE
5
295
100
AcDbEntity
8
0
100
AcDbSpline
70
0
71
2
72
6
73
3
74
0
42
0.000000001
43
0.0000000001
44
0.0000000001
40
0
40
0
40
0
40
1
40
1
40
1
10
-111.91645388130868
20
71.693258211665594
30
0
10
-111.91645388130868
20
71.507038996272527
30
0
10
-111.7977637482139
20
71.314678118281805
30
0
0
LINE
5
296
100
AcDbEntity
8
0
100
AcDbLine
10
-111.7977637482139
20
71.314678118281805
30
0
11
-111.45601753716196
21
71.44155018096491
31
0
0
SPLINE
5
297
100
AcDbEntity
8
0
100
AcDbSpline
70
0
71
2
72
6
73
3
74
0
42
0.000000001
43
0.0000000001
44
0.0000000001
40
0
40
0
40
0
40
1
40
1
40
1
10
-111.45601753716196
20
71.44155018096491
30
0
10
-111.53582696442331
20
71.576614306025945
30
0
10
-111.53582696442331
20
71.71167843108698
30
0
0
SPLINE
5
298
100
AcDbEntity
8
0
100
AcDbSpline
70
0
71
2
72
6
73
3
74
0
42
0.000000001
43
0.0000000001
44
0.0000000001
40
0
40
0
40
0
40
1
40
1
40
1
10
-111.53582696442331
20
71.71167843108698
30
0
10
-111.53582696442331
20
71.832413599544012
30
0
10
-111.46318022732461
20
71.928591654353582
30
0
0
SPLINE
5
299
100
AcDbEntity
8
0
100
AcDbSpline
70
0
71
2
72
6
73
3
74
0
42
0.000000001
43
0.0000000001
44
0.0000000001
40
0
40
0
40
0
40
1
40
1
40
1
10
-111.46318022732461
20
71.928591654353582
30
0
10
-111.39053349022592
20
72.024769709163152
30
0
10
-111.26161102776254
20
72.065701410823308
30
0
0
SPLINE
5
300
100
AcDbEntity
8
0
100
AcDbSpline
70
0
71
2
72
6
73
3
74
0
42
0.000000001
43
0.0000000001
44
0.0000000001
40
0
40
0
40
0
40
1
40
1
40
1
10
-111.26161102776254
20
72.065701410823308
30
0
10
-111.06515829090799
20
72.127089426570379
30
0
10
-110.83187047962869
20
72.127089426570379
30
0
0
LINE
5
301
100
AcDbEntity
8
0
100
AcDbLine
10
-110.83187047962869
20
72.127089426570379
30
0
11
-109.6940803957435
21
72.127089426570379
31
0
0
LINE
5
302
100
AcDbEntity
8
0
100
AcDbLine
10
-109.6940803957435
20
72.127089426570379
30
0
11
-109.6940803957435
21
72.495441362910711
31
0
0
LINE
5
303
100
AcDbEntity
8
0
100
AcDbLine
10
-109.6940803957435
20
69.931321070247137
30
0
11
-112.69408051495279
21
69.931321070247137
31
0
0
LINE
5
304
100
AcDbEntity
8
0
100
AcDbLine
10
-112.69408051495279
20
69.931321070247137
30
0
11
-112.69408051495279
21
69.562969133906805
31
0
0
LINE
5
305
100
AcDbEntity
8
0
100
AcDbLine
10
-112.69408051495279
20
69.562969133906805
30
0
11
-111.61768202309335
21
69.562969133906805
31
0
0
SPLINE
5
306
100
AcDbEntity
8
0
100
AcDbSpline
70
0
71
2
72
6
73
3
74
0
42
0.000000001
43
0.0000000001
44
0.0000000001
40
0
40
0
40
0
40
1
40
1
40
1
10
-111.61768202309335
20
69.562969133906805
30
0
10
-111.91645388130868
20
69.305124208980047
30
0
10
-111.91645388130868
20
68.912219927363836
30
0
0
SPLINE
5
307
100
AcDbEntity
8
0
100
AcDbSpline
70
0
71
2
72
6
73
3
74
0
42
0.000000001
43
0.0000000001
44
0.0000000001
40
0
40
0
40
0
40
1
40
1
40
1
10
-111.91645388130868
20
68.912219927363836
30
0
10
-111.91645388130868
20
68.670744822078191
30
0
10
-111.82129745011056
20
68.492712900691473
30
0
0
SPLINE
5
308
100
AcDbEntity
8
0
100
AcDbSpline
70
0
71
2
72
6
73
3
74
0
42
0.000000001
43
0.0000000001
44
0.0000000001
40
0
40
0
40
0
40
1
40
1
40
1
10
-111.82129745011056
20
68.492712900691473
30
0
10
-111.726140422866
20
68.31467144256159
30
0
10
-111.55833725456918
20
68.237934038691961
30
0
0
SPLINE
5
309
100
AcDbEntity
8
0
100
AcDbSpline
70
0
71
2
72
6
73
3
74
0
42
0.000000001
43
0.0000000001
44
0.0000000001
40
0
40
0
40
0
40
1
40
1
40
1
10
-111.55833725456918
20
68.237934038691961
30
0
10
-111.39053349022592
20
68.161196634822332
30
0
10
-111.07129697327341
20
68.161196634822332
30
0
0
LINE
5
310
100
AcDbEntity
8
0
100
AcDbLine
10
-111.07129697327341
20
68.161196634822332
30
0
11
-109.6940803957435
21
68.161196634822332
31
0
0
LINE
5
311
100
AcDbEntity
8
0
100
AcDbLine
10
-109.6940803957435
20
68.161196634822332
30
0
11
-109.6940803957435
21
68.529543802791082
31
0
0
LINE
5
312
100
AcDbEntity
8
0
100
AcDbLine
10
-109.6940803957435
20
68.529543802791082
30
0
11
-111.07129697327341
21
68.529543802791082
31
0
0
SPLINE
5
313
100
AcDbEntity
8
0
100
AcDbSpline
70
0
71
2
72
6
73
3
74
0
42
0.000000001
43
0.0000000001
44
0.0000000001
40
0
40
0
40
0
40
1
40
1
40
1
10
-111.07129697327341
20
68.529543802791082
30
0
10
-111.34755913738931
20
68.529543802791082
30
0
10
-111.47341196064676
20
68.649258539729558
30
0
0
SPLINE
5
314
100
AcDbEntity
8
0
100
AcDbSpline
70
0
71
2
72
6
73
3
74
0
42
0.000000001
43
0.0000000001
44
0.0000000001
40
0
40
0
40
0
40
1
40
1
40
1
10
-111.47341196064676
20
68.649258539729558
30
0
10
-111.5992647839042
20
68.768973276668035
30
0
10
-111.5992647839042
20
68.98793689971491
30
0
0
SPLINE
5
315
100
AcDbEntity
8
0
100
AcDbSpline
70
0
71
2
72
6
73
3
74
0
42
0.000000001
43
0.0000000001
44
0.0000000001
40
0
40
0
40
0
40
1
40
1
40
1
10
-111.5992647839042
20
68.98793689971491
30
0
10
-111.5992647839042
20
69.151644632869207
30
0
10
-111.51433948998178
20
69.295916483455144
30
0
0
SPLINE
5
316
100
AcDbEntity
8
0
100
AcDbSpline
70
0
71
2
72
6
73
3
74
0
42
0.000000001
43
0.0000000001
44
0.0000000001
40
0
40
0
40
0
40
1
40
1
40
1
10
-111.51433948998178
20
69.295916483455144
30
0
10
-111.4294147921058
20
69.440188334041082
30
0
10
-111.28412131790841
20
69.501576349788152
30
0
0
SPLINE
5
317
100
AcDbEntity
8
0
100
AcDbSpline
70
0
71
2
72
6
73
3
74
0
42
0.000000001
43
0.0000000001
44
0.0000000001
40
0
40
0
40
0
40
1
40
1
40
1
10
-111.28412131790841
20
69.501576349788152
30
0
10
-111.13882784371103
20
69.562969133906805
30
0
10
-110.88302974228586
20
69.562969133906805
30
0
0
LINE
5
318
100
AcDbEntity
8
0
100
AcDbLine
10
-110.88302974228586
20
69.562969133906805
30
0
11
-109.6940803957435
21
69.562969133906805
31
0
0
LINE
5
319
100
AcDbEntity
8
0
100
AcDbLine
10
-109.6940803957435
20
69.562969133906805
30
0
11
-109.6940803957435
21
69.931321070247137
31
0
0
SPLINE
5
320
100
AcDbEntity
8
0
100
AcDbSpline
70
0
71
2
72
6
73
3
74
0
42
0.000000001
43
0.0000000001
44
0.0000000001
40
0
40
0
40
0
40
1
40
1
40
1
10
-110.78071062092508
20
67.737593576961004
30
0
10
-111.38439421181405
20
67.737593576961004
30
0
10
-111.67498116020883
20
67.40198604827448
30
0
0
SPLINE
5
321
100
AcDbEntity
8
0
100
AcDbSpline
70
0
71
2
72
6
73
3
74
0
42
0.000000001
43
0.0000000001
44
0.0000000001
40
0
40
0
40
0
40
1
40
1
40
1
10
-111.67498116020883
20
67.40198604827448
30
0
10
-111.91645447735513
20
67.121634409480535
30
0
10
-111.91645447735513
20
66.718497202449285
30
0
0
SPLINE
5
322
100
AcDbEntity
8
0
100
AcDbSpline
70
0
71
2
72
6
73
3
74
0
42
0.000000001
43
0.0000000001
44
0.0000000001
40
0
40
0
40
0
40
1
40
1
40
1
10
-111.91645447735513
20
66.718497202449285
30
0
10
-111.91645447735513
20
66.270337030940496
30
0
10
-111.62279788975442
20
65.985889360957586
30
0
0
SPLINE
5
323
100
AcDbEntity
8
0
100
AcDbSpline
70
0
71
2
72
6
73
3
74
0
42
0.000000001
43
0.0000000001
44
0.0000000001
40
0
40
0
40
0
40
1
40
1
40
1
10
-111.62279788975442
20
65.985889360957586
30
0
10
-111.32914189820016
20
65.701441690974676
30
0
10
-110.81140641693796
20
65.701441690974676
30
0
0
SPLINE
5
324
100
AcDbEntity
8
0
100
AcDbSpline
70
0
71
2
72
6
73
3
74
0
42
0.000000001
43
0.0000000001
44
0.0000000001
40
0
40
0
40
0
40
1
40
1
40
1
10
-110.81140641693796
20
65.701441690974676
30
0
10
-110.39189760212625
20
65.701441690974676
30
0
10
-110.15144710068429
20
65.827298090510808
30
0
0
SPLINE
5
325
100
AcDbEntity
8
0
100
AcDbSpline
70
0
71
2
72
6
73
3
74
0
42
0.000000001
43
0.0000000001
44
0.0000000001
40
0
40
0
40
0
40
1
40
1
40
1
10
-110.15144710068429
20
65.827298090510808
30
0
10
-109.91099719528879
20
65.953144953303777
30
0
10
-109.77798227791513
20
66.193599627070867
30
0
0
SPLINE
5
326
100
AcDbEntity
8
0
100
AcDbSpline
70
0
71
2
72
6
73
3
74
0
42
0.000000001
43
0.0000000001
44
0.0000000001
40
0
40
0
40
0
40
1
40
1
40
1
10
-109.77798227791513
20
66.193599627070867
30
0
10
-109.64496736054147
20
66.434049532466375
30
0
10
-109.64496736054147
20
66.718497202449285
30
0
0
SPLINE
5
327
100
AcDbEntity
8
0
100
AcDbSpline
70
0
71
2
72
6
73
3
74
0
42
0.000000001
43
0.0000000001
44
0.0000000001
40
0
40
0
40
0
40
1
40
1
40
1
10
-109.64496736054147
20
66.718497202449285
30
0
10
-109.64496736054147
20
67.17483989959284
30
0
10
-109.93759994034494
20
67.456221506648504
30
0
0
SPLINE
5
328
100
AcDbEntity
8
0
100
AcDbSpline
70
0
71
2
72
6
73
3
74
0
42
0.000000001
43
0.0000000001
44
0.0000000001
40
0
40
0
40
0
40
1
40
1
40
1
10
-109.93759994034494
20
67.456221506648504
30
0
10
-110.23023311619485
20
67.737593576961004
30
0
10
-110.78071062092508
20
67.737593576961004
30
0
0
SPLINE
5
329
100
AcDbEntity
8
0
100
AcDbSpline
70
0
71
2
72
6
73
3
74
0
42
0.000000001
43
0.0000000001
44
0.0000000001
40
0
40
0
40
0
40
1
40
1
40
1
10
-110.78071062092508
20
67.359013483577215
30
0
10
-110.36324803356851
20
67.359013483577215
30
0
10
-110.15554015164102
20
67.176885531001531
30
0
0
SPLINE
5
330
100
AcDbEntity
8
0
100
AcDbSpline
70
0
71
2
72
6
73
3
74
0
42
0.000000001
43
0.0000000001
44
0.0000000001
40
0
40
0
40
0
40
1
40
1
40
1
10
-110.15554015164102
20
67.176885531001531
30
0
10
-109.94783226971353
20
66.994757578425848
30
0
10
-109.94783226971353
20
66.718497202449285
30
0
0
SPLINE
5
331
100
AcDbEntity
8
0
100
AcDbSpline
70
0
71
2
72
6
73
3
74
0
42
0.000000001
43
0.0000000001
44
0.0000000001
40
0
40
0
40
0
40
1
40
1
40
1
10
-109.94783226971353
20
66.718497202449285
30
0
10
-109.94783226971353
20
66.444277689509832
30
0
10
-110.15656356339181
20
66.26215450530573
30
0
0
SPLINE
5
332
100
AcDbEntity
8
0
100
AcDbSpline
70
0
71
2
72
6
73
3
74
0
42
0.000000001
43
0.0000000001
44
0.0000000001
40
0
40
0
40
0
40
1
40
1
40
1
10
-110.15656356339181
20
66.26215450530573
30
0
10
-110.36529426102365
20
66.080021784358465
30
0
10
-110.79298917774881
20
66.080021784358465
30
0
0
SPLINE
5
333
100
AcDbEntity
8
0
100
AcDbSpline
70
0
71
2
72
6
73
3
74
0
42
0.000000001
43
0.0000000001
44
0.0000000001
40
0
40
0
40
0
40
1
40
1
40
1
10
-110.79298917774881
20
66.080021784358465
30
0
10
-111.19612698082651
20
66.080021784358465
30
0
10
-111.403834862754
20
66.263174936824285
30
0
0
SPLINE
5
334
100
AcDbEntity
8
0
100
AcDbSpline
70
0
71
2
72
6
73
3
74
0
42
0.000000001
43
0.0000000001
44
0.0000000001
40
0
40
0
40
0
40
1
40
1
40
1
10
-111.403834862754
20
66.263174936824285
30
0
10
-111.61154274468149
20
66.446328089290105
30
0
10
-111.61154274468149
20
66.718497202449285
30
0
0
SPLINE
5
335
100
AcDbEntity
8
0
100
AcDbSpline
70
0
71
2
72
6
73
3
74
0
42
0.000000001
43
0.0000000001
44
0.0000000001
40
0
40
0
40
0
40
1
40
1
40
1
10
-111.61154274468149
20
66.718497202449285
30
0
10
-111.61154274468149
20
66.994757578425848
30
0
10
-111.40485827450479
20
67.176885531001531
30
0
0
SPLINE
5
336
100
AcDbEntity
8
0
100
AcDbSpline
70
0
71
2
72
6
73
3
74
0
42
0.000000001
43
0.0000000001
44
0.0000000001
40
0
40
0
40
0
40
1
40
1
40
1
10
-111.40485827450479
20
67.176885531001531
30
0
10
-111.19817320828164
20
67.359013483577215
30
0
10
-110.78071062092508
20
67.359013483577215
30
0
0
LWPOLYLINE
5
337
100
AcDbEntity
8
0
100
AcDbPolyline
90
4
70
1
43
0.0
10
-112.69408051495279
20
65.27784340148493
10
-109.6940803957435
20
65.27784340148493
10
-109.6940803957435
20
64.909491465144598
10
-112.69408051495279
20
64.909491465144598
0
LINE
5
338
100
AcDbEntity
8
0
100
AcDbLine
10
-109.6940803957435
20
62.928595469050848
30
0
11
-109.96829573635782
21
62.928595469050848
31
0
0
SPLINE
5
339
100
AcDbEntity
8
0
100
AcDbSpline
70
0
71
2
72
6
73
3
74
0
42
0.000000001
43
0.0000000001
44
0.0000000001
40
0
40
0
40
0
40
1
40
1
40
1
10
-109.96829573635782
20
62.928595469050848
30
0
10
-109.64496736054147
20
63.13527576690241
30
0
10
-109.64496736054147
20
63.536372110896551
30
0
0
SPLINE
5
340
100
AcDbEntity
8
0
100
AcDbSpline
70
0
71
2
72
6
73
3
74
0
42
0.000000001
43
0.0000000001
44
0.0000000001
40
0
40
0
40
0
40
1
40
1
40
1
10
-109.64496736054147
20
63.536372110896551
30
0
10
-109.64496736054147
20
63.796257898860418
30
0
10
-109.78821401123727
20
64.014201090388738
30
0
0
SPLINE
5
341
100
AcDbEntity
8
0
100
AcDbSpline
70
0
71
2
72
6
73
3
74
0
42
0.000000001
43
0.0000000001
44
0.0000000001
40
0
40
0
40
0
40
1
40
1
40
1
10
-109.78821401123727
20
64.014201090388738
30
0
10
-109.93146125797952
20
64.232139513545476
30
0
10
-110.18828217510904
20
64.351854250483953
30
0
0
SPLINE
5
342
100
AcDbEntity
8
0
100
AcDbSpline
70
0
71
2
72
6
73
3
74
0
42
0.000000001
43
0.0000000001
44
0.0000000001
40
0
40
0
40
0
40
1
40
1
40
1
10
-110.18828217510904
20
64.351854250483953
30
0
10
-110.445103688285
20
64.471564219050848
30
0
10
-110.77866439346994
20
64.471564219050848
30
0
0
SPLINE
5
343
100
AcDbEntity
8
0
100
AcDbSpline
70
0
71
2
72
6
73
3
74
0
42
0.000000001
43
0.0000000001
44
0.0000000001
40
0
40
0
40
0
40
1
40
1
40
1
10
-110.77866439346994
20
64.471564219050848
30
0
10
-111.10403959278787
20
64.471564219050848
30
0
10
-111.36904601578439
20
64.363107607417547
30
0
0
SPLINE
5
344
100
AcDbEntity
8
0
100
AcDbSpline
70
0
71
2
72
6
73
3
74
0
42
0.000000001
43
0.0000000001
44
0.0000000001
40
0
40
0
40
0
40
1
40
1
40
1
10
-111.36904601578439
20
64.363107607417547
30
0
10
-111.63405303482736
20
64.254650995784246
30
0
10
-111.77525345806802
20
64.037733004146062
30
0
0
SPLINE
5
345
100
AcDbEntity
8
0
100
AcDbSpline
70
0
71
2
72
6
73
3
74
0
42
0.000000001
43
0.0000000001
44
0.0000000001
40
0
40
0
40
0
40
1
40
1
40
1
10
-111.77525345806802
20
64.037733004146062
30
0
10
-111.91645388130868
20
63.820815012507879
30
0
10
-111.91645388130868
20
63.552737162166082
30
0
0
SPLINE
5
346
100
AcDbEntity
8
0
100
AcDbSpline
70
0
71
2
72
6
73
3
74
0
42
0.000000001
43
0.0000000001
44
0.0000000001
40
0
40
0
40
0
40
1
40
1
40
1
10
-111.91645388130868
20
63.552737162166082
30
0
10
-111.91645388130868
20
63.356289789729558
30
0
10
-111.83357541088785
20
63.202805445247137
30
0
0
SPLINE
5
347
100
AcDbEntity
8
0
100
AcDbSpline
70
0
71
2
72
6
73
3
74
0
42
0.000000001
43
0.0000000001
44
0.0000000001
40
0
40
0
40
0
40
1
40
1
40
1
10
-111.83357541088785
20
63.202805445247137
30
0
10
-111.75069694046701
20
63.049330637507879
30
0
10
-111.61768202309335
20
62.953152582698308
30
0
0
LINE
5
348
100
AcDbEntity
8
0
100
AcDbLine
10
-111.61768202309335
20
62.953152582698301
30
0
11
-112.69408021692956
21
62.953152582698308
31
0
0
LINE
5
349
100
AcDbEntity
8
0
100
AcDbLine
10
-112.69408021692956
20
62.953152582698308
30
0
11
-112.69408021692956
21
62.586846277766668
31
0
0
LINE
5
350
100
AcDbEntity
8
0
100
AcDbLine
10
-112.69408021692956
20
62.586846277766668
30
0
11
-109.6940803957435
21
62.586846277766668
31
0
0
LINE
5
351
100
AcDbEntity
8
0
100
AcDbLine
10
-109.6940803957435
20
62.586846277766668
30
0
11
-109.6940803957435
21
62.928595469050848
31
0
0
SPLINE
5
352
100
AcDbEntity
8
0
100
AcDbSpline
70
0
71
2
72
6
73
3
74
0
42
0.000000001
43
0.0000000001
44
0.0000000001
40
0
40
0
40
0
40
1
40
1
40
1
10
-110.77866439346994
20
64.092984125667058
30
0
10
-110.36120180611337
20
64.092984125667058
30
0
10
-110.15451673989023
20
63.916993067317449
30
0
0
SPLINE
5
353
100
AcDbEntity
8
0
100
AcDbSpline
70
0
71
2
72
6
73
3
74
0
42
0.000000001
43
0.0000000001
44
0.0000000001
40
0
40
0
40
0
40
1
40
1
40
1
10
-110.15451673989023
20
63.916993067317449
30
0
10
-109.94783226971353
20
63.741006777339422
30
0
10
-109.94783226971353
20
63.501582071834051
30
0
0
SPLINE
5
354
100
AcDbEntity
8
0
100
AcDbSpline
70
0
71
2
72
6
73
3
74
0
42
0.000000001
43
0.0000000001
44
0.0000000001
40
0
40
0
40
0
40
1
40
1
40
1
10
-109.94783226971353
20
63.501582071834051
30
0
10
-109.94783226971353
20
63.260106966548406
30
0
10
-110.14530841831888
20
63.09128277068659
30
0
0
SPLINE
5
355
100
AcDbEntity
8
0
100
AcDbSpline
70
0
71
2
72
6
73
3
74
0
42
0.000000001
43
0.0000000001
44
0.0000000001
40
0
40
0
40
0
40
1
40
1
40
1
10
-110.14530841831888
20
63.09128277068659
30
0
10
-110.34278397087778
20
62.922453806453191
30
0
10
-110.74796859745706
20
62.922453806453191
30
0
0
SPLINE
5
356
100
AcDbEntity
8
0
100
AcDbSpline
70
0
71
2
72
6
73
3
74
0
42
0.000000001
43
0.0000000001
44
0.0000000001
40
0
40
0
40
0
40
1
40
1
40
1
10
-110.74796859745706
20
62.922453806453191
30
0
10
-111.19408015732492
20
62.922453806453191
30
0
10
-111.4028114510032
20
63.094348833613836
30
0
0
SPLINE
5
357
100
AcDbEntity
8
0
100
AcDbSpline
70
0
71
2
72
6
73
3
74
0
42
0.000000001
43
0.0000000001
44
0.0000000001
40
0
40
0
40
0
40
1
40
1
40
1
10
-111.4028114510032
20
63.094348833613836
30
0
10
-111.61154274468149
20
63.26624386077448
30
0
10
-111.61154274468149
20
63.517951891475164
30
0
0
SPLINE
5
358
100
AcDbEntity
8
0
100
AcDbSpline
70
0
71
2
72
6
73
3
74
0
42
0.000000001
43
0.0000000001
44
0.0000000001
40
0
40
0
40
0
40
1
40
1
40
1
10
-111.61154274468149
20
63.517951891475164
30
0
10
-111.61154274468149
20
63.763518259578191
30
0
10
-111.41099695687021
20
63.928251192622625
30
0
0
SPLINE
5
359
100
AcDbEntity
8
0
100
AcDbSpline
70
0
71
2
72
6
73
3
74
0
42
0.000000001
43
0.0000000001
44
0.0000000001
40
0
40
0
40
0
40
1
40
1
40
1
10
-111.41099695687021
20
63.928251192622625
30
0
10
-111.21045116905893
20
64.092984125667058
30
0
10
-110.77866439346994
20
64.092984125667058
30
0
0
LINE
5
360
100
AcDbEntity
8
0
100
AcDbLine
10
-110.39394382958139
20
60.519995615535223
30
0
11
-110.3468770218345
21
60.139369890742742
31
0
0
SPLINE
5
361
100
AcDbEntity
8
0
100
AcDbSpline
70
0
71
2
72
6
73
3
74
0
42
0.000000001
43
0.0000000001
44
0.0000000001
40
0
40
0
40
0
40
1
40
1
40
1
10
-110.3468770218345
20
60.139369890742742
30
0
10
-110.01331631664956
20
60.229411051326238
30
0
10
-109.82914154057229
20
60.472931788020574
30
0
0
SPLINE
5
362
100
AcDbEntity
8
0
100
AcDbSpline
70
0
71
2
72
6
73
3
74
0
42
0.000000001
43
0.0000000001
44
0.0000000001
40
0
40
0
40
0
40
1
40
1
40
1
10
-109.82914154057229
20
60.472931788020574
30
0
10
-109.64496736054147
20
60.71645252471491
30
0
10
-109.64496736054147
20
61.095032618098699
30
0
0
SPLINE
5
363
100
AcDbEntity
8
0
100
AcDbSpline
70
0
71
2
72
6
73
3
74
0
42
0.000000001
43
0.0000000001
44
0.0000000001
40
0
40
0
40
0
40
1
40
1
40
1
10
-109.64496736054147
20
61.095032618098699
30
0
10
-109.64496736054147
20
61.571841166072332
30
0
10
-109.93862335209573
20
61.851172373347723
30
0
0
SPLINE
5
364
100
AcDbEntity
8
0
100
AcDbSpline
70
0
71
2
72
6
73
3
74
0
42
0.000000001
43
0.0000000001
44
0.0000000001
40
0
40
0
40
0
40
1
40
1
40
1
10
-109.93862335209573
20
61.851172373347723
30
0
10
-110.23227934364999
20
62.130503580623113
30
0
10
-110.76229338173593
20
62.130503580623113
30
0
0
SPLINE
5
365
100
AcDbEntity
8
0
100
AcDbSpline
70
0
71
2
72
6
73
3
74
0
42
0.000000001
43
0.0000000001
44
0.0000000001
40
0
40
0
40
0
40
1
40
1
40
1
10
-110.76229338173593
20
62.130503580623113
30
0
10
-111.31072406296457
20
62.130503580623113
30
0
10
-111.61358956818307
20
61.848101542048894
30
0
0
SPLINE
5
366
100
AcDbEntity
8
0
100
AcDbSpline
70
0
71
2
72
6
73
3
74
0
42
0.000000001
43
0.0000000001
44
0.0000000001
40
0
40
0
40
0
40
1
40
1
40
1
10
-111.61358956818307
20
61.848101542048894
30
0
10
-111.91645447735513
20
61.565699503474676
30
0
10
-111.91645447735513
20
61.115493700557195
30
0
0
SPLINE
5
367
100
AcDbEntity
8
0
100
AcDbSpline
70
0
71
2
72
6
73
3
74
0
42
0.000000001
43
0.0000000001
44
0.0000000001
40
0
40
0
40
0
40
1
40
1
40
1
10
-111.91645447735513
20
61.115493700557195
30
0
10
-111.91645447735513
20
60.679612085872137
30
0
10
-111.61972884659494
20
60.403351709895574
30
0
0
SPLINE
5
368
100
AcDbEntity
8
0
100
AcDbSpline
70
0
71
2
72
6
73
3
74
0
42
0.000000001
43
0.0000000001
44
0.0000000001
40
0
40
0
40
0
40
1
40
1
40
1
10
-111.61972884659494
20
60.403351709895574
30
0
10
-111.3230026197883
20
60.127091333919012
30
0
10
-110.7848036718818
20
60.127091333919012
30
0
0
SPLINE
5
369
100
AcDbEntity
8
0
100
AcDbSpline
70
0
71
2
72
6
73
3
74
0
42
0.000000001
43
0.0000000001
44
0.0000000001
40
0
40
0
40
0
40
1
40
1
40
1
10
-110.7848036718818
20
60.127091333919012
30
0
10
-110.75206105236734
20
60.127091333919012
30
0
10
-110.6865770054313
20
60.129136965327703
30
0
0
LINE
5
370
100
AcDbEntity
8
0
100
AcDbLine
10
-110.6865770054313
20
60.129136965327703
30
0
11
-110.6865770054313
21
61.749873087459051
31
0
0
SPLINE
5
371
100
AcDbEntity
8
0
100
AcDbSpline
70
0
71
2
72
6
73
3
74
0
42
0.000000001
43
0.0000000001
44
0.0000000001
40
0
40
0
40
0
40
1
40
1
40
1
10
-110.6865770054313
20
61.749873087459051
30
0
10
-110.32845978264535
20
61.729407236628973
30
0
10
-110.13814572815622
20
61.547284052424871
30
0
0
SPLINE
5
372
100
AcDbEntity
8
0
100
AcDbSpline
70
0
71
2
72
6
73
3
74
0
42
0.000000001
43
0.0000000001
44
0.0000000001
40
0
40
0
40
0
40
1
40
1
40
1
10
-110.13814572815622
20
61.547284052424871
30
0
10
-109.94783226971353
20
61.365151331477605
30
0
10
-109.94783226971353
20
61.092982218318426
30
0
0
SPLINE
5
373
100
AcDbEntity
8
0
100
AcDbSpline
70
0
71
2
72
6
73
3
74
0
42
0.000000001
43
0.0000000001
44
0.0000000001
40
0
40
0
40
0
40
1
40
1
40
1
10
-109.94783226971353
20
61.092982218318426
30
0
10
-109.94783226971353
20
60.890393183284246
30
0
10
-110.05424384598459
20
60.747141764216863
30
0
0
SPLINE
5
374
100
AcDbEntity
8
0
100
AcDbSpline
70
0
71
2
72
6
73
3
74
0
42
0.000000001
43
0.0000000001
44
0.0000000001
40
0
40
0
40
0
40
1
40
1
40
1
10
-110.05424384598459
20
60.747141764216863
30
0
10
-110.16065601830209
20
60.603899881892644
30
0
10
-110.39394382958139
20
60.519995615535223
30
0
0
LINE
5
375
100
AcDbEntity
8
0
100
AcDbLine
10
-110.98944191460336
20
61.729407236628973
30
0
11
-110.98944191460336
21
60.51590435271784
31
0
0
SPLINE
5
376
100
AcDbEntity
8
0
100
AcDbSpline
70
0
71
2
72
6
73
3
74
0
42
0.000000001
43
0.0000000001
44
0.0000000001
40
0
40
0
40
0
40
1
40
1
40
1
10
-110.98944191460336
20
60.51590435271784
30
0
10
-111.26365785126413
20
60.540461466365301
30
0
10
-111.40076522354806
20
60.655054972224676
30
0
0
SPLINE
5
377
100
AcDbEntity
8
0
100
AcDbSpline
70
0
71
2
72
6
73
3
74
0
42
0.000000001
43
0.0000000001
44
0.0000000001
40
0
40
0
40
0
40
1
40
1
40
1
10
-111.40076522354806
20
60.655054972224676
30
0
10
-111.61358956818307
20
60.831046030574285
30
0
10
-111.61358956818307
20
61.111402437739812
30
0
0
SPLINE
5
378
100
AcDbEntity
8
0
100
AcDbSpline
70
0
71
2
72
6
73
3
74
0
42
0.000000001
43
0.0000000001
44
0.0000000001
40
0
40
0
40
0
40
1
40
1
40
1
10
-111.61358956818307
20
61.111402437739812
30
0
10
-111.61358956818307
20
61.365151331477605
30
0
10
-111.44373957638467
20
61.538071558528387
30
0
0
SPLINE
5
379
100
AcDbEntity
8
0
100
AcDbSpline
70
0
71
2
72
6
73
3
74
0
42
0.000000001
43
0.0000000001
44
0.0000000001
40
0
40
0
40
0
40
1
40
1
40
1
10
-111.44373957638467
20
61.538071558528387
30
0
10
-111.27388958458627
20
61.710991785579168
30
0
10
-110.98944191460336
20
61.729407236628973
30
0
0
LINE
5
380
100
AcDbEntity
8
0
100
AcDbLine
10
-109.6940803957435
20
59.680981562190496
30
0
11
-111.86734084610666
21
59.680981562190496
31
0
0
LINE
5
381
100
AcDbEntity
8
0
100
AcDbLine
10
-111.86734084610666
20
59.680981562190496
30
0
11
-111.86734084610666
21
59.349465296321355
31
0
0
LINE
5
382
100
AcDbEntity
8
0
100
AcDbLine
10
-111.86734084610666
20
59.349465296321355
30
0
11
-111.53787319187845
21
59.349465296321355
31
0
0
SPLINE
5
383
100
AcDbEntity
8
0
100
AcDbSpline
70
0
71
2
72
6
73
3
74
0
42
0.000000001
43
0.0000000001
44
0.0000000001
40
0
40
0
40
0
40
1
40
1
40
1
10
-111.53787319187845
20
59.349465296321355
30
0
10
-111.7691147757026
20
59.222588465266668
30
0
10
-111.84278432850564
20
59.115157053523504
30
0
0
SPLINE
5
384
100
AcDbEntity
8
0
100
AcDbSpline
70
0
71
2
72
6
73
3
74
0
42
0.000000001
43
0.0000000001
44
0.0000000001
40
0
40
0
40
0
40
1
40
1
40
1
10
-111.84278432850564
20
59.115157053523504
30
0
10
-111.91645388130868
20
59.007716105037176
30
0
10
-111.91645388130868
20
58.878798410945379
30
0
0
SPLINE
5
385
100
AcDbEntity
8
0
100
AcDbSpline
70
0
71
2
72
6
73
3
74
0
42
0.000000001
43
0.0000000001
44
0.0000000001
40
0
40
0
40
0
40
1
40
1
40
1
10
-111.91645388130868
20
58.878798410945379
30
0
10
-111.91645388130868
20
58.69257442718073
30
0
10
-111.7977637482139
20
58.50021831756159
30
0
0
LINE
5
386
100
AcDbEntity
8
0
100
AcDbLine
10
-111.7977637482139
20
58.500218317561597
30
0
11
-111.45601753716196
21
58.627090380244695
31
0
0
SPLINE
5
387
100
AcDbEntity
8
0
100
AcDbSpline
70
0
71
2
72
6
73
3
74
0
42
0.000000001
43
0.0000000001
44
0.0000000001
40
0
40
0
40
0
40
1
40
1
40
1
10
-111.45601753716196
20
58.627090380244695
30
0
10
-111.53582696442331
20
58.76215450530573
30
0
10
-111.53582696442331
20
58.897213861995183
30
0
0
SPLINE
5
388
100
AcDbEntity
8
0
100
AcDbSpline
70
0
71
2
72
6
73
3
74
0
42
0.000000001
43
0.0000000001
44
0.0000000001
40
0
40
0
40
0
40
1
40
1
40
1
10
-111.53582696442331
20
58.897213861995183
30
0
10
-111.53582696442331
20
59.017949030452215
30
0
10
-111.46318022732461
20
59.114127085261785
30
0
0
SPLINE
5
389
100
AcDbEntity
8
0
100
AcDbSpline
70
0
71
2
72
6
73
3
74
0
42
0.000000001
43
0.0000000001
44
0.0000000001
40
0
40
0
40
0
40
1
40
1
40
1
10
-111.46318022732461
20
59.114127085261785
30
0
10
-111.39053349022592
20
59.210309908442937
30
0
10
-111.26161102776254
20
59.251236841731512
30
0
0
SPLINE
5
390
100
AcDbEntity
8
0
100
AcDbSpline
70
0
71
2
72
6
73
3
74
0
42
0.000000001
43
0.0000000001
44
0.0000000001
40
0
40
0
40
0
40
1
40
1
40
1
10
-111.26161102776254
20
59.251236841731512
30
0
10
-111.06515829090799
20
59.312629625850164
30
0
10
-110.83187047962869
20
59.312629625850164
30
0
0
LINE
5
391
100
AcDbEntity
8
0
100
AcDbLine
10
-110.83187047962869
20
59.312629625850164
30
0
11
-109.6940803957435
21
59.312629625850164
31
0
0
LINE
5
392
100
AcDbEntity
8
0
100
AcDbLine
10
-109.6940803957435
20
59.312629625850164
30
0
11
-109.6940803957435
21
59.680981562190496
31
0
0
LINE
5
393
100
AcDbEntity
8
0
100
AcDbLine
10
-110.02354864601816
20
56.312627718501531
30
0
11
-109.69817344670022
21
56.259422228389226
31
0
0
SPLINE
5
394
100
AcDbEntity
8
0
100
AcDbSpline
70
0
71
2
72
6
73
3
74
0
42
0.000000001
43
0.0000000001
44
0.0000000001
40
0
40
0
40
0
40
1
40
1
40
1
10
-109.69817344670022
20
56.259422228389226
30
0
10
-109.66543082718576
20
56.414947435908758
30
0
10
-109.66543082718576
20
56.537733004146062
30
0
0
SPLINE
5
395
100
AcDbEntity
8
0
100
AcDbSpline
70
0
71
2
72
6
73
3
74
0
42
0.000000001
43
0.0000000001
44
0.0000000001
40
0
40
0
40
0
40
1
40
1
40
1
10
-109.66543082718576
20
56.537733004146062
30
0
10
-109.66543082718576
20
56.738276407771551
30
0
10
-109.72886864666665
20
56.848783419185125
30
0
0
SPLINE
5
396
100
AcDbEntity
8
0
100
AcDbSpline
70
0
71
2
72
6
73
3
74
0
42
0.000000001
43
0.0000000001
44
0.0000000001
40
0
40
0
40
0
40
1
40
1
40
1
10
-109.72886864666665
20
56.848783419185125
30
0
10
-109.792307062194
20
56.959285662227117
30
0
10
-109.89564899925912
20
57.004308626704656
30
0
0
SPLINE
5
397
100
AcDbEntity
8
0
100
AcDbSpline
70
0
71
2
72
6
73
3
74
0
42
0.000000001
43
0.0000000001
44
0.0000000001
40
0
40
0
40
0
40
1
40
1
40
1
10
-109.89564899925912
20
57.004308626704656
30
0
10
-109.9989915323707
20
57.049326822810613
30
0
10
-110.33050601010049
20
57.049326822810613
30
0
0
LINE
5
398
100
AcDbEntity
8
0
100
AcDbLine
10
-110.33050601010049
20
57.049326822810613
30
0
11
-111.58084694866861
21
57.049326822810613
31
0
0
LINE
5
399
100
AcDbEntity
8
0
100
AcDbLine
10
-111.58084694866861
20
57.049326822810613
30
0
11
-111.58084694866861
21
57.319450304561101
31
0
0
LINE
5
400
100
AcDbEntity
8
0
100
AcDbLine
10
-111.58084694866861
20
57.319450304561101
30
0
11
-111.86734084610666
21
57.319450304561101
31
0
0
LINE
5
401
100
AcDbEntity
8
0
100
AcDbLine
10
-111.86734084610666
20
57.319450304561101
30
0
11
-111.86734084610666
21
57.049326822810613
31
0
0
LINE
5
402
100
AcDbEntity
8
0
100
AcDbLine
10
-111.86734084610666
20
57.049326822810613
30
0
11
-112.4055403900596
21
57.049326822810613
31
0
0
LINE
5
403
100
AcDbEntity
8
0
100
AcDbLine
10
-112.4055403900596
20
57.049326822810613
30
0
11
-112.62654994253839
21
56.683025286250555
31
0
0
LINE
5
404
100
AcDbEntity
8
0
100
AcDbLine
10
-112.62654994253839
20
56.683025286250555
30
0
11
-111.86734084610666
21
56.683025286250555
31
0
0
LINE
5
405
100
AcDbEntity
8
0
100
AcDbLine
10
-111.86734084610666
20
56.683025286250555
30
0
11
-111.86734084610666
21
56.312627718501531
31
0
0
LINE
5
406
100
AcDbEntity
8
0
100
AcDbLine
10
-111.86734084610666
20
56.312627718501531
30
0
11
-111.58084694866861
21
56.312627718501531
31
0
0
LINE
5
407
100
AcDbEntity
8
0
100
AcDbLine
10
-111.58084694866861
20
56.312627718501531
30
0
11
-111.58084694866861
21
56.683025286250555
31
0
0
LINE
5
408
100
AcDbEntity
8
0
100
AcDbLine
10
-111.58084694866861
20
56.683025286250555
30
0
11
-110.31004194740976
21
56.683025286250555
31
0
0
SPLINE
5
409
100
AcDbEntity
8
0
100
AcDbSpline
70
0
71
2
72
6
73
3
74
0
42
0.000000001
43
0.0000000001
44
0.0000000001
40
0
40
0
40
0
40
1
40
1
40
1
10
-110.31004194740976
20
56.683025286250555
30
0
10
-110.15247051243509
20
56.683025286250555
30
0
10
-110.10744993214334
20
56.663584635310613
30
0
0
SPLINE
5
410
100
AcDbEntity
8
0
100
AcDbSpline
70
0
71
2
72
6
73
3
74
0
42
0.000000001
43
0.0000000001
44
0.0000000001
40
0
40
0
40
0
40
1
40
1
40
1
10
-110.10744993214334
20
56.663584635310613
30
0
10
-110.06242994789804
20
56.644143984370672
30
0
10
-110.03582660679544
20
56.600146219783269
30
0
0
SPLINE
5
411
100
AcDbEntity
8
0
100
AcDbSpline
70
0
71
2
72
6
73
3
74
0
42
0.000000001
43
0.0000000001
44
0.0000000001
40
0
40
0
40
0
40
1
40
1
40
1
10
-110.03582660679544
20
56.600146219783269
30
0
10
-110.00922386173929
20
56.556148455195867
30
0
10
-110.00922386173929
20
56.474294588618719
30
0
0
SPLINE
5
412
100
AcDbEntity
8
0
100
AcDbSpline
70
0
71
2
72
6
73
3
74
0
42
0.000000001
43
0.0000000001
44
0.0000000001
40
0
40
0
40
0
40
1
40
1
40
1
10
-110.00922386173929
20
56.474294588618719
30
0
10
-110.00922386173929
20
56.412901804500066
30
0
10
-110.02354864601816
20
56.312627718501531
30
0
0
SPLINE
5
413
100
AcDbEntity
8
0
100
AcDbSpline
70
0
71
2
72
6
73
3
74
0
42
0.000000001
43
0.0000000001
44
0.0000000001
40
0
40
0
40
0
40
1
40
1
40
1
10
-110.78071062092508
20
56.089572832637273
30
0
10
-111.38439421181405
20
56.089572832637273
30
0
10
-111.67498116020883
20
55.75396530395075
30
0
0
SPLINE
5
414
100
AcDbEntity
8
0
100
AcDbSpline
70
0
71
2
72
6
73
3
74
0
42
0.000000001
43
0.0000000001
44
0.0000000001
40
0
40
0
40
0
40
1
40
1
40
1
10
-111.67498116020883
20
55.75396530395075
30
0
10
-111.91645447735513
20
55.473608896785223
30
0
10
-111.91645447735513
20
55.070471689753973
30
0
0
SPLINE
5
415
100
AcDbEntity
8
0
100
AcDbSpline
70
0
71
2
72
6
73
3
74
0
42
0.000000001
43
0.0000000001
44
0.0000000001
40
0
40
0
40
0
40
1
40
1
40
1
10
-111.91645447735513
20
55.070471689753973
30
0
10
-111.91645447735513
20
54.622316286616766
30
0
10
-111.62279788975442
20
54.337868616633855
30
0
0
SPLINE
5
416
100
AcDbEntity
8
0
100
AcDbSpline
70
0
71
2
72
6
73
3
74
0
42
0.000000001
43
0.0000000001
44
0.0000000001
40
0
40
0
40
0
40
1
40
1
40
1
10
-111.62279788975442
20
54.337868616633855
30
0
10
-111.32914189820016
20
54.053420946650945
30
0
10
-110.81140641693796
20
54.053420946650945
30
0
0
SPLINE
5
417
100
AcDbEntity
8
0
100
AcDbSpline
70
0
71
2
72
6
73
3
74
0
42
0.000000001
43
0.0000000001
44
0.0000000001
40
0
40
0
40
0
40
1
40
1
40
1
10
-110.81140641693796
20
54.053420946650945
30
0
10
-110.39189760212625
20
54.053420946650945
30
0
10
-110.15144710068429
20
54.179272577815496
30
0
0
SPLINE
5
418
100
AcDbEntity
8
0
100
AcDbSpline
70
0
71
2
72
6
73
3
74
0
42
0.000000001
43
0.0000000001
44
0.0000000001
40
0
40
0
40
0
40
1
40
1
40
1
10
-110.15144710068429
20
54.179272577815496
30
0
10
-109.91099719528879
20
54.305124208980047
30
0
10
-109.77798227791513
20
54.545574114375555
30
0
0
SPLINE
5
419
100
AcDbEntity
8
0
100
AcDbSpline
70
0
71
2
72
6
73
3
74
0
42
0.000000001
43
0.0000000001
44
0.0000000001
40
0
40
0
40
0
40
1
40
1
40
1
10
-109.77798227791513
20
54.545574114375555
30
0
10
-109.64496736054147
20
54.786024019771062
30
0
10
-109.64496736054147
20
55.070471689753973
30
0
0
SPLINE
5
420
100
AcDbEntity
8
0
100
AcDbSpline
70
0
71
2
72
6
73
3
74
0
42
0.000000001
43
0.0000000001
44
0.0000000001
40
0
40
0
40
0
40
1
40
1
40
1
10
-109.64496736054147
20
55.070471689753973
30
0
10
-109.64496736054147
20
55.526819155269109
30
0
10
-109.93759994034494
20
55.808195993953191
30
0
0
SPLINE
5
421
100
AcDbEntity
8
0
100
AcDbSpline
70
0
71
2
72
6
73
3
74
0
42
0.000000001
43
0.0000000001
44
0.0000000001
40
0
40
0
40
0
40
1
40
1
40
1
10
-109.93759994034494
20
55.808195993953191
30
0
10
-110.23023311619485
20
56.089572832637273
30
0
10
-110.78071062092508
20
56.089572832637273
30
0
0
SPLINE
5
422
100
AcDbEntity
8
0
100
AcDbSpline
70
0
71
2
72
6
73
3
74
0
42
0.000000001
43
0.0000000001
44
0.0000000001
40
0
40
0
40
0
40
1
40
1
40
1
10
-110.78071062092508
20
55.710992739253484
30
0
10
-110.36324803356851
20
55.710992739253484
30
0
10
-110.15554015164102
20
55.528864786677801
30
0
0
SPLINE
5
423
100
AcDbEntity
8
0
100
AcDbSpline
70
0
71
2
72
6
73
3
74
0
42
0.000000001
43
0.0000000001
44
0.0000000001
40
0
40
0
40
0
40
1
40
1
40
1
10
-110.15554015164102
20
55.528864786677801
30
0
10
-109.94783226971353
20
55.346736834102117
30
0
10
-109.94783226971353
20
55.070471689753973
30
0
0
SPLINE
5
424
100
AcDbEntity
8
0
100
AcDbSpline
70
0
71
2
72
6
73
3
74
0
42
0.000000001
43
0.0000000001
44
0.0000000001
40
0
40
0
40
0
40
1
40
1
40
1
10
-109.94783226971353
20
55.070471689753973
30
0
10
-109.94783226971353
20
54.796256945186101
30
0
10
-110.15656356339181
20
54.614128992610418
30
0
0
SPLINE
5
425
100
AcDbEntity
8
0
100
AcDbSpline
70
0
71
2
72
6
73
3
74
0
42
0.000000001
43
0.0000000001
44
0.0000000001
40
0
40
0
40
0
40
1
40
1
40
1
10
-110.15656356339181
20
54.614128992610418
30
0
10
-110.36529426102365
20
54.432001040034734
30
0
10
-110.79298917774881
20
54.432001040034734
30
0
0
SPLINE
5
426
100
AcDbEntity
8
0
100
AcDbSpline
70
0
71
2
72
6
73
3
74
0
42
0.000000001
43
0.0000000001
44
0.0000000001
40
0
40
0
40
0
40
1
40
1
40
1
10
-110.79298917774881
20
54.432001040034734
30
0
10
-111.19612698082651
20
54.432001040034734
30
0
10
-111.403834862754
20
54.615154192500555
30
0
0
SPLINE
5
427
100
AcDbEntity
8
0
100
AcDbSpline
70
0
71
2
72
6
73
3
74
0
42
0.000000001
43
0.0000000001
44
0.0000000001
40
0
40
0
40
0
40
1
40
1
40
1
10
-111.403834862754
20
54.615154192500555
30
0
10
-111.61154274468149
20
54.798302576594793
30
0
10
-111.61154274468149
20
55.070471689753973
30
0
0
SPLINE
5
428
100
AcDbEntity
8
0
100
AcDbSpline
70
0
71
2
72
6
73
3
74
0
42
0.000000001
43
0.0000000001
44
0.0000000001
40
0
40
0
40
0
40
1
40
1
40
1
10
-111.61154274468149
20
55.070471689753973
30
0
10
-111.61154274468149
20
55.346736834102117
30
0
10
-111.40485827450479
20
55.528864786677801
30
0
0
SPLINE
5
429
100
AcDbEntity
8
0
100
AcDbSpline
70
0
71
2
72
6
73
3
74
0
42
0.000000001
43
0.0000000001
44
0.0000000001
40
0
40
0
40
0
40
1
40
1
40
1
10
-111.40485827450479
20
55.528864786677801
30
0
10
-111.19817320828164
20
55.710992739253484
30
0
10
-110.78071062092508
20
55.710992739253484
30
0
0
LINE
5
430
100
AcDbEntity
8
0
100
AcDbLine
10
-108.86120204453195
20
53.621635363154851
30
0
11
-111.86734084610666
21
53.621635363154851
31
0
0
LINE
5
431
100
AcDbEntity
8
0
100
AcDbLine
10
-111.86734084610666
20
53.621635363154851
30
0
11
-111.86734084610666
21
53.286027834468328
31
0
0
LINE
5
432
100
AcDbEntity
8
0
100
AcDbLine
10
-111.86734084610666
20
53.286027834468328
30
0
11
-111.58493999962533
21
53.286027834468328
31
0
0
SPLINE
5
433
100
AcDbEntity
8
0
100
AcDbSpline
70
0
71
2
72
6
73
3
74
0
42
0.000000001
43
0.0000000001
44
0.0000000001
40
0
40
0
40
0
40
1
40
1
40
1
10
-111.58493999962533
20
53.286027834468328
30
0
10
-111.75069694046701
20
53.167338297419988
30
0
10
-111.83357600693429
20
53.017949984126531
30
0
0
SPLINE
5
434
100
AcDbEntity
8
0
100
AcDbSpline
70
0
71
2
72
6
73
3
74
0
42
0.000000001
43
0.0000000001
44
0.0000000001
40
0
40
0
40
0
40
1
40
1
40
1
10
-111.83357600693429
20
53.017949984126531
30
0
10
-111.91645388130868
20
52.868566439204656
30
0
10
-111.91645388130868
20
52.655739710383855
30
0
0
SPLINE
5
435
100
AcDbEntity
8
0
100
AcDbSpline
70
0
71
2
72
6
73
3
74
0
42
0.000000001
43
0.0000000001
44
0.0000000001
40
0
40
0
40
0
40
1
40
1
40
1
10
-111.91645388130868
20
52.655739710383855
30
0
10
-111.91645388130868
20
52.377433702998601
30
0
10
-111.77320723061288
20
52.164606974177801
30
0
0
SPLINE
5
436
100
AcDbEntity
8
0
100
AcDbSpline
70
0
71
2
72
6
73
3
74
0
42
0.000000001
43
0.0000000001
44
0.0000000001
40
0
40
0
40
0
40
1
40
1
40
1
10
-111.77320723061288
20
52.164606974177801
30
0
10
-111.62996057991708
20
51.951785013728582
30
0
10
-111.36904601578439
20
51.843328402095281
30
0
0
SPLINE
5
437
100
AcDbEntity
8
0
100
AcDbSpline
70
0
71
2
72
6
73
3
74
0
42
0.000000001
43
0.0000000001
44
0.0000000001
40
0
40
0
40
0
40
1
40
1
40
1
10
-111.36904601578439
20
51.843328402095281
30
0
10
-111.1081326437446
20
51.734867022090398
30
0
10
-110.79708163265909
20
51.734867022090398
30
0
0
SPLINE
5
438
100
AcDbEntity
8
0
100
AcDbSpline
70
0
71
2
72
6
73
3
74
0
42
0.000000001
43
0.0000000001
44
0.0000000001
40
0
40
0
40
0
40
1
40
1
40
1
10
-110.79708163265909
20
51.734867022090398
30
0
10
-110.46352092747415
20
51.734867022090398
30
0
10
-110.19646768097604
20
51.854581759028875
30
0
0
SPLINE
5
439
100
AcDbEntity
8
0
100
AcDbSpline
70
0
71
2
72
6
73
3
74
0
42
0.000000001
43
0.0000000001
44
0.0000000001
40
0
40
0
40
0
40
1
40
1
40
1
10
-110.19646768097604
20
51.854581759028875
30
0
10
-109.92941443447793
20
51.974296495967351
30
0
10
-109.78719119553293
20
52.202467844539129
30
0
0
SPLINE
5
440
100
AcDbEntity
8
0
100
AcDbSpline
70
0
71
2
72
6
73
3
74
0
42
0.000000001
43
0.0000000001
44
0.0000000001
40
0
40
0
40
0
40
1
40
1
40
1
10
-109.78719119553293
20
52.202467844539129
30
0
10
-109.64496736054147
20
52.430639193110906
30
0
10
-109.64496736054147
20
52.682342455440008
30
0
0
SPLINE
5
441
100
AcDbEntity
8
0
100
AcDbSpline
70
0
71
2
72
6
73
3
74
0
42
0.000000001
43
0.0000000001
44
0.0000000001
40
0
40
0
40
0
40
1
40
1
40
1
10
-109.64496736054147
20
52.682342455440008
30
0
10
-109.64496736054147
20
52.866520807795965
30
0
10
-109.72272996430124
20
53.012833521419012
30
0
0
SPLINE
5
442
100
AcDbEntity
8
0
100
AcDbSpline
70
0
71
2
72
6
73
3
74
0
42
0.000000001
43
0.0000000001
44
0.0000000001
40
0
40
0
40
0
40
1
40
1
40
1
10
-109.72272996430124
20
53.012833521419012
30
0
10
-109.800492568061
20
53.159151003413641
30
0
10
-109.91918270115579
20
53.253288195186101
30
0
0
LINE
5
443
100
AcDbEntity
8
0
100
AcDbLine
10
-109.91918270115579
20
53.253288195186101
30
0
11
-108.86120204453195
21
53.253288195186101
31
0
0
LINE
5
444
100
AcDbEntity
8
0
100
AcDbLine
10
-108.86120204453195
20
53.253288195186101
30
0
11
-108.86120204453195
21
53.621635363154851
31
0
0
SPLINE
5
445
100
AcDbEntity
8
0
100
AcDbSpline
70
0
71
2
72
6
73
3
74
0
42
0.000000001
43
0.0000000001
44
0.0000000001
40
0
40
0
40
0
40
1
40
1
40
1
10
-110.76843266014779
20
53.288073465877019
30
0
10
-110.34892324928964
20
53.288073465877019
30
0
10
-110.14837805752481
20
53.118224070125066
30
0
0
SPLINE
5
446
100
AcDbEntity
8
0
100
AcDbSpline
70
0
71
2
72
6
73
3
74
0
42
0.000000001
43
0.0000000001
44
0.0000000001
40
0
40
0
40
0
40
1
40
1
40
1
10
-110.14837805752481
20
53.118224070125066
30
0
10
-109.94783226971353
20
52.948374674373113
30
0
10
-109.94783226971353
20
52.706899569087469
30
0
0
SPLINE
5
447
100
AcDbEntity
8
0
100
AcDbSpline
70
0
71
2
72
6
73
3
74
0
42
0.000000001
43
0.0000000001
44
0.0000000001
40
0
40
0
40
0
40
1
40
1
40
1
10
-109.94783226971353
20
52.706899569087469
30
0
10
-109.94783226971353
20
52.461333200984441
30
0
10
-110.15554015164102
20
52.286367342524969
30
0
0
SPLINE
5
448
100
AcDbEntity
8
0
100
AcDbSpline
70
0
71
2
72
6
73
3
74
0
42
0.000000001
43
0.0000000001
44
0.0000000001
40
0
40
0
40
0
40
1
40
1
40
1
10
-110.15554015164102
20
52.286367342524969
30
0
10
-110.36324803356851
20
52.111401484065496
30
0
10
-110.79912845616067
20
52.111401484065496
30
0
0
SPLINE
5
449
100
AcDbEntity
8
0
100
AcDbSpline
70
0
71
2
72
6
73
3
74
0
42
0.000000001
43
0.0000000001
44
0.0000000001
40
0
40
0
40
0
40
1
40
1
40
1
10
-110.79912845616067
20
52.111401484065496
30
0
10
-111.21454422001565
20
52.111401484065496
30
0
10
-111.42122869019235
20
52.282276079707586
30
0
0
SPLINE
5
450
100
AcDbEntity
8
0
100
AcDbSpline
70
0
71
2
72
6
73
3
74
0
42
0.000000001
43
0.0000000001
44
0.0000000001
40
0
40
0
40
0
40
1
40
1
40
1
10
-111.42122869019235
20
52.282276079707586
30
0
10
-111.6279137564155
20
52.453150675349676
30
0
10
-111.6279137564155
20
52.690529749446355
30
0
0
SPLINE
5
451
100
AcDbEntity
8
0
100
AcDbSpline
70
0
71
2
72
6
73
3
74
0
42
0.000000001
43
0.0000000001
44
0.0000000001
40
0
40
0
40
0
40
1
40
1
40
1
10
-111.6279137564155
20
52.690529749446355
30
0
10
-111.6279137564155
20
52.925863192134344
30
0
10
-111.40792731766427
20
53.106970713191473
30
0
0
SPLINE
5
452
100
AcDbEntity
8
0
100
AcDbSpline
70
0
71
2
72
6
73
3
74
0
42
0.000000001
43
0.0000000001
44
0.0000000001
40
0
40
0
40
0
40
1
40
1
40
1
10
-111.40792731766427
20
53.106970713191473
30
0
10
-111.18794087891305
20
53.288073465877019
30
0
10
-110.76843266014779
20
53.288073465877019
30
0
0
LINE
5
453
100
AcDbEntity
8
0
100
AcDbLine
10
-26.073611042344368
20
142.48831504667723
30
0
11
-25.973522761537829
21
142.09127001381947
31
0
0
SPLINE
5
454
100
AcDbEntity
8
0
100
AcDbSpline
70
0
71
2
72
6
73
3
74
0
42
0.000000001
43
0.0000000001
44
0.0000000001
40
0
40
0
40
0
40
1
40
1
40
1
10
-25.973522761537829
20
142.09127001381944
30
0
10
-25.48437865218197
20
142.21587235642798
30
0
10
-25.227406886262052
20
142.54010488127787
30
0
0
SPLINE
5
455
100
AcDbEntity
8
0
100
AcDbSpline
70
0
71
2
72
6
73
3
74
0
42
0.000000001
43
0.0000000001
44
0.0000000001
40
0
40
0
40
0
40
1
40
1
40
1
10
-25.227406886262052
20
142.54010488127787
30
0
10
-24.970435120065424
20
142.86433800217412
30
0
10
-24.970217565080262
20
143.33295980168853
30
0
0
SPLINE
5
456
100
AcDbEntity
8
0
100
AcDbSpline
70
0
71
2
72
6
73
3
74
0
42
0.000000001
43
0.0000000001
44
0.0000000001
40
0
40
0
40
0
40
1
40
1
40
1
10
-24.970217565080262
20
143.33295980168853
30
0
10
-24.969992409670812
20
143.81795320721918
30
0
10
-25.167327458737748
20
144.12193287453195
30
0
0
SPLINE
5
457
100
AcDbEntity
8
0
100
AcDbSpline
70
0
71
2
72
6
73
3
74
0
42
0.000000001
43
0.0000000001
44
0.0000000001
40
0
40
0
40
0
40
1
40
1
40
1
10
-25.167327458737748
20
144.12193287453195
30
0
10
-25.364662507804681
20
144.42591254184475
30
0
10
-25.739077075228394
20
144.58468122547811
30
0
0
SPLINE
5
458
100
AcDbEntity
8
0
100
AcDbSpline
70
0
71
2
72
6
73
3
74
0
42
0.000000001
43
0.0000000001
44
0.0000000001
40
0
40
0
40
0
40
1
40
1
40
1
10
-25.739077075228394
20
144.58468122547811
30
0
10
-26.113491940675292
20
144.74344990924979
30
0
10
-26.543232740522914
20
144.74364941395368
30
0
0
SPLINE
5
459
100
AcDbEntity
8
0
100
AcDbSpline
70
0
71
2
72
6
73
3
74
0
42
0.000000001
43
0.0000000001
44
0.0000000001
40
0
40
0
40
0
40
1
40
1
40
1
10
-26.543232740522914
20
144.74364941395368
30
0
10
-27.011854838060515
20
144.74386696907717
30
0
10
-27.360846530578378
20
144.56497035578209
30
0
0
SPLINE
5
460
100
AcDbEntity
8
0
100
AcDbSpline
70
0
71
2
72
6
73
3
74
0
42
0.000000001
43
0.0000000001
44
0.0000000001
40
0
40
0
40
0
40
1
40
1
40
1
10
-27.360846530578378
20
144.56497035578209
30
0
10
-27.709838223096245
20
144.38607374248701
30
0
10
-27.89109647099535
20
144.05566678899677
30
0
0
SPLINE
5
461
100
AcDbEntity
8
0
100
AcDbSpline
70
0
71
2
72
6
73
3
74
0
42
0.000000001
43
0.0000000001
44
0.0000000001
40
0
40
0
40
0
40
1
40
1
40
1
10
-27.89109647099535
20
144.05566678899677
30
0
10
-28.072355016917648
20
143.72525983564492
30
0
10
-28.072539321464728
20
143.32826075771382
30
0
0
SPLINE
5
462
100
AcDbEntity
8
0
100
AcDbSpline
70
0
71
2
72
6
73
3
74
0
42
0.000000001
43
0.0000000001
44
0.0000000001
40
0
40
0
40
0
40
1
40
1
40
1
10
-28.072539321464728
20
143.32826075771382
30
0
10
-28.07274832635305
20
142.8780561954039
30
0
10
-27.843695795887644
20
142.57099246191865
30
0
0
SPLINE
5
463
100
AcDbEntity
8
0
100
AcDbSpline
70
0
71
2
72
6
73
3
74
0
42
0.000000001
43
0.0000000001
44
0.0000000001
40
0
40
0
40
0
40
1
40
1
40
1
10
-27.843695795887644
20
142.57099246191865
30
0
10
-27.614643265422238
20
142.26392872843337
30
0
10
-27.199283300020763
20
142.14299833429584
30
0
0
LINE
5
464
100
AcDbEntity
8
0
100
AcDbLine
10
-27.199283300020763
20
142.14299833429584
30
0
11
-27.107014467483026
21
142.53381538343905
31
0
0
SPLINE
5
465
100
AcDbEntity
8
0
100
AcDbSpline
70
0
71
2
72
6
73
3
74
0
42
0.000000001
43
0.0000000001
44
0.0000000001
40
0
40
0
40
0
40
1
40
1
40
1
10
-27.107014467483026
20
142.53381538343905
30
0
10
-27.434387407962781
20
142.63833272451325
30
0
10
-27.583681466722073
20
142.83690161517129
30
0
0
SPLINE
5
466
100
AcDbEntity
8
0
100
AcDbSpline
70
0
71
2
72
6
73
3
74
0
42
0.000000001
43
0.0000000001
44
0.0000000001
40
0
40
0
40
0
40
1
40
1
40
1
10
-27.583681466722073
20
142.83690161517129
30
0
10
-27.732975525481361
20
143.03547050582932
30
0
10
-27.732835872285506
20
143.33628885710641
30
0
0
SPLINE
5
467
100
AcDbEntity
8
0
100
AcDbSpline
70
0
71
2
72
6
73
3
74
0
42
0.000000001
43
0.0000000001
44
0.0000000001
40
0
40
0
40
0
40
1
40
1
40
1
10
-27.732835872285506
20
143.33628885710641
30
0
10
-27.732675318545471
20
143.68212778382377
30
0
10
-27.566810269999486
20
143.91431550450631
30
0
0
SPLINE
5
468
100
AcDbEntity
8
0
100
AcDbSpline
70
0
71
2
72
6
73
3
74
0
42
0.000000001
43
0.0000000001
44
0.0000000001
40
0
40
0
40
0
40
1
40
1
40
1
10
-27.566810269999486
20
143.91431550450631
30
0
10
-27.400945221453497
20
144.14650322518884
30
0
10
-27.121570045269134
20
144.24050715250189
30
0
0
SPLINE
5
469
100
AcDbEntity
8
0
100
AcDbSpline
70
0
71
2
72
6
73
3
74
0
42
0.000000001
43
0.0000000001
44
0.0000000001
40
0
40
0
40
0
40
1
40
1
40
1
10
-27.121570045269134
20
144.24050715250189
30
0
10
-26.842194869084778
20
144.33451107981494
30
0
10
-26.545469270300138
20
144.33437332665596
30
0
0
SPLINE
5
470
100
AcDbEntity
8
0
100
AcDbSpline
70
0
71
2
72
6
73
3
74
0
42
0.000000001
43
0.0000000001
44
0.0000000001
40
0
40
0
40
0
40
1
40
1
40
1
10
-26.545469270300138
20
144.33437332665596
30
0
10
-26.162794975104234
20
144.3341956723072
30
0
10
-25.877376296288755
20
144.22253541534732
30
0
0
SPLINE
5
471
100
AcDbEntity
8
0
100
AcDbSpline
70
0
71
2
72
6
73
3
74
0
42
0.000000001
43
0.0000000001
44
0.0000000001
40
0
40
0
40
0
40
1
40
1
40
1
10
-25.877376296288755
20
144.22253541534732
30
0
10
-25.591957319588442
20
144.11087486022586
30
0
10
-25.450866164169298
20
143.87547499734782
30
0
0
SPLINE
5
472
100
AcDbEntity
8
0
100
AcDbSpline
70
0
71
2
72
6
73
3
74
0
42
0.000000001
43
0.0000000001
44
0.0000000001
40
0
40
0
40
0
40
1
40
1
40
1
10
-25.450866164169298
20
143.87547499734782
30
0
10
-25.309774710588613
20
143.64007543235462
30
0
10
-25.309902013613844
20
143.36585982326693
30
0
0
SPLINE
5
473
100
AcDbEntity
8
0
100
AcDbSpline
70
0
71
2
72
6
73
3
74
0
42
0.000000001
43
0.0000000001
44
0.0000000001
40
0
40
0
40
0
40
1
40
1
40
1
10
-25.309902013613844
20
143.36585982326693
30
0
10
-25.310056867381551
20
143.03229885600376
30
0
10
-25.502524480888795
20
142.80114719529391
30
0
0
SPLINE
5
474
100
AcDbEntity
8
0
100
AcDbSpline
70
0
71
2
72
6
73
3
74
0
42
0.000000001
43
0.0000000001
44
0.0000000001
40
0
40
0
40
0
40
1
40
1
40
1
10
-25.502524480888795
20
142.80114719529391
30
0
10
-25.694992094672742
20
142.56999493853766
30
0
10
-26.073611042344368
20
142.48831504667723
30
0
0
LINE
5
475
100
AcDbEntity
8
0
100
AcDbLine
10
-95.310542072965461
20
144.63039048274345
30
0
11
-98.310541868890681
21
144.63178321545837
31
0
0
LINE
5
476
100
AcDbEntity
8
0
100
AcDbLine
10
-98.310541868890681
20
144.63178321545837
30
0
11
-98.31102163021221
21
143.59835888977554
31
0
0
SPLINE
5
477
100
AcDbEntity
8
0
100
AcDbSpline
70
0
71
2
72
6
73
3
74
0
42
0.000000001
43
0.0000000001
44
0.0000000001
40
0
40
0
40
0
40
1
40
1
40
1
10
-98.31102163021221
20
143.59835888977554
30
0
10
-98.311184083989133
20
143.24842721056572
30
0
10
-98.268295535881919
20
143.06423250387883
30
0
0
SPLINE
5
478
100
AcDbEntity
8
0
100
AcDbSpline
70
0
71
2
72
6
73
3
74
0
42
0.000000001
43
0.0000000001
44
0.0000000001
40
0
40
0
40
0
40
1
40
1
40
1
10
-98.268295535881919
20
143.06423250387883
30
0
10
-98.209069880445753
20
142.80636065204166
30
0
10
-98.053629241811805
20
142.62415992136732
30
0
0
SPLINE
5
479
100
AcDbEntity
8
0
100
AcDbSpline
70
0
71
2
72
6
73
3
74
0
42
0.000000001
43
0.0000000001
44
0.0000000001
40
0
40
0
40
0
40
1
40
1
40
1
10
-98.053629241811805
20
142.62415992136732
30
0
10
-97.853193976051287
20
142.38668657867373
30
0
10
-97.541174809262884
20
142.26887439549301
30
0
0
SPLINE
5
480
100
AcDbEntity
8
0
100
AcDbSpline
70
0
71
2
72
6
73
3
74
0
42
0.000000001
43
0.0000000001
44
0.0000000001
40
0
40
0
40
0
40
1
40
1
40
1
10
-97.541174809262884
20
142.26887439549301
30
0
10
-97.229155642197782
20
142.15106280835869
30
0
10
-96.828064407820591
20
142.15087660405143
30
0
0
SPLINE
5
481
100
AcDbEntity
8
0
100
AcDbSpline
70
0
71
2
72
6
73
3
74
0
42
0.000000001
43
0.0000000001
44
0.0000000001
40
0
40
0
40
0
40
1
40
1
40
1
10
-96.828064407820591
20
142.15087660405143
30
0
10
-96.486318233595668
20
142.15071795034828
30
0
10
-96.222297603962147
20
142.23040422009908
30
0
0
SPLINE
5
482
100
AcDbEntity
8
0
100
AcDbSpline
70
0
71
2
72
6
73
3
74
0
42
0.000000001
43
0.0000000001
44
0.0000000001
40
0
40
0
40
0
40
1
40
1
40
1
10
-96.222297603962147
20
142.23040422009908
30
0
10
-95.958276974328612
20
142.31009048984984
30
0
10
-95.785299410625569
20
142.43483961096553
30
0
0
SPLINE
5
483
100
AcDbEntity
8
0
100
AcDbSpline
70
0
71
2
72
6
73
3
74
0
42
0.000000001
43
0.0000000001
44
0.0000000001
40
0
40
0
40
0
40
1
40
1
40
1
10
-95.785299410625569
20
142.43483961096553
30
0
10
-95.612322144945736
20
142.55958873221954
30
0
10
-95.513003498745107
20
142.7079057534983
30
0
0
SPLINE
5
484
100
AcDbEntity
8
0
100
AcDbSpline
70
0
71
2
72
6
73
3
74
0
42
0.000000001
43
0.0000000001
44
0.0000000001
40
0
40
0
40
0
40
1
40
1
40
1
10
-95.513003498745107
20
142.7079057534983
30
0
10
-95.413684852544506
20
142.85622277477702
30
0
10
-95.362427920244258
20
143.06595311102595
30
0
0
SPLINE
5
485
100
AcDbEntity
8
0
100
AcDbSpline
70
0
71
2
72
6
73
3
74
0
42
0.000000001
43
0.0000000001
44
0.0000000001
40
0
40
0
40
0
40
1
40
1
40
1
10
-95.362427920244258
20
143.06595311102595
30
0
10
-95.311170987944024
20
143.27568344727484
30
0
10
-95.311044634729711
20
143.54785312715111
30
0
0
LINE
5
486
100
AcDbEntity
8
0
100
AcDbLine
10
-95.311044634729711
20
143.54785312715111
30
0
11
-95.310542072965461
21
144.63039048274345
31
0
0
LINE
5
487
100
AcDbEntity
8
0
100
AcDbLine
10
-95.664750809076452
20
144.23355605664935
30
0
11
-95.665048166026182
21
143.593037758382
31
0
0
SPLINE
5
488
100
AcDbEntity
8
0
100
AcDbSpline
70
0
71
2
72
6
73
3
74
0
42
0.000000001
43
0.0000000001
44
0.0000000001
40
0
40
0
40
0
40
1
40
1
40
1
10
-95.665048166026182
20
143.593037758382
30
0
10
-95.665185919323505
20
143.29631186157417
30
0
10
-95.720516901770466
20
143.12751095042512
30
0
0
SPLINE
5
489
100
AcDbEntity
8
0
100
AcDbSpline
70
0
71
2
72
6
73
3
74
0
42
0.000000001
43
0.0000000001
44
0.0000000001
40
0
40
0
40
0
40
1
40
1
40
1
10
-95.720516901770466
20
143.12751095042512
30
0
10
-95.775847586194232
20
142.95871003913771
30
0
10
-95.876167020405745
20
142.85848370714905
30
0
0
SPLINE
5
490
100
AcDbEntity
8
0
100
AcDbSpline
70
0
71
2
72
6
73
3
74
0
42
0.000000001
43
0.0000000001
44
0.0000000001
40
0
40
0
40
0
40
1
40
1
40
1
10
-95.876167020405745
20
142.85848370714905
30
0
10
-96.01743297991078
20
142.71734885060465
30
0
10
-96.25587320811276
20
142.63867352111365
30
0
0
SPLINE
5
491
100
AcDbEntity
8
0
100
AcDbSpline
70
0
71
2
72
6
73
3
74
0
42
0.000000001
43
0.0000000001
44
0.0000000001
40
0
40
0
40
0
40
1
40
1
40
1
10
-96.25587320811276
20
142.63867352111365
30
0
10
-96.494313734337922
20
142.559998191761
30
0
10
-96.834013383304992
20
142.56015589537651
30
0
0
SPLINE
5
492
100
AcDbEntity
8
0
100
AcDbSpline
70
0
71
2
72
6
73
3
74
0
42
0.000000001
43
0.0000000001
44
0.0000000001
40
0
40
0
40
0
40
1
40
1
40
1
10
-96.834013383304992
20
142.56015589537651
30
0
10
-97.304682006100421
20
142.56037440058768
30
0
10
-97.557338714242945
20
142.71499410348125
30
0
0
SPLINE
5
493
100
AcDbEntity
8
0
100
AcDbSpline
70
0
71
2
72
6
73
3
74
0
42
0.000000001
43
0.0000000001
44
0.0000000001
40
0
40
0
40
0
40
1
40
1
40
1
10
-97.557338714242945
20
142.71499410348125
30
0
10
-97.809995571673767
20
142.86961321039763
30
0
10
-97.895841218504643
20
143.09066293806558
30
0
0
SPLINE
5
494
100
AcDbEntity
8
0
100
AcDbSpline
70
0
71
2
72
6
73
3
74
0
42
0.000000001
43
0.0000000001
44
0.0000000001
40
0
40
0
40
0
40
1
40
1
40
1
10
-97.895841218504643
20
143.09066293806558
30
0
10
-97.957158404314384
20
143.25030908384818
30
0
10
-97.956994050362198
20
143.60433381357365
30
0
0
LINE
5
495
100
AcDbEntity
8
0
100
AcDbLine
10
-97.956994050362198
20
143.60433381357365
30
0
11
-97.956701443573891
21
144.23462008159828
31
0
0
LINE
5
496
100
AcDbEntity
8
0
100
AcDbLine
10
-97.956701443573891
20
144.23462008159828
30
0
11
-95.664750809076452
21
144.23355605664935
31
0
0
LWPOLYLINE
5
497
100
AcDbEntity
8
0
100
AcDbPolyline
90
8
70
1
43
0.0
10
2.8356603404416347
20
88.212695858158355
10
5.4816356917752529
20
88.212695858158355
10
5.4816356917752529
20
87.81569792953897
10
2.8356603404416347
20
87.81569792953897
10
2.8356603404416347
20
86.823201915897613
10
2.4816355725659633
20
86.823201915897613
10
2.4816355725659633
20
89.20110060898233
10
2.8356603404416347
20
89.20110060898233
0
LINE
5
498
100
AcDbEntity
8
0
100
AcDbLine
10
5.4816356917752529
20
86.463037273563629
30
0
11
2.4816355725659633
21
86.463037273563629
31
0
0
LINE
5
499
100
AcDbEntity
8
0
100
AcDbLine
10
2.4816355725659633
20
86.463037273563629
30
0
11
2.4816355725659633
21
86.094687721409088
31
0
0
LINE
5
500
100
AcDbEntity
8
0
100
AcDbLine
10
2.4816355725659633
20
86.094687721409088
30
0
11
3.5580340644253994
21
86.094687721409088
31
0
0
SPLINE
5
501
100
AcDbEntity
8
0
100
AcDbSpline
70
0
71
2
72
6
73
3
74
0
42
0.000000001
43
0.0000000001
44
0.0000000001
40
0
40
0
40
0
40
1
40
1
40
1
10
3.5580340644253994
20
86.094687721409088
30
0
10
3.2592622062100673
20
85.83684279648233
30
0
10
3.2592622062100673
20
85.443938514866119
30
0
0
SPLINE
5
502
100
AcDbEntity
8
0
100
AcDbSpline
70
0
71
2
72
6
73
3
74
0
42
0.000000001
43
0.0000000001
44
0.0000000001
40
0
40
0
40
0
40
1
40
1
40
1
10
3.2592622062100673
20
85.443938514866119
30
0
10
3.2592622062100673
20
85.202463409580474
30
0
10
3.3544186374081875
20
85.024429104007964
30
0
0
SPLINE
5
503
100
AcDbEntity
8
0
100
AcDbSpline
70
0
71
2
72
6
73
3
74
0
42
0.000000001
43
0.0000000001
44
0.0000000001
40
0
40
0
40
0
40
1
40
1
40
1
10
3.3544186374081875
20
85.024429104007964
30
0
10
3.4495756646527553
20
84.846394798435455
30
0
10
3.6173788329495693
20
84.769655010380035
30
0
0
SPLINE
5
504
100
AcDbEntity
8
0
100
AcDbSpline
70
0
71
2
72
6
73
3
74
0
42
0.000000001
43
0.0000000001
44
0.0000000001
40
0
40
0
40
0
40
1
40
1
40
1
10
3.6173788329495693
20
84.769655010380035
30
0
10
3.785182597292831
20
84.692915222324615
30
0
10
4.1044191142453457
20
84.692915222324615
30
0
0
LINE
5
505
100
AcDbEntity
8
0
100
AcDbLine
10
4.1044191142453457
20
84.692915222324615
30
0
11
5.4816356917752529
21
84.692915222324615
31
0
0
LINE
5
506
100
AcDbEntity
8
0
100
AcDbLine
10
5.4816356917752529
20
84.692915222324615
30
0
11
5.4816356917752529
21
85.061264774479156
31
0
0
LINE
5
507
100
AcDbEntity
8
0
100
AcDbLine
10
5.4816356917752529
20
85.061264774479156
30
0
11
4.1044191142453457
21
85.061264774479156
31
0
0
SPLINE
5
508
100
AcDbEntity
8
0
100
AcDbSpline
70
0
71
2
72
6
73
3
74
0
42
0.000000001
43
0.0000000001
44
0.0000000001
40
0
40
0
40
0
40
1
40
1
40
1
10
4.1044191142453457
20
85.061264774479156
30
0
10
3.8281569501294399
20
85.061264774479156
30
0
10
3.7023041268719936
20
85.180977127231841
30
0
0
SPLINE
5
509
100
AcDbEntity
8
0
100
AcDbSpline
70
0
71
2
72
6
73
3
74
0
42
0.000000001
43
0.0000000001
44
0.0000000001
40
0
40
0
40
0
40
1
40
1
40
1
10
3.7023041268719936
20
85.180977127231841
30
0
10
3.5764513036145473
20
85.300691864170318
30
0
10
3.5764513036145473
20
85.519655487217193
30
0
0
SPLINE
5
510
100
AcDbEntity
8
0
100
AcDbSpline
70
0
71
2
72
6
73
3
74
0
42
0.000000001
43
0.0000000001
44
0.0000000001
40
0
40
0
40
0
40
1
40
1
40
1
10
3.5764513036145473
20
85.519655487217193
30
0
10
3.5764513036145473
20
85.683365604557281
30
0
10
3.6613765975369716
20
85.827635070957427
30
0
0
SPLINE
5
511
100
AcDbEntity
8
0
100
AcDbSpline
70
0
71
2
72
6
73
3
74
0
42
0.000000001
43
0.0000000001
44
0.0000000001
40
0
40
0
40
0
40
1
40
1
40
1
10
3.6613765975369716
20
85.827635070957427
30
0
10
3.7463012954129482
20
85.971904537357574
30
0
10
3.8915947696103359
20
86.033297321476226
30
0
0
SPLINE
5
512
100
AcDbEntity
8
0
100
AcDbSpline
70
0
71
2
72
6
73
3
74
0
42
0.000000001
43
0.0000000001
44
0.0000000001
40
0
40
0
40
0
40
1
40
1
40
1
10
3.8915947696103359
20
86.033297321476226
30
0
10
4.0368882438077236
20
86.094687721409088
30
0
10
4.2926863452328945
20
86.094687721409088
30
0
0
LINE
5
513
100
AcDbEntity
8
0
100
AcDbLine
10
4.2926863452328945
20
86.094687721409088
30
0
11
5.4816356917752529
21
86.094687721409088
31
0
0
LINE
5
514
100
AcDbEntity
8
0
100
AcDbLine
10
5.4816356917752529
20
86.094687721409088
30
0
11
5.4816356917752529
21
86.463037273563629
31
0
0
LWPOLYLINE
5
515
100
AcDbEntity
8
0
100
AcDbPolyline
90
4
70
1
43
0.0
10
2.4816355725659633
20
84.130156776584897
10
2.9052371403111721
20
84.130156776584897
10
2.9052371403111721
20
83.761809608616147
10
2.4816355725659633
20
83.761809608616147
0
LWPOLYLINE
5
516
100
AcDbEntity
8
0
100
AcDbPolyline
90
4
70
1
43
0.0
10
3.3083752414120937
20
84.130156776584897
10
5.4816356917752529
20
84.130156776584897
10
5.4816356917752529
20
83.761809608616147
10
3.3083752414120937
20
83.761809608616147
0
LINE
5
517
100
AcDbEntity
8
0
100
AcDbLine
10
4.8329315205945278
20
83.348439476169858
30
0
11
4.775632979525497
21
82.984183571018491
31
0
0
SPLINE
5
518
100
AcDbEntity
8
0
100
AcDbSpline
70
0
71
2
72
6
73
3
74
0
42
0.000000001
43
0.0000000001
44
0.0000000001
40
0
40
0
40
0
40
1
40
1
40
1
10
4.775632979525497
20
82.984183571018491
30
0
10
4.9945960065259243
20
82.953484794773374
30
0
10
5.1112399121655727
20
82.813308975376401
30
0
0
SPLINE
5
519
100
AcDbEntity
8
0
100
AcDbSpline
70
0
71
2
72
6
73
3
74
0
42
0.000000001
43
0.0000000001
44
0.0000000001
40
0
40
0
40
0
40
1
40
1
40
1
10
5.1112399121655727
20
82.813308975376401
30
0
10
5.2278838178052212
20
82.673133155979428
30
0
10
5.2278838178052212
20
82.421429893650327
30
0
0
SPLINE
5
520
100
AcDbEntity
8
0
100
AcDbSpline
70
0
71
2
72
6
73
3
74
0
42
0.000000001
43
0.0000000001
44
0.0000000001
40
0
40
0
40
0
40
1
40
1
40
1
10
5.2278838178052212
20
82.421429893650327
30
0
10
5.2278838178052212
20
82.167676231540952
30
0
10
5.1245412846936489
20
82.044890663303647
30
0
0
SPLINE
5
521
100
AcDbEntity
8
0
100
AcDbSpline
70
0
71
2
72
6
73
3
74
0
42
0.000000001
43
0.0000000001
44
0.0000000001
40
0
40
0
40
0
40
1
40
1
40
1
10
5.1245412846936489
20
82.044890663303647
30
0
10
5.0211993476285244
20
81.922109863437925
30
0
10
4.8820451518430019
20
81.922109863437925
30
0
0
SPLINE
5
522
100
AcDbEntity
8
0
100
AcDbSpline
70
0
71
2
72
6
73
3
74
0
42
0.000000001
43
0.0000000001
44
0.0000000001
40
0
40
0
40
0
40
1
40
1
40
1
10
4.8820451518430019
20
81.922109863437925
30
0
10
4.7572157403363491
20
81.922109863437925
30
0
10
4.6855918189420009
20
82.030566475071225
30
0
0
SPLINE
5
523
100
AcDbEntity
8
0
100
AcDbSpline
70
0
71
2
72
6
73
3
74
0
42
0.000000001
43
0.0000000001
44
0.0000000001
40
0
40
0
40
0
40
1
40
1
40
1
10
4.6855918189420009
20
82.030566475071225
30
0
10
4.6364787837399746
20
82.1062834474223
30
0
10
4.5607624074353481
20
82.407100937046323
30
0
0
SPLINE
5
524
100
AcDbEntity
8
0
100
AcDbSpline
70
0
71
2
72
6
73
3
74
0
42
0.000000001
43
0.0000000001
44
0.0000000001
40
0
40
0
40
0
40
1
40
1
40
1
10
4.5607624074353481
20
82.407100937046323
30
0
10
4.4584432860745693
20
82.812288543857846
30
0
10
4.3837503215207363
20
82.968834182895932
30
0
0
SPLINE
5
525
100
AcDbEntity
8
0
100
AcDbSpline
70
0
71
2
72
6
73
3
74
0
42
0.000000001
43
0.0000000001
44
0.0000000001
40
0
40
0
40
0
40
1
40
1
40
1
10
4.3837503215207363
20
82.968834182895932
30
0
10
4.3090573569669033
20
83.1253845903056
30
0
10
4.1770652552975918
20
83.206218025364194
30
0
0
SPLINE
5
526
100
AcDbEntity
8
0
100
AcDbSpline
70
0
71
2
72
6
73
3
74
0
42
0.000000001
43
0.0000000001
44
0.0000000001
40
0
40
0
40
0
40
1
40
1
40
1
10
4.1770652552975918
20
83.206218025364194
30
0
10
4.045073749674728
20
83.287046692051206
30
0
10
3.8854554911984707
20
83.287046692051206
30
0
0
SPLINE
5
527
100
AcDbEntity
8
0
100
AcDbSpline
70
0
71
2
72
6
73
3
74
0
42
0.000000001
43
0.0000000001
44
0.0000000001
40
0
40
0
40
0
40
1
40
1
40
1
10
3.8854554911984707
20
83.287046692051206
30
0
10
3.740162017001083
20
83.287046692051206
30
0
10
3.6163560172452236
20
83.220542213596616
30
0
0
SPLINE
5
528
100
AcDbEntity
8
0
100
AcDbSpline
70
0
71
2
72
6
73
3
74
0
42
0.000000001
43
0.0000000001
44
0.0000000001
40
0
40
0
40
0
40
1
40
1
40
1
10
3.6163560172452236
20
83.220542213596616
30
0
10
3.4925500174893642
20
83.154032966770444
30
0
10
3.4106943627728725
20
83.039434692539487
30
0
0
SPLINE
5
529
100
AcDbEntity
8
0
100
AcDbSpline
70
0
71
2
72
6
73
3
74
0
42
0.000000001
43
0.0000000001
44
0.0000000001
40
0
40
0
40
0
40
1
40
1
40
1
10
3.4106943627728725
20
83.039434692539487
30
0
10
3.3472565432919765
20
82.953484794773374
30
0
10
3.3032587787045742
20
82.805121681370053
30
0
0
SPLINE
5
530
100
AcDbEntity
8
0
100
AcDbSpline
70
0
71
2
72
6
73
3
74
0
42
0.000000001
43
0.0000000001
44
0.0000000001
40
0
40
0
40
0
40
1
40
1
40
1
10
3.3032587787045742
20
82.805121681370053
30
0
10
3.2592616101636196
20
82.656763336338315
30
0
10
3.2592616101636196
20
82.48690917221478
30
0
0
SPLINE
5
531
100
AcDbEntity
8
0
100
AcDbSpline
70
0
71
2
72
6
73
3
74
0
42
0.000000001
43
0.0000000001
44
0.0000000001
40
0
40
0
40
0
40
1
40
1
40
1
10
3.2592616101636196
20
82.48690917221478
30
0
10
3.2592616101636196
20
82.231114647068296
30
0
10
3.3329317590131069
20
82.037728569187436
30
0
0
SPLINE
5
532
100
AcDbEntity
8
0
100
AcDbSpline
70
0
71
2
72
6
73
3
74
0
42
0.000000001
43
0.0000000001
44
0.0000000001
40
0
40
0
40
0
40
1
40
1
40
1
10
3.3329317590131069
20
82.037728569187436
30
0
10
3.4066013118161464
20
81.844347259678159
30
0
10
3.5324541350735927
20
81.752260467685971
30
0
0
SPLINE
5
533
100
AcDbEntity
8
0
100
AcDbSpline
70
0
71
2
72
6
73
3
74
0
42
0.000000001
43
0.0000000001
44
0.0000000001
40
0
40
0
40
0
40
1
40
1
40
1
10
3.5324541350735927
20
81.752260467685971
30
0
10
3.658306958331039
20
81.660173675693784
30
0
10
3.8690844794644619
20
81.625383636631284
30
0
0
LINE
5
534
100
AcDbEntity
8
0
100
AcDbLine
10
3.8690844794644619
20
81.625383636631284
30
0
11
3.9181975146664882
21
81.985548278965268
31
0
0
SPLINE
5
535
100
AcDbEntity
8
0
100
AcDbSpline
70
0
71
2
72
6
73
3
74
0
42
0.000000001
43
0.0000000001
44
0.0000000001
40
0
40
0
40
0
40
1
40
1
40
1
10
3.9181975146664882
20
81.985548278965268
30
0
10
3.7503943463696743
20
82.010105392612729
30
0
10
3.6562601348294521
20
82.127769729770932
30
0
0
SPLINE
5
536
100
AcDbEntity
8
0
100
AcDbSpline
70
0
71
2
72
6
73
3
74
0
42
0.000000001
43
0.0000000001
44
0.0000000001
40
0
40
0
40
0
40
1
40
1
40
1
10
3.6562601348294521
20
82.127769729770932
30
0
10
3.5621265193356777
20
82.245438835300718
30
0
10
3.5621265193356777
20
82.46031119553021
30
0
0
SPLINE
5
537
100
AcDbEntity
8
0
100
AcDbSpline
70
0
71
2
72
6
73
3
74
0
42
0.000000001
43
0.0000000001
44
0.0000000001
40
0
40
0
40
0
40
1
40
1
40
1
10
3.5621265193356777
20
82.46031119553021
30
0
10
3.5621265193356777
20
82.714060089268003
30
0
10
3.6460284015073086
20
82.822516700901303
30
0
0
SPLINE
5
538
100
AcDbEntity
8
0
100
AcDbSpline
70
0
71
2
72
6
73
3
74
0
42
0.000000001
43
0.0000000001
44
0.0000000001
40
0
40
0
40
0
40
1
40
1
40
1
10
3.6460284015073086
20
82.822516700901303
30
0
10
3.7299302836789394
20
82.930978080906186
30
0
10
3.8424817344083095
20
82.930978080906186
30
0
0
SPLINE
5
539
100
AcDbEntity
8
0
100
AcDbSpline
70
0
71
2
72
6
73
3
74
0
42
0.000000001
43
0.0000000001
44
0.0000000001
40
0
40
0
40
0
40
1
40
1
40
1
10
3.8424817344083095
20
82.930978080906186
30
0
10
3.9141050597562099
20
82.930978080906186
30
0
10
3.9714036008252407
20
82.885955116428647
30
0
0
SPLINE
5
540
100
AcDbEntity
8
0
100
AcDbSpline
70
0
71
2
72
6
73
3
74
0
42
0.000000001
43
0.0000000001
44
0.0000000001
40
0
40
0
40
0
40
1
40
1
40
1
10
3.9714036008252407
20
82.885955116428647
30
0
10
4.0307489653958584
20
82.84093692032269
30
0
10
4.0696302672757412
20
82.744754097141538
30
0
0
SPLINE
5
541
100
AcDbEntity
8
0
100
AcDbSpline
70
0
71
2
72
6
73
3
74
0
42
0.000000001
43
0.0000000001
44
0.0000000001
40
0
40
0
40
0
40
1
40
1
40
1
10
4.0696302672757412
20
82.744754097141538
30
0
10
4.0900937339200283
20
82.689502975620542
30
0
10
4.1637638827695156
20
82.419379493870053
30
0
0
SPLINE
5
542
100
AcDbEntity
8
0
100
AcDbSpline
70
0
71
2
72
6
73
3
74
0
42
0.000000001
43
0.0000000001
44
0.0000000001
40
0
40
0
40
0
40
1
40
1
40
1
10
4.1637638827695156
20
82.419379493870053
30
0
10
4.2681298276318813
20
82.028520843662534
30
0
10
4.3346372863187099
20
81.874020836033139
30
0
0
SPLINE
5
543
100
AcDbEntity
8
0
100
AcDbSpline
70
0
71
2
72
6
73
3
74
0
42
0.000000001
43
0.0000000001
44
0.0000000001
40
0
40
0
40
0
40
1
40
1
40
1
10
4.3346372863187099
20
81.874020836033139
30
0
10
4.4011447450055385
20
81.719516060032163
30
0
10
4.5280203839673305
20
81.631520530857358
30
0
0
SPLINE
5
544
100
AcDbEntity
8
0
100
AcDbSpline
70
0
71
2
72
6
73
3
74
0
42
0.000000001
43
0.0000000001
44
0.0000000001
40
0
40
0
40
0
40
1
40
1
40
1
10
4.5280203839673305
20
81.631520530857358
30
0
10
4.6548960229291225
20
81.543529770054135
30
0
10
4.8431638499631191
20
81.543529770054135
30
0
0
SPLINE
5
545
100
AcDbEntity
8
0
100
AcDbSpline
70
0
71
2
72
6
73
3
74
0
42
0.000000001
43
0.0000000001
44
0.0000000001
40
0
40
0
40
0
40
1
40
1
40
1
10
4.8431638499631191
20
81.543529770054135
30
0
10
5.0273380299939419
20
81.543529770054135
30
0
10
5.1900259276761318
20
81.650965950168882
30
0
0
SPLINE
5
546
100
AcDbEntity
8
0
100
AcDbSpline
70
0
71
2
72
6
73
3
74
0
42
0.000000001
43
0.0000000001
44
0.0000000001
40
0
40
0
40
0
40
1
40
1
40
1
10
5.1900259276761318
20
81.650965950168882
30
0
10
5.352713229311874
20
81.758397361912046
30
0
10
5.4417309781445766
20
81.960991165317807
30
0
0
SPLINE
5
547
100
AcDbEntity
8
0
100
AcDbSpline
70
0
71
2
72
6
73
3
74
0
42
0.000000001
43
0.0000000001
44
0.0000000001
40
0
40
0
40
0
40
1
40
1
40
1
10
5.4417309781445766
20
81.960991165317807
30
0
10
5.5307487269772793
20
82.163584968723569
30
0
10
5.5307487269772793
20
82.419379493870053
30
0
0
SPLINE
5
548
100
AcDbEntity
8
0
100
AcDbSpline
70
0
71
2
72
6
73
3
74
0
42
0.000000001
43
0.0000000001
44
0.0000000001
40
0
40
0
40
0
40
1
40
1
40
1
10
5.5307487269772793
20
82.419379493870053
30
0
10
5.5307487269772793
20
82.842982551731382
30
0
10
5.3547600528134609
20
83.065017006077085
30
0
0
SPLINE
5
549
100
AcDbEntity
8
0
100
AcDbSpline
70
0
71
2
72
6
73
3
74
0
42
0.000000001
43
0.0000000001
44
0.0000000001
40
0
40
0
40
0
40
1
40
1
40
1
10
5.3547600528134609
20
83.065017006077085
30
0
10
5.1787707826031948
20
83.287046692051206
30
0
10
4.8329315205945278
20
83.348439476169858
30
0
0
LINE
5
550
100
AcDbEntity
8
0
100
AcDbLine
10
4.8329315205945278
20
80.088547012485776
30
0
11
4.775632979525497
21
79.724291107334409
31
0
0
SPLINE
5
551
100
AcDbEntity
8
0
100
AcDbSpline
70
0
71
2
72
6
73
3
74
0
42
0.000000001
43
0.0000000001
44
0.0000000001
40
0
40
0
40
0
40
1
40
1
40
1
10
4.775632979525497
20
79.724291107334395
30
0
10
4.9945960065259243
20
79.69359709946086
30
0
10
5.1112399121655727
20
79.553416511692305
30
0
0
SPLINE
5
552
100
AcDbEntity
8
0
100
AcDbSpline
70
0
71
2
72
6
73
3
74
0
42
0.000000001
43
0.0000000001
44
0.0000000001
40
0
40
0
40
0
40
1
40
1
40
1
10
5.1112399121655727
20
79.553416511692305
30
0
10
5.2278838178052212
20
79.413240692295332
30
0
10
5.2278838178052212
20
79.161537429966231
30
0
0
SPLINE
5
553
100
AcDbEntity
8
0
100
AcDbSpline
70
0
71
2
72
6
73
3
74
0
42
0.000000001
43
0.0000000001
44
0.0000000001
40
0
40
0
40
0
40
1
40
1
40
1
10
5.2278838178052212
20
79.161537429966231
30
0
10
5.2278838178052212
20
78.907783767856856
30
0
10
5.1245412846936489
20
78.785002967991133
30
0
0
SPLINE
5
554
100
AcDbEntity
8
0
100
AcDbSpline
70
0
71
2
72
6
73
3
74
0
42
0.000000001
43
0.0000000001
44
0.0000000001
40
0
40
0
40
0
40
1
40
1
40
1
10
5.1245412846936489
20
78.785002967991133
30
0
10
5.0211993476285244
20
78.662217399753828
30
0
10
4.8820451518430019
20
78.662217399753828
30
0
0
SPLINE
5
555
100
AcDbEntity
8
0
100
AcDbSpline
70
0
71
2
72
6
73
3
74
0
42
0.000000001
43
0.0000000001
44
0.0000000001
40
0
40
0
40
0
40
1
40
1
40
1
10
4.8820451518430019
20
78.662217399753828
30
0
10
4.7572157403363491
20
78.662217399753828
30
0
10
4.6855918189420009
20
78.770678779758711
30
0
0
SPLINE
5
556
100
AcDbEntity
8
0
100
AcDbSpline
70
0
71
2
72
6
73
3
74
0
42
0.000000001
43
0.0000000001
44
0.0000000001
40
0
40
0
40
0
40
1
40
1
40
1
10
4.6855918189420009
20
78.770678779758711
30
0
10
4.6364787837399746
20
78.846390983738203
30
0
10
4.5607624074353481
20
79.147213241733809
30
0
0
SPLINE
5
557
100
AcDbEntity
8
0
100
AcDbSpline
70
0
71
2
72
6
73
3
74
0
42
0.000000001
43
0.0000000001
44
0.0000000001
40
0
40
0
40
0
40
1
40
1
40
1
10
4.5607624074353481
20
79.147213241733809
30
0
10
4.4584432860745693
20
79.55239608017375
30
0
10
4.3837503215207363
20
79.708946487583418
30
0
0
SPLINE
5
558
100
AcDbEntity
8
0
100
AcDbSpline
70
0
71
2
72
6
73
3
74
0
42
0.000000001
43
0.0000000001
44
0.0000000001
40
0
40
0
40
0
40
1
40
1
40
1
10
4.3837503215207363
20
79.708946487583418
30
0
10
4.3090573569669033
20
79.865492126621504
30
0
10
4.1770652552975918
20
79.946325561680098
30
0
0
SPLINE
5
559
100
AcDbEntity
8
0
100
AcDbSpline
70
0
71
2
72
6
73
3
74
0
42
0.000000001
43
0.0000000001
44
0.0000000001
40
0
40
0
40
0
40
1
40
1
40
1
10
4.1770652552975918
20
79.946325561680098
30
0
10
4.045073749674728
20
80.027158996738706
30
0
10
3.8854554911984707
20
80.027158996738706
30
0
0
SPLINE
5
560
100
AcDbEntity
8
0
100
AcDbSpline
70
0
71
2
72
6
73
3
74
0
42
0.000000001
43
0.0000000001
44
0.0000000001
40
0
40
0
40
0
40
1
40
1
40
1
10
3.8854554911984707
20
80.027158996738706
30
0
10
3.740162017001083
20
80.027158996738706
30
0
10
3.6163560172452236
20
79.96064974991252
30
0
0
SPLINE
5
561
100
AcDbEntity
8
0
100
AcDbSpline
70
0
71
2
72
6
73
3
74
0
42
0.000000001
43
0.0000000001
44
0.0000000001
40
0
40
0
40
0
40
1
40
1
40
1
10
3.6163560172452236
20
79.96064974991252
30
0
10
3.4925500174893642
20
79.894140503086348
30
0
10
3.4106943627728725
20
79.779542228855391
30
0
0
SPLINE
5
562
100
AcDbEntity
8
0
100
AcDbSpline
70
0
71
2
72
6
73
3
74
0
42
0.000000001
43
0.0000000001
44
0.0000000001
40
0
40
0
40
0
40
1
40
1
40
1
10
3.4106943627728725
20
79.779542228855391
30
0
10
3.3472565432919765
20
79.69359709946086
30
0
10
3.3032587787045742
20
79.545233986057539
30
0
0
SPLINE
5
563
100
AcDbEntity
8
0
100
AcDbSpline
70
0
71
2
72
6
73
3
74
0
42
0.000000001
43
0.0000000001
44
0.0000000001
40
0
40
0
40
0
40
1
40
1
40
1
10
3.3032587787045742
20
79.545233986057539
30
0
10
3.2592616101636196
20
79.396870872654219
30
0
10
3.2592616101636196
20
79.227021476902266
30
0
0
SPLINE
5
564
100
AcDbEntity
8
0
100
AcDbSpline
70
0
71
2
72
6
73
3
74
0
42
0.000000001
43
0.0000000001
44
0.0000000001
40
0
40
0
40
0
40
1
40
1
40
1
10
3.2592616101636196
20
79.227021476902266
30
0
10
3.2592616101636196
20
78.971222183384199
30
0
10
3.3329317590131069
20
78.777840873874922
30
0
0
SPLINE
5
565
100
AcDbEntity
8
0
100
AcDbSpline
70
0
71
2
72
6
73
3
74
0
42
0.000000001
43
0.0000000001
44
0.0000000001
40
0
40
0
40
0
40
1
40
1
40
1
10
3.3329317590131069
20
78.777840873874922
30
0
10
3.4066013118161464
20
78.584454795994063
30
0
10
3.5324541350735927
20
78.492368004001875
30
0
0
SPLINE
5
566
100
AcDbEntity
8
0
100
AcDbSpline
70
0
71
2
72
6
73
3
74
0
42
0.000000001
43
0.0000000001
44
0.0000000001
40
0
40
0
40
0
40
1
40
1
40
1
10
3.5324541350735927
20
78.492368004001875
30
0
10
3.658306958331039
20
78.400281212009688
30
0
10
3.8690844794644619
20
78.365491172947188
30
0
0
LINE
5
567
100
AcDbEntity
8
0
100
AcDbLine
10
3.8690844794644619
20
78.365491172947202
30
0
11
3.9181975146664882
21
78.725655815281172
31
0
0
SPLINE
5
568
100
AcDbEntity
8
0
100
AcDbSpline
70
0
71
2
72
6
73
3
74
0
42
0.000000001
43
0.0000000001
44
0.0000000001
40
0
40
0
40
0
40
1
40
1
40
1
10
3.9181975146664882
20
78.725655815281172
30
0
10
3.7503943463696743
20
78.750212928928633
30
0
10
3.6562601348294521
20
78.867882034458418
30
0
0
SPLINE
5
569
100
AcDbEntity
8
0
100
AcDbSpline
70
0
71
2
72
6
73
3
74
0
42
0.000000001
43
0.0000000001
44
0.0000000001
40
0
40
0
40
0
40
1
40
1
40
1
10
3.6562601348294521
20
78.867882034458418
30
0
10
3.5621265193356777
20
78.985546371616621
30
0
10
3.5621265193356777
20
79.200418731846113
30
0
0
SPLINE
5
570
100
AcDbEntity
8
0
100
AcDbSpline
70
0
71
2
72
6
73
3
74
0
42
0.000000001
43
0.0000000001
44
0.0000000001
40
0
40
0
40
0
40
1
40
1
40
1
10
3.5621265193356777
20
79.200418731846113
30
0
10
3.5621265193356777
20
79.454167625583906
30
0
10
3.6460284015073086
20
79.562629005588789
30
0
0
SPLINE
5
571
100
AcDbEntity
8
0
100
AcDbSpline
70
0
71
2
72
6
73
3
74
0
42
0.000000001
43
0.0000000001
44
0.0000000001
40
0
40
0
40
0
40
1
40
1
40
1
10
3.6460284015073086
20
79.562629005588789
30
0
10
3.7299302836789394
20
79.67108561722209
30
0
10
3.8424817344083095
20
79.67108561722209
30
0
0
SPLINE
5
572
100
AcDbEntity
8
0
100
AcDbSpline
70
0
71
2
72
6
73
3
74
0
42
0.000000001
43
0.0000000001
44
0.0000000001
40
0
40
0
40
0
40
1
40
1
40
1
10
3.8424817344083095
20
79.67108561722209
30
0
10
3.9141050597562099
20
79.67108561722209
30
0
10
3.9714036008252407
20
79.626067421116133
30
0
0
SPLINE
5
573
100
AcDbEntity
8
0
100
AcDbSpline
70
0
71
2
72
6
73
3
74
0
42
0.000000001
43
0.0000000001
44
0.0000000001
40
0
40
0
40
0
40
1
40
1
40
1
10
3.9714036008252407
20
79.626067421116133
30
0
10
4.0307489653958584
20
79.581044456638594
30
0
10
4.0696302672757412
20
79.484866401829024
30
0
0
SPLINE
5
574
100
AcDbEntity
8
0
100
AcDbSpline
70
0
71
2
72
6
73
3
74
0
42
0.000000001
43
0.0000000001
44
0.0000000001
40
0
40
0
40
0
40
1
40
1
40
1
10
4.0696302672757412
20
79.484866401829024
30
0
10
4.0900937339200283
20
79.429610511936446
30
0
10
4.1637638827695156
20
79.159491798557539
30
0
0
SPLINE
5
575
100
AcDbEntity
8
0
100
AcDbSpline
70
0
71
2
72
6
73
3
74
0
42
0.000000001
43
0.0000000001
44
0.0000000001
40
0
40
0
40
0
40
1
40
1
40
1
10
4.1637638827695156
20
79.159491798557539
30
0
10
4.2681298276318813
20
78.768628379978438
30
0
10
4.3346372863187099
20
78.614128372349043
30
0
0
SPLINE
5
576
100
AcDbEntity
8
0
100
AcDbSpline
70
0
71
2
72
6
73
3
74
0
42
0.000000001
43
0.0000000001
44
0.0000000001
40
0
40
0
40
0
40
1
40
1
40
1
10
4.3346372863187099
20
78.614128372349043
30
0
10
4.4011447450055385
20
78.459628364719649
30
0
10
4.5280203839673305
20
78.371632835544844
30
0
0
SPLINE
5
577
100
AcDbEntity
8
0
100
AcDbSpline
70
0
71
2
72
6
73
3
74
0
42
0.000000001
43
0.0000000001
44
0.0000000001
40
0
40
0
40
0
40
1
40
1
40
1
10
4.5280203839673305
20
78.371632835544844
30
0
10
4.6548960229291225
20
78.283637306370039
30
0
10
4.8431638499631191
20
78.283637306370039
30
0
0
SPLINE
5
578
100
AcDbEntity
8
0
100
AcDbSpline
70
0
71
2
72
6
73
3
74
0
42
0.000000001
43
0.0000000001
44
0.0000000001
40
0
40
0
40
0
40
1
40
1
40
1
10
4.8431638499631191
20
78.283637306370039
30
0
10
5.0273380299939419
20
78.283637306370039
30
0
10
5.1900259276761318
20
78.391073486484785
30
0
0
SPLINE
5
579
100
AcDbEntity
8
0
100
AcDbSpline
70
0
71
2
72
6
73
3
74
0
42
0.000000001
43
0.0000000001
44
0.0000000001
40
0
40
0
40
0
40
1
40
1
40
1
10
5.1900259276761318
20
78.391073486484785
30
0
10
5.352713229311874
20
78.498509666599531
30
0
10
5.4417309781445766
20
78.701098701633711
30
0
0
SPLINE
5
580
100
AcDbEntity
8
0
100
AcDbSpline
70
0
71
2
72
6
73
3
74
0
42
0.000000001
43
0.0000000001
44
0.0000000001
40
0
40
0
40
0
40
1
40
1
40
1
10
5.4417309781445766
20
78.701098701633711
30
0
10
5.5307487269772793
20
78.903692505039473
30
0
10
5.5307487269772793
20
79.159491798557539
30
0
0
SPLINE
5
581
100
AcDbEntity
8
0
100
AcDbSpline
70
0
71
2
72
6
73
3
74
0
42
0.000000001
43
0.0000000001
44
0.0000000001
40
0
40
0
40
0
40
1
40
1
40
1
10
5.5307487269772793
20
79.159491798557539
30
0
10
5.5307487269772793
20
79.583090088047285
30
0
10
5.3547600528134609
20
79.805124542392988
30
0
0
SPLINE
5
582
100
AcDbEntity
8
0
100
AcDbSpline
70
0
71
2
72
6
73
3
74
0
42
0.000000001
43
0.0000000001
44
0.0000000001
40
0
40
0
40
0
40
1
40
1
40
1
10
5.3547600528134609
20
79.805124542392988
30
0
10
5.1787707826031948
20
80.027158996738706
30
0
10
4.8329315205945278
20
80.088547012485776
30
0
0
LWPOLYLINE
5
583
100
AcDbEntity
8
0
100
AcDbPolyline
90
4
70
1
43
0.0
10
2.4816355725659633
20
77.843664428867598
10
2.9052371403111721
20
77.843664428867598
10
2.9052371403111721
20
77.475312492527266
10
2.4816355725659633
20
77.475312492527266
0
LWPOLYLINE
5
584
100
AcDbEntity
8
0
100
AcDbPolyline
90
4
70
1
43
0.0
10
3.3083752414120937
20
77.843664428867598
10
5.4816356917752529
20
77.843664428867598
10
5.4816356917752529
20
77.475312492527266
10
3.3083752414120937
20
77.475312492527266
0
LINE
5
585
100
AcDbEntity
8
0
100
AcDbLine
10
5.4816356917752529
20
75.504649421848555
30
0
11
5.207420351160934
21
75.504649421848555
31
0
0
SPLINE
5
586
100
AcDbEntity
8
0
100
AcDbSpline
70
0
71
2
72
6
73
3
74
0
42
0.000000001
43
0.0000000001
44
0.0000000001
40
0
40
0
40
0
40
1
40
1
40
1
10
5.207420351160934
20
75.504649421848555
30
0
10
5.5307487269772793
20
75.711329719700117
30
0
10
5.5307487269772793
20
76.112426063694258
30
0
0
SPLINE
5
587
100
AcDbEntity
8
0
100
AcDbSpline
70
0
71
2
72
6
73
3
74
0
42
0.000000001
43
0.0000000001
44
0.0000000001
40
0
40
0
40
0
40
1
40
1
40
1
10
5.5307487269772793
20
76.112426063694258
30
0
10
5.5307487269772793
20
76.372311851658125
30
0
10
5.3875020762814785
20
76.590255043186446
30
0
0
SPLINE
5
588
100
AcDbEntity
8
0
100
AcDbSpline
70
0
71
2
72
6
73
3
74
0
42
0.000000001
43
0.0000000001
44
0.0000000001
40
0
40
0
40
0
40
1
40
1
40
1
10
5.3875020762814785
20
76.590255043186446
30
0
10
5.2442548295392299
20
76.808193466343184
30
0
10
4.9874339124097133
20
76.92790820328166
30
0
0
SPLINE
5
589
100
AcDbEntity
8
0
100
AcDbSpline
70
0
71
2
72
6
73
3
74
0
42
0.000000001
43
0.0000000001
44
0.0000000001
40
0
40
0
40
0
40
1
40
1
40
1
10
4.9874339124097133
20
76.92790820328166
30
0
10
4.730612399233749
20
77.047622940220137
30
0
10
4.3970516940488125
20
77.047622940220137
30
0
0
SPLINE
5
590
100
AcDbEntity
8
0
100
AcDbSpline
70
0
71
2
72
6
73
3
74
0
42
0.000000001
43
0.0000000001
44
0.0000000001
40
0
40
0
40
0
40
1
40
1
40
1
10
4.3970516940488125
20
77.047622940220137
30
0
10
4.0716764947308803
20
77.047622940220137
30
0
10
3.8066700717343593
20
76.939166328586836
30
0
0
SPLINE
5
591
100
AcDbEntity
8
0
100
AcDbSpline
70
0
71
2
72
6
73
3
74
0
42
0.000000001
43
0.0000000001
44
0.0000000001
40
0
40
0
40
0
40
1
40
1
40
1
10
3.8066700717343593
20
76.939166328586836
30
0
10
3.5416630526913906
20
76.830704948581953
30
0
10
3.400462629450729
20
76.61378695694377
30
0
0
SPLINE
5
592
100
AcDbEntity
8
0
100
AcDbSpline
70
0
71
2
72
6
73
3
74
0
42
0.000000001
43
0.0000000001
44
0.0000000001
40
0
40
0
40
0
40
1
40
1
40
1
10
3.400462629450729
20
76.61378695694377
30
0
10
3.2592622062100673
20
76.396868965305586
30
0
10
3.2592622062100673
20
76.128795883335371
30
0
0
SPLINE
5
593
100
AcDbEntity
8
0
100
AcDbSpline
70
0
71
2
72
6
73
3
74
0
42
0.000000001
43
0.0000000001
44
0.0000000001
40
0
40
0
40
0
40
1
40
1
40
1
10
3.2592622062100673
20
76.128795883335371
30
0
10
3.2592622062100673
20
75.932343742527266
30
0
10
3.3421406766309047
20
75.778864166416426
30
0
0
SPLINE
5
594
100
AcDbEntity
8
0
100
AcDbSpline
70
0
71
2
72
6
73
3
74
0
42
0.000000001
43
0.0000000001
44
0.0000000001
40
0
40
0
40
0
40
1
40
1
40
1
10
3.3421406766309047
20
75.778864166416426
30
0
10
3.4250191470517422
20
75.625384590305586
30
0
10
3.5580340644253994
20
75.529206535496016
30
0
0
LINE
5
595
100
AcDbEntity
8
0
100
AcDbLine
10
3.5580340644253989
20
75.529206535496016
30
0
11
2.4816358705891872
21
75.529206535496016
31
0
0
LINE
5
596
100
AcDbEntity
8
0
100
AcDbLine
10
2.4816358705891872
20
75.529206535496016
30
0
11
2.4816358705891872
21
75.162900230564375
31
0
0
LINE
5
597
100
AcDbEntity
8
0
100
AcDbLine
10
2.4816358705891872
20
75.162900230564375
30
0
11
5.4816356917752529
21
75.162900230564375
31
0
0
LINE
5
598
100
AcDbEntity
8
0
100
AcDbLine
10
5.4816356917752529
20
75.162900230564375
30
0
11
5.4816356917752529
21
75.504649421848555
31
0
0
SPLINE
5
599
100
AcDbEntity
8
0
100
AcDbSpline
70
0
71
2
72
6
73
3
74
0
42
0.000000001
43
0.0000000001
44
0.0000000001
40
0
40
0
40
0
40
1
40
1
40
1
10
4.3970516940488125
20
76.669038078464766
30
0
10
4.8145142814053798
20
76.669038078464766
30
0
10
5.0211993476285244
20
76.493051788486738
30
0
0
SPLINE
5
600
100
AcDbEntity
8
0
100
AcDbSpline
70
0
71
2
72
6
73
3
74
0
42
0.000000001
43
0.0000000001
44
0.0000000001
40
0
40
0
40
0
40
1
40
1
40
1
10
5.0211993476285244
20
76.493051788486738
30
0
10
5.2278838178052212
20
76.317060730137129
30
0
10
5.2278838178052212
20
76.077636024631758
30
0
0
SPLINE
5
601
100
AcDbEntity
8
0
100
AcDbSpline
70
0
71
2
72
6
73
3
74
0
42
0.000000001
43
0.0000000001
44
0.0000000001
40
0
40
0
40
0
40
1
40
1
40
1
10
5.2278838178052212
20
76.077636024631758
30
0
10
5.2278838178052212
20
75.836160919346113
30
0
10
5.0304076691998745
20
75.667336723484297
30
0
0
SPLINE
5
602
100
AcDbEntity
8
0
100
AcDbSpline
70
0
71
2
72
6
73
3
74
0
42
0.000000001
43
0.0000000001
44
0.0000000001
40
0
40
0
40
0
40
1
40
1
40
1
10
5.0304076691998745
20
75.667336723484297
30
0
10
4.8329321166409756
20
75.498507759250899
30
0
10
4.4277474900616909
20
75.498507759250899
30
0
0
SPLINE
5
603
100
AcDbEntity
8
0
100
AcDbSpline
70
0
71
2
72
6
73
3
74
0
42
0.000000001
43
0.0000000001
44
0.0000000001
40
0
40
0
40
0
40
1
40
1
40
1
10
4.4277474900616909
20
75.498507759250899
30
0
10
3.981635930193832
20
75.498507759250899
30
0
10
3.7729046365155483
20
75.670407554783125
30
0
0
SPLINE
5
604
100
AcDbEntity
8
0
100
AcDbSpline
70
0
71
2
72
6
73
3
74
0
42
0.000000001
43
0.0000000001
44
0.0000000001
40
0
40
0
40
0
40
1
40
1
40
1
10
3.7729046365155483
20
75.670407554783125
30
0
10
3.5641733428372646
20
75.84230258194377
30
0
10
3.5641733428372646
20
76.094005844272871
30
0
0
SPLINE
5
605
100
AcDbEntity
8
0
100
AcDbSpline
70
0
71
2
72
6
73
3
74
0
42
0.000000001
43
0.0000000001
44
0.0000000001
40
0
40
0
40
0
40
1
40
1
40
1
10
3.5641733428372646
20
76.094005844272871
30
0
10
3.5641733428372646
20
76.339572212375899
30
0
10
3.7647191306485439
20
76.504305145420332
30
0
0
SPLINE
5
606
100
AcDbEntity
8
0
100
AcDbSpline
70
0
71
2
72
6
73
3
74
0
42
0.000000001
43
0.0000000001
44
0.0000000001
40
0
40
0
40
0
40
1
40
1
40
1
10
3.7647191306485439
20
76.504305145420332
30
0
10
3.9652649184598232
20
76.669038078464766
30
0
10
4.3970516940488125
20
76.669038078464766
30
0
0
LINE
5
607
100
AcDbEntity
8
0
100
AcDbLine
10
4.7817722579373623
20
73.096054336704512
30
0
11
4.8288390656842495
21
72.715423843540449
31
0
0
SPLINE
5
608
100
AcDbEntity
8
0
100
AcDbSpline
70
0
71
2
72
6
73
3
74
0
42
0.000000001
43
0.0000000001
44
0.0000000001
40
0
40
0
40
0
40
1
40
1
40
1
10
4.8288390656842495
20
72.715423843540449
30
0
10
5.162399770869186
20
72.805465004123946
30
0
10
5.3465745469464565
20
73.048985740818281
30
0
0
SPLINE
5
609
100
AcDbEntity
8
0
100
AcDbSpline
70
0
71
2
72
6
73
3
74
0
42
0.000000001
43
0.0000000001
44
0.0000000001
40
0
40
0
40
0
40
1
40
1
40
1
10
5.3465745469464565
20
73.048985740818281
30
0
10
5.5307487269772793
20
73.292506477512617
30
0
10
5.5307487269772793
20
73.671086570896406
30
0
0
SPLINE
5
610
100
AcDbEntity
8
0
100
AcDbSpline
70
0
71
2
72
6
73
3
74
0
42
0.000000001
43
0.0000000001
44
0.0000000001
40
0
40
0
40
0
40
1
40
1
40
1
10
5.5307487269772793
20
73.671086570896406
30
0
10
5.5307487269772793
20
74.147895118870039
30
0
10
5.237092735423019
20
74.42722632614543
30
0
0
SPLINE
5
611
100
AcDbEntity
8
0
100
AcDbSpline
70
0
71
2
72
6
73
3
74
0
42
0.000000001
43
0.0000000001
44
0.0000000001
40
0
40
0
40
0
40
1
40
1
40
1
10
5.237092735423019
20
74.42722632614543
30
0
10
4.9434367438687588
20
74.706557533420821
30
0
10
4.4134227057828213
20
74.706557533420821
30
0
0
SPLINE
5
612
100
AcDbEntity
8
0
100
AcDbSpline
70
0
71
2
72
6
73
3
74
0
42
0.000000001
43
0.0000000001
44
0.0000000001
40
0
40
0
40
0
40
1
40
1
40
1
10
4.4134227057828213
20
74.706557533420821
30
0
10
3.8649920245541836
20
74.706557533420821
30
0
10
3.5621265193356777
20
74.424155494846602
30
0
0
SPLINE
5
613
100
AcDbEntity
8
0
100
AcDbSpline
70
0
71
2
72
6
73
3
74
0
42
0.000000001
43
0.0000000001
44
0.0000000001
40
0
40
0
40
0
40
1
40
1
40
1
10
3.5621265193356777
20
74.424155494846602
30
0
10
3.2592616101636196
20
74.141753456272383
30
0
10
3.2592616101636196
20
73.691552421726485
30
0
0
SPLINE
5
614
100
AcDbEntity
8
0
100
AcDbSpline
70
0
71
2
72
6
73
3
74
0
42
0.000000001
43
0.0000000001
44
0.0000000001
40
0
40
0
40
0
40
1
40
1
40
1
10
3.2592616101636196
20
73.691552421726485
30
0
10
3.2592616101636196
20
73.255670807041426
30
0
10
3.5559872409238125
20
72.979410431064863
30
0
0
SPLINE
5
615
100
AcDbEntity
8
0
100
AcDbSpline
70
0
71
2
72
6
73
3
74
0
42
0.000000001
43
0.0000000001
44
0.0000000001
40
0
40
0
40
0
40
1
40
1
40
1
10
3.5559872409238125
20
72.979410431064863
30
0
10
3.8527134677304531
20
72.703145286716719
30
0
10
4.3909124156369472
20
72.703145286716719
30
0
0
SPLINE
5
616
100
AcDbEntity
8
0
100
AcDbSpline
70
0
71
2
72
6
73
3
74
0
42
0.000000001
43
0.0000000001
44
0.0000000001
40
0
40
0
40
0
40
1
40
1
40
1
10
4.3909124156369472
20
72.703145286716719
30
0
10
4.4236550351514126
20
72.703145286716719
30
0
10
4.4891390820874477
20
72.705195686496992
30
0
0
LINE
5
617
100
AcDbEntity
8
0
100
AcDbLine
10
4.4891390820874468
20
72.705195686496992
30
0
11
4.4891390820874477
21
74.325927040256758
31
0
0
SPLINE
5
618
100
AcDbEntity
8
0
100
AcDbSpline
70
0
71
2
72
6
73
3
74
0
42
0.000000001
43
0.0000000001
44
0.0000000001
40
0
40
0
40
0
40
1
40
1
40
1
10
4.4891390820874477
20
74.325927040256758
30
0
10
4.8472563048733974
20
74.305465957798262
30
0
10
5.0375703593625332
20
74.123338005222578
30
0
0
SPLINE
5
619
100
AcDbEntity
8
0
100
AcDbSpline
70
0
71
2
72
6
73
3
74
0
42
0.000000001
43
0.0000000001
44
0.0000000001
40
0
40
0
40
0
40
1
40
1
40
1
10
5.0375703593625332
20
74.123338005222578
30
0
10
5.2278838178052212
20
73.941210052646895
30
0
10
5.2278838178052212
20
73.669040939487715
30
0
0
SPLINE
5
620
100
AcDbEntity
8
0
100
AcDbSpline
70
0
71
2
72
6
73
3
74
0
42
0.000000001
43
0.0000000001
44
0.0000000001
40
0
40
0
40
0
40
1
40
1
40
1
10
5.2278838178052212
20
73.669040939487715
30
0
10
5.2278838178052212
20
73.466447136081953
30
0
10
5.121472241534164
20
73.323200485386153
30
0
0
SPLINE
5
621
100
AcDbEntity
8
0
100
AcDbSpline
70
0
71
2
72
6
73
3
74
0
42
0.000000001
43
0.0000000001
44
0.0000000001
40
0
40
0
40
0
40
1
40
1
40
1
10
5.121472241534164
20
73.323200485386153
30
0
10
5.0150600692166591
20
73.179953834690352
30
0
10
4.7817722579373623
20
73.096054336704512
30
0
0
LINE
5
622
100
AcDbEntity
8
0
100
AcDbLine
10
4.1862741729153896
20
74.305465957798262
30
0
11
4.1862741729153896
21
73.091958305515547
31
0
0
SPLINE
5
623
100
AcDbEntity
8
0
100
AcDbSpline
70
0
71
2
72
6
73
3
74
0
42
0.000000001
43
0.0000000001
44
0.0000000001
40
0
40
0
40
0
40
1
40
1
40
1
10
4.1862741729153896
20
73.091958305515547
30
0
10
3.912058236254623
20
73.116515419163008
30
0
10
3.7749508639706875
20
73.231113693393965
30
0
0
SPLINE
5
624
100
AcDbEntity
8
0
100
AcDbSpline
70
0
71
2
72
6
73
3
74
0
42
0.000000001
43
0.0000000001
44
0.0000000001
40
0
40
0
40
0
40
1
40
1
40
1
10
3.7749508639706875
20
73.231113693393965
30
0
10
3.5621265193356777
20
73.407104751743574
30
0
10
3.5621265193356777
20
73.68745639053752
30
0
0
SPLINE
5
625
100
AcDbEntity
8
0
100
AcDbSpline
70
0
71
2
72
6
73
3
74
0
42
0.000000001
43
0.0000000001
44
0.0000000001
40
0
40
0
40
0
40
1
40
1
40
1
10
3.5621265193356777
20
73.68745639053752
30
0
10
3.5621265193356777
20
73.941210052646895
30
0
10
3.7319765111340786
20
74.114130279697676
30
0
0
SPLINE
5
626
100
AcDbEntity
8
0
100
AcDbSpline
70
0
71
2
72
6
73
3
74
0
42
0.000000001
43
0.0000000001
44
0.0000000001
40
0
40
0
40
0
40
1
40
1
40
1
10
3.7319765111340786
20
74.114130279697676
30
0
10
3.9018265029324795
20
74.287045738376875
30
0
10
4.1862741729153896
20
74.305465957798262
30
0
0
LWPOLYLINE
5
627
100
AcDbEntity
8
0
100
AcDbPolyline
90
4
70
1
43
0.0
10
2.4816355725659633
20
71.086505195774336
10
2.9052371403111721
20
71.086505195774336
10
2.9052371403111721
20
70.718153259434004
10
2.4816355725659633
20
70.718153259434004
0
LWPOLYLINE
5
628
100
AcDbEntity
8
0
100
AcDbPolyline
90
4
70
1
43
0.0
10
3.3083752414120937
20
71.086505195774336
10
5.4816356917752529
20
71.086505195774336
10
5.4816356917752529
20
70.718153259434004
10
3.3083752414120937
20
70.718153259434004
0
LINE
5
629
100
AcDbEntity
8
0
100
AcDbLine
10
5.4816356917752529
20
70.157445213474531
30
0
11
3.3083752414120937
21
70.157445213474531
31
0
0
LINE
5
630
100
AcDbEntity
8
0
100
AcDbLine
10
3.3083752414120937
20
70.157445213474531
30
0
11
3.3083752414120937
21
69.825928947605391
31
0
0
LINE
5
631
100
AcDbEntity
8
0
100
AcDbLine
10
3.3083752414120937
20
69.825928947605391
30
0
11
3.6173788329495693
21
69.825928947605391
31
0
0
SPLINE
5
632
100
AcDbEntity
8
0
100
AcDbSpline
70
0
71
2
72
6
73
3
74
0
42
0.000000001
43
0.0000000001
44
0.0000000001
40
0
40
0
40
0
40
1
40
1
40
1
10
3.6173788329495693
20
69.825928947605391
30
0
10
3.2592622062100673
20
69.58650424210002
30
0
10
3.2592622062100673
20
69.134248039402266
30
0
0
SPLINE
5
633
100
AcDbEntity
8
0
100
AcDbSpline
70
0
71
2
72
6
73
3
74
0
42
0.000000001
43
0.0000000001
44
0.0000000001
40
0
40
0
40
0
40
1
40
1
40
1
10
3.2592622062100673
20
69.134248039402266
30
0
10
3.2592622062100673
20
68.937800666965742
30
0
10
3.3298621198071743
20
68.773062965549727
30
0
0
SPLINE
5
634
100
AcDbEntity
8
0
100
AcDbSpline
70
0
71
2
72
6
73
3
74
0
42
0.000000001
43
0.0000000001
44
0.0000000001
40
0
40
0
40
0
40
1
40
1
40
1
10
3.3298621198071743
20
68.773062965549727
30
0
10
3.4004620334042812
20
68.608330032505293
30
0
10
3.5150603076352382
20
68.526476165928145
30
0
0
SPLINE
5
635
100
AcDbEntity
8
0
100
AcDbSpline
70
0
71
2
72
6
73
3
74
0
42
0.000000001
43
0.0000000001
44
0.0000000001
40
0
40
0
40
0
40
1
40
1
40
1
10
3.5150603076352382
20
68.526476165928145
30
0
10
3.6296573897732998
20
68.444617530979414
30
0
10
3.7872294207944179
20
68.411877891697188
30
0
0
SPLINE
5
636
100
AcDbEntity
8
0
100
AcDbSpline
70
0
71
2
72
6
73
3
74
0
42
0.000000001
43
0.0000000001
44
0.0000000001
40
0
40
0
40
0
40
1
40
1
40
1
10
3.7872294207944179
20
68.411877891697188
30
0
10
3.8895485421551967
20
68.39141204086711
30
0
10
4.1453466435803676
20
68.39141204086711
30
0
0
LINE
5
637
100
AcDbEntity
8
0
100
AcDbLine
10
4.1453466435803685
20
68.39141204086711
30
0
11
5.4816356917752529
21
68.39141204086711
31
0
0
LINE
5
638
100
AcDbEntity
8
0
100
AcDbLine
10
5.4816356917752529
20
68.39141204086711
30
0
11
5.4816356917752529
21
68.759763977207442
31
0
0
LINE
5
639
100
AcDbEntity
8
0
100
AcDbLine
10
5.4816356917752529
20
68.759763977207442
30
0
11
4.1596714278592373
21
68.759763977207442
31
0
0
SPLINE
5
640
100
AcDbEntity
8
0
100
AcDbSpline
70
0
71
2
72
6
73
3
74
0
42
0.000000001
43
0.0000000001
44
0.0000000001
40
0
40
0
40
0
40
1
40
1
40
1
10
4.1596714278592373
20
68.759763977207442
30
0
10
3.934568526400497
20
68.759763977207442
30
0
10
3.8230410834683681
20
68.802736541904707
30
0
0
SPLINE
5
641
100
AcDbEntity
8
0
100
AcDbSpline
70
0
71
2
72
6
73
3
74
0
42
0.000000001
43
0.0000000001
44
0.0000000001
40
0
40
0
40
0
40
1
40
1
40
1
10
3.8230410834683681
20
68.802736541904707
30
0
10
3.7115130444897915
20
68.845713874973555
30
0
10
3.6450055858029629
20
68.955195686496992
30
0
0
SPLINE
5
642
100
AcDbEntity
8
0
100
AcDbSpline
70
0
71
2
72
6
73
3
74
0
42
0.000000001
43
0.0000000001
44
0.0000000001
40
0
40
0
40
0
40
1
40
1
40
1
10
3.6450055858029629
20
68.955195686496992
30
0
10
3.5784975310696865
20
69.06467749802043
30
0
10
3.5784975310696865
20
69.212015411533613
30
0
0
SPLINE
5
643
100
AcDbEntity
8
0
100
AcDbSpline
70
0
71
2
72
6
73
3
74
0
42
0.000000001
43
0.0000000001
44
0.0000000001
40
0
40
0
40
0
40
1
40
1
40
1
10
3.5784975310696865
20
69.212015411533613
30
0
10
3.5784975310696865
20
69.447348854221602
30
0
10
3.7278840562238003
20
69.61821868149211
30
0
0
SPLINE
5
644
100
AcDbEntity
8
0
100
AcDbSpline
70
0
71
2
72
6
73
3
74
0
42
0.000000001
43
0.0000000001
44
0.0000000001
40
0
40
0
40
0
40
1
40
1
40
1
10
3.7278840562238003
20
69.61821868149211
30
0
10
3.8772699853314663
20
69.789093277134199
30
0
10
4.2947325726880337
20
69.789093277134199
30
0
0
LINE
5
645
100
AcDbEntity
8
0
100
AcDbLine
10
4.2947325726880337
20
69.789093277134199
30
0
11
5.4816356917752529
21
69.789093277134199
31
0
0
LINE
5
646
100
AcDbEntity
8
0
100
AcDbLine
10
5.4816356917752529
20
69.789093277134199
30
0
11
5.4816356917752529
21
70.157445213474531
31
0
0
LINE
5
647
100
AcDbEntity
8
0
100
AcDbLine
10
4.8329315205945278
20
67.973950645603438
30
0
11
4.775632979525497
21
67.609694740452071
31
0
0
SPLINE
5
648
100
AcDbEntity
8
0
100
AcDbSpline
70
0
71
2
72
6
73
3
74
0
42
0.000000001
43
0.0000000001
44
0.0000000001
40
0
40
0
40
0
40
1
40
1
40
1
10
4.775632979525497
20
67.609694740452071
30
0
10
4.9945960065259243
20
67.578995964206953
30
0
10
5.1112399121655727
20
67.438820144809981
30
0
0
SPLINE
5
649
100
AcDbEntity
8
0
100
AcDbSpline
70
0
71
2
72
6
73
3
74
0
42
0.000000001
43
0.0000000001
44
0.0000000001
40
0
40
0
40
0
40
1
40
1
40
1
10
5.1112399121655727
20
67.438820144809981
30
0
10
5.2278838178052212
20
67.298644325413008
30
0
10
5.2278838178052212
20
67.046941063083906
30
0
0
SPLINE
5
650
100
AcDbEntity
8
0
100
AcDbSpline
70
0
71
2
72
6
73
3
74
0
42
0.000000001
43
0.0000000001
44
0.0000000001
40
0
40
0
40
0
40
1
40
1
40
1
10
5.2278838178052212
20
67.046941063083906
30
0
10
5.2278838178052212
20
66.793187400974531
30
0
10
5.1245412846936489
20
66.670401832737227
30
0
0
SPLINE
5
651
100
AcDbEntity
8
0
100
AcDbSpline
70
0
71
2
72
6
73
3
74
0
42
0.000000001
43
0.0000000001
44
0.0000000001
40
0
40
0
40
0
40
1
40
1
40
1
10
5.1245412846936489
20
66.670401832737227
30
0
10
5.0211993476285244
20
66.547621032871504
30
0
10
4.8820451518430019
20
66.547621032871504
30
0
0
SPLINE
5
652
100
AcDbEntity
8
0
100
AcDbSpline
70
0
71
2
72
6
73
3
74
0
42
0.000000001
43
0.0000000001
44
0.0000000001
40
0
40
0
40
0
40
1
40
1
40
1
10
4.8820451518430019
20
66.547621032871504
30
0
10
4.7572157403363491
20
66.547621032871504
30
0
10
4.6855918189420009
20
66.656077644504805
30
0
0
SPLINE
5
653
100
AcDbEntity
8
0
100
AcDbSpline
70
0
71
2
72
6
73
3
74
0
42
0.000000001
43
0.0000000001
44
0.0000000001
40
0
40
0
40
0
40
1
40
1
40
1
10
4.6855918189420009
20
66.656077644504805
30
0
10
4.6364787837399746
20
66.731794616855879
30
0
10
4.5607624074353481
20
67.032616874851485
30
0
0
SPLINE
5
654
100
AcDbEntity
8
0
100
AcDbSpline
70
0
71
2
72
6
73
3
74
0
42
0.000000001
43
0.0000000001
44
0.0000000001
40
0
40
0
40
0
40
1
40
1
40
1
10
4.5607624074353481
20
67.032616874851485
30
0
10
4.4584432860745693
20
67.437794944919844
30
0
10
4.3837503215207363
20
67.594345352329512
30
0
0
SPLINE
5
655
100
AcDbEntity
8
0
100
AcDbSpline
70
0
71
2
72
6
73
3
74
0
42
0.000000001
43
0.0000000001
44
0.0000000001
40
0
40
0
40
0
40
1
40
1
40
1
10
4.3837503215207363
20
67.594345352329512
30
0
10
4.3090573569669033
20
67.75089575973918
30
0
10
4.1770652552975918
20
67.831729194797774
30
0
0
SPLINE
5
656
100
AcDbEntity
8
0
100
AcDbSpline
70
0
71
2
72
6
73
3
74
0
42
0.000000001
43
0.0000000001
44
0.0000000001
40
0
40
0
40
0
40
1
40
1
40
1
10
4.1770652552975918
20
67.831729194797774
30
0
10
4.045073749674728
20
67.912562629856367
30
0
10
3.8854554911984707
20
67.912562629856367
30
0
0
SPLINE
5
657
100
AcDbEntity
8
0
100
AcDbSpline
70
0
71
2
72
6
73
3
74
0
42
0.000000001
43
0.0000000001
44
0.0000000001
40
0
40
0
40
0
40
1
40
1
40
1
10
3.8854554911984707
20
67.912562629856367
30
0
10
3.740162017001083
20
67.912562629856367
30
0
10
3.6163560172452236
20
67.846053383030196
30
0
0
SPLINE
5
658
100
AcDbEntity
8
0
100
AcDbSpline
70
0
71
2
72
6
73
3
74
0
42
0.000000001
43
0.0000000001
44
0.0000000001
40
0
40
0
40
0
40
1
40
1
40
1
10
3.6163560172452236
20
67.846053383030196
30
0
10
3.4925500174893642
20
67.779544136204024
30
0
10
3.4106943627728725
20
67.664945861973067
30
0
0
SPLINE
5
659
100
AcDbEntity
8
0
100
AcDbSpline
70
0
71
2
72
6
73
3
74
0
42
0.000000001
43
0.0000000001
44
0.0000000001
40
0
40
0
40
0
40
1
40
1
40
1
10
3.4106943627728725
20
67.664945861973067
30
0
10
3.3472565432919765
20
67.578995964206953
30
0
10
3.3032587787045742
20
67.430632850803633
30
0
0
SPLINE
5
660
100
AcDbEntity
8
0
100
AcDbSpline
70
0
71
2
72
6
73
3
74
0
42
0.000000001
43
0.0000000001
44
0.0000000001
40
0
40
0
40
0
40
1
40
1
40
1
10
3.3032587787045742
20
67.430632850803633
30
0
10
3.2592616101636196
20
67.282269737400313
30
0
10
3.2592616101636196
20
67.11242034164836
30
0
0
SPLINE
5
661
100
AcDbEntity
8
0
100
AcDbSpline
70
0
71
2
72
6
73
3
74
0
42
0.000000001
43
0.0000000001
44
0.0000000001
40
0
40
0
40
0
40
1
40
1
40
1
10
3.2592616101636196
20
67.11242034164836
30
0
10
3.2592616101636196
20
66.856625816501875
30
0
10
3.3329317590131069
20
66.663239738621016
30
0
0
SPLINE
5
662
100
AcDbEntity
8
0
100
AcDbSpline
70
0
71
2
72
6
73
3
74
0
42
0.000000001
43
0.0000000001
44
0.0000000001
40
0
40
0
40
0
40
1
40
1
40
1
10
3.3329317590131069
20
66.663239738621016
30
0
10
3.4066013118161464
20
66.469858429111738
30
0
10
3.5324541350735927
20
66.377771637119551
30
0
0
SPLINE
5
663
100
AcDbEntity
8
0
100
AcDbSpline
70
0
71
2
72
6
73
3
74
0
42
0.000000001
43
0.0000000001
44
0.0000000001
40
0
40
0
40
0
40
1
40
1
40
1
10
3.5324541350735927
20
66.377771637119551
30
0
10
3.658306958331039
20
66.285680076755781
30
0
10
3.8690844794644619
20
66.250894806064863
30
0
0
LINE
5
664
100
AcDbEntity
8
0
100
AcDbLine
10
3.8690844794644619
20
66.250894806064878
30
0
11
3.9181975146664882
21
66.611059448398848
31
0
0
SPLINE
5
665
100
AcDbEntity
8
0
100
AcDbSpline
70
0
71
2
72
6
73
3
74
0
42
0.000000001
43
0.0000000001
44
0.0000000001
40
0
40
0
40
0
40
1
40
1
40
1
10
3.9181975146664882
20
66.611059448398848
30
0
10
3.7503943463696743
20
66.635611793674727
30
0
10
3.6562601348294521
20
66.753285667576094
30
0
0
SPLINE
5
666
100
AcDbEntity
8
0
100
AcDbSpline
70
0
71
2
72
6
73
3
74
0
42
0.000000001
43
0.0000000001
44
0.0000000001
40
0
40
0
40
0
40
1
40
1
40
1
10
3.6562601348294521
20
66.753285667576094
30
0
10
3.5621265193356777
20
66.870950004734297
30
0
10
3.5621265193356777
20
67.085822364963789
30
0
0
SPLINE
5
667
100
AcDbEntity
8
0
100
AcDbSpline
70
0
71
2
72
6
73
3
74
0
42
0.000000001
43
0.0000000001
44
0.0000000001
40
0
40
0
40
0
40
1
40
1
40
1
10
3.5621265193356777
20
67.085822364963789
30
0
10
3.5621265193356777
20
67.339571258701582
30
0
10
3.6460284015073086
20
67.448027870334883
30
0
0
SPLINE
5
668
100
AcDbEntity
8
0
100
AcDbSpline
70
0
71
2
72
6
73
3
74
0
42
0.000000001
43
0.0000000001
44
0.0000000001
40
0
40
0
40
0
40
1
40
1
40
1
10
3.6460284015073086
20
67.448027870334883
30
0
10
3.7299302836789394
20
67.556489250339766
30
0
10
3.8424817344083095
20
67.556489250339766
30
0
0
SPLINE
5
669
100
AcDbEntity
8
0
100
AcDbSpline
70
0
71
2
72
6
73
3
74
0
42
0.000000001
43
0.0000000001
44
0.0000000001
40
0
40
0
40
0
40
1
40
1
40
1
10
3.8424817344083095
20
67.556489250339766
30
0
10
3.9141050597562099
20
67.556489250339766
30
0
10
3.9714036008252407
20
67.511466285862227
30
0
0
SPLINE
5
670
100
AcDbEntity
8
0
100
AcDbSpline
70
0
71
2
72
6
73
3
74
0
42
0.000000001
43
0.0000000001
44
0.0000000001
40
0
40
0
40
0
40
1
40
1
40
1
10
3.9714036008252407
20
67.511466285862227
30
0
10
4.0307489653958584
20
67.46644808975627
30
0
10
4.0696302672757412
20
67.370265266575117
30
0
0
SPLINE
5
671
100
AcDbEntity
8
0
100
AcDbSpline
70
0
71
2
72
6
73
3
74
0
42
0.000000001
43
0.0000000001
44
0.0000000001
40
0
40
0
40
0
40
1
40
1
40
1
10
4.0696302672757412
20
67.370265266575117
30
0
10
4.0900937339200283
20
67.315014145054121
30
0
10
4.1637638827695156
20
67.044890663303633
30
0
0
SPLINE
5
672
100
AcDbEntity
8
0
100
AcDbSpline
70
0
71
2
72
6
73
3
74
0
42
0.000000001
43
0.0000000001
44
0.0000000001
40
0
40
0
40
0
40
1
40
1
40
1
10
4.1637638827695156
20
67.044890663303633
30
0
10
4.2681298276318813
20
66.654032013096113
30
0
10
4.3346372863187099
20
66.499532005466719
30
0
0
SPLINE
5
673
100
AcDbEntity
8
0
100
AcDbSpline
70
0
71
2
72
6
73
3
74
0
42
0.000000001
43
0.0000000001
44
0.0000000001
40
0
40
0
40
0
40
1
40
1
40
1
10
4.3346372863187099
20
66.499532005466719
30
0
10
4.4011447450055385
20
66.345027229465742
30
0
10
4.5280203839673305
20
66.257031700290938
30
0
0
SPLINE
5
674
100
AcDbEntity
8
0
100
AcDbSpline
70
0
71
2
72
6
73
3
74
0
42
0.000000001
43
0.0000000001
44
0.0000000001
40
0
40
0
40
0
40
1
40
1
40
1
10
4.5280203839673305
20
66.257031700290938
30
0
10
4.6548960229291225
20
66.169036171116133
30
0
10
4.8431638499631191
20
66.169036171116133
30
0
0
SPLINE
5
675
100
AcDbEntity
8
0
100
AcDbSpline
70
0
71
2
72
6
73
3
74
0
42
0.000000001
43
0.0000000001
44
0.0000000001
40
0
40
0
40
0
40
1
40
1
40
1
10
4.8431638499631191
20
66.169036171116133
30
0
10
5.0273380299939419
20
66.169036171116133
30
0
10
5.1900259276761318
20
66.276477119602461
30
0
0
SPLINE
5
676
100
AcDbEntity
8
0
100
AcDbSpline
70
0
71
2
72
6
73
3
74
0
42
0.000000001
43
0.0000000001
44
0.0000000001
40
0
40
0
40
0
40
1
40
1
40
1
10
5.1900259276761318
20
66.276477119602461
30
0
10
5.352713229311874
20
66.383908531345625
30
0
10
5.4417309781445766
20
66.586502334751387
30
0
0
SPLINE
5
677
100
AcDbEntity
8
0
100
AcDbSpline
70
0
71
2
72
6
73
3
74
0
42
0.000000001
43
0.0000000001
44
0.0000000001
40
0
40
0
40
0
40
1
40
1
40
1
10
5.4417309781445766
20
66.586502334751387
30
0
10
5.5307487269772793
20
66.789096138157149
30
0
10
5.5307487269772793
20
67.044890663303633
30
0
0
SPLINE
5
678
100
AcDbEntity
8
0
100
AcDbSpline
70
0
71
2
72
6
73
3
74
0
42
0.000000001
43
0.0000000001
44
0.0000000001
40
0
40
0
40
0
40
1
40
1
40
1
10
5.5307487269772793
20
67.044890663303633
30
0
10
5.5307487269772793
20
67.468493721164961
30
0
10
5.3547600528134609
20
67.690528175510664
30
0
0
SPLINE
5
679
100
AcDbEntity
8
0
100
AcDbSpline
70
0
71
2
72
6
73
3
74
0
42
0.000000001
43
0.0000000001
44
0.0000000001
40
0
40
0
40
0
40
1
40
1
40
1
10
5.3547600528134609
20
67.690528175510664
30
0
10
5.1787707826031948
20
67.912562629856367
30
0
10
4.8329315205945278
20
67.973950645603438
30
0
0
LWPOLYLINE
5
680
100
AcDbEntity
8
0
100
AcDbPolyline
90
4
70
1
43
0.0
10
2.4816355725659633
20
65.729068061985274
10
2.9052371403111721
20
65.729068061985274
10
2.9052371403111721
20
65.360720894016524
10
2.4816355725659633
20
65.360720894016524
0
LWPOLYLINE
5
681
100
AcDbEntity
8
0
100
AcDbPolyline
90
4
70
1
43
0.0
10
3.3083752414120937
20
65.729068061985274
10
5.4816356917752529
20
65.729068061985274
10
5.4816356917752529
20
65.360720894016524
10
3.3083752414120937
20
65.360720894016524
0
LINE
5
682
100
AcDbEntity
8
0
100
AcDbLine
10
5.4816356917752529
20
63.390048286594649
30
0
11
5.207420351160934
21
63.390048286594649
31
0
0
SPLINE
5
683
100
AcDbEntity
8
0
100
AcDbSpline
70
0
71
2
72
6
73
3
74
0
42
0.000000001
43
0.0000000001
44
0.0000000001
40
0
40
0
40
0
40
1
40
1
40
1
10
5.207420351160934
20
63.390048286594649
30
0
10
5.5307487269772793
20
63.596738121189375
30
0
10
5.5307487269772793
20
63.997824928440352
30
0
0
SPLINE
5
684
100
AcDbEntity
8
0
100
AcDbSpline
70
0
71
2
72
6
73
3
74
0
42
0.000000001
43
0.0000000001
44
0.0000000001
40
0
40
0
40
0
40
1
40
1
40
1
10
5.5307487269772793
20
63.997824928440352
30
0
10
5.5307487269772793
20
64.257720253147383
30
0
10
5.3875020762814785
20
64.475653907932539
30
0
0
SPLINE
5
685
100
AcDbEntity
8
0
100
AcDbSpline
70
0
71
2
72
6
73
3
74
0
42
0.000000001
43
0.0000000001
44
0.0000000001
40
0
40
0
40
0
40
1
40
1
40
1
10
5.3875020762814785
20
64.475653907932539
30
0
10
5.2442548295392299
20
64.69359709946086
30
0
10
4.9874339124097133
20
64.813311836399336
30
0
0
SPLINE
5
686
100
AcDbEntity
8
0
100
AcDbSpline
70
0
71
2
72
6
73
3
74
0
42
0.000000001
43
0.0000000001
44
0.0000000001
40
0
40
0
40
0
40
1
40
1
40
1
10
4.9874339124097133
20
64.813311836399336
30
0
10
4.730612399233749
20
64.933026573337813
30
0
10
4.3970516940488125
20
64.933026573337813
30
0
0
SPLINE
5
687
100
AcDbEntity
8
0
100
AcDbSpline
70
0
71
2
72
6
73
3
74
0
42
0.000000001
43
0.0000000001
44
0.0000000001
40
0
40
0
40
0
40
1
40
1
40
1
10
4.3970516940488125
20
64.933026573337813
30
0
10
4.0716764947308803
20
64.933026573337813
30
0
10
3.8066700717343593
20
64.82456519333293
30
0
0
SPLINE
5
688
100
AcDbEntity
8
0
100
AcDbSpline
70
0
71
2
72
6
73
3
74
0
42
0.000000001
43
0.0000000001
44
0.0000000001
40
0
40
0
40
0
40
1
40
1
40
1
10
3.8066700717343593
20
64.82456519333293
30
0
10
3.5416630526913906
20
64.716108581699629
30
0
10
3.400462629450729
20
64.499190590061446
30
0
0
SPLINE
5
689
100
AcDbEntity
8
0
100
AcDbSpline
70
0
71
2
72
6
73
3
74
0
42
0.000000001
43
0.0000000001
44
0.0000000001
40
0
40
0
40
0
40
1
40
1
40
1
10
3.400462629450729
20
64.499190590061446
30
0
10
3.2592622062100673
20
64.282277366794844
30
0
10
3.2592622062100673
20
64.014199516453047
30
0
0
SPLINE
5
690
100
AcDbEntity
8
0
100
AcDbSpline
70
0
71
2
72
6
73
3
74
0
42
0.000000001
43
0.0000000001
44
0.0000000001
40
0
40
0
40
0
40
1
40
1
40
1
10
3.2592622062100673
20
64.014199516453047
30
0
10
3.2592622062100673
20
63.81774260727336
30
0
10
3.3421406766309047
20
63.664267799534102
30
0
0
SPLINE
5
691
100
AcDbEntity
8
0
100
AcDbSpline
70
0
71
2
72
6
73
3
74
0
42
0.000000001
43
0.0000000001
44
0.0000000001
40
0
40
0
40
0
40
1
40
1
40
1
10
3.3421406766309047
20
63.664267799534102
30
0
10
3.4250191470517422
20
63.51078345505168
30
0
10
3.5580340644253994
20
63.41460540024211
30
0
0
LINE
5
692
100
AcDbEntity
8
0
100
AcDbLine
10
3.5580340644253989
20
63.41460540024211
30
0
11
2.4816358705891872
21
63.41460540024211
31
0
0
LINE
5
693
100
AcDbEntity
8
0
100
AcDbLine
10
2.4816358705891872
20
63.41460540024211
30
0
11
2.4816358705891872
21
63.048303863682051
31
0
0
LINE
5
694
100
AcDbEntity
8
0
100
AcDbLine
10
2.4816358705891872
20
63.048303863682051
30
0
11
5.4816356917752529
21
63.048303863682051
31
0
0
LINE
5
695
100
AcDbEntity
8
0
100
AcDbLine
10
5.4816356917752529
20
63.048303863682051
30
0
11
5.4816356917752529
21
63.390048286594649
31
0
0
SPLINE
5
696
100
AcDbEntity
8
0
100
AcDbSpline
70
0
71
2
72
6
73
3
74
0
42
0.000000001
43
0.0000000001
44
0.0000000001
40
0
40
0
40
0
40
1
40
1
40
1
10
4.3970516940488125
20
64.554446479954024
30
0
10
4.8145142814053798
20
64.554446479954024
30
0
10
5.0211993476285244
20
64.378455421604414
30
0
0
SPLINE
5
697
100
AcDbEntity
8
0
100
AcDbSpline
70
0
71
2
72
6
73
3
74
0
42
0.000000001
43
0.0000000001
44
0.0000000001
40
0
40
0
40
0
40
1
40
1
40
1
10
5.0211993476285244
20
64.378455421604414
30
0
10
5.2278838178052212
20
64.202464363254805
30
0
10
5.2278838178052212
20
63.963034889377852
30
0
0
SPLINE
5
698
100
AcDbEntity
8
0
100
AcDbSpline
70
0
71
2
72
6
73
3
74
0
42
0.000000001
43
0.0000000001
44
0.0000000001
40
0
40
0
40
0
40
1
40
1
40
1
10
5.2278838178052212
20
63.963034889377852
30
0
10
5.2278838178052212
20
63.721564552463789
30
0
10
5.0304076691998745
20
63.552735588230391
30
0
0
SPLINE
5
699
100
AcDbEntity
8
0
100
AcDbSpline
70
0
71
2
72
6
73
3
74
0
42
0.000000001
43
0.0000000001
44
0.0000000001
40
0
40
0
40
0
40
1
40
1
40
1
10
5.0304076691998745
20
63.552735588230391
30
0
10
4.8329321166409756
20
63.383911392368574
30
0
10
4.4277474900616909
20
63.383911392368574
30
0
0
SPLINE
5
700
100
AcDbEntity
8
0
100
AcDbSpline
70
0
71
2
72
6
73
3
74
0
42
0.000000001
43
0.0000000001
44
0.0000000001
40
0
40
0
40
0
40
1
40
1
40
1
10
4.4277474900616909
20
63.383911392368574
30
0
10
3.981635930193832
20
63.383911392368574
30
0
10
3.7729046365155483
20
63.555806419529219
30
0
0
SPLINE
5
701
100
AcDbEntity
8
0
100
AcDbSpline
70
0
71
2
72
6
73
3
74
0
42
0.000000001
43
0.0000000001
44
0.0000000001
40
0
40
0
40
0
40
1
40
1
40
1
10
3.7729046365155483
20
63.555806419529219
30
0
10
3.5641733428372646
20
63.727706215061446
30
0
10
3.5641733428372646
20
63.979409477390547
30
0
0
SPLINE
5
702
100
AcDbEntity
8
0
100
AcDbSpline
70
0
71
2
72
6
73
3
74
0
42
0.000000001
43
0.0000000001
44
0.0000000001
40
0
40
0
40
0
40
1
40
1
40
1
10
3.5641733428372646
20
63.979409477390547
30
0
10
3.5641733428372646
20
64.224975845493574
30
0
10
3.7647191306485439
20
64.389708778538008
30
0
0
SPLINE
5
703
100
AcDbEntity
8
0
100
AcDbSpline
70
0
71
2
72
6
73
3
74
0
42
0.000000001
43
0.0000000001
44
0.0000000001
40
0
40
0
40
0
40
1
40
1
40
1
10
3.7647191306485439
20
64.389708778538008
30
0
10
3.9652649184598232
20
64.554446479954024
30
0
10
4.3970516940488125
20
64.554446479954024
30
0
0
LINE
5
704
100
AcDbEntity
8
0
100
AcDbLine
10
4.7817722579373623
20
60.981453201450606
30
0
11
4.8288390656842495
21
60.600827476658125
31
0
0
SPLINE
5
705
100
AcDbEntity
8
0
100
AcDbSpline
70
0
71
2
72
6
73
3
74
0
42
0.000000001
43
0.0000000001
44
0.0000000001
40
0
40
0
40
0
40
1
40
1
40
1
10
4.8288390656842495
20
60.600827476658125
30
0
10
5.162399770869186
20
60.690863868870039
30
0
10
5.3465745469464565
20
60.934384605564375
30
0
0
SPLINE
5
706
100
AcDbEntity
8
0
100
AcDbSpline
70
0
71
2
72
6
73
3
74
0
42
0.000000001
43
0.0000000001
44
0.0000000001
40
0
40
0
40
0
40
1
40
1
40
1
10
5.3465745469464565
20
60.934384605564375
30
0
10
5.5307487269772793
20
61.177905342258711
30
0
10
5.5307487269772793
20
61.5564854356425
30
0
0
SPLINE
5
707
100
AcDbEntity
8
0
100
AcDbSpline
70
0
71
2
72
6
73
3
74
0
42
0.000000001
43
0.0000000001
44
0.0000000001
40
0
40
0
40
0
40
1
40
1
40
1
10
5.5307487269772793
20
61.5564854356425
30
0
10
5.5307487269772793
20
62.033293983616133
30
0
10
5.237092735423019
20
62.312625190891524
30
0
0
SPLINE
5
708
100
AcDbEntity
8
0
100
AcDbSpline
70
0
71
2
72
6
73
3
74
0
42
0.000000001
43
0.0000000001
44
0.0000000001
40
0
40
0
40
0
40
1
40
1
40
1
10
5.237092735423019
20
62.312625190891524
30
0
10
4.9434367438687588
20
62.591956398166914
30
0
10
4.4134227057828213
20
62.591956398166914
30
0
0
SPLINE
5
709
100
AcDbEntity
8
0
100
AcDbSpline
70
0
71
2
72
6
73
3
74
0
42
0.000000001
43
0.0000000001
44
0.0000000001
40
0
40
0
40
0
40
1
40
1
40
1
10
4.4134227057828213
20
62.591956398166914
30
0
10
3.8649920245541836
20
62.591956398166914
30
0
10
3.5621265193356777
20
62.309554359592696
30
0
0
SPLINE
5
710
100
AcDbEntity
8
0
100
AcDbSpline
70
0
71
2
72
6
73
3
74
0
42
0.000000001
43
0.0000000001
44
0.0000000001
40
0
40
0
40
0
40
1
40
1
40
1
10
3.5621265193356777
20
62.309554359592696
30
0
10
3.2592616101636196
20
62.027157089390059
30
0
10
3.2592616101636196
20
61.576951286472578
30
0
0
SPLINE
5
711
100
AcDbEntity
8
0
100
AcDbSpline
70
0
71
2
72
6
73
3
74
0
42
0.000000001
43
0.0000000001
44
0.0000000001
40
0
40
0
40
0
40
1
40
1
40
1
10
3.2592616101636196
20
61.576951286472578
30
0
10
3.2592616101636196
20
61.141074440159102
30
0
10
3.5559872409238125
20
60.864809295810957
30
0
0
SPLINE
5
712
100
AcDbEntity
8
0
100
AcDbSpline
70
0
71
2
72
6
73
3
74
0
42
0.000000001
43
0.0000000001
44
0.0000000001
40
0
40
0
40
0
40
1
40
1
40
1
10
3.5559872409238125
20
60.864809295810957
30
0
10
3.8527134677304531
20
60.588548919834395
30
0
10
4.3909124156369472
20
60.588548919834395
30
0
0
SPLINE
5
713
100
AcDbEntity
8
0
100
AcDbSpline
70
0
71
2
72
6
73
3
74
0
42
0.000000001
43
0.0000000001
44
0.0000000001
40
0
40
0
40
0
40
1
40
1
40
1
10
4.3909124156369472
20
60.588548919834395
30
0
10
4.4236550351514126
20
60.588548919834395
30
0
10
4.4891390820874477
20
60.590594551243086
30
0
0
LINE
5
714
100
AcDbEntity
8
0
100
AcDbLine
10
4.4891390820874468
20
60.590594551243086
30
0
11
4.4891390820874477
21
62.211330673374434
31
0
0
SPLINE
5
715
100
AcDbEntity
8
0
100
AcDbSpline
70
0
71
2
72
6
73
3
74
0
42
0.000000001
43
0.0000000001
44
0.0000000001
40
0
40
0
40
0
40
1
40
1
40
1
10
4.4891390820874477
20
62.211330673374434
30
0
10
4.8472563048733974
20
62.190869590915938
30
0
10
5.0375703593625332
20
62.008736869968672
30
0
0
SPLINE
5
716
100
AcDbEntity
8
0
100
AcDbSpline
70
0
71
2
72
6
73
3
74
0
42
0.000000001
43
0.0000000001
44
0.0000000001
40
0
40
0
40
0
40
1
40
1
40
1
10
5.0375703593625332
20
62.008736869968672
30
0
10
5.2278838178052212
20
61.826613685764571
30
0
10
5.2278838178052212
20
61.554444572605391
30
0
0
SPLINE
5
717
100
AcDbEntity
8
0
100
AcDbSpline
70
0
71
2
72
6
73
3
74
0
42
0.000000001
43
0.0000000001
44
0.0000000001
40
0
40
0
40
0
40
1
40
1
40
1
10
5.2278838178052212
20
61.554444572605391
30
0
10
5.2278838178052212
20
61.351850769199629
30
0
10
5.121472241534164
20
61.208604118503828
30
0
0
SPLINE
5
718
100
AcDbEntity
8
0
100
AcDbSpline
70
0
71
2
72
6
73
3
74
0
42
0.000000001
43
0.0000000001
44
0.0000000001
40
0
40
0
40
0
40
1
40
1
40
1
10
5.121472241534164
20
61.208604118503828
30
0
10
5.0150600692166591
20
61.065352699436446
30
0
10
4.7817722579373623
20
60.981453201450606
30
0
0
LINE
5
719
100
AcDbEntity
8
0
100
AcDbLine
10
4.1862741729153896
20
62.190869590915938
30
0
11
4.1862741729153896
21
60.977361938633223
31
0
0
SPLINE
5
720
100
AcDbEntity
8
0
100
AcDbSpline
70
0
71
2
72
6
73
3
74
0
42
0.000000001
43
0.0000000001
44
0.0000000001
40
0
40
0
40
0
40
1
40
1
40
1
10
4.1862741729153896
20
60.977361938633223
30
0
10
3.912058236254623
20
61.001919052280684
30
0
10
3.7749508639706875
20
61.116517326511641
30
0
0
SPLINE
5
721
100
AcDbEntity
8
0
100
AcDbSpline
70
0
71
2
72
6
73
3
74
0
42
0.000000001
43
0.0000000001
44
0.0000000001
40
0
40
0
40
0
40
1
40
1
40
1
10
3.7749508639706875
20
61.116517326511641
30
0
10
3.5621265193356777
20
61.292503616489668
30
0
10
3.5621265193356777
20
61.572860023655196
30
0
0
SPLINE
5
722
100
AcDbEntity
8
0
100
AcDbSpline
70
0
71
2
72
6
73
3
74
0
42
0.000000001
43
0.0000000001
44
0.0000000001
40
0
40
0
40
0
40
1
40
1
40
1
10
3.5621265193356777
20
61.572860023655196
30
0
10
3.5621265193356777
20
61.826613685764571
30
0
10
3.7319765111340786
20
61.999533912815352
30
0
0
SPLINE
5
723
100
AcDbEntity
8
0
100
AcDbSpline
70
0
71
2
72
6
73
3
74
0
42
0.000000001
43
0.0000000001
44
0.0000000001
40
0
40
0
40
0
40
1
40
1
40
1
10
3.7319765111340786
20
61.999533912815352
30
0
10
3.9018265029324795
20
62.172449371494551
30
0
10
4.1862741729153896
20
62.190869590915938
30
0
0
LWPOLYLINE
5
724
100
AcDbEntity
8
0
100
AcDbPolyline
90
10
70
1
43
0.0
10
8.2429140809518451
20
116.11581599618188
10
11.242913876877061
20
116.11442326346697
10
11.242729572606695
20
115.71742478158225
10
9.8798373301763398
20
115.71805749649626
10
9.8791837147181543
20
114.31014467862562
10
9.5251592830158618
20
114.31030903243943
10
9.5258128984740473
20
115.71822185031007
10
8.5967545064069633
20
115.71865316034497
10
8.5959992386291315
20
114.09177733906967
10
8.2419745089036489
20
114.09194169302184
0
LINE
5
725
100
AcDbEntity
8
0
100
AcDbLine
10
9.9606113688005244
20
32.266933872087264
30
0
11
9.6086334623560603
21
32.267097275813455
31
0
0
LINE
5
726
100
AcDbEntity
8
0
100
AcDbLine
10
9.6086334623560603
20
32.267097275813455
30
0
11
9.605996973221842
21
30.996293361585899
31
0
0
LINE
5
727
100
AcDbEntity
8
0
100
AcDbLine
10
9.605996973221842
20
30.996293361585899
30
0
11
10.719230121519274
21
30.995776549475764
31
0
0
SPLINE
5
728
100
AcDbEntity
8
0
100
AcDbSpline
70
0
71
2
72
6
73
3
74
0
42
0.000000001
43
0.0000000001
44
0.0000000001
40
0
40
0
40
0
40
1
40
1
40
1
10
10.719230121519274
20
30.995776549475764
30
0
10
10.952653760919585
20
31.288301391273183
30
0
10
11.070465468987303
20
31.599297146421065
30
0
0
SPLINE
5
729
100
AcDbEntity
8
0
100
AcDbSpline
70
0
71
2
72
6
73
3
74
0
42
0.000000001
43
0.0000000001
44
0.0000000001
40
0
40
0
40
0
40
1
40
1
40
1
10
11.070465468987303
20
31.599297146421065
30
0
10
11.188276879031827
20
31.910292901707304
30
0
10
11.188428882536661
20
32.237714293197001
30
0
0
SPLINE
5
730
100
AcDbEntity
8
0
100
AcDbSpline
70
0
71
2
72
6
73
3
74
0
42
0.000000001
43
0.0000000001
44
0.0000000001
40
0
40
0
40
0
40
1
40
1
40
1
10
11.188428882536661
20
32.237714293197001
30
0
10
11.188634087489557
20
32.679733648545195
30
0
10
10.999511144062398
20
33.041008348701851
30
0
0
SPLINE
5
731
100
AcDbEntity
8
0
100
AcDbSpline
70
0
71
2
72
6
73
3
74
0
42
0.000000001
43
0.0000000001
44
0.0000000001
40
0
40
0
40
0
40
1
40
1
40
1
10
10.999511144062398
20
33.041008348701851
30
0
10
10.810388498796783
20
33.402283346743353
30
0
10
10.452356518515719
20
33.586624058939577
30
0
0
SPLINE
5
732
100
AcDbEntity
8
0
100
AcDbSpline
70
0
71
2
72
6
73
3
74
0
42
0.000000001
43
0.0000000001
44
0.0000000001
40
0
40
0
40
0
40
1
40
1
40
1
10
10.452356518515719
20
33.586624058939577
30
0
10
10.094324836257849
20
33.770964770997438
30
0
10
9.6523054809096536
20
33.771169975950329
30
0
0
SPLINE
5
733
100
AcDbEntity
8
0
100
AcDbSpline
70
0
71
2
72
6
73
3
74
0
42
0.000000001
43
0.0000000001
44
0.0000000001
40
0
40
0
40
0
40
1
40
1
40
1
10
9.6523054809096536
20
33.771169975950329
30
0
10
9.2143794741003031
20
33.771373280589629
30
0
10
8.8346897908172934
20
33.5883981652863
30
0
0
SPLINE
5
734
100
AcDbEntity
8
0
100
AcDbSpline
70
0
71
2
72
6
73
3
74
0
42
0.000000001
43
0.0000000001
44
0.0000000001
40
0
40
0
40
0
40
1
40
1
40
1
10
8.8346897908172934
20
33.5883981652863
30
0
10
8.4550007035806694
20
33.405423049706272
30
0
10
8.2706663435595615
20
33.061715852298775
30
0
0
SPLINE
5
735
100
AcDbEntity
8
0
100
AcDbSpline
70
0
71
2
72
6
73
3
74
0
42
0.000000001
43
0.0000000001
44
0.0000000001
40
0
40
0
40
0
40
1
40
1
40
1
10
8.2706663435595615
20
33.061715852298775
30
0
10
8.0863322815616439
20
32.718008654752921
30
0
10
8.0861242268992974
20
32.269850915724014
30
0
0
SPLINE
5
736
100
AcDbEntity
8
0
100
AcDbSpline
70
0
71
2
72
6
73
3
74
0
42
0.000000001
43
0.0000000001
44
0.0000000001
40
0
40
0
40
0
40
1
40
1
40
1
10
8.0861242268992974
20
32.269850915724014
30
0
10
8.0859731730670212
20
31.944475155422573
30
0
10
8.1912398445260663
20
31.6814660620952
30
0
0
SPLINE
5
737
100
AcDbEntity
8
0
100
AcDbSpline
70
0
71
2
72
6
73
3
74
0
42
0.000000001
43
0.0000000001
44
0.0000000001
40
0
40
0
40
0
40
1
40
1
40
1
10
8.1912398445260663
20
31.6814660620952
30
0
10
8.2965065159851097
20
31.418456968767838
30
0
10
8.4847046728770934
20
31.268983057599691
30
0
0
SPLINE
5
738
100
AcDbEntity
8
0
100
AcDbSpline
70
0
71
2
72
6
73
3
74
0
42
0.000000001
43
0.0000000001
44
0.0000000001
40
0
40
0
40
0
40
1
40
1
40
1
10
8.4847046728770934
20
31.268983057599691
30
0
10
8.6729025320225954
20
31.11950974261628
30
0
10
8.9757313077182044
20
31.041606543952838
30
0
0
LINE
5
739
100
AcDbEntity
8
0
100
AcDbLine
10
8.9757313077182026
20
31.041606543952838
30
0
11
9.0741242174343739
21
31.399678126985457
31
0
0
SPLINE
5
740
100
AcDbEntity
8
0
100
AcDbSpline
70
0
71
2
72
6
73
3
74
0
42
0.000000001
43
0.0000000001
44
0.0000000001
40
0
40
0
40
0
40
1
40
1
40
1
10
9.0741242174343739
20
31.399678126985457
30
0
10
8.84496023658002
20
31.467315392765272
30
0
10
8.7140384099094597
20
31.567649077184289
30
0
0
SPLINE
5
741
100
AcDbEntity
8
0
100
AcDbSpline
70
0
71
2
72
6
73
3
74
0
42
0.000000001
43
0.0000000001
44
0.0000000001
40
0
40
0
40
0
40
1
40
1
40
1
10
8.7140384099094597
20
31.567649077184289
30
0
10
8.5831162852157092
20
31.667982761741662
30
0
10
8.5044170282429334
20
31.854240321020594
30
0
0
SPLINE
5
742
100
AcDbEntity
8
0
100
AcDbSpline
70
0
71
2
72
6
73
3
74
0
42
0.000000001
43
0.0000000001
44
0.0000000001
40
0
40
0
40
0
40
1
40
1
40
1
10
8.5044170282429334
20
31.854240321020594
30
0
10
8.4257174732469675
20
32.040497880437883
30
0
10
8.4258229256403983
20
32.26764638882748
30
0
0
SPLINE
5
743
100
AcDbEntity
8
0
100
AcDbSpline
70
0
71
2
72
6
73
3
74
0
42
0.000000001
43
0.0000000001
44
0.0000000001
40
0
40
0
40
0
40
1
40
1
40
1
10
8.4258229256403983
20
32.26764638882748
30
0
10
8.4259492785780044
20
32.539815472657352
30
0
10
8.508920190364476
20
32.738276535633709
30
0
0
SPLINE
5
744
100
AcDbEntity
8
0
100
AcDbSpline
70
0
71
2
72
6
73
3
74
0
42
0.000000001
43
0.0000000001
44
0.0000000001
40
0
40
0
40
0
40
1
40
1
40
1
10
8.508920190364476
20
32.738276535633709
30
0
10
8.5918908039894006
20
32.936737300725234
30
0
10
8.7270087586958738
20
33.058434656433981
30
0
0
SPLINE
5
745
100
AcDbEntity
8
0
100
AcDbSpline
70
0
71
2
72
6
73
3
74
0
42
0.000000001
43
0.0000000001
44
0.0000000001
40
0
40
0
40
0
40
1
40
1
40
1
10
8.7270087586958738
20
33.058434656433981
30
0
10
8.8621267132639918
20
33.180131714119533
30
0
10
9.0238222344289181
20
33.24758722759195
30
0
0
SPLINE
5
746
100
AcDbEntity
8
0
100
AcDbSpline
70
0
71
2
72
6
73
3
74
0
42
0.000000001
43
0.0000000001
44
0.0000000001
40
0
40
0
40
0
40
1
40
1
40
1
10
9.0238222344289181
20
33.24758722759195
30
0
10
9.3021837973187793
20
33.362055690365139
30
0
10
9.6275589615738397
20
33.36190463680957
30
0
0
SPLINE
5
747
100
AcDbEntity
8
0
100
AcDbSpline
70
0
71
2
72
6
73
3
74
0
42
0.000000001
43
0.0000000001
44
0.0000000001
40
0
40
0
40
0
40
1
40
1
40
1
10
9.6275589615738397
20
33.36190463680957
30
0
10
10.028650493974228
20
33.361718432363958
30
0
10
10.298709224013031
20
33.223461962202862
30
0
0
SPLINE
5
748
100
AcDbEntity
8
0
100
AcDbSpline
70
0
71
2
72
6
73
3
74
0
42
0.000000001
43
0.0000000001
44
0.0000000001
40
0
40
0
40
0
40
1
40
1
40
1
10
10.298709224013031
20
33.223461962202862
30
0
10
10.568767656167001
20
33.085205790203304
30
0
10
10.699613779108335
20
32.821161409901087
30
0
0
SPLINE
5
749
100
AcDbEntity
8
0
100
AcDbSpline
70
0
71
2
72
6
73
3
74
0
42
0.000000001
43
0.0000000001
44
0.0000000001
40
0
40
0
40
0
40
1
40
1
40
1
10
10.699613779108335
20
32.821161409901087
30
0
10
10.83045990204967
20
32.557117029598864
30
0
10
10.830322148613995
20
32.26039083476784
30
0
0
SPLINE
5
750
100
AcDbEntity
8
0
100
AcDbSpline
70
0
71
2
72
6
73
3
74
0
42
0.000000001
43
0.0000000001
44
0.0000000001
40
0
40
0
40
0
40
1
40
1
40
1
10
10.830322148613995
20
32.26039083476784
30
0
10
10.830202445874693
20
32.002546533673183
30
0
10
10.730838673901641
20
31.757026864215877
30
0
0
SPLINE
5
751
100
AcDbEntity
8
0
100
AcDbSpline
70
0
71
2
72
6
73
3
74
0
42
0.000000001
43
0.0000000001
44
0.0000000001
40
0
40
0
40
0
40
1
40
1
40
1
10
10.730838673901641
20
31.757026864215877
30
0
10
10.631475199675073
20
31.511506598573828
30
0
10
10.518865157815561
20
31.384683224506411
30
0
0
LINE
5
752
100
AcDbEntity
8
0
100
AcDbLine
10
10.518865157815561
20
31.384683224506404
30
0
11
9.9602019093974228
21
31.384942580718281
31
0
0
LINE
5
753
100
AcDbEntity
8
0
100
AcDbLine
10
9.9602019093974228
20
31.384942580718281
30
0
11
9.9606113688005244
21
32.266933872087264
31
0
0
ENDSEC
0
SECTION
2
OBJECTS
0
DICTIONARY
5
C
100
AcDbDictionary
3
ACAD_GROUP
350
D
3
ACAD_MLINESTYLE
350
17
0
DICTIONARY
5
D
100
AcDbDictionary
0
DICTIONARY
5
1A
330
C
100
AcDbDictionary
0
DICTIONARY
5
17
100
AcDbDictionary
0
ENDSEC
0
EOF
