0
SECTION
2
HEADER
9
$INSUNITS
70
4
9
$ACADVER
1
AC1014
9
$HANDSEED
5
FFFF
0
ENDSEC
0
SECTION
2
TABLES
0
TABLE
2
VPORT
5
8
100
AcDbSymbolTable
0
ENDTAB
0
TABLE
2
LTYPE
5
5
100
AcDbSymbolTable
0
LTYPE
5
14
100
AcDbSymbolTableRecord
100
AcDbLinetypeTableRecord
2
BYBLOCK
70
0
0
LTYPE
5
15
100
AcDbSymbolTableRecord
100
AcDbLinetypeTableRecord
2
BYLAYER
70
0
0
ENDTAB
0
TABLE
2
LAYER
5
2
100
AcDbSymbolTable
70
2
0
LAYER
5
50
100
AcDbSymbolTableRecord
100
AcDbLayerTableRecord
2
0
70
0
6
CONTINUOUS
0
ENDTAB
0
TABLE
2
STYLE
5
3
100
AcDbSymbolTable
70
1
0
STYLE
5
11
100
AcDbSymbolTableRecord
100
AcDbTextStyleTableRecord
2
STANDARD
70
0
0
ENDTAB
0
TABLE
2
VIEW
5
6
100
AcDbSymbolTable
70
0
0
ENDTAB
0
TABLE
2
UCS
5
7
100
AcDbSymbolTable
70
0
0
ENDTAB
0
TABLE
2
APPID
5
9
100
AcDbSymbolTable
70
2
0
APPID
5
12
100
AcDbSymbolTableRecord
100
AcDbRegAppTableRecord
2
ACAD
70
0
0
ENDTAB
0
TABLE
2
DIMSTYLE
5
A
100
AcDbSymbolTable
70
1
0
ENDTAB
0
TABLE
2
BLOCK_RECORD
5
1
100
AcDbSymbolTable
70
1
0
BLOCK_RECORD
5
1F
100
AcDbSymbolTableRecord
100
AcDbBlockTableRecord
2
*MODEL_SPACE
0
BLOCK_RECORD
5
1B
100
AcDbSymbolTableRecord
100
AcDbBlockTableRecord
2
*PAPER_SPACE
0
ENDTAB
0
ENDSEC
0
SECTION
2
BLOCKS
0
BLOCK
5
20
100
AcDbEntity
100
AcDbBlockBegin
2
*MODEL_SPACE
0
ENDBLK
5
21
100
AcDbEntity
100
AcDbBlockEnd
0
BLOCK
5
1C
100
AcDbEntity
100
AcDbBlockBegin
2
*PAPER_SPACE
0
ENDBLK
5
1D
100
AcDbEntity
100
AcDbBlockEnd
0
ENDSEC
0
SECTION
2
ENTITIES
0
LWPOLYLINE
5
100
100
AcDbEntity
8
0
100
AcDbPolyline
90
36
70
1
43
0.0
10
105.38199885806904
20
146.20000000000002
10
105.38199885806905
20
140
10
114.18199885806906
20
140
10
114.18199885807022
20
125
10
120.3819988580716
20
125
10
120.38199885807116
20
105
10
114.18199885806985
20
105
10
114.18199885806935
20
41.200000000004486
10
120.38199885806974
20
41.200000000004465
10
120.38199885808454
20
21.200000000004469
10
114.18199885806921
20
21.200000000004451
10
114.18199885806911
20
6.2000000000047173
10
105.38199885806888
20
6.2000000000043798
10
105.38199885806905
20
0
10
85.381998858069053
20
0
10
85.381998858069053
20
6.2000000000003297
10
-7.8180011419290274
20
6.2000000000000099
10
-7.8180011419309459
20
0
10
-27.81800114193091
20
0
10
-27.818001141930928
20
6.2000000000085009
10
-36.618001141931842
20
6.200000000012249
10
-36.618001141932993
20
21.200000000000045
10
-42.818001141933962
20
21.200000000008501
10
-42.818001141935952
20
41.200000000008501
10
-36.618001141934542
20
41.20000000000001
10
-36.618001141939459
20
105.00000000016183
10
-42.81800114195336
20
105.00000000000348
10
-42.818001141957623
20
125.00000000000348
10
-36.618001141941022
20
125.00000000016183
10
-36.618001141940866
20
140.00000000012943
10
-27.818001141930928
20
140
10
-27.818001141930981
20
146.20000000000002
10
-7.8180011419309281
20
146.20000000000002
10
-7.8180011419309459
20
140
10
85.381998858069053
20
140
10
85.381998858069039
20
146.20000000000002
0
CIRCLE
5
101
100
AcDbEntity
8
0
100
AcDbCircle
10
53.181998858069065
20
73.09999999999998
30
0
40
59
210
0
220
-0
230
1
0
CIRCLE
5
102
100
AcDbEntity
8
0
100
AcDbCircle
10
106.18199885806908
20
20.099999999999891
30
0
40
2.5
210
0
220
-0
230
1
0
CIRCLE
5
103
100
AcDbEntity
8
0
100
AcDbCircle
10
106.18199885806916
20
126.09999999999999
30
0
40
2.5
210
0
220
-0
230
1
0
CIRCLE
5
104
100
AcDbEntity
8
0
100
AcDbCircle
10
0.18199885806907012
20
126.10000000000007
30
0
40
2.499999999999996
210
0
220
-0
230
1
0
CIRCLE
5
105
100
AcDbEntity
8
0
100
AcDbCircle
10
0.18199885806897242
20
20.09999999999998
30
0
40
2.499999999999996
210
0
220
-0
230
1
0
CIRCLE
5
106
100
AcDbEntity
8
0
100
AcDbCircle
10
-24.118001141941015
20
120.00000000007324
30
0
40
6.3499999999999988
210
0
220
-0
230
1
0
LWPOLYLINE
5
107
100
AcDbEntity
8
0
100
AcDbPolyline
90
8
70
1
43
0.0
10
-20.205501141935134
20
83.100000000000165
10
-27.030501141935162
20
83.100000000000165
42
0.41421356237309503
10
-28.618001141935139
20
81.512500000000188
10
-28.618001141935135
20
64.687500000000171
42
0.41421356237309015
10
-27.030501141935144
20
63.100000000000165
10
-20.205501141935155
20
63.100000000000165
42
0.41421356237309664
10
-18.618001141935139
20
64.687500000000185
10
-18.618001141935135
20
81.512500000000159
42
0.41421356237309254
0
ENDSEC
0
SECTION
2
OBJECTS
0
DICTIONARY
5
C
100
AcDbDictionary
3
ACAD_GROUP
350
D
3
ACAD_MLINESTYLE
350
17
0
DICTIONARY
5
D
100
AcDbDictionary
0
DICTIONARY
5
1A
330
C
100
AcDbDictionary
0
DICTIONARY
5
17
100
AcDbDictionary
0
ENDSEC
0
EOF
