0
SECTION
2
HEADER
9
$INSUNITS
70
4
9
$ACADVER
1
AC1014
9
$HANDSEED
5
FFFF
0
ENDSEC
0
SECTION
2
TABLES
0
TABLE
2
VPORT
5
8
100
AcDbSymbolTable
0
ENDTAB
0
TABLE
2
LTYPE
5
5
100
AcDbSymbolTable
0
LTYPE
5
14
100
AcDbSymbolTableRecord
100
AcDbLinetypeTableRecord
2
BYBLOCK
70
0
0
LTYPE
5
15
100
AcDbSymbolTableRecord
100
AcDbLinetypeTableRecord
2
BYLAYER
70
0
0
ENDTAB
0
TABLE
2
LAYER
5
2
100
AcDbSymbolTable
70
2
0
LAYER
5
50
100
AcDbSymbolTableRecord
100
AcDbLayerTableRecord
2
0
70
0
6
CONTINUOUS
0
ENDTAB
0
TABLE
2
STYLE
5
3
100
AcDbSymbolTable
70
1
0
STYLE
5
11
100
AcDbSymbolTableRecord
100
AcDbTextStyleTableRecord
2
STANDARD
70
0
0
ENDTAB
0
TABLE
2
VIEW
5
6
100
AcDbSymbolTable
70
0
0
ENDTAB
0
TABLE
2
UCS
5
7
100
AcDbSymbolTable
70
0
0
ENDTAB
0
TABLE
2
APPID
5
9
100
AcDbSymbolTable
70
2
0
APPID
5
12
100
AcDbSymbolTableRecord
100
AcDbRegAppTableRecord
2
ACAD
70
0
0
ENDTAB
0
TABLE
2
DIMSTYLE
5
A
100
AcDbSymbolTable
70
1
0
ENDTAB
0
TABLE
2
BLOCK_RECORD
5
1
100
AcDbSymbolTable
70
1
0
BLOCK_RECORD
5
1F
100
AcDbSymbolTableRecord
100
AcDbBlockTableRecord
2
*MODEL_SPACE
0
BLOCK_RECORD
5
1B
100
AcDbSymbolTableRecord
100
AcDbBlockTableRecord
2
*PAPER_SPACE
0
ENDTAB
0
ENDSEC
0
SECTION
2
BLOCKS
0
BLOCK
5
20
100
AcDbEntity
100
AcDbBlockBegin
2
*MODEL_SPACE
0
ENDBLK
5
21
100
AcDbEntity
100
AcDbBlockEnd
0
BLOCK
5
1C
100
AcDbEntity
100
AcDbBlockBegin
2
*PAPER_SPACE
0
ENDBLK
5
1D
100
AcDbEntity
100
AcDbBlockEnd
0
ENDSEC
0
SECTION
2
ENTITIES
0
LWPOLYLINE
5
100
100
AcDbEntity
8
0
100
AcDbPolyline
90
4
70
1
43
0.0
10
-327.61621434844687
20
106.19999999999999
10
-339.61621434844687
20
106.19999999999999
10
-339.61621434844687
20
100
10
-327.61621434844687
20
100
0
LWPOLYLINE
5
101
100
AcDbEntity
8
0
100
AcDbPolyline
90
12
70
1
43
0.0
10
-344.61621437503322
20
6.1999999999999744
10
-350.23805779003055
20
6.1999999999976474
10
-350.23805779003055
20
135.99999999999943
10
-344.61621437110682
20
135.99999999999915
10
-344.61621437110682
20
146.20000228873377
10
-329.61621437110807
20
146.19999968335995
10
-329.61621429048409
20
139.99999999999946
10
-319.61621434844693
20
139.99999999999918
10
-319.61621434844699
20
6.1999999999992106
10
-329.61621437502561
20
6.1999999999999744
10
-329.61621437502561
20
-3.5527136788005009e-14
10
-344.61621437503311
20
-3.5527136788005009e-14
0
LWPOLYLINE
5
102
100
AcDbEntity
8
0
100
AcDbPolyline
90
4
70
1
43
0.0
10
-332.12923915007889
20
40.544008923491205
10
-332.12923915007883
20
95.739565667409011
10
-337.79032189304462
20
95.739565667409011
10
-337.79032189304462
20
40.544008923491276
0
LWPOLYLINE
5
103
100
AcDbEntity
8
0
100
AcDbPolyline
90
4
70
1
43
0.0
10
-334.03176580845013
20
139.00616095531808
10
-334.03176580845002
20
148.25796269922273
10
-338.41386911129774
20
148.25796269922267
10
-338.41386911129769
20
139.00616095531814
0
LWPOLYLINE
5
104
100
AcDbEntity
8
0
100
AcDbPolyline
90
4
70
1
43
0.0
10
-345.28007184649573
20
40.770747418257251
10
-345.28007184649567
20
95.966304162174922
10
-350.94115458946141
20
95.966304162174922
10
-350.94115458946141
20
40.770747418257322
0
LWPOLYLINE
5
105
100
AcDbEntity
8
0
100
AcDbPolyline
90
12
70
1
43
0.0
10
-336.45978022272209
20
83.842673663694015
10
-333.4597801035128
20
83.842673663693986
10
-333.4597801035128
20
83.445675735074602
10
-334.87383175546745
20
83.445675735074616
10
-334.87383175546745
20
81.88633001287613
10
-333.4597801035128
20
81.886330012876115
10
-333.4597801035128
20
81.489332084256745
10
-336.45978022272209
20
81.489332084256773
10
-336.45978022272209
20
81.886330012876158
10
-335.22785652334312
20
81.886330012876144
10
-335.22785652334312
20
83.44567573507463
10
-336.45978022272209
20
83.445675735074644
0
SPLINE
5
106
100
AcDbEntity
8
0
100
AcDbSpline
70
0
71
2
72
6
73
3
74
0
42
0.000000001
43
0.0000000001
44
0.0000000001
40
0
40
0
40
0
40
1
40
1
40
1
10
-334.54641032869438
20
81.012523536283112
30
-2.9000007742558494e-13
10
-335.15009391958336
20
81.012523536283126
30
-3.1273122319818805e-13
10
-335.44068056995491
20
80.676916007596603
30
-3.249690955994509e-13
0
SPLINE
5
107
100
AcDbEntity
8
0
100
AcDbSpline
70
0
71
2
72
6
73
3
74
0
42
0.000000001
43
0.0000000001
44
0.0000000001
40
0
40
0
40
0
40
1
40
1
40
1
10
-335.44068056995491
20
80.676916007596603
30
-3.249690955994509e-13
10
-335.68215418512443
20
80.396561984616866
30
-3.3514427558940175e-13
10
-335.68215418512443
20
79.993424777585616
30
-3.3670117381202308e-13
0
SPLINE
5
108
100
AcDbEntity
8
0
100
AcDbSpline
70
0
71
2
72
6
73
3
74
0
42
0.000000001
43
0.0000000001
44
0.0000000001
40
0
40
0
40
0
40
1
40
1
40
1
10
-335.68215418512443
20
79.993424777585616
30
-3.3670117381202308e-13
10
-335.68215418512443
20
79.545265798169723
30
-3.3843194414613001e-13
10
-335.38849759752372
20
79.260818128186813
30
-3.2847310210353588e-13
0
SPLINE
5
109
100
AcDbEntity
8
0
100
AcDbSpline
70
0
71
2
72
6
73
3
74
0
42
0.000000001
43
0.0000000001
44
0.0000000001
40
0
40
0
40
0
40
1
40
1
40
1
10
-335.38849759752372
20
79.260818128186813
30
-3.2847310210353588e-13
10
-335.09484160596946
20
78.976371650296798
30
-3.1851427790070745e-13
10
-334.57710612470726
20
78.976371650296784
30
-2.9901942848979407e-13
0
SPLINE
5
110
100
AcDbEntity
8
0
100
AcDbSpline
70
0
71
2
72
6
73
3
74
0
42
0.000000001
43
0.0000000001
44
0.0000000001
40
0
40
0
40
0
40
1
40
1
40
1
10
-334.57710612470726
20
78.976371650296784
30
-2.9901942848979407e-13
10
-334.15759730989555
20
78.976371650296784
30
-2.8322321311091591e-13
10
-333.91714710647682
20
79.102223281461335
30
-2.7368325020615514e-13
0
SPLINE
5
111
100
AcDbEntity
8
0
100
AcDbSpline
70
0
71
2
72
6
73
3
74
0
42
0.000000001
43
0.0000000001
44
0.0000000001
40
0
40
0
40
0
40
1
40
1
40
1
10
-333.91714710647682
20
79.102223281461335
30
-2.7368325020615514e-13
10
-333.67669690305809
20
79.228076104718767
30
-2.6414328269758384e-13
10
-333.54368198568443
20
79.46852720220717
30
-2.5820611774018751e-13
0
SPLINE
5
112
100
AcDbEntity
8
0
100
AcDbSpline
70
0
71
2
72
6
73
3
74
0
42
0.000000001
43
0.0000000001
44
0.0000000001
40
0
40
0
40
0
40
1
40
1
40
1
10
-333.54368198568443
20
79.46852720220717
30
-2.5820611774018751e-13
10
-333.41066706831077
20
79.708977107602678
30
-2.5226895738660175e-13
10
-333.41066706831077
20
79.993424777585588
30
-2.5117043295347783e-13
0
SPLINE
5
113
100
AcDbEntity
8
0
100
AcDbSpline
70
0
71
2
72
6
73
3
74
0
42
0.000000001
43
0.0000000001
44
0.0000000001
40
0
40
0
40
0
40
1
40
1
40
1
10
-333.41066706831077
20
79.993424777585588
30
-2.5117043295347783e-13
10
-333.41066706831077
20
80.449767474729143
30
-2.4940805746022803e-13
10
-333.70329994613746
20
80.731145505506134
30
-2.5934020747270664e-13
0
SPLINE
5
114
100
AcDbEntity
8
0
100
AcDbSpline
70
0
71
2
72
6
73
3
74
0
42
0.000000001
43
0.0000000001
44
0.0000000001
40
0
40
0
40
0
40
1
40
1
40
1
10
-333.70329994613746
20
80.731145505506134
30
-2.5934020747270664e-13
10
-333.99593282396415
20
81.012523536283112
30
-2.6927235748518525e-13
10
-334.54641032869438
20
81.012523536283112
30
-2.9000007742558494e-13
0
SPLINE
5
115
100
AcDbEntity
8
0
100
AcDbSpline
70
0
71
2
72
6
73
3
74
0
42
0.000000001
43
0.0000000001
44
0.0000000001
40
0
40
0
40
0
40
1
40
1
40
1
10
-334.54641032869438
20
80.633942250806427
30
-2.9146214175553565e-13
10
-334.12894774133781
20
80.633942250806427
30
-2.7574297517385636e-13
10
-333.92123985941032
20
80.451814298230744
30
-2.6862529767293752e-13
0
SPLINE
5
116
100
AcDbEntity
8
0
100
AcDbSpline
70
0
71
2
72
6
73
3
74
0
42
0.000000001
43
0.0000000001
44
0.0000000001
40
0
40
0
40
0
40
1
40
1
40
1
10
-333.92123985941032
20
80.451814298230744
30
-2.6862529767293752e-13
10
-333.71353167945961
20
80.26968634565506
30
-2.6150760895023053e-13
10
-333.71353167945961
20
79.993424777585588
30
-2.6257451901659065e-13
0
SPLINE
5
117
100
AcDbEntity
8
0
100
AcDbSpline
70
0
71
2
72
6
73
3
74
0
42
0.000000001
43
0.0000000001
44
0.0000000001
40
0
40
0
40
0
40
1
40
1
40
1
10
-333.71353167945961
20
79.993424777585588
30
-2.6257451901659065e-13
10
-333.71353167945961
20
79.719208840924821
30
-2.636335289441176e-13
10
-333.92226297313789
20
79.537079696256257
30
-2.7219648700830109e-13
0
SPLINE
5
118
100
AcDbEntity
8
0
100
AcDbSpline
70
0
71
2
72
6
73
3
74
0
42
0.000000001
43
0.0000000001
44
0.0000000001
40
0
40
0
40
0
40
1
40
1
40
1
10
-333.92226297313789
20
79.537079696256257
30
-2.7219648700830109e-13
10
-334.13099426681617
20
79.354951743680573
30
-2.8075944046867401e-13
10
-334.55868858749488
20
79.354951743680573
30
-2.9686387347992378e-13
0
SPLINE
5
119
100
AcDbEntity
8
0
100
AcDbSpline
70
0
71
2
72
6
73
3
74
0
42
0.000000001
43
0.0000000001
44
0.0000000001
40
0
40
0
40
0
40
1
40
1
40
1
10
-334.55868858749488
20
79.354951743680573
30
-2.9686387347992378e-13
10
-334.96182668859581
20
79.354951743680587
30
-3.1204366481584686e-13
10
-335.1695345705233
20
79.538103704053512
30
-3.1915738764353869e-13
0
SPLINE
5
120
100
AcDbEntity
8
0
100
AcDbSpline
70
0
71
2
72
6
73
3
74
0
42
0.000000001
43
0.0000000001
44
0.0000000001
40
0
40
0
40
0
40
1
40
1
40
1
10
-335.1695345705233
20
79.538103704053512
30
-3.1915738764353869e-13
10
-335.37724245245079
20
79.721255664426437
30
-3.2627111047123046e-13
10
-335.37724245245079
20
79.993424777585616
30
-3.2522000528634701e-13
0
SPLINE
5
121
100
AcDbEntity
8
0
100
AcDbSpline
70
0
71
2
72
6
73
3
74
0
42
0.000000001
43
0.0000000001
44
0.0000000001
40
0
40
0
40
0
40
1
40
1
40
1
10
-335.37724245245079
20
79.993424777585616
30
-3.2522000528634701e-13
10
-335.37724245245079
20
80.269686345655074
30
-3.2415309521998694e-13
10
-335.17055798227409
20
80.451814298230758
30
-3.156672130003891e-13
0
SPLINE
5
122
100
AcDbEntity
8
0
100
AcDbSpline
70
0
71
2
72
6
73
3
74
0
42
0.000000001
43
0.0000000001
44
0.0000000001
40
0
40
0
40
0
40
1
40
1
40
1
10
-335.17055798227409
20
80.451814298230758
30
-3.156672130003891e-13
10
-334.96387291605095
20
80.633942250806427
30
-3.0718130833721494e-13
10
-334.54641032869438
20
80.633942250806427
30
-2.9146214175553565e-13
0
LINE
5
123
100
AcDbEntity
8
0
100
AcDbLine
10
-333.4597801035128
20
77.120299701291643
30
-2.6411562185309404e-13
11
-333.77901602441887
21
77.120299701291643
31
-2.7613615440273815e-13
0
SPLINE
5
124
100
AcDbEntity
8
0
100
AcDbSpline
70
0
71
2
72
6
73
3
74
0
42
0.000000001
43
0.0000000001
44
0.0000000001
40
0
40
0
40
0
40
1
40
1
40
1
10
-333.77901602441887
20
77.120299701291643
30
-2.7613615440273815e-13
10
-333.41066706831077
20
77.374050979215227
30
-2.6128633974634203e-13
10
-333.41066706831077
20
77.80993140180739
30
-2.5960298866047567e-13
0
SPLINE
5
125
100
AcDbEntity
8
0
100
AcDbSpline
70
0
71
2
72
6
73
3
74
0
42
0.000000001
43
0.0000000001
44
0.0000000001
40
0
40
0
40
0
40
1
40
1
40
1
10
-333.41066706831077
20
77.80993140180739
30
-2.5960298866047567e-13
10
-333.41066706831077
20
78.002291087705217
30
-2.5886010398534541e-13
10
-333.48433662111381
20
78.169072036344133
30
-2.6098996196364654e-13
0
SPLINE
5
126
100
AcDbEntity
8
0
100
AcDbSpline
70
0
71
2
72
6
73
3
74
0
42
0.000000001
43
0.0000000001
44
0.0000000001
40
0
40
0
40
0
40
1
40
1
40
1
10
-333.48433662111381
20
78.169072036344133
30
-2.6098996196364654e-13
10
-333.5580067699633
20
78.335852984983049
30
-2.6311984238552388e-13
10
-333.66953451091865
20
78.416684035855852
30
-2.6700715006756866e-13
0
SPLINE
5
127
100
AcDbEntity
8
0
100
AcDbSpline
70
0
71
2
72
6
73
3
74
0
42
0.000000001
43
0.0000000001
44
0.0000000001
40
0
40
0
40
0
40
1
40
1
40
1
10
-333.66953451091865
20
78.416684035855852
30
-2.6700715006756866e-13
10
-333.78106254989723
20
78.497517470914445
30
-2.7089445976378041e-13
10
-333.94272703582863
20
78.530259494382477
30
-2.7685533779815492e-13
0
SPLINE
5
128
100
AcDbEntity
8
0
100
AcDbSpline
70
0
71
2
72
6
73
3
74
0
42
0.000000001
43
0.0000000001
44
0.0000000001
40
0
40
0
40
0
40
1
40
1
40
1
10
-333.94272703582863
20
78.530259494382477
30
-2.7685533779815492e-13
10
-334.05118543560127
20
78.552768592435456
30
-2.8085230910973355e-13
10
-334.28651947433571
20
78.552768592435456
30
-2.897135940948868e-13
0
LINE
5
129
100
AcDbEntity
8
0
100
AcDbLine
10
-334.28651947433582
20
78.552768592435456
30
-2.897135940948868e-13
11
-335.63304055387596
21
78.55276859243547
31
-3.4041559661219795e-13
0
LINE
5
130
100
AcDbEntity
8
0
100
AcDbLine
10
-335.63304055387596
20
78.55276859243547
30
-3.4041559661219795e-13
11
-335.63304055387596
21
78.184420232373824
31
-3.4183814183274117e-13
0
LINE
5
131
100
AcDbEntity
8
0
100
AcDbLine
10
-335.63304055387596
20
78.184420232373824
30
-3.4183814183274117e-13
11
-334.42772019559959
21
78.18442023237381
31
-2.9645292152831008e-13
0
SPLINE
5
132
100
AcDbEntity
8
0
100
AcDbSpline
70
0
71
2
72
6
73
3
74
0
42
0.000000001
43
0.0000000001
44
0.0000000001
40
0
40
0
40
0
40
1
40
1
40
1
10
-334.42772019559959
20
78.18442023237381
30
-2.9645292152831008e-13
10
-334.13917977268318
20
78.18442023237381
30
-2.8558819948916535e-13
10
-334.03890687877754
20
78.161909942227936
30
-2.8189945041376885e-13
0
SPLINE
5
133
100
AcDbEntity
8
0
100
AcDbSpline
70
0
71
2
72
6
73
3
74
0
42
0.000000001
43
0.0000000001
44
0.0000000001
40
0
40
0
40
0
40
1
40
1
40
1
10
-334.03890687877754
20
78.161909942227936
30
-2.8189945041376885e-13
10
-333.89361370260337
20
78.127121095258317
30
-2.7656292360856918e-13
10
-333.81073523218254
20
78.014569644528947
30
-2.7387688043365347e-13
0
SPLINE
5
134
100
AcDbEntity
8
0
100
AcDbSpline
70
0
71
2
72
6
73
3
74
0
42
0.000000001
43
0.0000000001
44
0.0000000001
40
0
40
0
40
0
40
1
40
1
40
1
10
-333.81073523218254
20
78.014569644528947
30
-2.7387688043365347e-13
10
-333.72785646373848
20
77.902019385892473
30
-2.7119082143313914e-13
10
-333.72785646373848
20
77.736261252957902
30
-2.718309720767657e-13
0
SPLINE
5
135
100
AcDbEntity
8
0
100
AcDbSpline
70
0
71
2
72
6
73
3
74
0
42
0.000000001
43
0.0000000001
44
0.0000000001
40
0
40
0
40
0
40
1
40
1
40
1
10
-333.72785646373848
20
77.736261252957902
30
-2.718309720767657e-13
10
-333.72785646373848
20
77.570504312116228
30
-2.7247111811658169e-13
10
-333.81278145963768
20
77.42521083791884
30
-2.7623000710829412e-13
0
SPLINE
5
136
100
AcDbEntity
8
0
100
AcDbSpline
70
0
71
2
72
6
73
3
74
0
42
0.000000001
43
0.0000000001
44
0.0000000001
40
0
40
0
40
0
40
1
40
1
40
1
10
-333.81278145963768
20
77.42521083791884
30
-2.7623000710829412e-13
10
-333.89770645553688
20
77.279918555814362
30
-2.7998889149619604e-13
10
-334.04402304346183
20
77.219549779492951
30
-2.8573144849183711e-13
0
SPLINE
5
137
100
AcDbEntity
8
0
100
AcDbSpline
70
0
71
2
72
6
73
3
74
0
42
0.000000001
43
0.0000000001
44
0.0000000001
40
0
40
0
40
0
40
1
40
1
40
1
10
-334.04402304346183
20
77.219549779492951
30
-2.8573144849183711e-13
10
-334.19033933336357
20
77.15918100317154
30
-2.9147399426568996e-13
10
-334.46864772493461
20
77.15918100317154
30
-3.0195343865347621e-13
0
LINE
5
138
100
AcDbEntity
8
0
100
AcDbLine
10
-334.46864772493461
20
77.15918100317154
30
-3.0195343865347621e-13
11
-335.63304055387596
21
77.159181003171554
31
-3.4579757079604943e-13
0
LINE
5
139
100
AcDbEntity
8
0
100
AcDbLine
10
-335.63304055387596
20
77.159181003171554
30
-3.4579757079604943e-13
11
-335.63304055387596
21
76.790831451017013
31
-3.4722012062040317e-13
0
LINE
5
140
100
AcDbEntity
8
0
100
AcDbLine
10
-335.63304055387596
20
76.790831451017013
30
-3.4722012062040317e-13
11
-333.4597801035128
21
76.790831451016984
31
-2.6538801379389305e-13
0
LINE
5
141
100
AcDbEntity
8
0
100
AcDbLine
10
-333.4597801035128
20
76.790831451016984
30
-2.6538801379389305e-13
11
-333.4597801035128
21
77.120299701291643
31
-2.6411562185309404e-13
0
LINE
5
142
100
AcDbEntity
8
0
100
AcDbLine
10
-334.1084839766703
20
76.361091498929596
30
-2.9147399340247535e-13
11
-334.16578281576255
21
75.996833209592438
31
-2.9503827759755214e-13
0
SPLINE
5
143
100
AcDbEntity
8
0
100
AcDbSpline
70
0
71
2
72
6
73
3
74
0
42
0.000000001
43
0.0000000001
44
0.0000000001
40
0
40
0
40
0
40
1
40
1
40
1
10
-334.16578281576255
20
75.996833209592438
30
-2.9503827759755214e-13
10
-333.94681978876213
20
75.966139201718903
30
-2.8691196679012248e-13
10
-333.83017588312248
20
75.825960998136139
30
-2.8306121077387409e-13
0
SPLINE
5
144
100
AcDbEntity
8
0
100
AcDbSpline
70
0
71
2
72
6
73
3
74
0
42
0.000000001
43
0.0000000001
44
0.0000000001
40
0
40
0
40
0
40
1
40
1
40
1
10
-333.83017588312248
20
75.825960998136139
30
-2.8306121077387409e-13
10
-333.71353167945961
20
75.685782794553361
30
-2.792104435358377e-13
10
-333.71353167945961
20
75.43407953222426
30
-2.8018251050190611e-13
0
SPLINE
5
145
100
AcDbEntity
8
0
100
AcDbSpline
70
0
71
2
72
6
73
3
74
0
42
0.000000001
43
0.0000000001
44
0.0000000001
40
0
40
0
40
0
40
1
40
1
40
1
10
-333.71353167945961
20
75.43407953222426
30
-2.8018251050190611e-13
10
-333.71353167945961
20
75.180325870114885
30
-2.8116249602204968e-13
10
-333.81687421257118
20
75.057545070249176
30
-2.8552793733603368e-13
0
SPLINE
5
146
100
AcDbEntity
8
0
100
AcDbSpline
70
0
71
2
72
6
73
3
74
0
42
0.000000001
43
0.0000000001
44
0.0000000001
40
0
40
0
40
0
40
1
40
1
40
1
10
-333.81687421257118
20
75.057545070249176
30
-2.8552793733603368e-13
10
-333.92021674568275
20
74.934759502011872
30
-2.898933970652597e-13
10
-334.05937094146827
20
74.934759502011872
30
-2.951331192591528e-13
0
SPLINE
5
147
100
AcDbEntity
8
0
100
AcDbSpline
70
0
71
2
72
6
73
3
74
0
42
0.000000001
43
0.0000000001
44
0.0000000001
40
0
40
0
40
0
40
1
40
1
40
1
10
-334.05937094146827
20
74.934759502011872
30
-2.951331192591528e-13
10
-334.18420035297493
20
74.934759502011872
30
-2.9983345498550158e-13
10
-334.25582367832283
20
75.043218497830964
30
-3.0211150099193604e-13
0
SPLINE
5
148
100
AcDbEntity
8
0
100
AcDbSpline
70
0
71
2
72
6
73
3
74
0
42
0.000000001
43
0.0000000001
44
0.0000000001
40
0
40
0
40
0
40
1
40
1
40
1
10
-334.25582367832283
20
75.043218497830964
30
-3.0211150099193604e-13
10
-334.30493701154808
20
75.118935470182038
30
-3.0366840237967719e-13
10
-334.3806533878527
20
75.419755343991852
30
-3.0535767914514482e-13
0
SPLINE
5
149
100
AcDbEntity
8
0
100
AcDbSpline
70
0
71
2
72
6
73
3
74
0
42
0.000000001
43
0.0000000001
44
0.0000000001
40
0
40
0
40
0
40
1
40
1
40
1
10
-334.3806533878527
20
75.419755343991852
30
-3.0535767914514482e-13
10
-334.48297250921348
20
75.824938182431794
30
-3.0764561241012322e-13
10
-334.55766547376732
20
75.981486205655671
30
-3.0985352511821933e-13
0
SPLINE
5
150
100
AcDbEntity
8
0
100
AcDbSpline
70
0
71
2
72
6
73
3
74
0
42
0.000000001
43
0.0000000001
44
0.0000000001
40
0
40
0
40
0
40
1
40
1
40
1
10
-334.55766547376732
20
75.981486205655671
30
-3.0985352511821933e-13
10
-334.63235843832115
20
76.138034228879548
30
-3.1206143782631549e-13
10
-334.76435053999046
20
76.218867663938141
30
-3.1671930282524436e-13
0
SPLINE
5
151
100
AcDbEntity
8
0
100
AcDbSpline
70
0
71
2
72
6
73
3
74
0
42
0.000000001
43
0.0000000001
44
0.0000000001
40
0
40
0
40
0
40
1
40
1
40
1
10
-334.76435053999046
20
76.218867663938141
30
-3.1671930282524436e-13
10
-334.89634204561332
20
76.299698714810958
30
-3.2137715458821804e-13
10
-335.05596030408958
20
76.299698714810958
30
-3.2738743208482821e-13
0
SPLINE
5
152
100
AcDbEntity
8
0
100
AcDbSpline
70
0
71
2
72
6
73
3
74
0
42
0.000000001
43
0.0000000001
44
0.0000000001
40
0
40
0
40
0
40
1
40
1
40
1
10
-335.05596030408958
20
76.299698714810958
30
-3.2738743208482821e-13
10
-335.20125377828697
20
76.299698714810958
30
-3.3285832311389411e-13
10
-335.32505977804283
20
76.233191852170577
30
-3.3777696980814083e-13
0
SPLINE
5
153
100
AcDbEntity
8
0
100
AcDbSpline
70
0
71
2
72
6
73
3
74
0
42
0.000000001
43
0.0000000001
44
0.0000000001
40
0
40
0
40
0
40
1
40
1
40
1
10
-335.32505977804283
20
76.233191852170577
30
-3.3777696980814083e-13
10
-335.44886607582191
20
76.166684989530197
30
-3.426956277241757e-13
10
-335.53072143251518
20
76.052086715299239
30
-3.4622038878151086e-13
0
SPLINE
5
154
100
AcDbEntity
8
0
100
AcDbSpline
70
0
71
2
72
6
73
3
74
0
42
0.000000001
43
0.0000000001
44
0.0000000001
40
0
40
0
40
0
40
1
40
1
40
1
10
-335.53072143251518
20
76.052086715299239
30
-3.4622038878151086e-13
10
-335.59415925199607
20
75.966139201718917
30
-3.489410065733476e-13
10
-335.63815671856025
20
75.817776088315597
30
-3.5117066221526224e-13
0
SPLINE
5
155
100
AcDbEntity
8
0
100
AcDbSpline
70
0
71
2
72
6
73
3
74
0
42
0.000000001
43
0.0000000001
44
0.0000000001
40
0
40
0
40
0
40
1
40
1
40
1
10
-335.63815671856025
20
75.817776088315597
30
-3.5117066221526224e-13
10
-335.68215418512443
20
75.669412974912277
30
-3.5340031785717689e-13
10
-335.68215418512443
20
75.499563579160323
30
-3.540562687784696e-13
0
SPLINE
5
156
100
AcDbEntity
8
0
100
AcDbSpline
70
0
71
2
72
6
73
3
74
0
42
0.000000001
43
0.0000000001
44
0.0000000001
40
0
40
0
40
0
40
1
40
1
40
1
10
-335.68215418512443
20
75.499563579160323
30
-3.540562687784696e-13
10
-335.68215418512443
20
75.243764285642257
30
-3.5504415443744628e-13
10
-335.60848403627494
20
75.05038297613298
30
-3.5301700344326206e-13
0
SPLINE
5
157
100
AcDbEntity
8
0
100
AcDbSpline
70
0
71
2
72
6
73
3
74
0
42
0.000000001
43
0.0000000001
44
0.0000000001
40
0
40
0
40
0
40
1
40
1
40
1
10
-335.60848403627494
20
75.05038297613298
30
-3.5301700344326206e-13
10
-335.53481448347191
20
74.85699689825212
30
-3.5098989330789619e-13
10
-335.40896166021446
20
74.764910106259933
30
-3.4660665711534307e-13
0
SPLINE
5
158
100
AcDbEntity
8
0
100
AcDbSpline
70
0
71
2
72
6
73
3
74
0
42
0.000000001
43
0.0000000001
44
0.0000000001
40
0
40
0
40
0
40
1
40
1
40
1
10
-335.40896166021446
20
74.764910106259933
30
-3.4660665711534307e-13
10
-335.28310883695701
20
74.672823314267745
30
-3.4222342092278989e-13
10
-335.07233131582359
20
74.638035659391036
30
-3.3442113723301898e-13
0
LINE
5
159
100
AcDbEntity
8
0
100
AcDbLine
10
-335.07233131582353
20
74.638035659391036
30
-3.3442113723301903e-13
11
-335.02321828062156
21
74.99819791753923
31
-3.3118090058501013e-13
0
SPLINE
5
160
100
AcDbEntity
8
0
100
AcDbSpline
70
0
71
2
72
6
73
3
74
0
42
0.000000001
43
0.0000000001
44
0.0000000001
40
0
40
0
40
0
40
1
40
1
40
1
10
-335.02321828062156
20
74.99819791753923
30
-3.3118090058501013e-13
10
-335.19102144891838
20
75.022755031186691
30
-3.3740453477393456e-13
10
-335.28515536243538
20
75.140421752530685
30
-3.4049463626970308e-13
0
SPLINE
5
161
100
AcDbEntity
8
0
100
AcDbSpline
70
0
71
2
72
6
73
3
74
0
42
0.000000001
43
0.0000000001
44
0.0000000001
40
0
40
0
40
0
40
1
40
1
40
1
10
-335.28515536243538
20
75.140421752530685
30
-3.4049463626970308e-13
10
-335.37928927595237
20
75.258088473874679
30
-3.4358473776547166e-13
10
-335.37928927595237
20
75.472960834104171
30
-3.4275491012888287e-13
0
SPLINE
5
162
100
AcDbEntity
8
0
100
AcDbSpline
70
0
71
2
72
6
73
3
74
0
42
0.000000001
43
0.0000000001
44
0.0000000001
40
0
40
0
40
0
40
1
40
1
40
1
10
-335.37928927595237
20
75.472960834104171
30
-3.4275491012888287e-13
10
-335.37928927595237
20
75.726712112027755
30
-3.4177493381636035e-13
10
-335.29538739378074
20
75.835171107846847
30
-3.3819682236415853e-13
0
SPLINE
5
163
100
AcDbEntity
8
0
100
AcDbSpline
70
0
71
2
72
6
73
3
74
0
42
0.000000001
43
0.0000000001
44
0.0000000001
40
0
40
0
40
0
40
1
40
1
40
1
10
-335.29538739378074
20
75.835171107846847
30
-3.3819682236415853e-13
10
-335.21148551160911
20
75.943627719480148
30
-3.346187201195777e-13
10
-335.09893435890297
20
75.943627719480148
30
-3.3038071084178632e-13
0
SPLINE
5
164
100
AcDbEntity
8
0
100
AcDbSpline
70
0
71
2
72
6
73
3
74
0
42
0.000000001
43
0.0000000001
44
0.0000000001
40
0
40
0
40
0
40
1
40
1
40
1
10
-335.09893435890297
20
75.943627719480148
30
-3.3038071084178632e-13
10
-335.02731073553184
20
75.943627719480148
30
-3.2768378972585275e-13
10
-334.97001219446281
20
75.8986071391884
30
-3.2570013380692679e-13
0
SPLINE
5
165
100
AcDbEntity
8
0
100
AcDbSpline
70
0
71
2
72
6
73
3
74
0
42
0.000000001
43
0.0000000001
44
0.0000000001
40
0
40
0
40
0
40
1
40
1
40
1
10
-334.97001219446281
20
75.8986071391884
30
-3.2570013380692679e-13
10
-334.91066682989219
20
75.853586558896652
30
-3.236394066472257e-13
10
-334.87178552801231
20
75.757408504087081
30
-3.2254680271441594e-13
0
SPLINE
5
166
100
AcDbEntity
8
0
100
AcDbSpline
70
0
71
2
72
6
73
3
74
0
42
0.000000001
43
0.0000000001
44
0.0000000001
40
0
40
0
40
0
40
1
40
1
40
1
10
-334.87178552801231
20
75.757408504087081
30
-3.2254680271441594e-13
10
-334.8513217633448
20
75.70215499838028
30
-3.2198964525056952e-13
10
-334.77765191251854
20
75.432031516629792
30
-3.2025888038348747e-13
0
SPLINE
5
167
100
AcDbEntity
8
0
100
AcDbSpline
70
0
71
2
72
6
73
3
74
0
42
0.000000001
43
0.0000000001
44
0.0000000001
40
0
40
0
40
0
40
1
40
1
40
1
10
-334.77765191251854
20
75.432031516629792
30
-3.2025888038348747e-13
10
-334.67328626567939
20
75.041172866422272
30
-3.1783856771244845e-13
10
-334.60677880699257
20
74.886670474607087
30
-3.1593097249789083e-13
0
SPLINE
5
168
100
AcDbEntity
8
0
100
AcDbSpline
70
0
71
2
72
6
73
3
74
0
42
0.000000001
43
0.0000000001
44
0.0000000001
40
0
40
0
40
0
40
1
40
1
40
1
10
-334.60677880699257
20
74.886670474607087
30
-3.1593097249789083e-13
10
-334.54027105028251
20
74.732168082791901
30
-3.1402336606154501e-13
10
-334.41339541132072
20
74.644174937802887
30
-3.0958580720689343e-13
0
SPLINE
5
169
100
AcDbEntity
8
0
100
AcDbSpline
70
0
71
2
72
6
73
3
74
0
42
0.000000001
43
0.0000000001
44
0.0000000001
40
0
40
0
40
0
40
1
40
1
40
1
10
-334.41339541132072
20
74.644174937802887
30
-3.0958580720689343e-13
10
-334.28651947433571
20
74.556179408628083
30
-3.0514824633807473e-13
10
-334.09825194532493
20
74.556179408628083
30
-2.9805920712816399e-13
0
SPLINE
5
170
100
AcDbEntity
8
0
100
AcDbSpline
70
0
71
2
72
6
73
3
74
0
42
0.000000001
43
0.0000000001
44
0.0000000001
40
0
40
0
40
0
40
1
40
1
40
1
10
-334.09825194532493
20
74.556179408628083
30
-2.9805920712816399e-13
10
-333.91407746727089
20
74.556179408628083
30
-2.9112428795622719e-13
10
-333.75138986761192
20
74.663615588742815
30
-2.8458352344552437e-13
0
SPLINE
5
171
100
AcDbEntity
8
0
100
AcDbSpline
70
0
71
2
72
6
73
3
74
0
42
0.000000001
43
0.0000000001
44
0.0000000001
40
0
40
0
40
0
40
1
40
1
40
1
10
-333.75138986761192
20
74.663615588742815
30
-2.8458352344552437e-13
10
-333.58870226795295
20
74.77104938467177
30
-2.7804276814244253e-13
10
-333.49968481714347
20
74.97364080389174
30
-2.7390849940422734e-13
0
SPLINE
5
172
100
AcDbEntity
8
0
100
AcDbSpline
70
0
71
2
72
6
73
3
74
0
42
0.000000001
43
0.0000000001
44
0.0000000001
40
0
40
0
40
0
40
1
40
1
40
1
10
-333.49968481714347
20
74.97364080389174
30
-2.7390849940422734e-13
10
-333.41066706831077
20
75.176234607297502
30
-2.6977421023660305e-13
10
-333.41066706831077
20
75.432031516629777
30
-2.687863337852474e-13
0
SPLINE
5
173
100
AcDbEntity
8
0
100
AcDbSpline
70
0
71
2
72
6
73
3
74
0
42
0.000000001
43
0.0000000001
44
0.0000000001
40
0
40
0
40
0
40
1
40
1
40
1
10
-333.41066706831077
20
75.432031516629777
30
-2.687863337852474e-13
10
-333.41066706831077
20
75.855634574491106
30
-2.6715039734381113e-13
10
-333.58665604049781
20
76.077666644651018
30
-2.7291962076087172e-13
0
SPLINE
5
174
100
AcDbEntity
8
0
100
AcDbSpline
70
0
71
2
72
6
73
3
74
0
42
0.000000001
43
0.0000000001
44
0.0000000001
40
0
40
0
40
0
40
1
40
1
40
1
10
-333.58665604049781
20
76.077666644651018
30
-2.7291962076087172e-13
10
-333.76264501268486
20
76.29969871481093
30
-2.7868884417793236e-13
10
-334.1084839766703
20
76.361091498929596
30
-2.9147399340247535e-13
0
LWPOLYLINE
5
175
100
AcDbEntity
8
0
100
AcDbPolyline
90
4
70
1
43
0.0
10
-336.45978022272209
20
74.11620653112567
10
-336.03617865497688
20
74.116206531125655
10
-336.03617865497688
20
73.747859363156905
10
-336.45978022272209
20
73.74785936315692
0
LWPOLYLINE
5
176
100
AcDbEntity
8
0
100
AcDbPolyline
90
4
70
1
43
0.0
10
-335.63304055387596
20
74.116206531125655
10
-333.4597801035128
20
74.116206531125627
10
-333.4597801035128
20
73.747859363156877
10
-335.63304055387596
20
73.747859363156905
0
LINE
5
177
100
AcDbEntity
8
0
100
AcDbLine
10
-333.4597801035128
20
73.187148933011613
30
-2.7930527771624605e-13
11
-335.63304055387596
21
73.187148933011642
31
-3.6113738454275617e-13
0
LINE
5
178
100
AcDbEntity
8
0
100
AcDbLine
10
-335.63304055387596
20
73.187148933011642
30
-3.6113738454275617e-13
11
-335.63304055387596
21
72.855635051328292
31
-3.6241767662238821e-13
0
LINE
5
179
100
AcDbEntity
8
0
100
AcDbLine
10
-335.63304055387596
20
72.855635051328292
30
-3.6241767662238821e-13
11
-335.32403666431526
21
72.855635051328292
31
-3.5078242172410258e-13
0
SPLINE
5
180
100
AcDbEntity
8
0
100
AcDbSpline
70
0
71
2
72
6
73
3
74
0
42
0.000000001
43
0.0000000001
44
0.0000000001
40
0
40
0
40
0
40
1
40
1
40
1
10
-335.32403666431526
20
72.855635051328292
30
-3.5078242172410258e-13
10
-335.68215388710121
20
72.61620796163713
30
-3.6519165056385473e-13
10
-335.68215388710121
20
72.163956527310958
30
-3.6693822577943833e-13
0
SPLINE
5
181
100
AcDbEntity
8
0
100
AcDbSpline
70
0
71
2
72
6
73
3
74
0
42
0.000000001
43
0.0000000001
44
0.0000000001
40
0
40
0
40
0
40
1
40
1
40
1
10
-335.68215388710121
20
72.163956527310958
30
-3.6693822577943833e-13
10
-335.68215388710121
20
71.967502002317062
30
-3.6769692454366624e-13
10
-335.61155367548088
20
71.802769069272628
30
-3.6567473041470924e-13
0
SPLINE
5
182
100
AcDbEntity
8
0
100
AcDbSpline
70
0
71
2
72
6
73
3
74
0
42
0.000000001
43
0.0000000001
44
0.0000000001
40
0
40
0
40
0
40
1
40
1
40
1
10
-335.61155367548088
20
71.802769069272628
30
-3.6567473041470924e-13
10
-335.54095346386055
20
71.638036136228195
30
-3.636525362857523e-13
10
-335.42635578567604
20
71.556179885465255
30
-3.5965359224137068e-13
0
SPLINE
5
183
100
AcDbEntity
8
0
100
AcDbSpline
70
0
71
2
72
6
73
3
74
0
42
0.000000001
43
0.0000000001
44
0.0000000001
40
0
40
0
40
0
40
1
40
1
40
1
10
-335.42635578567604
20
71.556179885465255
30
-3.5965359224137068e-13
10
-335.31175840551475
20
71.474323634702316
30
-3.5565465941877713e-13
10
-335.15418667251686
20
71.441583995420089
30
-3.4984788099296742e-13
0
SPLINE
5
184
100
AcDbEntity
8
0
100
AcDbSpline
70
0
71
2
72
6
73
3
74
0
42
0.000000001
43
0.0000000001
44
0.0000000001
40
0
40
0
40
0
40
1
40
1
40
1
10
-335.15418667251686
20
71.441583995420089
30
-3.4984788099296742e-13
10
-335.05186725313285
20
71.421118144590011
30
-3.4607417636356134e-13
10
-334.79606915170768
20
71.421118144589997
30
-3.3644233607569108e-13
0
LINE
5
185
100
AcDbEntity
8
0
100
AcDbLine
10
-334.79606915170768
20
71.421118144589997
30
-3.3644233607569108e-13
11
-333.4597801035128
21
71.421118144589983
31
-2.861256112097384e-13
0
LINE
5
186
100
AcDbEntity
8
0
100
AcDbLine
10
-333.4597801035128
20
71.421118144589983
30
-2.861256112097384e-13
11
-333.4597801035128
21
71.789467696744524
31
-2.8470306138538467e-13
0
LINE
5
187
100
AcDbEntity
8
0
100
AcDbLine
10
-333.4597801035128
20
71.789467696744524
30
-2.8470306138538467e-13
11
-334.78174466545204
21
71.789467696744552
31
-3.3448041100558103e-13
0
SPLINE
5
188
100
AcDbEntity
8
0
100
AcDbSpline
70
0
71
2
72
6
73
3
74
0
42
0.000000001
43
0.0000000001
44
0.0000000001
40
0
40
0
40
0
40
1
40
1
40
1
10
-334.78174466545204
20
71.789467696744538
30
-3.3448041100558103e-13
10
-335.00684697086433
20
71.789467696744552
30
-3.4295642956116386e-13
10
-335.11837500984291
20
71.832442645627609
30
-3.469899470715139e-13
0
SPLINE
5
189
100
AcDbEntity
8
0
100
AcDbSpline
70
0
71
2
72
6
73
3
74
0
42
0.000000001
43
0.0000000001
44
0.0000000001
40
0
40
0
40
0
40
1
40
1
40
1
10
-335.11837500984291
20
71.832442645627609
30
-3.469899470715139e-13
10
-335.22990275079826
20
71.875415210324874
30
-3.5102346256769687e-13
10
-335.29641020948509
20
71.984897021848312
30
-3.5310492528992953e-13
0
SPLINE
5
190
100
AcDbEntity
8
0
100
AcDbSpline
70
0
71
2
72
6
73
3
74
0
42
0.000000001
43
0.0000000001
44
0.0000000001
40
0
40
0
40
0
40
1
40
1
40
1
10
-335.29641020948509
20
71.984897021848312
30
-3.5310492528992953e-13
10
-335.36291796619514
20
72.094378833371749
30
-3.5518639923395034e-13
10
-335.36291796619514
20
72.241719131070724
30
-3.5461737746268466e-13
0
SPLINE
5
191
100
AcDbEntity
8
0
100
AcDbSpline
70
0
71
2
72
6
73
3
74
0
42
0.000000001
43
0.0000000001
44
0.0000000001
40
0
40
0
40
0
40
1
40
1
40
1
10
-335.36291796619514
20
72.241719131070724
30
-3.5461737746268466e-13
10
-335.36291796619514
20
72.477054957944503
30
-3.5370852081490193e-13
10
-335.21353173906425
20
72.647924785215011
30
-3.4742362918656204e-13
0
SPLINE
5
192
100
AcDbEntity
8
0
100
AcDbSpline
70
0
71
2
72
6
73
3
74
0
42
0.000000001
43
0.0000000001
44
0.0000000001
40
0
40
0
40
0
40
1
40
1
40
1
10
-335.21353173906425
20
72.647924785215011
30
-3.4742362918656204e-13
10
-335.06414580995659
20
72.818799380857101
30
-3.4113873036476823e-13
10
-334.64668322260002
20
72.818799380857087
30
-3.2541956378308889e-13
0
LINE
5
193
100
AcDbEntity
8
0
100
AcDbLine
10
-334.64668322260002
20
72.818799380857087
30
-3.2541956378308889e-13
11
-333.4597801035128
21
72.818799380857072
31
-2.8072782754059979e-13
0
LINE
5
194
100
AcDbEntity
8
0
100
AcDbLine
10
-333.4597801035128
20
72.818799380857072
30
-2.8072782754059979e-13
11
-333.4597801035128
21
73.187148933011613
31
-2.7930527771624605e-13
0
LINE
5
195
100
AcDbEntity
8
0
100
AcDbLine
10
-333.27969837839225
20
70.923846129972063
30
-2.8126524357724603e-13
11
-333.2264922922335
21
70.565729503232561
31
-2.806448484599889e-13
0
SPLINE
5
196
100
AcDbEntity
8
0
100
AcDbSpline
70
0
71
2
72
6
73
3
74
0
42
0.000000001
43
0.0000000001
44
0.0000000001
40
0
40
0
40
0
40
1
40
1
40
1
10
-333.2264922922335
20
70.565729503232561
30
-2.806448484599889e-13
10
-333.06073535139183
20
70.543218020993791
30
-2.7449036292943031e-13
10
-332.9850189750872
20
70.440898303586565
30
-2.7203448726090166e-13
0
SPLINE
5
197
100
AcDbEntity
8
0
100
AcDbSpline
70
0
71
2
72
6
73
3
74
0
42
0.000000001
43
0.0000000001
44
0.0000000001
40
0
40
0
40
0
40
1
40
1
40
1
10
-332.9850189750872
20
70.440898303586565
30
-2.7203448726090166e-13
10
-332.88269985372642
20
70.30379331548842
30
-2.68711249088706e-13
10
-332.88269985372642
20
70.066409473020158
30
-2.6962801508294285e-13
0
SPLINE
5
198
100
AcDbEntity
8
0
100
AcDbSpline
70
0
71
2
72
6
73
3
74
0
42
0.000000001
43
0.0000000001
44
0.0000000001
40
0
40
0
40
0
40
1
40
1
40
1
10
-332.88269985372642
20
70.066409473020158
30
-2.6962801508294285e-13
10
-332.88269985372642
20
69.810612563687883
30
-2.7061589153429845e-13
10
-332.9850189750872
20
69.671459559995256
30
-2.7500602596142266e-13
0
SPLINE
5
199
100
AcDbEntity
8
0
100
AcDbSpline
70
0
71
2
72
6
73
3
74
0
42
0.000000001
43
0.0000000001
44
0.0000000001
40
0
40
0
40
0
40
1
40
1
40
1
10
-332.9850189750872
20
69.671459559995256
30
-2.7500602596142266e-13
10
-333.08733809644798
20
69.532304172116838
30
-2.7939616959616791e-13
10
-333.27151287252525
20
69.483189944821916
30
-2.8652077698285499e-13
0
SPLINE
5
200
100
AcDbEntity
8
0
100
AcDbSpline
70
0
71
2
72
6
73
3
74
0
42
0.000000001
43
0.0000000001
44
0.0000000001
40
0
40
0
40
0
40
1
40
1
40
1
10
-333.27151287252525
20
69.483189944821916
30
-2.8652077698285499e-13
10
-333.38406372720817
20
69.454541568357072
30
-2.9086941381300565e-13
10
-333.74422747547248
20
69.456587199765764
30
-3.0442314560746267e-13
0
SPLINE
5
201
100
AcDbEntity
8
0
100
AcDbSpline
70
0
71
2
72
6
73
3
74
0
42
0.000000001
43
0.0000000001
44
0.0000000001
40
0
40
0
40
0
40
1
40
1
40
1
10
-333.74422747547248
20
69.456587199765764
30
-3.0442314560746267e-13
10
-333.4597801035128
20
69.698062305051408
30
-2.9277997733438889e-13
10
-333.4597801035128
20
70.058226947385393
30
-2.9138903727298843e-13
0
SPLINE
5
202
100
AcDbEntity
8
0
100
AcDbSpline
70
0
71
2
72
6
73
3
74
0
42
0.000000001
43
0.0000000001
44
0.0000000001
40
0
40
0
40
0
40
1
40
1
40
1
10
-333.4597801035128
20
70.058226947385393
30
-2.9138903727298843e-13
10
-333.4597801035128
20
70.5063823505226
30
-2.8965828075031305e-13
10
-333.78310907537559
20
70.751948718625627
30
-3.0088456678836192e-13
0
SPLINE
5
203
100
AcDbEntity
8
0
100
AcDbSpline
70
0
71
2
72
6
73
3
74
0
42
0.000000001
43
0.0000000001
44
0.0000000001
40
0
40
0
40
0
40
1
40
1
40
1
10
-333.78310907537559
20
70.751948718625627
30
-3.0088456678836192e-13
10
-334.10643774921516
20
70.997515086728669
30
-3.1211084160462262e-13
10
-334.55868888551811
20
70.997515086728669
30
-3.2913993873477524e-13
0
SPLINE
5
204
100
AcDbEntity
8
0
100
AcDbSpline
70
0
71
2
72
6
73
3
74
0
42
0.000000001
43
0.0000000001
44
0.0000000001
40
0
40
0
40
0
40
1
40
1
40
1
10
-334.55868888551811
20
70.997515086728669
30
-3.2913993873477524e-13
10
-334.86973930055717
20
70.997515086728683
30
-3.4085225365204773e-13
10
-335.13269949609855
20
70.884964828092208
30
-3.5118844011727928e-13
0
SPLINE
5
205
100
AcDbEntity
8
0
100
AcDbSpline
70
0
71
2
72
6
73
3
74
0
42
0.000000001
43
0.0000000001
44
0.0000000001
40
0
40
0
40
0
40
1
40
1
40
1
10
-335.13269949609855
20
70.884964828092208
30
-3.5118844011727928e-13
10
-335.39566028768638
20
70.772414569455734
30
-3.6152464902608698e-13
10
-335.53890693838218
20
70.558567409116378
30
-3.6774433717392896e-13
0
SPLINE
5
206
100
AcDbEntity
8
0
100
AcDbSpline
70
0
71
2
72
6
73
3
74
0
42
0.000000001
43
0.0000000001
44
0.0000000001
40
0
40
0
40
0
40
1
40
1
40
1
10
-335.53890693838218
20
70.558567409116378
30
-3.6774433717392896e-13
10
-335.68215418512443
20
70.344720248777023
30
-3.7396404776534721e-13
10
-335.68215418512443
20
70.056178931790939
30
-3.7507838168375836e-13
0
SPLINE
5
207
100
AcDbEntity
8
0
100
AcDbSpline
70
0
71
2
72
6
73
3
74
0
42
0.000000001
43
0.0000000001
44
0.0000000001
40
0
40
0
40
0
40
1
40
1
40
1
10
-335.68215418512443
20
70.056178931790939
30
-3.7507838168375836e-13
10
-335.68215418512443
20
69.671459559995284
30
-3.7656415103401892e-13
10
-335.37110317403892
20
69.421799544889083
30
-3.6581598970802643e-13
0
LINE
5
208
100
AcDbEntity
8
0
100
AcDbLine
10
-335.37110317403892
20
69.421799544889097
30
-3.6581598970802643e-13
11
-335.63304055387596
21
69.421799544889083
31
-3.7567899883106949e-13
0
LINE
5
209
100
AcDbEntity
8
0
100
AcDbLine
10
-335.63304055387596
20
69.421799544889083
30
-3.7567899883106949e-13
11
-335.63304055387596
21
69.082100753385177
31
-3.7699090067365496e-13
0
LINE
5
210
100
AcDbEntity
8
0
100
AcDbLine
10
-335.63304055387596
20
69.082100753385177
30
-3.7699090067365496e-13
11
-333.75445950681785
21
69.082100753385149
31
-3.0625467349967426e-13
0
SPLINE
5
211
100
AcDbEntity
8
0
100
AcDbSpline
70
0
71
2
72
6
73
3
74
0
42
0.000000001
43
0.0000000001
44
0.0000000001
40
0
40
0
40
0
40
1
40
1
40
1
10
-333.75445950681785
20
69.082100753385149
30
-3.0625467349967426e-13
10
-333.24695575887779
20
69.082100753385149
30
-2.871450905183313e-13
10
-333.03515542204002
20
69.185443286496721
30
-2.7877084092047424e-13
0
SPLINE
5
212
100
AcDbEntity
8
0
100
AcDbSpline
70
0
71
2
72
6
73
3
74
0
42
0.000000001
43
0.0000000001
44
0.0000000001
40
0
40
0
40
0
40
1
40
1
40
1
10
-333.03515542204002
20
69.185443286496721
30
-2.7877084092047424e-13
10
-332.8233544891558
20
69.288783435422502
30
-2.703965780866621e-13
10
-332.70057130510429
20
69.512863521176897
30
-2.6490790368855343e-13
0
SPLINE
5
213
100
AcDbEntity
8
0
100
AcDbSpline
70
0
71
2
72
6
73
3
74
0
42
0.000000001
43
0.0000000001
44
0.0000000001
40
0
40
0
40
0
40
1
40
1
40
1
10
-332.70057130510429
20
69.512863521176897
30
-2.6490790368855343e-13
10
-332.57778812105278
20
69.736943606931291
30
-2.5941922929044475e-13
10
-332.57778812105278
20
70.064363841611467
30
-2.5815474669609986e-13
0
SPLINE
5
214
100
AcDbEntity
8
0
100
AcDbSpline
70
0
71
2
72
6
73
3
74
0
42
0.000000001
43
0.0000000001
44
0.0000000001
40
0
40
0
40
0
40
1
40
1
40
1
10
-332.57778812105278
20
70.064363841611467
30
-2.5815474669609986e-13
10
-332.57778812105278
20
70.453176860410295
30
-2.5665316786055217e-13
10
-332.75275397951225
20
70.692606334287248
30
-2.6231667886844805e-13
0
SPLINE
5
215
100
AcDbEntity
8
0
100
AcDbSpline
70
0
71
2
72
6
73
3
74
0
42
0.000000001
43
0.0000000001
44
0.0000000001
40
0
40
0
40
0
40
1
40
1
40
1
10
-332.75275397951225
20
70.692606334287248
30
-2.6231667886844805e-13
10
-332.92771983797172
20
70.932031039792619
30
-2.6798020829158601e-13
10
-333.27969837839225
20
70.923846129972063
30
-2.8126524357724603e-13
0
SPLINE
5
216
100
AcDbEntity
8
0
100
AcDbSpline
70
0
71
2
72
6
73
3
74
0
42
0.000000001
43
0.0000000001
44
0.0000000001
40
0
40
0
40
0
40
1
40
1
40
1
10
-334.58529163057426
20
70.61893499334488
30
-3.3160370015522908e-13
10
-334.15759730989555
20
70.61893499334488
30
-3.1549926714397926e-13
10
-333.961144573041
20
70.449085597592926
30
-3.0875797244477783e-13
0
SPLINE
5
217
100
AcDbEntity
8
0
100
AcDbSpline
70
0
71
2
72
6
73
3
74
0
42
0.000000001
43
0.0000000001
44
0.0000000001
40
0
40
0
40
0
40
1
40
1
40
1
10
-333.961144573041
20
70.449085597592926
30
-3.0875797244477783e-13
10
-333.76469153816322
20
70.279236201840959
30
-3.0201666652378828e-13
10
-333.76469153816322
20
70.023436908322893
30
-3.0300455218276497e-13
0
SPLINE
5
218
100
AcDbEntity
8
0
100
AcDbSpline
70
0
71
2
72
6
73
3
74
0
42
0.000000001
43
0.0000000001
44
0.0000000001
40
0
40
0
40
0
40
1
40
1
40
1
10
-333.76469153816322
20
70.023436908322893
30
-3.0300455218276497e-13
10
-333.76469153816322
20
69.769685630399309
30
-3.0398452849528749e-13
10
-333.9601211612902
20
69.597788219052887
30
-3.1200710998492912e-13
0
SPLINE
5
219
100
AcDbEntity
8
0
100
AcDbSpline
70
0
71
2
72
6
73
3
74
0
42
0.000000001
43
0.0000000001
44
0.0000000001
40
0
40
0
40
0
40
1
40
1
40
1
10
-333.9601211612902
20
69.597788219052887
30
-3.1200710998492912e-13
10
-334.15555108244041
20
69.425893191892243
30
-3.2002969348873778e-13
10
-334.57301337177375
20
69.425893191892243
30
-3.3574884884862901e-13
0
SPLINE
5
220
100
AcDbEntity
8
0
100
AcDbSpline
70
0
71
2
72
6
73
3
74
0
42
0.000000001
43
0.0000000001
44
0.0000000001
40
0
40
0
40
0
40
1
40
1
40
1
10
-334.57301337177375
20
69.425893191892243
30
-3.3574884884862901e-13
10
-334.97205842191795
20
69.425893191892257
30
-3.5077452014657815e-13
10
-335.17465043718437
20
69.602904681760421
30
-3.5771932398741555e-13
0
SPLINE
5
221
100
AcDbEntity
8
0
100
AcDbSpline
70
0
71
2
72
6
73
3
74
0
42
0.000000001
43
0.0000000001
44
0.0000000001
40
0
40
0
40
0
40
1
40
1
40
1
10
-335.17465043718437
20
69.602904681760421
30
-3.5771932398741555e-13
10
-335.37724245245079
20
69.779916171628585
30
-3.6466412782825289e-13
10
-335.37724245245079
20
70.029576186734786
30
-3.6369995179339651e-13
0
SPLINE
5
222
100
AcDbEntity
8
0
100
AcDbSpline
70
0
71
2
72
6
73
3
74
0
42
0.000000001
43
0.0000000001
44
0.0000000001
40
0
40
0
40
0
40
1
40
1
40
1
10
-335.37724245245079
20
70.029576186734786
30
-3.6369995179339651e-13
10
-335.37724245245079
20
70.275142554837814
30
-3.6275158524382732e-13
10
-335.1777200763903
20
70.447039966184249
30
-3.5457489493799996e-13
0
SPLINE
5
223
100
AcDbEntity
8
0
100
AcDbSpline
70
0
71
2
72
6
73
3
74
0
42
0.000000001
43
0.0000000001
44
0.0000000001
40
0
40
0
40
0
40
1
40
1
40
1
10
-335.1777200763903
20
70.447039966184249
30
-3.5457489493799996e-13
10
-334.97819770032982
20
70.618934993344894
30
-3.4639821383979363e-13
10
-334.58529163057426
20
70.61893499334488
30
-3.3160370015522908e-13
0
LINE
5
224
100
AcDbEntity
8
0
100
AcDbLine
10
-333.45978010351291
20
67.36518419225844
30
-3.0178945034767501e-13
11
-335.63304055387607
21
67.365184192258468
31
-3.8362155717418513e-13
0
LINE
5
225
100
AcDbEntity
8
0
100
AcDbLine
10
-335.63304055387607
20
67.365184192258468
30
-3.8362155717418513e-13
11
-335.63304055387607
21
67.033670310575118
31
-3.8490184925381716e-13
0
LINE
5
226
100
AcDbEntity
8
0
100
AcDbLine
10
-335.63304055387607
20
67.033670310575118
30
-3.8490184925381716e-13
11
-335.30357289964786
21
67.033670310575118
31
-3.7249605027460263e-13
0
SPLINE
5
227
100
AcDbEntity
8
0
100
AcDbSpline
70
0
71
2
72
6
73
3
74
0
42
0.000000001
43
0.0000000001
44
0.0000000001
40
0
40
0
40
0
40
1
40
1
40
1
10
-335.30357289964786
20
67.033670310575118
30
-3.7249605027460268e-13
10
-335.53481418544879
20
66.906793479520431
30
-3.8169321920364187e-13
10
-335.60848403627506
20
66.799359683591476
30
-3.8488209372744763e-13
0
SPLINE
5
228
100
AcDbEntity
8
0
100
AcDbSpline
70
0
71
2
72
6
73
3
74
0
42
0.000000001
43
0.0000000001
44
0.0000000001
40
0
40
0
40
0
40
1
40
1
40
1
10
-335.60848403627506
20
66.799359683591476
30
-3.8488209372744763e-13
10
-335.68215388710132
20
66.69192350347673
30
-3.8807097745887438e-13
10
-335.68215388710132
20
66.563001041013351
30
-3.8856887035777919e-13
0
SPLINE
5
229
100
AcDbEntity
8
0
100
AcDbSpline
70
0
71
2
72
6
73
3
74
0
42
0.000000001
43
0.0000000001
44
0.0000000001
40
0
40
0
40
0
40
1
40
1
40
1
10
-335.68215388710132
20
66.563001041013351
30
-3.8856887035777919e-13
10
-335.68215388710132
20
66.376781825620284
30
-3.8928804080497871e-13
10
-335.56346345598331
20
66.184420947629562
30
-3.8556175197095524e-13
0
LINE
5
230
100
AcDbEntity
8
0
100
AcDbLine
10
-335.56346345598331
20
66.184420947629562
30
-3.8556175197095524e-13
11
-335.22171724493137
21
66.311297778684249
31
-3.7220362256132342e-13
0
SPLINE
5
231
100
AcDbEntity
8
0
100
AcDbSpline
70
0
71
2
72
6
73
3
74
0
42
0.000000001
43
0.0000000001
44
0.0000000001
40
0
40
0
40
0
40
1
40
1
40
1
10
-335.22171724493137
20
66.311297778684249
30
-3.7220362256132347e-13
10
-335.3015263741695
20
66.446357135373702
30
-3.7468716799422442e-13
10
-335.3015263741695
20
66.581418876248947
30
-3.7416556547119931e-13
0
SPLINE
5
232
100
AcDbEntity
8
0
100
AcDbSpline
70
0
71
2
72
6
73
3
74
0
42
0.000000001
43
0.0000000001
44
0.0000000001
40
0
40
0
40
0
40
1
40
1
40
1
10
-335.3015263741695
20
66.581418876248947
30
-3.7416556547119931e-13
10
-335.3015263741695
20
66.702156428891769
30
-3.7369928233524779e-13
10
-335.22887993509403
20
66.798334483701339
30
-3.705924126106536e-13
0
SPLINE
5
233
100
AcDbEntity
8
0
100
AcDbSpline
70
0
71
2
72
6
73
3
74
0
42
0.000000001
43
0.0000000001
44
0.0000000001
40
0
40
0
40
0
40
1
40
1
40
1
10
-335.22887993509403
20
66.798334483701339
30
-3.705924126106536e-13
10
-335.15623319799533
20
66.894517306882491
30
-3.6748551324902923e-13
10
-335.02731073553196
20
66.935444240171066
30
-3.6247299946231875e-13
0
SPLINE
5
234
100
AcDbEntity
8
0
100
AcDbSpline
70
0
71
2
72
6
73
3
74
0
42
0.000000001
43
0.0000000001
44
0.0000000001
40
0
40
0
40
0
40
1
40
1
40
1
10
-335.02731073553196
20
66.935444240171066
30
-3.6247299946231875e-13
10
-334.8308579986774
20
66.996834640103913
30
-3.5483866680824276e-13
10
-334.59757018739811
20
66.996834640103913
30
-3.4605443062028837e-13
0
LINE
5
235
100
AcDbEntity
8
0
100
AcDbLine
10
-334.59757018739799
20
66.996834640103913
30
-3.4605443062028832e-13
11
-333.45978010351291
21
66.996834640103899
31
-3.0321200017202875e-13
0
LINE
5
236
100
AcDbEntity
8
0
100
AcDbLine
10
-333.45978010351291
20
66.996834640103899
30
-3.0321200017202875e-13
11
-333.45978010351291
21
67.36518419225844
31
-3.0178945034767501e-13
0
LINE
5
237
100
AcDbEntity
8
0
100
AcDbLine
10
-334.1596435373508
20
64.477734927732087
30
-3.392933614039986e-13
11
-334.11257672960392
21
64.097109202939606
31
-3.3899106427194129e-13
0
SPLINE
5
238
100
AcDbEntity
8
0
100
AcDbSpline
70
0
71
2
72
6
73
3
74
0
42
0.000000001
43
0.0000000001
44
0.0000000001
40
0
40
0
40
0
40
1
40
1
40
1
10
-334.11257672960392
20
64.097109202939606
30
-3.3899106427194129e-13
10
-333.77901602441898
20
64.187150363523088
30
-3.2608341023940274e-13
10
-333.59484154636493
20
64.430668716031633
30
-3.1820803386435086e-13
0
SPLINE
5
239
100
AcDbEntity
8
0
100
AcDbSpline
70
0
71
2
72
6
73
3
74
0
42
0.000000001
43
0.0000000001
44
0.0000000001
40
0
40
0
40
0
40
1
40
1
40
1
10
-333.59484154636493
20
64.430668716031633
30
-3.1820803386435086e-13
10
-333.41066706831089
20
64.674187068540178
30
-3.1033265748929899e-13
10
-333.41066706831089
20
65.052769546109758
30
-3.0887058855553776e-13
0
SPLINE
5
240
100
AcDbEntity
8
0
100
AcDbSpline
70
0
71
2
72
6
73
3
74
0
42
0.000000001
43
0.0000000001
44
0.0000000001
40
0
40
0
40
0
40
1
40
1
40
1
10
-333.41066706831089
20
65.052769546109758
30
-3.0887058855553776e-13
10
-333.41066706831089
20
65.529578094083391
30
-3.0702917484347302e-13
10
-333.70432305986515
20
65.808909301358781
30
-3.170077539971947e-13
0
SPLINE
5
241
100
AcDbEntity
8
0
100
AcDbSpline
70
0
71
2
72
6
73
3
74
0
42
0.000000001
43
0.0000000001
44
0.0000000001
40
0
40
0
40
0
40
1
40
1
40
1
10
-333.70432305986515
20
65.808909301358781
30
-3.170077539971947e-13
10
-333.99797934944263
20
66.088240508634186
30
-3.2698634437270445e-13
10
-334.52799308950534
20
66.088240508634186
30
-3.4694352023217512e-13
0
SPLINE
5
242
100
AcDbEntity
8
0
100
AcDbSpline
70
0
71
2
72
6
73
3
74
0
42
0.000000001
43
0.0000000001
44
0.0000000001
40
0
40
0
40
0
40
1
40
1
40
1
10
-334.52799308950534
20
66.088240508634186
30
-3.4694352023217512e-13
10
-335.07642406875721
20
66.0882405086342
30
-3.6759418015358789e-13
10
-335.37928927595249
20
65.805840854245773
30
-3.8008890374694685e-13
0
SPLINE
5
243
100
AcDbEntity
8
0
100
AcDbSpline
70
0
71
2
72
6
73
3
74
0
42
0.000000001
43
0.0000000001
44
0.0000000001
40
0
40
0
40
0
40
1
40
1
40
1
10
-335.37928927595249
20
65.805840854245773
30
-3.8008890374694685e-13
10
-335.68215418512455
20
65.523438815671554
30
-3.9258362532613858e-13
10
-335.68215418512455
20
65.073233012754073
30
-3.9432230040288911e-13
0
SPLINE
5
244
100
AcDbEntity
8
0
100
AcDbSpline
70
0
71
2
72
6
73
3
74
0
42
0.000000001
43
0.0000000001
44
0.0000000001
40
0
40
0
40
0
40
1
40
1
40
1
10
-335.68215418512455
20
65.073233012754073
30
-3.9432230040288911e-13
10
-335.68215418512455
20
64.637353782254806
30
-3.9600564688494496e-13
10
-335.38542825634113
20
64.361091022092452
30
-3.858996218835992e-13
0
SPLINE
5
245
100
AcDbEntity
8
0
100
AcDbSpline
70
0
71
2
72
6
73
3
74
0
42
0.000000001
43
0.0000000001
44
0.0000000001
40
0
40
0
40
0
40
1
40
1
40
1
10
-335.38542825634113
20
64.361091022092452
30
-3.858996218835992e-13
10
-335.08870232755771
20
64.08483064611589
30
-3.7579358767463241e-13
10
-334.55050308162799
20
64.084830646115876
30
-3.5552819418279011e-13
0
SPLINE
5
246
100
AcDbEntity
8
0
100
AcDbSpline
70
0
71
2
72
6
73
3
74
0
42
0.000000001
43
0.0000000001
44
0.0000000001
40
0
40
0
40
0
40
1
40
1
40
1
10
-334.55050308162799
20
64.084830646115876
30
-3.5552819418279011e-13
10
-334.51776105815998
20
64.084830646115876
30
-3.5429532365330381e-13
10
-334.45227671320072
20
64.086876277524567
30
-3.5182167123370992e-13
0
LINE
5
247
100
AcDbEntity
8
0
100
AcDbLine
10
-334.45227671320072
20
64.086876277524567
30
-3.5182167123370992e-13
11
-334.45227671320072
21
65.707612399655915
31
-3.4556245937265018e-13
0
SPLINE
5
248
100
AcDbEntity
8
0
100
AcDbSpline
70
0
71
2
72
6
73
3
74
0
42
0.000000001
43
0.0000000001
44
0.0000000001
40
0
40
0
40
0
40
1
40
1
40
1
10
-334.45227671320072
20
65.707612399655915
30
-3.4556245937265018e-13
10
-334.09415949041477
20
65.687148933011628
30
-3.3215691646954091e-13
10
-333.90384573394886
20
65.505020980435944
30
-3.2569419863196474e-13
0
SPLINE
5
249
100
AcDbEntity
8
0
100
AcDbSpline
70
0
71
2
72
6
73
3
74
0
42
0.000000001
43
0.0000000001
44
0.0000000001
40
0
40
0
40
0
40
1
40
1
40
1
10
-333.90384573394886
20
65.505020980435944
30
-3.2569419863196474e-13
10
-333.71353167945972
20
65.322893027860246
30
-3.1923146957260025e-13
10
-333.71353167945972
20
65.050723914701067
30
-3.2028257475748361e-13
0
SPLINE
5
250
100
AcDbEntity
8
0
100
AcDbSpline
70
0
71
2
72
6
73
3
74
0
42
0.000000001
43
0.0000000001
44
0.0000000001
40
0
40
0
40
0
40
1
40
1
40
1
10
-333.71353167945972
20
65.050723914701067
30
-3.2028257475748361e-13
10
-333.71353167945972
20
64.848132495481096
30
-3.2106497393821088e-13
10
-333.81994385177723
20
64.704885844785309
30
-3.2562503788859617e-13
0
SPLINE
5
251
100
AcDbEntity
8
0
100
AcDbSpline
70
0
71
2
72
6
73
3
74
0
42
0.000000001
43
0.0000000001
44
0.0000000001
40
0
40
0
40
0
40
1
40
1
40
1
10
-333.81994385177723
20
64.704885844785309
30
-3.2562503788859617e-13
10
-333.92635572607151
20
64.561639194089508
30
-3.301850906171933e-13
10
-334.1596435373508
20
64.477734927732087
30
-3.392933614039986e-13
0
LINE
5
252
100
AcDbEntity
8
0
100
AcDbLine
10
-334.75514162237278
20
65.687148933011628
30
-3.5704558566874507e-13
11
-334.75514162237278
21
64.473643664914704
31
-3.6173208982189629e-13
0
SPLINE
5
253
100
AcDbEntity
8
0
100
AcDbSpline
70
0
71
2
72
6
73
3
74
0
42
0.000000001
43
0.0000000001
44
0.0000000001
40
0
40
0
40
0
40
1
40
1
40
1
10
-334.75514162237278
20
64.473643664914704
30
-3.6173208982189629e-13
10
-335.02935726101032
20
64.498200778562179
30
-3.7196258689701557e-13
10
-335.16646493131748
20
64.612796668607345
30
-3.7668268476771157e-13
0
SPLINE
5
254
100
AcDbEntity
8
0
100
AcDbSpline
70
0
71
2
72
6
73
3
74
0
42
0.000000001
43
0.0000000001
44
0.0000000001
40
0
40
0
40
0
40
1
40
1
40
1
10
-335.16646493131748
20
64.612796668607345
30
-3.7668268476771157e-13
10
-335.37928927595249
20
64.788785342771163
30
-3.8401672755111209e-13
10
-335.37928927595249
20
65.069141749936691
30
-3.8293400339565437e-13
0
SPLINE
5
255
100
AcDbEntity
8
0
100
AcDbSpline
70
0
71
2
72
6
73
3
74
0
42
0.000000001
43
0.0000000001
44
0.0000000001
40
0
40
0
40
0
40
1
40
1
40
1
10
-335.37928927595249
20
65.069141749936691
30
-3.8293400339565437e-13
10
-335.37928927595249
20
65.322893027860275
30
-3.8195402708313179e-13
10
-335.20943928415409
20
65.495810870725265
30
-3.7489068202740884e-13
0
SPLINE
5
256
100
AcDbEntity
8
0
100
AcDbSpline
70
0
71
2
72
6
73
3
74
0
42
0.000000001
43
0.0000000001
44
0.0000000001
40
0
40
0
40
0
40
1
40
1
40
1
10
-335.20943928415409
20
65.495810870725265
30
-3.7489068202740884e-13
10
-335.03958929235569
20
65.668731097776046
30
-3.6782732776406484e-13
10
-334.75514162237278
20
65.687148933011628
30
-3.5704558566874507e-13
0
LINE
5
257
100
AcDbEntity
8
0
100
AcDbLine
10
-333.45978010351291
20
63.546631698209374
30
-3.1653653269899576e-13
11
-335.34654665643802
21
63.546631698209396
31
-3.8758097750534813e-13
0
LINE
5
258
100
AcDbEntity
8
0
100
AcDbLine
10
-335.34654665643802
20
63.546631698209396
30
-3.8758097750534813e-13
11
-335.34654665643802
21
63.87200630148088
31
-3.8632439504983625e-13
0
LINE
5
259
100
AcDbEntity
8
0
100
AcDbLine
10
-335.34654665643802
20
63.87200630148088
30
-3.8632439504983625e-13
11
-335.63304055387607
21
63.87200630148088
31
-3.9711205706999406e-13
0
LINE
5
260
100
AcDbEntity
8
0
100
AcDbLine
10
-335.63304055387607
20
63.87200630148088
30
-3.9711205706999406e-13
11
-335.63304055387607
21
63.546631698209396
31
-3.9836863952550589e-13
0
LINE
5
261
100
AcDbEntity
8
0
100
AcDbLine
10
-335.63304055387607
20
63.546631698209396
30
-3.9836863952550589e-13
11
-335.86428213770023
21
63.546631698209396
31
-4.0707582691626141e-13
0
SPLINE
5
262
100
AcDbEntity
8
0
100
AcDbSpline
70
0
71
2
72
6
73
3
74
0
42
0.000000001
43
0.0000000001
44
0.0000000001
40
0
40
0
40
0
40
1
40
1
40
1
10
-335.86428213770023
20
63.546631698209396
30
-4.0707582691626141e-13
10
-336.08324546272388
20
63.546631698209396
30
-4.1532068785845959e-13
10
-336.18965733701816
20
63.507750396329513
30
-4.1947768618463305e-13
0
SPLINE
5
263
100
AcDbEntity
8
0
100
AcDbSpline
70
0
71
2
72
6
73
3
74
0
42
0.000000001
43
0.0000000001
44
0.0000000001
40
0
40
0
40
0
40
1
40
1
40
1
10
-336.18965733701816
20
63.507750396329513
30
-4.1947768618463305e-13
10
-336.33290428573719
20
63.454544906217222
30
-4.2507699446534041e-13
10
-336.42192203456989
20
63.320505981046324
30
-4.2894652769822506e-13
0
SPLINE
5
264
100
AcDbEntity
8
0
100
AcDbSpline
70
0
71
2
72
6
73
3
74
0
42
0.000000001
43
0.0000000001
44
0.0000000001
40
0
40
0
40
0
40
1
40
1
40
1
10
-336.42192203456989
20
63.320505981046324
30
-4.2894652769822506e-13
10
-336.51093978340259
20
63.186467055875426
30
-4.3281606093110976e-13
10
-336.51093978340259
20
62.944994334775572
30
-4.3374861799539177e-13
0
SPLINE
5
265
100
AcDbEntity
8
0
100
AcDbSpline
70
0
71
2
72
6
73
3
74
0
42
0.000000001
43
0.0000000001
44
0.0000000001
40
0
40
0
40
0
40
1
40
1
40
1
10
-336.51093978340259
20
62.944994334775572
30
-4.3374861799539177e-13
10
-336.51093978340259
20
62.789469127256041
30
-4.3434924952961083e-13
10
-336.47410470897785
20
62.601201896268492
30
-4.3368933875580412e-13
0
LINE
5
266
100
AcDbEntity
8
0
100
AcDbLine
10
-336.47410470897785
20
62.601201896268492
30
-4.3368933875580412e-13
11
-336.15282256061664
21
62.656453017789488
31
-4.213783799994997e-13
0
SPLINE
5
267
100
AcDbEntity
8
0
100
AcDbSpline
70
0
71
2
72
6
73
3
74
0
42
0.000000001
43
0.0000000001
44
0.0000000001
40
0
40
0
40
0
40
1
40
1
40
1
10
-336.15282256061664
20
62.656453017789474
30
-4.213783799994997e-13
10
-336.17328632528415
20
62.771051292020431
30
-4.2170635056859745e-13
10
-336.17328632528415
20
62.873371009427657
30
-4.2131119630500676e-13
0
SPLINE
5
268
100
AcDbEntity
8
0
100
AcDbSpline
70
0
71
2
72
6
73
3
74
0
42
0.000000001
43
0.0000000001
44
0.0000000001
40
0
40
0
40
0
40
1
40
1
40
1
10
-336.17328632528415
20
62.873371009427657
30
-4.2131119630500676e-13
10
-336.17328632528415
20
63.041174773770919
30
-4.2066314552254717e-13
10
-336.10166270191303
20
63.110750083524337
30
-4.1769752761007847e-13
0
SPLINE
5
269
100
AcDbEntity
8
0
100
AcDbSpline
70
0
71
2
72
6
73
3
74
0
42
0.000000001
43
0.0000000001
44
0.0000000001
40
0
40
0
40
0
40
1
40
1
40
1
10
-336.10166270191303
20
63.110750083524337
30
-4.1769752761007847e-13
10
-336.03003937656513
20
63.180327777463546
30
-4.1473191171177693e-13
10
-335.83358634168735
20
63.180327777463546
30
-4.0733465486949463e-13
0
LINE
5
270
100
AcDbEntity
8
0
100
AcDbLine
10
-335.83358634168735
20
63.180327777463546
30
-4.0733465486949468e-13
11
-335.63304055387607
21
63.180327777463546
31
-3.9978328921102655e-13
0
LINE
5
271
100
AcDbEntity
8
0
100
AcDbLine
10
-335.63304055387607
20
63.180327777463546
30
-3.9978328921102655e-13
11
-335.63304055387607
21
62.756727103788009
31
-4.0141921644484178e-13
0
LINE
5
272
100
AcDbEntity
8
0
100
AcDbLine
10
-335.63304055387607
20
62.756727103788009
30
-4.0141921644484178e-13
11
-335.34654665643802
21
62.756727103788009
31
-3.9063155442468402e-13
0
LINE
5
273
100
AcDbEntity
8
0
100
AcDbLine
10
-335.34654665643802
20
62.756727103788009
30
-3.9063155442468402e-13
11
-335.34654665643802
21
63.180327777463546
31
-3.8899562719086879e-13
0
LINE
5
274
100
AcDbEntity
8
0
100
AcDbLine
10
-335.34654665643802
20
63.180327777463546
30
-3.8899562719086879e-13
11
-333.45978010351291
21
63.180327777463525
31
-3.1795118238451638e-13
0
LINE
5
275
100
AcDbEntity
8
0
100
AcDbLine
10
-333.45978010351291
20
63.180327777463525
30
-3.1795118238451638e-13
11
-333.45978010351291
21
63.546631698209374
31
-3.1653653269899576e-13
0
LWPOLYLINE
5
276
100
AcDbEntity
8
0
100
AcDbPolyline
90
4
70
1
43
0.0
10
-336.4597802227222
20
62.478418712216978
10
-333.45978010351291
20
62.478418712216943
10
-333.45978010351291
20
62.110069160062402
10
-336.4597802227222
20
62.110069160062437
0
LINE
5
277
100
AcDbEntity
8
0
100
AcDbLine
10
-334.1596435373508
20
60.05140340765152
30
-3.5638765971274306e-13
11
-334.11257672960392
21
59.67077768285904
31
-3.5608536258068575e-13
0
SPLINE
5
278
100
AcDbEntity
8
0
100
AcDbSpline
70
0
71
2
72
6
73
3
74
0
42
0.000000001
43
0.0000000001
44
0.0000000001
40
0
40
0
40
0
40
1
40
1
40
1
10
-334.11257672960392
20
59.67077768285904
30
-3.5608536258068575e-13
10
-333.77901602441898
20
59.760818843442529
30
-3.431777085481472e-13
10
-333.59484154636493
20
60.004337195951074
30
-3.3530233217309532e-13
0
SPLINE
5
279
100
AcDbEntity
8
0
100
AcDbSpline
70
0
71
2
72
6
73
3
74
0
42
0.000000001
43
0.0000000001
44
0.0000000001
40
0
40
0
40
0
40
1
40
1
40
1
10
-333.59484154636493
20
60.004337195951074
30
-3.3530233217309532e-13
10
-333.41066706831089
20
60.247857932645402
30
-3.2742694659042246e-13
10
-333.41066706831089
20
60.626438026029192
30
-3.2596488686428222e-13
0
SPLINE
5
280
100
AcDbEntity
8
0
100
AcDbSpline
70
0
71
2
72
6
73
3
74
0
42
0.000000001
43
0.0000000001
44
0.0000000001
40
0
40
0
40
0
40
1
40
1
40
1
10
-333.41066706831089
20
60.626438026029192
30
-3.2596488686428222e-13
10
-333.41066706831089
20
61.103246574002824
30
-3.2412347315221748e-13
10
-333.70432305986515
20
61.382577781278222
30
-3.3410205230593916e-13
0
SPLINE
5
281
100
AcDbEntity
8
0
100
AcDbSpline
70
0
71
2
72
6
73
3
74
0
42
0.000000001
43
0.0000000001
44
0.0000000001
40
0
40
0
40
0
40
1
40
1
40
1
10
-333.70432305986515
20
61.382577781278222
30
-3.3410205230593916e-13
10
-333.99797934944263
20
61.66190898855362
30
-3.440806426814489e-13
10
-334.52799308950534
20
61.66190898855362
30
-3.6403781854091958e-13
0
SPLINE
5
282
100
AcDbEntity
8
0
100
AcDbSpline
70
0
71
2
72
6
73
3
74
0
42
0.000000001
43
0.0000000001
44
0.0000000001
40
0
40
0
40
0
40
1
40
1
40
1
10
-334.52799308950534
20
61.66190898855362
30
-3.6403781854091958e-13
10
-335.07642406875721
20
61.661908988553627
30
-3.8468847846233235e-13
10
-335.37928927595249
20
61.379506949979415
30
-3.9718321126331224e-13
0
SPLINE
5
283
100
AcDbEntity
8
0
100
AcDbSpline
70
0
71
2
72
6
73
3
74
0
42
0.000000001
43
0.0000000001
44
0.0000000001
40
0
40
0
40
0
40
1
40
1
40
1
10
-335.37928927595249
20
61.379506949979415
30
-3.9718321126331224e-13
10
-335.68215418512455
20
61.097107295590988
30
-4.0967792363488304e-13
10
-335.68215418512455
20
60.646901492673507
30
-4.1141659871163357e-13
0
SPLINE
5
284
100
AcDbEntity
8
0
100
AcDbSpline
70
0
71
2
72
6
73
3
74
0
42
0.000000001
43
0.0000000001
44
0.0000000001
40
0
40
0
40
0
40
1
40
1
40
1
10
-335.68215418512455
20
60.646901492673507
30
-4.1141659871163357e-13
10
-335.68215418512455
20
60.211022262174239
30
-4.1309994519368941e-13
10
-335.38542825634113
20
59.934759502011886
30
-4.0299392019234366e-13
0
SPLINE
5
285
100
AcDbEntity
8
0
100
AcDbSpline
70
0
71
2
72
6
73
3
74
0
42
0.000000001
43
0.0000000001
44
0.0000000001
40
0
40
0
40
0
40
1
40
1
40
1
10
-335.38542825634113
20
59.934759502011886
30
-4.0299392019234366e-13
10
-335.08870232755771
20
59.658499126035316
30
-3.9288788598337686e-13
10
-334.55050308162799
20
59.658499126035309
30
-3.7262249249153457e-13
0
SPLINE
5
286
100
AcDbEntity
8
0
100
AcDbSpline
70
0
71
2
72
6
73
3
74
0
42
0.000000001
43
0.0000000001
44
0.0000000001
40
0
40
0
40
0
40
1
40
1
40
1
10
-334.55050308162799
20
59.658499126035309
30
-3.7262249249153457e-13
10
-334.51776105815998
20
59.658499126035309
30
-3.7138962196204827e-13
10
-334.45227671320072
20
59.660544757444001
30
-3.6891596954245438e-13
0
LINE
5
287
100
AcDbEntity
8
0
100
AcDbLine
10
-334.45227671320072
20
59.660544757444001
30
-3.6891596954245438e-13
11
-334.45227671320072
21
61.281280879575348
31
-3.6265675768139464e-13
0
SPLINE
5
288
100
AcDbEntity
8
0
100
AcDbSpline
70
0
71
2
72
6
73
3
74
0
42
0.000000001
43
0.0000000001
44
0.0000000001
40
0
40
0
40
0
40
1
40
1
40
1
10
-334.45227671320072
20
61.281280879575348
30
-3.6265675768139464e-13
10
-334.09415949041477
20
61.260817412931061
30
-3.4925121477828537e-13
10
-333.90384573394886
20
61.078689460355378
30
-3.427884969407091e-13
0
SPLINE
5
289
100
AcDbEntity
8
0
100
AcDbSpline
70
0
71
2
72
6
73
3
74
0
42
0.000000001
43
0.0000000001
44
0.0000000001
40
0
40
0
40
0
40
1
40
1
40
1
10
-333.90384573394886
20
61.078689460355378
30
-3.427884969407091e-13
10
-333.71353167945972
20
60.896561507779687
30
-3.3632576788134471e-13
10
-333.71353167945972
20
60.624392394620507
30
-3.3737687306622806e-13
0
SPLINE
5
290
100
AcDbEntity
8
0
100
AcDbSpline
70
0
71
2
72
6
73
3
74
0
42
0.000000001
43
0.0000000001
44
0.0000000001
40
0
40
0
40
0
40
1
40
1
40
1
10
-333.71353167945972
20
60.624392394620507
30
-3.3737687306622806e-13
10
-333.71353167945972
20
60.421800975400537
30
-3.3815927224695534e-13
10
-333.81994385177723
20
60.278551940518952
30
-3.4271934540496167e-13
0
SPLINE
5
291
100
AcDbEntity
8
0
100
AcDbSpline
70
0
71
2
72
6
73
3
74
0
42
0.000000001
43
0.0000000001
44
0.0000000001
40
0
40
0
40
0
40
1
40
1
40
1
10
-333.81994385177723
20
60.278551940518952
30
-3.4271934540496167e-13
10
-333.92635572607151
20
60.135305289823151
30
-3.472793981335588e-13
10
-334.1596435373508
20
60.05140340765152
30
-3.5638765971274306e-13
0
LINE
5
292
100
AcDbEntity
8
0
100
AcDbLine
10
-334.75514162237278
20
61.260817412931061
30
-3.7413988397748952e-13
11
-334.75514162237278
21
60.047312144834137
31
-3.7882638813064075e-13
0
SPLINE
5
293
100
AcDbEntity
8
0
100
AcDbSpline
70
0
71
2
72
6
73
3
74
0
42
0.000000001
43
0.0000000001
44
0.0000000001
40
0
40
0
40
0
40
1
40
1
40
1
10
-334.75514162237278
20
60.047312144834137
30
-3.7882638813064075e-13
10
-335.02935726101032
20
60.071869258481605
30
-3.8905688520576003e-13
10
-335.16646493131748
20
60.186465148526771
30
-3.9377698307645603e-13
0
SPLINE
5
294
100
AcDbEntity
8
0
100
AcDbSpline
70
0
71
2
72
6
73
3
74
0
42
0.000000001
43
0.0000000001
44
0.0000000001
40
0
40
0
40
0
40
1
40
1
40
1
10
-335.16646493131748
20
60.186465148526771
30
-3.9377698307645603e-13
10
-335.37928927595249
20
60.362453822690597
30
-4.0111102585985655e-13
10
-335.37928927595249
20
60.642810229856124
30
-4.0002830170439883e-13
0
SPLINE
5
295
100
AcDbEntity
8
0
100
AcDbSpline
70
0
71
2
72
6
73
3
74
0
42
0.000000001
43
0.0000000001
44
0.0000000001
40
0
40
0
40
0
40
1
40
1
40
1
10
-335.37928927595249
20
60.642810229856124
30
-4.0002830170439883e-13
10
-335.37928927595249
20
60.896561507779708
30
-3.9904832539187625e-13
10
-335.20943928415409
20
61.069481734830482
30
-3.9198497112853226e-13
0
SPLINE
5
296
100
AcDbEntity
8
0
100
AcDbSpline
70
0
71
2
72
6
73
3
74
0
42
0.000000001
43
0.0000000001
44
0.0000000001
40
0
40
0
40
0
40
1
40
1
40
1
10
-335.20943928415409
20
61.069481734830482
30
-3.9198497112853226e-13
10
-335.03958929235569
20
61.242399577695473
30
-3.849216260728093e-13
10
-334.75514162237278
20
61.260817412931061
30
-3.7413988397748952e-13
0
LINE
5
297
100
AcDbEntity
8
0
100
AcDbLine
10
-334.25582367832294
20
57.790151004392243
30
-3.687420913884672e-13
11
-334.20875687057605
21
57.427940730649567
31
-3.6836867459167006e-13
0
SPLINE
5
298
100
AcDbEntity
8
0
100
AcDbSpline
70
0
71
2
72
6
73
3
74
0
42
0.000000001
43
0.0000000001
44
0.0000000001
40
0
40
0
40
0
40
1
40
1
40
1
10
-334.20875687057605
20
57.427940730649567
30
-3.6836867459167006e-13
10
-333.83426863605609
20
57.487285499173737
30
-3.5403848051787499e-13
10
-333.62246770317188
20
57.731829051572412
30
-3.4511889632929634e-13
0
SPLINE
5
299
100
AcDbEntity
8
0
100
AcDbSpline
70
0
71
2
72
6
73
3
74
0
42
0.000000001
43
0.0000000001
44
0.0000000001
40
0
40
0
40
0
40
1
40
1
40
1
10
-333.62246770317188
20
57.731829051572412
30
-3.4511889632929634e-13
10
-333.41066706831089
20
57.976370219785295
30
-3.3619933257012678e-13
10
-333.41066706831089
20
58.332441215116106
30
-3.3482420199401361e-13
0
SPLINE
5
300
100
AcDbEntity
8
0
100
AcDbSpline
70
0
71
2
72
6
73
3
74
0
42
0.000000001
43
0.0000000001
44
0.0000000001
40
0
40
0
40
0
40
1
40
1
40
1
10
-333.41066706831089
20
58.332441215116106
30
-3.3482420199401361e-13
10
-333.41066706831089
20
58.778553371030412
30
-3.3310133640255027e-13
10
-333.70227683241001
20
59.049699668485253
30
-3.4303447652202653e-13
0
SPLINE
5
301
100
AcDbEntity
8
0
100
AcDbSpline
70
0
71
2
72
6
73
3
74
0
42
0.000000001
43
0.0000000001
44
0.0000000001
40
0
40
0
40
0
40
1
40
1
40
1
10
-333.70227683241001
20
59.049699668485253
30
-3.4303447652202653e-13
10
-333.99388659650913
20
59.320845965940094
30
-3.5296761664150258e-13
10
-334.53822482282749
20
59.320845965940094
30
-3.7346416774672957e-13
0
SPLINE
5
302
100
AcDbEntity
8
0
100
AcDbSpline
70
0
71
2
72
6
73
3
74
0
42
0.000000001
43
0.0000000001
44
0.0000000001
40
0
40
0
40
0
40
1
40
1
40
1
10
-334.53822482282749
20
59.320845965940094
30
-3.7346416774672957e-13
10
-334.8902030652248
20
59.320845965940102
30
-3.8671758204764814e-13
10
-335.15418667251697
20
59.204202060300453
30
-3.9710811361855431e-13
0
SPLINE
5
303
100
AcDbEntity
8
0
100
AcDbSpline
70
0
71
2
72
6
73
3
74
0
42
0.000000001
43
0.0000000001
44
0.0000000001
40
0
40
0
40
0
40
1
40
1
40
1
10
-335.15418667251697
20
59.204202060300453
30
-3.9710811361855431e-13
10
-335.41817057783237
20
59.087558154660812
30
-4.0749865641124858e-13
10
-335.55016208345523
20
58.849153880673995
30
-4.1338938100561383e-13
0
SPLINE
5
304
100
AcDbEntity
8
0
100
AcDbSpline
70
0
71
2
72
6
73
3
74
0
42
0.000000001
43
0.0000000001
44
0.0000000001
40
0
40
0
40
0
40
1
40
1
40
1
10
-335.55016208345523
20
58.849153880673995
30
-4.1338938100561383e-13
10
-335.68215418512455
20
58.610749606687179
30
-4.1928012804355525e-13
10
-335.68215418512455
20
58.330395583707443
30
-4.2036284299139204e-13
0
SPLINE
5
305
100
AcDbEntity
8
0
100
AcDbSpline
70
0
71
2
72
6
73
3
74
0
42
0.000000001
43
0.0000000001
44
0.0000000001
40
0
40
0
40
0
40
1
40
1
40
1
10
-335.68215418512455
20
58.330395583707443
30
-4.2036284299139204e-13
10
-335.68215418512455
20
57.976370219785323
30
-4.2173007342867208e-13
10
-335.50309527570835
20
57.751269702512374
30
-4.1585710458048664e-13
0
SPLINE
5
306
100
AcDbEntity
8
0
100
AcDbSpline
70
0
71
2
72
6
73
3
74
0
42
0.000000001
43
0.0000000001
44
0.0000000001
40
0
40
0
40
0
40
1
40
1
40
1
10
-335.50309527570835
20
57.751269702512374
30
-4.1585710458048664e-13
10
-335.32403666431537
20
57.526166801053634
30
-4.099841561617103e-13
10
-334.99456871206394
20
57.462728385526283
30
-3.9782334234074351e-13
0
LINE
5
307
100
AcDbEntity
8
0
100
AcDbLine
10
-334.99456871206394
20
57.462728385526276
30
-3.9782334234074351e-13
11
-334.93931639845005
21
57.820845012265785
31
-3.9435983699639499e-13
0
SPLINE
5
308
100
AcDbEntity
8
0
100
AcDbSpline
70
0
71
2
72
6
73
3
74
0
42
0.000000001
43
0.0000000001
44
0.0000000001
40
0
40
0
40
0
40
1
40
1
40
1
10
-334.93931639845005
20
57.820845012265785
30
-3.9435983699639499e-13
10
-335.15827942545047
20
57.872004870969398
30
-4.0240710958500971e-13
10
-335.26878435070148
20
58.00195014913713
30
-4.060662270972809e-13
0
SPLINE
5
309
100
AcDbEntity
8
0
100
AcDbSpline
70
0
71
2
72
6
73
3
74
0
42
0.000000001
43
0.0000000001
44
0.0000000001
40
0
40
0
40
0
40
1
40
1
40
1
10
-335.26878435070148
20
58.00195014913713
30
-4.060662270972809e-13
10
-335.37928927595249
20
58.131895427304855
30
-4.0972534460955208e-13
10
-335.37928927595249
20
58.316071395475021
30
-4.0901406509356469e-13
0
SPLINE
5
310
100
AcDbEntity
8
0
100
AcDbSpline
70
0
71
2
72
6
73
3
74
0
42
0.000000001
43
0.0000000001
44
0.0000000001
40
0
40
0
40
0
40
1
40
1
40
1
10
-335.37928927595249
20
58.316071395475021
30
-4.0901406509356469e-13
10
-335.37928927595249
20
58.594379787046066
30
-4.0793925028456103e-13
10
-335.17976660186878
20
58.768322829801185
30
-3.9975464861811244e-13
0
SPLINE
5
311
100
AcDbEntity
8
0
100
AcDbSpline
70
0
71
2
72
6
73
3
74
0
42
0.000000001
43
0.0000000001
44
0.0000000001
40
0
40
0
40
0
40
1
40
1
40
1
10
-335.17976660186878
20
58.768322829801185
30
-3.9975464861811244e-13
10
-334.98024392778507
20
58.942265872556312
30
-3.9157004695166384e-13
10
-334.54845685417285
20
58.942265872556305
30
-3.7531150512422829e-13
0
SPLINE
5
312
100
AcDbEntity
8
0
100
AcDbSpline
70
0
71
2
72
6
73
3
74
0
42
0.000000001
43
0.0000000001
44
0.0000000001
40
0
40
0
40
0
40
1
40
1
40
1
10
-334.54845685417285
20
58.942265872556305
30
-3.7531150512422829e-13
10
-334.11053050214878
20
58.942265872556305
30
-3.5882179446162009e-13
10
-333.91203123981586
20
58.774462108213044
30
-3.5199553960459856e-13
0
SPLINE
5
313
100
AcDbEntity
8
0
100
AcDbSpline
70
0
71
2
72
6
73
3
74
0
42
0.000000001
43
0.0000000001
44
0.0000000001
40
0
40
0
40
0
40
1
40
1
40
1
10
-333.91203123981586
20
58.774462108213044
30
-3.5199553960459856e-13
10
-333.71353167945972
20
58.606658343869775
30
-3.4516927352578893e-13
10
-333.71353167945972
20
58.336534862119287
30
-3.4621247857183925e-13
0
SPLINE
5
314
100
AcDbEntity
8
0
100
AcDbSpline
70
0
71
2
72
6
73
3
74
0
42
0.000000001
43
0.0000000001
44
0.0000000001
40
0
40
0
40
0
40
1
40
1
40
1
10
-333.71353167945972
20
58.336534862119287
30
-3.4621247857183925e-13
10
-333.71353167945972
20
58.119619254666894
30
-3.4705019713964007e-13
10
-333.8465468948566
20
57.974324588376618
30
-3.5261988335258124e-13
0
SPLINE
5
315
100
AcDbEntity
8
0
100
AcDbSpline
70
0
71
2
72
6
73
3
74
0
42
0.000000001
43
0.0000000001
44
0.0000000001
40
0
40
0
40
0
40
1
40
1
40
1
10
-333.8465468948566
20
57.974324588376618
30
-3.5261988335258124e-13
10
-333.97956181223026
20
57.829032306272126
30
-3.581895491361132e-13
10
-334.25582367832294
20
57.790151004392243
30
-3.687420913884672e-13
0
LINE
5
316
100
AcDbEntity
8
0
100
AcDbLine
10
-333.78924805576435
20
56.308570270139306
30
-3.5689541886530577e-13
11
-333.46387315446964
21
56.25536239584121
31
-3.4484921518052647e-13
0
SPLINE
5
317
100
AcDbEntity
8
0
100
AcDbSpline
70
0
71
2
72
6
73
3
74
0
42
0.000000001
43
0.0000000001
44
0.0000000001
40
0
40
0
40
0
40
1
40
1
40
1
10
-333.46387315446964
20
56.25536239584121
30
-3.4484921518052647e-13
10
-333.43113053495517
20
56.410887603360734
30
-3.4301569067324489e-13
10
-333.43113053495517
20
56.533670787412248
30
-3.4254150739846024e-13
0
SPLINE
5
318
100
AcDbEntity
8
0
100
AcDbSpline
70
0
71
2
72
6
73
3
74
0
42
0.000000001
43
0.0000000001
44
0.0000000001
40
0
40
0
40
0
40
1
40
1
40
1
10
-333.43113053495517
20
56.533670787412248
30
-3.4254150739846024e-13
10
-333.43113053495517
20
56.734216575223527
30
-3.4176700835656614e-13
10
-333.49456835443607
20
56.844721202451318
30
-3.4372893659179596e-13
0
SPLINE
5
319
100
AcDbEntity
8
0
100
AcDbSpline
70
0
71
2
72
6
73
3
74
0
42
0.000000001
43
0.0000000001
44
0.0000000001
40
0
40
0
40
0
40
1
40
1
40
1
10
-333.49456835443607
20
56.844721202451318
30
-3.4372893659179596e-13
10
-333.55800676996341
20
56.955225829679101
30
-3.4569088727060195e-13
10
-333.66134900505176
20
57.000246409970849
30
-3.4940827578795919e-13
0
SPLINE
5
320
100
AcDbEntity
8
0
100
AcDbSpline
70
0
71
2
72
6
73
3
74
0
42
0.000000001
43
0.0000000001
44
0.0000000001
40
0
40
0
40
0
40
1
40
1
40
1
10
-333.66134900505176
20
57.000246409970849
30
-3.4940827578795919e-13
10
-333.76469153816333
20
57.045266990262597
30
-3.5312567552710455e-13
10
-334.09620571786991
20
57.045266990262604
30
-3.65608534525306e-13
0
LINE
5
321
100
AcDbEntity
8
0
100
AcDbLine
10
-334.09620571786991
20
57.045266990262604
30
-3.65608534525306e-13
11
-335.34654665643802
21
57.045266990262618
31
-4.1268896302956895e-13
0
LINE
5
322
100
AcDbEntity
8
0
100
AcDbLine
10
-335.34654665643802
20
57.045266990262618
30
-4.1268896302956895e-13
11
-335.34654665643802
21
57.315390472013107
31
-4.1164575798351862e-13
0
LINE
5
323
100
AcDbEntity
8
0
100
AcDbLine
10
-335.34654665643802
20
57.315390472013107
30
-4.1164575798351862e-13
11
-335.63304055387607
21
57.315390472013107
31
-4.2243342000367643e-13
0
LINE
5
324
100
AcDbEntity
8
0
100
AcDbLine
10
-335.63304055387607
20
57.315390472013107
30
-4.2243342000367643e-13
11
-335.63304055387607
21
57.045266990262618
31
-4.2347662504972676e-13
0
LINE
5
325
100
AcDbEntity
8
0
100
AcDbLine
10
-335.63304055387607
20
57.045266990262618
30
-4.2347662504972676e-13
11
-336.17124009782901
21
57.045266990262633
31
-4.4374202976335716e-13
0
LINE
5
326
100
AcDbEntity
8
0
100
AcDbLine
10
-336.17124009782901
20
57.045266990262633
30
-4.4374202976335716e-13
11
-336.3922496503078
21
56.67896545370256
31
-4.5347857998065388e-13
0
LINE
5
327
100
AcDbEntity
8
0
100
AcDbLine
10
-336.3922496503078
20
56.67896545370256
30
-4.5347857998065388e-13
11
-335.63304055387607
21
56.67896545370256
31
-4.2489126552762639e-13
0
LINE
5
328
100
AcDbEntity
8
0
100
AcDbLine
10
-335.63304055387607
20
56.67896545370256
30
-4.2489126552762639e-13
11
-335.63304055387607
21
56.308570270139327
31
-4.2632171549081325e-13
0
LINE
5
329
100
AcDbEntity
8
0
100
AcDbLine
10
-335.63304055387607
20
56.308570270139327
30
-4.2632171549081325e-13
11
-335.34654665643802
21
56.308570270139327
31
-4.1553405347065544e-13
0
LINE
5
330
100
AcDbEntity
8
0
100
AcDbLine
10
-335.34654665643802
20
56.308570270139327
30
-4.1553405347065544e-13
11
-335.34654665643802
21
56.67896545370256
31
-4.1410360350746863e-13
0
LINE
5
331
100
AcDbEntity
8
0
100
AcDbLine
10
-335.34654665643802
20
56.67896545370256
30
-4.1410360350746863e-13
11
-334.0757419532024
21
56.678965453702546
31
-3.6625263092227677e-13
0
SPLINE
5
332
100
AcDbEntity
8
0
100
AcDbSpline
70
0
71
2
72
6
73
3
74
0
42
0.000000001
43
0.0000000001
44
0.0000000001
40
0
40
0
40
0
40
1
40
1
40
1
10
-334.0757419532024
20
56.678965453702546
30
-3.6625263092227677e-13
10
-333.9181702202045
20
56.678965453702546
30
-3.6031941344465347e-13
10
-333.87314993793598
20
56.659524802762604
30
-3.5869929540838724e-13
0
SPLINE
5
333
100
AcDbEntity
8
0
100
AcDbSpline
70
0
71
2
72
6
73
3
74
0
42
0.000000001
43
0.0000000001
44
0.0000000001
40
0
40
0
40
0
40
1
40
1
40
1
10
-333.87314993793598
20
56.659524802762604
30
-3.5869929540838724e-13
10
-333.82812935764423
20
56.640084151822663
30
-3.570791661503328e-13
10
-333.80152631456485
20
56.596086387235253
30
-3.5624737067248964e-13
0
SPLINE
5
334
100
AcDbEntity
8
0
100
AcDbSpline
70
0
71
2
72
6
73
3
74
0
42
0.000000001
43
0.0000000001
44
0.0000000001
40
0
40
0
40
0
40
1
40
1
40
1
10
-333.80152631456485
20
56.596086387235253
30
-3.5624737067248964e-13
10
-333.77492327148548
20
56.552088622647851
30
-3.5541557519464643e-13
10
-333.77492327148548
20
56.470232371884912
30
-3.5573170044704317e-13
0
SPLINE
5
335
100
AcDbEntity
8
0
100
AcDbSpline
70
0
71
2
72
6
73
3
74
0
42
0.000000001
43
0.0000000001
44
0.0000000001
40
0
40
0
40
0
40
1
40
1
40
1
10
-333.77492327148548
20
56.470232371884912
30
-3.5573170044704317e-13
10
-333.77492327148548
20
56.40884197195205
30
-3.5596878748062497e-13
10
-333.78924805576435
20
56.308570270139306
30
-3.5689541886530577e-13
0
SPLINE
5
336
100
AcDbEntity
8
0
100
AcDbSpline
70
0
71
2
72
6
73
3
74
0
42
0.000000001
43
0.0000000001
44
0.0000000001
40
0
40
0
40
0
40
1
40
1
40
1
10
-334.54641032869449
20
56.085513000089264
30
-3.862670994771004e-13
10
-335.15009391958347
20
56.085513000089271
30
-4.0899824524970346e-13
10
-335.44068056995502
20
55.749903087216964
30
-4.2123612685858731e-13
0
SPLINE
5
337
100
AcDbEntity
8
0
100
AcDbSpline
70
0
71
2
72
6
73
3
74
0
42
0.000000001
43
0.0000000001
44
0.0000000001
40
0
40
0
40
0
40
1
40
1
40
1
10
-335.44068056995502
20
55.749903087216964
30
-4.2123612685858731e-13
10
-335.68215418512455
20
55.469551448423019
30
-4.3141129764091716e-13
10
-335.68215418512455
20
55.066414241391769
30
-4.3296819586353849e-13
0
SPLINE
5
338
100
AcDbEntity
8
0
100
AcDbSpline
70
0
71
2
72
6
73
3
74
0
42
0.000000001
43
0.0000000001
44
0.0000000001
40
0
40
0
40
0
40
1
40
1
40
1
10
-335.68215418512455
20
55.066414241391769
30
-4.3296819586353849e-13
10
-335.68215418512455
20
54.61825406988298
30
-4.3469897080145595e-13
10
-335.38849759752384
20
54.333806399900062
30
-4.2474012875886182e-13
0
SPLINE
5
339
100
AcDbEntity
8
0
100
AcDbSpline
70
0
71
2
72
6
73
3
74
0
42
0.000000001
43
0.0000000001
44
0.0000000001
40
0
40
0
40
0
40
1
40
1
40
1
10
-335.38849759752384
20
54.333806399900062
30
-4.2474012875886182e-13
10
-335.09484160596958
20
54.049358729917152
30
-4.147813091598439e-13
10
-334.57710612470737
20
54.049358729917145
30
-3.9528645974893057e-13
0
SPLINE
5
340
100
AcDbEntity
8
0
100
AcDbSpline
70
0
71
2
72
6
73
3
74
0
42
0.000000001
43
0.0000000001
44
0.0000000001
40
0
40
0
40
0
40
1
40
1
40
1
10
-334.57710612470737
20
54.049358729917145
30
-3.9528645974893057e-13
10
-334.15759730989566
20
54.049358729917145
30
-3.7949024437005237e-13
10
-333.91714710647693
20
54.175215129453271
30
-3.6995026305004956e-13
0
SPLINE
5
341
100
AcDbEntity
8
0
100
AcDbSpline
70
0
71
2
72
6
73
3
74
0
42
0.000000001
43
0.0000000001
44
0.0000000001
40
0
40
0
40
0
40
1
40
1
40
1
10
-333.91714710647693
20
54.175215129453271
30
-3.6995026305004956e-13
10
-333.6766969030582
20
54.30106199224624
30
-3.6041031856053082e-13
10
-333.54368198568454
20
54.541516666013329
30
-3.5447313979170292e-13
0
SPLINE
5
342
100
AcDbEntity
8
0
100
AcDbSpline
70
0
71
2
72
6
73
3
74
0
42
0.000000001
43
0.0000000001
44
0.0000000001
40
0
40
0
40
0
40
1
40
1
40
1
10
-333.54368198568454
20
54.541516666013329
30
-3.5447313979170292e-13
10
-333.41066706831089
20
54.781966571408837
30
-3.4853597943811716e-13
10
-333.41066706831089
20
55.066414241391747
30
-3.4743745500499319e-13
0
SPLINE
5
343
100
AcDbEntity
8
0
100
AcDbSpline
70
0
71
2
72
6
73
3
74
0
42
0.000000001
43
0.0000000001
44
0.0000000001
40
0
40
0
40
0
40
1
40
1
40
1
10
-333.41066706831089
20
55.066414241391747
30
-3.4743745500499319e-13
10
-333.41066706831089
20
55.522756938535302
30
-3.4567507951174349e-13
10
-333.70329994613758
20
55.804138545590966
30
-3.5560721571279049e-13
0
SPLINE
5
344
100
AcDbEntity
8
0
100
AcDbSpline
70
0
71
2
72
6
73
3
74
0
42
0.000000001
43
0.0000000001
44
0.0000000001
40
0
40
0
40
0
40
1
40
1
40
1
10
-333.70329994613758
20
55.804138545590966
30
-3.5560721571279049e-13
10
-333.99593282396427
20
56.085513000089264
30
-3.6553937953670066e-13
10
-334.54641032869449
20
56.085513000089264
30
-3.862670994771004e-13
0
SPLINE
5
345
100
AcDbEntity
8
0
100
AcDbSpline
70
0
71
2
72
6
73
3
74
0
42
0.000000001
43
0.0000000001
44
0.0000000001
40
0
40
0
40
0
40
1
40
1
40
1
10
-334.54641032869449
20
55.706930522519684
30
-3.8772916841086163e-13
10
-334.12894774133792
20
55.706930522519684
30
-3.7201000182918234e-13
10
-333.92123985941043
20
55.524802569943994
30
-3.6489232432826351e-13
0
SPLINE
5
346
100
AcDbEntity
8
0
100
AcDbSpline
70
0
71
2
72
6
73
3
74
0
42
0.000000001
43
0.0000000001
44
0.0000000001
40
0
40
0
40
0
40
1
40
1
40
1
10
-333.92123985941043
20
55.524802569943994
30
-3.6489232432826351e-13
10
-333.71353167945972
20
55.34267461736831
30
-3.5777463560555642e-13
10
-333.71353167945972
20
55.066414241391747
30
-3.5884154106810602e-13
0
SPLINE
5
347
100
AcDbEntity
8
0
100
AcDbSpline
70
0
71
2
72
6
73
3
74
0
42
0.000000001
43
0.0000000001
44
0.0000000001
40
0
40
0
40
0
40
1
40
1
40
1
10
-333.71353167945972
20
55.066414241391747
30
-3.5884154106810602e-13
10
-333.71353167945972
20
54.792194728452294
30
-3.5990056480706457e-13
10
-333.922262973138
20
54.610071544248193
30
-3.6846349985219552e-13
0
SPLINE
5
348
100
AcDbEntity
8
0
100
AcDbSpline
70
0
71
2
72
6
73
3
74
0
42
0.000000001
43
0.0000000001
44
0.0000000001
40
0
40
0
40
0
40
1
40
1
40
1
10
-333.922262973138
20
54.610071544248193
30
-3.6846349985219552e-13
10
-334.13099426681629
20
54.427938823300934
30
-3.7702647172781046e-13
10
-334.558688587495
20
54.427938823300934
30
-3.9313090473906023e-13
0
SPLINE
5
349
100
AcDbEntity
8
0
100
AcDbSpline
70
0
71
2
72
6
73
3
74
0
42
0.000000001
43
0.0000000001
44
0.0000000001
40
0
40
0
40
0
40
1
40
1
40
1
10
-334.558688587495
20
54.427938823300934
30
-3.9313090473906023e-13
10
-334.96182668859592
20
54.427938823300941
30
-4.0831069607498327e-13
10
-335.16953457052341
20
54.611091975766762
30
-4.1542441429886457e-13
0
SPLINE
5
350
100
AcDbEntity
8
0
100
AcDbSpline
70
0
71
2
72
6
73
3
74
0
42
0.000000001
43
0.0000000001
44
0.0000000001
40
0
40
0
40
0
40
1
40
1
40
1
10
-335.16953457052341
20
54.611091975766762
30
-4.1542441429886457e-13
10
-335.3772424524509
20
54.794245128232582
30
-4.2253813252274588e-13
10
-335.3772424524509
20
55.066414241391762
30
-4.2148702733786248e-13
0
SPLINE
5
351
100
AcDbEntity
8
0
100
AcDbSpline
70
0
71
2
72
6
73
3
74
0
42
0.000000001
43
0.0000000001
44
0.0000000001
40
0
40
0
40
0
40
1
40
1
40
1
10
-335.3772424524509
20
55.066414241391762
30
-4.2148702733786248e-13
10
-335.3772424524509
20
55.342674617368324
30
-4.2042012187531293e-13
10
-335.1705579822742
20
55.524802569944008
30
-4.1193423965571504e-13
0
SPLINE
5
352
100
AcDbEntity
8
0
100
AcDbSpline
70
0
71
2
72
6
73
3
74
0
42
0.000000001
43
0.0000000001
44
0.0000000001
40
0
40
0
40
0
40
1
40
1
40
1
10
-335.1705579822742
20
55.524802569944008
30
-4.1193423965571504e-13
10
-334.96387291605106
20
55.706930522519691
30
-4.0344833499254093e-13
10
-334.54641032869449
20
55.706930522519684
30
-3.8772916841086163e-13
0
LINE
5
353
100
AcDbEntity
8
0
100
AcDbLine
10
-333.45978010351291
20
53.621664409238427
30
-3.5486632132249043e-13
11
-335.63304055387607
21
53.621664409238448
31
-4.366984281490005e-13
0
LINE
5
354
100
AcDbEntity
8
0
100
AcDbLine
10
-335.63304055387607
20
53.621664409238448
30
-4.366984281490005e-13
11
-335.63304055387607
21
53.290148143369308
31
-4.3797872943625367e-13
0
LINE
5
355
100
AcDbEntity
8
0
100
AcDbLine
10
-335.63304055387607
20
53.290148143369308
30
-4.3797872943625367e-13
11
-335.30357289964786
21
53.290148143369308
31
-4.2557293045703909e-13
0
SPLINE
5
356
100
AcDbEntity
8
0
100
AcDbSpline
70
0
71
2
72
6
73
3
74
0
42
0.000000001
43
0.0000000001
44
0.0000000001
40
0
40
0
40
0
40
1
40
1
40
1
10
-335.30357289964786
20
53.290148143369301
30
-4.2557293045703909e-13
10
-335.53481418544879
20
53.16327131231462
30
-4.3477009938607839e-13
10
-335.60848403627506
20
53.055839900571456
30
-4.3795896470226311e-13
0
SPLINE
5
357
100
AcDbEntity
8
0
100
AcDbSpline
70
0
71
2
72
6
73
3
74
0
42
0.000000001
43
0.0000000001
44
0.0000000001
40
0
40
0
40
0
40
1
40
1
40
1
10
-335.60848403627506
20
53.055839900571456
30
-4.3795896470226311e-13
10
-335.68215388710132
20
52.94840372045671
30
-4.4114784843368985e-13
10
-335.68215388710132
20
52.819481257993331
30
-4.4164574133259466e-13
0
SPLINE
5
358
100
AcDbEntity
8
0
100
AcDbSpline
70
0
71
2
72
6
73
3
74
0
42
0.000000001
43
0.0000000001
44
0.0000000001
40
0
40
0
40
0
40
1
40
1
40
1
10
-335.68215388710132
20
52.819481257993331
30
-4.4164574133259466e-13
10
-335.68215388710132
20
52.633257274228683
30
-4.4236493019503616e-13
10
-335.56346345598331
20
52.440901164609542
30
-4.3863862294577076e-13
0
LINE
5
359
100
AcDbEntity
8
0
100
AcDbLine
10
-335.56346345598331
20
52.440901164609556
30
-4.3863862294577076e-13
11
-335.22171724493137
21
52.56777799566423
31
-4.2528049353613894e-13
0
SPLINE
5
360
100
AcDbEntity
8
0
100
AcDbSpline
70
0
71
2
72
6
73
3
74
0
42
0.000000001
43
0.0000000001
44
0.0000000001
40
0
40
0
40
0
40
1
40
1
40
1
10
-335.22171724493137
20
52.567777995664223
30
-4.2528049353613894e-13
10
-335.3015263741695
20
52.702837352353676
30
-4.2776403896903995e-13
10
-335.3015263741695
20
52.837896709043129
30
-4.2724244565363577e-13
0
SPLINE
5
361
100
AcDbEntity
8
0
100
AcDbSpline
70
0
71
2
72
6
73
3
74
0
42
0.000000001
43
0.0000000001
44
0.0000000001
40
0
40
0
40
0
40
1
40
1
40
1
10
-335.3015263741695
20
52.837896709043129
30
-4.2724244565363577e-13
10
-335.3015263741695
20
52.958636645871742
30
-4.2677615331006321e-13
10
-335.22887993509403
20
53.054814700681312
30
-4.2366928358546902e-13
0
SPLINE
5
362
100
AcDbEntity
8
0
100
AcDbSpline
70
0
71
2
72
6
73
3
74
0
42
0.000000001
43
0.0000000001
44
0.0000000001
40
0
40
0
40
0
40
1
40
1
40
1
10
-335.22887993509403
20
53.054814700681312
30
-4.2366928358546902e-13
10
-335.15623319799533
20
53.150997523862465
30
-4.205623842238447e-13
10
-335.02731073553196
20
53.191924457151039
30
-4.1554987043713422e-13
0
SPLINE
5
363
100
AcDbEntity
8
0
100
AcDbSpline
70
0
71
2
72
6
73
3
74
0
42
0.000000001
43
0.0000000001
44
0.0000000001
40
0
40
0
40
0
40
1
40
1
40
1
10
-335.02731073553196
20
53.191924457151039
30
-4.1554987043713422e-13
10
-334.8308579986774
20
53.253317241269691
30
-4.0791552857543724e-13
10
-334.59757018739811
20
53.253317241269684
30
-3.991312923874828e-13
0
LINE
5
364
100
AcDbEntity
8
0
100
AcDbLine
10
-334.59757018739799
20
53.253317241269684
30
-3.991312923874828e-13
11
-333.45978010351291
21
53.25331724126967
31
-3.5628886193922318e-13
0
LINE
5
365
100
AcDbEntity
8
0
100
AcDbLine
10
-333.45978010351291
20
53.25331724126967
30
-3.5628886193922318e-13
11
-333.45978010351291
21
53.621664409238427
31
-3.5486632132249043e-13
0
LWPOLYLINE
5
366
100
AcDbEntity
8
0
100
AcDbPolyline
90
12
70
1
43
0.0
10
-337.72281762814328
20
144.75143441109674
10
-334.72281750893399
20
144.75143441109674
10
-334.72281750893399
20
142.5126893177511
10
-335.07684197878643
20
142.5126893177511
10
-335.07684197878643
20
144.35443588643091
10
-336.09798815703198
20
144.35443588643091
10
-336.09798815703198
20
142.69481786637323
10
-336.44996610140606
20
142.69481786637323
10
-336.44996610140606
20
144.35443588643091
10
-337.3687928602676
20
144.35443588643091
10
-337.3687928602676
20
142.58226701169031
10
-337.72281762814328
20
142.58226701169031
0
LWPOLYLINE
5
367
100
AcDbEntity
8
0
100
AcDbPolyline
90
8
70
1
43
0.0
10
-349.25658815126326
20
79.362727425650277
10
-346.61061279992964
20
79.362727425650249
10
-346.61061279992964
20
78.96572949703085
10
-349.25658815126326
20
78.965729497030878
10
-349.25658815126326
20
77.973232291296625
10
-349.61061291913893
20
77.973232291296625
10
-349.61061291913893
20
80.351132176474238
10
-349.25658815126326
20
80.351132176474238
0
LINE
5
368
100
AcDbEntity
8
0
100
AcDbLine
10
-346.61061279992964
20
77.613068841055522
30
-2.6308822316317863e-13
11
-349.61061291913893
21
77.613068841055551
31
-3.7605044552067578e-13
0
LINE
5
369
100
AcDbEntity
8
0
100
AcDbLine
10
-349.61061291913893
20
77.613068841055551
30
-3.7605044552067578e-13
11
-349.61061291913893
21
77.24471928890101
31
-3.7747299534502961e-13
0
LINE
5
370
100
AcDbEntity
8
0
100
AcDbLine
10
-349.61061291913893
20
77.24471928890101
30
-3.7747299534502961e-13
11
-348.53421442727949
21
77.244719288900995
31
-3.3694220836134498e-13
0
SPLINE
5
371
100
AcDbEntity
8
0
100
AcDbSpline
70
0
71
2
72
6
73
3
74
0
42
0.000000001
43
0.0000000001
44
0.0000000001
40
0
40
0
40
0
40
1
40
1
40
1
10
-348.53421442727949
20
77.244719288900995
30
-3.3694220836134493e-13
10
-348.83298658351805
20
76.986875556067133
30
-3.4918797802405932e-13
10
-348.83298658351805
20
76.593970082358027
30
-3.5070536174108367e-13
0
SPLINE
5
372
100
AcDbEntity
8
0
100
AcDbSpline
70
0
71
2
72
6
73
3
74
0
42
0.000000001
43
0.0000000001
44
0.0000000001
40
0
40
0
40
0
40
1
40
1
40
1
10
-348.83298658351805
20
76.593970082358027
30
-3.5070536174108367e-13
10
-348.83298658351805
20
76.352496169165278
30
-3.516379234091762e-13
10
-348.73782985429671
20
76.174460671499872
30
-3.4874245030457209e-13
0
SPLINE
5
373
100
AcDbEntity
8
0
100
AcDbSpline
70
0
71
2
72
6
73
3
74
0
42
0.000000001
43
0.0000000001
44
0.0000000001
40
0
40
0
40
0
40
1
40
1
40
1
10
-348.73782985429671
20
76.174460671499872
30
-3.4874245030457209e-13
10
-348.64267282705214
20
75.996423981741572
30
-3.4584697058199034e-13
10
-348.4748693607321
20
75.919686577871943
30
-3.398248431648687e-13
0
SPLINE
5
374
100
AcDbEntity
8
0
100
AcDbSpline
70
0
71
2
72
6
73
3
74
0
42
0.000000001
43
0.0000000001
44
0.0000000001
40
0
40
0
40
0
40
1
40
1
40
1
10
-348.4748693607321
20
75.919686577871943
30
-3.398248431648687e-13
10
-348.30706589441206
20
75.842946789816523
30
-3.3380272495536805e-13
10
-347.98782967548277
20
75.842946789816509
30
-3.2178218118393583e-13
0
LINE
5
375
100
AcDbEntity
8
0
100
AcDbLine
10
-347.98782967548277
20
75.842946789816509
30
-3.2178218118393588e-13
11
-346.61061279992964
21
75.842946789816494
31
-2.6992435693433718e-13
0
LINE
5
376
100
AcDbEntity
8
0
100
AcDbLine
10
-346.61061279992964
20
75.842946789816494
30
-2.6992435693433718e-13
11
-346.61061279992964
21
76.21129634197105
31
-2.6850180710998344e-13
0
LINE
5
377
100
AcDbEntity
8
0
100
AcDbLine
10
-346.61061279992964
20
76.21129634197105
30
-2.6850180710998344e-13
11
-347.98782967548277
21
76.211296341971064
31
-3.2035963135958204e-13
0
SPLINE
5
378
100
AcDbEntity
8
0
100
AcDbSpline
70
0
71
2
72
6
73
3
74
0
42
0.000000001
43
0.0000000001
44
0.0000000001
40
0
40
0
40
0
40
1
40
1
40
1
10
-347.98782967548277
20
76.211296341971064
30
-3.2035963135958204e-13
10
-348.26409154157545
20
76.211296341971064
30
-3.3076201572838127e-13
10
-348.3899443648329
20
76.331008694723749
30
-3.3503856321620364e-13
0
SPLINE
5
379
100
AcDbEntity
8
0
100
AcDbSpline
70
0
71
2
72
6
73
3
74
0
42
0.000000001
43
0.0000000001
44
0.0000000001
40
0
40
0
40
0
40
1
40
1
40
1
10
-348.3899443648329
20
76.331008694723749
30
-3.3503856321620364e-13
10
-348.51579718809035
20
76.45072223956933
30
-3.3931510610021555e-13
10
-348.51579718809035
20
76.669685862616205
30
-3.3846947818596062e-13
0
SPLINE
5
380
100
AcDbEntity
8
0
100
AcDbSpline
70
0
71
2
72
6
73
3
74
0
42
0.000000001
43
0.0000000001
44
0.0000000001
40
0
40
0
40
0
40
1
40
1
40
1
10
-348.51579718809035
20
76.669685862616205
30
-3.3846947818596062e-13
10
-348.51579718809035
20
76.833397172049189
30
-3.3783723228497765e-13
10
-348.43087189416792
20
76.977666638449335
30
-3.3408228674470416e-13
0
SPLINE
5
381
100
AcDbEntity
8
0
100
AcDbSpline
70
0
71
2
72
6
73
3
74
0
42
0.000000001
43
0.0000000001
44
0.0000000001
40
0
40
0
40
0
40
1
40
1
40
1
10
-348.43087189416792
20
76.977666638449335
30
-3.3408228674470416e-13
10
-348.34594719629195
20
77.121936104849482
30
-3.3032736364800689e-13
10
-348.20065372209456
20
77.183328888968134
30
-3.246193763777383e-13
0
SPLINE
5
382
100
AcDbEntity
8
0
100
AcDbSpline
70
0
71
2
72
6
73
3
74
0
42
0.000000001
43
0.0000000001
44
0.0000000001
40
0
40
0
40
0
40
1
40
1
40
1
10
-348.20065372209456
20
77.183328888968134
30
-3.246193763777383e-13
10
-348.05536024789717
20
77.244719288900995
30
-3.189113983150906e-13
10
-347.79956244449522
20
77.244719288900981
30
-3.0927956924900844e-13
0
LINE
5
383
100
AcDbEntity
8
0
100
AcDbLine
10
-347.79956244449517
20
77.244719288900981
30
-3.0927956924900844e-13
11
-346.61061279992964
21
77.244719288900967
31
-2.6451077298753237e-13
0
LINE
5
384
100
AcDbEntity
8
0
100
AcDbLine
10
-346.61061279992964
20
77.244719288900967
30
-2.6451077298753237e-13
11
-346.61061279992964
21
77.613068841055522
31
-2.6308822316317863e-13
0
LWPOLYLINE
5
385
100
AcDbEntity
8
0
100
AcDbPolyline
90
4
70
1
43
0.0
10
-349.61061291913893
20
75.280190728262582
10
-349.18701135139372
20
75.280190728262568
10
-349.18701135139372
20
74.911841176108027
10
-349.61061291913893
20
74.911841176108041
0
LWPOLYLINE
5
386
100
AcDbEntity
8
0
100
AcDbPolyline
90
4
70
1
43
0.0
10
-348.7838732502928
20
75.280190728262568
10
-346.61061279992964
20
75.280190728262554
10
-346.61061279992964
20
74.911841176108013
10
-348.7838732502928
20
74.911841176108027
0
LINE
5
387
100
AcDbEntity
8
0
100
AcDbLine
10
-347.25931667308714
20
74.498471043661723
30
-2.9954300608349423e-13
11
-347.3166155121794
21
74.134215138510356
31
-3.0310728107094993e-13
0
SPLINE
5
388
100
AcDbEntity
8
0
100
AcDbSpline
70
0
71
2
72
6
73
3
74
0
42
0.000000001
43
0.0000000001
44
0.0000000001
40
0
40
0
40
0
40
1
40
1
40
1
10
-347.3166155121794
20
74.134215138510356
30
-3.0310728107094993e-13
10
-347.09765248517897
20
74.10351874645103
30
-2.9498097947114121e-13
10
-346.98100857953932
20
73.963342927054057
30
-2.9113021424727194e-13
0
SPLINE
5
389
100
AcDbEntity
8
0
100
AcDbSpline
70
0
71
2
72
6
73
3
74
0
42
0.000000001
43
0.0000000001
44
0.0000000001
40
0
40
0
40
0
40
1
40
1
40
1
10
-346.98100857953932
20
73.963342927054057
30
-2.9113021424727194e-13
10
-346.86436437587645
20
73.823164723471294
30
-2.872794470092355e-13
10
-346.86436437587645
20
73.571459076956401
30
-2.882515231829249e-13
0
SPLINE
5
390
100
AcDbEntity
8
0
100
AcDbSpline
70
0
71
2
72
6
73
3
74
0
42
0.000000001
43
0.0000000001
44
0.0000000001
40
0
40
0
40
0
40
1
40
1
40
1
10
-346.86436437587645
20
73.571459076956401
30
-2.882515231829249e-13
10
-346.86436437587645
20
73.317707799032817
30
-2.8923149949544752e-13
10
-346.96770690898802
20
73.194924614981304
30
-2.9359695001705251e-13
0
SPLINE
5
391
100
AcDbEntity
8
0
100
AcDbSpline
70
0
71
2
72
6
73
3
74
0
42
0.000000001
43
0.0000000001
44
0.0000000001
40
0
40
0
40
0
40
1
40
1
40
1
10
-346.96770690898802
20
73.194924614981304
30
-2.9359695001705251e-13
10
-347.07104944209959
20
73.07214143092979
30
-2.979624005386575e-13
10
-347.21020363788512
20
73.07214143092979
30
-3.0320212273255059e-13
0
SPLINE
5
392
100
AcDbEntity
8
0
100
AcDbSpline
70
0
71
2
72
6
73
3
74
0
42
0.000000001
43
0.0000000001
44
0.0000000001
40
0
40
0
40
0
40
1
40
1
40
1
10
-347.21020363788512
20
73.07214143092979
30
-3.0320212273255059e-13
10
-347.33503304939177
20
73.07214143092979
30
-3.0790245845889938e-13
10
-347.40665637473967
20
73.180600426748882
30
-3.1018050446533383e-13
0
SPLINE
5
393
100
AcDbEntity
8
0
100
AcDbSpline
70
0
71
2
72
6
73
3
74
0
42
0.000000001
43
0.0000000001
44
0.0000000001
40
0
40
0
40
0
40
1
40
1
40
1
10
-347.40665637473967
20
73.180600426748882
30
-3.1018050446533383e-13
10
-347.45576970796492
20
73.256315014914165
30
-3.1173741506069603e-13
10
-347.53148608426955
20
73.557134888723979
30
-3.1342669182616361e-13
0
SPLINE
5
394
100
AcDbEntity
8
0
100
AcDbSpline
70
0
71
2
72
6
73
3
74
0
42
0.000000001
43
0.0000000001
44
0.0000000001
40
0
40
0
40
0
40
1
40
1
40
1
10
-347.53148608426955
20
73.557134888723979
30
-3.1342669182616361e-13
10
-347.63380520563032
20
73.962317727163921
30
-3.1571462509114205e-13
10
-347.70849817018416
20
74.118868134573589
30
-3.1792252859161718e-13
0
SPLINE
5
395
100
AcDbEntity
8
0
100
AcDbSpline
70
0
71
2
72
6
73
3
74
0
42
0.000000001
43
0.0000000001
44
0.0000000001
40
0
40
0
40
0
40
1
40
1
40
1
10
-347.70849817018416
20
74.118868134573589
30
-3.1792252859161718e-13
10
-347.78319113473799
20
74.275413773611675
30
-3.2013045050733432e-13
10
-347.9151832364073
20
74.356247208670268
30
-3.2478831550626319e-13
0
SPLINE
5
396
100
AcDbEntity
8
0
100
AcDbSpline
70
0
71
2
72
6
73
3
74
0
42
0.000000001
43
0.0000000001
44
0.0000000001
40
0
40
0
40
0
40
1
40
1
40
1
10
-347.9151832364073
20
74.356247208670268
30
-3.2478831550626319e-13
10
-348.04717474203017
20
74.437080643728876
30
-3.2944615806161584e-13
10
-348.20679300050642
20
74.437080643728876
30
-3.3545643555822595e-13
0
SPLINE
5
397
100
AcDbEntity
8
0
100
AcDbSpline
70
0
71
2
72
6
73
3
74
0
42
0.000000001
43
0.0000000001
44
0.0000000001
40
0
40
0
40
0
40
1
40
1
40
1
10
-348.20679300050642
20
74.437080643728876
30
-3.3545643555822595e-13
10
-348.35208647470381
20
74.437080643728876
30
-3.4092732658729185e-13
10
-348.47589247445967
20
74.370571396902704
30
-3.4584598248915966e-13
0
SPLINE
5
398
100
AcDbEntity
8
0
100
AcDbSpline
70
0
71
2
72
6
73
3
74
0
42
0.000000001
43
0.0000000001
44
0.0000000001
40
0
40
0
40
0
40
1
40
1
40
1
10
-348.47589247445967
20
74.370571396902704
30
-3.4584598248915966e-13
10
-348.59969877223875
20
74.304064534262324
30
-3.5076464040519454e-13
10
-348.68155412893202
20
74.189466260031367
30
-3.542894014625297e-13
0
SPLINE
5
399
100
AcDbEntity
8
0
100
AcDbSpline
70
0
71
2
72
6
73
3
74
0
42
0.000000001
43
0.0000000001
44
0.0000000001
40
0
40
0
40
0
40
1
40
1
40
1
10
-348.68155412893202
20
74.189466260031367
30
-3.542894014625297e-13
10
-348.74499194841292
20
74.103518746451044
30
-3.5701001925436638e-13
10
-348.7889894149771
20
73.955155633047724
30
-3.5923967489628103e-13
0
SPLINE
5
400
100
AcDbEntity
8
0
100
AcDbSpline
70
0
71
2
72
6
73
3
74
0
42
0.000000001
43
0.0000000001
44
0.0000000001
40
0
40
0
40
0
40
1
40
1
40
1
10
-348.7889894149771
20
73.955155633047724
30
-3.5923967489628103e-13
10
-348.83298688154127
20
73.806792519644404
30
-3.6146933053819568e-13
10
-348.83298688154127
20
73.636943123892451
30
-3.6212528145948843e-13
0
SPLINE
5
401
100
AcDbEntity
8
0
100
AcDbSpline
70
0
71
2
72
6
73
3
74
0
42
0.000000001
43
0.0000000001
44
0.0000000001
40
0
40
0
40
0
40
1
40
1
40
1
10
-348.83298688154127
20
73.636943123892451
30
-3.6212528145948843e-13
10
-348.83298688154127
20
73.381143830374384
30
-3.6311316711846512e-13
10
-348.75931673269179
20
73.187762520865107
30
-3.610860161242809e-13
0
SPLINE
5
402
100
AcDbEntity
8
0
100
AcDbSpline
70
0
71
2
72
6
73
3
74
0
42
0.000000001
43
0.0000000001
44
0.0000000001
40
0
40
0
40
0
40
1
40
1
40
1
10
-348.75931673269179
20
73.187762520865107
30
-3.610860161242809e-13
10
-348.68564717988875
20
72.994378827170038
30
-3.5905889678129398e-13
10
-348.5597943566313
20
72.90228965099206
30
-3.546756697963619e-13
0
SPLINE
5
403
100
AcDbEntity
8
0
100
AcDbSpline
70
0
71
2
72
6
73
3
74
0
42
0.000000001
43
0.0000000001
44
0.0000000001
40
0
40
0
40
0
40
1
40
1
40
1
10
-348.5597943566313
20
72.90228965099206
30
-3.546756697963619e-13
10
-348.43394153337385
20
72.810202858999872
30
-3.5029243360380878e-13
10
-348.22316401224043
20
72.775415204123163
30
-3.4249014991403781e-13
0
LINE
5
404
100
AcDbEntity
8
0
100
AcDbLine
10
-348.22316401224037
20
72.775415204123163
30
-3.4249014991403791e-13
11
-348.17405097703841
21
73.135577462271357
31
-3.3924991326602897e-13
0
SPLINE
5
405
100
AcDbEntity
8
0
100
AcDbSpline
70
0
71
2
72
6
73
3
74
0
42
0.000000001
43
0.0000000001
44
0.0000000001
40
0
40
0
40
0
40
1
40
1
40
1
10
-348.17405097703841
20
73.135577462271357
30
-3.3924991326602892e-13
10
-348.34185414533522
20
73.160134575918818
30
-3.4547354745495339e-13
10
-348.43598805885222
20
73.277803681448603
30
-3.4856363974310088e-13
0
SPLINE
5
406
100
AcDbEntity
8
0
100
AcDbSpline
70
0
71
2
72
6
73
3
74
0
42
0.000000001
43
0.0000000001
44
0.0000000001
40
0
40
0
40
0
40
1
40
1
40
1
10
-348.43598805885222
20
73.277803681448603
30
-3.4856363974310088e-13
10
-348.53012197236922
20
73.395470402792597
30
-3.5165374123886945e-13
10
-348.53012197236922
20
73.610340378836298
30
-3.5082392280990171e-13
0
SPLINE
5
407
100
AcDbEntity
8
0
100
AcDbSpline
70
0
71
2
72
6
73
3
74
0
42
0.000000001
43
0.0000000001
44
0.0000000001
40
0
40
0
40
0
40
1
40
1
40
1
10
-348.53012197236922
20
73.610340378836298
30
-3.5082392280990171e-13
10
-348.53012197236922
20
73.864091656759882
30
-3.4984394649737913e-13
10
-348.44622009019758
20
73.972550652578974
30
-3.4626583504517732e-13
0
SPLINE
5
408
100
AcDbEntity
8
0
100
AcDbSpline
70
0
71
2
72
6
73
3
74
0
42
0.000000001
43
0.0000000001
44
0.0000000001
40
0
40
0
40
0
40
1
40
1
40
1
10
-348.44622009019758
20
73.972550652578974
30
-3.4626583504517732e-13
10
-348.36231820802595
20
74.081007264212275
30
-3.4268773280059654e-13
10
-348.24976705531981
20
74.081007264212275
30
-3.384497235228051e-13
0
SPLINE
5
409
100
AcDbEntity
8
0
100
AcDbSpline
70
0
71
2
72
6
73
3
74
0
42
0.000000001
43
0.0000000001
44
0.0000000001
40
0
40
0
40
0
40
1
40
1
40
1
10
-348.24976705531981
20
74.081007264212275
30
-3.384497235228051e-13
10
-348.17814343194868
20
74.081007264212275
30
-3.3575280240687158e-13
10
-348.12084489087965
20
74.035989068106318
30
-3.3376913728032459e-13
0
SPLINE
5
410
100
AcDbEntity
8
0
100
AcDbSpline
70
0
71
2
72
6
73
3
74
0
42
0.000000001
43
0.0000000001
44
0.0000000001
40
0
40
0
40
0
40
1
40
1
40
1
10
-348.12084489087965
20
74.035989068106318
30
-3.3376913728032459e-13
10
-348.06149952630903
20
73.99096848781457
30
-3.3170841012062345e-13
10
-348.02261822442915
20
73.894788048819208
30
-3.3061581539543478e-13
0
SPLINE
5
411
100
AcDbEntity
8
0
100
AcDbSpline
70
0
71
2
72
6
73
3
74
0
42
0.000000001
43
0.0000000001
44
0.0000000001
40
0
40
0
40
0
40
1
40
1
40
1
10
-348.02261822442915
20
73.894788048819208
30
-3.3061581539543478e-13
10
-348.00215445976164
20
73.839534543112407
30
-3.3005865793158835e-13
10
-347.92848460893538
20
73.56941344554771
30
-3.2832788385688531e-13
0
SPLINE
5
412
100
AcDbEntity
8
0
100
AcDbSpline
70
0
71
2
72
6
73
3
74
0
42
0.000000001
43
0.0000000001
44
0.0000000001
40
0
40
0
40
0
40
1
40
1
40
1
10
-347.92848460893538
20
73.56941344554771
30
-3.2832788385688531e-13
10
-347.82411896209624
20
73.178552411154399
30
-3.2590758039346729e-13
10
-347.75761150340941
20
73.024050019339214
30
-3.2399998517890962e-13
0
SPLINE
5
413
100
AcDbEntity
8
0
100
AcDbSpline
70
0
71
2
72
6
73
3
74
0
42
0.000000001
43
0.0000000001
44
0.0000000001
40
0
40
0
40
0
40
1
40
1
40
1
10
-347.75761150340941
20
73.024050019339214
30
-3.2399998517890962e-13
10
-347.69110374669935
20
72.869550011709819
30
-3.2209236953494285e-13
10
-347.56422810773756
20
72.781554482535014
30
-3.1765481988791226e-13
0
SPLINE
5
414
100
AcDbEntity
8
0
100
AcDbSpline
70
0
71
2
72
6
73
3
74
0
42
0.000000001
43
0.0000000001
44
0.0000000001
40
0
40
0
40
0
40
1
40
1
40
1
10
-347.56422810773756
20
72.781554482535014
30
-3.1765481988791226e-13
10
-347.43735217075255
20
72.69355895336021
30
-3.1321725901909351e-13
10
-347.24908464174177
20
72.69355895336021
30
-3.0612821980918277e-13
0
SPLINE
5
415
100
AcDbEntity
8
0
100
AcDbSpline
70
0
71
2
72
6
73
3
74
0
42
0.000000001
43
0.0000000001
44
0.0000000001
40
0
40
0
40
0
40
1
40
1
40
1
10
-347.24908464174177
20
72.69355895336021
30
-3.0612821980918277e-13
10
-347.06491016368773
20
72.69355895336021
30
-2.9919330063724603e-13
10
-346.90222256402876
20
72.800995133474956
30
-2.9265253612654315e-13
0
SPLINE
5
416
100
AcDbEntity
8
0
100
AcDbSpline
70
0
71
2
72
6
73
3
74
0
42
0.000000001
43
0.0000000001
44
0.0000000001
40
0
40
0
40
0
40
1
40
1
40
1
10
-346.90222256402876
20
72.800995133474956
30
-2.9265253612654315e-13
10
-346.7395349643698
20
72.908431313589702
30
-2.8611177161584033e-13
10
-346.65051751356032
20
73.111022732809673
30
-2.8197750287762513e-13
0
SPLINE
5
417
100
AcDbEntity
8
0
100
AcDbSpline
70
0
71
2
72
6
73
3
74
0
42
0.000000001
43
0.0000000001
44
0.0000000001
40
0
40
0
40
0
40
1
40
1
40
1
10
-346.65051751356032
20
73.111022732809673
30
-2.8197750287762513e-13
10
-346.56149976472761
20
73.313614152029629
30
-2.7784322291762183e-13
10
-346.56149976472761
20
73.569413445547696
30
-2.7685533725864519e-13
0
SPLINE
5
418
100
AcDbEntity
8
0
100
AcDbSpline
70
0
71
2
72
6
73
3
74
0
42
0.000000001
43
0.0000000001
44
0.0000000001
40
0
40
0
40
0
40
1
40
1
40
1
10
-346.56149976472761
20
73.569413445547696
30
-2.7685533725864519e-13
10
-346.56149976472761
20
73.993014119223233
30
-2.7521941002482991e-13
10
-346.73748873691466
20
74.215046189383159
30
-2.8098863344189056e-13
0
SPLINE
5
419
100
AcDbEntity
8
0
100
AcDbSpline
70
0
71
2
72
6
73
3
74
0
42
0.000000001
43
0.0000000001
44
0.0000000001
40
0
40
0
40
0
40
1
40
1
40
1
10
-346.73748873691466
20
74.215046189383159
30
-2.8098863344189056e-13
10
-346.9134777091017
20
74.437080643728862
30
-2.8675784765133016e-13
10
-347.25931667308714
20
74.498471043661723
30
-2.9954300608349423e-13
0
LINE
5
420
100
AcDbEntity
8
0
100
AcDbLine
10
-347.31047623376753
20
69.603520653799663
30
-3.2037345573932447e-13
11
-347.26340942602064
21
69.2228901606356
31
-3.2007117702250914e-13
0
SPLINE
5
421
100
AcDbEntity
8
0
100
AcDbSpline
70
0
71
2
72
6
73
3
74
0
42
0.000000001
43
0.0000000001
44
0.0000000001
40
0
40
0
40
0
40
1
40
1
40
1
10
-347.26340942602064
20
69.2228901606356
30
-3.2007117702250909e-13
10
-346.92984872083571
20
69.312931321219097
30
-3.0716352298997059e-13
10
-346.74567424278166
20
69.556452057913432
30
-2.9928813740729768e-13
0
SPLINE
5
422
100
AcDbEntity
8
0
100
AcDbSpline
70
0
71
2
72
6
73
3
74
0
42
0.000000001
43
0.0000000001
44
0.0000000001
40
0
40
0
40
0
40
1
40
1
40
1
10
-346.74567424278166
20
69.556452057913432
30
-2.9928813740729768e-13
10
-346.56149976472761
20
69.799972794607754
30
-2.9141275182462481e-13
10
-346.56149976472761
20
70.178552887991543
30
-2.8995069209848457e-13
0
SPLINE
5
423
100
AcDbEntity
8
0
100
AcDbSpline
70
0
71
2
72
6
73
3
74
0
42
0.000000001
43
0.0000000001
44
0.0000000001
40
0
40
0
40
0
40
1
40
1
40
1
10
-346.56149976472761
20
70.178552887991543
30
-2.8995069209848457e-13
10
-346.56149976472761
20
70.655361435965176
30
-2.8810927838641988e-13
10
-346.85515575628187
20
70.934692643240581
30
-2.9808785754014146e-13
0
SPLINE
5
424
100
AcDbEntity
8
0
100
AcDbSpline
70
0
71
2
72
6
73
3
74
0
42
0.000000001
43
0.0000000001
44
0.0000000001
40
0
40
0
40
0
40
1
40
1
40
1
10
-346.85515575628187
20
70.934692643240581
30
-2.9808785754014146e-13
10
-347.14881204585936
20
71.214023850515972
30
-3.0806644791565121e-13
10
-347.67882578592207
20
71.214023850515972
30
-3.2802362377512194e-13
0
SPLINE
5
425
100
AcDbEntity
8
0
100
AcDbSpline
70
0
71
2
72
6
73
3
74
0
42
0.000000001
43
0.0000000001
44
0.0000000001
40
0
40
0
40
0
40
1
40
1
40
1
10
-347.67882578592207
20
71.214023850515972
30
-3.2802362377512194e-13
10
-348.22725676517393
20
71.214023850515986
30
-3.4867428369653471e-13
10
-348.53012197236922
20
70.931621811941767
30
-3.611690164975146e-13
0
SPLINE
5
426
100
AcDbEntity
8
0
100
AcDbSpline
70
0
71
2
72
6
73
3
74
0
42
0.000000001
43
0.0000000001
44
0.0000000001
40
0
40
0
40
0
40
1
40
1
40
1
10
-348.53012197236922
20
70.931621811941767
30
-3.611690164975146e-13
10
-348.83298688154127
20
70.649222157553339
30
-3.7366372886908549e-13
10
-348.83298688154127
20
70.19901873882165
30
-3.7540239473821488e-13
0
SPLINE
5
427
100
AcDbEntity
8
0
100
AcDbSpline
70
0
71
2
72
6
73
3
74
0
42
0.000000001
43
0.0000000001
44
0.0000000001
40
0
40
0
40
0
40
1
40
1
40
1
10
-348.83298688154127
20
70.19901873882165
30
-3.7540239473821488e-13
10
-348.83298688154127
20
69.763137124136591
30
-3.7708575042789172e-13
10
-348.53626095275786
20
69.486876748160029
30
-3.6697971621892502e-13
0
SPLINE
5
428
100
AcDbEntity
8
0
100
AcDbSpline
70
0
71
2
72
6
73
3
74
0
42
0.000000001
43
0.0000000001
44
0.0000000001
40
0
40
0
40
0
40
1
40
1
40
1
10
-348.53626095275786
20
69.486876748160029
30
-3.6697971621892502e-13
10
-348.23953502397444
20
69.210611603811884
30
-3.5687370042520031e-13
10
-347.70133577804472
20
69.21061160381187
30
-3.3660830693335796e-13
0
SPLINE
5
429
100
AcDbEntity
8
0
100
AcDbSpline
70
0
71
2
72
6
73
3
74
0
42
0.000000001
43
0.0000000001
44
0.0000000001
40
0
40
0
40
0
40
1
40
1
40
1
10
-347.70133577804472
20
69.21061160381187
30
-3.3660830693335796e-13
10
-347.6685937545767
20
69.21061160381187
30
-3.3537543640387161e-13
10
-347.60310940961745
20
69.212659619406352
30
-3.3290177477665673e-13
0
LINE
5
430
100
AcDbEntity
8
0
100
AcDbLine
10
-347.60310940961745
20
69.212659619406352
30
-3.3290177477665673e-13
11
-347.60310940961745
21
70.8333957415377
31
-3.2664256291559694e-13
0
SPLINE
5
431
100
AcDbEntity
8
0
100
AcDbSpline
70
0
71
2
72
6
73
3
74
0
42
0.000000001
43
0.0000000001
44
0.0000000001
40
0
40
0
40
0
40
1
40
1
40
1
10
-347.60310940961745
20
70.8333957415377
30
-3.2664256291559694e-13
10
-347.2449921868315
20
70.812932274893413
30
-3.1323702001248772e-13
10
-347.05467843036558
20
70.630804322317729
30
-3.0677430217491145e-13
0
SPLINE
5
432
100
AcDbEntity
8
0
100
AcDbSpline
70
0
71
2
72
6
73
3
74
0
42
0.000000001
43
0.0000000001
44
0.0000000001
40
0
40
0
40
0
40
1
40
1
40
1
10
-347.05467843036558
20
70.630804322317729
30
-3.0677430217491145e-13
10
-346.86436437587645
20
70.448676369742046
30
-3.0031157311554707e-13
10
-346.86436437587645
20
70.176507256582866
30
-3.0136267830043052e-13
0
SPLINE
5
433
100
AcDbEntity
8
0
100
AcDbSpline
70
0
71
2
72
6
73
3
74
0
42
0.000000001
43
0.0000000001
44
0.0000000001
40
0
40
0
40
0
40
1
40
1
40
1
10
-346.86436437587645
20
70.176507256582866
30
-3.0136267830043052e-13
10
-346.86436437587645
20
69.973913453177104
30
-3.0214508668877868e-13
10
-346.97077654819395
20
69.830666802481304
30
-3.0670515063916397e-13
0
SPLINE
5
434
100
AcDbEntity
8
0
100
AcDbSpline
70
0
71
2
72
6
73
3
74
0
42
0.000000001
43
0.0000000001
44
0.0000000001
40
0
40
0
40
0
40
1
40
1
40
1
10
-346.97077654819395
20
69.830666802481304
30
-3.0670515063916397e-13
10
-347.07718842248823
20
69.687420151785503
30
-3.1126520336776116e-13
10
-347.31047623376753
20
69.603520653799663
30
-3.2037345573932447e-13
0
LINE
5
435
100
AcDbEntity
8
0
100
AcDbLine
10
-347.9059743187895
20
70.812932274893413
30
-3.3812568921169188e-13
11
-347.9059743187895
21
69.599427006796489
31
-3.428121933648431e-13
0
SPLINE
5
436
100
AcDbEntity
8
0
100
AcDbSpline
70
0
71
2
72
6
73
3
74
0
42
0.000000001
43
0.0000000001
44
0.0000000001
40
0
40
0
40
0
40
1
40
1
40
1
10
-347.9059743187895
20
69.599427006796489
30
-3.428121933648431e-13
10
-348.18018995742705
20
69.623981736258173
30
-3.5304269964758342e-13
10
-348.31729762773421
20
69.73858001048913
30
-3.5776278831065838e-13
0
SPLINE
5
437
100
AcDbEntity
8
0
100
AcDbSpline
70
0
71
2
72
6
73
3
74
0
42
0.000000001
43
0.0000000001
44
0.0000000001
40
0
40
0
40
0
40
1
40
1
40
1
10
-348.31729762773421
20
69.73858001048913
30
-3.5776278831065838e-13
10
-348.53012197236922
20
69.91457106883874
30
-3.6509682188643792e-13
10
-348.53012197236922
20
70.194922707632685
30
-3.6401411614622217e-13
0
SPLINE
5
438
100
AcDbEntity
8
0
100
AcDbSpline
70
0
71
2
72
6
73
3
74
0
42
0.000000001
43
0.0000000001
44
0.0000000001
40
0
40
0
40
0
40
1
40
1
40
1
10
-348.53012197236922
20
70.194922707632685
30
-3.6401411614622217e-13
10
-348.53012197236922
20
70.44867636974206
30
-3.6303413062607861e-13
10
-348.36027198057081
20
70.621596596792841
30
-3.5597077636273461e-13
0
SPLINE
5
439
100
AcDbEntity
8
0
100
AcDbSpline
70
0
71
2
72
6
73
3
74
0
42
0.000000001
43
0.0000000001
44
0.0000000001
40
0
40
0
40
0
40
1
40
1
40
1
10
-348.36027198057081
20
70.621596596792841
30
-3.5597077636273461e-13
10
-348.19042198877241
20
70.794514439657831
30
-3.4890743130701165e-13
10
-347.9059743187895
20
70.812932274893413
30
-3.3812568921169188e-13
0
LINE
5
440
100
AcDbEntity
8
0
100
AcDbLine
10
-346.6106127999297
20
67.350450776175151
30
-3.0272200428280476e-13
11
-346.88482843856724
21
67.350450776175151
31
-3.1304733985440522e-13
0
SPLINE
5
441
100
AcDbEntity
8
0
100
AcDbSpline
70
0
71
2
72
6
73
3
74
0
42
0.000000001
43
0.0000000001
44
0.0000000001
40
0
40
0
40
0
40
1
40
1
40
1
10
-346.88482843856724
20
67.350450776175151
30
-3.1304733985440522e-13
10
-346.56149976472767
20
67.557135842398282
30
-3.0007448982256081e-13
10
-346.56149976472767
20
67.95822741802084
30
-2.9852549173877261e-13
0
SPLINE
5
442
100
AcDbEntity
8
0
100
AcDbSpline
70
0
71
2
72
6
73
3
74
0
42
0.000000001
43
0.0000000001
44
0.0000000001
40
0
40
0
40
0
40
1
40
1
40
1
10
-346.56149976472767
20
67.95822741802084
30
-2.9852549173877261e-13
10
-346.56149976472761
20
68.218117974356289
30
-2.9752180580212972e-13
10
-346.70474641542341
20
68.436056397513042
30
-3.0207395695320319e-13
0
SPLINE
5
443
100
AcDbEntity
8
0
100
AcDbSpline
70
0
71
2
72
6
73
3
74
0
42
0.000000001
43
0.0000000001
44
0.0000000001
40
0
40
0
40
0
40
1
40
1
40
1
10
-346.70474641542341
20
68.436056397513042
30
-3.0207395695320319e-13
10
-346.84799336414244
20
68.653997204855571
30
-3.0662611011844357e-13
10
-347.10481457929518
20
68.773709557608257
30
-3.1583415094599942e-13
0
SPLINE
5
444
100
AcDbEntity
8
0
100
AcDbSpline
70
0
71
2
72
6
73
3
74
0
42
0.000000001
43
0.0000000001
44
0.0000000001
40
0
40
0
40
0
40
1
40
1
40
1
10
-347.10481457929518
20
68.773709557608257
30
-3.1583415094599942e-13
10
-347.36163609247114
20
68.893424294546733
30
-3.2504219378772229e-13
10
-347.69519679765608
20
68.893424294546733
30
-3.3760211280491077e-13
0
SPLINE
5
445
100
AcDbEntity
8
0
100
AcDbSpline
70
0
71
2
72
6
73
3
74
0
42
0.000000001
43
0.0000000001
44
0.0000000001
40
0
40
0
40
0
40
1
40
1
40
1
10
-347.69519679765608
20
68.893424294546733
30
-3.3760211280491077e-13
10
-348.02057199697401
20
68.893424294546747
30
-3.4985381418972764e-13
10
-348.28557871799376
20
68.784967682913447
30
-3.6025125118865881e-13
0
SPLINE
5
446
100
AcDbEntity
8
0
100
AcDbSpline
70
0
71
2
72
6
73
3
74
0
42
0.000000001
43
0.0000000001
44
0.0000000001
40
0
40
0
40
0
40
1
40
1
40
1
10
-348.28557871799376
20
68.784967682913447
30
-3.6025125118865881e-13
10
-348.5505854390135
20
68.676506302908564
30
-3.7064870660283211e-13
10
-348.69178586225416
20
68.459590695456171
30
-3.7680319616172489e-13
0
SPLINE
5
447
100
AcDbEntity
8
0
100
AcDbSpline
70
0
71
2
72
6
73
3
74
0
42
0.000000001
43
0.0000000001
44
0.0000000001
40
0
40
0
40
0
40
1
40
1
40
1
10
-348.69178586225416
20
68.459590695456171
30
-3.7680319616172489e-13
10
-348.83298658351811
20
68.242675088003779
30
-3.8295769694240583e-13
10
-348.83298658351811
20
67.974597237661982
30
-3.8399300184962303e-13
0
SPLINE
5
448
100
AcDbEntity
8
0
100
AcDbSpline
70
0
71
2
72
6
73
3
74
0
42
0.000000001
43
0.0000000001
44
0.0000000001
40
0
40
0
40
0
40
1
40
1
40
1
10
-348.83298658351811
20
67.974597237661982
30
-3.8399300184962303e-13
10
-348.83298658351811
20
67.778145096853876
30
-3.8475169140623e-13
10
-348.75010781507405
20
67.624665520743036
30
-3.8222369963572451e-13
0
SPLINE
5
449
100
AcDbEntity
8
0
100
AcDbSpline
70
0
71
2
72
6
73
3
74
0
42
0.000000001
43
0.0000000001
44
0.0000000001
40
0
40
0
40
0
40
1
40
1
40
1
10
-348.75010781507405
20
67.624665520743036
30
-3.8222369963572451e-13
10
-348.66722934465321
20
67.471185944632197
30
-3.7969571908700717e-13
10
-348.53421442727955
20
67.375007889822626
30
-3.7505860116013618e-13
0
LINE
5
450
100
AcDbEntity
8
0
100
AcDbLine
10
-348.53421442727955
20
67.375007889822626
30
-3.7505860116013623e-13
11
-349.61061262111576
21
67.375007889822655
31
-4.155893769220327e-13
0
LINE
5
451
100
AcDbEntity
8
0
100
AcDbLine
10
-349.61061262111576
20
67.375007889822655
30
-4.155893769220327e-13
11
-349.61061262111576
21
67.008703969076791
31
-4.1700402660755337e-13
0
LINE
5
452
100
AcDbEntity
8
0
100
AcDbLine
10
-349.61061262111576
20
67.008703969076791
30
-4.1700402660755337e-13
11
-346.6106127999297
21
67.008703969076763
31
-3.0404181547184428e-13
0
LINE
5
453
100
AcDbEntity
8
0
100
AcDbLine
10
-346.6106127999297
20
67.008703969076763
30
-3.0404181547184428e-13
11
-346.6106127999297
21
67.350450776175151
31
-3.0272200428280476e-13
0
SPLINE
5
454
100
AcDbEntity
8
0
100
AcDbSpline
70
0
71
2
72
6
73
3
74
0
42
0.000000001
43
0.0000000001
44
0.0000000001
40
0
40
0
40
0
40
1
40
1
40
1
10
-347.69519679765608
20
68.514844201162944
30
-3.3906417253105102e-13
10
-347.27773421029951
20
68.514844201162944
30
-3.2334500594937162e-13
10
-347.07104944209959
20
68.338853142813335
30
-3.1624215243055295e-13
0
SPLINE
5
455
100
AcDbEntity
8
0
100
AcDbSpline
70
0
71
2
72
6
73
3
74
0
42
0.000000001
43
0.0000000001
44
0.0000000001
40
0
40
0
40
0
40
1
40
1
40
1
10
-347.07104944209959
20
68.338853142813335
30
-3.1624215243055295e-13
10
-346.86436437587651
20
68.162864468649516
30
-3.0913927848232513e-13
10
-346.86436437587651
20
67.923437378958354
30
-3.1006393540777401e-13
0
SPLINE
5
456
100
AcDbEntity
8
0
100
AcDbSpline
70
0
71
2
72
6
73
3
74
0
42
0.000000001
43
0.0000000001
44
0.0000000001
40
0
40
0
40
0
40
1
40
1
40
1
10
-346.86436437587651
20
67.923437378958354
30
-3.1006393540777401e-13
10
-346.86436437587651
20
67.681964657858501
30
-3.1099649247205602e-13
10
-347.06184052448185
20
67.513138077810893
30
-3.1908427456481392e-13
0
SPLINE
5
457
100
AcDbEntity
8
0
100
AcDbSpline
70
0
71
2
72
6
73
3
74
0
42
0.000000001
43
0.0000000001
44
0.0000000001
40
0
40
0
40
0
40
1
40
1
40
1
10
-347.06184052448185
20
67.513138077810893
30
-3.1908427456481392e-13
10
-347.2593166730872
20
67.344311497763286
30
-3.2717205665757182e-13
10
-347.66450100164326
20
67.344311497763286
30
-3.4242889679069377e-13
0
SPLINE
5
458
100
AcDbEntity
8
0
100
AcDbSpline
70
0
71
2
72
6
73
3
74
0
42
0.000000001
43
0.0000000001
44
0.0000000001
40
0
40
0
40
0
40
1
40
1
40
1
10
-347.66450100164326
20
67.344311497763286
30
-3.4242889679069377e-13
10
-348.11061256151112
20
67.3443114977633
30
-3.5922681386388548e-13
10
-348.3193438551894
20
67.516208909109736
30
-3.6642253688697835e-13
0
SPLINE
5
459
100
AcDbEntity
8
0
100
AcDbSpline
70
0
71
2
72
6
73
3
74
0
42
0.000000001
43
0.0000000001
44
0.0000000001
40
0
40
0
40
0
40
1
40
1
40
1
10
-348.3193438551894
20
67.516208909109736
30
-3.6642253688697835e-13
10
-348.52807514886769
20
67.68810393627038
30
-3.7361826911769217e-13
10
-348.52807514886769
20
67.939809582785273
30
-3.7264619294400272e-13
0
SPLINE
5
460
100
AcDbEntity
8
0
100
AcDbSpline
70
0
71
2
72
6
73
3
74
0
42
0.000000001
43
0.0000000001
44
0.0000000001
40
0
40
0
40
0
40
1
40
1
40
1
10
-348.52807514886769
20
67.939809582785273
30
-3.7264619294400272e-13
10
-348.52807514886769
20
68.185373566702509
30
-3.7169783560205457e-13
10
-348.32752936105635
20
68.350108883932734
30
-3.6351026936937646e-13
0
SPLINE
5
461
100
AcDbEntity
8
0
100
AcDbSpline
70
0
71
2
72
6
73
3
74
0
42
0.000000001
43
0.0000000001
44
0.0000000001
40
0
40
0
40
0
40
1
40
1
40
1
10
-348.32752936105635
20
68.350108883932734
30
-3.6351026936937646e-13
10
-348.12698387126829
20
68.514844201162958
30
-3.5532271435848651e-13
10
-347.69519679765608
20
68.514844201162944
30
-3.3906417253105102e-13
0
LINE
5
462
100
AcDbEntity
8
0
100
AcDbLine
10
-346.43053107480915
20
66.497107766226407
30
-2.992367672264256e-13
11
-346.3773249886504
21
66.138988755301114
31
-2.9861638131678951e-13
0
SPLINE
5
463
100
AcDbEntity
8
0
100
AcDbSpline
70
0
71
2
72
6
73
3
74
0
42
0.000000001
43
0.0000000001
44
0.0000000001
40
0
40
0
40
0
40
1
40
1
40
1
10
-346.3773249886504
20
66.138988755301114
30
-2.9861638131678951e-13
10
-346.21156804780873
20
66.116479657248135
30
-2.9246188657860983e-13
10
-346.1358516715041
20
66.014159939840908
30
-2.9000601091008123e-13
0
SPLINE
5
464
100
AcDbEntity
8
0
100
AcDbSpline
70
0
71
2
72
6
73
3
74
0
42
0.000000001
43
0.0000000001
44
0.0000000001
40
0
40
0
40
0
40
1
40
1
40
1
10
-346.1358516715041
20
66.014159939840908
30
-2.9000601091008123e-13
10
-346.03353255014332
20
65.877052567556973
30
-2.8668278194550656e-13
10
-346.03353255014332
20
65.639671109274502
30
-2.8759953873212232e-13
0
SPLINE
5
465
100
AcDbEntity
8
0
100
AcDbSpline
70
0
71
2
72
6
73
3
74
0
42
0.000000001
43
0.0000000001
44
0.0000000001
40
0
40
0
40
0
40
1
40
1
40
1
10
-346.03353255014332
20
65.639671109274502
30
-2.8759953873212232e-13
10
-346.03353255014332
20
65.383874199942227
30
-2.8858741518347802e-13
10
-346.1358516715041
20
65.244718812063809
30
-2.9297755881822327e-13
0
SPLINE
5
466
100
AcDbEntity
8
0
100
AcDbSpline
70
0
71
2
72
6
73
3
74
0
42
0.000000001
43
0.0000000001
44
0.0000000001
40
0
40
0
40
0
40
1
40
1
40
1
10
-346.1358516715041
20
65.244718812063809
30
-2.9297755881822327e-13
10
-346.23817079286488
20
65.105565808371182
30
-2.9736769324534738e-13
10
-346.42234556894215
20
65.05645158107626
30
-3.0449230063203461e-13
0
SPLINE
5
467
100
AcDbEntity
8
0
100
AcDbSpline
70
0
71
2
72
6
73
3
74
0
42
0.000000001
43
0.0000000001
44
0.0000000001
40
0
40
0
40
0
40
1
40
1
40
1
10
-346.42234556894215
20
65.05645158107626
30
-3.0449230063203461e-13
10
-346.53489642362507
20
65.027803204611416
30
-3.0884093746218522e-13
10
-346.89506017188938
20
65.029848836020122
30
-3.2239466925664224e-13
0
SPLINE
5
468
100
AcDbEntity
8
0
100
AcDbSpline
70
0
71
2
72
6
73
3
74
0
42
0.000000001
43
0.0000000001
44
0.0000000001
40
0
40
0
40
0
40
1
40
1
40
1
10
-346.89506017188938
20
65.029848836020122
30
-3.2239466925664224e-13
10
-346.6106127999297
20
65.271321557119975
30
-3.107515101911894e-13
10
-346.6106127999297
20
65.63148619945396
30
-3.0936057012978904e-13
0
SPLINE
5
469
100
AcDbEntity
8
0
100
AcDbSpline
70
0
71
2
72
6
73
3
74
0
42
0.000000001
43
0.0000000001
44
0.0000000001
40
0
40
0
40
0
40
1
40
1
40
1
10
-346.6106127999297
20
65.63148619945396
30
-3.0936057012978904e-13
10
-346.6106127999297
20
66.079643986776958
30
-3.0762980439949263e-13
10
-346.93394177179249
20
66.325210354879985
30
-3.1885609043754149e-13
0
SPLINE
5
470
100
AcDbEntity
8
0
100
AcDbSpline
70
0
71
2
72
6
73
3
74
0
42
0.000000001
43
0.0000000001
44
0.0000000001
40
0
40
0
40
0
40
1
40
1
40
1
10
-346.93394177179249
20
66.325210354879985
30
-3.1885609043754149e-13
10
-347.25727044563206
20
66.570776722983013
30
-3.3008236525380219e-13
10
-347.70952158193501
20
66.570776722983013
30
-3.4711146238395481e-13
0
SPLINE
5
471
100
AcDbEntity
8
0
100
AcDbSpline
70
0
71
2
72
6
73
3
74
0
42
0.000000001
43
0.0000000001
44
0.0000000001
40
0
40
0
40
0
40
1
40
1
40
1
10
-347.70952158193501
20
66.570776722983013
30
-3.4711146238395481e-13
10
-348.02057199697407
20
66.570776722983027
30
-3.5882377730122736e-13
10
-348.28353219251545
20
66.458226464346552
30
-3.6915996376645885e-13
0
SPLINE
5
472
100
AcDbEntity
8
0
100
AcDbSpline
70
0
71
2
72
6
73
3
74
0
42
0.000000001
43
0.0000000001
44
0.0000000001
40
0
40
0
40
0
40
1
40
1
40
1
10
-348.28353219251545
20
66.458226464346552
30
-3.6915996376645885e-13
10
-348.54649298410328
20
66.345673821524286
30
-3.7949618188288754e-13
10
-348.68973963479908
20
66.131826661184931
30
-3.8571587003072952e-13
0
SPLINE
5
473
100
AcDbEntity
8
0
100
AcDbSpline
70
0
71
2
72
6
73
3
74
0
42
0.000000001
43
0.0000000001
44
0.0000000001
40
0
40
0
40
0
40
1
40
1
40
1
10
-348.68973963479908
20
66.131826661184931
30
-3.8571587003072952e-13
10
-348.83298688154133
20
65.917979500845576
30
-3.9193558062214782e-13
10
-348.83298688154133
20
65.629440568045283
30
-3.9304990533293794e-13
0
SPLINE
5
474
100
AcDbEntity
8
0
100
AcDbSpline
70
0
71
2
72
6
73
3
74
0
42
0.000000001
43
0.0000000001
44
0.0000000001
40
0
40
0
40
0
40
1
40
1
40
1
10
-348.83298688154133
20
65.629440568045283
30
-3.9304990533293794e-13
10
-348.83298688154133
20
65.244718812063837
30
-3.9453568389081943e-13
10
-348.52193587045582
20
64.995061181143427
30
-3.8378751335720605e-13
0
LINE
5
475
100
AcDbEntity
8
0
100
AcDbLine
10
-348.52193587045582
20
64.995061181143427
30
-3.8378751335720605e-13
11
-348.78387325029286
21
64.995061181143427
31
-3.9365052248024907e-13
0
LINE
5
476
100
AcDbEntity
8
0
100
AcDbLine
10
-348.78387325029286
20
64.995061181143427
30
-3.9365052248024907e-13
11
-348.78387325029286
21
64.65536000545373
31
-3.9496243353045557e-13
0
LINE
5
477
100
AcDbEntity
8
0
100
AcDbLine
10
-348.78387325029286
20
64.65536000545373
30
-3.9496243353045557e-13
11
-346.90529220323475
21
64.655360005453716
31
-3.2422620635647487e-13
0
SPLINE
5
478
100
AcDbEntity
8
0
100
AcDbSpline
70
0
71
2
72
6
73
3
74
0
42
0.000000001
43
0.0000000001
44
0.0000000001
40
0
40
0
40
0
40
1
40
1
40
1
10
-346.90529220323475
20
64.655360005453716
30
-3.2422620635647482e-13
10
-346.39778845529469
20
64.655360005453701
30
-3.0511662337513191e-13
10
-346.18598811845692
20
64.758702538565274
30
-2.9674237377727485e-13
0
SPLINE
5
479
100
AcDbEntity
8
0
100
AcDbSpline
70
0
71
2
72
6
73
3
74
0
42
0.000000001
43
0.0000000001
44
0.0000000001
40
0
40
0
40
0
40
1
40
1
40
1
10
-346.18598811845692
20
64.758702538565274
30
-2.9674237377727485e-13
10
-345.9741871855727
20
64.862045071676846
30
-2.8836810173584167e-13
10
-345.85140400152119
20
65.08612515743124
30
-2.8287942733773295e-13
0
SPLINE
5
480
100
AcDbEntity
8
0
100
AcDbSpline
70
0
71
2
72
6
73
3
74
0
42
0.000000001
43
0.0000000001
44
0.0000000001
40
0
40
0
40
0
40
1
40
1
40
1
10
-345.85140400152119
20
65.08612515743124
30
-2.8287942733773295e-13
10
-345.72862081746968
20
65.310202858999844
30
-2.7739076214724536e-13
10
-345.72862081746968
20
65.637625477865811
30
-2.7612627034527943e-13
0
SPLINE
5
481
100
AcDbEntity
8
0
100
AcDbSpline
70
0
71
2
72
6
73
3
74
0
42
0.000000001
43
0.0000000001
44
0.0000000001
40
0
40
0
40
0
40
1
40
1
40
1
10
-345.72862081746968
20
65.637625477865811
30
-2.7612627034527943e-13
10
-345.72862081746968
20
66.026438496664639
30
-2.7462469150973174e-13
10
-345.90358667592915
20
66.265865586355801
30
-2.8028821172524861e-13
0
SPLINE
5
482
100
AcDbEntity
8
0
100
AcDbSpline
70
0
71
2
72
6
73
3
74
0
42
0.000000001
43
0.0000000001
44
0.0000000001
40
0
40
0
40
0
40
1
40
1
40
1
10
-345.90358667592915
20
66.265865586355801
30
-2.8028821172524861e-13
10
-346.07855253438862
20
66.505292676046963
30
-2.8595173194076553e-13
10
-346.43053107480915
20
66.497107766226407
30
-2.992367672264256e-13
0
SPLINE
5
483
100
AcDbEntity
8
0
100
AcDbSpline
70
0
71
2
72
6
73
3
74
0
42
0.000000001
43
0.0000000001
44
0.0000000001
40
0
40
0
40
0
40
1
40
1
40
1
10
-347.73612432699116
20
66.192194245413432
30
-3.4957523301202969e-13
10
-347.30843000631245
20
66.192194245413432
30
-3.3347080000077987e-13
10
-347.1119772694579
20
66.022344849661479
30
-3.2672950530157839e-13
0
SPLINE
5
484
100
AcDbEntity
8
0
100
AcDbSpline
70
0
71
2
72
6
73
3
74
0
42
0.000000001
43
0.0000000001
44
0.0000000001
40
0
40
0
40
0
40
1
40
1
40
1
10
-347.1119772694579
20
66.022344849661479
30
-3.2672950530157839e-13
10
-346.91552423458012
20
65.852495453909526
30
-3.1998819938058884e-13
10
-346.91552423458012
20
65.59669616039146
30
-3.2097608503956548e-13
0
SPLINE
5
485
100
AcDbEntity
8
0
100
AcDbSpline
70
0
71
2
72
6
73
3
74
0
42
0.000000001
43
0.0000000001
44
0.0000000001
40
0
40
0
40
0
40
1
40
1
40
1
10
-346.91552423458012
20
65.59669616039146
30
-3.2097608503956548e-13
10
-346.91552423458012
20
65.342947266653667
30
-3.2195605214446707e-13
10
-347.1109538577071
20
65.171049855307231
30
-3.299786336341086e-13
0
SPLINE
5
486
100
AcDbEntity
8
0
100
AcDbSpline
70
0
71
2
72
6
73
3
74
0
42
0.000000001
43
0.0000000001
44
0.0000000001
40
0
40
0
40
0
40
1
40
1
40
1
10
-347.1109538577071
20
65.171049855307231
30
-3.299786336341086e-13
10
-347.30638377885731
20
64.999152443960796
30
-3.3800122634553834e-13
10
-347.72384606819065
20
64.999152443960796
30
-3.5372038170542952e-13
0
SPLINE
5
487
100
AcDbEntity
8
0
100
AcDbSpline
70
0
71
2
72
6
73
3
74
0
42
0.000000001
43
0.0000000001
44
0.0000000001
40
0
40
0
40
0
40
1
40
1
40
1
10
-347.72384606819065
20
64.999152443960796
30
-3.5372038170542952e-13
10
-348.12289111833485
20
64.99915244396081
30
-3.6874605300337876e-13
10
-348.32548313360127
20
65.176163933828974
30
-3.7569085684421616e-13
0
SPLINE
5
488
100
AcDbEntity
8
0
100
AcDbSpline
70
0
71
2
72
6
73
3
74
0
42
0.000000001
43
0.0000000001
44
0.0000000001
40
0
40
0
40
0
40
1
40
1
40
1
10
-348.32548313360127
20
65.176163933828974
30
-3.7569085684421616e-13
10
-348.52807514886769
20
65.353177807882929
30
-3.8263565147743251e-13
10
-348.52807514886769
20
65.60283782298913
30
-3.8167147544257613e-13
0
SPLINE
5
489
100
AcDbEntity
8
0
100
AcDbSpline
70
0
71
2
72
6
73
3
74
0
42
0.000000001
43
0.0000000001
44
0.0000000001
40
0
40
0
40
0
40
1
40
1
40
1
10
-348.52807514886769
20
65.60283782298913
30
-3.8167147544257613e-13
10
-348.52807514886769
20
65.848404191092158
30
-3.8072310889300694e-13
10
-348.3285527728072
20
66.020299218252802
30
-3.7254642779480057e-13
0
SPLINE
5
490
100
AcDbEntity
8
0
100
AcDbSpline
70
0
71
2
72
6
73
3
74
0
42
0.000000001
43
0.0000000001
44
0.0000000001
40
0
40
0
40
0
40
1
40
1
40
1
10
-348.3285527728072
20
66.020299218252802
30
-3.7254642779480057e-13
10
-348.12903039674671
20
66.192194245413447
30
-3.6436974669659424e-13
10
-347.73612432699116
20
66.192194245413432
30
-3.4957523301202969e-13
0
LINE
5
491
100
AcDbEntity
8
0
100
AcDbLine
10
-347.31047623376759
20
62.611023209646831
30
-3.4737817436268373e-13
11
-347.2634094260207
21
62.230395100668559
31
-3.4707588643824741e-13
0
SPLINE
5
492
100
AcDbEntity
8
0
100
AcDbSpline
70
0
71
2
72
6
73
3
74
0
42
0.000000001
43
0.0000000001
44
0.0000000001
40
0
40
0
40
0
40
1
40
1
40
1
10
-347.2634094260207
20
62.230395100668559
30
-3.4707588643824741e-13
10
-346.92984872083576
20
62.320436261252048
30
-3.3416823240570886e-13
10
-346.74567424278172
20
62.563954613760593
30
-3.2629285603065693e-13
0
SPLINE
5
493
100
AcDbEntity
8
0
100
AcDbSpline
70
0
71
2
72
6
73
3
74
0
42
0.000000001
43
0.0000000001
44
0.0000000001
40
0
40
0
40
0
40
1
40
1
40
1
10
-346.74567424278172
20
62.563954613760593
30
-3.2629285603065693e-13
10
-346.56149976472767
20
62.807475350454922
30
-3.1841747044798407e-13
10
-346.56149976472767
20
63.186055443838711
30
-3.1695541072184383e-13
0
SPLINE
5
494
100
AcDbEntity
8
0
100
AcDbSpline
70
0
71
2
72
6
73
3
74
0
42
0.000000001
43
0.0000000001
44
0.0000000001
40
0
40
0
40
0
40
1
40
1
40
1
10
-346.56149976472767
20
63.186055443838711
30
-3.1695541072184383e-13
10
-346.56149976472767
20
63.662863991812344
30
-3.1511399700977919e-13
10
-346.85515575628193
20
63.942195199087742
30
-3.2509257616350077e-13
0
SPLINE
5
495
100
AcDbEntity
8
0
100
AcDbSpline
70
0
71
2
72
6
73
3
74
0
42
0.000000001
43
0.0000000001
44
0.0000000001
40
0
40
0
40
0
40
1
40
1
40
1
10
-346.85515575628193
20
63.942195199087742
30
-3.2509257616350077e-13
10
-347.14881204585942
20
64.221526406363139
30
-3.3507116653901052e-13
10
-347.67882578592213
20
64.221526406363139
30
-3.5502834239848125e-13
0
SPLINE
5
496
100
AcDbEntity
8
0
100
AcDbSpline
70
0
71
2
72
6
73
3
74
0
42
0.000000001
43
0.0000000001
44
0.0000000001
40
0
40
0
40
0
40
1
40
1
40
1
10
-347.67882578592213
20
64.221526406363139
30
-3.5502834239848125e-13
10
-348.22725676517399
20
64.221526406363154
30
-3.7567900231989396e-13
10
-348.53012197236927
20
63.939126751974733
30
-3.8817372591325292e-13
0
SPLINE
5
497
100
AcDbEntity
8
0
100
AcDbSpline
70
0
71
2
72
6
73
3
74
0
42
0.000000001
43
0.0000000001
44
0.0000000001
40
0
40
0
40
0
40
1
40
1
40
1
10
-348.53012197236927
20
63.939126751974733
30
-3.8817372591325292e-13
10
-348.83298688154133
20
63.656727097586305
30
-4.0066843828482371e-13
10
-348.83298688154133
20
63.206521294668825
30
-4.0240711336157424e-13
0
SPLINE
5
498
100
AcDbEntity
8
0
100
AcDbSpline
70
0
71
2
72
6
73
3
74
0
42
0.000000001
43
0.0000000001
44
0.0000000001
40
0
40
0
40
0
40
1
40
1
40
1
10
-348.83298688154133
20
63.206521294668825
30
-4.0240711336157424e-13
10
-348.83298688154133
20
62.770639679983766
30
-4.0409046905125108e-13
10
-348.53626095275791
20
62.494379304007204
30
-3.9398443484228428e-13
0
SPLINE
5
499
100
AcDbEntity
8
0
100
AcDbSpline
70
0
71
2
72
6
73
3
74
0
42
0.000000001
43
0.0000000001
44
0.0000000001
40
0
40
0
40
0
40
1
40
1
40
1
10
-348.53626095275791
20
62.494379304007204
30
-3.9398443484228428e-13
10
-348.2395350239745
20
62.218116543844843
30
-3.8387840984093853e-13
10
-347.70133577804478
20
62.218116543844829
30
-3.6361301634909618e-13
0
SPLINE
5
500
100
AcDbEntity
8
0
100
AcDbSpline
70
0
71
2
72
6
73
3
74
0
42
0.000000001
43
0.0000000001
44
0.0000000001
40
0
40
0
40
0
40
1
40
1
40
1
10
-347.70133577804478
20
62.218116543844829
30
-3.6361301634909618e-13
10
-347.66859375457676
20
62.218116543844829
30
-3.6238014581960988e-13
10
-347.6031094096175
20
62.220164559439311
30
-3.59906484192395e-13
0
LINE
5
501
100
AcDbEntity
8
0
100
AcDbLine
10
-347.6031094096175
20
62.220164559439311
30
-3.59906484192395e-13
11
-347.6031094096175
21
63.840900681570659
31
-3.5364727233133521e-13
0
SPLINE
5
502
100
AcDbEntity
8
0
100
AcDbSpline
70
0
71
2
72
6
73
3
74
0
42
0.000000001
43
0.0000000001
44
0.0000000001
40
0
40
0
40
0
40
1
40
1
40
1
10
-347.6031094096175
20
63.840900681570659
30
-3.5364727233133526e-13
10
-347.24499218683155
20
63.820434830740581
30
-3.4024173863584703e-13
10
-347.05467843036564
20
63.638306878164897
30
-3.3377902079827081e-13
0
SPLINE
5
503
100
AcDbEntity
8
0
100
AcDbSpline
70
0
71
2
72
6
73
3
74
0
42
0.000000001
43
0.0000000001
44
0.0000000001
40
0
40
0
40
0
40
1
40
1
40
1
10
-347.05467843036564
20
63.638306878164897
30
-3.3377902079827081e-13
10
-346.86436437587651
20
63.456178925589207
30
-3.2731629173890638e-13
10
-346.86436437587651
20
63.184009812430027
30
-3.2836739692378978e-13
0
SPLINE
5
504
100
AcDbEntity
8
0
100
AcDbSpline
70
0
71
2
72
6
73
3
74
0
42
0.000000001
43
0.0000000001
44
0.0000000001
40
0
40
0
40
0
40
1
40
1
40
1
10
-346.86436437587651
20
63.184009812430027
30
-3.2836739692378978e-13
10
-346.86436437587651
20
62.981418393210056
30
-3.2914979610451695e-13
10
-346.97077654819401
20
62.838171742514263
30
-3.3370986005490229e-13
0
SPLINE
5
505
100
AcDbEntity
8
0
100
AcDbSpline
70
0
71
2
72
6
73
3
74
0
42
0.000000001
43
0.0000000001
44
0.0000000001
40
0
40
0
40
0
40
1
40
1
40
1
10
-346.97077654819401
20
62.838171742514263
30
-3.3370986005490229e-13
10
-347.07718842248829
20
62.694925091818462
30
-3.3826991278349948e-13
10
-347.31047623376759
20
62.611023209646831
30
-3.4737817436268373e-13
0
LINE
5
506
100
AcDbEntity
8
0
100
AcDbLine
10
-347.90597431878956
20
63.820434830740581
30
-3.6513040783505114e-13
11
-347.90597431878956
21
62.606929562643657
31
-3.6981691198820236e-13
0
SPLINE
5
507
100
AcDbEntity
8
0
100
AcDbSpline
70
0
71
2
72
6
73
3
74
0
42
0.000000001
43
0.0000000001
44
0.0000000001
40
0
40
0
40
0
40
1
40
1
40
1
10
-347.90597431878956
20
62.606929562643657
30
-3.6981691198820236e-13
10
-348.1801899574271
20
62.631486676291132
30
-3.8004740906332174e-13
10
-348.31729762773426
20
62.746084950522089
30
-3.847674977263967e-13
0
SPLINE
5
508
100
AcDbEntity
8
0
100
AcDbSpline
70
0
71
2
72
6
73
3
74
0
42
0.000000001
43
0.0000000001
44
0.0000000001
40
0
40
0
40
0
40
1
40
1
40
1
10
-348.31729762773426
20
62.746084950522089
30
-3.847674977263967e-13
10
-348.53012197236927
20
62.922073624685915
30
-3.9210154050979722e-13
10
-348.53012197236927
20
63.202427647665651
30
-3.9101882556196044e-13
0
SPLINE
5
509
100
AcDbEntity
8
0
100
AcDbSpline
70
0
71
2
72
6
73
3
74
0
42
0.000000001
43
0.0000000001
44
0.0000000001
40
0
40
0
40
0
40
1
40
1
40
1
10
-348.53012197236927
20
63.202427647665651
30
-3.9101882556196044e-13
10
-348.53012197236927
20
63.456178925589235
30
-3.9003884924943792e-13
10
-348.36027198057087
20
63.629099152640009
30
-3.8297549498609392e-13
0
SPLINE
5
510
100
AcDbEntity
8
0
100
AcDbSpline
70
0
71
2
72
6
73
3
74
0
42
0.000000001
43
0.0000000001
44
0.0000000001
40
0
40
0
40
0
40
1
40
1
40
1
10
-348.36027198057087
20
63.629099152640009
30
-3.8297549498609392e-13
10
-348.19042198877247
20
63.80201937969079
30
-3.7591214072274997e-13
10
-347.90597431878956
20
63.820434830740581
30
-3.6513040783505114e-13
0
LINE
5
511
100
AcDbEntity
8
0
100
AcDbLine
10
-346.6106127999297
20
59.179235718802097
30
-3.3427887866104775e-13
11
-346.92984872083576
21
59.179235718802097
31
-3.4629941121069191e-13
0
SPLINE
5
512
100
AcDbEntity
8
0
100
AcDbSpline
70
0
71
2
72
6
73
3
74
0
42
0.000000001
43
0.0000000001
44
0.0000000001
40
0
40
0
40
0
40
1
40
1
40
1
10
-346.92984872083576
20
59.179235718802097
30
-3.4629941121069181e-13
10
-346.56149976472767
20
59.432986996725674
30
-3.3144959655429569e-13
10
-346.56149976472767
20
59.868866227224942
30
-3.2976625007223984e-13
0
SPLINE
5
513
100
AcDbEntity
8
0
100
AcDbSpline
70
0
71
2
72
6
73
3
74
0
42
0.000000001
43
0.0000000001
44
0.0000000001
40
0
40
0
40
0
40
1
40
1
40
1
10
-346.56149976472767
20
59.868866227224942
30
-3.2976625007223984e-13
10
-346.56149976472767
20
60.061227105215664
30
-3.2902336079329907e-13
10
-346.63516931753071
20
60.228008053854587
30
-3.311532187716002e-13
0
SPLINE
5
514
100
AcDbEntity
8
0
100
AcDbSpline
70
0
71
2
72
6
73
3
74
0
42
0.000000001
43
0.0000000001
44
0.0000000001
40
0
40
0
40
0
40
1
40
1
40
1
10
-346.63516931753071
20
60.228008053854587
30
-3.311532187716002e-13
10
-346.7088394663802
20
60.394789002493503
30
-3.3328309919347754e-13
10
-346.82036720733555
20
60.475620053366306
30
-3.3717040687552232e-13
0
SPLINE
5
515
100
AcDbEntity
8
0
100
AcDbSpline
70
0
71
2
72
6
73
3
74
0
42
0.000000001
43
0.0000000001
44
0.0000000001
40
0
40
0
40
0
40
1
40
1
40
1
10
-346.82036720733555
20
60.475620053366306
30
-3.3717040687552232e-13
10
-346.93189524631413
20
60.556451104239109
30
-3.4105772577935516e-13
10
-347.09355973224552
20
60.589195511892925
30
-3.4701859460610857e-13
0
SPLINE
5
516
100
AcDbEntity
8
0
100
AcDbSpline
70
0
71
2
72
6
73
3
74
0
42
0.000000001
43
0.0000000001
44
0.0000000001
40
0
40
0
40
0
40
1
40
1
40
1
10
-347.09355973224552
20
60.589195511892925
30
-3.4701859460610857e-13
10
-347.20201813201817
20
60.611704609945903
30
-3.5101556591768726e-13
10
-347.4373521707526
20
60.611704609945903
30
-3.5987685090284045e-13
0
LINE
5
517
100
AcDbEntity
8
0
100
AcDbLine
10
-347.43735217075266
20
60.611704609945903
30
-3.5987685090284045e-13
11
-348.78387325029286
21
60.611704609945924
31
-4.1057885342015161e-13
0
LINE
5
518
100
AcDbEntity
8
0
100
AcDbLine
10
-348.78387325029286
20
60.611704609945924
30
-4.1057885342015161e-13
11
-348.78387325029286
21
60.243355057791383
31
-4.1200140324450545e-13
0
LINE
5
519
100
AcDbEntity
8
0
100
AcDbLine
10
-348.78387325029286
20
60.243355057791383
30
-4.1200140324450545e-13
11
-347.57855289201649
21
60.243355057791362
31
-3.6661618294007431e-13
0
SPLINE
5
520
100
AcDbEntity
8
0
100
AcDbSpline
70
0
71
2
72
6
73
3
74
0
42
0.000000001
43
0.0000000001
44
0.0000000001
40
0
40
0
40
0
40
1
40
1
40
1
10
-347.57855289201649
20
60.243355057791362
30
-3.6661618294007431e-13
10
-347.29001246910008
20
60.243355057791362
30
-3.5575146090092953e-13
10
-347.18973957519444
20
60.220845959738384
30
-3.5206270722172256e-13
0
SPLINE
5
521
100
AcDbEntity
8
0
100
AcDbSpline
70
0
71
2
72
6
73
3
74
0
42
0.000000001
43
0.0000000001
44
0.0000000001
40
0
40
0
40
0
40
1
40
1
40
1
10
-347.18973957519444
20
60.220845959738384
30
-3.5206270722172256e-13
10
-347.04444639902027
20
60.186055920675884
30
-3.4672618502033335e-13
10
-346.96156792859944
20
60.073505662039409
30
-3.4404013724160718e-13
0
SPLINE
5
522
100
AcDbEntity
8
0
100
AcDbSpline
70
0
71
2
72
6
73
3
74
0
42
0.000000001
43
0.0000000001
44
0.0000000001
40
0
40
0
40
0
40
1
40
1
40
1
10
-346.96156792859944
20
60.073505662039409
30
-3.4404013724160718e-13
10
-346.87868916015537
20
59.960955403402927
30
-3.413540782410928e-13
10
-346.87868916015537
20
59.795197270468357
30
-3.4199422888471936e-13
0
SPLINE
5
523
100
AcDbEntity
8
0
100
AcDbSpline
70
0
71
2
72
6
73
3
74
0
42
0.000000001
43
0.0000000001
44
0.0000000001
40
0
40
0
40
0
40
1
40
1
40
1
10
-346.87868916015537
20
59.795197270468357
30
-3.4199422888471936e-13
10
-346.87868916015537
20
59.629439137533787
30
-3.4263437952834592e-13
10
-346.96361415605458
20
59.484146855429302
30
-3.4639326391624783e-13
0
SPLINE
5
524
100
AcDbEntity
8
0
100
AcDbSpline
70
0
71
2
72
6
73
3
74
0
42
0.000000001
43
0.0000000001
44
0.0000000001
40
0
40
0
40
0
40
1
40
1
40
1
10
-346.96361415605458
20
59.484146855429302
30
-3.4639326391624783e-13
10
-347.04853915195378
20
59.338852189139018
30
-3.5015215751177073e-13
10
-347.19485573987873
20
59.278484604910503
30
-3.5589470990360123e-13
0
SPLINE
5
525
100
AcDbEntity
8
0
100
AcDbSpline
70
0
71
2
72
6
73
3
74
0
42
0.000000001
43
0.0000000001
44
0.0000000001
40
0
40
0
40
0
40
1
40
1
40
1
10
-347.19485573987873
20
59.278484604910503
30
-3.5589470990360123e-13
10
-347.34117202978047
20
59.218117020681987
30
-3.6163725107364357e-13
10
-347.61948042135151
20
59.218117020681987
30
-3.7211669546142987e-13
0
LINE
5
526
100
AcDbEntity
8
0
100
AcDbLine
10
-347.61948042135151
20
59.218117020681987
30
-3.7211669546142987e-13
11
-348.78387325029286
21
59.218117020682008
31
-4.1596082760400304e-13
0
LINE
5
527
100
AcDbEntity
8
0
100
AcDbLine
10
-348.78387325029286
20
59.218117020682008
30
-4.1596082760400304e-13
11
-348.78387325029286
21
58.849767468527467
31
-4.1738337742835682e-13
0
LINE
5
528
100
AcDbEntity
8
0
100
AcDbLine
10
-348.78387325029286
20
58.849767468527467
30
-4.1738337742835682e-13
11
-346.6106127999297
21
58.849767468527439
31
-3.355512706018467e-13
0
LINE
5
529
100
AcDbEntity
8
0
100
AcDbLine
10
-346.6106127999297
20
58.849767468527439
30
-3.355512706018467e-13
11
-346.6106127999297
21
59.179235718802097
31
-3.3427887866104775e-13
0
LINE
5
530
100
AcDbEntity
8
0
100
AcDbLine
10
-345.77773444871815
20
58.272684834555264
30
-3.0641867651608541e-13
11
-348.78387325029286
21
58.272684834555299
31
-4.1961204526517914e-13
0
LINE
5
531
100
AcDbEntity
8
0
100
AcDbLine
10
-348.78387325029286
20
58.272684834555299
30
-4.1961204526517914e-13
11
-348.78387325029286
21
57.937077305868776
31
-4.209081468300984e-13
0
LINE
5
532
100
AcDbEntity
8
0
100
AcDbLine
10
-348.78387325029286
20
57.937077305868776
30
-4.209081468300984e-13
11
-348.50147240381153
21
57.937077305868776
31
-4.1027460484791448e-13
0
SPLINE
5
533
100
AcDbEntity
8
0
100
AcDbSpline
70
0
71
2
72
6
73
3
74
0
42
0.000000001
43
0.0000000001
44
0.0000000001
40
0
40
0
40
0
40
1
40
1
40
1
10
-348.50147240381153
20
57.937077305868776
30
-4.1027460484791453e-13
10
-348.66722934465321
20
57.818387768820436
30
-4.1697440252561854e-13
10
-348.75010811309727
20
57.66900183971277
30
-4.2067204760160883e-13
0
SPLINE
5
534
100
AcDbEntity
8
0
100
AcDbSpline
70
0
71
2
72
6
73
3
74
0
42
0.000000001
43
0.0000000001
44
0.0000000001
40
0
40
0
40
0
40
1
40
1
40
1
10
-348.75010811309727
20
57.66900183971277
30
-4.2067204760160883e-13
10
-348.83298658351811
20
57.519615910605104
30
-4.2436968145581096e-13
10
-348.83298658351811
20
57.306791565970094
30
-4.2519159974594569e-13
0
SPLINE
5
535
100
AcDbEntity
8
0
100
AcDbSpline
70
0
71
2
72
6
73
3
74
0
42
0.000000001
43
0.0000000001
44
0.0000000001
40
0
40
0
40
0
40
1
40
1
40
1
10
-348.83298658351811
20
57.306791565970094
30
-4.2519159974594569e-13
10
-348.83298658351811
20
57.028483174399049
30
-4.2626641455494935e-13
10
-348.68973963479908
20
56.81565882976404
30
-4.2169450183500509e-13
0
SPLINE
5
536
100
AcDbEntity
8
0
100
AcDbSpline
70
0
71
2
72
6
73
3
74
0
42
0.000000001
43
0.0000000001
44
0.0000000001
40
0
40
0
40
0
40
1
40
1
40
1
10
-348.68973963479908
20
56.81565882976404
30
-4.2169450183500509e-13
10
-348.54649268608006
20
56.60283448512903
30
-4.1712258911506093e-13
10
-348.28557871799381
20
56.494375489309931
30
-4.0771697950011636e-13
0
SPLINE
5
537
100
AcDbEntity
8
0
100
AcDbSpline
70
0
71
2
72
6
73
3
74
0
42
0.000000001
43
0.0000000001
44
0.0000000001
40
0
40
0
40
0
40
1
40
1
40
1
10
-348.28557871799381
20
56.494375489309931
30
-4.0771697950011636e-13
10
-348.02466474990757
20
56.38591887767663
30
-3.9831136067755079e-13
10
-347.71361433486851
20
56.385918877676616
30
-3.8659904576027824e-13
0
SPLINE
5
538
100
AcDbEntity
8
0
100
AcDbSpline
70
0
71
2
72
6
73
3
74
0
42
0.000000001
43
0.0000000001
44
0.0000000001
40
0
40
0
40
0
40
1
40
1
40
1
10
-347.71361433486851
20
56.385918877676616
30
-3.8659904576027824e-13
10
-347.38005362968357
20
56.385918877676616
30
-3.7403912674308976e-13
10
-347.11300038318547
20
56.505631230429302
30
-3.6352116054634754e-13
0
SPLINE
5
539
100
AcDbEntity
8
0
100
AcDbSpline
70
0
71
2
72
6
73
3
74
0
42
0.000000001
43
0.0000000001
44
0.0000000001
40
0
40
0
40
0
40
1
40
1
40
1
10
-347.11300038318547
20
56.505631230429302
30
-3.6352116054634754e-13
10
-346.84594713668736
20
56.625345967367771
30
-3.5300318514198437e-13
10
-346.70372359971913
20
56.853517315939548
30
-3.4676670200566808e-13
0
SPLINE
5
540
100
AcDbEntity
8
0
100
AcDbSpline
70
0
71
2
72
6
73
3
74
0
42
0.000000001
43
0.0000000001
44
0.0000000001
40
0
40
0
40
0
40
1
40
1
40
1
10
-346.70372359971913
20
56.853517315939548
30
-3.4676670200566808e-13
10
-346.56149976472767
20
57.081688664511319
30
-3.4053020764756373e-13
10
-346.56149976472767
20
57.333394311026211
30
-3.3955813147387428e-13
0
SPLINE
5
541
100
AcDbEntity
8
0
100
AcDbSpline
70
0
71
2
72
6
73
3
74
0
42
0.000000001
43
0.0000000001
44
0.0000000001
40
0
40
0
40
0
40
1
40
1
40
1
10
-346.56149976472767
20
57.333394311026211
30
-3.3955813147387428e-13
10
-346.56149976472767
20
57.517567895010586
30
-3.3884686116550788e-13
10
-346.63926236848744
20
57.663885377005222
30
-3.4120986819297685e-13
0
SPLINE
5
542
100
AcDbEntity
8
0
100
AcDbSpline
70
0
71
2
72
6
73
3
74
0
42
0.000000001
43
0.0000000001
44
0.0000000001
40
0
40
0
40
0
40
1
40
1
40
1
10
-346.63926236848744
20
57.663885377005222
30
-3.4120986819297685e-13
10
-346.7170249722472
20
57.810202858999851
30
-3.4357287522044582e-13
10
-346.83571510534199
20
57.90433528240073
30
-3.4767850681860557e-13
0
LINE
5
543
100
AcDbEntity
8
0
100
AcDbLine
10
-346.83571510534199
20
57.904335282400723
30
-3.4767850681860562e-13
11
-345.77773444871815
21
57.904335282400723
31
-3.0784122634043914e-13
0
LINE
5
544
100
AcDbEntity
8
0
100
AcDbLine
10
-345.77773444871815
20
57.904335282400723
30
-3.0784122634043914e-13
11
-345.77773444871815
21
58.272684834555264
31
-3.0641867651608541e-13
0
SPLINE
5
545
100
AcDbEntity
8
0
100
AcDbSpline
70
0
71
2
72
6
73
3
74
0
42
0.000000001
43
0.0000000001
44
0.0000000001
40
0
40
0
40
0
40
1
40
1
40
1
10
-347.68496476631077
20
57.939125321463237
30
-3.7952185762183194e-13
10
-347.26545595149906
20
57.939125321463237
30
-3.6372564224295368e-13
10
-347.06491016368778
20
57.769273541525493
30
-3.5683023671339939e-13
0
SPLINE
5
546
100
AcDbEntity
8
0
100
AcDbSpline
70
0
71
2
72
6
73
3
74
0
42
0.000000001
43
0.0000000001
44
0.0000000001
40
0
40
0
40
0
40
1
40
1
40
1
10
-347.06491016368778
20
57.769273541525493
30
-3.5683023671339939e-13
10
-346.86436467389973
20
57.599424145773533
30
-3.4993483319801213e-13
10
-346.86436467389973
20
57.357951424673679
30
-3.5086739026229408e-13
0
SPLINE
5
547
100
AcDbEntity
8
0
100
AcDbSpline
70
0
71
2
72
6
73
3
74
0
42
0.000000001
43
0.0000000001
44
0.0000000001
40
0
40
0
40
0
40
1
40
1
40
1
10
-346.86436467389973
20
57.357951424673679
30
-3.5086739026229408e-13
10
-346.86436467389973
20
57.112385056570652
30
-3.5181575681186327e-13
10
-347.07207255582722
20
56.937419198111186
30
-3.6031251495831186e-13
0
SPLINE
5
548
100
AcDbEntity
8
0
100
AcDbSpline
70
0
71
2
72
6
73
3
74
0
42
0.000000001
43
0.0000000001
44
0.0000000001
40
0
40
0
40
0
40
1
40
1
40
1
10
-347.07207255582722
20
56.937419198111186
30
-3.6031251495831186e-13
10
-347.27978073577793
20
56.762453339651714
30
-3.688092843265486e-13
10
-347.71566056232365
20
56.762453339651714
30
-3.8522193497016994e-13
0
SPLINE
5
549
100
AcDbEntity
8
0
100
AcDbSpline
70
0
71
2
72
6
73
3
74
0
42
0.000000001
43
0.0000000001
44
0.0000000001
40
0
40
0
40
0
40
1
40
1
40
1
10
-347.71566056232365
20
56.762453339651714
30
-3.8522193497016994e-13
10
-348.13107662420185
20
56.762453339651728
30
-4.0086404153286226e-13
10
-348.33776139240177
20
56.933325551108027
30
-4.0798666381400574e-13
0
SPLINE
5
550
100
AcDbEntity
8
0
100
AcDbSpline
70
0
71
2
72
6
73
3
74
0
42
0.000000001
43
0.0000000001
44
0.0000000001
40
0
40
0
40
0
40
1
40
1
40
1
10
-348.33776139240177
20
56.933325551108027
30
-4.0798666381400574e-13
10
-348.54444645862492
20
57.104200146750124
30
-4.1510928810931624e-13
10
-348.54444645862492
20
57.341579220846803
30
-4.1419254053032142e-13
0
SPLINE
5
551
100
AcDbEntity
8
0
100
AcDbSpline
70
0
71
2
72
6
73
3
74
0
42
0.000000001
43
0.0000000001
44
0.0000000001
40
0
40
0
40
0
40
1
40
1
40
1
10
-348.54444645862492
20
57.341579220846803
30
-4.1419254053032142e-13
10
-348.54444645862492
20
57.576915047720583
30
-4.1328368388253879e-13
10
-348.3244600198737
20
57.758020184591913
30
-4.0430087844162439e-13
0
SPLINE
5
552
100
AcDbEntity
8
0
100
AcDbSpline
70
0
71
2
72
6
73
3
74
0
42
0.000000001
43
0.0000000001
44
0.0000000001
40
0
40
0
40
0
40
1
40
1
40
1
10
-348.3244600198737
20
57.758020184591913
30
-4.0430087844162439e-13
10
-348.10447358112248
20
57.939125321463251
30
-3.9531807300071009e-13
10
-347.68496476631077
20
57.939125321463237
30
-3.7952185762183194e-13
0
ENDSEC
0
SECTION
2
OBJECTS
0
DICTIONARY
5
C
100
AcDbDictionary
3
ACAD_GROUP
350
D
3
ACAD_MLINESTYLE
350
17
0
DICTIONARY
5
D
100
AcDbDictionary
0
DICTIONARY
5
1A
330
C
100
AcDbDictionary
0
DICTIONARY
5
17
100
AcDbDictionary
0
ENDSEC
0
EOF
